<svg width="96" height="96" viewBox="0 0 96 96" fill="none" xmlns="http://www.w3.org/2000/svg">
    <rect width="96" height="96" rx="48" fill="white"/>
    <path fill-rule="evenodd" clip-rule="evenodd" d="M45 25H51C55.2664 25 58.2256 25.0031 60.5262 25.1911C62.7802 25.3752 64.0474 25.7167 64.9939 26.1989C67.0637 27.2535 68.7465 28.9363 69.8011 31.0061C70.2833 31.9526 70.6248 33.2198 70.8089 35.4738C70.9969 37.7744 71 40.7336 71 45V51C71 55.2664 70.9969 58.2256 70.8089 60.5262C70.6248 62.7802 70.2833 64.0474 69.8011 64.9939C68.7465 67.0637 67.0637 68.7465 64.9939 69.8011C64.0474 70.2833 62.7802 70.6248 60.5262 70.8089C58.2256 70.9969 55.2664 71 51 71H45C40.7336 71 37.7744 70.9969 35.4738 70.8089C33.2198 70.6248 31.9526 70.2833 31.0061 69.8011C28.9363 68.7465 27.2535 67.0637 26.1989 64.9939C25.7167 64.0474 25.3752 62.7802 25.1911 60.5262C25.0031 58.2256 25 55.2664 25 51V45C25 40.7336 25.0031 37.7744 25.1911 35.4738C25.3752 33.2198 25.7167 31.9526 26.1989 31.0061C27.2535 28.9363 28.9363 27.2535 31.0061 26.1989C31.9526 25.7167 33.2198 25.3752 35.4738 25.1911C37.7744 25.0031 40.7336 25 45 25ZM21 45C21 36.5992 21 32.3988 22.6349 29.1901C24.073 26.3677 26.3677 24.073 29.1901 22.6349C32.3988 21 36.5992 21 45 21H51C59.4008 21 63.6012 21 66.8099 22.6349C69.6323 24.073 71.927 26.3677 73.3651 29.1901C75 32.3988 75 36.5992 75 45V51C75 59.4008 75 63.6012 73.3651 66.8099C71.927 69.6323 69.6323 71.927 66.8099 73.3651C63.6012 75 59.4008 75 51 75H45C36.5992 75 32.3988 75 29.1901 73.3651C26.3677 71.927 24.073 69.6323 22.6349 66.8099C21 63.6012 21 59.4008 21 51V45ZM62.9142 55.4142C63.6953 54.6332 63.6953 53.3668 62.9142 52.5858C62.1332 51.8047 60.8668 51.8047 60.0858 52.5858L52.5 60.1716L49.4142 57.0858C48.6332 56.3047 47.3668 56.3047 46.5858 57.0858C45.8047 57.8668 45.8047 59.1332 46.5858 59.9142L51.0858 64.4142C51.8668 65.1953 53.1332 65.1953 53.9142 64.4142L62.9142 55.4142ZM31 34.5C31 33.3954 31.8954 32.5 33 32.5H63C64.1046 32.5 65 33.3954 65 34.5C65 35.6046 64.1046 36.5 63 36.5H33C31.8954 36.5 31 35.6046 31 34.5ZM33 44.5C31.8954 44.5 31 45.3954 31 46.5C31 47.6046 31.8954 48.5 33 48.5H42C43.1046 48.5 44 47.6046 44 46.5C44 45.3954 43.1046 44.5 42 44.5H33Z" fill="black"/>
</svg>
