<svg width="126" height="96" viewBox="0 0 126 96" fill="none" xmlns="http://www.w3.org/2000/svg">
    <rect x="61" y="16" width="64" height="64" rx="32" fill="white"/>
    <path d="M81.6334 55.5735L81.6214 55.5755L81.6095 55.5778C78.9559 56.0832 77.0026 56.6192 75.6272 57.6229C74.37 58.5402 73.6879 59.7714 73.2641 61.3937H30.9938L31.928 56.0998L31.9285 56.0968C32.7562 51.3214 33.6161 47.4572 36.1509 44.4066C38.6615 41.3851 42.9563 39.0112 51.0215 37.6357L51.0244 37.6352L69.286 34.4648L69.2952 34.4631C73.0762 33.77 75.6758 33.1815 77.3308 32.4229C78.1737 32.0366 78.8605 31.5682 79.331 30.9408C79.8181 30.2914 80.0066 29.5616 80.0066 28.7873C80.0066 28.1417 79.929 27.3706 79.4659 26.6368C79.0007 25.8994 78.235 25.3365 77.135 24.9073C74.991 24.0706 71.2035 23.6024 64.5495 23.6024C55.7403 23.6024 50.7949 24.9346 47.9399 26.9018C45.3969 28.6539 44.6268 30.8327 44.2134 32.6063H1.13278L1.24591 31.7013L1.24604 31.7002C2.11721 24.6687 4.26511 17.1032 12.577 11.2316C20.9629 5.30756 35.7694 1 62.2668 1H68.354C93.2358 1 107.263 4.26995 115.051 9.09322C118.917 11.4876 121.238 14.2603 122.606 17.2188C123.98 20.1914 124.421 23.4172 124.421 26.7583C124.421 32.97 122.673 38.6436 118.621 43.1635C114.565 47.6893 108.107 51.1614 98.4975 52.784C98.4972 52.784 98.4969 52.7841 98.4967 52.7841L81.6334 55.5735ZM25.6477 95L30.0209 67.5786H72.3864L68.1313 95H25.6477Z" stroke="#10162F" stroke-width="2"/>
</svg>
