<svg width="96" height="96" viewBox="0 0 96 96" fill="none" xmlns="http://www.w3.org/2000/svg">
    <rect width="96" height="96" rx="48" fill="white"/>
    <path d="M48.5132 8C47.5779 8 46.8197 8.76728 46.8197 9.71378V19.9964C46.8197 20.9429 47.5779 21.7102 48.5132 21.7102C49.4486 21.7102 50.2067 20.9429 50.2067 19.9964V9.71378C50.2067 8.76728 49.4486 8 48.5132 8ZM30.4929 11.1062C30.2745 11.1336 30.0603 11.2289 29.8578 11.3472C29.0477 11.8205 28.7814 12.8572 29.2492 13.6769L33.483 21.0943C33.9507 21.914 34.9752 22.2103 35.7852 21.737C36.5952 21.2638 36.8615 20.2002 36.3938 19.3806L32.16 11.9631C31.8092 11.3483 31.1478 11.024 30.4929 11.1062ZM66.1631 11.1062C65.6208 11.145 65.1058 11.4508 64.8135 11.9631L60.5797 19.3806C60.112 20.2002 60.4047 21.2638 61.2148 21.737C62.0248 22.2103 63.0493 21.914 63.517 21.0943L67.7508 13.6769C68.2186 12.8572 67.9523 11.8205 67.1422 11.3472C66.8384 11.1698 66.4884 11.0829 66.1631 11.1062ZM17.5797 24.2809C17.0373 24.3197 16.5224 24.6255 16.2301 25.1378C15.7623 25.9575 16.0287 26.9942 16.8388 27.4674L24.1686 31.7519C24.9786 32.2251 26.0296 31.9557 26.4972 31.136C26.9649 30.3163 26.672 29.2796 25.8621 28.8063L18.5323 24.5219C18.2285 24.3444 17.905 24.2576 17.5797 24.2809ZM79.4203 24.2809C79.0949 24.2576 78.7715 24.3445 78.4677 24.5219L71.1379 28.8063C70.328 29.2796 70.0351 30.3163 70.5028 31.136C70.9704 31.9557 72.0214 32.2251 72.8314 31.7519L80.1612 27.4674C80.9713 26.9942 81.2377 25.9575 80.7699 25.1378C80.4776 24.6255 79.9626 24.3197 79.4203 24.2809ZM65.3692 31.9661C65.3159 31.9725 65.2629 31.9814 65.2105 31.9928H31.6042C31.5602 31.9911 31.516 31.9911 31.472 31.9928C31.2204 32.0101 30.9759 32.084 30.7561 32.209C30.5364 32.3341 30.347 32.5073 30.2018 32.7158L20.0406 47.2829C19.8183 47.6019 19.7102 47.9881 19.7343 48.3776C19.7583 48.7671 19.913 49.1367 20.1728 49.4252L47.0049 79.1218C47.1372 79.3614 47.3243 79.5654 47.5506 79.7165C47.777 79.8677 48.0358 79.9616 48.3055 79.9905C48.5752 80.0193 48.8478 79.9823 49.1004 79.8824C49.3529 79.7825 49.5781 79.6226 49.7569 79.4163L76.8536 49.4252C77.1134 49.1367 77.2681 48.7671 77.2921 48.3776C77.3162 47.9881 77.2081 47.6019 76.9859 47.2829L66.8246 32.7158C66.6641 32.4768 66.4466 32.2828 66.1921 32.1517C65.9376 32.0206 65.6546 31.9568 65.3692 31.9661V31.9661ZM33.9593 35.4204H44.9409L37.2671 44.8462L33.9593 35.4204ZM52.0856 35.4204H63.0671L59.7593 44.8462L52.0856 35.4204ZM48.5132 36.3577L56.7956 46.5599H40.2308L48.5132 36.3577ZM31.075 37.3752L34.2769 46.5599H24.6714L31.075 37.3752ZM65.9514 37.3752L72.355 46.5599H62.7495L65.9514 37.3752ZM25.28 49.9875H35.5205L43.512 70.1781L25.28 49.9875ZM39.1458 49.9875H57.8806L48.5132 73.6324L39.1458 49.9875ZM61.5059 49.9875H71.7465L53.5144 70.1781L61.5059 49.9875Z" fill="#2D2E35"/>
</svg>
