<svg width="444" height="230" viewBox="0 0 444 230" fill="none" xmlns="http://www.w3.org/2000/svg">
    <rect x="301" width="142" height="40" rx="20" fill="#0015FF"/>
    <path d="M335.5 72.5V62.5C335.5 56.9772 339.977 52.5 345.5 52.5H369.5C375.023 52.5 379.5 48.0228 379.5 42.5V28.5" stroke="#0015FF" stroke-width="2"/>
    <path d="M325.066 23V13.6177H328.399V12.4312H320.416V13.6177H323.748V23H325.066ZM328.472 25.8491C329.849 25.8491 330.479 25.3145 331.131 23.5347L334.126 15.3828H332.786L330.677 21.7256H330.655L328.545 15.3828H327.183L329.996 23.0073L329.82 23.542C329.527 24.4282 329.131 24.7725 328.421 24.7725C328.26 24.7725 328.062 24.7651 327.923 24.7358V25.8052C328.062 25.8345 328.318 25.8491 328.472 25.8491ZM338.829 15.251C337.723 15.251 336.836 15.8149 336.368 16.6719H336.338V15.3828H335.13V25.5415H336.404V21.7622H336.434C336.888 22.5972 337.767 23.1318 338.858 23.1318C340.777 23.1318 342.088 21.5791 342.088 19.1914C342.088 16.8037 340.77 15.251 338.829 15.251ZM338.58 22.0112C337.276 22.0112 336.397 20.8906 336.397 19.1914C336.397 17.4995 337.276 16.3716 338.58 16.3716C339.935 16.3716 340.784 17.4702 340.784 19.1914C340.784 20.9199 339.935 22.0112 338.58 22.0112ZM348.431 20.8174C348.218 21.5352 347.508 22.0259 346.541 22.0259C345.171 22.0259 344.314 21.0664 344.314 19.6089V19.5356H349.778V19.0522C349.778 16.7451 348.511 15.251 346.453 15.251C344.351 15.251 343.003 16.855 343.003 19.2207C343.003 21.6157 344.329 23.1318 346.512 23.1318C348.174 23.1318 349.463 22.1504 349.683 20.8174H348.431ZM346.431 16.3569C347.632 16.3569 348.431 17.2651 348.46 18.5396H344.322C344.402 17.2725 345.237 16.3569 346.431 16.3569ZM357.3 23.1318C359.402 23.1318 360.823 21.6157 360.823 19.1914C360.823 16.7598 359.402 15.251 357.3 15.251C355.191 15.251 353.77 16.7598 353.77 19.1914C353.77 21.6157 355.191 23.1318 357.3 23.1318ZM357.3 22.0112C355.953 22.0112 355.066 20.9858 355.066 19.1914C355.066 17.397 355.953 16.3716 357.3 16.3716C358.648 16.3716 359.527 17.397 359.527 19.1914C359.527 20.9858 358.648 22.0112 357.3 22.0112ZM362.522 23H363.797V16.4302H365.35V15.3828H363.79V14.5405C363.79 13.7861 364.119 13.4199 364.808 13.4199C365.02 13.4199 365.232 13.4419 365.386 13.4639V12.4312C365.203 12.4019 364.896 12.3726 364.61 12.3726C363.204 12.3726 362.522 13.0684 362.522 14.5332V15.3828H361.46V16.4302H362.522V23ZM370.154 13.5444V15.3828H369.019V16.4302H370.154V21.0225C370.154 22.4873 370.696 23.0586 372.095 23.0586C372.396 23.0586 372.747 23.0366 372.901 23V21.9307C372.813 21.9453 372.52 21.9673 372.374 21.9673C371.722 21.9673 371.429 21.6523 371.429 20.9565V16.4302H372.908V15.3828H371.429V13.5444H370.154ZM374.336 23H375.611V18.5615C375.611 17.2432 376.395 16.3789 377.662 16.3789C378.855 16.3789 379.463 17.104 379.463 18.3125V23H380.738V18.0781C380.738 16.3789 379.727 15.251 378.057 15.251C376.9 15.251 376.065 15.749 375.64 16.5986H375.611V12.4312H374.336V23ZM387.41 20.8174C387.198 21.5352 386.487 22.0259 385.521 22.0259C384.151 22.0259 383.294 21.0664 383.294 19.6089V19.5356H388.758V19.0522C388.758 16.7451 387.491 15.251 385.433 15.251C383.331 15.251 381.983 16.855 381.983 19.2207C381.983 21.6157 383.309 23.1318 385.491 23.1318C387.154 23.1318 388.443 22.1504 388.663 20.8174H387.41ZM385.411 16.3569C386.612 16.3569 387.41 17.2651 387.439 18.5396H383.301C383.382 17.2725 384.217 16.3569 385.411 16.3569ZM393.826 14.0278C394.273 14.0278 394.625 13.6689 394.625 13.2295C394.625 12.7827 394.273 12.4312 393.826 12.4312C393.387 12.4312 393.028 12.7827 393.028 13.2295C393.028 13.6689 393.387 14.0278 393.826 14.0278ZM393.189 23H394.463V15.3828H393.189V23ZM396.185 23H397.459V18.5176C397.459 17.2285 398.243 16.3789 399.444 16.3789C400.616 16.3789 401.194 17.0527 401.194 18.2832V23H402.469V18.0562C402.469 16.3276 401.502 15.251 399.832 15.251C398.653 15.251 397.84 15.7783 397.415 16.5986H397.386V15.3828H396.185V23ZM407.793 15.251C406.688 15.251 405.801 15.8149 405.333 16.6719H405.303V15.3828H404.095V25.5415H405.369V21.7622H405.398C405.853 22.5972 406.731 23.1318 407.823 23.1318C409.742 23.1318 411.053 21.5791 411.053 19.1914C411.053 16.8037 409.734 15.251 407.793 15.251ZM407.544 22.0112C406.241 22.0112 405.362 20.8906 405.362 19.1914C405.362 17.4995 406.241 16.3716 407.544 16.3716C408.899 16.3716 409.749 17.4702 409.749 19.1914C409.749 20.9199 408.899 22.0112 407.544 22.0112ZM418.597 15.3828H417.322V19.8579C417.322 21.1543 416.575 22.0039 415.337 22.0039C414.158 22.0039 413.58 21.3374 413.58 20.0996V15.3828H412.305V20.3267C412.305 22.0552 413.279 23.1318 414.942 23.1318C416.114 23.1318 416.905 22.6411 417.359 21.7622H417.388V23H418.597V15.3828ZM420.662 13.5444V15.3828H419.527V16.4302H420.662V21.0225C420.662 22.4873 421.204 23.0586 422.603 23.0586C422.903 23.0586 423.255 23.0366 423.409 23V21.9307C423.321 21.9453 423.028 21.9673 422.881 21.9673C422.229 21.9673 421.937 21.6523 421.937 20.9565V16.4302H423.416V15.3828H421.937V13.5444H420.662Z" fill="white"/>
    <path d="M256 180H105C91.1929 180 80 191.193 80 205C80 218.807 91.1929 230 105 230H256C269.807 230 281 218.807 281 205C281 191.193 269.807 180 256 180Z" fill="#0015FF"/>
    <path d="M223 140V150C223 155.523 218.523 160 213 160H129C123.477 160 119 164.477 119 170V180" stroke="#0015FF" stroke-width="2"/>
    <path d="M103.464 201H110.012V199.813H104.783V196.181H109.741V195.009H104.783V191.618H110.012V190.431H103.464V201ZM116.868 203.563H118.142V193.383H116.868V194.672H116.838C116.37 193.83 115.52 193.251 114.443 193.251C112.51 193.251 111.184 194.796 111.184 197.177V197.184C111.184 199.579 112.495 201.132 114.414 201.132C115.505 201.132 116.384 200.597 116.838 199.762H116.868V203.563ZM114.692 200.004C113.337 200.004 112.488 198.927 112.488 197.184V197.177C112.488 195.47 113.337 194.379 114.692 194.379C115.981 194.379 116.868 195.485 116.868 197.177V197.184C116.868 198.891 115.989 200.004 114.692 200.004ZM122.39 201.146C123.547 201.146 124.324 200.626 124.734 199.916H124.763V201H126.038V193.383H124.763V197.865C124.763 199.162 123.979 200.019 122.778 200.019C121.606 200.019 121.028 199.337 121.028 198.1V193.383H119.753V198.327C119.753 200.062 120.72 201.146 122.39 201.146ZM129.927 201.146C130.945 201.146 131.86 200.597 132.307 199.762H132.336V201H133.611V195.734C133.611 194.21 132.483 193.236 130.681 193.236C128.887 193.236 127.795 194.247 127.686 195.5L127.678 195.58H128.909L128.923 195.514C129.07 194.833 129.685 194.364 130.667 194.364C131.729 194.364 132.336 194.928 132.336 195.858V196.496L130.154 196.62C128.403 196.723 127.393 197.536 127.393 198.832V198.847C127.393 200.231 128.411 201.146 129.927 201.146ZM128.696 198.847V198.832C128.696 198.122 129.282 197.667 130.3 197.609L132.336 197.484V198.107C132.336 199.213 131.414 200.041 130.212 200.041C129.297 200.041 128.696 199.579 128.696 198.847ZM135.295 201H136.57V190.431H135.295V201ZM144.07 201.146C145.769 201.146 147.029 200.209 147.029 198.876V198.869C147.029 197.785 146.472 197.177 144.934 196.803L143.726 196.51C142.883 196.305 142.539 195.946 142.539 195.426V195.419C142.539 194.745 143.11 194.298 144.033 194.298C144.978 194.298 145.542 194.789 145.645 195.529L145.652 195.58H146.868L146.86 195.485C146.765 194.21 145.703 193.236 144.033 193.236C142.385 193.236 141.235 194.167 141.235 195.478V195.485C141.235 196.583 141.931 197.25 143.367 197.594L144.575 197.887C145.439 198.1 145.725 198.407 145.725 198.957V198.964C145.725 199.652 145.11 200.084 144.077 200.084C143.037 200.084 142.473 199.638 142.319 198.876L142.305 198.803H141.03L141.038 198.869C141.191 200.231 142.275 201.146 144.07 201.146ZM149.072 192.094C149.519 192.094 149.871 191.735 149.871 191.295C149.871 190.849 149.519 190.497 149.072 190.497C148.633 190.497 148.274 190.849 148.274 191.295C148.274 191.735 148.633 192.094 149.072 192.094ZM148.435 201H149.709V193.383H148.435V201ZM154.668 203.71C156.733 203.71 158.03 202.553 158.03 200.788V193.383H156.755V194.672H156.726C156.257 193.822 155.408 193.236 154.331 193.236C152.397 193.236 151.072 194.774 151.072 197.14V197.147C151.072 199.528 152.383 201.073 154.302 201.073C155.393 201.073 156.272 200.531 156.726 199.689H156.755V200.663C156.755 201.842 155.994 202.582 154.653 202.582C153.613 202.582 152.888 202.245 152.646 201.696L152.617 201.63H151.335L151.35 201.696C151.599 202.824 152.786 203.71 154.668 203.71ZM154.58 199.945C153.225 199.945 152.375 198.876 152.375 197.147V197.14C152.375 195.448 153.225 194.364 154.58 194.364C155.869 194.364 156.755 195.463 156.755 197.14V197.147C156.755 198.839 155.876 199.945 154.58 199.945ZM159.678 201H160.952V196.518C160.952 195.221 161.736 194.364 162.937 194.364C164.109 194.364 164.688 195.045 164.688 196.283V201H165.962V196.056C165.962 194.32 164.995 193.236 163.325 193.236C162.168 193.236 161.392 193.756 160.981 194.467H160.952V193.383H159.678V201ZM170.664 201H171.938V196.225C171.938 195.163 172.671 194.364 173.682 194.364C174.626 194.364 175.242 194.972 175.242 195.895V201H176.516V196.159C176.516 195.119 177.227 194.364 178.237 194.364C179.241 194.364 179.819 194.987 179.819 196.034V201H181.094V195.741C181.094 194.225 180.12 193.236 178.611 193.236C177.542 193.236 176.648 193.786 176.223 194.701H176.194C175.864 193.771 175.095 193.236 174.055 193.236C173.074 193.236 172.312 193.742 171.968 194.496H171.938V193.383H170.664V201ZM185.854 201.146C187.517 201.146 188.762 200.15 189.011 198.891L189.026 198.817H187.773L187.751 198.883C187.532 199.535 186.851 200.019 185.884 200.019C184.529 200.019 183.665 199.103 183.635 197.536H189.121V197.067C189.121 194.782 187.854 193.236 185.774 193.236C183.694 193.236 182.346 194.855 182.346 197.213V197.221C182.346 199.616 183.665 201.146 185.854 201.146ZM185.767 194.364C186.88 194.364 187.7 195.06 187.825 196.54H183.657C183.796 195.119 184.661 194.364 185.767 194.364ZM192.637 201.146C193.655 201.146 194.57 200.597 195.017 199.762H195.046V201H196.321V195.734C196.321 194.21 195.193 193.236 193.391 193.236C191.597 193.236 190.505 194.247 190.396 195.5L190.388 195.58H191.619L191.633 195.514C191.78 194.833 192.395 194.364 193.376 194.364C194.438 194.364 195.046 194.928 195.046 195.858V196.496L192.864 196.62C191.113 196.723 190.103 197.536 190.103 198.832V198.847C190.103 200.231 191.121 201.146 192.637 201.146ZM191.406 198.847V198.832C191.406 198.122 191.992 197.667 193.01 197.609L195.046 197.484V198.107C195.046 199.213 194.124 200.041 192.922 200.041C192.007 200.041 191.406 199.579 191.406 198.847ZM197.939 201H199.214V196.518C199.214 195.221 199.998 194.364 201.199 194.364C202.371 194.364 202.949 195.045 202.949 196.283V201H204.224V196.056C204.224 194.32 203.257 193.236 201.587 193.236C200.43 193.236 199.653 193.756 199.243 194.467H199.214V193.383H197.939V201ZM208.552 201.146C210.251 201.146 211.511 200.209 211.511 198.876V198.869C211.511 197.785 210.955 197.177 209.417 196.803L208.208 196.51C207.366 196.305 207.021 195.946 207.021 195.426V195.419C207.021 194.745 207.593 194.298 208.516 194.298C209.46 194.298 210.024 194.789 210.127 195.529L210.134 195.58H211.35L211.343 195.485C211.248 194.21 210.186 193.236 208.516 193.236C206.868 193.236 205.718 194.167 205.718 195.478V195.485C205.718 196.583 206.414 197.25 207.849 197.594L209.058 197.887C209.922 198.1 210.208 198.407 210.208 198.957V198.964C210.208 199.652 209.592 200.084 208.56 200.084C207.52 200.084 206.956 199.638 206.802 198.876L206.787 198.803H205.513L205.52 198.869C205.674 200.231 206.758 201.146 208.552 201.146ZM217.422 201H218.718L220.432 195.104H220.461L222.183 201H223.479L225.603 193.383H224.343L222.82 199.579H222.791L221.062 193.383H219.832L218.11 199.579H218.081L216.558 193.383H215.291L217.422 201ZM229.785 201.146C231.448 201.146 232.693 200.15 232.942 198.891L232.957 198.817H231.704L231.682 198.883C231.462 199.535 230.781 200.019 229.814 200.019C228.459 200.019 227.595 199.103 227.566 197.536H233.052V197.067C233.052 194.782 231.785 193.236 229.705 193.236C227.625 193.236 226.277 194.855 226.277 197.213V197.221C226.277 199.616 227.595 201.146 229.785 201.146ZM229.697 194.364C230.811 194.364 231.631 195.06 231.755 196.54H227.588C227.727 195.119 228.591 194.364 229.697 194.364ZM240.64 203.71C242.705 203.71 244.001 202.553 244.001 200.788V193.383H242.727V194.672H242.698C242.229 193.822 241.379 193.236 240.303 193.236C238.369 193.236 237.043 194.774 237.043 197.14V197.147C237.043 199.528 238.354 201.073 240.273 201.073C241.365 201.073 242.244 200.531 242.698 199.689H242.727V200.663C242.727 201.842 241.965 202.582 240.625 202.582C239.585 202.582 238.86 202.245 238.618 201.696L238.589 201.63H237.307L237.322 201.696C237.571 202.824 238.757 203.71 240.64 203.71ZM240.552 199.945C239.197 199.945 238.347 198.876 238.347 197.147V197.14C238.347 195.448 239.197 194.364 240.552 194.364C241.841 194.364 242.727 195.463 242.727 197.14V197.147C242.727 198.839 241.848 199.945 240.552 199.945ZM246.367 192.094C246.814 192.094 247.166 191.735 247.166 191.295C247.166 190.849 246.814 190.497 246.367 190.497C245.928 190.497 245.569 190.849 245.569 191.295C245.569 191.735 245.928 192.094 246.367 192.094ZM245.73 201H247.004V193.383H245.73V201ZM250.886 201H252.19L254.988 193.383H253.662L251.553 199.645H251.523L249.421 193.383H248.081L250.886 201ZM258.833 201.146C260.496 201.146 261.741 200.15 261.99 198.891L262.004 198.817H260.752L260.73 198.883C260.51 199.535 259.829 200.019 258.862 200.019C257.507 200.019 256.643 199.103 256.614 197.536H262.1V197.067C262.1 194.782 260.833 193.236 258.752 193.236C256.672 193.236 255.325 194.855 255.325 197.213V197.221C255.325 199.616 256.643 201.146 258.833 201.146ZM258.745 194.364C259.858 194.364 260.679 195.06 260.803 196.54H256.636C256.775 195.119 257.639 194.364 258.745 194.364ZM117.585 219.146C118.604 219.146 119.519 218.597 119.966 217.762H119.995V219H121.27V213.734C121.27 212.21 120.142 211.236 118.34 211.236C116.545 211.236 115.454 212.247 115.344 213.5L115.337 213.58H116.567L116.582 213.514C116.729 212.833 117.344 212.364 118.325 212.364C119.387 212.364 119.995 212.928 119.995 213.858V214.496L117.812 214.62C116.062 214.723 115.051 215.536 115.051 216.832V216.847C115.051 218.231 116.069 219.146 117.585 219.146ZM116.355 216.847V216.832C116.355 216.122 116.941 215.667 117.959 215.609L119.995 215.484V216.107C119.995 217.213 119.072 218.041 117.871 218.041C116.956 218.041 116.355 217.579 116.355 216.847ZM128.11 219H129.414L132.212 211.383H130.886L128.777 217.645H128.748L126.646 211.383H125.305L128.11 219ZM135.295 219.146C136.313 219.146 137.229 218.597 137.676 217.762H137.705V219H138.979V213.734C138.979 212.21 137.852 211.236 136.05 211.236C134.255 211.236 133.164 212.247 133.054 213.5L133.047 213.58H134.277L134.292 213.514C134.438 212.833 135.054 212.364 136.035 212.364C137.097 212.364 137.705 212.928 137.705 213.858V214.496L135.522 214.62C133.772 214.723 132.761 215.536 132.761 216.832V216.847C132.761 218.231 133.779 219.146 135.295 219.146ZM134.065 216.847V216.832C134.065 216.122 134.651 215.667 135.669 215.609L137.705 215.484V216.107C137.705 217.213 136.782 218.041 135.581 218.041C134.666 218.041 134.065 217.579 134.065 216.847ZM140.598 219H141.873V214.239C141.873 213.163 142.517 212.452 143.506 212.452C143.813 212.452 144.084 212.489 144.187 212.525V211.288C144.084 211.273 143.894 211.236 143.674 211.236C142.781 211.236 142.078 211.771 141.829 212.613H141.799V211.383H140.598V219ZM145.945 210.094C146.392 210.094 146.743 209.735 146.743 209.295C146.743 208.849 146.392 208.497 145.945 208.497C145.505 208.497 145.146 208.849 145.146 209.295C145.146 209.735 145.505 210.094 145.945 210.094ZM145.308 219H146.582V211.383H145.308V219ZM150.544 219.146C151.562 219.146 152.478 218.597 152.925 217.762H152.954V219H154.229V213.734C154.229 212.21 153.101 211.236 151.299 211.236C149.504 211.236 148.413 212.247 148.303 213.5L148.296 213.58H149.526L149.541 213.514C149.688 212.833 150.303 212.364 151.284 212.364C152.346 212.364 152.954 212.928 152.954 213.858V214.496L150.771 214.62C149.021 214.723 148.01 215.536 148.01 216.832V216.847C148.01 218.231 149.028 219.146 150.544 219.146ZM149.314 216.847V216.832C149.314 216.122 149.9 215.667 150.918 215.609L152.954 215.484V216.107C152.954 217.213 152.031 218.041 150.83 218.041C149.915 218.041 149.314 217.579 149.314 216.847ZM159.634 219.146C161.582 219.146 162.871 217.594 162.871 215.191V215.184C162.871 212.782 161.567 211.236 159.656 211.236C158.579 211.236 157.693 211.778 157.217 212.657H157.188V208.431H155.913V219H157.188V217.711H157.217C157.693 218.597 158.542 219.146 159.634 219.146ZM159.385 218.019C158.096 218.019 157.18 216.898 157.18 215.191V215.184C157.18 213.485 158.103 212.364 159.385 212.364C160.732 212.364 161.567 213.448 161.567 215.184V215.191C161.567 216.942 160.732 218.019 159.385 218.019ZM164.219 219H165.493V208.431H164.219V219ZM170.349 219.146C172.012 219.146 173.257 218.15 173.506 216.891L173.521 216.817H172.268L172.246 216.883C172.026 217.535 171.345 218.019 170.378 218.019C169.023 218.019 168.159 217.103 168.13 215.536H173.616V215.067C173.616 212.782 172.349 211.236 170.269 211.236C168.188 211.236 166.841 212.855 166.841 215.213V215.221C166.841 217.616 168.159 219.146 170.349 219.146ZM170.261 212.364C171.375 212.364 172.195 213.06 172.319 214.54H168.152C168.291 213.119 169.155 212.364 170.261 212.364ZM180.208 219.146C181.226 219.146 182.141 218.597 182.588 217.762H182.617V219H183.892V213.734C183.892 212.21 182.764 211.236 180.962 211.236C179.167 211.236 178.076 212.247 177.966 213.5L177.959 213.58H179.189L179.204 213.514C179.351 212.833 179.966 212.364 180.947 212.364C182.009 212.364 182.617 212.928 182.617 213.858V214.496L180.435 214.62C178.684 214.723 177.673 215.536 177.673 216.832V216.847C177.673 218.231 178.691 219.146 180.208 219.146ZM178.977 216.847V216.832C178.977 216.122 179.563 215.667 180.581 215.609L182.617 215.484V216.107C182.617 217.213 181.694 218.041 180.493 218.041C179.578 218.041 178.977 217.579 178.977 216.847ZM188.586 219H189.861V214.518C189.861 213.221 190.645 212.364 191.846 212.364C193.018 212.364 193.596 213.045 193.596 214.283V219H194.871V214.056C194.871 212.32 193.904 211.236 192.234 211.236C191.077 211.236 190.3 211.756 189.89 212.467H189.861V211.383H188.586V219ZM199.631 219.146C201.294 219.146 202.539 218.15 202.788 216.891L202.803 216.817H201.55L201.528 216.883C201.309 217.535 200.627 218.019 199.661 218.019C198.306 218.019 197.441 217.103 197.412 215.536H202.898V215.067C202.898 212.782 201.631 211.236 199.551 211.236C197.471 211.236 196.123 212.855 196.123 215.213V215.221C196.123 217.616 197.441 219.146 199.631 219.146ZM199.543 212.364C200.657 212.364 201.477 213.06 201.602 214.54H197.434C197.573 213.119 198.438 212.364 199.543 212.364ZM205.696 219H206.992L208.706 213.104H208.735L210.457 219H211.753L213.877 211.383H212.617L211.094 217.579H211.064L209.336 211.383H208.105L206.384 217.579H206.355L204.832 211.383H203.564L205.696 219ZM220.146 219H221.45L224.248 211.383H222.922L220.813 217.645H220.784L218.682 211.383H217.341L220.146 219ZM227.332 219.146C228.35 219.146 229.265 218.597 229.712 217.762H229.741V219H231.016V213.734C231.016 212.21 229.888 211.236 228.086 211.236C226.292 211.236 225.2 212.247 225.09 213.5L225.083 213.58H226.313L226.328 213.514C226.475 212.833 227.09 212.364 228.071 212.364C229.133 212.364 229.741 212.928 229.741 213.858V214.496L227.559 214.62C225.808 214.723 224.797 215.536 224.797 216.832V216.847C224.797 218.231 225.815 219.146 227.332 219.146ZM226.101 216.847V216.832C226.101 216.122 226.687 215.667 227.705 215.609L229.741 215.484V216.107C229.741 217.213 228.818 218.041 227.617 218.041C226.702 218.041 226.101 217.579 226.101 216.847ZM232.7 219H233.975V208.431H232.7V219ZM238.296 219.146C239.453 219.146 240.229 218.626 240.64 217.916H240.669V219H241.943V211.383H240.669V215.865C240.669 217.162 239.885 218.019 238.684 218.019C237.512 218.019 236.934 217.337 236.934 216.1V211.383H235.659V216.327C235.659 218.062 236.626 219.146 238.296 219.146ZM246.741 219.146C248.403 219.146 249.648 218.15 249.897 216.891L249.912 216.817H248.66L248.638 216.883C248.418 217.535 247.737 218.019 246.77 218.019C245.415 218.019 244.551 217.103 244.521 215.536H250.007V215.067C250.007 212.782 248.74 211.236 246.66 211.236C244.58 211.236 243.232 212.855 243.232 215.213V215.221C243.232 217.616 244.551 219.146 246.741 219.146ZM246.653 212.364C247.766 212.364 248.586 213.06 248.711 214.54H244.543C244.683 213.119 245.547 212.364 246.653 212.364Z" fill="white"/>
    <rect x="61" width="177" height="40" rx="20" fill="#0015FF"/>
    <path d="M247.5 72.5V62.5C247.5 56.9772 243.023 52.5 237.5 52.5H153.5C147.977 52.5 143.5 48.0228 143.5 42.5V28.5" stroke="#0015FF" stroke-width="2"/>
    <path d="M122.047 24.1758C124.669 24.1758 126.236 22.5938 126.236 20.2939V13.4312H124.918V20.2061C124.918 21.832 123.878 22.96 122.047 22.96C120.216 22.96 119.161 21.832 119.161 20.2061V13.4312H117.843V20.2939C117.843 22.5938 119.425 24.1758 122.047 24.1758ZM130.646 24.1465C132.345 24.1465 133.604 23.209 133.604 21.876V21.8687C133.604 20.7847 133.048 20.1768 131.51 19.8032L130.301 19.5103C129.459 19.3052 129.115 18.9463 129.115 18.4263V18.4189C129.115 17.7451 129.686 17.2983 130.609 17.2983C131.554 17.2983 132.118 17.7891 132.22 18.5288L132.228 18.5801H133.443L133.436 18.4849C133.341 17.2104 132.279 16.2363 130.609 16.2363C128.961 16.2363 127.811 17.1665 127.811 18.4775V18.4849C127.811 19.5835 128.507 20.25 129.942 20.5942L131.151 20.8872C132.015 21.0996 132.301 21.4072 132.301 21.9565V21.9639C132.301 22.6523 131.686 23.0845 130.653 23.0845C129.613 23.0845 129.049 22.6377 128.895 21.876L128.88 21.8027H127.606L127.613 21.8687C127.767 23.231 128.851 24.1465 130.646 24.1465ZM138.065 24.1465C139.728 24.1465 140.973 23.1504 141.222 21.8906L141.236 21.8174H139.984L139.962 21.8833C139.742 22.5352 139.061 23.0186 138.094 23.0186C136.739 23.0186 135.875 22.103 135.846 20.5356H141.332V20.0669C141.332 17.7817 140.064 16.2363 137.984 16.2363C135.904 16.2363 134.557 17.855 134.557 20.2134V20.2207C134.557 22.6157 135.875 24.1465 138.065 24.1465ZM137.977 17.3643C139.09 17.3643 139.911 18.0601 140.035 19.5396H135.868C136.007 18.1187 136.871 17.3643 137.977 17.3643ZM142.621 24H143.895V19.2393C143.895 18.1626 144.54 17.4521 145.528 17.4521C145.836 17.4521 146.107 17.4888 146.209 17.5254V16.2876C146.107 16.2729 145.917 16.2363 145.697 16.2363C144.803 16.2363 144.1 16.771 143.851 17.6133H143.822V16.3828H142.621V24ZM151.043 15.0938C151.49 15.0938 151.842 14.7349 151.842 14.2954C151.842 13.8486 151.49 13.4971 151.043 13.4971C150.604 13.4971 150.245 13.8486 150.245 14.2954C150.245 14.7349 150.604 15.0938 151.043 15.0938ZM150.406 24H151.681V16.3828H150.406V24ZM153.417 24H154.691V19.5176C154.691 18.2212 155.475 17.3643 156.676 17.3643C157.848 17.3643 158.426 18.0454 158.426 19.2832V24H159.701V19.0562C159.701 17.3203 158.734 16.2363 157.064 16.2363C155.907 16.2363 155.13 16.7563 154.72 17.4668H154.691V16.3828H153.417V24ZM161.327 26.5635H162.601V22.7256H162.63C163.106 23.6045 163.993 24.1465 165.069 24.1465C166.981 24.1465 168.285 22.6011 168.285 20.1987V20.1914C168.285 17.7891 166.996 16.2363 165.047 16.2363C163.956 16.2363 163.106 16.7856 162.63 17.6719H162.601V16.3828H161.327V26.5635ZM164.798 23.0186C163.517 23.0186 162.594 21.8979 162.594 20.1987V20.1914C162.594 18.4849 163.509 17.3643 164.798 17.3643C166.146 17.3643 166.981 18.4409 166.981 20.1914V20.1987C166.981 21.9346 166.146 23.0186 164.798 23.0186ZM172.174 24.1465C173.331 24.1465 174.107 23.6265 174.518 22.916H174.547V24H175.821V16.3828H174.547V20.8652C174.547 22.1616 173.763 23.0186 172.562 23.0186C171.39 23.0186 170.812 22.3374 170.812 21.0996V16.3828H169.537V21.3267C169.537 23.0625 170.504 24.1465 172.174 24.1465ZM179.959 24.1465C180.208 24.1465 180.479 24.1172 180.641 24.0952V23.0625C180.531 23.0698 180.384 23.0918 180.23 23.0918C179.549 23.0918 179.19 22.8647 179.19 22.0518V17.4375H180.641V16.3828H179.19V14.3247H177.872V16.3828H176.759V17.4375H177.872V22.0591C177.872 23.5166 178.561 24.1465 179.959 24.1465Z" fill="white"/>
</svg>
