<svg width="359" height="230" viewBox="0 0 359 230" fill="none" xmlns="http://www.w3.org/2000/svg">
<rect width="85" height="29" rx="14.5" fill="#2A5CFF"/>
<path d="M14.9639 19.1641C17.4111 19.1641 18.874 17.6875 18.874 15.541V9.13574H17.6436V15.459C17.6436 16.9766 16.6729 18.0293 14.9639 18.0293C13.2549 18.0293 12.2705 16.9766 12.2705 15.459V9.13574H11.04V15.541C11.04 17.6875 12.5166 19.1641 14.9639 19.1641ZM23.4893 19.1367C25.0752 19.1367 26.251 18.2617 26.251 17.0176V17.0107C26.251 15.999 25.7314 15.4316 24.2959 15.083L23.168 14.8096C22.3818 14.6182 22.0605 14.2832 22.0605 13.7979V13.791C22.0605 13.1621 22.5938 12.7451 23.4551 12.7451C24.3369 12.7451 24.8633 13.2031 24.959 13.8936L24.9658 13.9414H26.1006L26.0938 13.8525C26.0049 12.6631 25.0137 11.7539 23.4551 11.7539C21.917 11.7539 20.8438 12.6221 20.8438 13.8457V13.8525C20.8438 14.8779 21.4932 15.5 22.833 15.8213L23.9609 16.0947C24.7676 16.293 25.0342 16.5801 25.0342 17.0928V17.0996C25.0342 17.7422 24.46 18.1455 23.4961 18.1455C22.5254 18.1455 21.999 17.7285 21.8555 17.0176L21.8418 16.9492H20.6523L20.6592 17.0107C20.8027 18.2822 21.8145 19.1367 23.4893 19.1367ZM30.9141 19.1367C32.4658 19.1367 33.6279 18.207 33.8604 17.0312L33.874 16.9629H32.7051L32.6846 17.0244C32.4795 17.6328 31.8438 18.084 30.9414 18.084C29.6768 18.084 28.8701 17.2295 28.8428 15.7666H33.9629V15.3291C33.9629 13.1963 32.7803 11.7539 30.8389 11.7539C28.8975 11.7539 27.6396 13.2646 27.6396 15.4658V15.4727C27.6396 17.708 28.8701 19.1367 30.9141 19.1367ZM30.832 12.8066C31.8711 12.8066 32.6367 13.4561 32.7529 14.8369H28.8633C28.9932 13.5107 29.7998 12.8066 30.832 12.8066ZM35.666 19H36.8555V14.5566C36.8555 13.5518 37.457 12.8887 38.3799 12.8887C38.667 12.8887 38.9199 12.9229 39.0156 12.957V11.8018C38.9199 11.7881 38.7422 11.7539 38.5371 11.7539C37.7031 11.7539 37.0469 12.2529 36.8145 13.0391H36.7871V11.8906H35.666V19ZM44.042 19H45.2725V9.13574H44.042V19ZM47.502 19H48.6914V14.8164C48.6914 13.6064 49.4229 12.8066 50.5439 12.8066C51.6377 12.8066 52.1777 13.4424 52.1777 14.5977V19H53.3672V14.3857C53.3672 12.7656 52.4648 11.7539 50.9062 11.7539C49.8262 11.7539 49.1016 12.2393 48.7188 12.9023H48.6914V11.8906H47.502V19ZM55.3848 21.3926H56.5742V17.8105H56.6016C57.0459 18.6309 57.873 19.1367 58.8779 19.1367C60.6621 19.1367 61.8789 17.6943 61.8789 15.4521V15.4453C61.8789 13.2031 60.6758 11.7539 58.8574 11.7539C57.8389 11.7539 57.0459 12.2666 56.6016 13.0938H56.5742V11.8906H55.3848V21.3926ZM58.625 18.084C57.4287 18.084 56.5674 17.0381 56.5674 15.4521V15.4453C56.5674 13.8525 57.4219 12.8066 58.625 12.8066C59.8828 12.8066 60.6621 13.8115 60.6621 15.4453V15.4521C60.6621 17.0723 59.8828 18.084 58.625 18.084ZM66.0088 19.1367C67.0889 19.1367 67.8135 18.6514 68.1963 17.9883H68.2236V19H69.4131V11.8906H68.2236V16.0742C68.2236 17.2842 67.4922 18.084 66.3711 18.084C65.2773 18.084 64.7373 17.4482 64.7373 16.293V11.8906H63.5479V16.5049C63.5479 18.125 64.4502 19.1367 66.0088 19.1367ZM73.7754 19.1367C74.0078 19.1367 74.2607 19.1094 74.4111 19.0889V18.125C74.3086 18.1318 74.1719 18.1523 74.0283 18.1523C73.3926 18.1523 73.0576 17.9404 73.0576 17.1816V12.875H74.4111V11.8906H73.0576V9.96973H71.8271V11.8906H70.7881V12.875H71.8271V17.1885C71.8271 18.5488 72.4697 19.1367 73.7754 19.1367Z" fill="white"/>
<rect x="233" width="126" height="29" rx="14.5" fill="#2A5CFF"/>
<path d="M246.951 19H248.182V10.2432H251.292V9.13574H243.841V10.2432H246.951V19ZM251.949 21.3926C253.234 21.3926 253.856 20.8047 254.362 19.4443L257.138 11.8906H255.887L253.918 17.8105H253.891L251.929 11.8906H250.657L253.296 19.0068L253.152 19.4102C252.865 20.2168 252.448 20.4082 251.696 20.4082C251.553 20.4082 251.416 20.3877 251.313 20.3672V21.3379C251.464 21.3652 251.717 21.3926 251.949 21.3926ZM258.574 21.3926H259.764V17.8105H259.791C260.235 18.6309 261.062 19.1367 262.067 19.1367C263.852 19.1367 265.068 17.6943 265.068 15.4521V15.4453C265.068 13.2031 263.865 11.7539 262.047 11.7539C261.028 11.7539 260.235 12.2666 259.791 13.0938H259.764V11.8906H258.574V21.3926ZM261.814 18.084C260.618 18.084 259.757 17.0381 259.757 15.4521V15.4453C259.757 13.8525 260.611 12.8066 261.814 12.8066C263.072 12.8066 263.852 13.8115 263.852 15.4453V15.4521C263.852 17.0723 263.072 18.084 261.814 18.084ZM269.697 19.1367C271.249 19.1367 272.411 18.207 272.644 17.0312L272.657 16.9629H271.488L271.468 17.0244C271.263 17.6328 270.627 18.084 269.725 18.084C268.46 18.084 267.653 17.2295 267.626 15.7666H272.746V15.3291C272.746 13.1963 271.563 11.7539 269.622 11.7539C267.681 11.7539 266.423 13.2646 266.423 15.4658V15.4727C266.423 17.708 267.653 19.1367 269.697 19.1367ZM269.615 12.8066C270.654 12.8066 271.42 13.4561 271.536 14.8369H267.646C267.776 13.5107 268.583 12.8066 269.615 12.8066ZM280.767 19.1367C282.729 19.1367 284.055 17.7148 284.055 15.4453V15.4316C284.055 13.1621 282.722 11.7539 280.76 11.7539C278.798 11.7539 277.472 13.1689 277.472 15.4316V15.4453C277.472 17.708 278.791 19.1367 280.767 19.1367ZM280.773 18.084C279.516 18.084 278.688 17.1201 278.688 15.4453V15.4316C278.688 13.7705 279.522 12.8066 280.76 12.8066C282.018 12.8066 282.838 13.7637 282.838 15.4316V15.4453C282.838 17.1133 282.024 18.084 280.773 18.084ZM286.141 19H287.33V12.875H288.779V11.8906H287.316V11.0225C287.316 10.3184 287.645 9.9834 288.301 9.9834C288.485 9.9834 288.67 9.99023 288.813 10.0107V9.04688C288.636 9.01953 288.355 8.99902 288.089 8.99902C286.776 8.99902 286.141 9.64844 286.141 11.0156V11.8906H285.149V12.875H286.141V19ZM296.191 19.1367C296.424 19.1367 296.677 19.1094 296.827 19.0889V18.125C296.725 18.1318 296.588 18.1523 296.444 18.1523C295.809 18.1523 295.474 17.9404 295.474 17.1816V12.875H296.827V11.8906H295.474V9.96973H294.243V11.8906H293.204V12.875H294.243V17.1885C294.243 18.5488 294.886 19.1367 296.191 19.1367ZM298.667 19H299.856V14.8506C299.856 13.6406 300.588 12.8066 301.688 12.8066C302.796 12.8066 303.452 13.5654 303.452 14.8506V19H304.642V14.6455C304.642 12.9229 303.609 11.7539 302.099 11.7539C301.039 11.7539 300.267 12.2256 299.884 13.0254H299.856V9.13574H298.667V19ZM309.578 19.1367C311.13 19.1367 312.292 18.207 312.524 17.0312L312.538 16.9629H311.369L311.349 17.0244C311.144 17.6328 310.508 18.084 309.605 18.084C308.341 18.084 307.534 17.2295 307.507 15.7666H312.627V15.3291C312.627 13.1963 311.444 11.7539 309.503 11.7539C307.562 11.7539 306.304 13.2646 306.304 15.4658V15.4727C306.304 17.708 307.534 19.1367 309.578 19.1367ZM309.496 12.8066C310.535 12.8066 311.301 13.4561 311.417 14.8369H307.527C307.657 13.5107 308.464 12.8066 309.496 12.8066ZM318.371 10.6875C318.788 10.6875 319.116 10.3525 319.116 9.94238C319.116 9.52539 318.788 9.19727 318.371 9.19727C317.961 9.19727 317.626 9.52539 317.626 9.94238C317.626 10.3525 317.961 10.6875 318.371 10.6875ZM317.776 19H318.966V11.8906H317.776V19ZM321.086 19H322.275V14.8164C322.275 13.6064 323.007 12.8066 324.128 12.8066C325.222 12.8066 325.762 13.4424 325.762 14.5977V19H326.951V14.3857C326.951 12.7656 326.049 11.7539 324.49 11.7539C323.41 11.7539 322.686 12.2393 322.303 12.9023H322.275V11.8906H321.086V19ZM328.969 21.3926H330.158V17.8105H330.186C330.63 18.6309 331.457 19.1367 332.462 19.1367C334.246 19.1367 335.463 17.6943 335.463 15.4521V15.4453C335.463 13.2031 334.26 11.7539 332.441 11.7539C331.423 11.7539 330.63 12.2666 330.186 13.0938H330.158V11.8906H328.969V21.3926ZM332.209 18.084C331.013 18.084 330.151 17.0381 330.151 15.4521V15.4453C330.151 13.8525 331.006 12.8066 332.209 12.8066C333.467 12.8066 334.246 13.8115 334.246 15.4453V15.4521C334.246 17.0723 333.467 18.084 332.209 18.084ZM339.593 19.1367C340.673 19.1367 341.397 18.6514 341.78 17.9883H341.808V19H342.997V11.8906H341.808V16.0742C341.808 17.2842 341.076 18.084 339.955 18.084C338.861 18.084 338.321 17.4482 338.321 16.293V11.8906H337.132V16.5049C337.132 18.125 338.034 19.1367 339.593 19.1367ZM347.359 19.1367C347.592 19.1367 347.845 19.1094 347.995 19.0889V18.125C347.893 18.1318 347.756 18.1523 347.612 18.1523C346.977 18.1523 346.642 17.9404 346.642 17.1816V12.875H347.995V11.8906H346.642V9.96973H345.411V11.8906H344.372V12.875H345.411V17.1885C345.411 18.5488 346.054 19.1367 347.359 19.1367Z" fill="white"/>
<rect x="79" y="180" width="201" height="50" rx="25" fill="#2A5CFF"/>
<path d="M99.7334 201H105.845V199.893H100.964V196.502H105.592V195.408H100.964V192.243H105.845V191.136H99.7334V201ZM112.743 203.393H113.933V193.891H112.743V195.094H112.716C112.278 194.308 111.485 193.768 110.48 193.768C108.676 193.768 107.438 195.21 107.438 197.432V197.438C107.438 199.674 108.662 201.123 110.453 201.123C111.472 201.123 112.292 200.624 112.716 199.845H112.743V203.393ZM110.713 200.07C109.448 200.07 108.655 199.065 108.655 197.438V197.432C108.655 195.839 109.448 194.82 110.713 194.82C111.916 194.82 112.743 195.853 112.743 197.432V197.438C112.743 199.031 111.923 200.07 110.713 200.07ZM118.397 201.137C119.478 201.137 120.202 200.651 120.585 199.988H120.612V201H121.802V193.891H120.612V198.074C120.612 199.284 119.881 200.084 118.76 200.084C117.666 200.084 117.126 199.448 117.126 198.293V193.891H115.937V198.505C115.937 200.125 116.839 201.137 118.397 201.137ZM125.932 201.137C126.882 201.137 127.736 200.624 128.153 199.845H128.181V201H129.37V196.085C129.37 194.663 128.317 193.754 126.636 193.754C124.961 193.754 123.942 194.697 123.84 195.866L123.833 195.941H124.981L124.995 195.88C125.132 195.244 125.706 194.807 126.622 194.807C127.613 194.807 128.181 195.333 128.181 196.201V196.796L126.144 196.912C124.51 197.008 123.566 197.767 123.566 198.977V198.99C123.566 200.282 124.517 201.137 125.932 201.137ZM124.783 198.99V198.977C124.783 198.313 125.33 197.89 126.28 197.835L128.181 197.719V198.3C128.181 199.332 127.319 200.104 126.198 200.104C125.344 200.104 124.783 199.674 124.783 198.99ZM131.442 201H132.632V191.136H131.442V201ZM140.632 201.137C142.218 201.137 143.394 200.262 143.394 199.018V199.011C143.394 197.999 142.874 197.432 141.438 197.083L140.311 196.81C139.524 196.618 139.203 196.283 139.203 195.798V195.791C139.203 195.162 139.736 194.745 140.598 194.745C141.479 194.745 142.006 195.203 142.102 195.894L142.108 195.941H143.243L143.236 195.853C143.147 194.663 142.156 193.754 140.598 193.754C139.06 193.754 137.986 194.622 137.986 195.846V195.853C137.986 196.878 138.636 197.5 139.976 197.821L141.104 198.095C141.91 198.293 142.177 198.58 142.177 199.093V199.1C142.177 199.742 141.603 200.146 140.639 200.146C139.668 200.146 139.142 199.729 138.998 199.018L138.984 198.949H137.795L137.802 199.011C137.945 200.282 138.957 201.137 140.632 201.137ZM145.801 192.688C146.218 192.688 146.546 192.353 146.546 191.942C146.546 191.525 146.218 191.197 145.801 191.197C145.391 191.197 145.056 191.525 145.056 191.942C145.056 192.353 145.391 192.688 145.801 192.688ZM145.206 201H146.396V193.891H145.206V201ZM151.523 203.529C153.451 203.529 154.661 202.449 154.661 200.802V193.891H153.472V195.094H153.444C153.007 194.301 152.214 193.754 151.209 193.754C149.404 193.754 148.167 195.189 148.167 197.397V197.404C148.167 199.626 149.391 201.068 151.182 201.068C152.2 201.068 153.021 200.562 153.444 199.776H153.472V200.686C153.472 201.786 152.761 202.477 151.51 202.477C150.539 202.477 149.862 202.162 149.637 201.649L149.609 201.588H148.413L148.427 201.649C148.659 202.702 149.767 203.529 151.523 203.529ZM151.441 200.016C150.177 200.016 149.384 199.018 149.384 197.404V197.397C149.384 195.818 150.177 194.807 151.441 194.807C152.645 194.807 153.472 195.832 153.472 197.397V197.404C153.472 198.983 152.651 200.016 151.441 200.016ZM156.699 201H157.889V196.816C157.889 195.606 158.62 194.807 159.741 194.807C160.835 194.807 161.375 195.442 161.375 196.598V201H162.564V196.386C162.564 194.766 161.662 193.754 160.104 193.754C159.023 193.754 158.299 194.239 157.916 194.902H157.889V193.891H156.699V201ZM167.953 201H169.143V196.543C169.143 195.552 169.826 194.807 170.77 194.807C171.651 194.807 172.226 195.374 172.226 196.235V201H173.415V196.481C173.415 195.511 174.078 194.807 175.021 194.807C175.958 194.807 176.498 195.388 176.498 196.365V201H177.688V196.092C177.688 194.677 176.778 193.754 175.37 193.754C174.372 193.754 173.538 194.267 173.142 195.121H173.114C172.807 194.253 172.089 193.754 171.118 193.754C170.202 193.754 169.491 194.226 169.17 194.93H169.143V193.891H167.953V201ZM182.631 201.137C184.183 201.137 185.345 200.207 185.577 199.031L185.591 198.963H184.422L184.401 199.024C184.196 199.633 183.561 200.084 182.658 200.084C181.394 200.084 180.587 199.229 180.56 197.767H185.68V197.329C185.68 195.196 184.497 193.754 182.556 193.754C180.614 193.754 179.356 195.265 179.356 197.466V197.473C179.356 199.708 180.587 201.137 182.631 201.137ZM182.549 194.807C183.588 194.807 184.354 195.456 184.47 196.837H180.58C180.71 195.511 181.517 194.807 182.549 194.807ZM189.461 201.137C190.411 201.137 191.266 200.624 191.683 199.845H191.71V201H192.899V196.085C192.899 194.663 191.847 193.754 190.165 193.754C188.49 193.754 187.472 194.697 187.369 195.866L187.362 195.941H188.511L188.524 195.88C188.661 195.244 189.235 194.807 190.151 194.807C191.143 194.807 191.71 195.333 191.71 196.201V196.796L189.673 196.912C188.039 197.008 187.096 197.767 187.096 198.977V198.99C187.096 200.282 188.046 201.137 189.461 201.137ZM188.312 198.99V198.977C188.312 198.313 188.859 197.89 189.81 197.835L191.71 197.719V198.3C191.71 199.332 190.849 200.104 189.728 200.104C188.873 200.104 188.312 199.674 188.312 198.99ZM194.91 201H196.1V196.816C196.1 195.606 196.831 194.807 197.952 194.807C199.046 194.807 199.586 195.442 199.586 196.598V201H200.775V196.386C200.775 194.766 199.873 193.754 198.314 193.754C197.234 193.754 196.51 194.239 196.127 194.902H196.1V193.891H194.91V201ZM205.315 201.137C206.901 201.137 208.077 200.262 208.077 199.018V199.011C208.077 197.999 207.558 197.432 206.122 197.083L204.994 196.81C204.208 196.618 203.887 196.283 203.887 195.798V195.791C203.887 195.162 204.42 194.745 205.281 194.745C206.163 194.745 206.689 195.203 206.785 195.894L206.792 195.941H207.927L207.92 195.853C207.831 194.663 206.84 193.754 205.281 193.754C203.743 193.754 202.67 194.622 202.67 195.846V195.853C202.67 196.878 203.319 197.5 204.659 197.821L205.787 198.095C206.594 198.293 206.86 198.58 206.86 199.093V199.1C206.86 199.742 206.286 200.146 205.322 200.146C204.352 200.146 203.825 199.729 203.682 199.018L203.668 198.949H202.479L202.485 199.011C202.629 200.282 203.641 201.137 205.315 201.137ZM214.594 201H215.804L217.403 195.497H217.431L219.037 201H220.247L222.229 193.891H221.054L219.632 199.674H219.604L217.991 193.891H216.843L215.236 199.674H215.209L213.787 193.891H212.604L214.594 201ZM226.633 201.137C228.185 201.137 229.347 200.207 229.579 199.031L229.593 198.963H228.424L228.403 199.024C228.198 199.633 227.562 200.084 226.66 200.084C225.396 200.084 224.589 199.229 224.562 197.767H229.682V197.329C229.682 195.196 228.499 193.754 226.558 193.754C224.616 193.754 223.358 195.265 223.358 197.466V197.473C223.358 199.708 224.589 201.137 226.633 201.137ZM226.551 194.807C227.59 194.807 228.355 195.456 228.472 196.837H224.582C224.712 195.511 225.519 194.807 226.551 194.807ZM237.764 203.529C239.691 203.529 240.901 202.449 240.901 200.802V193.891H239.712V195.094H239.685C239.247 194.301 238.454 193.754 237.449 193.754C235.645 193.754 234.407 195.189 234.407 197.397V197.404C234.407 199.626 235.631 201.068 237.422 201.068C238.44 201.068 239.261 200.562 239.685 199.776H239.712V200.686C239.712 201.786 239.001 202.477 237.75 202.477C236.779 202.477 236.103 202.162 235.877 201.649L235.85 201.588H234.653L234.667 201.649C234.899 202.702 236.007 203.529 237.764 203.529ZM237.682 200.016C236.417 200.016 235.624 199.018 235.624 197.404V197.397C235.624 195.818 236.417 194.807 237.682 194.807C238.885 194.807 239.712 195.832 239.712 197.397V197.404C239.712 198.983 238.892 200.016 237.682 200.016ZM243.609 192.688C244.026 192.688 244.354 192.353 244.354 191.942C244.354 191.525 244.026 191.197 243.609 191.197C243.199 191.197 242.864 191.525 242.864 191.942C242.864 192.353 243.199 192.688 243.609 192.688ZM243.015 201H244.204V193.891H243.015V201ZM248.327 201H249.544L252.155 193.891H250.918L248.949 199.735H248.922L246.96 193.891H245.709L248.327 201ZM256.244 201.137C257.796 201.137 258.958 200.207 259.19 199.031L259.204 198.963H258.035L258.015 199.024C257.81 199.633 257.174 200.084 256.271 200.084C255.007 200.084 254.2 199.229 254.173 197.767H259.293V197.329C259.293 195.196 258.11 193.754 256.169 193.754C254.228 193.754 252.97 195.265 252.97 197.466V197.473C252.97 199.708 254.2 201.137 256.244 201.137ZM256.162 194.807C257.201 194.807 257.967 195.456 258.083 196.837H254.193C254.323 195.511 255.13 194.807 256.162 194.807ZM113.663 218.137C114.613 218.137 115.468 217.624 115.885 216.845H115.912V218H117.102V213.085C117.102 211.663 116.049 210.754 114.367 210.754C112.692 210.754 111.674 211.697 111.571 212.866L111.564 212.941H112.713L112.727 212.88C112.863 212.244 113.438 211.807 114.354 211.807C115.345 211.807 115.912 212.333 115.912 213.201V213.796L113.875 213.912C112.241 214.008 111.298 214.767 111.298 215.977V215.99C111.298 217.282 112.248 218.137 113.663 218.137ZM112.515 215.99V215.977C112.515 215.313 113.062 214.89 114.012 214.835L115.912 214.719V215.3C115.912 216.332 115.051 217.104 113.93 217.104C113.075 217.104 112.515 216.674 112.515 215.99ZM124.486 218H125.703L128.314 210.891H127.077L125.108 216.735H125.081L123.119 210.891H121.868L124.486 218ZM131.692 218.137C132.643 218.137 133.497 217.624 133.914 216.845H133.941V218H135.131V213.085C135.131 211.663 134.078 210.754 132.396 210.754C130.722 210.754 129.703 211.697 129.601 212.866L129.594 212.941H130.742L130.756 212.88C130.893 212.244 131.467 211.807 132.383 211.807C133.374 211.807 133.941 212.333 133.941 213.201V213.796L131.904 213.912C130.271 214.008 129.327 214.767 129.327 215.977V215.99C129.327 217.282 130.277 218.137 131.692 218.137ZM130.544 215.99V215.977C130.544 215.313 131.091 214.89 132.041 214.835L133.941 214.719V215.3C133.941 216.332 133.08 217.104 131.959 217.104C131.104 217.104 130.544 216.674 130.544 215.99ZM137.142 218H138.331V213.557C138.331 212.552 138.933 211.889 139.855 211.889C140.143 211.889 140.396 211.923 140.491 211.957V210.802C140.396 210.788 140.218 210.754 140.013 210.754C139.179 210.754 138.522 211.253 138.29 212.039H138.263V210.891H137.142V218ZM142.632 209.688C143.049 209.688 143.377 209.353 143.377 208.942C143.377 208.525 143.049 208.197 142.632 208.197C142.222 208.197 141.887 208.525 141.887 208.942C141.887 209.353 142.222 209.688 142.632 209.688ZM142.037 218H143.227V210.891H142.037V218ZM147.425 218.137C148.375 218.137 149.229 217.624 149.646 216.845H149.674V218H150.863V213.085C150.863 211.663 149.811 210.754 148.129 210.754C146.454 210.754 145.436 211.697 145.333 212.866L145.326 212.941H146.475L146.488 212.88C146.625 212.244 147.199 211.807 148.115 211.807C149.106 211.807 149.674 212.333 149.674 213.201V213.796L147.637 213.912C146.003 214.008 145.06 214.767 145.06 215.977V215.99C145.06 217.282 146.01 218.137 147.425 218.137ZM146.276 215.99V215.977C146.276 215.313 146.823 214.89 147.773 214.835L149.674 214.719V215.3C149.674 216.332 148.812 217.104 147.691 217.104C146.837 217.104 146.276 216.674 146.276 215.99ZM156.408 218.137C158.227 218.137 159.43 216.688 159.43 214.445V214.438C159.43 212.196 158.213 210.754 156.429 210.754C155.424 210.754 154.597 211.26 154.152 212.08H154.125V208.136H152.936V218H154.125V216.797H154.152C154.597 217.624 155.39 218.137 156.408 218.137ZM156.176 217.084C154.973 217.084 154.118 216.038 154.118 214.445V214.438C154.118 212.853 154.979 211.807 156.176 211.807C157.434 211.807 158.213 212.818 158.213 214.438V214.445C158.213 216.079 157.434 217.084 156.176 217.084ZM161.188 218H162.377V208.136H161.188V218ZM167.409 218.137C168.961 218.137 170.123 217.207 170.355 216.031L170.369 215.963H169.2L169.18 216.024C168.975 216.633 168.339 217.084 167.437 217.084C166.172 217.084 165.365 216.229 165.338 214.767H170.458V214.329C170.458 212.196 169.275 210.754 167.334 210.754C165.393 210.754 164.135 212.265 164.135 214.466V214.473C164.135 216.708 165.365 218.137 167.409 218.137ZM167.327 211.807C168.366 211.807 169.132 212.456 169.248 213.837H165.358C165.488 212.511 166.295 211.807 167.327 211.807ZM177.61 218.137C178.561 218.137 179.415 217.624 179.832 216.845H179.859V218H181.049V213.085C181.049 211.663 179.996 210.754 178.314 210.754C176.64 210.754 175.621 211.697 175.519 212.866L175.512 212.941H176.66L176.674 212.88C176.811 212.244 177.385 211.807 178.301 211.807C179.292 211.807 179.859 212.333 179.859 213.201V213.796L177.822 213.912C176.188 214.008 175.245 214.767 175.245 215.977V215.99C175.245 217.282 176.195 218.137 177.61 218.137ZM176.462 215.99V215.977C176.462 215.313 177.009 214.89 177.959 214.835L179.859 214.719V215.3C179.859 216.332 178.998 217.104 177.877 217.104C177.022 217.104 176.462 216.674 176.462 215.99ZM186.431 218H187.62V213.816C187.62 212.606 188.352 211.807 189.473 211.807C190.566 211.807 191.106 212.442 191.106 213.598V218H192.296V213.386C192.296 211.766 191.394 210.754 189.835 210.754C188.755 210.754 188.03 211.239 187.647 211.902H187.62V210.891H186.431V218ZM197.239 218.137C198.791 218.137 199.953 217.207 200.186 216.031L200.199 215.963H199.03L199.01 216.024C198.805 216.633 198.169 217.084 197.267 217.084C196.002 217.084 195.195 216.229 195.168 214.767H200.288V214.329C200.288 212.196 199.105 210.754 197.164 210.754C195.223 210.754 193.965 212.265 193.965 214.466V214.473C193.965 216.708 195.195 218.137 197.239 218.137ZM197.157 211.807C198.196 211.807 198.962 212.456 199.078 213.837H195.188C195.318 212.511 196.125 211.807 197.157 211.807ZM203.399 218H204.609L206.209 212.497H206.236L207.843 218H209.053L211.035 210.891H209.859L208.438 216.674H208.41L206.797 210.891H205.648L204.042 216.674H204.015L202.593 210.891H201.41L203.399 218ZM217.887 218H219.104L221.715 210.891H220.478L218.509 216.735H218.481L216.52 210.891H215.269L217.887 218ZM225.093 218.137C226.043 218.137 226.897 217.624 227.314 216.845H227.342V218H228.531V213.085C228.531 211.663 227.479 210.754 225.797 210.754C224.122 210.754 223.104 211.697 223.001 212.866L222.994 212.941H224.143L224.156 212.88C224.293 212.244 224.867 211.807 225.783 211.807C226.774 211.807 227.342 212.333 227.342 213.201V213.796L225.305 213.912C223.671 214.008 222.728 214.767 222.728 215.977V215.99C222.728 217.282 223.678 218.137 225.093 218.137ZM223.944 215.99V215.977C223.944 215.313 224.491 214.89 225.441 214.835L227.342 214.719V215.3C227.342 216.332 226.48 217.104 225.359 217.104C224.505 217.104 223.944 216.674 223.944 215.99ZM230.604 218H231.793V208.136H230.604V218ZM236.326 218.137C237.406 218.137 238.131 217.651 238.514 216.988H238.541V218H239.73V210.891H238.541V215.074C238.541 216.284 237.81 217.084 236.688 217.084C235.595 217.084 235.055 216.448 235.055 215.293V210.891H233.865V215.505C233.865 217.125 234.768 218.137 236.326 218.137ZM244.708 218.137C246.26 218.137 247.422 217.207 247.654 216.031L247.668 215.963H246.499L246.479 216.024C246.273 216.633 245.638 217.084 244.735 217.084C243.471 217.084 242.664 216.229 242.637 214.767H247.757V214.329C247.757 212.196 246.574 210.754 244.633 210.754C242.691 210.754 241.434 212.265 241.434 214.466V214.473C241.434 216.708 242.664 218.137 244.708 218.137ZM244.626 211.807C245.665 211.807 246.431 212.456 246.547 213.837H242.657C242.787 212.511 243.594 211.807 244.626 211.807Z" fill="white"/>
<path d="M146.5 72.5V62.5C146.5 56.9772 142.023 52.5 136.5 52.5H52.5C46.9772 52.5 42.5 48.0228 42.5 42.5V28.5" stroke="#2A5CFF" stroke-width="2"/>
<path d="M222 140V150C222 155.523 217.523 160 212 160H128C122.477 160 118 164.477 118 170V180" stroke="#2A5CFF" stroke-width="2"/>
<path d="M249.5 72.5V62.5C249.5 56.9772 253.977 52.5 259.5 52.5H283.5C289.023 52.5 293.5 48.0228 293.5 42.5V28.5" stroke="#2A5CFF" stroke-width="2"/>
</svg>
