<svg width="444" height="230" viewBox="0 0 444 230" fill="none" xmlns="http://www.w3.org/2000/svg">
    <rect x="301" width="142" height="40" rx="20" fill="#0015FF"/>
    <path d="M335.5 72.5V62.5C335.5 56.9772 339.977 52.5 345.5 52.5H369.5C375.023 52.5 379.5 48.0228 379.5 42.5V28.5" stroke="#0015FF" stroke-width="2"/>
    <path d="M322.361 17V9.49414H325.027V8.54492H318.641V9.49414H321.307V17H322.361ZM326.844 11.6855C327.805 11.6855 328.443 12.4121 328.467 13.4316H325.156C325.221 12.418 325.889 11.6855 326.844 11.6855ZM328.443 15.2539C328.273 15.8281 327.705 16.2207 326.932 16.2207C325.836 16.2207 325.15 15.4531 325.15 14.2871V14.2285H329.521V13.8418C329.521 11.9961 328.508 10.8008 326.861 10.8008C325.18 10.8008 324.102 12.084 324.102 13.9766C324.102 15.8926 325.162 17.1055 326.908 17.1055C328.238 17.1055 329.27 16.3203 329.445 15.2539H328.443ZM332.592 14.6797L334.051 17H335.182L333.154 13.9121L335.211 10.9062H334.074L332.627 13.1914H332.604L331.139 10.9062H330.002L332.041 13.9531L329.967 17H331.098L332.568 14.6797H332.592ZM336.4 9.43555V10.9062H335.492V11.7441H336.4V15.418C336.4 16.5898 336.834 17.0469 337.953 17.0469C338.193 17.0469 338.475 17.0293 338.598 17V16.1445C338.527 16.1562 338.293 16.1738 338.176 16.1738C337.654 16.1738 337.42 15.9219 337.42 15.3652V11.7441H338.604V10.9062H337.42V9.43555H336.4ZM345.986 14.0469V13.0977H342.143V14.0469H345.986ZM351.893 13.7891L354.729 10.9062H353.469L350.879 13.6016H350.832V10.9062H349.812V17H350.832V14.0703H350.879L353.498 17H354.811L351.893 13.7891ZM357.242 14.3105L357.43 11.7441H359.48V17H360.5V10.9062H356.51L356.275 14.2871C356.199 15.4062 355.971 16.1152 355.367 16.1152C355.221 16.1152 355.109 16.0859 355.057 16.0684V16.9883C355.127 17.0176 355.244 17.0527 355.42 17.0527C356.703 17.0527 357.119 15.9922 357.242 14.3105ZM363.957 16.2383C363.225 16.2383 362.738 15.8574 362.738 15.2773C362.738 14.7031 363.207 14.3398 364.027 14.2871L365.656 14.1875V14.6855C365.656 15.5645 364.918 16.2383 363.957 16.2383ZM363.729 17.1055C364.549 17.1055 365.322 16.6484 365.686 15.9512H365.709V17H366.676V12.7871C366.676 11.5742 365.773 10.8008 364.344 10.8008C362.902 10.8008 362 11.6094 361.93 12.6641H362.914C363.043 12.0664 363.535 11.6973 364.32 11.6973C365.164 11.6973 365.656 12.1426 365.656 12.8867V13.3965L363.91 13.4961C362.504 13.5781 361.701 14.2344 361.701 15.2773C361.701 16.373 362.516 17.1055 363.729 17.1055ZM373.15 12.9043C373.021 11.8086 372.113 10.8008 370.59 10.8008C368.908 10.8008 367.789 12.0312 367.789 13.9531C367.789 15.916 368.914 17.1055 370.602 17.1055C371.984 17.1055 373.004 16.25 373.162 15.0371H372.16C371.984 15.7695 371.439 16.209 370.607 16.209C369.553 16.209 368.826 15.3711 368.826 13.9531C368.826 12.5703 369.541 11.6973 370.596 11.6973C371.492 11.6973 372.008 12.2422 372.154 12.9043H373.15ZM379.279 12.9043C379.15 11.8086 378.242 10.8008 376.719 10.8008C375.037 10.8008 373.918 12.0312 373.918 13.9531C373.918 15.916 375.043 17.1055 376.73 17.1055C378.113 17.1055 379.133 16.25 379.291 15.0371H378.289C378.113 15.7695 377.568 16.209 376.736 16.209C375.682 16.209 374.955 15.3711 374.955 13.9531C374.955 12.5703 375.67 11.6973 376.725 11.6973C377.621 11.6973 378.137 12.2422 378.283 12.9043H379.279ZM385.426 17C386.721 17 387.518 16.3262 387.518 15.248C387.518 14.5039 387.014 13.959 386.246 13.8535V13.8066C386.809 13.6895 387.248 13.1094 387.248 12.4824C387.248 11.5039 386.551 10.9062 385.408 10.9062H382.801V17H385.426ZM383.82 11.7324H385.256C385.895 11.7324 386.24 12.0371 386.24 12.5879C386.24 13.1797 385.871 13.4668 385.104 13.4668H383.82V11.7324ZM383.82 14.2871H385.186C386.076 14.2871 386.504 14.5918 386.504 15.2246C386.504 15.8398 386.105 16.1738 385.367 16.1738H383.82V14.2871ZM391.309 17C392.604 17 393.4 16.3262 393.4 15.248C393.4 14.5039 392.896 13.959 392.129 13.8535V13.8066C392.691 13.6895 393.131 13.1094 393.131 12.4824C393.131 11.5039 392.434 10.9062 391.291 10.9062H388.684V17H391.309ZM389.703 11.7324H391.139C391.777 11.7324 392.123 12.0371 392.123 12.5879C392.123 13.1797 391.754 13.4668 390.986 13.4668H389.703V11.7324ZM389.703 14.2871H391.068C391.959 14.2871 392.387 14.5918 392.387 15.2246C392.387 15.8398 391.988 16.1738 391.25 16.1738H389.703V14.2871ZM397.098 17.1055C398.779 17.1055 399.916 15.8926 399.916 13.9531C399.916 12.0078 398.779 10.8008 397.098 10.8008C395.41 10.8008 394.273 12.0078 394.273 13.9531C394.273 15.8926 395.41 17.1055 397.098 17.1055ZM397.098 16.209C396.02 16.209 395.311 15.3887 395.311 13.9531C395.311 12.5176 396.02 11.6973 397.098 11.6973C398.176 11.6973 398.879 12.5176 398.879 13.9531C398.879 15.3887 398.176 16.209 397.098 16.209ZM404.984 16.1621H402.014V16.1152C402.301 15.7285 402.459 15.0664 402.512 14.3105L402.699 11.7441H404.984V16.1621ZM401.287 18.6113V17H406.016V18.6113H406.965V16.1621H405.998V10.9062H401.803L401.568 14.2871C401.51 15.1074 401.293 15.8691 400.848 16.1621H400.338V18.6113H401.287ZM411.881 17H412.9V10.9062H411.881V13.4199H408.898V10.9062H407.879V17H408.898V14.2578H411.881V17ZM416.867 17.1055C418.549 17.1055 419.686 15.8926 419.686 13.9531C419.686 12.0078 418.549 10.8008 416.867 10.8008C415.18 10.8008 414.043 12.0078 414.043 13.9531C414.043 15.8926 415.18 17.1055 416.867 17.1055ZM416.867 16.209C415.789 16.209 415.08 15.3887 415.08 13.9531C415.08 12.5176 415.789 11.6973 416.867 11.6973C417.945 11.6973 418.648 12.5176 418.648 13.9531C418.648 15.3887 417.945 16.209 416.867 16.209ZM421.836 17L424.871 12.4707H424.918V17H425.938V10.9062H424.93L421.895 15.4355H421.848V10.9062H420.828V17H421.836ZM421.514 8.26953C421.514 9.34766 422.281 10.0859 423.4 10.0859C424.52 10.0859 425.287 9.34766 425.287 8.26953H424.537C424.537 8.94922 424.098 9.48242 423.4 9.48242C422.703 9.48242 422.264 8.94922 422.264 8.26953H421.514ZM358.643 27.6719C358.643 29.7109 359.182 31.3691 360.307 32.7988H361.162C360.33 31.832 359.68 29.5879 359.68 27.6719C359.68 25.7559 360.33 23.5117 361.162 22.5449H360.307C359.182 23.9746 358.643 25.6328 358.643 27.6719ZM362.387 23.4355V24.9062H361.479V25.7441H362.387V29.418C362.387 30.5898 362.82 31.0469 363.939 31.0469C364.18 31.0469 364.461 31.0293 364.584 31V30.1445C364.514 30.1562 364.279 30.1738 364.162 30.1738C363.641 30.1738 363.406 29.9219 363.406 29.3652V25.7441H364.59V24.9062H363.406V23.4355H362.387ZM366.189 33.2793C367.291 33.2793 367.795 32.8516 368.316 31.4277L370.713 24.9062H369.641L367.953 29.9805H367.936L366.248 24.9062H365.158L367.408 31.0059L367.268 31.4336C367.033 32.1426 366.717 32.418 366.148 32.418C366.02 32.418 365.861 32.4121 365.75 32.3887V33.2441C365.861 33.2676 366.066 33.2793 366.189 33.2793ZM374.475 24.8008C373.59 24.8008 372.881 25.252 372.506 25.9375H372.482V24.9062H371.516V33.0332H372.535V30.0098H372.559C372.922 30.6777 373.625 31.1055 374.498 31.1055C376.033 31.1055 377.082 29.8633 377.082 27.9531C377.082 26.043 376.027 24.8008 374.475 24.8008ZM374.275 30.209C373.232 30.209 372.529 29.3125 372.529 27.9531C372.529 26.5996 373.232 25.6973 374.275 25.6973C375.359 25.6973 376.039 26.5762 376.039 27.9531C376.039 29.3359 375.359 30.209 374.275 30.209ZM380.557 25.6855C381.518 25.6855 382.156 26.4121 382.18 27.4316H378.869C378.934 26.418 379.602 25.6855 380.557 25.6855ZM382.156 29.2539C381.986 29.8281 381.418 30.2207 380.645 30.2207C379.549 30.2207 378.863 29.4531 378.863 28.2871V28.2285H383.234V27.8418C383.234 25.9961 382.221 24.8008 380.574 24.8008C378.893 24.8008 377.814 26.084 377.814 27.9766C377.814 29.8926 378.875 31.1055 380.621 31.1055C381.951 31.1055 382.982 30.3203 383.158 29.2539H382.156ZM386.357 27.6719C386.357 25.6328 385.818 23.9746 384.693 22.5449H383.838C384.67 23.5117 385.32 25.7559 385.32 27.6719C385.32 29.5879 384.67 31.832 383.838 32.7988H384.693C385.818 31.3691 386.357 29.7109 386.357 27.6719Z" fill="white"/>
    <path d="M256 180H105C91.1929 180 80 191.193 80 205C80 218.807 91.1929 230 105 230H256C269.807 230 281 218.807 281 205C281 191.193 269.807 180 256 180Z" fill="#0015FF"/>
    <path d="M223 140V150C223 155.523 218.523 160 213 160H129C123.477 160 119 164.477 119 170V180" stroke="#0015FF" stroke-width="2"/>
    <path d="M92.2285 199.15H93.418C94.6367 199.15 95.3633 199.725 95.3633 200.691C95.3633 201.623 94.5898 202.262 93.459 202.262C92.2988 202.262 91.4902 201.688 91.3965 200.797H90.377C90.4531 202.238 91.6895 203.199 93.4707 203.199C95.1406 203.199 96.4473 202.115 96.4473 200.721C96.4473 199.572 95.7559 198.764 94.6309 198.617V198.57C95.5625 198.342 96.2012 197.545 96.2012 196.607C96.2012 195.289 95.0703 194.346 93.4883 194.346C91.8066 194.346 90.7109 195.248 90.6055 196.713H91.6309C91.7188 195.822 92.3984 195.283 93.4473 195.283C94.4844 195.283 95.1289 195.828 95.1289 196.701C95.1289 197.586 94.4023 198.213 93.3711 198.213H92.2285V199.15ZM101.604 203H102.623V196.906H101.604V199.42H98.6211V196.906H97.6016V203H98.6211V200.258H101.604V203ZM106.074 202.238C105.342 202.238 104.855 201.857 104.855 201.277C104.855 200.703 105.324 200.34 106.145 200.287L107.773 200.188V200.686C107.773 201.564 107.035 202.238 106.074 202.238ZM105.846 203.105C106.666 203.105 107.439 202.648 107.803 201.951H107.826V203H108.793V198.787C108.793 197.574 107.891 196.801 106.461 196.801C105.02 196.801 104.117 197.609 104.047 198.664H105.031C105.16 198.066 105.652 197.697 106.438 197.697C107.281 197.697 107.773 198.143 107.773 198.887V199.396L106.027 199.496C104.621 199.578 103.818 200.234 103.818 201.277C103.818 202.373 104.633 203.105 105.846 203.105ZM112.279 199.789L115.115 196.906H113.855L111.266 199.602H111.219V196.906H110.199V203H111.219V200.07H111.266L113.885 203H115.197L112.279 199.789ZM121.473 196.801C120.588 196.801 119.879 197.252 119.504 197.938H119.48V196.906H118.514V205.033H119.533V202.01H119.557C119.92 202.678 120.623 203.105 121.496 203.105C123.031 203.105 124.08 201.863 124.08 199.953C124.08 198.043 123.025 196.801 121.473 196.801ZM121.273 202.209C120.23 202.209 119.527 201.312 119.527 199.953C119.527 198.6 120.23 197.697 121.273 197.697C122.357 197.697 123.037 198.576 123.037 199.953C123.037 201.336 122.357 202.209 121.273 202.209ZM127.238 202.238C126.506 202.238 126.02 201.857 126.02 201.277C126.02 200.703 126.488 200.34 127.309 200.287L128.938 200.188V200.686C128.938 201.564 128.199 202.238 127.238 202.238ZM127.01 203.105C127.83 203.105 128.604 202.648 128.967 201.951H128.99V203H129.957V198.787C129.957 197.574 129.055 196.801 127.625 196.801C126.184 196.801 125.281 197.609 125.211 198.664H126.195C126.324 198.066 126.816 197.697 127.602 197.697C128.445 197.697 128.938 198.143 128.938 198.887V199.396L127.191 199.496C125.785 199.578 124.982 200.234 124.982 201.277C124.982 202.373 125.797 203.105 127.01 203.105ZM133.988 203C135.283 203 136.08 202.326 136.08 201.248C136.08 200.504 135.576 199.959 134.809 199.854V199.807C135.371 199.689 135.811 199.109 135.811 198.482C135.811 197.504 135.113 196.906 133.971 196.906H131.363V203H133.988ZM132.383 197.732H133.818C134.457 197.732 134.803 198.037 134.803 198.588C134.803 199.18 134.434 199.467 133.666 199.467H132.383V197.732ZM132.383 200.287H133.748C134.639 200.287 135.066 200.592 135.066 201.225C135.066 201.84 134.668 202.174 133.93 202.174H132.383V200.287ZM141.248 203H142.268V196.906H141.248V199.42H138.266V196.906H137.246V203H138.266V200.258H141.248V203ZM146.234 203.105C147.916 203.105 149.053 201.893 149.053 199.953C149.053 198.008 147.916 196.801 146.234 196.801C144.547 196.801 143.41 198.008 143.41 199.953C143.41 201.893 144.547 203.105 146.234 203.105ZM146.234 202.209C145.156 202.209 144.447 201.389 144.447 199.953C144.447 198.518 145.156 197.697 146.234 197.697C147.312 197.697 148.016 198.518 148.016 199.953C148.016 201.389 147.312 202.209 146.234 202.209ZM155.188 203.105C156.869 203.105 158.006 201.893 158.006 199.953C158.006 198.008 156.869 196.801 155.188 196.801C153.5 196.801 152.363 198.008 152.363 199.953C152.363 201.893 153.5 203.105 155.188 203.105ZM155.188 202.209C154.109 202.209 153.4 201.389 153.4 199.953C153.4 198.518 154.109 197.697 155.188 197.697C156.266 197.697 156.969 198.518 156.969 199.953C156.969 201.389 156.266 202.209 155.188 202.209ZM161.182 203.105C162.611 203.105 163.561 202.344 163.561 201.219C163.561 200.533 163.145 200.029 162.342 199.854V199.807C162.975 199.66 163.391 199.098 163.391 198.465C163.391 197.475 162.635 196.801 161.246 196.801C159.957 196.801 159.078 197.439 158.949 198.447H159.939C160.021 197.961 160.525 197.65 161.246 197.65C162.031 197.65 162.395 198.025 162.395 198.547C162.395 199.162 161.984 199.467 161.182 199.467H160.268V200.299H161.182C162.102 200.299 162.559 200.598 162.559 201.266C162.559 201.846 162.066 202.262 161.182 202.262C160.426 202.262 159.922 201.951 159.805 201.418H158.773C158.879 202.449 159.846 203.105 161.182 203.105ZM168.729 203H169.748V196.906H168.729V199.42H165.746V196.906H164.727V203H165.746V200.258H168.729V203ZM173.199 202.238C172.467 202.238 171.98 201.857 171.98 201.277C171.98 200.703 172.449 200.34 173.27 200.287L174.898 200.188V200.686C174.898 201.564 174.16 202.238 173.199 202.238ZM172.971 203.105C173.791 203.105 174.564 202.648 174.928 201.951H174.951V203H175.918V198.787C175.918 197.574 175.016 196.801 173.586 196.801C172.145 196.801 171.242 197.609 171.172 198.664H172.156C172.285 198.066 172.777 197.697 173.562 197.697C174.406 197.697 174.898 198.143 174.898 198.887V199.396L173.152 199.496C171.746 199.578 170.943 200.234 170.943 201.277C170.943 202.373 171.758 203.105 172.971 203.105ZM181.971 203V196.906H180.951V199.473C180.664 199.76 180.131 199.953 179.451 199.953C178.607 199.953 178.191 199.443 178.191 198.646V196.906H177.172V198.658C177.172 199.959 177.939 200.844 179.416 200.844C180.061 200.844 180.518 200.703 180.863 200.475H180.951V203H181.971ZM185.422 202.238C184.689 202.238 184.203 201.857 184.203 201.277C184.203 200.703 184.672 200.34 185.492 200.287L187.121 200.188V200.686C187.121 201.564 186.383 202.238 185.422 202.238ZM185.193 203.105C186.014 203.105 186.787 202.648 187.15 201.951H187.174V203H188.141V198.787C188.141 197.574 187.238 196.801 185.809 196.801C184.367 196.801 183.465 197.609 183.395 198.664H184.379C184.508 198.066 185 197.697 185.785 197.697C186.629 197.697 187.121 198.143 187.121 198.887V199.396L185.375 199.496C183.969 199.578 183.166 200.234 183.166 201.277C183.166 202.373 183.98 203.105 185.193 203.105ZM191.996 197.686C192.957 197.686 193.596 198.412 193.619 199.432H190.309C190.373 198.418 191.041 197.686 191.996 197.686ZM193.596 201.254C193.426 201.828 192.857 202.221 192.084 202.221C190.988 202.221 190.303 201.453 190.303 200.287V200.229H194.674V199.842C194.674 197.996 193.66 196.801 192.014 196.801C190.332 196.801 189.254 198.084 189.254 199.977C189.254 201.893 190.314 203.105 192.061 203.105C193.391 203.105 194.422 202.32 194.598 201.254H193.596ZM200.041 196.906H195.096V197.744H197.059V203H198.078V197.744H200.041V196.906ZM201.219 204.682L202.021 201.699H200.938L200.369 204.682H201.219ZM210.143 203V196.906H209.123V199.473C208.836 199.76 208.303 199.953 207.623 199.953C206.779 199.953 206.363 199.443 206.363 198.646V196.906H205.344V198.658C205.344 199.959 206.111 200.844 207.588 200.844C208.232 200.844 208.689 200.703 209.035 200.475H209.123V203H210.143ZM216.037 196.906H211.092V197.744H213.055V203H214.074V197.744H216.037V196.906ZM219.395 203.105C221.076 203.105 222.213 201.893 222.213 199.953C222.213 198.008 221.076 196.801 219.395 196.801C217.707 196.801 216.57 198.008 216.57 199.953C216.57 201.893 217.707 203.105 219.395 203.105ZM219.395 202.209C218.316 202.209 217.607 201.389 217.607 199.953C217.607 198.518 218.316 197.697 219.395 197.697C220.473 197.697 221.176 198.518 221.176 199.953C221.176 201.389 220.473 202.209 219.395 202.209ZM226.824 203V198.676H226.865L228.834 202.824H229.613L231.582 198.676H231.623V203H232.637V196.906H231.447L229.268 201.652H229.221L227.053 196.906H225.816V203H226.824ZM239.281 203H240.289V196.906H239.281V203ZM236.211 199.689C236.996 199.689 237.512 200.176 237.512 200.926C237.512 201.67 237.002 202.162 236.211 202.162H235.086V199.689H236.211ZM234.066 203H236.229C237.623 203 238.52 202.197 238.52 200.926C238.52 199.654 237.623 198.852 236.229 198.852H235.086V196.906H234.066V203ZM248.223 202.162H245.252V202.115C245.539 201.729 245.697 201.066 245.75 200.311L245.938 197.744H248.223V202.162ZM244.525 204.611V203H249.254V204.611H250.203V202.162H249.236V196.906H245.041L244.807 200.287C244.748 201.107 244.531 201.869 244.086 202.162H243.576V204.611H244.525ZM253.133 202.238C252.4 202.238 251.914 201.857 251.914 201.277C251.914 200.703 252.383 200.34 253.203 200.287L254.832 200.188V200.686C254.832 201.564 254.094 202.238 253.133 202.238ZM252.904 203.105C253.725 203.105 254.498 202.648 254.861 201.951H254.885V203H255.852V198.787C255.852 197.574 254.949 196.801 253.52 196.801C252.078 196.801 251.176 197.609 251.105 198.664H252.09C252.219 198.066 252.711 197.697 253.496 197.697C254.34 197.697 254.832 198.143 254.832 198.887V199.396L253.086 199.496C251.68 199.578 250.877 200.234 250.877 201.277C250.877 202.373 251.691 203.105 252.904 203.105ZM259.707 197.686C260.668 197.686 261.307 198.412 261.33 199.432H258.02C258.084 198.418 258.752 197.686 259.707 197.686ZM261.307 201.254C261.137 201.828 260.568 202.221 259.795 202.221C258.699 202.221 258.014 201.453 258.014 200.287V200.229H262.385V199.842C262.385 197.996 261.371 196.801 259.725 196.801C258.043 196.801 256.965 198.084 256.965 199.977C256.965 201.893 258.025 203.105 259.771 203.105C261.102 203.105 262.133 202.32 262.309 201.254H261.307ZM264.535 203V198.676H264.576L266.545 202.824H267.324L269.293 198.676H269.334V203H270.348V196.906H269.158L266.979 201.652H266.932L264.764 196.906H263.527V203H264.535ZM108.945 217H109.971V210.906H105.002V217H106.021V211.744H108.945V217ZM113.85 211.686C114.811 211.686 115.449 212.412 115.473 213.432H112.162C112.227 212.418 112.895 211.686 113.85 211.686ZM115.449 215.254C115.279 215.828 114.711 216.221 113.938 216.221C112.842 216.221 112.156 215.453 112.156 214.287V214.229H116.527V213.842C116.527 211.996 115.514 210.801 113.867 210.801C112.186 210.801 111.107 212.084 111.107 213.977C111.107 215.893 112.168 217.105 113.914 217.105C115.244 217.105 116.275 216.32 116.451 215.254H115.449ZM120.635 210.801C119.75 210.801 119.041 211.252 118.666 211.938H118.643V210.906H117.676V219.033H118.695V216.01H118.719C119.082 216.678 119.785 217.105 120.658 217.105C122.193 217.105 123.242 215.863 123.242 213.953C123.242 212.043 122.188 210.801 120.635 210.801ZM120.436 216.209C119.393 216.209 118.689 215.312 118.689 213.953C118.689 212.6 119.393 211.697 120.436 211.697C121.52 211.697 122.199 212.576 122.199 213.953C122.199 215.336 121.52 216.209 120.436 216.209ZM126.834 211.686C127.795 211.686 128.434 212.412 128.457 213.432H125.146C125.211 212.418 125.879 211.686 126.834 211.686ZM128.434 215.254C128.264 215.828 127.695 216.221 126.922 216.221C125.826 216.221 125.141 215.453 125.141 214.287V214.229H129.512V213.842C129.512 211.996 128.498 210.801 126.852 210.801C125.17 210.801 124.092 212.084 124.092 213.977C124.092 215.893 125.152 217.105 126.898 217.105C128.229 217.105 129.26 216.32 129.436 215.254H128.434ZM131.662 217V212.676H131.703L133.672 216.824H134.451L136.42 212.676H136.461V217H137.475V210.906H136.285L134.105 215.652H134.059L131.891 210.906H130.654V217H131.662ZM141.354 211.686C142.314 211.686 142.953 212.412 142.977 213.432H139.666C139.73 212.418 140.398 211.686 141.354 211.686ZM142.953 215.254C142.783 215.828 142.215 216.221 141.441 216.221C140.346 216.221 139.66 215.453 139.66 214.287V214.229H144.031V213.842C144.031 211.996 143.018 210.801 141.371 210.801C139.689 210.801 138.611 212.084 138.611 213.977C138.611 215.893 139.672 217.105 141.418 217.105C142.748 217.105 143.779 216.32 143.955 215.254H142.953ZM149.176 217H150.195V210.906H149.176V213.42H146.193V210.906H145.174V217H146.193V214.258H149.176V217ZM155.633 217H156.652V210.906H155.633V213.42H152.65V210.906H151.631V217H152.65V214.258H155.633V217ZM160.619 217.105C162.301 217.105 163.438 215.893 163.438 213.953C163.438 212.008 162.301 210.801 160.619 210.801C158.932 210.801 157.795 212.008 157.795 213.953C157.795 215.893 158.932 217.105 160.619 217.105ZM160.619 216.209C159.541 216.209 158.832 215.389 158.832 213.953C158.832 212.518 159.541 211.697 160.619 211.697C161.697 211.697 162.4 212.518 162.4 213.953C162.4 215.389 161.697 216.209 160.619 216.209ZM165.588 217L168.623 212.471H168.67V217H169.689V210.906H168.682L165.646 215.436H165.6V210.906H164.58V217H165.588ZM165.266 208.27C165.266 209.348 166.033 210.086 167.152 210.086C168.271 210.086 169.039 209.348 169.039 208.27H168.289C168.289 208.949 167.85 209.482 167.152 209.482C166.455 209.482 166.016 208.949 166.016 208.27H165.266ZM177.582 217H178.602V210.906H177.582V213.42H174.6V210.906H173.58V217H174.6V214.258H177.582V217ZM182.568 217.105C184.25 217.105 185.387 215.893 185.387 213.953C185.387 212.008 184.25 210.801 182.568 210.801C180.881 210.801 179.744 212.008 179.744 213.953C179.744 215.893 180.881 217.105 182.568 217.105ZM182.568 216.209C181.49 216.209 180.781 215.389 180.781 213.953C180.781 212.518 181.49 211.697 182.568 211.697C183.646 211.697 184.35 212.518 184.35 213.953C184.35 215.389 183.646 216.209 182.568 216.209ZM189.154 217C190.449 217 191.246 216.326 191.246 215.248C191.246 214.504 190.742 213.959 189.975 213.854V213.807C190.537 213.689 190.977 213.109 190.977 212.482C190.977 211.504 190.279 210.906 189.137 210.906H186.529V217H189.154ZM187.549 211.732H188.984C189.623 211.732 189.969 212.037 189.969 212.588C189.969 213.18 189.6 213.467 188.832 213.467H187.549V211.732ZM187.549 214.287H188.914C189.805 214.287 190.232 214.592 190.232 215.225C190.232 215.84 189.834 216.174 189.096 216.174H187.549V214.287ZM194.943 217.105C196.625 217.105 197.762 215.893 197.762 213.953C197.762 212.008 196.625 210.801 194.943 210.801C193.256 210.801 192.119 212.008 192.119 213.953C192.119 215.893 193.256 217.105 194.943 217.105ZM194.943 216.209C193.865 216.209 193.156 215.389 193.156 213.953C193.156 212.518 193.865 211.697 194.943 211.697C196.021 211.697 196.725 212.518 196.725 213.953C196.725 215.389 196.021 216.209 194.943 216.209ZM201.354 211.686C202.314 211.686 202.953 212.412 202.977 213.432H199.666C199.73 212.418 200.398 211.686 201.354 211.686ZM202.953 215.254C202.783 215.828 202.215 216.221 201.441 216.221C200.346 216.221 199.66 215.453 199.66 214.287V214.229H204.031V213.842C204.031 211.996 203.018 210.801 201.371 210.801C199.689 210.801 198.611 212.084 198.611 213.977C198.611 215.893 199.672 217.105 201.418 217.105C202.748 217.105 203.779 216.32 203.955 215.254H202.953ZM209.668 217.105C211.098 217.105 212.047 216.344 212.047 215.219C212.047 214.533 211.631 214.029 210.828 213.854V213.807C211.461 213.66 211.877 213.098 211.877 212.465C211.877 211.475 211.121 210.801 209.732 210.801C208.443 210.801 207.564 211.439 207.436 212.447H208.426C208.508 211.961 209.012 211.65 209.732 211.65C210.518 211.65 210.881 212.025 210.881 212.547C210.881 213.162 210.471 213.467 209.668 213.467H208.754V214.299H209.668C210.588 214.299 211.045 214.598 211.045 215.266C211.045 215.846 210.553 216.262 209.668 216.262C208.912 216.262 208.408 215.951 208.291 215.418H207.26C207.365 216.449 208.332 217.105 209.668 217.105ZM217.215 217H218.234V210.906H217.215V213.42H214.232V210.906H213.213V217H214.232V214.258H217.215V217ZM221.686 216.238C220.953 216.238 220.467 215.857 220.467 215.277C220.467 214.703 220.936 214.34 221.756 214.287L223.385 214.188V214.686C223.385 215.564 222.646 216.238 221.686 216.238ZM221.457 217.105C222.277 217.105 223.051 216.648 223.414 215.951H223.438V217H224.404V212.787C224.404 211.574 223.502 210.801 222.072 210.801C220.631 210.801 219.729 211.609 219.658 212.664H220.643C220.771 212.066 221.264 211.697 222.049 211.697C222.893 211.697 223.385 212.143 223.385 212.887V213.396L221.639 213.496C220.232 213.578 219.43 214.234 219.43 215.277C219.43 216.373 220.244 217.105 221.457 217.105ZM230.457 217V210.906H229.438V213.473C229.15 213.76 228.617 213.953 227.938 213.953C227.094 213.953 226.678 213.443 226.678 212.646V210.906H225.658V212.658C225.658 213.959 226.426 214.844 227.902 214.844C228.547 214.844 229.004 214.703 229.35 214.475H229.438V217H230.457ZM234.342 211.686C235.303 211.686 235.941 212.412 235.965 213.432H232.654C232.719 212.418 233.387 211.686 234.342 211.686ZM235.941 215.254C235.771 215.828 235.203 216.221 234.43 216.221C233.334 216.221 232.648 215.453 232.648 214.287V214.229H237.02V213.842C237.02 211.996 236.006 210.801 234.359 210.801C232.678 210.801 231.6 212.084 231.6 213.977C231.6 215.893 232.66 217.105 234.406 217.105C235.736 217.105 236.768 216.32 236.943 215.254H235.941ZM242.164 217H243.184V210.906H242.164V213.42H239.182V210.906H238.162V217H239.182V214.258H242.164V217ZM245.627 217L248.662 212.471H248.709V217H249.729V210.906H248.721L245.686 215.436H245.639V210.906H244.619V217H245.627ZM253.607 211.686C254.568 211.686 255.207 212.412 255.23 213.432H251.92C251.984 212.418 252.652 211.686 253.607 211.686ZM255.207 215.254C255.037 215.828 254.469 216.221 253.695 216.221C252.6 216.221 251.914 215.453 251.914 214.287V214.229H256.285V213.842C256.285 211.996 255.271 210.801 253.625 210.801C251.943 210.801 250.865 212.084 250.865 213.977C250.865 215.893 251.926 217.105 253.672 217.105C255.002 217.105 256.033 216.32 256.209 215.254H255.207Z" fill="white"/>
    <rect x="61" width="177" height="40" rx="20" fill="#0015FF"/>
    <path d="M247.5 72.5V62.5C247.5 56.9772 243.023 52.5 237.5 52.5H153.5C147.977 52.5 143.5 48.0228 143.5 42.5V28.5" stroke="#0015FF" stroke-width="2"/>
    <path d="M80.1992 17C81.998 17 83.0645 16.1152 83.0645 14.627C83.0645 13.502 82.3262 12.6934 81.1777 12.5469V12.5C81.9922 12.3535 82.6367 11.5332 82.6367 10.6543C82.6367 9.38867 81.6582 8.54492 80.2109 8.54492H77.0059V17H80.1992ZM78.0605 9.47656H79.9707C80.9961 9.47656 81.5703 9.93945 81.5703 10.7773C81.5703 11.6914 80.8906 12.1895 79.6426 12.1895H78.0605V9.47656ZM78.0605 16.0684V13.0977H79.9414C81.2891 13.0977 81.9805 13.5957 81.9805 14.5742C81.9805 15.5527 81.3125 16.0684 80.041 16.0684H78.0605ZM87.3066 15.1426H86.2988C86.5039 16.2969 87.4766 17.1055 88.8477 17.1055C90.541 17.1055 91.6484 15.8926 91.6484 13.9531C91.6484 12.0547 90.541 10.8008 88.8594 10.8008C87.3887 10.8008 86.4805 11.7383 86.3105 12.7812H87.3184C87.4766 12.1836 87.9922 11.6973 88.8535 11.6973C89.7559 11.6973 90.4414 12.3301 90.5703 13.4199H87.8398V14.252H90.5996C90.5352 15.5059 89.8145 16.209 88.8418 16.209C88.0391 16.209 87.5 15.8164 87.3066 15.1426ZM97.0156 10.9062H92.0703V11.7441H94.0332V17H95.0527V11.7441H97.0156V10.9062ZM100.373 17.1055C102.055 17.1055 103.191 15.8926 103.191 13.9531C103.191 12.0078 102.055 10.8008 100.373 10.8008C98.6855 10.8008 97.5488 12.0078 97.5488 13.9531C97.5488 15.8926 98.6855 17.1055 100.373 17.1055ZM100.373 16.209C99.2949 16.209 98.5859 15.3887 98.5859 13.9531C98.5859 12.5176 99.2949 11.6973 100.373 11.6973C101.451 11.6973 102.154 12.5176 102.154 13.9531C102.154 15.3887 101.451 16.209 100.373 16.209ZM105.342 17L108.377 12.4707H108.424V17H109.443V10.9062H108.436L105.4 15.4355H105.354V10.9062H104.334V17H105.342ZM105.02 8.26953C105.02 9.34766 105.787 10.0859 106.906 10.0859C108.025 10.0859 108.793 9.34766 108.793 8.26953H108.043C108.043 8.94922 107.604 9.48242 106.906 9.48242C106.209 9.48242 105.77 8.94922 105.77 8.26953H105.02ZM116.193 16.209C114.893 16.1738 114.066 15.3242 114.066 13.9531C114.066 12.5762 114.893 11.7266 116.193 11.6973V16.209ZM119.299 13.9531C119.299 15.3301 118.473 16.1797 117.178 16.209V11.6973C118.473 11.7324 119.299 12.582 119.299 13.9531ZM116.193 17.0762V19.0332H117.178V17.0762C119.064 17.0469 120.324 15.834 120.324 13.9531C120.324 12.0723 119.064 10.8652 117.178 10.8301V8.90234H116.193V10.8301C114.295 10.8594 113.041 12.0723 113.041 13.9531C113.041 15.834 114.295 17.041 116.193 17.0762ZM121.807 19.2793C122.908 19.2793 123.412 18.8516 123.934 17.4277L126.33 10.9062H125.258L123.57 15.9805H123.553L121.865 10.9062H120.775L123.025 17.0059L122.885 17.4336C122.65 18.1426 122.334 18.418 121.766 18.418C121.637 18.418 121.479 18.4121 121.367 18.3887V19.2441C121.479 19.2676 121.684 19.2793 121.807 19.2793ZM131.246 17H132.266V10.9062H131.246V13.4199H128.264V10.9062H127.244V17H128.264V14.2578H131.246V17ZM135.781 13.7891L138.617 10.9062H137.357L134.768 13.6016H134.721V10.9062H133.701V17H134.721V14.0703H134.768L137.387 17H138.699L135.781 13.7891ZM145.432 18.6113V16.1621H144.459V10.9062H143.439V16.1621H140.568V10.9062H139.549V17H144.482V18.6113H145.432ZM147.354 17L150.389 12.4707H150.436V17H151.455V10.9062H150.447L147.412 15.4355H147.365V10.9062H146.346V17H147.354ZM153.893 17L156.928 12.4707H156.975V17H157.994V10.9062H156.986L153.951 15.4355H153.904V10.9062H152.885V17H153.893ZM161.832 17H162.852V13.4141C162.852 12.3828 163.479 11.7031 164.439 11.7031C165.377 11.7031 165.84 12.2422 165.84 13.2266V17H166.859V13.0449C166.859 11.6621 166.086 10.8008 164.75 10.8008C163.807 10.8008 163.156 11.2227 162.816 11.8789H162.793V10.9062H161.832V17ZM170.604 11.6855C171.564 11.6855 172.203 12.4121 172.227 13.4316H168.916C168.98 12.418 169.648 11.6855 170.604 11.6855ZM172.203 15.2539C172.033 15.8281 171.465 16.2207 170.691 16.2207C169.596 16.2207 168.91 15.4531 168.91 14.2871V14.2285H173.281V13.8418C173.281 11.9961 172.268 10.8008 170.621 10.8008C168.939 10.8008 167.861 12.084 167.861 13.9766C167.861 15.8926 168.922 17.1055 170.668 17.1055C171.998 17.1055 173.029 16.3203 173.205 15.2539H172.203ZM182.064 10.9062H181.057L179.838 15.8633H179.814L178.432 10.9062H177.447L176.07 15.8633H176.047L174.828 10.9062H173.814L175.52 17H176.557L177.928 12.2832H177.951L179.328 17H180.365L182.064 10.9062ZM186.541 17.1406C188.41 17.1406 189.664 16.209 190.051 14.5391H188.984C188.68 15.5703 187.789 16.168 186.547 16.168C184.877 16.168 183.816 14.8438 183.816 12.7695C183.816 10.7129 184.889 9.37695 186.541 9.37695C187.748 9.37695 188.715 10.1035 188.984 11.2109H190.051C189.781 9.52344 188.381 8.4043 186.541 8.4043C184.227 8.4043 182.732 10.1152 182.732 12.7695C182.732 15.4473 184.209 17.1406 186.541 17.1406ZM193.15 16.2383C192.418 16.2383 191.932 15.8574 191.932 15.2773C191.932 14.7031 192.4 14.3398 193.221 14.2871L194.85 14.1875V14.6855C194.85 15.5645 194.111 16.2383 193.15 16.2383ZM192.922 17.1055C193.742 17.1055 194.516 16.6484 194.879 15.9512H194.902V17H195.869V12.7871C195.869 11.5742 194.967 10.8008 193.537 10.8008C192.096 10.8008 191.193 11.6094 191.123 12.6641H192.107C192.236 12.0664 192.729 11.6973 193.514 11.6973C194.357 11.6973 194.85 12.1426 194.85 12.8867V13.3965L193.104 13.4961C191.697 13.5781 190.895 14.2344 190.895 15.2773C190.895 16.373 191.709 17.1055 192.922 17.1055ZM200.123 10.8008C199.238 10.8008 198.529 11.252 198.154 11.9375H198.131V10.9062H197.164V19.0332H198.184V16.0098H198.207C198.57 16.6777 199.273 17.1055 200.146 17.1055C201.682 17.1055 202.73 15.8633 202.73 13.9531C202.73 12.043 201.676 10.8008 200.123 10.8008ZM199.924 16.209C198.881 16.209 198.178 15.3125 198.178 13.9531C198.178 12.5996 198.881 11.6973 199.924 11.6973C201.008 11.6973 201.688 12.5762 201.688 13.9531C201.688 15.3359 201.008 16.209 199.924 16.209ZM204.09 9.43555V10.9062H203.182V11.7441H204.09V15.418C204.09 16.5898 204.523 17.0469 205.643 17.0469C205.883 17.0469 206.164 17.0293 206.287 17V16.1445C206.217 16.1562 205.982 16.1738 205.865 16.1738C205.344 16.1738 205.109 15.9219 205.109 15.3652V11.7441H206.293V10.9062H205.109V9.43555H204.09ZM207.436 17H208.455V10.9062H207.436V17ZM207.945 9.82227C208.303 9.82227 208.584 9.53516 208.584 9.18359C208.584 8.82617 208.303 8.54492 207.945 8.54492C207.594 8.54492 207.307 8.82617 207.307 9.18359C207.307 9.53516 207.594 9.82227 207.945 9.82227ZM212.357 17.1055C214.039 17.1055 215.176 15.8926 215.176 13.9531C215.176 12.0078 214.039 10.8008 212.357 10.8008C210.67 10.8008 209.533 12.0078 209.533 13.9531C209.533 15.8926 210.67 17.1055 212.357 17.1055ZM212.357 16.209C211.279 16.209 210.57 15.3887 210.57 13.9531C210.57 12.5176 211.279 11.6973 212.357 11.6973C213.436 11.6973 214.139 12.5176 214.139 13.9531C214.139 15.3887 213.436 16.209 212.357 16.209ZM216.207 17H217.227V13.4141C217.227 12.3828 217.854 11.7031 218.814 11.7031C219.752 11.7031 220.215 12.2422 220.215 13.2266V17H221.234V13.0449C221.234 11.6621 220.461 10.8008 219.125 10.8008C218.182 10.8008 217.531 11.2227 217.191 11.8789H217.168V10.9062H216.207V17ZM110.193 28.0469V27.0977H106.35V28.0469H110.193ZM116.645 31C117.939 31 118.736 30.3262 118.736 29.248C118.736 28.5039 118.232 27.959 117.465 27.8535V27.8066C118.027 27.6895 118.467 27.1094 118.467 26.4824C118.467 25.5039 117.77 24.9062 116.627 24.9062H114.02V31H116.645ZM115.039 25.7324H116.475C117.113 25.7324 117.459 26.0371 117.459 26.5879C117.459 27.1797 117.09 27.4668 116.322 27.4668H115.039V25.7324ZM115.039 28.2871H116.404C117.295 28.2871 117.723 28.5918 117.723 29.2246C117.723 29.8398 117.324 30.1738 116.586 30.1738H115.039V28.2871ZM122.527 31C123.822 31 124.619 30.3262 124.619 29.248C124.619 28.5039 124.115 27.959 123.348 27.8535V27.8066C123.91 27.6895 124.35 27.1094 124.35 26.4824C124.35 25.5039 123.652 24.9062 122.51 24.9062H119.902V31H122.527ZM120.922 25.7324H122.357C122.996 25.7324 123.342 26.0371 123.342 26.5879C123.342 27.1797 122.973 27.4668 122.205 27.4668H120.922V25.7324ZM120.922 28.2871H122.287C123.178 28.2871 123.605 28.5918 123.605 29.2246C123.605 29.8398 123.207 30.1738 122.469 30.1738H120.922V28.2871ZM128.316 31.1055C129.998 31.1055 131.135 29.8926 131.135 27.9531C131.135 26.0078 129.998 24.8008 128.316 24.8008C126.629 24.8008 125.492 26.0078 125.492 27.9531C125.492 29.8926 126.629 31.1055 128.316 31.1055ZM128.316 30.209C127.238 30.209 126.529 29.3887 126.529 27.9531C126.529 26.5176 127.238 25.6973 128.316 25.6973C129.395 25.6973 130.098 26.5176 130.098 27.9531C130.098 29.3887 129.395 30.209 128.316 30.209ZM136.203 30.1621H133.232V30.1152C133.52 29.7285 133.678 29.0664 133.73 28.3105L133.918 25.7441H136.203V30.1621ZM132.506 32.6113V31H137.234V32.6113H138.184V30.1621H137.217V24.9062H133.021L132.787 28.2871C132.729 29.1074 132.512 29.8691 132.066 30.1621H131.557V32.6113H132.506ZM143.1 31H144.119V24.9062H143.1V27.4199H140.117V24.9062H139.098V31H140.117V28.2578H143.1V31ZM147.57 30.2383C146.838 30.2383 146.352 29.8574 146.352 29.2773C146.352 28.7031 146.82 28.3398 147.641 28.2871L149.27 28.1875V28.6855C149.27 29.5645 148.531 30.2383 147.57 30.2383ZM147.342 31.1055C148.162 31.1055 148.936 30.6484 149.299 29.9512H149.322V31H150.289V26.7871C150.289 25.5742 149.387 24.8008 147.957 24.8008C146.516 24.8008 145.613 25.6094 145.543 26.6641H146.527C146.656 26.0664 147.148 25.6973 147.934 25.6973C148.777 25.6973 149.27 26.1426 149.27 26.8867V27.3965L147.523 27.4961C146.117 27.5781 145.314 28.2344 145.314 29.2773C145.314 30.373 146.129 31.1055 147.342 31.1055ZM153.887 27.9941C153.102 27.9941 152.592 27.543 152.592 26.9102C152.592 26.1777 153.096 25.7441 153.887 25.7441H155.041V27.9941H153.887ZM155.041 31H156.061V24.9062H153.881C152.48 24.9062 151.578 25.6738 151.578 26.9277C151.578 27.7656 152.1 28.3984 152.961 28.6445L151.262 31H152.439L153.986 28.832H155.041V31ZM160.355 27.6719C160.355 29.7109 160.895 31.3691 162.02 32.7988H162.875C162.043 31.832 161.393 29.5879 161.393 27.6719C161.393 25.7559 162.043 23.5117 162.875 22.5449H162.02C160.895 23.9746 160.355 25.6328 160.355 27.6719ZM163.824 31H164.844V24.9062H163.824V31ZM164.334 23.8223C164.691 23.8223 164.973 23.5352 164.973 23.1836C164.973 22.8262 164.691 22.5449 164.334 22.5449C163.982 22.5449 163.695 22.8262 163.695 23.1836C163.695 23.5352 163.982 23.8223 164.334 23.8223ZM166.221 31H167.24V27.4141C167.24 26.3828 167.867 25.7031 168.828 25.7031C169.766 25.7031 170.229 26.2422 170.229 27.2266V31H171.248V27.0449C171.248 25.6621 170.475 24.8008 169.139 24.8008C168.195 24.8008 167.545 25.2227 167.205 25.8789H167.182V24.9062H166.221V31ZM175.508 24.8008C174.623 24.8008 173.914 25.252 173.539 25.9375H173.516V24.9062H172.549V33.0332H173.568V30.0098H173.592C173.955 30.6777 174.658 31.1055 175.531 31.1055C177.066 31.1055 178.115 29.8633 178.115 27.9531C178.115 26.043 177.061 24.8008 175.508 24.8008ZM175.309 30.209C174.266 30.209 173.562 29.3125 173.562 27.9531C173.562 26.5996 174.266 25.6973 175.309 25.6973C176.393 25.6973 177.072 26.5762 177.072 27.9531C177.072 29.3359 176.393 30.209 175.309 30.209ZM184.15 24.9062H183.131V28.4863C183.131 29.5234 182.533 30.2031 181.543 30.2031C180.6 30.2031 180.137 29.6699 180.137 28.6797V24.9062H179.117V28.8613C179.117 30.2441 179.896 31.1055 181.227 31.1055C182.164 31.1055 182.797 30.7129 183.16 30.0098H183.184V31H184.15V24.9062ZM185.803 23.4355V24.9062H184.895V25.7441H185.803V29.418C185.803 30.5898 186.236 31.0469 187.355 31.0469C187.596 31.0469 187.877 31.0293 188 31V30.1445C187.93 30.1562 187.695 30.1738 187.578 30.1738C187.057 30.1738 186.822 29.9219 186.822 29.3652V25.7441H188.006V24.9062H186.822V23.4355H185.803ZM191.188 27.6719C191.188 25.6328 190.648 23.9746 189.523 22.5449H188.668C189.5 23.5117 190.15 25.7559 190.15 27.6719C190.15 29.5879 189.5 31.832 188.668 32.7988H189.523C190.648 31.3691 191.188 29.7109 191.188 27.6719Z" fill="white"/>
</svg>
