<svg width="24" height="24" viewBox="0 0 24 24" fill="none" xmlns="http://www.w3.org/2000/svg">
    <mask id="path-1-inside-1" fill="white">
        <path fill-rule="evenodd" clip-rule="evenodd" d="M20.2449 16.6571C21.0751 15.2202 21.5502 13.5525 21.5502 11.7737C21.5502 6.37505 17.1738 1.99859 11.7751 1.99859C6.3765 1.99859 2.00004 6.37505 2.00004 11.7737C2.00004 17.1723 6.3765 21.5488 11.7751 21.5488C13.5655 21.5488 15.2435 21.0675 16.6867 20.2271L22 22.0275L20.2449 16.6571Z"/>
    </mask>
    <path d="M20.2449 16.6571L19.3791 16.1568L19.1557 16.5434L19.2944 16.9677L20.2449 16.6571ZM16.6867 20.2271L17.0076 19.28L16.5767 19.134L16.1835 19.363L16.6867 20.2271ZM22 22.0275L21.6791 22.9746L23.5711 23.6157L22.9505 21.7169L22 22.0275ZM20.5502 11.7737C20.5502 13.3721 20.1238 14.868 19.3791 16.1568L21.1108 17.1574C22.0265 15.5725 22.5502 13.7328 22.5502 11.7737H20.5502ZM11.7751 2.99859C16.6215 2.99859 20.5502 6.92734 20.5502 11.7737H22.5502C22.5502 5.82277 17.7261 0.998592 11.7751 0.998592V2.99859ZM3.00004 11.7737C3.00004 6.92734 6.92879 2.99859 11.7751 2.99859V0.998592C5.82422 0.998592 1.00004 5.82277 1.00004 11.7737H3.00004ZM11.7751 20.5488C6.92879 20.5488 3.00004 16.62 3.00004 11.7737H1.00004C1.00004 17.7246 5.82422 22.5488 11.7751 22.5488V20.5488ZM16.1835 19.363C14.8889 20.1167 13.384 20.5488 11.7751 20.5488V22.5488C13.747 22.5488 15.598 22.0182 17.1899 21.0913L16.1835 19.363ZM22.3209 21.0804L17.0076 19.28L16.3658 21.1742L21.6791 22.9746L22.3209 21.0804ZM19.2944 16.9677L21.0495 22.3382L22.9505 21.7169L21.1954 16.3465L19.2944 16.9677Z" fill="currentColor" mask="url(#path-1-inside-1)"/>
</svg>
