<svg width="24" height="24" viewBox="0 0 24 24" fill="none" xmlns="http://www.w3.org/2000/svg">
    <mask id="path-1-inside-1" fill="white">
        <path fill-rule="evenodd" clip-rule="evenodd" d="M10 3C9.04348 3 8.19151 3.44766 7.64218 4.14489C6.95859 5.01253 6.10457 6 5 6C3.34315 6 2 7.34315 2 9V17C2 18.6569 3.34315 20 5 20H19C20.6569 20 22 18.6569 22 17V9C22 7.34315 20.6569 6 19 6C17.8954 6 17.0414 5.01253 16.3578 4.14489C15.8085 3.44766 14.9565 3 14 3H10Z"/>
    </mask>
    <path d="M16.3578 4.14489L15.5723 4.76376L16.3578 4.14489ZM7.64218 4.14489L6.85668 3.52602L7.64218 4.14489ZM8.42767 4.76376C8.79555 4.29684 9.36282 4 10 4V2C8.72413 2 7.58747 2.59848 6.85668 3.52602L8.42767 4.76376ZM3 9C3 7.89543 3.89543 7 5 7V5C2.79086 5 1 6.79086 1 9H3ZM3 17V9H1V17H3ZM5 19C3.89543 19 3 18.1046 3 17H1C1 19.2091 2.79086 21 5 21V19ZM19 19H5V21H19V19ZM21 17C21 18.1046 20.1046 19 19 19V21C21.2091 21 23 19.2091 23 17H21ZM21 9V17H23V9H21ZM19 7C20.1046 7 21 7.89543 21 9H23C23 6.79086 21.2091 5 19 5V7ZM14 4C14.6372 4 15.2045 4.29684 15.5723 4.76376L17.1433 3.52602C16.4125 2.59848 15.2759 2 14 2V4ZM10 4H14V2H10V4ZM19 5C18.762 5 18.4896 4.89647 18.1519 4.6219C17.8088 4.34294 17.4834 3.95762 17.1433 3.52602L15.5723 4.76376C15.9159 5.1998 16.3592 5.74203 16.8902 6.17371C17.4265 6.60979 18.1334 7 19 7V5ZM6.85668 3.52602C6.51664 3.95762 6.19121 4.34294 5.84811 4.6219C5.51041 4.89647 5.238 5 5 5L5 7C5.86657 7 6.57346 6.60979 7.10981 6.17371C7.64075 5.74203 8.08413 5.1998 8.42767 4.76376L6.85668 3.52602Z" fill="currentColor" mask="url(#path-1-inside-1)"/>
    <circle cx="12" cy="12.5" r="4" stroke="currentColor"/>
</svg>
