<svg width="24" height="24" viewBox="0 0 24 24" fill="none" xmlns="http://www.w3.org/2000/svg">
    <path d="M20.6125 5.69858L21.0455 5.94858C21.1348 5.79388 21.1348 5.60329 21.0455 5.44858C20.9562 5.29388 20.7911 5.19858 20.6125 5.19858L20.6125 5.69858ZM2.61249 5.69859L2.61249 5.19859C2.40422 5.19859 2.21777 5.32768 2.14447 5.52263C2.07118 5.71757 2.1264 5.93753 2.28308 6.07474L2.61249 5.69859ZM11.6125 21.287L11.122 21.3842C11.1625 21.5885 11.3254 21.7463 11.5309 21.7803C11.7364 21.8143 11.9414 21.7174 12.0455 21.537L11.6125 21.287ZM20.6125 5.19858L2.61249 5.19859L2.61249 6.19859L20.6125 6.19858L20.6125 5.19858ZM2.28308 6.07474L9.435 12.3379L10.0938 11.5856L2.94189 5.32243L2.28308 6.07474ZM10.0144 12.3947L20.8625 6.1316L20.3625 5.26557L9.51441 11.5287L10.0144 12.3947ZM20.1795 5.44858L11.1795 21.037L12.0455 21.537L21.0455 5.94858L20.1795 5.44858ZM12.103 21.1898L10.2549 11.8645L9.27395 12.0589L11.122 21.3842L12.103 21.1898Z" fill="currentColor"/>
</svg>
