<svg width="24" height="24" viewBox="0 0 24 24" fill="none" xmlns="http://www.w3.org/2000/svg">
    <path fill-rule="evenodd" clip-rule="evenodd" d="M8.5 11.5C8.5 12.3284 7.82843 13 7 13C6.17157 13 5.5 12.3284 5.5 11.5C5.5 10.6716 6.17157 10 7 10C7.82843 10 8.5 10.6716 8.5 11.5ZM13.5 11.5C13.5 12.3284 12.8284 13 12 13C11.1716 13 10.5 12.3284 10.5 11.5C10.5 10.6716 11.1716 10 12 10C12.8284 10 13.5 10.6716 13.5 11.5ZM17 13C17.8284 13 18.5 12.3284 18.5 11.5C18.5 10.6716 17.8284 10 17 10C16.1716 10 15.5 10.6716 15.5 11.5C15.5 12.3284 16.1716 13 17 13Z" fill="currentColor"/>
</svg>
