<svg width="24" height="24" viewBox="0 0 24 24" fill="none" xmlns="http://www.w3.org/2000/svg">
    <path d="M11.5728 6.14739C11.6635 6.29652 11.8254 6.38755 12 6.38755C12.1746 6.38755 12.3365 6.29652 12.4272 6.14739C13.3988 4.55001 15.1064 3.5 17.0417 3.5C20.0387 3.5 22.5 6.02773 22.5 9.18561C22.5 11.8886 20.6842 14.4992 18.358 16.7178C16.1679 18.8066 13.6142 20.4638 12 21.42C10.3858 20.4638 7.83206 18.8066 5.64196 16.7178C3.31585 14.4992 1.5 11.8886 1.5 9.18561C1.5 6.02773 3.96126 3.5 6.95833 3.5C8.89361 3.5 10.6012 4.55001 11.5728 6.14739Z" stroke="currentColor" stroke-linejoin="round"/>
</svg>
