<svg width="25" height="24" viewBox="0 0 25 24" fill="none" xmlns="http://www.w3.org/2000/svg">
    <path d="M2 6C2 4.89543 2.89543 4 4 4H8.2237C8.81648 4 9.37872 3.73704 9.75871 3.28208L11.7325 0.918919C12.1322 0.440308 12.8678 0.440308 13.2675 0.918919L15.2413 3.28208C15.6213 3.73704 16.1835 4 16.7763 4H21C22.1046 4 23 4.89543 23 6V21C23 22.1046 22.1046 23 21 23H4C2.89543 23 2 22.1046 2 21V6Z" stroke="currentColor"/>
    <circle cx="12.5" cy="11.5" r="3.5" stroke="currentColor"/>
    <path d="M6 22C6 19.7909 7.79086 18 10 18H15C17.2091 18 19 19.7909 19 22V23H6V22Z" stroke="currentColor"/>
</svg>
