<svg width="600" height="600" viewBox="0 0 600 600" fill="none" xmlns="http://www.w3.org/2000/svg">
    <path d="M60.0049 360.203L64.1885 370.645L68.3721 360.203H70.5605V373H68.873V368.017L69.0312 362.638L64.8301 373H63.5381L59.3457 362.664L59.5127 368.017V373H57.8252V360.203H60.0049ZM79.1562 373C79.0625 372.812 78.9863 372.479 78.9277 371.998C78.1719 372.783 77.2695 373.176 76.2207 373.176C75.2832 373.176 74.5127 372.912 73.9092 372.385C73.3115 371.852 73.0127 371.178 73.0127 370.363C73.0127 369.373 73.3877 368.605 74.1377 368.061C74.8936 367.51 75.9541 367.234 77.3193 367.234H78.9014V366.487C78.9014 365.919 78.7314 365.468 78.3916 365.134C78.0518 364.794 77.5508 364.624 76.8887 364.624C76.3086 364.624 75.8223 364.771 75.4297 365.063C75.0371 365.356 74.8408 365.711 74.8408 366.127H73.2061C73.2061 365.652 73.373 365.195 73.707 364.756C74.0469 364.311 74.5039 363.959 75.0781 363.701C75.6582 363.443 76.2939 363.314 76.9854 363.314C78.0811 363.314 78.9395 363.59 79.5605 364.141C80.1816 364.686 80.5039 365.438 80.5273 366.399V370.776C80.5273 371.649 80.6387 372.344 80.8613 372.859V373H79.1562ZM76.458 371.761C76.9678 371.761 77.4512 371.629 77.9082 371.365C78.3652 371.102 78.6963 370.759 78.9014 370.337V368.386H77.627C75.6348 368.386 74.6387 368.969 74.6387 370.135C74.6387 370.645 74.8086 371.043 75.1484 371.33C75.4883 371.617 75.9248 371.761 76.458 371.761ZM88.6133 370.478C88.6133 370.038 88.4463 369.698 88.1123 369.458C87.7842 369.212 87.207 369.001 86.3809 368.825C85.5605 368.649 84.9072 368.438 84.4209 368.192C83.9404 367.946 83.583 367.653 83.3486 367.313C83.1201 366.974 83.0059 366.569 83.0059 366.101C83.0059 365.321 83.334 364.662 83.9902 364.123C84.6523 363.584 85.4961 363.314 86.5215 363.314C87.5996 363.314 88.4727 363.593 89.1406 364.149C89.8145 364.706 90.1514 365.418 90.1514 366.285H88.5166C88.5166 365.84 88.3262 365.456 87.9453 365.134C87.5703 364.812 87.0957 364.65 86.5215 364.65C85.9297 364.65 85.4668 364.779 85.1328 365.037C84.7988 365.295 84.6318 365.632 84.6318 366.048C84.6318 366.44 84.7871 366.736 85.0977 366.936C85.4082 367.135 85.9678 367.325 86.7764 367.507C87.5908 367.688 88.25 367.905 88.7539 368.157C89.2578 368.409 89.6299 368.714 89.8701 369.071C90.1162 369.423 90.2393 369.854 90.2393 370.363C90.2393 371.213 89.8994 371.896 89.2197 372.411C88.54 372.921 87.6582 373.176 86.5742 373.176C85.8125 373.176 85.1387 373.041 84.5527 372.771C83.9668 372.502 83.5068 372.127 83.1729 371.646C82.8447 371.16 82.6807 370.636 82.6807 370.073H84.3066C84.3359 370.618 84.5527 371.052 84.957 371.374C85.3672 371.69 85.9062 371.849 86.5742 371.849C87.1895 371.849 87.6816 371.726 88.0508 371.479C88.4258 371.228 88.6133 370.894 88.6133 370.478ZM94.5635 361.188V363.49H96.3389V364.747H94.5635V370.645C94.5635 371.025 94.6426 371.312 94.8008 371.506C94.959 371.693 95.2285 371.787 95.6094 371.787C95.7969 371.787 96.0547 371.752 96.3828 371.682V373C95.9551 373.117 95.5391 373.176 95.1348 373.176C94.4082 373.176 93.8604 372.956 93.4912 372.517C93.1221 372.077 92.9375 371.453 92.9375 370.645V364.747H91.2061V363.49H92.9375V361.188H94.5635ZM102.192 373.176C100.903 373.176 99.8545 372.754 99.0459 371.91C98.2373 371.061 97.833 369.927 97.833 368.509V368.21C97.833 367.267 98.0117 366.426 98.3691 365.688C98.7324 364.943 99.2363 364.363 99.8809 363.947C100.531 363.525 101.234 363.314 101.99 363.314C103.227 363.314 104.188 363.722 104.873 364.536C105.559 365.351 105.901 366.517 105.901 368.034V368.711H99.459C99.4824 369.648 99.7549 370.407 100.276 370.987C100.804 371.562 101.472 371.849 102.28 371.849C102.854 371.849 103.341 371.731 103.739 371.497C104.138 371.263 104.486 370.952 104.785 370.565L105.778 371.339C104.981 372.563 103.786 373.176 102.192 373.176ZM101.99 364.65C101.334 364.65 100.783 364.891 100.338 365.371C99.8926 365.846 99.6172 366.514 99.5117 367.375H104.275V367.252C104.229 366.426 104.006 365.787 103.607 365.336C103.209 364.879 102.67 364.65 101.99 364.65ZM112.388 364.949C112.142 364.908 111.875 364.888 111.588 364.888C110.521 364.888 109.798 365.342 109.417 366.25V373H107.791V363.49H109.373L109.399 364.589C109.933 363.739 110.688 363.314 111.667 363.314C111.983 363.314 112.224 363.355 112.388 363.438V364.949Z" fill="black"/>
    <path d="M316.796 519H315.1L308.657 509.139V519H306.961V506.203H308.657L315.117 516.108V506.203H316.796V519ZM323.484 519.176C322.195 519.176 321.146 518.754 320.338 517.91C319.529 517.061 319.125 515.927 319.125 514.509V514.21C319.125 513.267 319.304 512.426 319.661 511.688C320.024 510.943 320.528 510.363 321.173 509.947C321.823 509.525 322.526 509.314 323.282 509.314C324.519 509.314 325.479 509.722 326.165 510.536C326.851 511.351 327.193 512.517 327.193 514.034V514.711H320.751C320.774 515.648 321.047 516.407 321.568 516.987C322.096 517.562 322.764 517.849 323.572 517.849C324.146 517.849 324.633 517.731 325.031 517.497C325.43 517.263 325.778 516.952 326.077 516.565L327.07 517.339C326.273 518.563 325.078 519.176 323.484 519.176ZM323.282 510.65C322.626 510.65 322.075 510.891 321.63 511.371C321.185 511.846 320.909 512.514 320.804 513.375H325.567V513.252C325.521 512.426 325.298 511.787 324.899 511.336C324.501 510.879 323.962 510.65 323.282 510.65ZM337.503 516.759L339.331 509.49H340.957L338.188 519H336.87L334.559 511.793L332.309 519H330.99L328.23 509.49H329.848L331.72 516.609L333.935 509.49H335.244L337.503 516.759ZM347.883 519V510.747H346.38V509.49H347.883V508.515C347.883 507.495 348.155 506.707 348.7 506.15C349.245 505.594 350.016 505.315 351.012 505.315C351.387 505.315 351.759 505.365 352.128 505.465L352.04 506.783C351.765 506.73 351.472 506.704 351.161 506.704C350.634 506.704 350.227 506.859 349.939 507.17C349.652 507.475 349.509 507.914 349.509 508.488V509.49H351.539V510.747H349.509V519H347.883ZM357.076 519.176C355.787 519.176 354.738 518.754 353.93 517.91C353.121 517.061 352.717 515.927 352.717 514.509V514.21C352.717 513.267 352.896 512.426 353.253 511.688C353.616 510.943 354.12 510.363 354.765 509.947C355.415 509.525 356.118 509.314 356.874 509.314C358.11 509.314 359.071 509.722 359.757 510.536C360.442 511.351 360.785 512.517 360.785 514.034V514.711H354.343C354.366 515.648 354.639 516.407 355.16 516.987C355.688 517.562 356.355 517.849 357.164 517.849C357.738 517.849 358.225 517.731 358.623 517.497C359.021 517.263 359.37 516.952 359.669 516.565L360.662 517.339C359.865 518.563 358.67 519.176 357.076 519.176ZM356.874 510.65C356.218 510.65 355.667 510.891 355.222 511.371C354.776 511.846 354.501 512.514 354.396 513.375H359.159V513.252C359.112 512.426 358.89 511.787 358.491 511.336C358.093 510.879 357.554 510.65 356.874 510.65ZM368.546 519C368.452 518.812 368.376 518.479 368.317 517.998C367.562 518.783 366.659 519.176 365.61 519.176C364.673 519.176 363.902 518.912 363.299 518.385C362.701 517.852 362.402 517.178 362.402 516.363C362.402 515.373 362.777 514.605 363.527 514.061C364.283 513.51 365.344 513.234 366.709 513.234H368.291V512.487C368.291 511.919 368.121 511.468 367.781 511.134C367.441 510.794 366.94 510.624 366.278 510.624C365.698 510.624 365.212 510.771 364.819 511.063C364.427 511.356 364.23 511.711 364.23 512.127H362.596C362.596 511.652 362.763 511.195 363.097 510.756C363.437 510.311 363.894 509.959 364.468 509.701C365.048 509.443 365.684 509.314 366.375 509.314C367.471 509.314 368.329 509.59 368.95 510.141C369.571 510.686 369.894 511.438 369.917 512.399V516.776C369.917 517.649 370.028 518.344 370.251 518.859V519H368.546ZM365.848 517.761C366.357 517.761 366.841 517.629 367.298 517.365C367.755 517.102 368.086 516.759 368.291 516.337V514.386H367.017C365.024 514.386 364.028 514.969 364.028 516.135C364.028 516.645 364.198 517.043 364.538 517.33C364.878 517.617 365.314 517.761 365.848 517.761ZM374.672 507.188V509.49H376.447V510.747H374.672V516.645C374.672 517.025 374.751 517.312 374.909 517.506C375.067 517.693 375.337 517.787 375.718 517.787C375.905 517.787 376.163 517.752 376.491 517.682V519C376.063 519.117 375.647 519.176 375.243 519.176C374.517 519.176 373.969 518.956 373.6 518.517C373.23 518.077 373.046 517.453 373.046 516.645V510.747H371.314V509.49H373.046V507.188H374.672ZM384.226 518.06C383.593 518.804 382.664 519.176 381.439 519.176C380.426 519.176 379.652 518.883 379.119 518.297C378.592 517.705 378.325 516.832 378.319 515.678V509.49H379.945V515.634C379.945 517.075 380.531 517.796 381.703 517.796C382.945 517.796 383.771 517.333 384.182 516.407V509.49H385.808V519H384.261L384.226 518.06ZM392.883 510.949C392.637 510.908 392.37 510.888 392.083 510.888C391.017 510.888 390.293 511.342 389.912 512.25V519H388.286V509.49H389.868L389.895 510.589C390.428 509.739 391.184 509.314 392.162 509.314C392.479 509.314 392.719 509.355 392.883 509.438V510.949ZM398.156 519.176C396.867 519.176 395.818 518.754 395.01 517.91C394.201 517.061 393.797 515.927 393.797 514.509V514.21C393.797 513.267 393.976 512.426 394.333 511.688C394.696 510.943 395.2 510.363 395.845 509.947C396.495 509.525 397.198 509.314 397.954 509.314C399.19 509.314 400.151 509.722 400.837 510.536C401.522 511.351 401.865 512.517 401.865 514.034V514.711H395.423C395.446 515.648 395.719 516.407 396.24 516.987C396.768 517.562 397.436 517.849 398.244 517.849C398.818 517.849 399.305 517.731 399.703 517.497C400.102 517.263 400.45 516.952 400.749 516.565L401.742 517.339C400.945 518.563 399.75 519.176 398.156 519.176ZM397.954 510.65C397.298 510.65 396.747 510.891 396.302 511.371C395.856 511.846 395.581 512.514 395.476 513.375H400.239V513.252C400.192 512.426 399.97 511.787 399.571 511.336C399.173 510.879 398.634 510.65 397.954 510.65Z" fill="black"/>
    <path d="M425.796 100H424.1L417.657 90.1387V100H415.961V87.2031H417.657L424.117 97.1084V87.2031H425.796V100ZM432.484 100.176C431.195 100.176 430.146 99.7539 429.338 98.9102C428.529 98.0605 428.125 96.9268 428.125 95.5088V95.21C428.125 94.2666 428.304 93.4258 428.661 92.6875C429.024 91.9434 429.528 91.3633 430.173 90.9473C430.823 90.5254 431.526 90.3145 432.282 90.3145C433.519 90.3145 434.479 90.7217 435.165 91.5361C435.851 92.3506 436.193 93.5166 436.193 95.0342V95.7109H429.751C429.774 96.6484 430.047 97.4072 430.568 97.9873C431.096 98.5615 431.764 98.8486 432.572 98.8486C433.146 98.8486 433.633 98.7314 434.031 98.4971C434.43 98.2627 434.778 97.9521 435.077 97.5654L436.07 98.3389C435.273 99.5635 434.078 100.176 432.484 100.176ZM432.282 91.6504C431.626 91.6504 431.075 91.8906 430.63 92.3711C430.185 92.8457 429.909 93.5137 429.804 94.375H434.567V94.252C434.521 93.4258 434.298 92.7871 433.899 92.3359C433.501 91.8789 432.962 91.6504 432.282 91.6504ZM446.503 97.7588L448.331 90.4902H449.957L447.188 100H445.87L443.559 92.793L441.309 100H439.99L437.23 90.4902H438.848L440.72 97.6094L442.935 90.4902H444.244L446.503 97.7588ZM456.883 100V91.7471H455.38V90.4902H456.883V89.5146C456.883 88.4951 457.155 87.707 457.7 87.1504C458.245 86.5938 459.016 86.3154 460.012 86.3154C460.387 86.3154 460.759 86.3652 461.128 86.4648L461.04 87.7832C460.765 87.7305 460.472 87.7041 460.161 87.7041C459.634 87.7041 459.227 87.8594 458.939 88.1699C458.652 88.4746 458.509 88.9141 458.509 89.4883V90.4902H460.539V91.7471H458.509V100H456.883ZM466.076 100.176C464.787 100.176 463.738 99.7539 462.93 98.9102C462.121 98.0605 461.717 96.9268 461.717 95.5088V95.21C461.717 94.2666 461.896 93.4258 462.253 92.6875C462.616 91.9434 463.12 91.3633 463.765 90.9473C464.415 90.5254 465.118 90.3145 465.874 90.3145C467.11 90.3145 468.071 90.7217 468.757 91.5361C469.442 92.3506 469.785 93.5166 469.785 95.0342V95.7109H463.343C463.366 96.6484 463.639 97.4072 464.16 97.9873C464.688 98.5615 465.355 98.8486 466.164 98.8486C466.738 98.8486 467.225 98.7314 467.623 98.4971C468.021 98.2627 468.37 97.9521 468.669 97.5654L469.662 98.3389C468.865 99.5635 467.67 100.176 466.076 100.176ZM465.874 91.6504C465.218 91.6504 464.667 91.8906 464.222 92.3711C463.776 92.8457 463.501 93.5137 463.396 94.375H468.159V94.252C468.112 93.4258 467.89 92.7871 467.491 92.3359C467.093 91.8789 466.554 91.6504 465.874 91.6504ZM477.546 100C477.452 99.8125 477.376 99.4785 477.317 98.998C476.562 99.7832 475.659 100.176 474.61 100.176C473.673 100.176 472.902 99.9121 472.299 99.3848C471.701 98.8516 471.402 98.1777 471.402 97.3633C471.402 96.373 471.777 95.6055 472.527 95.0605C473.283 94.5098 474.344 94.2344 475.709 94.2344H477.291V93.4873C477.291 92.9189 477.121 92.4678 476.781 92.1338C476.441 91.7939 475.94 91.624 475.278 91.624C474.698 91.624 474.212 91.7705 473.819 92.0635C473.427 92.3564 473.23 92.7109 473.23 93.127H471.596C471.596 92.6523 471.763 92.1953 472.097 91.7559C472.437 91.3105 472.894 90.959 473.468 90.7012C474.048 90.4434 474.684 90.3145 475.375 90.3145C476.471 90.3145 477.329 90.5898 477.95 91.1406C478.571 91.6855 478.894 92.4385 478.917 93.3994V97.7764C478.917 98.6494 479.028 99.3438 479.251 99.8594V100H477.546ZM474.848 98.7607C475.357 98.7607 475.841 98.6289 476.298 98.3652C476.755 98.1016 477.086 97.7588 477.291 97.3369V95.3857H476.017C474.024 95.3857 473.028 95.9688 473.028 97.1348C473.028 97.6445 473.198 98.043 473.538 98.3301C473.878 98.6172 474.314 98.7607 474.848 98.7607ZM483.672 88.1875V90.4902H485.447V91.7471H483.672V97.6445C483.672 98.0254 483.751 98.3125 483.909 98.5059C484.067 98.6934 484.337 98.7871 484.718 98.7871C484.905 98.7871 485.163 98.752 485.491 98.6816V100C485.063 100.117 484.647 100.176 484.243 100.176C483.517 100.176 482.969 99.9561 482.6 99.5166C482.23 99.0771 482.046 98.4531 482.046 97.6445V91.7471H480.314V90.4902H482.046V88.1875H483.672ZM493.226 99.0596C492.593 99.8037 491.664 100.176 490.439 100.176C489.426 100.176 488.652 99.8828 488.119 99.2969C487.592 98.7051 487.325 97.832 487.319 96.6777V90.4902H488.945V96.6338C488.945 98.0752 489.531 98.7959 490.703 98.7959C491.945 98.7959 492.771 98.333 493.182 97.4072V90.4902H494.808V100H493.261L493.226 99.0596ZM501.883 91.9492C501.637 91.9082 501.37 91.8877 501.083 91.8877C500.017 91.8877 499.293 92.3418 498.912 93.25V100H497.286V90.4902H498.868L498.895 91.5889C499.428 90.7393 500.184 90.3145 501.162 90.3145C501.479 90.3145 501.719 90.3555 501.883 90.4375V91.9492ZM507.156 100.176C505.867 100.176 504.818 99.7539 504.01 98.9102C503.201 98.0605 502.797 96.9268 502.797 95.5088V95.21C502.797 94.2666 502.976 93.4258 503.333 92.6875C503.696 91.9434 504.2 91.3633 504.845 90.9473C505.495 90.5254 506.198 90.3145 506.954 90.3145C508.19 90.3145 509.151 90.7217 509.837 91.5361C510.522 92.3506 510.865 93.5166 510.865 95.0342V95.7109H504.423C504.446 96.6484 504.719 97.4072 505.24 97.9873C505.768 98.5615 506.436 98.8486 507.244 98.8486C507.818 98.8486 508.305 98.7314 508.703 98.4971C509.102 98.2627 509.45 97.9521 509.749 97.5654L510.742 98.3389C509.945 99.5635 508.75 100.176 507.156 100.176ZM506.954 91.6504C506.298 91.6504 505.747 91.8906 505.302 92.3711C504.856 92.8457 504.581 93.5137 504.476 94.375H509.239V94.252C509.192 93.4258 508.97 92.7871 508.571 92.3359C508.173 91.8789 507.634 91.6504 506.954 91.6504Z" fill="black"/>
    <path d="M164.498 100V87.2031H168.682C170.07 87.2031 171.113 87.4902 171.811 88.0645C172.514 88.6387 172.865 89.4883 172.865 90.6133C172.865 91.2109 172.695 91.7412 172.355 92.2041C172.016 92.6611 171.553 93.0156 170.967 93.2676C171.658 93.4609 172.203 93.8301 172.602 94.375C173.006 94.9141 173.208 95.5586 173.208 96.3086C173.208 97.457 172.836 98.3594 172.092 99.0156C171.348 99.6719 170.296 100 168.937 100H164.498ZM166.186 94.0146V98.6201H168.972C169.757 98.6201 170.375 98.418 170.826 98.0137C171.283 97.6035 171.512 97.041 171.512 96.3262C171.512 94.7852 170.674 94.0146 168.998 94.0146H166.186ZM166.186 92.6611H168.734C169.473 92.6611 170.062 92.4766 170.501 92.1074C170.946 91.7383 171.169 91.2373 171.169 90.6045C171.169 89.9014 170.964 89.3916 170.554 89.0752C170.144 88.7529 169.52 88.5918 168.682 88.5918H166.186V92.6611ZM181.329 99.0596C180.696 99.8037 179.768 100.176 178.543 100.176C177.529 100.176 176.756 99.8828 176.223 99.2969C175.695 98.7051 175.429 97.832 175.423 96.6777V90.4902H177.049V96.6338C177.049 98.0752 177.635 98.7959 178.807 98.7959C180.049 98.7959 180.875 98.333 181.285 97.4072V90.4902H182.911V100H181.364L181.329 99.0596ZM185.003 95.166C185.003 93.6836 185.346 92.5059 186.031 91.6328C186.717 90.7539 187.625 90.3145 188.756 90.3145C189.916 90.3145 190.821 90.7246 191.472 91.5449L191.551 90.4902H193.036V99.7715C193.036 101.002 192.67 101.972 191.938 102.681C191.211 103.39 190.232 103.744 189.002 103.744C188.316 103.744 187.646 103.598 186.989 103.305C186.333 103.012 185.832 102.61 185.486 102.101L186.33 101.125C187.027 101.986 187.88 102.417 188.888 102.417C189.679 102.417 190.294 102.194 190.733 101.749C191.179 101.304 191.401 100.677 191.401 99.8682V99.0508C190.751 99.8008 189.863 100.176 188.738 100.176C187.625 100.176 186.723 99.7275 186.031 98.8311C185.346 97.9346 185.003 96.7129 185.003 95.166ZM186.638 95.3506C186.638 96.4229 186.857 97.2666 187.297 97.8818C187.736 98.4912 188.352 98.7959 189.143 98.7959C190.168 98.7959 190.921 98.3301 191.401 97.3984V93.0566C190.903 92.1484 190.156 91.6943 189.16 91.6943C188.369 91.6943 187.751 92.002 187.306 92.6172C186.86 93.2324 186.638 94.1436 186.638 95.3506ZM207.274 94.3486H201.904V100H200.217V87.2031H208.145V88.5918H201.904V92.9688H207.274V94.3486ZM211.678 100H210.052V90.4902H211.678V100ZM209.92 87.9678C209.92 87.7041 209.999 87.4814 210.157 87.2998C210.321 87.1182 210.562 87.0273 210.878 87.0273C211.194 87.0273 211.435 87.1182 211.599 87.2998C211.763 87.4814 211.845 87.7041 211.845 87.9678C211.845 88.2314 211.763 88.4512 211.599 88.627C211.435 88.8027 211.194 88.8906 210.878 88.8906C210.562 88.8906 210.321 88.8027 210.157 88.627C209.999 88.4512 209.92 88.2314 209.92 87.9678ZM217.479 93.9619L219.588 90.4902H221.486L218.375 95.1924L221.583 100H219.702L217.505 96.4404L215.308 100H213.418L216.626 95.1924L213.515 90.4902H215.396L217.479 93.9619Z" fill="black"/>
    <circle cx="84" cy="300" r="18" transform="rotate(90 84 300)" fill="#73FFE5" stroke="black" stroke-width="4"/>
    <circle cx="192" cy="300" r="18" transform="rotate(90 192 300)" fill="#73FFE5" stroke="black" stroke-width="4"/>
    <circle cx="408" cy="300" r="18" transform="rotate(90 408 300)" fill="#73FFE5" stroke="black" stroke-width="4"/>
    <circle cx="300" cy="441" r="18" transform="rotate(90 300 441)" fill="#E5FF73" stroke="black" stroke-width="4"/>
    <circle cx="192" cy="159" r="18" transform="rotate(90 192 159)" fill="#FFA492" stroke="black" stroke-width="4"/>
    <circle cx="408" cy="441" r="18" transform="rotate(90 408 441)" fill="#E5FF73" stroke="black" stroke-width="4"/>
    <circle cx="408" cy="159" r="18" transform="rotate(90 408 159)" fill="#CEC0FF" stroke="black" stroke-width="4"/>
    <circle cx="516" cy="159" r="18" transform="rotate(90 516 159)" fill="#CEC0FF" stroke="black" stroke-width="4"/>
    <circle cx="516" cy="300" r="18" transform="rotate(90 516 300)" fill="#73FFE5" stroke="black" stroke-width="4"/>
    <path d="M102 300H176" stroke="#B8C0CD" stroke-width="2"/>
    <path d="M424 300L496 300" stroke="#B8C0CD" stroke-width="2"/>
    <path d="M424 159L496 159" stroke="#B8C0CD" stroke-width="2"/>
    <path d="M316 300L388 300" stroke="#B8C0CD" stroke-width="2"/>
    <path d="M316 441L388 441" stroke="#B8C0CD" stroke-width="2"/>
    <path d="M210 300L282 300" stroke="#B8C0CD" stroke-width="2"/>
    <circle cx="300" cy="300" r="18" transform="rotate(90 300 300)" fill="#73FFE5" stroke="black" stroke-width="4"/>
    <path d="M174.5 159H170.5C159.299 159 153.698 159 149.42 161.18C145.657 163.097 142.597 166.157 140.68 169.92C138.5 174.198 138.5 179.799 138.5 191V268C138.5 279.201 138.5 284.802 136.32 289.08C134.403 292.843 131.343 295.903 127.58 297.82C123.302 300 117.701 300 106.5 300H102" stroke="#B8C0CD" stroke-width="2"/>
    <path d="M209 159H213C224.201 159 229.802 159 234.08 161.18C237.843 163.097 240.903 166.157 242.82 169.92C245 174.198 245 179.799 245 191V268C245 279.201 245 284.802 247.18 289.08C249.097 292.843 252.157 295.903 255.92 297.82C260.198 300 265.799 300 277 300H281.5" stroke="#B8C0CD" stroke-width="2"/>
    <path d="M388.5 159H384.5C373.299 159 367.698 159 363.42 161.18C359.657 163.097 356.597 166.157 354.68 169.92C352.5 174.198 352.5 179.799 352.5 191V268C352.5 279.201 352.5 284.802 350.32 289.08C348.403 292.843 345.343 295.903 341.58 297.82C337.302 300 331.701 300 320.5 300H316" stroke="#B8C0CD" stroke-width="2"/>
    <path d="M427 441H431C442.201 441 447.802 441 452.08 438.82C455.843 436.903 458.903 433.843 460.82 430.08C463 425.802 463 420.201 463 409V332C463 320.799 463 315.198 465.18 310.92C467.097 307.157 470.157 304.097 473.92 302.18C478.198 300 483.799 300 495 300H499.5" stroke="#B8C0CD" stroke-width="2"/>
    <path d="M209 300H213C224.201 300 229.802 300 234.08 302.18C237.843 304.097 240.903 307.157 242.82 310.92C245 315.198 245 320.799 245 332V409C245 420.201 245 425.802 247.18 430.08C249.097 433.843 252.157 436.903 255.92 438.82C260.198 441 265.799 441 277 441H281.5" stroke="#B8C0CD" stroke-width="2"/>
    <rect width="36.9368" height="36.9368" transform="matrix(0.866025 0.5 -0.866025 0.5 80.9883 257)" fill="#73FFE5"/>
    <rect width="36.9368" height="36.9368" transform="matrix(0.866025 0.5 -0.866025 0.5 80.9883 257)" fill="#3C4257"/>
    <path d="M49 275.469L80.9882 293.937L80.9882 330.873L49 312.404L49 293.937L49 275.469Z" fill="#E5FAB7"/>
    <path d="M81.0117 293.938L113 275.469L113 312.405L81.0117 330.873L81.0117 312.405L81.0117 293.938Z" fill="#73FFE5"/>
    <rect width="36.9368" height="36.9368" transform="matrix(0.866025 0.5 -0.866025 0.5 295.988 401)" fill="#73FFE5"/>
    <rect width="36.9368" height="36.9368" transform="matrix(0.866025 0.5 -0.866025 0.5 295.988 401)" fill="#3C4257"/>
    <path d="M264 419.469L295.988 437.937L295.988 474.873L264 456.404L264 437.937L264 419.469Z" fill="#C8E0FF"/>
    <path d="M296.012 437.938L328 419.469L328 456.405L296.012 474.873L296.012 456.405L296.012 437.938Z" fill="#78AEFF"/>
    <rect width="36.9368" height="36.9368" transform="matrix(0.866025 0.5 -0.866025 0.5 407.988 401)" fill="#73FFE5"/>
    <rect width="36.9368" height="36.9368" transform="matrix(0.866025 0.5 -0.866025 0.5 407.988 401)" fill="#3C4257"/>
    <path d="M376 419.469L407.988 437.937L407.988 474.873L376 456.404L376 437.937L376 419.469Z" fill="#C8E0FF"/>
    <path d="M408.012 437.938L440 419.469L440 456.405L408.012 474.873L408.012 456.405L408.012 437.938Z" fill="#78AEFF"/>
    <rect width="36.9368" height="36.9368" transform="matrix(0.866025 0.5 -0.866025 0.5 189.988 119)" fill="#73FFE5"/>
    <rect width="36.9368" height="36.9368" transform="matrix(0.866025 0.5 -0.866025 0.5 189.988 119)" fill="#3C4257"/>
    <path d="M158 137.469L189.988 155.937L189.988 192.873L158 174.404L158 155.937L158 137.469Z" fill="#EDF1F5"/>
    <path d="M190.012 155.938L222 137.469L222 174.405L190.012 192.873L190.012 174.405L190.012 155.938Z" fill="#CEC0FF"/>
    <rect width="36.9368" height="36.9368" transform="matrix(0.866025 0.5 -0.866025 0.5 407.988 119)" fill="#73FFE5"/>
    <rect width="36.9368" height="36.9368" transform="matrix(0.866025 0.5 -0.866025 0.5 407.988 119)" fill="#3C4257"/>
    <path d="M376 137.469L407.988 155.937L407.988 192.873L376 174.404L376 155.937L376 137.469Z" fill="#EDF1F5"/>
    <path d="M408.012 155.938L440 137.469L440 174.405L408.012 192.873L408.012 174.405L408.012 155.938Z" fill="#CEC0FF"/>
    <rect width="36.9368" height="36.9368" transform="matrix(0.866025 0.5 -0.866025 0.5 511.988 119)" fill="#73FFE5"/>
    <rect width="36.9368" height="36.9368" transform="matrix(0.866025 0.5 -0.866025 0.5 511.988 119)" fill="#3C4257"/>
    <path d="M480 137.469L511.988 155.937L511.988 192.873L480 174.404L480 155.937L480 137.469Z" fill="#EDF1F5"/>
    <path d="M512.012 155.938L544 137.469L544 174.405L512.012 192.873L512.012 174.405L512.012 155.938Z" fill="#CEC0FF"/>
    <rect width="36.9368" height="36.9368" transform="matrix(0.866025 0.5 -0.866025 0.5 189.988 257)" fill="#73FFE5"/>
    <rect width="36.9368" height="36.9368" transform="matrix(0.866025 0.5 -0.866025 0.5 189.988 257)" fill="#3C4257"/>
    <path d="M158 275.469L189.988 293.937L189.988 330.873L158 312.404L158 293.937L158 275.469Z" fill="#E5FAB7"/>
    <path d="M190.012 293.938L222 275.469L222 312.405L190.012 330.873L190.012 312.405L190.012 293.938Z" fill="#73FFE5"/>
    <rect width="36.9368" height="36.9368" transform="matrix(0.866025 0.5 -0.866025 0.5 298.988 257)" fill="#73FFE5"/>
    <rect width="36.9368" height="36.9368" transform="matrix(0.866025 0.5 -0.866025 0.5 298.988 257)" fill="#3C4257"/>
    <path d="M267 275.469L298.988 293.937L298.988 330.873L267 312.404L267 293.937L267 275.469Z" fill="#E5FAB7"/>
    <path d="M299.012 293.938L331 275.469L331 312.405L299.012 330.873L299.012 312.405L299.012 293.938Z" fill="#73FFE5"/>
    <rect width="36.9368" height="36.9368" transform="matrix(0.866025 0.5 -0.866025 0.5 407.988 257)" fill="#73FFE5"/>
    <rect width="36.9368" height="36.9368" transform="matrix(0.866025 0.5 -0.866025 0.5 407.988 257)" fill="#3C4257"/>
    <path d="M376 275.469L407.988 293.937L407.988 330.873L376 312.404L376 293.937L376 275.469Z" fill="#E5FAB7"/>
    <path d="M408.012 293.938L440 275.469L440 312.405L408.012 330.873L408.012 312.405L408.012 293.938Z" fill="#73FFE5"/>
    <rect width="36.9368" height="36.9368" transform="matrix(0.866025 0.5 -0.866025 0.5 516.988 257)" fill="#73FFE5"/>
    <rect width="36.9368" height="36.9368" transform="matrix(0.866025 0.5 -0.866025 0.5 516.988 257)" fill="#3C4257"/>
    <path d="M485 275.469L516.988 293.937L516.988 330.873L485 312.404L485 293.937L485 275.469Z" fill="#E5FAB7"/>
    <path d="M517.012 293.938L549 275.469L549 312.405L517.012 330.873L517.012 312.405L517.012 293.938Z" fill="#73FFE5"/>
</svg>
