<svg width="599" height="318" viewBox="0 0 599 318" fill="none" xmlns="http://www.w3.org/2000/svg">
    <path d="M393 53H454.5" stroke="#D3DBE6"/>
    <path d="M313 267H374.5" stroke="#D3DBE6"/>
    <path d="M194 51H192C183.163 51 176 58.1634 176 67V143C176 151.837 168.837 159 160 159H158" stroke="#D3DBE6"/>
    <path d="M358 51H356C347.163 51 340 58.1634 340 67V143C340 151.837 332.837 159 324 159H322" stroke="#D3DBE6"/>
    <path d="M242 159H244C252.837 159 260 166.163 260 175V251C260 259.837 267.163 267 276 267H278" stroke="#D3DBE6"/>
    <path d="M438 159H436C427.163 159 420 166.163 420 175V251C420 259.837 412.837 267 404 267H402" stroke="#D3DBE6"/>
    <path d="M242 51H244C252.837 51 260 58.1634 260 67V143C260 151.837 267.163 159 276 159H278" stroke="#D3DBE6"/>
    <path d="M124 159H475.5" stroke="#D3DBE6"/>
    <path d="M199.888 14.0062C200.38 14.0486 201.46 14.0867 202.228 14.0968C204.004 14.12 205.348 13.3456 205.348 11.6176C205.348 10.5016 204.7 9.85714 203.872 9.6423V9.6183C204.592 9.29172 205.072 8.68601 205.072 7.72601C205.072 6.56201 204.316 5.64011 202.312 5.61388C201.472 5.60288 200.356 5.62428 199.888 5.64215V14.0062ZM202.408 10.4391C203.332 10.4512 203.872 10.8183 203.872 11.5263C203.872 12.3183 203.332 12.7312 202.336 12.7182C201.916 12.7127 201.568 12.6721 201.364 12.6455V10.4255L202.408 10.4391ZM202.288 6.99357C203.08 7.00393 203.608 7.37084 203.608 8.05484C203.608 8.82284 203.044 9.16346 202.36 9.15451L201.364 9.14147V7.01747C201.628 6.99693 201.952 6.98917 202.288 6.99357ZM211.781 8.77384L210.401 8.75578V12.3438C210.089 12.7477 209.645 12.9939 209.189 12.9879C208.434 12.978 208.158 12.4584 208.158 11.7384V8.7264L206.778 8.70834V12.0083C206.778 13.5563 207.618 14.2513 208.673 14.2652C209.513 14.2762 210.077 13.8875 210.401 13.4958V14.1558L211.781 14.1738V8.77384ZM212.611 14.9167C212.611 16.1527 213.847 16.6969 215.419 16.7175C216.991 16.738 218.227 16.2022 218.227 14.9902C218.227 13.7782 216.991 13.21 215.419 13.1895L215.359 13.1887C215.311 13.104 215.287 13.0077 215.287 12.9117C215.287 12.8517 215.287 12.7797 215.311 12.708L215.407 12.7093C216.799 12.7275 217.699 11.8273 217.699 10.7473C217.699 10.5073 217.651 10.2667 217.567 10.0496L218.467 9.85736L218.419 8.75273L216.787 9.09137C216.415 8.8465 215.947 8.69637 215.407 8.6893C213.979 8.67061 213.103 9.60714 213.103 10.6871C213.103 11.4791 213.571 12.1813 214.387 12.516C214.303 12.6229 214.267 12.7664 214.267 12.8984C214.267 13.0184 214.303 13.1629 214.363 13.2716C213.331 13.4741 212.611 14.0167 212.611 14.9167ZM213.895 14.9335C213.895 14.5375 214.435 14.2806 215.419 14.2935C216.415 14.3065 216.931 14.5773 216.931 14.9733C216.931 15.4053 216.355 15.6257 215.419 15.6135C214.483 15.6012 213.895 15.3535 213.895 14.9335ZM214.399 10.7041C214.399 10.2121 214.783 9.79713 215.407 9.8053C216.055 9.81378 216.415 10.2265 216.415 10.7305C216.415 11.2705 215.995 11.601 215.407 11.5933C214.783 11.5851 214.399 11.2081 214.399 10.7041ZM222.245 14.3108L223.721 14.3301V11.0661L226.685 11.1049V9.72494L223.721 9.68615V7.31015L227.045 7.35366V5.97366L222.245 5.91083V14.3108ZM228.651 14.3947L230.03 14.4127V9.01274L228.651 8.99467V14.3947ZM228.507 7.04879C228.507 7.60079 228.903 7.91797 229.371 7.9241C229.766 7.92928 230.162 7.62246 230.162 7.07046C230.162 6.57846 229.766 6.26128 229.371 6.2561C228.903 6.24997 228.507 6.55679 228.507 7.04879ZM236.934 9.10311L235.338 9.08222L234.162 10.8548L233.022 9.0519L231.33 9.02975L233.13 11.7053L231.21 14.4282L232.806 14.4491L234.114 12.5222L235.374 14.4827L237.054 14.5047L235.134 11.6595L236.934 9.10311Z" fill="#10162F"/>
    <path d="M218 50.5105L193 36.5105L218 22.5105L243 36.5105L218 50.5105Z" fill="#6C7991"/>
    <path d="M193 36.5105L218 50.5105V78.5105L193 65.5105V36.5105Z" fill="#AE85FF"/>
    <path d="M243 36.5105L218 50.5105V78.5105L243 65.5105V36.5105Z" fill="#7833FF"/>
    <path d="M400.52 13.1115V4.71149L399.14 4.69343V10.5374L394.52 4.63296L393.345 4.61756V13.0176L394.724 13.0356V7.21563L399.344 13.0961L400.52 13.1115ZM406.687 11.6802C406.375 11.9281 405.823 12.1609 405.163 12.1523C404.312 12.1411 403.664 11.6886 403.544 10.8711L407.443 10.9221C407.503 10.7189 407.527 10.5152 407.527 10.1792C407.527 8.66722 406.363 7.65599 404.971 7.63777C403.196 7.61452 402.116 8.86038 402.116 10.4324C402.116 12.1364 403.28 13.2796 405.019 13.3024C405.775 13.3123 406.543 13.1063 407.083 12.6574L406.687 11.6802ZM404.911 8.78898C405.703 8.79935 406.159 9.32132 406.147 9.98116L403.496 9.94645C403.64 9.24033 404.084 8.77814 404.911 8.78898ZM416.462 7.92019L415.07 7.90197L414.278 10.7836C414.218 11.0468 414.158 11.31 414.11 11.5614C414.05 11.3086 413.99 11.0558 413.906 10.8147L412.862 7.87306L411.638 7.85704L410.63 10.7838C410.522 11.0824 410.486 11.274 410.426 11.5012C410.378 11.2485 410.354 11.0442 410.271 10.7791L409.407 7.82783L407.931 7.80851L409.683 13.2554L410.858 13.2708L411.998 10.3098C412.082 10.0949 412.142 9.89164 412.19 9.65227C412.25 9.85705 412.286 10.0855 412.37 10.2906L413.522 13.3057L414.758 13.3219L416.462 7.92019ZM419.889 13.365L421.269 13.3831V9.27911L422.733 9.29828V8.00228L421.269 7.98311V7.21511C421.269 6.47111 421.593 6.15135 422.061 6.15748C422.373 6.16156 422.673 6.24949 422.853 6.43185L423.321 5.38197C423.045 5.09036 422.457 4.86666 421.809 4.85818C420.609 4.84247 419.889 5.58905 419.889 7.08905V13.365ZM427.908 11.958C427.596 12.2059 427.044 12.4387 426.384 12.4301C425.532 12.4189 424.884 11.9664 424.764 11.1489L428.664 11.1999C428.724 10.9967 428.748 10.793 428.748 10.457C428.748 8.94502 427.584 7.93378 426.192 7.91556C424.416 7.89232 423.337 9.13818 423.337 10.7102C423.337 12.4142 424.5 13.5574 426.24 13.5802C426.996 13.5901 427.764 13.3841 428.304 12.9352L427.908 11.958ZM426.132 9.06678C426.924 9.07714 427.38 9.59911 427.368 10.259L424.716 10.2242C424.86 9.51813 425.304 9.05594 426.132 9.06678ZM430.279 9.49307C430.675 9.31825 431.071 9.13143 431.695 9.1396C432.499 9.15013 432.739 9.64527 432.703 10.5448C432.439 10.3493 431.959 10.1871 431.479 10.1808C430.387 10.1665 429.512 10.719 429.512 11.907C429.512 12.951 430.219 13.5723 431.203 13.5852C431.935 13.5947 432.511 13.3143 432.799 12.9101V13.5341L433.999 13.5498V10.2618C433.999 8.83376 433.435 8.01038 431.839 7.98949C431.131 7.98022 430.399 8.21064 429.931 8.48051L430.279 9.49307ZM431.659 12.4271C431.227 12.4215 430.891 12.1891 430.891 11.7811C430.891 11.3251 431.299 11.1144 431.755 11.1204C432.151 11.1256 432.463 11.2137 432.703 11.3968V11.9488C432.535 12.1866 432.235 12.4347 431.659 12.4271ZM435.294 11.5147C435.294 12.8947 435.75 13.6927 436.974 13.7087C437.669 13.7178 438.245 13.4613 438.569 13.2016L438.149 12.1281C437.957 12.2696 437.693 12.4341 437.322 12.4293C436.866 12.4233 436.674 12.0368 436.674 11.4488V9.48077L438.413 9.50355V8.20755L436.674 8.18477V6.68477L435.294 6.66671V11.5147ZM444.621 8.28881L443.241 8.27075V11.8587C442.929 12.2627 442.485 12.5089 442.029 12.5029C441.273 12.493 440.997 11.9734 440.997 11.2534V8.24137L439.618 8.22331V11.5233C439.618 13.0713 440.457 13.7663 441.513 13.7801C442.353 13.7911 442.917 13.4025 443.241 13.0107V13.6707L444.621 13.6888V8.28881ZM446.159 13.7089L447.539 13.727V10.103C447.695 9.79305 447.947 9.53234 448.427 9.53863C448.715 9.5424 448.859 9.59228 449.123 9.75174L449.615 8.46218C449.435 8.32782 449.219 8.25299 448.775 8.24718C448.127 8.2387 447.791 8.5103 447.539 8.855V8.327L446.159 8.30894V13.7089ZM454.636 12.3079C454.324 12.5558 453.772 12.7886 453.112 12.78C452.261 12.7688 451.613 12.3163 451.493 11.4988L455.392 11.5498C455.452 11.3466 455.476 11.1429 455.476 10.8069C455.476 9.29491 454.312 8.28367 452.92 8.26545C451.145 8.24221 450.065 9.48807 450.065 11.0601C450.065 12.7641 451.229 13.9073 452.968 13.9301C453.724 13.94 454.492 13.734 455.032 13.2851L454.636 12.3079ZM452.86 9.41667C453.652 9.42704 454.108 9.949 454.096 10.6088L451.445 10.5741C451.589 9.86802 452.033 9.40583 452.86 9.41667Z" fill="#10162F"/>
    <path d="M383 49.8376L358 35.8376L383 21.8376L408 35.8376L383 49.8376Z" fill="#6C7991"/>
    <path d="M358 35.8376L383 49.8376V77.8376L358 64.8376V35.8376Z" fill="#AE85FF"/>
    <path d="M408 35.8376L383 49.8376V77.8376L408 64.8376V35.8376Z" fill="#7833FF"/>
    <path d="M465 49.8376L440 35.8376L465 21.8376L490 35.8376L465 49.8376Z" fill="#6C7991"/>
    <path d="M440 35.8376L465 49.8376V77.8376L440 64.8376V35.8376Z" fill="#AE85FF"/>
    <path d="M490 35.8376L465 49.8376V77.8376L490 64.8376V35.8376Z" fill="#7833FF"/>
    <path d="M135 158L110 144L135 130L160 144L135 158Z" fill="#6C7991"/>
    <path d="M110 144L135 158V186L110 173V144Z" fill="#A5E6D9"/>
    <path d="M160 144L135 158V186L160 173V144Z" fill="#1EC1A1"/>
    <path d="M217 158L192 144L217 130L242 144L217 158Z" fill="#6C7991"/>
    <path d="M192 144L217 158V186L192 173V144Z" fill="#A5E6D9"/>
    <path d="M242 144L217 158V186L242 173V144Z" fill="#1EC1A1"/>
    <path d="M299 158L274 144L299 130L324 144L299 158Z" fill="#6C7991"/>
    <path d="M274 144L299 158V186L274 173V144Z" fill="#A5E6D9"/>
    <path d="M324 144L299 158V186L324 173V144Z" fill="#1EC1A1"/>
    <path d="M381 158L356 144L381 130L406 144L381 158Z" fill="#6C7991"/>
    <path d="M356 144L381 158V186L356 173V144Z" fill="#A5E6D9"/>
    <path d="M406 144L381 158V186L406 173V144Z" fill="#1EC1A1"/>
    <path d="M463 158L438 144L463 130L488 144L463 158Z" fill="#6C7991"/>
    <path d="M438 144L463 158V186L438 173V144Z" fill="#A5E6D9"/>
    <path d="M488 144L463 158V186L488 173V144Z" fill="#1EC1A1"/>
    <path d="M111.541 201.02L113.017 201.039V195.003L115.692 198.735L115.908 198.737L118.56 195.04V201.112L120.024 201.131V192.731L118.632 192.713L115.896 196.601L113.029 192.64L111.541 192.62V201.02ZM122.38 197.154C122.776 196.979 123.172 196.792 123.796 196.801C124.6 196.811 124.84 197.306 124.804 198.206C124.54 198.01 124.06 197.848 123.58 197.842C122.488 197.827 121.612 198.38 121.612 199.568C121.612 200.612 122.32 201.233 123.304 201.246C124.036 201.256 124.612 200.975 124.9 200.571V201.195L126.1 201.211V197.923C126.1 196.495 125.536 195.671 123.94 195.65C123.232 195.641 122.5 195.872 122.032 196.142L122.38 197.154ZM123.76 200.088C123.328 200.082 122.992 199.85 122.992 199.442C122.992 198.986 123.4 198.775 123.856 198.781C124.252 198.787 124.564 198.875 124.804 199.058V199.61C124.636 199.848 124.336 200.096 123.76 200.088ZM130.25 199.741C130.25 200.077 129.938 200.241 129.542 200.236C129.002 200.229 128.186 199.894 127.863 199.542L127.191 200.433C127.443 200.82 128.45 201.374 129.446 201.387C130.766 201.404 131.63 200.755 131.63 199.687C131.63 197.779 128.714 198.233 128.714 197.333C128.714 197.093 128.966 196.868 129.386 196.874C129.962 196.881 130.526 197.153 130.85 197.409L131.366 196.432C131.03 196.115 130.358 195.735 129.314 195.721C128.198 195.706 127.335 196.283 127.335 197.339C127.335 199.307 130.25 198.865 130.25 199.741ZM132.726 199.246C132.726 200.626 133.182 201.423 134.406 201.439C135.102 201.449 135.678 201.192 136.002 200.932L135.582 199.859C135.39 200 135.126 200.165 134.754 200.16C134.298 200.154 134.106 199.768 134.106 199.18V197.212L135.846 197.234V195.938L134.106 195.916V194.416L132.726 194.398V199.246ZM141.195 199.896C140.883 200.144 140.331 200.377 139.671 200.368C138.819 200.357 138.171 199.905 138.051 199.087L141.951 199.138C142.011 198.935 142.035 198.731 142.035 198.395C142.035 196.883 140.871 195.872 139.479 195.854C137.703 195.831 136.623 197.077 136.623 198.649C136.623 200.353 137.787 201.496 139.527 201.519C140.283 201.528 141.051 201.322 141.591 200.874L141.195 199.896ZM139.419 197.005C140.211 197.015 140.667 197.537 140.655 198.197L138.003 198.163C138.147 197.456 138.591 196.994 139.419 197.005ZM143.146 201.434L144.526 201.452V197.828C144.682 197.518 144.934 197.257 145.414 197.264C145.702 197.267 145.846 197.317 146.11 197.477L146.602 196.187C146.422 196.053 146.206 195.978 145.762 195.972C145.114 195.964 144.778 196.235 144.526 196.58V196.052L143.146 196.034V201.434Z" fill="#10162F"/>
    <path d="M301 268L276 254L301 240L326 254L301 268Z" fill="#6C7991"/>
    <path d="M276 254L301 268V296L276 283V254Z" fill="#AE85FF"/>
    <path d="M326 254L301 268V296L326 283V254Z" fill="#7833FF"/>
    <path d="M383 268L358 254L383 240L408 254L383 268Z" fill="#6C7991"/>
    <path d="M358 254L383 268V296L358 283V254Z" fill="#AE85FF"/>
    <path d="M408 254L383 268V296L408 283V254Z" fill="#7833FF"/>
    <path d="M318.52 311.111V302.711L317.14 302.693V308.537L312.52 302.633L311.345 302.618V311.018L312.724 311.036V305.216L317.344 311.096L318.52 311.111ZM324.687 309.68C324.375 309.928 323.823 310.161 323.163 310.152C322.312 310.141 321.664 309.689 321.544 308.871L325.443 308.922C325.503 308.719 325.527 308.515 325.527 308.179C325.527 306.667 324.363 305.656 322.971 305.638C321.196 305.615 320.116 306.86 320.116 308.432C320.116 310.136 321.28 311.28 323.019 311.302C323.775 311.312 324.543 311.106 325.083 310.657L324.687 309.68ZM322.911 306.789C323.703 306.799 324.159 307.321 324.147 307.981L321.496 307.946C321.64 307.24 322.084 306.778 322.911 306.789ZM334.462 305.92L333.07 305.902L332.278 308.784C332.218 309.047 332.158 309.31 332.11 309.561C332.05 309.309 331.99 309.056 331.906 308.815L330.862 305.873L329.638 305.857L328.63 308.784C328.522 309.082 328.486 309.274 328.426 309.501C328.378 309.249 328.354 309.044 328.271 308.779L327.407 305.828L325.931 305.809L327.683 311.255L328.858 311.271L329.998 308.31C330.082 308.095 330.142 307.892 330.19 307.652C330.25 307.857 330.286 308.086 330.37 308.291L331.522 311.306L332.758 311.322L334.462 305.92ZM337.889 311.365L339.269 311.383V307.279L340.733 307.298V306.002L339.269 305.983V305.215C339.269 304.471 339.593 304.151 340.061 304.157C340.373 304.162 340.673 304.249 340.853 304.432L341.321 303.382C341.045 303.09 340.457 302.867 339.809 302.858C338.609 302.842 337.889 303.589 337.889 305.089V311.365ZM345.908 309.958C345.596 310.206 345.044 310.439 344.384 310.43C343.532 310.419 342.884 309.966 342.764 309.149L346.664 309.2C346.724 308.997 346.748 308.793 346.748 308.457C346.748 306.945 345.584 305.934 344.192 305.916C342.416 305.892 341.337 307.138 341.337 308.71C341.337 310.414 342.5 311.557 344.24 311.58C344.996 311.59 345.764 311.384 346.304 310.935L345.908 309.958ZM344.132 307.067C344.924 307.077 345.38 307.599 345.368 308.259L342.716 308.224C342.86 307.518 343.304 307.056 344.132 307.067ZM348.279 307.493C348.675 307.318 349.071 307.131 349.695 307.14C350.499 307.15 350.739 307.645 350.703 308.545C350.439 308.349 349.959 308.187 349.479 308.181C348.387 308.166 347.512 308.719 347.512 309.907C347.512 310.951 348.219 311.572 349.203 311.585C349.935 311.595 350.511 311.314 350.799 310.91V311.534L351.999 311.55V308.262C351.999 306.834 351.435 306.01 349.839 305.989C349.131 305.98 348.399 306.211 347.931 306.481L348.279 307.493ZM349.659 310.427C349.227 310.421 348.891 310.189 348.891 309.781C348.891 309.325 349.299 309.114 349.755 309.12C350.151 309.126 350.463 309.214 350.703 309.397V309.949C350.535 310.187 350.235 310.435 349.659 310.427ZM353.294 309.515C353.294 310.895 353.75 311.693 354.974 311.709C355.669 311.718 356.245 311.461 356.569 311.202L356.149 310.128C355.957 310.27 355.693 310.434 355.322 310.429C354.866 310.423 354.674 310.037 354.674 309.449V307.481L356.413 307.504V306.208L354.674 306.185V304.685L353.294 304.667V309.515ZM362.621 306.289L361.241 306.271V309.859C360.929 310.263 360.485 310.509 360.029 310.503C359.273 310.493 358.997 309.973 358.997 309.253V306.241L357.618 306.223V309.523C357.618 311.071 358.457 311.766 359.513 311.78C360.353 311.791 360.917 311.403 361.241 311.011V311.671L362.621 311.689V306.289ZM364.159 311.709L365.539 311.727V308.103C365.695 307.793 365.947 307.532 366.427 307.539C366.715 307.542 366.859 307.592 367.123 307.752L367.615 306.462C367.435 306.328 367.219 306.253 366.775 306.247C366.127 306.239 365.791 306.51 365.539 306.855V306.327L364.159 306.309V311.709ZM372.636 310.308C372.324 310.556 371.772 310.789 371.112 310.78C370.261 310.769 369.613 310.316 369.493 309.499L373.392 309.55C373.452 309.347 373.476 309.143 373.476 308.807C373.476 307.295 372.312 306.284 370.92 306.265C369.145 306.242 368.065 307.488 368.065 309.06C368.065 310.764 369.229 311.907 370.968 311.93C371.724 311.94 372.492 311.734 373.032 311.285L372.636 310.308ZM370.86 307.417C371.652 307.427 372.108 307.949 372.096 308.609L369.445 308.574C369.589 307.868 370.033 307.406 370.86 307.417Z" fill="#10162F"/>
</svg>
