<svg width="600" height="600" viewBox="0 0 600 600" fill="none" xmlns="http://www.w3.org/2000/svg">
    <path d="M60.0049 340.203L64.1885 350.645L68.3721 340.203H70.5605V353H68.873V348.017L69.0312 342.638L64.8301 353H63.5381L59.3457 342.664L59.5127 348.017V353H57.8252V340.203H60.0049ZM79.1562 353C79.0625 352.812 78.9863 352.479 78.9277 351.998C78.1719 352.783 77.2695 353.176 76.2207 353.176C75.2832 353.176 74.5127 352.912 73.9092 352.385C73.3115 351.852 73.0127 351.178 73.0127 350.363C73.0127 349.373 73.3877 348.605 74.1377 348.061C74.8936 347.51 75.9541 347.234 77.3193 347.234H78.9014V346.487C78.9014 345.919 78.7314 345.468 78.3916 345.134C78.0518 344.794 77.5508 344.624 76.8887 344.624C76.3086 344.624 75.8223 344.771 75.4297 345.063C75.0371 345.356 74.8408 345.711 74.8408 346.127H73.2061C73.2061 345.652 73.373 345.195 73.707 344.756C74.0469 344.311 74.5039 343.959 75.0781 343.701C75.6582 343.443 76.2939 343.314 76.9854 343.314C78.0811 343.314 78.9395 343.59 79.5605 344.141C80.1816 344.686 80.5039 345.438 80.5273 346.399V350.776C80.5273 351.649 80.6387 352.344 80.8613 352.859V353H79.1562ZM76.458 351.761C76.9678 351.761 77.4512 351.629 77.9082 351.365C78.3652 351.102 78.6963 350.759 78.9014 350.337V348.386H77.627C75.6348 348.386 74.6387 348.969 74.6387 350.135C74.6387 350.645 74.8086 351.043 75.1484 351.33C75.4883 351.617 75.9248 351.761 76.458 351.761ZM88.6133 350.478C88.6133 350.038 88.4463 349.698 88.1123 349.458C87.7842 349.212 87.207 349.001 86.3809 348.825C85.5605 348.649 84.9072 348.438 84.4209 348.192C83.9404 347.946 83.583 347.653 83.3486 347.313C83.1201 346.974 83.0059 346.569 83.0059 346.101C83.0059 345.321 83.334 344.662 83.9902 344.123C84.6523 343.584 85.4961 343.314 86.5215 343.314C87.5996 343.314 88.4727 343.593 89.1406 344.149C89.8145 344.706 90.1514 345.418 90.1514 346.285H88.5166C88.5166 345.84 88.3262 345.456 87.9453 345.134C87.5703 344.812 87.0957 344.65 86.5215 344.65C85.9297 344.65 85.4668 344.779 85.1328 345.037C84.7988 345.295 84.6318 345.632 84.6318 346.048C84.6318 346.44 84.7871 346.736 85.0977 346.936C85.4082 347.135 85.9678 347.325 86.7764 347.507C87.5908 347.688 88.25 347.905 88.7539 348.157C89.2578 348.409 89.6299 348.714 89.8701 349.071C90.1162 349.423 90.2393 349.854 90.2393 350.363C90.2393 351.213 89.8994 351.896 89.2197 352.411C88.54 352.921 87.6582 353.176 86.5742 353.176C85.8125 353.176 85.1387 353.041 84.5527 352.771C83.9668 352.502 83.5068 352.127 83.1729 351.646C82.8447 351.16 82.6807 350.636 82.6807 350.073H84.3066C84.3359 350.618 84.5527 351.052 84.957 351.374C85.3672 351.69 85.9062 351.849 86.5742 351.849C87.1895 351.849 87.6816 351.726 88.0508 351.479C88.4258 351.228 88.6133 350.894 88.6133 350.478ZM94.5635 341.188V343.49H96.3389V344.747H94.5635V350.645C94.5635 351.025 94.6426 351.312 94.8008 351.506C94.959 351.693 95.2285 351.787 95.6094 351.787C95.7969 351.787 96.0547 351.752 96.3828 351.682V353C95.9551 353.117 95.5391 353.176 95.1348 353.176C94.4082 353.176 93.8604 352.956 93.4912 352.517C93.1221 352.077 92.9375 351.453 92.9375 350.645V344.747H91.2061V343.49H92.9375V341.188H94.5635ZM102.192 353.176C100.903 353.176 99.8545 352.754 99.0459 351.91C98.2373 351.061 97.833 349.927 97.833 348.509V348.21C97.833 347.267 98.0117 346.426 98.3691 345.688C98.7324 344.943 99.2363 344.363 99.8809 343.947C100.531 343.525 101.234 343.314 101.99 343.314C103.227 343.314 104.188 343.722 104.873 344.536C105.559 345.351 105.901 346.517 105.901 348.034V348.711H99.459C99.4824 349.648 99.7549 350.407 100.276 350.987C100.804 351.562 101.472 351.849 102.28 351.849C102.854 351.849 103.341 351.731 103.739 351.497C104.138 351.263 104.486 350.952 104.785 350.565L105.778 351.339C104.981 352.563 103.786 353.176 102.192 353.176ZM101.99 344.65C101.334 344.65 100.783 344.891 100.338 345.371C99.8926 345.846 99.6172 346.514 99.5117 347.375H104.275V347.252C104.229 346.426 104.006 345.787 103.607 345.336C103.209 344.879 102.67 344.65 101.99 344.65ZM112.388 344.949C112.142 344.908 111.875 344.888 111.588 344.888C110.521 344.888 109.798 345.342 109.417 346.25V353H107.791V343.49H109.373L109.399 344.589C109.933 343.739 110.688 343.314 111.667 343.314C111.983 343.314 112.224 343.355 112.388 343.438V344.949Z" fill="black"/>
    <path d="M316.796 499H315.1L308.657 489.139V499H306.961V486.203H308.657L315.117 496.108V486.203H316.796V499ZM323.484 499.176C322.195 499.176 321.146 498.754 320.338 497.91C319.529 497.061 319.125 495.927 319.125 494.509V494.21C319.125 493.267 319.304 492.426 319.661 491.688C320.024 490.943 320.528 490.363 321.173 489.947C321.823 489.525 322.526 489.314 323.282 489.314C324.519 489.314 325.479 489.722 326.165 490.536C326.851 491.351 327.193 492.517 327.193 494.034V494.711H320.751C320.774 495.648 321.047 496.407 321.568 496.987C322.096 497.562 322.764 497.849 323.572 497.849C324.146 497.849 324.633 497.731 325.031 497.497C325.43 497.263 325.778 496.952 326.077 496.565L327.07 497.339C326.273 498.563 325.078 499.176 323.484 499.176ZM323.282 490.65C322.626 490.65 322.075 490.891 321.63 491.371C321.185 491.846 320.909 492.514 320.804 493.375H325.567V493.252C325.521 492.426 325.298 491.787 324.899 491.336C324.501 490.879 323.962 490.65 323.282 490.65ZM337.503 496.759L339.331 489.49H340.957L338.188 499H336.87L334.559 491.793L332.309 499H330.99L328.23 489.49H329.848L331.72 496.609L333.935 489.49H335.244L337.503 496.759ZM347.883 499V490.747H346.38V489.49H347.883V488.515C347.883 487.495 348.155 486.707 348.7 486.15C349.245 485.594 350.016 485.315 351.012 485.315C351.387 485.315 351.759 485.365 352.128 485.465L352.04 486.783C351.765 486.73 351.472 486.704 351.161 486.704C350.634 486.704 350.227 486.859 349.939 487.17C349.652 487.475 349.509 487.914 349.509 488.488V489.49H351.539V490.747H349.509V499H347.883ZM357.076 499.176C355.787 499.176 354.738 498.754 353.93 497.91C353.121 497.061 352.717 495.927 352.717 494.509V494.21C352.717 493.267 352.896 492.426 353.253 491.688C353.616 490.943 354.12 490.363 354.765 489.947C355.415 489.525 356.118 489.314 356.874 489.314C358.11 489.314 359.071 489.722 359.757 490.536C360.442 491.351 360.785 492.517 360.785 494.034V494.711H354.343C354.366 495.648 354.639 496.407 355.16 496.987C355.688 497.562 356.355 497.849 357.164 497.849C357.738 497.849 358.225 497.731 358.623 497.497C359.021 497.263 359.37 496.952 359.669 496.565L360.662 497.339C359.865 498.563 358.67 499.176 357.076 499.176ZM356.874 490.65C356.218 490.65 355.667 490.891 355.222 491.371C354.776 491.846 354.501 492.514 354.396 493.375H359.159V493.252C359.112 492.426 358.89 491.787 358.491 491.336C358.093 490.879 357.554 490.65 356.874 490.65ZM368.546 499C368.452 498.812 368.376 498.479 368.317 497.998C367.562 498.783 366.659 499.176 365.61 499.176C364.673 499.176 363.902 498.912 363.299 498.385C362.701 497.852 362.402 497.178 362.402 496.363C362.402 495.373 362.777 494.605 363.527 494.061C364.283 493.51 365.344 493.234 366.709 493.234H368.291V492.487C368.291 491.919 368.121 491.468 367.781 491.134C367.441 490.794 366.94 490.624 366.278 490.624C365.698 490.624 365.212 490.771 364.819 491.063C364.427 491.356 364.23 491.711 364.23 492.127H362.596C362.596 491.652 362.763 491.195 363.097 490.756C363.437 490.311 363.894 489.959 364.468 489.701C365.048 489.443 365.684 489.314 366.375 489.314C367.471 489.314 368.329 489.59 368.95 490.141C369.571 490.686 369.894 491.438 369.917 492.399V496.776C369.917 497.649 370.028 498.344 370.251 498.859V499H368.546ZM365.848 497.761C366.357 497.761 366.841 497.629 367.298 497.365C367.755 497.102 368.086 496.759 368.291 496.337V494.386H367.017C365.024 494.386 364.028 494.969 364.028 496.135C364.028 496.645 364.198 497.043 364.538 497.33C364.878 497.617 365.314 497.761 365.848 497.761ZM374.672 487.188V489.49H376.447V490.747H374.672V496.645C374.672 497.025 374.751 497.312 374.909 497.506C375.067 497.693 375.337 497.787 375.718 497.787C375.905 497.787 376.163 497.752 376.491 497.682V499C376.063 499.117 375.647 499.176 375.243 499.176C374.517 499.176 373.969 498.956 373.6 498.517C373.23 498.077 373.046 497.453 373.046 496.645V490.747H371.314V489.49H373.046V487.188H374.672ZM384.226 498.06C383.593 498.804 382.664 499.176 381.439 499.176C380.426 499.176 379.652 498.883 379.119 498.297C378.592 497.705 378.325 496.832 378.319 495.678V489.49H379.945V495.634C379.945 497.075 380.531 497.796 381.703 497.796C382.945 497.796 383.771 497.333 384.182 496.407V489.49H385.808V499H384.261L384.226 498.06ZM392.883 490.949C392.637 490.908 392.37 490.888 392.083 490.888C391.017 490.888 390.293 491.342 389.912 492.25V499H388.286V489.49H389.868L389.895 490.589C390.428 489.739 391.184 489.314 392.162 489.314C392.479 489.314 392.719 489.355 392.883 489.438V490.949ZM398.156 499.176C396.867 499.176 395.818 498.754 395.01 497.91C394.201 497.061 393.797 495.927 393.797 494.509V494.21C393.797 493.267 393.976 492.426 394.333 491.688C394.696 490.943 395.2 490.363 395.845 489.947C396.495 489.525 397.198 489.314 397.954 489.314C399.19 489.314 400.151 489.722 400.837 490.536C401.522 491.351 401.865 492.517 401.865 494.034V494.711H395.423C395.446 495.648 395.719 496.407 396.24 496.987C396.768 497.562 397.436 497.849 398.244 497.849C398.818 497.849 399.305 497.731 399.703 497.497C400.102 497.263 400.45 496.952 400.749 496.565L401.742 497.339C400.945 498.563 399.75 499.176 398.156 499.176ZM397.954 490.65C397.298 490.65 396.747 490.891 396.302 491.371C395.856 491.846 395.581 492.514 395.476 493.375H400.239V493.252C400.192 492.426 399.97 491.787 399.571 491.336C399.173 490.879 398.634 490.65 397.954 490.65Z" fill="black"/>
    <path d="M425.796 120H424.1L417.657 110.139V120H415.961V107.203H417.657L424.117 117.108V107.203H425.796V120ZM432.484 120.176C431.195 120.176 430.146 119.754 429.338 118.91C428.529 118.061 428.125 116.927 428.125 115.509V115.21C428.125 114.267 428.304 113.426 428.661 112.688C429.024 111.943 429.528 111.363 430.173 110.947C430.823 110.525 431.526 110.314 432.282 110.314C433.519 110.314 434.479 110.722 435.165 111.536C435.851 112.351 436.193 113.517 436.193 115.034V115.711H429.751C429.774 116.648 430.047 117.407 430.568 117.987C431.096 118.562 431.764 118.849 432.572 118.849C433.146 118.849 433.633 118.731 434.031 118.497C434.43 118.263 434.778 117.952 435.077 117.565L436.07 118.339C435.273 119.563 434.078 120.176 432.484 120.176ZM432.282 111.65C431.626 111.65 431.075 111.891 430.63 112.371C430.185 112.846 429.909 113.514 429.804 114.375H434.567V114.252C434.521 113.426 434.298 112.787 433.899 112.336C433.501 111.879 432.962 111.65 432.282 111.65ZM446.503 117.759L448.331 110.49H449.957L447.188 120H445.87L443.559 112.793L441.309 120H439.99L437.23 110.49H438.848L440.72 117.609L442.935 110.49H444.244L446.503 117.759ZM456.883 120V111.747H455.38V110.49H456.883V109.515C456.883 108.495 457.155 107.707 457.7 107.15C458.245 106.594 459.016 106.315 460.012 106.315C460.387 106.315 460.759 106.365 461.128 106.465L461.04 107.783C460.765 107.73 460.472 107.704 460.161 107.704C459.634 107.704 459.227 107.859 458.939 108.17C458.652 108.475 458.509 108.914 458.509 109.488V110.49H460.539V111.747H458.509V120H456.883ZM466.076 120.176C464.787 120.176 463.738 119.754 462.93 118.91C462.121 118.061 461.717 116.927 461.717 115.509V115.21C461.717 114.267 461.896 113.426 462.253 112.688C462.616 111.943 463.12 111.363 463.765 110.947C464.415 110.525 465.118 110.314 465.874 110.314C467.11 110.314 468.071 110.722 468.757 111.536C469.442 112.351 469.785 113.517 469.785 115.034V115.711H463.343C463.366 116.648 463.639 117.407 464.16 117.987C464.688 118.562 465.355 118.849 466.164 118.849C466.738 118.849 467.225 118.731 467.623 118.497C468.021 118.263 468.37 117.952 468.669 117.565L469.662 118.339C468.865 119.563 467.67 120.176 466.076 120.176ZM465.874 111.65C465.218 111.65 464.667 111.891 464.222 112.371C463.776 112.846 463.501 113.514 463.396 114.375H468.159V114.252C468.112 113.426 467.89 112.787 467.491 112.336C467.093 111.879 466.554 111.65 465.874 111.65ZM477.546 120C477.452 119.812 477.376 119.479 477.317 118.998C476.562 119.783 475.659 120.176 474.61 120.176C473.673 120.176 472.902 119.912 472.299 119.385C471.701 118.852 471.402 118.178 471.402 117.363C471.402 116.373 471.777 115.605 472.527 115.061C473.283 114.51 474.344 114.234 475.709 114.234H477.291V113.487C477.291 112.919 477.121 112.468 476.781 112.134C476.441 111.794 475.94 111.624 475.278 111.624C474.698 111.624 474.212 111.771 473.819 112.063C473.427 112.356 473.23 112.711 473.23 113.127H471.596C471.596 112.652 471.763 112.195 472.097 111.756C472.437 111.311 472.894 110.959 473.468 110.701C474.048 110.443 474.684 110.314 475.375 110.314C476.471 110.314 477.329 110.59 477.95 111.141C478.571 111.686 478.894 112.438 478.917 113.399V117.776C478.917 118.649 479.028 119.344 479.251 119.859V120H477.546ZM474.848 118.761C475.357 118.761 475.841 118.629 476.298 118.365C476.755 118.102 477.086 117.759 477.291 117.337V115.386H476.017C474.024 115.386 473.028 115.969 473.028 117.135C473.028 117.645 473.198 118.043 473.538 118.33C473.878 118.617 474.314 118.761 474.848 118.761ZM483.672 108.188V110.49H485.447V111.747H483.672V117.645C483.672 118.025 483.751 118.312 483.909 118.506C484.067 118.693 484.337 118.787 484.718 118.787C484.905 118.787 485.163 118.752 485.491 118.682V120C485.063 120.117 484.647 120.176 484.243 120.176C483.517 120.176 482.969 119.956 482.6 119.517C482.23 119.077 482.046 118.453 482.046 117.645V111.747H480.314V110.49H482.046V108.188H483.672ZM493.226 119.06C492.593 119.804 491.664 120.176 490.439 120.176C489.426 120.176 488.652 119.883 488.119 119.297C487.592 118.705 487.325 117.832 487.319 116.678V110.49H488.945V116.634C488.945 118.075 489.531 118.796 490.703 118.796C491.945 118.796 492.771 118.333 493.182 117.407V110.49H494.808V120H493.261L493.226 119.06ZM501.883 111.949C501.637 111.908 501.37 111.888 501.083 111.888C500.017 111.888 499.293 112.342 498.912 113.25V120H497.286V110.49H498.868L498.895 111.589C499.428 110.739 500.184 110.314 501.162 110.314C501.479 110.314 501.719 110.355 501.883 110.438V111.949ZM507.156 120.176C505.867 120.176 504.818 119.754 504.01 118.91C503.201 118.061 502.797 116.927 502.797 115.509V115.21C502.797 114.267 502.976 113.426 503.333 112.688C503.696 111.943 504.2 111.363 504.845 110.947C505.495 110.525 506.198 110.314 506.954 110.314C508.19 110.314 509.151 110.722 509.837 111.536C510.522 112.351 510.865 113.517 510.865 115.034V115.711H504.423C504.446 116.648 504.719 117.407 505.24 117.987C505.768 118.562 506.436 118.849 507.244 118.849C507.818 118.849 508.305 118.731 508.703 118.497C509.102 118.263 509.45 117.952 509.749 117.565L510.742 118.339C509.945 119.563 508.75 120.176 507.156 120.176ZM506.954 111.65C506.298 111.65 505.747 111.891 505.302 112.371C504.856 112.846 504.581 113.514 504.476 114.375H509.239V114.252C509.192 113.426 508.97 112.787 508.571 112.336C508.173 111.879 507.634 111.65 506.954 111.65Z" fill="black"/>
    <path d="M164.498 120V107.203H168.682C170.07 107.203 171.113 107.49 171.811 108.064C172.514 108.639 172.865 109.488 172.865 110.613C172.865 111.211 172.695 111.741 172.355 112.204C172.016 112.661 171.553 113.016 170.967 113.268C171.658 113.461 172.203 113.83 172.602 114.375C173.006 114.914 173.208 115.559 173.208 116.309C173.208 117.457 172.836 118.359 172.092 119.016C171.348 119.672 170.296 120 168.937 120H164.498ZM166.186 114.015V118.62H168.972C169.757 118.62 170.375 118.418 170.826 118.014C171.283 117.604 171.512 117.041 171.512 116.326C171.512 114.785 170.674 114.015 168.998 114.015H166.186ZM166.186 112.661H168.734C169.473 112.661 170.062 112.477 170.501 112.107C170.946 111.738 171.169 111.237 171.169 110.604C171.169 109.901 170.964 109.392 170.554 109.075C170.144 108.753 169.52 108.592 168.682 108.592H166.186V112.661ZM181.329 119.06C180.696 119.804 179.768 120.176 178.543 120.176C177.529 120.176 176.756 119.883 176.223 119.297C175.695 118.705 175.429 117.832 175.423 116.678V110.49H177.049V116.634C177.049 118.075 177.635 118.796 178.807 118.796C180.049 118.796 180.875 118.333 181.285 117.407V110.49H182.911V120H181.364L181.329 119.06ZM185.003 115.166C185.003 113.684 185.346 112.506 186.031 111.633C186.717 110.754 187.625 110.314 188.756 110.314C189.916 110.314 190.821 110.725 191.472 111.545L191.551 110.49H193.036V119.771C193.036 121.002 192.67 121.972 191.938 122.681C191.211 123.39 190.232 123.744 189.002 123.744C188.316 123.744 187.646 123.598 186.989 123.305C186.333 123.012 185.832 122.61 185.486 122.101L186.33 121.125C187.027 121.986 187.88 122.417 188.888 122.417C189.679 122.417 190.294 122.194 190.733 121.749C191.179 121.304 191.401 120.677 191.401 119.868V119.051C190.751 119.801 189.863 120.176 188.738 120.176C187.625 120.176 186.723 119.728 186.031 118.831C185.346 117.935 185.003 116.713 185.003 115.166ZM186.638 115.351C186.638 116.423 186.857 117.267 187.297 117.882C187.736 118.491 188.352 118.796 189.143 118.796C190.168 118.796 190.921 118.33 191.401 117.398V113.057C190.903 112.148 190.156 111.694 189.16 111.694C188.369 111.694 187.751 112.002 187.306 112.617C186.86 113.232 186.638 114.144 186.638 115.351ZM207.274 114.349H201.904V120H200.217V107.203H208.145V108.592H201.904V112.969H207.274V114.349ZM211.678 120H210.052V110.49H211.678V120ZM209.92 107.968C209.92 107.704 209.999 107.481 210.157 107.3C210.321 107.118 210.562 107.027 210.878 107.027C211.194 107.027 211.435 107.118 211.599 107.3C211.763 107.481 211.845 107.704 211.845 107.968C211.845 108.231 211.763 108.451 211.599 108.627C211.435 108.803 211.194 108.891 210.878 108.891C210.562 108.891 210.321 108.803 210.157 108.627C209.999 108.451 209.92 108.231 209.92 107.968ZM217.479 113.962L219.588 110.49H221.486L218.375 115.192L221.583 120H219.702L217.505 116.44L215.308 120H213.418L216.626 115.192L213.515 110.49H215.396L217.479 113.962Z" fill="black"/>
    <circle cx="84" cy="300" r="18" transform="rotate(90 84 300)" fill="#73FFE5" stroke="black" stroke-width="4"/>
    <circle cx="192" cy="300" r="18" transform="rotate(90 192 300)" fill="#73FFE5" stroke="black" stroke-width="4"/>
    <circle cx="408" cy="300" r="18" transform="rotate(90 408 300)" fill="#73FFE5" stroke="black" stroke-width="4"/>
    <circle cx="300" cy="441" r="18" transform="rotate(90 300 441)" fill="#E5FF73" stroke="black" stroke-width="4"/>
    <circle cx="192" cy="159" r="18" transform="rotate(90 192 159)" fill="#FFA492" stroke="black" stroke-width="4"/>
    <circle cx="408" cy="441" r="18" transform="rotate(90 408 441)" fill="#E5FF73" stroke="black" stroke-width="4"/>
    <circle cx="408" cy="159" r="18" transform="rotate(90 408 159)" fill="#CEC0FF" stroke="black" stroke-width="4"/>
    <circle cx="516" cy="159" r="18" transform="rotate(90 516 159)" fill="#CEC0FF" stroke="black" stroke-width="4"/>
    <circle cx="516" cy="300" r="18" transform="rotate(90 516 300)" fill="#73FFE5" stroke="black" stroke-width="4"/>
    <path d="M102 300H176" stroke="black" stroke-width="4"/>
    <path d="M424 300L496 300" stroke="black" stroke-width="4"/>
    <path d="M424 159L496 159" stroke="black" stroke-width="4"/>
    <path d="M316 300L388 300" stroke="black" stroke-width="4"/>
    <path d="M316 441L388 441" stroke="black" stroke-width="4"/>
    <path d="M210 300L282 300" stroke="black" stroke-width="4"/>
    <circle cx="300" cy="300" r="18" transform="rotate(90 300 300)" fill="#73FFE5" stroke="black" stroke-width="4"/>
    <path d="M174.5 159H158.5C147.454 159 138.5 167.954 138.5 179V280C138.5 291.046 129.546 300 118.5 300H102" stroke="black" stroke-width="4"/>
    <path d="M209 159V159C220.183 159 225.774 159 230.184 160.827C236.065 163.263 240.737 167.935 243.173 173.816C245 178.226 245 183.817 245 195V263.5C245 275.152 245 280.978 246.98 285.546C249.404 291.137 253.863 295.596 259.454 298.02C264.022 300 269.848 300 281.5 300V300" stroke="black" stroke-width="4"/>
    <path d="M388.5 159V159C377.317 159 371.726 159 367.316 160.827C361.435 163.263 356.763 167.935 354.327 173.816C352.5 178.226 352.5 183.817 352.5 195V263.5C352.5 275.152 352.5 280.978 350.52 285.546C348.096 291.137 343.637 295.596 338.046 298.02C333.478 300 327.652 300 316 300V300" stroke="black" stroke-width="4"/>
    <path d="M427 441V441C438.183 441 443.774 441 448.184 439.173C454.065 436.737 458.737 432.065 461.173 426.184C463 421.774 463 416.183 463 405V336.5C463 324.848 463 319.022 464.98 314.454C467.404 308.863 471.863 304.404 477.454 301.98C482.022 300 487.848 300 499.5 300V300" stroke="black" stroke-width="4"/>
    <path d="M209 300V300C220.183 300 225.774 300 230.184 301.827C236.065 304.263 240.737 308.935 243.173 314.816C245 319.226 245 324.817 245 336V404.5C245 416.152 245 421.978 246.98 426.546C249.404 432.137 253.863 436.596 259.454 439.02C264.022 441 269.848 441 281.5 441V441" stroke="black" stroke-width="4"/>
</svg>
