<svg width="600" height="600" viewBox="0 0 600 600" fill="none" xmlns="http://www.w3.org/2000/svg">
    <circle cx="84.5347" cy="300.188" r="29.8515" transform="rotate(90 84.5347 300.188)" fill="#73FFE5" stroke="black" stroke-width="6.63366"/>
    <circle cx="299.465" cy="436.178" r="29.8515" transform="rotate(90 299.465 436.178)" fill="#FFE173" stroke="black" stroke-width="6.63366"/>
    <circle cx="514.535" cy="436.178" r="29.8515" transform="rotate(90 514.535 436.178)" fill="#FFE173" stroke="black" stroke-width="6.63366"/>
    <circle cx="514.749" cy="163.535" r="29.8515" transform="rotate(90 514.749 163.535)" fill="#CEC0FF" stroke="black" stroke-width="6.63366"/>
    <circle cx="299.604" cy="300.188" r="29.8515" transform="rotate(90 299.604 300.188)" fill="#73FFE5" stroke="black" stroke-width="6.63366"/>
    <circle cx="514.673" cy="300.188" r="29.8515" transform="rotate(90 514.673 300.188)" fill="#73FFE5" stroke="black" stroke-width="6.63366"/>
    <path d="M114.717 300.188L121.351 300.188C150.66 300.188 174.42 323.948 174.42 353.258L174.42 383.441C174.42 412.75 198.18 436.51 227.49 436.51L269.613 436.51" stroke="black" stroke-width="6.63366" stroke-linecap="round" stroke-linejoin="round"/>
    <path d="M330 299.856L336.634 299.856C365.943 299.856 389.703 276.097 389.703 246.787L389.703 216.604C389.703 187.295 413.463 163.535 442.773 163.535L484.896 163.535" stroke="black" stroke-width="6.63366" stroke-linecap="round" stroke-linejoin="round"/>
    <path d="M115.381 300.188L269.613 300.188" stroke="black" stroke-width="6.63366" stroke-linecap="round" stroke-linejoin="round"/>
    <path d="M330 300.188L484.232 300.188" stroke="black" stroke-width="6.63366" stroke-linecap="round" stroke-linejoin="round"/>
    <path d="M330 436.856L484.232 436.856" stroke="black" stroke-width="6.63366" stroke-linecap="round" stroke-linejoin="round"/>
</svg>
