<svg width="676" height="234" viewBox="0 0 676 234" fill="none" xmlns="http://www.w3.org/2000/svg">
    <path d="M244.63 27.0694C244.117 27.2738 243.867 27.8554 244.071 28.3685C244.275 28.8816 244.857 29.1318 245.37 28.9275L244.63 27.0694ZM355.653 77.4365C356.171 77.628 356.747 77.3632 356.938 76.8452L360.058 68.4032C360.249 67.8851 359.984 67.31 359.466 67.1185C358.948 66.9271 358.373 67.1919 358.182 67.7099L355.409 75.2139L347.905 72.4408C347.387 72.2494 346.811 72.5142 346.62 73.0322C346.429 73.5503 346.693 74.1254 347.211 74.3168L355.653 77.4365ZM245.37 28.9275C274.579 17.2935 298.377 21.516 316.673 32.4818C335.016 43.4755 347.9 61.2936 355.092 76.9167L356.908 76.0804C349.6 60.2049 336.484 42.023 317.702 30.7663C298.873 19.4817 274.421 15.2034 244.63 27.0694L245.37 28.9275Z" fill="#73FFE5"/>
    <path d="M501.132 27.0086C501.68 27.0816 502.064 27.5846 501.991 28.132C501.918 28.6795 501.415 29.0641 500.868 28.9911L501.132 27.0086ZM445.707 77.2054C445.317 77.596 444.683 77.596 444.293 77.2054L437.929 70.8415C437.538 70.451 437.538 69.8178 437.929 69.4273C438.319 69.0367 438.953 69.0367 439.343 69.4273L445 75.0841L450.657 69.4273C451.047 69.0367 451.681 69.0367 452.071 69.4273C452.462 69.8178 452.462 70.451 452.071 70.8415L445.707 77.2054ZM500.868 28.9911C486.076 27.0188 472.365 30.1118 462.371 38.0334C452.397 45.9397 446 58.7548 446 76.4983H444C444 58.2435 450.603 44.8095 461.129 36.4661C471.635 28.1381 485.924 24.9809 501.132 27.0086L500.868 28.9911Z" fill="#73FFE5"/>
    <path d="M276 206.499C275.448 206.499 275 206.051 275 205.499C275 204.946 275.448 204.499 276 204.499L276 206.499ZM330.793 138.293C331.183 137.902 331.817 137.902 332.207 138.293L338.571 144.657C338.962 145.047 338.962 145.68 338.571 146.071C338.181 146.461 337.547 146.461 337.157 146.071L331.5 140.414L325.843 146.071C325.453 146.461 324.819 146.461 324.429 146.071C324.038 145.68 324.038 145.047 324.429 144.657L330.793 138.293ZM276 204.499C298.754 204.499 312.274 196.974 320.169 185.192C328.122 173.324 330.5 156.953 330.5 139H332.5C332.5 157.045 330.128 173.923 321.831 186.305C313.476 198.773 299.246 206.499 276 206.499L276 204.499Z" fill="#73FFE5"/>
    <rect x="498" width="178" height="56" rx="28" fill="#73FFE5"/>
    <path d="M519.578 24V13.9922H523.133V12.7266H514.617V13.9922H518.172V24H519.578ZM527.688 21.6719C527.461 22.4375 526.703 22.9609 525.672 22.9609C524.211 22.9609 523.297 21.9375 523.297 20.3828V20.3047H529.125V19.7891C529.125 17.3281 527.773 15.7344 525.578 15.7344C523.336 15.7344 521.898 17.4453 521.898 19.9688C521.898 22.5234 523.312 24.1406 525.641 24.1406C527.414 24.1406 528.789 23.0938 529.023 21.6719H527.688ZM525.555 16.9141C526.836 16.9141 527.688 17.8828 527.719 19.2422H523.305C523.391 17.8906 524.281 16.9141 525.555 16.9141ZM533.219 20.9062L535.164 24H536.672L533.969 19.8828L536.711 15.875H535.195L533.266 18.9219H533.234L531.281 15.875H529.766L532.484 19.9375L529.719 24H531.227L533.188 20.9062H533.219ZM538.297 13.9141V15.875H537.086V16.9922H538.297V21.8906C538.297 23.4531 538.875 24.0625 540.367 24.0625C540.688 24.0625 541.062 24.0391 541.227 24V22.8594C541.133 22.875 540.82 22.8984 540.664 22.8984C539.969 22.8984 539.656 22.5625 539.656 21.8203V16.9922H541.234V15.875H539.656V13.9141H538.297ZM553.086 20.0625V18.7969H545.086V20.0625H553.086ZM558.742 20.0938L562.234 24H563.984L560.094 19.7188L563.875 15.875H562.195L558.742 19.4688H558.68V15.875H557.32V24H558.68V20.0938H558.742ZM567.227 20.4141L567.477 16.9922H570.211V24H571.57V15.875H566.25L565.938 20.3828C565.836 21.875 565.531 22.8203 564.727 22.8203C564.531 22.8203 564.383 22.7812 564.312 22.7578V23.9844C564.406 24.0234 564.562 24.0703 564.797 24.0703C566.508 24.0703 567.062 22.6562 567.227 20.4141ZM575.875 24.1406C576.969 24.1406 578 23.5312 578.484 22.6016H578.516V24H579.805V18.3828C579.805 16.7656 578.602 15.7344 576.695 15.7344C574.773 15.7344 573.57 16.8125 573.477 18.2188H574.789C574.961 17.4219 575.617 16.9297 576.664 16.9297C577.789 16.9297 578.445 17.5234 578.445 18.5156V19.1953L576.117 19.3281C574.242 19.4375 573.172 20.3125 573.172 21.7031C573.172 23.1641 574.258 24.1406 575.875 24.1406ZM576.18 22.9844C575.203 22.9844 574.555 22.4766 574.555 21.7031C574.555 20.9375 575.18 20.4531 576.273 20.3828L578.445 20.25V20.9141C578.445 22.0859 577.461 22.9844 576.18 22.9844ZM588.438 18.5391C588.266 17.0781 587.055 15.7344 585.023 15.7344C582.781 15.7344 581.289 17.375 581.289 19.9375C581.289 22.5547 582.789 24.1406 585.039 24.1406C586.883 24.1406 588.242 23 588.453 21.3828H587.117C586.883 22.3594 586.156 22.9453 585.047 22.9453C583.641 22.9453 582.672 21.8281 582.672 19.9375C582.672 18.0938 583.625 16.9297 585.031 16.9297C586.227 16.9297 586.914 17.6562 587.109 18.5391H588.438ZM596.609 18.5391C596.438 17.0781 595.227 15.7344 593.195 15.7344C590.953 15.7344 589.461 17.375 589.461 19.9375C589.461 22.5547 590.961 24.1406 593.211 24.1406C595.055 24.1406 596.414 23 596.625 21.3828H595.289C595.055 22.3594 594.328 22.9453 593.219 22.9453C591.812 22.9453 590.844 21.8281 590.844 19.9375C590.844 18.0938 591.797 16.9297 593.203 16.9297C594.398 16.9297 595.086 17.6562 595.281 18.5391H596.609ZM604.805 24C606.531 24 607.594 23.1016 607.594 21.6641C607.594 20.6719 606.922 19.9453 605.898 19.8047V19.7422C606.648 19.5859 607.234 18.8125 607.234 17.9766C607.234 16.6719 606.305 15.875 604.781 15.875H601.305V24H604.805ZM602.664 16.9766H604.578C605.43 16.9766 605.891 17.3828 605.891 18.1172C605.891 18.9062 605.398 19.2891 604.375 19.2891H602.664V16.9766ZM602.664 20.3828H604.484C605.672 20.3828 606.242 20.7891 606.242 21.6328C606.242 22.4531 605.711 22.8984 604.727 22.8984H602.664V20.3828ZM612.648 24C614.375 24 615.438 23.1016 615.438 21.6641C615.438 20.6719 614.766 19.9453 613.742 19.8047V19.7422C614.492 19.5859 615.078 18.8125 615.078 17.9766C615.078 16.6719 614.148 15.875 612.625 15.875H609.148V24H612.648ZM610.508 16.9766H612.422C613.273 16.9766 613.734 17.3828 613.734 18.1172C613.734 18.9062 613.242 19.2891 612.219 19.2891H610.508V16.9766ZM610.508 20.3828H612.328C613.516 20.3828 614.086 20.7891 614.086 21.6328C614.086 22.4531 613.555 22.8984 612.57 22.8984H610.508V20.3828ZM620.367 24.1406C622.609 24.1406 624.125 22.5234 624.125 19.9375C624.125 17.3438 622.609 15.7344 620.367 15.7344C618.117 15.7344 616.602 17.3438 616.602 19.9375C616.602 22.5234 618.117 24.1406 620.367 24.1406ZM620.367 22.9453C618.93 22.9453 617.984 21.8516 617.984 19.9375C617.984 18.0234 618.93 16.9297 620.367 16.9297C621.805 16.9297 622.742 18.0234 622.742 19.9375C622.742 21.8516 621.805 22.9453 620.367 22.9453ZM625.953 26.1484V24H632.258V26.1484H633.523V22.8828H632.234V15.875H626.641L626.328 20.3828C626.25 21.4766 625.961 22.4922 625.367 22.8828H624.688V26.1484H625.953ZM630.883 22.8828H626.922V22.8203C627.305 22.3047 627.516 21.4219 627.586 20.4141L627.836 16.9922H630.883V22.8828ZM640.078 24H641.438V15.875H640.078V19.2266H636.102V15.875H634.742V24H636.102V20.3438H640.078V24ZM646.727 24.1406C648.969 24.1406 650.484 22.5234 650.484 19.9375C650.484 17.3438 648.969 15.7344 646.727 15.7344C644.477 15.7344 642.961 17.3438 642.961 19.9375C642.961 22.5234 644.477 24.1406 646.727 24.1406ZM646.727 22.9453C645.289 22.9453 644.344 21.8516 644.344 19.9375C644.344 18.0234 645.289 16.9297 646.727 16.9297C648.164 16.9297 649.102 18.0234 649.102 19.9375C649.102 21.8516 648.164 22.9453 646.727 22.9453ZM652.922 12.3594C652.922 13.7969 653.945 14.7812 655.438 14.7812C656.93 14.7812 657.953 13.7969 657.953 12.3594H656.953C656.953 13.2656 656.367 13.9766 655.438 13.9766C654.508 13.9766 653.922 13.2656 653.922 12.3594H652.922ZM653.352 24L657.398 17.9609H657.461V24H658.82V15.875H657.477L653.43 21.9141H653.367V15.875H652.008V24H653.352ZM568.523 39.5625C568.523 42.2812 569.242 44.4922 570.742 46.3984H571.883C570.773 45.1094 569.906 42.1172 569.906 39.5625C569.906 37.0078 570.773 34.0156 571.883 32.7266H570.742C569.242 34.6328 568.523 36.8438 568.523 39.5625ZM573.516 33.9141V35.875H572.305V36.9922H573.516V41.8906C573.516 43.4531 574.094 44.0625 575.586 44.0625C575.906 44.0625 576.281 44.0391 576.445 44V42.8594C576.352 42.875 576.039 42.8984 575.883 42.8984C575.188 42.8984 574.875 42.5625 574.875 41.8203V36.9922H576.453V35.875H574.875V33.9141H573.516ZM578.586 47.0391C580.055 47.0391 580.727 46.4688 581.422 44.5703L584.617 35.875H583.188L580.938 42.6406H580.914L578.664 35.875H577.211L580.211 44.0078L580.023 44.5781C579.711 45.5234 579.289 45.8906 578.531 45.8906C578.359 45.8906 578.148 45.8828 578 45.8516V46.9922C578.148 47.0234 578.422 47.0391 578.586 47.0391ZM589.633 35.7344C588.453 35.7344 587.508 36.3359 587.008 37.25H586.977V35.875H585.688V46.7109H587.047V42.6797H587.078C587.562 43.5703 588.5 44.1406 589.664 44.1406C591.711 44.1406 593.109 42.4844 593.109 39.9375C593.109 37.3906 591.703 35.7344 589.633 35.7344ZM589.367 42.9453C587.977 42.9453 587.039 41.75 587.039 39.9375C587.039 38.1328 587.977 36.9297 589.367 36.9297C590.812 36.9297 591.719 38.1016 591.719 39.9375C591.719 41.7812 590.812 42.9453 589.367 42.9453ZM599.875 41.6719C599.648 42.4375 598.891 42.9609 597.859 42.9609C596.398 42.9609 595.484 41.9375 595.484 40.3828V40.3047H601.312V39.7891C601.312 37.3281 599.961 35.7344 597.766 35.7344C595.523 35.7344 594.086 37.4453 594.086 39.9688C594.086 42.5234 595.5 44.1406 597.828 44.1406C599.602 44.1406 600.977 43.0938 601.211 41.6719H599.875ZM597.742 36.9141C599.023 36.9141 599.875 37.8828 599.906 39.2422H595.492C595.578 37.8906 596.469 36.9141 597.742 36.9141ZM605.477 39.5625C605.477 36.8438 604.758 34.6328 603.258 32.7266H602.117C603.227 34.0156 604.094 37.0078 604.094 39.5625C604.094 42.1172 603.227 45.1094 602.117 46.3984H603.258C604.758 44.4922 605.477 42.2812 605.477 39.5625Z" fill="black"/>
    <rect y="178" width="276" height="56" rx="28" fill="#73FFE5"/>
    <path d="M20.3047 196.867H21.8906C23.5156 196.867 24.4844 197.633 24.4844 198.922C24.4844 200.164 23.4531 201.016 21.9453 201.016C20.3984 201.016 19.3203 200.25 19.1953 199.062H17.8359C17.9375 200.984 19.5859 202.266 21.9609 202.266C24.1875 202.266 25.9297 200.82 25.9297 198.961C25.9297 197.43 25.0078 196.352 23.5078 196.156V196.094C24.75 195.789 25.6016 194.727 25.6016 193.477C25.6016 191.719 24.0938 190.461 21.9844 190.461C19.7422 190.461 18.2812 191.664 18.1406 193.617H19.5078C19.625 192.43 20.5312 191.711 21.9297 191.711C23.3125 191.711 24.1719 192.438 24.1719 193.602C24.1719 194.781 23.2031 195.617 21.8281 195.617H20.3047V196.867ZM32.8047 202H34.1641V193.875H32.8047V197.227H28.8281V193.875H27.4688V202H28.8281V198.344H32.8047V202ZM38.4609 202.141C39.5547 202.141 40.5859 201.531 41.0703 200.602H41.1016V202H42.3906V196.383C42.3906 194.766 41.1875 193.734 39.2812 193.734C37.3594 193.734 36.1562 194.812 36.0625 196.219H37.375C37.5469 195.422 38.2031 194.93 39.25 194.93C40.375 194.93 41.0312 195.523 41.0312 196.516V197.195L38.7031 197.328C36.8281 197.438 35.7578 198.312 35.7578 199.703C35.7578 201.164 36.8438 202.141 38.4609 202.141ZM38.7656 200.984C37.7891 200.984 37.1406 200.477 37.1406 199.703C37.1406 198.938 37.7656 198.453 38.8594 198.383L41.0312 198.25V198.914C41.0312 200.086 40.0469 200.984 38.7656 200.984ZM45.6875 198.094L49.1797 202H50.9297L47.0391 197.719L50.8203 193.875H49.1406L45.6875 197.469H45.625V193.875H44.2656V202H45.625V198.094H45.6875ZM59.2969 193.734C58.1172 193.734 57.1719 194.336 56.6719 195.25H56.6406V193.875H55.3516V204.711H56.7109V200.68H56.7422C57.2266 201.57 58.1641 202.141 59.3281 202.141C61.375 202.141 62.7734 200.484 62.7734 197.938C62.7734 195.391 61.3672 193.734 59.2969 193.734ZM59.0312 200.945C57.6406 200.945 56.7031 199.75 56.7031 197.938C56.7031 196.133 57.6406 194.93 59.0312 194.93C60.4766 194.93 61.3828 196.102 61.3828 197.938C61.3828 199.781 60.4766 200.945 59.0312 200.945ZM66.6797 202.141C67.7734 202.141 68.8047 201.531 69.2891 200.602H69.3203V202H70.6094V196.383C70.6094 194.766 69.4062 193.734 67.5 193.734C65.5781 193.734 64.375 194.812 64.2812 196.219H65.5938C65.7656 195.422 66.4219 194.93 67.4688 194.93C68.5938 194.93 69.25 195.523 69.25 196.516V197.195L66.9219 197.328C65.0469 197.438 63.9766 198.312 63.9766 199.703C63.9766 201.164 65.0625 202.141 66.6797 202.141ZM66.9844 200.984C66.0078 200.984 65.3594 200.477 65.3594 199.703C65.3594 198.938 65.9844 198.453 67.0781 198.383L69.25 198.25V198.914C69.25 200.086 68.2656 200.984 66.9844 200.984ZM75.9844 202C77.7109 202 78.7734 201.102 78.7734 199.664C78.7734 198.672 78.1016 197.945 77.0781 197.805V197.742C77.8281 197.586 78.4141 196.812 78.4141 195.977C78.4141 194.672 77.4844 193.875 75.9609 193.875H72.4844V202H75.9844ZM73.8438 194.977H75.7578C76.6094 194.977 77.0703 195.383 77.0703 196.117C77.0703 196.906 76.5781 197.289 75.5547 197.289H73.8438V194.977ZM73.8438 198.383H75.6641C76.8516 198.383 77.4219 198.789 77.4219 199.633C77.4219 200.453 76.8906 200.898 75.9062 200.898H73.8438V198.383ZM85.6641 202H87.0234V193.875H85.6641V197.227H81.6875V193.875H80.3281V202H81.6875V198.344H85.6641V202ZM92.3125 202.141C94.5547 202.141 96.0703 200.523 96.0703 197.938C96.0703 195.344 94.5547 193.734 92.3125 193.734C90.0625 193.734 88.5469 195.344 88.5469 197.938C88.5469 200.523 90.0625 202.141 92.3125 202.141ZM92.3125 200.945C90.875 200.945 89.9297 199.852 89.9297 197.938C89.9297 196.023 90.875 194.93 92.3125 194.93C93.75 194.93 94.6875 196.023 94.6875 197.938C94.6875 199.852 93.75 200.945 92.3125 200.945ZM104.25 202.141C106.492 202.141 108.008 200.523 108.008 197.938C108.008 195.344 106.492 193.734 104.25 193.734C102 193.734 100.484 195.344 100.484 197.938C100.484 200.523 102 202.141 104.25 202.141ZM104.25 200.945C102.812 200.945 101.867 199.852 101.867 197.938C101.867 196.023 102.812 194.93 104.25 194.93C105.688 194.93 106.625 196.023 106.625 197.938C106.625 199.852 105.688 200.945 104.25 200.945ZM112.242 202.141C114.148 202.141 115.414 201.125 115.414 199.625C115.414 198.711 114.859 198.039 113.789 197.805V197.742C114.633 197.547 115.188 196.797 115.188 195.953C115.188 194.633 114.18 193.734 112.328 193.734C110.609 193.734 109.438 194.586 109.266 195.93H110.586C110.695 195.281 111.367 194.867 112.328 194.867C113.375 194.867 113.859 195.367 113.859 196.062C113.859 196.883 113.312 197.289 112.242 197.289H111.023V198.398H112.242C113.469 198.398 114.078 198.797 114.078 199.688C114.078 200.461 113.422 201.016 112.242 201.016C111.234 201.016 110.562 200.602 110.406 199.891H109.031C109.172 201.266 110.461 202.141 112.242 202.141ZM122.305 202H123.664V193.875H122.305V197.227H118.328V193.875H116.969V202H118.328V198.344H122.305V202ZM127.961 202.141C129.055 202.141 130.086 201.531 130.57 200.602H130.602V202H131.891V196.383C131.891 194.766 130.688 193.734 128.781 193.734C126.859 193.734 125.656 194.812 125.562 196.219H126.875C127.047 195.422 127.703 194.93 128.75 194.93C129.875 194.93 130.531 195.523 130.531 196.516V197.195L128.203 197.328C126.328 197.438 125.258 198.312 125.258 199.703C125.258 201.164 126.344 202.141 127.961 202.141ZM128.266 200.984C127.289 200.984 126.641 200.477 126.641 199.703C126.641 198.938 127.266 198.453 128.359 198.383L130.531 198.25V198.914C130.531 200.086 129.547 200.984 128.266 200.984ZM139.961 202V193.875H138.602V197.297C138.219 197.68 137.508 197.938 136.602 197.938C135.477 197.938 134.922 197.258 134.922 196.195V193.875H133.562V196.211C133.562 197.945 134.586 199.125 136.555 199.125C137.414 199.125 138.023 198.938 138.484 198.633H138.602V202H139.961ZM144.258 202.141C145.352 202.141 146.383 201.531 146.867 200.602H146.898V202H148.188V196.383C148.188 194.766 146.984 193.734 145.078 193.734C143.156 193.734 141.953 194.812 141.859 196.219H143.172C143.344 195.422 144 194.93 145.047 194.93C146.172 194.93 146.828 195.523 146.828 196.516V197.195L144.5 197.328C142.625 197.438 141.555 198.312 141.555 199.703C141.555 201.164 142.641 202.141 144.258 202.141ZM144.562 200.984C143.586 200.984 142.938 200.477 142.938 199.703C142.938 198.938 143.562 198.453 144.656 198.383L146.828 198.25V198.914C146.828 200.086 145.844 200.984 144.562 200.984ZM155.461 199.672C155.234 200.438 154.477 200.961 153.445 200.961C151.984 200.961 151.07 199.938 151.07 198.383V198.305H156.898V197.789C156.898 195.328 155.547 193.734 153.352 193.734C151.109 193.734 149.672 195.445 149.672 197.969C149.672 200.523 151.086 202.141 153.414 202.141C155.188 202.141 156.562 201.094 156.797 199.672H155.461ZM153.328 194.914C154.609 194.914 155.461 195.883 155.492 197.242H151.078C151.164 195.891 152.055 194.914 153.328 194.914ZM164.055 193.875H157.461V194.992H160.078V202H161.438V194.992H164.055V193.875ZM165.625 204.242L166.695 200.266H165.25L164.492 204.242H165.625ZM177.523 202V193.875H176.164V197.297C175.781 197.68 175.07 197.938 174.164 197.938C173.039 197.938 172.484 197.258 172.484 196.195V193.875H171.125V196.211C171.125 197.945 172.148 199.125 174.117 199.125C174.977 199.125 175.586 198.938 176.047 198.633H176.164V202H177.523ZM185.383 193.875H178.789V194.992H181.406V202H182.766V194.992H185.383V193.875ZM189.859 202.141C192.102 202.141 193.617 200.523 193.617 197.938C193.617 195.344 192.102 193.734 189.859 193.734C187.609 193.734 186.094 195.344 186.094 197.938C186.094 200.523 187.609 202.141 189.859 202.141ZM189.859 200.945C188.422 200.945 187.477 199.852 187.477 197.938C187.477 196.023 188.422 194.93 189.859 194.93C191.297 194.93 192.234 196.023 192.234 197.938C192.234 199.852 191.297 200.945 189.859 200.945ZM199.766 202V196.234H199.82L202.445 201.766H203.484L206.109 196.234H206.164V202H207.516V193.875H205.93L203.023 200.203H202.961L200.07 193.875H198.422V202H199.766ZM216.375 202H217.719V193.875H216.375V202ZM209.422 202H212.305C214.164 202 215.359 200.93 215.359 199.234C215.359 197.539 214.164 196.469 212.305 196.469H210.781V193.875H209.422V202ZM212.281 197.586C213.328 197.586 214.016 198.234 214.016 199.234C214.016 200.227 213.336 200.883 212.281 200.883H210.781V197.586H212.281ZM223.367 204.148V202H229.672V204.148H230.938V200.883H229.648V193.875H224.055L223.742 198.383C223.664 199.477 223.375 200.492 222.781 200.883H222.102V204.148H223.367ZM228.297 200.883H224.336V200.82C224.719 200.305 224.93 199.422 225 198.414L225.25 194.992H228.297V200.883ZM234.539 202.141C235.633 202.141 236.664 201.531 237.148 200.602H237.18V202H238.469V196.383C238.469 194.766 237.266 193.734 235.359 193.734C233.438 193.734 232.234 194.812 232.141 196.219H233.453C233.625 195.422 234.281 194.93 235.328 194.93C236.453 194.93 237.109 195.523 237.109 196.516V197.195L234.781 197.328C232.906 197.438 231.836 198.312 231.836 199.703C231.836 201.164 232.922 202.141 234.539 202.141ZM234.844 200.984C233.867 200.984 233.219 200.477 233.219 199.703C233.219 198.938 233.844 198.453 234.938 198.383L237.109 198.25V198.914C237.109 200.086 236.125 200.984 234.844 200.984ZM245.742 199.672C245.516 200.438 244.758 200.961 243.727 200.961C242.266 200.961 241.352 199.938 241.352 198.383V198.305H247.18V197.789C247.18 195.328 245.828 193.734 243.633 193.734C241.391 193.734 239.953 195.445 239.953 197.969C239.953 200.523 241.367 202.141 243.695 202.141C245.469 202.141 246.844 201.094 247.078 199.672H245.742ZM243.609 194.914C244.891 194.914 245.742 195.883 245.773 197.242H241.359C241.445 195.891 242.336 194.914 243.609 194.914ZM250.047 202V196.234H250.102L252.727 201.766H253.766L256.391 196.234H256.445V202H257.797V193.875H256.211L253.305 200.203H253.242L250.352 193.875H248.703V202H250.047ZM42.5938 222H43.9609V213.875H37.3359V222H38.6953V214.992H42.5938V222ZM51.2656 219.672C51.0391 220.438 50.2812 220.961 49.25 220.961C47.7891 220.961 46.875 219.938 46.875 218.383V218.305H52.7031V217.789C52.7031 215.328 51.3516 213.734 49.1562 213.734C46.9141 213.734 45.4766 215.445 45.4766 217.969C45.4766 220.523 46.8906 222.141 49.2188 222.141C50.9922 222.141 52.3672 221.094 52.6016 219.672H51.2656ZM49.1328 214.914C50.4141 214.914 51.2656 215.883 51.2969 217.242H46.8828C46.9688 215.891 47.8594 214.914 49.1328 214.914ZM58.1797 213.734C57 213.734 56.0547 214.336 55.5547 215.25H55.5234V213.875H54.2344V224.711H55.5938V220.68H55.625C56.1094 221.57 57.0469 222.141 58.2109 222.141C60.2578 222.141 61.6562 220.484 61.6562 217.938C61.6562 215.391 60.25 213.734 58.1797 213.734ZM57.9141 220.945C56.5234 220.945 55.5859 219.75 55.5859 217.938C55.5859 216.133 56.5234 214.93 57.9141 214.93C59.3594 214.93 60.2656 216.102 60.2656 217.938C60.2656 219.781 59.3594 220.945 57.9141 220.945ZM68.5781 219.672C68.3516 220.438 67.5938 220.961 66.5625 220.961C65.1016 220.961 64.1875 219.938 64.1875 218.383V218.305H70.0156V217.789C70.0156 215.328 68.6641 213.734 66.4688 213.734C64.2266 213.734 62.7891 215.445 62.7891 217.969C62.7891 220.523 64.2031 222.141 66.5312 222.141C68.3047 222.141 69.6797 221.094 69.9141 219.672H68.5781ZM66.4453 214.914C67.7266 214.914 68.5781 215.883 68.6094 217.242H64.1953C64.2812 215.891 65.1719 214.914 66.4453 214.914ZM72.8828 222V216.234H72.9375L75.5625 221.766H76.6016L79.2266 216.234H79.2812V222H80.6328V213.875H79.0469L76.1406 220.203H76.0781L73.1875 213.875H71.5391V222H72.8828ZM87.9375 219.672C87.7109 220.438 86.9531 220.961 85.9219 220.961C84.4609 220.961 83.5469 219.938 83.5469 218.383V218.305H89.375V217.789C89.375 215.328 88.0234 213.734 85.8281 213.734C83.5859 213.734 82.1484 215.445 82.1484 217.969C82.1484 220.523 83.5625 222.141 85.8906 222.141C87.6641 222.141 89.0391 221.094 89.2734 219.672H87.9375ZM85.8047 214.914C87.0859 214.914 87.9375 215.883 87.9688 217.242H83.5547C83.6406 215.891 84.5312 214.914 85.8047 214.914ZM96.2344 222H97.5938V213.875H96.2344V217.227H92.2578V213.875H90.8984V222H92.2578V218.344H96.2344V222ZM104.844 222H106.203V213.875H104.844V217.227H100.867V213.875H99.5078V222H100.867V218.344H104.844V222ZM111.492 222.141C113.734 222.141 115.25 220.523 115.25 217.938C115.25 215.344 113.734 213.734 111.492 213.734C109.242 213.734 107.727 215.344 107.727 217.938C107.727 220.523 109.242 222.141 111.492 222.141ZM111.492 220.945C110.055 220.945 109.109 219.852 109.109 217.938C109.109 216.023 110.055 214.93 111.492 214.93C112.93 214.93 113.867 216.023 113.867 217.938C113.867 219.852 112.93 220.945 111.492 220.945ZM117.688 210.359C117.688 211.797 118.711 212.781 120.203 212.781C121.695 212.781 122.719 211.797 122.719 210.359H121.719C121.719 211.266 121.133 211.977 120.203 211.977C119.273 211.977 118.688 211.266 118.688 210.359H117.688ZM118.117 222L122.164 215.961H122.227V222H123.586V213.875H122.242L118.195 219.914H118.133V213.875H116.773V222H118.117ZM134.109 222H135.469V213.875H134.109V217.227H130.133V213.875H128.773V222H130.133V218.344H134.109V222ZM140.758 222.141C143 222.141 144.516 220.523 144.516 217.938C144.516 215.344 143 213.734 140.758 213.734C138.508 213.734 136.992 215.344 136.992 217.938C136.992 220.523 138.508 222.141 140.758 222.141ZM140.758 220.945C139.32 220.945 138.375 219.852 138.375 217.938C138.375 216.023 139.32 214.93 140.758 214.93C142.195 214.93 143.133 216.023 143.133 217.938C143.133 219.852 142.195 220.945 140.758 220.945ZM149.539 222C151.266 222 152.328 221.102 152.328 219.664C152.328 218.672 151.656 217.945 150.633 217.805V217.742C151.383 217.586 151.969 216.812 151.969 215.977C151.969 214.672 151.039 213.875 149.516 213.875H146.039V222H149.539ZM147.398 214.977H149.312C150.164 214.977 150.625 215.383 150.625 216.117C150.625 216.906 150.133 217.289 149.109 217.289H147.398V214.977ZM147.398 218.383H149.219C150.406 218.383 150.977 218.789 150.977 219.633C150.977 220.453 150.445 220.898 149.461 220.898H147.398V218.383ZM157.258 222.141C159.5 222.141 161.016 220.523 161.016 217.938C161.016 215.344 159.5 213.734 157.258 213.734C155.008 213.734 153.492 215.344 153.492 217.938C153.492 220.523 155.008 222.141 157.258 222.141ZM157.258 220.945C155.82 220.945 154.875 219.852 154.875 217.938C154.875 216.023 155.82 214.93 157.258 214.93C158.695 214.93 159.633 216.023 159.633 217.938C159.633 219.852 158.695 220.945 157.258 220.945ZM167.938 219.672C167.711 220.438 166.953 220.961 165.922 220.961C164.461 220.961 163.547 219.938 163.547 218.383V218.305H169.375V217.789C169.375 215.328 168.023 213.734 165.828 213.734C163.586 213.734 162.148 215.445 162.148 217.969C162.148 220.523 163.562 222.141 165.891 222.141C167.664 222.141 169.039 221.094 169.273 219.672H167.938ZM165.805 214.914C167.086 214.914 167.938 215.883 167.969 217.242H163.555C163.641 215.891 164.531 214.914 165.805 214.914ZM176.891 222.141C178.797 222.141 180.062 221.125 180.062 219.625C180.062 218.711 179.508 218.039 178.438 217.805V217.742C179.281 217.547 179.836 216.797 179.836 215.953C179.836 214.633 178.828 213.734 176.977 213.734C175.258 213.734 174.086 214.586 173.914 215.93H175.234C175.344 215.281 176.016 214.867 176.977 214.867C178.023 214.867 178.508 215.367 178.508 216.062C178.508 216.883 177.961 217.289 176.891 217.289H175.672V218.398H176.891C178.117 218.398 178.727 218.797 178.727 219.688C178.727 220.461 178.07 221.016 176.891 221.016C175.883 221.016 175.211 220.602 175.055 219.891H173.68C173.82 221.266 175.109 222.141 176.891 222.141ZM186.953 222H188.312V213.875H186.953V217.227H182.977V213.875H181.617V222H182.977V218.344H186.953V222ZM192.609 222.141C193.703 222.141 194.734 221.531 195.219 220.602H195.25V222H196.539V216.383C196.539 214.766 195.336 213.734 193.43 213.734C191.508 213.734 190.305 214.812 190.211 216.219H191.523C191.695 215.422 192.352 214.93 193.398 214.93C194.523 214.93 195.18 215.523 195.18 216.516V217.195L192.852 217.328C190.977 217.438 189.906 218.312 189.906 219.703C189.906 221.164 190.992 222.141 192.609 222.141ZM192.914 220.984C191.938 220.984 191.289 220.477 191.289 219.703C191.289 218.938 191.914 218.453 193.008 218.383L195.18 218.25V218.914C195.18 220.086 194.195 220.984 192.914 220.984ZM204.609 222V213.875H203.25V217.297C202.867 217.68 202.156 217.938 201.25 217.938C200.125 217.938 199.57 217.258 199.57 216.195V213.875H198.211V216.211C198.211 217.945 199.234 219.125 201.203 219.125C202.062 219.125 202.672 218.938 203.133 218.633H203.25V222H204.609ZM211.922 219.672C211.695 220.438 210.938 220.961 209.906 220.961C208.445 220.961 207.531 219.938 207.531 218.383V218.305H213.359V217.789C213.359 215.328 212.008 213.734 209.812 213.734C207.57 213.734 206.133 215.445 206.133 217.969C206.133 220.523 207.547 222.141 209.875 222.141C211.648 222.141 213.023 221.094 213.258 219.672H211.922ZM209.789 214.914C211.07 214.914 211.922 215.883 211.953 217.242H207.539C207.625 215.891 208.516 214.914 209.789 214.914ZM220.219 222H221.578V213.875H220.219V217.227H216.242V213.875H214.883V222H216.242V218.344H220.219V222ZM224.836 222L228.883 215.961H228.945V222H230.305V213.875H228.961L224.914 219.914H224.852V213.875H223.492V222H224.836ZM237.609 219.672C237.383 220.438 236.625 220.961 235.594 220.961C234.133 220.961 233.219 219.938 233.219 218.383V218.305H239.047V217.789C239.047 215.328 237.695 213.734 235.5 213.734C233.258 213.734 231.82 215.445 231.82 217.969C231.82 220.523 233.234 222.141 235.562 222.141C237.336 222.141 238.711 221.094 238.945 219.672H237.609ZM235.477 214.914C236.758 214.914 237.609 215.883 237.641 217.242H233.227C233.312 215.891 234.203 214.914 235.477 214.914Z" fill="black"/>
    <rect x="24" width="230" height="56" rx="28" fill="#73FFE5"/>
    <path d="M47.2656 24C49.6641 24 51.0859 22.8203 51.0859 20.8359C51.0859 19.3359 50.1016 18.2578 48.5703 18.0625V18C49.6562 17.8047 50.5156 16.7109 50.5156 15.5391C50.5156 13.8516 49.2109 12.7266 47.2812 12.7266H43.0078V24H47.2656ZM44.4141 13.9688H46.9609C48.3281 13.9688 49.0938 14.5859 49.0938 15.7031C49.0938 16.9219 48.1875 17.5859 46.5234 17.5859H44.4141V13.9688ZM44.4141 22.7578V18.7969H46.9219C48.7188 18.7969 49.6406 19.4609 49.6406 20.7656C49.6406 22.0703 48.75 22.7578 47.0547 22.7578H44.4141ZM56.7422 21.5234H55.3984C55.6719 23.0625 56.9688 24.1406 58.7969 24.1406C61.0547 24.1406 62.5312 22.5234 62.5312 19.9375C62.5312 17.4062 61.0547 15.7344 58.8125 15.7344C56.8516 15.7344 55.6406 16.9844 55.4141 18.375H56.7578C56.9688 17.5781 57.6562 16.9297 58.8047 16.9297C60.0078 16.9297 60.9219 17.7734 61.0938 19.2266H57.4531V20.3359H61.1328C61.0469 22.0078 60.0859 22.9453 58.7891 22.9453C57.7188 22.9453 57 22.4219 56.7422 21.5234ZM69.6875 15.875H63.0938V16.9922H65.7109V24H67.0703V16.9922H69.6875V15.875ZM74.1641 24.1406C76.4062 24.1406 77.9219 22.5234 77.9219 19.9375C77.9219 17.3438 76.4062 15.7344 74.1641 15.7344C71.9141 15.7344 70.3984 17.3438 70.3984 19.9375C70.3984 22.5234 71.9141 24.1406 74.1641 24.1406ZM74.1641 22.9453C72.7266 22.9453 71.7812 21.8516 71.7812 19.9375C71.7812 18.0234 72.7266 16.9297 74.1641 16.9297C75.6016 16.9297 76.5391 18.0234 76.5391 19.9375C76.5391 21.8516 75.6016 22.9453 74.1641 22.9453ZM80.3594 12.3594C80.3594 13.7969 81.3828 14.7812 82.875 14.7812C84.3672 14.7812 85.3906 13.7969 85.3906 12.3594H84.3906C84.3906 13.2656 83.8047 13.9766 82.875 13.9766C81.9453 13.9766 81.3594 13.2656 81.3594 12.3594H80.3594ZM80.7891 24L84.8359 17.9609H84.8984V24H86.2578V15.875H84.9141L80.8672 21.9141H80.8047V15.875H79.4453V24H80.7891ZM95.2578 24.1016V26.7109H96.5703V24.1016C99.0859 24.0625 100.766 22.4453 100.766 19.9375C100.766 17.4297 99.0859 15.8203 96.5703 15.7734V13.2031H95.2578V15.7734C92.7266 15.8125 91.0547 17.4297 91.0547 19.9375C91.0547 22.4453 92.7266 24.0547 95.2578 24.1016ZM95.2578 22.9453C93.5234 22.8984 92.4219 21.7656 92.4219 19.9375C92.4219 18.1016 93.5234 16.9688 95.2578 16.9297V22.9453ZM99.3984 19.9375C99.3984 21.7734 98.2969 22.9062 96.5703 22.9453V16.9297C98.2969 16.9766 99.3984 18.1094 99.3984 19.9375ZM102.742 27.0391C104.211 27.0391 104.883 26.4688 105.578 24.5703L108.773 15.875H107.344L105.094 22.6406H105.07L102.82 15.875H101.367L104.367 24.0078L104.18 24.5781C103.867 25.5234 103.445 25.8906 102.688 25.8906C102.516 25.8906 102.305 25.8828 102.156 25.8516V26.9922C102.305 27.0234 102.578 27.0391 102.742 27.0391ZM115.328 24H116.688V15.875H115.328V19.2266H111.352V15.875H109.992V24H111.352V20.3438H115.328V24ZM120.023 20.0938L123.516 24H125.266L121.375 19.7188L125.156 15.875H123.477L120.023 19.4688H119.961V15.875H118.602V24H119.961V20.0938H120.023ZM134.242 26.1484V22.8828H132.945V15.875H131.586V22.8828H127.758V15.875H126.398V24H132.977V26.1484H134.242ZM136.805 24L140.852 17.9609H140.914V24H142.273V15.875H140.93L136.883 21.9141H136.82V15.875H135.461V24H136.805ZM145.523 24L149.57 17.9609H149.633V24H150.992V15.875H149.648L145.602 21.9141H145.539V15.875H144.18V24H145.523ZM156.109 24H157.469V19.2188C157.469 17.8438 158.305 16.9375 159.586 16.9375C160.836 16.9375 161.453 17.6562 161.453 18.9688V24H162.812V18.7266C162.812 16.8828 161.781 15.7344 160 15.7344C158.742 15.7344 157.875 16.2969 157.422 17.1719H157.391V15.875H156.109V24ZM169.938 21.6719C169.711 22.4375 168.953 22.9609 167.922 22.9609C166.461 22.9609 165.547 21.9375 165.547 20.3828V20.3047H171.375V19.7891C171.375 17.3281 170.023 15.7344 167.828 15.7344C165.586 15.7344 164.148 17.4453 164.148 19.9688C164.148 22.5234 165.562 24.1406 167.891 24.1406C169.664 24.1406 171.039 23.0938 171.273 21.6719H169.938ZM167.805 16.9141C169.086 16.9141 169.938 17.8828 169.969 19.2422H165.555C165.641 17.8906 166.531 16.9141 167.805 16.9141ZM183.086 15.875H181.742L180.117 22.4844H180.086L178.242 15.875H176.93L175.094 22.4844H175.062L173.438 15.875H172.086L174.359 24H175.742L177.57 17.7109H177.602L179.438 24H180.82L183.086 15.875ZM189.055 24.1875C191.547 24.1875 193.219 22.9453 193.734 20.7188H192.312C191.906 22.0938 190.719 22.8906 189.062 22.8906C186.836 22.8906 185.422 21.125 185.422 18.3594C185.422 15.6172 186.852 13.8359 189.055 13.8359C190.664 13.8359 191.953 14.8047 192.312 16.2812H193.734C193.375 14.0312 191.508 12.5391 189.055 12.5391C185.969 12.5391 183.977 14.8203 183.977 18.3594C183.977 21.9297 185.945 24.1875 189.055 24.1875ZM197.562 24.1406C198.656 24.1406 199.688 23.5312 200.172 22.6016H200.203V24H201.492V18.3828C201.492 16.7656 200.289 15.7344 198.383 15.7344C196.461 15.7344 195.258 16.8125 195.164 18.2188H196.477C196.648 17.4219 197.305 16.9297 198.352 16.9297C199.477 16.9297 200.133 17.5234 200.133 18.5156V19.1953L197.805 19.3281C195.93 19.4375 194.859 20.3125 194.859 21.7031C194.859 23.1641 195.945 24.1406 197.562 24.1406ZM197.867 22.9844C196.891 22.9844 196.242 22.4766 196.242 21.7031C196.242 20.9375 196.867 20.4531 197.961 20.3828L200.133 20.25V20.9141C200.133 22.0859 199.148 22.9844 197.867 22.9844ZM207.164 15.7344C205.984 15.7344 205.039 16.3359 204.539 17.25H204.508V15.875H203.219V26.7109H204.578V22.6797H204.609C205.094 23.5703 206.031 24.1406 207.195 24.1406C209.242 24.1406 210.641 22.4844 210.641 19.9375C210.641 17.3906 209.234 15.7344 207.164 15.7344ZM206.898 22.9453C205.508 22.9453 204.57 21.75 204.57 19.9375C204.57 18.1328 205.508 16.9297 206.898 16.9297C208.344 16.9297 209.25 18.1016 209.25 19.9375C209.25 21.7812 208.344 22.9453 206.898 22.9453ZM212.453 13.9141V15.875H211.242V16.9922H212.453V21.8906C212.453 23.4531 213.031 24.0625 214.523 24.0625C214.844 24.0625 215.219 24.0391 215.383 24V22.8594C215.289 22.875 214.977 22.8984 214.82 22.8984C214.125 22.8984 213.812 22.5625 213.812 21.8203V16.9922H215.391V15.875H213.812V13.9141H212.453ZM217.594 14.4297C218.07 14.4297 218.445 14.0469 218.445 13.5781C218.445 13.1016 218.07 12.7266 217.594 12.7266C217.125 12.7266 216.742 13.1016 216.742 13.5781C216.742 14.0469 217.125 14.4297 217.594 14.4297ZM216.914 24H218.273V15.875H216.914V24ZM223.477 24.1406C225.719 24.1406 227.234 22.5234 227.234 19.9375C227.234 17.3438 225.719 15.7344 223.477 15.7344C221.227 15.7344 219.711 17.3438 219.711 19.9375C219.711 22.5234 221.227 24.1406 223.477 24.1406ZM223.477 22.9453C222.039 22.9453 221.094 21.8516 221.094 19.9375C221.094 18.0234 222.039 16.9297 223.477 16.9297C224.914 16.9297 225.852 18.0234 225.852 19.9375C225.852 21.8516 224.914 22.9453 223.477 22.9453ZM228.609 24H229.969V19.2188C229.969 17.8438 230.805 16.9375 232.086 16.9375C233.336 16.9375 233.953 17.6562 233.953 18.9688V24H235.312V18.7266C235.312 16.8828 234.281 15.7344 232.5 15.7344C231.242 15.7344 230.375 16.2969 229.922 17.1719H229.891V15.875H228.609V24ZM88.6953 40.0625V38.7969H80.6953V40.0625H88.6953ZM96.4297 44C98.1562 44 99.2188 43.1016 99.2188 41.6641C99.2188 40.6719 98.5469 39.9453 97.5234 39.8047V39.7422C98.2734 39.5859 98.8594 38.8125 98.8594 37.9766C98.8594 36.6719 97.9297 35.875 96.4062 35.875H92.9297V44H96.4297ZM94.2891 36.9766H96.2031C97.0547 36.9766 97.5156 37.3828 97.5156 38.1172C97.5156 38.9062 97.0234 39.2891 96 39.2891H94.2891V36.9766ZM94.2891 40.3828H96.1094C97.2969 40.3828 97.8672 40.7891 97.8672 41.6328C97.8672 42.4531 97.3359 42.8984 96.3516 42.8984H94.2891V40.3828ZM104.273 44C106 44 107.062 43.1016 107.062 41.6641C107.062 40.6719 106.391 39.9453 105.367 39.8047V39.7422C106.117 39.5859 106.703 38.8125 106.703 37.9766C106.703 36.6719 105.773 35.875 104.25 35.875H100.773V44H104.273ZM102.133 36.9766H104.047C104.898 36.9766 105.359 37.3828 105.359 38.1172C105.359 38.9062 104.867 39.2891 103.844 39.2891H102.133V36.9766ZM102.133 40.3828H103.953C105.141 40.3828 105.711 40.7891 105.711 41.6328C105.711 42.4531 105.18 42.8984 104.195 42.8984H102.133V40.3828ZM111.992 44.1406C114.234 44.1406 115.75 42.5234 115.75 39.9375C115.75 37.3438 114.234 35.7344 111.992 35.7344C109.742 35.7344 108.227 37.3438 108.227 39.9375C108.227 42.5234 109.742 44.1406 111.992 44.1406ZM111.992 42.9453C110.555 42.9453 109.609 41.8516 109.609 39.9375C109.609 38.0234 110.555 36.9297 111.992 36.9297C113.43 36.9297 114.367 38.0234 114.367 39.9375C114.367 41.8516 113.43 42.9453 111.992 42.9453ZM117.578 46.1484V44H123.883V46.1484H125.148V42.8828H123.859V35.875H118.266L117.953 40.3828C117.875 41.4766 117.586 42.4922 116.992 42.8828H116.312V46.1484H117.578ZM122.508 42.8828H118.547V42.8203C118.93 42.3047 119.141 41.4219 119.211 40.4141L119.461 36.9922H122.508V42.8828ZM131.703 44H133.062V35.875H131.703V39.2266H127.727V35.875H126.367V44H127.727V40.3438H131.703V44ZM137.359 44.1406C138.453 44.1406 139.484 43.5312 139.969 42.6016H140V44H141.289V38.3828C141.289 36.7656 140.086 35.7344 138.18 35.7344C136.258 35.7344 135.055 36.8125 134.961 38.2188H136.273C136.445 37.4219 137.102 36.9297 138.148 36.9297C139.273 36.9297 139.93 37.5234 139.93 38.5156V39.1953L137.602 39.3281C135.727 39.4375 134.656 40.3125 134.656 41.7031C134.656 43.1641 135.742 44.1406 137.359 44.1406ZM137.664 42.9844C136.688 42.9844 136.039 42.4766 136.039 41.7031C136.039 40.9375 136.664 40.4531 137.758 40.3828L139.93 40.25V40.9141C139.93 42.0859 138.945 42.9844 137.664 42.9844ZM147.625 44H148.984V35.875H146.078C144.211 35.875 143.008 36.8984 143.008 38.5703C143.008 39.6875 143.703 40.5312 144.852 40.8594L142.586 44H144.156L146.219 41.1094H147.625V44ZM146.086 39.9922C145.039 39.9922 144.359 39.3906 144.359 38.5469C144.359 37.5703 145.031 36.9922 146.086 36.9922H147.625V39.9922H146.086ZM154.711 39.5625C154.711 42.2812 155.43 44.4922 156.93 46.3984H158.07C156.961 45.1094 156.094 42.1172 156.094 39.5625C156.094 37.0078 156.961 34.0156 158.07 32.7266H156.93C155.43 34.6328 154.711 36.8438 154.711 39.5625ZM160.016 34.4297C160.492 34.4297 160.867 34.0469 160.867 33.5781C160.867 33.1016 160.492 32.7266 160.016 32.7266C159.547 32.7266 159.164 33.1016 159.164 33.5781C159.164 34.0469 159.547 34.4297 160.016 34.4297ZM159.336 44H160.695V35.875H159.336V44ZM162.531 44H163.891V39.2188C163.891 37.8438 164.727 36.9375 166.008 36.9375C167.258 36.9375 167.875 37.6562 167.875 38.9688V44H169.234V38.7266C169.234 36.8828 168.203 35.7344 166.422 35.7344C165.164 35.7344 164.297 36.2969 163.844 37.1719H163.812V35.875H162.531V44ZM174.914 35.7344C173.734 35.7344 172.789 36.3359 172.289 37.25H172.258V35.875H170.969V46.7109H172.328V42.6797H172.359C172.844 43.5703 173.781 44.1406 174.945 44.1406C176.992 44.1406 178.391 42.4844 178.391 39.9375C178.391 37.3906 176.984 35.7344 174.914 35.7344ZM174.648 42.9453C173.258 42.9453 172.32 41.75 172.32 39.9375C172.32 38.1328 173.258 36.9297 174.648 36.9297C176.094 36.9297 177 38.1016 177 39.9375C177 41.7812 176.094 42.9453 174.648 42.9453ZM186.438 35.875H185.078V40.6484C185.078 42.0312 184.281 42.9375 182.961 42.9375C181.703 42.9375 181.086 42.2266 181.086 40.9062V35.875H179.727V41.1484C179.727 42.9922 180.766 44.1406 182.539 44.1406C183.789 44.1406 184.633 43.6172 185.117 42.6797H185.148V44H186.438V35.875ZM188.641 33.9141V35.875H187.43V36.9922H188.641V41.8906C188.641 43.4531 189.219 44.0625 190.711 44.0625C191.031 44.0625 191.406 44.0391 191.57 44V42.8594C191.477 42.875 191.164 42.8984 191.008 42.8984C190.312 42.8984 190 42.5625 190 41.8203V36.9922H191.578V35.875H190V33.9141H188.641ZM195.82 39.5625C195.82 36.8438 195.102 34.6328 193.602 32.7266H192.461C193.57 34.0156 194.438 37.0078 194.438 39.5625C194.438 42.1172 193.57 45.1094 192.461 46.3984H193.602C195.102 44.4922 195.82 42.2812 195.82 39.5625Z" fill="black"/>
</svg>
