<svg width="429" height="862" viewBox="0 0 429 862" fill="none" xmlns="http://www.w3.org/2000/svg">
    <path fill-rule="evenodd" clip-rule="evenodd" d="M93.9776 6.12795e-05L91.0001 6.1646e-05L90.0831 3.11284e-05C79.6675 -0.000504837 70.3914 -0.000981688 62.6923 0.628056C54.4762 1.29934 45.8806 2.80975 37.4907 7.08464C25.2601 13.3164 15.3164 23.2601 9.08464 35.4907C4.80975 43.8806 3.29934 52.4762 2.62806 60.6923C1.99902 68.3914 1.9995 77.6675 2.00003 88.0831L2.00006 89.0001L2.00003 773.917C1.9995 784.333 1.99902 793.609 2.62806 801.308C3.29934 809.524 4.80975 818.12 9.08464 826.509C15.3164 838.74 25.2601 848.684 37.4907 854.915C45.8806 859.19 54.4762 860.701 62.6923 861.372C70.3911 862.001 79.6668 862.001 90.082 862L190 862V860H240V862L338.918 862C349.333 862.001 358.609 862.001 366.308 861.372C374.524 860.701 383.12 859.19 391.509 854.915C403.74 848.684 413.684 838.74 419.915 826.509C424.19 818.12 425.701 809.524 426.372 801.308C427.001 793.609 427.001 784.333 427 773.918V773.917L427 317H429V220H427L427 88.0833V88.082C427.001 77.6668 427.001 68.3911 426.372 60.6923C425.701 52.4762 424.19 43.8806 419.915 35.4907C413.684 23.2601 403.74 13.3164 391.509 7.08464C383.12 2.80975 374.524 1.29934 366.308 0.628056C358.609 -0.000981688 349.333 -0.000504837 338.917 3.11284e-05L335.016 3.16086e-05C335.011 1.05427e-05 335.005 0 335 0H94C93.9925 0 93.9851 2.04441e-05 93.9776 6.12795e-05ZM27.0001 89.0001C27.0001 66.598 27.0001 55.3969 31.3598 46.8404C35.1947 39.314 41.314 33.1947 48.8404 29.3598C57.3969 25.0001 68.598 25.0001 91.0001 25.0001H338C360.402 25.0001 371.603 25.0001 380.16 29.3598C387.686 33.1947 393.805 39.314 397.64 46.8404C402 55.3969 402 66.598 402 89.0001V773C402 795.402 402 806.603 397.64 815.16C393.805 822.686 387.686 828.805 380.16 832.64C371.603 837 360.402 837 338 837H91.0001C68.598 837 57.3969 837 48.8404 832.64C41.314 828.805 35.1947 822.686 31.3598 815.16C27.0001 806.603 27.0001 795.402 27.0001 773V89.0001ZM2 129H0V161H2V129ZM2 196H0V256H2V196ZM0 278H2V338H0V278Z" fill="#EDF1F5"/>
</svg>
