<svg width="600" height="266" viewBox="0 0 600 266" fill="none" xmlns="http://www.w3.org/2000/svg">
    <path d="M220.72 19.376C220.024 20.144 219.112 20.696 217.936 20.696C216.304 20.696 214.816 19.52 214.816 17.6C214.816 15.704 216.28 14.528 217.816 14.528C218.8 14.528 219.688 14.792 220.504 15.584L221.8 13.4C220.792 12.392 219.232 11.936 217.456 11.936C214.168 11.936 211.864 14.456 211.864 17.6C211.864 21.008 214.216 23.264 217.72 23.264C219.472 23.264 221.104 22.616 222.016 21.392L220.72 19.376ZM224.231 20.024C224.231 22.232 225.119 23.24 226.775 23.24C228.071 23.24 229.007 22.832 229.631 22.328L229.055 20.216C228.719 20.456 228.359 20.648 227.927 20.648C227.279 20.648 226.991 20.12 226.991 18.896V6.2H224.231V20.024ZM232.243 14.984C233.035 14.624 233.827 14.24 235.075 14.24C236.683 14.24 237.163 15.224 237.091 17.024C236.563 16.64 235.603 16.328 234.643 16.328C232.459 16.328 230.707 17.456 230.707 19.832C230.707 21.92 232.123 23.144 234.091 23.144C235.555 23.144 236.707 22.568 237.283 21.752V23H239.683V16.424C239.683 13.568 238.555 11.936 235.363 11.936C233.947 11.936 232.483 12.416 231.547 12.968L232.243 14.984ZM235.003 20.816C234.139 20.816 233.467 20.36 233.467 19.544C233.467 18.632 234.283 18.2 235.195 18.2C235.987 18.2 236.611 18.368 237.091 18.728V19.832C236.755 20.312 236.155 20.816 235.003 20.816ZM247.985 19.952C247.985 20.624 247.361 20.96 246.569 20.96C245.489 20.96 243.857 20.312 243.209 19.616L241.865 21.416C242.369 22.184 244.385 23.264 246.377 23.264C249.017 23.264 250.745 21.944 250.745 19.808C250.745 15.992 244.913 16.976 244.913 15.176C244.913 14.696 245.417 14.24 246.257 14.24C247.409 14.24 248.537 14.768 249.185 15.272L250.217 13.304C249.545 12.68 248.201 11.936 246.113 11.936C243.881 11.936 242.153 13.112 242.153 15.224C242.153 19.16 247.985 18.2 247.985 19.952ZM258.649 19.952C258.649 20.624 258.025 20.96 257.233 20.96C256.153 20.96 254.521 20.312 253.873 19.616L252.529 21.416C253.033 22.184 255.049 23.264 257.041 23.264C259.681 23.264 261.409 21.944 261.409 19.808C261.409 15.992 255.577 16.976 255.577 15.176C255.577 14.696 256.081 14.24 256.921 14.24C258.073 14.24 259.201 14.768 259.849 15.272L260.881 13.304C260.209 12.68 258.865 11.936 256.777 11.936C254.545 11.936 252.817 13.112 252.817 15.224C252.817 19.16 258.649 18.2 258.649 19.952ZM272.671 23V16.928C273.391 17 274.351 17 274.855 17C278.863 17 280.999 14.408 280.999 11.552C280.999 8.792 279.439 6.152 274.495 6.152C273.319 6.152 270.655 6.2 269.719 6.2V23H272.671ZM274.783 8.912C276.799 8.912 277.879 9.776 277.879 11.528C277.879 13.4 276.511 14.24 274.759 14.24C274.087 14.24 273.367 14.192 272.671 14.12V8.96C273.463 8.936 274.183 8.912 274.783 8.912ZM290.664 19.976C290.04 20.48 288.936 20.96 287.616 20.96C285.912 20.96 284.616 20.072 284.376 18.44H292.176C292.296 18.032 292.344 17.624 292.344 16.952C292.344 13.928 290.016 11.936 287.232 11.936C283.68 11.936 281.52 14.456 281.52 17.6C281.52 21.008 283.848 23.264 287.328 23.264C288.84 23.264 290.376 22.832 291.456 21.92L290.664 19.976ZM287.112 14.24C288.696 14.24 289.608 15.272 289.584 16.592H284.28C284.568 15.176 285.456 14.24 287.112 14.24ZM294.567 23H297.327V15.752C297.639 15.128 298.143 14.6 299.103 14.6C299.679 14.6 299.967 14.696 300.495 15.008L301.479 12.416C301.119 12.152 300.687 12.008 299.799 12.008C298.503 12.008 297.831 12.56 297.327 13.256V12.2H294.567V23ZM303.46 23H306.22V12.2H303.46V23ZM303.172 8.312C303.172 9.416 303.964 10.04 304.9 10.04C305.692 10.04 306.484 9.416 306.484 8.312C306.484 7.328 305.692 6.704 304.9 6.704C303.964 6.704 303.172 7.328 303.172 8.312ZM309.036 17.6C309.036 20.84 311.34 23.264 314.916 23.264C318.492 23.264 320.796 20.84 320.796 17.6C320.796 14.36 318.492 11.936 314.916 11.936C311.34 11.936 309.036 14.36 309.036 17.6ZM311.988 17.6C311.988 15.728 313.284 14.528 314.916 14.528C316.596 14.528 317.868 15.776 317.868 17.6C317.868 19.472 316.62 20.696 314.916 20.696C313.236 20.696 311.988 19.4 311.988 17.6ZM330.696 23H333.456V6.2H330.696V12.464C330.096 12.104 329.4 11.936 328.44 11.936C324.96 11.936 322.512 14.312 322.512 17.72C322.512 21.008 324.504 23.192 327.6 23.192C328.992 23.192 329.976 22.64 330.696 21.872V23ZM328.176 20.624C326.712 20.624 325.464 19.544 325.464 17.624C325.464 15.632 326.928 14.528 328.56 14.528C329.304 14.528 330 14.744 330.696 15.176V19.52C330.072 20.144 329.184 20.624 328.176 20.624Z" fill="#10162F"/>
    <rect x="159.5" y="43.5" width="281" height="167" fill="white"/>
    <rect width="96" height="48" transform="translate(191 75)" fill="#FF315D"/>
    <path d="M205 102.56C205 103.38 204.24 103.8 203.4 103.8C202.5 103.8 201.32 103.26 200.8 102.66L199.9 103.8C200.32 104.44 201.76 105.2 203.22 105.2C205.02 105.2 206.7 104.38 206.7 102.48C206.7 99.32 201.84 100.22 201.84 98.32C201.84 97.72 202.38 97.2 203.28 97.2C204.22 97.2 205 97.6 205.54 98.08L206.3 96.86C205.76 96.34 204.68 95.8 203.2 95.8C201.42 95.8 200.14 96.76 200.14 98.34C200.14 101.64 205 100.74 205 102.56ZM208.834 101.58C208.834 103.88 209.634 105.16 211.654 105.16C212.654 105.16 213.474 104.8 213.954 104.4L213.454 103.16C213.134 103.4 212.654 103.66 212.034 103.66C210.894 103.66 210.434 102.84 210.434 101.42V97.5H213.734V96H210.434V93.5H208.834V101.58ZM216.565 97.9C217.285 97.52 217.945 97.24 219.045 97.24C220.825 97.24 221.085 98.4 221.085 100.08C220.485 99.64 219.545 99.5 218.845 99.5C216.905 99.5 215.445 100.52 215.445 102.36C215.445 104.1 216.565 105.14 218.205 105.14C219.685 105.14 220.545 104.52 221.085 103.84V105H222.605V99.48C222.605 97.14 221.705 95.8 219.145 95.8C218.025 95.8 216.945 96.12 216.145 96.62L216.565 97.9ZM218.765 103.7C217.725 103.7 217.145 103.14 217.145 102.28C217.145 101.24 218.105 100.8 219.065 100.8C219.845 100.8 220.525 101 221.085 101.4V102.54C220.625 103.08 219.945 103.7 218.765 103.7ZM225.284 105H226.884V98.62C227.224 97.96 227.724 97.34 228.764 97.34C229.304 97.34 229.544 97.42 229.984 97.68L230.544 96.18C230.244 95.96 229.884 95.84 229.144 95.84C228.004 95.84 227.344 96.38 226.884 97.06V96H225.284V105ZM231.881 101.58C231.881 103.88 232.681 105.16 234.701 105.16C235.701 105.16 236.521 104.8 237.001 104.4L236.501 103.16C236.181 103.4 235.701 103.66 235.081 103.66C233.941 103.66 233.481 102.84 233.481 101.42V97.5H236.781V96H233.481V93.5H231.881V101.58ZM239.791 105H240.011C241.191 105 242.511 105.04 243.451 105.04C248.791 105.04 251.471 101.8 251.471 97.82C251.471 94.16 249.211 90.94 243.611 90.94C242.471 90.94 240.951 91 240.031 91H239.791V105ZM243.571 92.54C247.631 92.54 249.671 94.78 249.671 97.82C249.671 101.08 247.511 103.44 243.511 103.44C243.271 103.44 242.411 103.42 241.491 103.4V92.6C242.191 92.58 242.731 92.54 243.571 92.54ZM254.397 97.9C255.117 97.52 255.777 97.24 256.877 97.24C258.657 97.24 258.917 98.4 258.917 100.08C258.317 99.64 257.377 99.5 256.677 99.5C254.737 99.5 253.277 100.52 253.277 102.36C253.277 104.1 254.397 105.14 256.037 105.14C257.517 105.14 258.377 104.52 258.917 103.84V105H260.437V99.48C260.437 97.14 259.537 95.8 256.977 95.8C255.857 95.8 254.777 96.12 253.977 96.62L254.397 97.9ZM256.597 103.7C255.557 103.7 254.977 103.14 254.977 102.28C254.977 101.24 255.937 100.8 256.897 100.8C257.677 100.8 258.357 101 258.917 101.4V102.54C258.457 103.08 257.777 103.7 256.597 103.7ZM262.916 101.58C262.916 103.88 263.716 105.16 265.736 105.16C266.736 105.16 267.556 104.8 268.036 104.4L267.536 103.16C267.216 103.4 266.736 103.66 266.116 103.66C264.976 103.66 264.516 102.84 264.516 101.42V97.5H267.816V96H264.516V93.5H262.916V101.58ZM276.915 102.76C276.335 103.3 275.315 103.7 274.155 103.7C272.395 103.7 271.155 102.7 271.015 101H277.935C277.995 100.72 278.035 100.36 278.035 99.92C278.035 97.44 276.175 95.8 273.855 95.8C270.895 95.8 269.215 97.88 269.215 100.5C269.215 103.34 271.115 105.2 274.035 105.2C275.235 105.2 276.535 104.82 277.415 104.02L276.915 102.76ZM273.775 97.3C275.335 97.3 276.295 98.22 276.375 99.7H270.915C271.095 98.32 272.135 97.3 273.775 97.3Z" fill="white"/>
    <rect width="90" height="48" transform="translate(191 131)" fill="#FF315D"/>
    <path d="M207.54 158.76C206.96 159.3 205.94 159.7 204.78 159.7C203.02 159.7 201.78 158.7 201.64 157H208.56C208.62 156.72 208.66 156.36 208.66 155.92C208.66 153.44 206.8 151.8 204.48 151.8C201.52 151.8 199.84 153.88 199.84 156.5C199.84 159.34 201.74 161.2 204.66 161.2C205.86 161.2 207.16 160.82 208.04 160.02L207.54 158.76ZM204.4 153.3C205.96 153.3 206.92 154.22 207 155.7H201.54C201.72 154.32 202.76 153.3 204.4 153.3ZM210.831 161H212.431V154.5C213.011 153.84 213.951 153.34 214.971 153.34C216.651 153.34 217.511 154.22 217.511 156.1V161H219.111V155.8C219.111 152.98 217.711 151.84 215.371 151.84C214.191 151.84 213.051 152.42 212.431 153.1V152H210.831V161ZM228.407 161H230.007V147H228.407V152.44C227.787 152 227.087 151.8 226.127 151.8C223.287 151.8 221.207 153.76 221.207 156.56C221.207 159.34 222.907 161.16 225.547 161.16C226.767 161.16 227.747 160.58 228.407 159.86V161ZM225.847 159.66C224.167 159.66 222.907 158.5 222.907 156.52C222.907 154.54 224.407 153.3 226.187 153.3C226.927 153.3 227.647 153.52 228.407 154V158.46C227.847 159.08 226.887 159.66 225.847 159.66ZM233.541 161H233.761C234.941 161 236.261 161.04 237.201 161.04C242.541 161.04 245.221 157.8 245.221 153.82C245.221 150.16 242.961 146.94 237.361 146.94C236.221 146.94 234.701 147 233.781 147H233.541V161ZM237.321 148.54C241.381 148.54 243.421 150.78 243.421 153.82C243.421 157.08 241.261 159.44 237.261 159.44C237.021 159.44 236.161 159.42 235.241 159.4V148.6C235.941 148.58 236.481 148.54 237.321 148.54ZM248.147 153.9C248.867 153.52 249.527 153.24 250.627 153.24C252.407 153.24 252.667 154.4 252.667 156.08C252.067 155.64 251.127 155.5 250.427 155.5C248.487 155.5 247.027 156.52 247.027 158.36C247.027 160.1 248.147 161.14 249.787 161.14C251.267 161.14 252.127 160.52 252.667 159.84V161H254.187V155.48C254.187 153.14 253.287 151.8 250.727 151.8C249.607 151.8 248.527 152.12 247.727 152.62L248.147 153.9ZM250.347 159.7C249.307 159.7 248.727 159.14 248.727 158.28C248.727 157.24 249.687 156.8 250.647 156.8C251.427 156.8 252.107 157 252.667 157.4V158.54C252.207 159.08 251.527 159.7 250.347 159.7ZM256.666 157.58C256.666 159.88 257.466 161.16 259.486 161.16C260.486 161.16 261.306 160.8 261.786 160.4L261.286 159.16C260.966 159.4 260.486 159.66 259.866 159.66C258.726 159.66 258.266 158.84 258.266 157.42V153.5H261.566V152H258.266V149.5H256.666V157.58ZM270.665 158.76C270.085 159.3 269.065 159.7 267.905 159.7C266.145 159.7 264.905 158.7 264.765 157H271.685C271.745 156.72 271.785 156.36 271.785 155.92C271.785 153.44 269.925 151.8 267.605 151.8C264.645 151.8 262.965 153.88 262.965 156.5C262.965 159.34 264.865 161.2 267.785 161.2C268.985 161.2 270.285 160.82 271.165 160.02L270.665 158.76ZM267.525 153.3C269.085 153.3 270.045 154.22 270.125 155.7H264.665C264.845 154.32 265.885 153.3 267.525 153.3Z" fill="white"/>
    <rect width="58" height="48" transform="translate(351 75)" fill="#FFE000"/>
    <path d="M361.1 105H361.32C362.5 105 363.82 105.04 364.76 105.04C370.1 105.04 372.78 101.8 372.78 97.82C372.78 94.16 370.52 90.94 364.92 90.94C363.78 90.94 362.26 91 361.34 91H361.1V105ZM364.88 92.54C368.94 92.54 370.98 94.78 370.98 97.82C370.98 101.08 368.82 103.44 364.82 103.44C364.58 103.44 363.72 103.42 362.8 103.4V92.6C363.5 92.58 364.04 92.54 364.88 92.54ZM375.705 97.9C376.425 97.52 377.085 97.24 378.185 97.24C379.965 97.24 380.225 98.4 380.225 100.08C379.625 99.64 378.685 99.5 377.985 99.5C376.045 99.5 374.585 100.52 374.585 102.36C374.585 104.1 375.705 105.14 377.345 105.14C378.825 105.14 379.685 104.52 380.225 103.84V105H381.745V99.48C381.745 97.14 380.845 95.8 378.285 95.8C377.165 95.8 376.085 96.12 375.285 96.62L375.705 97.9ZM377.905 103.7C376.865 103.7 376.285 103.14 376.285 102.28C376.285 101.24 377.245 100.8 378.205 100.8C378.985 100.8 379.665 101 380.225 101.4V102.54C379.765 103.08 379.085 103.7 377.905 103.7ZM384.224 101.58C384.224 103.88 385.024 105.16 387.044 105.16C388.044 105.16 388.864 104.8 389.344 104.4L388.844 103.16C388.524 103.4 388.044 103.66 387.424 103.66C386.284 103.66 385.824 102.84 385.824 101.42V97.5H389.124V96H385.824V93.5H384.224V101.58ZM398.224 102.76C397.644 103.3 396.624 103.7 395.464 103.7C393.704 103.7 392.464 102.7 392.324 101H399.244C399.304 100.72 399.344 100.36 399.344 99.92C399.344 97.44 397.484 95.8 395.164 95.8C392.204 95.8 390.524 97.88 390.524 100.5C390.524 103.34 392.424 105.2 395.344 105.2C396.544 105.2 397.844 104.82 398.724 104.02L398.224 102.76ZM395.084 97.3C396.644 97.3 397.604 98.22 397.684 99.7H392.224C392.404 98.32 393.444 97.3 395.084 97.3Z" fill="#10162F"/>
    <rect width="58" height="48" transform="translate(351 131)" fill="#FFE000"/>
    <path d="M361.1 161H361.32C362.5 161 363.82 161.04 364.76 161.04C370.1 161.04 372.78 157.8 372.78 153.82C372.78 150.16 370.52 146.94 364.92 146.94C363.78 146.94 362.26 147 361.34 147H361.1V161ZM364.88 148.54C368.94 148.54 370.98 150.78 370.98 153.82C370.98 157.08 368.82 159.44 364.82 159.44C364.58 159.44 363.72 159.42 362.8 159.4V148.6C363.5 148.58 364.04 148.54 364.88 148.54ZM375.705 153.9C376.425 153.52 377.085 153.24 378.185 153.24C379.965 153.24 380.225 154.4 380.225 156.08C379.625 155.64 378.685 155.5 377.985 155.5C376.045 155.5 374.585 156.52 374.585 158.36C374.585 160.1 375.705 161.14 377.345 161.14C378.825 161.14 379.685 160.52 380.225 159.84V161H381.745V155.48C381.745 153.14 380.845 151.8 378.285 151.8C377.165 151.8 376.085 152.12 375.285 152.62L375.705 153.9ZM377.905 159.7C376.865 159.7 376.285 159.14 376.285 158.28C376.285 157.24 377.245 156.8 378.205 156.8C378.985 156.8 379.665 157 380.225 157.4V158.54C379.765 159.08 379.085 159.7 377.905 159.7ZM384.224 157.58C384.224 159.88 385.024 161.16 387.044 161.16C388.044 161.16 388.864 160.8 389.344 160.4L388.844 159.16C388.524 159.4 388.044 159.66 387.424 159.66C386.284 159.66 385.824 158.84 385.824 157.42V153.5H389.124V152H385.824V149.5H384.224V157.58ZM398.224 158.76C397.644 159.3 396.624 159.7 395.464 159.7C393.704 159.7 392.464 158.7 392.324 157H399.244C399.304 156.72 399.344 156.36 399.344 155.92C399.344 153.44 397.484 151.8 395.164 151.8C392.204 151.8 390.524 153.88 390.524 156.5C390.524 159.34 392.424 161.2 395.344 161.2C396.544 161.2 397.844 160.82 398.724 160.02L398.224 158.76ZM395.084 153.3C396.644 153.3 397.604 154.22 397.684 155.7H392.224C392.404 154.32 393.444 153.3 395.084 153.3Z" fill="#10162F"/>
    <rect x="159.5" y="43.5" width="281" height="167" stroke="#D3DBE6" stroke-dasharray="2 2"/>
    <path d="M176.84 253.36C175.88 254.14 174.6 254.6 173.26 254.6C170.02 254.6 167.8 252.34 167.8 249C167.8 245.68 169.96 243.4 173 243.4C174.46 243.4 175.54 243.76 176.46 244.44L177.24 243.16C176.24 242.3 174.78 241.8 172.98 241.8C168.6 241.8 166 244.98 166 249C166 253.36 168.9 256.2 173.1 256.2C174.84 256.2 176.58 255.6 177.52 254.64L176.84 253.36ZM178.418 251.5C178.418 254.2 180.338 256.2 183.218 256.2C186.098 256.2 188.018 254.2 188.018 251.5C188.018 248.8 186.098 246.8 183.218 246.8C180.338 246.8 178.418 248.8 178.418 251.5ZM180.118 251.5C180.118 249.6 181.458 248.3 183.218 248.3C185.018 248.3 186.318 249.62 186.318 251.5C186.318 253.42 185.018 254.7 183.218 254.7C181.418 254.7 180.118 253.38 180.118 251.5ZM203.687 250.1C203.687 247.64 202.447 246.84 200.787 246.84C199.427 246.84 198.267 247.48 197.627 248.4C197.287 247.46 196.307 246.84 194.907 246.84C193.747 246.84 192.587 247.36 191.927 248.14V247H190.327V256H191.927V249.56C192.387 248.9 193.247 248.34 194.287 248.34C195.547 248.34 196.207 249.1 196.207 250.2V256H197.807V250.28C197.807 250.08 197.807 249.8 197.787 249.64C198.207 248.9 199.067 248.34 200.147 248.34C201.447 248.34 202.087 249.06 202.087 250.54V256H203.687V250.1ZM206.381 260H207.981V255.58C208.621 256 209.561 256.2 210.521 256.2C213.341 256.2 215.201 254.1 215.201 251.36C215.201 248.7 213.601 246.8 211.041 246.8C209.801 246.8 208.601 247.34 207.981 248.06V247H206.381V260ZM210.581 248.3C212.441 248.3 213.501 249.6 213.501 251.42C213.501 253.32 212.301 254.7 210.381 254.7C209.521 254.7 208.781 254.54 207.981 254V249.54C208.541 248.84 209.521 248.3 210.581 248.3ZM216.895 251.5C216.895 254.2 218.815 256.2 221.695 256.2C224.575 256.2 226.495 254.2 226.495 251.5C226.495 248.8 224.575 246.8 221.695 246.8C218.815 246.8 216.895 248.8 216.895 251.5ZM218.595 251.5C218.595 249.6 219.935 248.3 221.695 248.3C223.495 248.3 224.795 249.62 224.795 251.5C224.795 253.42 223.495 254.7 221.695 254.7C219.895 254.7 218.595 253.38 218.595 251.5ZM228.803 256H230.403V249.5C230.983 248.84 231.923 248.34 232.943 248.34C234.623 248.34 235.483 249.22 235.483 251.1V256H237.083V250.8C237.083 247.98 235.683 246.84 233.343 246.84C232.163 246.84 231.023 247.42 230.403 248.1V247H228.803V256ZM246.88 253.76C246.3 254.3 245.28 254.7 244.12 254.7C242.36 254.7 241.12 253.7 240.98 252H247.9C247.96 251.72 248 251.36 248 250.92C248 248.44 246.14 246.8 243.82 246.8C240.86 246.8 239.18 248.88 239.18 251.5C239.18 254.34 241.08 256.2 244 256.2C245.2 256.2 246.5 255.82 247.38 255.02L246.88 253.76ZM243.74 248.3C245.3 248.3 246.26 249.22 246.34 250.7H240.88C241.06 249.32 242.1 248.3 243.74 248.3ZM250.17 256H251.77V249.5C252.35 248.84 253.29 248.34 254.31 248.34C255.99 248.34 256.85 249.22 256.85 251.1V256H258.45V250.8C258.45 247.98 257.05 246.84 254.71 246.84C253.53 246.84 252.39 247.42 251.77 248.1V247H250.17V256ZM260.947 252.58C260.947 254.88 261.747 256.16 263.767 256.16C264.767 256.16 265.587 255.8 266.067 255.4L265.567 254.16C265.247 254.4 264.767 254.66 264.147 254.66C263.007 254.66 262.547 253.84 262.547 252.42V248.5H265.847V247H262.547V244.5H260.947V252.58ZM271.45 243.6H276.35V256H278.05V243.6H282.95V242H271.45V243.6ZM285.689 256H287.289V247H285.689V256ZM285.489 243.62C285.489 244.28 285.969 244.66 286.529 244.66C287.029 244.66 287.509 244.28 287.509 243.62C287.509 243.04 287.029 242.66 286.529 242.66C285.969 242.66 285.489 243.04 285.489 243.62ZM290.4 252.58C290.4 254.88 291.2 256.16 293.22 256.16C294.22 256.16 295.04 255.8 295.52 255.4L295.02 254.16C294.7 254.4 294.22 254.66 293.6 254.66C292.46 254.66 292 253.84 292 252.42V248.5H295.3V247H292V244.5H290.4V252.58ZM297.651 253.6C297.651 255.34 298.331 256.16 299.691 256.16C300.631 256.16 301.331 255.86 301.811 255.48L301.451 254.26C301.151 254.46 300.751 254.66 300.311 254.66C299.551 254.66 299.251 254.1 299.251 252.88V242H297.651V253.6ZM310.552 253.76C309.972 254.3 308.952 254.7 307.792 254.7C306.032 254.7 304.792 253.7 304.652 252H311.572C311.632 251.72 311.672 251.36 311.672 250.92C311.672 248.44 309.812 246.8 307.492 246.8C304.532 246.8 302.852 248.88 302.852 251.5C302.852 254.34 304.752 256.2 307.672 256.2C308.872 256.2 310.172 255.82 311.052 255.02L310.552 253.76ZM307.412 248.3C308.972 248.3 309.932 249.22 310.012 250.7H304.552C304.732 249.32 305.772 248.3 307.412 248.3Z" fill="#6C7991"/>
    <path d="M370.84 253.36C369.88 254.14 368.6 254.6 367.26 254.6C364.02 254.6 361.8 252.34 361.8 249C361.8 245.68 363.96 243.4 367 243.4C368.46 243.4 369.54 243.76 370.46 244.44L371.24 243.16C370.24 242.3 368.78 241.8 366.98 241.8C362.6 241.8 360 244.98 360 249C360 253.36 362.9 256.2 367.1 256.2C368.84 256.2 370.58 255.6 371.52 254.64L370.84 253.36ZM373.565 253.6C373.565 255.34 374.245 256.16 375.605 256.16C376.545 256.16 377.245 255.86 377.725 255.48L377.365 254.26C377.065 254.46 376.665 254.66 376.225 254.66C375.465 254.66 375.165 254.1 375.165 252.88V242H373.565V253.6ZM379.846 248.9C380.566 248.52 381.226 248.24 382.326 248.24C384.106 248.24 384.366 249.4 384.366 251.08C383.766 250.64 382.826 250.5 382.126 250.5C380.186 250.5 378.726 251.52 378.726 253.36C378.726 255.1 379.846 256.14 381.486 256.14C382.966 256.14 383.826 255.52 384.366 254.84V256H385.886V250.48C385.886 248.14 384.986 246.8 382.426 246.8C381.306 246.8 380.226 247.12 379.426 247.62L379.846 248.9ZM382.046 254.7C381.006 254.7 380.426 254.14 380.426 253.28C380.426 252.24 381.386 251.8 382.346 251.8C383.126 251.8 383.806 252 384.366 252.4V253.54C383.906 254.08 383.226 254.7 382.046 254.7ZM393.125 253.56C393.125 254.38 392.365 254.8 391.525 254.8C390.625 254.8 389.445 254.26 388.925 253.66L388.025 254.8C388.445 255.44 389.885 256.2 391.345 256.2C393.145 256.2 394.825 255.38 394.825 253.48C394.825 250.32 389.965 251.22 389.965 249.32C389.965 248.72 390.505 248.2 391.405 248.2C392.345 248.2 393.125 248.6 393.665 249.08L394.425 247.86C393.885 247.34 392.805 246.8 391.325 246.8C389.545 246.8 388.265 247.76 388.265 249.34C388.265 252.64 393.125 251.74 393.125 253.56ZM401.719 253.56C401.719 254.38 400.959 254.8 400.119 254.8C399.219 254.8 398.039 254.26 397.519 253.66L396.619 254.8C397.039 255.44 398.479 256.2 399.939 256.2C401.739 256.2 403.419 255.38 403.419 253.48C403.419 250.32 398.559 251.22 398.559 249.32C398.559 248.72 399.099 248.2 399.999 248.2C400.939 248.2 401.719 248.6 402.259 249.08L403.019 247.86C402.479 247.34 401.399 246.8 399.919 246.8C398.139 246.8 396.859 247.76 396.859 249.34C396.859 252.64 401.719 251.74 401.719 253.56Z" fill="#6C7991"/>
    <path d="M160 252H121V97.5H190" stroke="#D3DBE6"/>
    <path d="M121.5 155H188.5" stroke="#D3DBE6"/>
    <path d="M411 252H479V97.5H410" stroke="#D3DBE6"/>
    <path d="M478.5 155H411.5" stroke="#D3DBE6"/>
</svg>
