<svg width="96" height="96" viewBox="0 0 96 96" fill="none" xmlns="http://www.w3.org/2000/svg">
    <circle cx="48" cy="48" r="32" fill="#97EEFF"/>
    <path d="M80 48C80 30.3269 65.6731 16 48 16M48 80C42.7805 80 37.8529 78.7504 33.5 76.534M16 48C16 52.8416 17.0753 57.4322 19 61.5458" stroke="#1B2036" stroke-width="3" stroke-linecap="round"/>
    <path fill-rule="evenodd" clip-rule="evenodd" d="M26.5 36C33.4036 36 39 30.4036 39 23.5C39 16.5964 33.4036 11 26.5 11C19.5964 11 14 16.5964 14 23.5C14 30.4036 19.5964 36 26.5 36ZM26.5 29C29.5376 29 32 26.5376 32 23.5C32 20.4624 29.5376 18 26.5 18C23.4624 18 21 20.4624 21 23.5C21 26.5376 23.4624 29 26.5 29Z" fill="#E5FF73"/>
    <path fill-rule="evenodd" clip-rule="evenodd" d="M26.5 17.375C23.1173 17.375 20.375 20.1173 20.375 23.5C20.375 26.8827 23.1173 29.625 26.5 29.625C29.8827 29.625 32.625 26.8827 32.625 23.5C32.625 20.1173 29.8827 17.375 26.5 17.375ZM23.875 23.5C23.875 22.0503 25.0503 20.875 26.5 20.875C27.9497 20.875 29.125 22.0503 29.125 23.5C29.125 24.9497 27.9497 26.125 26.5 26.125C25.0503 26.125 23.875 24.9497 23.875 23.5Z" fill="#1B2036"/>
    <path fill-rule="evenodd" clip-rule="evenodd" d="M25.1497 8.625C23.3662 8.625 21.868 9.96597 21.6711 11.7385L21.662 11.82L21.598 11.7688C20.2053 10.6547 18.1977 10.7659 16.9367 12.027L15.027 13.9366C13.7659 15.1977 13.6547 17.2053 14.7688 18.5979L14.8201 18.662L14.7385 18.6711C12.966 18.868 11.625 20.3662 11.625 22.1497V24.8503C11.625 26.6338 12.966 28.132 14.7385 28.3289L14.8202 28.338L14.769 28.402C13.6549 29.7946 13.7661 31.8023 15.0272 33.0633L16.9369 34.973C18.1979 36.2341 20.2055 36.3453 21.5982 35.2312L21.662 35.1801L21.6711 35.2615C21.868 37.034 23.3662 38.375 25.1497 38.375H27.8503C29.6338 38.375 31.132 37.034 31.3289 35.2615L31.338 35.1801L31.4018 35.2312C32.7945 36.3453 34.8021 36.2341 36.0631 34.973L37.9728 33.0633C39.2339 31.8023 39.3451 29.7947 38.231 28.402L38.1798 28.338L38.2615 28.3289C40.034 28.132 41.375 26.6338 41.375 24.8503V22.1497C41.375 20.3662 40.034 18.868 38.2615 18.6711L38.1799 18.662L38.2312 18.5979C39.3453 17.2053 39.2341 15.1977 37.973 13.9366L36.0633 12.027C34.8023 10.7659 32.7946 10.6547 31.402 11.7688L31.338 11.82L31.3289 11.7385C31.132 9.96597 29.6338 8.625 27.8503 8.625H25.1497ZM19.4117 32.4981L17.5021 30.5885L17.5533 30.5245C19.276 28.3711 17.9475 25.164 15.2067 24.8594L15.125 24.8503L15.125 22.1497L15.2066 22.1406C17.9474 21.8361 19.2758 18.6289 17.5531 16.4756L17.5019 16.4115L19.4115 14.5018L19.4756 14.5531C21.6289 16.2758 24.8361 14.9473 25.1406 12.2065L25.1497 12.125H27.8503L27.8594 12.2065C28.1639 14.9473 31.3711 16.2758 33.5244 14.5531L33.5885 14.5018L35.4981 16.4115L35.4469 16.4756C33.7242 18.6289 35.0526 21.8361 37.7934 22.1406L37.875 22.1497V24.8503L37.7933 24.8594C35.0525 25.164 33.724 28.3711 35.4467 30.5244L35.4979 30.5885L33.5883 32.4981L33.5244 32.4471C31.3711 30.7244 28.1639 32.0528 27.8594 34.7936L27.8503 34.875H25.1497L25.1406 34.7936C24.8361 32.0528 21.6289 30.7244 19.4756 32.4471L19.4117 32.4981Z" fill="#1B2036"/>
    <rect x="56.5471" y="23.1715" width="22" height="38" transform="rotate(45 56.5471 23.1715)" fill="#ADF190" stroke="#1B2036" stroke-width="3.5" stroke-linejoin="round"/>
    <rect x="56.5471" y="23.1715" width="11" height="38" transform="rotate(45 56.5471 23.1715)" fill="#ADF190" stroke="#1B2036" stroke-width="3.5" stroke-linejoin="round"/>
    <path d="M29.677 50.0416L45.2334 65.598L24.7273 70.5477L29.677 50.0416Z" fill="#ADF190" stroke="#1B2036" stroke-width="3.5" stroke-linejoin="round"/>
    <path d="M28.2629 59.941L35.6876 67.3657" stroke="#1B2036" stroke-width="3.5" stroke-linejoin="round"/>
    <circle cx="72" cy="69" r="12" fill="#73FFE5"/>
    <path d="M84 69C84 75.6274 78.6274 81 72 81C65.3726 81 60 75.6274 60 69C60 62.3726 65.3726 57 72 57C74.4535 57 76.735 57.7363 78.6356 59" stroke="#1B2036" stroke-width="3.5" stroke-linecap="round" stroke-linejoin="round"/>
    <path d="M67.5 67L73 72.5L86.5 59" stroke="#1B2036" stroke-width="3.5" stroke-linecap="round" stroke-linejoin="round"/>
</svg>
