<svg width="96" height="96" viewBox="0 0 96 96" fill="none" xmlns="http://www.w3.org/2000/svg">
    <path d="M0 48C0 21.4903 21.4903 0 48 0C74.5097 0 96 21.4903 96 48C96 74.5097 74.5097 96 48 96C21.4903 96 0 74.5097 0 48Z" fill="#7984FC"/>
    <path d="M54.3932 51.774L58.3352 51.072C68.3792 49.29 71.5112 44.754 71.5112 39.624C71.5112 33.414 67.4612 28.338 50.1812 28.338H48.4532C28.1492 28.338 26.7452 36.438 25.7192 42.108H42.2972C42.5672 40.758 43.2152 38.166 49.3172 38.166C53.4752 38.166 54.6092 38.76 54.6092 40.164C54.6092 41.298 53.7992 42 50.3972 42.648L46.4552 43.404C39.0572 44.808 37.9772 47.994 37.2752 51.882L36.9512 53.664H52.0172C52.1252 52.962 52.2872 52.152 54.3932 51.774ZM52.0712 56.256H35.9252L33.4412 69H49.5872L52.0712 56.256Z" fill="white"/>
</svg>
