<svg width="96" height="96" viewBox="0 0 96 96" fill="none" xmlns="http://www.w3.org/2000/svg">
    <circle cx="48" cy="48" r="32" fill="white"/>
    <path d="M80 48C80 65.6731 65.6731 80 48 80C45.7729 80 43.5989 79.7725 41.5 79.3394M53 16.3883C51.3709 16.1327 49.7009 16 48 16C30.3269 16 16 30.3269 16 48C16 49.8754 16.1613 51.7131 16.4709 53.5C16.5876 54.1741 16.7255 54.841 16.8838 55.5" stroke="#1B2036" stroke-width="3" stroke-linecap="round"/>
    <path d="M48 23C61.8071 23 73 34.1929 73 48C73 49.7399 72.8222 51.4384 72.4839 53.0781M23.3034 44.0937C23.1037 45.3665 23 46.6712 23 48C23 61.8071 34.1929 73 48 73C49.4651 73 50.9009 72.874 52.2969 72.6321C52.8235 72.5409 53.3446 72.4332 53.8594 72.3096" stroke="#1B2036" stroke-width="2" stroke-linecap="round"/>
    <circle cx="71" cy="28" r="12" fill="#E5FF73"/>
    <path d="M83 28C83 34.6274 77.6274 40 71 40C64.3726 40 59 34.6274 59 28C59 21.3726 64.3726 16 71 16C73.4535 16 75.735 16.7363 77.6356 18" stroke="#1B2036" stroke-width="3.5" stroke-linecap="round" stroke-linejoin="round"/>
    <path d="M66.5 26L72 31.5L85.5 18" stroke="#1B2036" stroke-width="3.5" stroke-linecap="round" stroke-linejoin="round"/>
    <circle cx="25" cy="71" r="12" fill="#FFA492" stroke="#1B2036" stroke-width="3.5" stroke-linecap="round" stroke-linejoin="round"/>
    <path d="M22 68L28 74" stroke="#1B2036" stroke-width="3" stroke-linecap="round"/>
    <path d="M28 68L22 74" stroke="#1B2036" stroke-width="3" stroke-linecap="round"/>
    <path fill-rule="evenodd" clip-rule="evenodd" d="M48.5949 61.4972C58.6491 61.4057 66.7642 54.8378 66.7642 46.7491C66.7642 38.6034 58.5343 32 48.3821 32C38.23 32 30 38.6034 30 46.7491C30 51.2023 32.4597 55.1946 36.3486 57.8989C37.5388 59.4164 36.4005 60.5253 35.4443 61.4568C34.7096 62.1725 34.0824 62.7835 34.7022 63.3944C35.1297 63.8861 36.7541 64.5744 39.8321 63.3944C43.6795 61.9195 45.3895 61.4981 48.5956 61.4981L48.5949 61.4972Z" fill="#A9C4FF"/>
    <path d="M48.5949 61.4972L48.579 59.7473C47.9069 59.7534 47.2978 60.1439 47.0115 60.752C46.7253 61.3601 46.8127 62.0784 47.2363 62.6002L48.5949 61.4972ZM36.3486 57.8989L37.7255 56.8189C37.618 56.6819 37.4907 56.5616 37.3477 56.4622L36.3486 57.8989ZM35.4443 61.4568L36.6654 62.7103H36.6654L35.4443 61.4568ZM34.7022 63.3944L36.0228 62.2462C35.9934 62.2123 35.9627 62.1796 35.9307 62.1481L34.7022 63.3944ZM39.8321 63.3944L40.4585 65.0285H40.4585L39.8321 63.3944ZM48.5956 61.4981V63.2481C49.2706 63.2481 49.8854 62.8599 50.1756 62.2505C50.4658 61.6411 50.3797 60.9192 49.9543 60.3951L48.5956 61.4981ZM65.0142 46.7491C65.0142 53.5412 58.0483 59.6611 48.579 59.7473L48.6109 63.2472C59.2498 63.1503 68.5142 56.1345 68.5142 46.7491H65.0142ZM48.3821 33.75C57.9471 33.75 65.0142 39.9099 65.0142 46.7491H68.5142C68.5142 37.2969 59.1214 30.25 48.3821 30.25V33.75ZM31.75 46.7491C31.75 39.9099 38.8171 33.75 48.3821 33.75V30.25C37.6428 30.25 28.25 37.2969 28.25 46.7491H31.75ZM37.3477 56.4622C33.8272 54.014 31.75 50.5154 31.75 46.7491H28.25C28.25 51.8893 31.0923 56.3752 35.3494 59.3357L37.3477 56.4622ZM34.9716 58.979C35.1201 59.1684 35.1153 59.2394 35.1102 59.2028C35.1043 59.1599 35.1209 59.144 35.0982 59.1959C35.0671 59.2668 34.9927 59.3905 34.8299 59.5798C34.666 59.7703 34.4718 59.961 34.2232 60.2032L36.6654 62.7103C37.0787 62.3077 37.8856 61.5564 38.3045 60.5993C38.5371 60.0679 38.6748 59.432 38.5775 58.7252C38.481 58.0249 38.1721 57.3882 37.7255 56.8189L34.9716 58.979ZM34.2232 60.2032C33.9315 60.4873 33.3516 61.0263 33.0237 61.6367C32.8346 61.9887 32.6459 62.5049 32.7138 63.1248C32.7841 63.7683 33.1028 64.2751 33.4737 64.6407L35.9307 62.1481C35.9918 62.2083 36.1564 62.4095 36.193 62.7443C36.227 63.0554 36.1249 63.2597 36.1069 63.2931C36.0932 63.3187 36.1111 63.2791 36.2254 63.1535C36.3357 63.0323 36.4727 62.8981 36.6654 62.7103L34.2232 60.2032ZM33.3816 64.5427C33.9811 65.2321 34.9754 65.6481 36.0958 65.7622C37.2688 65.8818 38.7221 65.6941 40.4585 65.0285L39.2057 61.7604C37.8641 62.2746 36.9662 62.3328 36.4506 62.2803C35.8825 62.2224 35.8509 62.0484 36.0228 62.2462L33.3816 64.5427ZM40.4585 65.0285C44.1901 63.5979 45.6783 63.2481 48.5956 63.2481V59.7481C45.1006 59.7481 43.1689 60.241 39.2057 61.7604L40.4585 65.0285ZM49.9543 60.3951L49.9536 60.3943L47.2363 62.6002L47.237 62.6011L49.9543 60.3951Z" fill="#1B2036"/>
    <path d="M47.0273 51.1406C47.8594 51.1406 48.3164 50.6836 48.4922 49.8984C48.6445 48.9141 48.9961 48.4102 50.5547 47.5078C52.207 46.5352 53.0625 45.3281 53.0625 43.5586C53.0625 40.8281 50.8242 39 47.4961 39C44.9766 39 43.1016 39.9961 42.3516 41.543C42.1172 41.9883 42 42.4336 42 42.9375C42 43.8281 42.5742 44.4023 43.5 44.4023C44.2148 44.4023 44.7422 44.0742 45.0352 43.3242C45.4102 42.2812 46.1836 41.7188 47.332 41.7188C48.6211 41.7188 49.5117 42.5156 49.5117 43.6641C49.5117 44.7422 49.0547 45.3281 47.543 46.2305C46.1602 47.0391 45.4453 47.9531 45.4453 49.3359V49.5C45.4453 50.4609 46.0312 51.1406 47.0273 51.1406ZM47.0508 56.3555C48.1172 56.3555 48.9727 55.5469 48.9727 54.5156C48.9727 53.4844 48.1172 52.6758 47.0508 52.6758C45.9961 52.6758 45.1406 53.4844 45.1406 54.5156C45.1406 55.5469 45.9961 56.3555 47.0508 56.3555Z" fill="#1B2036"/>
</svg>
