<svg width="96" height="96" viewBox="0 0 96 96" fill="none" xmlns="http://www.w3.org/2000/svg">
    <circle cx="48" cy="44" r="32" fill="white"/>
    <path d="M41.4242 59.9254V64.9354C41.4242 69.8041 38.0175 70.8877 33.5583 72.306L33.5583 72.306C32.2819 72.712 30.9192 73.1454 29.5255 73.7029C23.263 76.2079 19.8186 78.3997 19.8186 82.1572V82.9147C19.8186 84.9899 21.5009 86.6722 23.5761 86.6722H72.4236C74.4988 86.6722 76.1811 84.9899 76.1811 82.9147V82.1572C76.1811 78.3997 72.7367 76.2079 66.4742 73.7029C65.0806 73.1454 63.7179 72.712 62.4415 72.306L62.4414 72.306C57.9822 70.8877 54.5755 69.8041 54.5755 64.9354V59.9254L52.5 60.5L50 61H46.5H44L41.4242 59.9254Z" fill="#FFE173" stroke="#1B2036" stroke-width="3.13125"/>
    <path fill-rule="evenodd" clip-rule="evenodd" d="M35.8108 41.9437C32.1143 34.8249 31.3041 31.6565 36.4144 30.8048C38.2931 26.7341 41.1112 25.1685 47.3737 26.421C49.6057 26.8674 51.5195 27.3536 53.1434 27.7661C56.076 28.5111 58.0633 29.0159 59.2725 28.6129C60.6056 28.1685 59.4096 34.5888 58.3939 38.9592C58.767 39.8453 59.03 40.7891 59.1659 41.7735C61.0583 42.4892 62.4038 44.318 62.4038 46.461C62.4038 48.5647 61.1071 50.3656 59.2695 51.108C59.1296 57.212 54.1376 62.1172 48 62.1172C41.9321 62.1172 36.984 57.3229 36.7372 51.3156C34.5714 50.7628 32.97 48.7989 32.97 46.461C32.97 44.4711 34.1301 42.7522 35.8108 41.9437Z" fill="#FFE173"/>
    <path d="M36.4144 30.8048L36.6718 32.3491L37.4888 32.2129L37.8359 31.4608L36.4144 30.8048ZM35.8108 41.9437L36.4895 43.3545L37.9441 42.6547L37.2003 41.2222L35.8108 41.9437ZM47.3737 26.421L47.6808 24.8858H47.6808L47.3737 26.421ZM53.1434 27.7661L53.5289 26.2487V26.2487L53.1434 27.7661ZM59.2725 28.6129L58.7774 27.1276V27.1276L59.2725 28.6129ZM58.3939 38.9592L56.8689 38.6048L56.7541 39.099L56.9509 39.5667L58.3939 38.9592ZM59.1659 41.7735L57.615 41.9876L57.7423 42.9088L58.612 43.2378L59.1659 41.7735ZM59.2695 51.108L58.683 49.6564L57.7279 50.0423L57.7043 51.0722L59.2695 51.108ZM36.7372 51.3156L38.3015 51.2514L38.2536 50.0869L37.1244 49.7986L36.7372 51.3156ZM36.157 29.2604C34.7595 29.4933 33.5048 29.9202 32.5952 30.7413C31.6106 31.6302 31.2265 32.7973 31.2446 34.0467C31.2616 35.2243 31.6314 36.5238 32.1701 37.8929C32.7168 39.2826 33.4912 40.8739 34.4213 42.6652L37.2003 41.2222C36.2821 39.4541 35.5691 37.9798 35.0839 36.7466C34.5907 35.4928 34.3843 34.6122 34.3755 34.0014C34.3677 33.4624 34.5083 33.2328 34.6935 33.0656C34.9537 32.8306 35.5141 32.542 36.6718 32.3491L36.157 29.2604ZM47.6808 24.8858C44.4201 24.2336 41.7776 24.2518 39.6295 25.1794C37.4267 26.1305 36.0249 27.9126 34.9928 30.1487L37.8359 31.4608C38.6826 29.6263 39.6292 28.5902 40.8708 28.054C42.1671 27.4943 44.0649 27.3559 47.0667 27.9562L47.6808 24.8858ZM53.5289 26.2487C51.9057 25.8363 49.9566 25.3409 47.6808 24.8858L47.0667 27.9562C49.2548 28.3938 51.1333 28.8708 52.7579 29.2835L53.5289 26.2487ZM58.7774 27.1276C58.5573 27.201 58.0825 27.2373 57.1114 27.0756C56.1761 26.9199 55.0183 26.627 53.5289 26.2487L52.7579 29.2835C54.2011 29.6501 55.5033 29.9822 56.597 30.1644C57.6551 30.3406 58.7785 30.4279 59.7676 30.0982L58.7774 27.1276ZM59.9189 39.3136C60.4308 37.1111 60.9983 34.3505 61.2678 32.1728C61.3994 31.1092 61.4761 30.066 61.3986 29.2749C61.3639 28.92 61.2796 28.3664 60.9681 27.8916C60.7917 27.6228 60.4949 27.3084 60.0351 27.1389C59.566 26.9659 59.1183 27.0139 58.7774 27.1276L59.7676 30.0982C59.5933 30.1563 59.2925 30.2024 58.9518 30.0768C58.6205 29.9546 58.4337 29.7369 58.3502 29.6096C58.2245 29.418 58.2575 29.3272 58.2823 29.5799C58.3238 30.0042 58.288 30.756 58.1602 31.7883C57.9111 33.8022 57.3727 36.437 56.8689 38.6048L59.9189 39.3136ZM56.9509 39.5667C57.2718 40.3287 57.498 41.1404 57.615 41.9876L60.7169 41.5593C60.562 40.4378 60.2622 39.3619 59.8369 38.3517L56.9509 39.5667ZM58.612 43.2378C59.9155 43.7309 60.8381 44.9901 60.8381 46.461H63.9694C63.9694 43.6458 62.201 41.2476 59.7199 40.3091L58.612 43.2378ZM60.8381 46.461C60.8381 47.9048 59.9493 49.1448 58.683 49.6564L59.856 52.5597C62.265 51.5863 63.9694 49.2246 63.9694 46.461H60.8381ZM57.7043 51.0722C57.5838 56.3277 53.285 60.5516 48 60.5516V63.6829C54.9903 63.6829 60.6754 58.0964 60.8347 51.1439L57.7043 51.0722ZM48 60.5516C42.7753 60.5516 38.514 56.4231 38.3015 51.2514L35.1729 51.3799C35.454 58.2226 41.089 63.6829 48 63.6829V60.5516ZM37.1244 49.7986C35.6351 49.4185 34.5356 48.0662 34.5356 46.461H31.4044C31.4044 49.5317 33.5077 52.1072 36.35 52.8326L37.1244 49.7986ZM34.5356 46.461C34.5356 45.0953 35.3303 43.9122 36.4895 43.3545L35.1321 40.5328C32.9298 41.5923 31.4044 43.847 31.4044 46.461H34.5356Z" fill="#1B2036"/>
    <path d="M21.5387 62C19.6798 59.2726 18.2316 56.2429 17.283 53M74.4612 62C76.3201 59.2726 77.7683 56.2429 78.7169 53M33.4999 15.466C28.3879 18.069 24.0685 22.0053 20.9999 26.8169M62.4999 15.466C67.612 18.069 71.9314 22.0053 74.9999 26.8169" stroke="#1B2036" stroke-width="3" stroke-linecap="round"/>
    <path fill-rule="evenodd" clip-rule="evenodd" d="M51 18.3199C51 17.0063 51.7738 15.8454 52.6141 14.8356C53.4795 13.7957 54 12.4586 54 11C54 7.68629 51.3137 5 48 5C44.6863 5 42 7.68629 42 11C42 12.4586 42.5205 13.7957 43.3859 14.8356C44.2262 15.8454 45 17.0063 45 18.3199V19C45 20.6569 46.3431 22 48 22C49.6569 22 51 20.6569 51 19V18.3199Z" fill="#E5FF73"/>
    <path d="M43.3859 14.8356L42.2329 15.7951L43.3859 14.8356ZM52.5 11C52.5 12.0953 52.1106 13.0957 51.4611 13.8761L53.7671 15.7951C54.8484 14.4958 55.5 12.822 55.5 11H52.5ZM48 6.5C50.4853 6.5 52.5 8.51472 52.5 11H55.5C55.5 6.85786 52.1421 3.5 48 3.5V6.5ZM43.5 11C43.5 8.51472 45.5147 6.5 48 6.5V3.5C43.8579 3.5 40.5 6.85786 40.5 11H43.5ZM44.5389 13.8761C43.8894 13.0957 43.5 12.0953 43.5 11H40.5C40.5 12.822 41.1516 14.4958 42.2329 15.7951L44.5389 13.8761ZM46.5 19V18.3199H43.5V19H46.5ZM49.5 18.3199V19H52.5V18.3199H49.5ZM43.5 19C43.5 21.4853 45.5147 23.5 48 23.5V20.5C47.1716 20.5 46.5 19.8284 46.5 19H43.5ZM42.2329 15.7951C43.053 16.7806 43.5 17.5799 43.5 18.3199H46.5C46.5 16.4326 45.3994 14.9101 44.5389 13.8761L42.2329 15.7951ZM48 23.5C50.4853 23.5 52.5 21.4853 52.5 19H49.5C49.5 19.8284 48.8284 20.5 48 20.5V23.5ZM51.4611 13.8761C50.6006 14.9101 49.5 16.4326 49.5 18.3199H52.5C52.5 17.5799 52.947 16.7806 53.7671 15.7951L51.4611 13.8761Z" fill="#1B2036"/>
    <path d="M15.0489 32.927C15.3483 32.0057 16.6517 32.0057 16.9511 32.9271L18.2451 36.9098C18.379 37.3219 18.763 37.6008 19.1962 37.6008H23.3839C24.3527 37.6008 24.7554 38.8404 23.9717 39.4098L20.5838 41.8713C20.2333 42.126 20.0866 42.5773 20.2205 42.9894L21.5146 46.9721C21.8139 47.8934 20.7595 48.6596 19.9757 48.0902L16.5878 45.6287C16.2373 45.374 15.7627 45.374 15.4122 45.6287L12.0243 48.0902C11.2405 48.6596 10.1861 47.8934 10.4854 46.9721L11.7795 42.9894C11.9134 42.5773 11.7667 42.126 11.4162 41.8713L8.02827 39.4098C7.24456 38.8404 7.64734 37.6008 8.61606 37.6008H12.8038C13.237 37.6008 13.621 37.3219 13.7549 36.9098L15.0489 32.927Z" fill="#E5FF73" stroke="#1B2036" stroke-width="3" stroke-linecap="round"/>
    <path d="M79.0489 32.927C79.3483 32.0057 80.6517 32.0057 80.9511 32.9271L82.2451 36.9098C82.379 37.3219 82.763 37.6008 83.1962 37.6008H87.3839C88.3527 37.6008 88.7554 38.8404 87.9717 39.4098L84.5838 41.8713C84.2333 42.126 84.0866 42.5773 84.2205 42.9894L85.5146 46.9721C85.8139 47.8934 84.7595 48.6596 83.9757 48.0902L80.5878 45.6287C80.2373 45.374 79.7627 45.374 79.4122 45.6287L76.0243 48.0902C75.2405 48.6596 74.1861 47.8934 74.4854 46.9721L75.7795 42.9894C75.9134 42.5773 75.7667 42.126 75.4162 41.8713L72.0283 39.4098C71.2446 38.8404 71.6473 37.6008 72.6161 37.6008H76.8038C77.237 37.6008 77.621 37.3219 77.7549 36.9098L79.0489 32.927Z" fill="#E5FF73" stroke="#1B2036" stroke-width="3" stroke-linecap="round"/>
</svg>
