<svg width="324" height="80" viewBox="0 0 324 80" fill="none" xmlns="http://www.w3.org/2000/svg">
    <path d="M24.1593 43.3646C24.2086 43.0441 24.2579 42.551 24.2579 42.1072C24.2579 38.7294 21.9403 37.1268 15.3574 36.9296L12.3741 36.8556C9.24284 36.7817 8.8237 36.1406 8.8237 35.4749C8.8237 34.7599 9.19353 34.0449 12.9411 34.0449H13.163C17.0586 34.0449 17.2558 35.3024 17.3051 36.0174H24.7017C25.0222 33.1573 23.7155 30.0261 14.5437 30.0261H12.448C4.28713 30.0261 1.94488 32.0725 1.45177 34.8339C1.40246 35.1051 1.35315 35.4996 1.35315 35.8941C1.35315 38.7048 3.07902 41.121 9.58802 41.3429L12.6453 41.4662C15.9984 41.5895 16.4915 42.1072 16.4915 42.9948C16.4915 43.7838 16.1217 44.8686 11.9303 44.8686H11.733C7.81284 44.8686 7.56628 43.3153 7.54163 42.2798H0.0464208C-0.224787 44.77 0.391595 49.0354 10.2537 49.0354H12.3987C21.8417 49.0354 23.7155 46.274 24.1593 43.3646Z" fill="#1B2036"/>
    <path d="M26.5967 35.4256L23.7613 53.3254H30.295L31.3059 46.9643C31.8236 47.4821 33.7714 48.9367 37.4204 48.9367H37.7902C43.7568 48.9367 46.173 45.9288 46.5921 42.5757C46.6661 41.9839 46.6908 41.4169 46.6908 40.9977C46.6908 38.0637 44.9156 35.1791 39.5161 35.1791H39.1216C35.3986 35.1791 33.3769 36.7077 32.8591 37.1762L33.1303 35.4256H26.5967ZM36.4095 38.8527H36.5328C39.1216 38.8527 39.9845 40.0855 39.9845 41.5648C39.9845 43.2414 39.0969 45.2384 35.9904 45.2384H35.8424C33.2536 45.2384 32.0948 43.7838 32.0948 42.4277C32.0948 42.1072 32.1441 41.7867 32.1934 41.5648C32.4647 40.332 33.7221 38.8527 36.4095 38.8527Z" fill="#1B2036"/>
    <path d="M67.6293 43.8577H61.1449C60.997 44.2276 60.3559 45.4603 57.3233 45.4603H57.2987C54.6606 45.4603 53.7237 44.3508 53.699 43.0195H67.7772C67.8265 42.7236 67.9251 41.9346 67.9251 41.4415C67.9251 38.261 66.6184 35.0558 58.9259 35.0558H57.5946C49.8035 35.0558 47.8804 38.4582 47.4366 41.4662C47.3626 41.9593 47.338 42.4031 47.338 42.8222C47.338 45.9781 49.1871 49.06 56.559 49.06H57.8165C66.2732 49.06 67.3334 45.6822 67.6293 43.8577ZM58.0877 38.3103C60.5532 38.3103 61.4901 39.0746 61.6134 40.3074H54.1428C54.5866 39.1239 55.5975 38.3103 58.0877 38.3103Z" fill="#1B2036"/>
    <path d="M80.1857 46.915C80.2844 48.0245 80.9747 48.6902 82.0595 48.6902H87.3851L88.0015 44.8193H87.3111C86.8427 44.8193 86.744 44.5727 86.7934 44.2522L87.5083 39.7896C87.8535 37.6693 87.2865 35.0805 79.2735 35.0805H78.0407C70.1757 35.0805 69.584 37.9405 69.3374 39.6663H75.3533C75.4766 39.2472 75.6492 38.3103 78.4352 38.3103H78.4845C80.9994 38.3103 81.2213 38.8281 81.2213 39.2965C81.2213 39.691 80.9747 39.9375 80.383 39.9869L74.1452 40.5293C71.9509 40.7265 70.5948 41.0963 69.6826 41.7867C68.4991 42.625 68.2033 43.9317 68.2033 45.0658C68.2033 47.1369 69.7072 48.9367 73.9233 48.9367H74.1698C77.7202 48.9367 79.52 47.6053 80.1857 46.915ZM74.5397 44.5234C74.5397 43.8331 74.9588 43.4386 76.2902 43.2167L80.7035 42.4277L80.6049 43.0688C80.309 44.5974 78.7557 45.7315 76.4874 45.7315C74.9835 45.7315 74.5397 45.1152 74.5397 44.5234Z" fill="#1B2036"/>
    <path d="M99.6958 48.6902H107.142L102.383 41.5895L108.473 35.4256H101.126L96.1947 40.48L97.7973 30.3466H91.2637L88.3543 48.6902H94.888L95.8495 42.625L99.6958 48.6902Z" fill="#1B2036"/>
    <path d="M227.135 41.0717H220.059C219.886 41.4908 219.122 44.0796 213.895 44.0796C209.63 44.0796 208.397 42.1072 208.397 40.1101C208.397 39.691 208.422 39.2965 208.495 38.8527C208.767 37.2008 210.073 34.9325 214.955 34.9325C220.083 34.9325 220.527 37.2255 220.577 37.7432H227.653C228.121 35.1298 226.938 30.0015 215.744 30.0015H214.832C204.033 30.0015 201.839 35.2777 201.37 38.5075C201.247 39.3458 201.222 39.8882 201.222 40.5786C201.222 44.3755 203.441 49.0353 213.205 49.0353H214.142C225.088 49.0353 226.888 43.7591 227.135 41.0717Z" fill="#1B2036"/>
    <path d="M238.816 49.0847C247.495 49.0847 248.752 45.1645 249.146 42.4277C249.22 41.91 249.245 41.4415 249.245 41.0717C249.245 38.2856 247.618 35.0558 239.95 35.0558H238.15C229.841 35.0558 228.165 38.7787 227.795 41.6141C227.746 42.0086 227.721 42.477 227.721 42.8469C227.721 45.5836 229.472 49.0847 237.041 49.0847H238.816ZM238.791 38.8034H238.816C241.725 38.8034 242.588 40.1594 242.588 41.4908C242.588 43.192 241.676 45.2877 238.15 45.2877H238.126C235.266 45.2877 234.403 43.8084 234.403 42.477C234.403 40.8251 235.192 38.8034 238.791 38.8034Z" fill="#1B2036"/>
    <path d="M266.293 30.3466L265.232 37.1762C264.69 36.7324 262.841 35.1791 258.797 35.1791H258.378C252.831 35.1791 250.513 38.0884 250.02 41.2936C249.922 41.9346 249.897 42.477 249.897 42.9208C249.897 46.2986 252.165 48.9367 257.096 48.9367H257.466C261.386 48.9367 263.26 47.2602 263.729 46.7424L263.433 48.6902H269.942L272.851 30.3466H266.293ZM264.394 42.4277C264.123 43.6358 262.742 45.1891 259.956 45.1891H259.858C257.491 45.1891 256.603 43.8331 256.603 42.4031C256.603 40.7265 257.54 38.8774 260.647 38.8774H260.77C263.334 38.8774 264.468 40.2088 264.468 41.6634C264.468 41.91 264.444 42.2058 264.394 42.4277Z" fill="#1B2036"/>
    <path d="M281.166 30.3466H274.632L273.991 34.3161H280.525L281.166 30.3466ZM280.352 35.4256H273.819L271.723 48.6902H278.257L280.352 35.4256Z" fill="#1B2036"/>
    <path d="M280.03 48.6902H286.563L287.55 42.477C287.845 40.6525 289.103 39.2965 291.297 39.2965C293.541 39.2965 294.206 40.6032 293.96 42.3538L292.949 48.6902H299.507L300.765 40.7019C301.159 38.2117 299.853 35.1298 295.02 35.1298H294.872C291.001 35.1298 288.708 37.2994 288.24 37.7925L288.634 35.4256H282.125L280.03 48.6902Z" fill="#1B2036"/>
    <path d="M308.073 48.6902H301.564C301.416 50.1202 302.057 53.498 310.341 53.498H312.091C320.178 53.498 321.756 49.6024 322.274 46.3726L324 35.4256H317.466L317.195 37.1515C316.529 36.5844 314.68 35.1791 310.489 35.1791H310.094C304.522 35.1791 302.328 37.9405 301.884 40.9977C301.81 41.5155 301.785 41.8853 301.785 42.3045C301.785 45.2631 303.659 48.1231 309.281 48.1231H309.577C313.546 48.1231 315.223 46.7671 315.79 46.2L315.74 46.4712C315.494 48.0491 314.557 49.7997 311.401 49.7997H311.352C308.368 49.7997 308.122 49.0353 308.073 48.6902ZM311.968 44.5234H311.82C309.305 44.5234 308.418 43.3646 308.418 42.0086C308.418 40.5539 309.207 38.9267 312.486 38.9267H312.658C315.247 38.9267 316.48 40.0362 316.48 41.4169C316.48 41.6141 316.455 41.836 316.406 42.0332C316.11 43.3153 314.73 44.5234 311.968 44.5234Z" fill="#1B2036"/>
    <path d="M114.75 40C114.75 17.9086 132.659 0 154.75 0C176.841 0 194.75 17.9086 194.75 40C194.75 62.0914 176.841 80 154.75 80C132.659 80 114.75 62.0914 114.75 40Z" fill="#FDDE4F"/>
    <path d="M145.159 43.8234C145.209 43.5029 145.258 43.0097 145.258 42.566C145.258 39.1882 142.94 37.5856 136.357 37.3883L133.374 37.3144C130.243 37.2404 129.824 36.5994 129.824 35.9337C129.824 35.2187 130.194 34.5037 133.941 34.5037H134.163C138.059 34.5037 138.256 35.7611 138.305 36.4761H145.702C146.022 33.6161 144.715 30.4849 135.544 30.4849H133.448C125.287 30.4849 122.945 32.5313 122.452 35.2926C122.402 35.5639 122.353 35.9583 122.353 36.3528C122.353 39.1635 124.079 41.5797 130.588 41.8016L133.645 41.9249C136.998 42.0482 137.491 42.566 137.491 43.4535C137.491 44.2425 137.122 45.3273 132.93 45.3273H132.733C128.813 45.3273 128.566 43.7741 128.542 42.7385H121.046C120.775 45.2287 121.392 49.4941 131.254 49.4941H133.399C142.842 49.4941 144.715 46.7327 145.159 43.8234Z" fill="#1B2036"/>
    <path d="M156.554 52.2899C156.554 49.6078 154.974 45.6398 154.974 43.619C154.974 42.7372 155.341 42.0759 156.627 42.0759H159.125L159.824 37.7404H157.582C156.59 37.7404 156.039 37.4097 156.039 36.6382C156.039 34.7644 160.669 29.8043 160.669 26.6813C160.669 23.9257 158.538 22.75 154.533 22.75H149.352L148.654 27.0855H151.226C152.439 27.0855 152.99 27.5631 152.99 28.4816C152.99 30.5391 149.389 34.2133 149.389 36.7484C149.389 38.1813 150.087 39.357 152.622 39.8714C149.279 40.3858 148.25 42.0024 148.25 43.8395C148.25 45.9704 149.389 49.7181 149.389 51.3714C149.389 52.3634 148.875 52.8778 147.662 52.8778H144.576L143.878 57.25H149.867C154.79 57.25 156.554 55.3027 156.554 52.2899Z" fill="#1B2036"/>
    <path fill-rule="evenodd" clip-rule="evenodd" d="M188.001 42.0875C187.56 44.8816 185.336 49.5187 175.074 49.5187H174.137C164.373 49.5187 162.154 44.8589 162.154 41.062C162.154 40.3716 162.179 39.8292 162.302 38.9909C162.771 35.7611 164.965 30.4849 175.764 30.4849H176.676C187.206 30.4849 188.878 35.0228 188.649 37.7366H181.398C181.095 36.8846 179.992 35.4159 175.887 35.4159C171.006 35.4159 169.699 37.6842 169.428 39.3361C169.354 39.7799 169.329 40.1744 169.329 40.5935C169.329 42.5906 170.562 44.563 174.827 44.563C178.917 44.563 180.275 42.9779 180.755 42.0875H188.001Z" fill="#1B2036"/>
</svg>
