<svg width="126" height="25" viewBox="0 0 126 25" fill="none" xmlns="http://www.w3.org/2000/svg">
    <rect x="0.388672" y="0.282532" width="58.6658" height="24.4441" fill="#FDDE4F"/>
    <path d="M6.86066 20.3044C7.98081 20.3044 8.95916 20.1059 9.79573 19.7089C10.6465 19.2977 11.3129 18.7377 11.795 18.0287C12.2771 17.3056 12.5181 16.4832 12.5181 15.5616C12.5181 13.4347 11.2491 11.9601 8.71103 11.1377L5.66963 10.1593C4.70545 9.83322 4.22336 9.29441 4.22336 8.54292C4.22336 8.03248 4.42896 7.62129 4.84015 7.30935C5.25134 6.98323 5.79015 6.82017 6.45656 6.82017C7.22223 6.82017 7.90282 7.03286 8.49834 7.45823C9.09386 7.86942 9.5405 8.44367 9.83826 9.18098L12.5181 7.96867C12.0786 6.72092 11.3129 5.74256 10.2211 5.03361C9.14349 4.31048 7.88865 3.94891 6.45656 3.94891C5.37895 3.94891 4.42187 4.14742 3.58531 4.54443C2.76292 4.94145 2.11777 5.49443 1.64987 6.20338C1.19614 6.91233 0.969271 7.73472 0.969271 8.67054C0.969271 10.8258 2.2383 12.3216 4.77634 13.1582L7.88156 14.1791C8.81737 14.491 9.28528 15.0157 9.28528 15.753C9.28528 16.2634 9.07969 16.6746 8.66849 16.9865C8.27148 17.2843 7.73977 17.4332 7.07335 17.4332C6.22261 17.4332 5.44276 17.1851 4.73381 16.6888C4.03903 16.1925 3.49314 15.5119 3.09613 14.647L0.39502 15.8593C0.706959 16.7668 1.17487 17.5537 1.79875 18.2201C2.4368 18.8865 3.18829 19.4041 4.05321 19.7727C4.93231 20.1272 5.86813 20.3044 6.86066 20.3044Z" fill="black"/>
    <path d="M12.932 24.6998H16.1223V19.1559C16.5335 19.5388 17.0227 19.8294 17.5898 20.028C18.1712 20.2123 18.788 20.3044 19.4402 20.3044C20.5745 20.3044 21.5883 20.035 22.4816 19.4962C23.3749 18.9574 24.0767 18.2272 24.5872 17.3056C25.1118 16.3839 25.3741 15.363 25.3741 14.2429C25.3741 13.1086 25.1118 12.0877 24.5872 11.1802C24.0626 10.2586 23.3536 9.52837 22.4603 8.98956C21.5671 8.45076 20.5674 8.18136 19.4615 8.18136C17.9159 8.18136 16.732 8.67054 15.9096 9.64889V8.43658H12.932V24.6998ZM19.0574 17.4332C18.1924 17.4332 17.4835 17.1425 16.9305 16.5612C16.3917 15.9657 16.1223 15.1929 16.1223 14.2429C16.1223 13.3071 16.3917 12.5414 16.9305 11.9459C17.4835 11.3504 18.1924 11.0526 19.0574 11.0526C19.9365 11.0526 20.6596 11.3575 21.2268 11.9672C21.7939 12.5627 22.0775 13.3213 22.0775 14.2429C22.0775 15.1787 21.7939 15.9444 21.2268 16.5399C20.6596 17.1354 19.9365 17.4332 19.0574 17.4332Z" fill="black"/>
    <path d="M31.5601 20.3044C32.7512 20.3044 33.7933 20.0492 34.6866 19.5388C35.5799 19.0142 36.2038 18.3265 36.5582 17.4757L34.006 16.2634C33.7791 16.6604 33.4601 16.9724 33.0489 17.1992C32.6519 17.4261 32.1698 17.5395 31.6027 17.5395C30.8228 17.5395 30.1848 17.3198 29.6885 16.8802C29.1922 16.4407 28.9015 15.8593 28.8165 15.1362H36.9411C36.9978 14.9802 37.0332 14.7959 37.0474 14.5832C37.0758 14.3563 37.0899 14.1295 37.0899 13.9026C37.0899 12.825 36.8631 11.8608 36.4094 11.0101C35.9698 10.1452 35.3247 9.45747 34.4739 8.94703C33.6232 8.43658 32.581 8.18136 31.3474 8.18136C30.2415 8.18136 29.2489 8.44367 28.3698 8.9683C27.4907 9.49292 26.7889 10.209 26.2642 11.1164C25.7538 12.0239 25.4986 13.059 25.4986 14.2216C25.4986 15.3418 25.7467 16.3627 26.243 17.2843C26.7392 18.2059 27.4411 18.9433 28.3486 19.4962C29.256 20.035 30.3265 20.3044 31.5601 20.3044ZM31.3474 10.7336C31.9997 10.7336 32.5385 10.925 32.9638 11.3078C33.3892 11.6907 33.6373 12.1869 33.7082 12.7966H28.8803C29.0362 12.1302 29.3269 11.6198 29.7523 11.2653C30.1918 10.9108 30.7236 10.7336 31.3474 10.7336Z" fill="black"/>
    <path d="M40.8615 20.3044C42.3077 20.3044 43.4704 19.8578 44.3495 18.9645V20.0492H47.3271V12.3925C47.3271 11.556 47.1144 10.8258 46.6891 10.2019C46.2779 9.56382 45.6965 9.06755 44.945 8.71307C44.1935 8.3586 43.3286 8.18136 42.3503 8.18136C41.1167 8.18136 40.032 8.46494 39.0962 9.0321C38.1745 9.59926 37.5436 10.3649 37.2033 11.3291L39.7555 12.5414C39.954 12.031 40.2659 11.6198 40.6913 11.3078C41.1309 10.9959 41.6342 10.8399 42.2014 10.8399C42.7969 10.8399 43.2648 10.9888 43.6051 11.2866C43.9596 11.5843 44.1368 11.953 44.1368 12.3925V12.7116L40.9253 13.222C39.5357 13.4489 38.5007 13.8813 37.8201 14.5194C37.1395 15.1574 36.7992 15.9657 36.7992 16.944C36.7992 17.9933 37.1607 18.8156 37.8839 19.4112C38.6212 20.0067 39.6137 20.3044 40.8615 20.3044ZM40.0958 16.8377C40.0958 16.4548 40.2163 16.1642 40.4574 15.9657C40.6984 15.753 41.0458 15.6041 41.4995 15.519L44.1368 15.0511V15.4127C44.1368 16.1216 43.8958 16.7242 43.4137 17.2205C42.9316 17.7168 42.2935 17.9649 41.4995 17.9649C41.1025 17.9649 40.7693 17.8656 40.4999 17.6671C40.2305 17.4686 40.0958 17.1921 40.0958 16.8377Z" fill="black"/>
    <path d="M47.9653 20.0492H51.1556V16.4974L52.4317 15.0936L55.3881 20.0492H59.0037L54.8138 13.1157L59.025 8.43658H55.0903L51.1556 12.6265V4.20414H47.9653V20.0492Z" fill="black"/>
    <path d="M66.4889 20.3044C67.6374 20.3044 68.6654 20.113 69.5729 19.7302C70.4945 19.3474 71.2744 18.8369 71.9124 18.1989C72.5505 17.5608 73.0042 16.8518 73.2736 16.072L70.3598 14.6683C70.0904 15.4339 69.6154 16.072 68.9348 16.5824C68.2684 17.0787 67.4531 17.3268 66.4889 17.3268C65.5531 17.3268 64.7307 17.1071 64.0218 16.6675C63.3128 16.228 62.7598 15.6183 62.3628 14.8384C61.98 14.0586 61.7886 13.1511 61.7886 12.116C61.7886 11.081 61.98 10.1806 62.3628 9.41494C62.7598 8.63509 63.3128 8.02539 64.0218 7.58584C64.7307 7.14629 65.5531 6.92651 66.4889 6.92651C67.4531 6.92651 68.2684 7.18174 68.9348 7.69218C69.6154 8.18845 70.0904 8.81942 70.3598 9.58508L73.2736 8.18136C73.0042 7.40151 72.5505 6.69256 71.9124 6.0545C71.2744 5.41644 70.4945 4.906 69.5729 4.52317C68.6654 4.14033 67.6374 3.94891 66.4889 3.94891C65.3404 3.94891 64.277 4.15451 63.2986 4.5657C62.3345 4.96272 61.4908 5.52988 60.7677 6.26719C60.0445 6.99032 59.4845 7.85524 59.0875 8.86195C58.6904 9.85449 58.4919 10.9392 58.4919 12.116C58.4919 13.2929 58.6904 14.3776 59.0875 15.3701C59.4987 16.3627 60.0658 17.2276 60.7889 17.9649C61.5121 18.7022 62.3557 19.2765 63.3199 19.6877C64.2983 20.0988 65.3546 20.3044 66.4889 20.3044Z" fill="black"/>
    <path d="M79.43 20.3044C80.5785 20.3044 81.6207 20.0421 82.5565 19.5175C83.4923 18.9929 84.2367 18.2768 84.7897 17.3694C85.3569 16.4477 85.6404 15.4056 85.6404 14.2429C85.6404 13.066 85.3569 12.0239 84.7897 11.1164C84.2367 10.209 83.4923 9.49292 82.5565 8.9683C81.6207 8.44367 80.5785 8.18136 79.43 8.18136C78.2815 8.18136 77.2323 8.44367 76.2823 8.9683C75.3465 9.49292 74.595 10.209 74.0278 11.1164C73.4748 12.0239 73.1983 13.066 73.1983 14.2429C73.1983 15.4056 73.4748 16.4477 74.0278 17.3694C74.595 18.2768 75.3465 18.9929 76.2823 19.5175C77.2323 20.0421 78.2815 20.3044 79.43 20.3044ZM79.43 17.4332C78.5651 17.4332 77.8561 17.1354 77.3032 16.5399C76.7644 15.9444 76.495 15.1787 76.495 14.2429C76.495 13.3213 76.7644 12.5627 77.3032 11.9672C77.8561 11.3575 78.5651 11.0526 79.43 11.0526C80.2949 11.0526 80.9968 11.3575 81.5356 11.9672C82.0744 12.5627 82.3438 13.3213 82.3438 14.2429C82.3438 15.1787 82.0744 15.9444 81.5356 16.5399C80.9968 17.1354 80.2949 17.4332 79.43 17.4332Z" fill="black"/>
    <path d="M91.9225 20.3044C92.6314 20.3044 93.2907 20.191 93.9005 19.9641C94.5243 19.7231 95.0419 19.3828 95.4531 18.9433V20.0492H98.4307V4.20414H95.2404V9.41494C94.418 8.59255 93.3049 8.18136 91.9012 8.18136C90.7952 8.18136 89.7956 8.45076 88.9024 8.98956C88.0091 9.52837 87.3001 10.2586 86.7755 11.1802C86.2509 12.0877 85.9886 13.1086 85.9886 14.2429C85.9886 15.363 86.2438 16.3839 86.7542 17.3056C87.2788 18.2272 87.9878 18.9574 88.8811 19.4962C89.7744 20.035 90.7882 20.3044 91.9225 20.3044ZM92.3053 17.4332C91.4262 17.4332 90.7031 17.1354 90.1359 16.5399C89.5688 15.9444 89.2852 15.1787 89.2852 14.2429C89.2852 13.3213 89.5688 12.5627 90.1359 11.9672C90.7031 11.3575 91.4262 11.0526 92.3053 11.0526C93.1702 11.0526 93.8721 11.3504 94.4109 11.9459C94.9639 12.5414 95.2404 13.3071 95.2404 14.2429C95.2404 15.1929 94.9639 15.9657 94.4109 16.5612C93.8721 17.1425 93.1702 17.4332 92.3053 17.4332Z" fill="black"/>
    <path d="M99.0656 7.39442H102.256V4.20414H99.0656V7.39442ZM99.0656 20.0492H102.256V8.43658H99.0656V20.0492Z" fill="black"/>
    <path d="M102.889 20.0492H106.079V13.2645C106.079 12.5981 106.278 12.0664 106.675 11.6694C107.072 11.2582 107.582 11.0526 108.206 11.0526C108.83 11.0526 109.34 11.2582 109.737 11.6694C110.134 12.0664 110.333 12.5981 110.333 13.2645V20.0492H113.523V12.584C113.523 11.7049 113.339 10.9392 112.97 10.2869C112.602 9.62053 112.084 9.103 111.418 8.73434C110.765 8.36569 110 8.18136 109.121 8.18136C108.383 8.18136 107.731 8.32315 107.164 8.60673C106.597 8.87613 106.164 9.29441 105.867 9.86158V8.43658H102.889V20.0492Z" fill="black"/>
    <path d="M120.258 24.7283C121.378 24.7283 122.363 24.5014 123.214 24.0477C124.079 23.594 124.759 22.963 125.256 22.1548C125.752 21.3608 126 20.4533 126 19.4324V8.43658H123.022V9.64889C122.2 8.67054 121.073 8.18136 119.641 8.18136C118.577 8.18136 117.627 8.4224 116.791 8.90449C115.954 9.38658 115.295 10.053 114.813 10.9037C114.331 11.7403 114.09 12.7045 114.09 13.7963C114.09 14.888 114.331 15.8664 114.813 16.7313C115.295 17.5821 115.961 18.2556 116.812 18.7518C117.663 19.2339 118.627 19.475 119.705 19.475C121.009 19.475 122.044 19.0921 122.81 18.3265V19.4324C122.81 20.1839 122.583 20.7724 122.129 21.1977C121.675 21.6373 121.052 21.857 120.258 21.857C119.591 21.857 119.017 21.7011 118.535 21.3891C118.053 21.0772 117.734 20.6518 117.578 20.113L114.621 21.1552C114.862 21.8783 115.252 22.5022 115.791 23.0268C116.344 23.5656 117.003 23.9839 117.769 24.2817C118.535 24.5794 119.364 24.7283 120.258 24.7283ZM120.151 16.5824C119.343 16.5824 118.677 16.3272 118.152 15.8168C117.641 15.3063 117.386 14.647 117.386 13.8388C117.386 13.0164 117.641 12.35 118.152 11.8396C118.677 11.3149 119.343 11.0526 120.151 11.0526C120.945 11.0526 121.583 11.3078 122.065 11.8183C122.562 12.3287 122.81 13.0022 122.81 13.8388C122.81 14.6612 122.562 15.3276 122.065 15.838C121.583 16.3343 120.945 16.5824 120.151 16.5824Z" fill="black"/>
</svg>
