<svg width="128" height="34" viewBox="0 0 128 34" fill="none" xmlns="http://www.w3.org/2000/svg">
    <path opacity="0.2" d="M21.1816 16.8541L0.000146866 24.1424V33.7082L21.1816 26.4199V16.8541Z" fill="url(#paint0_linear)"/>
    <path d="M32.196 19.8445C31.4429 19.8445 30.7323 19.7352 30.0642 19.5166C29.4083 19.2858 28.8616 18.9396 28.4243 18.478L29.4265 16.7835L29.4994 16.6377L29.6633 16.7288C29.6876 16.826 29.718 16.9232 29.7545 17.0203C29.803 17.1054 29.9002 17.2147 30.046 17.3483C30.3497 17.5791 30.6837 17.7674 31.0481 17.9131C31.4247 18.0589 31.8316 18.1318 32.2689 18.1318C32.8398 18.1318 33.3014 18.0103 33.6537 17.7674C34.0181 17.5123 34.2003 17.1418 34.2003 16.6559C34.2003 16.413 34.1456 16.1883 34.0363 15.9818C33.927 15.7631 33.7083 15.5445 33.3804 15.3258C33.0645 15.1072 32.5908 14.8521 31.9591 14.5605C31.1817 14.2204 30.5622 13.8803 30.1006 13.5402C29.6512 13.1879 29.3293 12.8114 29.1349 12.4105C28.9406 11.9975 28.8434 11.5359 28.8434 11.0257C28.8434 10.467 28.9953 9.96894 29.2989 9.53165C29.6148 9.09435 30.046 8.74816 30.5926 8.49307C31.1392 8.23798 31.7648 8.11044 32.4693 8.11044C33.8662 8.11044 35.0141 8.59632 35.913 9.56809L34.7105 10.9529L34.6011 11.0804L34.4554 10.9711C34.4432 10.8739 34.4189 10.7828 34.3825 10.6978C34.3582 10.6006 34.2792 10.4791 34.1456 10.3334C33.9148 10.1147 33.6658 9.96894 33.3986 9.89606C33.1435 9.82318 32.8398 9.78674 32.4875 9.78674C31.9895 9.78674 31.5947 9.90213 31.3032 10.1329C31.0117 10.3637 30.8659 10.631 30.8659 10.9346C30.8659 11.1776 30.9206 11.3962 31.0299 11.5906C31.1392 11.7849 31.3579 11.9914 31.6858 12.2101C32.026 12.4287 32.5422 12.6899 33.2346 12.9936C33.9999 13.3458 34.6011 13.692 35.0384 14.0321C35.4757 14.3601 35.7794 14.7245 35.9495 15.1254C36.1317 15.5262 36.2228 15.9939 36.2228 16.5284C36.2228 17.075 36.0831 17.6034 35.8037 18.1136C35.5243 18.6237 35.087 19.0428 34.4918 19.3708C33.8966 19.6866 33.1313 19.8445 32.196 19.8445ZM37.7715 22.687L37.7533 11.1533H39.794V12.3376C40.0613 11.8639 40.4014 11.5177 40.8144 11.2991C41.2274 11.0804 41.6829 10.9711 42.1809 10.9711C42.8004 10.9711 43.3592 11.1411 43.8572 11.4813C44.3674 11.8092 44.7743 12.3073 45.078 12.9753C45.3817 13.6313 45.5335 14.4512 45.5335 15.4351C45.5335 16.4312 45.3756 17.2572 45.0598 17.9131C44.744 18.5691 44.3249 19.061 43.8026 19.389C43.2924 19.7048 42.7397 19.8628 42.1445 19.8628C41.695 19.8628 41.2638 19.7838 40.8508 19.6259C40.4378 19.468 40.1098 19.2311 39.8669 18.9153V22.687H37.7715ZM41.5796 18.2593C41.9319 18.2593 42.2538 18.1682 42.5453 17.986C42.8369 17.8038 43.0677 17.5001 43.2377 17.075C43.4078 16.6498 43.4928 16.0668 43.4928 15.3258C43.4928 14.4877 43.3288 13.8256 43.0009 13.3398C42.685 12.8539 42.2477 12.6049 41.689 12.5927C41.1059 12.5806 40.6504 12.8114 40.3224 13.2851C40.0066 13.7467 39.8487 14.5059 39.8487 15.5627C39.873 17.3605 40.45 18.2593 41.5796 18.2593ZM50.9451 19.8445C50.1312 19.8445 49.4024 19.6745 48.7586 19.3344C48.1269 18.9942 47.6289 18.4962 47.2645 17.8403C46.9001 17.1843 46.7179 16.3948 46.7179 15.4716C46.7179 14.5241 46.894 13.7163 47.2463 13.0482C47.6107 12.3801 48.0905 11.87 48.6857 11.5177C49.2931 11.1533 49.9672 10.9711 50.7082 10.9711C51.3641 10.9711 51.9654 11.1229 52.512 11.4266C53.0708 11.7303 53.5142 12.1919 53.8421 12.8114C54.1823 13.4187 54.3523 14.1779 54.3523 15.0889C54.3523 15.2104 54.3462 15.3562 54.3341 15.5262C54.3341 15.6963 54.328 15.8421 54.3159 15.9635H48.7039C48.7282 16.498 48.8558 16.9353 49.0865 17.2754C49.3173 17.6034 49.6028 17.8463 49.9429 18.0042C50.283 18.1622 50.6475 18.2411 51.0362 18.2411C51.4127 18.2411 51.7711 18.1804 52.1112 18.0589C52.4513 17.9374 52.7671 17.7309 53.0586 17.4394L54.1154 18.4598C53.7024 18.9456 53.2287 19.2979 52.6942 19.5166C52.1598 19.7352 51.5767 19.8445 50.9451 19.8445ZM48.7404 14.4148H52.348C52.348 13.8196 52.1962 13.3641 51.8925 13.0482C51.5889 12.7324 51.1637 12.5745 50.6171 12.5745C50.1433 12.5745 49.7303 12.7263 49.3781 13.03C49.0258 13.3215 48.8132 13.7831 48.7404 14.4148ZM58.7253 19.8628C57.7899 19.8628 57.0611 19.6441 56.5388 19.2068C56.0286 18.7695 55.7735 18.1925 55.7735 17.4758C55.7735 16.577 56.1744 15.836 56.9761 15.2529C57.7899 14.6577 58.9682 14.3601 60.5109 14.3601C60.5959 14.3601 60.7052 14.3601 60.8389 14.3601C60.9846 14.3601 61.1365 14.3662 61.2944 14.3783C61.2093 13.6738 61.0089 13.2001 60.6931 12.9571C60.3773 12.702 59.9521 12.5745 59.4177 12.5745C59.0289 12.5745 58.6645 12.6413 58.3244 12.7749C57.9843 12.8964 57.6442 13.1272 57.3041 13.4673L56.1744 12.2283C56.6603 11.7789 57.1887 11.457 57.7596 11.2626C58.3305 11.0683 58.9135 10.9711 59.5088 10.9711C60.2133 10.9711 60.8571 11.0865 61.4401 11.3173C62.0232 11.5359 62.4848 11.9246 62.8249 12.4834C63.165 13.03 63.3351 13.7892 63.3351 14.761V19.6441H61.2033V18.7331C60.8875 19.1582 60.523 19.4558 60.11 19.6259C59.697 19.7838 59.2354 19.8628 58.7253 19.8628ZM57.8325 17.2208C57.8325 17.6095 57.9539 17.8828 58.1969 18.0407C58.452 18.1865 58.7617 18.2593 59.1261 18.2593C59.7821 18.2593 60.2922 18.065 60.6567 17.6763C61.0211 17.2754 61.2397 16.6498 61.3126 15.7995C61.1547 15.7995 61.0028 15.7995 60.8571 15.7995C60.7113 15.7874 60.5838 15.7813 60.4744 15.7813C59.5027 15.7813 58.8164 15.9149 58.4155 16.1822C58.0268 16.4494 57.8325 16.7956 57.8325 17.2208ZM67.9449 15.7995L67.2707 16.4737V19.6441H65.1754V7.41805H67.4165V7.58204C67.3436 7.65492 67.3011 7.73995 67.289 7.83713C67.2768 7.92216 67.2707 8.06185 67.2707 8.2562V14.2326L70.514 11.0986C70.6962 11.1351 70.9088 11.1654 71.1517 11.1897C71.3947 11.214 71.5951 11.2262 71.753 11.2262H72.7369L69.3661 14.5241L73.1925 19.6259L70.842 19.717L67.9449 15.7995ZM78.5311 19.8263C77.7172 19.8263 76.9884 19.6259 76.3446 19.225C75.7008 18.812 75.1967 18.1804 74.8323 17.3301C74.4679 16.4676 74.2796 15.3683 74.2675 14.0321C74.2675 12.9146 74.3889 11.9854 74.6319 11.2444C74.8748 10.4913 75.1967 9.89606 75.5976 9.45877C75.9984 9.00932 76.4479 8.68743 76.9459 8.49307C77.4439 8.29872 77.948 8.20154 78.4582 8.20154C79.2842 8.20154 79.9584 8.40804 80.4807 8.82104C81.003 9.2219 81.41 9.76244 81.7015 10.4427L81.3189 10.6249L81.1913 10.6795L81.1367 10.5702C81.1852 10.5095 81.1913 10.4427 81.1549 10.3698C81.1184 10.2969 81.0456 10.1754 80.9362 10.0054C80.6204 9.53165 80.2438 9.18546 79.8066 8.96681C79.3814 8.73601 78.9198 8.62669 78.4218 8.63884C77.9602 8.65098 77.5107 8.74816 77.0735 8.93037C76.6362 9.10043 76.2414 9.39196 75.8891 9.80496C75.549 10.2058 75.2757 10.7464 75.0692 11.4266C74.8627 12.0947 74.7594 12.9328 74.7594 13.941C74.7594 15.7631 75.0935 17.1297 75.7616 18.0407C76.4297 18.9396 77.3346 19.389 78.4764 19.389C79.1202 19.389 79.6547 19.2493 80.0799 18.9699C80.505 18.6784 80.8633 18.2715 81.1549 17.7492L81.5375 17.9678C81.1974 18.5752 80.7965 19.0367 80.3349 19.3526C79.8734 19.6684 79.2721 19.8263 78.5311 19.8263ZM87.0037 19.7899C85.874 19.7899 85.0116 19.4012 84.4164 18.6237C83.8212 17.8342 83.5236 16.8078 83.5236 15.5445C83.5236 14.2812 83.8212 13.2547 84.4164 12.4652C85.0116 11.6756 85.874 11.2808 87.0037 11.2808C88.1334 11.2808 88.9958 11.6756 89.591 12.4652C90.1862 13.2547 90.4838 14.2812 90.4838 15.5445C90.4838 16.8078 90.1862 17.8342 89.591 18.6237C88.9958 19.4012 88.1334 19.7899 87.0037 19.7899ZM87.0037 19.3708C87.6718 19.3708 88.2306 19.2068 88.68 18.8788C89.1294 18.5387 89.4635 18.0771 89.6821 17.4941C89.9129 16.911 90.0283 16.2551 90.0283 15.5262C90.0283 14.3358 89.7489 13.4005 89.1902 12.7203C88.6314 12.04 87.9026 11.6999 87.0037 11.6999C86.0319 11.6999 85.2849 12.0582 84.7626 12.7749C84.2402 13.4916 83.9791 14.4087 83.9791 15.5262C83.9791 16.6802 84.2342 17.6095 84.7443 18.314C85.2667 19.0185 86.0198 19.3708 87.0037 19.3708ZM96.0047 19.8263C95.4216 19.8263 94.8629 19.6684 94.3284 19.3526C93.8061 19.0367 93.3809 18.5569 93.053 17.9131C92.725 17.2572 92.561 16.4312 92.561 15.4351C92.561 14.4391 92.7371 13.6374 93.0894 13.03C93.4417 12.4105 93.8911 11.9611 94.4377 11.6817C94.9965 11.3902 95.5613 11.2444 96.1322 11.2444C96.5695 11.2444 96.9765 11.3416 97.353 11.5359C97.7296 11.7303 98.0515 11.9914 98.3187 12.3194C98.5981 12.6352 98.7925 12.9875 98.9018 13.3762V7.52738H99.4848V7.65492C99.4241 7.67922 99.3816 7.73388 99.3573 7.81891C99.3451 7.89179 99.3451 8.03148 99.3573 8.23798L99.3755 18.3504C99.3755 18.5691 99.3816 18.7877 99.3937 19.0064C99.418 19.2129 99.4727 19.4255 99.5577 19.6441L99.084 19.6259C99.0233 19.4801 98.9807 19.2918 98.9564 19.061C98.9321 18.8181 98.9139 18.5812 98.9018 18.3504C98.9018 18.1196 98.9018 17.9314 98.9018 17.7856C98.8167 18.0771 98.6528 18.3808 98.4098 18.6966C98.1669 19.0125 97.845 19.2797 97.4441 19.4983C97.0554 19.717 96.5756 19.8263 96.0047 19.8263ZM96.0958 19.4072C97.0068 19.4072 97.7053 19.0428 98.1912 18.314C98.6771 17.573 98.92 16.6134 98.92 15.4351C98.92 14.4877 98.7682 13.7406 98.4645 13.194C98.173 12.6474 97.8085 12.2587 97.3712 12.0279C96.9461 11.7849 96.5392 11.6635 96.1505 11.6635C95.616 11.6635 95.1119 11.791 94.6381 12.0461C94.1644 12.3012 93.7757 12.702 93.472 13.2487C93.1805 13.7953 93.0347 14.5059 93.0347 15.3805C93.0347 16.3401 93.1744 17.1175 93.4538 17.7127C93.7453 18.3079 94.1219 18.7391 94.5835 19.0064C95.0572 19.2736 95.5613 19.4072 96.0958 19.4072ZM102.673 19.6441V19.225H105.042V11.8821H102.783V11.463H105.498V19.225H107.702V19.6441H102.673ZM105.206 9.09435C105.085 9.09435 104.975 9.05184 104.878 8.96681C104.793 8.86963 104.751 8.76031 104.751 8.63884C104.751 8.50522 104.793 8.3959 104.878 8.31087C104.975 8.21369 105.085 8.1651 105.206 8.1651C105.34 8.1651 105.449 8.21369 105.534 8.31087C105.631 8.3959 105.68 8.50522 105.68 8.63884C105.68 8.76031 105.631 8.86963 105.534 8.96681C105.449 9.05184 105.34 9.09435 105.206 9.09435ZM111.346 19.6441V11.463H111.802V13.4855C112.045 12.8053 112.44 12.2769 112.986 11.9003C113.545 11.5116 114.195 11.3173 114.936 11.3173C115.373 11.3173 115.78 11.4144 116.157 11.6088C116.533 11.791 116.837 12.1311 117.068 12.6292C117.311 13.115 117.432 13.8196 117.432 14.7428V19.6441H116.977V14.7792C116.977 13.6252 116.788 12.8296 116.412 12.3923C116.047 11.955 115.507 11.7363 114.79 11.7363C114.195 11.7363 113.673 11.8882 113.223 12.1919C112.774 12.4834 112.421 12.8782 112.166 13.3762C111.923 13.8742 111.802 14.4148 111.802 14.9978V19.6441H111.346ZM123.226 16.9292C122.619 16.9292 122.078 16.7713 121.605 16.4555C121.35 16.6863 121.167 16.8685 121.058 17.0021C120.949 17.1236 120.894 17.2815 120.894 17.4758C120.894 17.8038 121.04 18.0468 121.331 18.2047C121.623 18.3504 122.018 18.4476 122.516 18.4962C123.026 18.5448 123.609 18.5691 124.265 18.5691C125.03 18.5691 125.607 18.6359 125.996 18.7695C126.397 18.891 126.664 19.0793 126.798 19.3344C126.943 19.5894 127.016 19.9235 127.016 20.3365C127.016 20.7616 126.877 21.1625 126.597 21.5391C126.318 21.9156 125.911 22.2132 125.376 22.4319C124.854 22.6627 124.204 22.7781 123.427 22.7781C122.127 22.7781 121.198 22.5776 120.639 22.1768C120.08 21.7881 119.801 21.284 119.801 20.6645C119.801 20.1178 119.922 19.6927 120.165 19.389C120.42 19.0853 120.736 18.8181 121.113 18.5873C120.675 18.3565 120.457 18.0164 120.457 17.567C120.457 17.3119 120.536 17.0871 120.694 16.8928C120.864 16.6984 121.076 16.4798 121.331 16.2368C121.052 15.9818 120.827 15.672 120.657 15.3076C120.499 14.9432 120.42 14.5423 120.42 14.105C120.42 13.5949 120.542 13.1272 120.785 12.702C121.028 12.2769 121.362 11.9368 121.787 11.6817C122.212 11.4266 122.692 11.2991 123.226 11.2991C123.651 11.2991 124.04 11.378 124.392 11.5359C124.745 11.6938 125.048 11.9125 125.303 12.1919C125.546 11.8639 125.826 11.6392 126.142 11.5177C126.457 11.3962 126.846 11.3537 127.308 11.3902L127.326 11.7546C126.901 11.706 126.542 11.7363 126.251 11.8457C125.972 11.9428 125.729 12.1554 125.522 12.4834C125.862 12.9571 126.032 13.4977 126.032 14.105C126.032 14.9189 125.777 15.593 125.267 16.1275C124.769 16.662 124.089 16.9292 123.226 16.9292ZM123.226 16.5102C123.967 16.5102 124.544 16.3037 124.957 15.8907C125.382 15.4655 125.595 14.8824 125.595 14.1415C125.595 13.4005 125.364 12.8114 124.903 12.3741C124.453 11.9368 123.894 11.7181 123.226 11.7181C122.583 11.7181 122.03 11.9368 121.568 12.3741C121.107 12.8114 120.876 13.3884 120.876 14.105C120.876 14.9189 121.101 15.5262 121.55 15.9271C122.012 16.3158 122.57 16.5102 123.226 16.5102ZM123.409 22.359C124.453 22.3711 125.231 22.1828 125.741 21.7941C126.263 21.4054 126.536 20.9378 126.561 20.3912C126.585 20.0632 126.542 19.7959 126.433 19.5894C126.324 19.3829 126.087 19.2311 125.723 19.1339C125.37 19.0367 124.824 18.9882 124.083 18.9882C123.56 18.9882 123.081 18.9699 122.643 18.9335C122.206 18.8971 121.829 18.8302 121.514 18.7331C121.186 18.9274 120.894 19.1704 120.639 19.4619C120.384 19.7534 120.256 20.1604 120.256 20.6827C120.256 21.1807 120.493 21.5816 120.967 21.8852C121.441 22.1889 122.255 22.3468 123.409 22.359Z" fill="black"/>
    <g filter="url(#filter0_b)">
        <path d="M0 7.28827L21.1815 16.8541V26.4199L0 16.8541V7.28827Z" fill="#FCCE16" fill-opacity="0.8"/>
        <path d="M0 7.28827L21.1815 16.8541V26.4199L0 16.8541V7.28827Z" fill="url(#paint1_linear)" fill-opacity="0.8"/>
    </g>
    <g filter="url(#filter1_b)">
        <path d="M21.1816 0L0.000146866 7.28826V16.8541L21.1816 9.56584L17.8791 6.14947L21.1816 0Z" fill="#2A5CFF"/>
    </g>
    <defs>
        <filter id="filter0_b" x="-0.911032" y="6.37724" width="23.0036" height="20.9537" filterUnits="userSpaceOnUse" color-interpolation-filters="sRGB">
            <feFlood flood-opacity="0" result="BackgroundImageFix"/>
            <feGaussianBlur in="BackgroundImage" stdDeviation="0.455516"/>
            <feComposite in2="SourceAlpha" operator="in" result="effect1_backgroundBlur"/>
            <feBlend mode="normal" in="SourceGraphic" in2="effect1_backgroundBlur" result="shape"/>
        </filter>
        <filter id="filter1_b" x="-0.910788" y="-0.911032" width="23.0036" height="18.6762" filterUnits="userSpaceOnUse" color-interpolation-filters="sRGB">
            <feFlood flood-opacity="0" result="BackgroundImageFix"/>
            <feGaussianBlur in="BackgroundImage" stdDeviation="0.455516"/>
            <feComposite in2="SourceAlpha" operator="in" result="effect1_backgroundBlur"/>
            <feBlend mode="normal" in="SourceGraphic" in2="effect1_backgroundBlur" result="shape"/>
        </filter>
        <linearGradient id="paint0_linear" x1="18.2208" y1="20.9537" x2="11.7297" y2="34.5053" gradientUnits="userSpaceOnUse">
            <stop/>
            <stop offset="0.70502" stop-opacity="0"/>
        </linearGradient>
        <linearGradient id="paint1_linear" x1="0.569395" y1="9.67973" x2="10.5907" y2="26.4199" gradientUnits="userSpaceOnUse">
            <stop stop-color="#E99A25"/>
            <stop offset="1" stop-color="#FEFE88" stop-opacity="0.63"/>
        </linearGradient>
    </defs>
</svg>
