<svg width="397" height="300" viewBox="0 0 397 300" fill="none" xmlns="http://www.w3.org/2000/svg">
    <rect width="397" height="300" rx="12" fill="#F4F7FA"/>
    <path d="M98.468 95V47L87.62 50.84L85.316 43.64L101.252 35.192H109.316V95H98.468ZM246.5 96.152C240.228 96.152 235.236 93.496 231.524 88.184C227.876 82.872 226.052 75.288 226.052 65.432C226.052 55.704 227.876 48.088 231.524 42.584C235.236 37.08 240.228 34.328 246.5 34.328C252.772 34.328 257.732 37.08 261.38 42.584C265.092 48.088 266.948 55.704 266.948 65.432C266.948 75.288 265.092 82.872 261.38 88.184C257.732 93.496 252.772 96.152 246.5 96.152ZM236.132 65.432C236.132 68.056 236.26 70.488 236.516 72.728L254.948 50.84C253.22 45.656 250.404 43.064 246.5 43.064C243.044 43.064 240.452 45.048 238.724 49.016C236.996 52.92 236.132 58.392 236.132 65.432ZM246.5 87.8C249.956 87.8 252.548 85.88 254.276 82.04C256.004 78.136 256.868 72.6 256.868 65.432C256.868 62.936 256.74 60.6 256.484 58.424L238.052 80.216C239.78 85.272 242.596 87.8 246.5 87.8ZM126.5 268.152C120.228 268.152 115.236 265.496 111.524 260.184C107.876 254.872 106.052 247.288 106.052 237.432C106.052 227.704 107.876 220.088 111.524 214.584C115.236 209.08 120.228 206.328 126.5 206.328C132.772 206.328 137.732 209.08 141.38 214.584C145.092 220.088 146.948 227.704 146.948 237.432C146.948 247.288 145.092 254.872 141.38 260.184C137.732 265.496 132.772 268.152 126.5 268.152ZM116.132 237.432C116.132 240.056 116.26 242.488 116.516 244.728L134.948 222.84C133.22 217.656 130.404 215.064 126.5 215.064C123.044 215.064 120.452 217.048 118.724 221.016C116.996 224.92 116.132 230.392 116.132 237.432ZM126.5 259.8C129.956 259.8 132.548 257.88 134.276 254.04C136.004 250.136 136.868 244.6 136.868 237.432C136.868 234.936 136.74 232.6 136.484 230.424L118.052 252.216C119.78 257.272 122.596 259.8 126.5 259.8ZM270.5 268.152C264.228 268.152 259.236 265.496 255.524 260.184C251.876 254.872 250.052 247.288 250.052 237.432C250.052 227.704 251.876 220.088 255.524 214.584C259.236 209.08 264.228 206.328 270.5 206.328C276.772 206.328 281.732 209.08 285.38 214.584C289.092 220.088 290.948 227.704 290.948 237.432C290.948 247.288 289.092 254.872 285.38 260.184C281.732 265.496 276.772 268.152 270.5 268.152ZM260.132 237.432C260.132 240.056 260.26 242.488 260.516 244.728L278.948 222.84C277.22 217.656 274.404 215.064 270.5 215.064C267.044 215.064 264.452 217.048 262.724 221.016C260.996 224.92 260.132 230.392 260.132 237.432ZM270.5 259.8C273.956 259.8 276.548 257.88 278.276 254.04C280.004 250.136 280.868 244.6 280.868 237.432C280.868 234.936 280.74 232.6 280.484 230.424L262.052 252.216C263.78 257.272 266.596 259.8 270.5 259.8Z" fill="#2A5CFF"/>
    <path d="M146.948 111.32L141.092 106.424C142.884 104.76 144.26 103.096 145.22 101.432C146.18 99.832 146.66 98.488 146.66 97.4C146.66 96.44 146.276 95.576 145.508 94.808C144.804 93.976 144.068 93.08 143.3 92.12C142.532 91.096 142.148 89.848 142.148 88.376C142.148 86.264 142.884 84.632 144.356 83.48C145.828 82.328 147.556 81.752 149.54 81.752C152.036 81.752 154.02 82.648 155.492 84.44C156.964 86.232 157.7 88.536 157.7 91.352C157.7 97.368 154.116 104.024 146.948 111.32ZM198.5 96.152C192.228 96.152 187.236 93.496 183.524 88.184C179.876 82.872 178.052 75.288 178.052 65.432C178.052 55.704 179.876 48.088 183.524 42.584C187.236 37.08 192.228 34.328 198.5 34.328C204.772 34.328 209.732 37.08 213.38 42.584C217.092 48.088 218.948 55.704 218.948 65.432C218.948 75.288 217.092 82.872 213.38 88.184C209.732 93.496 204.772 96.152 198.5 96.152ZM188.132 65.432C188.132 68.056 188.26 70.488 188.516 72.728L206.948 50.84C205.22 45.656 202.404 43.064 198.5 43.064C195.044 43.064 192.452 45.048 190.724 49.016C188.996 52.92 188.132 58.392 188.132 65.432ZM198.5 87.8C201.956 87.8 204.548 85.88 206.276 82.04C208.004 78.136 208.868 72.6 208.868 65.432C208.868 62.936 208.74 60.6 208.484 58.424L190.052 80.216C191.78 85.272 194.596 87.8 198.5 87.8ZM294.5 96.152C288.228 96.152 283.236 93.496 279.524 88.184C275.876 82.872 274.052 75.288 274.052 65.432C274.052 55.704 275.876 48.088 279.524 42.584C283.236 37.08 288.228 34.328 294.5 34.328C300.772 34.328 305.732 37.08 309.38 42.584C313.092 48.088 314.948 55.704 314.948 65.432C314.948 75.288 313.092 82.872 309.38 88.184C305.732 93.496 300.772 96.152 294.5 96.152ZM284.132 65.432C284.132 68.056 284.26 70.488 284.516 72.728L302.948 50.84C301.22 45.656 298.404 43.064 294.5 43.064C291.044 43.064 288.452 45.048 286.724 49.016C284.996 52.92 284.132 58.392 284.132 65.432ZM294.5 87.8C297.956 87.8 300.548 85.88 302.276 82.04C304.004 78.136 304.868 72.6 304.868 65.432C304.868 62.936 304.74 60.6 304.484 58.424L286.052 80.216C287.78 85.272 290.596 87.8 294.5 87.8ZM219.236 177.544L177.668 152.968V147.112L218.948 125.128V135.016L188.804 150.184L219.236 166.984V177.544ZM74.468 267V219L63.62 222.84L61.316 215.64L77.252 207.192H85.316V267H74.468ZM170.948 283.32L165.092 278.424C166.884 276.76 168.26 275.096 169.22 273.432C170.18 271.832 170.66 270.488 170.66 269.4C170.66 268.44 170.276 267.576 169.508 266.808C168.804 265.976 168.068 265.08 167.3 264.12C166.532 263.096 166.148 261.848 166.148 260.376C166.148 258.264 166.884 256.632 168.356 255.48C169.828 254.328 171.556 253.752 173.54 253.752C176.036 253.752 178.02 254.648 179.492 256.44C180.964 258.232 181.7 260.536 181.7 263.352C181.7 269.368 178.116 276.024 170.948 283.32ZM222.5 268.152C216.228 268.152 211.236 265.496 207.524 260.184C203.876 254.872 202.052 247.288 202.052 237.432C202.052 227.704 203.876 220.088 207.524 214.584C211.236 209.08 216.228 206.328 222.5 206.328C228.772 206.328 233.732 209.08 237.38 214.584C241.092 220.088 242.948 227.704 242.948 237.432C242.948 247.288 241.092 254.872 237.38 260.184C233.732 265.496 228.772 268.152 222.5 268.152ZM212.132 237.432C212.132 240.056 212.26 242.488 212.516 244.728L230.948 222.84C229.22 217.656 226.404 215.064 222.5 215.064C219.044 215.064 216.452 217.048 214.724 221.016C212.996 224.92 212.132 230.392 212.132 237.432ZM222.5 259.8C225.956 259.8 228.548 257.88 230.276 254.04C232.004 250.136 232.868 244.6 232.868 237.432C232.868 234.936 232.74 232.6 232.484 230.424L214.052 252.216C215.78 257.272 218.596 259.8 222.5 259.8ZM318.5 268.152C312.228 268.152 307.236 265.496 303.524 260.184C299.876 254.872 298.052 247.288 298.052 237.432C298.052 227.704 299.876 220.088 303.524 214.584C307.236 209.08 312.228 206.328 318.5 206.328C324.772 206.328 329.732 209.08 333.38 214.584C337.092 220.088 338.948 227.704 338.948 237.432C338.948 247.288 337.092 254.872 333.38 260.184C329.732 265.496 324.772 268.152 318.5 268.152ZM308.132 237.432C308.132 240.056 308.26 242.488 308.516 244.728L326.948 222.84C325.22 217.656 322.404 215.064 318.5 215.064C315.044 215.064 312.452 217.048 310.724 221.016C308.996 224.92 308.132 230.392 308.132 237.432ZM318.5 259.8C321.956 259.8 324.548 257.88 326.276 254.04C328.004 250.136 328.868 244.6 328.868 237.432C328.868 234.936 328.74 232.6 328.484 230.424L310.052 252.216C311.78 257.272 314.596 259.8 318.5 259.8Z" fill="#1B2036"/>
</svg>
