<svg width="598" height="502" viewBox="0 0 598 502" fill="none" xmlns="http://www.w3.org/2000/svg">
<rect width="598" height="502" rx="12" fill="#F4F7FA"/>
<rect x="88" y="128" width="425" height="216" rx="39" fill="#F4F7FA"/>
<rect x="127" y="167" width="195" height="64" rx="12" fill="#F0C2FB"/>
<path d="M148.855 198.293C148.855 201.223 150.711 203 154.539 203.918L157.762 204.699C160.086 205.266 160.887 206.105 160.887 207.57C160.887 209.406 159.188 210.578 156.434 210.578C153.68 210.578 152.117 209.465 151.707 207.141H148.309C148.699 210.949 151.668 213.352 156.434 213.352C160.965 213.352 164.305 210.852 164.305 207.316C164.305 204.406 162.82 202.805 158.719 201.809L155.496 201.027C153.23 200.48 152.195 199.523 152.195 198.117C152.195 196.34 153.836 195.109 156.316 195.109C158.816 195.109 160.379 196.418 160.633 198.547H163.875C163.738 194.953 160.77 192.336 156.316 192.336C151.922 192.336 148.855 194.816 148.855 198.293ZM168.934 187.785V192.688H165.906V195.48H168.934V207.727C168.934 211.633 170.379 213.156 174.109 213.156C174.91 213.156 175.848 213.098 176.258 213V210.148C176.023 210.188 175.242 210.246 174.852 210.246C173.113 210.246 172.332 209.406 172.332 207.551V195.48H176.277V192.688H172.332V187.785H168.934ZM185.457 213.352C188.191 213.352 190.77 211.828 191.98 209.504H192.059V213H195.281V198.957C195.281 194.914 192.273 192.336 187.508 192.336C182.703 192.336 179.695 195.031 179.461 198.547H182.742C183.172 196.555 184.812 195.324 187.43 195.324C190.242 195.324 191.883 196.809 191.883 199.289V200.988L186.062 201.32C181.375 201.594 178.699 203.781 178.699 207.258C178.699 210.91 181.414 213.352 185.457 213.352ZM186.219 210.461C183.777 210.461 182.156 209.191 182.156 207.258C182.156 205.344 183.719 204.133 186.453 203.957L191.883 203.625V205.285C191.883 208.215 189.422 210.461 186.219 210.461ZM199.598 213H202.996V200.344C202.996 197.473 204.715 195.578 207.352 195.578C208.172 195.578 208.895 195.676 209.168 195.773V192.473C208.895 192.434 208.387 192.336 207.801 192.336C205.418 192.336 203.543 193.762 202.879 196.008H202.801V192.688H199.598V213ZM213.035 187.785V192.688H210.008V195.48H213.035V207.727C213.035 211.633 214.48 213.156 218.211 213.156C219.012 213.156 219.949 213.098 220.359 213V210.148C220.125 210.188 219.344 210.246 218.953 210.246C217.215 210.246 216.434 209.406 216.434 207.551V195.48H220.379V192.688H216.434V187.785H213.035ZM224.539 184.816V213H234.012C242.391 213 247.312 207.785 247.312 198.898C247.312 190.031 242.371 184.816 234.012 184.816H224.539ZM228.055 187.98H233.777C240.184 187.98 243.719 191.887 243.719 198.938C243.719 205.93 240.164 209.836 233.777 209.836H228.055V187.98ZM257.098 213.352C259.832 213.352 262.41 211.828 263.621 209.504H263.699V213H266.922V198.957C266.922 194.914 263.914 192.336 259.148 192.336C254.344 192.336 251.336 195.031 251.102 198.547H254.383C254.812 196.555 256.453 195.324 259.07 195.324C261.883 195.324 263.523 196.809 263.523 199.289V200.988L257.703 201.32C253.016 201.594 250.34 203.781 250.34 207.258C250.34 210.91 253.055 213.352 257.098 213.352ZM257.859 210.461C255.418 210.461 253.797 209.191 253.797 207.258C253.797 205.344 255.359 204.133 258.094 203.957L263.523 203.625V205.285C263.523 208.215 261.062 210.461 257.859 210.461ZM272.332 187.785V192.688H269.305V195.48H272.332V207.727C272.332 211.633 273.777 213.156 277.508 213.156C278.309 213.156 279.246 213.098 279.656 213V210.148C279.422 210.188 278.641 210.246 278.25 210.246C276.512 210.246 275.73 209.406 275.73 207.551V195.48H279.676V192.688H275.73V187.785H272.332ZM296.199 207.18C295.633 209.094 293.738 210.402 291.16 210.402C287.508 210.402 285.223 207.844 285.223 203.957V203.762H299.793V202.473C299.793 196.32 296.414 192.336 290.926 192.336C285.32 192.336 281.727 196.613 281.727 202.922C281.727 209.309 285.262 213.352 291.082 213.352C295.516 213.352 298.953 210.734 299.539 207.18H296.199ZM290.867 195.285C294.07 195.285 296.199 197.707 296.277 201.105H285.242C285.457 197.727 287.684 195.285 290.867 195.285Z" fill="black"/>
<rect x="354" y="167" width="120" height="64" rx="12" fill="#FEFE88"/>
<path d="M376.734 184.816V213H386.207C394.586 213 399.508 207.785 399.508 198.898C399.508 190.031 394.566 184.816 386.207 184.816H376.734ZM380.25 187.98H385.973C392.379 187.98 395.914 191.887 395.914 198.938C395.914 205.93 392.359 209.836 385.973 209.836H380.25V187.98ZM409.293 213.352C412.027 213.352 414.605 211.828 415.816 209.504H415.895V213H419.117V198.957C419.117 194.914 416.109 192.336 411.344 192.336C406.539 192.336 403.531 195.031 403.297 198.547H406.578C407.008 196.555 408.648 195.324 411.266 195.324C414.078 195.324 415.719 196.809 415.719 199.289V200.988L409.898 201.32C405.211 201.594 402.535 203.781 402.535 207.258C402.535 210.91 405.25 213.352 409.293 213.352ZM410.055 210.461C407.613 210.461 405.992 209.191 405.992 207.258C405.992 205.344 407.555 204.133 410.289 203.957L415.719 203.625V205.285C415.719 208.215 413.258 210.461 410.055 210.461ZM424.527 187.785V192.688H421.5V195.48H424.527V207.727C424.527 211.633 425.973 213.156 429.703 213.156C430.504 213.156 431.441 213.098 431.852 213V210.148C431.617 210.188 430.836 210.246 430.445 210.246C428.707 210.246 427.926 209.406 427.926 207.551V195.48H431.871V192.688H427.926V187.785H424.527ZM448.395 207.18C447.828 209.094 445.934 210.402 443.355 210.402C439.703 210.402 437.418 207.844 437.418 203.957V203.762H451.988V202.473C451.988 196.32 448.609 192.336 443.121 192.336C437.516 192.336 433.922 196.613 433.922 202.922C433.922 209.309 437.457 213.352 443.277 213.352C447.711 213.352 451.148 210.734 451.734 207.18H448.395ZM443.062 195.285C446.266 195.285 448.395 197.707 448.473 201.105H437.438C437.652 197.727 439.879 195.285 443.062 195.285Z" fill="black"/>
<rect x="127" y="241" width="183" height="64" rx="12" fill="#F0C2FB"/>
<path d="M162.684 281.18C162.117 283.094 160.223 284.402 157.645 284.402C153.992 284.402 151.707 281.844 151.707 277.957V277.762H166.277V276.473C166.277 270.32 162.898 266.336 157.41 266.336C151.805 266.336 148.211 270.613 148.211 276.922C148.211 283.309 151.746 287.352 157.566 287.352C162 287.352 165.438 284.734 166.023 281.18H162.684ZM157.352 269.285C160.555 269.285 162.684 271.707 162.762 275.105H151.727C151.941 271.727 154.168 269.285 157.352 269.285ZM169.715 287H173.113V275.047C173.113 271.609 175.203 269.344 178.406 269.344C181.531 269.344 183.074 271.141 183.074 274.422V287H186.473V273.816C186.473 269.207 183.895 266.336 179.441 266.336C176.297 266.336 174.129 267.742 172.996 269.93H172.918V266.688H169.715V287ZM198.504 287.352C201.434 287.352 203.758 285.906 205.066 283.562H205.125V287H208.367V258.816H204.969V269.988H204.891C203.68 267.762 201.336 266.336 198.426 266.336C193.309 266.336 189.812 270.477 189.812 276.844C189.812 283.211 193.328 287.352 198.504 287.352ZM199.148 269.324C202.645 269.324 204.988 272.312 204.988 276.844C204.988 281.395 202.645 284.363 199.148 284.363C195.555 284.363 193.289 281.453 193.289 276.844C193.289 272.254 195.555 269.324 199.148 269.324ZM213.484 258.816V287H222.957C231.336 287 236.258 281.785 236.258 272.898C236.258 264.031 231.316 258.816 222.957 258.816H213.484ZM217 261.98H222.723C229.129 261.98 232.664 265.887 232.664 272.938C232.664 279.93 229.109 283.836 222.723 283.836H217V261.98ZM246.043 287.352C248.777 287.352 251.355 285.828 252.566 283.504H252.645V287H255.867V272.957C255.867 268.914 252.859 266.336 248.094 266.336C243.289 266.336 240.281 269.031 240.047 272.547H243.328C243.758 270.555 245.398 269.324 248.016 269.324C250.828 269.324 252.469 270.809 252.469 273.289V274.988L246.648 275.32C241.961 275.594 239.285 277.781 239.285 281.258C239.285 284.91 242 287.352 246.043 287.352ZM246.805 284.461C244.363 284.461 242.742 283.191 242.742 281.258C242.742 279.344 244.305 278.133 247.039 277.957L252.469 277.625V279.285C252.469 282.215 250.008 284.461 246.805 284.461ZM261.277 261.785V266.688H258.25V269.48H261.277V281.727C261.277 285.633 262.723 287.156 266.453 287.156C267.254 287.156 268.191 287.098 268.602 287V284.148C268.367 284.188 267.586 284.246 267.195 284.246C265.457 284.246 264.676 283.406 264.676 281.551V269.48H268.621V266.688H264.676V261.785H261.277ZM285.145 281.18C284.578 283.094 282.684 284.402 280.105 284.402C276.453 284.402 274.168 281.844 274.168 277.957V277.762H288.738V276.473C288.738 270.32 285.359 266.336 279.871 266.336C274.266 266.336 270.672 270.613 270.672 276.922C270.672 283.309 274.207 287.352 280.027 287.352C284.461 287.352 287.898 284.734 288.484 281.18H285.145ZM279.812 269.285C283.016 269.285 285.145 271.707 285.223 275.105H274.188C274.402 271.727 276.629 269.285 279.812 269.285Z" fill="black"/>
<rect x="354" y="241" width="120" height="64" rx="12" fill="#FEFE88"/>
<path d="M376.734 258.816V287H386.207C394.586 287 399.508 281.785 399.508 272.898C399.508 264.031 394.566 258.816 386.207 258.816H376.734ZM380.25 261.98H385.973C392.379 261.98 395.914 265.887 395.914 272.938C395.914 279.93 392.359 283.836 385.973 283.836H380.25V261.98ZM409.293 287.352C412.027 287.352 414.605 285.828 415.816 283.504H415.895V287H419.117V272.957C419.117 268.914 416.109 266.336 411.344 266.336C406.539 266.336 403.531 269.031 403.297 272.547H406.578C407.008 270.555 408.648 269.324 411.266 269.324C414.078 269.324 415.719 270.809 415.719 273.289V274.988L409.898 275.32C405.211 275.594 402.535 277.781 402.535 281.258C402.535 284.91 405.25 287.352 409.293 287.352ZM410.055 284.461C407.613 284.461 405.992 283.191 405.992 281.258C405.992 279.344 407.555 278.133 410.289 277.957L415.719 277.625V279.285C415.719 282.215 413.258 284.461 410.055 284.461ZM424.527 261.785V266.688H421.5V269.48H424.527V281.727C424.527 285.633 425.973 287.156 429.703 287.156C430.504 287.156 431.441 287.098 431.852 287V284.148C431.617 284.188 430.836 284.246 430.445 284.246C428.707 284.246 427.926 283.406 427.926 281.551V269.48H431.871V266.688H427.926V261.785H424.527ZM448.395 281.18C447.828 283.094 445.934 284.402 443.355 284.402C439.703 284.402 437.418 281.844 437.418 277.957V277.762H451.988V276.473C451.988 270.32 448.609 266.336 443.121 266.336C437.516 266.336 433.922 270.613 433.922 276.922C433.922 283.309 437.457 287.352 443.277 287.352C447.711 287.352 451.148 284.734 451.734 281.18H448.395ZM443.062 269.285C446.266 269.285 448.395 271.707 448.473 275.105H437.438C437.652 271.727 439.879 269.285 443.062 269.285Z" fill="black"/>
<rect x="88" y="128" width="425" height="216" rx="39" stroke="#D3DBE6" stroke-width="2" stroke-dasharray="8 8"/>
<path d="M147.879 76.8555C147.625 72.1094 144.031 68.6133 138.367 68.6133C132.098 68.6133 128.094 72.793 128.094 79.5117C128.094 86.3477 132.098 90.4492 138.406 90.4492C143.914 90.4492 147.605 87.2656 147.898 82.3242H142.586C142.234 84.6094 140.75 85.9766 138.465 85.9766C135.633 85.9766 133.875 83.6328 133.875 79.5117C133.875 75.4688 135.633 73.0859 138.445 73.0859C140.789 73.0859 142.254 74.6484 142.586 76.8555H147.879ZM150.789 90H156.492V61.8164H150.789V90ZM166.551 90.332C169.168 90.332 171.766 89.0234 172.938 86.7969H173.055V90H178.562V75.6055C178.562 71.3867 175.066 68.6133 169.695 68.6133C164.148 68.6133 160.691 71.4062 160.477 75.4688H165.691C165.965 73.9258 167.312 72.8711 169.441 72.8711C171.59 72.8711 172.957 74.0039 172.957 75.957V77.3438L167.684 77.6562C162.469 77.9688 159.539 80.1758 159.539 83.9844C159.539 87.7539 162.566 90.332 166.551 90.332ZM168.426 86.2109C166.492 86.2109 165.203 85.2344 165.203 83.6719C165.203 82.1875 166.414 81.2305 168.543 81.0742L172.957 80.8008V82.3242C172.957 84.5898 170.906 86.2109 168.426 86.2109ZM181.902 75.2148C181.902 78.3594 183.953 80.3906 187.996 81.25L191.57 81.9922C193.621 82.4609 194.344 83.0859 194.344 84.1992C194.344 85.5664 193.016 86.4453 190.867 86.4453C188.602 86.4453 187.293 85.4688 186.941 83.6328H181.375C181.746 87.7539 185.086 90.4492 190.867 90.4492C196.258 90.4492 200.027 87.7344 200.027 83.6133C200.027 80.5469 198.23 78.8281 193.855 77.9102L190.281 77.1484C188.172 76.6992 187.391 75.9766 187.391 74.9023C187.391 73.5156 188.699 72.6172 190.672 72.6172C192.781 72.6172 194.051 73.7695 194.227 75.4688H199.48C199.363 71.3672 196.043 68.6133 190.672 68.6133C185.34 68.6133 181.902 71.2305 181.902 75.2148ZM202.488 75.2148C202.488 78.3594 204.539 80.3906 208.582 81.25L212.156 81.9922C214.207 82.4609 214.93 83.0859 214.93 84.1992C214.93 85.5664 213.602 86.4453 211.453 86.4453C209.188 86.4453 207.879 85.4688 207.527 83.6328H201.961C202.332 87.7539 205.672 90.4492 211.453 90.4492C216.844 90.4492 220.613 87.7344 220.613 83.6133C220.613 80.5469 218.816 78.8281 214.441 77.9102L210.867 77.1484C208.758 76.6992 207.977 75.9766 207.977 74.9023C207.977 73.5156 209.285 72.6172 211.258 72.6172C213.367 72.6172 214.637 73.7695 214.812 75.4688H220.066C219.949 71.3672 216.629 68.6133 211.258 68.6133C205.926 68.6133 202.488 71.2305 202.488 75.2148ZM231.844 61.8164V90H237.742V81.1133H243.016C248.953 81.1133 253.074 77.2461 253.074 71.4648C253.074 65.6641 249.09 61.8164 243.309 61.8164H231.844ZM237.742 66.4844H241.746C245.125 66.4844 247.078 68.2812 247.078 71.4844C247.078 74.707 245.105 76.5039 241.727 76.5039H237.742V66.4844ZM269.246 83.5938C268.719 85.1953 267.117 86.2305 265.027 86.2305C262.117 86.2305 260.223 84.1797 260.223 81.1914V80.8398H274.656V79.1016C274.656 72.7344 270.809 68.6133 264.715 68.6133C258.523 68.6133 254.617 72.9492 254.617 79.6289C254.617 86.3281 258.484 90.4492 264.93 90.4492C270.105 90.4492 273.855 87.6953 274.48 83.5938H269.246ZM264.773 72.832C267.312 72.832 269.051 74.668 269.168 77.3438H260.281C260.477 74.7266 262.273 72.832 264.773 72.832ZM277.605 90H283.309V78.3008C283.309 75.3516 284.949 73.6328 287.762 73.6328C288.582 73.6328 289.363 73.7695 289.832 73.9648V68.9453C289.441 68.8281 288.875 68.7305 288.211 68.7305C285.75 68.7305 283.973 70.1758 283.23 72.832H283.113V69.0625H277.605V90ZM295.105 66.2305C296.766 66.2305 298.074 64.9023 298.074 63.3008C298.074 61.6797 296.766 60.3711 295.105 60.3711C293.445 60.3711 292.137 61.6797 292.137 63.3008C292.137 64.9023 293.445 66.2305 295.105 66.2305ZM292.273 90H297.977V69.0625H292.273V90ZM311.395 90.4492C317.723 90.4492 321.766 86.4062 321.766 79.5117C321.766 72.7148 317.664 68.6133 311.395 68.6133C305.125 68.6133 301.023 72.7344 301.023 79.5117C301.023 86.3867 305.066 90.4492 311.395 90.4492ZM311.395 86.0938C308.582 86.0938 306.805 83.7305 306.805 79.5312C306.805 75.3711 308.621 72.9688 311.395 72.9688C314.168 72.9688 315.965 75.3711 315.965 79.5312C315.965 83.7305 314.188 86.0938 311.395 86.0938ZM332.488 90.332C335.574 90.332 337.996 88.7109 339.012 86.4062H339.109V90H344.734V61.8164H339.031V72.6562H338.914C337.898 70.332 335.555 68.7305 332.527 68.7305C327.273 68.7305 323.953 72.8516 323.953 79.4922C323.953 86.1914 327.254 90.332 332.488 90.332ZM334.422 73.3008C337.254 73.3008 339.07 75.7227 339.07 79.5312C339.07 83.3594 337.254 85.7422 334.422 85.7422C331.551 85.7422 329.793 83.3789 329.793 79.5312C329.793 75.7031 331.551 73.3008 334.422 73.3008Z" fill="black"/>
<path d="M152.469 410.375C157.453 410.375 160.797 407.891 161.828 403.438H158.984C158.172 406.188 155.797 407.781 152.484 407.781C148.031 407.781 145.203 404.25 145.203 398.719C145.203 393.234 148.062 389.672 152.469 389.672C155.688 389.672 158.266 391.609 158.984 394.562H161.828C161.109 390.062 157.375 387.078 152.469 387.078C146.297 387.078 142.312 391.641 142.312 398.719C142.312 405.859 146.25 410.375 152.469 410.375ZM164.875 410H167.594V387.453H164.875V410ZM176.016 410.281C178.203 410.281 180.266 409.062 181.234 407.203H181.297V410H183.875V398.766C183.875 395.531 181.469 393.469 177.656 393.469C173.812 393.469 171.406 395.625 171.219 398.438H173.844C174.188 396.844 175.5 395.859 177.594 395.859C179.844 395.859 181.156 397.047 181.156 399.031V400.391L176.5 400.656C172.75 400.875 170.609 402.625 170.609 405.406C170.609 408.328 172.781 410.281 176.016 410.281ZM176.625 407.969C174.672 407.969 173.375 406.953 173.375 405.406C173.375 403.875 174.625 402.906 176.812 402.766L181.156 402.5V403.828C181.156 406.172 179.188 407.969 176.625 407.969ZM187.047 398.234C187.047 400.578 188.531 402 191.594 402.734L194.172 403.359C196.031 403.812 196.672 404.484 196.672 405.656C196.672 407.125 195.312 408.062 193.109 408.062C190.906 408.062 189.656 407.172 189.328 405.312H186.609C186.922 408.359 189.297 410.281 193.109 410.281C196.734 410.281 199.406 408.281 199.406 405.453C199.406 403.125 198.219 401.844 194.938 401.047L192.359 400.422C190.547 399.984 189.719 399.219 189.719 398.094C189.719 396.672 191.031 395.688 193.016 395.688C195.016 395.688 196.266 396.734 196.469 398.438H199.062C198.953 395.562 196.578 393.469 193.016 393.469C189.5 393.469 187.047 395.453 187.047 398.234ZM201.953 398.234C201.953 400.578 203.438 402 206.5 402.734L209.078 403.359C210.938 403.812 211.578 404.484 211.578 405.656C211.578 407.125 210.219 408.062 208.016 408.062C205.812 408.062 204.562 407.172 204.234 405.312H201.516C201.828 408.359 204.203 410.281 208.016 410.281C211.641 410.281 214.312 408.281 214.312 405.453C214.312 403.125 213.125 401.844 209.844 401.047L207.266 400.422C205.453 399.984 204.625 399.219 204.625 398.094C204.625 396.672 205.938 395.688 207.922 395.688C209.922 395.688 211.172 396.734 211.375 398.438H213.969C213.859 395.562 211.484 393.469 207.922 393.469C204.406 393.469 201.953 395.453 201.953 398.234ZM223.703 410H226.422V400.438C226.422 397.688 228.094 395.875 230.656 395.875C233.156 395.875 234.391 397.312 234.391 399.938V410H237.109V399.453C237.109 395.766 235.047 393.469 231.484 393.469C228.969 393.469 227.234 394.594 226.328 396.344H226.266V393.75H223.703V410ZM245.328 410.281C247.516 410.281 249.578 409.062 250.547 407.203H250.609V410H253.188V398.766C253.188 395.531 250.781 393.469 246.969 393.469C243.125 393.469 240.719 395.625 240.531 398.438H243.156C243.5 396.844 244.812 395.859 246.906 395.859C249.156 395.859 250.469 397.047 250.469 399.031V400.391L245.812 400.656C242.062 400.875 239.922 402.625 239.922 405.406C239.922 408.328 242.094 410.281 245.328 410.281ZM245.938 407.969C243.984 407.969 242.688 406.953 242.688 405.406C242.688 403.875 243.938 402.906 246.125 402.766L250.469 402.5V403.828C250.469 406.172 248.5 407.969 245.938 407.969ZM256.641 410H259.359V399.812C259.359 397.562 260.922 395.875 263.078 395.875C265.094 395.875 266.406 397.156 266.406 399.109V410H269.125V399.672C269.125 397.469 270.641 395.875 272.797 395.875C274.938 395.875 276.172 397.188 276.172 399.406V410H278.891V398.781C278.891 395.562 276.812 393.469 273.594 393.469C271.312 393.469 269.406 394.625 268.5 396.562H268.438C267.734 394.594 266.094 393.469 263.875 393.469C261.688 393.469 260.031 394.625 259.266 396.344H259.203V393.75H256.641V410ZM293.141 405.344C292.688 406.875 291.172 407.922 289.109 407.922C286.188 407.922 284.359 405.875 284.359 402.766V402.609H296.016V401.578C296.016 396.656 293.312 393.469 288.922 393.469C284.438 393.469 281.562 396.891 281.562 401.938C281.562 407.047 284.391 410.281 289.047 410.281C292.594 410.281 295.344 408.188 295.812 405.344H293.141ZM288.875 395.828C291.438 395.828 293.141 397.766 293.203 400.484H284.375C284.547 397.781 286.328 395.828 288.875 395.828Z" fill="black"/>
<path d="M410.469 410.375C415.453 410.375 418.797 407.891 419.828 403.438H416.984C416.172 406.188 413.797 407.781 410.484 407.781C406.031 407.781 403.203 404.25 403.203 398.719C403.203 393.234 406.062 389.672 410.469 389.672C413.688 389.672 416.266 391.609 416.984 394.562H419.828C419.109 390.062 415.375 387.078 410.469 387.078C404.297 387.078 400.312 391.641 400.312 398.719C400.312 405.859 404.25 410.375 410.469 410.375ZM422.875 410H425.594V387.453H422.875V410ZM434.016 410.281C436.203 410.281 438.266 409.062 439.234 407.203H439.297V410H441.875V398.766C441.875 395.531 439.469 393.469 435.656 393.469C431.812 393.469 429.406 395.625 429.219 398.438H431.844C432.188 396.844 433.5 395.859 435.594 395.859C437.844 395.859 439.156 397.047 439.156 399.031V400.391L434.5 400.656C430.75 400.875 428.609 402.625 428.609 405.406C428.609 408.328 430.781 410.281 434.016 410.281ZM434.625 407.969C432.672 407.969 431.375 406.953 431.375 405.406C431.375 403.875 432.625 402.906 434.812 402.766L439.156 402.5V403.828C439.156 406.172 437.188 407.969 434.625 407.969ZM445.047 398.234C445.047 400.578 446.531 402 449.594 402.734L452.172 403.359C454.031 403.812 454.672 404.484 454.672 405.656C454.672 407.125 453.312 408.062 451.109 408.062C448.906 408.062 447.656 407.172 447.328 405.312H444.609C444.922 408.359 447.297 410.281 451.109 410.281C454.734 410.281 457.406 408.281 457.406 405.453C457.406 403.125 456.219 401.844 452.938 401.047L450.359 400.422C448.547 399.984 447.719 399.219 447.719 398.094C447.719 396.672 449.031 395.688 451.016 395.688C453.016 395.688 454.266 396.734 454.469 398.438H457.062C456.953 395.562 454.578 393.469 451.016 393.469C447.5 393.469 445.047 395.453 445.047 398.234ZM459.953 398.234C459.953 400.578 461.438 402 464.5 402.734L467.078 403.359C468.938 403.812 469.578 404.484 469.578 405.656C469.578 407.125 468.219 408.062 466.016 408.062C463.812 408.062 462.562 407.172 462.234 405.312H459.516C459.828 408.359 462.203 410.281 466.016 410.281C469.641 410.281 472.312 408.281 472.312 405.453C472.312 403.125 471.125 401.844 467.844 401.047L465.266 400.422C463.453 399.984 462.625 399.219 462.625 398.094C462.625 396.672 463.938 395.688 465.922 395.688C467.922 395.688 469.172 396.734 469.375 398.438H471.969C471.859 395.562 469.484 393.469 465.922 393.469C462.406 393.469 459.953 395.453 459.953 398.234Z" fill="black"/>
<path d="M110.5 202H75.5C58.9315 202 45.5 215.431 45.5 232V369C45.5 385.569 58.9315 399 75.5 399H110.5" stroke="black" stroke-width="4" stroke-linecap="round" stroke-dasharray="0.01 8"/>
<path d="M492 202H527C543.569 202 557 215.431 557 232V369C557 385.569 543.569 399 527 399H492" stroke="black" stroke-width="4" stroke-linecap="round" stroke-dasharray="0.01 8"/>
<path d="M110.171 275H75C58.4315 275 45 288.431 45 305V369C45 385.569 58.4315 399 75 399H110.171" stroke="black" stroke-width="4" stroke-linecap="round" stroke-dasharray="0.01 8"/>
<path d="M492.329 275H527.5C544.069 275 557.5 288.431 557.5 305V369C557.5 385.569 544.069 399 527.5 399H492.329" stroke="black" stroke-width="4" stroke-linecap="round" stroke-dasharray="0.01 8"/>
</svg>
