<svg width="340" height="422" viewBox="0 0 340 422" fill="none" xmlns="http://www.w3.org/2000/svg">
<path fill-rule="evenodd" clip-rule="evenodd" d="M213 43C213 66.7482 193.748 86 170 86C146.252 86 127 66.7482 127 43C127 19.2518 146.252 0 170 0C193.748 0 213 19.2518 213 43ZM339.575 93.6755C337.705 83.0695 327.591 75.9877 316.985 77.8579L173.41 103.174C171.113 103.579 168.762 103.579 166.464 103.174L22.8894 77.8579C12.2835 75.9877 2.16962 83.0695 0.299509 93.6755C-1.5706 104.281 5.51118 114.395 16.1171 116.265L104.473 131.845C114.031 133.53 121 141.835 121 151.541V245.052C121 246.683 120.8 248.308 120.406 249.891L84.6886 393.145C81.6156 405.47 89.116 417.953 101.441 421.026C113.766 424.099 126.249 416.599 129.322 404.273L166.569 254.886C166.992 253.19 168.515 252 170.262 252V252C172.01 252 173.533 253.19 173.956 254.886L211.202 404.273C214.275 416.599 226.758 424.099 239.083 421.026C251.408 417.953 258.909 405.47 255.836 393.145L219.594 247.787C219.199 246.205 219 244.58 219 242.949V151.519C219 141.813 225.969 133.508 235.527 131.823L323.757 116.265C334.363 114.395 341.445 104.281 339.575 93.6755Z" fill="#88A7F8"/>
<mask id="mask0" mask-type="alpha" maskUnits="userSpaceOnUse" x="0" y="0" width="340" height="422">
<path fill-rule="evenodd" clip-rule="evenodd" d="M213 43C213 66.7482 193.748 86 170 86C146.252 86 127 66.7482 127 43C127 19.2518 146.252 0 170 0C193.748 0 213 19.2518 213 43ZM339.575 93.6755C337.705 83.0695 327.591 75.9877 316.985 77.8579L173.41 103.174C171.113 103.579 168.762 103.579 166.464 103.174L22.8894 77.8579C12.2835 75.9877 2.16962 83.0695 0.299509 93.6755C-1.5706 104.281 5.51118 114.395 16.1171 116.265L104.473 131.845C114.031 133.53 121 141.835 121 151.541V245.052C121 246.683 120.8 248.308 120.406 249.891L84.6886 393.145C81.6156 405.47 89.116 417.953 101.441 421.026C113.766 424.099 126.249 416.599 129.322 404.273L166.569 254.886C166.992 253.19 168.515 252 170.262 252V252C172.01 252 173.533 253.19 173.956 254.886L211.202 404.273C214.275 416.599 226.758 424.099 239.083 421.026C251.408 417.953 258.909 405.47 255.836 393.145L219.594 247.787C219.199 246.205 219 244.58 219 242.949V151.519C219 141.813 225.969 133.508 235.527 131.823L323.757 116.265C334.363 114.395 341.445 104.281 339.575 93.6755Z" fill="#FF66B2"/>
</mask>
<g mask="url(#mask0)">
<path d="M136.5 69L100 161.5L-42.5 128.5L-29 43.5L136.5 69Z" fill="#FF8CB9"/>
<path d="M205 69L241.5 161.5L384 128.5L370.5 43.5L205 69Z" fill="#FF8CB9"/>
<path d="M253 263.5L160.5 300L193.5 442.5L278.5 429L253 263.5Z" fill="#FDDE4F"/>
<path d="M66 255.5L158.5 292L125.5 434.5L40.5 421L66 255.5Z" fill="#FDDE4F"/>
</g>
</svg>
