<svg width="599" height="578" viewBox="0 0 599 578" fill="none" xmlns="http://www.w3.org/2000/svg">
    <g clip-path="url(#clip0_249_529)">
        <path d="M85.28 40V33.928C86 34 86.96 34 87.464 34C91.472 34 93.608 31.408 93.608 28.552C93.608 25.792 92.048 23.152 87.104 23.152C85.928 23.152 83.264 23.2 82.328 23.2V40H85.28ZM87.392 25.912C89.408 25.912 90.488 26.776 90.488 28.528C90.488 30.4 89.12 31.24 87.368 31.24C86.696 31.24 85.976 31.192 85.28 31.12V25.96C86.072 25.936 86.792 25.912 87.392 25.912ZM94.1296 34.6C94.1296 37.84 96.4336 40.264 100.01 40.264C103.586 40.264 105.89 37.84 105.89 34.6C105.89 31.36 103.586 28.936 100.01 28.936C96.4336 28.936 94.1296 31.36 94.1296 34.6ZM97.0816 34.6C97.0816 32.728 98.3776 31.528 100.01 31.528C101.69 31.528 102.962 32.776 102.962 34.6C102.962 36.472 101.714 37.696 100.01 37.696C98.3296 37.696 97.0816 36.4 97.0816 34.6ZM113.75 36.952C113.75 37.624 113.126 37.96 112.334 37.96C111.254 37.96 109.622 37.312 108.974 36.616L107.63 38.416C108.134 39.184 110.15 40.264 112.142 40.264C114.782 40.264 116.51 38.944 116.51 36.808C116.51 32.992 110.678 33.976 110.678 32.176C110.678 31.696 111.182 31.24 112.022 31.24C113.174 31.24 114.302 31.768 114.95 32.272L115.982 30.304C115.31 29.68 113.966 28.936 111.878 28.936C109.646 28.936 107.918 30.112 107.918 32.224C107.918 36.16 113.75 35.2 113.75 36.952ZM118.702 35.896C118.702 38.656 119.614 40.24 122.062 40.24C123.454 40.24 124.606 39.712 125.254 39.184L124.414 37.048C124.03 37.336 123.502 37.672 122.758 37.672C121.846 37.672 121.462 36.904 121.462 35.728V31.792H124.942V29.2H121.462V26.2H118.702V35.896Z" fill="#10162F"/>
        <path d="M79.52 76.96L80.528 77.328L85.84 63.008L84.848 62.64L79.52 76.96ZM84.8794 76.96L85.8874 77.328L91.1994 63.008L90.2074 62.64L84.8794 76.96ZM97.4068 72.032C96.9268 72.576 96.2068 72.96 95.3428 72.96C93.9188 72.96 92.7508 71.984 92.7508 70.4C92.7508 68.88 93.9188 67.84 95.2148 67.84C95.9668 67.84 96.6708 68.032 97.2788 68.592L97.8708 67.584C97.1988 66.912 96.1908 66.64 95.0388 66.64C92.9268 66.64 91.3908 68.304 91.3908 70.4C91.3908 72.672 92.9588 74.16 95.2468 74.16C96.3508 74.16 97.4068 73.744 98.0148 72.96L97.4068 72.032ZM98.8126 70.4C98.8126 72.56 100.349 74.16 102.653 74.16C104.957 74.16 106.493 72.56 106.493 70.4C106.493 68.24 104.957 66.64 102.653 66.64C100.349 66.64 98.8126 68.24 98.8126 70.4ZM100.173 70.4C100.173 68.88 101.245 67.84 102.653 67.84C104.093 67.84 105.133 68.896 105.133 70.4C105.133 71.936 104.093 72.96 102.653 72.96C101.213 72.96 100.173 71.904 100.173 70.4ZM119.028 69.28C119.028 67.312 118.036 66.672 116.708 66.672C115.62 66.672 114.692 67.184 114.18 67.92C113.908 67.168 113.124 66.672 112.004 66.672C111.076 66.672 110.148 67.088 109.62 67.712V66.8H108.34V74H109.62V68.848C109.988 68.32 110.676 67.872 111.508 67.872C112.516 67.872 113.044 68.48 113.044 69.36V74H114.324V69.424C114.324 69.264 114.324 69.04 114.308 68.912C114.644 68.32 115.332 67.872 116.196 67.872C117.236 67.872 117.748 68.448 117.748 69.632V74H119.028V69.28ZM121.183 77.2H122.463V73.664C122.975 74 123.727 74.16 124.495 74.16C126.751 74.16 128.239 72.48 128.239 70.288C128.239 68.16 126.959 66.64 124.911 66.64C123.919 66.64 122.959 67.072 122.463 67.648V66.8H121.183V77.2ZM124.543 67.84C126.031 67.84 126.879 68.88 126.879 70.336C126.879 71.856 125.919 72.96 124.383 72.96C123.695 72.96 123.103 72.832 122.463 72.4V68.832C122.911 68.272 123.695 67.84 124.543 67.84ZM129.594 70.4C129.594 72.56 131.13 74.16 133.434 74.16C135.738 74.16 137.274 72.56 137.274 70.4C137.274 68.24 135.738 66.64 133.434 66.64C131.13 66.64 129.594 68.24 129.594 70.4ZM130.954 70.4C130.954 68.88 132.026 67.84 133.434 67.84C134.874 67.84 135.914 68.896 135.914 70.4C135.914 71.936 134.874 72.96 133.434 72.96C131.994 72.96 130.954 71.904 130.954 70.4ZM139.121 74H140.401V68.8C140.865 68.272 141.617 67.872 142.433 67.872C143.777 67.872 144.465 68.576 144.465 70.08V74H145.745V69.84C145.745 67.584 144.625 66.672 142.753 66.672C141.809 66.672 140.897 67.136 140.401 67.68V66.8H139.121V74ZM153.582 72.208C153.118 72.64 152.302 72.96 151.374 72.96C149.966 72.96 148.974 72.16 148.862 70.8H154.398C154.446 70.576 154.478 70.288 154.478 69.936C154.478 67.952 152.99 66.64 151.134 66.64C148.766 66.64 147.422 68.304 147.422 70.4C147.422 72.672 148.942 74.16 151.278 74.16C152.238 74.16 153.278 73.856 153.982 73.216L153.582 72.208ZM151.07 67.84C152.318 67.84 153.086 68.576 153.15 69.76H148.782C148.926 68.656 149.758 67.84 151.07 67.84ZM156.215 74H157.495V68.8C157.959 68.272 158.711 67.872 159.527 67.872C160.871 67.872 161.559 68.576 161.559 70.08V74H162.839V69.84C162.839 67.584 161.719 66.672 159.847 66.672C158.903 66.672 157.991 67.136 157.495 67.68V66.8H156.215V74ZM164.836 71.264C164.836 73.104 165.476 74.128 167.092 74.128C167.892 74.128 168.548 73.84 168.932 73.52L168.532 72.528C168.276 72.72 167.892 72.928 167.396 72.928C166.484 72.928 166.116 72.272 166.116 71.136V68H168.756V66.8H166.116V64.8H164.836V71.264ZM174.284 72.048C174.284 72.704 173.676 73.04 173.004 73.04C172.284 73.04 171.34 72.608 170.924 72.128L170.204 73.04C170.54 73.552 171.692 74.16 172.86 74.16C174.3 74.16 175.644 73.504 175.644 71.984C175.644 69.456 171.756 70.176 171.756 68.656C171.756 68.176 172.188 67.76 172.908 67.76C173.66 67.76 174.284 68.08 174.716 68.464L175.324 67.488C174.892 67.072 174.028 66.64 172.844 66.64C171.42 66.64 170.396 67.408 170.396 68.672C170.396 71.312 174.284 70.592 174.284 72.048Z" fill="#10162F"/>
        <rect width="70" height="52" transform="translate(80 97)" fill="#7833FF"/>
        <path d="M105.912 113.2H102.984V122.44C102.984 125.704 101.784 127.504 99.24 127.504C96.336 127.504 95.04 125.392 95.04 122.248V113.2H92.088V122.872C92.088 127.792 95.064 130.264 99.24 130.264C102.768 130.264 105.912 128.176 105.912 123.04V113.2ZM115.031 126.952C115.031 127.624 114.407 127.96 113.615 127.96C112.535 127.96 110.903 127.312 110.255 126.616L108.911 128.416C109.415 129.184 111.431 130.264 113.423 130.264C116.063 130.264 117.791 128.944 117.791 126.808C117.791 122.992 111.959 123.976 111.959 122.176C111.959 121.696 112.463 121.24 113.303 121.24C114.455 121.24 115.583 121.768 116.231 122.272L117.263 120.304C116.591 119.68 115.247 118.936 113.159 118.936C110.927 118.936 109.199 120.112 109.199 122.224C109.199 126.16 115.031 125.2 115.031 126.952ZM128.696 126.976C128.072 127.48 126.968 127.96 125.648 127.96C123.944 127.96 122.648 127.072 122.408 125.44H130.208C130.328 125.032 130.376 124.624 130.376 123.952C130.376 120.928 128.048 118.936 125.264 118.936C121.712 118.936 119.552 121.456 119.552 124.6C119.552 128.008 121.88 130.264 125.36 130.264C126.872 130.264 128.408 129.832 129.488 128.92L128.696 126.976ZM125.144 121.24C126.728 121.24 127.64 122.272 127.616 123.592H122.312C122.6 122.176 123.488 121.24 125.144 121.24ZM132.599 130H135.359V122.752C135.671 122.128 136.175 121.6 137.135 121.6C137.711 121.6 137.999 121.696 138.527 122.008L139.511 119.416C139.151 119.152 138.719 119.008 137.831 119.008C136.535 119.008 135.863 119.56 135.359 120.256V119.2H132.599V130Z" fill="white"/>
        <rect width="74" height="52" transform="translate(80 157)" fill="#7833FF"/>
        <path d="M90.24 175.96H95.688V190H98.64V175.96H104.088V173.2H90.24V175.96ZM107.225 190H109.985V179.2H107.225V190ZM106.937 175.312C106.937 176.416 107.729 177.04 108.665 177.04C109.457 177.04 110.249 176.416 110.249 175.312C110.249 174.328 109.457 173.704 108.665 173.704C107.729 173.704 106.937 174.328 106.937 175.312ZM129.866 182.944C129.866 179.992 128.378 179.008 126.41 179.008C124.73 179.008 123.53 179.728 122.762 180.736C122.378 179.752 121.274 179.008 119.618 179.008C118.273 179.008 117.002 179.536 116.234 180.4V179.2H113.474V190H116.234V182.752C116.714 182.032 117.506 181.6 118.49 181.6C119.666 181.6 120.29 182.344 120.29 183.472V190H123.05V183.64C123.05 183.4 123.026 183.016 123.026 182.848C123.41 182.104 124.226 181.6 125.258 181.6C126.554 181.6 127.106 182.32 127.106 183.664V190H129.866V182.944ZM141.141 186.976C140.517 187.48 139.413 187.96 138.093 187.96C136.389 187.96 135.093 187.072 134.853 185.44H142.653C142.773 185.032 142.821 184.624 142.821 183.952C142.821 180.928 140.493 178.936 137.709 178.936C134.157 178.936 131.997 181.456 131.997 184.6C131.997 188.008 134.325 190.264 137.805 190.264C139.317 190.264 140.853 189.832 141.933 188.92L141.141 186.976ZM137.589 181.24C139.173 181.24 140.085 182.272 140.061 183.592H134.757C135.045 182.176 135.933 181.24 137.589 181.24Z" fill="white"/>
        <rect width="83" height="52" transform="translate(80 217)" fill="#7833FF"/>
        <path d="M92.688 250H95.64V233.2H92.688V250ZM116.248 242.944C116.248 239.992 114.76 239.008 112.792 239.008C111.112 239.008 109.912 239.728 109.144 240.736C108.76 239.752 107.656 239.008 106 239.008C104.656 239.008 103.384 239.536 102.616 240.4V239.2H99.8563V250H102.616V242.752C103.096 242.032 103.888 241.6 104.872 241.6C106.048 241.6 106.672 242.344 106.672 243.472V250H109.432V243.64C109.432 243.4 109.408 243.016 109.408 242.848C109.792 242.104 110.608 241.6 111.64 241.6C112.936 241.6 113.488 242.32 113.488 243.664V250H116.248V242.944ZM119.892 241.984C120.684 241.624 121.476 241.24 122.724 241.24C124.332 241.24 124.812 242.224 124.74 244.024C124.212 243.64 123.252 243.328 122.292 243.328C120.108 243.328 118.356 244.456 118.356 246.832C118.356 248.92 119.772 250.144 121.74 250.144C123.204 250.144 124.356 249.568 124.932 248.752V250H127.332V243.424C127.332 240.568 126.204 238.936 123.012 238.936C121.596 238.936 120.132 239.416 119.196 239.968L119.892 241.984ZM122.652 247.816C121.788 247.816 121.116 247.36 121.116 246.544C121.116 245.632 121.932 245.2 122.844 245.2C123.636 245.2 124.26 245.368 124.74 245.728V246.832C124.404 247.312 123.804 247.816 122.652 247.816ZM128.745 251.464C128.745 253.936 131.217 254.992 134.361 254.992C137.505 254.992 139.977 253.888 139.977 251.464C139.977 249.04 137.505 247.936 134.361 247.936H134.241C134.145 247.768 134.097 247.576 134.097 247.384C134.097 247.264 134.097 247.12 134.145 246.976H134.337C137.121 246.976 138.921 245.152 138.921 242.992C138.921 242.512 138.825 242.032 138.657 241.6L140.457 241.192L140.361 238.984L137.097 239.704C136.353 239.224 135.417 238.936 134.337 238.936C131.481 238.936 129.729 240.832 129.729 242.992C129.729 244.576 130.665 245.968 132.297 246.616C132.129 246.832 132.057 247.12 132.057 247.384C132.057 247.624 132.129 247.912 132.249 248.128C130.185 248.56 128.745 249.664 128.745 251.464ZM131.313 251.464C131.313 250.672 132.393 250.144 134.361 250.144C136.353 250.144 137.385 250.672 137.385 251.464C137.385 252.328 136.233 252.784 134.361 252.784C132.489 252.784 131.313 252.304 131.313 251.464ZM132.321 242.992C132.321 242.008 133.089 241.168 134.337 241.168C135.633 241.168 136.353 241.984 136.353 242.992C136.353 244.072 135.513 244.744 134.337 244.744C133.089 244.744 132.321 244 132.321 242.992ZM150.61 246.976C149.986 247.48 148.882 247.96 147.562 247.96C145.858 247.96 144.562 247.072 144.322 245.44H152.122C152.242 245.032 152.29 244.624 152.29 243.952C152.29 240.928 149.962 238.936 147.178 238.936C143.626 238.936 141.466 241.456 141.466 244.6C141.466 248.008 143.794 250.264 147.274 250.264C148.786 250.264 150.322 249.832 151.402 248.92L150.61 246.976ZM147.058 241.24C148.642 241.24 149.554 242.272 149.53 243.592H144.226C144.514 242.176 145.402 241.24 147.058 241.24Z" fill="white"/>
        <rect width="65" height="52" transform="translate(80 277)" fill="#7833FF"/>
        <path d="M90.24 295.96H95.688V310H98.64V295.96H104.088V293.2H90.24V295.96ZM111.164 306.976C110.54 307.48 109.436 307.96 108.116 307.96C106.412 307.96 105.116 307.072 104.876 305.44H112.676C112.796 305.032 112.844 304.624 112.844 303.952C112.844 300.928 110.516 298.936 107.732 298.936C104.18 298.936 102.02 301.456 102.02 304.6C102.02 308.008 104.348 310.264 107.828 310.264C109.34 310.264 110.876 309.832 111.956 308.92L111.164 306.976ZM107.612 301.24C109.196 301.24 110.108 302.272 110.084 303.592H104.78C105.068 302.176 105.956 301.24 107.612 301.24ZM124.825 299.2H121.633L119.281 302.776L117.001 299.2H113.617L117.217 304.504L113.377 310H116.569L119.185 306.112L121.705 310H125.065L121.225 304.36L124.825 299.2ZM126.804 305.896C126.804 308.656 127.716 310.24 130.164 310.24C131.556 310.24 132.708 309.712 133.356 309.184L132.516 307.048C132.132 307.336 131.604 307.672 130.86 307.672C129.948 307.672 129.564 306.904 129.564 305.728V301.792H133.044V299.2H129.564V296.2H126.804V305.896Z" fill="white"/>
        <rect width="122" height="52" transform="translate(80 337)" fill="#7833FF"/>
        <path d="M103.992 366.16C102.84 367.048 101.424 367.504 100.008 367.504C96.576 367.504 94.2 365.104 94.2 361.6C94.2 357.952 96.552 355.696 99.672 355.696C101.352 355.696 102.456 356.152 103.464 356.824L104.784 354.64C103.68 353.632 101.856 352.936 99.672 352.936C94.128 352.936 91.08 356.776 91.08 361.6C91.08 366.832 94.608 370.264 99.744 370.264C101.928 370.264 104.064 369.496 105.12 368.368L103.992 366.16ZM105.887 364.6C105.887 367.84 108.191 370.264 111.767 370.264C115.343 370.264 117.647 367.84 117.647 364.6C117.647 361.36 115.343 358.936 111.767 358.936C108.191 358.936 105.887 361.36 105.887 364.6ZM108.839 364.6C108.839 362.728 110.135 361.528 111.767 361.528C113.447 361.528 114.719 362.776 114.719 364.6C114.719 366.472 113.471 367.696 111.767 367.696C110.087 367.696 108.839 366.4 108.839 364.6ZM136.428 362.944C136.428 359.992 134.94 359.008 132.972 359.008C131.292 359.008 130.092 359.728 129.324 360.736C128.94 359.752 127.836 359.008 126.18 359.008C124.836 359.008 123.564 359.536 122.796 360.4V359.2H120.036V370H122.796V362.752C123.276 362.032 124.068 361.6 125.052 361.6C126.228 361.6 126.852 362.344 126.852 363.472V370H129.612V363.64C129.612 363.4 129.588 363.016 129.588 362.848C129.972 362.104 130.788 361.6 131.82 361.6C133.116 361.6 133.668 362.32 133.668 363.664V370H136.428V362.944ZM155.623 362.944C155.623 359.992 154.135 359.008 152.167 359.008C150.487 359.008 149.287 359.728 148.519 360.736C148.135 359.752 147.031 359.008 145.375 359.008C144.031 359.008 142.759 359.536 141.991 360.4V359.2H139.231V370H141.991V362.752C142.471 362.032 143.263 361.6 144.247 361.6C145.423 361.6 146.047 362.344 146.047 363.472V370H148.807V363.64C148.807 363.4 148.783 363.016 148.783 362.848C149.167 362.104 149.983 361.6 151.015 361.6C152.311 361.6 152.863 362.32 152.863 363.664V370H155.623V362.944ZM166.899 366.976C166.275 367.48 165.171 367.96 163.851 367.96C162.147 367.96 160.851 367.072 160.611 365.44H168.411C168.531 365.032 168.579 364.624 168.579 363.952C168.579 360.928 166.251 358.936 163.467 358.936C159.915 358.936 157.755 361.456 157.755 364.6C157.755 368.008 160.083 370.264 163.563 370.264C165.075 370.264 166.611 369.832 167.691 368.92L166.899 366.976ZM163.347 361.24C164.931 361.24 165.843 362.272 165.819 363.592H160.515C160.803 362.176 161.691 361.24 163.347 361.24ZM170.802 370H173.562V362.632C174.21 361.984 174.978 361.6 175.914 361.6C177.45 361.6 178.338 362.416 178.338 364.144V370H181.098V363.664C181.098 360.28 179.298 359.008 176.658 359.008C175.362 359.008 174.21 359.584 173.562 360.28V359.2H170.802V370ZM183.663 365.896C183.663 368.656 184.575 370.24 187.023 370.24C188.415 370.24 189.567 369.712 190.215 369.184L189.375 367.048C188.991 367.336 188.463 367.672 187.719 367.672C186.807 367.672 186.423 366.904 186.423 365.728V361.792H189.903V359.2H186.423V356.2H183.663V365.896Z" fill="white"/>
        <rect width="122" height="52" transform="translate(80 397)" fill="#7833FF"/>
        <path d="M103.992 426.16C102.84 427.048 101.424 427.504 100.008 427.504C96.576 427.504 94.2 425.104 94.2 421.6C94.2 417.952 96.552 415.696 99.672 415.696C101.352 415.696 102.456 416.152 103.464 416.824L104.784 414.64C103.68 413.632 101.856 412.936 99.672 412.936C94.128 412.936 91.08 416.776 91.08 421.6C91.08 426.832 94.608 430.264 99.744 430.264C101.928 430.264 104.064 429.496 105.12 428.368L103.992 426.16ZM105.887 424.6C105.887 427.84 108.191 430.264 111.767 430.264C115.343 430.264 117.647 427.84 117.647 424.6C117.647 421.36 115.343 418.936 111.767 418.936C108.191 418.936 105.887 421.36 105.887 424.6ZM108.839 424.6C108.839 422.728 110.135 421.528 111.767 421.528C113.447 421.528 114.719 422.776 114.719 424.6C114.719 426.472 113.471 427.696 111.767 427.696C110.087 427.696 108.839 426.4 108.839 424.6ZM136.428 422.944C136.428 419.992 134.94 419.008 132.972 419.008C131.292 419.008 130.092 419.728 129.324 420.736C128.94 419.752 127.836 419.008 126.18 419.008C124.836 419.008 123.564 419.536 122.796 420.4V419.2H120.036V430H122.796V422.752C123.276 422.032 124.068 421.6 125.052 421.6C126.228 421.6 126.852 422.344 126.852 423.472V430H129.612V423.64C129.612 423.4 129.588 423.016 129.588 422.848C129.972 422.104 130.788 421.6 131.82 421.6C133.116 421.6 133.668 422.32 133.668 423.664V430H136.428V422.944ZM155.623 422.944C155.623 419.992 154.135 419.008 152.167 419.008C150.487 419.008 149.287 419.728 148.519 420.736C148.135 419.752 147.031 419.008 145.375 419.008C144.031 419.008 142.759 419.536 141.991 420.4V419.2H139.231V430H141.991V422.752C142.471 422.032 143.263 421.6 144.247 421.6C145.423 421.6 146.047 422.344 146.047 423.472V430H148.807V423.64C148.807 423.4 148.783 423.016 148.783 422.848C149.167 422.104 149.983 421.6 151.015 421.6C152.311 421.6 152.863 422.32 152.863 423.664V430H155.623V422.944ZM166.899 426.976C166.275 427.48 165.171 427.96 163.851 427.96C162.147 427.96 160.851 427.072 160.611 425.44H168.411C168.531 425.032 168.579 424.624 168.579 423.952C168.579 420.928 166.251 418.936 163.467 418.936C159.915 418.936 157.755 421.456 157.755 424.6C157.755 428.008 160.083 430.264 163.563 430.264C165.075 430.264 166.611 429.832 167.691 428.92L166.899 426.976ZM163.347 421.24C164.931 421.24 165.843 422.272 165.819 423.592H160.515C160.803 422.176 161.691 421.24 163.347 421.24ZM170.802 430H173.562V422.632C174.21 421.984 174.978 421.6 175.914 421.6C177.45 421.6 178.338 422.416 178.338 424.144V430H181.098V423.664C181.098 420.28 179.298 419.008 176.658 419.008C175.362 419.008 174.21 419.584 173.562 420.28V419.2H170.802V430ZM183.663 425.896C183.663 428.656 184.575 430.24 187.023 430.24C188.415 430.24 189.567 429.712 190.215 429.184L189.375 427.048C188.991 427.336 188.463 427.672 187.719 427.672C186.807 427.672 186.423 426.904 186.423 425.728V421.792H189.903V419.2H186.423V416.2H183.663V425.896Z" fill="white"/>
        <rect width="89" height="44" transform="translate(80 457)" fill="white"/>
        <path d="M89.52 486.96L90.528 487.328L95.84 473.008L94.848 472.64L89.52 486.96ZM94.8794 486.96L95.8874 487.328L101.199 473.008L100.207 472.64L94.8794 486.96ZM102.031 484H103.311V478H105.711V476.8H103.311V475.776C103.311 474.432 103.855 473.84 104.767 473.84C105.311 473.84 105.727 474 106.031 474.256L106.479 473.28C106.111 472.928 105.423 472.64 104.559 472.64C102.959 472.64 102.031 473.632 102.031 475.632V484ZM113.472 476.8H112.192V481.888C111.744 482.464 110.96 482.96 110.128 482.96C108.816 482.96 108.272 482.16 108.272 480.8V476.8H106.992V481.088C106.992 483.2 108.048 484.16 109.648 484.16C110.784 484.16 111.696 483.584 112.192 482.976V484H113.472V476.8ZM115.793 484H117.073V478.8C117.537 478.272 118.289 477.872 119.105 477.872C120.449 477.872 121.137 478.576 121.137 480.08V484H122.417V479.84C122.417 477.584 121.297 476.672 119.425 476.672C118.481 476.672 117.569 477.136 117.073 477.68V476.8H115.793V484ZM130.11 482.032C129.63 482.576 128.91 482.96 128.046 482.96C126.622 482.96 125.454 481.984 125.454 480.4C125.454 478.88 126.622 477.84 127.918 477.84C128.67 477.84 129.374 478.032 129.982 478.592L130.574 477.584C129.902 476.912 128.894 476.64 127.742 476.64C125.63 476.64 124.094 478.304 124.094 480.4C124.094 482.672 125.662 484.16 127.95 484.16C129.054 484.16 130.11 483.744 130.718 482.96L130.11 482.032ZM132.226 481.264C132.226 483.104 132.866 484.128 134.482 484.128C135.282 484.128 135.938 483.84 136.322 483.52L135.922 482.528C135.666 482.72 135.282 482.928 134.786 482.928C133.874 482.928 133.506 482.272 133.506 481.136V478H136.146V476.8H133.506V474.8H132.226V481.264ZM138.379 484H139.659V476.8H138.379V484ZM138.219 474.096C138.219 474.624 138.603 474.928 139.051 474.928C139.451 474.928 139.835 474.624 139.835 474.096C139.835 473.632 139.451 473.328 139.051 473.328C138.603 473.328 138.219 473.632 138.219 474.096ZM141.828 480.4C141.828 482.56 143.364 484.16 145.668 484.16C147.972 484.16 149.508 482.56 149.508 480.4C149.508 478.24 147.972 476.64 145.668 476.64C143.364 476.64 141.828 478.24 141.828 480.4ZM143.188 480.4C143.188 478.88 144.26 477.84 145.668 477.84C147.108 477.84 148.148 478.896 148.148 480.4C148.148 481.936 147.108 482.96 145.668 482.96C144.228 482.96 143.188 481.904 143.188 480.4ZM151.355 484H152.635V478.8C153.099 478.272 153.851 477.872 154.667 477.872C156.011 477.872 156.699 478.576 156.699 480.08V484H157.979V479.84C157.979 477.584 156.859 476.672 154.987 476.672C154.043 476.672 153.131 477.136 152.635 477.68V476.8H151.355V484Z" fill="#6C7991"/>
        <rect width="212" height="52" transform="translate(80 509)" fill="#FFE000"/>
        <path d="M92.328 542H92.664C94.2 542 96.072 542.048 97.08 542.048C103.488 542.048 106.704 538.16 106.704 533.432C106.704 528.992 103.992 525.128 97.272 525.128C96.048 525.128 93.648 525.2 92.64 525.2H92.328V542ZM97.224 527.888C101.232 527.888 103.584 530.048 103.584 533.432C103.584 536.984 101.232 539.288 97.176 539.288C96.768 539.288 96.096 539.288 95.28 539.24V527.96C95.952 527.912 96.528 527.888 97.224 527.888ZM109.733 542H112.493V531.2H109.733V542ZM109.445 527.312C109.445 528.416 110.237 529.04 111.173 529.04C111.965 529.04 112.757 528.416 112.757 527.312C112.757 526.328 111.965 525.704 111.173 525.704C110.237 525.704 109.445 526.328 109.445 527.312ZM121.453 538.952C121.453 539.624 120.829 539.96 120.037 539.96C118.957 539.96 117.325 539.312 116.677 538.616L115.333 540.416C115.837 541.184 117.853 542.264 119.845 542.264C122.485 542.264 124.213 540.944 124.213 538.808C124.213 534.992 118.381 535.976 118.381 534.176C118.381 533.696 118.885 533.24 119.725 533.24C120.877 533.24 122.005 533.768 122.653 534.272L123.685 532.304C123.013 531.68 121.669 530.936 119.581 530.936C117.349 530.936 115.621 532.112 115.621 534.224C115.621 538.16 121.453 537.2 121.453 538.952ZM127.485 533.984C128.277 533.624 129.069 533.24 130.317 533.24C131.925 533.24 132.405 534.224 132.333 536.024C131.805 535.64 130.845 535.328 129.885 535.328C127.701 535.328 125.949 536.456 125.949 538.832C125.949 540.92 127.365 542.144 129.333 542.144C130.797 542.144 131.949 541.568 132.525 540.752V542H134.925V535.424C134.925 532.568 133.797 530.936 130.605 530.936C129.189 530.936 127.725 531.416 126.789 531.968L127.485 533.984ZM130.245 539.816C129.381 539.816 128.709 539.36 128.709 538.544C128.709 537.632 129.525 537.2 130.437 537.2C131.229 537.2 131.853 537.368 132.333 537.728V538.832C131.997 539.312 131.397 539.816 130.245 539.816ZM137.755 541.064C138.739 541.688 140.563 542.264 142.339 542.264C146.131 542.264 148.507 539.984 148.507 536.432C148.507 533.24 146.587 530.936 143.371 530.936C142.219 530.936 141.187 531.344 140.515 531.872V525.2H137.755V541.064ZM142.723 533.528C144.283 533.528 145.555 534.56 145.555 536.624C145.555 538.568 144.211 539.696 142.483 539.696C141.715 539.696 141.115 539.528 140.515 539.144V534.56C140.971 534.032 141.763 533.528 142.723 533.528ZM150.903 539.024C150.903 541.232 151.791 542.24 153.447 542.24C154.743 542.24 155.679 541.832 156.303 541.328L155.727 539.216C155.391 539.456 155.031 539.648 154.599 539.648C153.951 539.648 153.663 539.12 153.663 537.896V525.2H150.903V539.024ZM166.547 538.976C165.923 539.48 164.819 539.96 163.499 539.96C161.795 539.96 160.499 539.072 160.259 537.44H168.059C168.179 537.032 168.227 536.624 168.227 535.952C168.227 532.928 165.899 530.936 163.115 530.936C159.563 530.936 157.403 533.456 157.403 536.6C157.403 540.008 159.731 542.264 163.211 542.264C164.723 542.264 166.259 541.832 167.339 540.92L166.547 538.976ZM162.995 533.24C164.579 533.24 165.491 534.272 165.467 535.592H160.163C160.451 534.176 161.339 533.24 162.995 533.24ZM183.72 538.376C183.024 539.144 182.112 539.696 180.936 539.696C179.304 539.696 177.816 538.52 177.816 536.6C177.816 534.704 179.28 533.528 180.816 533.528C181.8 533.528 182.688 533.792 183.504 534.584L184.8 532.4C183.792 531.392 182.232 530.936 180.456 530.936C177.168 530.936 174.864 533.456 174.864 536.6C174.864 540.008 177.216 542.264 180.72 542.264C182.472 542.264 184.104 541.616 185.016 540.392L183.72 538.376ZM185.973 536.6C185.973 539.84 188.277 542.264 191.853 542.264C195.429 542.264 197.733 539.84 197.733 536.6C197.733 533.36 195.429 530.936 191.853 530.936C188.277 530.936 185.973 533.36 185.973 536.6ZM188.925 536.6C188.925 534.728 190.221 533.528 191.853 533.528C193.533 533.528 194.805 534.776 194.805 536.6C194.805 538.472 193.557 539.696 191.853 539.696C190.173 539.696 188.925 538.4 188.925 536.6ZM216.514 534.944C216.514 531.992 215.026 531.008 213.058 531.008C211.378 531.008 210.178 531.728 209.41 532.736C209.026 531.752 207.922 531.008 206.266 531.008C204.922 531.008 203.65 531.536 202.882 532.4V531.2H200.122V542H202.882V534.752C203.362 534.032 204.154 533.6 205.138 533.6C206.314 533.6 206.938 534.344 206.938 535.472V542H209.698V535.64C209.698 535.4 209.674 535.016 209.674 534.848C210.058 534.104 210.874 533.6 211.906 533.6C213.202 533.6 213.754 534.32 213.754 535.664V542H216.514V534.944ZM235.709 534.944C235.709 531.992 234.221 531.008 232.253 531.008C230.573 531.008 229.373 531.728 228.605 532.736C228.221 531.752 227.117 531.008 225.461 531.008C224.117 531.008 222.845 531.536 222.077 532.4V531.2H219.317V542H222.077V534.752C222.557 534.032 223.349 533.6 224.333 533.6C225.509 533.6 226.133 534.344 226.133 535.472V542H228.893V535.64C228.893 535.4 228.869 535.016 228.869 534.848C229.253 534.104 230.069 533.6 231.101 533.6C232.397 533.6 232.949 534.32 232.949 535.664V542H235.709V534.944ZM246.985 538.976C246.361 539.48 245.257 539.96 243.937 539.96C242.233 539.96 240.937 539.072 240.697 537.44H248.497C248.617 537.032 248.665 536.624 248.665 535.952C248.665 532.928 246.337 530.936 243.553 530.936C240.001 530.936 237.841 533.456 237.841 536.6C237.841 540.008 240.169 542.264 243.649 542.264C245.161 542.264 246.697 541.832 247.777 540.92L246.985 538.976ZM243.433 533.24C245.017 533.24 245.929 534.272 245.905 535.592H240.601C240.889 534.176 241.777 533.24 243.433 533.24ZM250.888 542H253.648V534.632C254.296 533.984 255.064 533.6 256 533.6C257.536 533.6 258.424 534.416 258.424 536.144V542H261.184V535.664C261.184 532.28 259.384 531.008 256.744 531.008C255.448 531.008 254.296 531.584 253.648 532.28V531.2H250.888V542ZM263.749 537.896C263.749 540.656 264.661 542.24 267.109 542.24C268.501 542.24 269.653 541.712 270.301 541.184L269.461 539.048C269.077 539.336 268.549 539.672 267.805 539.672C266.893 539.672 266.509 538.904 266.509 537.728V533.792H269.989V531.2H266.509V528.2H263.749V537.896ZM278.11 538.952C278.11 539.624 277.486 539.96 276.694 539.96C275.614 539.96 273.982 539.312 273.334 538.616L271.99 540.416C272.494 541.184 274.51 542.264 276.502 542.264C279.142 542.264 280.87 540.944 280.87 538.808C280.87 534.992 275.038 535.976 275.038 534.176C275.038 533.696 275.542 533.24 276.382 533.24C277.534 533.24 278.662 533.768 279.31 534.272L280.342 532.304C279.67 531.68 278.326 530.936 276.238 530.936C274.006 530.936 272.278 532.112 272.278 534.224C272.278 538.16 278.11 537.2 278.11 538.952Z" fill="#6C7991"/>
    </g>
    <rect x="64" y="1" width="244" height="576" stroke="#D3DBE6" stroke-width="2" stroke-linecap="round" stroke-dasharray="5.33 5.33"/>
    <g clip-path="url(#clip1_249_529)">
        <path d="M337.28 40V33.928C338 34 338.96 34 339.464 34C343.472 34 345.608 31.408 345.608 28.552C345.608 25.792 344.048 23.152 339.104 23.152C337.928 23.152 335.264 23.2 334.328 23.2V40H337.28ZM339.392 25.912C341.408 25.912 342.488 26.776 342.488 28.528C342.488 30.4 341.12 31.24 339.368 31.24C338.696 31.24 337.976 31.192 337.28 31.12V25.96C338.072 25.936 338.792 25.912 339.392 25.912ZM355.274 36.976C354.65 37.48 353.546 37.96 352.226 37.96C350.522 37.96 349.226 37.072 348.986 35.44H356.786C356.906 35.032 356.954 34.624 356.954 33.952C356.954 30.928 354.626 28.936 351.842 28.936C348.29 28.936 346.13 31.456 346.13 34.6C346.13 38.008 348.458 40.264 351.938 40.264C353.45 40.264 354.986 39.832 356.066 38.92L355.274 36.976ZM351.722 31.24C353.306 31.24 354.218 32.272 354.194 33.592H348.89C349.178 32.176 350.066 31.24 351.722 31.24ZM358.434 34.6C358.434 37.84 360.738 40.264 364.314 40.264C367.89 40.264 370.194 37.84 370.194 34.6C370.194 31.36 367.89 28.936 364.314 28.936C360.738 28.936 358.434 31.36 358.434 34.6ZM361.386 34.6C361.386 32.728 362.682 31.528 364.314 31.528C365.994 31.528 367.266 32.776 367.266 34.6C367.266 36.472 366.018 37.696 364.314 37.696C362.634 37.696 361.386 36.4 361.386 34.6ZM372.583 44.8H375.343V39.736C375.967 40.096 376.903 40.264 377.863 40.264C381.319 40.264 383.575 37.72 383.575 34.432C383.575 31.24 381.655 28.936 378.679 28.936C377.287 28.936 376.015 29.512 375.343 30.232V29.2H372.583V44.8ZM377.815 31.528C379.639 31.528 380.647 32.776 380.647 34.504C380.647 36.304 379.543 37.696 377.623 37.696C376.711 37.696 376.087 37.552 375.343 37.072V32.704C376.015 31.96 376.879 31.528 377.815 31.528ZM385.966 37.024C385.966 39.232 386.854 40.24 388.51 40.24C389.806 40.24 390.742 39.832 391.366 39.328L390.79 37.216C390.454 37.456 390.094 37.648 389.662 37.648C389.014 37.648 388.726 37.12 388.726 35.896V23.2H385.966V37.024ZM401.61 36.976C400.986 37.48 399.882 37.96 398.562 37.96C396.858 37.96 395.562 37.072 395.322 35.44H403.122C403.242 35.032 403.29 34.624 403.29 33.952C403.29 30.928 400.962 28.936 398.178 28.936C394.626 28.936 392.466 31.456 392.466 34.6C392.466 38.008 394.794 40.264 398.274 40.264C399.786 40.264 401.322 39.832 402.402 38.92L401.61 36.976ZM398.058 31.24C399.642 31.24 400.554 32.272 400.53 33.592H395.226C395.514 32.176 396.402 31.24 398.058 31.24Z" fill="#10162F"/>
        <path d="M331.52 76.96L332.528 77.328L337.84 63.008L336.848 62.64L331.52 76.96ZM336.879 76.96L337.887 77.328L343.199 63.008L342.207 62.64L336.879 76.96ZM349.407 72.032C348.927 72.576 348.207 72.96 347.343 72.96C345.919 72.96 344.751 71.984 344.751 70.4C344.751 68.88 345.919 67.84 347.215 67.84C347.967 67.84 348.671 68.032 349.279 68.592L349.871 67.584C349.199 66.912 348.191 66.64 347.039 66.64C344.927 66.64 343.391 68.304 343.391 70.4C343.391 72.672 344.959 74.16 347.247 74.16C348.351 74.16 349.407 73.744 350.015 72.96L349.407 72.032ZM350.813 70.4C350.813 72.56 352.349 74.16 354.653 74.16C356.957 74.16 358.493 72.56 358.493 70.4C358.493 68.24 356.957 66.64 354.653 66.64C352.349 66.64 350.813 68.24 350.813 70.4ZM352.173 70.4C352.173 68.88 353.245 67.84 354.653 67.84C356.093 67.84 357.133 68.896 357.133 70.4C357.133 71.936 356.093 72.96 354.653 72.96C353.213 72.96 352.173 71.904 352.173 70.4ZM371.028 69.28C371.028 67.312 370.036 66.672 368.708 66.672C367.62 66.672 366.692 67.184 366.18 67.92C365.908 67.168 365.124 66.672 364.004 66.672C363.076 66.672 362.148 67.088 361.62 67.712V66.8H360.34V74H361.62V68.848C361.988 68.32 362.676 67.872 363.508 67.872C364.516 67.872 365.044 68.48 365.044 69.36V74H366.324V69.424C366.324 69.264 366.324 69.04 366.308 68.912C366.644 68.32 367.332 67.872 368.196 67.872C369.236 67.872 369.748 68.448 369.748 69.632V74H371.028V69.28ZM373.183 77.2H374.463V73.664C374.975 74 375.727 74.16 376.495 74.16C378.751 74.16 380.239 72.48 380.239 70.288C380.239 68.16 378.959 66.64 376.911 66.64C375.919 66.64 374.959 67.072 374.463 67.648V66.8H373.183V77.2ZM376.543 67.84C378.031 67.84 378.879 68.88 378.879 70.336C378.879 71.856 377.919 72.96 376.383 72.96C375.695 72.96 375.103 72.832 374.463 72.4V68.832C374.911 68.272 375.695 67.84 376.543 67.84ZM381.594 70.4C381.594 72.56 383.13 74.16 385.434 74.16C387.738 74.16 389.274 72.56 389.274 70.4C389.274 68.24 387.738 66.64 385.434 66.64C383.13 66.64 381.594 68.24 381.594 70.4ZM382.954 70.4C382.954 68.88 384.026 67.84 385.434 67.84C386.874 67.84 387.914 68.896 387.914 70.4C387.914 71.936 386.874 72.96 385.434 72.96C383.994 72.96 382.954 71.904 382.954 70.4ZM391.121 74H392.401V68.8C392.865 68.272 393.617 67.872 394.433 67.872C395.777 67.872 396.465 68.576 396.465 70.08V74H397.745V69.84C397.745 67.584 396.625 66.672 394.753 66.672C393.809 66.672 392.897 67.136 392.401 67.68V66.8H391.121V74ZM405.582 72.208C405.118 72.64 404.302 72.96 403.374 72.96C401.966 72.96 400.974 72.16 400.862 70.8H406.398C406.446 70.576 406.478 70.288 406.478 69.936C406.478 67.952 404.99 66.64 403.134 66.64C400.766 66.64 399.422 68.304 399.422 70.4C399.422 72.672 400.942 74.16 403.278 74.16C404.238 74.16 405.278 73.856 405.982 73.216L405.582 72.208ZM403.07 67.84C404.318 67.84 405.086 68.576 405.15 69.76H400.782C400.926 68.656 401.758 67.84 403.07 67.84ZM408.215 74H409.495V68.8C409.959 68.272 410.711 67.872 411.527 67.872C412.871 67.872 413.559 68.576 413.559 70.08V74H414.839V69.84C414.839 67.584 413.719 66.672 411.847 66.672C410.903 66.672 409.991 67.136 409.495 67.68V66.8H408.215V74ZM416.836 71.264C416.836 73.104 417.476 74.128 419.092 74.128C419.892 74.128 420.548 73.84 420.932 73.52L420.532 72.528C420.276 72.72 419.892 72.928 419.396 72.928C418.484 72.928 418.116 72.272 418.116 71.136V68H420.756V66.8H418.116V64.8H416.836V71.264ZM426.284 72.048C426.284 72.704 425.676 73.04 425.004 73.04C424.284 73.04 423.34 72.608 422.924 72.128L422.204 73.04C422.54 73.552 423.692 74.16 424.86 74.16C426.3 74.16 427.644 73.504 427.644 71.984C427.644 69.456 423.756 70.176 423.756 68.656C423.756 68.176 424.188 67.76 424.908 67.76C425.66 67.76 426.284 68.08 426.716 68.464L427.324 67.488C426.892 67.072 426.028 66.64 424.844 66.64C423.42 66.64 422.396 67.408 422.396 68.672C422.396 71.312 426.284 70.592 426.284 72.048Z" fill="#10162F"/>
        <rect width="87" height="52" transform="translate(332 97)" fill="#7833FF"/>
        <path d="M354.96 130H357.888V113.2H354.96V120.064H347.28V113.2H344.328V130H347.28V122.824H354.96V130ZM362.587 121.984C363.379 121.624 364.171 121.24 365.419 121.24C367.027 121.24 367.507 122.224 367.435 124.024C366.907 123.64 365.947 123.328 364.987 123.328C362.803 123.328 361.051 124.456 361.051 126.832C361.051 128.92 362.467 130.144 364.435 130.144C365.899 130.144 367.051 129.568 367.627 128.752V130H370.027V123.424C370.027 120.568 368.899 118.936 365.707 118.936C364.291 118.936 362.827 119.416 361.891 119.968L362.587 121.984ZM365.347 127.816C364.483 127.816 363.811 127.36 363.811 126.544C363.811 125.632 364.627 125.2 365.539 125.2C366.331 125.2 366.955 125.368 367.435 125.728V126.832C367.099 127.312 366.499 127.816 365.347 127.816ZM372.856 130H375.616V122.632C376.264 121.984 377.032 121.6 377.968 121.6C379.504 121.6 380.392 122.416 380.392 124.144V130H383.152V123.664C383.152 120.28 381.352 119.008 378.712 119.008C377.416 119.008 376.264 119.584 375.616 120.28V119.2H372.856V130ZM393.47 130H396.23V113.2H393.47V119.464C392.87 119.104 392.174 118.936 391.214 118.936C387.734 118.936 385.286 121.312 385.286 124.72C385.286 128.008 387.278 130.192 390.374 130.192C391.766 130.192 392.75 129.64 393.47 128.872V130ZM390.95 127.624C389.486 127.624 388.238 126.544 388.238 124.624C388.238 122.632 389.702 121.528 391.334 121.528C392.078 121.528 392.774 121.744 393.47 122.176V126.52C392.846 127.144 391.958 127.624 390.95 127.624ZM404.766 126.952C404.766 127.624 404.142 127.96 403.35 127.96C402.27 127.96 400.638 127.312 399.99 126.616L398.646 128.416C399.15 129.184 401.166 130.264 403.158 130.264C405.798 130.264 407.526 128.944 407.526 126.808C407.526 122.992 401.694 123.976 401.694 122.176C401.694 121.696 402.198 121.24 403.038 121.24C404.19 121.24 405.318 121.768 405.966 122.272L406.998 120.304C406.326 119.68 404.982 118.936 402.894 118.936C400.662 118.936 398.934 120.112 398.934 122.224C398.934 126.16 404.766 125.2 404.766 126.952Z" fill="white"/>
        <rect width="68" height="52" transform="translate(332 157)" fill="#7833FF"/>
        <path d="M344.328 190H354.84V187.24H347.28V173.2H344.328V190ZM364.852 186.976C364.228 187.48 363.124 187.96 361.804 187.96C360.1 187.96 358.804 187.072 358.564 185.44H366.364C366.484 185.032 366.532 184.624 366.532 183.952C366.532 180.928 364.204 178.936 361.42 178.936C357.868 178.936 355.708 181.456 355.708 184.6C355.708 188.008 358.036 190.264 361.516 190.264C363.028 190.264 364.564 189.832 365.644 188.92L364.852 186.976ZM361.3 181.24C362.884 181.24 363.796 182.272 363.772 183.592H358.468C358.756 182.176 359.644 181.24 361.3 181.24ZM367.268 191.464C367.268 193.936 369.74 194.992 372.884 194.992C376.028 194.992 378.5 193.888 378.5 191.464C378.5 189.04 376.028 187.936 372.884 187.936H372.764C372.668 187.768 372.62 187.576 372.62 187.384C372.62 187.264 372.62 187.12 372.668 186.976H372.86C375.644 186.976 377.444 185.152 377.444 182.992C377.444 182.512 377.348 182.032 377.18 181.6L378.98 181.192L378.884 178.984L375.62 179.704C374.876 179.224 373.94 178.936 372.86 178.936C370.004 178.936 368.252 180.832 368.252 182.992C368.252 184.576 369.188 185.968 370.82 186.616C370.652 186.832 370.58 187.12 370.58 187.384C370.58 187.624 370.652 187.912 370.772 188.128C368.708 188.56 367.268 189.664 367.268 191.464ZM369.836 191.464C369.836 190.672 370.916 190.144 372.884 190.144C374.876 190.144 375.908 190.672 375.908 191.464C375.908 192.328 374.756 192.784 372.884 192.784C371.012 192.784 369.836 192.304 369.836 191.464ZM370.844 182.992C370.844 182.008 371.612 181.168 372.86 181.168C374.156 181.168 374.876 181.984 374.876 182.992C374.876 184.072 374.036 184.744 372.86 184.744C371.612 184.744 370.844 184 370.844 182.992ZM386.133 186.952C386.133 187.624 385.509 187.96 384.717 187.96C383.637 187.96 382.005 187.312 381.357 186.616L380.013 188.416C380.517 189.184 382.533 190.264 384.525 190.264C387.165 190.264 388.893 188.944 388.893 186.808C388.893 182.992 383.061 183.976 383.061 182.176C383.061 181.696 383.565 181.24 384.405 181.24C385.557 181.24 386.685 181.768 387.333 182.272L388.365 180.304C387.693 179.68 386.349 178.936 384.261 178.936C382.029 178.936 380.301 180.112 380.301 182.224C380.301 186.16 386.133 185.2 386.133 186.952Z" fill="white"/>
        <rect width="70" height="44" transform="translate(332 217)" fill="white"/>
        <path d="M341.52 246.96L342.528 247.328L347.84 233.008L346.848 232.64L341.52 246.96ZM346.879 246.96L347.887 247.328L353.199 233.008L352.207 232.64L346.879 246.96ZM353.871 247.2H355.151V243.664C355.663 244 356.415 244.16 357.183 244.16C359.439 244.16 360.927 242.48 360.927 240.288C360.927 238.16 359.647 236.64 357.599 236.64C356.607 236.64 355.647 237.072 355.151 237.648V236.8H353.871V247.2ZM357.231 237.84C358.719 237.84 359.567 238.88 359.567 240.336C359.567 241.856 358.607 242.96 357.071 242.96C356.383 242.96 355.791 242.832 355.151 242.4V238.832C355.599 238.272 356.383 237.84 357.231 237.84ZM362.761 244H364.041V238.896C364.313 238.368 364.713 237.872 365.545 237.872C365.977 237.872 366.169 237.936 366.521 238.144L366.969 236.944C366.729 236.768 366.441 236.672 365.849 236.672C364.937 236.672 364.409 237.104 364.041 237.648V236.8H362.761V244ZM367.719 240.4C367.719 242.56 369.255 244.16 371.559 244.16C373.863 244.16 375.399 242.56 375.399 240.4C375.399 238.24 373.863 236.64 371.559 236.64C369.255 236.64 367.719 238.24 367.719 240.4ZM369.079 240.4C369.079 238.88 370.151 237.84 371.559 237.84C372.999 237.84 374.039 238.896 374.039 240.4C374.039 241.936 372.999 242.96 371.559 242.96C370.119 242.96 369.079 241.904 369.079 240.4ZM377.246 247.2H378.526V243.664C379.038 244 379.79 244.16 380.558 244.16C382.814 244.16 384.302 242.48 384.302 240.288C384.302 238.16 383.022 236.64 380.974 236.64C379.982 236.64 379.022 237.072 378.526 237.648V236.8H377.246V247.2ZM380.606 237.84C382.094 237.84 382.942 238.88 382.942 240.336C382.942 241.856 381.982 242.96 380.446 242.96C379.758 242.96 379.166 242.832 378.526 242.4V238.832C378.974 238.272 379.758 237.84 380.606 237.84ZM389.784 242.048C389.784 242.704 389.176 243.04 388.504 243.04C387.784 243.04 386.84 242.608 386.424 242.128L385.704 243.04C386.04 243.552 387.192 244.16 388.36 244.16C389.8 244.16 391.144 243.504 391.144 241.984C391.144 239.456 387.256 240.176 387.256 238.656C387.256 238.176 387.688 237.76 388.408 237.76C389.16 237.76 389.784 238.08 390.216 238.464L390.824 237.488C390.392 237.072 389.528 236.64 388.344 236.64C386.92 236.64 385.896 237.408 385.896 238.672C385.896 241.312 389.784 240.592 389.784 242.048Z" fill="#6C7991"/>
        <rect width="61" height="52" transform="translate(332 269)" fill="#7833FF"/>
        <path d="M342.168 302H345.144L346.896 297.704H354.072L355.824 302H358.968L351.864 285.152H349.272L342.168 302ZM350.496 288.968L352.944 294.944H348.024L350.496 288.968ZM358.69 303.464C358.69 305.936 361.162 306.992 364.306 306.992C367.45 306.992 369.922 305.888 369.922 303.464C369.922 301.04 367.45 299.936 364.306 299.936H364.186C364.09 299.768 364.042 299.576 364.042 299.384C364.042 299.264 364.042 299.12 364.09 298.976H364.282C367.066 298.976 368.866 297.152 368.866 294.992C368.866 294.512 368.77 294.032 368.602 293.6L370.402 293.192L370.306 290.984L367.042 291.704C366.298 291.224 365.362 290.936 364.282 290.936C361.426 290.936 359.674 292.832 359.674 294.992C359.674 296.576 360.61 297.968 362.242 298.616C362.074 298.832 362.002 299.12 362.002 299.384C362.002 299.624 362.074 299.912 362.194 300.128C360.13 300.56 358.69 301.664 358.69 303.464ZM361.258 303.464C361.258 302.672 362.338 302.144 364.306 302.144C366.298 302.144 367.33 302.672 367.33 303.464C367.33 304.328 366.178 304.784 364.306 304.784C362.434 304.784 361.258 304.304 361.258 303.464ZM362.266 294.992C362.266 294.008 363.034 293.168 364.282 293.168C365.578 293.168 366.298 293.984 366.298 294.992C366.298 296.072 365.458 296.744 364.282 296.744C363.034 296.744 362.266 296 362.266 294.992ZM380.555 298.976C379.931 299.48 378.827 299.96 377.507 299.96C375.803 299.96 374.507 299.072 374.267 297.44H382.067C382.187 297.032 382.235 296.624 382.235 295.952C382.235 292.928 379.907 290.936 377.123 290.936C373.571 290.936 371.411 293.456 371.411 296.6C371.411 300.008 373.739 302.264 377.219 302.264C378.731 302.264 380.267 301.832 381.347 300.92L380.555 298.976ZM377.003 293.24C378.587 293.24 379.499 294.272 379.475 295.592H374.171C374.459 294.176 375.347 293.24 377.003 293.24Z" fill="white"/>
        <rect width="91" height="52" transform="translate(332 329)" fill="#7833FF"/>
        <path d="M354.96 362H357.888V345.2H354.96V352.064H347.28V345.2H344.328V362H347.28V354.824H354.96V362ZM370.219 358.976C369.595 359.48 368.491 359.96 367.171 359.96C365.467 359.96 364.171 359.072 363.931 357.44H371.731C371.851 357.032 371.899 356.624 371.899 355.952C371.899 352.928 369.571 350.936 366.787 350.936C363.235 350.936 361.075 353.456 361.075 356.6C361.075 360.008 363.403 362.264 366.883 362.264C368.395 362.264 369.931 361.832 371.011 360.92L370.219 358.976ZM366.667 353.24C368.251 353.24 369.163 354.272 369.139 355.592H363.835C364.123 354.176 365.011 353.24 366.667 353.24ZM374.53 362H377.29V351.2H374.53V362ZM374.242 347.312C374.242 348.416 375.034 349.04 375.97 349.04C376.762 349.04 377.554 348.416 377.554 347.312C377.554 346.328 376.762 345.704 375.97 345.704C375.034 345.704 374.242 346.328 374.242 347.312ZM379.362 363.464C379.362 365.936 381.834 366.992 384.978 366.992C388.122 366.992 390.594 365.888 390.594 363.464C390.594 361.04 388.122 359.936 384.978 359.936H384.858C384.762 359.768 384.714 359.576 384.714 359.384C384.714 359.264 384.714 359.12 384.762 358.976H384.954C387.738 358.976 389.538 357.152 389.538 354.992C389.538 354.512 389.442 354.032 389.274 353.6L391.074 353.192L390.978 350.984L387.714 351.704C386.97 351.224 386.034 350.936 384.954 350.936C382.098 350.936 380.346 352.832 380.346 354.992C380.346 356.576 381.282 357.968 382.914 358.616C382.746 358.832 382.674 359.12 382.674 359.384C382.674 359.624 382.746 359.912 382.866 360.128C380.802 360.56 379.362 361.664 379.362 363.464ZM381.93 363.464C381.93 362.672 383.01 362.144 384.978 362.144C386.97 362.144 388.002 362.672 388.002 363.464C388.002 364.328 386.85 364.784 384.978 364.784C383.106 364.784 381.93 364.304 381.93 363.464ZM382.938 354.992C382.938 354.008 383.706 353.168 384.954 353.168C386.25 353.168 386.97 353.984 386.97 354.992C386.97 356.072 386.13 356.744 384.954 356.744C383.706 356.744 382.938 356 382.938 354.992ZM392.755 362H395.515V354.584C396.139 353.96 397.003 353.6 397.891 353.6C399.403 353.6 400.291 354.488 400.291 356.096V362H403.051V355.736C403.051 352.352 401.251 351.008 398.611 351.008C397.363 351.008 396.211 351.512 395.515 352.184V345.2H392.755V362ZM405.616 357.896C405.616 360.656 406.528 362.24 408.976 362.24C410.368 362.24 411.52 361.712 412.168 361.184L411.328 359.048C410.944 359.336 410.416 359.672 409.672 359.672C408.76 359.672 408.376 358.904 408.376 357.728V353.792H411.856V351.2H408.376V348.2H405.616V357.896Z" fill="white"/>
        <rect width="98" height="52" transform="translate(332 389)" fill="#7833FF"/>
        <path d="M351.312 415.712H355.368V418.352C354.744 418.952 353.184 419.504 351.888 419.504C348.48 419.504 346.2 417.176 346.2 413.6C346.2 409.856 348.576 407.696 351.816 407.696C353.28 407.696 354.768 408.2 355.608 408.992L356.856 406.64C355.488 405.56 353.856 404.936 351.456 404.936C346.32 404.936 343.08 408.776 343.08 413.6C343.08 418.832 346.344 422.264 351.84 422.264C353.928 422.264 356.64 421.4 358.128 419.912V412.952H351.312V415.712ZM369.446 418.976C368.822 419.48 367.718 419.96 366.398 419.96C364.694 419.96 363.398 419.072 363.158 417.44H370.958C371.078 417.032 371.126 416.624 371.126 415.952C371.126 412.928 368.798 410.936 366.014 410.936C362.462 410.936 360.302 413.456 360.302 416.6C360.302 420.008 362.63 422.264 366.11 422.264C367.622 422.264 369.158 421.832 370.238 420.92L369.446 418.976ZM365.894 413.24C367.478 413.24 368.39 414.272 368.366 415.592H363.062C363.35 414.176 364.238 413.24 365.894 413.24ZM373.349 422H376.109V414.632C376.757 413.984 377.525 413.6 378.461 413.6C379.997 413.6 380.885 414.416 380.885 416.144V422H383.645V415.664C383.645 412.28 381.845 411.008 379.205 411.008C377.909 411.008 376.757 411.584 376.109 412.28V411.2H373.349V422ZM393.962 422H396.722V405.2H393.962V411.464C393.362 411.104 392.666 410.936 391.706 410.936C388.226 410.936 385.778 413.312 385.778 416.72C385.778 420.008 387.77 422.192 390.866 422.192C392.258 422.192 393.242 421.64 393.962 420.872V422ZM391.442 419.624C389.978 419.624 388.73 418.544 388.73 416.624C388.73 414.632 390.194 413.528 391.826 413.528C392.57 413.528 393.266 413.744 393.962 414.176V418.52C393.338 419.144 392.45 419.624 391.442 419.624ZM408.258 418.976C407.634 419.48 406.53 419.96 405.21 419.96C403.506 419.96 402.21 419.072 401.97 417.44H409.77C409.89 417.032 409.938 416.624 409.938 415.952C409.938 412.928 407.61 410.936 404.826 410.936C401.274 410.936 399.114 413.456 399.114 416.6C399.114 420.008 401.442 422.264 404.922 422.264C406.434 422.264 407.97 421.832 409.05 420.92L408.258 418.976ZM404.706 413.24C406.29 413.24 407.202 414.272 407.178 415.592H401.874C402.162 414.176 403.05 413.24 404.706 413.24ZM412.161 422H414.921V414.752C415.233 414.128 415.737 413.6 416.697 413.6C417.273 413.6 417.561 413.696 418.089 414.008L419.073 411.416C418.713 411.152 418.281 411.008 417.393 411.008C416.097 411.008 415.425 411.56 414.921 412.256V411.2H412.161V422Z" fill="white"/>
        <rect width="89" height="44" transform="translate(332 449)" fill="white"/>
        <path d="M341.52 478.96L342.528 479.328L347.84 465.008L346.848 464.64L341.52 478.96ZM346.879 478.96L347.887 479.328L353.199 465.008L352.207 464.64L346.879 478.96ZM354.031 476H355.311V470H357.711V468.8H355.311V467.776C355.311 466.432 355.855 465.84 356.767 465.84C357.311 465.84 357.727 466 358.031 466.256L358.479 465.28C358.111 464.928 357.423 464.64 356.559 464.64C354.959 464.64 354.031 465.632 354.031 467.632V476ZM365.472 468.8H364.192V473.888C363.744 474.464 362.96 474.96 362.128 474.96C360.816 474.96 360.272 474.16 360.272 472.8V468.8H358.992V473.088C358.992 475.2 360.048 476.16 361.648 476.16C362.784 476.16 363.696 475.584 364.192 474.976V476H365.472V468.8ZM367.793 476H369.073V470.8C369.537 470.272 370.289 469.872 371.105 469.872C372.449 469.872 373.137 470.576 373.137 472.08V476H374.417V471.84C374.417 469.584 373.297 468.672 371.425 468.672C370.481 468.672 369.569 469.136 369.073 469.68V468.8H367.793V476ZM382.11 474.032C381.63 474.576 380.91 474.96 380.046 474.96C378.622 474.96 377.454 473.984 377.454 472.4C377.454 470.88 378.622 469.84 379.918 469.84C380.67 469.84 381.374 470.032 381.982 470.592L382.574 469.584C381.902 468.912 380.894 468.64 379.742 468.64C377.63 468.64 376.094 470.304 376.094 472.4C376.094 474.672 377.662 476.16 379.95 476.16C381.054 476.16 382.11 475.744 382.718 474.96L382.11 474.032ZM384.226 473.264C384.226 475.104 384.866 476.128 386.482 476.128C387.282 476.128 387.938 475.84 388.322 475.52L387.922 474.528C387.666 474.72 387.282 474.928 386.786 474.928C385.874 474.928 385.506 474.272 385.506 473.136V470H388.146V468.8H385.506V466.8H384.226V473.264ZM390.379 476H391.659V468.8H390.379V476ZM390.219 466.096C390.219 466.624 390.603 466.928 391.051 466.928C391.451 466.928 391.835 466.624 391.835 466.096C391.835 465.632 391.451 465.328 391.051 465.328C390.603 465.328 390.219 465.632 390.219 466.096ZM393.828 472.4C393.828 474.56 395.364 476.16 397.668 476.16C399.972 476.16 401.508 474.56 401.508 472.4C401.508 470.24 399.972 468.64 397.668 468.64C395.364 468.64 393.828 470.24 393.828 472.4ZM395.188 472.4C395.188 470.88 396.26 469.84 397.668 469.84C399.108 469.84 400.148 470.896 400.148 472.4C400.148 473.936 399.108 474.96 397.668 474.96C396.228 474.96 395.188 473.904 395.188 472.4ZM403.355 476H404.635V470.8C405.099 470.272 405.851 469.872 406.667 469.872C408.011 469.872 408.699 470.576 408.699 472.08V476H409.979V471.84C409.979 469.584 408.859 468.672 406.987 468.672C406.043 468.672 405.131 469.136 404.635 469.68V468.8H403.355V476Z" fill="#6C7991"/>
        <rect width="175" height="52" transform="translate(332 501)" fill="#FFE000"/>
        <path d="M355.992 530.16C354.84 531.048 353.424 531.504 352.008 531.504C348.576 531.504 346.2 529.104 346.2 525.6C346.2 521.952 348.552 519.696 351.672 519.696C353.352 519.696 354.456 520.152 355.464 520.824L356.784 518.64C355.68 517.632 353.856 516.936 351.672 516.936C346.128 516.936 343.08 520.776 343.08 525.6C343.08 530.832 346.608 534.264 351.744 534.264C353.928 534.264 356.064 533.496 357.12 532.368L355.992 530.16ZM359.263 534H362.023V526.584C362.647 525.96 363.511 525.6 364.399 525.6C365.911 525.6 366.799 526.488 366.799 528.096V534H369.559V527.736C369.559 524.352 367.759 523.008 365.119 523.008C363.871 523.008 362.719 523.512 362.023 524.184V517.2H359.263V534ZM373.204 525.984C373.996 525.624 374.788 525.24 376.036 525.24C377.644 525.24 378.124 526.224 378.052 528.024C377.524 527.64 376.564 527.328 375.604 527.328C373.42 527.328 371.668 528.456 371.668 530.832C371.668 532.92 373.084 534.144 375.052 534.144C376.516 534.144 377.668 533.568 378.244 532.752V534H380.644V527.424C380.644 524.568 379.516 522.936 376.324 522.936C374.908 522.936 373.444 523.416 372.508 523.968L373.204 525.984ZM375.964 531.816C375.1 531.816 374.428 531.36 374.428 530.544C374.428 529.632 375.244 529.2 376.156 529.2C376.948 529.2 377.572 529.368 378.052 529.728V530.832C377.716 531.312 377.116 531.816 375.964 531.816ZM383.474 534H386.234V526.632C386.882 525.984 387.65 525.6 388.586 525.6C390.122 525.6 391.01 526.416 391.01 528.144V534H393.77V527.664C393.77 524.28 391.97 523.008 389.33 523.008C388.034 523.008 386.882 523.584 386.234 524.28V523.2H383.474V534ZM395.159 535.464C395.159 537.936 397.631 538.992 400.775 538.992C403.919 538.992 406.391 537.888 406.391 535.464C406.391 533.04 403.919 531.936 400.775 531.936H400.655C400.559 531.768 400.511 531.576 400.511 531.384C400.511 531.264 400.511 531.12 400.559 530.976H400.751C403.535 530.976 405.335 529.152 405.335 526.992C405.335 526.512 405.239 526.032 405.071 525.6L406.871 525.192L406.775 522.984L403.511 523.704C402.767 523.224 401.831 522.936 400.751 522.936C397.895 522.936 396.143 524.832 396.143 526.992C396.143 528.576 397.079 529.968 398.711 530.616C398.543 530.832 398.471 531.12 398.471 531.384C398.471 531.624 398.543 531.912 398.663 532.128C396.599 532.56 395.159 533.664 395.159 535.464ZM397.727 535.464C397.727 534.672 398.807 534.144 400.775 534.144C402.767 534.144 403.799 534.672 403.799 535.464C403.799 536.328 402.647 536.784 400.775 536.784C398.903 536.784 397.727 536.304 397.727 535.464ZM398.735 526.992C398.735 526.008 399.503 525.168 400.751 525.168C402.047 525.168 402.767 525.984 402.767 526.992C402.767 528.072 401.927 528.744 400.751 528.744C399.503 528.744 398.735 528 398.735 526.992ZM417.024 530.976C416.4 531.48 415.296 531.96 413.976 531.96C412.272 531.96 410.976 531.072 410.736 529.44H418.536C418.656 529.032 418.704 528.624 418.704 527.952C418.704 524.928 416.376 522.936 413.592 522.936C410.04 522.936 407.88 525.456 407.88 528.6C407.88 532.008 410.208 534.264 413.688 534.264C415.2 534.264 416.736 533.832 417.816 532.92L417.024 530.976ZM413.472 525.24C415.056 525.24 415.968 526.272 415.944 527.592H410.64C410.928 526.176 411.816 525.24 413.472 525.24ZM424.597 535.464C424.597 537.936 427.069 538.992 430.213 538.992C433.357 538.992 435.829 537.888 435.829 535.464C435.829 533.04 433.357 531.936 430.213 531.936H430.093C429.997 531.768 429.949 531.576 429.949 531.384C429.949 531.264 429.949 531.12 429.997 530.976H430.189C432.973 530.976 434.773 529.152 434.773 526.992C434.773 526.512 434.677 526.032 434.509 525.6L436.309 525.192L436.213 522.984L432.949 523.704C432.205 523.224 431.269 522.936 430.189 522.936C427.333 522.936 425.581 524.832 425.581 526.992C425.581 528.576 426.517 529.968 428.149 530.616C427.981 530.832 427.909 531.12 427.909 531.384C427.909 531.624 427.981 531.912 428.101 532.128C426.037 532.56 424.597 533.664 424.597 535.464ZM427.165 535.464C427.165 534.672 428.245 534.144 430.213 534.144C432.205 534.144 433.237 534.672 433.237 535.464C433.237 536.328 432.085 536.784 430.213 536.784C428.341 536.784 427.165 536.304 427.165 535.464ZM428.173 526.992C428.173 526.008 428.941 525.168 430.189 525.168C431.485 525.168 432.205 525.984 432.205 526.992C432.205 528.072 431.365 528.744 430.189 528.744C428.941 528.744 428.173 528 428.173 526.992ZM446.461 530.976C445.837 531.48 444.733 531.96 443.413 531.96C441.709 531.96 440.413 531.072 440.173 529.44H447.973C448.093 529.032 448.141 528.624 448.141 527.952C448.141 524.928 445.813 522.936 443.029 522.936C439.477 522.936 437.317 525.456 437.317 528.6C437.317 532.008 439.645 534.264 443.125 534.264C444.637 534.264 446.173 533.832 447.253 532.92L446.461 530.976ZM442.909 525.24C444.493 525.24 445.405 526.272 445.381 527.592H440.077C440.365 526.176 441.253 525.24 442.909 525.24ZM450.364 534H453.124V526.632C453.772 525.984 454.54 525.6 455.476 525.6C457.012 525.6 457.9 526.416 457.9 528.144V534H460.66V527.664C460.66 524.28 458.86 523.008 456.22 523.008C454.924 523.008 453.772 523.584 453.124 524.28V523.2H450.364V534ZM470.978 534H473.738V517.2H470.978V523.464C470.378 523.104 469.682 522.936 468.722 522.936C465.242 522.936 462.794 525.312 462.794 528.72C462.794 532.008 464.786 534.192 467.882 534.192C469.274 534.192 470.258 533.64 470.978 532.872V534ZM468.458 531.624C466.994 531.624 465.746 530.544 465.746 528.624C465.746 526.632 467.21 525.528 468.842 525.528C469.586 525.528 470.282 525.744 470.978 526.176V530.52C470.354 531.144 469.466 531.624 468.458 531.624ZM485.274 530.976C484.65 531.48 483.546 531.96 482.226 531.96C480.522 531.96 479.226 531.072 478.986 529.44H486.786C486.906 529.032 486.954 528.624 486.954 527.952C486.954 524.928 484.626 522.936 481.842 522.936C478.29 522.936 476.13 525.456 476.13 528.6C476.13 532.008 478.458 534.264 481.938 534.264C483.45 534.264 484.986 533.832 486.066 532.92L485.274 530.976ZM481.722 525.24C483.306 525.24 484.218 526.272 484.194 527.592H478.89C479.178 526.176 480.066 525.24 481.722 525.24ZM489.177 534H491.937V526.752C492.249 526.128 492.753 525.6 493.713 525.6C494.289 525.6 494.577 525.696 495.105 526.008L496.089 523.416C495.729 523.152 495.297 523.008 494.409 523.008C493.113 523.008 492.441 523.56 491.937 524.256V523.2H489.177V534Z" fill="#6C7991"/>
    </g>
    <rect x="316" y="1" width="210.328" height="568" stroke="#D3DBE6" stroke-width="2" stroke-linecap="round" stroke-dasharray="5.33 5.33"/>
    <defs>
        <clipPath id="clip0_249_529">
            <rect width="212" height="544" fill="white" transform="translate(80 17)"/>
        </clipPath>
        <clipPath id="clip1_249_529">
            <rect width="178.328" height="536" fill="white" transform="translate(332 17)"/>
        </clipPath>
    </defs>
</svg>
