<svg width="369" height="360" viewBox="0 0 369 360" fill="none" xmlns="http://www.w3.org/2000/svg">
    <rect width="168" height="360" fill="#EDF1F5"/>
    <path d="M369 57L186.5 57L201 85L186.5 113H369V57Z" fill="#7833FF"/>
    <path d="M369 121L186.5 121L201 149L186.5 177H369V121Z" fill="#7833FF"/>
    <path d="M369 185L186.5 185L201 213L186.5 241H369V185Z" fill="#7833FF"/>
    <path d="M369 249L186.5 249L201 277L186.5 305H369V249Z" fill="#7833FF"/>
    <g filter="url(#filter0_d_213_246)">
        <path d="M35 57H188.3L203 85L188.3 113H35V57Z" fill="white"/>
        <path d="M36 58H187.696L201.871 85L187.696 112H36V58Z" stroke="#7833FF" stroke-width="2"/>
    </g>
    <path d="M62.76 86.76H66.14V88.96C65.62 89.46 64.32 89.92 63.24 89.92C60.4 89.92 58.5 87.98 58.5 85C58.5 81.88 60.48 80.08 63.18 80.08C64.4 80.08 65.64 80.5 66.34 81.16L67.38 79.2C66.24 78.3 64.88 77.78 62.88 77.78C58.6 77.78 55.9 80.98 55.9 85C55.9 89.36 58.62 92.22 63.2 92.22C64.94 92.22 67.2 91.5 68.44 90.26V84.46H62.76V86.76ZM77.8713 89.48C77.3513 89.9 76.4313 90.3 75.3313 90.3C73.9113 90.3 72.8313 89.56 72.6313 88.2H79.1313C79.2313 87.86 79.2713 87.52 79.2713 86.96C79.2713 84.44 77.3313 82.78 75.0113 82.78C72.0513 82.78 70.2513 84.88 70.2513 87.5C70.2513 90.34 72.1913 92.22 75.0913 92.22C76.3513 92.22 77.6313 91.86 78.5313 91.1L77.8713 89.48ZM74.9113 84.7C76.2313 84.7 76.9913 85.56 76.9713 86.66H72.5513C72.7913 85.48 73.5313 84.7 74.9113 84.7ZM80.9238 88.58C80.9238 90.88 81.6838 92.2 83.7238 92.2C84.8838 92.2 85.8438 91.76 86.3838 91.32L85.6838 89.54C85.3638 89.78 84.9238 90.06 84.3038 90.06C83.5438 90.06 83.2238 89.42 83.2238 88.44V85.16H86.1238V83H83.2238V80.5H80.9238V88.58Z" fill="#7833FF"/>
    <g filter="url(#filter1_d_213_246)">
        <path d="M35 121H188.3L203 149L188.3 177H35V121Z" fill="white"/>
        <path d="M36 122H187.696L201.871 149L187.696 176H36V122Z" stroke="#7833FF" stroke-width="2"/>
    </g>
    <path d="M59.4 156V150.94C60 151 60.8 151 61.22 151C64.56 151 66.34 148.84 66.34 146.46C66.34 144.16 65.04 141.96 60.92 141.96C59.94 141.96 57.72 142 56.94 142V156H59.4ZM61.16 144.26C62.84 144.26 63.74 144.98 63.74 146.44C63.74 148 62.6 148.7 61.14 148.7C60.58 148.7 59.98 148.66 59.4 148.6V144.3C60.06 144.28 60.66 144.26 61.16 144.26ZM66.7747 151.5C66.7747 154.2 68.6947 156.22 71.6747 156.22C74.6547 156.22 76.5747 154.2 76.5747 151.5C76.5747 148.8 74.6547 146.78 71.6747 146.78C68.6947 146.78 66.7747 148.8 66.7747 151.5ZM69.2347 151.5C69.2347 149.94 70.3147 148.94 71.6747 148.94C73.0747 148.94 74.1347 149.98 74.1347 151.5C74.1347 153.06 73.0947 154.08 71.6747 154.08C70.2747 154.08 69.2347 153 69.2347 151.5ZM83.1252 153.46C83.1252 154.02 82.6052 154.3 81.9452 154.3C81.0452 154.3 79.6852 153.76 79.1452 153.18L78.0252 154.68C78.4452 155.32 80.1252 156.22 81.7852 156.22C83.9852 156.22 85.4252 155.12 85.4252 153.34C85.4252 150.16 80.5652 150.98 80.5652 149.48C80.5652 149.08 80.9852 148.7 81.6852 148.7C82.6452 148.7 83.5852 149.14 84.1252 149.56L84.9852 147.92C84.4252 147.4 83.3052 146.78 81.5652 146.78C79.7052 146.78 78.2652 147.76 78.2652 149.52C78.2652 152.8 83.1252 152 83.1252 153.46ZM87.2519 152.58C87.2519 154.88 88.0119 156.2 90.0519 156.2C91.2119 156.2 92.1719 155.76 92.7119 155.32L92.0119 153.54C91.6919 153.78 91.2519 154.06 90.6319 154.06C89.8719 154.06 89.5519 153.42 89.5519 152.44V149.16H92.4519V147H89.5519V144.5H87.2519V152.58Z" fill="#7833FF"/>
    <g filter="url(#filter2_d_213_246)">
        <path d="M35 185H188.3L203 213L188.3 241H35V185Z" fill="white"/>
        <path d="M36 186H187.696L201.871 213L187.696 240H36V186Z" stroke="#7833FF" stroke-width="2"/>
    </g>
    <path d="M59.4 220V214.94C60 215 60.8 215 61.22 215C64.56 215 66.34 212.84 66.34 210.46C66.34 208.16 65.04 205.96 60.92 205.96C59.94 205.96 57.72 206 56.94 206V220H59.4ZM61.16 208.26C62.84 208.26 63.74 208.98 63.74 210.44C63.74 212 62.6 212.7 61.14 212.7C60.58 212.7 59.98 212.66 59.4 212.6V208.3C60.06 208.28 60.66 208.26 61.16 208.26ZM75.963 211H73.663V216.98C73.143 217.66 72.403 218.08 71.643 218.08C70.383 218.08 69.923 217.22 69.923 216.02V211H67.623V216.5C67.623 219.08 69.023 220.22 70.783 220.22C72.183 220.22 73.123 219.56 73.663 218.9V220H75.963V211ZM78.3261 216.58C78.3261 218.88 79.0861 220.2 81.1261 220.2C82.2861 220.2 83.2461 219.76 83.7861 219.32L83.0861 217.54C82.7661 217.78 82.3261 218.06 81.7061 218.06C80.9461 218.06 80.6261 217.42 80.6261 216.44V213.16H83.5261V211H80.6261V208.5H78.3261V216.58ZM83.8531 223.5L85.6331 224.16L92.2331 206.44L90.4531 205.78L83.8531 223.5ZM96.0406 220V214.94C96.6406 215 97.4406 215 97.8606 215C101.201 215 102.981 212.84 102.981 210.46C102.981 208.16 101.681 205.96 97.5606 205.96C96.5806 205.96 94.3606 206 93.5806 206V220H96.0406ZM97.8006 208.26C99.4806 208.26 100.381 208.98 100.381 210.44C100.381 212 99.2406 212.7 97.7806 212.7C97.2206 212.7 96.6206 212.66 96.0406 212.6V208.3C96.7006 208.28 97.3006 208.26 97.8006 208.26ZM105.164 213.32C105.824 213.02 106.484 212.7 107.524 212.7C108.864 212.7 109.264 213.52 109.204 215.02C108.764 214.7 107.964 214.44 107.164 214.44C105.344 214.44 103.884 215.38 103.884 217.36C103.884 219.1 105.064 220.12 106.704 220.12C107.924 220.12 108.884 219.64 109.364 218.96V220H111.364V214.52C111.364 212.14 110.424 210.78 107.764 210.78C106.584 210.78 105.364 211.18 104.584 211.64L105.164 213.32ZM107.464 218.18C106.744 218.18 106.184 217.8 106.184 217.12C106.184 216.36 106.864 216 107.624 216C108.284 216 108.804 216.14 109.204 216.44V217.36C108.924 217.76 108.424 218.18 107.464 218.18ZM113.521 216.58C113.521 218.88 114.281 220.2 116.321 220.2C117.481 220.2 118.441 219.76 118.981 219.32L118.281 217.54C117.961 217.78 117.521 218.06 116.901 218.06C116.141 218.06 115.821 217.42 115.821 216.44V213.16H118.721V211H115.821V208.5H113.521V216.58ZM127.397 216.98C126.817 217.62 126.057 218.08 125.077 218.08C123.717 218.08 122.477 217.1 122.477 215.5C122.477 213.92 123.697 212.94 124.977 212.94C125.797 212.94 126.537 213.16 127.217 213.82L128.297 212C127.457 211.16 126.157 210.78 124.677 210.78C121.937 210.78 120.017 212.88 120.017 215.5C120.017 218.34 121.977 220.22 124.897 220.22C126.357 220.22 127.717 219.68 128.477 218.66L127.397 216.98ZM130.323 220H132.623V213.82C133.143 213.3 133.863 213 134.603 213C135.863 213 136.603 213.74 136.603 215.08V220H138.903V214.78C138.903 211.96 137.403 210.84 135.203 210.84C134.163 210.84 133.203 211.26 132.623 211.82V206H130.323V220Z" fill="#7833FF"/>
    <g filter="url(#filter3_d_213_246)">
        <path d="M35 249H188.3L203 277L188.3 305H35V249Z" fill="white"/>
        <path d="M36 250H187.696L201.871 277L187.696 304H36V250Z" stroke="#7833FF" stroke-width="2"/>
    </g>
    <path d="M56.94 284H57.22C58.5 284 60.06 284.04 60.9 284.04C66.24 284.04 68.92 280.8 68.92 276.86C68.92 273.16 66.66 269.94 61.06 269.94C60.04 269.94 58.04 270 57.2 270H56.94V284ZM61.02 272.24C64.36 272.24 66.32 274.04 66.32 276.86C66.32 279.82 64.36 281.74 60.98 281.74C60.64 281.74 60.08 281.74 59.4 281.7V272.3C59.96 272.26 60.44 272.24 61.02 272.24ZM77.8908 281.48C77.3708 281.9 76.4508 282.3 75.3508 282.3C73.9308 282.3 72.8508 281.56 72.6508 280.2H79.1508C79.2508 279.86 79.2908 279.52 79.2908 278.96C79.2908 276.44 77.3508 274.78 75.0308 274.78C72.0708 274.78 70.2708 276.88 70.2708 279.5C70.2708 282.34 72.2108 284.22 75.1108 284.22C76.3708 284.22 77.6508 283.86 78.5508 283.1L77.8908 281.48ZM74.9308 276.7C76.2508 276.7 77.0108 277.56 76.9908 278.66H72.5708C72.8108 277.48 73.5508 276.7 74.9308 276.7ZM81.1433 281.52C81.1433 283.36 81.8833 284.2 83.2633 284.2C84.3433 284.2 85.1233 283.86 85.6433 283.44L85.1633 281.68C84.8833 281.88 84.5833 282.04 84.2233 282.04C83.6833 282.04 83.4433 281.6 83.4433 280.58V270H81.1433V281.52ZM94.1798 281.48C93.6598 281.9 92.7398 282.3 91.6398 282.3C90.2198 282.3 89.1398 281.56 88.9398 280.2H95.4398C95.5398 279.86 95.5798 279.52 95.5798 278.96C95.5798 276.44 93.6398 274.78 91.3198 274.78C88.3598 274.78 86.5598 276.88 86.5598 279.5C86.5598 282.34 88.4998 284.22 91.3998 284.22C92.6598 284.22 93.9398 283.86 94.8398 283.1L94.1798 281.48ZM91.2198 276.7C92.5398 276.7 93.2998 277.56 93.2798 278.66H88.8598C89.0998 277.48 89.8398 276.7 91.2198 276.7ZM97.2323 280.58C97.2323 282.88 97.9923 284.2 100.032 284.2C101.192 284.2 102.152 283.76 102.692 283.32L101.992 281.54C101.672 281.78 101.232 282.06 100.612 282.06C99.8523 282.06 99.5323 281.42 99.5323 280.44V277.16H102.432V275H99.5323V272.5H97.2323V280.58ZM111.348 281.48C110.828 281.9 109.908 282.3 108.808 282.3C107.388 282.3 106.308 281.56 106.108 280.2H112.608C112.708 279.86 112.748 279.52 112.748 278.96C112.748 276.44 110.808 274.78 108.488 274.78C105.528 274.78 103.728 276.88 103.728 279.5C103.728 282.34 105.668 284.22 108.568 284.22C109.828 284.22 111.108 283.86 112.008 283.1L111.348 281.48ZM108.388 276.7C109.708 276.7 110.468 277.56 110.448 278.66H106.028C106.268 277.48 107.008 276.7 108.388 276.7Z" fill="#7833FF"/>
    <path d="M238.56 88.28C238.56 89.34 237.68 89.92 236.52 89.92C235.44 89.92 234.12 89.4 233.3 88.34L231.9 90.02C232.58 91.44 234.68 92.22 236.48 92.22C239.1 92.22 241.16 90.62 241.16 88.26C241.16 83.6 234.82 84.52 234.82 81.62C234.82 80.7 235.56 80.08 236.78 80.08C237.9 80.08 238.58 80.46 239.26 81.12L240.58 79.28C239.74 78.36 238.3 77.78 236.58 77.78C233.86 77.78 232.22 79.54 232.22 81.64C232.22 86.2 238.56 85.52 238.56 88.28ZM243.335 92H245.635V85.82C246.155 85.3 246.875 85 247.615 85C248.875 85 249.615 85.74 249.615 87.08V92H251.915V86.78C251.915 83.96 250.415 82.84 248.215 82.84C247.175 82.84 246.215 83.26 245.635 83.82V78H243.335V92ZM253.693 87.5C253.693 90.2 255.613 92.22 258.593 92.22C261.573 92.22 263.493 90.2 263.493 87.5C263.493 84.8 261.573 82.78 258.593 82.78C255.613 82.78 253.693 84.8 253.693 87.5ZM256.153 87.5C256.153 85.94 257.233 84.94 258.593 84.94C259.993 84.94 261.053 85.98 261.053 87.5C261.053 89.06 260.013 90.08 258.593 90.08C257.193 90.08 256.153 89 256.153 87.5ZM278.347 83H276.027L274.707 87.82C274.607 88.26 274.507 88.7 274.427 89.12C274.327 88.7 274.227 88.28 274.087 87.88L272.347 83H270.307L268.627 87.9C268.447 88.4 268.387 88.72 268.287 89.1C268.207 88.68 268.167 88.34 268.027 87.9L266.587 83H264.127L267.047 92.04H269.007L270.907 87.08C271.047 86.72 271.147 86.38 271.227 85.98C271.327 86.32 271.387 86.7 271.527 87.04L273.447 92.04H275.507L278.347 83Z" fill="white"/>
    <path d="M242.66 152.8C241.7 153.54 240.52 153.92 239.34 153.92C236.48 153.92 234.5 151.92 234.5 149C234.5 145.96 236.46 144.08 239.06 144.08C240.46 144.08 241.38 144.46 242.22 145.02L243.32 143.2C242.4 142.36 240.88 141.78 239.06 141.78C234.44 141.78 231.9 144.98 231.9 149C231.9 153.36 234.84 156.22 239.12 156.22C240.94 156.22 242.72 155.58 243.6 154.64L242.66 152.8ZM245.385 156H247.685V149.96C247.945 149.44 248.365 149 249.165 149C249.645 149 249.885 149.08 250.325 149.34L251.145 147.18C250.845 146.96 250.485 146.84 249.745 146.84C248.665 146.84 248.105 147.3 247.685 147.88V147H245.385V156ZM259.516 153.48C258.996 153.9 258.076 154.3 256.976 154.3C255.556 154.3 254.476 153.56 254.276 152.2H260.776C260.876 151.86 260.916 151.52 260.916 150.96C260.916 148.44 258.976 146.78 256.656 146.78C253.696 146.78 251.896 148.88 251.896 151.5C251.896 154.34 253.836 156.22 256.736 156.22C257.996 156.22 259.276 155.86 260.176 155.1L259.516 153.48ZM256.556 148.7C257.876 148.7 258.636 149.56 258.616 150.66H254.196C254.436 149.48 255.176 148.7 256.556 148.7ZM263.468 149.32C264.128 149.02 264.788 148.7 265.828 148.7C267.168 148.7 267.568 149.52 267.508 151.02C267.068 150.7 266.268 150.44 265.468 150.44C263.648 150.44 262.188 151.38 262.188 153.36C262.188 155.1 263.368 156.12 265.008 156.12C266.228 156.12 267.188 155.64 267.668 154.96V156H269.668V150.52C269.668 148.14 268.728 146.78 266.068 146.78C264.888 146.78 263.668 147.18 262.888 147.64L263.468 149.32ZM265.768 154.18C265.048 154.18 264.488 153.8 264.488 153.12C264.488 152.36 265.168 152 265.928 152C266.588 152 267.108 152.14 267.508 152.44V153.36C267.228 153.76 266.728 154.18 265.768 154.18ZM271.826 152.58C271.826 154.88 272.586 156.2 274.626 156.2C275.786 156.2 276.746 155.76 277.286 155.32L276.586 153.54C276.266 153.78 275.826 154.06 275.206 154.06C274.446 154.06 274.126 153.42 274.126 152.44V149.16H277.026V147H274.126V144.5H271.826V152.58ZM285.942 153.48C285.422 153.9 284.502 154.3 283.402 154.3C281.982 154.3 280.902 153.56 280.702 152.2H287.202C287.302 151.86 287.342 151.52 287.342 150.96C287.342 148.44 285.402 146.78 283.082 146.78C280.122 146.78 278.322 148.88 278.322 151.5C278.322 154.34 280.262 156.22 283.162 156.22C284.422 156.22 285.702 155.86 286.602 155.1L285.942 153.48ZM282.982 148.7C284.302 148.7 285.062 149.56 285.042 150.66H280.622C280.862 149.48 281.602 148.7 282.982 148.7Z" fill="white"/>
    <path d="M242.66 216.8C241.7 217.54 240.52 217.92 239.34 217.92C236.48 217.92 234.5 215.92 234.5 213C234.5 209.96 236.46 208.08 239.06 208.08C240.46 208.08 241.38 208.46 242.22 209.02L243.32 207.2C242.4 206.36 240.88 205.78 239.06 205.78C234.44 205.78 231.9 208.98 231.9 213C231.9 217.36 234.84 220.22 239.12 220.22C240.94 220.22 242.72 219.58 243.6 218.64L242.66 216.8ZM245.385 220H247.685V213.96C247.945 213.44 248.365 213 249.165 213C249.645 213 249.885 213.08 250.325 213.34L251.145 211.18C250.845 210.96 250.485 210.84 249.745 210.84C248.665 210.84 248.105 211.3 247.685 211.88V211H245.385V220ZM259.516 217.48C258.996 217.9 258.076 218.3 256.976 218.3C255.556 218.3 254.476 217.56 254.276 216.2H260.776C260.876 215.86 260.916 215.52 260.916 214.96C260.916 212.44 258.976 210.78 256.656 210.78C253.696 210.78 251.896 212.88 251.896 215.5C251.896 218.34 253.836 220.22 256.736 220.22C257.996 220.22 259.276 219.86 260.176 219.1L259.516 217.48ZM256.556 212.7C257.876 212.7 258.636 213.56 258.616 214.66H254.196C254.436 213.48 255.176 212.7 256.556 212.7ZM263.468 213.32C264.128 213.02 264.788 212.7 265.828 212.7C267.168 212.7 267.568 213.52 267.508 215.02C267.068 214.7 266.268 214.44 265.468 214.44C263.648 214.44 262.188 215.38 262.188 217.36C262.188 219.1 263.368 220.12 265.008 220.12C266.228 220.12 267.188 219.64 267.668 218.96V220H269.668V214.52C269.668 212.14 268.728 210.78 266.068 210.78C264.888 210.78 263.668 211.18 262.888 211.64L263.468 213.32ZM265.768 218.18C265.048 218.18 264.488 217.8 264.488 217.12C264.488 216.36 265.168 216 265.928 216C266.588 216 267.108 216.14 267.508 216.44V217.36C267.228 217.76 266.728 218.18 265.768 218.18ZM271.826 216.58C271.826 218.88 272.586 220.2 274.626 220.2C275.786 220.2 276.746 219.76 277.286 219.32L276.586 217.54C276.266 217.78 275.826 218.06 275.206 218.06C274.446 218.06 274.126 217.42 274.126 216.44V213.16H277.026V211H274.126V208.5H271.826V216.58ZM285.942 217.48C285.422 217.9 284.502 218.3 283.402 218.3C281.982 218.3 280.902 217.56 280.702 216.2H287.202C287.302 215.86 287.342 215.52 287.342 214.96C287.342 212.44 285.402 210.78 283.082 210.78C280.122 210.78 278.322 212.88 278.322 215.5C278.322 218.34 280.262 220.22 283.162 220.22C284.422 220.22 285.702 219.86 286.602 219.1L285.942 217.48ZM282.982 212.7C284.302 212.7 285.062 213.56 285.042 214.66H280.622C280.862 213.48 281.602 212.7 282.982 212.7Z" fill="white"/>
    <path d="M232.94 284H233.22C234.5 284 236.06 284.04 236.9 284.04C242.24 284.04 244.92 280.8 244.92 276.86C244.92 273.16 242.66 269.94 237.06 269.94C236.04 269.94 234.04 270 233.2 270H232.94V284ZM237.02 272.24C240.36 272.24 242.32 274.04 242.32 276.86C242.32 279.82 240.36 281.74 236.98 281.74C236.64 281.74 236.08 281.74 235.4 281.7V272.3C235.96 272.26 236.44 272.24 237.02 272.24ZM253.891 281.48C253.371 281.9 252.451 282.3 251.351 282.3C249.931 282.3 248.851 281.56 248.651 280.2H255.151C255.251 279.86 255.291 279.52 255.291 278.96C255.291 276.44 253.351 274.78 251.031 274.78C248.071 274.78 246.271 276.88 246.271 279.5C246.271 282.34 248.211 284.22 251.111 284.22C252.371 284.22 253.651 283.86 254.551 283.1L253.891 281.48ZM250.931 276.7C252.251 276.7 253.011 277.56 252.991 278.66H248.571C248.811 277.48 249.551 276.7 250.931 276.7ZM257.143 281.52C257.143 283.36 257.883 284.2 259.263 284.2C260.343 284.2 261.123 283.86 261.643 283.44L261.163 281.68C260.883 281.88 260.583 282.04 260.223 282.04C259.683 282.04 259.443 281.6 259.443 280.58V270H257.143V281.52ZM270.18 281.48C269.66 281.9 268.74 282.3 267.64 282.3C266.22 282.3 265.14 281.56 264.94 280.2H271.44C271.54 279.86 271.58 279.52 271.58 278.96C271.58 276.44 269.64 274.78 267.32 274.78C264.36 274.78 262.56 276.88 262.56 279.5C262.56 282.34 264.5 284.22 267.4 284.22C268.66 284.22 269.94 283.86 270.84 283.1L270.18 281.48ZM267.22 276.7C268.54 276.7 269.3 277.56 269.28 278.66H264.86C265.1 277.48 265.84 276.7 267.22 276.7ZM273.232 280.58C273.232 282.88 273.992 284.2 276.032 284.2C277.192 284.2 278.152 283.76 278.692 283.32L277.992 281.54C277.672 281.78 277.232 282.06 276.612 282.06C275.852 282.06 275.532 281.42 275.532 280.44V277.16H278.432V275H275.532V272.5H273.232V280.58ZM287.348 281.48C286.828 281.9 285.908 282.3 284.808 282.3C283.388 282.3 282.308 281.56 282.108 280.2H288.608C288.708 279.86 288.748 279.52 288.748 278.96C288.748 276.44 286.808 274.78 284.488 274.78C281.528 274.78 279.728 276.88 279.728 279.5C279.728 282.34 281.668 284.22 284.568 284.22C285.828 284.22 287.108 283.86 288.008 283.1L287.348 281.48ZM284.388 276.7C285.708 276.7 286.468 277.56 286.448 278.66H282.028C282.268 277.48 283.008 276.7 284.388 276.7Z" fill="white"/>
    <path d="M36.164 40H37.64V33.964L40.316 37.66H40.532L43.184 33.928V40H44.648V31.6H43.256L40.52 35.524L37.652 31.6H36.164V40ZM49.8604 40H54.8404V38.62H51.3364V36.448H54.3604V35.068H51.3364V32.98H54.7204V31.6H49.8604V40ZM58.5988 32.98H61.3228V40H62.7988V32.98H65.5228V31.6H58.5988V32.98ZM74.9989 40H76.4629V31.6H74.9989V35.032H71.1589V31.6H69.6829V40H71.1589V36.412H74.9989V40ZM81.0444 35.8C81.0444 38.416 82.9164 40.132 85.4124 40.132C87.9084 40.132 89.7924 38.32 89.7924 35.8C89.7924 33.184 87.9084 31.468 85.4124 31.468C82.8324 31.468 81.0444 33.364 81.0444 35.8ZM82.6044 35.8C82.6044 34.06 83.8044 32.848 85.4124 32.848C86.9964 32.848 88.2324 34.06 88.2324 35.8C88.2324 37.456 87.1764 38.752 85.4124 38.752C83.8404 38.752 82.6044 37.48 82.6044 35.8ZM94.3804 40H94.5484C95.3164 40 96.2524 40.024 96.7564 40.024C99.9604 40.024 101.568 38.08 101.568 35.716C101.568 33.496 100.212 31.564 96.8524 31.564C96.2404 31.564 95.0404 31.6 94.5364 31.6H94.3804V40ZM96.8284 32.944C98.8324 32.944 100.008 34.024 100.008 35.716C100.008 37.492 98.8324 38.644 96.8044 38.644C96.6004 38.644 96.2644 38.644 95.8564 38.62V32.98C96.1924 32.956 96.4804 32.944 96.8284 32.944ZM109.527 37.768C109.527 38.404 108.999 38.752 108.303 38.752C107.655 38.752 106.863 38.44 106.371 37.804L105.531 38.812C105.939 39.664 107.199 40.132 108.279 40.132C109.851 40.132 111.087 39.172 111.087 37.756C111.087 34.96 107.283 35.512 107.283 33.772C107.283 33.22 107.727 32.848 108.459 32.848C109.131 32.848 109.539 33.076 109.947 33.472L110.739 32.368C110.235 31.816 109.371 31.468 108.339 31.468C106.707 31.468 105.723 32.524 105.723 33.784C105.723 36.52 109.527 36.112 109.527 37.768Z" fill="#10162F"/>
    <path d="M204.164 40H205.64V36.736H208.604V35.356H205.64V32.98H208.964V31.6H204.164V40ZM220.281 31.6H218.817V36.22C218.817 37.852 218.217 38.752 216.945 38.752C215.493 38.752 214.845 37.696 214.845 36.124V31.6H213.369V36.436C213.369 38.896 214.857 40.132 216.945 40.132C218.709 40.132 220.281 39.088 220.281 36.52V31.6ZM232.557 40V31.6H231.177V37.444L226.557 31.6H225.381V40H226.761V34.18L231.381 40H232.557ZM243.597 38.08C243.021 38.524 242.313 38.752 241.605 38.752C239.889 38.752 238.701 37.552 238.701 35.8C238.701 33.976 239.877 32.848 241.437 32.848C242.277 32.848 242.829 33.076 243.333 33.412L243.993 32.32C243.441 31.816 242.529 31.468 241.437 31.468C238.665 31.468 237.141 33.388 237.141 35.8C237.141 38.416 238.905 40.132 241.473 40.132C242.565 40.132 243.633 39.748 244.161 39.184L243.597 38.08ZM247.464 32.98H250.188V40H251.664V32.98H254.388V31.6H247.464V32.98ZM258.728 40H260.204V31.6H258.728V40ZM264.965 35.8C264.965 38.416 266.837 40.132 269.333 40.132C271.829 40.132 273.713 38.32 273.713 35.8C273.713 33.184 271.829 31.468 269.333 31.468C266.753 31.468 264.965 33.364 264.965 35.8ZM266.525 35.8C266.525 34.06 267.725 32.848 269.333 32.848C270.917 32.848 272.153 34.06 272.153 35.8C272.153 37.456 271.097 38.752 269.333 38.752C267.761 38.752 266.525 37.48 266.525 35.8ZM285.477 40V31.6H284.097V37.444L279.477 31.6H278.301V40H279.681V34.18L284.301 40H285.477ZM294.056 37.768C294.056 38.404 293.528 38.752 292.832 38.752C292.184 38.752 291.392 38.44 290.9 37.804L290.06 38.812C290.468 39.664 291.728 40.132 292.808 40.132C294.38 40.132 295.616 39.172 295.616 37.756C295.616 34.96 291.812 35.512 291.812 33.772C291.812 33.22 292.256 32.848 292.988 32.848C293.66 32.848 294.068 33.076 294.476 33.472L295.268 32.368C294.764 31.816 293.9 31.468 292.868 31.468C291.236 31.468 290.252 32.524 290.252 33.784C290.252 36.52 294.056 36.112 294.056 37.768Z" fill="#10162F"/>
    <defs>
        <filter id="filter0_d_213_246" x="31" y="57" width="172" height="60" filterUnits="userSpaceOnUse" color-interpolation-filters="sRGB">
            <feFlood flood-opacity="0" result="BackgroundImageFix"/>
            <feColorMatrix in="SourceAlpha" type="matrix" values="0 0 0 0 0 0 0 0 0 0 0 0 0 0 0 0 0 0 127 0" result="hardAlpha"/>
            <feOffset dx="-4" dy="4"/>
            <feComposite in2="hardAlpha" operator="out"/>
            <feColorMatrix type="matrix" values="0 0 0 0 0.470588 0 0 0 0 0.2 0 0 0 0 1 0 0 0 1 0"/>
            <feBlend mode="normal" in2="BackgroundImageFix" result="effect1_dropShadow_213_246"/>
            <feBlend mode="normal" in="SourceGraphic" in2="effect1_dropShadow_213_246" result="shape"/>
        </filter>
        <filter id="filter1_d_213_246" x="31" y="121" width="172" height="60" filterUnits="userSpaceOnUse" color-interpolation-filters="sRGB">
            <feFlood flood-opacity="0" result="BackgroundImageFix"/>
            <feColorMatrix in="SourceAlpha" type="matrix" values="0 0 0 0 0 0 0 0 0 0 0 0 0 0 0 0 0 0 127 0" result="hardAlpha"/>
            <feOffset dx="-4" dy="4"/>
            <feComposite in2="hardAlpha" operator="out"/>
            <feColorMatrix type="matrix" values="0 0 0 0 0.470588 0 0 0 0 0.2 0 0 0 0 1 0 0 0 1 0"/>
            <feBlend mode="normal" in2="BackgroundImageFix" result="effect1_dropShadow_213_246"/>
            <feBlend mode="normal" in="SourceGraphic" in2="effect1_dropShadow_213_246" result="shape"/>
        </filter>
        <filter id="filter2_d_213_246" x="31" y="185" width="172" height="60" filterUnits="userSpaceOnUse" color-interpolation-filters="sRGB">
            <feFlood flood-opacity="0" result="BackgroundImageFix"/>
            <feColorMatrix in="SourceAlpha" type="matrix" values="0 0 0 0 0 0 0 0 0 0 0 0 0 0 0 0 0 0 127 0" result="hardAlpha"/>
            <feOffset dx="-4" dy="4"/>
            <feComposite in2="hardAlpha" operator="out"/>
            <feColorMatrix type="matrix" values="0 0 0 0 0.470588 0 0 0 0 0.2 0 0 0 0 1 0 0 0 1 0"/>
            <feBlend mode="normal" in2="BackgroundImageFix" result="effect1_dropShadow_213_246"/>
            <feBlend mode="normal" in="SourceGraphic" in2="effect1_dropShadow_213_246" result="shape"/>
        </filter>
        <filter id="filter3_d_213_246" x="31" y="249" width="172" height="60" filterUnits="userSpaceOnUse" color-interpolation-filters="sRGB">
            <feFlood flood-opacity="0" result="BackgroundImageFix"/>
            <feColorMatrix in="SourceAlpha" type="matrix" values="0 0 0 0 0 0 0 0 0 0 0 0 0 0 0 0 0 0 127 0" result="hardAlpha"/>
            <feOffset dx="-4" dy="4"/>
            <feComposite in2="hardAlpha" operator="out"/>
            <feColorMatrix type="matrix" values="0 0 0 0 0.470588 0 0 0 0 0.2 0 0 0 0 1 0 0 0 1 0"/>
            <feBlend mode="normal" in2="BackgroundImageFix" result="effect1_dropShadow_213_246"/>
            <feBlend mode="normal" in="SourceGraphic" in2="effect1_dropShadow_213_246" result="shape"/>
        </filter>
    </defs>
</svg>
