<svg width="25" height="24" viewBox="0 0 25 24" fill="none" xmlns="http://www.w3.org/2000/svg">
    <path fill-rule="evenodd" clip-rule="evenodd" d="M15.7907 2C15.9695 3.21478 15.4751 4.40487 14.8228 5.24687C14.1249 6.15003 12.9221 6.84856 11.7567 6.8121C11.5439 5.64906 12.0886 4.45074 12.7514 3.64519C13.4785 2.75615 14.7246 2.07409 15.7907 2ZM19.2917 19.0987C19.8925 18.1779 20.1169 17.7134 20.5833 16.6738C17.1911 15.3838 16.6475 10.5611 20.0047 8.71013C18.9807 7.42596 17.5418 6.68157 16.1835 6.68157C15.2047 6.68157 14.5342 6.93697 13.9245 7.16916C13.4165 7.36266 12.9508 7.54003 12.3844 7.54003C11.7723 7.54003 11.2303 7.34569 10.6627 7.14219C10.0391 6.91858 9.38461 6.68392 8.57249 6.68392C7.0482 6.68392 5.42571 7.61529 4.39705 9.20757C2.95107 11.4502 3.19772 15.666 5.54261 19.2575C6.38074 20.5428 7.50058 21.9869 8.96526 21.9999C9.57301 22.0059 9.97743 21.8245 10.4151 21.6282C10.916 21.4035 11.4604 21.1593 12.4031 21.1543C13.3513 21.1486 13.8872 21.3958 14.3815 21.6238C14.8079 21.8205 15.2033 22.0029 15.8059 21.9963C17.2717 21.9846 18.4535 20.3841 19.2917 19.0987Z" fill="#0B0B0A"/>
</svg>
