<svg width="375" height="208" viewBox="0 0 375 208" fill="none" xmlns="http://www.w3.org/2000/svg">
    <path d="M71.9288 56H52.1688L58.0968 25.524H39.1728L41.6048 12.908H45.3288C50.5981 12.908 54.8795 11.996 58.1728 10.172C61.5168 8.29733 63.9995 5.81466 65.6208 2.724H82.2648L71.9288 56ZM227.55 0.975997C238.139 0.975997 246.068 2.8 251.338 6.448C256.607 10.0453 259.242 15.5173 259.242 22.864C259.242 27.4747 258.406 32.0093 256.734 36.468C255.112 40.9267 252.756 44.6507 249.666 47.64C242.876 54.4293 232.186 57.824 217.594 57.824C207.004 57.824 199.05 56.0253 193.73 52.428C188.46 48.78 185.826 43.2827 185.826 35.936C185.826 31.376 186.662 26.8667 188.334 22.408C190.006 17.8987 192.362 14.124 195.402 11.084C202.191 4.34533 212.907 0.975997 227.55 0.975997ZM219.798 43.764C225.979 43.764 230.691 41.7373 233.934 37.684C235.302 35.9613 236.366 34.0107 237.126 31.832C237.886 29.6027 238.266 27.3987 238.266 25.22C238.266 22.028 237.202 19.52 235.074 17.696C232.946 15.872 229.703 14.96 225.346 14.96C222.103 14.96 219.316 15.492 216.986 16.556C214.706 17.62 212.78 19.14 211.21 21.116C209.842 22.788 208.778 24.7133 208.018 26.892C207.258 29.0707 206.878 31.2747 206.878 33.504C206.878 36.696 207.942 39.204 210.07 41.028C212.198 42.852 215.44 43.764 219.798 43.764ZM85.903 136.976C96.4924 136.976 104.422 138.8 109.691 142.448C114.96 146.045 117.595 151.517 117.595 158.864C117.595 163.475 116.759 168.009 115.087 172.468C113.466 176.927 111.11 180.651 108.019 183.64C101.23 190.429 90.539 193.824 75.947 193.824C65.3577 193.824 57.403 192.025 52.083 188.428C46.8137 184.78 44.179 179.283 44.179 171.936C44.179 167.376 45.015 162.867 46.687 158.408C48.359 153.899 50.715 150.124 53.755 147.084C60.5443 140.345 71.2603 136.976 85.903 136.976ZM78.151 179.764C84.3324 179.764 89.0444 177.737 92.287 173.684C93.655 171.961 94.719 170.011 95.479 167.832C96.239 165.603 96.619 163.399 96.619 161.22C96.619 158.028 95.555 155.52 93.427 153.696C91.299 151.872 88.0564 150.96 83.699 150.96C80.4564 150.96 77.6697 151.492 75.339 152.556C73.059 153.62 71.1337 155.14 69.563 157.116C68.195 158.788 67.131 160.713 66.371 162.892C65.611 165.071 65.231 167.275 65.231 169.504C65.231 172.696 66.295 175.204 68.423 177.028C70.551 178.852 73.7937 179.764 78.151 179.764ZM266.032 136.976C276.621 136.976 284.551 138.8 289.82 142.448C295.089 146.045 297.724 151.517 297.724 158.864C297.724 163.475 296.888 168.009 295.216 172.468C293.595 176.927 291.239 180.651 288.148 183.64C281.359 190.429 270.668 193.824 256.076 193.824C245.487 193.824 237.532 192.025 232.212 188.428C226.943 184.78 224.308 179.283 224.308 171.936C224.308 167.376 225.144 162.867 226.816 158.408C228.488 153.899 230.844 150.124 233.884 147.084C240.673 140.345 251.389 136.976 266.032 136.976ZM258.28 179.764C264.461 179.764 269.173 177.737 272.416 173.684C273.784 171.961 274.848 170.011 275.608 167.832C276.368 165.603 276.748 163.399 276.748 161.22C276.748 158.028 275.684 155.52 273.556 153.696C271.428 151.872 268.185 150.96 263.828 150.96C260.585 150.96 257.799 151.492 255.468 152.556C253.188 153.62 251.263 155.14 249.692 157.116C248.324 158.788 247.26 160.713 246.5 162.892C245.74 165.071 245.36 167.275 245.36 169.504C245.36 172.696 246.424 175.204 248.552 177.028C250.68 178.852 253.923 179.764 258.28 179.764Z" fill="#FFE173"/>
    <path d="M100.977 51.44C100.015 56.4053 98.5201 60.3827 96.4934 63.372C94.4668 66.3613 91.8068 68.5147 88.5134 69.832C85.2708 71.2 81.2174 71.884 76.3534 71.884L77.5694 65.196C80.5588 65.196 82.8894 64.3347 84.5614 62.612C86.2841 60.8893 87.3988 58.6853 87.9054 56H79.3934L82.7374 38.748H103.485L100.977 51.44ZM150.585 0.975997C161.174 0.975997 169.103 2.8 174.373 6.448C179.642 10.0453 182.277 15.5173 182.277 22.864C182.277 27.4747 181.441 32.0093 179.769 36.468C178.147 40.9267 175.791 44.6507 172.701 47.64C165.911 54.4293 155.221 57.824 140.629 57.824C130.039 57.824 122.085 56.0253 116.765 52.428C111.495 48.78 108.861 43.2827 108.861 35.936C108.861 31.376 109.697 26.8667 111.369 22.408C113.041 17.8987 115.397 14.124 118.437 11.084C125.226 4.34533 135.942 0.975997 150.585 0.975997ZM142.833 43.764C149.014 43.764 153.726 41.7373 156.969 37.684C158.337 35.9613 159.401 34.0107 160.161 31.832C160.921 29.6027 161.301 27.3987 161.301 25.22C161.301 22.028 160.237 19.52 158.109 17.696C155.981 15.872 152.738 14.96 148.381 14.96C145.138 14.96 142.351 15.492 140.021 16.556C137.741 17.62 135.815 19.14 134.245 21.116C132.877 22.788 131.813 24.7133 131.053 26.892C130.293 29.0707 129.913 31.2747 129.913 33.504C129.913 36.696 130.977 39.204 133.105 41.028C135.233 42.852 138.475 43.764 142.833 43.764ZM304.514 0.975997C315.104 0.975997 323.033 2.8 328.302 6.448C333.572 10.0453 336.206 15.5173 336.206 22.864C336.206 27.4747 335.37 32.0093 333.698 36.468C332.077 40.9267 329.721 44.6507 326.63 47.64C319.841 54.4293 309.15 57.824 294.558 57.824C283.969 57.824 276.014 56.0253 270.694 52.428C265.425 48.78 262.79 43.2827 262.79 35.936C262.79 31.376 263.626 26.8667 265.298 22.408C266.97 17.8987 269.326 14.124 272.366 11.084C279.156 4.34533 289.872 0.975997 304.514 0.975997ZM296.762 43.764C302.944 43.764 307.656 41.7373 310.898 37.684C312.266 35.9613 313.33 34.0107 314.09 31.832C314.85 29.6027 315.23 27.3987 315.23 25.22C315.23 22.028 314.166 19.52 312.038 17.696C309.91 15.872 306.668 14.96 302.31 14.96C299.068 14.96 296.281 15.492 293.95 16.556C291.67 17.62 289.745 19.14 288.174 21.116C286.806 22.788 285.742 24.7133 284.982 26.892C284.222 29.0707 283.842 31.2747 283.842 33.504C283.842 36.696 284.906 39.204 287.034 41.028C289.162 42.852 292.405 43.764 296.762 43.764ZM168.158 94.36L211.326 79.008L208.97 91.092L184.574 99.3L184.498 99.756L205.398 109.256L203.346 120.048L166.486 103.176L168.158 94.36ZM33.4464 192H13.6864L19.6144 161.524H0.690391L3.12239 148.908H6.84639C12.1157 148.908 16.3971 147.996 19.6904 146.172C23.0344 144.297 25.5171 141.815 27.1384 138.724H43.7824L33.4464 192ZM139.46 187.44C138.497 192.405 137.003 196.383 134.976 199.372C132.949 202.361 130.289 204.515 126.996 205.832C123.753 207.2 119.7 207.884 114.836 207.884L116.052 201.196C119.041 201.196 121.372 200.335 123.044 198.612C124.767 196.889 125.881 194.685 126.388 192H117.876L121.22 174.748H141.968L139.46 187.44ZM189.067 136.976C199.656 136.976 207.586 138.8 212.855 142.448C218.124 146.045 220.759 151.517 220.759 158.864C220.759 163.475 219.923 168.009 218.251 172.468C216.63 176.927 214.274 180.651 211.183 183.64C204.394 190.429 193.703 193.824 179.111 193.824C168.522 193.824 160.567 192.025 155.247 188.428C149.978 184.78 147.343 179.283 147.343 171.936C147.343 167.376 148.179 162.867 149.851 158.408C151.523 153.899 153.879 150.124 156.919 147.084C163.708 140.345 174.424 136.976 189.067 136.976ZM181.315 179.764C187.496 179.764 192.208 177.737 195.451 173.684C196.819 171.961 197.883 170.011 198.643 167.832C199.403 165.603 199.783 163.399 199.783 161.22C199.783 158.028 198.719 155.52 196.591 153.696C194.463 151.872 191.22 150.96 186.863 150.96C183.62 150.96 180.834 151.492 178.503 152.556C176.223 153.62 174.298 155.14 172.727 157.116C171.359 158.788 170.295 160.713 169.535 162.892C168.775 165.071 168.395 167.275 168.395 169.504C168.395 172.696 169.459 175.204 171.587 177.028C173.715 178.852 176.958 179.764 181.315 179.764ZM342.997 136.976C353.586 136.976 361.515 138.8 366.785 142.448C372.054 146.045 374.689 151.517 374.689 158.864C374.689 163.475 373.853 168.009 372.181 172.468C370.559 176.927 368.203 180.651 365.113 183.64C358.323 190.429 347.633 193.824 333.041 193.824C322.451 193.824 314.497 192.025 309.177 188.428C303.907 184.78 301.273 179.283 301.273 171.936C301.273 167.376 302.109 162.867 303.781 158.408C305.453 153.899 307.809 150.124 310.849 147.084C317.638 140.345 328.354 136.976 342.997 136.976ZM335.245 179.764C341.426 179.764 346.138 177.737 349.381 173.684C350.749 171.961 351.813 170.011 352.573 167.832C353.333 165.603 353.713 163.399 353.713 161.22C353.713 158.028 352.649 155.52 350.521 153.696C348.393 151.872 345.15 150.96 340.793 150.96C337.55 150.96 334.763 151.492 332.433 152.556C330.153 153.62 328.227 155.14 326.657 157.116C325.289 158.788 324.225 160.713 323.465 162.892C322.705 165.071 322.325 167.275 322.325 169.504C322.325 172.696 323.389 175.204 325.517 177.028C327.645 178.852 330.887 179.764 335.245 179.764Z" fill="#1B2036"/>
</svg>
