<svg width="598" height="502" viewBox="0 0 598 502" fill="none" xmlns="http://www.w3.org/2000/svg">
    <rect x="88" y="128" width="425" height="216" rx="39" fill="#F4F7FA"/>
    <rect x="127" y="167" width="195" height="64" rx="12" fill="#F0C2FB"/>
    <path d="M148.855 198.293C148.855 201.223 150.711 203 154.539 203.918L157.762 204.699C160.086 205.266 160.887 206.105 160.887 207.57C160.887 209.406 159.188 210.578 156.434 210.578C153.68 210.578 152.117 209.465 151.707 207.141H148.309C148.699 210.949 151.668 213.352 156.434 213.352C160.965 213.352 164.305 210.852 164.305 207.316C164.305 204.406 162.82 202.805 158.719 201.809L155.496 201.027C153.23 200.48 152.195 199.523 152.195 198.117C152.195 196.34 153.836 195.109 156.316 195.109C158.816 195.109 160.379 196.418 160.633 198.547H163.875C163.738 194.953 160.77 192.336 156.316 192.336C151.922 192.336 148.855 194.816 148.855 198.293ZM168.934 187.785V192.688H165.906V195.48H168.934V207.727C168.934 211.633 170.379 213.156 174.109 213.156C174.91 213.156 175.848 213.098 176.258 213V210.148C176.023 210.188 175.242 210.246 174.852 210.246C173.113 210.246 172.332 209.406 172.332 207.551V195.48H176.277V192.688H172.332V187.785H168.934ZM185.457 213.352C188.191 213.352 190.77 211.828 191.98 209.504H192.059V213H195.281V198.957C195.281 194.914 192.273 192.336 187.508 192.336C182.703 192.336 179.695 195.031 179.461 198.547H182.742C183.172 196.555 184.812 195.324 187.43 195.324C190.242 195.324 191.883 196.809 191.883 199.289V200.988L186.062 201.32C181.375 201.594 178.699 203.781 178.699 207.258C178.699 210.91 181.414 213.352 185.457 213.352ZM186.219 210.461C183.777 210.461 182.156 209.191 182.156 207.258C182.156 205.344 183.719 204.133 186.453 203.957L191.883 203.625V205.285C191.883 208.215 189.422 210.461 186.219 210.461ZM199.598 213H202.996V200.344C202.996 197.473 204.715 195.578 207.352 195.578C208.172 195.578 208.895 195.676 209.168 195.773V192.473C208.895 192.434 208.387 192.336 207.801 192.336C205.418 192.336 203.543 193.762 202.879 196.008H202.801V192.688H199.598V213ZM213.035 187.785V192.688H210.008V195.48H213.035V207.727C213.035 211.633 214.48 213.156 218.211 213.156C219.012 213.156 219.949 213.098 220.359 213V210.148C220.125 210.188 219.344 210.246 218.953 210.246C217.215 210.246 216.434 209.406 216.434 207.551V195.48H220.379V192.688H216.434V187.785H213.035ZM224.539 184.816V213H234.012C242.391 213 247.312 207.785 247.312 198.898C247.312 190.031 242.371 184.816 234.012 184.816H224.539ZM228.055 187.98H233.777C240.184 187.98 243.719 191.887 243.719 198.938C243.719 205.93 240.164 209.836 233.777 209.836H228.055V187.98ZM257.098 213.352C259.832 213.352 262.41 211.828 263.621 209.504H263.699V213H266.922V198.957C266.922 194.914 263.914 192.336 259.148 192.336C254.344 192.336 251.336 195.031 251.102 198.547H254.383C254.812 196.555 256.453 195.324 259.07 195.324C261.883 195.324 263.523 196.809 263.523 199.289V200.988L257.703 201.32C253.016 201.594 250.34 203.781 250.34 207.258C250.34 210.91 253.055 213.352 257.098 213.352ZM257.859 210.461C255.418 210.461 253.797 209.191 253.797 207.258C253.797 205.344 255.359 204.133 258.094 203.957L263.523 203.625V205.285C263.523 208.215 261.062 210.461 257.859 210.461ZM272.332 187.785V192.688H269.305V195.48H272.332V207.727C272.332 211.633 273.777 213.156 277.508 213.156C278.309 213.156 279.246 213.098 279.656 213V210.148C279.422 210.188 278.641 210.246 278.25 210.246C276.512 210.246 275.73 209.406 275.73 207.551V195.48H279.676V192.688H275.73V187.785H272.332ZM296.199 207.18C295.633 209.094 293.738 210.402 291.16 210.402C287.508 210.402 285.223 207.844 285.223 203.957V203.762H299.793V202.473C299.793 196.32 296.414 192.336 290.926 192.336C285.32 192.336 281.727 196.613 281.727 202.922C281.727 209.309 285.262 213.352 291.082 213.352C295.516 213.352 298.953 210.734 299.539 207.18H296.199ZM290.867 195.285C294.07 195.285 296.199 197.707 296.277 201.105H285.242C285.457 197.727 287.684 195.285 290.867 195.285Z" fill="black"/>
    <rect x="354" y="167" width="120" height="64" rx="12" fill="#FEFE88"/>
    <path d="M376.734 184.816V213H386.207C394.586 213 399.508 207.785 399.508 198.898C399.508 190.031 394.566 184.816 386.207 184.816H376.734ZM380.25 187.98H385.973C392.379 187.98 395.914 191.887 395.914 198.938C395.914 205.93 392.359 209.836 385.973 209.836H380.25V187.98ZM409.293 213.352C412.027 213.352 414.605 211.828 415.816 209.504H415.895V213H419.117V198.957C419.117 194.914 416.109 192.336 411.344 192.336C406.539 192.336 403.531 195.031 403.297 198.547H406.578C407.008 196.555 408.648 195.324 411.266 195.324C414.078 195.324 415.719 196.809 415.719 199.289V200.988L409.898 201.32C405.211 201.594 402.535 203.781 402.535 207.258C402.535 210.91 405.25 213.352 409.293 213.352ZM410.055 210.461C407.613 210.461 405.992 209.191 405.992 207.258C405.992 205.344 407.555 204.133 410.289 203.957L415.719 203.625V205.285C415.719 208.215 413.258 210.461 410.055 210.461ZM424.527 187.785V192.688H421.5V195.48H424.527V207.727C424.527 211.633 425.973 213.156 429.703 213.156C430.504 213.156 431.441 213.098 431.852 213V210.148C431.617 210.188 430.836 210.246 430.445 210.246C428.707 210.246 427.926 209.406 427.926 207.551V195.48H431.871V192.688H427.926V187.785H424.527ZM448.395 207.18C447.828 209.094 445.934 210.402 443.355 210.402C439.703 210.402 437.418 207.844 437.418 203.957V203.762H451.988V202.473C451.988 196.32 448.609 192.336 443.121 192.336C437.516 192.336 433.922 196.613 433.922 202.922C433.922 209.309 437.457 213.352 443.277 213.352C447.711 213.352 451.148 210.734 451.734 207.18H448.395ZM443.062 195.285C446.266 195.285 448.395 197.707 448.473 201.105H437.438C437.652 197.727 439.879 195.285 443.062 195.285Z" fill="black"/>
    <rect x="127" y="241" width="183" height="64" rx="12" fill="#F0C2FB"/>
    <path d="M162.684 281.18C162.117 283.094 160.223 284.402 157.645 284.402C153.992 284.402 151.707 281.844 151.707 277.957V277.762H166.277V276.473C166.277 270.32 162.898 266.336 157.41 266.336C151.805 266.336 148.211 270.613 148.211 276.922C148.211 283.309 151.746 287.352 157.566 287.352C162 287.352 165.438 284.734 166.023 281.18H162.684ZM157.352 269.285C160.555 269.285 162.684 271.707 162.762 275.105H151.727C151.941 271.727 154.168 269.285 157.352 269.285ZM169.715 287H173.113V275.047C173.113 271.609 175.203 269.344 178.406 269.344C181.531 269.344 183.074 271.141 183.074 274.422V287H186.473V273.816C186.473 269.207 183.895 266.336 179.441 266.336C176.297 266.336 174.129 267.742 172.996 269.93H172.918V266.688H169.715V287ZM198.504 287.352C201.434 287.352 203.758 285.906 205.066 283.562H205.125V287H208.367V258.816H204.969V269.988H204.891C203.68 267.762 201.336 266.336 198.426 266.336C193.309 266.336 189.812 270.477 189.812 276.844C189.812 283.211 193.328 287.352 198.504 287.352ZM199.148 269.324C202.645 269.324 204.988 272.312 204.988 276.844C204.988 281.395 202.645 284.363 199.148 284.363C195.555 284.363 193.289 281.453 193.289 276.844C193.289 272.254 195.555 269.324 199.148 269.324ZM213.484 258.816V287H222.957C231.336 287 236.258 281.785 236.258 272.898C236.258 264.031 231.316 258.816 222.957 258.816H213.484ZM217 261.98H222.723C229.129 261.98 232.664 265.887 232.664 272.938C232.664 279.93 229.109 283.836 222.723 283.836H217V261.98ZM246.043 287.352C248.777 287.352 251.355 285.828 252.566 283.504H252.645V287H255.867V272.957C255.867 268.914 252.859 266.336 248.094 266.336C243.289 266.336 240.281 269.031 240.047 272.547H243.328C243.758 270.555 245.398 269.324 248.016 269.324C250.828 269.324 252.469 270.809 252.469 273.289V274.988L246.648 275.32C241.961 275.594 239.285 277.781 239.285 281.258C239.285 284.91 242 287.352 246.043 287.352ZM246.805 284.461C244.363 284.461 242.742 283.191 242.742 281.258C242.742 279.344 244.305 278.133 247.039 277.957L252.469 277.625V279.285C252.469 282.215 250.008 284.461 246.805 284.461ZM261.277 261.785V266.688H258.25V269.48H261.277V281.727C261.277 285.633 262.723 287.156 266.453 287.156C267.254 287.156 268.191 287.098 268.602 287V284.148C268.367 284.188 267.586 284.246 267.195 284.246C265.457 284.246 264.676 283.406 264.676 281.551V269.48H268.621V266.688H264.676V261.785H261.277ZM285.145 281.18C284.578 283.094 282.684 284.402 280.105 284.402C276.453 284.402 274.168 281.844 274.168 277.957V277.762H288.738V276.473C288.738 270.32 285.359 266.336 279.871 266.336C274.266 266.336 270.672 270.613 270.672 276.922C270.672 283.309 274.207 287.352 280.027 287.352C284.461 287.352 287.898 284.734 288.484 281.18H285.145ZM279.812 269.285C283.016 269.285 285.145 271.707 285.223 275.105H274.188C274.402 271.727 276.629 269.285 279.812 269.285Z" fill="black"/>
    <rect x="354" y="241" width="120" height="64" rx="12" fill="#FEFE88"/>
    <path d="M376.734 258.816V287H386.207C394.586 287 399.508 281.785 399.508 272.898C399.508 264.031 394.566 258.816 386.207 258.816H376.734ZM380.25 261.98H385.973C392.379 261.98 395.914 265.887 395.914 272.938C395.914 279.93 392.359 283.836 385.973 283.836H380.25V261.98ZM409.293 287.352C412.027 287.352 414.605 285.828 415.816 283.504H415.895V287H419.117V272.957C419.117 268.914 416.109 266.336 411.344 266.336C406.539 266.336 403.531 269.031 403.297 272.547H406.578C407.008 270.555 408.648 269.324 411.266 269.324C414.078 269.324 415.719 270.809 415.719 273.289V274.988L409.898 275.32C405.211 275.594 402.535 277.781 402.535 281.258C402.535 284.91 405.25 287.352 409.293 287.352ZM410.055 284.461C407.613 284.461 405.992 283.191 405.992 281.258C405.992 279.344 407.555 278.133 410.289 277.957L415.719 277.625V279.285C415.719 282.215 413.258 284.461 410.055 284.461ZM424.527 261.785V266.688H421.5V269.48H424.527V281.727C424.527 285.633 425.973 287.156 429.703 287.156C430.504 287.156 431.441 287.098 431.852 287V284.148C431.617 284.188 430.836 284.246 430.445 284.246C428.707 284.246 427.926 283.406 427.926 281.551V269.48H431.871V266.688H427.926V261.785H424.527ZM448.395 281.18C447.828 283.094 445.934 284.402 443.355 284.402C439.703 284.402 437.418 281.844 437.418 277.957V277.762H451.988V276.473C451.988 270.32 448.609 266.336 443.121 266.336C437.516 266.336 433.922 270.613 433.922 276.922C433.922 283.309 437.457 287.352 443.277 287.352C447.711 287.352 451.148 284.734 451.734 281.18H448.395ZM443.062 269.285C446.266 269.285 448.395 271.707 448.473 275.105H437.438C437.652 271.727 439.879 269.285 443.062 269.285Z" fill="black"/>
    <rect x="88" y="128" width="425" height="216" rx="39" stroke="#D3DBE6" stroke-width="2" stroke-dasharray="8 8"/>
    <path d="M147.879 76.8555C147.625 72.1094 144.031 68.6133 138.367 68.6133C132.098 68.6133 128.094 72.793 128.094 79.5117C128.094 86.3477 132.098 90.4492 138.406 90.4492C143.914 90.4492 147.605 87.2656 147.898 82.3242H142.586C142.234 84.6094 140.75 85.9766 138.465 85.9766C135.633 85.9766 133.875 83.6328 133.875 79.5117C133.875 75.4688 135.633 73.0859 138.445 73.0859C140.789 73.0859 142.254 74.6484 142.586 76.8555H147.879ZM150.789 90H156.492V61.8164H150.789V90ZM166.551 90.332C169.168 90.332 171.766 89.0234 172.938 86.7969H173.055V90H178.562V75.6055C178.562 71.3867 175.066 68.6133 169.695 68.6133C164.148 68.6133 160.691 71.4062 160.477 75.4688H165.691C165.965 73.9258 167.312 72.8711 169.441 72.8711C171.59 72.8711 172.957 74.0039 172.957 75.957V77.3438L167.684 77.6562C162.469 77.9688 159.539 80.1758 159.539 83.9844C159.539 87.7539 162.566 90.332 166.551 90.332ZM168.426 86.2109C166.492 86.2109 165.203 85.2344 165.203 83.6719C165.203 82.1875 166.414 81.2305 168.543 81.0742L172.957 80.8008V82.3242C172.957 84.5898 170.906 86.2109 168.426 86.2109ZM181.902 75.2148C181.902 78.3594 183.953 80.3906 187.996 81.25L191.57 81.9922C193.621 82.4609 194.344 83.0859 194.344 84.1992C194.344 85.5664 193.016 86.4453 190.867 86.4453C188.602 86.4453 187.293 85.4688 186.941 83.6328H181.375C181.746 87.7539 185.086 90.4492 190.867 90.4492C196.258 90.4492 200.027 87.7344 200.027 83.6133C200.027 80.5469 198.23 78.8281 193.855 77.9102L190.281 77.1484C188.172 76.6992 187.391 75.9766 187.391 74.9023C187.391 73.5156 188.699 72.6172 190.672 72.6172C192.781 72.6172 194.051 73.7695 194.227 75.4688H199.48C199.363 71.3672 196.043 68.6133 190.672 68.6133C185.34 68.6133 181.902 71.2305 181.902 75.2148ZM202.488 75.2148C202.488 78.3594 204.539 80.3906 208.582 81.25L212.156 81.9922C214.207 82.4609 214.93 83.0859 214.93 84.1992C214.93 85.5664 213.602 86.4453 211.453 86.4453C209.188 86.4453 207.879 85.4688 207.527 83.6328H201.961C202.332 87.7539 205.672 90.4492 211.453 90.4492C216.844 90.4492 220.613 87.7344 220.613 83.6133C220.613 80.5469 218.816 78.8281 214.441 77.9102L210.867 77.1484C208.758 76.6992 207.977 75.9766 207.977 74.9023C207.977 73.5156 209.285 72.6172 211.258 72.6172C213.367 72.6172 214.637 73.7695 214.812 75.4688H220.066C219.949 71.3672 216.629 68.6133 211.258 68.6133C205.926 68.6133 202.488 71.2305 202.488 75.2148ZM231.844 61.8164V90H237.742V81.1133H243.016C248.953 81.1133 253.074 77.2461 253.074 71.4648C253.074 65.6641 249.09 61.8164 243.309 61.8164H231.844ZM237.742 66.4844H241.746C245.125 66.4844 247.078 68.2812 247.078 71.4844C247.078 74.707 245.105 76.5039 241.727 76.5039H237.742V66.4844ZM269.246 83.5938C268.719 85.1953 267.117 86.2305 265.027 86.2305C262.117 86.2305 260.223 84.1797 260.223 81.1914V80.8398H274.656V79.1016C274.656 72.7344 270.809 68.6133 264.715 68.6133C258.523 68.6133 254.617 72.9492 254.617 79.6289C254.617 86.3281 258.484 90.4492 264.93 90.4492C270.105 90.4492 273.855 87.6953 274.48 83.5938H269.246ZM264.773 72.832C267.312 72.832 269.051 74.668 269.168 77.3438H260.281C260.477 74.7266 262.273 72.832 264.773 72.832ZM277.605 90H283.309V78.3008C283.309 75.3516 284.949 73.6328 287.762 73.6328C288.582 73.6328 289.363 73.7695 289.832 73.9648V68.9453C289.441 68.8281 288.875 68.7305 288.211 68.7305C285.75 68.7305 283.973 70.1758 283.23 72.832H283.113V69.0625H277.605V90ZM295.105 66.2305C296.766 66.2305 298.074 64.9023 298.074 63.3008C298.074 61.6797 296.766 60.3711 295.105 60.3711C293.445 60.3711 292.137 61.6797 292.137 63.3008C292.137 64.9023 293.445 66.2305 295.105 66.2305ZM292.273 90H297.977V69.0625H292.273V90ZM311.395 90.4492C317.723 90.4492 321.766 86.4062 321.766 79.5117C321.766 72.7148 317.664 68.6133 311.395 68.6133C305.125 68.6133 301.023 72.7344 301.023 79.5117C301.023 86.3867 305.066 90.4492 311.395 90.4492ZM311.395 86.0938C308.582 86.0938 306.805 83.7305 306.805 79.5312C306.805 75.3711 308.621 72.9688 311.395 72.9688C314.168 72.9688 315.965 75.3711 315.965 79.5312C315.965 83.7305 314.188 86.0938 311.395 86.0938ZM332.488 90.332C335.574 90.332 337.996 88.7109 339.012 86.4062H339.109V90H344.734V61.8164H339.031V72.6562H338.914C337.898 70.332 335.555 68.7305 332.527 68.7305C327.273 68.7305 323.953 72.8516 323.953 79.4922C323.953 86.1914 327.254 90.332 332.488 90.332ZM334.422 73.3008C337.254 73.3008 339.07 75.7227 339.07 79.5312C339.07 83.3594 337.254 85.7422 334.422 85.7422C331.551 85.7422 329.793 83.3789 329.793 79.5312C329.793 75.7031 331.551 73.3008 334.422 73.3008Z" fill="black"/>
    <path d="M132.344 394H135.156V383.734H147.531V394H150.344V371.453H147.531V381.203H135.156V371.453H132.344V394ZM159.359 394.312C161.531 394.312 163.484 393.141 164.438 391.359H164.5V394H167.219V382.766C167.219 379.516 164.812 377.438 160.969 377.438C157.141 377.438 154.812 379.594 154.578 382.266L154.562 382.438H157.188L157.219 382.297C157.531 380.844 158.844 379.844 160.938 379.844C163.203 379.844 164.5 381.047 164.5 383.031V384.391L159.844 384.656C156.109 384.875 153.953 386.609 153.953 389.375V389.406C153.953 392.359 156.125 394.312 159.359 394.312ZM156.734 389.406V389.375C156.734 387.859 157.984 386.891 160.156 386.766L164.5 386.5V387.828C164.5 390.188 162.531 391.953 159.969 391.953C158.016 391.953 156.734 390.969 156.734 389.406ZM176.391 394.312C180.188 394.312 182.734 392.281 182.734 389.266V389.234C182.734 387.359 181.578 386.062 179.484 385.609V385.484C181.141 385.109 182.281 383.656 182.281 381.922V381.891C182.281 379.141 180.109 377.438 176.562 377.438C173.188 377.438 170.828 379.125 170.453 381.75L170.438 381.859H173.078L173.094 381.781C173.344 380.516 174.703 379.688 176.562 379.688C178.484 379.688 179.625 380.594 179.625 382.109V382.141C179.625 383.75 178.547 384.562 176.391 384.562H173.953V386.812H176.391C178.875 386.812 180.062 387.625 180.062 389.359V389.391C180.062 391.031 178.641 392.062 176.391 392.062C174.453 392.062 173.156 391.297 172.766 389.938L172.719 389.781H169.969L169.984 389.906C170.312 392.562 172.859 394.312 176.391 394.312ZM185.844 394H192.844C196.297 394 198.422 392.203 198.422 389.344V389.312C198.422 387.328 197.078 385.891 195.031 385.609V385.484C196.531 385.172 197.703 383.641 197.703 381.969V381.938C197.703 379.359 195.844 377.75 192.797 377.75H185.844V394ZM188.562 384.547V380H192.391C194.094 380 195 380.766 195 382.219V382.25C195 383.812 194.031 384.547 191.984 384.547H188.562ZM188.562 391.75V386.797H192.125C194.5 386.797 195.641 387.578 195.641 389.25V389.281C195.641 390.906 194.578 391.75 192.609 391.75H188.562ZM206.297 394.312C208.469 394.312 210.422 393.141 211.375 391.359H211.438V394H214.156V382.766C214.156 379.516 211.75 377.438 207.906 377.438C204.078 377.438 201.75 379.594 201.516 382.266L201.5 382.438H204.125L204.156 382.297C204.469 380.844 205.781 379.844 207.875 379.844C210.141 379.844 211.438 381.047 211.438 383.031V384.391L206.781 384.656C203.047 384.875 200.891 386.609 200.891 389.375V389.406C200.891 392.359 203.062 394.312 206.297 394.312ZM203.672 389.406V389.375C203.672 387.859 204.922 386.891 207.094 386.766L211.438 386.5V387.828C211.438 390.188 209.469 391.953 206.906 391.953C204.953 391.953 203.672 390.969 203.672 389.406ZM228.578 394H231.297V377.75H228.578V384.453H220.625V377.75H217.906V394H220.625V386.703H228.578V394ZM235.125 394H237.812L245.906 381.922H246.031V394H248.75V377.75H246.062L237.969 389.828H237.844V377.75H235.125V394ZM259.266 394.312C262.812 394.312 265.469 392.188 266 389.5L266.031 389.344H263.359L263.312 389.484C262.844 390.875 261.391 391.906 259.328 391.906C256.438 391.906 254.594 389.953 254.531 386.609H266.234V385.609C266.234 380.734 263.531 377.438 259.094 377.438C254.656 377.438 251.781 380.891 251.781 385.922V385.938C251.781 391.047 254.594 394.312 259.266 394.312ZM259.078 379.844C261.453 379.844 263.203 381.328 263.469 384.484H254.578C254.875 381.453 256.719 379.844 259.078 379.844ZM138.656 426.312C142.328 426.312 145 423.922 145.438 420.828L145.453 420.719H142.781L142.75 420.844C142.297 422.656 140.875 423.906 138.656 423.906C135.844 423.906 133.906 421.672 133.906 417.891V417.875C133.906 414.188 135.797 411.844 138.625 411.844C141.016 411.844 142.328 413.281 142.734 414.906L142.766 415.031H145.422L145.406 414.906C145.062 412.125 142.672 409.438 138.625 409.438C134.109 409.438 131.125 412.719 131.125 417.844V417.859C131.125 423.031 134.047 426.312 138.656 426.312ZM155 426.312C159.484 426.312 162.516 423.062 162.516 417.875V417.844C162.516 412.656 159.469 409.438 154.984 409.438C150.5 409.438 147.469 412.672 147.469 417.844V417.875C147.469 423.047 150.484 426.312 155 426.312ZM155.016 423.906C152.141 423.906 150.25 421.703 150.25 417.875V417.844C150.25 414.047 152.156 411.844 154.984 411.844C157.859 411.844 159.734 414.031 159.734 417.844V417.875C159.734 421.688 157.875 423.906 155.016 423.906ZM172.281 426.312C175.953 426.312 178.625 423.922 179.062 420.828L179.078 420.719H176.406L176.375 420.844C175.922 422.656 174.5 423.906 172.281 423.906C169.469 423.906 167.531 421.672 167.531 417.891V417.875C167.531 414.188 169.422 411.844 172.25 411.844C174.641 411.844 175.953 413.281 176.359 414.906L176.391 415.031H179.047L179.031 414.906C178.688 412.125 176.297 409.438 172.25 409.438C167.734 409.438 164.75 412.719 164.75 417.844V417.859C164.75 423.031 167.672 426.312 172.281 426.312ZM193.453 409.75H180.266V412H185.5V426H188.219V412H193.453V409.75ZM202.406 426.312C206.891 426.312 209.922 423.062 209.922 417.875V417.844C209.922 412.656 206.875 409.438 202.391 409.438C197.906 409.438 194.875 412.672 194.875 417.844V417.875C194.875 423.047 197.891 426.312 202.406 426.312ZM202.422 423.906C199.547 423.906 197.656 421.703 197.656 417.875V417.844C197.656 414.047 199.562 411.844 202.391 411.844C205.266 411.844 207.141 414.031 207.141 417.844V417.875C207.141 421.688 205.281 423.906 202.422 423.906ZM212.938 426H219.938C223.391 426 225.516 424.203 225.516 421.344V421.312C225.516 419.328 224.172 417.891 222.125 417.609V417.484C223.625 417.172 224.797 415.641 224.797 413.969V413.938C224.797 411.359 222.938 409.75 219.891 409.75H212.938V426ZM215.656 416.547V412H219.484C221.188 412 222.094 412.766 222.094 414.219V414.25C222.094 415.812 221.125 416.547 219.078 416.547H215.656ZM215.656 423.75V418.797H219.219C221.594 418.797 222.734 419.578 222.734 421.25V421.281C222.734 422.906 221.672 423.75 219.703 423.75H215.656ZM232.828 418.844L233.344 412H239.594V426H242.312V409.75H230.891L230.25 418.781C230.031 421.766 229.438 423.656 227.703 423.656C227.281 423.656 226.984 423.594 226.844 423.547V426C227.062 426.078 227.469 426.156 227.984 426.156C231.438 426.156 232.484 423.328 232.828 418.844ZM255.312 426H258.031V409.75H251.984C248.25 409.75 245.844 411.797 245.844 415.125V415.156C245.844 417.375 247.234 419.062 249.531 419.719L245 426H248.141L252.266 420.219H255.312V426ZM252 417.969C249.906 417.969 248.625 416.781 248.625 415.109V415.078C248.625 413.141 249.891 412 252 412H255.312V417.969H252ZM261.844 426H264.562V418.703H267.297C267.609 423.438 270.344 426.312 274.656 426.312C279.219 426.312 282.031 423.109 282.031 417.891V417.859C282.031 412.625 279.219 409.438 274.656 409.438C270.531 409.438 267.844 412.062 267.359 416.453H264.562V409.75H261.844V426ZM274.656 423.906C271.719 423.906 270.062 421.703 270.062 417.891V417.859C270.062 414.031 271.719 411.844 274.656 411.844C277.594 411.844 279.25 414.031 279.25 417.859V417.891C279.25 421.703 277.594 423.906 274.656 423.906ZM285.062 426H305.188V430.453H307.656V423.75H305.125V409.75H302.406V423.75H296.453V409.75H293.734V423.75H287.781V409.75H285.062V426ZM316.797 426.312C320.344 426.312 323 424.188 323.531 421.5L323.562 421.344H320.891L320.844 421.484C320.375 422.875 318.922 423.906 316.859 423.906C313.969 423.906 312.125 421.953 312.062 418.609H323.766V417.609C323.766 412.734 321.062 409.438 316.625 409.438C312.188 409.438 309.312 412.891 309.312 417.922V417.938C309.312 423.047 312.125 426.312 316.797 426.312ZM316.609 411.844C318.984 411.844 320.734 413.328 321 416.484H312.109C312.406 413.453 314.25 411.844 316.609 411.844ZM333.812 407.906C336.828 407.906 338.594 405.953 338.594 403.484V403.438H336.359V403.516C336.359 404.906 335.453 406.094 333.828 406.094C332.141 406.094 331.297 404.906 331.297 403.516V403.438H329.062V403.484C329.062 405.953 330.828 407.906 333.812 407.906ZM326.812 426H329.5L337.594 413.922H337.719V426H340.438V409.75H337.75L329.656 421.828H329.531V409.75H326.812V426Z" fill="black"/>
    <path d="M392.781 410V399.609H393.719L403.266 410H407.047L396.062 398.219L406 387.453H402.469L393.719 397.359H392.781V387.453H389.969V410H392.781ZM413.516 402.844L414.031 396H420.281V410H423V393.75H411.578L410.938 402.781C410.719 405.766 410.125 407.656 408.391 407.656C407.969 407.656 407.672 407.594 407.531 407.547V410C407.75 410.078 408.156 410.156 408.672 410.156C412.125 410.156 413.172 407.328 413.516 402.844ZM431.609 410.312C433.781 410.312 435.734 409.141 436.688 407.359H436.75V410H439.469V398.766C439.469 395.516 437.062 393.438 433.219 393.438C429.391 393.438 427.062 395.594 426.828 398.266L426.812 398.438H429.438L429.469 398.297C429.781 396.844 431.094 395.844 433.188 395.844C435.453 395.844 436.75 397.047 436.75 399.031V400.391L432.094 400.656C428.359 400.875 426.203 402.609 426.203 405.375V405.406C426.203 408.359 428.375 410.312 431.609 410.312ZM428.984 405.406V405.375C428.984 403.859 430.234 402.891 432.406 402.766L436.75 402.5V403.828C436.75 406.188 434.781 407.953 432.219 407.953C430.266 407.953 428.984 406.969 428.984 405.406ZM449.969 410.312C453.641 410.312 456.312 407.922 456.75 404.828L456.766 404.719H454.094L454.062 404.844C453.609 406.656 452.188 407.906 449.969 407.906C447.156 407.906 445.219 405.672 445.219 401.891V401.875C445.219 398.188 447.109 395.844 449.938 395.844C452.328 395.844 453.641 397.281 454.047 398.906L454.078 399.031H456.734L456.719 398.906C456.375 396.125 453.984 393.438 449.938 393.438C445.422 393.438 442.438 396.719 442.438 401.844V401.859C442.438 407.031 445.359 410.312 449.969 410.312ZM466.312 410.312C469.984 410.312 472.656 407.922 473.094 404.828L473.109 404.719H470.438L470.406 404.844C469.953 406.656 468.531 407.906 466.312 407.906C463.5 407.906 461.562 405.672 461.562 401.891V401.875C461.562 398.188 463.453 395.844 466.281 395.844C468.672 395.844 469.984 397.281 470.391 398.906L470.422 399.031H473.078L473.062 398.906C472.719 396.125 470.328 393.438 466.281 393.438C461.766 393.438 458.781 396.719 458.781 401.844V401.859C458.781 407.031 461.703 410.312 466.312 410.312Z" fill="black"/>
    <path d="M110.5 202H75.5C58.9315 202 45.5 215.431 45.5 232V369C45.5 385.569 58.9315 399 75.5 399H110.5" stroke="black" stroke-width="4" stroke-linecap="round" stroke-dasharray="0.01 8"/>
    <path d="M492 202H527C543.569 202 557 215.431 557 232V369C557 385.569 543.569 399 527 399H492" stroke="black" stroke-width="4" stroke-linecap="round" stroke-dasharray="0.01 8"/>
    <path d="M110.171 275H75C58.4315 275 45 288.431 45 305V369C45 385.569 58.4315 399 75 399H110.171" stroke="black" stroke-width="4" stroke-linecap="round" stroke-dasharray="0.01 8"/>
    <path d="M492.329 275H527.5C544.069 275 557.5 288.431 557.5 305V369C557.5 385.569 544.069 399 527.5 399H492.329" stroke="black" stroke-width="4" stroke-linecap="round" stroke-dasharray="0.01 8"/>
</svg>
