<svg width="420" height="240" viewBox="0 0 420 240" fill="none" xmlns="http://www.w3.org/2000/svg">
    <rect width="420" height="240" rx="16" fill="#F4F7FA"/>
    <rect x="30" y="30" width="81" height="36" rx="6" fill="#F0C2FB"/>
    <path d="M47.6484 57.2344C50.3672 57.2344 52.3828 55.7344 52.3828 53.6016V53.5898C52.3828 51.8555 51.4922 50.8828 49.0312 50.2852L47.0977 49.8164C45.75 49.4883 45.1992 48.9141 45.1992 48.082V48.0703C45.1992 46.9922 46.1133 46.2773 47.5898 46.2773C49.1016 46.2773 50.0039 47.0625 50.168 48.2461L50.1797 48.3281H52.125L52.1133 48.1758C51.9609 46.1367 50.2617 44.5781 47.5898 44.5781C44.9531 44.5781 43.1133 46.0664 43.1133 48.1641V48.1758C43.1133 49.9336 44.2266 51 46.5234 51.5508L48.457 52.0195C49.8398 52.3594 50.2969 52.8516 50.2969 53.7305V53.7422C50.2969 54.8438 49.3125 55.5352 47.6602 55.5352C45.9961 55.5352 45.0938 54.8203 44.8477 53.6016L44.8242 53.4844H42.7852L42.7969 53.5898C43.043 55.7695 44.7773 57.2344 47.6484 57.2344ZM58.4648 57.2344C58.8633 57.2344 59.2969 57.1875 59.5547 57.1523V55.5C59.3789 55.5117 59.1445 55.5469 58.8984 55.5469C57.8086 55.5469 57.2344 55.1836 57.2344 53.8828V46.5H59.5547V44.8125H57.2344V41.5195H55.125V44.8125H53.3438V46.5H55.125V53.8945C55.125 56.2266 56.2266 57.2344 58.4648 57.2344ZM61.7461 57H63.7852V49.3828C63.7852 47.6602 64.8164 46.5234 66.3984 46.5234C66.8906 46.5234 67.3242 46.582 67.4883 46.6406V44.6602C67.3242 44.6367 67.0195 44.5781 66.668 44.5781C65.2383 44.5781 64.1133 45.4336 63.7148 46.7812H63.668V44.8125H61.7461V57ZM70.3008 42.75C71.0156 42.75 71.5781 42.1758 71.5781 41.4727C71.5781 40.7578 71.0156 40.1953 70.3008 40.1953C69.5977 40.1953 69.0234 40.7578 69.0234 41.4727C69.0234 42.1758 69.5977 42.75 70.3008 42.75ZM69.2812 57H71.3203V44.8125H69.2812V57ZM74.0977 57H76.1367V49.8281C76.1367 47.7539 77.3906 46.3828 79.3125 46.3828C81.1875 46.3828 82.1133 47.4727 82.1133 49.4531V57H84.1523V49.0898C84.1523 46.3125 82.6055 44.5781 79.9336 44.5781C78.082 44.5781 76.8398 45.4102 76.1836 46.5469H76.1367V44.8125H74.0977V57ZM91.9102 61.3359C95.2148 61.3359 97.2891 59.4844 97.2891 56.6602V44.8125H95.25V46.875H95.2031C94.4531 45.5156 93.0938 44.5781 91.3711 44.5781C88.2773 44.5781 86.1562 47.0391 86.1562 50.8242V50.8359C86.1562 54.6445 88.2539 57.1172 91.3242 57.1172C93.0703 57.1172 94.4766 56.25 95.2031 54.9023H95.25V56.4609C95.25 58.3477 94.0312 59.5312 91.8867 59.5312C90.2227 59.5312 89.0625 58.9922 88.6758 58.1133L88.6289 58.0078H86.5781L86.6016 58.1133C87 59.918 88.8984 61.3359 91.9102 61.3359ZM91.7695 55.3125C89.6016 55.3125 88.2422 53.6016 88.2422 50.8359V50.8242C88.2422 48.1172 89.6016 46.3828 91.7695 46.3828C93.832 46.3828 95.25 48.1406 95.25 50.8242V50.8359C95.25 53.543 93.8438 55.3125 91.7695 55.3125Z" fill="black"/>
    <rect x="30" y="78" width="49" height="36" rx="6" fill="#FBE582"/>
    <path d="M44.4727 90.75C45.1875 90.75 45.75 90.1758 45.75 89.4727C45.75 88.7578 45.1875 88.1953 44.4727 88.1953C43.7695 88.1953 43.1953 88.7578 43.1953 89.4727C43.1953 90.1758 43.7695 90.75 44.4727 90.75ZM43.4531 105H45.4922V92.8125H43.4531V105ZM48.2695 105H50.3086V97.8281C50.3086 95.7539 51.5625 94.3828 53.4844 94.3828C55.3594 94.3828 56.2852 95.4727 56.2852 97.4531V105H58.3242V97.0898C58.3242 94.3125 56.7773 92.5781 54.1055 92.5781C52.2539 92.5781 51.0117 93.4102 50.3555 94.5469H50.3086V92.8125H48.2695V105ZM64.8867 105.234C65.2852 105.234 65.7188 105.188 65.9766 105.152V103.5C65.8008 103.512 65.5664 103.547 65.3203 103.547C64.2305 103.547 63.6562 103.184 63.6562 101.883V94.5H65.9766V92.8125H63.6562V89.5195H61.5469V92.8125H59.7656V94.5H61.5469V101.895C61.5469 104.227 62.6484 105.234 64.8867 105.234Z" fill="black"/>
    <rect x="30" y="126" width="69" height="36" rx="6" fill="#99FCE6"/>
    <path d="M43.9805 153H46.0195V142.5H48.5039V140.812H45.9961V139.324C45.9961 138.117 46.5586 137.543 47.6836 137.543C48 137.543 48.3164 137.555 48.5625 137.59V135.938C48.2578 135.891 47.7773 135.855 47.3203 135.855C45.0703 135.855 43.9805 136.969 43.9805 139.312V140.812H42.2812V142.5H43.9805V153ZM50.7188 153H52.7578V136.09H50.7188V153ZM60.5625 153.234C63.9258 153.234 66.1992 150.797 66.1992 146.906V146.883C66.1992 142.992 63.9141 140.578 60.5508 140.578C57.1875 140.578 54.9141 143.004 54.9141 146.883V146.906C54.9141 150.785 57.1758 153.234 60.5625 153.234ZM60.5742 151.43C58.418 151.43 57 149.777 57 146.906V146.883C57 144.035 58.4297 142.383 60.5508 142.383C62.707 142.383 64.1133 144.023 64.1133 146.883V146.906C64.1133 149.766 62.7188 151.43 60.5742 151.43ZM71.8242 153.234C73.4531 153.234 74.918 152.355 75.6328 151.02H75.6797V153H77.7188V144.574C77.7188 142.137 75.9141 140.578 73.0312 140.578C70.1602 140.578 68.4141 142.195 68.2383 144.199L68.2266 144.328H70.1953L70.2188 144.223C70.4531 143.133 71.4375 142.383 73.0078 142.383C74.707 142.383 75.6797 143.285 75.6797 144.773V145.793L72.1875 145.992C69.3867 146.156 67.7695 147.457 67.7695 149.531V149.555C67.7695 151.77 69.3984 153.234 71.8242 153.234ZM69.8555 149.555V149.531C69.8555 148.395 70.793 147.668 72.4219 147.574L75.6797 147.375V148.371C75.6797 150.141 74.2031 151.465 72.2812 151.465C70.8164 151.465 69.8555 150.727 69.8555 149.555ZM84.2695 153.234C84.668 153.234 85.1016 153.188 85.3594 153.152V151.5C85.1836 151.512 84.9492 151.547 84.7031 151.547C83.6133 151.547 83.0391 151.184 83.0391 149.883V142.5H85.3594V140.812H83.0391V137.52H80.9297V140.812H79.1484V142.5H80.9297V149.895C80.9297 152.227 82.0312 153.234 84.2695 153.234Z" fill="black"/>
    <rect x="30" y="174" width="68" height="36" rx="6" fill="#AFDAFF"/>
    <path d="M49.3828 201.234C52.5 201.234 54.5625 198.75 54.5625 194.906V194.895C54.5625 191.051 52.4766 188.578 49.418 188.578C47.6953 188.578 46.2773 189.445 45.5156 190.852H45.4688V184.09H43.4297V201H45.4688V198.938H45.5156C46.2773 200.355 47.6367 201.234 49.3828 201.234ZM48.9844 199.43C46.9219 199.43 45.457 197.637 45.457 194.906V194.895C45.457 192.176 46.9336 190.383 48.9844 190.383C51.1406 190.383 52.4766 192.117 52.4766 194.895V194.906C52.4766 197.707 51.1406 199.43 48.9844 199.43ZM61.6641 201.234C65.0273 201.234 67.3008 198.797 67.3008 194.906V194.883C67.3008 190.992 65.0156 188.578 61.6523 188.578C58.2891 188.578 56.0156 191.004 56.0156 194.883V194.906C56.0156 198.785 58.2773 201.234 61.6641 201.234ZM61.6758 199.43C59.5195 199.43 58.1016 197.777 58.1016 194.906V194.883C58.1016 192.035 59.5312 190.383 61.6523 190.383C63.8086 190.383 65.2148 192.023 65.2148 194.883V194.906C65.2148 197.766 63.8203 199.43 61.6758 199.43ZM74.4141 201.234C77.7773 201.234 80.0508 198.797 80.0508 194.906V194.883C80.0508 190.992 77.7656 188.578 74.4023 188.578C71.0391 188.578 68.7656 191.004 68.7656 194.883V194.906C68.7656 198.785 71.0273 201.234 74.4141 201.234ZM74.4258 199.43C72.2695 199.43 70.8516 197.777 70.8516 194.906V194.883C70.8516 192.035 72.2812 190.383 74.4023 190.383C76.5586 190.383 77.9648 192.023 77.9648 194.883V194.906C77.9648 197.766 76.5703 199.43 74.4258 199.43ZM82.2188 201H84.2578V184.09H82.2188V201Z" fill="black"/>
    <path d="M131.668 51.0938H150.289V49.1953H131.668V51.0938ZM166.215 44.8125H156.324V46.5H160.25V57H162.289V46.5H166.215V44.8125ZM172.895 57.2344C175.555 57.2344 177.547 55.6406 177.945 53.625L177.969 53.5078H175.965L175.93 53.6133C175.578 54.6562 174.488 55.4297 172.941 55.4297C170.773 55.4297 169.391 53.9648 169.344 51.457H178.121V50.707C178.121 47.0508 176.094 44.5781 172.766 44.5781C169.438 44.5781 167.281 47.168 167.281 50.9414V50.9531C167.281 54.7852 169.391 57.2344 172.895 57.2344ZM172.754 46.3828C174.535 46.3828 175.848 47.4961 176.047 49.8633H169.379C169.602 47.5898 170.984 46.3828 172.754 46.3828ZM182.914 51.375L187.777 57H190.355L184.754 50.5781L190.191 44.8125H187.719L182.914 49.9688H182.445V44.8125H180.406V57H182.445V51.375H182.914ZM196.883 57.2344C199.637 57.2344 201.641 55.4414 201.969 53.1211L201.98 53.0391H199.977L199.953 53.1328C199.613 54.4922 198.547 55.4297 196.883 55.4297C194.773 55.4297 193.32 53.7539 193.32 50.918V50.9062C193.32 48.1406 194.738 46.3828 196.859 46.3828C198.652 46.3828 199.637 47.4609 199.941 48.6797L199.965 48.7734H201.957L201.945 48.6797C201.688 46.5938 199.895 44.5781 196.859 44.5781C193.473 44.5781 191.234 47.0391 191.234 50.8828V50.8945C191.234 54.7734 193.426 57.2344 196.883 57.2344ZM212.762 44.8125H202.871V46.5H206.797V57H208.836V46.5H212.762V44.8125Z" fill="black"/>
    <path d="M131.668 99.0938H150.289V97.1953H131.668V99.0938ZM167.27 108.34H169.121V103.312H167.234V92.8125H165.195V103.312H159.348V92.8125H157.297V105H167.27V108.34ZM175.965 105.234C178.625 105.234 180.617 103.641 181.016 101.625L181.039 101.508H179.035L179 101.613C178.648 102.656 177.559 103.43 176.012 103.43C173.844 103.43 172.461 101.965 172.414 99.457H181.191V98.707C181.191 95.0508 179.164 92.5781 175.836 92.5781C172.508 92.5781 170.352 95.168 170.352 98.9414V98.9531C170.352 102.785 172.461 105.234 175.965 105.234ZM175.824 94.3828C177.605 94.3828 178.918 95.4961 179.117 97.8633H172.449C172.672 95.5898 174.055 94.3828 175.824 94.3828ZM186.395 99.6328L186.781 94.5H191.469V105H193.508V92.8125H184.941L184.461 99.5859C184.297 101.824 183.852 103.242 182.551 103.242C182.234 103.242 182.012 103.195 181.906 103.16V105C182.07 105.059 182.375 105.117 182.762 105.117C185.352 105.117 186.137 102.996 186.395 99.6328ZM201.453 105.234C204.816 105.234 207.09 102.797 207.09 98.9062V98.8828C207.09 94.9922 204.805 92.5781 201.441 92.5781C198.078 92.5781 195.805 95.0039 195.805 98.8828V98.9062C195.805 102.785 198.066 105.234 201.453 105.234ZM201.465 103.43C199.309 103.43 197.891 101.777 197.891 98.9062V98.8828C197.891 96.0352 199.32 94.3828 201.441 94.3828C203.598 94.3828 205.004 96.0234 205.004 98.8828V98.9062C205.004 101.766 203.609 103.43 201.465 103.43ZM214.379 105.234C217.039 105.234 219.031 103.641 219.43 101.625L219.453 101.508H217.449L217.414 101.613C217.062 102.656 215.973 103.43 214.426 103.43C212.258 103.43 210.875 101.965 210.828 99.457H219.605V98.707C219.605 95.0508 217.578 92.5781 214.25 92.5781C210.922 92.5781 208.766 95.168 208.766 98.9414V98.9531C208.766 102.785 210.875 105.234 214.379 105.234ZM214.238 94.3828C216.02 94.3828 217.332 95.4961 217.531 97.8633H210.863C211.086 95.5898 212.469 94.3828 214.238 94.3828ZM236.105 105V92.8125H234.066V97.9453C233.504 98.5078 232.414 98.8828 231.336 98.8828C229.473 98.8828 228.547 98.0273 228.547 96.293V92.8125H226.508V96.4336C226.508 99.0234 228.02 100.688 230.949 100.688C232.109 100.688 233.258 100.348 234.02 99.668H234.066V105H236.105ZM238.977 105H240.992L247.062 95.9414H247.156V105H249.195V92.8125H247.18L241.109 101.871H241.016V92.8125H238.977V105ZM257.117 105.234C259.871 105.234 261.875 103.441 262.203 101.121L262.215 101.039H260.211L260.188 101.133C259.848 102.492 258.781 103.43 257.117 103.43C255.008 103.43 253.555 101.754 253.555 98.918V98.9062C253.555 96.1406 254.973 94.3828 257.094 94.3828C258.887 94.3828 259.871 95.4609 260.176 96.6797L260.199 96.7734H262.191L262.18 96.6797C261.922 94.5938 260.129 92.5781 257.094 92.5781C253.707 92.5781 251.469 95.0391 251.469 98.8828V98.8945C251.469 102.773 253.66 105.234 257.117 105.234ZM267.582 99.6328L267.969 94.5H272.656V105H274.695V92.8125H266.129L265.648 99.5859C265.484 101.824 265.039 103.242 263.738 103.242C263.422 103.242 263.199 103.195 263.094 103.16V105C263.258 105.059 263.562 105.117 263.949 105.117C266.539 105.117 267.324 102.996 267.582 99.6328ZM282.641 105.234C286.004 105.234 288.277 102.797 288.277 98.9062V98.8828C288.277 94.9922 285.992 92.5781 282.629 92.5781C279.266 92.5781 276.992 95.0039 276.992 98.8828V98.9062C276.992 102.785 279.254 105.234 282.641 105.234ZM282.652 103.43C280.496 103.43 279.078 101.777 279.078 98.9062V98.8828C279.078 96.0352 280.508 94.3828 282.629 94.3828C284.785 94.3828 286.191 96.0234 286.191 98.8828V98.9062C286.191 101.766 284.797 103.43 282.652 103.43Z" fill="black"/>
    <path d="M131.668 147.094H150.289V145.195H131.668V147.094ZM166.59 153V140.812H164.551V145.945C163.988 146.508 162.898 146.883 161.82 146.883C159.957 146.883 159.031 146.027 159.031 144.293V140.812H156.992V144.434C156.992 147.023 158.504 148.688 161.434 148.688C162.594 148.688 163.742 148.348 164.504 147.668H164.551V153H166.59ZM169.461 153H171.477L177.547 143.941H177.641V153H179.68V140.812H177.664L171.594 149.871H171.5V140.812H169.461V153ZM187.602 153.234C190.355 153.234 192.359 151.441 192.688 149.121L192.699 149.039H190.695L190.672 149.133C190.332 150.492 189.266 151.43 187.602 151.43C185.492 151.43 184.039 149.754 184.039 146.918V146.906C184.039 144.141 185.457 142.383 187.578 142.383C189.371 142.383 190.355 143.461 190.66 144.68L190.684 144.773H192.676L192.664 144.68C192.406 142.594 190.613 140.578 187.578 140.578C184.191 140.578 181.953 143.039 181.953 146.883V146.895C181.953 150.773 184.145 153.234 187.602 153.234ZM198.066 147.633L198.453 142.5H203.141V153H205.18V140.812H196.613L196.133 147.586C195.969 149.824 195.523 151.242 194.223 151.242C193.906 151.242 193.684 151.195 193.578 151.16V153C193.742 153.059 194.047 153.117 194.434 153.117C197.023 153.117 197.809 150.996 198.066 147.633ZM213.125 153.234C216.488 153.234 218.762 150.797 218.762 146.906V146.883C218.762 142.992 216.477 140.578 213.113 140.578C209.75 140.578 207.477 143.004 207.477 146.883V146.906C207.477 150.785 209.738 153.234 213.125 153.234ZM213.137 151.43C210.98 151.43 209.562 149.777 209.562 146.906V146.883C209.562 144.035 210.992 142.383 213.113 142.383C215.27 142.383 216.676 144.023 216.676 146.883V146.906C216.676 149.766 215.281 151.43 213.137 151.43ZM231.008 153.234C233.762 153.234 235.766 151.441 236.094 149.121L236.105 149.039H234.102L234.078 149.133C233.738 150.492 232.672 151.43 231.008 151.43C228.898 151.43 227.445 149.754 227.445 146.918V146.906C227.445 144.141 228.863 142.383 230.984 142.383C232.777 142.383 233.762 143.461 234.066 144.68L234.09 144.773H236.082L236.07 144.68C235.812 142.594 234.02 140.578 230.984 140.578C227.598 140.578 225.359 143.039 225.359 146.883V146.895C225.359 150.773 227.551 153.234 231.008 153.234ZM252.043 140.812H242.152V142.5H246.078V153H248.117V142.5H252.043V140.812ZM258.758 153.234C262.121 153.234 264.395 150.797 264.395 146.906V146.883C264.395 142.992 262.109 140.578 258.746 140.578C255.383 140.578 253.109 143.004 253.109 146.883V146.906C253.109 150.785 255.371 153.234 258.758 153.234ZM258.77 151.43C256.613 151.43 255.195 149.777 255.195 146.906V146.883C255.195 144.035 256.625 142.383 258.746 142.383C260.902 142.383 262.309 144.023 262.309 146.883V146.906C262.309 149.766 260.914 151.43 258.77 151.43ZM275.832 153V140.812H273.793V145.945C273.23 146.508 272.141 146.883 271.062 146.883C269.199 146.883 268.273 146.027 268.273 144.293V140.812H266.234V144.434C266.234 147.023 267.746 148.688 270.676 148.688C271.836 148.688 272.984 148.348 273.746 147.668H273.793V153H275.832ZM281.211 147.375L286.074 153H288.652L283.051 146.578L288.488 140.812H286.016L281.211 145.969H280.742V140.812H278.703V153H280.742V147.375H281.211ZM295.18 153.234C298.543 153.234 300.816 150.797 300.816 146.906V146.883C300.816 142.992 298.531 140.578 295.168 140.578C291.805 140.578 289.531 143.004 289.531 146.883V146.906C289.531 150.785 291.793 153.234 295.18 153.234ZM295.191 151.43C293.035 151.43 291.617 149.777 291.617 146.906V146.883C291.617 144.035 293.047 142.383 295.168 142.383C297.324 142.383 298.73 144.023 298.73 146.883V146.906C298.73 149.766 297.336 151.43 295.191 151.43ZM308.328 139.43C310.59 139.43 311.914 137.965 311.914 136.113V136.078H310.238V136.137C310.238 137.18 309.559 138.07 308.34 138.07C307.074 138.07 306.441 137.18 306.441 136.137V136.078H304.766V136.113C304.766 137.965 306.09 139.43 308.328 139.43ZM303.078 153H305.094L311.164 143.941H311.258V153H313.297V140.812H311.281L305.211 149.871H305.117V140.812H303.078V153Z" fill="black"/>
    <path d="M131.668 195.094H150.289V193.195H131.668V195.094ZM157.988 204.34V201H167.445V204.34H169.344V199.312H167.41V188.812H159.02L158.551 195.574C158.434 197.215 158 198.727 157.109 199.312H156.09V204.34H157.988ZM165.371 199.312H159.406V199.266C160.016 198.48 160.332 197.156 160.438 195.621L160.812 190.5H165.371V199.312ZM174.746 201.234C176.375 201.234 177.84 200.355 178.555 199.02H178.602V201H180.641V192.574C180.641 190.137 178.836 188.578 175.953 188.578C173.082 188.578 171.336 190.195 171.16 192.199L171.148 192.328H173.117L173.141 192.223C173.375 191.133 174.359 190.383 175.93 190.383C177.629 190.383 178.602 191.285 178.602 192.773V193.793L175.109 193.992C172.309 194.156 170.691 195.457 170.691 197.531V197.555C170.691 199.77 172.32 201.234 174.746 201.234ZM172.777 197.555V197.531C172.777 196.395 173.715 195.668 175.344 195.574L178.602 195.375V196.371C178.602 198.141 177.125 199.465 175.203 199.465C173.738 199.465 172.777 198.727 172.777 197.555ZM193.66 184.09H191.715L186.945 205.102H188.891L193.66 184.09ZM208.004 201H210.043V188.812H208.004V193.84H202.039V188.812H200V201H202.039V195.527H208.004V201ZM217.941 201.234C220.602 201.234 222.594 199.641 222.992 197.625L223.016 197.508H221.012L220.977 197.613C220.625 198.656 219.535 199.43 217.988 199.43C215.82 199.43 214.438 197.965 214.391 195.457H223.168V194.707C223.168 191.051 221.141 188.578 217.812 188.578C214.484 188.578 212.328 191.168 212.328 194.941V194.953C212.328 198.785 214.438 201.234 217.941 201.234ZM217.801 190.383C219.582 190.383 220.895 191.496 221.094 193.863H214.426C214.648 191.59 216.031 190.383 217.801 190.383ZM233.902 188.812H224.012V190.5H227.938V201H229.977V190.5H233.902V188.812Z" fill="black"/>
</svg>
