<svg width="599" height="267" viewBox="0 0 599 267" fill="none" xmlns="http://www.w3.org/2000/svg">
    <rect width="80" height="52" transform="translate(56 16)" fill="#FF315D"/>
    <path d="M73.008 45.952C73.008 46.624 72.384 46.96 71.592 46.96C70.512 46.96 68.88 46.312 68.232 45.616L66.888 47.416C67.392 48.184 69.408 49.264 71.4 49.264C74.04 49.264 75.768 47.944 75.768 45.808C75.768 41.992 69.936 42.976 69.936 41.176C69.936 40.696 70.44 40.24 71.28 40.24C72.432 40.24 73.56 40.768 74.208 41.272L75.24 39.304C74.568 38.68 73.224 37.936 71.136 37.936C68.904 37.936 67.176 39.112 67.176 41.224C67.176 45.16 73.008 44.2 73.008 45.952ZM77.9601 44.896C77.9601 47.656 78.8721 49.24 81.3201 49.24C82.7121 49.24 83.8641 48.712 84.5121 48.184L83.6721 46.048C83.2881 46.336 82.7601 46.672 82.0161 46.672C81.1041 46.672 80.7201 45.904 80.7201 44.728V40.792H84.2001V38.2H80.7201V35.2H77.9601V44.896ZM86.8485 49H89.6085V41.752C89.9205 41.128 90.4245 40.6 91.3845 40.6C91.9605 40.6 92.2485 40.696 92.7765 41.008L93.7605 38.416C93.4005 38.152 92.9685 38.008 92.0805 38.008C90.7845 38.008 90.1125 38.56 89.6085 39.256V38.2H86.8485V49ZM95.7409 49H98.5009V38.2H95.7409V49ZM95.4529 34.312C95.4529 35.416 96.2449 36.04 97.1809 36.04C97.9729 36.04 98.7649 35.416 98.7649 34.312C98.7649 33.328 97.9729 32.704 97.1809 32.704C96.2449 32.704 95.4529 33.328 95.4529 34.312ZM101.989 49H104.749V41.632C105.397 40.984 106.165 40.6 107.101 40.6C108.637 40.6 109.525 41.416 109.525 43.144V49H112.285V42.664C112.285 39.28 110.485 38.008 107.845 38.008C106.549 38.008 105.397 38.584 104.749 39.28V38.2H101.989V49ZM113.675 50.464C113.675 52.936 116.147 53.992 119.291 53.992C122.435 53.992 124.907 52.888 124.907 50.464C124.907 48.04 122.435 46.936 119.291 46.936H119.171C119.075 46.768 119.027 46.576 119.027 46.384C119.027 46.264 119.027 46.12 119.075 45.976H119.267C122.051 45.976 123.851 44.152 123.851 41.992C123.851 41.512 123.755 41.032 123.587 40.6L125.387 40.192L125.291 37.984L122.027 38.704C121.283 38.224 120.347 37.936 119.267 37.936C116.411 37.936 114.659 39.832 114.659 41.992C114.659 43.576 115.595 44.968 117.227 45.616C117.059 45.832 116.987 46.12 116.987 46.384C116.987 46.624 117.059 46.912 117.179 47.128C115.115 47.56 113.675 48.664 113.675 50.464ZM116.243 50.464C116.243 49.672 117.323 49.144 119.291 49.144C121.283 49.144 122.315 49.672 122.315 50.464C122.315 51.328 121.163 51.784 119.291 51.784C117.419 51.784 116.243 51.304 116.243 50.464ZM117.251 41.992C117.251 41.008 118.019 40.168 119.267 40.168C120.563 40.168 121.283 40.984 121.283 41.992C121.283 43.072 120.443 43.744 119.267 43.744C118.019 43.744 117.251 43 117.251 41.992Z" fill="white"/>
    <rect width="49" height="52" transform="translate(56 76)" fill="#FFE000"/>
    <path d="M67.944 109H70.704V98.2H67.944V109ZM67.656 94.312C67.656 95.416 68.448 96.04 69.384 96.04C70.176 96.04 70.968 95.416 70.968 94.312C70.968 93.328 70.176 92.704 69.384 92.704C68.448 92.704 67.656 93.328 67.656 94.312ZM74.1923 109H76.9523V101.632C77.6003 100.984 78.3683 100.6 79.3043 100.6C80.8403 100.6 81.7283 101.416 81.7283 103.144V109H84.4883V102.664C84.4883 99.28 82.6883 98.008 80.0483 98.008C78.7523 98.008 77.6003 98.584 76.9523 99.28V98.2H74.1923V109ZM87.0538 104.896C87.0538 107.656 87.9658 109.24 90.4138 109.24C91.8058 109.24 92.9578 108.712 93.6058 108.184L92.7658 106.048C92.3818 106.336 91.8538 106.672 91.1098 106.672C90.1978 106.672 89.8138 105.904 89.8138 104.728V100.792H93.2938V98.2H89.8138V95.2H87.0538V104.896Z" fill="#10162F"/>
    <rect width="67" height="52" transform="translate(56 136)" fill="#1EC1A1"/>
    <path d="M74.016 166.024C74.016 168.232 74.928 169.24 76.584 169.24C77.88 169.24 78.816 168.832 79.44 168.328L78.864 166.216C78.528 166.456 78.168 166.648 77.712 166.648C77.088 166.648 76.776 166.12 76.776 164.896V152.656H74.328C73.608 152.2 72.6 151.936 71.496 151.936C69.096 151.936 67.656 153.448 67.656 156.448V169H70.416V160.792H72.36V158.2H70.416V156.664C70.416 155.176 71.064 154.528 72.312 154.528C72.96 154.528 73.608 154.816 74.016 155.104V166.024ZM80.5515 163.6C80.5515 166.84 82.8555 169.264 86.4315 169.264C90.0075 169.264 92.3115 166.84 92.3115 163.6C92.3115 160.36 90.0075 157.936 86.4315 157.936C82.8555 157.936 80.5515 160.36 80.5515 163.6ZM83.5035 163.6C83.5035 161.728 84.7995 160.528 86.4315 160.528C88.1115 160.528 89.3835 161.776 89.3835 163.6C89.3835 165.472 88.1355 166.696 86.4315 166.696C84.7515 166.696 83.5035 165.4 83.5035 163.6ZM95.5401 160.984C96.3321 160.624 97.1241 160.24 98.3721 160.24C99.9801 160.24 100.46 161.224 100.388 163.024C99.8601 162.64 98.9001 162.328 97.9401 162.328C95.7561 162.328 94.0041 163.456 94.0041 165.832C94.0041 167.92 95.4201 169.144 97.3881 169.144C98.8521 169.144 100.004 168.568 100.58 167.752V169H102.98V162.424C102.98 159.568 101.852 157.936 98.6601 157.936C97.2441 157.936 95.7801 158.416 94.8441 158.968L95.5401 160.984ZM98.3001 166.816C97.4361 166.816 96.7641 166.36 96.7641 165.544C96.7641 164.632 97.5801 164.2 98.4921 164.2C99.2841 164.2 99.9081 164.368 100.388 164.728V165.832C100.052 166.312 99.4521 166.816 98.3001 166.816ZM105.569 164.896C105.569 167.656 106.481 169.24 108.929 169.24C110.321 169.24 111.473 168.712 112.121 168.184L111.281 166.048C110.897 166.336 110.369 166.672 109.625 166.672C108.713 166.672 108.329 165.904 108.329 164.728V160.792H111.809V158.2H108.329V155.2H105.569V164.896Z" fill="white"/>
    <rect width="68" height="52" transform="translate(56 196)" fill="#7833FF"/>
    <path d="M67.536 228.064C68.52 228.688 70.344 229.264 72.12 229.264C75.912 229.264 78.288 226.984 78.288 223.432C78.288 220.24 76.368 217.936 73.152 217.936C72 217.936 70.968 218.344 70.296 218.872V212.2H67.536V228.064ZM72.504 220.528C74.064 220.528 75.336 221.56 75.336 223.624C75.336 225.568 73.992 226.696 72.264 226.696C71.496 226.696 70.896 226.528 70.296 226.144V221.56C70.752 221.032 71.544 220.528 72.504 220.528ZM80.0124 223.6C80.0124 226.84 82.3164 229.264 85.8924 229.264C89.4684 229.264 91.7724 226.84 91.7724 223.6C91.7724 220.36 89.4684 217.936 85.8924 217.936C82.3164 217.936 80.0124 220.36 80.0124 223.6ZM82.9644 223.6C82.9644 221.728 84.2604 220.528 85.8924 220.528C87.5724 220.528 88.8444 221.776 88.8444 223.6C88.8444 225.472 87.5964 226.696 85.8924 226.696C84.2124 226.696 82.9644 225.4 82.9644 223.6ZM93.489 223.6C93.489 226.84 95.793 229.264 99.369 229.264C102.945 229.264 105.249 226.84 105.249 223.6C105.249 220.36 102.945 217.936 99.369 217.936C95.793 217.936 93.489 220.36 93.489 223.6ZM96.441 223.6C96.441 221.728 97.737 220.528 99.369 220.528C101.049 220.528 102.321 221.776 102.321 223.6C102.321 225.472 101.073 226.696 99.369 226.696C97.689 226.696 96.441 225.4 96.441 223.6ZM107.638 226.024C107.638 228.232 108.526 229.24 110.182 229.24C111.478 229.24 112.414 228.832 113.038 228.328L112.462 226.216C112.126 226.456 111.766 226.648 111.334 226.648C110.686 226.648 110.398 226.12 110.398 224.896V212.2H107.638V226.024Z" fill="white"/>
    <path d="M196.04 43.72H211.496V41.32H196.04V43.72ZM224.656 45.952C224.656 46.624 224.032 46.96 223.24 46.96C222.16 46.96 220.528 46.312 219.88 45.616L218.536 47.416C219.04 48.184 221.056 49.264 223.048 49.264C225.688 49.264 227.416 47.944 227.416 45.808C227.416 41.992 221.584 42.976 221.584 41.176C221.584 40.696 222.088 40.24 222.928 40.24C224.08 40.24 225.208 40.768 225.856 41.272L226.888 39.304C226.216 38.68 224.872 37.936 222.784 37.936C220.552 37.936 218.824 39.112 218.824 41.224C218.824 45.16 224.656 44.2 224.656 45.952ZM229.609 44.896C229.609 47.656 230.521 49.24 232.969 49.24C234.361 49.24 235.513 48.712 236.161 48.184L235.321 46.048C234.937 46.336 234.409 46.672 233.665 46.672C232.753 46.672 232.369 45.904 232.369 44.728V40.792H235.849V38.2H232.369V35.2H229.609V44.896ZM238.497 49H241.257V41.752C241.569 41.128 242.073 40.6 243.033 40.6C243.609 40.6 243.897 40.696 244.425 41.008L245.409 38.416C245.049 38.152 244.617 38.008 243.729 38.008C242.433 38.008 241.761 38.56 241.257 39.256V38.2H238.497V49ZM247.389 49H250.149V38.2H247.389V49ZM247.101 34.312C247.101 35.416 247.893 36.04 248.829 36.04C249.621 36.04 250.413 35.416 250.413 34.312C250.413 33.328 249.621 32.704 248.829 32.704C247.893 32.704 247.101 33.328 247.101 34.312ZM253.638 49H256.398V41.632C257.046 40.984 257.814 40.6 258.75 40.6C260.286 40.6 261.174 41.416 261.174 43.144V49H263.934V42.664C263.934 39.28 262.134 38.008 259.494 38.008C258.198 38.008 257.046 38.584 256.398 39.28V38.2H253.638V49ZM265.323 50.464C265.323 52.936 267.795 53.992 270.939 53.992C274.083 53.992 276.555 52.888 276.555 50.464C276.555 48.04 274.083 46.936 270.939 46.936H270.819C270.723 46.768 270.675 46.576 270.675 46.384C270.675 46.264 270.675 46.12 270.723 45.976H270.915C273.699 45.976 275.499 44.152 275.499 41.992C275.499 41.512 275.403 41.032 275.235 40.6L277.035 40.192L276.939 37.984L273.675 38.704C272.931 38.224 271.995 37.936 270.915 37.936C268.059 37.936 266.307 39.832 266.307 41.992C266.307 43.576 267.243 44.968 268.875 45.616C268.707 45.832 268.635 46.12 268.635 46.384C268.635 46.624 268.707 46.912 268.827 47.128C266.763 47.56 265.323 48.664 265.323 50.464ZM267.891 50.464C267.891 49.672 268.971 49.144 270.939 49.144C272.931 49.144 273.963 49.672 273.963 50.464C273.963 51.328 272.811 51.784 270.939 51.784C269.067 51.784 267.891 51.304 267.891 50.464ZM268.899 41.992C268.899 41.008 269.667 40.168 270.915 40.168C272.211 40.168 272.931 40.984 272.931 41.992C272.931 43.072 272.091 43.744 270.915 43.744C269.667 43.744 268.899 43 268.899 41.992Z" fill="#10162F"/>
    <path d="M196.04 104.72H211.496V102.32H196.04V104.72ZM234.832 99.2H232.048L230.464 104.984C230.344 105.512 230.224 106.04 230.128 106.544C230.008 106.04 229.888 105.536 229.72 105.056L227.632 99.2H225.184L223.168 105.08C222.952 105.68 222.88 106.064 222.76 106.52C222.664 106.016 222.616 105.608 222.448 105.08L220.72 99.2H217.768L221.272 110.048H223.624L225.904 104.096C226.072 103.664 226.192 103.256 226.288 102.776C226.408 103.184 226.48 103.64 226.648 104.048L228.952 110.048H231.424L234.832 99.2ZM236.481 110H239.241V102.584C239.865 101.96 240.729 101.6 241.617 101.6C243.129 101.6 244.017 102.488 244.017 104.096V110H246.777V103.736C246.777 100.352 244.977 99.008 242.337 99.008C241.089 99.008 239.937 99.512 239.241 100.184V93.2H236.481V110ZM248.911 104.6C248.911 107.84 251.215 110.264 254.791 110.264C258.367 110.264 260.671 107.84 260.671 104.6C260.671 101.36 258.367 98.936 254.791 98.936C251.215 98.936 248.911 101.36 248.911 104.6ZM251.863 104.6C251.863 102.728 253.159 101.528 254.791 101.528C256.471 101.528 257.743 102.776 257.743 104.6C257.743 106.472 256.495 107.696 254.791 107.696C253.111 107.696 251.863 106.4 251.863 104.6ZM263.059 107.024C263.059 109.232 263.947 110.24 265.603 110.24C266.899 110.24 267.835 109.832 268.459 109.328L267.883 107.216C267.547 107.456 267.187 107.648 266.755 107.648C266.107 107.648 265.819 107.12 265.819 105.896V93.2H263.059V107.024ZM278.703 106.976C278.079 107.48 276.975 107.96 275.655 107.96C273.951 107.96 272.655 107.072 272.415 105.44H280.215C280.335 105.032 280.383 104.624 280.383 103.952C280.383 100.928 278.055 98.936 275.271 98.936C271.719 98.936 269.559 101.456 269.559 104.6C269.559 108.008 271.887 110.264 275.367 110.264C276.879 110.264 278.415 109.832 279.495 108.92L278.703 106.976ZM275.151 101.24C276.735 101.24 277.647 102.272 277.623 103.592H272.319C272.607 102.176 273.495 101.24 275.151 101.24ZM287.692 110H290.452V102.632C291.1 101.984 291.868 101.6 292.804 101.6C294.34 101.6 295.228 102.416 295.228 104.144V110H297.988V103.664C297.988 100.28 296.188 99.008 293.548 99.008C292.252 99.008 291.1 99.584 290.452 100.28V99.2H287.692V110ZM310.562 99.2H307.802V106.376C307.178 107.192 306.29 107.696 305.378 107.696C303.866 107.696 303.314 106.664 303.314 105.224V99.2H300.554V105.8C300.554 108.896 302.234 110.264 304.346 110.264C306.026 110.264 307.154 109.472 307.802 108.68V110H310.562V99.2ZM330.03 102.944C330.03 99.992 328.542 99.008 326.574 99.008C324.894 99.008 323.694 99.728 322.926 100.736C322.542 99.752 321.438 99.008 319.782 99.008C318.438 99.008 317.166 99.536 316.398 100.4V99.2H313.638V110H316.398V102.752C316.878 102.032 317.67 101.6 318.654 101.6C319.83 101.6 320.454 102.344 320.454 103.472V110H323.214V103.64C323.214 103.4 323.19 103.016 323.19 102.848C323.574 102.104 324.39 101.6 325.422 101.6C326.718 101.6 327.27 102.32 327.27 103.664V110H330.03V102.944ZM332.833 109.064C333.817 109.688 335.641 110.264 337.417 110.264C341.209 110.264 343.585 107.984 343.585 104.432C343.585 101.24 341.665 98.936 338.449 98.936C337.297 98.936 336.265 99.344 335.593 99.872V93.2H332.833V109.064ZM337.801 101.528C339.361 101.528 340.633 102.56 340.633 104.624C340.633 106.568 339.289 107.696 337.561 107.696C336.793 107.696 336.193 107.528 335.593 107.144V102.56C336.049 102.032 336.841 101.528 337.801 101.528ZM354.453 106.976C353.829 107.48 352.725 107.96 351.405 107.96C349.701 107.96 348.405 107.072 348.165 105.44H355.965C356.085 105.032 356.133 104.624 356.133 103.952C356.133 100.928 353.805 98.936 351.021 98.936C347.469 98.936 345.309 101.456 345.309 104.6C345.309 108.008 347.637 110.264 351.117 110.264C352.629 110.264 354.165 109.832 355.245 108.92L354.453 106.976ZM350.901 101.24C352.485 101.24 353.397 102.272 353.373 103.592H348.069C348.357 102.176 349.245 101.24 350.901 101.24ZM358.356 110H361.116V102.752C361.428 102.128 361.932 101.6 362.892 101.6C363.468 101.6 363.756 101.696 364.284 102.008L365.268 99.416C364.908 99.152 364.476 99.008 363.588 99.008C362.292 99.008 361.62 99.56 361.116 100.256V99.2H358.356V110Z" fill="#10162F"/>
    <path d="M196.04 165.72H211.496V163.32H196.04V165.72ZM220.024 162.984C220.816 162.624 221.608 162.24 222.856 162.24C224.464 162.24 224.944 163.224 224.872 165.024C224.344 164.64 223.384 164.328 222.424 164.328C220.24 164.328 218.488 165.456 218.488 167.832C218.488 169.92 219.904 171.144 221.872 171.144C223.336 171.144 224.488 170.568 225.064 169.752V171H227.464V164.424C227.464 161.568 226.336 159.936 223.144 159.936C221.728 159.936 220.264 160.416 219.328 160.968L220.024 162.984ZM222.784 168.816C221.92 168.816 221.248 168.36 221.248 167.544C221.248 166.632 222.064 166.2 222.976 166.2C223.768 166.2 224.392 166.368 224.872 166.728V167.832C224.536 168.312 223.936 168.816 222.784 168.816ZM241.86 168.024C241.86 170.232 242.772 171.24 244.428 171.24C245.724 171.24 246.66 170.832 247.284 170.328L246.708 168.216C246.372 168.456 246.012 168.648 245.556 168.648C244.932 168.648 244.62 168.12 244.62 166.896V154.656H242.172C241.452 154.2 240.444 153.936 239.34 153.936C236.94 153.936 235.5 155.448 235.5 158.448V171H238.26V162.792H240.204V160.2H238.26V158.664C238.26 157.176 238.908 156.528 240.156 156.528C240.804 156.528 241.452 156.816 241.86 157.104V168.024ZM248.395 165.6C248.395 168.84 250.699 171.264 254.275 171.264C257.851 171.264 260.155 168.84 260.155 165.6C260.155 162.36 257.851 159.936 254.275 159.936C250.699 159.936 248.395 162.36 248.395 165.6ZM251.347 165.6C251.347 163.728 252.643 162.528 254.275 162.528C255.955 162.528 257.227 163.776 257.227 165.6C257.227 167.472 255.979 168.696 254.275 168.696C252.595 168.696 251.347 167.4 251.347 165.6ZM263.384 162.984C264.176 162.624 264.968 162.24 266.216 162.24C267.824 162.24 268.304 163.224 268.232 165.024C267.704 164.64 266.744 164.328 265.784 164.328C263.6 164.328 261.848 165.456 261.848 167.832C261.848 169.92 263.264 171.144 265.232 171.144C266.696 171.144 267.848 170.568 268.424 169.752V171H270.824V164.424C270.824 161.568 269.696 159.936 266.504 159.936C265.088 159.936 263.624 160.416 262.688 160.968L263.384 162.984ZM266.144 168.816C265.28 168.816 264.608 168.36 264.608 167.544C264.608 166.632 265.424 166.2 266.336 166.2C267.128 166.2 267.752 166.368 268.232 166.728V167.832C267.896 168.312 267.296 168.816 266.144 168.816ZM273.413 166.896C273.413 169.656 274.325 171.24 276.773 171.24C278.165 171.24 279.317 170.712 279.965 170.184L279.125 168.048C278.741 168.336 278.213 168.672 277.469 168.672C276.557 168.672 276.173 167.904 276.173 166.728V162.792H279.653V160.2H276.173V157.2H273.413V166.896ZM282.71 171H285.47V160.2H282.71V171ZM282.422 156.312C282.422 157.416 283.214 158.04 284.15 158.04C284.942 158.04 285.734 157.416 285.734 156.312C285.734 155.328 284.942 154.704 284.15 154.704C283.214 154.704 282.422 155.328 282.422 156.312ZM288.958 171H291.718V163.632C292.366 162.984 293.134 162.6 294.07 162.6C295.606 162.6 296.494 163.416 296.494 165.144V171H299.254V164.664C299.254 161.28 297.454 160.008 294.814 160.008C293.518 160.008 292.366 160.584 291.718 161.28V160.2H288.958V171ZM300.643 172.464C300.643 174.936 303.115 175.992 306.259 175.992C309.403 175.992 311.875 174.888 311.875 172.464C311.875 170.04 309.403 168.936 306.259 168.936H306.139C306.043 168.768 305.995 168.576 305.995 168.384C305.995 168.264 305.995 168.12 306.043 167.976H306.235C309.019 167.976 310.819 166.152 310.819 163.992C310.819 163.512 310.723 163.032 310.555 162.6L312.355 162.192L312.259 159.984L308.995 160.704C308.251 160.224 307.315 159.936 306.235 159.936C303.379 159.936 301.627 161.832 301.627 163.992C301.627 165.576 302.563 166.968 304.195 167.616C304.027 167.832 303.955 168.12 303.955 168.384C303.955 168.624 304.027 168.912 304.147 169.128C302.083 169.56 300.643 170.664 300.643 172.464ZM303.211 172.464C303.211 171.672 304.291 171.144 306.259 171.144C308.251 171.144 309.283 171.672 309.283 172.464C309.283 173.328 308.131 173.784 306.259 173.784C304.387 173.784 303.211 173.304 303.211 172.464ZM304.219 163.992C304.219 163.008 304.987 162.168 306.235 162.168C307.531 162.168 308.251 162.984 308.251 163.992C308.251 165.072 307.411 165.744 306.235 165.744C304.987 165.744 304.219 165 304.219 163.992ZM319.122 175.8H321.882V170.736C322.506 171.096 323.442 171.264 324.402 171.264C327.858 171.264 330.114 168.72 330.114 165.432C330.114 162.24 328.194 159.936 325.218 159.936C323.826 159.936 322.554 160.512 321.882 161.232V160.2H319.122V175.8ZM324.354 162.528C326.178 162.528 327.186 163.776 327.186 165.504C327.186 167.304 326.082 168.696 324.162 168.696C323.25 168.696 322.626 168.552 321.882 168.072V163.704C322.554 162.96 323.418 162.528 324.354 162.528ZM331.833 165.6C331.833 168.84 334.137 171.264 337.713 171.264C341.289 171.264 343.593 168.84 343.593 165.6C343.593 162.36 341.289 159.936 337.713 159.936C334.137 159.936 331.833 162.36 331.833 165.6ZM334.785 165.6C334.785 163.728 336.081 162.528 337.713 162.528C339.393 162.528 340.665 163.776 340.665 165.6C340.665 167.472 339.417 168.696 337.713 168.696C336.033 168.696 334.785 167.4 334.785 165.6ZM346.389 171H349.149V160.2H346.389V171ZM346.101 156.312C346.101 157.416 346.893 158.04 347.829 158.04C348.621 158.04 349.413 157.416 349.413 156.312C349.413 155.328 348.621 154.704 347.829 154.704C346.893 154.704 346.101 155.328 346.101 156.312ZM352.638 171H355.398V163.632C356.046 162.984 356.814 162.6 357.75 162.6C359.286 162.6 360.174 163.416 360.174 165.144V171H362.934V164.664C362.934 161.28 361.134 160.008 358.494 160.008C357.198 160.008 356.046 160.584 355.398 161.28V160.2H352.638V171ZM365.499 166.896C365.499 169.656 366.411 171.24 368.859 171.24C370.251 171.24 371.403 170.712 372.051 170.184L371.211 168.048C370.827 168.336 370.299 168.672 369.555 168.672C368.643 168.672 368.259 167.904 368.259 166.728V162.792H371.739V160.2H368.259V157.2H365.499V166.896ZM379.474 171H382.234V163.632C382.882 162.984 383.65 162.6 384.586 162.6C386.122 162.6 387.01 163.416 387.01 165.144V171H389.77V164.664C389.77 161.28 387.97 160.008 385.33 160.008C384.034 160.008 382.882 160.584 382.234 161.28V160.2H379.474V171ZM402.343 160.2H399.583V167.376C398.959 168.192 398.071 168.696 397.159 168.696C395.647 168.696 395.095 167.664 395.095 166.224V160.2H392.335V166.8C392.335 169.896 394.015 171.264 396.127 171.264C397.807 171.264 398.935 170.472 399.583 169.68V171H402.343V160.2ZM421.811 163.944C421.811 160.992 420.323 160.008 418.355 160.008C416.675 160.008 415.475 160.728 414.707 161.736C414.323 160.752 413.219 160.008 411.563 160.008C410.219 160.008 408.947 160.536 408.179 161.4V160.2H405.419V171H408.179V163.752C408.659 163.032 409.451 162.6 410.435 162.6C411.611 162.6 412.235 163.344 412.235 164.472V171H414.995V164.64C414.995 164.4 414.971 164.016 414.971 163.848C415.355 163.104 416.171 162.6 417.203 162.6C418.499 162.6 419.051 163.32 419.051 164.664V171H421.811V163.944ZM424.614 170.064C425.598 170.688 427.422 171.264 429.198 171.264C432.99 171.264 435.366 168.984 435.366 165.432C435.366 162.24 433.446 159.936 430.23 159.936C429.078 159.936 428.046 160.344 427.374 160.872V154.2H424.614V170.064ZM429.582 162.528C431.142 162.528 432.414 163.56 432.414 165.624C432.414 167.568 431.07 168.696 429.342 168.696C428.574 168.696 427.974 168.528 427.374 168.144V163.56C427.83 163.032 428.622 162.528 429.582 162.528ZM446.235 167.976C445.611 168.48 444.507 168.96 443.187 168.96C441.483 168.96 440.187 168.072 439.947 166.44H447.747C447.867 166.032 447.915 165.624 447.915 164.952C447.915 161.928 445.587 159.936 442.803 159.936C439.251 159.936 437.091 162.456 437.091 165.6C437.091 169.008 439.419 171.264 442.899 171.264C444.411 171.264 445.947 170.832 447.027 169.92L446.235 167.976ZM442.683 162.24C444.267 162.24 445.179 163.272 445.155 164.592H439.851C440.139 163.176 441.027 162.24 442.683 162.24ZM450.138 171H452.898V163.752C453.21 163.128 453.714 162.6 454.674 162.6C455.25 162.6 455.538 162.696 456.066 163.008L457.05 160.416C456.69 160.152 456.258 160.008 455.37 160.008C454.074 160.008 453.402 160.56 452.898 161.256V160.2H450.138V171Z" fill="#10162F"/>
    <path d="M196.04 226.72H211.496V224.32H196.04V226.72ZM218.944 227.896C218.944 230.656 219.856 232.24 222.304 232.24C223.696 232.24 224.848 231.712 225.496 231.184L224.656 229.048C224.272 229.336 223.744 229.672 223 229.672C222.088 229.672 221.704 228.904 221.704 227.728V223.792H225.184V221.2H221.704V218.2H218.944V227.896ZM227.833 232H230.593V224.752C230.905 224.128 231.409 223.6 232.369 223.6C232.945 223.6 233.233 223.696 233.761 224.008L234.745 221.416C234.385 221.152 233.953 221.008 233.065 221.008C231.769 221.008 231.097 221.56 230.593 222.256V221.2H227.833V232ZM246.085 221.2H243.325V228.376C242.701 229.192 241.813 229.696 240.901 229.696C239.389 229.696 238.837 228.664 238.837 227.224V221.2H236.077V227.8C236.077 230.896 237.757 232.264 239.869 232.264C241.549 232.264 242.677 231.472 243.325 230.68V232H246.085V221.2ZM257.633 228.976C257.009 229.48 255.905 229.96 254.585 229.96C252.881 229.96 251.585 229.072 251.345 227.44H259.145C259.265 227.032 259.313 226.624 259.313 225.952C259.313 222.928 256.985 220.936 254.201 220.936C250.649 220.936 248.489 223.456 248.489 226.6C248.489 230.008 250.817 232.264 254.297 232.264C255.809 232.264 257.345 231.832 258.425 230.92L257.633 228.976ZM254.081 223.24C255.665 223.24 256.577 224.272 256.553 225.592H251.249C251.537 224.176 252.425 223.24 254.081 223.24ZM265.95 226.6C265.95 229.84 268.254 232.264 271.83 232.264C275.406 232.264 277.71 229.84 277.71 226.6C277.71 223.36 275.406 220.936 271.83 220.936C268.254 220.936 265.95 223.36 265.95 226.6ZM268.902 226.6C268.902 224.728 270.198 223.528 271.83 223.528C273.51 223.528 274.782 224.776 274.782 226.6C274.782 228.472 273.534 229.696 271.83 229.696C270.15 229.696 268.902 228.4 268.902 226.6ZM280.099 232H282.859V224.752C283.171 224.128 283.675 223.6 284.635 223.6C285.211 223.6 285.499 223.696 286.027 224.008L287.011 221.416C286.651 221.152 286.219 221.008 285.331 221.008C284.035 221.008 283.363 221.56 282.859 222.256V221.2H280.099V232ZM293.789 232H296.549V223.792H299.477V221.2H296.549V219.664C296.549 218.176 297.197 217.528 298.133 217.528C298.757 217.528 299.357 217.696 299.717 218.056L300.653 215.944C300.101 215.368 298.925 214.936 297.629 214.936C295.229 214.936 293.789 216.448 293.789 219.448V232ZM302.314 223.984C303.105 223.624 303.898 223.24 305.146 223.24C306.754 223.24 307.234 224.224 307.162 226.024C306.634 225.64 305.674 225.328 304.714 225.328C302.53 225.328 300.778 226.456 300.778 228.832C300.778 230.92 302.194 232.144 304.162 232.144C305.626 232.144 306.778 231.568 307.354 230.752V232H309.754V225.424C309.754 222.568 308.626 220.936 305.434 220.936C304.018 220.936 302.554 221.416 301.618 221.968L302.314 223.984ZM305.074 229.816C304.21 229.816 303.538 229.36 303.538 228.544C303.538 227.632 304.354 227.2 305.266 227.2C306.058 227.2 306.682 227.368 307.162 227.728V228.832C306.826 229.312 306.226 229.816 305.074 229.816ZM312.583 229.024C312.583 231.232 313.471 232.24 315.127 232.24C316.423 232.24 317.359 231.832 317.983 231.328L317.407 229.216C317.071 229.456 316.711 229.648 316.279 229.648C315.631 229.648 315.343 229.12 315.343 227.896V215.2H312.583V229.024ZM325.227 228.952C325.227 229.624 324.603 229.96 323.811 229.96C322.731 229.96 321.099 229.312 320.451 228.616L319.107 230.416C319.611 231.184 321.627 232.264 323.619 232.264C326.259 232.264 327.987 230.944 327.987 228.808C327.987 224.992 322.155 225.976 322.155 224.176C322.155 223.696 322.659 223.24 323.499 223.24C324.651 223.24 325.779 223.768 326.427 224.272L327.459 222.304C326.787 221.68 325.443 220.936 323.355 220.936C321.123 220.936 319.395 222.112 319.395 224.224C319.395 228.16 325.227 227.2 325.227 228.952ZM338.891 228.976C338.267 229.48 337.163 229.96 335.843 229.96C334.139 229.96 332.843 229.072 332.603 227.44H340.403C340.523 227.032 340.571 226.624 340.571 225.952C340.571 222.928 338.243 220.936 335.459 220.936C331.907 220.936 329.747 223.456 329.747 226.6C329.747 230.008 332.075 232.264 335.555 232.264C337.067 232.264 338.603 231.832 339.683 230.92L338.891 228.976ZM335.339 223.24C336.923 223.24 337.835 224.272 337.811 225.592H332.507C332.795 224.176 333.683 223.24 335.339 223.24Z" fill="#10162F"/>
</svg>
