<svg width="600" height="600" viewBox="0 0 600 600" fill="none" xmlns="http://www.w3.org/2000/svg">
    <path d="M62 203.564C62 199.146 65.3657 194.339 69.5175 192.828L232.205 133.615C236.357 132.104 239.722 134.461 239.722 138.879L239.722 177.725C239.722 182.144 236.357 186.95 232.205 188.462L69.5175 247.675C65.3657 249.186 62 246.829 62 242.411L62 222.988L62 203.564Z" fill="#3C4257"/>
    <path d="M396 242.314C396 237.896 399.366 233.089 403.518 231.578L569.964 170.997C574.116 169.486 577.481 171.842 577.481 176.261L577.481 215.107C577.481 219.526 574.115 224.332 569.964 225.843L403.518 286.425C399.366 287.936 396 285.579 396 281.161L396 261.738L396 242.314Z" fill="#3C4257"/>
    <path d="M396 301.419C396 297.442 399.029 293.116 402.766 291.756L570.234 230.803C573.971 229.443 577 231.564 577 235.54L577 286.585C577 290.561 573.971 294.887 570.234 296.247L402.766 357.201C399.029 358.561 396 356.44 396 352.463L396 326.941L396 301.419Z" fill="#73FFE5"/>
    <path d="M396 371.514C396 367.538 399.029 363.212 402.766 361.852L570.234 300.898C573.971 299.538 577 301.659 577 305.636L577 356.68C577 360.657 573.971 364.983 570.234 366.343L402.766 427.296C399.029 428.656 396 426.535 396 422.559L396 397.037L396 371.514Z" fill="#73FFE5"/>
    <path d="M396 442.514C396 438.538 399.029 434.212 402.766 432.852L570.234 371.898C573.971 370.538 577 372.659 577 376.636L577 427.68C577 431.657 573.971 435.983 570.234 437.343L402.766 498.296C399.029 499.656 396 497.535 396 493.559L396 468.037L396 442.514Z" fill="#73FFE5"/>
    <path d="M62 415.686C62 411.267 65.3657 406.461 69.5175 404.949L232.205 345.736C236.357 344.225 239.722 346.582 239.722 351L239.722 493.102C239.722 497.521 236.357 502.327 232.205 503.839L69.5175 563.052C65.3657 564.563 62 562.206 62 557.788L62 486.737L62 415.686Z" fill="#EDF1F5"/>
    <path d="M130.313 416.371C130.205 414.275 128.686 413.255 126.291 414.126C123.639 415.091 121.946 417.588 121.946 420.612C121.946 423.688 123.639 424.918 126.307 423.947C128.636 423.099 130.197 421.098 130.321 418.829L128.075 419.647C127.926 420.729 127.298 421.573 126.332 421.925C125.134 422.361 124.391 421.577 124.391 419.722C124.391 417.903 125.134 416.56 126.324 416.127C127.315 415.766 127.934 416.244 128.075 417.186L130.313 416.371ZM131.485 421.86L133.897 420.982L133.897 415.717C133.897 414.39 134.591 413.364 135.78 412.931C136.127 412.805 136.457 412.746 136.656 412.762L136.656 410.503C136.49 410.511 136.251 410.554 135.97 410.656C134.929 411.035 134.178 411.959 133.864 413.268L133.815 413.286L133.815 411.59L131.485 412.438L131.485 421.86ZM143.213 414.708C142.99 415.51 142.313 416.222 141.429 416.544C140.199 416.992 139.398 416.361 139.398 415.016L139.398 414.858L145.501 412.636L145.501 411.854C145.501 408.989 143.874 407.727 141.297 408.664C138.679 409.617 137.027 412.17 137.027 415.176C137.027 418.19 138.663 419.45 141.388 418.458C143.577 417.661 145.162 415.845 145.427 413.903L143.213 414.708ZM141.322 410.554C142.396 410.163 143.131 410.722 143.18 411.908L139.422 413.276C139.505 412.068 140.265 410.939 141.322 410.554ZM149.375 415.498C150.481 415.095 151.58 414.107 152.075 412.924L152.125 412.906L152.125 414.348L154.454 413.5L154.454 407.022C154.454 405.124 152.975 404.414 150.704 405.241C148.359 406.094 146.897 407.883 146.806 409.744L149.011 408.942C149.127 408.205 149.697 407.523 150.597 407.196C151.505 406.865 152.083 407.164 152.083 408.043L152.083 408.667L149.854 409.62C147.648 410.563 146.41 412.007 146.41 413.721C146.41 415.417 147.69 416.111 149.375 415.498ZM150.167 413.355C149.35 413.653 148.805 413.411 148.805 412.708C148.805 412.04 149.317 411.423 150.217 411.025L152.083 410.223L152.083 410.909C152.083 411.928 151.216 412.973 150.167 413.355ZM156.659 401.105L156.659 403.275L155.412 403.729L155.412 405.663L156.659 405.209L156.659 410.157C156.659 411.994 157.468 412.438 159.55 411.68C160.037 411.503 160.45 411.309 160.698 411.157L160.698 409.267C160.549 409.348 160.326 409.447 160.111 409.525C159.401 409.783 159.071 409.561 159.071 408.84L159.071 404.331L160.706 403.736L160.706 401.802L159.071 402.398L159.071 400.227L156.659 401.105ZM167.759 405.774C167.536 406.576 166.859 407.289 165.975 407.61C164.745 408.058 163.943 407.427 163.943 406.082L163.943 405.924L170.047 403.702L170.047 402.92C170.047 400.055 168.42 398.793 165.843 399.731C163.225 400.683 161.573 403.236 161.573 406.242C161.573 409.256 163.208 410.516 165.934 409.524C168.122 408.727 169.708 406.911 169.973 404.969L167.759 405.774ZM165.868 401.62C166.941 401.229 167.677 401.788 167.726 402.974L163.968 404.342C164.051 403.134 164.811 402.005 165.868 401.62Z" fill="#2D2E35"/>
    <path d="M127.577 459.1L125.166 459.977L125.166 465.374C125.166 466.622 124.497 467.683 123.423 468.074C122.358 468.461 121.771 468.007 121.771 466.75L121.771 461.213L119.36 462.091L119.36 468.164C119.36 470.361 120.631 471.225 122.547 470.528C123.885 470.041 124.761 469.037 125.199 467.691L125.248 467.673L125.248 469.369L127.577 468.522L127.577 459.1ZM134.317 456.497C133.036 456.963 132.054 458.007 131.575 459.288L131.525 459.306L131.525 457.663L129.146 458.529L129.146 471.027L131.558 470.149L131.558 465.491L131.608 465.473C132.078 466.365 133.069 466.672 134.358 466.203C136.571 465.397 137.942 463.07 137.942 460.038C137.942 456.997 136.563 455.68 134.317 456.497ZM133.507 464.447C132.326 464.877 131.55 464.07 131.55 462.365C131.55 460.677 132.326 459.278 133.507 458.849C134.713 458.41 135.473 459.232 135.473 460.937C135.473 462.651 134.713 464.008 133.507 464.447ZM142.476 463.248C143.781 462.773 144.806 461.671 145.235 460.477L145.276 460.462L145.276 462.08L147.655 461.214L147.655 448.531L145.243 449.409L145.243 454.287L145.194 454.305C144.764 453.415 143.773 453.055 142.493 453.521C140.271 454.33 138.867 456.696 138.867 459.684C138.867 462.698 140.263 464.054 142.476 463.248ZM143.294 455.286C144.492 454.851 145.26 455.661 145.26 457.375C145.26 459.097 144.492 460.449 143.294 460.885C142.08 461.327 141.337 460.534 141.337 458.803C141.337 457.08 142.08 455.728 143.294 455.286ZM151.892 459.821C152.998 459.418 154.097 458.43 154.592 457.247L154.642 457.229L154.642 458.671L156.971 457.823L156.971 451.346C156.971 449.447 155.493 448.737 153.221 449.564C150.876 450.418 149.414 452.206 149.323 454.068L151.528 453.265C151.644 452.529 152.214 451.847 153.114 451.519C154.023 451.188 154.601 451.488 154.601 452.366L154.601 452.99L152.371 453.943C150.166 454.886 148.927 456.33 148.927 458.044C148.927 459.74 150.207 460.434 151.892 459.821ZM152.685 457.678C151.867 457.976 151.322 457.735 151.322 457.032C151.322 456.364 151.834 455.747 152.734 455.349L154.601 454.546L154.601 455.232C154.601 456.251 153.734 457.296 152.685 457.678ZM159.176 445.428L159.176 447.599L157.929 448.052L157.929 449.986L159.176 449.532L159.176 454.48C159.176 456.317 159.986 456.761 162.067 456.004C162.554 455.826 162.967 455.632 163.215 455.48L163.215 453.591C163.066 453.671 162.843 453.77 162.628 453.848C161.918 454.106 161.588 453.884 161.588 453.163L161.588 448.654L163.223 448.059L163.223 446.126L161.588 446.721L161.588 444.55L159.176 445.428ZM170.276 450.098C170.053 450.899 169.376 451.612 168.492 451.933C167.262 452.381 166.461 451.75 166.461 450.405L166.461 450.247L172.564 448.026L172.564 447.243C172.564 444.378 170.937 443.116 168.36 444.054C165.742 445.007 164.09 447.559 164.09 450.565C164.09 453.58 165.726 454.839 168.451 453.847C170.64 453.05 172.225 451.234 172.49 449.292L170.276 450.098ZM168.385 445.943C169.459 445.552 170.194 446.111 170.243 447.297L166.485 448.665C166.568 447.457 167.328 446.328 168.385 445.943Z" fill="#2D2E35"/>
    <path d="M125.474 512.601C126.779 512.126 127.803 511.024 128.232 509.831L128.274 509.816L128.274 511.433L130.652 510.567L130.652 497.885L128.241 498.762L128.241 503.64L128.191 503.658C127.762 502.769 126.771 502.409 125.49 502.875C123.269 503.683 121.865 506.049 121.865 509.037C121.865 512.052 123.26 513.407 125.474 512.601ZM126.291 504.64C127.489 504.204 128.257 505.014 128.257 506.728C128.257 508.451 127.489 509.803 126.291 510.238C125.077 510.68 124.334 509.887 124.334 508.156C124.334 506.433 125.077 505.082 126.291 504.64ZM138.127 504.964C137.904 505.766 137.226 506.478 136.343 506.8C135.112 507.248 134.311 506.616 134.311 505.272L134.311 505.114L140.414 502.892L140.414 502.11C140.414 499.245 138.787 497.982 136.211 498.92C133.592 499.873 131.941 502.425 131.941 505.431C131.941 508.446 133.576 509.705 136.301 508.713C138.49 507.917 140.076 506.1 140.34 504.158L138.127 504.964ZM136.235 500.81C137.309 500.419 138.044 500.977 138.094 502.163L134.336 503.531C134.418 502.323 135.178 501.194 136.235 500.81ZM141.719 506.539L144.131 505.661L144.131 492.979L141.719 493.857L141.719 506.539ZM151.622 500.052C151.399 500.854 150.722 501.566 149.838 501.888C148.607 502.336 147.806 501.705 147.806 500.36L147.806 500.202L153.91 497.98L153.91 497.198C153.91 494.333 152.283 493.07 149.706 494.008C147.088 494.961 145.436 497.514 145.436 500.519C145.436 503.534 147.071 504.793 149.797 503.801C151.985 503.005 153.571 501.188 153.835 499.246L151.622 500.052ZM149.731 495.898C150.804 495.507 151.539 496.066 151.589 497.252L147.831 498.619C147.914 497.412 148.673 496.282 149.731 495.898ZM155.801 489.821L155.801 491.992L154.554 492.446L154.554 494.379L155.801 493.926L155.801 498.874C155.801 500.711 156.61 501.154 158.692 500.397C159.179 500.22 159.592 500.025 159.84 499.874L159.84 497.984C159.691 498.064 159.468 498.163 159.253 498.241C158.543 498.5 158.213 498.277 158.213 497.557L158.213 493.048L159.848 492.453L159.848 490.519L158.213 491.114L158.213 488.943L155.801 489.821ZM166.901 494.491C166.678 495.293 166.001 496.005 165.117 496.327C163.887 496.775 163.085 496.143 163.085 494.799L163.085 494.64L169.189 492.419L169.189 491.637C169.189 488.772 167.562 487.509 164.985 488.447C162.367 489.4 160.715 491.952 160.715 494.958C160.715 497.973 162.35 499.232 165.076 498.24C167.264 497.444 168.85 495.627 169.114 493.685L166.901 494.491ZM165.01 490.337C166.083 489.946 166.818 490.504 166.868 491.69L163.11 493.058C163.193 491.85 163.953 490.721 165.01 490.337Z" fill="#2D2E35"/>
    <path d="M62 263.669C62 259.692 65.0291 255.366 68.7658 254.006L232.957 194.246C236.693 192.886 239.722 195.007 239.722 198.983L239.722 250.023C239.722 254 236.693 258.326 232.957 259.686L68.7658 319.446C65.0291 320.806 62 318.685 62 314.709L62 289.189L62 263.669Z" fill="#FBE582"/>
    <path d="M62 334.886C62 330.909 65.0291 326.583 68.7658 325.223L232.957 265.462C236.693 264.102 239.722 266.223 239.722 270.2L239.722 321.24C239.722 325.216 236.693 329.542 232.957 330.902L68.7658 390.663C65.0291 392.023 62 389.902 62 385.926L62 360.406L62 334.886Z" fill="#73FFE5"/>
    <path d="M117.376 266.548L114.964 267.426L114.964 272.822C114.964 274.07 114.295 275.131 113.222 275.522C112.156 275.91 111.57 275.455 111.57 274.199L111.57 268.661L109.158 269.539L109.158 275.612C109.158 277.81 110.43 278.674 112.346 277.977C113.684 277.49 114.56 276.485 114.997 275.14L115.047 275.121L115.047 276.818L117.376 275.97L117.376 266.548ZM118.797 268.8C118.797 270.215 119.664 270.813 121.373 270.578L122.885 270.362C123.752 270.257 124.058 270.427 124.058 270.928C124.058 271.543 123.496 272.143 122.587 272.474C121.629 272.822 121.076 272.584 120.927 271.812L118.574 272.669C118.731 274.466 120.143 275.165 122.587 274.275C124.867 273.446 126.461 271.644 126.461 269.789C126.461 268.41 125.701 267.913 123.851 268.173L122.34 268.38C121.448 268.503 121.117 268.298 121.117 267.814C121.117 267.19 121.671 266.585 122.505 266.281C123.397 265.956 123.934 266.28 124.008 267.017L126.23 266.209C126.18 264.381 124.776 263.653 122.505 264.479C120.25 265.3 118.797 267.007 118.797 268.8ZM133.514 267.213C133.291 268.015 132.614 268.728 131.73 269.049C130.5 269.497 129.699 268.866 129.699 267.521L129.699 267.363L135.802 265.142L135.802 264.359C135.802 261.494 134.175 260.232 131.598 261.17C128.98 262.123 127.328 264.675 127.328 267.681C127.328 270.695 128.963 271.955 131.689 270.963C133.878 270.166 135.463 268.35 135.728 266.408L133.514 267.213ZM131.623 263.059C132.697 262.668 133.432 263.227 133.481 264.413L129.723 265.781C129.806 264.573 130.566 263.444 131.623 263.059ZM137.049 268.81L139.461 267.932L139.461 262.667C139.461 261.34 140.154 260.314 141.344 259.881C141.691 259.755 142.021 259.696 142.219 259.712L142.219 257.453C142.054 257.461 141.814 257.504 141.534 257.606C140.493 257.985 139.741 258.909 139.428 260.218L139.378 260.236L139.378 258.54L137.049 259.388L137.049 268.81ZM143.21 266.567L145.622 265.689L145.622 260.284C145.622 259.062 146.307 257.969 147.389 257.575C148.471 257.182 149.016 257.686 149.016 258.917L149.016 264.454L151.428 263.576L151.428 257.503C151.428 255.297 150.321 254.381 148.356 255.097C146.993 255.593 146.06 256.618 145.589 257.958L145.539 257.976L145.539 256.298L143.21 257.145L143.21 266.567ZM155.582 262.214C156.689 261.811 157.787 260.822 158.283 259.64L158.333 259.622L158.333 261.063L160.662 260.215L160.662 253.738C160.662 251.839 159.183 251.129 156.912 251.956C154.566 252.81 153.105 254.599 153.014 256.46L155.219 255.657C155.334 254.921 155.904 254.239 156.805 253.911C157.713 253.581 158.291 253.88 158.291 254.759L158.291 255.383L156.061 256.335C153.856 257.278 152.617 258.722 152.617 260.436C152.617 262.133 153.897 262.827 155.582 262.214ZM156.375 260.07C155.557 260.368 155.012 260.127 155.012 259.424C155.012 258.756 155.524 258.139 156.425 257.741L158.291 256.939L158.291 257.624C158.291 258.644 157.424 259.689 156.375 260.07ZM162.223 259.647L164.634 258.77L164.634 253.083C164.634 252.028 165.254 251.065 166.17 250.731C167.062 250.406 167.599 250.809 167.599 251.819L167.599 257.69L169.92 256.846L169.92 251.124C169.92 250.078 170.523 249.147 171.44 248.813C172.373 248.473 172.885 248.885 172.885 249.975L172.885 255.767L175.297 254.889L175.297 248.455C175.297 246.557 174.132 245.715 172.398 246.346C171.101 246.818 170.044 247.95 169.647 249.281L169.598 249.299C169.3 248.177 168.409 247.798 167.128 248.264C165.923 248.703 164.973 249.796 164.601 251.065L164.552 251.083L164.552 249.378L162.223 250.225L162.223 259.647ZM182.688 249.316C182.465 250.117 181.788 250.83 180.904 251.151C179.674 251.599 178.873 250.968 178.873 249.623L178.873 249.465L184.976 247.244L184.976 246.461C184.976 243.596 183.349 242.334 180.772 243.272C178.154 244.225 176.502 246.777 176.502 249.783C176.502 252.798 178.138 254.057 180.863 253.065C183.052 252.268 184.637 250.452 184.902 248.51L182.688 249.316ZM180.797 245.161C181.871 244.77 182.606 245.329 182.655 246.515L178.897 247.883C178.98 246.675 179.74 245.546 180.797 245.161Z" fill="#2D2E35"/>
    <path d="M133.332 338.497C133.109 339.299 132.432 340.011 131.548 340.333C130.317 340.781 129.516 340.15 129.516 338.805L129.516 338.647L135.62 336.425L135.62 335.643C135.62 332.778 133.993 331.515 131.416 332.453C128.798 333.406 127.146 335.959 127.146 338.964C127.146 341.979 128.781 343.238 131.507 342.246C133.695 341.45 135.281 339.633 135.545 337.691L133.332 338.497ZM131.441 334.343C132.514 333.952 133.249 334.511 133.299 335.697L129.541 337.064C129.624 335.857 130.383 334.727 131.441 334.343ZM136.867 340.093L139.278 339.216L139.278 333.529C139.278 332.474 139.898 331.511 140.815 331.177C141.707 330.852 142.243 331.255 142.243 332.265L142.243 338.136L144.564 337.292L144.564 331.57C144.564 330.524 145.167 329.593 146.084 329.259C147.017 328.919 147.529 329.331 147.529 330.421L147.529 336.213L149.941 335.335L149.941 328.901C149.941 327.003 148.776 326.161 147.042 326.792C145.745 327.264 144.688 328.396 144.292 329.727L144.242 329.745C143.945 328.623 143.053 328.244 141.773 328.71C140.567 329.149 139.617 330.242 139.245 331.511L139.196 331.529L139.196 329.824L136.867 330.671L136.867 340.093ZM154.095 333.972C155.202 333.569 156.3 332.581 156.796 331.398L156.845 331.38L156.845 332.822L159.174 331.974L159.174 325.496C159.174 323.598 157.696 322.888 155.425 323.715C153.079 324.568 151.617 326.357 151.526 328.219L153.732 327.416C153.847 326.679 154.417 325.997 155.317 325.67C156.226 325.339 156.804 325.638 156.804 326.517L156.804 327.141L154.574 328.094C152.369 329.037 151.13 330.481 151.13 332.195C151.13 333.891 152.41 334.585 154.095 333.972ZM154.888 331.829C154.07 332.127 153.525 331.886 153.525 331.182C153.525 330.514 154.037 329.897 154.937 329.499L156.804 328.697L156.804 329.383C156.804 330.402 155.937 331.447 154.888 331.829ZM161.974 320.259C162.676 320.003 163.23 319.204 163.23 318.483C163.23 317.754 162.676 317.366 161.974 317.622C161.272 317.877 160.719 318.668 160.719 319.397C160.719 320.118 161.272 320.514 161.974 320.259ZM160.777 331.391L163.188 330.513L163.188 321.091L160.777 321.969L160.777 331.391ZM164.857 329.906L167.268 329.028L167.268 316.345L164.857 317.223L164.857 329.906Z" fill="#2D2E35"/>
    <path d="M423.716 253.734C423.493 254.536 422.815 255.249 421.932 255.57C420.701 256.018 419.9 255.387 419.9 254.042L419.9 253.884L426.003 251.662L426.003 250.88C426.003 248.015 424.376 246.753 421.8 247.691C419.181 248.643 417.53 251.196 417.53 254.202C417.53 257.216 419.165 258.476 421.89 257.484C424.079 256.687 425.665 254.871 425.929 252.929L423.716 253.734ZM421.824 249.58C422.898 249.189 423.633 249.748 423.683 250.934L419.925 252.302C420.007 251.094 420.767 249.965 421.824 249.58ZM427.251 255.331L429.662 254.453L429.662 248.766C429.662 247.712 430.282 246.748 431.198 246.414C432.09 246.09 432.627 246.492 432.627 247.503L432.627 253.374L434.948 252.529L434.948 246.807C434.948 245.761 435.551 244.83 436.468 244.496C437.401 244.157 437.913 244.568 437.913 245.658L437.913 251.45L440.325 250.572L440.325 244.138C440.325 242.24 439.16 241.398 437.426 242.03C436.129 242.501 435.072 243.633 434.675 244.964L434.626 244.982C434.329 243.86 433.437 243.481 432.156 243.947C430.951 244.386 430.001 245.479 429.629 246.748L429.58 246.766L429.58 245.061L427.251 245.909L427.251 255.331ZM444.479 249.209C445.586 248.807 446.684 247.818 447.18 246.636L447.229 246.618L447.229 248.059L449.558 247.211L449.558 240.734C449.558 238.835 448.08 238.125 445.809 238.952C443.463 239.806 442.001 241.595 441.91 243.456L444.115 242.653C444.231 241.917 444.801 241.235 445.701 240.907C446.61 240.576 447.188 240.876 447.188 241.755L447.188 242.379L444.958 243.331C442.753 244.274 441.514 245.718 441.514 247.432C441.514 249.128 442.794 249.823 444.479 249.209ZM445.272 247.066C444.454 247.364 443.909 247.123 443.909 246.42C443.909 245.752 444.421 245.135 445.321 244.737L447.188 243.934L447.188 244.62C447.188 245.639 446.321 246.685 445.272 247.066ZM452.358 235.496C453.06 235.24 453.613 234.441 453.613 233.721C453.613 232.991 453.06 232.604 452.358 232.859C451.656 233.115 451.103 233.905 451.103 234.635C451.103 235.355 451.656 235.751 452.358 235.496ZM451.16 246.628L453.572 245.75L453.572 236.328L451.16 237.206L451.16 246.628ZM455.24 245.143L457.652 244.265L457.652 231.583L455.24 232.461L455.24 245.143Z" fill="white"/>
    <path d="M411.785 327.791L414.196 326.913L414.196 321.226C414.196 320.172 414.816 319.208 415.732 318.874C416.624 318.55 417.161 318.952 417.161 319.963L417.161 325.834L419.482 324.989L419.482 319.267C419.482 318.221 420.085 317.29 421.002 316.956C421.935 316.617 422.447 317.028 422.447 318.118L422.447 323.91L424.859 323.032L424.859 316.598C424.859 314.7 423.694 313.858 421.96 314.49C420.663 314.961 419.606 316.093 419.209 317.424L419.16 317.442C418.863 316.32 417.971 315.941 416.69 316.407C415.485 316.846 414.535 317.939 414.163 319.208L414.114 319.226L414.114 317.521L411.785 318.369L411.785 327.791ZM429.013 321.669C430.12 321.267 431.218 320.278 431.714 319.096L431.763 319.078L431.763 320.519L434.092 319.671L434.092 313.194C434.092 311.295 432.614 310.585 430.343 311.412C427.997 312.266 426.535 314.055 426.444 315.916L428.65 315.113C428.765 314.377 429.335 313.695 430.235 313.367C431.144 313.036 431.722 313.336 431.722 314.215L431.722 314.839L429.492 315.791C427.287 316.734 426.048 318.178 426.048 319.892C426.048 321.588 427.328 322.283 429.013 321.669ZM429.806 319.526C428.988 319.824 428.443 319.583 428.443 318.88C428.443 318.212 428.955 317.595 429.855 317.197L431.722 316.394L431.722 317.08C431.722 318.099 430.855 319.145 429.806 319.526ZM435.653 319.103L438.065 318.225L438.065 312.961C438.065 311.634 438.759 310.608 439.948 310.175C440.295 310.049 440.625 309.99 440.823 310.006L440.823 307.747C440.658 307.754 440.419 307.797 440.138 307.9C439.097 308.278 438.346 309.202 438.032 310.512L437.982 310.53L437.982 308.834L435.653 309.681L435.653 319.103ZM442.459 305.033L442.459 307.204L441.211 307.658L441.211 309.592L442.459 309.138L442.459 314.086C442.459 315.923 443.268 316.367 445.349 315.609C445.837 315.432 446.249 315.238 446.497 315.086L446.497 313.196C446.349 313.277 446.126 313.375 445.911 313.454C445.201 313.712 444.87 313.49 444.87 312.769L444.87 308.26L446.506 307.665L446.506 305.731L444.87 306.327L444.87 304.156L442.459 305.033ZM449.066 303.525C449.768 303.27 450.321 302.47 450.321 301.75C450.321 301.02 449.768 300.633 449.066 300.888C448.364 301.144 447.81 301.934 447.81 302.664C447.81 303.384 448.364 303.781 449.066 303.525ZM447.868 314.657L450.28 313.779L450.28 304.358L447.868 305.235L447.868 314.657ZM451.89 313.193L454.302 312.316L454.302 306.91C454.302 305.689 454.988 304.595 456.069 304.202C457.151 303.808 457.696 304.312 457.696 305.543L457.696 311.08L460.108 310.202L460.108 304.129C460.108 301.923 459.001 301.007 457.036 301.723C455.673 302.219 454.74 303.244 454.269 304.584L454.219 304.602L454.219 302.924L451.89 303.771L451.89 313.193ZM468.499 294.413C464.378 295.913 461.512 299.927 461.512 304.286C461.512 308.83 464.452 310.537 468.631 309.016C469.523 308.691 470.366 308.271 471.01 307.825L471.01 306.419C470.539 306.775 469.639 307.226 468.755 307.547C465.353 308.786 463.032 307.477 463.032 303.777C463.032 300.244 465.262 296.989 468.441 295.831C471.572 294.692 473.645 296.003 473.645 299.202C473.645 301.074 473.083 302.377 472.274 302.672C471.753 302.861 471.489 302.571 471.489 301.964L471.489 297.262L469.812 297.872L469.812 298.927L469.697 298.969C469.375 298.313 468.631 298.109 467.739 298.433C466.088 299.035 464.956 300.906 464.956 303.041C464.956 305.274 466.104 306.341 467.822 305.716C468.78 305.367 469.474 304.64 469.812 303.638L469.928 303.596C470.11 304.382 470.894 304.624 471.919 304.251C473.934 303.518 475.164 301.286 475.164 298.517C475.164 294.606 472.414 292.988 468.499 294.413ZM468.227 299.856C469.11 299.534 469.664 300.115 469.664 301.381C469.664 302.646 469.11 303.63 468.218 303.954C467.351 304.27 466.831 303.686 466.831 302.412C466.831 301.128 467.351 300.174 468.227 299.856ZM480.632 306.283C483.283 305.318 485.05 303.233 485.05 300.992L485.05 291.702L482.672 292.568L482.672 294.211L482.63 294.226C482.168 293.314 481.169 292.966 479.897 293.429C477.65 294.246 476.263 296.588 476.263 299.576C476.263 302.521 477.692 303.776 479.855 302.988C481.136 302.523 482.176 301.458 482.589 300.306L482.639 300.288L482.639 301.94C482.639 303.03 481.945 304.012 480.698 304.466C479.781 304.8 479.087 304.613 478.897 304.032L476.535 304.891C476.725 306.501 478.303 307.131 480.632 306.283ZM480.673 300.713C479.476 301.149 478.732 300.418 478.732 298.695C478.732 296.981 479.484 295.635 480.673 295.203C481.879 294.764 482.647 295.574 482.647 297.27C482.647 298.975 481.879 300.274 480.673 300.713ZM486.628 300.55L489.039 299.672L489.039 293.986C489.039 292.931 489.659 291.967 490.576 291.634C491.468 291.309 492.004 291.711 492.004 292.722L492.004 298.593L494.325 297.748L494.325 292.027C494.325 290.981 494.928 290.049 495.845 289.716C496.778 289.376 497.29 289.787 497.29 290.877L497.29 296.669L499.702 295.791L499.702 289.358C499.702 287.459 498.537 286.618 496.803 287.249C495.506 287.721 494.449 288.853 494.053 290.183L494.003 290.201C493.706 289.079 492.814 288.701 491.534 289.167C490.328 289.606 489.378 290.698 489.006 291.967L488.957 291.985L488.957 290.28L486.628 291.128L486.628 300.55ZM503.856 294.429C504.963 294.026 506.061 293.037 506.557 291.855L506.606 291.837L506.606 293.278L508.935 292.431L508.935 285.953C508.935 284.055 507.457 283.345 505.186 284.171C502.84 285.025 501.378 286.814 501.288 288.675L503.493 287.873C503.608 287.136 504.178 286.454 505.078 286.126C505.987 285.796 506.565 286.095 506.565 286.974L506.565 287.598L504.335 288.55C502.13 289.494 500.891 290.938 500.891 292.651C500.891 294.348 502.171 295.042 503.856 294.429ZM504.649 292.286C503.831 292.583 503.286 292.342 503.286 291.639C503.286 290.971 503.798 290.354 504.699 289.956L506.565 289.154L506.565 289.839C506.565 290.859 505.698 291.904 504.649 292.286ZM511.735 280.715C512.437 280.46 512.991 279.661 512.991 278.94C512.991 278.21 512.437 277.823 511.735 278.079C511.033 278.334 510.48 279.124 510.48 279.854C510.48 280.575 511.033 280.971 511.735 280.715ZM510.538 291.847L512.949 290.97L512.949 281.548L510.538 282.426L510.538 291.847ZM514.618 290.362L517.029 289.485L517.029 276.802L514.618 277.68L514.618 290.362ZM520.226 288.427C520.961 288.159 521.555 287.31 521.555 286.528C521.555 285.737 520.961 285.329 520.226 285.597C519.482 285.867 518.896 286.705 518.896 287.496C518.896 288.278 519.482 288.697 520.226 288.427ZM531.028 278.474C530.921 276.378 529.401 275.358 527.006 276.229C524.355 277.194 522.662 279.691 522.662 282.715C522.662 285.791 524.355 287.02 527.023 286.05C529.352 285.202 530.913 283.201 531.037 280.932L528.79 281.75C528.641 282.832 528.014 283.676 527.047 284.028C525.85 284.464 525.107 283.68 525.107 281.825C525.107 280.006 525.85 278.663 527.039 278.23C528.03 277.869 528.65 278.347 528.79 279.289L531.028 278.474ZM536.265 282.686C538.94 281.712 540.65 279.27 540.65 276.168C540.65 273.109 538.916 271.895 536.265 272.86C533.613 273.825 531.879 276.31 531.879 279.36C531.879 282.454 533.589 283.66 536.265 282.686ZM536.265 280.726C535.075 281.159 534.324 280.369 534.324 278.479C534.324 276.607 535.092 275.246 536.265 274.82C537.437 274.393 538.197 275.197 538.197 277.069C538.197 278.959 537.446 280.296 536.265 280.726ZM541.897 280.433L544.309 279.556L544.309 273.869C544.309 272.815 544.928 271.851 545.845 271.517C546.737 271.192 547.274 271.595 547.274 272.605L547.274 278.477L549.595 277.632L549.595 271.91C549.595 270.864 550.197 269.933 551.114 269.599C552.047 269.26 552.56 269.671 552.56 270.761L552.56 276.553L554.971 275.675L554.971 269.241C554.971 267.343 553.807 266.501 552.072 267.132C550.776 267.604 549.718 268.736 549.322 270.067L549.272 270.085C548.975 268.963 548.083 268.584 546.803 269.05C545.597 269.489 544.647 270.582 544.276 271.851L544.226 271.869L544.226 270.164L541.897 271.012L541.897 280.433Z" fill="#2D2E35"/>
    <path d="M415.832 398.738C418.483 397.773 420.25 395.688 420.25 393.447L420.25 384.157L417.872 385.022L417.872 386.666L417.83 386.681C417.368 385.768 416.368 385.42 415.096 385.883C412.85 386.701 411.463 389.043 411.463 392.031C411.463 394.975 412.891 396.231 415.055 395.443C416.335 394.977 417.376 393.913 417.789 392.76L417.838 392.742L417.838 394.395C417.838 395.485 417.145 396.467 415.898 396.921C414.981 397.254 414.287 397.067 414.097 396.486L411.735 397.346C411.925 398.955 413.502 399.585 415.832 398.738ZM415.873 393.168C414.675 393.604 413.932 392.872 413.932 391.15C413.932 389.436 414.684 388.09 415.873 387.657C417.079 387.218 417.847 388.029 417.847 389.725C417.847 391.43 417.079 392.729 415.873 393.168ZM427.691 387.987C427.468 388.789 426.791 389.501 425.908 389.823C424.677 390.271 423.876 389.64 423.876 388.295L423.876 388.137L429.979 385.915L429.979 385.133C429.979 382.268 428.352 381.006 425.775 381.943C423.157 382.896 421.505 385.449 421.505 388.455C421.505 391.469 423.141 392.729 425.866 391.737C428.055 390.94 429.641 389.124 429.905 387.182L427.691 387.987ZM425.8 383.833C426.874 383.442 427.609 384.001 427.658 385.187L423.901 386.555C423.983 385.347 424.743 384.218 425.8 383.833ZM435.29 388.307C437.966 387.333 439.675 384.891 439.675 381.789C439.675 378.73 437.941 377.516 435.29 378.481C432.639 379.445 430.904 381.931 430.904 384.981C430.904 388.075 432.614 389.281 435.29 388.307ZM435.29 386.347C434.1 386.78 433.349 385.99 433.349 384.1C433.349 382.228 434.117 380.867 435.29 380.44C436.463 380.014 437.222 380.818 437.222 382.69C437.222 384.58 436.471 385.917 435.29 386.347ZM440.922 386.054L443.334 385.177L443.334 379.912C443.334 378.585 444.028 377.559 445.217 377.126C445.564 377 445.894 376.941 446.093 376.957L446.093 374.698C445.927 374.705 445.688 374.749 445.407 374.851C444.366 375.23 443.615 376.154 443.301 377.463L443.251 377.481L443.251 375.785L440.922 376.633L440.922 386.054ZM450.833 385.998C453.484 385.033 455.252 382.948 455.252 380.707L455.252 371.417L452.873 372.283L452.873 373.926L452.832 373.941C452.369 373.029 451.37 372.681 450.098 373.143C447.852 373.961 446.464 376.303 446.464 379.291C446.464 382.236 447.893 383.491 450.057 382.703C451.337 382.237 452.378 381.173 452.791 380.021L452.84 380.003L452.84 381.655C452.84 382.745 452.146 383.727 450.899 384.181C449.983 384.515 449.289 384.328 449.099 383.746L446.737 384.606C446.927 386.216 448.504 386.846 450.833 385.998ZM450.875 380.428C449.677 380.864 448.934 380.133 448.934 378.41C448.934 376.696 449.685 375.35 450.875 374.918C452.08 374.479 452.848 375.289 452.848 376.985C452.848 378.69 452.08 379.989 450.875 380.428ZM462.693 375.248C462.47 376.05 461.793 376.762 460.909 377.084C459.679 377.531 458.878 376.9 458.878 375.555L458.878 375.397L464.981 373.176L464.981 372.394C464.981 369.528 463.354 368.266 460.777 369.204C458.159 370.157 456.507 372.709 456.507 375.715C456.507 378.73 458.142 379.989 460.868 378.997C463.057 378.2 464.642 376.384 464.907 374.442L462.693 375.248ZM460.802 371.093C461.876 370.703 462.611 371.261 462.66 372.447L458.902 373.815C458.985 372.607 459.745 371.478 460.802 371.093ZM473.091 361.611C468.97 363.111 466.104 367.124 466.104 371.484C466.104 376.028 469.044 377.735 473.223 376.214C474.115 375.889 474.958 375.468 475.602 375.023L475.602 373.617C475.131 373.973 474.231 374.423 473.347 374.745C469.945 375.983 467.624 374.675 467.624 370.975C467.624 367.441 469.854 364.186 473.033 363.029C476.164 361.89 478.237 363.201 478.237 366.4C478.237 368.272 477.675 369.575 476.866 369.87C476.345 370.059 476.081 369.768 476.081 369.162L476.081 364.46L474.404 365.07L474.404 366.125L474.289 366.167C473.967 365.511 473.223 365.307 472.331 365.631C470.68 366.232 469.548 368.103 469.548 370.239C469.548 372.471 470.696 373.539 472.414 372.914C473.372 372.565 474.066 371.838 474.404 370.836L474.52 370.794C474.702 371.58 475.486 371.822 476.511 371.449C478.526 370.716 479.756 368.484 479.756 365.715C479.756 361.804 477.006 360.186 473.091 361.611ZM472.819 367.054C473.702 366.732 474.256 367.313 474.256 368.578C474.256 369.844 473.702 370.828 472.81 371.152C471.943 371.468 471.423 370.884 471.423 369.609C471.423 368.326 471.943 367.372 472.819 367.054ZM485.224 373.481C487.875 372.516 489.642 370.431 489.642 368.19L489.642 358.9L487.264 359.766L487.264 361.409L487.222 361.424C486.76 360.512 485.761 360.163 484.489 360.626C482.242 361.444 480.855 363.786 480.855 366.774C480.855 369.718 482.284 370.974 484.447 370.186C485.728 369.72 486.768 368.656 487.181 367.504L487.231 367.486L487.231 369.138C487.231 370.228 486.537 371.21 485.29 371.664C484.373 371.997 483.679 371.811 483.489 371.229L481.127 372.089C481.317 373.699 482.895 374.329 485.224 373.481ZM485.265 367.911C484.068 368.347 483.324 367.616 483.324 365.893C483.324 364.179 484.076 362.833 485.265 362.4C486.471 361.962 487.239 362.772 487.239 364.468C487.239 366.173 486.471 367.472 485.265 367.911ZM491.22 367.748L493.631 366.87L493.631 361.183C493.631 360.129 494.251 359.165 495.168 358.831C496.06 358.507 496.596 358.909 496.596 359.92L496.596 365.791L498.917 364.946L498.917 359.224C498.917 358.178 499.52 357.247 500.437 356.913C501.37 356.574 501.882 356.985 501.882 358.075L501.882 363.867L504.294 362.989L504.294 356.556C504.294 354.657 503.129 353.815 501.395 354.447C500.098 354.919 499.041 356.05 498.645 357.381L498.595 357.399C498.298 356.277 497.406 355.899 496.126 356.364C494.92 356.803 493.97 357.896 493.598 359.165L493.549 359.183L493.549 357.478L491.22 358.326L491.22 367.748ZM508.448 361.627C509.555 361.224 510.653 360.235 511.149 359.053L511.198 359.035L511.198 360.476L513.527 359.628L513.527 353.151C513.527 351.252 512.049 350.542 509.778 351.369C507.432 352.223 505.97 354.012 505.88 355.873L508.085 355.07C508.2 354.334 508.77 353.652 509.67 353.324C510.579 352.994 511.157 353.293 511.157 354.172L511.157 354.796L508.927 355.748C506.722 356.691 505.483 358.135 505.483 359.849C505.483 361.546 506.763 362.24 508.448 361.627ZM509.241 359.483C508.423 359.781 507.878 359.54 507.878 358.837C507.878 358.169 508.39 357.552 509.291 357.154L511.157 356.351L511.157 357.037C511.157 358.057 510.29 359.102 509.241 359.483ZM516.327 347.913C517.029 347.658 517.583 346.858 517.583 346.138C517.583 345.408 517.029 345.021 516.327 345.276C515.625 345.532 515.072 346.322 515.072 347.052C515.072 347.772 515.625 348.169 516.327 347.913ZM515.13 359.045L517.541 358.167L517.541 348.746L515.13 349.623L515.13 359.045ZM519.21 357.56L521.621 356.682L521.621 344L519.21 344.878L519.21 357.56ZM524.818 355.625C525.553 355.357 526.147 354.508 526.147 353.726C526.147 352.935 525.553 352.527 524.818 352.795C524.074 353.065 523.488 353.903 523.488 354.694C523.488 355.476 524.074 355.895 524.818 355.625ZM535.62 345.672C535.513 343.576 533.993 342.555 531.598 343.427C528.947 344.392 527.254 346.889 527.254 349.913C527.254 352.989 528.947 354.218 531.615 353.247C533.944 352.4 535.505 350.399 535.629 348.13L533.382 348.948C533.233 350.03 532.606 350.874 531.639 351.226C530.442 351.661 529.699 350.877 529.699 349.023C529.699 347.203 530.442 345.861 531.631 345.428C532.622 345.067 533.242 345.545 533.382 346.487L535.62 345.672ZM540.857 349.884C543.532 348.91 545.242 346.468 545.242 343.365C545.242 340.307 543.508 339.092 540.857 340.057C538.205 341.022 536.471 343.508 536.471 346.558C536.471 349.652 538.181 350.858 540.857 349.884ZM540.857 347.924C539.667 348.356 538.916 347.567 538.916 345.677C538.916 343.805 539.684 342.444 540.857 342.017C542.029 341.59 542.789 342.395 542.789 344.267C542.789 346.157 542.038 347.494 540.857 347.924ZM546.489 347.631L548.901 346.754L548.901 341.067C548.901 340.012 549.52 339.049 550.437 338.715C551.329 338.39 551.866 338.793 551.866 339.803L551.866 345.674L554.187 344.83L554.187 339.108C554.187 338.062 554.789 337.131 555.706 336.797C556.64 336.457 557.152 336.869 557.152 337.958L557.152 343.75L559.563 342.873L559.563 336.439C559.563 334.541 558.399 333.699 556.664 334.33C555.368 334.802 554.31 335.934 553.914 337.265L553.864 337.283C553.567 336.161 552.675 335.782 551.395 336.248C550.189 336.687 549.239 337.78 548.868 339.049L548.818 339.067L548.818 337.362L546.489 338.209L546.489 347.631Z" fill="#2D2E35"/>
    <path d="M257 292.585C257 288.167 260.366 283.36 264.518 281.849L380.22 239.736C384.372 238.225 387.738 240.582 387.738 245L387.738 283.847C387.738 288.265 384.372 293.072 380.22 294.583L264.518 336.695C260.366 338.207 257 335.85 257 331.432L257 312.008L257 292.585Z" fill="#3C4257"/>
    <path d="M257 351.689C257 347.713 260.029 343.387 263.766 342.027L380.972 299.367C384.709 298.007 387.738 300.128 387.738 304.105L387.738 355.149C387.738 359.125 384.709 363.452 380.972 364.812L263.766 407.471C260.029 408.831 257 406.71 257 402.734L257 377.211L257 351.689Z" fill="#FBE582"/>
    <path d="M257 421.785C257 417.809 260.029 413.482 263.766 412.122L380.972 369.463C384.709 368.103 387.738 370.224 387.738 374.2L387.738 425.245C387.738 429.221 384.709 433.547 380.972 434.907L263.766 477.567C260.029 478.927 257 476.806 257 472.829L257 447.307L257 421.785Z" fill="#FBE582"/>
    <path d="M257 492.785C257 488.809 260.029 484.482 263.766 483.122L380.972 440.463C384.709 439.103 387.738 441.224 387.738 445.2L387.738 496.245C387.738 500.221 384.709 504.547 380.972 505.907L263.766 548.567C260.029 549.927 257 547.806 257 543.829L257 518.307L257 492.785Z" fill="#FBE582"/>
    <path d="M293.314 294.069L290.902 294.946L290.902 300.343C290.902 301.591 290.233 302.652 289.159 303.043C288.094 303.43 287.507 302.976 287.507 301.719L287.507 296.182L285.096 297.06L285.096 303.133C285.096 305.33 286.368 306.194 288.284 305.497C289.622 305.01 290.497 304.006 290.935 302.66L290.985 302.642L290.985 304.338L293.314 303.491L293.314 294.069ZM294.734 296.32C294.734 297.735 295.601 298.334 297.311 298.098L298.822 297.882C299.69 297.777 299.995 297.947 299.995 298.448C299.995 299.064 299.433 299.664 298.525 299.994C297.567 300.343 297.014 300.105 296.865 299.333L294.511 300.189C294.668 301.987 296.08 302.686 298.525 301.796C300.804 300.966 302.398 299.164 302.398 297.31C302.398 295.93 301.639 295.433 299.789 295.693L298.277 295.901C297.385 296.023 297.055 295.818 297.055 295.335C297.055 294.711 297.608 294.105 298.442 293.802C299.334 293.477 299.871 293.8 299.946 294.538L302.167 293.729C302.118 291.901 300.714 291.173 298.442 292C296.188 292.82 294.734 294.527 294.734 296.32ZM309.452 294.734C309.229 295.536 308.551 296.248 307.668 296.57C306.437 297.018 305.636 296.386 305.636 295.042L305.636 294.884L311.739 292.662L311.739 291.88C311.739 289.015 310.112 287.752 307.536 288.69C304.917 289.643 303.266 292.195 303.266 295.201C303.266 298.216 304.901 299.475 307.626 298.483C309.815 297.687 311.401 295.87 311.665 293.928L309.452 294.734ZM307.56 290.58C308.634 290.189 309.369 290.747 309.419 291.934L305.661 293.301C305.743 292.093 306.503 290.964 307.56 290.58ZM312.987 296.33L315.398 295.452L315.398 290.188C315.398 288.861 316.092 287.835 317.281 287.402C317.628 287.276 317.958 287.217 318.157 287.233L318.157 284.974C317.991 284.981 317.752 285.024 317.471 285.127C316.431 285.505 315.679 286.429 315.365 287.739L315.316 287.757L315.316 286.061L312.987 286.908L312.987 296.33ZM319.148 294.088L321.559 293.21L321.559 287.805C321.559 286.583 322.245 285.49 323.327 285.096C324.409 284.702 324.954 285.207 324.954 286.437L324.954 291.974L327.365 291.097L327.365 285.023C327.365 282.817 326.259 281.902 324.293 282.617C322.93 283.113 321.997 284.139 321.526 285.479L321.477 285.497L321.477 283.818L319.148 284.666L319.148 294.088ZM331.52 289.734C332.626 289.331 333.725 288.343 334.22 287.16L334.27 287.142L334.27 288.584L336.599 287.736L336.599 281.258C336.599 279.36 335.121 278.65 332.849 279.477C330.504 280.33 329.042 282.119 328.951 283.98L331.156 283.178C331.272 282.441 331.842 281.759 332.742 281.432C333.651 281.101 334.229 281.4 334.229 282.279L334.229 282.903L331.999 283.856C329.794 284.799 328.555 286.243 328.555 287.957C328.555 289.653 329.835 290.347 331.52 289.734ZM332.313 287.591C331.495 287.889 330.95 287.648 330.95 286.944C330.95 286.276 331.462 285.659 332.362 285.261L334.229 284.459L334.229 285.145C334.229 286.164 333.362 287.209 332.313 287.591ZM338.16 287.168L340.572 286.29L340.572 280.604C340.572 279.549 341.191 278.585 342.108 278.251C343 277.927 343.537 278.329 343.537 279.34L343.537 285.211L345.857 284.366L345.857 278.645C345.857 277.599 346.46 276.667 347.377 276.334C348.31 275.994 348.822 276.405 348.822 277.495L348.822 283.287L351.234 282.409L351.234 275.976C351.234 274.077 350.07 273.235 348.335 273.867C347.038 274.339 345.981 275.471 345.585 276.801L345.535 276.819C345.238 275.697 344.346 275.319 343.066 275.785C341.86 276.223 340.91 277.316 340.539 278.585L340.489 278.603L340.489 276.898L338.16 277.746L338.16 287.168ZM358.626 276.836C358.403 277.638 357.726 278.35 356.842 278.672C355.611 279.12 354.81 278.488 354.81 277.144L354.81 276.986L360.914 274.764L360.914 273.982C360.914 271.117 359.287 269.854 356.71 270.792C354.092 271.745 352.44 274.298 352.44 277.303C352.44 280.318 354.075 281.577 356.801 280.585C358.989 279.789 360.575 277.972 360.839 276.03L358.626 276.836ZM356.735 272.682C357.808 272.291 358.543 272.849 358.593 274.036L354.835 275.403C354.918 274.196 355.677 273.066 356.735 272.682Z" fill="white"/>
    <path d="M285.611 373.428L285.611 360.745L282.72 361.797L279.334 372.135L279.268 372.159L275.882 364.286L272.991 365.338L272.991 378.021L275.213 377.212L275.213 368.652L275.279 368.628L278.516 376.01L280.086 375.439L283.323 365.7L283.389 365.676L283.389 374.237L285.611 373.428ZM289.831 372.041C290.938 371.638 292.036 370.65 292.532 369.467L292.581 369.449L292.581 370.891L294.911 370.043L294.911 363.566C294.911 361.667 293.432 360.957 291.161 361.784C288.815 362.638 287.354 364.426 287.263 366.288L289.468 365.485C289.583 364.749 290.153 364.067 291.054 363.739C291.962 363.408 292.54 363.708 292.54 364.586L292.54 365.211L290.31 366.163C288.105 367.106 286.866 368.55 286.866 370.264C286.866 371.96 288.146 372.654 289.831 372.041ZM290.624 369.898C289.806 370.196 289.261 369.955 289.261 369.252C289.261 368.584 289.773 367.967 290.674 367.569L292.54 366.766L292.54 367.452C292.54 368.471 291.673 369.516 290.624 369.898ZM296.471 369.475L298.883 368.597L298.883 363.333C298.883 362.005 299.577 360.979 300.766 360.547C301.113 360.42 301.443 360.362 301.642 360.377L301.642 358.119C301.476 358.126 301.237 358.169 300.956 358.271C299.915 358.65 299.164 359.574 298.85 360.884L298.801 360.902L298.801 359.205L296.471 360.053L296.471 369.475ZM303.277 355.405L303.277 357.576L302.03 358.03L302.03 359.964L303.277 359.51L303.277 364.458C303.277 366.295 304.086 366.739 306.168 365.981C306.655 365.804 307.068 365.609 307.316 365.458L307.316 363.568C307.167 363.649 306.944 363.747 306.729 363.825C306.019 364.084 305.689 363.861 305.689 363.141L305.689 358.632L307.324 358.037L307.324 356.103L305.689 356.698L305.689 354.527L303.277 355.405ZM309.884 353.897C310.586 353.641 311.139 352.842 311.139 352.122C311.139 351.392 310.586 351.005 309.884 351.26C309.182 351.516 308.629 352.306 308.629 353.035C308.629 353.756 309.182 354.152 309.884 353.897ZM308.687 365.029L311.098 364.151L311.098 354.729L308.687 355.607L308.687 365.029ZM312.709 363.565L315.12 362.687L315.12 357.282C315.12 356.06 315.806 354.967 316.888 354.573C317.97 354.18 318.515 354.684 318.515 355.915L318.515 361.452L320.926 360.574L320.926 354.501C320.926 352.295 319.82 351.379 317.854 352.095C316.491 352.591 315.558 353.616 315.087 354.956L315.038 354.974L315.038 353.296L312.709 354.143L312.709 363.565Z" fill="#2D2E35"/>
    <path d="M283.904 439.714L283.904 438.281L278.883 440.109L278.883 442.042L281.476 441.098L281.468 441.304C281.418 442.895 280.287 444.37 278.66 444.962C276.677 445.684 275.422 444.462 275.422 441.711C275.422 439.013 276.603 436.992 278.569 436.277C279.915 435.787 280.931 436.208 281.294 437.403L283.797 436.492C283.441 434.055 281.344 433.069 278.56 434.082C275.059 435.357 272.878 438.611 272.878 442.672C272.878 446.794 275.059 448.47 278.618 447.175C281.938 445.966 283.904 443.168 283.904 439.714ZM291.213 439.497C290.99 440.299 290.313 441.011 289.429 441.332C288.199 441.78 287.398 441.149 287.398 439.804L287.398 439.646L293.501 437.425L293.501 436.642C293.501 433.777 291.874 432.515 289.297 433.453C286.679 434.406 285.027 436.958 285.027 439.964C285.027 442.979 286.663 444.238 289.388 443.246C291.577 442.449 293.162 440.633 293.427 438.691L291.213 439.497ZM289.322 435.342C290.396 434.951 291.131 435.51 291.18 436.696L287.422 438.064C287.505 436.856 288.265 435.727 289.322 435.342ZM298.812 439.816C301.487 438.842 303.197 436.401 303.197 433.298C303.197 430.239 301.463 429.025 298.812 429.99C296.16 430.955 294.426 433.441 294.426 436.49C294.426 439.584 296.136 440.79 298.812 439.816ZM298.812 437.856C297.622 438.289 296.871 437.499 296.871 435.609C296.871 433.737 297.639 432.377 298.812 431.95C299.984 431.523 300.744 432.327 300.744 434.2C300.744 436.089 299.993 437.426 298.812 437.856ZM304.444 437.564L306.856 436.686L306.856 431.421C306.856 430.094 307.55 429.068 308.739 428.635C309.086 428.509 309.416 428.45 309.614 428.466L309.614 426.207C309.449 426.215 309.21 426.258 308.929 426.36C307.888 426.739 307.137 427.663 306.823 428.972L306.773 428.991L306.773 427.294L304.444 428.142L304.444 437.564ZM314.355 437.507C317.006 436.542 318.774 434.458 318.774 432.216L318.774 422.926L316.395 423.792L316.395 425.436L316.354 425.451C315.891 424.538 314.892 424.19 313.62 424.653C311.373 425.47 309.986 427.812 309.986 430.801C309.986 433.745 311.415 435 313.579 434.213C314.859 433.747 315.899 432.683 316.312 431.53L316.362 431.512L316.362 433.165C316.362 434.254 315.668 435.236 314.421 435.69C313.504 436.024 312.811 435.837 312.621 435.256L310.259 436.116C310.448 437.725 312.026 438.355 314.355 437.507ZM314.396 431.938C313.199 432.373 312.455 431.642 312.455 429.919C312.455 428.206 313.207 426.86 314.396 426.427C315.602 425.988 316.37 426.798 316.37 428.495C316.37 430.2 315.602 431.499 314.396 431.938ZM326.215 426.757C325.992 427.559 325.315 428.271 324.431 428.593C323.2 429.041 322.399 428.41 322.399 427.065L322.399 426.907L328.503 424.685L328.503 423.903C328.503 421.038 326.876 419.775 324.299 420.713C321.681 421.666 320.029 424.219 320.029 427.224C320.029 430.239 321.664 431.498 324.39 430.506C326.578 429.71 328.164 427.893 328.428 425.951L326.215 426.757ZM324.324 422.603C325.397 422.212 326.132 422.771 326.182 423.957L322.424 425.324C322.507 424.117 323.266 422.987 324.324 422.603Z" fill="#2D2E35"/>
    <path d="M280.644 517.473L283.295 516.508L279.149 505.335L276.217 506.402L272.079 520.591L274.639 519.659L275.548 516.252L279.735 514.728L280.644 517.473ZM277.612 508.32L277.67 508.299L279.198 512.937L276.085 514.07L277.612 508.32ZM284.311 516.139L286.722 515.261L286.722 509.856C286.722 508.634 287.408 507.541 288.49 507.147C289.572 506.753 290.117 507.258 290.117 508.488L290.117 514.025L292.528 513.148L292.528 507.074C292.528 504.868 291.422 503.953 289.456 504.668C288.093 505.164 287.16 506.19 286.689 507.53L286.64 507.548L286.64 505.869L284.311 506.717L284.311 516.139ZM294.056 512.592L296.468 511.714L296.468 506.309C296.468 505.087 297.153 503.994 298.235 503.6C299.317 503.206 299.862 503.711 299.862 504.941L299.862 510.478L302.274 509.601L302.274 503.527C302.274 501.321 301.167 500.406 299.202 501.121C297.839 501.617 296.906 502.642 296.435 503.983L296.385 504.001L296.385 502.322L294.056 503.17L294.056 512.592Z" fill="#2D2E35"/>
    <path d="M419.411 467.592C420.518 467.19 421.616 466.201 422.112 465.019L422.161 465.001L422.161 466.442L424.49 465.594L424.49 459.117C424.49 457.218 423.012 456.508 420.741 457.335C418.395 458.189 416.933 459.978 416.842 461.839L419.048 461.036C419.163 460.3 419.733 459.618 420.633 459.29C421.542 458.96 422.12 459.259 422.12 460.138L422.12 460.762L419.89 461.714C417.685 462.657 416.446 464.101 416.446 465.815C416.446 467.512 417.726 468.206 419.411 467.592ZM420.204 465.449C419.386 465.747 418.841 465.506 418.841 464.803C418.841 464.135 419.353 463.518 420.253 463.12L422.12 462.317L422.12 463.003C422.12 464.023 421.253 465.068 420.204 465.449ZM426.051 465.026L428.463 464.148L428.463 458.743C428.463 457.522 429.148 456.428 430.23 456.034C431.312 455.641 431.857 456.145 431.857 457.376L431.857 462.913L434.269 462.035L434.269 455.962C434.269 453.756 433.162 452.84 431.197 453.556C429.834 454.052 428.901 455.077 428.43 456.417L428.38 456.435L428.38 454.757L426.051 455.604L426.051 465.026ZM435.797 461.479L438.208 460.601L438.208 455.196C438.208 453.974 438.894 452.881 439.976 452.487C441.058 452.094 441.603 452.598 441.603 453.829L441.603 459.366L444.015 458.488L444.015 452.415C444.015 450.209 442.908 449.293 440.942 450.009C439.579 450.505 438.646 451.53 438.175 452.87L438.126 452.888L438.126 451.21L435.797 452.057L435.797 461.479ZM452.406 442.699C448.284 444.199 445.419 448.212 445.419 452.572C445.419 457.116 448.359 458.823 452.538 457.302C453.43 456.977 454.272 456.556 454.916 456.111L454.916 454.705C454.446 455.061 453.545 455.511 452.662 455.833C449.259 457.071 446.938 455.763 446.938 452.063C446.938 448.529 449.168 445.274 452.348 444.117C455.478 442.978 457.551 444.289 457.551 447.488C457.551 449.36 456.99 450.663 456.18 450.958C455.66 451.147 455.396 450.857 455.396 450.25L455.396 445.548L453.719 446.158L453.719 447.213L453.603 447.255C453.281 446.599 452.538 446.395 451.646 446.719C449.994 447.321 448.863 449.191 448.863 451.327C448.863 453.559 450.011 454.627 451.729 454.002C452.687 453.653 453.38 452.926 453.719 451.924L453.835 451.882C454.016 452.668 454.801 452.91 455.825 452.537C457.84 451.804 459.071 449.572 459.071 446.803C459.071 442.892 456.321 441.274 452.406 442.699ZM452.133 448.142C453.017 447.82 453.57 448.401 453.57 449.666C453.57 450.932 453.017 451.916 452.125 452.24C451.258 452.556 450.737 451.972 450.737 450.697C450.737 449.414 451.258 448.46 452.133 448.142ZM464.538 454.569C467.189 453.604 468.957 451.519 468.957 449.278L468.957 439.988L466.578 440.854L466.578 442.497L466.537 442.512C466.074 441.6 465.075 441.251 463.803 441.714C461.557 442.532 460.169 444.874 460.169 447.862C460.169 450.807 461.598 452.062 463.762 451.274C465.042 450.808 466.083 449.744 466.496 448.592L466.545 448.574L466.545 450.226C466.545 451.316 465.851 452.298 464.604 452.752C463.688 453.086 462.994 452.899 462.804 452.317L460.442 453.177C460.632 454.787 462.209 455.417 464.538 454.569ZM464.58 448.999C463.382 449.435 462.639 448.704 462.639 446.981C462.639 445.267 463.39 443.921 464.58 443.488C465.785 443.05 466.553 443.86 466.553 445.556C466.553 447.261 465.785 448.56 464.58 448.999ZM470.534 448.836L472.946 447.958L472.946 442.271C472.946 441.217 473.565 440.253 474.482 439.919C475.374 439.595 475.911 439.997 475.911 441.008L475.911 446.879L478.232 446.034L478.232 440.312C478.232 439.267 478.835 438.335 479.751 438.001C480.685 437.662 481.197 438.073 481.197 439.163L481.197 444.955L483.608 444.077L483.608 437.644C483.608 435.745 482.444 434.903 480.709 435.535C479.413 436.007 478.356 437.138 477.959 438.469L477.91 438.487C477.612 437.365 476.72 436.987 475.44 437.452C474.234 437.891 473.285 438.984 472.913 440.253L472.863 440.271L472.863 438.566L470.534 439.414L470.534 448.836ZM487.763 442.715C488.869 442.312 489.968 441.323 490.463 440.141L490.513 440.123L490.513 441.564L492.842 440.716L492.842 434.239C492.842 432.34 491.364 431.63 489.092 432.457C486.747 433.311 485.285 435.1 485.194 436.961L487.399 436.158C487.515 435.422 488.085 434.74 488.985 434.412C489.893 434.082 490.472 434.381 490.472 435.26L490.472 435.884L488.242 436.836C486.036 437.779 484.798 439.223 484.798 440.937C484.798 442.634 486.078 443.328 487.763 442.715ZM488.555 440.571C487.738 440.869 487.193 440.628 487.193 439.925C487.193 439.257 487.705 438.64 488.605 438.242L490.472 437.439L490.472 438.125C490.472 439.145 489.604 440.19 488.555 440.571ZM495.642 429.001C496.344 428.746 496.897 427.946 496.897 427.226C496.897 426.496 496.344 426.109 495.642 426.364C494.94 426.62 494.386 427.41 494.386 428.14C494.386 428.86 494.94 429.257 495.642 429.001ZM494.444 440.133L496.856 439.255L496.856 429.834L494.444 430.711L494.444 440.133ZM498.524 438.648L500.936 437.77L500.936 425.088L498.524 425.966L498.524 438.648ZM504.132 436.713C504.867 436.445 505.462 435.596 505.462 434.814C505.462 434.023 504.867 433.615 504.132 433.883C503.389 434.153 502.802 434.991 502.802 435.782C502.802 436.564 503.389 436.983 504.132 436.713ZM514.935 426.76C514.827 424.664 513.308 423.643 510.913 424.515C508.261 425.48 506.568 427.977 506.568 431.001C506.568 434.077 508.261 435.306 510.929 434.335C513.258 433.488 514.819 431.487 514.943 429.218L512.697 430.036C512.548 431.118 511.92 431.962 510.954 432.314C509.756 432.749 509.013 431.965 509.013 430.111C509.013 428.292 509.756 426.949 510.946 426.516C511.937 426.155 512.556 426.633 512.697 427.575L514.935 426.76ZM520.171 430.972C522.847 429.998 524.557 427.556 524.557 424.453C524.557 421.395 522.822 420.18 520.171 421.145C517.52 422.11 515.785 424.596 515.785 427.646C515.785 430.74 517.495 431.946 520.171 430.972ZM520.171 429.012C518.982 429.444 518.23 428.655 518.23 426.765C518.23 424.893 518.998 423.532 520.171 423.105C521.344 422.679 522.104 423.483 522.104 425.355C522.104 427.245 521.352 428.582 520.171 429.012ZM525.804 428.719L528.215 427.842L528.215 422.155C528.215 421.1 528.835 420.137 529.751 419.803C530.643 419.478 531.18 419.881 531.18 420.891L531.18 426.762L533.501 425.918L533.501 420.196C533.501 419.15 534.104 418.219 535.021 417.885C535.954 417.545 536.466 417.957 536.466 419.047L536.466 424.839L538.878 423.961L538.878 417.527C538.878 415.629 537.713 414.787 535.979 415.418C534.682 415.89 533.625 417.022 533.228 418.353L533.179 418.371C532.882 417.249 531.99 416.87 530.709 417.336C529.504 417.775 528.554 418.868 528.182 420.137L528.133 420.155L528.133 418.45L525.804 419.297L525.804 428.719Z" fill="#2D2E35"/>
    <path d="M135.267 189.365L132.773 190.273L132.773 198.473C132.773 201.268 134.714 202.46 137.77 201.348C140.817 200.239 142.758 197.634 142.758 194.839L142.758 186.639L140.264 187.547L140.264 195.483C140.264 197.109 139.364 198.5 137.77 199.08C136.167 199.664 135.267 198.928 135.267 197.302L135.267 189.365ZM144.393 192.073C144.393 193.488 145.261 194.086 146.97 193.851L148.482 193.635C149.349 193.53 149.654 193.7 149.654 194.201C149.654 194.816 149.093 195.416 148.184 195.747C147.226 196.096 146.673 195.858 146.524 195.085L144.17 195.942C144.327 197.74 145.74 198.438 148.184 197.549C150.464 196.719 152.058 194.917 152.058 193.063C152.058 191.683 151.298 191.186 149.448 191.446L147.936 191.653C147.045 191.776 146.714 191.571 146.714 191.088C146.714 190.464 147.268 189.858 148.102 189.554C148.994 189.23 149.53 189.553 149.605 190.29L151.826 189.482C151.777 187.654 150.373 186.926 148.102 187.753C145.847 188.573 144.393 190.28 144.393 192.073ZM159.111 190.487C158.888 191.289 158.211 192.001 157.327 192.323C156.096 192.77 155.295 192.139 155.295 190.794L155.295 190.636L161.399 188.415L161.399 187.633C161.399 184.767 159.772 183.505 157.195 184.443C154.577 185.396 152.925 187.948 152.925 190.954C152.925 193.969 154.56 195.228 157.286 194.236C159.474 193.439 161.06 191.623 161.324 189.681L159.111 190.487ZM157.22 186.332C158.293 185.942 159.028 186.5 159.078 187.686L155.32 189.054C155.403 187.846 156.162 186.717 157.22 186.332ZM162.646 192.083L165.057 191.205L165.057 185.941C165.057 184.613 165.751 183.587 166.94 183.155C167.287 183.028 167.618 182.97 167.816 182.985L167.816 180.727C167.651 180.734 167.411 180.777 167.13 180.879C166.09 181.258 165.338 182.182 165.024 183.492L164.975 183.51L164.975 181.813L162.646 182.661L162.646 192.083Z" fill="white"/>
    <path d="M53.8668 260.659L50.5779 261.856C49.0209 262.422 47.7588 264.225 47.7588 265.882L47.7588 324.233L47.7588 338.256L47.7588 395.731C47.7588 397.388 49.0209 398.271 50.5779 397.705L53.8668 396.508" stroke="#B8C0CD" stroke-width="2"/>
    <path d="M53.8668 408L50.5779 409.197C49.0209 409.763 47.7588 411.566 47.7588 413.223L47.7588 482.028L47.7588 494.784L47.7588 562.792C47.7588 564.449 49.0209 565.332 50.5779 564.766L53.8668 563.569" stroke="#B8C0CD" stroke-width="2"/>
    <path d="M31 356.633L31 355.273L23.9922 355.273L23.9922 353.617L22.875 353.617L22.875 355.281L21.9766 355.281C21.1719 355.281 20.7812 354.93 20.7812 354.195C20.7812 353.969 20.8047 353.742 20.8281 353.578L19.7266 353.578C19.6953 353.773 19.6641 354.102 19.6641 354.406C19.6641 355.906 20.4062 356.633 21.9687 356.633L22.875 356.633L22.875 357.766L23.9922 357.766L23.9922 356.633L31 356.633ZM21.4297 351.461C21.4297 350.984 21.0469 350.609 20.5781 350.609C20.1016 350.609 19.7266 350.984 19.7266 351.461C19.7266 351.93 20.1016 352.312 20.5781 352.312C21.0469 352.312 21.4297 351.93 21.4297 351.461ZM31 352.141L31 350.781L22.875 350.781L22.875 352.141L31 352.141ZM28.6719 343.555C29.4375 343.781 29.9609 344.539 29.9609 345.57C29.9609 347.031 28.9375 347.945 27.3828 347.945L27.3047 347.945L27.3047 342.117L26.7891 342.117C24.3281 342.117 22.7344 343.469 22.7344 345.664C22.7344 347.906 24.4453 349.344 26.9687 349.344C29.5234 349.344 31.1406 347.93 31.1406 345.602C31.1406 343.828 30.0937 342.453 28.6719 342.219L28.6719 343.555ZM23.9141 345.687C23.9141 344.406 24.8828 343.555 26.2422 343.523L26.2422 347.937C24.8906 347.852 23.9141 346.961 23.9141 345.687ZM31 340.672L31 339.312L19.7266 339.312L19.7266 340.672L31 340.672ZM31.1406 334.398C31.1406 333.227 30.5625 332.297 29.625 331.773L29.625 331.75L31 331.75L31 330.453L19.7266 330.453L19.7266 331.812L24.1953 331.812L24.1953 331.844C23.3047 332.328 22.7344 333.266 22.7344 334.43C22.7344 336.477 24.3906 337.875 26.9375 337.875C29.4844 337.875 31.1406 336.469 31.1406 334.398ZM23.9297 334.141C23.9297 332.742 25.125 331.805 26.9375 331.805C28.7578 331.805 29.9453 332.742 29.9453 334.141C29.9453 335.578 28.7812 336.484 26.9375 336.484C25.1016 336.484 23.9297 335.578 23.9297 334.141ZM25.1172 328.758C26.2891 328.758 27 328.016 27.3672 326.484L27.6797 325.195C27.9062 324.266 28.2422 323.945 28.8281 323.945C29.5625 323.945 30.0312 324.625 30.0312 325.727C30.0312 326.828 29.5859 327.453 28.6562 327.617L28.6562 328.977C30.1797 328.82 31.1406 327.633 31.1406 325.727C31.1406 323.914 30.1406 322.578 28.7266 322.578C27.5625 322.578 26.9219 323.172 26.5234 324.812L26.2109 326.102C25.9922 327.008 25.6094 327.422 25.0469 327.422C24.3359 327.422 23.8437 326.766 23.8437 325.773C23.8437 324.773 24.3672 324.148 25.2187 324.047L25.2187 322.75C23.7812 322.805 22.7344 323.992 22.7344 325.773C22.7344 327.531 23.7266 328.758 25.1172 328.758Z" fill="black"/>
    <path d="M31 520.122L31 518.763L25.9062 518.763C24.7812 518.763 23.9375 517.981 23.9375 516.903C23.9375 515.896 24.5781 515.239 25.5547 515.239L31 515.239L31 513.88L25.8359 513.88C24.7344 513.88 23.9375 513.122 23.9375 512.044C23.9375 510.974 24.5937 510.356 25.7031 510.356L31 510.356L31 508.997L25.3906 508.997C23.7812 508.997 22.7344 510.036 22.7344 511.646C22.7344 512.786 23.3125 513.739 24.2812 514.192L24.2812 514.224C23.2969 514.575 22.7344 515.396 22.7344 516.505C22.7344 517.599 23.3125 518.427 24.1719 518.81L24.1719 518.841L22.875 518.841L22.875 520.122L31 520.122ZM28.6719 501.872C29.4375 502.099 29.9609 502.856 29.9609 503.888C29.9609 505.349 28.9375 506.263 27.3828 506.263L27.3047 506.263L27.3047 500.435L26.7891 500.435C24.3281 500.435 22.7344 501.786 22.7344 503.981C22.7344 506.224 24.4453 507.661 26.9687 507.661C29.5234 507.661 31.1406 506.247 31.1406 503.919C31.1406 502.146 30.0937 500.771 28.6719 500.536L28.6719 501.872ZM23.9141 504.005C23.9141 502.724 24.8828 501.872 26.2422 501.841L26.2422 506.255C24.8906 506.169 23.9141 505.278 23.9141 504.005ZM20.9141 498.622L22.875 498.622L22.875 499.833L23.9922 499.833L23.9922 498.622L28.8906 498.622C30.4531 498.622 31.0625 498.044 31.0625 496.552C31.0625 496.231 31.0391 495.856 31 495.692L29.8594 495.692C29.875 495.786 29.8984 496.099 29.8984 496.255C29.8984 496.95 29.5625 497.263 28.8203 497.263L23.9922 497.263L23.9922 495.685L22.875 495.685L22.875 497.263L20.9141 497.263L20.9141 498.622ZM31 494.161L31 492.802L26.2656 492.802C24.8594 492.802 23.9375 491.966 23.9375 490.614C23.9375 489.341 24.7109 488.692 26 488.692L31 488.692L31 487.333L25.75 487.333C23.9375 487.333 22.7344 488.411 22.7344 490.192C22.7344 491.427 23.2656 492.317 24.1719 492.771L24.1719 492.802L19.7266 492.802L19.7266 494.161L31 494.161ZM31.1406 482.239C31.1406 479.997 29.5234 478.481 26.9375 478.481C24.3437 478.481 22.7344 479.997 22.7344 482.239C22.7344 484.489 24.3437 486.005 26.9375 486.005C29.5234 486.005 31.1406 484.489 31.1406 482.239ZM29.9453 482.239C29.9453 483.677 28.8516 484.622 26.9375 484.622C25.0234 484.622 23.9297 483.677 23.9297 482.239C23.9297 480.802 25.0234 479.864 26.9375 479.864C28.8516 479.864 29.9453 480.802 29.9453 482.239ZM31.1406 474.028C31.1406 472.856 30.5625 471.927 29.625 471.403L29.625 471.38L31 471.38L31 470.083L19.7266 470.083L19.7266 471.442L24.1953 471.442L24.1953 471.474C23.3047 471.958 22.7344 472.896 22.7344 474.06C22.7344 476.106 24.3906 477.505 26.9375 477.505C29.4844 477.505 31.1406 476.099 31.1406 474.028ZM23.9297 473.771C23.9297 472.372 25.125 471.435 26.9375 471.435C28.7578 471.435 29.9453 472.372 29.9453 473.771C29.9453 475.208 28.7812 476.114 26.9375 476.114C25.1016 476.114 23.9297 475.208 23.9297 473.771ZM25.1172 468.388C26.2891 468.388 27 467.646 27.3672 466.114L27.6797 464.825C27.9062 463.896 28.2422 463.575 28.8281 463.575C29.5625 463.575 30.0312 464.255 30.0312 465.356C30.0312 466.458 29.5859 467.083 28.6562 467.247L28.6562 468.606C30.1797 468.45 31.1406 467.263 31.1406 465.356C31.1406 463.544 30.1406 462.208 28.7266 462.208C27.5625 462.208 26.9219 462.802 26.5234 464.442L26.2109 465.731C25.9922 466.638 25.6094 467.052 25.0469 467.052C24.3359 467.052 23.8437 466.396 23.8437 465.403C23.8437 464.403 24.3672 463.778 25.2187 463.677L25.2187 462.38C23.7812 462.435 22.7344 463.622 22.7344 465.403C22.7344 467.161 23.7266 468.388 25.1172 468.388Z" fill="black"/>
    <rect width="189.424" height="38" rx="8" transform="matrix(0.939693 -0.34202 1.64964e-08 1 62 135.459)" fill="#EDF1F5"/>
    <path d="M107.929 143.742L110.58 142.777L106.434 131.604L103.503 132.671L99.3647 146.859L101.925 145.928L102.834 142.521L107.021 140.997L107.929 143.742ZM104.898 134.589L104.956 134.568L106.484 139.206L103.37 140.339L104.898 134.589ZM119.31 133.685C119.203 131.588 117.683 130.568 115.288 131.44C112.637 132.405 110.944 134.902 110.944 137.925C110.944 141.001 112.637 142.231 115.305 141.26C117.634 140.412 119.195 138.412 119.319 136.143L117.072 136.96C116.923 138.043 116.296 138.887 115.329 139.238C114.132 139.674 113.389 138.89 113.389 137.035C113.389 135.216 114.132 133.873 115.321 133.44C116.312 133.08 116.932 133.557 117.072 134.499L119.31 133.685ZM121.127 127.346L121.127 129.517L119.88 129.971L119.88 131.904L121.127 131.45L121.127 136.399C121.127 138.235 121.937 138.679 124.018 137.922C124.505 137.744 124.918 137.55 125.166 137.398L125.166 135.509C125.017 135.589 124.794 135.688 124.58 135.766C123.869 136.025 123.539 135.802 123.539 135.081L123.539 130.573L125.174 129.977L125.174 128.044L123.539 128.639L123.539 126.468L121.127 127.346ZM127.734 125.837C128.436 125.582 128.99 124.783 128.99 124.062C128.99 123.333 128.436 122.945 127.734 123.201C127.032 123.456 126.479 124.247 126.479 124.976C126.479 125.697 127.032 126.093 127.734 125.837ZM126.537 136.97L128.949 136.092L128.949 126.67L126.537 127.548L126.537 136.97ZM138.653 123.138L136.134 124.055L134.3 131.876L134.251 131.894L132.409 125.41L129.824 126.351L132.888 134.658L135.614 133.666L138.653 123.138ZM145.111 127.326C144.888 128.128 144.211 128.84 143.327 129.162C142.097 129.61 141.296 128.979 141.296 127.634L141.296 127.476L147.399 125.254L147.399 124.472C147.399 121.607 145.772 120.345 143.195 121.282C140.577 122.235 138.925 124.788 138.925 127.794C138.925 130.808 140.561 132.068 143.286 131.076C145.475 130.279 147.061 128.463 147.325 126.521L145.111 127.326ZM143.22 123.172C144.294 122.781 145.029 123.34 145.078 124.526L141.321 125.893C141.403 124.686 142.163 123.557 143.22 123.172ZM151.347 123.299L153.346 122.571L155.567 126.403L158.392 125.375L155.881 121.253C157.252 120.183 158.045 118.488 158.045 116.862C158.045 114.357 156.476 113.39 153.734 114.388L148.853 116.165L148.853 128.847L151.347 127.939L151.347 123.299ZM151.347 117.331L153.47 116.559C154.708 116.108 155.485 116.616 155.485 117.847C155.485 119.103 154.75 120.136 153.494 120.592L151.347 121.374L151.347 117.331ZM165.263 119.991C165.04 120.793 164.363 121.506 163.479 121.827C162.249 122.275 161.448 121.644 161.448 120.299L161.448 120.141L167.551 117.92L167.551 117.137C167.551 114.272 165.924 113.01 163.347 113.948C160.729 114.901 159.077 117.453 159.077 120.459C159.077 123.473 160.713 124.733 163.438 123.741C165.627 122.944 167.213 121.128 167.477 119.186L165.263 119.991ZM163.372 115.837C164.446 115.446 165.181 116.005 165.23 117.191L161.473 118.559C161.555 117.351 162.315 116.222 163.372 115.837ZM176.843 112.745C176.735 110.648 175.216 109.628 172.82 110.5C170.169 111.465 168.476 113.962 168.476 116.985C168.476 120.061 170.169 121.291 172.837 120.32C175.166 119.472 176.727 117.471 176.851 115.203L174.604 116.02C174.456 117.103 173.828 117.947 172.862 118.298C171.664 118.734 170.921 117.95 170.921 116.095C170.921 114.276 171.664 112.933 172.853 112.5C173.845 112.14 174.464 112.617 174.604 113.559L176.843 112.745ZM182.079 116.956C184.755 115.982 186.464 113.541 186.464 110.438C186.464 107.379 184.73 106.165 182.079 107.13C179.428 108.095 177.693 110.581 177.693 113.63C177.693 116.724 179.403 117.93 182.079 116.956ZM182.079 114.996C180.889 115.429 180.138 114.639 180.138 112.749C180.138 110.877 180.906 109.517 182.079 109.09C183.252 108.663 184.011 109.468 184.011 111.34C184.011 113.229 183.26 114.566 182.079 114.996ZM187.711 114.704L190.123 113.826L190.123 108.561C190.123 107.234 190.817 106.208 192.006 105.776C192.353 105.649 192.683 105.591 192.882 105.606L192.882 103.348C192.716 103.355 192.477 103.398 192.196 103.5C191.155 103.879 190.404 104.803 190.09 106.113L190.04 106.131L190.04 104.434L187.711 105.282L187.711 114.704ZM196.862 111.523C198.167 111.048 199.191 109.945 199.621 108.752L199.662 108.737L199.662 110.354L202.041 109.488L202.041 96.8058L199.629 97.6836L199.629 102.562L199.58 102.58C199.15 101.69 198.159 101.33 196.879 101.796C194.657 102.605 193.253 104.97 193.253 107.958C193.253 110.973 194.649 112.328 196.862 111.523ZM197.68 103.561C198.878 103.125 199.646 103.935 199.646 105.649C199.646 107.372 198.878 108.724 197.68 109.16C196.466 109.601 195.723 108.809 195.723 107.077C195.723 105.354 196.466 104.003 197.68 103.561Z" fill="black"/>
    <rect width="340.537" height="38" rx="8" transform="matrix(0.939693 -0.34202 1.64964e-08 1 257 229.805)" fill="#EDF1F5"/>
    <path d="M267.485 238.306L267.485 250.989L272.036 249.332C275.612 248.031 277.718 244.9 277.718 240.875C277.718 236.849 275.612 235.348 272.036 236.65L267.485 238.306ZM269.98 239.587L271.739 238.946C273.936 238.147 275.174 239.155 275.174 241.809C275.174 244.551 273.969 246.432 271.739 247.243L269.98 247.884L269.98 239.587ZM281.699 245.965C282.806 245.562 283.904 244.573 284.4 243.391L284.449 243.373L284.449 244.814L286.778 243.967L286.778 237.489C286.778 235.591 285.3 234.881 283.029 235.707C280.683 236.561 279.221 238.35 279.131 240.211L281.336 239.408C281.451 238.672 282.021 237.99 282.921 237.662C283.83 237.332 284.408 237.631 284.408 238.51L284.408 239.134L282.178 240.086C279.973 241.029 278.734 242.474 278.734 244.187C278.734 245.884 280.014 246.578 281.699 245.965ZM282.492 243.822C281.674 244.119 281.129 243.878 281.129 243.175C281.129 242.507 281.641 241.89 282.542 241.492L284.408 240.69L284.408 241.375C284.408 242.395 283.541 243.44 282.492 243.822ZM288.984 231.571L288.984 233.742L287.736 234.196L287.736 236.13L288.984 235.676L288.984 240.624C288.984 242.461 289.793 242.904 291.874 242.147C292.361 241.97 292.774 241.775 293.022 241.624L293.022 239.734C292.874 239.814 292.651 239.913 292.436 239.991C291.726 240.25 291.395 240.027 291.395 239.307L291.395 234.798L293.03 234.203L293.03 232.269L291.395 232.864L291.395 230.693L288.984 231.571ZM296.896 240.434C298.002 240.031 299.101 239.042 299.596 237.86L299.646 237.842L299.646 239.283L301.975 238.435L301.975 231.958C301.975 230.059 300.497 229.349 298.225 230.176C295.88 231.03 294.418 232.819 294.327 234.68L296.532 233.877C296.648 233.141 297.218 232.459 298.118 232.131C299.027 231.801 299.605 232.1 299.605 232.979L299.605 233.603L297.375 234.555C295.17 235.498 293.931 236.942 293.931 238.656C293.931 240.353 295.211 241.047 296.896 240.434ZM297.689 238.29C296.871 238.588 296.326 238.347 296.326 237.644C296.326 236.976 296.838 236.359 297.738 235.961L299.605 235.159L299.605 235.844C299.605 236.864 298.737 237.909 297.689 238.29ZM312.373 234.651C314.917 233.725 316.494 231.753 316.494 229.521C316.494 227.842 315.305 227.018 313.686 227.476L313.686 227.405C314.95 226.743 315.924 225.228 315.924 223.84C315.924 221.897 314.52 221.187 312.282 222.001L307.096 223.889L307.096 236.572L312.373 234.651ZM309.59 224.959L311.638 224.213C312.803 223.789 313.472 224.126 313.472 225.146C313.472 226.218 312.712 227.118 311.382 227.602L309.59 228.255L309.59 224.959ZM309.59 233.686L309.59 230.004L311.679 229.243C313.149 228.708 313.951 229.049 313.951 230.236C313.951 231.449 313.174 232.382 311.737 232.905L309.59 233.686ZM320.335 231.902C321.441 231.5 322.54 230.511 323.035 229.329L323.085 229.311L323.085 230.752L325.414 229.904L325.414 223.427C325.414 221.528 323.936 220.818 321.664 221.645C319.319 222.499 317.857 224.288 317.766 226.149L319.971 225.346C320.087 224.61 320.657 223.928 321.557 223.6C322.466 223.269 323.044 223.569 323.044 224.448L323.044 225.072L320.814 226.024C318.609 226.967 317.37 228.411 317.37 230.125C317.37 231.821 318.65 232.516 320.335 231.902ZM321.128 229.759C320.31 230.057 319.765 229.816 319.765 229.113C319.765 228.445 320.277 227.828 321.177 227.43L323.044 226.627L323.044 227.313C323.044 228.332 322.177 229.378 321.128 229.759ZM326.826 222.737C326.826 224.152 327.694 224.75 329.403 224.515L330.915 224.299C331.782 224.194 332.087 224.364 332.087 224.865C332.087 225.48 331.526 226.08 330.617 226.411C329.659 226.76 329.106 226.522 328.957 225.749L326.603 226.606C326.76 228.404 328.173 229.102 330.617 228.213C332.897 227.383 334.491 225.581 334.491 223.727C334.491 222.347 333.731 221.85 331.881 222.11L330.369 222.317C329.478 222.44 329.147 222.235 329.147 221.752C329.147 221.128 329.701 220.522 330.535 220.218C331.427 219.894 331.963 220.217 332.038 220.954L334.259 220.146C334.21 218.318 332.806 217.59 330.535 218.417C328.28 219.237 326.826 220.944 326.826 222.737ZM341.544 221.151C341.321 221.953 340.644 222.665 339.76 222.987C338.529 223.434 337.728 222.803 337.728 221.458L337.728 221.3L343.832 219.079L343.832 218.297C343.832 215.431 342.205 214.169 339.628 215.107C337.01 216.06 335.358 218.612 335.358 221.618C335.358 224.633 336.993 225.892 339.719 224.9C341.907 224.103 343.493 222.287 343.757 220.345L341.544 221.151ZM339.653 216.996C340.726 216.606 341.461 217.164 341.511 218.35L337.753 219.718C337.836 218.51 338.595 217.381 339.653 216.996Z" fill="black"/>
    <path d="M266.336 91.7115C265.969 92.2356 265.969 92.8688 266.336 93.1257L272.316 97.3131C272.683 97.57 273.278 97.3535 273.645 96.8294C274.012 96.3053 274.012 95.6721 273.645 95.4152L268.329 91.6931L273.645 84.1015C274.012 83.5774 274.012 82.9442 273.645 82.6872C273.278 82.4303 272.683 82.6468 272.316 83.1709L266.336 91.7115ZM427.336 159.715C427.703 159.972 428.298 159.755 428.664 159.231L434.645 150.691C435.012 150.167 435.012 149.533 434.645 149.277C434.278 149.02 433.683 149.236 433.316 149.76L428 157.352L422.684 153.63C422.317 153.373 421.722 153.589 421.355 154.113C420.988 154.638 420.988 155.271 421.355 155.528L427.336 159.715ZM417.738 97.8597L417.312 98.906L417.738 97.8597ZM425.952 103.611L425.114 104.369L425.952 103.611ZM324.839 116.55L325.719 115.877L324.839 116.55ZM335.792 124.219L336.124 123.163L335.792 124.219ZM322.421 84.9476L321.542 85.6205L322.421 84.9476ZM311.468 77.2782L311.8 76.2218L311.468 77.2782ZM351.054 120.951L397.93 103.89L397.93 101.89L351.054 118.951L351.054 120.951ZM267 93.1768L296.208 82.5459L296.208 80.5459L267 91.1768L267 93.1768ZM427.06 124.287L427.06 159.108L428.94 158.424L428.94 123.603L427.06 124.287ZM397.93 103.89C403.208 101.968 407.11 100.549 410.197 99.6938C413.273 98.8417 415.456 98.5752 417.312 98.906L418.165 96.8134C416 96.4276 413.542 96.7605 410.35 97.6447C407.169 98.526 403.177 99.9797 397.93 101.89L397.93 103.89ZM428.94 123.603C428.94 118.019 428.94 113.77 428.681 110.48C428.42 107.178 427.892 104.754 426.789 102.852L425.114 104.369C426.06 106 426.556 108.143 426.807 111.324C427.06 114.518 427.06 118.67 427.06 124.287L428.94 123.603ZM417.312 98.906C420.671 99.5048 423.403 101.417 425.114 104.369L426.789 102.852C424.897 99.5891 421.878 97.4753 418.165 96.8134L417.312 98.906ZM322.691 101.091C322.691 105.355 322.69 108.599 322.844 111.146C322.997 113.702 323.309 115.622 323.96 117.223L325.719 115.877C325.161 114.506 324.868 112.803 324.719 110.338C324.57 107.866 324.57 104.696 324.57 100.407L322.691 101.091ZM351.054 118.951C347.024 120.418 344.044 121.502 341.67 122.208C339.304 122.911 337.602 123.218 336.124 123.163L335.461 125.276C337.188 125.34 339.099 124.976 341.552 124.246C343.999 123.519 347.047 122.409 351.054 120.951L351.054 118.951ZM323.96 117.223C325.962 122.143 330.152 125.077 335.461 125.276L336.124 123.163C331.321 122.983 327.53 120.329 325.719 115.877L323.96 117.223ZM324.57 100.407C324.57 96.1427 324.57 92.8985 324.417 90.3511C324.263 87.7958 323.952 85.8756 323.301 84.2747L321.542 85.6205C322.1 86.991 322.393 88.6948 322.541 91.1589C322.69 93.6309 322.691 96.8016 322.691 101.091L324.57 100.407ZM296.208 82.5459C300.238 81.0791 303.217 79.9952 305.591 79.2897C307.957 78.5864 309.658 78.2793 311.137 78.3346L311.8 76.2218C310.073 76.1573 308.162 76.5215 305.708 77.2508C303.262 77.9779 300.214 79.0877 296.208 80.5459L296.208 82.5459ZM323.301 84.2747C321.298 79.3541 317.108 76.4202 311.8 76.2218L311.137 78.3346C315.94 78.5141 319.731 81.1685 321.542 85.6205L323.301 84.2747Z" fill="#B8C0CD"/>
</svg>
