<svg width="599" height="332" viewBox="0 0 599 332" fill="none" xmlns="http://www.w3.org/2000/svg">
    <path d="M106.94 34C107.76 34 108.96 34.08 110.58 34.08C114.02 34.08 115.98 32.42 115.98 29.52C115.98 26.94 114.2 25.3 111.28 25.3C110.78 25.3 109.94 25.34 109.4 25.42V22.3H115.12V20H106.94V34ZM111.08 27.6C112.8 27.6 113.54 28.5 113.54 29.7C113.54 30.94 112.78 31.78 110.96 31.78C110.44 31.78 109.96 31.74 109.4 31.7V27.72C110.02 27.64 110.62 27.6 111.08 27.6ZM120.865 34L125.065 28.3V34H127.365V25H125.065L120.865 30.7V25H118.565V34H120.865ZM136.692 19.78C135.752 20.86 134.672 20.44 132.692 21.28C129.952 22.46 129.292 25.58 129.292 28.52C129.292 32.02 131.152 34.22 134.172 34.22C137.012 34.22 138.892 32.1 138.892 29.58C138.892 26.88 137.272 25.16 134.792 25.16C133.472 25.16 132.192 25.86 131.632 26.84H131.592C131.732 25.42 132.232 24.08 133.532 23.48C135.272 22.62 136.712 23.06 137.892 21.66L136.692 19.78ZM131.752 29C132.052 28.08 132.932 27.3 134.212 27.3C135.672 27.3 136.432 28.34 136.432 29.68C136.432 30.98 135.572 32.08 134.112 32.08C132.652 32.08 131.772 30.74 131.752 29ZM146.516 34H148.816V25H141.996L141.856 27.8C141.656 31.28 140.596 32.02 139.816 31.94L140.016 34.18C142.436 34.18 143.636 33.16 144.076 28.26L144.136 27.3H146.516V34ZM153.678 34L157.878 28.3V34H160.178V25H157.878L153.678 30.7V25H151.378V34H153.678ZM162.185 29.5C162.185 32.2 164.105 34.22 167.085 34.22C170.065 34.22 171.985 32.2 171.985 29.5C171.985 26.8 170.065 24.78 167.085 24.78C164.105 24.78 162.185 26.8 162.185 29.5ZM164.645 29.5C164.645 27.94 165.725 26.94 167.085 26.94C168.485 26.94 169.545 27.98 169.545 29.5C169.545 31.06 168.505 32.08 167.085 32.08C165.685 32.08 164.645 31 164.645 29.5ZM172.684 27.3H175.644V34H177.944V27.3H180.884V25H172.684V27.3ZM189.317 31.48C188.797 31.9 187.877 32.3 186.777 32.3C185.357 32.3 184.277 31.56 184.077 30.2H190.577C190.677 29.86 190.717 29.52 190.717 28.96C190.717 26.44 188.777 24.78 186.457 24.78C183.497 24.78 181.697 26.88 181.697 29.5C181.697 32.34 183.637 34.22 186.537 34.22C187.797 34.22 189.077 33.86 189.977 33.1L189.317 31.48ZM186.357 26.7C187.677 26.7 188.437 27.56 188.417 28.66H183.997C184.237 27.48 184.977 26.7 186.357 26.7ZM201.089 25H198.189L194.949 29.46L198.509 34H201.509L197.629 29.28L201.089 25ZM192.569 34H194.869V25H192.569V34ZM203.562 27.32C204.222 27.02 204.882 26.7 205.922 26.7C207.262 26.7 207.662 27.52 207.602 29.02C207.162 28.7 206.362 28.44 205.562 28.44C203.742 28.44 202.282 29.38 202.282 31.36C202.282 33.1 203.462 34.12 205.102 34.12C206.322 34.12 207.282 33.64 207.762 32.96V34H209.762V28.52C209.762 26.14 208.822 24.78 206.162 24.78C204.982 24.78 203.762 25.18 202.982 25.64L203.562 27.32ZM205.862 32.18C205.142 32.18 204.582 31.8 204.582 31.12C204.582 30.36 205.262 30 206.022 30C206.682 30 207.202 30.14 207.602 30.44V31.36C207.322 31.76 206.822 32.18 205.862 32.18ZM215.518 22.64L216.738 24.54L218.458 23.24V34H220.758V19.96H219.098L215.518 22.64Z" fill="#10162F"/>
    <rect x="101" y="1" width="126" height="54" stroke="#FFE000" stroke-width="2"/>
    <path d="M241.44 34C242.26 34 243.46 34.08 245.08 34.08C248.52 34.08 250.48 32.42 250.48 29.52C250.48 26.94 248.7 25.3 245.78 25.3C245.28 25.3 244.44 25.34 243.9 25.42V22.3H249.62V20H241.44V34ZM245.58 27.6C247.3 27.6 248.04 28.5 248.04 29.7C248.04 30.94 247.28 31.78 245.46 31.78C244.94 31.78 244.46 31.74 243.9 31.7V27.72C244.52 27.64 245.12 27.6 245.58 27.6ZM255.365 34L259.565 28.3V34H261.865V25H259.565L255.365 30.7V25H253.065V34H255.365ZM271.192 19.78C270.252 20.86 269.172 20.44 267.192 21.28C264.452 22.46 263.792 25.58 263.792 28.52C263.792 32.02 265.652 34.22 268.672 34.22C271.512 34.22 273.392 32.1 273.392 29.58C273.392 26.88 271.772 25.16 269.292 25.16C267.972 25.16 266.692 25.86 266.132 26.84H266.092C266.232 25.42 266.732 24.08 268.032 23.48C269.772 22.62 271.212 23.06 272.392 21.66L271.192 19.78ZM266.252 29C266.552 28.08 267.432 27.3 268.712 27.3C270.172 27.3 270.932 28.34 270.932 29.68C270.932 30.98 270.072 32.08 268.612 32.08C267.152 32.08 266.272 30.74 266.252 29ZM281.016 34H283.316V25H276.496L276.356 27.8C276.156 31.28 275.096 32.02 274.316 31.94L274.516 34.18C276.936 34.18 278.136 33.16 278.576 28.26L278.636 27.3H281.016V34ZM288.178 34L292.378 28.3V34H294.678V25H292.378L288.178 30.7V25H285.878V34H288.178ZM296.685 29.5C296.685 32.2 298.605 34.22 301.585 34.22C304.565 34.22 306.485 32.2 306.485 29.5C306.485 26.8 304.565 24.78 301.585 24.78C298.605 24.78 296.685 26.8 296.685 29.5ZM299.145 29.5C299.145 27.94 300.225 26.94 301.585 26.94C302.985 26.94 304.045 27.98 304.045 29.5C304.045 31.06 303.005 32.08 301.585 32.08C300.185 32.08 299.145 31 299.145 29.5ZM307.184 27.3H310.144V34H312.444V27.3H315.384V25H307.184V27.3ZM323.817 31.48C323.297 31.9 322.377 32.3 321.277 32.3C319.857 32.3 318.777 31.56 318.577 30.2H325.077C325.177 29.86 325.217 29.52 325.217 28.96C325.217 26.44 323.277 24.78 320.957 24.78C317.997 24.78 316.197 26.88 316.197 29.5C316.197 32.34 318.137 34.22 321.037 34.22C322.297 34.22 323.577 33.86 324.477 33.1L323.817 31.48ZM320.857 26.7C322.177 26.7 322.937 27.56 322.917 28.66H318.497C318.737 27.48 319.477 26.7 320.857 26.7ZM335.589 25H332.689L329.449 29.46L333.009 34H336.009L332.129 29.28L335.589 25ZM327.069 34H329.369V25H327.069V34ZM338.062 27.32C338.722 27.02 339.382 26.7 340.422 26.7C341.762 26.7 342.162 27.52 342.102 29.02C341.662 28.7 340.862 28.44 340.062 28.44C338.242 28.44 336.782 29.38 336.782 31.36C336.782 33.1 337.962 34.12 339.602 34.12C340.822 34.12 341.782 33.64 342.262 32.96V34H344.262V28.52C344.262 26.14 343.322 24.78 340.662 24.78C339.482 24.78 338.262 25.18 337.482 25.64L338.062 27.32ZM340.362 32.18C339.642 32.18 339.082 31.8 339.082 31.12C339.082 30.36 339.762 30 340.522 30C341.182 30 341.702 30.14 342.102 30.44V31.36C341.822 31.76 341.322 32.18 340.362 32.18ZM350.318 34H359.118V31.86H353.298C354.398 30.96 358.578 27.42 358.578 23.5C358.578 21.64 357.278 19.84 354.618 19.84C352.398 19.84 350.798 21.12 350.418 23.16L352.338 24.02C352.638 22.84 353.358 22.14 354.358 22.14C355.518 22.14 356.138 22.84 356.138 23.96C356.138 26.68 352.598 29.92 350.318 32.16V34Z" fill="#10162F"/>
    <rect x="237" y="1" width="126" height="54" stroke="#FFE000" stroke-width="2"/>
    <path d="M377.44 34C378.26 34 379.46 34.08 381.08 34.08C384.52 34.08 386.48 32.42 386.48 29.52C386.48 26.94 384.7 25.3 381.78 25.3C381.28 25.3 380.44 25.34 379.9 25.42V22.3H385.62V20H377.44V34ZM381.58 27.6C383.3 27.6 384.04 28.5 384.04 29.7C384.04 30.94 383.28 31.78 381.46 31.78C380.94 31.78 380.46 31.74 379.9 31.7V27.72C380.52 27.64 381.12 27.6 381.58 27.6ZM391.365 34L395.565 28.3V34H397.865V25H395.565L391.365 30.7V25H389.065V34H391.365ZM407.192 19.78C406.252 20.86 405.172 20.44 403.192 21.28C400.452 22.46 399.792 25.58 399.792 28.52C399.792 32.02 401.652 34.22 404.672 34.22C407.512 34.22 409.392 32.1 409.392 29.58C409.392 26.88 407.772 25.16 405.292 25.16C403.972 25.16 402.692 25.86 402.132 26.84H402.092C402.232 25.42 402.732 24.08 404.032 23.48C405.772 22.62 407.212 23.06 408.392 21.66L407.192 19.78ZM402.252 29C402.552 28.08 403.432 27.3 404.712 27.3C406.172 27.3 406.932 28.34 406.932 29.68C406.932 30.98 406.072 32.08 404.612 32.08C403.152 32.08 402.272 30.74 402.252 29ZM417.016 34H419.316V25H412.496L412.356 27.8C412.156 31.28 411.096 32.02 410.316 31.94L410.516 34.18C412.936 34.18 414.136 33.16 414.576 28.26L414.636 27.3H417.016V34ZM424.178 34L428.378 28.3V34H430.678V25H428.378L424.178 30.7V25H421.878V34H424.178ZM432.685 29.5C432.685 32.2 434.605 34.22 437.585 34.22C440.565 34.22 442.485 32.2 442.485 29.5C442.485 26.8 440.565 24.78 437.585 24.78C434.605 24.78 432.685 26.8 432.685 29.5ZM435.145 29.5C435.145 27.94 436.225 26.94 437.585 26.94C438.985 26.94 440.045 27.98 440.045 29.5C440.045 31.06 439.005 32.08 437.585 32.08C436.185 32.08 435.145 31 435.145 29.5ZM443.184 27.3H446.144V34H448.444V27.3H451.384V25H443.184V27.3ZM459.817 31.48C459.297 31.9 458.377 32.3 457.277 32.3C455.857 32.3 454.777 31.56 454.577 30.2H461.077C461.177 29.86 461.217 29.52 461.217 28.96C461.217 26.44 459.277 24.78 456.957 24.78C453.997 24.78 452.197 26.88 452.197 29.5C452.197 32.34 454.137 34.22 457.037 34.22C458.297 34.22 459.577 33.86 460.477 33.1L459.817 31.48ZM456.857 26.7C458.177 26.7 458.937 27.56 458.917 28.66H454.497C454.737 27.48 455.477 26.7 456.857 26.7ZM471.589 25H468.689L465.449 29.46L469.009 34H472.009L468.129 29.28L471.589 25ZM463.069 34H465.369V25H463.069V34ZM474.062 27.32C474.722 27.02 475.382 26.7 476.422 26.7C477.762 26.7 478.162 27.52 478.102 29.02C477.662 28.7 476.862 28.44 476.062 28.44C474.242 28.44 472.782 29.38 472.782 31.36C472.782 33.1 473.962 34.12 475.602 34.12C476.822 34.12 477.782 33.64 478.262 32.96V34H480.262V28.52C480.262 26.14 479.322 24.78 476.662 24.78C475.482 24.78 474.262 25.18 473.482 25.64L474.062 27.32ZM476.362 32.18C475.642 32.18 475.082 31.8 475.082 31.12C475.082 30.36 475.762 30 476.522 30C477.182 30 477.702 30.14 478.102 30.44V31.36C477.822 31.76 477.322 32.18 476.362 32.18ZM490.458 34.22C493.038 34.22 495.038 32.64 495.038 30.06C495.038 28.4 494.098 27.02 492.358 26.72V26.66C493.778 26.04 494.498 24.92 494.498 23.34C494.498 21.14 492.878 19.78 490.478 19.78C488.558 19.78 487.098 20.54 486.338 21.96L487.618 23.58C488.318 22.56 489.138 22.08 490.258 22.08C491.458 22.08 492.038 22.78 492.038 23.78C492.038 24.98 491.018 25.7 489.878 25.7H488.978V28H489.978C491.598 28 492.578 28.7 492.578 29.98C492.578 31.04 491.818 31.92 490.318 31.92C489.098 31.92 488.018 31.22 487.318 30.18L486.018 31.86C486.758 33.28 488.318 34.22 490.458 34.22Z" fill="#10162F"/>
    <rect x="373" y="1" width="126" height="54" stroke="#FFE000" stroke-width="2"/>
    <path d="M168 56V80H432V56" stroke="#D3DBE6"/>
    <path d="M300 104L302.887 99H297.113L300 104ZM300.5 99.5V56H299.5V99.5H300.5Z" fill="#D3DBE6"/>
    <path d="M300 218L198 161L300 104L402 161L300 218Z" fill="#6C7991"/>
    <path d="M198 161L300 218V332L198 279.071V161Z" fill="#AE85FF"/>
    <path d="M402 161L300 218V332L402 279.071V161Z" fill="#7833FF"/>
    <path d="M301.421 275L250.421 246.5L301.421 218L352.421 246.5L301.421 275Z" fill="#6C7991"/>
    <path d="M250.421 246.5L301.421 275V332L250.421 305.536V246.5Z" fill="#7833FF"/>
    <path d="M352.421 246.5L301.421 275V332L352.421 305.536V246.5Z" fill="#AE85FF"/>
    <path d="M271.64 167H274.1V153H262.94V167H265.4V155.3H271.64V167ZM277.319 171H279.619V166.78C280.139 167.08 280.919 167.22 281.719 167.22C284.599 167.22 286.479 165.1 286.479 162.36C286.479 159.7 284.879 157.78 282.399 157.78C281.239 157.78 280.179 158.26 279.619 158.86V158H277.319V171ZM281.679 159.94C283.199 159.94 284.039 160.98 284.039 162.42C284.039 163.92 283.119 165.08 281.519 165.08C280.759 165.08 280.239 164.96 279.619 164.56V160.92C280.179 160.3 280.899 159.94 281.679 159.94ZM287.911 162.5C287.911 165.2 289.831 167.22 292.811 167.22C295.791 167.22 297.711 165.2 297.711 162.5C297.711 159.8 295.791 157.78 292.811 157.78C289.831 157.78 287.911 159.8 287.911 162.5ZM290.371 162.5C290.371 160.94 291.451 159.94 292.811 159.94C294.211 159.94 295.271 160.98 295.271 162.5C295.271 164.06 294.231 165.08 292.811 165.08C291.411 165.08 290.371 164 290.371 162.5ZM298.329 169.1H300.469V167H306.849V169.1H309.009V164.86H307.509V158H300.869L300.729 160.16C300.609 162.2 300.109 164.02 299.469 164.86H298.329V169.1ZM302.949 161.08L303.009 160.16H305.209V164.86H301.869C302.269 164.3 302.769 162.98 302.949 161.08ZM319.202 158H316.582L314.962 162.9C314.802 163.36 314.722 163.8 314.642 164.22C314.502 163.78 314.382 163.36 314.202 162.92L312.102 158H309.342L313.502 167L313.302 167.48C312.922 168.42 312.502 168.88 311.922 168.88C311.562 168.88 311.222 168.7 310.982 168.56L310.242 170.3C310.762 170.68 311.362 171 312.182 171C313.502 171 314.342 170.22 315.662 167L319.202 158ZM329.101 158H326.201L322.961 162.46L326.521 167H329.521L325.641 162.28L329.101 158ZM320.581 167H322.881V158H320.581V167ZM329.934 160.3H332.894V167H335.194V160.3H338.134V158H329.934V160.3Z" fill="white"/>
    <path d="M287.56 250.28C287.56 251.34 286.68 251.92 285.52 251.92C284.44 251.92 283.12 251.4 282.3 250.34L280.9 252.02C281.58 253.44 283.68 254.22 285.48 254.22C288.1 254.22 290.16 252.62 290.16 250.26C290.16 245.6 283.82 246.52 283.82 243.62C283.82 242.7 284.56 242.08 285.78 242.08C286.9 242.08 287.58 242.46 288.26 243.12L289.58 241.28C288.74 240.36 287.3 239.78 285.58 239.78C282.86 239.78 281.22 241.54 281.22 243.64C281.22 248.2 287.56 247.52 287.56 250.28ZM292.995 254H293.275C294.555 254 296.115 254.04 296.955 254.04C302.295 254.04 304.975 250.8 304.975 246.86C304.975 243.16 302.715 239.94 297.115 239.94C296.095 239.94 294.095 240 293.255 240H292.995V254ZM297.075 242.24C300.415 242.24 302.375 244.04 302.375 246.86C302.375 249.82 300.415 251.74 297.035 251.74C296.695 251.74 296.135 251.74 295.455 251.7V242.3C296.015 242.26 296.495 242.24 297.075 242.24ZM307.819 254H310.279V246.78L315.999 254H319.119L312.999 246.52L318.759 240H315.799L310.279 246.64V240H307.819V254Z" fill="white"/>
</svg>
