<svg version="1.1" id="Layer_1" xmlns="http://www.w3.org/2000/svg" xmlns:xlink="http://www.w3.org/1999/xlink" x="0px" y="0px"
     viewBox="0 0 599 738" style="enable-background:new 0 0 599 738;" xml:space="preserve">
<style type="text/css">
	.st0{fill:#FFE000;}
	.st1{fill:#FFFFFF;}
	.st2{fill:#7833FF;}
	.st3{fill:#FFFFFF;filter:url(#Adobe_OpacityMaskFilter);}
	.st4{mask:url(#path-9-inside-1_249_213_00000101787210773900197100000008567856837147181960_);}
	.st5{fill:#D3DBE6;}
	.st6{fill:#10162F;}
</style>
    <g>
	<path class="st0" d="M364,517.5l2.8-4.4l-5.6-1.3L364,517.5z M364,333l-2.8,4.4l5.6,1.3L364,333z M364.5,513.1V337.6l-1-0.2v175.5
		L364.5,513.1z"/>
</g>
    <g>
	<ellipse transform="matrix(0.7812 -0.6242 0.6242 0.7812 -77.7469 297.1127)" class="st1" cx="385" cy="259.5" rx="63.1" ry="79"/>
        <path class="st2" d="M400.2,333.2c-5,0-10.1-0.6-15.3-1.8c-38.7-8.7-70.1-48.1-70.1-87.8c0-19.3,7.3-35.7,20.6-46.3
		c13.3-10.6,31-14.1,49.7-9.9c38.7,8.7,70.1,48.1,70.1,87.8c0,19.3-7.3,35.7-20.6,46.3C425.1,329.3,413.2,333.2,400.2,333.2z
		 M369.9,186.7c-12.7,0-24.4,3.9-33.8,11.4c-13,10.4-20.2,26.6-20.2,45.5c0,39.2,31.1,78.1,69.3,86.8c18.5,4.2,35.8,0.7,48.9-9.7
		c13-10.4,20.2-26.6,20.2-45.5c0-39.2-31.1-78.1-69.3-86.8C379.8,187.3,374.8,186.7,369.9,186.7z"/>
</g>
    <g>
	<ellipse transform="matrix(0.7812 -0.6242 0.6242 0.7812 -79.5806 286.8181)" class="st1" cx="369.4" cy="257" rx="63.1" ry="79"/>
        <path class="st2" d="M384.6,330.7c-5,0-10.1-0.6-15.3-1.8c-38.7-8.7-70.1-48.1-70.1-87.8c0-19.3,7.3-35.7,20.6-46.3
		s31-14.1,49.7-9.9c38.7,8.7,70.1,48.1,70.1,87.8c0,19.3-7.3,35.7-20.6,46.3C409.5,326.7,397.6,330.7,384.6,330.7z M354.3,184.2
		c-12.7,0-24.4,3.9-33.8,11.4c-13,10.4-20.2,26.6-20.2,45.5c0,39.2,31.1,78.1,69.3,86.8c18.5,4.2,35.8,0.7,48.9-9.7
		c13-10.4,20.2-26.6,20.2-45.5c0-39.2-31.1-78.1-69.3-86.8C364.2,184.8,359.2,184.2,354.3,184.2z"/>
</g>
    <g>

		<ellipse transform="matrix(0.7812 -0.6242 0.6242 0.7812 -81.4139 276.5227)" class="st1" cx="353.8" cy="254.4" rx="63.1" ry="79"/>
        <path class="st2" d="M369,328.2c-5,0-10.1-0.6-15.3-1.8c-38.7-8.7-70.1-48.1-70.1-87.8c0-19.3,7.3-35.7,20.6-46.3
		c13.3-10.6,31-14.1,49.7-9.9c38.7,8.7,70.1,48.1,70.1,87.8c0,19.3-7.3,35.7-20.6,46.3C393.8,324.2,381.9,328.2,369,328.2z
		 M338.7,181.7c-12.7,0-24.4,3.9-33.8,11.4c-13.1,10.4-20.2,26.6-20.2,45.5c0,39.2,31.1,78.1,69.3,86.8c18.5,4.2,35.8,0.7,48.9-9.7
		c13-10.4,20.2-26.6,20.2-45.5c0-39.2-31.1-78.1-69.3-86.8C348.6,182.2,343.6,181.7,338.7,181.7z"/>
</g>
    <g>

		<ellipse transform="matrix(0.7812 -0.6242 0.6242 0.7812 -83.2476 266.2281)" class="st1" cx="338.2" cy="251.9" rx="62.7" ry="78.4"/>
        <path class="st2" d="M353.3,325.6c-5,0-10.1-0.6-15.3-1.8c-38.6-8.7-70-48.1-70-87.6c0-19.3,7.3-35.8,20.7-46.4
		c13.3-10.6,31-14.2,49.8-9.9c38.6,8.7,70,48.1,70,87.6c0,19.3-7.3,35.8-20.7,46.4C378.2,321.7,366.3,325.6,353.3,325.6z
		 M323.2,180.2c-12.5,0-24,3.8-33.3,11.2C277,201.6,270,217.6,270,236.2c0,38.7,30.7,77.2,68.5,85.7c18.2,4.1,35.3,0.7,48.1-9.5
		c12.8-10.3,19.9-26.2,19.9-44.8c0-38.7-30.7-77.2-68.5-85.7l0,0C333,180.7,328,180.2,323.2,180.2z"/>
</g>
    <g>
	<path class="st2" d="M314.8,233.1c0,1.3-1,1.7-2.4,1.4c-1.3-0.3-2.8-1.3-3.8-2.7l-1.6,1.6c0.8,1.9,3.3,3.4,5.4,3.9
		c3.1,0.7,5.5-0.7,5.5-3.5c0-5.6-7.4-6.2-7.4-9.6c0-1.1,0.9-1.7,2.3-1.3c1.3,0.3,2.1,0.9,2.9,1.9l1.5-1.9c-1-1.3-2.7-2.4-4.7-2.9
		c-3.2-0.7-5.1,1-5.1,3.5C307.4,229,314.8,229.8,314.8,233.1z M328.7,237.7c-0.6,0.4-1.7,0.6-3,0.3c-1.7-0.4-2.9-1.6-3.2-3.2
		l7.6,1.7c0.1-0.4,0.2-0.8,0.2-1.5c0-3-2.3-5.5-5-6.1c-3.5-0.8-5.6,1.3-5.6,4.4c0,3.4,2.3,6.2,5.7,6.9c1.5,0.3,3,0.2,4-0.4
		L328.7,237.7z M325.2,231.2c1.5,0.3,2.4,1.6,2.4,2.9l-5.2-1.2C322.7,231.6,323.6,230.8,325.2,231.2z M332.5,241.6l2.7,0.6V235
		c0.3-0.6,0.8-1,1.7-0.8c0.6,0.1,0.8,0.3,1.4,0.7l1-2.4c-0.4-0.3-0.8-0.6-1.6-0.8c-1.3-0.3-1.9,0.1-2.4,0.7v-1.1l-2.7-0.6V241.6z
		 M350.6,234.9l-2.8-0.6l-1.8,4.2c-0.3,0.6-0.6,1.5-0.8,2.3c-0.2-0.9-0.5-1.9-0.8-2.6l-1.9-5.1l-3.2-0.7l4.8,11.9l2,0.4L350.6,234.9
		z M359.9,244.8c-0.6,0.4-1.7,0.6-3,0.3c-1.7-0.4-2.9-1.5-3.2-3.2l7.6,1.7c0.1-0.4,0.2-0.8,0.2-1.5c0-3-2.3-5.5-5-6.1
		c-3.5-0.8-5.6,1.3-5.6,4.4c0,3.4,2.3,6.2,5.7,6.9c1.5,0.3,3,0.2,4-0.4L359.9,244.8z M356.4,238.2c1.5,0.4,2.4,1.6,2.4,2.9l-5.2-1.2
		C353.9,238.6,354.8,237.9,356.4,238.2z M363.7,248.7l2.7,0.6V242c0.3-0.6,0.8-1,1.7-0.8c0.6,0.1,0.8,0.3,1.4,0.7l1-2.4
		c-0.4-0.3-0.8-0.6-1.6-0.8c-1.3-0.3-1.9,0.1-2.4,0.7v-1.1l-2.7-0.6V248.7z M302.4,266.8l2.7,0.6v-16.8l-2.7-0.6v6.3
		c-0.6-0.5-1.3-0.8-2.2-1c-3.4-0.8-5.8,1.1-5.8,4.5c0,3.3,1.9,5.9,5,6.6c1.4,0.3,2.3,0,3-0.6V266.8z M300,263.9
		c-1.4-0.3-2.6-1.7-2.6-3.6c0-2,1.4-2.8,3-2.4c0.7,0.2,1.4,0.5,2.1,1.1v4.3C301.8,263.8,301,264.1,300,263.9z M308.9,260.2
		c0.8-0.2,1.5-0.4,2.8-0.1c1.6,0.4,2,1.4,2,3.2c-0.5-0.5-1.5-1-2.4-1.2c-2.1-0.5-3.8,0.3-3.8,2.6c0,2.1,1.4,3.6,3.3,4.1
		c1.4,0.3,2.6,0,3.1-0.7v1.2l2.3,0.5v-6.6c0-2.9-1.1-4.7-4.2-5.4c-1.4-0.3-2.8-0.2-3.7,0.2L308.9,260.2z M311.6,266.7
		c-0.8-0.2-1.5-0.8-1.5-1.6c0-0.9,0.8-1.2,1.7-1c0.8,0.2,1.4,0.5,1.9,0.9v1.1C313.3,266.6,312.7,266.9,311.6,266.7z M318.7,266.4
		c0,2.8,0.9,4.5,3.3,5.1c1.4,0.3,2.5,0,3.1-0.4l-0.8-2.3c-0.4,0.2-0.9,0.4-1.6,0.3c-0.9-0.2-1.3-1.1-1.3-2.2v-3.9l3.4,0.8v-2.6
		l-3.4-0.8v-3l-2.7-0.6V266.4z M328.2,264.6c0.8-0.2,1.5-0.4,2.8-0.1c1.6,0.4,2,1.4,2,3.2c-0.5-0.5-1.5-1-2.4-1.2
		c-2.1-0.5-3.8,0.3-3.8,2.6c0,2.1,1.4,3.6,3.3,4.1c1.4,0.3,2.6,0,3.1-0.7v1.2l2.3,0.5v-6.6c0-2.9-1.1-4.7-4.2-5.4
		c-1.4-0.3-2.8-0.2-3.7,0.2L328.2,264.6z M330.9,271c-0.8-0.2-1.5-0.8-1.5-1.6c0-0.9,0.8-1.2,1.7-1c0.8,0.2,1.4,0.5,1.8,0.9v1.1
		C332.6,270.9,332,271.3,330.9,271z M338.2,274c1,0.8,2.7,1.8,4.5,2.2c3.7,0.8,6-0.9,6-4.5c0-3.2-1.9-5.9-5-6.6
		c-1.1-0.3-2.1-0.1-2.8,0.3v-6.7l-2.7-0.6V274z M343.1,267.5c1.5,0.3,2.8,1.7,2.8,3.7c0,1.9-1.3,2.8-3,2.4c-0.7-0.2-1.3-0.5-1.9-1
		v-4.6C341.4,267.6,342.1,267.3,343.1,267.5z M351.9,270c0.8-0.2,1.5-0.4,2.8-0.1c1.6,0.4,2,1.4,2,3.2c-0.5-0.5-1.5-1-2.4-1.2
		c-2.1-0.5-3.8,0.3-3.8,2.6c0,2.1,1.4,3.6,3.3,4.1c1.4,0.3,2.6,0,3.1-0.7v1.2l2.3,0.5V273c0-2.9-1.1-4.7-4.2-5.4
		c-1.4-0.3-2.8-0.2-3.7,0.2L351.9,270z M354.5,276.4c-0.8-0.2-1.5-0.8-1.5-1.6c0-0.9,0.8-1.2,1.7-1c0.8,0.2,1.4,0.5,1.8,0.9v1.1
		C356.3,276.3,355.7,276.7,354.5,276.4z M367.2,278.4c0,0.7-0.6,0.9-1.4,0.7c-1.1-0.2-2.6-1.2-3.3-2.1l-1.3,1.5
		c0.5,0.9,2.5,2.4,4.4,2.8c2.6,0.6,4.3-0.4,4.3-2.5c0-3.8-5.7-4.1-5.7-5.9c0-0.5,0.5-0.8,1.3-0.6c1.1,0.3,2.2,1,2.9,1.7l1-1.7
		c-0.7-0.8-2-1.8-4-2.3c-2.2-0.5-3.9,0.3-3.9,2.4C361.5,276.3,367.2,276.6,367.2,278.4z M380.5,281.4c-0.6,0.4-1.7,0.6-3,0.3
		c-1.7-0.4-2.9-1.6-3.2-3.2l7.6,1.7c0.1-0.4,0.2-0.8,0.2-1.5c0-3-2.3-5.5-5-6.1c-3.5-0.8-5.6,1.3-5.6,4.4c0,3.4,2.3,6.2,5.7,6.9
		c1.5,0.3,3,0.2,4-0.4L380.5,281.4z M377.1,274.9c1.5,0.3,2.4,1.6,2.4,2.9l-5.2-1.2C374.6,275.3,375.5,274.6,377.1,274.9z"/>
</g>
    <g>
	<polygon class="st1" points="285,391.2 423.5,422.6 423.5,564.6 285,533.2 	"/>
        <path class="st2" d="M424.5,565.8L284,534V390l140.5,31.8V565.8z M286,532.4l136.5,30.9V423.4L286,392.5V532.4z"/>
</g>
    <g>
	<path class="st2" d="M331.3,475.2c0,1.3-1,1.7-2.4,1.4c-1.3-0.3-2.8-1.3-3.8-2.7l-1.6,1.6c0.8,1.9,3.3,3.4,5.4,3.9
		c3.1,0.7,5.5-0.7,5.5-3.5c0-5.6-7.4-6.2-7.4-9.6c0-1.1,0.9-1.7,2.3-1.3c1.3,0.3,2.1,0.9,2.9,1.9l1.5-1.9c-1-1.3-2.7-2.4-4.7-2.9
		c-3.2-0.7-5.1,1-5.1,3.5C323.9,471.1,331.3,471.9,331.3,475.2z M345.2,479.8c-0.6,0.4-1.7,0.6-3,0.3c-1.7-0.4-2.9-1.5-3.2-3.2
		l7.6,1.7c0.1-0.4,0.2-0.8,0.2-1.5c0-3-2.3-5.5-5-6.1c-3.5-0.8-5.6,1.3-5.6,4.4c0,3.4,2.3,6.2,5.7,6.9c1.5,0.3,3,0.2,4-0.4
		L345.2,479.8z M341.7,473.3c1.5,0.4,2.4,1.6,2.4,2.9l-5.2-1.2C339.2,473.7,340.1,472.9,341.7,473.3z M349,483.7l2.7,0.6v-7.2
		c0.3-0.6,0.8-1,1.7-0.8c0.6,0.1,0.8,0.3,1.4,0.7l1-2.4c-0.4-0.3-0.8-0.6-1.6-0.8c-1.3-0.3-1.9,0.1-2.4,0.7v-1.1l-2.7-0.6V483.7z
		 M367.1,477l-2.8-0.6l-1.8,4.2c-0.3,0.6-0.6,1.5-0.8,2.3c-0.2-0.9-0.5-1.9-0.8-2.6l-1.9-5.1l-3.2-0.7l4.8,11.9l2,0.5L367.1,477z
		 M376.4,486.9c-0.6,0.4-1.7,0.6-3,0.3c-1.7-0.4-2.9-1.5-3.2-3.2l7.6,1.7c0.1-0.4,0.2-0.8,0.2-1.5c0-3-2.3-5.5-5-6.1
		c-3.5-0.8-5.6,1.3-5.6,4.4c0,3.4,2.3,6.2,5.7,6.9c1.5,0.3,3,0.2,4-0.4L376.4,486.9z M372.9,480.4c1.5,0.3,2.4,1.6,2.4,2.9l-5.2-1.2
		C370.4,480.7,371.3,480,372.9,480.4z M380.2,490.8l2.7,0.6v-7.2c0.3-0.6,0.8-1,1.7-0.8c0.6,0.1,0.8,0.3,1.4,0.7l1-2.4
		c-0.4-0.3-0.8-0.6-1.6-0.8c-1.3-0.3-1.9,0.1-2.4,0.7v-1.1l-2.7-0.6V490.8z"/>
</g>
    <defs>
	<filter id="Adobe_OpacityMaskFilter" filterUnits="userSpaceOnUse" x="135" y="229.6" width="183.9" height="373.9">
		<feColorMatrix  type="matrix" values="1 0 0 0 0  0 1 0 0 0  0 0 1 0 0  0 0 0 1 0"/>
	</filter>
</defs>
    <mask maskUnits="userSpaceOnUse" x="135" y="229.6" width="183.9" height="373.9" id="path-9-inside-1_249_213_00000101787210773900197100000008567856837147181960_">
	<path class="st3" d="M152.8,239.8l148.3,33.5c4.3,1,7.8,5.3,7.8,9.8v304c0,4.4-3.5,7.2-7.8,6.2l-148.3-33.5c-4.3-1-7.8-5.3-7.8-9.8
		V246C145,241.6,148.5,238.8,152.8,239.8z"/>
</mask>
    <g class="st4">
	<path class="st5" d="M302.7,603.5c-1.3,0-2.6-0.1-3.9-0.4l-148.3-33.5c-8.9-2-15.6-10.4-15.6-19.5V246c0-5.2,2.2-9.9,6-13
		c3.8-3.1,8.9-4.2,14-3l148.3,33.5c8.9,2,15.6,10.4,15.6,19.5v304c0,5.2-2.2,9.9-6,13C310,602.3,306.4,603.5,302.7,603.5z
		 M155.2,550.1l143.6,32.5V283.3c-0.1-0.1-0.1-0.2-0.2-0.3L155,250.5v299.3C155.1,549.9,155.1,550,155.2,550.1z M155,549.7
		L155,549.7L155,549.7z M150.6,249.5L150.6,249.5C150.6,249.5,150.6,249.5,150.6,249.5L150.6,249.5z"/>
</g>
    <g>
	<path class="st5" d="M289.4,339.7l-124.9-28.3v-24.1l124.9,28.3V339.7z M166.5,309.8l120.9,27.4v-19.9l-120.9-27.4V309.8z"/>
</g>
    <g>
	<path class="st5" d="M289.4,371.7l-124.9-28.3v-24.1l124.9,28.3V371.7z M166.5,341.8l120.9,27.4v-19.9l-120.9-27.4V341.8z"/>
</g>
    <g>
	<path class="st2" d="M289.4,565.7l-124.9-28.3v-24.1l124.9,28.3V565.7z M166.5,535.8l120.9,27.4v-19.9l-120.9-27.4V535.8z"/>
</g>
    <g>
	<path class="st2" d="M211.3,536.8c0,0.6-0.5,0.9-1.2,0.7c-0.6-0.1-1.4-0.6-1.9-1.4l-0.8,0.8c0.4,0.9,1.6,1.7,2.7,1.9
		c1.5,0.3,2.7-0.3,2.7-1.8c0-2.8-3.7-3.1-3.7-4.8c0-0.6,0.4-0.8,1.1-0.7c0.7,0.1,1.1,0.5,1.5,1l0.8-0.9c-0.5-0.7-1.3-1.2-2.3-1.4
		c-1.6-0.4-2.6,0.5-2.6,1.7C207.6,534.7,211.3,535.1,211.3,536.8z M214.8,539.8l1.3,0.3v-5.4l-1.3-0.3V539.8z M214.7,532.4
		c0,0.6,0.4,1,0.8,1.1c0.4,0.1,0.8-0.1,0.8-0.7c0-0.5-0.4-0.9-0.8-1C215,531.7,214.7,531.9,214.7,532.4z M217.6,541.2
		c0,1.2,1.2,2,2.7,2.4c1.5,0.3,2.7,0.1,2.7-1.1c0-1.2-1.2-2-2.7-2.4l-0.1,0c0-0.1-0.1-0.2-0.1-0.3c0-0.1,0-0.1,0-0.2l0.1,0
		c1.4,0.3,2.2-0.4,2.2-1.5c0-0.2,0-0.5-0.1-0.7l0.9,0l0-1.1l-1.6,0c-0.4-0.3-0.8-0.6-1.3-0.7c-1.4-0.3-2.2,0.4-2.2,1.5
		c0,0.8,0.5,1.6,1.3,2.1c-0.1,0.1-0.1,0.2-0.1,0.4c0,0.1,0,0.3,0.1,0.4C218.3,539.9,217.6,540.3,217.6,541.2z M218.9,541.4
		c0-0.4,0.5-0.5,1.5-0.3c1,0.2,1.5,0.6,1.5,1c0,0.4-0.6,0.5-1.5,0.3C219.5,542.2,218.9,541.9,218.9,541.4z M219.4,537.3
		c0-0.5,0.4-0.8,1-0.7c0.6,0.1,1,0.6,1,1.1c0,0.5-0.4,0.8-1,0.7C219.7,538.3,219.4,537.8,219.4,537.3z M224.6,542l1.3,0.3v-3.7
		c0.3-0.3,0.7-0.4,1.1-0.3c0.7,0.2,1.2,0.7,1.2,1.5v2.9l1.3,0.3V540c0-1.7-0.9-2.5-2.2-2.8c-0.6-0.1-1.2,0-1.5,0.3v-0.5l-1.3-0.3
		V542z M239.2,539.9l-1.3-0.3v3.6c-0.3,0.3-0.7,0.5-1.2,0.4c-0.7-0.2-1-0.7-1-1.5v-3l-1.3-0.3v3.3c0,1.5,0.8,2.4,1.8,2.7
		c0.8,0.2,1.4-0.1,1.7-0.4v0.7l1.3,0.3V539.9z M241.2,548.2l1.3,0.3v-2.5c0.3,0.2,0.8,0.4,1.2,0.5c1.7,0.4,2.8-0.6,2.8-2.3
		c0-1.6-0.9-3-2.4-3.3c-0.7-0.2-1.3,0-1.6,0.3v-0.5l-1.3-0.3V548.2z M243.7,542.1c0.9,0.2,1.4,0.9,1.4,1.8c0,0.9-0.5,1.5-1.5,1.3
		c-0.4-0.1-0.7-0.2-1.1-0.6v-2.2C242.8,542.1,243.3,542,243.7,542.1z"/>
</g>
    <g>

		<rect x="198.6" y="285.1" transform="matrix(0.2207 -0.9753 0.9753 0.2207 -143.6692 435.3524)" class="st0" width="4" height="45"/>
</g>
    <g>

		<rect x="198.6" y="317.1" transform="matrix(0.2207 -0.9753 0.9753 0.2207 -174.8802 460.2907)" class="st0" width="4" height="45"/>
</g>
    <g>
	<polygon class="st1" points="146,51.2 354.7,98.4 354.7,192.4 146,145.2 	"/>
</g>
    <g>
	<polygon class="st2" points="160.6,69.5 215.2,81.9 215.2,97.9 160.6,85.5 	"/>
</g>
    <g>
	<polygon class="st2" points="223,83.7 277.6,96 277.6,112 223,99.7 	"/>
</g>
    <g>
	<path class="st2" d="M285.4,97.8l54.6,12.4v16l-54.6-12.4V97.8z"/>
</g>
    <g>
	<polygon class="st5" points="160.6,93.5 215.2,105.9 215.2,121.9 160.6,109.5 	"/>
</g>
    <g>
	<polygon class="st5" points="223,107.7 277.6,120 277.6,136 223,123.7 	"/>
</g>
    <g>
	<path class="st5" d="M285.4,121.8l54.6,12.4v16l-54.6-12.4V121.8z"/>
</g>
    <g>
	<polygon class="st5" points="160.6,117.5 215.2,129.9 215.2,145.9 160.6,133.5 	"/>
</g>
    <g>
	<polygon class="st5" points="223,131.7 277.6,144 277.6,160 223,147.7 	"/>
</g>
    <g>
	<path class="st5" d="M285.4,145.8l54.6,12.4v16l-54.6-12.4V145.8z"/>
</g>
    <g>
	<path class="st2" d="M355.7,193.7L145,146V50l1.2,0.3l209.5,47.4V193.7z M147,144.4l206.7,46.8V99.2L147,52.5V144.4z"/>
</g>
    <g>
	<path class="st0" d="M364.2,540.4l-2.8,4.4l5.6,1.3L364.2,540.4z M364.2,695.2l0,0.5l0.5,0.1v-0.5L364.2,695.2z M231,663l-0.5-0.1
		v0.5l0.5,0.1L231,663z M231.5,558.1l2.3-4.5l-5.6-1.3l2.3,5.5L231.5,558.1z M363.7,544.8v150.3l1,0.2V545L363.7,544.8z
		 M364.2,694.7L231,662.5l0,1l133.2,32.2L364.2,694.7z M231.5,663.1V557.6l-1-0.2v105.5L231.5,663.1z"/>
</g>
    <g>
	<path class="st6" d="M381.1,372.8v-8.4l-1.3-0.3v5.8l-4.5-6.9l-1.1-0.3v8.4l1.3,0.3v-5.8l4.5,6.8L381.1,372.8z M387.6,372.8
		c-0.3,0.2-0.8,0.3-1.5,0.2c-0.8-0.2-1.5-0.8-1.6-1.6l3.8,0.9c0.1-0.2,0.1-0.4,0.1-0.7c0-1.5-1.1-2.8-2.5-3.1
		c-1.7-0.4-2.8,0.6-2.8,2.2c0,1.7,1.1,3.1,2.8,3.5c0.7,0.2,1.5,0.1,2-0.2L387.6,372.8z M385.9,369.5c0.8,0.2,1.2,0.8,1.2,1.4
		l-2.6-0.6C384.6,369.7,385.1,369.4,385.9,369.5z M397.6,371.2l-1.4-0.3l-0.8,2.7c-0.1,0.3-0.1,0.5-0.2,0.7
		c-0.1-0.3-0.1-0.5-0.2-0.8l-1-3.2l-1.2-0.3l-1,2.7c-0.1,0.3-0.1,0.5-0.2,0.7c0-0.3-0.1-0.5-0.2-0.8l-0.8-3.1l-1.4-0.3l1.7,5.8
		l1.1,0.3l1.1-2.7c0.1-0.2,0.1-0.4,0.2-0.6c0.1,0.2,0.1,0.5,0.2,0.7l1.1,3.3l1.2,0.3L397.6,371.2z M406.6,373.2l-1.3-0.3v3.6
		c-0.3,0.3-0.7,0.5-1.2,0.4c-0.7-0.2-1-0.7-1-1.5v-3l-1.3-0.3v3.3c0,1.5,0.8,2.4,1.8,2.6c0.8,0.2,1.4-0.1,1.7-0.4v0.7l1.3,0.3V373.2
		z M411.2,378.1c0,0.3-0.3,0.4-0.7,0.3c-0.5-0.1-1.3-0.6-1.6-1l-0.7,0.8c0.2,0.4,1.2,1.2,2.2,1.4c1.3,0.3,2.1-0.2,2.1-1.2
		c0-1.9-2.8-2.1-2.8-3c0-0.2,0.2-0.4,0.7-0.3c0.6,0.1,1.1,0.5,1.4,0.8l0.5-0.9c-0.3-0.4-1-0.9-2-1.1c-1.1-0.2-1.9,0.2-1.9,1.2
		C408.4,377.1,411.2,377.3,411.2,378.1z M418.4,379.8c-0.3,0.2-0.8,0.3-1.5,0.2c-0.8-0.2-1.5-0.8-1.6-1.6l3.8,0.9
		c0.1-0.2,0.1-0.4,0.1-0.7c0-1.5-1.1-2.8-2.5-3.1c-1.7-0.4-2.8,0.6-2.8,2.2c0,1.7,1.1,3.1,2.8,3.5c0.7,0.2,1.5,0.1,2-0.2
		L418.4,379.8z M416.6,376.5c0.8,0.2,1.2,0.8,1.2,1.4l-2.6-0.6C415.4,376.7,415.8,376.3,416.6,376.5z M420.7,381.8l1.3,0.3v-3.6
		c0.2-0.3,0.4-0.5,0.9-0.4c0.3,0.1,0.4,0.1,0.7,0.4l0.5-1.2c-0.2-0.2-0.4-0.3-0.8-0.4c-0.6-0.1-1,0.1-1.2,0.4v-0.5l-1.3-0.3V381.8z
		 M428,380.7c0,1.6,1.1,3.1,2.9,3.5c1.7,0.4,2.9-0.6,2.9-2.2c0-1.6-1.1-3.1-2.9-3.5C429.1,378.2,428,379.1,428,380.7z M429.4,381.1
		c0-0.9,0.6-1.4,1.4-1.2c0.8,0.2,1.4,0.9,1.4,1.9c0,0.9-0.6,1.4-1.4,1.2C430,382.8,429.4,382,429.4,381.1z M435.3,384.6
		c0.5,0.4,1.4,0.9,2.2,1.1c1.8,0.4,3-0.5,3-2.2c0-1.6-0.9-3-2.5-3.3c-0.6-0.1-1.1,0-1.4,0.2V377l-1.3-0.3V384.6z M437.8,381.4
		c0.8,0.2,1.4,0.8,1.4,1.9c0,1-0.7,1.4-1.5,1.2c-0.4-0.1-0.7-0.2-1-0.5v-2.3C436.9,381.5,437.3,381.3,437.8,381.4z M443.8,381.6
		l-1.3-0.3v5.7c0,0.6-0.2,0.9-0.6,0.8c-0.2-0.1-0.4-0.2-0.6-0.3l-0.4,1c0.2,0.3,0.7,0.5,1.3,0.7c1.2,0.3,1.6-0.4,1.6-1.7V381.6z
		 M442.4,379.4c0,0.6,0.4,1,0.8,1.1c0.4,0.1,0.8-0.1,0.8-0.7c0-0.5-0.4-0.9-0.8-1C442.7,378.6,442.4,378.9,442.4,379.4z
		 M450.1,386.9c-0.3,0.2-0.8,0.3-1.5,0.2c-0.8-0.2-1.5-0.8-1.6-1.6l3.8,0.9c0.1-0.2,0.1-0.4,0.1-0.7c0-1.5-1.1-2.8-2.5-3.1
		c-1.7-0.4-2.8,0.6-2.8,2.2c0,1.7,1.1,3.1,2.8,3.5c0.7,0.2,1.5,0.1,2-0.2L450.1,386.9z M448.4,383.7c0.8,0.2,1.2,0.8,1.2,1.4
		l-2.6-0.6C447.2,383.9,447.6,383.5,448.4,383.7z M456.5,388.1c-0.3,0.3-0.8,0.5-1.4,0.4c-0.8-0.2-1.5-0.9-1.5-1.9
		c0-0.9,0.7-1.4,1.5-1.2c0.5,0.1,0.9,0.3,1.3,0.8l0.6-0.9c-0.5-0.6-1.3-1-2.1-1.2c-1.6-0.4-2.7,0.6-2.7,2.2c0,1.7,1.1,3.1,2.9,3.5
		c0.9,0.2,1.7,0.1,2.1-0.5L456.5,388.1z M458.5,388.3c0,1.4,0.4,2.3,1.6,2.5c0.7,0.2,1.2,0,1.6-0.2l-0.4-1.2
		c-0.2,0.1-0.4,0.2-0.8,0.1c-0.4-0.1-0.6-0.5-0.6-1.1v-2l1.7,0.4v-1.3l-1.7-0.4v-1.5l-1.3-0.3V388.3z"/>
</g>
    <g>
	<path class="st6" d="M258.8,658.6c-0.6,0.3-1.3,0.4-1.9,0.2c-1.7-0.4-2.8-1.8-2.8-3.6c0-1.8,1.1-2.7,2.7-2.3c0.8,0.2,1.4,0.5,1.8,1
		l0.6-0.9c-0.5-0.6-1.4-1.2-2.5-1.4c-2.7-0.6-4.2,1-4.2,3.4c0,2.6,1.7,4.7,4.2,5.3c1.1,0.2,2.1,0.1,2.6-0.4L258.8,658.6z M260.9,661
		l1.3,0.3v-3.6c0.2-0.3,0.4-0.5,0.9-0.4c0.3,0.1,0.4,0.1,0.7,0.4l0.5-1.2c-0.2-0.2-0.4-0.3-0.8-0.4c-0.6-0.1-1,0.1-1.2,0.4v-0.5
		l-1.3-0.3V661z M269.6,661.5c-0.3,0.2-0.8,0.3-1.5,0.2c-0.8-0.2-1.5-0.8-1.6-1.6l3.8,0.9c0.1-0.2,0.1-0.4,0.1-0.7
		c0-1.5-1.1-2.8-2.5-3.1c-1.7-0.4-2.8,0.6-2.8,2.2c0,1.7,1.1,3.1,2.8,3.5c0.7,0.2,1.5,0.1,2-0.2L269.6,661.5z M267.9,658.2
		c0.8,0.2,1.2,0.8,1.2,1.4l-2.6-0.6C266.7,658.4,267.1,658,267.9,658.2z M272.4,659.6c0.4-0.1,0.8-0.2,1.4-0.1c0.8,0.2,1,0.7,1,1.6
		c-0.3-0.2-0.7-0.5-1.2-0.6c-1.1-0.2-1.9,0.1-1.9,1.3c0,1,0.7,1.8,1.6,2c0.7,0.2,1.3,0,1.6-0.3v0.6l1.2,0.3v-3.3
		c0-1.4-0.5-2.4-2.1-2.7c-0.7-0.2-1.4-0.1-1.9,0.1L272.4,659.6z M273.8,662.8c-0.4-0.1-0.7-0.4-0.7-0.8c0-0.5,0.4-0.6,0.8-0.5
		c0.4,0.1,0.7,0.2,0.9,0.5v0.6C274.6,662.8,274.3,663,273.8,662.8z M277.8,662.8c0,1.4,0.4,2.3,1.6,2.5c0.7,0.2,1.2,0,1.6-0.2
		l-0.4-1.2c-0.2,0.1-0.4,0.2-0.8,0.1c-0.4-0.1-0.6-0.5-0.6-1.1v-2l1.7,0.4v-1.3l-1.7-0.4v-1.5l-1.3-0.3V662.8z M286.5,665.3
		c-0.3,0.2-0.8,0.3-1.5,0.2c-0.8-0.2-1.5-0.8-1.6-1.6l3.8,0.9c0.1-0.2,0.1-0.4,0.1-0.7c0-1.5-1.1-2.8-2.5-3.1
		c-1.7-0.4-2.8,0.6-2.8,2.2c0,1.7,1.1,3.1,2.8,3.5c0.7,0.2,1.5,0.1,2-0.2L286.5,665.3z M284.8,662c0.8,0.2,1.2,0.8,1.2,1.4l-2.6-0.6
		C283.5,662.2,284,661.8,284.8,662z M291.8,668l1.3,0.3v-3.7c0.3-0.3,0.7-0.4,1.1-0.3c0.7,0.2,1.2,0.7,1.2,1.5v2.9l1.3,0.3V666
		c0-1.7-0.9-2.5-2.2-2.8c-0.6-0.1-1.2,0-1.5,0.3v-0.5l-1.3-0.3V668z M302.8,669c-0.3,0.2-0.8,0.3-1.5,0.2c-0.8-0.2-1.5-0.8-1.6-1.6
		l3.8,0.9c0.1-0.2,0.1-0.4,0.1-0.7c0-1.5-1.1-2.8-2.5-3.1c-1.7-0.4-2.8,0.6-2.8,2.2c0,1.7,1.1,3.1,2.8,3.5c0.7,0.2,1.5,0.1,2-0.2
		L302.8,669z M301.1,665.7c0.8,0.2,1.2,0.8,1.2,1.4l-2.6-0.6C299.8,665.9,300.3,665.5,301.1,665.7z M312.8,667.4l-1.4-0.3l-0.8,2.7
		c-0.1,0.2-0.1,0.5-0.2,0.7c-0.1-0.3-0.1-0.5-0.2-0.8l-1-3.2l-1.2-0.3l-1,2.7c-0.1,0.3-0.1,0.5-0.2,0.7c0-0.3-0.1-0.5-0.2-0.8
		l-0.8-3.1l-1.4-0.3l1.7,5.8l1.1,0.3l1.1-2.7c0.1-0.2,0.1-0.4,0.2-0.6c0.1,0.2,0.1,0.5,0.2,0.7l1.1,3.3l1.2,0.3L312.8,667.4z
		 M321.8,669.4l-1.3-0.3v3.6c-0.3,0.3-0.7,0.5-1.2,0.4c-0.7-0.2-1-0.7-1-1.5v-3l-1.3-0.3v3.3c0,1.5,0.8,2.4,1.8,2.7
		c0.8,0.2,1.4-0.1,1.7-0.4v0.7l1.3,0.3V669.4z M326.4,674.3c0,0.3-0.3,0.4-0.7,0.3c-0.5-0.1-1.3-0.6-1.6-1l-0.7,0.8
		c0.2,0.4,1.2,1.2,2.2,1.4c1.3,0.3,2.1-0.2,2.1-1.2c0-1.9-2.8-2.1-2.8-3c0-0.2,0.2-0.4,0.7-0.3c0.6,0.1,1.1,0.5,1.4,0.8l0.5-0.9
		c-0.3-0.4-1-0.9-2-1.1c-1.1-0.2-1.9,0.2-1.9,1.2C323.6,673.3,326.4,673.4,326.4,674.3z M333.6,675.9c-0.3,0.2-0.8,0.3-1.5,0.2
		c-0.8-0.2-1.5-0.8-1.6-1.6l3.8,0.9c0.1-0.2,0.1-0.4,0.1-0.7c0-1.5-1.1-2.8-2.5-3.1c-1.7-0.4-2.8,0.6-2.8,2.2c0,1.7,1.1,3.1,2.8,3.5
		c0.7,0.2,1.5,0.1,2-0.2L333.6,675.9z M331.8,672.7c0.8,0.2,1.2,0.8,1.2,1.4l-2.6-0.6C330.6,672.9,331,672.5,331.8,672.7z
		 M335.9,678l1.3,0.3v-3.6c0.2-0.3,0.4-0.5,0.9-0.4c0.3,0.1,0.4,0.1,0.7,0.4l0.5-1.2c-0.2-0.2-0.4-0.3-0.8-0.4
		c-0.6-0.1-1,0.1-1.2,0.4v-0.5l-1.3-0.3V678z"/>
</g>
</svg>
