<svg width="600" height="600" viewBox="0 0 600 600" fill="none" xmlns="http://www.w3.org/2000/svg">
    <rect width="115.494" height="115.494" transform="matrix(0.866025 0.5 -0.866025 0.5 432.021 50)" fill="#73FFE5"/>
    <rect width="115.494" height="115.494" transform="matrix(0.866025 0.5 -0.866025 0.5 432.021 50)" fill="#3C4257"/>
    <path d="M332 107.747L432.021 165.494L432.021 235.134L332 177.387L332 142.567L332 107.747Z" fill="#E1E8FF"/>
    <path d="M432.095 165.494L532.115 107.747L532.115 177.387L432.095 235.134L432.095 200.314L432.095 165.494Z" fill="#CEC0FF"/>
    <path d="M441.888 141.543C445.582 139.41 446.008 137.102 443.197 135.479L443.187 135.473C440.883 134.143 438.254 134.219 434.58 135.637L432.713 136.352C430.693 137.131 429.405 137.254 428.481 136.721L428.471 136.715C427.426 136.111 427.649 135.15 429.212 134.236C430.724 133.363 432.48 133.158 433.779 133.732L433.911 133.797L436.803 132.127L436.6 132.021C433.89 130.621 430.115 130.844 426.725 132.801C423.478 134.676 422.909 137.043 425.589 138.59L425.599 138.596C427.801 139.867 430.643 139.82 434.114 138.484L435.961 137.77C438.153 136.938 439.371 136.809 440.365 137.383L440.375 137.389C441.492 138.033 441.167 139.076 439.472 140.055C437.798 141.021 435.879 141.309 434.55 140.764L434.418 140.711L431.526 142.381L431.698 142.469C434.57 143.928 438.406 143.553 441.888 141.543ZM454.34 134.318C457.446 132.525 457.111 130.598 455.842 129.479L455.761 129.396L453.041 130.967L453.082 131.014C453.477 131.488 453.406 132.303 452.188 133.006C450.676 133.879 448.718 133.838 446.952 132.854L454.441 128.529L453.528 128.002C450.24 126.104 446.079 126.01 442.892 127.85C439.706 129.689 439.878 132.145 443.339 134.143L443.349 134.148C446.83 136.158 451.011 136.24 454.34 134.318ZM445.155 129.098C446.383 128.389 448.048 128.33 449.732 129.092L445.115 131.758C443.836 130.797 443.938 129.801 445.155 129.098ZM460.713 130.381L463.677 128.67L457.588 125.154C456.004 124.24 455.984 123.244 457.446 122.4C457.872 122.154 458.339 121.955 458.684 121.873L456.075 120.367C455.791 120.461 455.436 120.607 455.111 120.795C453.843 121.527 453.741 122.488 454.756 123.449L454.695 123.484L452.797 122.389L449.834 124.1L460.713 130.381ZM471.156 124.352L474.495 122.424L467.351 113.986L464.255 115.773L470.274 121.838L470.213 121.873L459.678 118.416L456.512 120.244L471.156 124.352ZM484.056 117.162C487.161 115.369 486.826 113.441 485.558 112.322L485.476 112.24L482.756 113.811L482.797 113.857C483.193 114.332 483.122 115.146 481.904 115.85C480.392 116.723 478.433 116.682 476.667 115.697L484.157 111.373L483.244 110.846C479.955 108.947 475.794 108.854 472.608 110.693C469.421 112.533 469.594 114.988 473.054 116.986L473.064 116.992C476.545 119.002 480.727 119.084 484.056 117.162ZM474.871 111.941C476.099 111.232 477.763 111.174 479.448 111.936L474.83 114.602C473.552 113.641 473.653 112.645 474.871 111.941ZM490.429 113.225L493.392 111.514L487.303 107.998C485.72 107.084 485.7 106.088 487.161 105.244C487.587 104.998 488.054 104.799 488.399 104.717L485.791 103.211C485.507 103.305 485.152 103.451 484.827 103.639C483.558 104.371 483.457 105.332 484.472 106.293L484.411 106.328L482.513 105.232L479.549 106.943L490.429 113.225Z" fill="white"/>
    <path d="M341.237 457.602C341.097 443.144 350.58 428.661 369.686 417.63C407.62 395.729 469.124 395.729 507.058 417.63C526.164 428.661 535.647 443.144 535.507 457.602C535.509 457.813 535.509 458.023 535.507 458.234C535.509 458.445 535.509 458.655 535.507 458.866C535.509 459.077 535.509 459.287 535.507 459.498C535.509 459.709 535.509 459.919 535.507 460.13C535.509 460.341 535.509 460.551 535.507 460.762C535.508 460.808 535.508 460.854 535.508 460.901C535.508 460.941 535.509 460.982 535.509 461.023C535.509 461.147 535.508 461.27 535.507 461.394C535.509 461.605 535.509 461.815 535.507 462.026C535.508 462.131 535.509 462.235 535.509 462.34L535.509 462.435C535.508 462.47 535.508 462.506 535.508 462.541C535.508 462.58 535.508 462.619 535.507 462.658C535.508 462.781 535.509 462.905 535.509 463.029C535.508 463.116 535.508 463.203 535.507 463.29C535.509 463.5 535.509 463.711 535.507 463.922C535.508 464.011 535.509 464.1 535.509 464.19C535.509 464.311 535.508 464.432 535.507 464.554C535.509 464.764 535.509 464.975 535.507 465.186C535.509 465.396 535.509 465.607 535.507 465.818C535.509 466.028 535.509 466.239 535.507 466.45C535.509 466.66 535.509 466.871 535.507 467.082C535.509 467.292 535.509 467.503 535.507 467.714C535.509 467.924 535.509 468.135 535.507 468.346L535.508 468.406L535.508 468.49C535.508 468.531 535.509 468.573 535.509 468.614C535.509 468.735 535.508 468.856 535.507 468.978C535.509 469.188 535.509 469.399 535.507 469.609C535.509 469.82 535.509 470.031 535.507 470.241C535.509 470.452 535.509 470.663 535.507 470.873C535.509 471.084 535.509 471.295 535.507 471.505C535.509 471.716 535.509 471.927 535.507 472.137C535.509 472.348 535.509 472.559 535.507 472.769C535.509 472.98 535.509 473.191 535.507 473.401C535.509 473.612 535.509 473.823 535.507 474.033C535.508 474.138 535.509 474.244 535.509 474.349C535.509 474.454 535.508 474.56 535.507 474.665C535.509 474.876 535.509 475.087 535.507 475.297C535.509 475.508 535.509 475.718 535.507 475.929C535.508 476.021 535.509 476.113 535.509 476.204C535.509 476.323 535.508 476.442 535.507 476.561C535.509 476.772 535.509 476.982 535.507 477.193C535.509 477.404 535.509 477.614 535.507 477.825C535.509 478.036 535.509 478.246 535.507 478.457C535.509 478.668 535.509 478.878 535.507 479.089C535.509 479.3 535.509 479.51 535.507 479.721C535.509 479.932 535.509 480.142 535.507 480.353C535.508 480.395 535.508 480.436 535.508 480.478L535.509 480.567C535.509 480.706 535.508 480.846 535.507 480.985C535.509 481.196 535.509 481.406 535.507 481.617C535.509 481.827 535.509 482.038 535.507 482.249C535.509 482.459 535.509 482.67 535.507 482.881C535.509 483.091 535.509 483.302 535.507 483.513C535.509 483.723 535.509 483.934 535.507 484.145C535.509 484.355 535.509 484.566 535.507 484.777C535.509 484.987 535.509 485.198 535.507 485.409C535.509 485.619 535.509 485.83 535.507 486.041C535.509 486.251 535.509 486.462 535.507 486.673C535.509 486.883 535.509 487.094 535.507 487.305C535.509 487.515 535.509 487.726 535.507 487.937C535.647 502.394 526.164 516.877 507.058 527.908C469.124 549.81 407.62 549.81 369.686 527.908C350.58 516.877 341.097 502.394 341.237 487.936C341.235 487.726 341.235 487.515 341.237 487.304C341.235 487.094 341.235 486.883 341.237 486.672C341.235 486.462 341.235 486.251 341.237 486.04C341.235 485.83 341.235 485.619 341.237 485.408C341.235 485.198 341.235 484.987 341.237 484.776C341.235 484.566 341.235 484.355 341.237 484.145C341.235 483.934 341.235 483.723 341.237 483.513C341.235 483.302 341.235 483.091 341.237 482.881C341.235 482.67 341.235 482.459 341.237 482.249C341.235 482.038 341.235 481.827 341.237 481.617C341.235 481.406 341.235 481.195 341.237 480.985C341.235 480.774 341.235 480.563 341.237 480.353C341.235 480.142 341.235 479.931 341.237 479.721C341.235 479.51 341.235 479.299 341.237 479.089C341.235 478.878 341.235 478.667 341.237 478.457C341.235 478.246 341.235 478.036 341.237 477.825C341.235 477.614 341.235 477.404 341.237 477.193C341.235 476.982 341.235 476.772 341.237 476.561C341.235 476.35 341.235 476.14 341.237 475.929C341.235 475.718 341.235 475.508 341.237 475.297C341.235 475.086 341.235 474.876 341.237 474.665C341.235 474.454 341.235 474.244 341.237 474.033C341.235 473.822 341.235 473.612 341.237 473.401C341.235 473.19 341.235 472.98 341.237 472.769C341.235 472.558 341.235 472.348 341.237 472.137C341.235 471.927 341.235 471.716 341.237 471.505C341.235 471.295 341.235 471.084 341.237 470.873C341.235 470.663 341.235 470.452 341.237 470.241C341.235 470.031 341.235 469.82 341.237 469.609C341.235 469.399 341.235 469.188 341.237 468.977C341.235 468.767 341.235 468.556 341.237 468.345C341.235 468.135 341.235 467.924 341.237 467.713C341.235 467.503 341.235 467.292 341.237 467.081C341.235 466.871 341.235 466.66 341.237 466.449C341.235 466.239 341.235 466.028 341.237 465.818C341.235 465.607 341.235 465.396 341.237 465.186C341.235 464.975 341.235 464.764 341.237 464.554C341.235 464.343 341.235 464.132 341.237 463.922C341.235 463.711 341.235 463.5 341.237 463.29C341.235 463.079 341.235 462.868 341.237 462.658C341.235 462.447 341.235 462.236 341.237 462.026C341.235 461.815 341.235 461.604 341.237 461.394C341.235 461.183 341.235 460.972 341.237 460.762C341.235 460.551 341.235 460.34 341.237 460.13C341.235 459.919 341.235 459.709 341.237 459.498C341.235 459.287 341.235 459.077 341.237 458.866C341.235 458.655 341.235 458.445 341.237 458.234C341.235 458.023 341.235 457.813 341.237 457.602Z" fill="#E1E8FF"/>
    <path d="M341.237 457.602C341.097 443.144 350.58 428.661 369.686 417.63C407.62 395.729 469.124 395.729 507.058 417.63C526.164 428.661 535.647 443.144 535.507 457.602C535.509 457.813 535.509 458.023 535.507 458.234C535.509 458.445 535.509 458.655 535.507 458.866C535.509 459.077 535.509 459.287 535.507 459.498C535.509 459.709 535.509 459.919 535.507 460.13C535.509 460.341 535.509 460.551 535.507 460.762C535.508 460.808 535.508 460.854 535.508 460.901C535.508 460.941 535.509 460.982 535.509 461.023C535.509 461.147 535.508 461.27 535.507 461.394C535.509 461.605 535.509 461.815 535.507 462.026C535.508 462.131 535.509 462.235 535.509 462.34L535.509 462.435C535.508 462.47 535.508 462.506 535.508 462.541C535.508 462.58 535.508 462.619 535.507 462.658C535.508 462.781 535.509 462.905 535.509 463.029C535.508 463.116 535.508 463.203 535.507 463.29C535.509 463.5 535.509 463.711 535.507 463.922C535.508 464.011 535.509 464.1 535.509 464.19C535.509 464.311 535.508 464.432 535.507 464.554C535.509 464.764 535.509 464.975 535.507 465.186C535.509 465.396 535.509 465.607 535.507 465.818C535.509 466.028 535.509 466.239 535.507 466.45C535.509 466.66 535.509 466.871 535.507 467.082C535.509 467.292 535.509 467.503 535.507 467.714C535.509 467.924 535.509 468.135 535.507 468.346L535.508 468.406L535.508 468.49C535.508 468.531 535.509 468.573 535.509 468.614C535.509 468.735 535.508 468.856 535.507 468.978C535.509 469.188 535.509 469.399 535.507 469.609C535.509 469.82 535.509 470.031 535.507 470.241C535.509 470.452 535.509 470.663 535.507 470.873C535.509 471.084 535.509 471.295 535.507 471.505C535.509 471.716 535.509 471.927 535.507 472.137C535.509 472.348 535.509 472.559 535.507 472.769C535.509 472.98 535.509 473.191 535.507 473.401C535.509 473.612 535.509 473.823 535.507 474.033C535.508 474.138 535.509 474.244 535.509 474.349C535.509 474.454 535.508 474.56 535.507 474.665C535.509 474.876 535.509 475.087 535.507 475.297C535.509 475.508 535.509 475.718 535.507 475.929C535.508 476.021 535.509 476.113 535.509 476.204C535.509 476.323 535.508 476.442 535.507 476.561C535.509 476.772 535.509 476.982 535.507 477.193C535.509 477.404 535.509 477.614 535.507 477.825C535.509 478.036 535.509 478.246 535.507 478.457C535.509 478.668 535.509 478.878 535.507 479.089C535.509 479.3 535.509 479.51 535.507 479.721C535.509 479.932 535.509 480.142 535.507 480.353C535.508 480.395 535.508 480.436 535.508 480.478L535.509 480.567C535.509 480.706 535.508 480.846 535.507 480.985C535.509 481.196 535.509 481.406 535.507 481.617C535.509 481.827 535.509 482.038 535.507 482.249C535.509 482.459 535.509 482.67 535.507 482.881C535.509 483.091 535.509 483.302 535.507 483.513C535.509 483.723 535.509 483.934 535.507 484.145C535.509 484.355 535.509 484.566 535.507 484.777C535.509 484.987 535.509 485.198 535.507 485.409C535.509 485.619 535.509 485.83 535.507 486.041C535.509 486.251 535.509 486.462 535.507 486.673C535.509 486.883 535.509 487.094 535.507 487.305C535.509 487.515 535.509 487.726 535.507 487.937C535.647 502.394 526.164 516.877 507.058 527.908C469.124 549.81 407.62 549.81 369.686 527.908C350.58 516.877 341.097 502.394 341.237 487.936C341.235 487.726 341.235 487.515 341.237 487.304C341.235 487.094 341.235 486.883 341.237 486.672C341.235 486.462 341.235 486.251 341.237 486.04C341.235 485.83 341.235 485.619 341.237 485.408C341.235 485.198 341.235 484.987 341.237 484.776C341.235 484.566 341.235 484.355 341.237 484.145C341.235 483.934 341.235 483.723 341.237 483.513C341.235 483.302 341.235 483.091 341.237 482.881C341.235 482.67 341.235 482.459 341.237 482.249C341.235 482.038 341.235 481.827 341.237 481.617C341.235 481.406 341.235 481.195 341.237 480.985C341.235 480.774 341.235 480.563 341.237 480.353C341.235 480.142 341.235 479.931 341.237 479.721C341.235 479.51 341.235 479.299 341.237 479.089C341.235 478.878 341.235 478.667 341.237 478.457C341.235 478.246 341.235 478.036 341.237 477.825C341.235 477.614 341.235 477.404 341.237 477.193C341.235 476.982 341.235 476.772 341.237 476.561C341.235 476.35 341.235 476.14 341.237 475.929C341.235 475.718 341.235 475.508 341.237 475.297C341.235 475.086 341.235 474.876 341.237 474.665C341.235 474.454 341.235 474.244 341.237 474.033C341.235 473.822 341.235 473.612 341.237 473.401C341.235 473.19 341.235 472.98 341.237 472.769C341.235 472.558 341.235 472.348 341.237 472.137C341.235 471.927 341.235 471.716 341.237 471.505C341.235 471.295 341.235 471.084 341.237 470.873C341.235 470.663 341.235 470.452 341.237 470.241C341.235 470.031 341.235 469.82 341.237 469.609C341.235 469.399 341.235 469.188 341.237 468.977C341.235 468.767 341.235 468.556 341.237 468.345C341.235 468.135 341.235 467.924 341.237 467.713C341.235 467.503 341.235 467.292 341.237 467.081C341.235 466.871 341.235 466.66 341.237 466.449C341.235 466.239 341.235 466.028 341.237 465.818C341.235 465.607 341.235 465.396 341.237 465.186C341.235 464.975 341.235 464.764 341.237 464.554C341.235 464.343 341.235 464.132 341.237 463.922C341.235 463.711 341.235 463.5 341.237 463.29C341.235 463.079 341.235 462.868 341.237 462.658C341.235 462.447 341.235 462.236 341.237 462.026C341.235 461.815 341.235 461.604 341.237 461.394C341.235 461.183 341.235 460.972 341.237 460.762C341.235 460.551 341.235 460.34 341.237 460.13C341.235 459.919 341.235 459.709 341.237 459.498C341.235 459.287 341.235 459.077 341.237 458.866C341.235 458.655 341.235 458.445 341.237 458.234C341.235 458.023 341.235 457.813 341.237 457.602Z" fill="url(#paint0_linear)"/>
    <circle r="79.3118" transform="matrix(0.866025 0.5 -0.866025 0.5 438.372 456.654)" fill="#3C4257"/>
    <ellipse cx="361.038" cy="506.11" rx="5.05573" ry="5.6877" fill="#3C4257"/>
    <path d="M341.237 407.602C341.097 393.144 350.58 378.661 369.686 367.63C407.62 345.729 469.124 345.729 507.058 367.63C526.164 378.661 535.647 393.144 535.507 407.602C535.509 407.813 535.509 408.023 535.507 408.234C535.509 408.445 535.509 408.655 535.507 408.866C535.509 409.077 535.509 409.287 535.507 409.498C535.509 409.709 535.509 409.919 535.507 410.13C535.509 410.341 535.509 410.551 535.507 410.762C535.508 410.808 535.508 410.854 535.508 410.901C535.508 410.941 535.509 410.982 535.509 411.023C535.509 411.147 535.508 411.27 535.507 411.394C535.509 411.605 535.509 411.815 535.507 412.026C535.508 412.131 535.509 412.235 535.509 412.34L535.509 412.435C535.508 412.47 535.508 412.506 535.508 412.541C535.508 412.58 535.508 412.619 535.507 412.658C535.508 412.781 535.509 412.905 535.509 413.029C535.508 413.116 535.508 413.203 535.507 413.29C535.509 413.5 535.509 413.711 535.507 413.922C535.508 414.011 535.509 414.1 535.509 414.19C535.509 414.311 535.508 414.432 535.507 414.554C535.509 414.764 535.509 414.975 535.507 415.186C535.509 415.396 535.509 415.607 535.507 415.818C535.509 416.028 535.509 416.239 535.507 416.45C535.509 416.66 535.509 416.871 535.507 417.082C535.509 417.292 535.509 417.503 535.507 417.714C535.509 417.924 535.509 418.135 535.507 418.346L535.508 418.406L535.508 418.49C535.508 418.531 535.509 418.573 535.509 418.614C535.509 418.735 535.508 418.856 535.507 418.978C535.509 419.188 535.509 419.399 535.507 419.609C535.509 419.82 535.509 420.031 535.507 420.241C535.509 420.452 535.509 420.663 535.507 420.873C535.509 421.084 535.509 421.295 535.507 421.505C535.509 421.716 535.509 421.927 535.507 422.137C535.509 422.348 535.509 422.559 535.507 422.769C535.509 422.98 535.509 423.191 535.507 423.401C535.509 423.612 535.509 423.823 535.507 424.033C535.508 424.138 535.509 424.244 535.509 424.349C535.509 424.454 535.508 424.56 535.507 424.665C535.509 424.876 535.509 425.087 535.507 425.297C535.509 425.508 535.509 425.718 535.507 425.929C535.508 426.021 535.509 426.113 535.509 426.204C535.509 426.323 535.508 426.442 535.507 426.561C535.509 426.772 535.509 426.982 535.507 427.193C535.509 427.404 535.509 427.614 535.507 427.825C535.509 428.036 535.509 428.246 535.507 428.457C535.509 428.668 535.509 428.878 535.507 429.089C535.509 429.3 535.509 429.51 535.507 429.721C535.509 429.932 535.509 430.142 535.507 430.353C535.508 430.395 535.508 430.436 535.508 430.478L535.509 430.567C535.509 430.706 535.508 430.846 535.507 430.985C535.509 431.196 535.509 431.406 535.507 431.617C535.509 431.827 535.509 432.038 535.507 432.249C535.509 432.459 535.509 432.67 535.507 432.881C535.509 433.091 535.509 433.302 535.507 433.513C535.509 433.723 535.509 433.934 535.507 434.145C535.509 434.355 535.509 434.566 535.507 434.777C535.509 434.987 535.509 435.198 535.507 435.409C535.509 435.619 535.509 435.83 535.507 436.041C535.509 436.251 535.509 436.462 535.507 436.673C535.509 436.883 535.509 437.094 535.507 437.305C535.509 437.515 535.509 437.726 535.507 437.937C535.647 452.394 526.164 466.877 507.058 477.908C469.124 499.81 407.62 499.81 369.686 477.908C350.58 466.877 341.097 452.394 341.237 437.936C341.235 437.726 341.235 437.515 341.237 437.304C341.235 437.094 341.235 436.883 341.237 436.672C341.235 436.462 341.235 436.251 341.237 436.04C341.235 435.83 341.235 435.619 341.237 435.408C341.235 435.198 341.235 434.987 341.237 434.776C341.235 434.566 341.235 434.355 341.237 434.145C341.235 433.934 341.235 433.723 341.237 433.513C341.235 433.302 341.235 433.091 341.237 432.881C341.235 432.67 341.235 432.459 341.237 432.249C341.235 432.038 341.235 431.827 341.237 431.617C341.235 431.406 341.235 431.195 341.237 430.985C341.235 430.774 341.235 430.563 341.237 430.353C341.235 430.142 341.235 429.931 341.237 429.721C341.235 429.51 341.235 429.299 341.237 429.089C341.235 428.878 341.235 428.667 341.237 428.457C341.235 428.246 341.235 428.036 341.237 427.825C341.235 427.614 341.235 427.404 341.237 427.193C341.235 426.982 341.235 426.772 341.237 426.561C341.235 426.35 341.235 426.14 341.237 425.929C341.235 425.718 341.235 425.508 341.237 425.297C341.235 425.086 341.235 424.876 341.237 424.665C341.235 424.454 341.235 424.244 341.237 424.033C341.235 423.822 341.235 423.612 341.237 423.401C341.235 423.19 341.235 422.98 341.237 422.769C341.235 422.558 341.235 422.348 341.237 422.137C341.235 421.927 341.235 421.716 341.237 421.505C341.235 421.295 341.235 421.084 341.237 420.873C341.235 420.663 341.235 420.452 341.237 420.241C341.235 420.031 341.235 419.82 341.237 419.609C341.235 419.399 341.235 419.188 341.237 418.977C341.235 418.767 341.235 418.556 341.237 418.345C341.235 418.135 341.235 417.924 341.237 417.713C341.235 417.503 341.235 417.292 341.237 417.081C341.235 416.871 341.235 416.66 341.237 416.449C341.235 416.239 341.235 416.028 341.237 415.818C341.235 415.607 341.235 415.396 341.237 415.186C341.235 414.975 341.235 414.764 341.237 414.554C341.235 414.343 341.235 414.132 341.237 413.922C341.235 413.711 341.235 413.5 341.237 413.29C341.235 413.079 341.235 412.868 341.237 412.658C341.235 412.447 341.235 412.236 341.237 412.026C341.235 411.815 341.235 411.604 341.237 411.394C341.235 411.183 341.235 410.972 341.237 410.762C341.235 410.551 341.235 410.34 341.237 410.13C341.235 409.919 341.235 409.709 341.237 409.498C341.235 409.287 341.235 409.077 341.237 408.866C341.235 408.655 341.235 408.445 341.237 408.234C341.235 408.023 341.235 407.813 341.237 407.602Z" fill="#E1E8FF"/>
    <path d="M341.237 407.602C341.097 393.144 350.58 378.661 369.686 367.63C407.62 345.729 469.124 345.729 507.058 367.63C526.164 378.661 535.647 393.144 535.507 407.602C535.509 407.813 535.509 408.023 535.507 408.234C535.509 408.445 535.509 408.655 535.507 408.866C535.509 409.077 535.509 409.287 535.507 409.498C535.509 409.709 535.509 409.919 535.507 410.13C535.509 410.341 535.509 410.551 535.507 410.762C535.508 410.808 535.508 410.854 535.508 410.901C535.508 410.941 535.509 410.982 535.509 411.023C535.509 411.147 535.508 411.27 535.507 411.394C535.509 411.605 535.509 411.815 535.507 412.026C535.508 412.131 535.509 412.235 535.509 412.34L535.509 412.435C535.508 412.47 535.508 412.506 535.508 412.541C535.508 412.58 535.508 412.619 535.507 412.658C535.508 412.781 535.509 412.905 535.509 413.029C535.508 413.116 535.508 413.203 535.507 413.29C535.509 413.5 535.509 413.711 535.507 413.922C535.508 414.011 535.509 414.1 535.509 414.19C535.509 414.311 535.508 414.432 535.507 414.554C535.509 414.764 535.509 414.975 535.507 415.186C535.509 415.396 535.509 415.607 535.507 415.818C535.509 416.028 535.509 416.239 535.507 416.45C535.509 416.66 535.509 416.871 535.507 417.082C535.509 417.292 535.509 417.503 535.507 417.714C535.509 417.924 535.509 418.135 535.507 418.346L535.508 418.406L535.508 418.49C535.508 418.531 535.509 418.573 535.509 418.614C535.509 418.735 535.508 418.856 535.507 418.978C535.509 419.188 535.509 419.399 535.507 419.609C535.509 419.82 535.509 420.031 535.507 420.241C535.509 420.452 535.509 420.663 535.507 420.873C535.509 421.084 535.509 421.295 535.507 421.505C535.509 421.716 535.509 421.927 535.507 422.137C535.509 422.348 535.509 422.559 535.507 422.769C535.509 422.98 535.509 423.191 535.507 423.401C535.509 423.612 535.509 423.823 535.507 424.033C535.508 424.138 535.509 424.244 535.509 424.349C535.509 424.454 535.508 424.56 535.507 424.665C535.509 424.876 535.509 425.087 535.507 425.297C535.509 425.508 535.509 425.718 535.507 425.929C535.508 426.021 535.509 426.113 535.509 426.204C535.509 426.323 535.508 426.442 535.507 426.561C535.509 426.772 535.509 426.982 535.507 427.193C535.509 427.404 535.509 427.614 535.507 427.825C535.509 428.036 535.509 428.246 535.507 428.457C535.509 428.668 535.509 428.878 535.507 429.089C535.509 429.3 535.509 429.51 535.507 429.721C535.509 429.932 535.509 430.142 535.507 430.353C535.508 430.395 535.508 430.436 535.508 430.478L535.509 430.567C535.509 430.706 535.508 430.846 535.507 430.985C535.509 431.196 535.509 431.406 535.507 431.617C535.509 431.827 535.509 432.038 535.507 432.249C535.509 432.459 535.509 432.67 535.507 432.881C535.509 433.091 535.509 433.302 535.507 433.513C535.509 433.723 535.509 433.934 535.507 434.145C535.509 434.355 535.509 434.566 535.507 434.777C535.509 434.987 535.509 435.198 535.507 435.409C535.509 435.619 535.509 435.83 535.507 436.041C535.509 436.251 535.509 436.462 535.507 436.673C535.509 436.883 535.509 437.094 535.507 437.305C535.509 437.515 535.509 437.726 535.507 437.937C535.647 452.394 526.164 466.877 507.058 477.908C469.124 499.81 407.62 499.81 369.686 477.908C350.58 466.877 341.097 452.394 341.237 437.936C341.235 437.726 341.235 437.515 341.237 437.304C341.235 437.094 341.235 436.883 341.237 436.672C341.235 436.462 341.235 436.251 341.237 436.04C341.235 435.83 341.235 435.619 341.237 435.408C341.235 435.198 341.235 434.987 341.237 434.776C341.235 434.566 341.235 434.355 341.237 434.145C341.235 433.934 341.235 433.723 341.237 433.513C341.235 433.302 341.235 433.091 341.237 432.881C341.235 432.67 341.235 432.459 341.237 432.249C341.235 432.038 341.235 431.827 341.237 431.617C341.235 431.406 341.235 431.195 341.237 430.985C341.235 430.774 341.235 430.563 341.237 430.353C341.235 430.142 341.235 429.931 341.237 429.721C341.235 429.51 341.235 429.299 341.237 429.089C341.235 428.878 341.235 428.667 341.237 428.457C341.235 428.246 341.235 428.036 341.237 427.825C341.235 427.614 341.235 427.404 341.237 427.193C341.235 426.982 341.235 426.772 341.237 426.561C341.235 426.35 341.235 426.14 341.237 425.929C341.235 425.718 341.235 425.508 341.237 425.297C341.235 425.086 341.235 424.876 341.237 424.665C341.235 424.454 341.235 424.244 341.237 424.033C341.235 423.822 341.235 423.612 341.237 423.401C341.235 423.19 341.235 422.98 341.237 422.769C341.235 422.558 341.235 422.348 341.237 422.137C341.235 421.927 341.235 421.716 341.237 421.505C341.235 421.295 341.235 421.084 341.237 420.873C341.235 420.663 341.235 420.452 341.237 420.241C341.235 420.031 341.235 419.82 341.237 419.609C341.235 419.399 341.235 419.188 341.237 418.977C341.235 418.767 341.235 418.556 341.237 418.345C341.235 418.135 341.235 417.924 341.237 417.713C341.235 417.503 341.235 417.292 341.237 417.081C341.235 416.871 341.235 416.66 341.237 416.449C341.235 416.239 341.235 416.028 341.237 415.818C341.235 415.607 341.235 415.396 341.237 415.186C341.235 414.975 341.235 414.764 341.237 414.554C341.235 414.343 341.235 414.132 341.237 413.922C341.235 413.711 341.235 413.5 341.237 413.29C341.235 413.079 341.235 412.868 341.237 412.658C341.235 412.447 341.235 412.236 341.237 412.026C341.235 411.815 341.235 411.604 341.237 411.394C341.235 411.183 341.235 410.972 341.237 410.762C341.235 410.551 341.235 410.34 341.237 410.13C341.235 409.919 341.235 409.709 341.237 409.498C341.235 409.287 341.235 409.077 341.237 408.866C341.235 408.655 341.235 408.445 341.237 408.234C341.235 408.023 341.235 407.813 341.237 407.602Z" fill="url(#paint1_linear)"/>
    <circle r="79.3118" transform="matrix(0.866025 0.5 -0.866025 0.5 438.372 406.654)" fill="#3C4257"/>
    <ellipse cx="361.038" cy="456.11" rx="5.05573" ry="5.6877" fill="#3C4257"/>
    <path d="M341.237 356.26C341.097 341.802 350.58 327.319 369.686 316.288C407.62 294.387 469.124 294.387 507.058 316.288C526.164 327.319 535.647 341.802 535.507 356.26C535.509 356.471 535.509 356.682 535.507 356.892C535.509 357.103 535.509 357.314 535.507 357.524C535.509 357.735 535.509 357.946 535.507 358.156C535.509 358.367 535.509 358.578 535.507 358.788C535.509 358.999 535.509 359.209 535.507 359.42C535.508 359.466 535.508 359.513 535.508 359.559C535.508 359.6 535.509 359.64 535.509 359.681C535.509 359.805 535.508 359.929 535.507 360.052C535.509 360.263 535.509 360.473 535.507 360.684C535.508 360.789 535.509 360.893 535.509 360.998L535.509 361.093C535.508 361.129 535.508 361.164 535.508 361.2C535.508 361.238 535.508 361.277 535.507 361.316C535.508 361.44 535.509 361.563 535.509 361.687C535.508 361.774 535.508 361.861 535.507 361.948C535.509 362.159 535.509 362.369 535.507 362.58C535.508 362.669 535.509 362.759 535.509 362.848C535.509 362.969 535.508 363.091 535.507 363.212C535.509 363.423 535.509 363.633 535.507 363.844C535.509 364.055 535.509 364.265 535.507 364.476C535.509 364.687 535.509 364.897 535.507 365.108C535.509 365.318 535.509 365.529 535.507 365.74C535.509 365.95 535.509 366.161 535.507 366.372C535.509 366.582 535.509 366.793 535.507 367.004L535.508 367.065L535.508 367.148C535.508 367.19 535.509 367.231 535.509 367.272C535.509 367.393 535.508 367.515 535.507 367.636C535.509 367.846 535.509 368.057 535.507 368.268C535.509 368.478 535.509 368.689 535.507 368.9C535.509 369.11 535.509 369.321 535.507 369.532C535.509 369.742 535.509 369.953 535.507 370.164C535.509 370.374 535.509 370.585 535.507 370.796C535.509 371.006 535.509 371.217 535.507 371.428C535.509 371.638 535.509 371.849 535.507 372.059C535.509 372.27 535.509 372.481 535.507 372.691C535.508 372.797 535.509 372.902 535.509 373.007C535.509 373.112 535.508 373.218 535.507 373.323C535.509 373.534 535.509 373.745 535.507 373.955C535.509 374.166 535.509 374.377 535.507 374.587C535.508 374.679 535.509 374.771 535.509 374.862C535.509 374.981 535.508 375.1 535.507 375.219C535.509 375.43 535.509 375.641 535.507 375.851C535.509 376.062 535.509 376.273 535.507 376.483C535.509 376.694 535.509 376.905 535.507 377.115C535.509 377.326 535.509 377.537 535.507 377.747C535.509 377.958 535.509 378.168 535.507 378.379C535.509 378.59 535.509 378.8 535.507 379.011C535.508 379.053 535.508 379.094 535.508 379.136L535.509 379.225C535.509 379.365 535.508 379.504 535.507 379.643C535.509 379.854 535.509 380.064 535.507 380.275C535.509 380.486 535.509 380.696 535.507 380.907C535.509 381.118 535.509 381.328 535.507 381.539C535.509 381.75 535.509 381.96 535.507 382.171C535.509 382.382 535.509 382.592 535.507 382.803C535.509 383.014 535.509 383.224 535.507 383.435C535.509 383.646 535.509 383.856 535.507 384.067C535.509 384.277 535.509 384.488 535.507 384.699C535.509 384.909 535.509 385.12 535.507 385.331C535.509 385.541 535.509 385.752 535.507 385.963C535.509 386.173 535.509 386.384 535.507 386.595C535.647 401.052 526.164 415.535 507.058 426.566C469.124 448.468 407.62 448.468 369.686 426.566C350.58 415.535 341.097 401.052 341.237 386.595C341.235 386.384 341.235 386.173 341.237 385.963C341.235 385.752 341.235 385.541 341.237 385.331C341.235 385.12 341.235 384.909 341.237 384.699C341.235 384.488 341.235 384.277 341.237 384.067C341.235 383.856 341.235 383.645 341.237 383.435C341.235 383.224 341.235 383.013 341.237 382.803C341.235 382.592 341.235 382.381 341.237 382.171C341.235 381.96 341.235 381.749 341.237 381.539C341.235 381.328 341.235 381.117 341.237 380.907C341.235 380.696 341.235 380.486 341.237 380.275C341.235 380.064 341.235 379.854 341.237 379.643C341.235 379.432 341.235 379.222 341.237 379.011C341.235 378.8 341.235 378.59 341.237 378.379C341.235 378.168 341.235 377.958 341.237 377.747C341.235 377.536 341.235 377.326 341.237 377.115C341.235 376.904 341.235 376.694 341.237 376.483C341.235 376.272 341.235 376.062 341.237 375.851C341.235 375.64 341.235 375.43 341.237 375.219C341.235 375.008 341.235 374.798 341.237 374.587C341.235 374.377 341.235 374.166 341.237 373.955C341.235 373.745 341.235 373.534 341.237 373.323C341.235 373.113 341.235 372.902 341.237 372.691C341.235 372.481 341.235 372.27 341.237 372.059C341.235 371.849 341.235 371.638 341.237 371.427C341.235 371.217 341.235 371.006 341.237 370.795C341.235 370.585 341.235 370.374 341.237 370.163C341.235 369.953 341.235 369.742 341.237 369.531C341.235 369.321 341.235 369.11 341.237 368.899C341.235 368.689 341.235 368.478 341.237 368.268C341.235 368.057 341.235 367.846 341.237 367.636C341.235 367.425 341.235 367.214 341.237 367.004C341.235 366.793 341.235 366.582 341.237 366.372C341.235 366.161 341.235 365.95 341.237 365.74C341.235 365.529 341.235 365.318 341.237 365.108C341.235 364.897 341.235 364.686 341.237 364.476C341.235 364.265 341.235 364.054 341.237 363.844C341.235 363.633 341.235 363.422 341.237 363.212C341.235 363.001 341.235 362.79 341.237 362.58C341.235 362.369 341.235 362.159 341.237 361.948C341.235 361.737 341.235 361.527 341.237 361.316C341.235 361.105 341.235 360.895 341.237 360.684C341.235 360.473 341.235 360.263 341.237 360.052C341.235 359.841 341.235 359.631 341.237 359.42C341.235 359.209 341.235 358.999 341.237 358.788C341.235 358.577 341.235 358.367 341.237 358.156C341.235 357.945 341.235 357.735 341.237 357.524C341.235 357.313 341.235 357.103 341.237 356.892C341.235 356.681 341.235 356.471 341.237 356.26Z" fill="#E1E8FF"/>
    <path d="M341.237 356.26C341.097 341.802 350.58 327.319 369.686 316.288C407.62 294.387 469.124 294.387 507.058 316.288C526.164 327.319 535.647 341.802 535.507 356.26C535.509 356.471 535.509 356.682 535.507 356.892C535.509 357.103 535.509 357.314 535.507 357.524C535.509 357.735 535.509 357.946 535.507 358.156C535.509 358.367 535.509 358.578 535.507 358.788C535.509 358.999 535.509 359.209 535.507 359.42C535.508 359.466 535.508 359.513 535.508 359.559C535.508 359.6 535.509 359.64 535.509 359.681C535.509 359.805 535.508 359.929 535.507 360.052C535.509 360.263 535.509 360.473 535.507 360.684C535.508 360.789 535.509 360.893 535.509 360.998L535.509 361.093C535.508 361.129 535.508 361.164 535.508 361.2C535.508 361.238 535.508 361.277 535.507 361.316C535.508 361.44 535.509 361.563 535.509 361.687C535.508 361.774 535.508 361.861 535.507 361.948C535.509 362.159 535.509 362.369 535.507 362.58C535.508 362.669 535.509 362.759 535.509 362.848C535.509 362.969 535.508 363.091 535.507 363.212C535.509 363.423 535.509 363.633 535.507 363.844C535.509 364.055 535.509 364.265 535.507 364.476C535.509 364.687 535.509 364.897 535.507 365.108C535.509 365.318 535.509 365.529 535.507 365.74C535.509 365.95 535.509 366.161 535.507 366.372C535.509 366.582 535.509 366.793 535.507 367.004L535.508 367.065L535.508 367.148C535.508 367.19 535.509 367.231 535.509 367.272C535.509 367.393 535.508 367.515 535.507 367.636C535.509 367.846 535.509 368.057 535.507 368.268C535.509 368.478 535.509 368.689 535.507 368.9C535.509 369.11 535.509 369.321 535.507 369.532C535.509 369.742 535.509 369.953 535.507 370.164C535.509 370.374 535.509 370.585 535.507 370.796C535.509 371.006 535.509 371.217 535.507 371.428C535.509 371.638 535.509 371.849 535.507 372.059C535.509 372.27 535.509 372.481 535.507 372.691C535.508 372.797 535.509 372.902 535.509 373.007C535.509 373.112 535.508 373.218 535.507 373.323C535.509 373.534 535.509 373.745 535.507 373.955C535.509 374.166 535.509 374.377 535.507 374.587C535.508 374.679 535.509 374.771 535.509 374.862C535.509 374.981 535.508 375.1 535.507 375.219C535.509 375.43 535.509 375.641 535.507 375.851C535.509 376.062 535.509 376.273 535.507 376.483C535.509 376.694 535.509 376.905 535.507 377.115C535.509 377.326 535.509 377.537 535.507 377.747C535.509 377.958 535.509 378.168 535.507 378.379C535.509 378.59 535.509 378.8 535.507 379.011C535.508 379.053 535.508 379.094 535.508 379.136L535.509 379.225C535.509 379.365 535.508 379.504 535.507 379.643C535.509 379.854 535.509 380.064 535.507 380.275C535.509 380.486 535.509 380.696 535.507 380.907C535.509 381.118 535.509 381.328 535.507 381.539C535.509 381.75 535.509 381.96 535.507 382.171C535.509 382.382 535.509 382.592 535.507 382.803C535.509 383.014 535.509 383.224 535.507 383.435C535.509 383.646 535.509 383.856 535.507 384.067C535.509 384.277 535.509 384.488 535.507 384.699C535.509 384.909 535.509 385.12 535.507 385.331C535.509 385.541 535.509 385.752 535.507 385.963C535.509 386.173 535.509 386.384 535.507 386.595C535.647 401.052 526.164 415.535 507.058 426.566C469.124 448.468 407.62 448.468 369.686 426.566C350.58 415.535 341.097 401.052 341.237 386.595C341.235 386.384 341.235 386.173 341.237 385.963C341.235 385.752 341.235 385.541 341.237 385.331C341.235 385.12 341.235 384.909 341.237 384.699C341.235 384.488 341.235 384.277 341.237 384.067C341.235 383.856 341.235 383.645 341.237 383.435C341.235 383.224 341.235 383.013 341.237 382.803C341.235 382.592 341.235 382.381 341.237 382.171C341.235 381.96 341.235 381.749 341.237 381.539C341.235 381.328 341.235 381.117 341.237 380.907C341.235 380.696 341.235 380.486 341.237 380.275C341.235 380.064 341.235 379.854 341.237 379.643C341.235 379.432 341.235 379.222 341.237 379.011C341.235 378.8 341.235 378.59 341.237 378.379C341.235 378.168 341.235 377.958 341.237 377.747C341.235 377.536 341.235 377.326 341.237 377.115C341.235 376.904 341.235 376.694 341.237 376.483C341.235 376.272 341.235 376.062 341.237 375.851C341.235 375.64 341.235 375.43 341.237 375.219C341.235 375.008 341.235 374.798 341.237 374.587C341.235 374.377 341.235 374.166 341.237 373.955C341.235 373.745 341.235 373.534 341.237 373.323C341.235 373.113 341.235 372.902 341.237 372.691C341.235 372.481 341.235 372.27 341.237 372.059C341.235 371.849 341.235 371.638 341.237 371.427C341.235 371.217 341.235 371.006 341.237 370.795C341.235 370.585 341.235 370.374 341.237 370.163C341.235 369.953 341.235 369.742 341.237 369.531C341.235 369.321 341.235 369.11 341.237 368.899C341.235 368.689 341.235 368.478 341.237 368.268C341.235 368.057 341.235 367.846 341.237 367.636C341.235 367.425 341.235 367.214 341.237 367.004C341.235 366.793 341.235 366.582 341.237 366.372C341.235 366.161 341.235 365.95 341.237 365.74C341.235 365.529 341.235 365.318 341.237 365.108C341.235 364.897 341.235 364.686 341.237 364.476C341.235 364.265 341.235 364.054 341.237 363.844C341.235 363.633 341.235 363.422 341.237 363.212C341.235 363.001 341.235 362.79 341.237 362.58C341.235 362.369 341.235 362.159 341.237 361.948C341.235 361.737 341.235 361.527 341.237 361.316C341.235 361.105 341.235 360.895 341.237 360.684C341.235 360.473 341.235 360.263 341.237 360.052C341.235 359.841 341.235 359.631 341.237 359.42C341.235 359.209 341.235 358.999 341.237 358.788C341.235 358.577 341.235 358.367 341.237 358.156C341.235 357.945 341.235 357.735 341.237 357.524C341.235 357.313 341.235 357.103 341.237 356.892C341.235 356.681 341.235 356.471 341.237 356.26Z" fill="url(#paint2_linear)"/>
    <circle r="79.3118" transform="matrix(0.866025 0.5 -0.866025 0.5 438.372 355.312)" fill="#3C4257"/>
    <ellipse cx="361.038" cy="404.289" rx="5.05573" ry="5.6877" fill="#3C4257"/>
    <path d="M255.277 519.004C255.615 518.419 255.615 517.785 255.277 517.59L249.766 514.408C249.428 514.213 248.879 514.529 248.541 515.115C248.203 515.701 248.203 516.334 248.541 516.529L253.44 519.358L248.541 527.843C248.203 528.429 248.203 529.062 248.541 529.257C248.879 529.453 249.428 529.136 249.766 528.55L255.277 519.004ZM180.888 550.326L181.659 549.426L181.659 549.426L180.888 550.326ZM188.457 554.696L188.85 553.578L188.85 553.578L188.457 554.696ZM188.457 449.056L188.85 449.72L188.85 449.72L188.457 449.056ZM180.888 462.166L180.116 462.158L180.116 462.158L180.888 462.166ZM430.573 296.17L431.344 296.179L431.344 296.179L430.573 296.17ZM423.003 309.281L422.61 308.617L423.003 309.281ZM431.594 235.5L431.594 274.5L433.327 273.5L433.327 234.5L431.594 235.5ZM404.748 321L206.713 435.336L206.713 437.336L404.748 323L404.748 321ZM178.134 484.836L178.134 530.836L179.866 529.836L179.866 483.836L178.134 484.836ZM206.713 547.336L254.665 519.651L254.665 517.651L206.713 545.336L206.713 547.336ZM178.134 530.836C178.134 536.42 178.133 540.669 178.373 543.915C178.613 547.174 179.1 549.509 180.116 551.225L181.659 549.426C180.788 547.955 180.331 545.895 180.099 542.756C179.867 539.605 179.866 535.453 179.866 529.836L178.134 530.836ZM206.713 545.336C201.848 548.144 198.252 550.22 195.407 551.594C192.573 552.963 190.56 553.597 188.85 553.578L188.064 555.814C190.059 555.836 192.324 555.09 195.266 553.669C198.198 552.253 201.877 550.128 206.713 547.336L206.713 545.336ZM180.116 551.225C181.86 554.17 184.642 555.776 188.064 555.814L188.85 553.578C185.754 553.544 183.237 552.091 181.659 549.426L180.116 551.225ZM206.713 435.336C201.877 438.128 198.198 440.251 195.266 442.22C192.324 444.196 190.059 446.066 188.064 448.392L188.85 449.72C190.56 447.726 192.573 446.036 195.407 444.132C198.252 442.222 201.848 440.144 206.713 437.336L206.713 435.336ZM179.866 483.836C179.866 478.219 179.867 474.066 180.099 470.647C180.331 467.24 180.788 464.652 181.659 462.175L180.116 462.158C179.1 465.048 178.613 467.945 178.373 471.481C178.133 475.004 178.134 479.252 178.134 484.836L179.866 483.836ZM188.064 448.392C184.642 452.381 181.86 457.2 180.116 462.158L181.659 462.175C183.237 457.689 185.754 453.329 188.85 449.72L188.064 448.392ZM431.594 274.5C431.594 280.117 431.594 284.27 431.361 287.69C431.13 291.096 430.672 293.684 429.801 296.162L431.344 296.179C432.361 293.288 432.847 290.391 433.088 286.856C433.327 283.332 433.327 279.084 433.327 273.5L431.594 274.5ZM404.748 323C409.584 320.208 413.263 318.085 416.194 316.116C419.136 314.14 421.402 312.27 423.396 309.945L422.61 308.617C420.9 310.61 418.888 312.3 416.053 314.204C413.208 316.115 409.612 318.192 404.748 321L404.748 323ZM429.801 296.162C428.223 300.648 425.706 305.008 422.61 308.617L423.396 309.945C426.818 305.956 429.601 301.137 431.344 296.179L429.801 296.162Z" fill="#B8C0CD"/>
    <rect width="116" height="216" transform="matrix(0.866025 0.5 -0.866025 0.5 224.062 205)" fill="#73FFE5"/>
    <rect width="116" height="216" transform="matrix(0.866025 0.5 -0.866025 0.5 224.062 205)" fill="#3C4257"/>
    <rect width="83.8319" height="158.736" rx="8" transform="matrix(0.866025 0.5 -0.866025 0.5 223.669 221.311)" fill="#FEF8CD"/>
    <path d="M37 313L137.459 371L137.459 400.825L37 342.825L37 327.912L37 313Z" fill="#CEC0FF"/>
    <path d="M325 262.771L137.541 371L137.541 400.825L325 292.595L325 277.683L325 262.771Z" fill="#FBE582"/>
    <path d="M392.784 383.985C396.478 381.853 396.904 379.544 394.093 377.921L394.083 377.915C391.779 376.585 389.15 376.661 385.476 378.079L383.609 378.794C381.59 379.573 380.301 379.696 379.377 379.163L379.367 379.157C378.322 378.554 378.545 377.593 380.108 376.679C381.62 375.806 383.376 375.601 384.675 376.175L384.807 376.239L387.699 374.569L387.496 374.464C384.786 373.064 381.011 373.286 377.621 375.243C374.374 377.118 373.805 379.485 376.485 381.032L376.495 381.038C378.697 382.31 381.539 382.263 385.01 380.927L386.857 380.212C389.049 379.38 390.267 379.251 391.261 379.825L391.271 379.831C392.388 380.476 392.063 381.519 390.368 382.497C388.694 383.464 386.776 383.751 385.446 383.206L385.314 383.153L382.422 384.823L382.594 384.911C385.466 386.37 389.303 385.995 392.784 383.985ZM405.236 376.761C408.342 374.968 408.007 373.04 406.738 371.921L406.657 371.839L403.937 373.409L403.978 373.456C404.373 373.931 404.302 374.745 403.085 375.448C401.572 376.321 399.614 376.28 397.848 375.296L405.338 370.972L404.424 370.444C401.136 368.546 396.975 368.452 393.788 370.292C390.602 372.132 390.774 374.587 394.235 376.585L394.245 376.591C397.726 378.601 401.907 378.683 405.236 376.761ZM396.051 371.54C397.279 370.831 398.944 370.773 400.629 371.534L396.011 374.2C394.732 373.239 394.834 372.243 396.051 371.54ZM411.609 372.823L414.573 371.112L408.484 367.597C406.9 366.683 406.88 365.687 408.342 364.843C408.768 364.597 409.235 364.398 409.58 364.315L406.971 362.81C406.687 362.903 406.332 363.05 406.007 363.237C404.739 363.97 404.637 364.931 405.652 365.892L405.591 365.927L403.693 364.831L400.73 366.542L411.609 372.823ZM422.053 366.794L425.391 364.866L418.247 356.429L415.151 358.216L421.17 364.28L421.109 364.315L410.574 360.858L407.408 362.687L422.053 366.794ZM434.952 359.605C438.057 357.812 437.722 355.884 436.454 354.765L436.372 354.683L433.653 356.253L433.693 356.3C434.089 356.774 434.018 357.589 432.8 358.292C431.288 359.165 429.329 359.124 427.563 358.14L435.053 353.815L434.14 353.288C430.851 351.39 426.69 351.296 423.504 353.136C420.317 354.976 420.49 357.431 423.95 359.429L423.96 359.435C427.441 361.444 431.623 361.526 434.952 359.605ZM425.767 354.384C426.995 353.675 428.659 353.616 430.344 354.378L425.726 357.044C424.448 356.083 424.549 355.087 425.767 354.384ZM441.325 355.667L444.288 353.956L438.199 350.44C436.616 349.526 436.596 348.53 438.057 347.687C438.483 347.44 438.95 347.241 439.295 347.159L436.687 345.653C436.403 345.747 436.048 345.894 435.723 346.081C434.454 346.814 434.353 347.774 435.368 348.735L435.307 348.771L433.409 347.675L430.446 349.386L441.325 355.667ZM457.269 346.72C458.842 345.812 459.248 344.663 458.537 343.585L458.598 343.55L460.455 344.622L463.419 342.911L448.774 334.456L445.811 336.167L451.464 339.431L451.403 339.466C449.495 339.044 447.485 339.29 445.943 340.181C443.202 341.763 443.629 343.954 447.171 345.999L447.181 346.005C450.713 348.044 454.528 348.302 457.269 346.72ZM455.807 344.728C454.325 345.583 452.174 345.407 450.195 344.265L450.185 344.259C448.196 343.11 447.922 341.874 449.393 341.024C450.824 340.198 453.057 340.339 455.016 341.47L455.026 341.476C456.995 342.612 457.248 343.896 455.807 344.728ZM468.808 339.999C470.239 339.173 470.716 338.112 470.218 337.11L470.279 337.075L471.903 338.013L474.867 336.302L467.407 331.995C465.215 330.73 461.947 330.94 459.136 332.564C456.264 334.222 455.98 336.05 457.827 337.304L457.938 337.38L460.648 335.815L460.577 335.751C460.019 335.265 460.171 334.579 461.277 333.94C462.434 333.273 463.662 333.255 464.626 333.812L465.296 334.198L462.769 335.845C460.242 337.503 459.867 339.056 461.846 340.198L461.866 340.21C463.784 341.317 466.626 341.259 468.808 339.999ZM464.647 338.429L464.626 338.417C463.855 337.972 463.967 337.345 465.043 336.642L467.143 335.265L467.925 335.716C469.061 336.372 468.94 337.427 467.61 338.194C466.585 338.786 465.449 338.892 464.647 338.429ZM481.331 332.827C481.95 332.47 482.366 332.159 482.651 331.937L480.479 330.683C480.316 330.8 480.154 330.929 479.89 331.081C478.997 331.597 478.195 331.661 477.18 331.075L471.903 328.028L473.892 326.88L471.66 325.591L469.67 326.739L467.011 325.204L464.018 326.933L466.677 328.468L465.164 329.341L467.397 330.63L468.909 329.757L474.511 332.991C476.846 334.339 478.916 334.222 481.331 332.827ZM487.481 329.218C488.912 328.392 489.389 327.331 488.892 326.329L488.953 326.294L490.577 327.232L493.54 325.521L486.081 321.214C483.889 319.948 480.621 320.159 477.81 321.782C474.938 323.44 474.653 325.269 476.5 326.523L476.612 326.599L479.322 325.034L479.251 324.97C478.693 324.483 478.845 323.798 479.951 323.159C481.108 322.491 482.336 322.474 483.3 323.03L483.97 323.417L481.443 325.064C478.916 326.722 478.54 328.274 480.519 329.417L480.54 329.429C482.458 330.536 485.299 330.478 487.481 329.218ZM483.32 327.648L483.3 327.636C482.529 327.19 482.64 326.564 483.716 325.86L485.817 324.483L486.598 324.935C487.735 325.591 487.613 326.646 486.284 327.413C485.259 328.005 484.122 328.11 483.32 327.648ZM445.628 377.44C448.368 375.858 447.932 373.649 444.4 371.61L444.39 371.605C440.848 369.56 437.042 369.319 434.312 370.896C432.759 371.792 432.343 372.946 433.064 374.054L433.003 374.089L427.35 370.825L424.387 372.536L439.031 380.991L441.995 379.28L440.138 378.208L440.198 378.173C442.076 378.577 444.065 378.343 445.628 377.44ZM442.188 376.591C440.746 377.423 438.524 377.276 436.555 376.14L436.545 376.134C434.586 375.003 434.343 373.714 435.774 372.888C437.245 372.038 439.387 372.196 441.376 373.345L441.386 373.351C443.365 374.493 443.659 375.741 442.188 376.591ZM454.772 372.103C456.203 371.276 456.68 370.216 456.183 369.214L456.244 369.179L457.867 370.116L460.831 368.405L453.372 364.099C451.179 362.833 447.911 363.044 445.1 364.667C442.228 366.325 441.944 368.153 443.791 369.407L443.903 369.483L446.612 367.919L446.541 367.855C445.983 367.368 446.135 366.683 447.242 366.044C448.399 365.376 449.627 365.358 450.591 365.915L451.261 366.302L448.734 367.948C446.207 369.607 445.831 371.159 447.81 372.302L447.83 372.314C449.748 373.421 452.59 373.362 454.772 372.103ZM450.611 370.532L450.591 370.521C449.819 370.075 449.931 369.448 451.007 368.745L453.108 367.368L453.889 367.819C455.026 368.476 454.904 369.53 453.574 370.298C452.549 370.89 451.413 370.995 450.611 370.532ZM467.448 364.843C470.249 363.226 470.807 361.286 468.676 360.056L468.666 360.05C467.062 359.124 465.235 359.148 462.485 360.185L460.242 361.023C458.913 361.521 458.172 361.526 457.614 361.204L457.604 361.198C456.903 360.794 457.086 360.161 458.111 359.569C459.207 358.937 460.435 358.907 461.318 359.3L461.409 359.341L464.139 357.765L464.038 357.706C462.059 356.646 458.913 356.692 456.02 358.362C453.25 359.962 452.803 361.767 454.874 362.962L454.884 362.968C456.507 363.905 458.629 363.899 461.186 362.939L463.419 362.095C464.718 361.614 465.418 361.597 465.997 361.931L466.007 361.937C466.707 362.341 466.463 362.985 465.347 363.63C464.16 364.315 463.023 364.398 461.978 364.017L461.866 363.976L458.974 365.646L459.075 365.692C461.369 366.747 464.434 366.583 467.448 364.843ZM478.622 358.392C481.727 356.599 481.392 354.671 480.124 353.552L480.042 353.47L477.323 355.04L477.363 355.087C477.759 355.562 477.688 356.376 476.47 357.079C474.958 357.952 472.999 357.911 471.233 356.927L478.723 352.603L477.81 352.075C474.521 350.177 470.36 350.083 467.174 351.923C463.987 353.763 464.16 356.218 467.62 358.216L467.63 358.222C471.111 360.232 475.293 360.314 478.622 358.392ZM469.437 353.171C470.665 352.462 472.329 352.403 474.014 353.165L469.396 355.831C468.118 354.87 468.219 353.874 469.437 353.171Z" fill="white"/>
    <rect width="138" height="36" transform="matrix(0.866025 -0.5 2.20305e-08 1 199 421)" fill="#FDF3B4"/>
    <path d="M208.777 439.355L210.813 438.18L210.813 430.797L210.854 430.773L215.278 435.602L217.051 434.578L217.051 423.305L215.015 424.48L215.015 431.809L214.974 431.832L210.563 427.051L208.777 428.082L208.777 439.355ZM221.814 432C223.885 430.805 224.886 428.812 225.109 427.449L225.13 427.352L223.316 428.398L223.303 428.453C223.161 429.004 222.667 429.805 221.855 430.273C220.847 430.855 220.218 430.438 220.197 429.113L225.19 426.23L225.19 425.527C225.19 422.996 223.858 422.102 221.733 423.328C219.609 424.555 218.249 427.043 218.249 429.707L218.249 429.715C218.249 432.395 219.595 433.281 221.814 432ZM221.767 425.012C222.586 424.539 223.174 424.801 223.296 425.887L220.218 427.664C220.346 426.457 220.955 425.48 221.767 425.012ZM227.586 428.496L229.663 427.297L230.968 420.621L231.009 420.598L232.322 425.762L234.426 424.547L236.347 415.062L234.399 416.188L233.296 423.035L233.255 423.059L231.963 417.594L230.069 418.688L228.783 425.641L228.742 425.664L227.646 420.086L225.657 421.234L227.586 428.496ZM242.335 420.152C243.431 419.52 244.175 418.496 244.547 417.32L244.588 417.297L244.588 418.68L246.564 417.539L246.564 409.164L244.588 410.305L244.588 415.117C244.588 416.211 244.026 417.285 243.14 417.797C242.254 418.309 241.807 417.934 241.807 416.84L241.807 411.91L239.832 413.051L239.832 418.457C239.832 420.418 240.738 421.074 242.335 420.152ZM250.833 415.246C252.7 414.168 254.006 412.336 254.006 410.695L254.006 410.688C254.006 409.453 253.384 409.125 251.868 409.633L250.637 410.039C249.906 410.281 249.656 410.145 249.656 409.715L249.656 409.707C249.656 409.168 250.082 408.57 250.765 408.176C251.496 407.754 251.922 407.961 251.99 408.523L251.997 408.582L253.817 407.531L253.817 407.453C253.769 406.012 252.693 405.453 250.765 406.566C248.918 407.633 247.727 409.352 247.727 410.945L247.727 410.953C247.727 412.203 248.438 412.605 249.845 412.137L251.076 411.723C251.787 411.492 252.03 411.609 252.03 412.055L252.03 412.062C252.03 412.602 251.577 413.199 250.833 413.629C250.041 414.086 249.615 413.949 249.486 413.367L249.473 413.305L247.545 414.418L247.551 414.484C247.707 415.98 248.823 416.406 250.833 415.246ZM258.282 410.945C260.352 409.75 261.354 407.758 261.577 406.395L261.597 406.297L259.784 407.344L259.771 407.398C259.628 407.949 259.135 408.75 258.323 409.219C257.315 409.801 256.685 409.383 256.665 408.059L261.658 405.176L261.658 404.473C261.658 401.941 260.325 401.047 258.201 402.273C256.076 403.5 254.716 405.988 254.716 408.652L254.716 408.66C254.716 411.34 256.063 412.227 258.282 410.945ZM258.235 403.957C259.053 403.484 259.642 403.746 259.764 404.832L256.685 406.609C256.814 405.402 257.423 404.426 258.235 403.957ZM262.68 408.234L264.655 407.094L264.655 402.406C264.655 401.188 265.224 400.188 266.198 399.625C266.482 399.461 266.753 399.352 266.915 399.336L266.915 397.328C266.766 397.367 266.563 397.445 266.347 397.57C265.501 398.059 264.913 399 264.696 400.156L264.655 400.18L264.655 398.719L262.68 399.859L262.68 408.234ZM273.803 401.984C275.995 400.719 277.395 398.285 277.395 395.551L277.395 395.535C277.395 392.824 275.968 392.016 273.796 393.27C271.631 394.52 270.21 396.988 270.21 399.684L270.21 399.699C270.21 402.426 271.597 403.258 273.803 401.984ZM273.81 400.191C272.835 400.754 272.22 400.18 272.22 398.539L272.22 398.523C272.22 396.906 272.842 395.609 273.796 395.059C274.757 394.504 275.386 395.078 275.386 396.695L275.386 396.711C275.386 398.344 274.77 399.637 273.81 400.191ZM282.713 396.84C284.54 395.785 285.67 393.492 285.67 390.773L285.67 390.766C285.67 388.039 284.54 387.066 282.72 388.117C281.685 388.715 280.88 389.789 280.481 391.035L280.44 391.059L280.44 386.707L278.464 387.848L278.464 399.121L280.44 397.98L280.44 396.551L280.481 396.527C280.873 397.293 281.671 397.441 282.713 396.84ZM282.057 395.328C281.096 395.883 280.44 395.309 280.44 393.793L280.44 393.785C280.44 392.277 281.103 390.941 282.057 390.391C283.038 389.824 283.661 390.395 283.661 391.926L283.661 391.934C283.661 393.457 283.038 394.762 282.057 395.328ZM287.707 384.332C288.302 383.988 288.762 383.184 288.762 382.535C288.762 381.887 288.302 381.613 287.707 381.957C287.111 382.301 286.651 383.105 286.651 383.754C286.651 384.402 287.111 384.676 287.707 384.332ZM286.096 397.473C287.795 396.492 288.694 395.09 288.694 393.387L288.694 384.84L286.719 385.98L286.719 394.465C286.719 395.145 286.462 395.535 285.805 395.914C285.717 395.965 285.63 396.008 285.555 396.043L285.555 397.762C285.677 397.707 285.914 397.578 286.096 397.473ZM293.315 390.719C295.386 389.523 296.387 387.531 296.61 386.168L296.631 386.07L294.817 387.117L294.804 387.172C294.662 387.723 294.168 388.523 293.356 388.992C292.348 389.574 291.719 389.156 291.698 387.832L296.692 384.949L296.692 384.246C296.692 381.715 295.359 380.82 293.234 382.047C291.11 383.273 289.75 385.762 289.75 388.426L289.75 388.434C289.75 391.113 291.096 392 293.315 390.719ZM293.268 383.73C294.087 383.258 294.675 383.52 294.797 384.605L291.719 386.383C291.847 385.176 292.456 384.199 293.268 383.73ZM301.029 386.266C302.964 385.148 304.215 383.035 304.31 381.152L304.31 381.105L302.47 382.168L302.463 382.242C302.328 383.164 301.834 384.012 301.042 384.469C300.068 385.031 299.459 384.453 299.459 382.812L299.459 382.805C299.459 381.203 300.068 379.891 301.035 379.332C301.854 378.859 302.334 379.191 302.456 379.918L302.47 379.98L304.303 378.922L304.303 378.867C304.229 377.098 302.977 376.422 301.008 377.559C298.836 378.812 297.449 381.277 297.449 383.957L297.449 383.965C297.449 386.668 298.816 387.543 301.029 386.266ZM308.146 382.156C308.559 381.918 308.877 381.688 309.1 381.52L309.1 379.848C308.978 379.934 308.85 380.031 308.674 380.133C308.079 380.477 307.774 380.387 307.774 379.605L307.774 375.543L309.1 374.777L309.1 373.059L307.774 373.824L307.774 371.777L305.778 372.93L305.778 374.977L304.77 375.559L304.77 377.277L305.778 376.695L305.778 381.008C305.778 382.805 306.536 383.086 308.146 382.156Z" fill="black"/>
    <rect x="-2.98023e-08" y="0.5" width="63" height="19" rx="3.5" transform="matrix(0.866025 0.5 -0.866025 0.5 221.346 232.25)" fill="white" stroke="black"/>
    <rect width="22.5141" height="5.28227" rx="2.64114" transform="matrix(0.866025 0.5 -0.866025 0.5 218.873 238.182)" fill="#FBE582"/>
    <rect x="-2.98023e-08" y="0.5" width="63" height="19" rx="3.5" transform="matrix(0.866025 0.5 -0.866025 0.5 197.097 246.25)" fill="white" stroke="black"/>
    <rect width="38.7153" height="5.28227" rx="2.64114" transform="matrix(0.866025 0.5 -0.866025 0.5 194.873 252.182)" fill="#FBE582"/>
    <rect width="64" height="20" rx="4" transform="matrix(0.866025 0.5 -0.866025 0.5 121.32 289.5)" fill="#3C4257"/>
    <path d="M122.094 304.094C123.941 305.16 125.94 305.283 127.346 304.472L127.351 304.469C128.503 303.804 128.437 303.045 127.209 301.984L126.59 301.445C125.915 300.862 125.809 300.49 126.27 300.224L126.275 300.221C126.798 299.919 127.63 299.983 128.422 300.435C129.178 300.871 129.356 301.378 128.858 301.753L128.802 301.791L130.249 302.626L130.34 302.567C131.553 301.785 131.36 300.695 129.665 299.717C128.041 298.779 125.991 298.615 124.652 299.389L124.647 299.392C123.545 300.027 123.586 300.848 124.743 301.85L125.362 302.383C126.083 303.016 126.194 303.367 125.697 303.654L125.692 303.657C125.134 303.979 124.23 303.886 123.383 303.396C122.546 302.913 122.297 302.359 122.769 301.976L122.815 301.938L121.368 301.103L121.292 301.152C120.029 301.981 120.354 303.089 122.094 304.094ZM132.897 303.095C133.344 303.353 134.039 303.35 134.46 303.106C134.881 302.863 134.887 302.462 134.44 302.204C133.993 301.946 133.298 301.949 132.877 302.192C132.456 302.436 132.451 302.837 132.897 303.095ZM126.017 306.212L127.498 307.067L132.938 303.927L131.456 303.071L126.017 306.212ZM129.147 310.199C130.781 311.143 132.628 311.254 133.841 310.554L139.129 307.501L137.647 306.646L136.718 307.182L136.688 307.164C137.028 306.628 136.84 306.051 136.074 305.608C134.699 304.814 132.816 304.917 131.081 305.919L131.076 305.922C129.386 306.897 129.213 307.97 130.573 308.755C131.36 309.209 132.329 309.353 133.182 309.188L133.212 309.206L132.38 309.687C131.771 310.038 130.969 310.032 130.203 309.59C129.584 309.232 129.421 308.869 129.574 308.646L129.594 308.617L128.153 307.785L128.112 307.814C127.382 308.4 127.651 309.335 129.147 310.199ZM132.172 308.424C131.431 307.996 131.568 307.378 132.547 306.813L132.552 306.81C133.527 306.247 134.597 306.174 135.333 306.599C136.054 307.015 135.932 307.642 134.963 308.201L134.958 308.204C133.983 308.767 132.897 308.843 132.172 308.424ZM134.663 311.204L136.145 312.06L139.271 310.255C139.981 309.845 140.89 309.807 141.554 310.19C142.219 310.574 142.148 311.002 141.438 311.412L138.231 313.264L139.712 314.119L143.224 312.092C144.497 311.356 144.584 310.521 143.386 309.83C142.564 309.355 141.625 309.253 140.722 309.452L140.692 309.435L141.585 308.919L140.103 308.063L134.663 311.204ZM144.452 316.984C145.274 317.459 146.218 317.559 147.121 317.359L147.151 317.377L146.253 317.896L147.735 318.751L153.175 315.61L151.693 314.755L148.567 316.56C147.857 316.97 146.948 317.008 146.284 316.624C145.619 316.24 145.695 315.81 146.405 315.399L149.607 313.551L148.126 312.695L144.614 314.723C143.34 315.458 143.254 316.293 144.452 316.984ZM146.923 320.333L148.405 321.188L151.109 319.627L151.14 319.645C150.79 320.187 151.008 320.77 151.784 321.218C153.144 322.003 155.052 321.874 156.818 320.854L156.823 320.852C158.594 319.829 158.807 318.733 157.427 317.937C156.656 317.491 155.661 317.38 154.707 317.591L154.672 317.57L155.62 317.022L154.139 316.167L146.923 320.333ZM152.505 320.216C151.784 319.8 151.911 319.158 152.89 318.593L152.896 318.59C153.88 318.021 154.991 317.948 155.712 318.364C156.448 318.789 156.311 319.407 155.316 319.981L155.311 319.984C154.321 320.556 153.241 320.641 152.505 320.216Z" fill="white"/>
    <rect x="258.184" y="448.184" width="196.096" height="102.912" rx="12.032" fill="#3C4257"/>
    <rect x="273.288" y="463.288" width="51.2" height="20.48" fill="#CEC0FF"/>
    <rect x="330.632" y="463.288" width="51.2" height="20.48" fill="#CEC0FF"/>
    <rect x="387.977" y="463.288" width="51.2" height="20.48" fill="#CEC0FF"/>
    <rect x="273.288" y="489.4" width="51.2" height="20.48" fill="#EDF1F5"/>
    <rect x="330.632" y="489.4" width="51.2" height="20.48" fill="#EDF1F5"/>
    <rect x="387.977" y="489.4" width="51.2" height="20.48" fill="#EDF1F5"/>
    <rect x="273.288" y="515.512" width="51.2" height="20.48" fill="#EDF1F5"/>
    <rect x="330.632" y="515.512" width="51.2" height="20.48" fill="#EDF1F5"/>
    <rect x="387.977" y="515.512" width="51.2" height="20.48" fill="#EDF1F5"/>
    <rect x="258.184" y="448.184" width="196.096" height="102.912" rx="12.032" stroke="white" stroke-width="5.632" stroke-linecap="round"/>
    <path d="M139.134 312.5C139.134 313.052 139.522 313.276 140 313C140.478 312.724 140.866 312.052 140.866 311.5L139.134 312.5ZM140 210.138L140.866 209.638L140 210.138ZM431.388 93.5434C431.726 93.7387 432.274 93.4221 432.612 92.8363L438.124 83.2903C438.462 82.7046 438.462 82.0714 438.124 81.8761C437.786 81.6809 437.237 81.9974 436.899 82.5832L432 91.0685L427.101 88.2401C426.763 88.0448 426.214 88.3614 425.876 88.9472C425.538 89.533 425.538 90.1661 425.876 90.3614L431.388 93.5434ZM430.112 26.3985L430.884 25.499V25.499L430.112 26.3985ZM422.543 22.0283L422.15 23.1463V23.1463L422.543 22.0283ZM140.681 197.031L139.849 197.233L139.849 197.233L140.681 197.031ZM152.513 176.536L152.753 177.358L152.513 176.536ZM140.866 311.5L140.866 209.638L139.134 210.638L139.134 312.5L140.866 311.5ZM431.134 46.8883L431.134 92.9827L432.866 91.9827L432.866 45.8883L431.134 46.8883ZM163.496 170.409L286 99.6814L286 97.6814L163.496 168.409L163.496 170.409ZM286 99.6814L404.312 31.3742L404.312 29.3742L286 97.6814L286 99.6814ZM432.866 45.8883C432.866 40.3043 432.867 36.0558 432.627 32.8089C432.387 29.5507 431.9 27.2157 430.884 25.499L429.341 27.2979C430.212 28.7695 430.669 30.8289 430.901 33.9684C431.133 37.1191 431.134 41.2713 431.134 46.8883L432.866 45.8883ZM404.312 31.3742C409.168 28.5704 412.758 26.4984 415.599 25.1268C418.429 23.76 420.439 23.1275 422.15 23.1463L422.936 20.9103C420.941 20.8884 418.678 21.6332 415.74 23.0519C412.812 24.4656 409.139 26.5869 404.312 29.3742L404.312 31.3742ZM430.884 25.499C429.14 22.5542 426.358 20.9479 422.936 20.9103L422.15 23.1463C425.246 23.1804 427.763 24.6337 429.341 27.298L430.884 25.499ZM140.866 209.638C140.866 202.906 140.875 199.746 141.513 196.828L139.849 197.233C139.125 200.541 139.134 204.044 139.134 210.638L140.866 209.638ZM163.496 168.409C157.804 171.695 154.776 173.434 152.273 175.714L152.753 177.358C154.962 175.346 157.685 173.764 163.496 170.409L163.496 168.409ZM141.513 196.828C143.081 189.654 147.325 182.303 152.753 177.358L152.273 175.714C146.273 181.18 141.582 189.304 139.849 197.233L141.513 196.828Z" fill="#B8C0CD"/>
    <rect width="139" height="36" transform="matrix(0.866025 -0.5 2.20305e-08 1 209 124.5)" fill="#FDF3B4"/>
    <path d="M223.127 140.539C225.488 139.176 227.2 136.477 227.389 133.969L227.396 133.879L225.407 135.027L225.393 135.113C225.13 136.602 224.304 137.859 223.127 138.539C221.564 139.441 220.563 138.551 220.563 136.176L220.563 136.168C220.563 133.809 221.564 131.777 223.127 130.875C224.345 130.172 225.143 130.523 225.373 131.633L225.4 131.75L227.389 130.602L227.383 130.535C227.193 128.254 225.495 127.508 223.127 128.875C220.279 130.52 218.479 133.746 218.479 137.379L218.479 137.387C218.479 141.02 220.272 142.188 223.127 140.539ZM228.492 137.246L230.468 136.105L230.468 131.418C230.468 130.199 231.036 129.199 232.01 128.637C232.295 128.473 232.565 128.363 232.728 128.348L232.728 126.34C232.579 126.379 232.376 126.457 232.159 126.582C231.314 127.07 230.725 128.012 230.508 129.168L230.468 129.191L230.468 127.73L228.492 128.871L228.492 137.246ZM236.598 132.738C238.668 131.543 239.669 129.551 239.893 128.188L239.913 128.09L238.1 129.137L238.086 129.191C237.944 129.742 237.45 130.543 236.638 131.012C235.63 131.594 235.001 131.176 234.981 129.852L239.974 126.969L239.974 126.266C239.974 123.734 238.641 122.84 236.517 124.066C234.392 125.293 233.032 127.781 233.032 130.445L233.032 130.453C233.032 133.133 234.379 134.02 236.598 132.738ZM236.55 125.75C237.369 125.277 237.958 125.539 238.079 126.625L235.001 128.402C235.13 127.195 235.738 126.219 236.55 125.75ZM243.154 128.914C244.108 128.363 244.879 127.395 245.292 126.297L245.332 126.273L245.332 127.523L247.308 126.383L247.308 120.641C247.308 118.953 246.097 118.535 244.223 119.617C242.308 120.723 241.158 122.496 241.05 124.105L241.043 124.203L242.849 123.16L242.863 123.082C242.958 122.488 243.404 121.832 244.142 121.406C244.913 120.961 245.332 121.18 245.332 121.922L245.332 122.438L243.539 123.598C241.74 124.77 240.718 126.25 240.718 127.773L240.718 127.789C240.718 129.266 241.699 129.754 243.154 128.914ZM242.673 126.543L242.673 126.527C242.673 125.934 243.073 125.328 243.837 124.832L245.332 123.859L245.332 124.461C245.332 125.336 244.683 126.367 243.797 126.879C243.113 127.273 242.673 127.16 242.673 126.543ZM251.469 124.152C251.882 123.914 252.2 123.684 252.423 123.516L252.423 121.844C252.301 121.93 252.173 122.027 251.997 122.129C251.401 122.473 251.097 122.383 251.097 121.602L251.097 117.539L252.423 116.773L252.423 115.055L251.097 115.82L251.097 113.773L249.101 114.926L249.101 116.973L248.093 117.555L248.093 119.273L249.101 118.691L249.101 123.004C249.101 124.801 249.859 125.082 251.469 124.152ZM256.706 121.129C258.776 119.934 259.777 117.941 260.001 116.578L260.021 116.48L258.208 117.527L258.194 117.582C258.052 118.133 257.558 118.934 256.746 119.402C255.738 119.984 255.109 119.566 255.089 118.242L260.082 115.359L260.082 114.656C260.082 112.125 258.749 111.23 256.625 112.457C254.5 113.684 253.14 116.172 253.14 118.836L253.14 118.844C253.14 121.523 254.487 122.41 256.706 121.129ZM256.658 114.141C257.477 113.668 258.066 113.93 258.187 115.016L255.109 116.793C255.238 115.586 255.846 114.609 256.658 114.141ZM263.85 116.832L265.826 115.691L265.826 110.879C265.826 109.785 266.388 108.711 267.274 108.199C268.16 107.688 268.607 108.055 268.607 109.148L268.607 114.086L270.582 112.945L270.582 107.539C270.582 105.578 269.676 104.922 268.079 105.844C266.983 106.477 266.239 107.492 265.867 108.668L265.826 108.691L265.826 107.316L263.85 108.457L263.85 116.832ZM275.136 110.488C277.206 109.293 278.208 107.301 278.431 105.938L278.451 105.84L276.638 106.887L276.624 106.941C276.482 107.492 275.988 108.293 275.176 108.762C274.168 109.344 273.539 108.926 273.519 107.602L278.512 104.719L278.512 104.016C278.512 101.484 277.179 100.59 275.055 101.816C272.93 103.043 271.57 105.531 271.57 108.195L271.57 108.203C271.57 110.883 272.917 111.77 275.136 110.488ZM275.088 103.5C275.907 103.027 276.496 103.289 276.618 104.375L273.539 106.152C273.668 104.945 274.277 103.969 275.088 103.5ZM280.907 106.984L282.984 105.785L284.29 99.1094L284.331 99.0859L285.643 104.25L287.747 103.035L289.669 93.5508L287.72 94.6758L286.617 101.523L286.577 101.547L285.285 96.082L283.39 97.1758L282.105 104.129L282.064 104.152L280.968 98.5742L278.979 99.7227L280.907 106.984ZM295.657 98.6406C296.753 98.0078 297.497 96.9844 297.869 95.8086L297.91 95.7852L297.91 97.168L299.885 96.0273L299.885 87.6523L297.91 88.793L297.91 93.6055C297.91 94.6992 297.348 95.7734 296.462 96.2852C295.575 96.7969 295.129 96.4219 295.129 95.3281L295.129 90.3984L293.153 91.5391L293.153 96.9453C293.153 98.9062 294.06 99.5625 295.657 98.6406ZM304.154 93.7344C306.022 92.6562 307.328 90.8242 307.328 89.1836L307.328 89.1758C307.328 87.9414 306.705 87.6133 305.19 88.1211L303.958 88.5273C303.228 88.7695 302.977 88.6328 302.977 88.2031L302.977 88.1953C302.977 87.6562 303.403 87.0586 304.087 86.6641C304.817 86.2422 305.244 86.4492 305.311 87.0117L305.318 87.0703L307.138 86.0195L307.138 85.9414C307.091 84.5 306.015 83.9414 304.087 85.0547C302.24 86.1211 301.049 87.8398 301.049 89.4336L301.049 89.4414C301.049 90.6914 301.759 91.0938 303.167 90.625L304.398 90.2109C305.108 89.9805 305.352 90.0977 305.352 90.543L305.352 90.5508C305.352 91.0898 304.899 91.6875 304.154 92.1172C303.363 92.5742 302.937 92.4375 302.808 91.8555L302.795 91.793L300.866 92.9062L300.873 92.9727C301.029 94.4688 302.145 94.8945 304.154 93.7344ZM311.604 89.4336C313.674 88.2383 314.675 86.2461 314.899 84.8828L314.919 84.7852L313.106 85.832L313.092 85.8867C312.95 86.4375 312.456 87.2383 311.644 87.707C310.636 88.2891 310.007 87.8711 309.987 86.5469L314.98 83.6641L314.98 82.9609C314.98 80.4297 313.647 79.5352 311.522 80.7617C309.398 81.9883 308.038 84.4766 308.038 87.1406L308.038 87.1484C308.038 89.8281 309.384 90.7148 311.604 89.4336ZM311.556 82.4453C312.375 81.9727 312.964 82.2344 313.085 83.3203L310.007 85.0977C310.135 83.8906 310.744 82.9141 311.556 82.4453ZM316.001 86.7227L317.977 85.582L317.977 80.8945C317.977 79.6758 318.545 78.6758 319.52 78.1133C319.804 77.9492 320.074 77.8398 320.237 77.8242L320.237 75.8164C320.088 75.8555 319.885 75.9336 319.668 76.0586C318.823 76.5469 318.234 77.4883 318.018 78.6445L317.977 78.668L317.977 77.207L316.001 78.3477L316.001 86.7227Z" fill="black"/>
    <defs>
        <linearGradient id="paint0_linear" x1="535.459" y1="537.546" x2="341.446" y2="537.546" gradientUnits="userSpaceOnUse">
            <stop stop-color="#CEC0FF" stop-opacity="0"/>
            <stop offset="0.129625" stop-color="#CEC0FF"/>
            <stop offset="0.747994" stop-color="#CEC0FF" stop-opacity="0"/>
        </linearGradient>
        <linearGradient id="paint1_linear" x1="535.459" y1="487.546" x2="341.446" y2="487.546" gradientUnits="userSpaceOnUse">
            <stop stop-color="#CEC0FF" stop-opacity="0"/>
            <stop offset="0.129625" stop-color="#CEC0FF"/>
            <stop offset="0.747994" stop-color="#CEC0FF" stop-opacity="0"/>
        </linearGradient>
        <linearGradient id="paint2_linear" x1="535.459" y1="436.204" x2="341.446" y2="436.204" gradientUnits="userSpaceOnUse">
            <stop stop-color="#CEC0FF" stop-opacity="0"/>
            <stop offset="0.129625" stop-color="#CEC0FF"/>
            <stop offset="0.747994" stop-color="#CEC0FF" stop-opacity="0"/>
        </linearGradient>
    </defs>
</svg>
