<svg width="599" height="454" viewBox="0 0 599 454" fill="none" xmlns="http://www.w3.org/2000/svg">
    <path fill-rule="evenodd" clip-rule="evenodd" d="M413.138 204.813C439.197 203.76 460 182.301 460 155.983C460 135.352 447.216 117.707 429.137 110.537C428.239 93.4108 418.523 78.62 404.445 70.6195C399.348 30.7866 365.319 0 324.1 0C293.637 0 267.101 16.8165 253.269 41.6729C248.92 40.6876 244.395 40.1674 239.749 40.1674C206.104 40.1674 178.828 67.4424 178.828 101.088C178.828 103.447 178.963 105.775 179.224 108.065C156.853 112.543 140 132.295 140 155.983C140 182.973 161.88 204.853 188.87 204.853C189.543 204.853 190.213 204.84 190.879 204.813V204.854H413.138V204.813Z" fill="#EDF1F5"/>
    <rect x="224" y="162" width="152" height="288" rx="4" fill="white" stroke="#7833FF" stroke-width="8"/>
    <rect x="241" y="181" width="118" height="118" fill="white" stroke="#7833FF" stroke-width="2"/>
    <path d="M359.531 180.469L240.938 299.062" stroke="#7833FF" stroke-width="2"/>
    <path d="M359.531 299.062L240.938 180.469" stroke="#7833FF" stroke-width="2"/>
    <rect x="241" y="314" width="118" height="118" fill="white" stroke="#7833FF" stroke-width="2"/>
    <path d="M359.531 313.469L240.938 432.062" stroke="#7833FF" stroke-width="2"/>
    <path d="M359.531 432.062L240.938 313.469" stroke="#7833FF" stroke-width="2"/>
    <mask id="path-9-inside-1_249_418" fill="white">
        <path d="M316.424 119.967C314.551 117.394 312.095 115.302 309.258 113.861C306.422 112.419 303.284 111.67 300.102 111.673C296.92 111.677 293.784 112.434 290.951 113.881C288.117 115.329 285.666 117.427 283.799 120.003L300.125 131.837L316.424 119.967Z"/>
    </mask>
    <path d="M316.424 119.967C314.551 117.394 312.095 115.302 309.258 113.861C306.422 112.419 303.284 111.67 300.102 111.673C296.92 111.677 293.784 112.434 290.951 113.881C288.117 115.329 285.666 117.427 283.799 120.003L300.125 131.837L316.424 119.967Z" stroke="white" stroke-width="8" mask="url(#path-9-inside-1_249_418)"/>
    <path d="M330.24 109.957C326.787 105.204 322.258 101.336 317.024 98.6695C311.79 96.0026 305.999 94.6123 300.125 94.6123C294.25 94.6123 288.459 96.0026 283.225 98.6695C277.991 101.336 273.462 105.204 270.009 109.957" stroke="white" stroke-width="4"/>
    <path d="M345.297 99.0167C340.118 91.888 333.325 86.0862 325.474 82.0858C317.623 78.0855 308.936 76 300.125 76C291.313 76 282.626 78.0854 274.775 82.0858C266.924 86.0862 260.131 91.888 254.952 99.0167" stroke="white" stroke-width="4"/>
</svg>
