<svg width="56" height="56" viewBox="0 0 56 56" fill="none" xmlns="http://www.w3.org/2000/svg">
    <path d="M17.1761 37.0569C18.6561 37.0569 19.9488 36.7946 21.0541 36.27C22.1782 35.7267 23.0587 34.9867 23.6957 34.05C24.3326 33.0946 24.6511 32.008 24.6511 30.7903C24.6511 27.9801 22.9744 26.0318 19.621 24.9452L15.6024 23.6525C14.3285 23.2216 13.6916 22.5097 13.6916 21.5168C13.6916 20.8424 13.9632 20.2991 14.5065 19.8869C15.0498 19.456 15.7617 19.2406 16.6422 19.2406C17.6539 19.2406 18.5531 19.5216 19.3399 20.0836C20.1268 20.6269 20.7169 21.3857 21.1103 22.3598L24.6511 20.7581C24.0703 19.1095 23.0587 17.8168 21.6161 16.8801C20.1923 15.9246 18.5344 15.4469 16.6422 15.4469C15.2184 15.4469 13.9538 15.7092 12.8485 16.2337C11.7619 16.7583 10.9095 17.4889 10.2913 18.4256C9.69179 19.3624 9.39204 20.449 9.39204 21.6854C9.39204 24.533 11.0688 26.5095 14.4222 27.6148L18.525 28.9637C19.7615 29.3758 20.3797 30.069 20.3797 31.0432C20.3797 31.7176 20.108 32.2609 19.5647 32.6731C19.0402 33.0665 18.3377 33.2632 17.4571 33.2632C16.3331 33.2632 15.3027 32.9353 14.366 32.2796C13.448 31.6239 12.7267 30.7247 12.2022 29.5819L8.6333 31.1837C9.04545 32.3827 9.66369 33.4224 10.488 34.3029C11.331 35.1835 12.324 35.8673 13.4667 36.3543C14.6283 36.8227 15.8647 37.0569 17.1761 37.0569Z" fill="#1B2036"/>
    <path d="M38.5354 37.0569C40.0528 37.0569 41.4111 36.804 42.6101 36.2981C43.8278 35.7923 44.8582 35.1179 45.7012 34.2748C46.5443 33.4318 47.1438 32.4951 47.4997 31.4647L43.6498 29.61C43.2939 30.6217 42.6663 31.4647 41.767 32.1391C40.8865 32.7948 39.8093 33.1227 38.5354 33.1227C37.2989 33.1227 36.2123 32.8323 35.2756 32.2515C34.3389 31.6708 33.6083 30.8652 33.0837 29.8348C32.5779 28.8044 32.325 27.6054 32.325 26.2378C32.325 24.8702 32.5779 23.6806 33.0837 22.669C33.6083 21.6386 34.3389 20.833 35.2756 20.2522C36.2123 19.6715 37.2989 19.3811 38.5354 19.3811C39.8093 19.3811 40.8865 19.7183 41.767 20.3927C42.6663 21.0484 43.2939 21.8821 43.6498 22.8938L47.4997 21.0391C47.1438 20.0087 46.5443 19.072 45.7012 18.2289C44.8582 17.3859 43.8278 16.7115 42.6101 16.2056C41.4111 15.6998 40.0528 15.4469 38.5354 15.4469C37.0179 15.4469 35.6128 15.7185 34.3202 16.2618C33.0462 16.7864 31.9315 17.5358 30.9761 18.51C30.0206 19.4654 29.2806 20.6082 28.7561 21.9383C28.2315 23.2497 27.9692 24.6829 27.9692 26.2378C27.9692 27.7928 28.2315 29.226 28.7561 30.5374C29.2994 31.8488 30.0487 32.9915 31.0042 33.9657C31.9596 34.9399 33.0743 35.6986 34.3483 36.2419C35.6409 36.7852 37.0366 37.0569 38.5354 37.0569Z" fill="#1B2036"/>
    <rect x="25.3875" y="12.5" width="1.96454" height="27.5036" fill="#2A5CFF"/>
</svg>
