<svg width="44" height="44" viewBox="0 0 44 44" fill="none" xmlns="http://www.w3.org/2000/svg">
    <path d="M0 22C0 9.84974 9.84974 0 22 0C34.1503 0 44 9.84974 44 22C44 34.1503 34.1503 44 22 44C9.84974 44 0 34.1503 0 22Z" fill="#E5FF73"/>
    <path d="M8.21721 23.7861C8.25833 24.413 8.505 24.8447 8.95723 25.0811C9.40946 25.3072 10.0878 25.4203 10.9923 25.4203C12.2051 25.4203 13.0376 25.2558 13.4898 24.9269C13.7879 24.7317 13.9369 24.4593 13.9369 24.1098C13.9369 23.8632 13.829 23.6833 13.6131 23.5702C13.3973 23.4469 13.089 23.3647 12.6881 23.3236L8.63347 22.8611C7.52345 22.7274 6.67552 22.4448 6.08967 22.0131C5.50383 21.5815 5.21091 20.9545 5.21091 20.1323C5.21091 19.6081 5.31883 19.1199 5.53466 18.6676C5.7505 18.2051 6.06398 17.7992 6.4751 17.4497C7.06094 16.9564 7.84721 16.6069 8.83389 16.4014C9.83086 16.1958 11.0694 16.093 12.5494 16.093C14.5125 16.093 16.0131 16.3294 17.0511 16.8022C18.0995 17.275 18.6237 18.0818 18.6237 19.2227C18.6237 19.3974 18.6082 19.5773 18.5774 19.7623H14.5228C14.4919 19.2792 14.2658 18.94 13.8444 18.7447C13.423 18.5392 12.7858 18.4364 11.9327 18.4364C10.9049 18.4364 10.1803 18.5751 9.75891 18.8527C9.45057 19.0479 9.2964 19.2895 9.2964 19.5773C9.2964 19.7931 9.39404 19.9524 9.58932 20.0552C9.79488 20.158 10.1289 20.235 10.5914 20.2864L14.8465 20.7027C15.9565 20.8157 16.7942 21.083 17.3595 21.5044C17.9248 21.9155 18.2074 22.5373 18.2074 23.3698C18.2074 24.0071 18.0738 24.6186 17.8066 25.2044C17.5496 25.7903 17.1847 26.2528 16.712 26.592C16.0953 27.0442 15.2782 27.3577 14.2607 27.5324C13.2431 27.7174 11.9327 27.8099 10.3293 27.8099C8.96237 27.8099 7.82665 27.7123 6.92219 27.517C6.02801 27.332 5.33424 26.9979 4.8409 26.5149C4.35783 26.0318 4.1163 25.374 4.1163 24.5415C4.1163 24.2948 4.13172 24.043 4.16255 23.7861H8.21721Z" fill="#1B2036"/>
    <path d="M40.8703 22.9227C40.6339 24.1047 40.0738 25.0914 39.1899 25.8828C37.7818 27.1675 35.6388 27.8099 32.761 27.8099C30.6129 27.8099 28.9736 27.4245 27.843 26.6536C26.7124 25.8828 26.1471 24.7317 26.1471 23.2002C26.1471 22.2752 26.2962 21.4016 26.5942 20.5794C26.9026 19.7468 27.3548 19.0222 27.9509 18.4056C29.4515 16.8639 31.7075 16.093 34.719 16.093C36.8568 16.093 38.4858 16.4425 39.6061 17.1414C40.7367 17.8403 41.302 18.8218 41.302 20.086C41.302 20.2916 41.2866 20.5125 41.2557 20.7489H37.0932C37.0726 20.2453 36.8362 19.8034 36.384 19.4231C35.942 19.0428 35.2585 18.8527 34.3335 18.8527C32.7507 18.8527 31.5842 19.3666 30.8339 20.3943C30.5564 20.7644 30.356 21.1395 30.2326 21.5198C30.1093 21.9001 30.0476 22.3061 30.0476 22.7377C30.0476 23.4777 30.3046 24.0482 30.8185 24.449C31.3324 24.8499 32.1032 25.0503 33.131 25.0503C34.1999 25.0503 35.0787 24.7573 35.7673 24.1715C36.199 23.8221 36.4765 23.4058 36.5998 22.9227H40.8703Z" fill="#1B2036"/>
    <path d="M19.0511 25.5606C19.2299 24.6664 19.5551 23.9835 20.0266 23.5119C20.498 23.0242 21.0671 22.7152 21.7336 22.5852L21.758 22.4632C21.2703 22.3657 20.8801 22.1462 20.5875 21.8047C20.2948 21.447 20.1485 20.9674 20.1485 20.3658C20.1485 20.1056 20.1729 19.8048 20.2216 19.4634L20.9533 15.7319C21.0183 15.3741 21.0508 15.1303 21.0508 15.0002C21.0508 14.7075 20.9614 14.488 20.7825 14.3417C20.6037 14.1791 20.2867 14.0978 19.8315 14.0978H18.7341L19.2462 11.4394H21.7092C22.766 11.4394 23.5708 11.6426 24.1235 12.0491C24.6763 12.4393 24.9527 13.0328 24.9527 13.8295C24.9527 14.0734 24.9283 14.3336 24.8795 14.61L24.0748 18.7561C24.0097 19.0325 23.9772 19.3089 23.9772 19.5853C23.9772 20.1381 24.1235 20.5284 24.4162 20.756C24.7251 20.9674 25.164 21.073 25.7331 21.073L25.1966 23.9509C24.4812 23.9509 23.9122 24.1217 23.4895 24.4631C23.0668 24.8046 22.7741 25.4143 22.6116 26.2923L21.7824 30.6091C21.5873 31.6497 21.1402 32.4058 20.4411 32.8773C19.7583 33.3651 18.8072 33.609 17.5879 33.609H15.0029L15.515 30.9506H16.5392C17.1408 30.9506 17.5554 30.8205 17.783 30.5604C18.0268 30.3002 18.2057 29.8775 18.3195 29.2921L19.0511 25.5606Z" fill="#1B2036"/>
</svg>
