<svg width="37" height="70" viewBox="0 0 37 70" fill="none" xmlns="http://www.w3.org/2000/svg">
    <rect x="1" y="1" width="35" height="68" rx="5" fill="white"/>
    <path d="M31.7642 0C34.6558 0 37 2.33881 37 5.22388V64.7761C37 67.6612 34.6558 70 31.7642 70H5.23585C2.34417 70 0 67.6612 0 64.7761V5.22388C0 2.33881 2.34417 0 5.23585 0H31.7642ZM26.5646 4.80323C26.3284 5.27454 25.8464 5.57214 25.3192 5.57214H11.6808C11.1536 5.57214 10.6716 5.27454 10.4354 4.80323L9.07547 2.08955H5.23585C3.50084 2.08955 2.09434 3.49284 2.09434 5.22388V64.7761C2.09434 66.5072 3.50084 67.9104 5.23585 67.9104H31.7642C33.4992 67.9104 34.9057 66.5072 34.9057 64.7761V5.22388C34.9057 3.49284 33.4992 2.08955 31.7642 2.08955H27.9245L26.5646 4.80323Z" fill="#1B2036"/>
    <path d="M12 28.7567C12 27.9815 12.8439 27.5011 13.5105 27.8969L26.5518 35.6401C27.2044 36.0276 27.2044 36.9724 26.5518 37.3599L13.5105 45.1031C12.8439 45.4989 12 45.0185 12 44.2433V28.7567Z" fill="#2D2E35"/>
</svg>
