<svg width="97" height="96" viewBox="0 0 97 96" fill="none" xmlns="http://www.w3.org/2000/svg">
    <path d="M93.8 59.4998C94.9046 59.4998 95.8 58.6044 95.8 57.4998C95.8 56.3952 94.9046 55.4998 93.8 55.4998V59.4998ZM4.5 55.4998C3.39543 55.4998 2.5 56.3952 2.5 57.4998C2.5 58.6044 3.39543 59.4998 4.5 59.4998V55.4998ZM40.1 71.9998V69.9998H38.1V71.9998H40.1ZM56.9 71.9998H58.9V69.9998H56.9V71.9998ZM56.9 85.7998V87.7998H58.9V85.7998H56.9ZM40.1 85.7998H38.1V87.7998H40.1V85.7998ZM34.7 83.7998C33.5954 83.7998 32.7 84.6952 32.7 85.7998C32.7 86.9044 33.5954 87.7998 34.7 87.7998V83.7998ZM63.5 87.7998C64.6046 87.7998 65.5 86.9044 65.5 85.7998C65.5 84.6952 64.6046 83.7998 63.5 83.7998V87.7998ZM8.6 12.7998H89V8.7998H8.6V12.7998ZM91.8 15.5998V67.1998H95.8V15.5998H91.8ZM89 69.9998H8.6V73.9998H89V69.9998ZM5.8 67.1998V15.5998H1.8V67.1998H5.8ZM8.6 69.9998C7.0536 69.9998 5.8 68.7462 5.8 67.1998H1.8C1.8 70.9553 4.84446 73.9998 8.6 73.9998V69.9998ZM91.8 67.1998C91.8 68.7462 90.5464 69.9998 89 69.9998V73.9998C92.7555 73.9998 95.8 70.9553 95.8 67.1998H91.8ZM89 12.7998C90.5464 12.7998 91.8 14.0534 91.8 15.5998H95.8C95.8 11.8443 92.7555 8.7998 89 8.7998V12.7998ZM8.6 8.7998C4.84446 8.7998 1.8 11.8443 1.8 15.5998H5.8C5.8 14.0534 7.0536 12.7998 8.6 12.7998V8.7998ZM93.8 55.4998H4.5V59.4998H93.8V55.4998ZM40.1 73.9998H56.9V69.9998H40.1V73.9998ZM54.9 71.9998V85.7998H58.9V71.9998H54.9ZM56.9 83.7998H40.1V87.7998H56.9V83.7998ZM42.1 85.7998V71.9998H38.1V85.7998H42.1ZM34.7 87.7998H63.5V83.7998H34.7V87.7998Z" fill="#2D2E35"/>
    <path d="M49 48.3337C56.3638 48.3337 62.3333 42.3641 62.3333 35.0003C62.3333 27.6365 56.3638 21.667 49 21.667C41.6362 21.667 35.6667 27.6365 35.6667 35.0003C35.6667 42.3641 41.6362 48.3337 49 48.3337Z" fill="#FDDE4F"/>
    <path d="M55 31.667L47.6667 39.0003L43.6667 35.0003" stroke="#06172D" stroke-width="2.66667" stroke-linecap="round" stroke-linejoin="round"/>
</svg>
