<svg width="599" height="474" viewBox="0 0 599 474" fill="none" xmlns="http://www.w3.org/2000/svg">
    <path d="M98.9646 35.2693L214.055 61.3116V88.3116V115.312L98.9646 89.2693V35.2693Z" fill="#7833FF" stroke="#7833FF" stroke-width="2"/>
    <path d="M126.528 61.5062L124.148 60.9677V68.6677C124.148 71.3877 123.173 72.667 121.105 72.1991C118.745 71.665 117.691 69.6667 117.691 67.0467V59.5067L115.292 58.9638V67.0238C115.292 71.1238 117.711 73.7311 121.105 74.4991C123.972 75.148 126.528 73.9862 126.528 69.7062V61.5062ZM133.94 74.6434C133.94 75.2034 133.433 75.3686 132.789 75.223C131.911 75.0244 130.585 74.1842 130.058 73.485L128.966 74.7378C129.375 75.4705 131.014 76.7413 132.633 77.1077C134.779 77.5932 136.183 76.811 136.183 75.031C136.183 71.851 131.443 71.5984 131.443 70.0984C131.443 69.6984 131.853 69.4111 132.535 69.5656C133.472 69.7775 134.389 70.4249 134.915 70.9641L135.754 69.5139C135.208 68.8703 134.115 68.0031 132.418 67.6191C130.604 67.2086 129.2 67.8708 129.2 69.6308C129.2 72.9108 133.94 73.1834 133.94 74.6434ZM145.046 77.1764C144.539 77.4817 143.641 77.6786 142.568 77.4359C141.184 77.1225 140.13 76.1441 139.935 74.74L146.275 76.1745C146.372 75.8566 146.411 75.5254 146.411 74.9654C146.411 72.4454 144.519 70.3572 142.256 69.8452C139.369 69.192 137.614 70.8947 137.614 73.5147C137.614 76.3547 139.506 78.6629 142.334 79.3029C143.563 79.581 144.812 79.5035 145.69 78.9421L145.046 77.1764ZM142.159 71.7432C143.446 72.0345 144.188 73.0622 144.168 74.1578L139.857 73.1823C140.091 72.0553 140.813 71.4386 142.159 71.7432ZM148.218 80.4142L150.461 80.9218V74.8818C150.715 74.4192 151.125 74.0719 151.905 74.2485C152.373 74.3544 152.607 74.4874 153.036 74.8445L153.836 72.8655C153.544 72.5792 153.192 72.3798 152.471 72.2165C151.417 71.9781 150.871 72.3145 150.461 72.8018V71.9218L148.218 71.4142V80.4142Z" fill="white"/>
    <path d="M98.9646 99.2693L214.055 125.312V152.312V179.312L98.9646 153.269V99.2693Z" fill="white" stroke="#FFE000" stroke-width="2"/>
    <path d="M122.782 128.659L120.539 128.151V134.131C120.032 134.696 119.31 134.953 118.569 134.785C117.34 134.507 116.891 133.546 116.891 132.346V127.326L114.648 126.818V132.318C114.648 134.898 116.014 136.347 117.73 136.736C119.096 137.044 120.012 136.592 120.539 136.051V137.151L122.782 137.659V128.659ZM129.73 136.691C129.73 137.251 129.223 137.416 128.579 137.27C127.701 137.072 126.375 136.232 125.848 135.532L124.756 136.785C125.165 137.518 126.804 138.789 128.423 139.155C130.569 139.641 131.973 138.858 131.973 137.078C131.973 133.898 127.233 133.646 127.233 132.146C127.233 131.746 127.643 131.458 128.325 131.613C129.262 131.825 130.179 132.472 130.705 133.011L131.544 131.561C130.998 130.918 129.905 130.051 128.208 129.666C126.394 129.256 124.99 129.918 124.99 131.678C124.99 134.958 129.73 135.231 129.73 136.691ZM140.836 139.224C140.329 139.529 139.431 139.726 138.359 139.483C136.974 139.17 135.92 138.191 135.725 136.787L142.065 138.222C142.162 137.904 142.201 137.573 142.201 137.013C142.201 134.493 140.309 132.405 138.046 131.893C135.159 131.239 133.404 132.942 133.404 135.562C133.404 138.402 135.296 140.71 138.124 141.35C139.353 141.628 140.602 141.551 141.48 140.989L140.836 139.224ZM137.949 133.791C139.236 134.082 139.978 135.11 139.958 136.205L135.647 135.23C135.881 134.103 136.603 133.486 137.949 133.791ZM144.008 142.462L146.251 142.969V136.929C146.505 136.467 146.915 136.119 147.695 136.296C148.163 136.402 148.397 136.535 148.826 136.892L149.626 134.913C149.334 134.627 148.982 134.427 148.261 134.264C147.207 134.026 146.661 134.362 146.251 134.849V133.969L144.008 133.462V142.462ZM150.904 144.022L153.147 144.53V138.39C153.674 137.969 154.298 137.79 155.059 137.962C156.308 138.245 157.029 139.088 157.029 140.528V145.408L159.273 145.916V140.636C159.273 137.816 157.81 136.425 155.664 135.939C154.61 135.701 153.674 135.969 153.147 136.43V135.53L150.904 135.022V144.022ZM162.236 139.906C162.879 139.752 163.523 139.577 164.537 139.807C165.844 140.103 166.235 141.011 166.176 142.498C165.747 142.081 164.967 141.644 164.186 141.467C162.411 141.066 160.987 141.684 160.987 143.664C160.987 145.404 162.138 146.684 163.738 147.046C164.928 147.315 165.864 147.047 166.332 146.473V147.513L168.283 147.954V142.474C168.283 140.094 167.366 138.527 164.772 137.94C163.621 137.679 162.431 137.81 161.67 138.098L162.236 139.906ZM164.479 145.274C163.777 145.115 163.231 144.611 163.231 143.931C163.231 143.171 163.894 142.961 164.635 143.129C165.279 143.275 165.786 143.529 166.176 143.918V144.838C165.903 145.176 165.415 145.486 164.479 145.274ZM183.906 145.609C183.906 143.149 182.696 142.056 181.097 141.694C179.731 141.385 178.756 141.764 178.132 142.463C177.819 141.572 176.922 140.749 175.576 140.445C174.484 140.198 173.45 140.404 172.826 140.982V139.982L170.582 139.475V148.475L172.826 148.982V142.942C173.216 142.431 173.86 142.216 174.659 142.397C175.615 142.614 176.122 143.348 176.122 144.288V149.728L178.366 150.236V144.936C178.366 144.736 178.346 144.412 178.346 144.272C178.658 143.722 179.322 143.452 180.16 143.642C181.214 143.88 181.662 144.582 181.662 145.702V150.982L183.906 151.489V145.609ZM193.07 151.043C192.563 151.348 191.666 151.545 190.593 151.303C189.208 150.989 188.154 150.011 187.959 148.607L194.299 150.041C194.397 149.723 194.436 149.392 194.436 148.832C194.436 146.312 192.543 144.224 190.281 143.712C187.394 143.059 185.638 144.761 185.638 147.381C185.638 150.221 187.53 152.53 190.359 153.17C191.588 153.448 192.836 153.37 193.714 152.809L193.07 151.043ZM190.183 145.61C191.47 145.901 192.212 146.929 192.192 148.025L187.881 147.049C188.115 145.922 188.837 145.305 190.183 145.61Z" fill="#6C7991"/>
    <path d="M98.9646 163.269L214.055 189.312V216.312V243.312L98.9646 217.269V163.269Z" fill="white" stroke="#1EC1A1" stroke-width="2"/>
    <path d="M121.729 199.9C121.222 200.206 120.325 200.403 119.252 200.16C117.867 199.846 116.813 198.868 116.618 197.464L122.958 198.899C123.056 198.581 123.095 198.249 123.095 197.689C123.095 195.169 121.202 193.081 118.94 192.569C116.053 191.916 114.297 193.619 114.297 196.239C114.297 199.079 116.189 201.387 119.018 202.027C120.247 202.305 121.495 202.227 122.373 201.666L121.729 199.9ZM118.842 194.467C120.13 194.758 120.871 195.786 120.851 196.882L116.54 195.906C116.774 194.779 117.496 194.163 118.842 194.467ZM138.225 200.273C138.225 197.813 137.015 196.719 135.416 196.357C134.05 196.048 133.075 196.428 132.451 197.126C132.138 196.236 131.241 195.413 129.895 195.108C128.803 194.861 127.769 195.067 127.145 195.646V194.646L124.901 194.138V203.138L127.145 203.646V197.606C127.535 197.094 128.179 196.88 128.978 197.061C129.934 197.277 130.441 198.012 130.441 198.952V204.392L132.685 204.899V199.599C132.685 199.399 132.665 199.075 132.665 198.935C132.977 198.386 133.64 198.116 134.479 198.305C135.533 198.544 135.981 199.245 135.981 200.365V205.645L138.225 206.153V200.273ZM141.186 200.143C141.83 199.989 142.473 199.814 143.488 200.044C144.795 200.34 145.185 201.248 145.126 202.735C144.697 202.318 143.917 201.881 143.136 201.704C141.361 201.303 139.937 201.921 139.937 203.901C139.937 205.641 141.088 206.921 142.688 207.283C143.878 207.552 144.814 207.284 145.282 206.71V207.75L147.233 208.191V202.711C147.233 200.331 146.316 198.764 143.722 198.177C142.571 197.916 141.381 198.047 140.62 198.335L141.186 200.143ZM143.429 205.511C142.727 205.352 142.181 204.848 142.181 204.168C142.181 203.408 142.844 203.198 143.585 203.366C144.229 203.512 144.736 203.766 145.126 204.155V205.075C144.853 205.413 144.365 205.723 143.429 205.511ZM149.864 208.787L152.107 209.294V200.294L149.864 199.787V208.787ZM149.63 196.494C149.63 197.414 150.274 198.079 151.035 198.252C151.678 198.397 152.322 198.023 152.322 197.103C152.322 196.283 151.678 195.617 151.035 195.472C150.274 195.299 149.63 195.674 149.63 196.494ZM154.943 207.456C154.943 209.296 155.664 210.299 157.01 210.604C158.064 210.842 158.825 210.674 159.332 210.369L158.864 208.503C158.59 208.641 158.298 208.735 157.947 208.656C157.42 208.536 157.186 208.044 157.186 207.024V196.444L154.943 195.936V207.456Z" fill="#6C7991"/>
    <path d="M98.9646 227.269L214.055 253.312V281.049V372.312L98.9646 346.269V227.269Z" fill="white" stroke="#D3DBE6" stroke-width="2"/>
    <path d="M121.495 263.347C120.929 263.859 120.188 264.152 119.232 263.935C117.906 263.635 116.696 262.382 116.696 260.782C116.696 259.202 117.886 258.491 119.135 258.773C119.934 258.954 120.656 259.338 121.319 260.148L122.373 258.566C121.554 257.541 120.286 256.874 118.842 256.547C116.17 255.942 114.297 257.619 114.297 260.239C114.297 263.079 116.209 265.391 119.057 266.036C120.481 266.358 121.807 266.118 122.548 265.266L121.495 263.347ZM124.349 267.013L126.592 267.521V261.481C126.846 261.018 127.255 260.671 128.036 260.847C128.504 260.953 128.738 261.086 129.167 261.444L129.967 259.464C129.674 259.178 129.323 258.979 128.601 258.815C127.548 258.577 127.002 258.914 126.592 259.401V258.521L124.349 258.013V267.013ZM138.131 267.612C137.624 267.917 136.726 268.114 135.653 267.871C134.268 267.558 133.215 266.579 133.02 265.175L139.36 266.61C139.457 266.292 139.496 265.961 139.496 265.401C139.496 262.881 137.604 260.793 135.341 260.281C132.454 259.627 130.699 261.33 130.699 263.95C130.699 266.79 132.591 269.098 135.419 269.738C136.648 270.016 137.897 269.939 138.775 269.377L138.131 267.612ZM135.244 262.179C136.531 262.47 137.273 263.498 137.253 264.593L132.942 263.618C133.176 262.491 133.898 261.874 135.244 262.179ZM141.986 264.324C142.63 264.17 143.273 263.995 144.288 264.225C145.595 264.521 145.985 265.429 145.926 266.916C145.497 266.499 144.717 266.062 143.937 265.885C142.161 265.484 140.737 266.102 140.737 268.082C140.737 269.822 141.888 271.102 143.488 271.464C144.678 271.733 145.614 271.465 146.082 270.891V271.931L148.033 272.372V266.892C148.033 264.512 147.116 262.945 144.522 262.358C143.371 262.097 142.181 262.228 141.42 262.516L141.986 264.324ZM144.229 269.692C143.527 269.533 142.981 269.029 142.981 268.349C142.981 267.589 143.644 267.379 144.385 267.547C145.029 267.693 145.536 267.947 145.926 268.336V269.256C145.653 269.594 145.165 269.904 144.229 269.692ZM150.138 269.429C150.138 271.729 150.879 273.216 152.869 273.667C154 273.923 154.936 273.694 155.463 273.374L154.78 271.439C154.468 271.609 154.039 271.791 153.434 271.655C152.693 271.487 152.381 270.776 152.381 269.796V266.516L155.209 267.156V264.996L152.381 264.356V261.856L150.138 261.349V269.429ZM163.905 273.444C163.398 273.749 162.501 273.946 161.428 273.703C160.043 273.39 158.989 272.412 158.794 271.007L165.134 272.442C165.231 272.124 165.27 271.793 165.27 271.233C165.27 268.713 163.378 266.625 161.116 266.113C158.229 265.459 156.473 267.162 156.473 269.782C156.473 272.622 158.365 274.93 161.194 275.57C162.422 275.848 163.671 275.771 164.549 275.21L163.905 273.444ZM161.018 268.011C162.305 268.302 163.047 269.33 163.027 270.425L158.716 269.45C158.95 268.323 159.672 267.706 161.018 268.011ZM122.782 289.659L120.539 289.151V295.131C120.032 295.696 119.31 295.953 118.569 295.785C117.34 295.507 116.891 294.546 116.891 293.346V288.326L114.648 287.818V293.318C114.648 295.898 116.014 297.347 117.73 297.736C119.096 298.045 120.012 297.592 120.539 297.051V298.151L122.782 298.659V289.659ZM125.282 303.224L127.526 303.732V299.512C128.033 299.927 128.794 300.239 129.574 300.416C132.383 301.051 134.217 299.346 134.217 296.606C134.217 293.946 132.656 291.673 130.237 291.126C129.106 290.87 128.072 291.116 127.526 291.592V290.732L125.282 290.224V303.224ZM129.535 293.127C131.017 293.462 131.837 294.688 131.837 296.128C131.837 297.628 130.939 298.585 129.379 298.231C128.638 298.064 128.13 297.829 127.526 297.292V293.652C128.072 293.156 128.774 292.955 129.535 293.127ZM142.265 303.067L144.509 303.575V289.575L142.265 289.067V294.287C141.778 293.877 141.212 293.609 140.432 293.432C137.603 292.792 135.614 294.322 135.614 297.162C135.614 299.902 137.233 302.089 139.749 302.658C140.88 302.914 141.68 302.635 142.265 302.127V303.067ZM140.217 300.624C139.027 300.355 138.013 299.225 138.013 297.625C138.013 295.965 139.203 295.314 140.529 295.614C141.134 295.751 141.7 296.059 142.265 296.547V300.167C141.758 300.573 141.036 300.809 140.217 300.624ZM147.682 297.613C148.325 297.459 148.969 297.284 149.984 297.514C151.29 297.81 151.681 298.718 151.622 300.205C151.193 299.787 150.413 299.351 149.632 299.174C147.857 298.773 146.433 299.39 146.433 301.37C146.433 303.11 147.584 304.391 149.184 304.753C150.374 305.022 151.31 304.754 151.778 304.18V305.22L153.729 305.661V300.181C153.729 297.801 152.812 296.234 150.218 295.647C149.067 295.386 147.877 295.517 147.116 295.805L147.682 297.613ZM149.925 302.981C149.223 302.822 148.677 302.318 148.677 301.638C148.677 300.878 149.34 300.668 150.081 300.836C150.725 300.982 151.232 301.236 151.622 301.625V302.545C151.349 302.883 150.861 303.192 149.925 302.981ZM155.833 302.717C155.833 305.017 156.575 306.505 158.564 306.955C159.696 307.211 160.632 306.983 161.159 306.662L160.476 304.728C160.164 304.897 159.735 305.08 159.13 304.943C158.389 304.776 158.077 304.065 158.077 303.085V299.805L160.905 300.445V298.285L158.077 297.645V295.145L155.833 294.637V302.717ZM169.601 306.733C169.094 307.038 168.196 307.235 167.123 306.992C165.739 306.679 164.685 305.7 164.49 304.296L170.83 305.731C170.927 305.413 170.966 305.082 170.966 304.522C170.966 302.002 169.074 299.914 166.811 299.402C163.924 298.748 162.169 300.451 162.169 303.071C162.169 305.911 164.061 308.219 166.889 308.859C168.118 309.137 169.367 309.06 170.245 308.498L169.601 306.733ZM166.714 301.299C168.001 301.591 168.743 302.619 168.723 303.714L164.412 302.739C164.646 301.612 165.368 300.995 166.714 301.299ZM120.949 330.244L123.192 330.751V316.751L120.949 316.244V321.464C120.461 321.054 119.895 320.786 119.115 320.609C116.287 319.969 114.297 321.499 114.297 324.339C114.297 327.079 115.916 329.265 118.432 329.834C119.564 330.09 120.364 329.811 120.949 329.304V330.244ZM118.901 327.8C117.711 327.531 116.696 326.402 116.696 324.802C116.696 323.142 117.886 322.491 119.213 322.791C119.817 322.928 120.383 323.236 120.949 323.724V327.344C120.442 327.749 119.72 327.986 118.901 327.8ZM132.568 330.353C132.061 330.658 131.164 330.855 130.091 330.613C128.706 330.299 127.653 329.321 127.458 327.917L133.797 329.351C133.895 329.033 133.934 328.702 133.934 328.142C133.934 325.622 132.042 323.534 129.779 323.022C126.892 322.369 125.136 324.071 125.136 326.691C125.136 329.531 127.028 331.84 129.857 332.48C131.086 332.758 132.334 332.68 133.212 332.119L132.568 330.353ZM129.681 324.92C130.969 325.211 131.71 326.239 131.691 327.334L127.38 326.359C127.614 325.232 128.335 324.615 129.681 324.92ZM135.741 331.111C135.741 332.951 136.462 333.954 137.808 334.259C138.862 334.497 139.622 334.329 140.13 334.024L139.662 332.158C139.388 332.296 139.096 332.39 138.745 332.311C138.218 332.192 137.984 331.699 137.984 330.679V320.099L135.741 319.591V331.111ZM148.456 333.948C147.949 334.253 147.051 334.45 145.978 334.207C144.593 333.894 143.54 332.916 143.345 331.512L149.685 332.946C149.782 332.628 149.821 332.297 149.821 331.737C149.821 329.217 147.929 327.129 145.666 326.617C142.779 325.964 141.024 327.666 141.024 330.286C141.024 333.126 142.916 335.435 145.744 336.075C146.973 336.353 148.222 336.275 149.099 335.714L148.456 333.948ZM145.569 328.515C146.856 328.806 147.597 329.834 147.578 330.929L143.267 329.954C143.501 328.827 144.223 328.21 145.569 328.515ZM151.433 333.722C151.433 336.022 152.174 337.509 154.164 337.96C155.295 338.216 156.232 337.988 156.758 337.667L156.076 335.732C155.763 335.902 155.334 336.085 154.73 335.948C153.988 335.78 153.676 335.069 153.676 334.089V330.809L156.505 331.449V329.289L153.676 328.649V326.149L151.433 325.642V333.722ZM165.2 337.737C164.693 338.042 163.796 338.239 162.723 337.996C161.338 337.683 160.285 336.705 160.09 335.301L166.429 336.735C166.527 336.417 166.566 336.086 166.566 335.526C166.566 333.006 164.674 330.918 162.411 330.406C159.524 329.753 157.768 331.455 157.768 334.075C157.768 336.915 159.66 339.223 162.489 339.863C163.718 340.142 164.966 340.064 165.844 339.503L165.2 337.737ZM162.313 332.304C163.601 332.595 164.342 333.623 164.323 334.718L160.012 333.743C160.246 332.616 160.967 331.999 162.313 332.304Z" fill="#6C7991"/>
    <path d="M230.121 125.996L345.212 152.038V179.038V206.038L230.121 179.996V125.996Z" fill="#7833FF" stroke="#7833FF" stroke-width="2"/>
    <path d="M253.939 156.385L251.696 155.878V161.858C251.189 162.423 250.467 162.68 249.726 162.512C248.497 162.234 248.048 161.272 248.048 160.072V155.052L245.805 154.545V160.045C245.805 162.625 247.17 164.074 248.887 164.462C250.252 164.771 251.169 164.318 251.696 163.778V164.878L253.939 165.385V156.385ZM260.887 164.417C260.887 164.977 260.379 165.143 259.736 164.997C258.858 164.798 257.531 163.958 257.005 163.259L255.912 164.512C256.322 165.244 257.961 166.515 259.58 166.882C261.725 167.367 263.13 166.585 263.13 164.805C263.13 161.625 258.39 161.372 258.39 159.872C258.39 159.472 258.799 159.185 259.482 159.339C260.419 159.551 261.335 160.199 261.862 160.738L262.701 159.288C262.155 158.644 261.062 157.777 259.365 157.393C257.551 156.982 256.147 157.645 256.147 159.405C256.147 162.685 260.887 162.957 260.887 164.417ZM271.993 166.95C271.485 167.256 270.588 167.452 269.515 167.21C268.13 166.896 267.077 165.918 266.882 164.514L273.222 165.948C273.319 165.63 273.358 165.299 273.358 164.739C273.358 162.219 271.466 160.131 269.203 159.619C266.316 158.966 264.561 160.669 264.561 163.289C264.561 166.129 266.453 168.437 269.281 169.077C270.51 169.355 271.759 169.277 272.636 168.716L271.993 166.95ZM269.106 161.517C270.393 161.808 271.134 162.836 271.115 163.932L266.804 162.956C267.038 161.829 267.76 161.212 269.106 161.517ZM275.165 170.188L277.408 170.696V164.656C277.662 164.193 278.071 163.846 278.852 164.022C279.32 164.128 279.554 164.261 279.983 164.618L280.783 162.639C280.49 162.353 280.139 162.154 279.417 161.99C278.364 161.752 277.818 162.088 277.408 162.576V161.696L275.165 161.188V170.188ZM282.061 171.749L284.304 172.256V166.116C284.831 165.695 285.455 165.517 286.216 165.689C287.464 165.971 288.186 166.814 288.186 168.254V173.134L290.429 173.642V168.362C290.429 165.542 288.966 164.151 286.821 163.666C285.767 163.427 284.831 163.695 284.304 164.156V163.256L282.061 162.749V171.749ZM293.392 167.633C294.036 167.478 294.68 167.304 295.694 167.533C297.001 167.829 297.391 168.737 297.333 170.224C296.904 169.807 296.123 169.371 295.343 169.194C293.568 168.792 292.144 169.41 292.144 171.39C292.144 173.13 293.295 174.41 294.894 174.772C296.084 175.042 297.021 174.774 297.489 174.199V175.239L299.44 175.681V170.201C299.44 167.821 298.523 166.253 295.928 165.666C294.777 165.406 293.587 165.537 292.827 165.825L293.392 167.633ZM295.636 173C294.933 172.841 294.387 172.338 294.387 171.658C294.387 170.898 295.05 170.688 295.792 170.855C296.435 171.001 296.943 171.256 297.333 171.644V172.564C297.06 172.902 296.572 173.212 295.636 173ZM315.062 173.336C315.062 170.876 313.853 169.782 312.253 169.42C310.888 169.111 309.913 169.491 309.288 170.189C308.976 169.299 308.079 168.476 306.733 168.171C305.641 167.924 304.607 168.13 303.982 168.709V167.709L301.739 167.201V176.201L303.982 176.709V170.669C304.373 170.157 305.016 169.943 305.816 170.124C306.772 170.34 307.279 171.075 307.279 172.015V177.455L309.522 177.962V172.662C309.522 172.462 309.503 172.138 309.503 171.998C309.815 171.449 310.478 171.179 311.317 171.368C312.37 171.607 312.819 172.308 312.819 173.428V178.708L315.062 179.216V173.336ZM324.227 178.77C323.72 179.075 322.822 179.272 321.749 179.029C320.364 178.716 319.311 177.737 319.116 176.333L325.456 177.768C325.553 177.45 325.592 177.119 325.592 176.559C325.592 174.039 323.7 171.95 321.437 171.438C318.55 170.785 316.795 172.488 316.795 175.108C316.795 177.948 318.687 180.256 321.515 180.896C322.744 181.174 323.993 181.097 324.87 180.535L324.227 178.77ZM321.34 173.336C322.627 173.628 323.368 174.655 323.349 175.751L319.038 174.776C319.272 173.649 319.994 173.032 321.34 173.336Z" fill="white"/>
    <path d="M230.121 189.996L345.212 216.038V243.038V270.038L230.121 243.996V189.996Z" fill="white" stroke="#FFE000" stroke-width="2"/>
    <path d="M246.644 226.734L249.043 227.277V217.217L253.393 224.362L253.744 224.441L258.055 219.197V229.317L260.435 229.855V215.855L258.172 215.343L253.725 220.877L249.062 213.282L246.644 212.734V226.734ZM264.265 224.042C264.909 223.888 265.553 223.713 266.567 223.943C267.874 224.238 268.264 225.147 268.206 226.634C267.777 226.216 266.996 225.78 266.216 225.603C264.441 225.202 263.017 225.819 263.017 227.799C263.017 229.539 264.168 230.82 265.768 231.182C266.957 231.451 267.894 231.183 268.362 230.609V231.649L270.313 232.09V226.61C270.313 224.23 269.396 222.663 266.801 222.076C265.65 221.815 264.461 221.946 263.7 222.234L264.265 224.042ZM266.509 229.409C265.807 229.251 265.26 228.747 265.26 228.067C265.26 227.307 265.924 227.097 266.665 227.265C267.309 227.41 267.816 227.665 268.206 228.054V228.974C267.933 229.312 267.445 229.621 266.509 229.409ZM272.612 232.611L274.856 233.118V227.078C275.109 226.616 275.519 226.268 276.299 226.445C276.767 226.551 277.001 226.684 277.43 227.041L278.23 225.062C277.938 224.776 277.587 224.576 276.865 224.413C275.811 224.174 275.265 224.511 274.856 224.998V224.118L272.612 223.611V232.611ZM279.313 230.707C279.313 233.007 280.054 234.495 282.044 234.945C283.176 235.201 284.112 234.973 284.639 234.652L283.956 232.717C283.644 232.887 283.215 233.07 282.61 232.933C281.869 232.765 281.556 232.054 281.556 231.074V227.794L284.385 228.434V226.274L281.556 225.634V223.134L279.313 222.627V230.707ZM286.869 235.837L289.112 236.344V227.344L286.869 226.837V235.837ZM286.635 223.544C286.635 224.464 287.279 225.129 288.04 225.301C288.683 225.447 289.327 225.073 289.327 224.153C289.327 223.333 288.683 222.667 288.04 222.521C287.279 222.349 286.635 222.724 286.635 223.544ZM291.948 236.986L294.191 237.493V231.353C294.718 230.933 295.342 230.754 296.103 230.926C297.351 231.208 298.073 232.052 298.073 233.492V238.372L300.316 238.879V233.599C300.316 230.779 298.853 229.388 296.707 228.903C295.654 228.664 294.718 228.933 294.191 229.393V228.493L291.948 227.986V236.986Z" fill="#6C7991"/>
    <path d="M230.121 253.996L345.212 280.038V307.038V334.038L230.121 307.996V253.996Z" fill="white" stroke="#FFE000" stroke-width="2"/>
    <path d="M252.32 287.779L255.617 288.525V290.725C255.11 291.11 253.842 291.283 252.788 291.045C250.018 290.418 248.165 288.059 248.165 285.079C248.165 281.959 250.096 280.596 252.73 281.192C253.92 281.461 255.129 282.155 255.812 282.969L256.826 281.239C255.714 280.087 254.388 279.267 252.437 278.825C248.263 277.881 245.629 280.485 245.629 284.505C245.629 288.865 248.282 292.325 252.749 293.336C254.446 293.72 256.651 293.499 257.86 292.533V286.733L252.32 285.479V287.779ZM267.059 293.834C266.552 294.139 265.654 294.336 264.581 294.093C263.196 293.78 262.143 292.802 261.948 291.398L268.288 292.832C268.385 292.514 268.424 292.183 268.424 291.623C268.424 289.103 266.532 287.015 264.269 286.503C261.382 285.85 259.627 287.552 259.627 290.172C259.627 293.012 261.519 295.32 264.347 295.96C265.576 296.238 266.825 296.161 267.702 295.6L267.059 293.834ZM264.172 288.401C265.459 288.692 266.2 289.72 266.181 290.815L261.87 289.84C262.104 288.713 262.826 288.096 264.172 288.401ZM269.628 292.435C269.628 295.135 271.5 297.579 274.407 298.237C277.313 298.894 279.186 297.298 279.186 294.598C279.186 291.898 277.313 289.454 274.407 288.797C271.5 288.139 269.628 289.735 269.628 292.435ZM272.027 292.978C272.027 291.418 273.08 290.657 274.407 290.957C275.772 291.266 276.806 292.54 276.806 294.06C276.806 295.62 275.792 296.41 274.407 296.097C273.041 295.788 272.027 294.478 272.027 292.978ZM281.127 299.537L283.371 300.045V294.005C283.624 293.542 284.034 293.195 284.814 293.372C285.282 293.478 285.517 293.611 285.946 293.968L286.745 291.989C286.453 291.702 286.102 291.503 285.38 291.34C284.327 291.101 283.78 291.438 283.371 291.925V291.045L281.127 290.537V299.537ZM286.873 302.057C286.873 304.117 288.882 305.452 291.437 306.03C293.993 306.608 296.002 306.143 296.002 304.123C296.002 302.103 293.993 300.728 291.437 300.15L291.34 300.128C291.262 299.97 291.223 299.802 291.223 299.642C291.223 299.542 291.223 299.422 291.262 299.31L291.418 299.346C293.68 299.858 295.143 298.669 295.143 296.869C295.143 296.469 295.065 296.051 294.929 295.66L296.392 295.651L296.314 293.794L293.661 293.793C293.056 293.257 292.295 292.844 291.418 292.646C289.096 292.121 287.672 293.378 287.672 295.178C287.672 296.498 288.433 297.83 289.76 298.671C289.623 298.82 289.564 299.046 289.564 299.266C289.564 299.466 289.623 299.72 289.721 299.922C288.043 299.902 286.873 300.557 286.873 302.057ZM288.96 302.53C288.96 301.87 289.838 301.628 291.437 301.99C293.056 302.357 293.895 302.986 293.895 303.646C293.895 304.366 292.959 304.535 291.437 304.19C289.916 303.846 288.96 303.23 288.96 302.53ZM289.779 295.655C289.779 294.835 290.403 294.276 291.418 294.506C292.471 294.744 293.056 295.557 293.056 296.397C293.056 297.297 292.373 297.702 291.418 297.486C290.403 297.256 289.779 296.495 289.779 295.655ZM304.644 302.339C304.137 302.644 303.239 302.841 302.166 302.598C300.781 302.285 299.728 301.306 299.533 299.902L305.873 301.337C305.97 301.019 306.009 300.688 306.009 300.128C306.009 297.608 304.117 295.519 301.854 295.007C298.967 294.354 297.212 296.057 297.212 298.677C297.212 301.517 299.104 303.825 301.932 304.465C303.161 304.743 304.41 304.666 305.287 304.104L304.644 302.339ZM301.757 296.905C303.044 297.197 303.785 298.224 303.766 299.32L299.455 298.344C299.689 297.217 300.411 296.601 301.757 296.905Z" fill="#6C7991"/>
    <path d="M230.121 317.996L345.212 344.038V356.338V398.038L230.121 371.996V317.996Z" fill="white" stroke="#FFE000" stroke-width="2"/>
    <path d="M244.888 355.337L247.307 355.884L248.731 352.627L254.563 353.946L255.987 357.849L258.543 358.427L252.769 343.08L250.662 342.604L244.888 355.337ZM251.657 346.009L253.647 351.439L249.648 350.534L251.657 346.009ZM259.944 358.744L262.188 359.251V353.111C262.714 352.691 263.338 352.512 264.099 352.684C265.348 352.967 266.069 353.81 266.069 355.25V360.13L268.313 360.637V355.357C268.313 352.537 266.85 351.146 264.704 350.661C263.651 350.423 262.714 350.691 262.188 351.151V350.251L259.944 349.744V358.744ZM270.593 361.153L272.836 361.661V355.521C273.363 355.1 273.987 354.921 274.748 355.094C275.996 355.376 276.718 356.219 276.718 357.659V362.539L278.961 363.047V357.767C278.961 354.947 277.498 353.556 275.353 353.07C274.299 352.832 273.363 353.1 272.836 353.561V352.661L270.593 352.153V361.153Z" fill="#6C7991"/>
    <path d="M354.966 154.245L540.281 196.178V223.178V250.178L354.966 208.245V154.245Z" fill="#7833FF" stroke="#7833FF" stroke-width="2"/>
    <path d="M377.73 190.876C377.223 191.181 376.326 191.378 375.253 191.136C373.868 190.822 372.814 189.844 372.619 188.44L378.959 189.874C379.057 189.556 379.096 189.225 379.096 188.665C379.096 186.145 377.203 184.057 374.941 183.545C372.054 182.892 370.298 184.594 370.298 187.214C370.298 190.054 372.19 192.363 375.019 193.003C376.248 193.281 377.496 193.203 378.374 192.642L377.73 190.876ZM374.843 185.443C376.13 185.734 376.872 186.762 376.852 187.858L372.541 186.882C372.775 185.755 373.497 185.138 374.843 185.443ZM394.226 191.249C394.226 188.789 393.016 187.695 391.417 187.333C390.051 187.024 389.076 187.403 388.452 188.102C388.139 187.212 387.242 186.388 385.896 186.084C384.804 185.837 383.77 186.043 383.146 186.622V185.622L380.902 185.114V194.114L383.146 194.622V188.582C383.536 188.07 384.18 187.856 384.979 188.036C385.935 188.253 386.442 188.988 386.442 189.928V195.368L388.686 195.875V190.575C388.686 190.375 388.666 190.051 388.666 189.911C388.978 189.361 389.641 189.091 390.48 189.281C391.534 189.52 391.982 190.221 391.982 191.341V196.621L394.226 197.129V191.249ZM397.187 191.119C397.83 190.964 398.474 190.79 399.489 191.02C400.796 191.315 401.186 192.224 401.127 193.71C400.698 193.293 399.918 192.857 399.137 192.68C397.362 192.278 395.938 192.896 395.938 194.876C395.938 196.616 397.089 197.897 398.689 198.259C399.879 198.528 400.815 198.26 401.283 197.686V198.726L403.234 199.167V193.687C403.234 191.307 402.317 189.74 399.723 189.153C398.572 188.892 397.382 189.023 396.621 189.311L397.187 191.119ZM399.43 196.486C398.728 196.327 398.182 195.824 398.182 195.144C398.182 194.384 398.845 194.174 399.586 194.342C400.23 194.487 400.737 194.742 401.127 195.13V196.05C400.854 196.389 400.366 196.698 399.43 196.486ZM405.865 199.762L408.108 200.27V191.27L405.865 190.762V199.762ZM405.631 187.47C405.631 188.39 406.275 189.055 407.036 189.227C407.679 189.373 408.323 188.999 408.323 188.079C408.323 187.259 407.679 186.593 407.036 186.447C406.275 186.275 405.631 186.65 405.631 187.47ZM410.944 198.432C410.944 200.272 411.665 201.275 413.011 201.579C414.065 201.818 414.826 201.65 415.333 201.345L414.865 199.479C414.591 199.617 414.299 199.711 413.948 199.631C413.421 199.512 413.187 199.019 413.187 197.999V187.419L410.944 186.912V198.432Z" fill="white"/>
    <path d="M354.966 218.245L540.281 260.178V287.178V314.178L354.966 272.245V218.245Z" fill="white" stroke="#1EC1A1" stroke-width="2"/>
    <path d="M384.167 251.973C384.167 249.513 382.958 248.419 381.358 248.057C379.993 247.748 379.018 248.128 378.393 248.826C378.081 247.936 377.184 247.113 375.838 246.808C374.746 246.561 373.712 246.767 373.087 247.346V246.346L370.844 245.838V254.838L373.087 255.346V249.306C373.478 248.794 374.121 248.58 374.921 248.761C375.877 248.977 376.384 249.712 376.384 250.652V256.092L378.627 256.599V251.299C378.627 251.099 378.608 250.775 378.608 250.635C378.92 250.085 379.583 249.816 380.422 250.005C381.475 250.244 381.924 250.945 381.924 252.065V257.345L384.167 257.853V251.973ZM387.129 251.843C387.772 251.689 388.416 251.514 389.43 251.744C390.737 252.039 391.127 252.948 391.069 254.434C390.64 254.017 389.86 253.581 389.079 253.404C387.304 253.003 385.88 253.62 385.88 255.6C385.88 257.34 387.031 258.621 388.631 258.983C389.82 259.252 390.757 258.984 391.225 258.41V259.45L393.176 259.891V254.411C393.176 252.031 392.259 250.464 389.664 249.877C388.514 249.616 387.324 249.747 386.563 250.035L387.129 251.843ZM389.372 257.21C388.67 257.052 388.123 256.548 388.123 255.868C388.123 255.108 388.787 254.898 389.528 255.066C390.172 255.211 390.679 255.466 391.069 255.854V256.774C390.796 257.113 390.308 257.422 389.372 257.21ZM395.475 260.412L397.719 260.919V254.879C397.972 254.417 398.382 254.069 399.162 254.246C399.63 254.352 399.864 254.485 400.294 254.842L401.093 252.863C400.801 252.577 400.45 252.377 399.728 252.214C398.674 251.975 398.128 252.312 397.719 252.799V251.919L395.475 251.412V260.412ZM402.176 258.508C402.176 260.808 402.918 262.296 404.907 262.746C406.039 263.002 406.975 262.774 407.502 262.453L406.819 260.518C406.507 260.688 406.078 260.871 405.473 260.734C404.732 260.566 404.42 259.855 404.42 258.875V255.595L407.248 256.235V254.075L404.42 253.435V250.935L402.176 250.428V258.508ZM409.732 263.638L411.976 264.145V255.145L409.732 254.638V263.638ZM409.498 251.345C409.498 252.265 410.142 252.93 410.903 253.102C411.546 253.248 412.19 252.874 412.19 251.954C412.19 251.134 411.546 250.468 410.903 250.322C410.142 250.15 409.498 250.525 409.498 251.345ZM414.811 264.787L417.054 265.294V259.154C417.581 258.733 418.205 258.555 418.966 258.727C420.214 259.009 420.936 259.853 420.936 261.293V266.173L423.179 266.68V261.4C423.179 258.58 421.716 257.189 419.57 256.704C418.517 256.465 417.581 256.733 417.054 257.194V256.294L414.811 255.787V264.787ZM435.896 269.558L438.139 270.065C441.026 270.619 442.508 268.314 442.508 265.594C442.508 260.854 438.88 256.933 434.121 255.856C429.068 254.713 425.323 257.745 425.323 262.665C425.323 267.785 429.068 272.333 434.121 273.476C434.881 273.648 435.623 273.716 436.325 273.715L436.227 271.553C435.564 271.563 434.862 271.484 434.121 271.316C430.434 270.482 427.43 267.042 427.43 263.142C427.43 259.002 430.453 257.166 434.121 257.996C438.022 258.879 440.421 262.022 440.421 265.122C440.421 267.162 439.602 268.256 438.529 268.014L438.139 267.925V261.925C437.203 261.113 435.701 260.294 434.199 259.954C431.234 259.283 429.166 260.915 429.166 263.535C429.166 266.355 430.843 268.635 433.477 269.23C434.452 269.451 435.31 269.265 435.896 268.838V269.558ZM433.886 267.183C432.521 266.874 431.565 265.758 431.565 264.178C431.565 262.758 432.462 261.721 434.179 262.109C434.803 262.251 435.369 262.559 435.896 262.938V266.698C435.447 267.096 434.686 267.364 433.886 267.183ZM443.739 272.553C443.739 274.613 445.748 275.947 448.304 276.525C450.859 277.104 452.868 276.638 452.868 274.618C452.868 272.598 450.859 271.224 448.304 270.645L448.206 270.623C448.128 270.466 448.089 270.297 448.089 270.137C448.089 270.037 448.089 269.917 448.128 269.806L448.284 269.841C450.547 270.353 452.01 269.164 452.01 267.364C452.01 266.964 451.932 266.546 451.796 266.156L453.259 266.147L453.181 264.289L450.528 264.289C449.923 263.752 449.162 263.34 448.284 263.141C445.963 262.616 444.539 263.874 444.539 265.674C444.539 266.994 445.3 268.326 446.626 269.166C446.49 269.315 446.431 269.542 446.431 269.762C446.431 269.962 446.49 270.215 446.587 270.417C444.91 270.397 443.739 271.053 443.739 272.553ZM445.826 273.025C445.826 272.365 446.704 272.123 448.304 272.485C449.923 272.852 450.762 273.482 450.762 274.142C450.762 274.862 449.825 275.03 448.304 274.685C446.782 274.341 445.826 273.725 445.826 273.025ZM446.646 266.15C446.646 265.33 447.27 264.771 448.284 265.001C449.338 265.239 449.923 266.052 449.923 266.892C449.923 267.792 449.24 268.197 448.284 267.981C447.27 267.751 446.646 266.99 446.646 266.15ZM467.948 270.93C467.948 268.47 466.738 267.377 465.139 267.015C463.773 266.706 462.798 267.085 462.174 267.784C461.862 266.893 460.964 266.07 459.618 265.766C458.526 265.518 457.492 265.725 456.868 266.303V265.303L454.625 264.796V273.796L456.868 274.303V268.263C457.258 267.752 457.902 267.537 458.701 267.718C459.657 267.934 460.164 268.669 460.164 269.609V275.049L462.408 275.557V270.257C462.408 270.057 462.388 269.732 462.388 269.592C462.7 269.043 463.364 268.773 464.202 268.963C465.256 269.201 465.704 269.903 465.704 271.023V276.303L467.948 276.81V270.93ZM470.909 270.8C471.553 270.646 472.196 270.472 473.211 270.701C474.518 270.997 474.908 271.905 474.849 273.392C474.42 272.975 473.64 272.538 472.86 272.362C471.084 271.96 469.66 272.578 469.66 274.558C469.66 276.298 470.811 277.578 472.411 277.94C473.601 278.21 474.537 277.941 475.005 277.367V278.407L476.956 278.849V273.369C476.956 270.989 476.039 269.421 473.445 268.834C472.294 268.574 471.104 268.705 470.343 268.992L470.909 270.8ZM473.152 276.168C472.45 276.009 471.904 275.506 471.904 274.826C471.904 274.066 472.567 273.856 473.308 274.023C473.952 274.169 474.459 274.424 474.849 274.812V275.732C474.576 276.07 474.089 276.38 473.152 276.168ZM479.587 279.444L481.831 279.952V270.952L479.587 270.444V279.444ZM479.353 267.151C479.353 268.071 479.997 268.737 480.758 268.909C481.401 269.055 482.045 268.68 482.045 267.76C482.045 266.94 481.401 266.275 480.758 266.129C479.997 265.957 479.353 266.331 479.353 267.151ZM484.666 278.113C484.666 279.953 485.388 280.957 486.734 281.261C487.787 281.5 488.548 281.332 489.055 281.026L488.587 279.161C488.314 279.299 488.021 279.393 487.67 279.313C487.143 279.194 486.909 278.701 486.909 277.681V267.101L484.666 266.593V278.113ZM490.124 280.328C490.124 281.148 490.71 282.061 491.685 282.282C492.524 282.471 493.109 281.824 493.109 281.004C493.109 280.304 492.524 279.391 491.685 279.202C490.71 278.981 490.124 279.628 490.124 280.328ZM501.89 281.471C501.325 281.983 500.583 282.275 499.627 282.059C498.301 281.759 497.092 280.505 497.092 278.905C497.092 277.325 498.281 276.614 499.53 276.897C500.33 277.078 501.051 277.461 501.715 278.271L502.768 276.689C501.949 275.664 500.681 274.997 499.237 274.67C496.565 274.066 494.692 275.742 494.692 278.362C494.692 281.202 496.604 283.515 499.452 284.159C500.876 284.481 502.202 284.241 502.944 283.389L501.89 281.471ZM503.722 280.405C503.722 283.105 505.594 285.549 508.501 286.207C511.407 286.864 513.28 285.268 513.28 282.568C513.28 279.868 511.407 277.424 508.501 276.767C505.594 276.109 503.722 277.705 503.722 280.405ZM506.121 280.948C506.121 279.388 507.174 278.626 508.501 278.927C509.866 279.236 510.9 280.51 510.9 282.03C510.9 283.59 509.886 284.38 508.501 284.067C507.135 283.758 506.121 282.448 506.121 280.948ZM528.545 284.642C528.545 282.182 527.335 281.088 525.736 280.726C524.37 280.417 523.395 280.797 522.771 281.496C522.459 280.605 521.561 279.782 520.215 279.477C519.123 279.23 518.089 279.436 517.465 280.015V279.015L515.221 278.507V287.507L517.465 288.015V281.975C517.855 281.463 518.499 281.249 519.298 281.43C520.254 281.646 520.761 282.381 520.761 283.321V288.761L523.005 289.269V283.969C523.005 283.769 522.985 283.444 522.985 283.304C523.297 282.755 523.961 282.485 524.799 282.675C525.853 282.913 526.301 283.614 526.301 284.734V290.014L528.545 290.522V284.642Z" fill="#6C7991"/>
    <path d="M354.966 282.245L540.281 324.178V351.178V378.178L354.966 336.245V282.245Z" fill="white" stroke="#1EC1A1" stroke-width="2"/>
    <path d="M369.693 320.798C369.693 322.858 371.702 324.192 374.258 324.771C376.813 325.349 378.822 324.883 378.822 322.863C378.822 320.843 376.813 319.469 374.258 318.891L374.16 318.868C374.082 318.711 374.043 318.542 374.043 318.382C374.043 318.282 374.043 318.162 374.082 318.051L374.238 318.086C376.501 318.598 377.964 317.409 377.964 315.609C377.964 315.209 377.886 314.792 377.75 314.401L379.213 314.392L379.135 312.534L376.482 312.534C375.877 311.997 375.116 311.585 374.238 311.386C371.917 310.861 370.493 312.119 370.493 313.919C370.493 315.239 371.254 316.571 372.58 317.411C372.444 317.56 372.385 317.787 372.385 318.007C372.385 318.207 372.444 318.46 372.541 318.662C370.864 318.642 369.693 319.298 369.693 320.798ZM371.78 321.27C371.78 320.61 372.658 320.369 374.258 320.731C375.877 321.097 376.716 321.727 376.716 322.387C376.716 323.107 375.779 323.275 374.258 322.931C372.736 322.586 371.78 321.97 371.78 321.27ZM372.6 314.395C372.6 313.575 373.224 313.017 374.238 313.246C375.292 313.484 375.877 314.297 375.877 315.137C375.877 316.037 375.194 316.442 374.238 316.226C373.224 315.997 372.6 315.235 372.6 314.395ZM387.464 321.079C386.957 321.384 386.06 321.581 384.987 321.338C383.602 321.025 382.549 320.047 382.354 318.642L388.693 320.077C388.791 319.759 388.83 319.428 388.83 318.868C388.83 316.348 386.938 314.26 384.675 313.748C381.788 313.094 380.032 314.797 380.032 317.417C380.032 320.257 381.924 322.565 384.753 323.205C385.982 323.483 387.23 323.406 388.108 322.845L387.464 321.079ZM384.577 315.646C385.865 315.937 386.606 316.965 386.587 318.06L382.276 317.085C382.51 315.958 383.231 315.341 384.577 315.646ZM390.033 319.68C390.033 322.38 391.906 324.824 394.813 325.482C397.719 326.139 399.592 324.543 399.592 321.843C399.592 319.143 397.719 316.699 394.813 316.042C391.906 315.384 390.033 316.98 390.033 319.68ZM392.433 320.223C392.433 318.663 393.486 317.901 394.813 318.202C396.178 318.511 397.212 319.785 397.212 321.305C397.212 322.865 396.198 323.655 394.813 323.342C393.447 323.033 392.433 321.723 392.433 320.223ZM401.533 326.782L403.776 327.29V321.25C404.03 320.787 404.44 320.44 405.22 320.617C405.688 320.722 405.922 320.855 406.351 321.213L407.151 319.234C406.859 318.947 406.507 318.748 405.786 318.585C404.732 318.346 404.186 318.683 403.776 319.17V318.29L401.533 317.782V326.782ZM407.278 329.302C407.278 331.362 409.287 332.697 411.843 333.275C414.398 333.853 416.407 333.388 416.407 331.368C416.407 329.348 414.398 327.973 411.843 327.395L411.745 327.373C411.667 327.215 411.628 327.047 411.628 326.887C411.628 326.787 411.628 326.667 411.667 326.555L411.823 326.591C414.086 327.103 415.549 325.914 415.549 324.114C415.549 323.714 415.471 323.296 415.335 322.905L416.798 322.896L416.72 321.039L414.067 321.038C413.462 320.501 412.701 320.089 411.823 319.891C409.502 319.365 408.078 320.623 408.078 322.423C408.078 323.743 408.839 325.075 410.165 325.916C410.029 326.065 409.97 326.291 409.97 326.511C409.97 326.711 410.029 326.965 410.126 327.167C408.449 327.147 407.278 327.802 407.278 329.302ZM409.365 329.775C409.365 329.115 410.243 328.873 411.843 329.235C413.462 329.601 414.301 330.231 414.301 330.891C414.301 331.611 413.364 331.779 411.843 331.435C410.321 331.091 409.365 330.475 409.365 329.775ZM410.185 322.9C410.185 322.08 410.809 321.521 411.823 321.751C412.877 321.989 413.462 322.801 413.462 323.641C413.462 324.541 412.779 324.947 411.823 324.731C410.809 324.501 410.185 323.74 410.185 322.9ZM425.049 329.583C424.542 329.889 423.645 330.086 422.572 329.843C421.187 329.53 420.134 328.551 419.939 327.147L426.278 328.582C426.376 328.264 426.415 327.932 426.415 327.372C426.415 324.852 424.523 322.764 422.26 322.252C419.373 321.599 417.617 323.302 417.617 325.922C417.617 328.762 419.509 331.07 422.338 331.71C423.567 331.988 424.815 331.911 425.693 331.349L425.049 329.583ZM422.162 324.15C423.45 324.442 424.191 325.469 424.172 326.565L419.861 325.589C420.095 324.462 420.816 323.846 422.162 324.15ZM438.658 335.183L440.901 335.69C443.788 336.244 445.271 333.939 445.271 331.219C445.271 326.479 441.642 322.558 436.883 321.481C431.83 320.338 428.085 323.37 428.085 328.29C428.085 333.41 431.83 337.958 436.883 339.101C437.644 339.273 438.385 339.341 439.087 339.34L438.989 337.178C438.326 337.188 437.624 337.109 436.883 336.941C433.196 336.107 430.192 332.667 430.192 328.767C430.192 324.627 433.215 322.791 436.883 323.621C440.784 324.504 443.183 327.647 443.183 330.747C443.183 332.787 442.364 333.881 441.291 333.639L440.901 333.55V327.55C439.965 326.738 438.463 325.919 436.961 325.579C433.996 324.908 431.928 326.54 431.928 329.16C431.928 331.98 433.606 334.26 436.239 334.855C437.214 335.076 438.073 334.89 438.658 334.463V335.183ZM436.649 332.808C435.283 332.499 434.327 331.383 434.327 329.803C434.327 328.383 435.225 327.346 436.941 327.734C437.565 327.876 438.131 328.184 438.658 328.563V332.323C438.209 332.721 437.448 332.989 436.649 332.808ZM446.501 338.178C446.501 340.238 448.511 341.572 451.066 342.15C453.621 342.729 455.631 342.263 455.631 340.243C455.631 338.223 453.621 336.849 451.066 336.27L450.969 336.248C450.89 336.091 450.851 335.922 450.851 335.762C450.851 335.662 450.851 335.542 450.89 335.431L451.047 335.466C453.309 335.978 454.772 334.789 454.772 332.989C454.772 332.589 454.694 332.171 454.558 331.781L456.021 331.772L455.943 329.914L453.29 329.914C452.685 329.377 451.924 328.965 451.047 328.766C448.725 328.241 447.301 329.499 447.301 331.299C447.301 332.619 448.062 333.951 449.388 334.791C449.252 334.94 449.193 335.167 449.193 335.387C449.193 335.587 449.252 335.84 449.349 336.042C447.672 336.022 446.501 336.678 446.501 338.178ZM448.589 338.65C448.589 337.99 449.466 337.749 451.066 338.11C452.685 338.477 453.524 339.107 453.524 339.767C453.524 340.487 452.588 340.655 451.066 340.31C449.545 339.966 448.589 339.35 448.589 338.65ZM449.408 331.775C449.408 330.955 450.032 330.397 451.047 330.626C452.1 330.864 452.685 331.677 452.685 332.517C452.685 333.417 452.002 333.822 451.047 333.606C450.032 333.377 449.408 332.615 449.408 331.775ZM470.71 336.555C470.71 334.095 469.5 333.002 467.901 332.64C466.535 332.331 465.56 332.71 464.936 333.409C464.624 332.518 463.726 331.695 462.38 331.391C461.288 331.143 460.254 331.35 459.63 331.928V330.928L457.387 330.421V339.421L459.63 339.928V333.888C460.02 333.377 460.664 333.162 461.464 333.343C462.419 333.559 462.927 334.294 462.927 335.234V340.674L465.17 341.182V335.882C465.17 335.682 465.15 335.357 465.15 335.217C465.463 334.668 466.126 334.398 466.965 334.588C468.018 334.826 468.467 335.528 468.467 336.648V341.928L470.71 342.435V336.555ZM473.671 336.425C474.315 336.271 474.959 336.097 475.973 336.326C477.28 336.622 477.67 337.53 477.612 339.017C477.182 338.6 476.402 338.163 475.622 337.987C473.847 337.585 472.423 338.203 472.423 340.183C472.423 341.923 473.574 343.203 475.173 343.565C476.363 343.835 477.299 343.566 477.768 342.992V344.032L479.718 344.474V338.994C479.718 336.614 478.801 335.046 476.207 334.459C475.056 334.199 473.866 334.33 473.105 334.617L473.671 336.425ZM475.914 341.793C475.212 341.634 474.666 341.131 474.666 340.451C474.666 339.691 475.329 339.481 476.07 339.648C476.714 339.794 477.221 340.049 477.612 340.437V341.357C477.338 341.695 476.851 342.005 475.914 341.793ZM482.35 345.069L484.593 345.577V336.577L482.35 336.069V345.069ZM482.115 332.776C482.115 333.696 482.759 334.362 483.52 334.534C484.164 334.68 484.807 334.305 484.807 333.385C484.807 332.565 484.164 331.9 483.52 331.754C482.759 331.582 482.115 331.956 482.115 332.776ZM487.428 343.738C487.428 345.578 488.15 346.582 489.496 346.886C490.549 347.125 491.31 346.957 491.817 346.651L491.349 344.786C491.076 344.924 490.783 345.018 490.432 344.938C489.905 344.819 489.671 344.326 489.671 343.306V332.726L487.428 332.218V343.738ZM492.887 345.953C492.887 346.773 493.472 347.686 494.447 347.907C495.286 348.096 495.871 347.449 495.871 346.629C495.871 345.929 495.286 345.016 494.447 344.827C493.472 344.606 492.887 345.253 492.887 345.953ZM504.652 347.096C504.087 347.608 503.345 347.9 502.39 347.684C501.063 347.384 499.854 346.13 499.854 344.53C499.854 342.95 501.044 342.239 502.292 342.522C503.092 342.703 503.814 343.086 504.477 343.896L505.53 342.314C504.711 341.289 503.443 340.622 501.999 340.296C499.327 339.691 497.454 341.367 497.454 343.987C497.454 346.827 499.366 349.14 502.214 349.784C503.638 350.106 504.965 349.866 505.706 349.014L504.652 347.096ZM506.484 346.03C506.484 348.73 508.357 351.174 511.263 351.832C514.17 352.489 516.042 350.893 516.042 348.193C516.042 345.493 514.17 343.049 511.263 342.392C508.357 341.734 506.484 343.33 506.484 346.03ZM508.883 346.573C508.883 345.013 509.937 344.252 511.263 344.552C512.629 344.861 513.662 346.135 513.662 347.655C513.662 349.215 512.648 350.005 511.263 349.692C509.898 349.383 508.883 348.073 508.883 346.573ZM531.307 350.267C531.307 347.807 530.097 346.713 528.498 346.351C527.132 346.043 526.157 346.422 525.533 347.121C525.221 346.23 524.323 345.407 522.977 345.102C521.885 344.855 520.851 345.061 520.227 345.64V344.64L517.984 344.132V353.132L520.227 353.64V347.6C520.617 347.088 521.261 346.874 522.061 347.055C523.016 347.271 523.524 348.006 523.524 348.946V354.386L525.767 354.894V349.594C525.767 349.394 525.747 349.069 525.747 348.929C526.06 348.38 526.723 348.11 527.562 348.3C528.615 348.538 529.064 349.239 529.064 350.359V355.639L531.307 356.147V350.267Z" fill="#6C7991"/>
    <path d="M354.966 346.245L540.281 388.177V400.477V442.177L354.966 400.245V346.245Z" fill="white" stroke="#1EC1A1" stroke-width="2"/>
    <path d="M371.527 377.312C372.171 377.158 372.814 376.984 373.829 377.213C375.136 377.509 375.526 378.417 375.467 379.904C375.038 379.487 374.258 379.05 373.478 378.874C371.702 378.472 370.278 379.09 370.278 381.07C370.278 382.81 371.429 384.09 373.029 384.452C374.219 384.721 375.155 384.453 375.623 383.879V384.919L377.574 385.361V379.881C377.574 377.501 376.657 375.933 374.063 375.346C372.912 375.086 371.722 375.216 370.961 375.504L371.527 377.312ZM373.77 382.68C373.068 382.521 372.522 382.017 372.522 381.337C372.522 380.577 373.185 380.368 373.926 380.535C374.57 380.681 375.077 380.936 375.467 381.324V382.244C375.194 382.582 374.706 382.892 373.77 382.68ZM379.874 385.881L382.117 386.389V380.249C382.644 379.828 383.268 379.649 384.029 379.821C385.277 380.104 385.999 380.947 385.999 382.387V387.267L388.242 387.775V382.495C388.242 379.675 386.779 378.284 384.633 377.798C383.58 377.56 382.644 377.828 382.117 378.289V377.389L379.874 376.881V385.881ZM390.522 388.291L392.766 388.798V382.658C393.292 382.237 393.917 382.059 394.677 382.231C395.926 382.513 396.648 383.357 396.648 384.797V389.677L398.891 390.184V384.904C398.891 382.084 397.428 380.693 395.282 380.208C394.229 379.969 393.292 380.237 392.766 380.698V379.798L390.522 379.291V388.291ZM411.607 393.062L413.851 393.569C416.738 394.122 418.22 391.818 418.22 389.098C418.22 384.358 414.592 380.437 409.832 379.36C404.78 378.217 401.035 381.249 401.035 386.169C401.035 391.289 404.78 395.837 409.832 396.98C410.593 397.152 411.334 397.22 412.037 397.219L411.939 395.057C411.276 395.067 410.573 394.988 409.832 394.82C406.145 393.986 403.141 390.546 403.141 386.646C403.141 382.506 406.165 380.67 409.832 381.5C413.734 382.383 416.133 385.526 416.133 388.626C416.133 390.666 415.314 391.76 414.241 391.517L413.851 391.429V385.429C412.914 384.617 411.412 383.797 409.91 383.458C406.945 382.787 404.877 384.419 404.877 387.039C404.877 389.859 406.555 392.138 409.189 392.734C410.164 392.955 411.022 392.769 411.607 392.342V393.062ZM409.598 390.687C408.233 390.378 407.277 389.262 407.277 387.682C407.277 386.262 408.174 385.225 409.891 385.613C410.515 385.754 411.081 386.062 411.607 386.442V390.202C411.159 390.6 410.398 390.868 409.598 390.687ZM419.451 396.056C419.451 398.116 421.46 399.451 424.016 400.029C426.571 400.608 428.58 400.142 428.58 398.122C428.58 396.102 426.571 394.728 424.016 394.149L423.918 394.127C423.84 393.97 423.801 393.801 423.801 393.641C423.801 393.541 423.801 393.421 423.84 393.31L423.996 393.345C426.259 393.857 427.722 392.668 427.722 390.868C427.722 390.468 427.644 390.05 427.507 389.659L428.97 389.65L428.892 387.793L426.239 387.792C425.635 387.256 424.874 386.844 423.996 386.645C421.675 386.12 420.251 387.377 420.251 389.177C420.251 390.497 421.011 391.83 422.338 392.67C422.201 392.819 422.143 393.046 422.143 393.266C422.143 393.466 422.201 393.719 422.299 393.921C420.621 393.901 419.451 394.556 419.451 396.056ZM421.538 396.529C421.538 395.869 422.416 395.627 424.016 395.989C425.635 396.356 426.473 396.985 426.473 397.645C426.473 398.365 425.537 398.534 424.016 398.189C422.494 397.845 421.538 397.229 421.538 396.529ZM422.357 389.654C422.357 388.834 422.982 388.275 423.996 388.505C425.049 388.743 425.635 389.556 425.635 390.396C425.635 391.296 424.952 391.701 423.996 391.485C422.982 391.255 422.357 390.494 422.357 389.654ZM443.659 394.434C443.659 391.974 442.45 390.881 440.85 390.519C439.485 390.21 438.51 390.589 437.885 391.288C437.573 390.397 436.676 389.574 435.33 389.269C434.238 389.022 433.204 389.228 432.579 389.807V388.807L430.336 388.3V397.3L432.579 397.807V391.767C432.97 391.255 433.613 391.041 434.413 391.222C435.369 391.438 435.876 392.173 435.876 393.113V398.553L438.119 399.061V393.761C438.119 393.561 438.1 393.236 438.1 393.096C438.412 392.547 439.075 392.277 439.914 392.467C440.967 392.705 441.416 393.407 441.416 394.527V399.807L443.659 400.314V394.434ZM446.621 394.304C447.264 394.15 447.908 393.976 448.922 394.205C450.229 394.501 450.62 395.409 450.561 396.896C450.132 396.479 449.352 396.042 448.571 395.866C446.796 395.464 445.372 396.082 445.372 398.062C445.372 399.802 446.523 401.082 448.123 401.444C449.313 401.713 450.249 401.445 450.717 400.871V401.911L452.668 402.353V396.873C452.668 394.493 451.751 392.925 449.157 392.338C448.006 392.078 446.816 392.208 446.055 392.496L446.621 394.304ZM448.864 399.672C448.162 399.513 447.615 399.009 447.615 398.329C447.615 397.569 448.279 397.359 449.02 397.527C449.664 397.673 450.171 397.928 450.561 398.316V399.236C450.288 399.574 449.8 399.884 448.864 399.672ZM455.299 402.948L457.542 403.456V394.456L455.299 393.948V402.948ZM455.065 390.655C455.065 391.575 455.709 392.241 456.469 392.413C457.113 392.559 457.757 392.184 457.757 391.264C457.757 390.444 457.113 389.779 456.469 389.633C455.709 389.461 455.065 389.835 455.065 390.655ZM460.378 401.617C460.378 403.457 461.099 404.46 462.445 404.765C463.499 405.003 464.259 404.836 464.767 404.53L464.298 402.664C464.025 402.803 463.733 402.896 463.382 402.817C462.855 402.698 462.621 402.205 462.621 401.185V390.605L460.378 390.097V401.617ZM465.836 403.832C465.836 404.652 466.421 405.565 467.397 405.785C468.235 405.975 468.821 405.328 468.821 404.508C468.821 403.808 468.235 402.895 467.397 402.705C466.421 402.485 465.836 403.132 465.836 403.832ZM477.602 404.975C477.036 405.487 476.295 405.779 475.339 405.563C474.013 405.262 472.803 404.009 472.803 402.409C472.803 400.829 473.993 400.118 475.242 400.401C476.041 400.582 476.763 400.965 477.426 401.775L478.48 400.193C477.66 399.168 476.392 398.501 474.949 398.174C472.277 397.57 470.404 399.246 470.404 401.866C470.404 404.706 472.316 407.018 475.164 407.663C476.588 407.985 477.914 407.745 478.655 406.893L477.602 404.975ZM479.433 403.909C479.433 406.609 481.306 409.053 484.213 409.711C487.119 410.368 488.992 408.772 488.992 406.072C488.992 403.372 487.119 400.928 484.213 400.271C481.306 399.613 479.433 401.209 479.433 403.909ZM481.833 404.452C481.833 402.892 482.886 402.13 484.213 402.431C485.578 402.739 486.612 404.013 486.612 405.533C486.612 407.093 485.598 407.884 484.213 407.571C482.847 407.262 481.833 405.952 481.833 404.452ZM504.256 408.146C504.256 405.686 503.047 404.592 501.447 404.23C500.082 403.921 499.107 404.301 498.482 404.999C498.17 404.109 497.273 403.286 495.927 402.981C494.835 402.734 493.801 402.94 493.176 403.519V402.519L490.933 402.011V411.011L493.176 411.519V405.479C493.567 404.967 494.21 404.753 495.01 404.934C495.966 405.15 496.473 405.885 496.473 406.825V412.265L498.716 412.772V407.472C498.716 407.272 498.697 406.948 498.697 406.808C499.009 406.259 499.672 405.989 500.511 406.178C501.564 406.417 502.013 407.118 502.013 408.238V413.518L504.256 414.026V408.146Z" fill="#6C7991"/>
    <path d="M98.0712 22.0671L99.5225 22.3955L100.377 20.4409L103.876 21.2327L104.731 23.574L106.264 23.921L102.8 14.7131L101.536 14.427L98.0712 22.0671ZM102.133 16.4701L103.326 19.7282L100.927 19.1853L102.133 16.4701ZM111.278 23.2436C110.939 23.5508 110.494 23.7262 109.921 23.5964C109.125 23.4163 108.399 22.6641 108.399 21.7041C108.399 20.7561 109.113 20.3297 109.862 20.4992C110.342 20.6078 110.775 20.8377 111.173 21.3238L111.805 20.3748C111.314 19.7596 110.553 19.3594 109.687 19.1634C108.083 18.8006 106.96 19.8064 106.96 21.3784C106.96 23.0824 108.107 24.4699 109.815 24.8566C110.67 25.0499 111.466 24.906 111.91 24.3946L111.278 23.2436ZM113.342 23.4705C113.342 24.8505 113.787 25.7432 114.981 26.0133C115.659 26.1669 116.221 26.03 116.537 25.8375L116.128 24.6769C115.94 24.7785 115.683 24.8882 115.32 24.8061C114.875 24.7055 114.688 24.2791 114.688 23.6911V21.7231L116.385 22.1071V20.8111L114.688 20.4271V18.9271L113.342 18.6225V23.4705ZM118.344 26.6543L119.69 26.9589V21.5589L118.344 21.2543V26.6543ZM118.203 19.2785C118.203 19.8305 118.589 20.2299 119.046 20.3332C119.432 20.4206 119.818 20.196 119.818 19.644C119.818 19.152 119.432 18.7526 119.046 18.6652C118.589 18.5619 118.203 18.7865 118.203 19.2785ZM126.763 23.1594L125.347 22.839L124.434 24.9244C124.293 25.2406 124.141 25.6982 124.048 26.085C123.954 25.6438 123.79 25.1267 123.65 24.7709L122.678 22.2351L121.075 21.8723L123.498 27.8445L124.492 28.0696L126.763 23.1594ZM131.888 28.207C131.584 28.3902 131.045 28.5084 130.401 28.3627C129.57 28.1747 128.938 27.5877 128.821 26.7452L132.625 27.6059C132.684 27.4151 132.707 27.2164 132.707 26.8804C132.707 25.3684 131.572 24.1155 130.214 23.8083C128.482 23.4164 127.429 24.438 127.429 26.01C127.429 27.714 128.564 29.0989 130.261 29.4829C130.998 29.6498 131.747 29.6033 132.274 29.2664L131.888 28.207ZM130.156 24.9471C130.928 25.1219 131.373 25.7385 131.361 26.3959L128.775 25.8106C128.915 25.1344 129.348 24.7644 130.156 24.9471ZM136.085 30.6688V27.5248L137.092 27.7526L139.351 31.4077L141.095 31.8023L138.531 27.7903C139.21 27.7039 140.111 27.1879 140.111 25.7479C140.111 24.2959 139.374 22.989 137.139 22.4832C136.905 22.4302 135.102 22.0464 134.646 21.9431V30.3431L136.085 30.6688ZM137.068 23.8473C138.239 24.1121 138.59 24.7556 138.59 25.4156C138.59 26.2796 137.853 26.5447 137.022 26.3567L136.085 26.1448V23.6488C136.471 23.7242 136.799 23.7864 137.068 23.8473ZM146.083 31.419C145.778 31.6022 145.24 31.7203 144.596 31.5747C143.765 31.3866 143.133 30.7996 143.016 29.9571L146.82 30.8179C146.879 30.6271 146.902 30.4284 146.902 30.0924C146.902 28.5804 145.767 27.3275 144.409 27.0203C142.677 26.6283 141.623 27.65 141.623 29.222C141.623 30.926 142.759 32.3109 144.456 32.6949C145.193 32.8617 145.942 32.8152 146.469 32.4784L146.083 31.419ZM144.351 28.1591C145.123 28.3339 145.568 28.9505 145.556 29.6078L142.969 29.0226C143.11 28.3463 143.543 27.9763 144.351 28.1591ZM152.411 32.551C152.072 32.8582 151.627 33.0335 151.053 32.9038C150.258 32.7237 149.532 31.9715 149.532 31.0115C149.532 30.0635 150.246 29.637 150.995 29.8065C151.475 29.9151 151.908 30.1451 152.306 30.6311L152.938 29.6822C152.446 29.0669 151.685 28.6668 150.819 28.4708C149.216 28.108 148.092 29.1137 148.092 30.6857C148.092 32.3897 149.239 33.7773 150.948 34.1639C151.802 34.3573 152.598 34.2134 153.043 33.702L152.411 32.551ZM153.978 32.0176C153.978 33.6376 155.102 35.1038 156.846 35.4984C158.59 35.893 159.713 34.9353 159.713 33.3153C159.713 31.6953 158.59 30.229 156.846 29.8344C155.102 29.4398 153.978 30.3976 153.978 32.0176ZM155.418 32.3433C155.418 31.4073 156.05 30.9503 156.846 31.1304C157.665 31.3158 158.285 32.0802 158.285 32.9922C158.285 33.9282 157.677 34.4025 156.846 34.2144C156.026 34.029 155.418 33.2433 155.418 32.3433ZM161.346 36.3848L162.692 36.6893V33.0653C162.844 32.7878 163.09 32.5794 163.558 32.6853C163.839 32.7489 163.98 32.8287 164.237 33.0429L164.717 31.8555C164.541 31.6838 164.331 31.5641 163.898 31.4661C163.266 31.3231 162.938 31.525 162.692 31.8173V31.2893L161.346 30.9848V36.3848ZM169.615 38.2559L170.961 38.5605V30.1605L169.615 29.8559V32.9879C169.323 32.7417 168.983 32.5809 168.515 32.475C166.818 32.0909 165.624 33.0088 165.624 34.7128C165.624 36.3568 166.596 37.6686 168.105 38.0103C168.784 38.1639 169.264 37.9964 169.615 37.6919V38.2559ZM168.386 36.7898C167.672 36.6283 167.064 35.9506 167.064 34.9906C167.064 33.9946 167.778 33.6041 168.574 33.7842C168.936 33.8663 169.276 34.0511 169.615 34.3439V36.5159C169.311 36.759 168.878 36.9011 168.386 36.7898Z" fill="#10162F"/>
    <path d="M230.281 113.032L230.445 113.069C231.194 113.239 232.107 113.469 232.599 113.58C235.724 114.287 237.292 112.698 237.292 110.334C237.292 108.114 235.969 105.883 232.692 105.142C232.095 105.006 230.925 104.778 230.433 104.666L230.281 104.632V113.032ZM232.669 106.516C234.624 106.959 235.771 108.298 235.771 109.99C235.771 111.766 234.624 112.659 232.646 112.211C232.447 112.166 232.119 112.092 231.721 111.978V106.338C232.049 106.388 232.33 106.439 232.669 106.516ZM239.448 111.098C239.834 111.006 240.221 110.901 240.829 111.039C241.613 111.216 241.847 111.761 241.812 112.653C241.555 112.403 241.087 112.141 240.618 112.035C239.553 111.794 238.699 112.165 238.699 113.353C238.699 114.397 239.39 115.165 240.349 115.382C241.063 115.544 241.625 115.383 241.906 115.038V115.662L243.076 115.927V112.639C243.076 111.211 242.526 110.271 240.97 109.918C240.279 109.762 239.565 109.841 239.109 110.013L239.448 111.098ZM240.794 114.319C240.373 114.223 240.045 113.921 240.045 113.513C240.045 113.057 240.443 112.931 240.888 113.032C241.274 113.119 241.578 113.272 241.812 113.505V114.057C241.648 114.26 241.356 114.446 240.794 114.319ZM244.807 114.267C244.807 115.647 245.252 116.539 246.446 116.81C247.125 116.963 247.686 116.826 248.003 116.634L247.593 115.473C247.406 115.575 247.148 115.685 246.785 115.602C246.341 115.502 246.153 115.075 246.153 114.487V112.519L247.85 112.903V111.607L246.153 111.223V109.723L244.807 109.419V114.267ZM250.02 113.49C250.406 113.398 250.792 113.293 251.401 113.431C252.185 113.608 252.419 114.153 252.384 115.045C252.126 114.795 251.658 114.533 251.19 114.427C250.125 114.186 249.271 114.557 249.271 115.745C249.271 116.789 249.961 117.557 250.921 117.774C251.635 117.936 252.197 117.775 252.478 117.43V118.054L253.648 118.319V115.031C253.648 113.603 253.098 112.663 251.541 112.311C250.851 112.154 250.137 112.233 249.68 112.406L250.02 113.49ZM251.366 116.711C250.944 116.616 250.617 116.313 250.617 115.905C250.617 115.449 251.015 115.323 251.459 115.424C251.846 115.511 252.15 115.664 252.384 115.897V116.449C252.22 116.652 251.927 116.838 251.366 116.711ZM258.831 119.48C259.31 119.625 260.364 119.887 261.113 120.056C262.845 120.448 264.156 119.953 264.156 118.225C264.156 117.109 263.524 116.33 262.716 115.943V115.919C263.419 115.742 263.887 115.236 263.887 114.276C263.887 113.112 263.149 112.033 261.195 111.591C260.376 111.406 259.287 111.195 258.831 111.116V119.48ZM261.288 116.436C262.19 116.64 262.716 117.119 262.716 117.827C262.716 118.619 262.19 118.92 261.218 118.7C260.809 118.608 260.469 118.495 260.27 118.426V116.206L261.288 116.436ZM261.171 112.966C261.944 113.14 262.459 113.617 262.459 114.301C262.459 115.069 261.909 115.293 261.242 115.142L260.27 114.922V112.798C260.528 112.832 260.844 112.892 261.171 112.966ZM266.546 117.23C266.932 117.137 267.318 117.033 267.927 117.17C268.711 117.348 268.945 117.893 268.91 118.785C268.653 118.534 268.184 118.273 267.716 118.167C266.651 117.926 265.797 118.296 265.797 119.484C265.797 120.528 266.487 121.297 267.447 121.514C268.161 121.675 268.723 121.514 269.004 121.17V121.794L270.174 122.059V118.771C270.174 117.343 269.624 116.402 268.067 116.05C267.377 115.894 266.663 115.972 266.206 116.145L266.546 117.23ZM267.892 120.45C267.47 120.355 267.143 120.053 267.143 119.645C267.143 119.189 267.541 119.063 267.985 119.164C268.372 119.251 268.676 119.404 268.91 119.637V120.189C268.746 120.392 268.454 120.577 267.892 120.45ZM274.691 121.557C274.691 121.893 274.386 121.992 274 121.905C273.473 121.785 272.678 121.281 272.361 120.862L271.706 121.613C271.952 122.053 272.935 122.816 273.906 123.035C275.194 123.327 276.037 122.857 276.037 121.789C276.037 119.881 273.192 119.73 273.192 118.83C273.192 118.59 273.438 118.417 273.848 118.51C274.41 118.637 274.96 119.026 275.276 119.349L275.779 118.479C275.451 118.093 274.796 117.573 273.778 117.342C272.689 117.096 271.847 117.493 271.847 118.549C271.847 120.517 274.691 120.681 274.691 121.557ZM281.822 123.183C281.518 123.366 280.98 123.484 280.336 123.338C279.505 123.15 278.873 122.563 278.756 121.721L282.56 122.581C282.618 122.391 282.642 122.192 282.642 121.856C282.642 120.344 281.506 119.091 280.149 118.784C278.416 118.392 277.363 119.413 277.363 120.985C277.363 122.689 278.498 124.074 280.195 124.458C280.933 124.625 281.682 124.579 282.209 124.242L281.822 123.183ZM280.09 119.923C280.863 120.097 281.307 120.714 281.296 121.371L278.709 120.786C278.849 120.11 279.283 119.74 280.09 119.923Z" fill="#10162F"/>
    <path d="M70.6794 163.525L70.6794 162.145L65.4126 160.953L65.4126 164.469L64.8742 164.347C63.9379 164.136 63.6219 163.62 63.6219 162.792C63.6219 162.288 63.9028 161.992 64.2188 161.859L63.458 160.691C62.9079 160.927 62.3578 161.462 62.3578 162.758C62.3578 164.186 63.0952 165.325 64.7572 165.701L70.6794 167.041L70.6794 165.661L66.6766 164.755L66.6766 162.619L70.6794 163.525ZM69.2047 155.688C69.4505 156.056 69.6846 156.661 69.6846 157.321C69.6846 158.173 69.2515 158.723 68.4557 158.663L68.4557 154.763C68.2567 154.658 68.0577 154.589 67.73 154.514C66.2553 154.181 65.2839 155.125 65.2839 156.517C65.2839 158.293 66.5128 159.651 68.046 159.998C69.708 160.374 70.8082 159.459 70.8082 157.719C70.8082 156.963 70.5975 156.147 70.1528 155.507L69.2047 155.688ZM66.4074 156.831C66.4074 156.039 66.9107 155.697 67.5545 155.855L67.5545 158.507C66.8639 158.206 66.4074 157.659 66.4074 156.831ZM69.2281 153.262C70.3049 153.506 70.7965 153.173 70.7965 152.345C70.7965 151.697 70.5975 151.184 70.3517 150.816L69.3218 150.871C69.4388 151.066 69.5324 151.267 69.5324 151.483C69.5324 151.807 69.275 151.892 68.678 151.757L62.4866 150.356L62.4866 151.736L69.2281 153.262ZM70.6794 145.768L70.6794 144.388L62.4866 142.534L62.4866 143.914L65.5413 144.606C65.3658 144.866 65.2839 145.195 65.2839 145.675C65.2839 147.415 66.4426 148.902 68.1045 149.278C69.708 149.641 70.7731 148.886 70.7731 147.338C70.7731 146.642 70.5039 146.089 70.1294 145.644L70.6794 145.768ZM69.5207 146.766C69.5207 147.498 68.9941 148.003 68.0577 147.791C67.0863 147.571 66.5479 146.717 66.5479 145.901C66.5479 145.529 66.6532 145.205 66.8639 144.905L68.9824 145.384C69.2867 145.765 69.5207 146.262 69.5207 146.766ZM69.193 139.304C69.5207 139.378 69.6846 139.727 69.6846 140.123C69.6846 140.663 69.3686 141.408 69.0292 141.655L69.907 142.526C70.2815 142.358 70.8082 141.47 70.8082 140.474C70.8082 139.154 70.1645 138.144 69.1228 137.908C67.2618 137.487 67.7417 140.512 66.8639 140.313C66.6298 140.26 66.4074 139.958 66.4074 139.538C66.4074 138.962 66.6649 138.456 66.9107 138.188L65.951 137.454C65.6467 137.722 65.2839 138.311 65.2839 139.355C65.2839 140.471 65.8574 141.465 66.8873 141.698C68.8068 142.133 68.3386 139.111 69.193 139.304Z" fill="#D3DBE6"/>
    <path d="M93.1123 96.9451L77.5068 93.414V213.414L93.1123 216.945" stroke="#D3DBE6"/>
    <path d="M67.2384 287.126C65.7988 286.801 65.319 287.436 65.319 288.42C65.319 289.26 65.6701 289.94 66.1617 290.435C65.6818 290.518 65.319 290.988 65.319 291.816C65.319 292.488 65.5765 293.182 65.9978 293.662L65.4126 293.529L65.4126 294.909L70.6794 296.101L70.6794 294.721L67.1448 293.921C66.7937 293.602 66.583 293.158 66.583 292.666C66.583 292.078 66.9458 291.848 67.4959 291.973L70.6794 292.693L70.6794 291.313L67.5779 290.611C67.4608 290.585 67.2736 290.554 67.1916 290.536C66.8288 290.262 66.583 289.798 66.583 289.282C66.583 288.634 66.9341 288.438 67.5896 288.586L70.6794 289.285L70.6794 287.905L67.2384 287.126ZM69.2047 281.454C69.4505 281.821 69.6846 282.426 69.6846 283.086C69.6846 283.938 69.2515 284.488 68.4557 284.428L68.4557 280.528C68.2567 280.423 68.0577 280.354 67.73 280.28C66.2553 279.946 65.2839 280.891 65.2839 282.283C65.2839 284.059 66.5128 285.417 68.046 285.764C69.708 286.14 70.8082 285.225 70.8082 283.485C70.8082 282.729 70.5975 281.913 70.1528 281.272L69.2047 281.454ZM66.4074 282.597C66.4074 281.805 66.9107 281.463 67.5545 281.62L67.5545 284.272C66.8639 283.972 66.4074 283.425 66.4074 282.597ZM68.678 279.023C70.024 279.328 70.7965 279.046 70.7965 277.822C70.7965 277.126 70.539 276.492 70.2815 276.11L69.2398 276.294C69.3803 276.518 69.5442 276.819 69.5442 277.191C69.5442 277.647 69.1696 277.754 68.5961 277.625L66.6766 277.19L66.6766 275.45L65.4126 275.164L65.4126 276.904L63.9496 276.573L63.9496 277.953L68.678 279.023ZM70.6794 274.552L70.6794 273.172L67.0629 272.353C66.7586 271.973 66.583 271.501 66.583 271.057C66.583 270.301 67.0161 269.955 67.8002 270.132L70.6794 270.784L70.6794 269.404L67.6247 268.713C65.9744 268.339 65.319 269.091 65.319 270.411C65.319 271.035 65.5648 271.666 65.8925 272.089L62.4866 271.318L62.4866 272.698L70.6794 274.552ZM68.046 267.261C69.6261 267.619 70.8082 266.734 70.8082 264.946C70.8082 263.158 69.6261 261.739 68.046 261.381C66.466 261.024 65.2839 261.908 65.2839 263.696C65.2839 265.484 66.466 266.904 68.046 267.261ZM68.046 265.785C67.1331 265.578 66.5479 264.798 66.5479 263.982C66.5479 263.142 67.1565 262.644 68.046 262.845C68.9589 263.052 69.5559 263.811 69.5559 264.663C69.5559 265.503 68.9238 265.984 68.046 265.785ZM70.6794 256.547L70.6794 255.167L62.4866 253.313L62.4866 254.693L65.5413 255.384C65.3658 255.644 65.2839 255.974 65.2839 256.454C65.2839 258.194 66.4426 259.68 68.1045 260.056C69.708 260.419 70.7731 259.664 70.7731 258.116C70.7731 257.42 70.5039 256.867 70.1294 256.422L70.6794 256.547ZM69.5207 257.544C69.5207 258.276 68.9941 258.781 68.0577 258.569C67.0863 258.35 66.5479 257.496 66.5479 256.68C66.5479 256.308 66.6532 255.984 66.8639 255.683L68.9824 256.163C69.2867 256.544 69.5207 257.04 69.5207 257.544ZM69.193 250.082C69.5207 250.157 69.6846 250.506 69.6846 250.902C69.6846 251.442 69.3686 252.186 69.0292 252.433L69.907 253.304C70.2815 253.137 70.8082 252.248 70.8082 251.252C70.8082 249.932 70.1645 248.922 69.1228 248.686C67.2618 248.265 67.7417 251.29 66.8639 251.091C66.6298 251.038 66.4074 250.736 66.4074 250.316C66.4074 249.74 66.6649 249.234 66.9107 248.966L65.951 248.233C65.6467 248.5 65.2839 249.09 65.2839 250.134C65.2839 251.25 65.8574 252.244 66.8873 252.477C68.8068 252.911 68.3386 249.889 69.193 250.082Z" fill="#D3DBE6"/>
    <path d="M93.1123 225.945L77.5068 222.414V342.414L93.1123 345.945" stroke="#D3DBE6"/>
    <path d="M181.869 36.0286L186.745 40.0188V34.2453L181.869 36.0286ZM271.6 56.3327L272.088 56.4431V55.9431L271.6 55.8327V56.3327ZM271.6 108.333L274.416 103.97L268.785 102.696L271.6 108.333ZM186.258 37.5217L271.6 56.8327V55.8327L186.258 36.5217V37.5217ZM271.112 56.2224V103.722L272.088 103.943V56.4431L271.112 56.2224Z" fill="#D3DBE6"/>
</svg>
