<svg width="599" height="389" viewBox="0 0 599 389" fill="none" xmlns="http://www.w3.org/2000/svg">
    <rect x="0.978148" y="1.20791" width="142" height="94" transform="matrix(0.978148 0.207912 0 1 109.021 61.7966)" fill="white" stroke="#FFE000" stroke-width="2"/>
    <path d="M143.063 126.574L145.951 127.187V118.523L152.665 128.614L156.327 129.393L149.144 118.89L155.905 112.503L152.43 111.764L145.951 118.355V110.387L143.063 109.774V126.574ZM164.941 131.224L167.641 131.798V120.998L159.636 119.296L159.472 122.621C159.237 126.747 157.993 127.371 157.077 127.08L157.312 129.818C160.152 130.422 161.561 129.497 162.077 123.727L162.148 122.59L164.941 123.184V131.224ZM173.347 133.01L178.277 127.218V134.058L180.977 134.632V123.832L178.277 123.258L173.347 129.05V122.21L170.647 121.637V132.437L173.347 133.01ZM192.277 134.01C191.666 134.384 190.587 134.635 189.295 134.36C187.629 134.006 186.361 132.849 186.126 131.167L193.756 132.788C193.873 132.405 193.92 132.007 193.92 131.335C193.92 128.311 191.643 125.835 188.92 125.257C185.445 124.518 183.333 126.589 183.333 129.733C183.333 133.141 185.61 135.881 189.014 136.605C190.493 136.919 191.995 136.806 193.051 136.119L192.277 134.01ZM188.802 127.536C190.352 127.865 191.244 129.087 191.22 130.402L186.032 129.299C186.314 127.943 187.183 127.191 188.802 127.536ZM203.419 139.402L206.119 139.976V129.176L203.419 128.602V132.682L198.794 131.699V127.619L196.094 127.046V137.846L198.794 138.419V134.291L203.419 135.274V139.402ZM208.013 132.339L211.487 133.077V141.117L214.187 141.691V133.651L217.638 134.385V131.625L208.013 129.579V132.339Z" fill="#6C7991"/>
    <rect x="0.978148" y="1.20791" width="142" height="94" transform="matrix(0.978148 0.207912 0 1 350.021 61.7966)" fill="white" stroke="#7833FF" stroke-width="2"/>
    <path d="M396.168 124.307C395.041 124.955 393.656 125.117 392.271 124.822C388.914 124.109 386.59 121.215 386.59 117.711C386.59 114.063 388.89 112.296 391.942 112.945C393.585 113.294 394.665 113.979 395.651 114.861L396.942 112.951C395.862 111.714 394.078 110.639 391.942 110.185C386.519 109.032 383.538 112.238 383.538 117.062C383.538 122.294 386.989 126.46 392.012 127.527C394.149 127.982 396.238 127.658 397.271 126.749L396.168 124.307ZM406.966 127.418C406.355 127.792 405.276 128.043 403.984 127.768C402.318 127.414 401.05 126.256 400.815 124.575L408.445 126.196C408.562 125.813 408.609 125.415 408.609 124.743C408.609 121.719 406.332 119.243 403.609 118.664C400.134 117.926 398.022 119.997 398.022 123.141C398.022 126.549 400.299 129.289 403.703 130.012C405.182 130.327 406.684 130.214 407.74 129.527L406.966 127.418ZM403.491 120.943C405.041 121.273 405.933 122.494 405.909 123.809L400.721 122.707C401.003 121.35 401.872 120.599 403.491 120.943ZM410.783 136.053L413.483 136.627V131.563C414.094 132.053 415.009 132.416 415.948 132.615C419.329 133.334 421.535 131.259 421.535 127.971C421.535 124.779 419.657 122.076 416.746 121.457C415.385 121.167 414.14 121.479 413.483 122.059V121.027L410.783 120.453V136.053ZM415.901 123.869C417.685 124.248 418.671 125.706 418.671 127.434C418.671 129.234 417.591 130.396 415.713 129.997C414.821 129.808 414.211 129.534 413.483 128.899V124.531C414.14 123.927 414.986 123.675 415.901 123.869ZM423.874 134.036C424.836 134.24 426.761 134.77 428.076 135.049C431.48 135.773 433.1 134.989 433.1 132.853C433.1 131.605 432.325 130.552 430.846 129.878V129.83C431.902 129.886 432.818 129.145 432.818 127.849C432.818 125.881 431.104 124.653 428.029 123.999C426.386 123.65 424.789 123.406 423.874 123.236V134.036ZM428.264 130.385C429.531 130.654 430.259 131.241 430.259 132.057C430.259 132.801 429.555 133.155 428.358 132.901C427.7 132.761 426.973 132.535 426.574 132.426V130.026L428.264 130.385ZM428.264 126.281C429.273 126.496 429.954 127.024 429.954 127.816C429.954 128.656 429.226 128.91 428.334 128.72L426.574 128.346V125.97C426.855 126.006 427.63 126.146 428.264 126.281ZM443.944 135.278C443.334 135.652 442.254 135.903 440.963 135.628C439.296 135.274 438.028 134.117 437.794 132.435L445.423 134.056C445.541 133.673 445.588 133.275 445.588 132.603C445.588 129.579 443.31 127.103 440.587 126.524C437.113 125.786 435 127.857 435 131.001C435 134.409 437.277 137.149 440.681 137.872C442.16 138.187 443.663 138.074 444.719 137.387L443.944 135.278ZM440.47 128.803C442.019 129.133 442.911 130.354 442.888 131.669L437.7 130.567C437.982 129.211 438.85 128.459 440.47 128.803ZM447.762 143.913L450.462 144.487V139.423C451.072 139.913 451.988 140.276 452.927 140.475C456.307 141.194 458.514 139.119 458.514 135.831C458.514 132.639 456.636 129.936 453.725 129.317C452.363 129.027 451.119 129.339 450.462 129.919V128.887L447.762 128.313V143.913ZM452.88 131.729C454.664 132.108 455.65 133.566 455.65 135.294C455.65 137.094 454.57 138.257 452.692 137.857C451.8 137.668 451.189 137.394 450.462 136.759V132.391C451.119 131.787 451.964 131.535 452.88 131.729Z" fill="#7833FF"/>
    <path d="M436.72 104.216L437.942 98.5729L432.444 100.336L436.72 104.216ZM314.203 1.96209L314.261 1.4654L314.203 1.96209ZM232.205 16.4738L232.429 16.9207L232.205 16.4738ZM435.819 99.7698C427.215 74.3017 411.734 51.6728 391.051 34.4102L390.41 35.1779C410.952 52.3223 426.327 74.7962 434.872 100.09L435.819 99.7698ZM391.051 34.4102C369.211 16.1819 342.521 4.73127 314.261 1.4654L314.146 2.45879C342.212 5.70229 368.719 17.0745 390.41 35.1779L391.051 34.4102ZM314.261 1.4654C286.001 -1.80047 257.403 3.26071 231.98 16.027L232.429 16.9207C257.678 4.2418 286.08 -0.784716 314.146 2.45879L314.261 1.4654ZM231.98 16.027C206.558 28.7933 185.419 48.7085 171.161 73.3253L172.026 73.8265C186.187 49.3783 207.181 29.5995 232.429 16.9207L231.98 16.027Z" fill="#D3DBE6"/>
    <path d="M387.559 260.779L387.869 261.171L387.559 260.779ZM202.192 256.439L202.52 256.062L202.192 256.439ZM153.994 170.505L152.056 175.943L157.735 174.903L153.994 170.505ZM439.237 177.088C432.123 210.055 413.739 239.511 387.25 260.386L387.869 261.171C414.541 240.152 433.051 210.493 440.215 177.299L439.237 177.088ZM387.25 260.386C360.761 281.261 327.824 292.25 294.107 291.46L294.083 292.46C328.033 293.255 361.197 282.191 387.869 261.171L387.25 260.386ZM294.107 291.46C260.39 290.671 228.003 278.153 202.52 256.062L201.865 256.817C227.524 279.061 260.134 291.665 294.083 292.46L294.107 291.46ZM202.52 256.062C178.168 234.951 161.576 206.358 155.295 174.834L154.315 175.029C160.639 206.771 177.345 235.561 201.865 256.817L202.52 256.062Z" fill="#D3DBE6"/>
    <circle r="71.5" transform="matrix(0.978148 0.207912 0 1 227.427 278.97)" fill="white" stroke="#FFE000"/>
    <circle r="71.5" transform="matrix(0.978148 0.207912 0 1 211.427 279.97)" fill="white" stroke="#FFE000"/>
    <circle r="71.5" transform="matrix(0.978148 0.207912 0 1 195.427 280.97)" fill="white" stroke="#FFE000"/>
    <circle r="71" transform="matrix(0.978148 0.207912 0 1 179.427 281.97)" fill="#FFE000" stroke="#FFE000" stroke-width="2"/>
    <path d="M135.71 257.677L138.574 258.286V241.486L128.221 239.286L127.986 242.596C127.259 252.569 125.592 252.767 124.324 252.329L124.254 255.242C127.493 256.411 129.63 255.281 130.592 245.718L130.921 242.619L135.71 243.637V257.677ZM141.685 253.547C141.685 256.787 143.938 259.69 147.436 260.434C150.934 261.177 153.188 259.232 153.188 255.992C153.188 252.752 150.934 249.849 147.436 249.106C143.938 248.362 141.685 250.307 141.685 253.547ZM144.572 254.161C144.572 252.289 145.84 251.359 147.436 251.698C149.08 252.047 150.324 253.56 150.324 255.384C150.324 257.256 149.103 258.22 147.436 257.866C145.793 257.517 144.572 255.961 144.572 254.161ZM165.525 253.215L162.121 252.491L158.318 257.035L162.496 263.371L166.018 264.119L161.463 257.487L165.525 253.215ZM155.524 261.889L158.224 262.463V251.663L155.524 251.089V261.889ZM168.427 256.616C169.202 256.42 169.977 256.201 171.198 256.46C172.77 256.795 173.24 257.879 173.169 259.664C172.653 259.17 171.714 258.658 170.775 258.459C168.639 258.005 166.925 258.768 166.925 261.144C166.925 263.232 168.31 264.751 170.235 265.16C171.667 265.464 172.794 265.128 173.357 264.432V265.68L175.705 266.178V259.602C175.705 256.746 174.601 254.88 171.479 254.216C170.094 253.922 168.662 254.098 167.747 254.455L168.427 256.616ZM171.127 263.021C170.282 262.842 169.625 262.246 169.625 261.43C169.625 260.518 170.423 260.256 171.315 260.445C172.09 260.61 172.7 260.908 173.169 261.368V262.472C172.841 262.882 172.254 263.261 171.127 263.021ZM185.421 268.244L188.121 268.818V258.018L180.116 256.316L179.951 259.641C179.717 263.767 178.472 264.391 177.557 264.1L177.792 266.838C180.632 267.442 182.041 266.517 182.557 260.747L182.628 259.61L185.421 260.204V268.244ZM191.127 269.457L195.071 270.295C198.663 271.058 199.93 269.288 199.93 267.224C199.93 265.304 198.874 263.255 195.282 262.492L193.827 262.182V259.23L191.127 258.657V269.457ZM195.048 264.65C196.503 264.959 197.066 265.727 197.066 266.711C197.066 267.695 196.48 268.194 195.024 267.885L193.827 267.63V264.39L195.048 264.65ZM209.41 273.343L212.11 273.917V263.117L209.41 262.543V266.623L204.785 265.64V261.56L202.085 260.986V271.786L204.785 272.36V268.232L209.41 269.215V273.343ZM215.929 266.712C216.703 266.517 217.478 266.298 218.699 266.557C220.272 266.891 220.741 267.975 220.671 269.76C220.154 269.267 219.215 268.755 218.276 268.555C216.14 268.101 214.426 268.865 214.426 271.241C214.426 273.329 215.811 274.847 217.736 275.257C219.168 275.561 220.295 275.224 220.859 274.528V275.776L223.206 276.275V269.699C223.206 266.843 222.103 264.977 218.981 264.313C217.595 264.019 216.163 264.194 215.248 264.552L215.929 266.712ZM218.628 273.118C217.783 272.939 217.126 272.343 217.126 271.527C217.126 270.615 217.924 270.352 218.816 270.542C219.591 270.707 220.201 271.004 220.671 271.464V272.568C220.342 272.978 219.755 273.358 218.628 273.118ZM231.138 267.161C227.335 266.353 225.88 267.796 225.88 269.884C225.88 271.66 227.007 272.907 227.922 273.438L225.105 276.679L228.204 277.338L230.387 274.562L231.89 274.881V278.121L234.589 278.695V267.895L231.138 267.161ZM228.767 270.689C228.767 269.873 229.378 269.187 230.692 269.466L231.89 269.721V272.841L230.481 272.542C229.636 272.362 228.767 271.577 228.767 270.689ZM166.519 279.162C165.416 280.224 164.148 279.45 161.824 279.964C158.608 280.696 157.833 284.276 157.833 287.804C157.833 292.004 160.017 295.108 163.561 295.861C166.895 296.57 169.102 294.495 169.102 291.471C169.102 288.231 167.2 285.763 164.289 285.144C162.74 284.815 161.237 285.335 160.58 286.372L160.533 286.362C160.697 284.693 161.284 283.209 162.81 282.814C164.853 282.216 166.543 283.103 167.928 281.717L166.519 279.162ZM160.721 288.994C161.073 287.964 162.106 287.248 163.608 287.567C165.322 287.932 166.214 289.369 166.214 290.977C166.214 292.537 165.205 293.643 163.491 293.278C161.777 292.914 160.744 291.087 160.721 288.994ZM172.267 289.432C173.042 289.237 173.817 289.017 175.038 289.277C176.61 289.611 177.08 290.695 177.009 292.48C176.493 291.986 175.554 291.474 174.615 291.275C172.479 290.821 170.765 291.584 170.765 293.96C170.765 296.048 172.15 297.567 174.075 297.976C175.507 298.28 176.634 297.944 177.197 297.248V298.496L179.545 298.995V292.419C179.545 289.563 178.441 287.696 175.319 287.033C173.934 286.738 172.502 286.914 171.587 287.271L172.267 289.432ZM174.967 295.838C174.122 295.658 173.465 295.062 173.465 294.246C173.465 293.334 174.263 293.072 175.155 293.262C175.93 293.426 176.54 293.724 177.009 294.184V295.288C176.681 295.698 176.094 296.077 174.967 295.838ZM186.045 300.64C188.909 301.249 190.834 300.41 190.834 298.394C190.834 297.146 190.083 295.979 188.604 295.376V295.328C189.848 295.161 190.552 294.374 190.552 293.342C190.552 291.47 189.12 289.966 186.327 289.372C184.331 288.948 182.758 289.286 181.796 290.233L182.923 292.129C183.58 291.692 184.589 291.235 185.81 291.494C186.984 291.744 187.665 292.321 187.665 293.065C187.665 293.761 187.148 294.275 186.256 294.085L184.402 293.691V295.539L186.374 295.958C187.407 296.178 187.97 296.802 187.97 297.522C187.97 298.29 187.219 298.682 185.81 298.382C184.801 298.168 183.463 297.283 182.829 296.429L181.444 297.862C182.218 299.035 184.167 300.241 186.045 300.64ZM194.207 294.095C194.982 293.9 195.756 293.681 196.977 293.94C198.55 294.274 199.019 295.358 198.949 297.143C198.433 296.649 197.494 296.138 196.555 295.938C194.418 295.484 192.705 296.248 192.705 298.624C192.705 300.712 194.09 302.23 196.015 302.639C197.447 302.944 198.573 302.607 199.137 301.911V303.159L201.484 303.658V297.082C201.484 294.226 200.381 292.36 197.259 291.696C195.874 291.402 194.442 291.577 193.526 291.935L194.207 294.095ZM196.907 300.501C196.062 300.321 195.404 299.726 195.404 298.91C195.404 297.998 196.202 297.735 197.094 297.925C197.869 298.09 198.48 298.387 198.949 298.847V299.951C198.62 300.361 198.033 300.741 196.907 300.501ZM141.109 325.345L143.621 325.879V323.359L151.109 324.951V327.471L153.645 328.009V322.921L151.884 322.547V314.315L144.09 312.659L143.926 315.216C143.785 317.634 143.198 319.693 142.447 320.541L141.109 320.257V325.345ZM146.532 316.874L146.602 315.785L149.184 316.333V321.973L145.264 321.14C145.733 320.568 146.32 319.109 146.532 316.874ZM156.243 318.026C157.017 317.83 157.792 317.611 159.013 317.87C160.586 318.205 161.055 319.289 160.985 321.074C160.468 320.58 159.529 320.068 158.59 319.869C156.454 319.415 154.74 320.178 154.74 322.554C154.74 324.642 156.125 326.161 158.05 326.57C159.482 326.874 160.609 326.538 161.172 325.842V327.09L163.52 327.589V321.013C163.52 318.157 162.417 316.29 159.294 315.626C157.909 315.332 156.477 315.508 155.562 315.865L156.243 318.026ZM158.942 324.432C158.097 324.252 157.44 323.656 157.44 322.84C157.44 321.928 158.238 321.666 159.13 321.855C159.905 322.02 160.515 322.318 160.985 322.778V323.882C160.656 324.292 160.069 324.671 158.942 324.432ZM173.612 329.734L176.312 330.307V319.507L173.612 318.934V323.014L168.987 322.031V317.951L166.288 317.377V328.177L168.987 328.751V324.623L173.612 325.606V329.734ZM186.634 332.501L189.333 333.075V322.275L186.634 321.701V325.781L182.009 324.798V320.718L179.309 320.145V330.945L182.009 331.518V327.39L186.634 328.373V332.501ZM192.331 333.712L196.134 334.521C199.726 335.284 200.993 333.514 200.993 331.45C200.993 329.53 199.937 327.481 196.345 326.718L195.03 326.438V323.486L192.331 322.912V333.712ZM202.496 335.873L205.195 336.447V325.647L202.496 325.073V335.873ZM196.11 328.876C197.566 329.185 198.129 329.953 198.129 330.937C198.129 331.921 197.542 332.42 196.087 332.111L195.03 331.886V328.646L196.11 328.876ZM218.29 328.43L215.167 327.767L212.867 330.853L210.637 326.803L207.326 326.1L210.848 332.152L207.092 336.85L210.214 337.514L212.773 334.17L215.238 338.581L218.524 339.28L214.768 332.842L218.29 328.43Z" fill="#6C7991"/>
    <circle r="71.5" transform="matrix(0.978148 0.207912 0 1 420.427 278.97)" fill="white" stroke="#7833FF"/>
    <circle r="71.5" transform="matrix(0.978148 0.207912 0 1 404.427 279.97)" fill="white" stroke="#7833FF"/>
    <circle r="71.5" transform="matrix(0.978148 0.207912 0 1 388.427 280.97)" fill="white" stroke="#7833FF"/>
    <circle r="71" transform="matrix(0.978148 0.207912 0 1 372.427 281.97)" fill="#7833FF" stroke="#7833FF" stroke-width="2"/>
    <path d="M330.412 254.199C329.285 254.848 327.9 255.009 326.515 254.715C323.158 254.001 320.834 251.107 320.834 247.603C320.834 243.955 323.135 242.188 326.186 242.837C327.83 243.186 328.91 243.872 329.896 244.753L331.187 242.844C330.107 241.606 328.323 240.531 326.186 240.077C320.764 238.924 317.782 242.131 317.782 246.955C317.782 252.187 321.233 256.352 326.257 257.42C328.393 257.874 330.483 257.55 331.515 256.642L330.412 254.199ZM341.21 257.31C340.6 257.685 339.52 257.935 338.229 257.661C336.562 257.306 335.294 256.149 335.06 254.467L342.689 256.089C342.807 255.706 342.854 255.308 342.854 254.636C342.854 251.612 340.576 249.136 337.853 248.557C334.379 247.818 332.266 249.889 332.266 253.033C332.266 256.441 334.543 259.181 337.947 259.905C339.426 260.219 340.929 260.106 341.985 259.419L341.21 257.31ZM337.736 250.836C339.285 251.165 340.177 252.387 340.154 253.702L334.966 252.599C335.248 251.243 336.116 250.492 337.736 250.836ZM345.028 265.946L347.728 266.52V261.456C348.338 261.945 349.254 262.308 350.193 262.508C353.573 263.226 355.78 261.151 355.78 257.863C355.78 254.671 353.902 251.968 350.991 251.349C349.629 251.06 348.385 251.371 347.728 251.952V250.92L345.028 250.346V265.946ZM350.146 253.762C351.93 254.141 352.916 255.598 352.916 257.326C352.916 259.126 351.836 260.289 349.958 259.89C349.066 259.7 348.455 259.426 347.728 258.792V254.424C348.385 253.819 349.23 253.567 350.146 253.762ZM358.118 263.928C359.081 264.133 361.006 264.662 362.32 264.941C365.724 265.665 367.344 264.881 367.344 262.745C367.344 261.497 366.57 260.445 365.091 259.77V259.722C366.147 259.779 367.063 259.037 367.063 257.741C367.063 255.773 365.349 254.545 362.274 253.891C360.63 253.542 359.034 253.299 358.118 253.128V263.928ZM362.508 260.277C363.776 260.547 364.504 261.134 364.504 261.95C364.504 262.694 363.799 263.048 362.602 262.793C361.945 262.654 361.217 262.427 360.818 262.318V259.918L362.508 260.277ZM362.508 256.173C363.518 256.388 364.199 256.917 364.199 257.709C364.199 258.549 363.471 258.802 362.579 258.612L360.818 258.238V255.862C361.1 255.898 361.874 256.039 362.508 256.173ZM378.189 265.17C377.578 265.545 376.499 265.795 375.207 265.521C373.541 265.166 372.273 264.009 372.038 262.327L379.668 263.949C379.785 263.566 379.832 263.168 379.832 262.496C379.832 259.472 377.555 256.996 374.832 256.417C371.357 255.678 369.245 257.749 369.245 260.893C369.245 264.301 371.522 267.041 374.926 267.765C376.405 268.079 377.907 267.967 378.964 267.279L378.189 265.17ZM374.714 258.696C376.264 259.025 377.156 260.247 377.132 261.562L371.944 260.459C372.226 259.103 373.095 258.352 374.714 258.696ZM382.007 273.806L384.706 274.38V269.316C385.317 269.805 386.232 270.168 387.171 270.368C390.552 271.086 392.758 269.011 392.758 265.723C392.758 262.531 390.88 259.828 387.969 259.209C386.608 258.92 385.364 259.231 384.706 259.812V258.78L382.007 258.206V273.806ZM387.124 261.622C388.908 262.001 389.894 263.458 389.894 265.186C389.894 266.986 388.814 268.149 386.936 267.75C386.044 267.56 385.434 267.286 384.706 266.652V262.284C385.364 261.679 386.209 261.427 387.124 261.622ZM402.421 273.345L405.121 273.919V263.119L402.421 262.545V266.625L397.797 265.642V261.562L395.097 260.988V271.788L397.797 272.362V268.234L402.421 269.217V273.345ZM408.94 266.715C409.715 266.519 410.49 266.3 411.71 266.56C413.283 266.894 413.753 267.978 413.682 269.763C413.166 269.269 412.227 268.757 411.288 268.558C409.151 268.104 407.438 268.867 407.438 271.243C407.438 273.331 408.823 274.85 410.748 275.259C412.18 275.563 413.307 275.227 413.87 274.531V275.779L416.218 276.278V269.702C416.218 266.846 415.114 264.979 411.992 264.315C410.607 264.021 409.175 264.197 408.259 264.554L408.94 266.715ZM411.64 273.121C410.795 272.941 410.137 272.345 410.137 271.529C410.137 270.617 410.936 270.355 411.828 270.545C412.602 270.709 413.213 271.007 413.682 271.467V272.571C413.354 272.981 412.767 273.36 411.64 273.121ZM424.15 267.164C420.347 266.355 418.891 267.798 418.891 269.886C418.891 271.662 420.018 272.909 420.934 273.44L418.117 276.681L421.215 277.34L423.399 274.564L424.901 274.883V278.123L427.601 278.697V267.897L424.15 267.164ZM421.779 270.692C421.779 269.876 422.389 269.189 423.704 269.469L424.901 269.723V272.843L423.492 272.544C422.647 272.364 421.779 271.58 421.779 270.692ZM359.519 279.162C358.416 280.224 357.148 279.45 354.824 279.964C351.608 280.696 350.833 284.276 350.833 287.804C350.833 292.004 353.017 295.108 356.561 295.861C359.895 296.57 362.102 294.495 362.102 291.471C362.102 288.231 360.2 285.763 357.289 285.144C355.74 284.815 354.237 285.335 353.58 286.372L353.533 286.362C353.697 284.693 354.284 283.209 355.81 282.814C357.853 282.216 359.543 283.103 360.928 281.717L359.519 279.162ZM353.721 288.994C354.073 287.964 355.106 287.248 356.608 287.567C358.322 287.932 359.214 289.369 359.214 290.977C359.214 292.537 358.205 293.643 356.491 293.278C354.777 292.914 353.744 291.087 353.721 288.994ZM365.267 289.432C366.042 289.237 366.817 289.017 368.038 289.277C369.61 289.611 370.08 290.695 370.009 292.48C369.493 291.986 368.554 291.474 367.615 291.275C365.479 290.821 363.765 291.584 363.765 293.96C363.765 296.048 365.15 297.567 367.075 297.976C368.507 298.28 369.634 297.944 370.197 297.248V298.496L372.545 298.995V292.419C372.545 289.563 371.441 287.696 368.319 287.033C366.934 286.738 365.502 286.914 364.587 287.271L365.267 289.432ZM367.967 295.838C367.122 295.658 366.465 295.062 366.465 294.246C366.465 293.334 367.263 293.072 368.155 293.262C368.93 293.426 369.54 293.724 370.009 294.184V295.288C369.681 295.698 369.094 296.077 367.967 295.838ZM379.045 300.64C381.909 301.249 383.834 300.41 383.834 298.394C383.834 297.146 383.083 295.979 381.604 295.376V295.328C382.848 295.161 383.552 294.374 383.552 293.342C383.552 291.47 382.12 289.966 379.327 289.372C377.331 288.948 375.758 289.286 374.796 290.233L375.923 292.129C376.58 291.692 377.589 291.235 378.81 291.494C379.984 291.744 380.665 292.321 380.665 293.065C380.665 293.761 380.148 294.275 379.256 294.085L377.402 293.691V295.539L379.374 295.958C380.407 296.178 380.97 296.802 380.97 297.522C380.97 298.29 380.219 298.682 378.81 298.382C377.801 298.168 376.463 297.283 375.829 296.429L374.444 297.862C375.218 299.035 377.167 300.241 379.045 300.64ZM387.207 294.095C387.982 293.9 388.756 293.681 389.977 293.94C391.55 294.274 392.019 295.358 391.949 297.143C391.433 296.649 390.494 296.138 389.555 295.938C387.418 295.484 385.705 296.248 385.705 298.624C385.705 300.712 387.09 302.23 389.015 302.639C390.447 302.944 391.573 302.607 392.137 301.911V303.159L394.484 303.658V297.082C394.484 294.226 393.381 292.36 390.259 291.696C388.874 291.402 387.442 291.577 386.526 291.935L387.207 294.095ZM389.907 300.501C389.062 300.321 388.404 299.726 388.404 298.91C388.404 297.998 389.202 297.735 390.094 297.925C390.869 298.09 391.48 298.387 391.949 298.847V299.951C391.62 300.361 391.033 300.741 389.907 300.501ZM334.109 325.345L336.621 325.879V323.359L344.109 324.951V327.471L346.645 328.009V322.921L344.884 322.547V314.315L337.09 312.659L336.926 315.216C336.785 317.634 336.198 319.693 335.447 320.541L334.109 320.257V325.345ZM339.532 316.874L339.602 315.785L342.184 316.333V321.973L338.264 321.14C338.733 320.568 339.32 319.109 339.532 316.874ZM349.243 318.026C350.017 317.83 350.792 317.611 352.013 317.87C353.586 318.205 354.055 319.289 353.985 321.074C353.468 320.58 352.529 320.068 351.59 319.869C349.454 319.415 347.74 320.178 347.74 322.554C347.74 324.642 349.125 326.161 351.05 326.57C352.482 326.874 353.609 326.538 354.172 325.842V327.09L356.52 327.589V321.013C356.52 318.157 355.417 316.29 352.294 315.626C350.909 315.332 349.477 315.508 348.562 315.865L349.243 318.026ZM351.942 324.432C351.097 324.252 350.44 323.656 350.44 322.84C350.44 321.928 351.238 321.666 352.13 321.855C352.905 322.02 353.515 322.318 353.985 322.778V323.882C353.656 324.292 353.069 324.671 351.942 324.432ZM366.612 329.734L369.312 330.307V319.507L366.612 318.934V323.014L361.987 322.031V317.951L359.288 317.377V328.177L361.987 328.751V324.623L366.612 325.606V329.734ZM379.634 332.501L382.333 333.075V322.275L379.634 321.701V325.781L375.009 324.798V320.718L372.309 320.145V330.945L375.009 331.518V327.39L379.634 328.373V332.501ZM385.331 333.712L389.134 334.521C392.726 335.284 393.993 333.514 393.993 331.45C393.993 329.53 392.937 327.481 389.345 326.718L388.03 326.438V323.486L385.331 322.912V333.712ZM395.496 335.873L398.195 336.447V325.647L395.496 325.073V335.873ZM389.11 328.876C390.566 329.185 391.129 329.953 391.129 330.937C391.129 331.921 390.542 332.42 389.087 332.111L388.03 331.886V328.646L389.11 328.876ZM411.29 328.43L408.167 327.767L405.867 330.853L403.637 326.803L400.326 326.1L403.848 332.152L400.092 336.85L403.214 337.514L405.773 334.17L408.238 338.581L411.524 339.28L407.768 332.842L411.29 328.43Z" fill="white"/>
</svg>
