<svg width="600" height="600" viewBox="0 0 600 600" fill="none" xmlns="http://www.w3.org/2000/svg">
    <path d="M195 235C195 235.552 194.552 236 194 236C193.448 236 193 235.552 193 235H195ZM409.707 212.707C409.317 213.098 408.683 213.098 408.293 212.707L401.929 206.343C401.538 205.953 401.538 205.319 401.929 204.929C402.319 204.538 402.953 204.538 403.343 204.929L409 210.586L414.657 204.929C415.047 204.538 415.681 204.538 416.071 204.929C416.462 205.319 416.462 205.953 416.071 206.343L409.707 212.707ZM193 235V168H195V235H193ZM224 137H379V139H224V137ZM410 168V212H408V168H410ZM379 137C396.121 137 410 150.879 410 168H408C408 151.984 395.016 139 379 139V137ZM193 168C193 150.879 206.879 137 224 137V139C207.984 139 195 151.984 195 168H193Z" fill="#B8C0CD"/>
    <rect width="115.494" height="115.494" transform="matrix(0.866025 0.5 -0.866025 0.5 459.021 185)" fill="#73FFE5"/>
    <rect width="115.494" height="115.494" transform="matrix(0.866025 0.5 -0.866025 0.5 459.021 185)" fill="#3C4257"/>
    <path d="M359 242.747L459.021 300.494L459.021 415.988L359 358.241L359 300.494L359 242.747Z" fill="#E1E8FF"/>
    <path d="M459.095 300.494L559.115 242.747L559.115 358.241L459.095 415.988L459.095 358.241L459.095 300.494Z" fill="#CEC0FF"/>
    <path d="M464.216 279.241C467.768 277.19 468.113 274.424 465.271 272.467L465.17 272.397L462.186 274.12L462.267 274.19C463.617 275.415 463.394 276.715 461.628 277.735C459.284 279.088 455.874 278.854 452.788 277.073L452.778 277.067C449.713 275.297 449.318 273.346 451.662 271.993C453.489 270.938 455.742 270.856 457.7 271.588L457.914 271.665L460.897 269.942L460.796 269.895C457.416 268.26 452.626 268.436 449.064 270.493C444.791 272.959 444.933 276.159 449.652 278.883L449.663 278.889C454.382 281.614 459.933 281.713 464.216 279.241ZM477.338 271.629C480.434 269.842 480.099 267.915 478.84 266.79L478.749 266.713L476.029 268.284L476.07 268.331C476.476 268.799 476.405 269.614 475.187 270.317C473.674 271.19 471.716 271.149 469.94 270.17L477.43 265.846L476.516 265.319C473.228 263.42 469.077 263.321 465.89 265.161C462.694 267.006 462.866 269.461 466.327 271.459L466.337 271.465C469.818 273.475 473.999 273.557 477.338 271.629ZM468.154 266.409C469.371 265.706 471.036 265.647 472.721 266.409L468.113 269.069C466.834 268.108 466.926 267.118 468.154 266.409ZM487.406 269.661L490.369 267.95L484.96 264.827L485.021 264.792C486.898 265.196 488.908 264.95 490.471 264.047C493.191 262.477 492.734 260.28 489.202 258.241L489.192 258.235C485.65 256.19 481.865 255.938 479.104 257.532C477.551 258.428 477.176 259.571 477.896 260.678L477.835 260.713L475.938 259.618L472.974 261.329L487.406 269.661ZM486.99 263.221C485.559 264.047 483.326 263.907 481.367 262.776L481.357 262.77C479.388 261.633 479.145 260.344 480.576 259.518C482.047 258.668 484.189 258.827 486.178 259.975L486.188 259.981C488.167 261.124 488.471 262.366 486.99 263.221ZM496.357 260.391L501.908 257.186C504.374 255.762 504.679 254.157 502.781 253.061L502.761 253.049C501.411 252.27 499.412 252.276 497.778 253.008L497.697 252.961C498.64 252.217 498.478 251.139 497.321 250.471L497.301 250.459C495.586 249.469 493.191 249.657 490.927 250.963L485.477 254.11L496.357 260.391ZM492.764 254.954L490.288 253.524L492.023 252.522C492.998 251.959 493.962 251.895 494.764 252.358L494.784 252.37C495.596 252.838 495.433 253.413 494.347 254.04L492.764 254.954ZM497.362 257.608L494.581 256.002L496.245 255.042C497.504 254.315 498.61 254.18 499.523 254.708L499.544 254.719C500.477 255.258 500.315 255.903 499.158 256.571L497.362 257.608ZM512.859 251.122C515.954 249.334 515.619 247.407 514.361 246.282L514.269 246.206L511.55 247.776L511.59 247.823C511.996 248.292 511.925 249.106 510.707 249.809C509.195 250.682 507.236 250.641 505.46 249.663L512.95 245.338L512.037 244.811C508.749 242.913 504.598 242.813 501.411 244.653C498.214 246.499 498.387 248.954 501.847 250.952L501.858 250.958C505.339 252.967 509.52 253.049 512.859 251.122ZM503.674 245.901C504.892 245.198 506.556 245.139 508.241 245.901L503.634 248.561C502.355 247.6 502.446 246.61 503.674 245.901ZM522.926 249.153L525.89 247.442L520.48 244.319L520.541 244.284C522.419 244.688 524.428 244.442 525.991 243.54C528.711 241.969 528.254 239.772 524.723 237.733L524.712 237.727C521.171 235.682 517.385 235.43 514.625 237.024C513.072 237.92 512.696 239.063 513.417 240.17L513.356 240.206L511.458 239.11L508.495 240.821L522.926 249.153ZM522.51 242.713C521.079 243.54 518.847 243.399 516.888 242.268L516.878 242.262C514.909 241.125 514.665 239.836 516.096 239.01C517.568 238.161 519.709 238.319 521.698 239.467L521.708 239.473C523.687 240.616 523.992 241.858 522.51 242.713Z" fill="white"/>
    <rect width="115.494" height="115.494" transform="matrix(0.866025 0.5 -0.866025 0.5 143.021 185)" fill="#73FFE5"/>
    <rect width="115.494" height="115.494" transform="matrix(0.866025 0.5 -0.866025 0.5 143.021 185)" fill="#3C4257"/>
    <path d="M43 242.747L143.021 300.494L143.021 415.988L43 358.241L43 300.494L43 242.747Z" fill="#FDDE4F"/>
    <path d="M143.095 300.494L243.115 242.747L243.115 358.241L143.095 415.988L143.095 358.241L143.095 300.494Z" fill="#CEC0FF"/>
    <path d="M145.083 280.756L138.831 277.147L139.339 276.854L150.787 277.463L154.592 275.266L140.486 274.516L139.471 267.086L136.01 269.084L136.994 275.5L136.487 275.793L130.438 272.301L127.373 274.071L142.018 282.526L145.083 280.756ZM154.521 269.483L151.152 267.28L154.146 265.551L162.782 270.538L165.746 268.827L154.866 262.545L146.362 267.456L151.629 270.872C153.466 272.061 153.994 272.776 152.938 273.385C152.664 273.543 152.431 273.643 152.278 273.696L154.765 275.131C154.988 275.061 155.455 274.885 156.003 274.569C158.672 273.028 157.475 271.411 154.521 269.483ZM167.887 267.59L170.79 265.915L168.192 259.469L168.303 259.405L175.184 263.377L178.097 261.696L167.217 255.415L164.315 257.09L166.811 263.489L166.71 263.547L159.92 259.627L157.008 261.309L167.887 267.59ZM185.384 257.747C188.479 255.959 188.144 254.032 186.886 252.907L186.794 252.831L184.074 254.401L184.115 254.448C184.521 254.917 184.45 255.731 183.232 256.434C181.72 257.307 179.761 257.266 177.985 256.288L185.475 251.963L184.562 251.436C181.273 249.538 177.123 249.438 173.936 251.278C170.739 253.124 170.912 255.579 174.372 257.577L174.382 257.583C177.863 259.592 182.045 259.674 185.384 257.747ZM176.199 252.526C177.417 251.823 179.081 251.764 180.766 252.526L176.158 255.186C174.88 254.225 174.971 253.235 176.199 252.526ZM199.044 249.602L202.007 247.891L191.128 241.61L188.164 243.321L192.346 245.735L188.185 248.137L184.003 245.723L181.04 247.434L191.919 253.715L194.883 252.004L190.428 249.432L194.589 247.03L199.044 249.602ZM202.078 235.288L192.64 240.737L194.883 242.032L198.12 240.163L206.757 245.149L209.72 243.438L201.084 238.452L204.321 236.583L202.078 235.288Z" fill="white"/>
    <path d="M142 242.5C142 243.052 142.448 243.5 143 243.5C143.552 243.5 144 243.052 144 242.5H142ZM457.293 243.207C457.683 243.598 458.317 243.598 458.707 243.207L465.071 236.843C465.462 236.453 465.462 235.819 465.071 235.429C464.681 235.038 464.047 235.038 463.657 235.429L458 241.086L452.343 235.429C451.953 235.038 451.319 235.038 450.929 235.429C450.538 235.819 450.538 236.453 450.929 236.843L457.293 243.207ZM144 242.5V133H142V242.5H144ZM193 84H408V82H193V84ZM457 133V242.5H459V133H457ZM408 84C435.062 84 457 105.938 457 133H459C459 104.833 436.167 82 408 82V84ZM144 133C144 105.938 165.938 84 193 84V82C164.833 82 142 104.833 142 133H144Z" fill="#B8C0CD"/>
    <path d="M142 414C142 413.448 142.448 413 143 413C143.552 413 144 413.448 144 414H142ZM457.293 413.293C457.683 412.902 458.317 412.902 458.707 413.293L465.071 419.657C465.462 420.047 465.462 420.681 465.071 421.071C464.681 421.462 464.047 421.462 463.657 421.071L458 415.414L452.343 421.071C451.953 421.462 451.319 421.462 450.929 421.071C450.538 420.681 450.538 420.047 450.929 419.657L457.293 413.293ZM144 414V483.5H142V414H144ZM193 532.5H408V534.5H193V532.5ZM457 483.5V414H459V483.5H457ZM408 532.5C435.062 532.5 457 510.562 457 483.5H459C459 511.667 436.167 534.5 408 534.5V532.5ZM144 483.5C144 510.562 165.938 532.5 193 532.5V534.5C164.833 534.5 142 511.667 142 483.5H144Z" fill="#B8C0CD"/>
    <path d="M286.195 61.293C290.906 61.293 293.695 58.5039 293.695 53.8984V51.9531H286.383V54.5898H290.25L290.238 54.8359C290.145 56.9219 288.562 58.293 286.254 58.293C283.441 58.293 281.66 56.125 281.66 52.457V52.4453C281.66 48.8594 283.336 46.7969 286.125 46.7969C288.035 46.7969 289.383 47.7461 289.945 49.3867L289.992 49.5039H293.543L293.508 49.3398C292.945 46.1641 290.18 43.7969 286.113 43.7969C281.156 43.7969 278.051 47.0664 278.051 52.4805V52.4922C278.051 58 281.145 61.293 286.195 61.293ZM296.039 61H307.242V58.082H299.578V53.8281H306.809V51.0625H299.578V47.0078H307.242V44.0898H296.039V61ZM313.84 61H317.379V47.0078H322.277V44.0898H308.953V47.0078H313.84V61Z" fill="black"/>
    <path d="M258.633 483H265.09C270.164 483 273.152 479.848 273.152 474.48V474.457C273.152 469.102 270.152 466.09 265.09 466.09H258.633V483ZM262.172 480.07V469.008H264.668C267.773 469.008 269.543 470.941 269.543 474.469V474.492C269.543 478.148 267.832 480.07 264.668 480.07H262.172ZM275.438 483H286.641V480.082H278.977V475.828H286.207V473.062H278.977V469.008H286.641V466.09H275.438V483ZM289.195 483H300.129V480.082H292.734V466.09H289.195V483ZM302.227 483H313.43V480.082H305.766V475.828H312.996V473.062H305.766V469.008H313.43V466.09H302.227V483ZM320.027 483H323.566V469.008H328.465V466.09H315.141V469.008H320.027V483ZM330.422 483H341.625V480.082H333.961V475.828H341.191V473.062H333.961V469.008H341.625V466.09H330.422V483Z" fill="black"/>
    <path d="M270.887 185H274.426V179.668H277.684C281.246 179.668 283.625 177.371 283.625 173.891V173.867C283.625 170.387 281.246 168.09 277.684 168.09H270.887V185ZM276.816 170.891C278.844 170.891 280.039 171.957 280.039 173.879V173.902C280.039 175.824 278.844 176.902 276.816 176.902H274.426V170.891H276.816ZM293.352 185.293C298.379 185.293 301.508 181.93 301.508 176.551V176.527C301.508 171.16 298.367 167.797 293.352 167.797C288.348 167.797 285.195 171.148 285.195 176.527V176.551C285.195 181.93 288.324 185.293 293.352 185.293ZM293.352 182.293C290.574 182.293 288.805 180.09 288.805 176.551V176.527C288.805 172.988 290.586 170.797 293.352 170.797C296.129 170.797 297.898 173 297.898 176.527V176.551C297.898 180.055 296.164 182.293 293.352 182.293ZM309.969 185.293C314.234 185.293 316.789 183.23 316.789 179.984V179.973C316.789 177.312 315.195 175.871 311.656 175.168L309.863 174.805C307.918 174.418 307.051 173.797 307.051 172.73V172.719C307.051 171.512 308.141 170.68 309.957 170.668C311.703 170.668 312.922 171.477 313.098 172.801L313.109 172.941H316.449L316.438 172.719C316.273 169.754 313.871 167.797 309.957 167.797C306.207 167.797 303.512 169.836 303.512 172.93V172.941C303.512 175.484 305.199 177.078 308.539 177.746L310.32 178.098C312.418 178.531 313.25 179.105 313.25 180.254V180.266C313.25 181.555 312.02 182.41 310.062 182.41C308.129 182.41 306.734 181.59 306.512 180.277L306.488 180.148H303.148L303.16 180.336C303.359 183.453 305.949 185.293 309.969 185.293ZM322.531 185H326.07V171.008H330.969V168.09H317.645V171.008H322.531V185Z" fill="black"/>
</svg>
