<svg width="599" height="361" viewBox="0 0 599 361" fill="none" xmlns="http://www.w3.org/2000/svg">
    <rect x="0.978148" y="1.20791" width="142" height="94" transform="matrix(0.978148 0.207912 0 1 133.021 137.797)" fill="white" stroke="#FFE000" stroke-width="2"/>
    <path d="M167.063 202.574L169.951 203.187V194.523L176.665 204.614L180.327 205.393L173.144 194.89L179.905 188.503L176.43 187.764L169.951 194.355V186.387L167.063 185.774V202.574ZM188.941 207.224L191.641 207.798V196.998L183.636 195.296L183.472 198.621C183.237 202.747 181.993 203.371 181.077 203.08L181.312 205.818C184.152 206.422 185.561 205.497 186.077 199.727L186.148 198.59L188.941 199.184V207.224ZM197.347 209.01L202.277 203.218V210.058L204.977 210.632V199.832L202.277 199.258L197.347 205.05V198.21L194.647 197.637V208.437L197.347 209.01ZM216.277 210.01C215.666 210.384 214.587 210.635 213.295 210.36C211.629 210.006 210.361 208.849 210.126 207.167L217.756 208.788C217.873 208.405 217.92 208.007 217.92 207.335C217.92 204.311 215.643 201.835 212.92 201.257C209.445 200.518 207.333 202.589 207.333 205.733C207.333 209.141 209.61 211.881 213.014 212.605C214.493 212.919 215.995 212.806 217.051 212.119L216.277 210.01ZM212.802 203.536C214.352 203.865 215.244 205.087 215.22 206.402L210.032 205.299C210.314 203.943 211.183 203.191 212.802 203.536ZM227.419 215.402L230.119 215.976V205.176L227.419 204.602V208.682L222.794 207.699V203.619L220.094 203.046V213.846L222.794 214.419V210.291L227.419 211.274V215.402ZM232.013 208.339L235.487 209.077V217.117L238.187 217.691V209.651L241.638 210.385V207.625L232.013 205.579V208.339Z" fill="#6C7991"/>
    <rect x="0.978148" y="1.20791" width="142" height="94" transform="matrix(0.978148 0.207912 0 1 326.021 111.797)" fill="white" stroke="#7833FF" stroke-width="2"/>
    <path d="M377.752 174.296C376.625 174.944 375.24 175.106 373.855 174.811C370.498 174.098 368.174 171.204 368.174 167.7C368.174 164.052 370.475 162.285 373.526 162.933C375.17 163.283 376.249 163.968 377.235 164.85L378.527 162.94C377.447 161.703 375.663 160.628 373.526 160.173C368.103 159.021 365.122 162.227 365.122 167.051C365.122 172.283 368.573 176.449 373.597 177.516C375.733 177.97 377.822 177.647 378.855 176.738L377.752 174.296ZM388.55 177.407C387.94 177.781 386.86 178.032 385.569 177.757C383.902 177.403 382.634 176.245 382.4 174.563L390.029 176.185C390.146 175.802 390.193 175.404 390.193 174.732C390.193 171.708 387.916 169.232 385.193 168.653C381.719 167.915 379.606 169.986 379.606 173.13C379.606 176.538 381.883 179.278 385.287 180.001C386.766 180.316 388.268 180.203 389.325 179.516L388.55 177.407ZM385.076 170.932C386.625 171.262 387.517 172.483 387.494 173.798L382.306 172.696C382.587 171.339 383.456 170.588 385.076 170.932ZM392.368 186.042L395.068 186.616V181.552C395.678 182.042 396.593 182.405 397.532 182.604C400.913 183.323 403.12 181.248 403.12 177.96C403.12 174.768 401.242 172.064 398.331 171.446C396.969 171.156 395.725 171.468 395.068 172.048V171.016L392.368 170.442V186.042ZM397.485 173.858C399.27 174.237 400.256 175.695 400.256 177.423C400.256 179.223 399.176 180.385 397.298 179.986C396.406 179.797 395.795 179.523 395.068 178.888V174.52C395.725 173.916 396.57 173.664 397.485 173.858ZM405.458 184.025C406.421 184.229 408.346 184.759 409.66 185.038C413.064 185.761 414.684 184.978 414.684 182.842C414.684 181.594 413.909 180.541 412.43 179.867V179.819C413.487 179.875 414.402 179.134 414.402 177.838C414.402 175.87 412.689 174.642 409.613 173.988C407.97 173.639 406.374 173.395 405.458 173.225V184.025ZM409.848 180.374C411.116 180.643 411.844 181.23 411.844 182.046C411.844 182.79 411.139 183.144 409.942 182.89C409.285 182.75 408.557 182.523 408.158 182.415V180.015L409.848 180.374ZM409.848 176.27C410.858 176.484 411.538 177.013 411.538 177.805C411.538 178.645 410.811 178.898 409.919 178.709L408.158 178.335V175.959C408.44 175.994 409.214 176.135 409.848 176.27ZM425.529 185.267C424.918 185.641 423.838 185.892 422.547 185.617C420.881 185.263 419.613 184.105 419.378 182.424L427.008 184.045C427.125 183.662 427.172 183.264 427.172 182.592C427.172 179.568 424.895 177.092 422.172 176.513C418.697 175.775 416.584 177.846 416.584 180.99C416.584 184.398 418.862 187.138 422.266 187.861C423.745 188.176 425.247 188.063 426.303 187.376L425.529 185.267ZM422.054 178.792C423.604 179.122 424.496 180.343 424.472 181.658L419.284 180.556C419.566 179.199 420.434 178.448 422.054 178.792ZM429.346 193.902L432.046 194.476V189.412C432.656 189.902 433.572 190.265 434.511 190.464C437.891 191.183 440.098 189.108 440.098 185.82C440.098 182.628 438.22 179.925 435.309 179.306C433.948 179.016 432.703 179.328 432.046 179.908V178.876L429.346 178.302V193.902ZM434.464 181.718C436.248 182.097 437.234 183.555 437.234 185.283C437.234 187.083 436.154 188.245 434.276 187.846C433.384 187.657 432.774 187.383 432.046 186.748V182.38C432.703 181.776 433.549 181.524 434.464 181.718Z" fill="#7833FF"/>
    <path d="M201 16V15.5L200.511 15.396V15.896L201 16ZM388.804 55.919L389.293 56.023V55.523L388.804 55.419V55.919ZM388.804 116.919L391.628 112.519L385.981 111.319L388.804 116.919ZM201 16.5L388.804 56.419V55.419L201 15.5V16.5ZM388.315 55.8151V112.315L389.293 112.523V56.023L388.315 55.8151ZM201.489 153.104V16.104L200.511 15.896V152.896L201.489 153.104Z" fill="#D3DBE6"/>
    <path d="M237 70V69.5L236.511 69.396V69.896L237 70ZM354.378 94.9494L354.867 95.0534V94.5534L354.378 94.4494V94.9494ZM354.378 114.949L357.201 110.55L351.554 109.349L354.378 114.949ZM237 70.5L354.378 95.4494V94.4494L237 69.5V70.5ZM353.889 94.8454V110.345L354.867 110.553V95.0534L353.889 94.8454ZM237.489 166.104V70.104L236.511 69.896V165.896L237.489 166.104Z" fill="#D3DBE6"/>
    <path d="M388.804 350.919V351.419L389.293 351.523V351.023L388.804 350.919ZM201 311L200.511 310.896V311.396L201 311.5V311ZM388.804 222.919L385.981 227.319L391.628 228.519L388.804 222.919ZM388.804 350.419L201 310.5V311.5L388.804 351.419V350.419ZM388.315 227.315V350.815L389.293 351.023V227.523L388.315 227.315ZM201.489 311.104V247.104L200.511 246.896V310.896L201.489 311.104Z" fill="#D3DBE6"/>
    <path d="M291.931 26.904L293.914 27.3257V28.6457C293.609 28.8808 292.846 28.9946 292.212 28.8599C290.546 28.5056 289.43 27.1046 289.43 25.3166C289.43 23.4446 290.593 22.6116 292.177 22.9484C292.893 23.1006 293.621 23.5073 294.032 23.9906L294.642 22.9444C293.973 22.2622 293.175 21.7805 292.001 21.531C289.489 20.9971 287.905 22.5803 287.905 24.9923C287.905 27.6083 289.501 29.6636 292.189 30.2349C293.21 30.452 294.536 30.3019 295.264 29.7126V26.2326L291.931 25.524V26.904ZM300.799 30.4211C300.494 30.6082 299.954 30.7335 299.309 30.5963C298.475 30.4191 297.841 29.8404 297.724 28.9994L301.539 29.8103C301.597 29.6188 301.621 29.4198 301.621 29.0838C301.621 27.5718 300.482 26.3338 299.121 26.0443C297.384 25.6751 296.327 26.7105 296.327 28.2825C296.327 29.9865 297.466 31.3566 299.168 31.7183C299.907 31.8755 300.658 31.8192 301.187 31.4755L300.799 30.4211ZM299.062 27.1839C299.837 27.3485 300.283 27.9593 300.271 28.6168L297.677 28.0655C297.818 27.3874 298.252 27.0117 299.062 27.1839ZM302.591 30.2619C302.591 31.6419 303.037 32.5287 304.234 32.7832C304.915 32.9279 305.478 32.7837 305.795 32.587L305.384 31.4317C305.196 31.5358 304.938 31.6489 304.574 31.5716C304.128 31.4767 303.941 31.0528 303.941 30.4648V28.4968L305.643 28.8586V27.5626L303.941 27.2008V25.7008L302.591 25.4139V30.2619Z" fill="#10162F"/>
    <path d="M281.142 320.243L281.307 320.278C282.058 320.437 282.973 320.656 283.466 320.761C286.6 321.427 288.173 319.817 288.173 317.453C288.173 315.233 286.847 313.019 283.56 312.321C282.962 312.194 281.788 311.98 281.295 311.875L281.142 311.843V320.243ZM283.537 313.696C285.497 314.112 286.647 315.437 286.647 317.129C286.647 318.905 285.497 319.812 283.513 319.391C283.314 319.348 282.985 319.279 282.586 319.17V313.53C282.915 313.576 283.196 313.623 283.537 313.696ZM293.438 321.344C293.133 321.532 292.593 321.657 291.947 321.52C291.114 321.342 290.48 320.764 290.363 319.923L294.178 320.734C294.236 320.542 294.26 320.343 294.26 320.007C294.26 318.495 293.121 317.257 291.76 316.968C290.022 316.598 288.966 317.634 288.966 319.206C288.966 320.91 290.105 322.28 291.807 322.642C292.546 322.799 293.297 322.742 293.826 322.399L293.438 321.344ZM291.701 318.107C292.476 318.272 292.922 318.883 292.91 319.54L290.316 318.989C290.457 318.311 290.891 317.935 291.701 318.107ZM295.347 321.774C295.347 322.878 295.781 323.474 296.591 323.647C297.225 323.781 297.683 323.675 297.988 323.487L297.706 322.372C297.542 322.457 297.366 322.515 297.155 322.47C296.838 322.403 296.697 322.109 296.697 321.497V315.149L295.347 314.862V321.774ZM302.998 323.376C302.693 323.564 302.153 323.689 301.507 323.552C300.674 323.374 300.04 322.796 299.923 321.955L303.738 322.766C303.796 322.574 303.82 322.375 303.82 322.039C303.82 320.527 302.681 319.289 301.32 319C299.582 318.63 298.526 319.666 298.526 321.238C298.526 322.942 299.664 324.312 301.366 324.674C302.106 324.831 302.857 324.774 303.385 324.431L302.998 323.376ZM301.261 320.139C302.036 320.304 302.482 320.915 302.47 321.572L299.876 321.021C300.017 320.343 300.451 319.967 301.261 320.139ZM304.789 323.217C304.789 324.597 305.236 325.484 306.433 325.738C307.114 325.883 307.677 325.739 307.994 325.542L307.583 324.387C307.395 324.491 307.137 324.604 306.773 324.527C306.327 324.432 306.139 324.008 306.139 323.42V321.452L307.841 321.814V320.518L306.139 320.156V318.656L304.789 318.369V323.217ZM313.074 325.518C312.769 325.705 312.229 325.83 311.583 325.693C310.75 325.516 310.116 324.937 309.998 324.096L313.813 324.907C313.872 324.716 313.895 324.517 313.895 324.181C313.895 322.669 312.757 321.431 311.395 321.141C309.658 320.772 308.602 321.807 308.602 323.379C308.602 325.083 309.74 326.453 311.442 326.815C312.182 326.972 312.933 326.916 313.461 326.572L313.074 325.518ZM311.337 322.281C312.111 322.445 312.557 323.056 312.546 323.714L309.951 323.162C310.092 322.484 310.527 322.109 311.337 322.281Z" fill="#10162F"/>
    <path d="M288.058 75.65V72.614C288.41 72.7248 288.88 72.8246 289.126 72.877C291.086 73.2937 292.131 72.2197 292.131 70.7917C292.131 69.4117 291.368 67.9296 288.95 67.4156C288.375 67.2934 287.072 67.0404 286.614 66.9431V75.3431L288.058 75.65ZM289.091 68.8256C290.077 69.0351 290.605 69.5794 290.605 70.4554C290.605 71.3914 289.936 71.6692 289.079 71.4871C288.751 71.4172 288.398 71.3184 288.058 71.21V68.63C288.445 68.7003 288.797 68.7632 289.091 68.8256ZM292.386 73.87C292.386 75.49 293.513 76.9415 295.262 77.3132C297.011 77.685 298.138 76.7125 298.138 75.0925C298.138 73.4725 297.011 72.021 295.262 71.6492C293.513 71.2775 292.386 72.25 292.386 73.87ZM293.83 74.1768C293.83 73.2408 294.464 72.7756 295.262 72.9452C296.084 73.1199 296.706 73.8761 296.706 74.7881C296.706 75.7241 296.095 76.2064 295.262 76.0292C294.44 75.8546 293.83 75.0768 293.83 74.1768ZM301.982 77.0856C301.982 77.4216 301.677 77.5248 301.29 77.4424C300.761 77.3302 299.963 76.8365 299.646 76.4211L298.989 77.1814C299.235 77.6178 300.221 78.3674 301.196 78.5745C302.487 78.8489 303.332 78.3686 303.332 77.3006C303.332 75.3926 300.48 75.2783 300.48 74.3783C300.48 74.1383 300.726 73.9627 301.137 74.05C301.7 74.1698 302.252 74.551 302.569 74.8704L303.074 73.9937C302.745 73.6118 302.088 73.1001 301.066 72.883C299.975 72.651 299.13 73.0594 299.13 74.1154C299.13 76.0834 301.982 76.2096 301.982 77.0856ZM304.404 77.0724C304.404 78.4524 304.85 79.3392 306.047 79.5937C306.728 79.7384 307.291 79.5942 307.608 79.3976L307.198 78.2422C307.01 78.3463 306.752 78.4594 306.388 78.3821C305.942 78.2873 305.754 77.8634 305.754 77.2754V75.3074L307.456 75.6691V74.3731L305.754 74.0114V72.5114L304.404 72.2244V77.0724Z" fill="#10162F"/>
</svg>
