<svg width="600" height="600" viewBox="0 0 600 600" fill="none" xmlns="http://www.w3.org/2000/svg">
    <path fill-rule="evenodd" clip-rule="evenodd" d="M399.97 117.179C399.97 119.263 399.886 121.328 399.722 123.369C417.218 127.382 430.269 143.048 430.269 161.761C430.269 165.406 429.774 168.935 428.847 172.285C446.131 181.082 457.97 199.039 457.97 219.761C457.97 249.164 434.134 273 404.731 273H328.985H265.358H200.866C168.355 273 142 246.645 142 214.134C142 188.481 158.409 166.661 181.304 158.597C179.948 153.679 179.224 148.499 179.224 143.149C179.224 111.117 205.191 85.1493 237.224 85.1493C242.915 85.1493 248.415 85.9689 253.611 87.4967C265.183 60.1709 292.248 41 323.791 41C365.864 41 399.97 75.1065 399.97 117.179Z" fill="#73FFE5"/>
    <path fill-rule="evenodd" clip-rule="evenodd" d="M211 278C211 266.799 211 261.198 213.18 256.92C215.097 253.157 218.157 250.097 221.92 248.18C226.198 246 231.799 246 243 246H357C368.201 246 373.802 246 378.08 248.18C381.843 250.097 384.903 253.157 386.82 256.92C389 261.198 389 266.799 389 278V518C389 529.201 389 534.802 386.82 539.08C384.903 542.843 381.843 545.903 378.08 547.82C373.802 550 368.201 550 357 550H243C231.799 550 226.198 550 221.92 547.82C218.157 545.903 215.097 542.843 213.18 539.08C211 534.802 211 529.201 211 518V278ZM236 282.6C236 279.24 236 277.56 236.654 276.276C237.229 275.147 238.147 274.229 239.276 273.654C240.56 273 242.24 273 245.6 273H354.4C357.76 273 359.44 273 360.724 273.654C361.853 274.229 362.771 275.147 363.346 276.276C364 277.56 364 279.24 364 282.6V465.4C364 468.76 364 470.44 363.346 471.724C362.771 472.853 361.853 473.771 360.724 474.346C359.44 475 357.76 475 354.4 475H245.6C242.24 475 240.56 475 239.276 474.346C238.147 473.771 237.229 472.853 236.654 471.724C236 470.44 236 468.76 236 465.4V282.6ZM300.5 527C309.06 527 316 520.06 316 511.5C316 502.94 309.06 496 300.5 496C291.94 496 285 502.94 285 511.5C285 520.06 291.94 527 300.5 527Z" fill="#3C4257"/>
    <circle cx="300.001" cy="201.71" r="14.76" stroke="white" stroke-width="14"/>
    <path d="M332.801 170.755C324.579 162.046 312.925 156.61 300.001 156.61C287.078 156.61 275.424 162.046 267.201 170.755" stroke="white" stroke-width="14" stroke-linecap="round"/>
    <path d="M359.001 145.95C344.202 130.297 323.242 120.53 300 120.53C276.759 120.53 255.799 130.297 241 145.95" stroke="white" stroke-width="14" stroke-linecap="round"/>
    <rect x="246" y="283" width="108" height="73" rx="4" fill="#FBE582"/>
    <rect x="246" y="366" width="108" height="73" rx="4" fill="#FBE582"/>
    <path d="M246 453C246 450.791 247.791 449 250 449H350C352.209 449 354 450.791 354 453V475H246V453Z" fill="#FBE582"/>
</svg>
