<svg width="599" height="381" viewBox="0 0 599 381" fill="none" xmlns="http://www.w3.org/2000/svg">
    <path d="M325 126L227.5 185" stroke="#D3DBE6"/>
    <circle r="71.5" transform="matrix(0.975342 0.220697 0 1 227.041 282.484)" fill="white" stroke="#FFE000"/>
    <circle r="71.5" transform="matrix(0.975342 0.220697 0 1 211.436 279.953)" fill="white" stroke="#FFE000"/>
    <circle r="71.5" transform="matrix(0.975342 0.220697 0 1 195.83 277.421)" fill="white" stroke="#FFE000"/>
    <circle r="71" transform="matrix(0.975342 0.220697 0 1 180.225 274.89)" fill="#FFE000" stroke="#FFE000" stroke-width="2"/>
    <path d="M136.633 251.027L139.489 251.673V234.873L129.166 232.537L128.932 235.844C128.206 245.808 126.544 245.984 125.28 245.53L125.21 248.442C128.44 249.653 130.571 248.551 131.53 239L131.858 235.906L136.633 236.987V251.027ZM142.591 246.975C142.591 250.215 144.838 253.147 148.326 253.936C151.814 254.726 154.061 252.81 154.061 249.57C154.061 246.33 151.814 243.398 148.326 242.608C144.838 241.819 142.591 243.735 142.591 246.975ZM145.47 247.626C145.47 245.754 146.734 244.84 148.326 245.2C149.965 245.571 151.205 247.1 151.205 248.924C151.205 250.796 149.988 251.744 148.326 251.368C146.688 250.998 145.47 249.426 145.47 247.626ZM166.363 246.954L162.968 246.186L159.176 250.68L163.343 257.07L166.854 257.865L162.313 251.173L166.363 246.954ZM156.391 255.497L159.083 256.106V245.306L156.391 244.697V255.497ZM169.257 250.393C170.03 250.207 170.802 249.998 172.019 250.274C173.588 250.628 174.056 251.718 173.986 253.502C173.471 253.002 172.534 252.478 171.598 252.266C169.468 251.784 167.759 252.526 167.759 254.902C167.759 256.99 169.14 258.526 171.059 258.96C172.487 259.283 173.611 258.962 174.173 258.273V259.521L176.514 260.051V253.475C176.514 250.619 175.413 248.738 172.3 248.033C170.919 247.721 169.491 247.878 168.578 248.223L169.257 250.393ZM171.949 256.834C171.106 256.643 170.451 256.039 170.451 255.223C170.451 254.311 171.247 254.059 172.136 254.26C172.909 254.435 173.517 254.741 173.986 255.206V256.31C173.658 256.716 173.073 257.088 171.949 256.834ZM186.202 262.243L188.894 262.852V252.052L180.912 250.246L180.748 253.569C180.514 257.692 179.273 258.299 178.36 257.996L178.594 260.737C181.427 261.378 182.831 260.472 183.346 254.709L183.416 253.572L186.202 254.203V262.243ZM191.892 263.53L195.824 264.42C199.406 265.23 200.67 263.477 200.67 261.413C200.67 259.493 199.616 257.43 196.035 256.62L194.584 256.291V253.339L191.892 252.73V263.53ZM195.801 258.775C197.252 259.103 197.814 259.878 197.814 260.862C197.814 261.846 197.229 262.338 195.777 262.009L194.584 261.739V258.499L195.801 258.775ZM210.122 267.655L212.814 268.264V257.464L210.122 256.855V260.935L205.511 259.892V255.812L202.819 255.203V266.003L205.511 266.612V262.484L210.122 263.527V267.655ZM216.622 261.11C217.395 260.925 218.167 260.716 219.384 260.991C220.953 261.346 221.421 262.436 221.351 264.22C220.836 263.72 219.899 263.196 218.963 262.984C216.833 262.502 215.124 263.243 215.124 265.619C215.124 267.707 216.505 269.244 218.425 269.678C219.852 270.001 220.976 269.679 221.538 268.99V270.238L223.879 270.768V264.192C223.879 261.336 222.778 259.455 219.665 258.751C218.284 258.438 216.856 258.595 215.943 258.941L216.622 261.11ZM219.314 267.551C218.471 267.361 217.816 266.756 217.816 265.94C217.816 265.028 218.612 264.776 219.501 264.978C220.274 265.152 220.882 265.458 221.351 265.924V267.028C221.023 267.434 220.438 267.806 219.314 267.551ZM231.788 261.758C227.996 260.9 226.545 262.323 226.545 264.411C226.545 266.187 227.668 267.45 228.581 267.992L225.772 271.197L228.862 271.896L231.039 269.148L232.537 269.487V272.727L235.229 273.336V262.536L231.788 261.758ZM229.424 265.255C229.424 264.439 230.032 263.761 231.343 264.057L232.537 264.327V267.447L231.133 267.13C230.29 266.939 229.424 266.143 229.424 265.255ZM167.355 272.914C166.254 273.961 164.99 273.171 162.673 273.655C159.466 274.345 158.693 277.914 158.693 281.442C158.693 285.642 160.87 288.775 164.405 289.575C167.729 290.327 169.929 288.281 169.929 285.257C169.929 282.017 168.033 279.524 165.131 278.867C163.586 278.517 162.088 279.018 161.432 280.046L161.385 280.035C161.549 278.368 162.134 276.893 163.656 276.517C165.693 275.946 167.378 276.855 168.759 275.488L167.355 272.914ZM161.573 282.67C161.924 281.645 162.954 280.942 164.452 281.281C166.161 281.668 167.05 283.117 167.05 284.725C167.05 286.285 166.044 287.377 164.335 286.991C162.626 286.604 161.596 284.763 161.573 282.67ZM173.086 283.259C173.859 283.074 174.631 282.865 175.848 283.14C177.417 283.495 177.885 284.585 177.815 286.369C177.3 285.868 176.363 285.344 175.427 285.133C173.297 284.651 171.588 285.392 171.588 287.768C171.588 289.856 172.969 291.392 174.888 291.827C176.316 292.15 177.44 291.828 178.002 291.139V292.387L180.343 292.917V286.341C180.343 283.485 179.242 281.604 176.129 280.9C174.748 280.587 173.32 280.744 172.407 281.089L173.086 283.259ZM175.778 289.7C174.935 289.509 174.28 288.905 174.28 288.089C174.28 287.177 175.076 286.925 175.965 287.126C176.738 287.301 177.346 287.607 177.815 288.073V289.177C177.487 289.583 176.902 289.954 175.778 289.7ZM186.824 294.648C189.68 295.294 191.599 294.48 191.599 292.464C191.599 291.216 190.85 290.039 189.376 289.417V289.369C190.616 289.218 191.318 288.441 191.318 287.409C191.318 285.537 189.891 284.013 187.105 283.383C185.115 282.933 183.547 283.25 182.587 284.185L183.711 286.095C184.366 285.667 185.373 285.223 186.59 285.499C187.76 285.763 188.439 286.349 188.439 287.093C188.439 287.789 187.924 288.296 187.035 288.095L185.186 287.677V289.525L187.152 289.97C188.182 290.203 188.744 290.834 188.744 291.554C188.744 292.322 187.995 292.704 186.59 292.387C185.583 292.159 184.249 291.257 183.617 290.394L182.236 291.809C183.009 292.992 184.951 294.224 186.824 294.648ZM194.963 288.209C195.735 288.024 196.508 287.815 197.725 288.09C199.293 288.445 199.761 289.535 199.691 291.319C199.176 290.819 198.24 290.295 197.303 290.083C195.173 289.601 193.465 290.342 193.465 292.718C193.465 294.806 194.846 296.343 196.765 296.777C198.193 297.1 199.317 296.778 199.878 296.089V297.337L202.219 297.867V291.291C202.219 288.435 201.119 286.554 198.006 285.85C196.625 285.537 195.197 285.694 194.284 286.04L194.963 288.209ZM197.655 294.65C196.812 294.46 196.156 293.855 196.156 293.039C196.156 292.127 196.952 291.875 197.842 292.077C198.614 292.251 199.223 292.557 199.691 293.023V294.127C199.363 294.533 198.778 294.904 197.655 294.65ZM142.017 318.765L144.521 319.331V316.811L151.989 318.501V321.021L154.517 321.593V316.505L152.761 316.108V307.876L144.99 306.117L144.826 308.672C144.685 311.089 144.1 313.14 143.351 313.979L142.017 313.677V318.765ZM147.424 310.364L147.494 309.276L150.069 309.859V315.499L146.16 314.614C146.628 314.048 147.213 312.597 147.424 310.364ZM157.107 311.643C157.88 311.458 158.652 311.249 159.869 311.524C161.438 311.879 161.906 312.969 161.836 314.753C161.321 314.253 160.384 313.729 159.448 313.517C157.318 313.035 155.609 313.776 155.609 316.152C155.609 318.24 156.99 319.777 158.91 320.211C160.338 320.534 161.461 320.212 162.023 319.524V320.772L164.364 321.301V314.725C164.364 311.869 163.264 309.988 160.15 309.284C158.769 308.971 157.341 309.128 156.428 309.474L157.107 311.643ZM159.799 318.084C158.956 317.894 158.301 317.289 158.301 316.473C158.301 315.561 159.097 315.31 159.986 315.511C160.759 315.686 161.367 315.991 161.836 316.457V317.561C161.508 317.967 160.923 318.339 159.799 318.084ZM174.427 323.578L177.119 324.187V313.387L174.427 312.778V316.858L169.815 315.815V311.735L167.123 311.126V321.926L169.815 322.535V318.407L174.427 319.45V323.578ZM187.411 326.516L190.103 327.125V316.325L187.411 315.716V319.796L182.8 318.753V314.673L180.108 314.064V324.864L182.8 325.473V321.345L187.411 322.388V326.516ZM193.092 327.802L196.884 328.66C200.465 329.47 201.729 327.716 201.729 325.652C201.729 323.732 200.676 321.67 197.095 320.86L195.784 320.563V317.611L193.092 317.002V327.802ZM203.228 330.095L205.92 330.704V319.904L203.228 319.295V330.095ZM196.861 323.015C198.312 323.343 198.874 324.118 198.874 325.102C198.874 326.086 198.288 326.578 196.837 326.249L195.784 326.011V322.771L196.861 323.015ZM218.976 322.859L215.863 322.154L213.569 325.211L211.345 321.132L208.045 320.385L211.556 326.484L207.81 331.132L210.924 331.837L213.475 328.526L215.933 332.97L219.21 333.712L215.465 327.224L218.976 322.859Z" fill="#6C7991"/>
    <circle r="71.5" transform="matrix(0.978148 0.207912 0 1 420.378 280.949)" fill="white" stroke="#7833FF"/>
    <circle r="71.5" transform="matrix(0.978148 0.207912 0 1 404.727 278.623)" fill="white" stroke="#7833FF"/>
    <circle r="71.5" transform="matrix(0.978148 0.207912 0 1 389.077 276.296)" fill="white" stroke="#7833FF"/>
    <circle r="71" transform="matrix(0.978148 0.207912 0 1 373.427 273.97)" fill="#7833FF" stroke="#7833FF" stroke-width="2"/>
    <path d="M331.412 248.199C330.285 248.848 328.9 249.009 327.515 248.715C324.158 248.001 321.834 245.107 321.834 241.603C321.834 237.955 324.135 236.188 327.186 236.837C328.83 237.186 329.91 237.872 330.896 238.753L332.187 236.844C331.107 235.606 329.323 234.531 327.186 234.077C321.764 232.924 318.782 236.131 318.782 240.955C318.782 246.187 322.233 250.352 327.257 251.42C329.393 251.874 331.483 251.55 332.515 250.642L331.412 248.199ZM342.21 251.31C341.6 251.685 340.52 251.935 339.229 251.661C337.562 251.306 336.294 250.149 336.06 248.467L343.689 250.089C343.807 249.706 343.854 249.308 343.854 248.636C343.854 245.612 341.576 243.136 338.853 242.557C335.379 241.818 333.266 243.889 333.266 247.033C333.266 250.441 335.543 253.181 338.947 253.905C340.426 254.219 341.929 254.106 342.985 253.419L342.21 251.31ZM338.736 244.836C340.285 245.165 341.177 246.387 341.154 247.702L335.966 246.599C336.248 245.243 337.116 244.492 338.736 244.836ZM346.028 259.946L348.728 260.52V255.456C349.338 255.945 350.254 256.308 351.193 256.508C354.573 257.226 356.78 255.151 356.78 251.863C356.78 248.671 354.902 245.968 351.991 245.349C350.629 245.06 349.385 245.371 348.728 245.952V244.92L346.028 244.346V259.946ZM351.146 247.762C352.93 248.141 353.916 249.598 353.916 251.326C353.916 253.126 352.836 254.289 350.958 253.89C350.066 253.7 349.455 253.426 348.728 252.792V248.424C349.385 247.819 350.23 247.567 351.146 247.762ZM359.118 257.928C360.081 258.133 362.006 258.662 363.32 258.941C366.724 259.665 368.344 258.881 368.344 256.745C368.344 255.497 367.57 254.445 366.091 253.77V253.722C367.147 253.779 368.063 253.037 368.063 251.741C368.063 249.773 366.349 248.545 363.274 247.891C361.63 247.542 360.034 247.299 359.118 247.128V257.928ZM363.508 254.277C364.776 254.547 365.504 255.134 365.504 255.95C365.504 256.694 364.799 257.048 363.602 256.793C362.945 256.654 362.217 256.427 361.818 256.318V253.918L363.508 254.277ZM363.508 250.173C364.518 250.388 365.199 250.917 365.199 251.709C365.199 252.549 364.471 252.802 363.579 252.612L361.818 252.238V249.862C362.1 249.898 362.874 250.039 363.508 250.173ZM379.189 259.17C378.578 259.545 377.499 259.795 376.207 259.521C374.541 259.166 373.273 258.009 373.038 256.327L380.668 257.949C380.785 257.566 380.832 257.168 380.832 256.496C380.832 253.472 378.555 250.996 375.832 250.417C372.357 249.678 370.245 251.749 370.245 254.893C370.245 258.301 372.522 261.041 375.926 261.765C377.405 262.079 378.907 261.967 379.964 261.279L379.189 259.17ZM375.714 252.696C377.264 253.025 378.156 254.247 378.132 255.562L372.944 254.459C373.226 253.103 374.095 252.352 375.714 252.696ZM383.007 267.806L385.706 268.38V263.316C386.317 263.805 387.232 264.168 388.171 264.368C391.552 265.086 393.758 263.011 393.758 259.723C393.758 256.531 391.88 253.828 388.969 253.209C387.608 252.92 386.364 253.231 385.706 253.812V252.78L383.007 252.206V267.806ZM388.124 255.622C389.908 256.001 390.894 257.458 390.894 259.186C390.894 260.986 389.814 262.149 387.936 261.75C387.044 261.56 386.434 261.286 385.706 260.652V256.284C386.364 255.679 387.209 255.427 388.124 255.622ZM403.421 267.345L406.121 267.919V257.119L403.421 256.545V260.625L398.797 259.642V255.562L396.097 254.988V265.788L398.797 266.362V262.234L403.421 263.217V267.345ZM409.94 260.715C410.715 260.519 411.49 260.3 412.71 260.56C414.283 260.894 414.753 261.978 414.682 263.763C414.166 263.269 413.227 262.757 412.288 262.558C410.151 262.104 408.438 262.867 408.438 265.243C408.438 267.331 409.823 268.85 411.748 269.259C413.18 269.563 414.307 269.227 414.87 268.531V269.779L417.218 270.278V263.702C417.218 260.846 416.114 258.979 412.992 258.315C411.607 258.021 410.175 258.197 409.259 258.554L409.94 260.715ZM412.64 267.121C411.795 266.941 411.137 266.345 411.137 265.529C411.137 264.617 411.936 264.355 412.828 264.545C413.602 264.709 414.213 265.007 414.682 265.467V266.571C414.354 266.981 413.767 267.36 412.64 267.121ZM425.15 261.164C421.347 260.355 419.891 261.798 419.891 263.886C419.891 265.662 421.018 266.909 421.934 267.44L419.117 270.681L422.215 271.34L424.399 268.564L425.901 268.883V272.123L428.601 272.697V261.897L425.15 261.164ZM422.779 264.692C422.779 263.876 423.389 263.189 424.704 263.469L425.901 263.723V266.843L424.492 266.544C423.647 266.364 422.779 265.58 422.779 264.692ZM360.519 273.162C359.416 274.224 358.148 273.45 355.824 273.964C352.608 274.696 351.833 278.276 351.833 281.804C351.833 286.004 354.017 289.108 357.561 289.861C360.895 290.57 363.102 288.495 363.102 285.471C363.102 282.231 361.2 279.763 358.289 279.144C356.74 278.815 355.237 279.335 354.58 280.372L354.533 280.362C354.697 278.693 355.284 277.209 356.81 276.814C358.853 276.216 360.543 277.103 361.928 275.717L360.519 273.162ZM354.721 282.994C355.073 281.964 356.106 281.248 357.608 281.567C359.322 281.932 360.214 283.369 360.214 284.977C360.214 286.537 359.205 287.643 357.491 287.278C355.777 286.914 354.744 285.087 354.721 282.994ZM366.267 283.432C367.042 283.237 367.817 283.017 369.038 283.277C370.61 283.611 371.08 284.695 371.009 286.48C370.493 285.986 369.554 285.474 368.615 285.275C366.479 284.821 364.765 285.584 364.765 287.96C364.765 290.048 366.15 291.567 368.075 291.976C369.507 292.28 370.634 291.944 371.197 291.248V292.496L373.545 292.995V286.419C373.545 283.563 372.441 281.696 369.319 281.033C367.934 280.738 366.502 280.914 365.587 281.271L366.267 283.432ZM368.967 289.838C368.122 289.658 367.465 289.062 367.465 288.246C367.465 287.334 368.263 287.072 369.155 287.262C369.93 287.426 370.54 287.724 371.009 288.184V289.288C370.681 289.698 370.094 290.077 368.967 289.838ZM380.045 294.64C382.909 295.249 384.834 294.41 384.834 292.394C384.834 291.146 384.083 289.979 382.604 289.376V289.328C383.848 289.161 384.552 288.374 384.552 287.342C384.552 285.47 383.12 283.966 380.327 283.372C378.331 282.948 376.758 283.286 375.796 284.233L376.923 286.129C377.58 285.692 378.589 285.235 379.81 285.494C380.984 285.744 381.665 286.321 381.665 287.065C381.665 287.761 381.148 288.275 380.256 288.085L378.402 287.691V289.539L380.374 289.958C381.407 290.178 381.97 290.802 381.97 291.522C381.97 292.29 381.219 292.682 379.81 292.382C378.801 292.168 377.463 291.283 376.829 290.429L375.444 291.862C376.218 293.035 378.167 294.241 380.045 294.64ZM388.207 288.095C388.982 287.9 389.756 287.681 390.977 287.94C392.55 288.274 393.019 289.358 392.949 291.143C392.433 290.649 391.494 290.138 390.555 289.938C388.418 289.484 386.705 290.248 386.705 292.624C386.705 294.712 388.09 296.23 390.015 296.639C391.447 296.944 392.573 296.607 393.137 295.911V297.159L395.484 297.658V291.082C395.484 288.226 394.381 286.36 391.259 285.696C389.874 285.402 388.442 285.577 387.526 285.935L388.207 288.095ZM390.907 294.501C390.062 294.321 389.404 293.726 389.404 292.91C389.404 291.998 390.202 291.735 391.094 291.925C391.869 292.09 392.48 292.387 392.949 292.847V293.951C392.62 294.361 392.033 294.741 390.907 294.501ZM335.109 319.345L337.621 319.879V317.359L345.109 318.951V321.471L347.645 322.009V316.921L345.884 316.547V308.315L338.09 306.659L337.926 309.216C337.785 311.634 337.198 313.693 336.447 314.541L335.109 314.257V319.345ZM340.532 310.874L340.602 309.785L343.184 310.333V315.973L339.264 315.14C339.733 314.568 340.32 313.109 340.532 310.874ZM350.243 312.026C351.017 311.83 351.792 311.611 353.013 311.87C354.586 312.205 355.055 313.289 354.985 315.074C354.468 314.58 353.529 314.068 352.59 313.869C350.454 313.415 348.74 314.178 348.74 316.554C348.74 318.642 350.125 320.161 352.05 320.57C353.482 320.874 354.609 320.538 355.172 319.842V321.09L357.52 321.589V315.013C357.52 312.157 356.417 310.29 353.294 309.626C351.909 309.332 350.477 309.508 349.562 309.865L350.243 312.026ZM352.942 318.432C352.097 318.252 351.44 317.656 351.44 316.84C351.44 315.928 352.238 315.666 353.13 315.855C353.905 316.02 354.515 316.318 354.985 316.778V317.882C354.656 318.292 354.069 318.671 352.942 318.432ZM367.612 323.734L370.312 324.307V313.507L367.612 312.934V317.014L362.987 316.031V311.951L360.288 311.377V322.177L362.987 322.751V318.623L367.612 319.606V323.734ZM380.634 326.501L383.333 327.075V316.275L380.634 315.701V319.781L376.009 318.798V314.718L373.309 314.145V324.945L376.009 325.518V321.39L380.634 322.373V326.501ZM386.331 327.712L390.134 328.521C393.726 329.284 394.993 327.514 394.993 325.45C394.993 323.53 393.937 321.481 390.345 320.718L389.03 320.438V317.486L386.331 316.912V327.712ZM396.496 329.873L399.195 330.447V319.647L396.496 319.073V329.873ZM390.11 322.876C391.566 323.185 392.129 323.953 392.129 324.937C392.129 325.921 391.542 326.42 390.087 326.111L389.03 325.886V322.646L390.11 322.876ZM412.29 322.43L409.167 321.767L406.867 324.853L404.637 320.803L401.326 320.1L404.848 326.152L401.092 330.85L404.214 331.514L406.773 328.17L409.238 332.581L412.524 333.28L408.768 326.842L412.29 322.43Z" fill="white"/>
    <path d="M178 228L180.887 223H175.113L178 228ZM177.5 109V223.5H178.5V109H177.5Z" fill="#D3DBE6"/>
    <path d="M371 228L373.887 223H368.113L371 228ZM370.5 109V223.5H371.5V109H370.5Z" fill="#D3DBE6"/>
    <rect width="109" height="39" transform="matrix(0.978148 0.207912 0 1 132 126)" fill="#FFEF7F"/>
    <path d="M154.578 151.879C154.014 152.203 153.322 152.284 152.629 152.137C150.951 151.78 149.789 150.333 149.789 148.581C149.789 146.757 150.939 145.874 152.465 146.198C153.286 146.373 153.826 146.715 154.319 147.156L154.965 146.201C154.425 145.583 153.533 145.045 152.465 144.818C149.753 144.242 148.263 145.845 148.263 148.257C148.263 150.873 149.988 152.955 152.5 153.489C153.568 153.716 154.613 153.555 155.129 153.1L154.578 151.879ZM159.977 153.435C159.671 153.622 159.132 153.747 158.486 153.61C157.653 153.433 157.019 152.854 156.901 152.013L160.716 152.824C160.775 152.632 160.798 152.433 160.798 152.097C160.798 150.585 159.66 149.347 158.298 149.058C156.561 148.689 155.505 149.724 155.505 151.296C155.505 153 156.643 154.37 158.345 154.732C159.085 154.889 159.836 154.833 160.364 154.489L159.977 153.435ZM158.239 150.197C159.014 150.362 159.46 150.973 159.448 151.63L156.854 151.079C156.995 150.401 157.43 150.025 158.239 150.197ZM161.885 157.752L163.235 158.039V155.507C163.541 155.752 163.998 155.933 164.468 156.033C166.158 156.393 167.261 155.355 167.261 153.711C167.261 152.115 166.322 150.763 164.867 150.454C164.186 150.309 163.564 150.465 163.235 150.755V150.239L161.885 149.952V157.752ZM164.444 151.66C165.336 151.85 165.829 152.579 165.829 153.443C165.829 154.343 165.289 154.924 164.35 154.724C163.904 154.629 163.599 154.493 163.235 154.175V151.991C163.564 151.689 163.987 151.563 164.444 151.66ZM169.781 157.031L172.245 154.134V157.554L173.595 157.841V152.441L172.245 152.154L169.781 155.051V151.631L168.431 151.344V156.744L169.781 157.031ZM175.513 154.241C175.9 154.143 176.287 154.034 176.898 154.163C177.684 154.331 177.919 154.872 177.884 155.765C177.626 155.518 177.156 155.262 176.687 155.162C175.618 154.935 174.762 155.317 174.762 156.505C174.762 157.549 175.454 158.308 176.417 158.513C177.133 158.665 177.696 158.497 177.978 158.149V158.773L179.151 159.022V155.734C179.151 154.306 178.6 153.373 177.039 153.041C176.346 152.894 175.63 152.982 175.172 153.161L175.513 154.241ZM176.863 157.444C176.44 157.354 176.111 157.056 176.111 156.648C176.111 156.192 176.51 156.061 176.957 156.156C177.344 156.238 177.649 156.387 177.884 156.617V157.169C177.719 157.374 177.426 157.564 176.863 157.444ZM184.01 160.055L185.359 160.342V154.942L181.357 154.091L181.275 155.754C181.157 157.817 180.535 158.128 180.077 157.983L180.195 159.352C181.615 159.654 182.319 159.192 182.578 156.307L182.613 155.738L184.01 156.035V160.055ZM188.212 160.948L190.677 158.052V161.472L192.027 161.759V156.359L190.677 156.072L188.212 158.968V155.548L186.863 155.261V160.661L188.212 160.948ZM195.4 162.608C196.832 162.913 197.795 162.493 197.795 161.485C197.795 160.861 197.419 160.277 196.68 159.976V159.952C197.302 159.868 197.654 159.475 197.654 158.959C197.654 158.023 196.938 157.271 195.541 156.974C194.543 156.762 193.757 156.931 193.276 157.405L193.839 158.352C194.168 158.134 194.672 157.905 195.283 158.035C195.87 158.16 196.21 158.448 196.21 158.82C196.21 159.168 195.952 159.425 195.506 159.331L194.579 159.133V160.057L195.565 160.267C196.081 160.377 196.363 160.689 196.363 161.049C196.363 161.433 195.987 161.629 195.283 161.479C194.778 161.372 194.109 160.93 193.792 160.502L193.1 161.219C193.487 161.805 194.461 162.409 195.4 162.608ZM199.481 159.336C199.869 159.238 200.256 159.128 200.866 159.258C201.653 159.425 201.887 159.967 201.852 160.86C201.594 160.613 201.124 160.357 200.655 160.257C199.587 160.03 198.73 160.412 198.73 161.6C198.73 162.644 199.423 163.403 200.385 163.608C201.101 163.76 201.664 163.592 201.946 163.244V163.868L203.12 164.117V160.829C203.12 159.401 202.568 158.468 201.007 158.136C200.315 157.989 199.599 158.077 199.141 158.255L199.481 159.336ZM200.831 162.539C200.408 162.449 200.08 162.151 200.08 161.743C200.08 161.287 200.479 161.156 200.925 161.25C201.312 161.333 201.617 161.482 201.852 161.712V162.264C201.688 162.469 201.394 162.658 200.831 162.539ZM204.504 164.411L208.988 165.364V166.624L210.255 166.894V164.35L209.375 164.163V160.047L208.025 159.76V163.876L205.854 163.414V159.298L204.504 159.011V164.411ZM212.502 166.111L214.967 163.215V166.635L216.317 166.922V161.522L214.967 161.235L212.502 164.131V160.711L211.152 160.424V165.824L212.502 166.111ZM220.406 162.391C218.504 161.987 217.776 162.708 217.776 163.752C217.776 164.64 218.34 165.264 218.798 165.529L217.389 167.15L218.938 167.479L220.03 166.091L220.781 166.251V167.871L222.131 168.158V162.758L220.406 162.391ZM219.22 164.155C219.22 163.747 219.525 163.404 220.183 163.544L220.781 163.671V165.231L220.077 165.081C219.654 164.992 219.22 164.599 219.22 164.155Z" fill="#10162F"/>
    <rect width="122" height="39" transform="matrix(0.978148 0.207912 0 1 325 126)" fill="#BB98FF"/>
    <path d="M342.193 154.154L340.843 153.868V150.988L341.723 151.175C341.958 150.945 342.212 150.379 342.486 149.477C342.768 148.553 342.936 147.428 342.991 146.104L343.073 144.442L348.167 145.524V152.544L349.282 152.781V155.661L347.932 155.374V153.874L342.193 152.654V154.154ZM344.47 146.118L344.341 147.555C344.27 148.548 344.125 149.401 343.906 150.115C343.679 150.858 343.48 151.324 343.308 151.511L346.735 152.24V146.6L344.47 146.118ZM354.274 153.71L354.661 154.765C354.137 155.101 353.464 155.182 352.642 155.008C351.797 154.828 351.109 154.422 350.576 153.788C350.06 153.167 349.802 152.428 349.802 151.572C349.802 150.772 350.056 150.154 350.565 149.718C351.073 149.282 351.75 149.154 352.595 149.334C353.292 149.482 353.883 149.843 354.368 150.418C354.853 150.993 355.095 151.645 355.095 152.373C355.095 152.693 355.068 152.935 355.013 153.1L351.199 152.289C351.253 152.692 351.422 153.036 351.703 153.32C351.993 153.606 352.353 153.794 352.783 153.885C353.37 154.01 353.867 153.952 354.274 153.71ZM352.537 150.473C351.77 150.31 351.308 150.604 351.152 151.355L353.746 151.906C353.753 151.564 353.644 151.26 353.417 150.996C353.198 150.726 352.904 150.551 352.537 150.473ZM360.151 154.66L360.785 155.802C360.339 156.331 359.638 156.495 358.684 156.292C357.831 156.11 357.138 155.703 356.606 155.07C356.082 154.447 355.82 153.707 355.82 152.851C355.82 152.043 356.078 151.426 356.594 151C357.111 150.565 357.764 150.432 358.555 150.6C359.494 150.8 360.202 151.194 360.679 151.784L360.045 152.741C359.685 152.313 359.247 152.043 358.731 151.934C358.339 151.851 357.995 151.921 357.698 152.146C357.408 152.357 357.263 152.694 357.263 153.158C357.263 153.622 357.412 154.029 357.709 154.381C358.022 154.727 358.382 154.944 358.789 155.03C359.314 155.142 359.767 155.018 360.151 154.66ZM365.725 156.144L366.112 157.199C365.588 157.535 364.915 157.616 364.093 157.442C363.248 157.262 362.56 156.856 362.028 156.222C361.511 155.601 361.253 154.862 361.253 154.006C361.253 153.206 361.507 152.588 362.016 152.152C362.525 151.716 363.201 151.588 364.047 151.768C364.743 151.916 365.334 152.277 365.819 152.852C366.304 153.427 366.547 154.079 366.547 154.807C366.547 155.127 366.519 155.369 366.465 155.534L362.65 154.723C362.705 155.126 362.873 155.47 363.154 155.754C363.444 156.04 363.804 156.228 364.234 156.32C364.821 156.444 365.318 156.386 365.725 156.144ZM363.988 152.907C363.221 152.744 362.759 153.038 362.603 153.789L365.197 154.34C365.205 153.998 365.095 153.694 364.868 153.43C364.649 153.16 364.356 152.985 363.988 152.907ZM368.984 160.749L367.634 160.462V152.662L368.984 152.949V153.465C369.156 153.31 369.391 153.204 369.688 153.147C369.985 153.09 370.294 153.096 370.615 153.164C371.343 153.319 371.922 153.698 372.352 154.301C372.791 154.914 373.01 155.621 373.01 156.421C373.01 157.261 372.752 157.902 372.235 158.344C371.719 158.786 371.046 158.919 370.216 158.743C369.684 158.63 369.273 158.455 368.984 158.217V160.749ZM370.193 154.37C369.723 154.27 369.32 154.381 368.984 154.701V156.885C369.305 157.161 369.676 157.344 370.099 157.434C370.545 157.529 370.901 157.457 371.167 157.217C371.441 156.979 371.578 156.624 371.578 156.152C371.578 155.704 371.453 155.318 371.202 154.993C370.96 154.669 370.623 154.462 370.193 154.37ZM377.994 156.844L375.529 159.74L374.179 159.453V154.053L375.529 154.34V157.76L377.994 154.864L379.344 155.151V160.551L377.994 160.264V156.844ZM381.261 156.951L380.921 155.87C381.492 155.648 382.114 155.608 382.787 155.751C383.523 155.907 384.059 156.205 384.395 156.645C384.732 157.084 384.9 157.684 384.9 158.444V161.732L383.726 161.483V160.859C383.413 161.256 382.893 161.377 382.165 161.223C381.664 161.116 381.261 160.883 380.956 160.522C380.659 160.155 380.51 159.719 380.51 159.215C380.51 158.655 380.686 158.26 381.038 158.031C381.39 157.802 381.856 157.749 382.435 157.872C382.912 157.974 383.311 158.174 383.632 158.475C383.648 157.998 383.577 157.631 383.421 157.374C383.272 157.118 383.014 156.951 382.646 156.873C382.239 156.787 381.778 156.812 381.261 156.951ZM382.611 160.154C383.065 160.25 383.405 160.158 383.632 159.879V159.327C383.413 159.104 383.104 158.95 382.705 158.866C382.455 158.812 382.251 158.829 382.095 158.916C381.938 159.003 381.86 159.15 381.86 159.358C381.86 159.55 381.93 159.721 382.071 159.871C382.212 160.013 382.392 160.107 382.611 160.154ZM391.108 163.052L389.758 162.765V158.745L388.361 158.448L388.326 159.016C388.224 159.971 388.076 160.683 387.88 161.154C387.692 161.626 387.45 161.922 387.152 162.043C386.863 162.157 386.46 162.164 385.943 162.062L385.826 160.693C385.998 160.738 386.158 160.724 386.307 160.651C386.479 160.56 386.632 160.324 386.765 159.945C386.898 159.565 386.984 159.071 387.023 158.463L387.105 156.801L391.108 157.652V163.052ZM396.426 160.762L393.961 163.658L392.611 163.371V157.971L393.961 158.258V161.678L396.426 158.782L397.776 159.069V164.469L396.426 164.182V160.762ZM401.149 165.318C400.687 165.22 400.237 165.04 399.799 164.779C399.361 164.51 399.044 164.226 398.848 163.929L399.541 163.212C399.697 163.429 399.92 163.633 400.21 163.822C400.499 164.012 400.773 164.134 401.031 164.189C401.376 164.262 401.642 164.259 401.829 164.179C402.017 164.099 402.111 163.958 402.111 163.758C402.111 163.574 402.041 163.412 401.9 163.27C401.759 163.128 401.563 163.03 401.313 162.977L400.327 162.767V161.843L401.254 162.04C401.466 162.085 401.634 162.061 401.759 161.968C401.892 161.868 401.959 161.722 401.959 161.53C401.959 161.138 401.649 160.876 401.031 160.745C400.546 160.642 400.065 160.748 399.587 161.062L399.024 160.114C399.525 159.613 400.28 159.469 401.289 159.684C401.97 159.829 402.491 160.075 402.851 160.424C403.218 160.766 403.402 161.181 403.402 161.669C403.402 161.933 403.316 162.155 403.144 162.334C402.972 162.513 402.733 162.623 402.428 162.662V162.686C402.78 162.833 403.054 163.043 403.25 163.316C403.445 163.582 403.543 163.875 403.543 164.195C403.543 164.699 403.324 165.052 402.886 165.255C402.455 165.452 401.876 165.473 401.149 165.318ZM405.23 162.045L404.889 160.965C405.46 160.742 406.083 160.703 406.756 160.846C407.491 161.002 408.027 161.3 408.364 161.739C408.7 162.179 408.868 162.779 408.868 163.539V166.827L407.695 166.577V165.953C407.382 166.351 406.861 166.472 406.133 166.317C405.633 166.211 405.23 165.977 404.924 165.616C404.627 165.249 404.478 164.814 404.478 164.31C404.478 163.75 404.654 163.355 405.007 163.126C405.359 162.897 405.824 162.844 406.403 162.967C406.881 163.068 407.28 163.269 407.601 163.569C407.616 163.093 407.546 162.726 407.389 162.468C407.241 162.213 406.982 162.046 406.615 161.968C406.208 161.881 405.746 161.907 405.23 162.045ZM406.579 165.248C407.033 165.345 407.374 165.253 407.601 164.973V164.421C407.382 164.199 407.072 164.045 406.673 163.96C406.423 163.907 406.219 163.924 406.063 164.01C405.906 164.097 405.828 164.245 405.828 164.453C405.828 164.645 405.899 164.816 406.04 164.965C406.18 165.107 406.36 165.202 406.579 165.248ZM414.736 168.074L410.252 167.121V161.721L411.602 162.008V166.124L413.773 166.585V162.469L415.123 162.756V166.872L416.004 167.059V169.603L414.736 169.334V168.074ZM420.715 165.925L418.25 168.821L416.9 168.534V163.134L418.25 163.421V166.841L420.715 163.945L422.065 164.232V169.632L420.715 169.345V165.925ZM426.154 165.101L427.879 165.468V170.868L426.53 170.581V168.961L425.778 168.801L424.687 170.189L423.137 169.86L424.546 168.239C424.256 168.074 424.014 167.834 423.818 167.52C423.623 167.199 423.525 166.846 423.525 166.462C423.525 165.87 423.744 165.449 424.182 165.198C424.628 164.949 425.285 164.916 426.154 165.101ZM424.968 166.865C424.968 167.073 425.055 167.267 425.227 167.448C425.399 167.628 425.598 167.743 425.825 167.791L426.53 167.941V166.381L425.931 166.254C425.634 166.19 425.399 166.22 425.227 166.344C425.055 166.459 424.968 166.633 424.968 166.865Z" fill="#10162F"/>
    <rect x="0.978148" y="1.20791" width="142" height="94" transform="matrix(0.978148 0.207912 0 1 110.021 -0.203368)" fill="white" stroke="#FFE000" stroke-width="2"/>
    <path d="M130.735 61.7406L133.599 62.3493V45.5493L130.735 44.9406V51.8046L123.223 50.2078V43.3438L120.336 42.73V59.53L123.223 60.1438V52.9678L130.735 54.5646V61.7406ZM136.717 57.6119C136.717 60.8519 138.97 63.755 142.468 64.4984C145.966 65.2419 148.22 63.297 148.22 60.057C148.22 56.817 145.966 53.9139 142.468 53.1704C138.97 52.427 136.717 54.3719 136.717 57.6119ZM139.604 58.2257C139.604 56.3537 140.872 55.4231 142.468 55.7624C144.111 56.1117 145.356 57.6242 145.356 59.4482C145.356 61.3202 144.135 62.2847 142.468 61.9304C140.825 61.5812 139.604 60.0257 139.604 58.2257ZM150.556 65.9536C151.519 66.1582 153.444 66.6873 154.758 66.9668C158.162 67.6903 159.782 66.9066 159.782 64.7706C159.782 63.5226 159.007 62.4699 157.528 61.7956V61.7476C158.585 61.8041 159.5 61.0627 159.5 59.7667C159.5 57.7987 157.786 56.5705 154.711 55.9168C153.068 55.5675 151.472 55.3242 150.556 55.1536V65.9536ZM154.946 62.3027C156.214 62.5721 156.941 63.1588 156.941 63.9748C156.941 64.7188 156.237 65.0731 155.04 64.8186C154.383 64.6789 153.655 64.4522 153.256 64.3434V61.9434L154.946 62.3027ZM154.946 58.1987C155.955 58.4132 156.636 58.942 156.636 59.734C156.636 60.574 155.908 60.8273 155.016 60.6377L153.256 60.2634V57.8874C153.537 57.9233 154.312 58.064 154.946 58.1987ZM162.34 68.4583L166.143 69.2666C169.734 70.0301 171.002 68.2595 171.002 66.1955C171.002 64.2755 169.946 62.227 166.354 61.4635L165.039 61.1841V58.2321L162.34 57.6583V68.4583ZM172.505 70.6189L175.204 71.1927V60.3927L172.505 59.8189V70.6189ZM166.119 63.6216C167.575 63.931 168.138 64.6988 168.138 65.6828C168.138 66.6668 167.551 67.166 166.096 66.8566L165.039 66.6321V63.3921L166.119 63.6216ZM180.904 72.4042L185.834 66.612V73.452L188.533 74.0259V63.2259L185.834 62.652L180.904 68.4442V61.6042L178.204 61.0303V71.8303L180.904 72.4042ZM179.777 55.9646C179.777 58.0526 180.833 59.9092 183.463 60.4681C185.834 60.972 187.054 59.5755 187.054 57.5115L184.589 56.9876C184.589 57.8756 184.261 58.6697 183.463 58.5001C182.57 58.3104 182.242 57.3766 182.242 56.4886L179.777 55.9646ZM203.728 77.2557L206.428 77.8295V67.0295L196.521 64.9238V75.7238L199.221 76.2976V68.0896L203.728 69.0477V77.2557ZM208.771 72.9275C208.771 76.1675 211.025 79.0706 214.522 79.8141C218.02 80.5576 220.274 78.6126 220.274 75.3726C220.274 72.1326 218.02 69.2296 214.522 68.4861C211.025 67.7426 208.771 69.6875 208.771 72.9275ZM211.658 73.5413C211.658 71.6693 212.926 70.7387 214.522 71.0781C216.166 71.4274 217.41 72.9398 217.41 74.7638C217.41 76.6358 216.189 77.6003 214.522 77.2461C212.879 76.8968 211.658 75.3413 211.658 73.5413ZM230.616 79.3467C229.935 79.97 229.043 80.3324 227.892 80.0879C226.296 79.7486 224.841 78.2632 224.841 76.3432C224.841 74.4472 226.273 73.5756 227.775 73.895C228.737 74.0996 229.606 74.5482 230.404 75.5098L231.672 73.5953C230.686 72.3777 229.16 71.5974 227.423 71.2281C224.207 70.5445 221.953 72.5855 221.953 75.7295C221.953 79.1375 224.254 81.8825 227.681 82.611C229.395 82.9753 230.991 82.6666 231.883 81.6322L230.616 79.3467ZM232.74 75.3824L236.215 76.1209V84.1609L238.914 84.7347V76.6947L242.365 77.4283V74.6683L232.74 72.6224V75.3824Z" fill="#6C7991"/>
    <rect x="0.978148" y="1.20791" width="142" height="94" transform="matrix(0.978148 0.207912 0 1 303.021 -0.203368)" fill="white" stroke="#7833FF" stroke-width="2"/>
    <path d="M349.168 62.3066C348.041 62.955 346.656 63.1166 345.271 62.8222C341.914 62.1087 339.59 59.2147 339.59 55.7107C339.59 52.0627 341.89 50.2957 344.942 50.9444C346.586 51.2937 347.665 51.9792 348.651 52.8608L349.943 50.9512C348.863 49.7137 347.078 48.6385 344.942 48.1844C339.519 47.0317 336.538 50.238 336.538 55.062C336.538 60.294 339.989 64.4595 345.013 65.5274C347.149 65.9814 349.238 65.6575 350.271 64.7491L349.168 62.3066ZM359.966 65.4178C359.356 65.7921 358.276 66.0425 356.985 65.7681C355.318 65.4138 354.05 64.2563 353.815 62.5744L361.445 64.1961C361.562 63.8131 361.609 63.4151 361.609 62.7431C361.609 59.7191 359.332 57.2431 356.609 56.6642C353.135 55.9257 351.022 57.9966 351.022 61.1406C351.022 64.5486 353.299 67.2887 356.703 68.0122C358.182 68.3266 359.684 68.2139 360.741 67.5265L359.966 65.4178ZM356.492 58.9433C358.041 59.2726 358.933 60.4942 358.91 61.8092L353.722 60.7065C354.003 59.3504 354.872 58.599 356.492 58.9433ZM363.784 74.0533L366.483 74.6271V69.5631C367.094 70.0528 368.009 70.4154 368.948 70.615C372.329 71.3336 374.536 69.2586 374.536 65.9706C374.536 62.7786 372.657 60.0754 369.747 59.4567C368.385 59.1673 367.141 59.4788 366.483 60.0591V59.0271L363.784 58.4533V74.0533ZM368.901 61.8691C370.686 62.2483 371.672 63.7059 371.672 65.4339C371.672 67.2339 370.592 68.3963 368.714 67.9971C367.822 67.8075 367.211 67.5338 366.483 66.8991V62.5311C367.141 61.9268 367.986 61.6745 368.901 61.8691ZM376.874 72.0357C377.837 72.2403 379.762 72.7695 381.076 73.0489C384.48 73.7724 386.1 72.9887 386.1 70.8527C386.1 69.6047 385.325 68.5521 383.846 67.8777V67.8297C384.903 67.8862 385.818 67.1449 385.818 65.8489C385.818 63.8809 384.105 62.6526 381.029 61.9989C379.386 61.6496 377.79 61.4063 376.874 61.2357V72.0357ZM381.264 68.3848C382.532 68.6543 383.259 69.241 383.259 70.057C383.259 70.801 382.555 71.1553 381.358 70.9008C380.701 70.7611 379.973 70.5344 379.574 70.4255V68.0255L381.264 68.3848ZM381.264 64.2808C382.273 64.4954 382.954 65.0241 382.954 65.8161C382.954 66.6561 382.227 66.9094 381.334 66.7198L379.574 66.3455V63.9695C379.855 64.0054 380.63 64.1461 381.264 64.2808ZM396.945 73.2778C396.334 73.6521 395.254 73.9026 393.963 73.6281C392.296 73.2738 391.029 72.1164 390.794 70.4345L398.424 72.0562C398.541 71.6731 398.588 71.2751 398.588 70.6031C398.588 67.5791 396.311 65.1031 393.588 64.5243C390.113 63.7858 388 65.8567 388 69.0007C388 72.4087 390.278 75.1487 393.681 75.8722C395.16 76.1866 396.663 76.0739 397.719 75.3865L396.945 73.2778ZM393.47 66.8033C395.02 67.1327 395.912 68.3543 395.888 69.6693L390.7 68.5665C390.982 67.2104 391.85 66.459 393.47 66.8033ZM400.762 81.9133L403.462 82.4871V77.4231C404.072 77.9129 404.988 78.2755 405.927 78.4751C409.307 79.1936 411.514 77.1187 411.514 73.8307C411.514 70.6387 409.636 67.9355 406.725 67.3167C405.363 67.0273 404.119 67.3389 403.462 67.9191V66.8871L400.762 66.3133V81.9133ZM405.88 69.7291C407.664 70.1083 408.65 71.5659 408.65 73.2939C408.65 75.0939 407.57 76.2564 405.692 75.8572C404.8 75.6676 404.19 75.3938 403.462 74.7591V70.3911C404.119 69.7869 404.964 69.5345 405.88 69.7291Z" fill="#7833FF"/>
</svg>
