<svg width="600" height="600" viewBox="0 0 600 600" fill="none" xmlns="http://www.w3.org/2000/svg">
    <circle cx="105" cy="300" r="69" fill="#FFE173"/>
    <path d="M73.793 309H84.7266V306.082H77.332V292.09H73.793V309ZM92.1094 309.258C95.9062 309.258 98.332 306.82 98.332 302.719V302.695C98.332 298.629 95.8594 296.18 92.0977 296.18C88.3477 296.18 85.8867 298.652 85.8867 302.695V302.719C85.8867 306.809 88.2891 309.258 92.1094 309.258ZM92.1211 306.574C90.4336 306.574 89.3672 305.18 89.3672 302.719V302.695C89.3672 300.27 90.4453 298.863 92.0977 298.863C93.7617 298.863 94.8516 300.27 94.8516 302.695V302.719C94.8516 305.168 93.7852 306.574 92.1211 306.574ZM105.973 313.359C109.746 313.359 112.102 311.449 112.102 308.648V296.438H108.68V298.582H108.609C107.93 297.117 106.559 296.18 104.789 296.18C101.613 296.18 99.6445 298.559 99.6445 302.566V302.578C99.6445 306.48 101.59 308.824 104.73 308.824C106.547 308.824 107.953 307.992 108.609 306.68H108.68V308.602C108.68 310.008 107.742 310.922 105.973 310.922C104.543 310.922 103.629 310.383 103.359 309.762L103.324 309.68H99.9961L100.008 309.785C100.336 311.801 102.516 313.359 105.973 313.359ZM105.914 306.316C104.203 306.316 103.125 304.922 103.125 302.66V302.648C103.125 300.398 104.215 299.016 105.914 299.016C107.578 299.016 108.691 300.41 108.691 302.648V302.66C108.691 304.91 107.59 306.316 105.914 306.316ZM120.891 294.82C121.922 294.82 122.719 294.012 122.719 293.039C122.719 292.066 121.922 291.258 120.891 291.258C119.859 291.258 119.062 292.066 119.062 293.039C119.062 294.012 119.859 294.82 120.891 294.82ZM119.18 309H122.602V296.438H119.18V309ZM124.898 309H128.32V301.781C128.32 300.141 129.293 299.016 130.828 299.016C132.363 299.016 133.137 299.953 133.137 301.594V309H136.559V300.891C136.559 297.949 134.988 296.18 132.223 296.18C130.324 296.18 129.035 297.059 128.391 298.5H128.32V296.438H124.898V309Z" fill="black"/>
    <circle cx="496" cy="300" r="69" fill="#FB6864"/>
    <path d="M456.543 309H467.477V306.082H460.082V292.09H456.543V309ZM474.859 309.258C478.656 309.258 481.082 306.82 481.082 302.719V302.695C481.082 298.629 478.609 296.18 474.848 296.18C471.098 296.18 468.637 298.652 468.637 302.695V302.719C468.637 306.809 471.039 309.258 474.859 309.258ZM474.871 306.574C473.184 306.574 472.117 305.18 472.117 302.719V302.695C472.117 300.27 473.195 298.863 474.848 298.863C476.512 298.863 477.602 300.27 477.602 302.695V302.719C477.602 305.168 476.535 306.574 474.871 306.574ZM488.723 313.359C492.496 313.359 494.852 311.449 494.852 308.648V296.438H491.43V298.582H491.359C490.68 297.117 489.309 296.18 487.539 296.18C484.363 296.18 482.395 298.559 482.395 302.566V302.578C482.395 306.48 484.34 308.824 487.48 308.824C489.297 308.824 490.703 307.992 491.359 306.68H491.43V308.602C491.43 310.008 490.492 310.922 488.723 310.922C487.293 310.922 486.379 310.383 486.109 309.762L486.074 309.68H482.746L482.758 309.785C483.086 311.801 485.266 313.359 488.723 313.359ZM488.664 306.316C486.953 306.316 485.875 304.922 485.875 302.66V302.648C485.875 300.398 486.965 299.016 488.664 299.016C490.328 299.016 491.441 300.41 491.441 302.648V302.66C491.441 304.91 490.34 306.316 488.664 306.316ZM507.625 309.258C511.422 309.258 513.848 306.82 513.848 302.719V302.695C513.848 298.629 511.375 296.18 507.613 296.18C503.863 296.18 501.402 298.652 501.402 302.695V302.719C501.402 306.809 503.805 309.258 507.625 309.258ZM507.637 306.574C505.949 306.574 504.883 305.18 504.883 302.719V302.695C504.883 300.27 505.961 298.863 507.613 298.863C509.277 298.863 510.367 300.27 510.367 302.695V302.719C510.367 305.168 509.301 306.574 507.637 306.574ZM519.895 309.258C521.793 309.258 523.082 308.367 523.727 306.926H523.797V309H527.219V296.438H523.797V303.656C523.797 305.297 522.824 306.422 521.289 306.422C519.754 306.422 518.98 305.473 518.98 303.832V296.438H515.559V304.547C515.559 307.488 517.129 309.258 519.895 309.258ZM534.438 309.258C535.152 309.258 535.703 309.188 536.09 309.129V306.621C535.879 306.645 535.656 306.68 535.352 306.68C534.32 306.68 533.793 306.281 533.793 305.109V299.016H536.09V296.438H533.793V293.367H530.336V296.438H528.59V299.016H530.336V305.484C530.336 308.18 531.648 309.258 534.438 309.258Z" fill="white"/>
    <path d="M239.15 94H242.246L243.311 90.582H248.291L249.355 94H252.451L247.539 79.9082H244.072L239.15 94ZM245.771 82.6426H245.83L247.607 88.375H243.994L245.771 82.6426ZM258.047 94.2148C260.84 94.2148 262.646 92.4766 262.783 90.1914V90.1328H260.127L260.117 90.2207C259.922 91.2754 259.209 91.9785 258.066 91.9785C256.66 91.9785 255.781 90.8164 255.781 88.7656V88.7559C255.781 86.7539 256.66 85.5527 258.057 85.5527C259.238 85.5527 259.932 86.3145 260.107 87.3105L260.127 87.3984H262.773V87.3301C262.666 85.0645 260.859 83.3164 258.018 83.3164C254.883 83.3164 252.881 85.3965 252.881 88.7461V88.7559C252.881 92.1348 254.854 94.2148 258.047 94.2148ZM268.945 94.2148C271.738 94.2148 273.545 92.4766 273.682 90.1914V90.1328H271.025L271.016 90.2207C270.82 91.2754 270.107 91.9785 268.965 91.9785C267.559 91.9785 266.68 90.8164 266.68 88.7656V88.7559C266.68 86.7539 267.559 85.5527 268.955 85.5527C270.137 85.5527 270.83 86.3145 271.006 87.3105L271.025 87.3984H273.672V87.3301C273.564 85.0645 271.758 83.3164 268.916 83.3164C265.781 83.3164 263.779 85.3965 263.779 88.7461V88.7559C263.779 92.1348 265.752 94.2148 268.945 94.2148ZM279.824 94.2148C282.812 94.2148 284.258 92.4473 284.58 90.9043L284.609 90.7969H281.992L281.973 90.8555C281.768 91.4414 281.055 92.0859 279.883 92.0859C278.428 92.0859 277.52 91.1094 277.49 89.4395H284.697V88.5605C284.697 85.3965 282.773 83.3164 279.707 83.3164C276.641 83.3164 274.678 85.4453 274.678 88.7754V88.7852C274.678 92.1348 276.621 94.2148 279.824 94.2148ZM279.756 85.4453C280.938 85.4453 281.787 86.1973 281.963 87.6426H277.52C277.705 86.2266 278.584 85.4453 279.756 85.4453ZM290.479 94.2148C293.174 94.2148 295.059 92.8672 295.059 90.8164V90.8066C295.059 89.2637 294.16 88.4043 291.973 87.9453L290.195 87.5645C289.141 87.3398 288.779 86.9883 288.779 86.4512V86.4414C288.779 85.7676 289.395 85.3281 290.381 85.3281C291.436 85.3281 292.051 85.8945 292.148 86.6465L292.158 86.7246H294.785V86.627C294.717 84.791 293.164 83.3164 290.381 83.3164C287.715 83.3164 285.996 84.6055 285.996 86.5977V86.6074C285.996 88.1699 287.021 89.1855 289.053 89.6152L290.83 89.9863C291.855 90.2109 292.207 90.5332 292.207 91.0898V91.0996C292.207 91.7734 291.553 92.1934 290.479 92.1934C289.336 92.1934 288.721 91.7148 288.535 90.8945L288.516 90.8066H285.732L285.742 90.8945C285.967 92.877 287.578 94.2148 290.479 94.2148ZM300.771 94.2148C303.467 94.2148 305.352 92.8672 305.352 90.8164V90.8066C305.352 89.2637 304.453 88.4043 302.266 87.9453L300.488 87.5645C299.434 87.3398 299.072 86.9883 299.072 86.4512V86.4414C299.072 85.7676 299.688 85.3281 300.674 85.3281C301.729 85.3281 302.344 85.8945 302.441 86.6465L302.451 86.7246H305.078V86.627C305.01 84.791 303.457 83.3164 300.674 83.3164C298.008 83.3164 296.289 84.6055 296.289 86.5977V86.6074C296.289 88.1699 297.314 89.1855 299.346 89.6152L301.123 89.9863C302.148 90.2109 302.5 90.5332 302.5 91.0898V91.0996C302.5 91.7734 301.846 92.1934 300.771 92.1934C299.629 92.1934 299.014 91.7148 298.828 90.8945L298.809 90.8066H296.025L296.035 90.8945C296.26 92.877 297.871 94.2148 300.771 94.2148ZM314.883 94.2148C315.479 94.2148 315.938 94.1562 316.26 94.1074V92.0176C316.084 92.0371 315.898 92.0664 315.645 92.0664C314.785 92.0664 314.346 91.7344 314.346 90.7578V85.6797H316.26V83.5312H314.346V80.9727H311.465V83.5312H310.01V85.6797H311.465V91.0703C311.465 93.3164 312.559 94.2148 314.883 94.2148ZM322.48 94.2148C325.645 94.2148 327.666 92.1836 327.666 88.7656V88.7461C327.666 85.3574 325.605 83.3164 322.471 83.3164C319.346 83.3164 317.295 85.377 317.295 88.7461V88.7656C317.295 92.1738 319.297 94.2148 322.48 94.2148ZM322.49 91.9785C321.084 91.9785 320.195 90.8164 320.195 88.7656V88.7461C320.195 86.7246 321.094 85.5527 322.471 85.5527C323.857 85.5527 324.766 86.7246 324.766 88.7461V88.7656C324.766 90.8066 323.877 91.9785 322.49 91.9785ZM329.238 94H332.09V90.5332L332.822 89.7227L335.82 94H339.111L334.961 88.0332L338.916 83.5312H335.684L332.148 87.7207H332.09V79.9082H329.238V94ZM344.18 94.2148C347.168 94.2148 348.613 92.4473 348.936 90.9043L348.965 90.7969H346.348L346.328 90.8555C346.123 91.4414 345.41 92.0859 344.238 92.0859C342.783 92.0859 341.875 91.1094 341.846 89.4395H349.053V88.5605C349.053 85.3965 347.129 83.3164 344.062 83.3164C340.996 83.3164 339.033 85.4453 339.033 88.7754V88.7852C339.033 92.1348 340.977 94.2148 344.18 94.2148ZM344.111 85.4453C345.293 85.4453 346.143 86.1973 346.318 87.6426H341.875C342.061 86.2266 342.939 85.4453 344.111 85.4453ZM350.527 94H353.379V87.9844C353.379 86.6172 354.189 85.6797 355.469 85.6797C356.748 85.6797 357.393 86.4609 357.393 87.8281V94H360.244V87.2422C360.244 84.791 358.936 83.3164 356.631 83.3164C355.049 83.3164 353.975 84.0488 353.438 85.25H353.379V83.5312H350.527V94ZM270.771 114.215C273.564 114.215 275.371 112.477 275.508 110.191V110.133H272.852L272.842 110.221C272.646 111.275 271.934 111.979 270.791 111.979C269.385 111.979 268.506 110.816 268.506 108.766V108.756C268.506 106.754 269.385 105.553 270.781 105.553C271.963 105.553 272.656 106.314 272.832 107.311L272.852 107.398H275.498V107.33C275.391 105.064 273.584 103.316 270.742 103.316C267.607 103.316 265.605 105.396 265.605 108.746V108.756C265.605 112.135 267.578 114.215 270.771 114.215ZM276.885 114H279.736V108.141C279.736 106.617 280.557 105.777 281.963 105.777C282.373 105.777 282.764 105.836 282.998 105.934V103.424C282.783 103.365 282.49 103.316 282.178 103.316C280.957 103.316 280.107 104.068 279.795 105.357H279.736V103.531H276.885V114ZM288.584 114.215C291.572 114.215 293.018 112.447 293.34 110.904L293.369 110.797H290.752L290.732 110.855C290.527 111.441 289.814 112.086 288.643 112.086C287.188 112.086 286.279 111.109 286.25 109.439H293.457V108.561C293.457 105.396 291.533 103.316 288.467 103.316C285.4 103.316 283.438 105.445 283.438 108.775V108.785C283.438 112.135 285.381 114.215 288.584 114.215ZM288.516 105.445C289.697 105.445 290.547 106.197 290.723 107.643H286.279C286.465 106.227 287.344 105.445 288.516 105.445ZM298.047 114.166C299.424 114.166 300.537 113.512 301.133 112.438H301.191V114H304.043V106.822C304.043 104.713 302.295 103.316 299.59 103.316C296.826 103.316 295.166 104.703 295.01 106.637L295 106.754H297.607L297.627 106.666C297.764 105.992 298.408 105.494 299.473 105.494C300.586 105.494 301.191 106.07 301.191 106.998V107.643L298.604 107.799C296.006 107.965 294.531 109.078 294.531 110.982V111.002C294.531 112.848 295.947 114.166 298.047 114.166ZM297.354 110.855V110.836C297.354 110.094 297.93 109.625 299.033 109.557L301.191 109.42V110.172C301.191 111.266 300.254 112.086 298.975 112.086C297.988 112.086 297.354 111.627 297.354 110.855ZM310.049 114.215C310.645 114.215 311.104 114.156 311.426 114.107V112.018C311.25 112.037 311.064 112.066 310.811 112.066C309.951 112.066 309.512 111.734 309.512 110.758V105.68H311.426V103.531H309.512V100.973H306.631V103.531H305.176V105.68H306.631V111.07C306.631 113.316 307.725 114.215 310.049 114.215ZM317.607 114.215C320.596 114.215 322.041 112.447 322.363 110.904L322.393 110.797H319.775L319.756 110.855C319.551 111.441 318.838 112.086 317.666 112.086C316.211 112.086 315.303 111.109 315.273 109.439H322.48V108.561C322.48 105.396 320.557 103.316 317.49 103.316C314.424 103.316 312.461 105.445 312.461 108.775V108.785C312.461 112.135 314.404 114.215 317.607 114.215ZM317.539 105.445C318.721 105.445 319.57 106.197 319.746 107.643H315.303C315.488 106.227 316.367 105.445 317.539 105.445ZM327.832 114.215C329.346 114.215 330.498 113.453 331.055 112.213H331.113V114H333.965V99.9082H331.113V105.348H331.055C330.488 104.078 329.316 103.316 327.832 103.316C325.195 103.316 323.574 105.348 323.574 108.756V108.766C323.574 112.164 325.195 114.215 327.832 114.215ZM328.789 111.852C327.363 111.852 326.475 110.67 326.475 108.766V108.756C326.475 106.842 327.373 105.68 328.789 105.68C330.166 105.68 331.123 106.871 331.123 108.756V108.766C331.123 110.66 330.176 111.852 328.789 111.852Z" fill="black"/>
    <path d="M239.15 494H242.246L243.311 490.582H248.291L249.355 494H252.451L247.539 479.908H244.072L239.15 494ZM245.771 482.643H245.83L247.607 488.375H243.994L245.771 482.643ZM258.047 494.215C260.84 494.215 262.646 492.477 262.783 490.191V490.133H260.127L260.117 490.221C259.922 491.275 259.209 491.979 258.066 491.979C256.66 491.979 255.781 490.816 255.781 488.766V488.756C255.781 486.754 256.66 485.553 258.057 485.553C259.238 485.553 259.932 486.314 260.107 487.311L260.127 487.398H262.773V487.33C262.666 485.064 260.859 483.316 258.018 483.316C254.883 483.316 252.881 485.396 252.881 488.746V488.756C252.881 492.135 254.854 494.215 258.047 494.215ZM268.945 494.215C271.738 494.215 273.545 492.477 273.682 490.191V490.133H271.025L271.016 490.221C270.82 491.275 270.107 491.979 268.965 491.979C267.559 491.979 266.68 490.816 266.68 488.766V488.756C266.68 486.754 267.559 485.553 268.955 485.553C270.137 485.553 270.83 486.314 271.006 487.311L271.025 487.398H273.672V487.33C273.564 485.064 271.758 483.316 268.916 483.316C265.781 483.316 263.779 485.396 263.779 488.746V488.756C263.779 492.135 265.752 494.215 268.945 494.215ZM279.824 494.215C282.812 494.215 284.258 492.447 284.58 490.904L284.609 490.797H281.992L281.973 490.855C281.768 491.441 281.055 492.086 279.883 492.086C278.428 492.086 277.52 491.109 277.49 489.439H284.697V488.561C284.697 485.396 282.773 483.316 279.707 483.316C276.641 483.316 274.678 485.445 274.678 488.775V488.785C274.678 492.135 276.621 494.215 279.824 494.215ZM279.756 485.445C280.938 485.445 281.787 486.197 281.963 487.643H277.52C277.705 486.227 278.584 485.445 279.756 485.445ZM290.479 494.215C293.174 494.215 295.059 492.867 295.059 490.816V490.807C295.059 489.264 294.16 488.404 291.973 487.945L290.195 487.564C289.141 487.34 288.779 486.988 288.779 486.451V486.441C288.779 485.768 289.395 485.328 290.381 485.328C291.436 485.328 292.051 485.895 292.148 486.646L292.158 486.725H294.785V486.627C294.717 484.791 293.164 483.316 290.381 483.316C287.715 483.316 285.996 484.605 285.996 486.598V486.607C285.996 488.17 287.021 489.186 289.053 489.615L290.83 489.986C291.855 490.211 292.207 490.533 292.207 491.09V491.1C292.207 491.773 291.553 492.193 290.479 492.193C289.336 492.193 288.721 491.715 288.535 490.895L288.516 490.807H285.732L285.742 490.895C285.967 492.877 287.578 494.215 290.479 494.215ZM300.771 494.215C303.467 494.215 305.352 492.867 305.352 490.816V490.807C305.352 489.264 304.453 488.404 302.266 487.945L300.488 487.564C299.434 487.34 299.072 486.988 299.072 486.451V486.441C299.072 485.768 299.688 485.328 300.674 485.328C301.729 485.328 302.344 485.895 302.441 486.646L302.451 486.725H305.078V486.627C305.01 484.791 303.457 483.316 300.674 483.316C298.008 483.316 296.289 484.605 296.289 486.598V486.607C296.289 488.17 297.314 489.186 299.346 489.615L301.123 489.986C302.148 490.211 302.5 490.533 302.5 491.09V491.1C302.5 491.773 301.846 492.193 300.771 492.193C299.629 492.193 299.014 491.715 298.828 490.895L298.809 490.807H296.025L296.035 490.895C296.26 492.877 297.871 494.215 300.771 494.215ZM314.883 494.215C315.479 494.215 315.938 494.156 316.26 494.107V492.018C316.084 492.037 315.898 492.066 315.645 492.066C314.785 492.066 314.346 491.734 314.346 490.758V485.68H316.26V483.531H314.346V480.973H311.465V483.531H310.01V485.68H311.465V491.07C311.465 493.316 312.559 494.215 314.883 494.215ZM322.48 494.215C325.645 494.215 327.666 492.184 327.666 488.766V488.746C327.666 485.357 325.605 483.316 322.471 483.316C319.346 483.316 317.295 485.377 317.295 488.746V488.766C317.295 492.174 319.297 494.215 322.48 494.215ZM322.49 491.979C321.084 491.979 320.195 490.816 320.195 488.766V488.746C320.195 486.725 321.094 485.553 322.471 485.553C323.857 485.553 324.766 486.725 324.766 488.746V488.766C324.766 490.807 323.877 491.979 322.49 491.979ZM329.238 494H332.09V490.533L332.822 489.723L335.82 494H339.111L334.961 488.033L338.916 483.531H335.684L332.148 487.721H332.09V479.908H329.238V494ZM344.18 494.215C347.168 494.215 348.613 492.447 348.936 490.904L348.965 490.797H346.348L346.328 490.855C346.123 491.441 345.41 492.086 344.238 492.086C342.783 492.086 341.875 491.109 341.846 489.439H349.053V488.561C349.053 485.396 347.129 483.316 344.062 483.316C340.996 483.316 339.033 485.445 339.033 488.775V488.785C339.033 492.135 340.977 494.215 344.18 494.215ZM344.111 485.445C345.293 485.445 346.143 486.197 346.318 487.643H341.875C342.061 486.227 342.939 485.445 344.111 485.445ZM350.527 494H353.379V487.984C353.379 486.617 354.189 485.68 355.469 485.68C356.748 485.68 357.393 486.461 357.393 487.828V494H360.244V487.242C360.244 484.791 358.936 483.316 356.631 483.316C355.049 483.316 353.975 484.049 353.438 485.25H353.379V483.531H350.527V494ZM270.322 514.215C271.836 514.215 272.988 513.453 273.545 512.213H273.604V514H276.455V499.908H273.604V505.348H273.545C272.979 504.078 271.807 503.316 270.322 503.316C267.686 503.316 266.064 505.348 266.064 508.756V508.766C266.064 512.164 267.686 514.215 270.322 514.215ZM271.279 511.852C269.854 511.852 268.965 510.67 268.965 508.766V508.756C268.965 506.842 269.863 505.68 271.279 505.68C272.656 505.68 273.613 506.871 273.613 508.756V508.766C273.613 510.66 272.666 511.852 271.279 511.852ZM283.125 514.215C286.113 514.215 287.559 512.447 287.881 510.904L287.91 510.797H285.293L285.273 510.855C285.068 511.441 284.355 512.086 283.184 512.086C281.729 512.086 280.82 511.109 280.791 509.439H287.998V508.561C287.998 505.396 286.074 503.316 283.008 503.316C279.941 503.316 277.979 505.445 277.979 508.775V508.785C277.979 512.135 279.922 514.215 283.125 514.215ZM283.057 505.445C284.238 505.445 285.088 506.197 285.264 507.643H280.82C281.006 506.227 281.885 505.445 283.057 505.445ZM289.541 514H292.393V499.908H289.541V514ZM299.082 514.215C302.07 514.215 303.516 512.447 303.838 510.904L303.867 510.797H301.25L301.23 510.855C301.025 511.441 300.312 512.086 299.141 512.086C297.686 512.086 296.777 511.109 296.748 509.439H303.955V508.561C303.955 505.396 302.031 503.316 298.965 503.316C295.898 503.316 293.936 505.445 293.936 508.775V508.785C293.936 512.135 295.879 514.215 299.082 514.215ZM299.014 505.445C300.195 505.445 301.045 506.197 301.221 507.643H296.777C296.963 506.227 297.842 505.445 299.014 505.445ZM309.59 514.215C310.186 514.215 310.645 514.156 310.967 514.107V512.018C310.791 512.037 310.605 512.066 310.352 512.066C309.492 512.066 309.053 511.734 309.053 510.758V505.68H310.967V503.531H309.053V500.973H306.172V503.531H304.717V505.68H306.172V511.07C306.172 513.316 307.266 514.215 309.59 514.215ZM317.148 514.215C320.137 514.215 321.582 512.447 321.904 510.904L321.934 510.797H319.316L319.297 510.855C319.092 511.441 318.379 512.086 317.207 512.086C315.752 512.086 314.844 511.109 314.814 509.439H322.021V508.561C322.021 505.396 320.098 503.316 317.031 503.316C313.965 503.316 312.002 505.445 312.002 508.775V508.785C312.002 512.135 313.945 514.215 317.148 514.215ZM317.08 505.445C318.262 505.445 319.111 506.197 319.287 507.643H314.844C315.029 506.227 315.908 505.445 317.08 505.445ZM327.373 514.215C328.887 514.215 330.039 513.453 330.596 512.213H330.654V514H333.506V499.908H330.654V505.348H330.596C330.029 504.078 328.857 503.316 327.373 503.316C324.736 503.316 323.115 505.348 323.115 508.756V508.766C323.115 512.164 324.736 514.215 327.373 514.215ZM328.33 511.852C326.904 511.852 326.016 510.67 326.016 508.766V508.756C326.016 506.842 326.914 505.68 328.33 505.68C329.707 505.68 330.664 506.871 330.664 508.756V508.766C330.664 510.66 329.717 511.852 328.33 511.852Z" fill="black"/>
    <rect width="115.494" height="115.494" transform="matrix(0.866025 0.5 -0.866025 0.5 300.021 185)" fill="#73FFE5"/>
    <rect width="115.494" height="115.494" transform="matrix(0.866025 0.5 -0.866025 0.5 300.021 185)" fill="#3C4257"/>
    <path d="M200 242.747L300.021 300.494L300.021 415.988L200 358.241L200 300.494L200 242.747Z" fill="#E1E8FF"/>
    <path d="M300.095 300.494L400.115 242.747L400.115 358.241L300.095 415.988L300.095 358.241L300.095 300.494Z" fill="#CEC0FF"/>
    <path d="M309.888 276.543C313.582 274.41 314.008 272.102 311.197 270.479L311.187 270.473C308.883 269.143 306.254 269.219 302.58 270.637L300.713 271.352C298.693 272.131 297.405 272.254 296.481 271.721L296.471 271.715C295.426 271.111 295.649 270.15 297.212 269.236C298.724 268.363 300.48 268.158 301.779 268.732L301.911 268.797L304.803 267.127L304.6 267.021C301.89 265.621 298.115 265.844 294.725 267.801C291.478 269.676 290.909 272.043 293.589 273.59L293.599 273.596C295.801 274.867 298.643 274.82 302.114 273.484L303.961 272.77C306.153 271.938 307.371 271.809 308.365 272.383L308.375 272.389C309.492 273.033 309.167 274.076 307.472 275.055C305.798 276.021 303.879 276.309 302.55 275.764L302.418 275.711L299.526 277.381L299.698 277.469C302.57 278.928 306.406 278.553 309.888 276.543ZM322.34 269.318C325.446 267.525 325.111 265.598 323.842 264.479L323.761 264.396L321.041 265.967L321.082 266.014C321.477 266.488 321.406 267.303 320.188 268.006C318.676 268.879 316.718 268.838 314.952 267.854L322.441 263.529L321.528 263.002C318.24 261.104 314.079 261.01 310.892 262.85C307.706 264.689 307.878 267.145 311.339 269.143L311.349 269.148C314.83 271.158 319.011 271.24 322.34 269.318ZM313.155 264.098C314.383 263.389 316.048 263.33 317.732 264.092L313.115 266.758C311.836 265.797 311.938 264.801 313.155 264.098ZM328.713 265.381L331.677 263.67L325.588 260.154C324.004 259.24 323.984 258.244 325.446 257.4C325.872 257.154 326.339 256.955 326.684 256.873L324.075 255.367C323.791 255.461 323.436 255.607 323.111 255.795C321.843 256.527 321.741 257.488 322.756 258.449L322.695 258.484L320.797 257.389L317.834 259.1L328.713 265.381ZM339.156 259.352L342.495 257.424L335.351 248.986L332.255 250.773L338.274 256.838L338.213 256.873L327.678 253.416L324.512 255.244L339.156 259.352ZM352.056 252.162C355.161 250.369 354.826 248.441 353.558 247.322L353.476 247.24L350.756 248.811L350.797 248.857C351.193 249.332 351.122 250.146 349.904 250.85C348.392 251.723 346.433 251.682 344.667 250.697L352.157 246.373L351.244 245.846C347.955 243.947 343.794 243.854 340.608 245.693C337.421 247.533 337.594 249.988 341.054 251.986L341.064 251.992C344.545 254.002 348.727 254.084 352.056 252.162ZM342.871 246.941C344.099 246.232 345.763 246.174 347.448 246.936L342.83 249.602C341.552 248.641 341.653 247.645 342.871 246.941ZM358.429 248.225L361.392 246.514L355.303 242.998C353.72 242.084 353.7 241.088 355.161 240.244C355.587 239.998 356.054 239.799 356.399 239.717L353.791 238.211C353.507 238.305 353.152 238.451 352.827 238.639C351.558 239.371 351.457 240.332 352.472 241.293L352.411 241.328L350.513 240.232L347.549 241.943L358.429 248.225Z" fill="white"/>
    <path d="M216.934 112.205C217.131 111.689 216.873 111.111 216.357 110.914L207.95 107.702C207.434 107.504 206.856 107.763 206.659 108.279C206.461 108.795 206.72 109.373 207.236 109.57L214.709 112.425L211.854 119.898C211.657 120.414 211.915 120.992 212.431 121.189C212.947 121.386 213.525 121.128 213.722 120.612L216.934 112.205ZM383.066 487.794C382.869 488.31 383.127 488.888 383.643 489.085L392.05 492.297C392.566 492.495 393.144 492.236 393.341 491.72C393.539 491.204 393.28 490.626 392.764 490.429L385.291 487.574L388.146 480.101C388.343 479.585 388.085 479.007 387.569 478.81C387.053 478.613 386.475 478.871 386.278 479.387L383.066 487.794ZM109.8 223.373C129.658 174.13 168.086 134.367 216.408 112.761L215.592 110.935C166.799 132.751 127.997 172.901 107.946 222.625L109.8 223.373ZM383.592 112.761C431.914 134.367 470.342 174.13 490.2 223.373L492.054 222.625C472.003 172.901 433.201 132.751 384.408 110.935L383.592 112.761ZM216.408 487.238C168.412 465.778 130.177 426.404 110.205 377.621L108.354 378.378C128.521 427.639 167.128 467.395 215.592 489.064L216.408 487.238ZM489.795 377.621C469.823 426.404 431.588 465.778 383.592 487.238L384.408 489.064C432.872 467.395 471.479 427.639 491.646 378.378L489.795 377.621Z" fill="#B8C0CD"/>
    <path d="M120.231 174.286L122.366 171.464L118.115 168.246L120.08 165.648C122.23 162.807 121.834 159.524 119.058 157.424L119.04 157.41C116.264 155.31 112.997 155.821 110.848 158.662L106.746 164.082L120.231 174.286ZM112.558 161.043C113.781 159.427 115.353 159.117 116.885 160.277L116.904 160.291C118.437 161.451 118.575 163.054 117.352 164.671L115.909 166.577L111.115 162.95L112.558 161.043Z" fill="black"/>
    <path d="M134.27 157.279C137.621 153.53 137.198 148.956 133.187 145.371L133.17 145.356C129.168 141.779 124.567 141.88 121.225 145.62C117.891 149.351 118.289 153.934 122.3 157.519L122.317 157.534C126.328 161.119 130.92 161.027 134.27 157.279ZM132.034 155.279C130.183 157.35 127.361 157.202 124.722 154.843L124.705 154.828C122.066 152.469 121.619 149.681 123.462 147.619C125.313 145.548 128.134 145.697 130.765 148.047L130.782 148.063C133.395 150.398 133.908 153.182 132.034 155.279Z" fill="black"/>
    <path d="M146.043 145.162C149.145 142.234 149.588 138.981 147.36 136.62L147.352 136.612C145.526 134.677 143.377 134.723 140.321 136.64L138.768 137.607C137.087 138.661 136.03 138.804 135.299 138.028L135.29 138.02C134.462 137.142 134.684 135.789 135.997 134.534C137.266 133.335 138.708 133.087 139.745 133.929L139.85 134.024L142.279 131.731L142.117 131.577C139.963 129.534 136.873 129.759 134.026 132.446C131.299 135.019 130.738 138.352 132.861 140.602L132.869 140.611C134.615 142.46 136.936 142.461 139.823 140.655L141.36 139.688C143.183 138.563 144.183 138.41 144.971 139.245L144.979 139.254C145.864 140.191 145.556 141.658 144.132 143.001C142.726 144.328 141.149 144.689 140.086 143.887L139.981 143.809L137.552 146.102L137.689 146.23C139.973 148.36 143.12 147.921 146.043 145.162Z" fill="black"/>
    <path d="M155.442 136.433L158.189 134.202L149.366 123.342L153.168 120.253L151.328 117.988L140.987 126.389L142.826 128.654L146.619 125.573L155.442 136.433Z" fill="black"/>
    <path d="M450.753 493.974L455.908 490.086C459.959 487.03 460.446 482.714 457.214 478.429L457.2 478.41C453.975 474.135 449.766 473.537 445.725 476.585L440.57 480.474L450.753 493.974ZM451.814 489.504L445.152 480.672L447.145 479.169C449.624 477.299 452.201 477.777 454.326 480.593L454.34 480.612C456.541 483.531 456.333 486.095 453.807 488.001L451.814 489.504Z" fill="black"/>
    <path d="M464.468 483.415L472.89 476.027L470.966 473.833L465.204 478.887L462.399 475.689L467.835 470.921L466.011 468.842L460.575 473.61L457.902 470.562L463.663 465.508L461.739 463.315L453.317 470.702L464.468 483.415Z" fill="black"/>
    <path d="M475.83 473.246L483.539 465.492L481.469 463.435L476.256 468.679L466.333 458.814L463.838 461.324L475.83 473.246Z" fill="black"/>
    <path d="M485.541 463.335L492.895 454.883L490.693 452.968L485.663 458.75L482.453 455.958L487.199 450.503L485.113 448.688L480.367 454.143L477.308 451.481L482.338 445.699L480.137 443.784L472.783 452.236L485.541 463.335Z" fill="black"/>
    <path d="M497.65 448.813L499.78 445.986L488.605 437.566L491.553 433.654L489.222 431.898L481.204 442.539L483.534 444.295L486.475 440.393L497.65 448.813Z" fill="black"/>
    <path d="M504.487 439.504L510.581 430.104L508.133 428.517L503.963 434.947L500.394 432.633L504.328 426.566L502.007 425.062L498.074 431.129L494.671 428.923L498.841 422.492L496.393 420.905L490.298 430.305L504.487 439.504Z" fill="black"/>
</svg>
