<svg width="587" height="488" viewBox="0 0 587 488" fill="none" xmlns="http://www.w3.org/2000/svg">
    <path d="M352.127 380.24L357.753 381.939L355.366 376.199L352.127 380.24ZM420.632 333.778L421.046 334.131L420.632 333.778ZM415.5 154.982L415.101 155.187L415.5 154.982ZM356.326 379.683C382.902 372.197 405.347 356.422 421.046 334.131L420.217 333.424C404.615 355.576 382.31 371.252 355.9 378.692L356.326 379.683ZM421.046 334.131C437.527 310.732 445.835 281.202 444.919 249.277L443.941 249.099C444.852 280.825 436.596 310.17 420.217 333.424L421.046 334.131ZM444.919 249.277C444.002 217.352 433.903 184.466 415.898 154.777L415.101 155.187C432.994 184.691 443.03 217.373 443.941 249.099L444.919 249.277ZM415.898 154.777C397.893 125.088 372.791 99.9291 343.766 82.4826L343.419 83.3435C372.263 100.681 397.208 125.683 415.101 155.187L415.898 154.777Z" fill="#D3DBE6"/>
    <path d="M159.488 284.667L159.889 284.467L159.488 284.667ZM161.684 99.3386L161.29 98.9595L161.684 99.3386ZM238.816 58.3102L233.27 56.0416L235.12 61.8898L238.816 58.3102ZM235.404 359.645C204.826 341.953 178.427 315.672 159.889 284.467L159.086 284.867C177.74 316.268 204.304 342.713 235.074 360.517L235.404 359.645ZM159.889 284.467C141.351 253.262 131.599 218.69 131.991 185.571L131.013 185.351C130.618 218.678 140.432 253.467 159.086 284.867L159.889 284.467ZM131.991 185.571C132.384 152.453 142.902 122.44 162.079 99.7177L161.29 98.9595C141.992 121.824 131.408 152.025 131.013 185.351L131.991 185.571ZM162.079 99.7177C180.392 78.0197 205.729 64.0034 234.825 59.4055L234.492 58.3945C205.213 63.0213 179.717 77.1254 161.29 98.9595L162.079 99.7177Z" fill="#D3DBE6"/>
    <circle r="72" transform="matrix(0.978148 0.207912 0 1 425.526 254.106)" fill="#FF315D"/>
    <path d="M389.422 253.782L399.705 255.967V253.207L392.31 251.636V237.596L389.422 236.982V253.782ZM400.553 250.748C400.553 253.988 402.807 256.891 406.305 257.634C409.803 258.378 412.056 256.433 412.056 253.193C412.056 249.953 409.803 247.05 406.305 246.306C402.807 245.563 400.553 247.508 400.553 250.748ZM403.441 251.362C403.441 249.49 404.709 248.559 406.305 248.898C407.948 249.248 409.192 250.76 409.192 252.584C409.192 254.456 407.972 255.421 406.305 255.066C404.662 254.717 403.441 253.162 403.441 251.362ZM413.008 260.259C413.008 262.731 415.426 264.301 418.501 264.955C421.576 265.608 423.994 265.018 423.994 262.594C423.994 260.17 421.576 258.552 418.501 257.899L418.384 257.874C418.29 257.686 418.243 257.484 418.243 257.292C418.243 257.172 418.243 257.028 418.29 256.894L418.478 256.934C421.201 257.513 422.961 256.063 422.961 253.903C422.961 253.423 422.868 252.923 422.703 252.456L424.464 252.422L424.37 250.194L421.177 250.236C420.45 249.601 419.534 249.118 418.478 248.894C415.684 248.3 413.97 249.832 413.97 251.992C413.97 253.576 414.886 255.162 416.482 256.15C416.318 256.331 416.247 256.604 416.247 256.868C416.247 257.108 416.318 257.411 416.435 257.652C414.416 257.655 413.008 258.459 413.008 260.259ZM415.52 260.793C415.52 260.001 416.576 259.698 418.501 260.107C420.45 260.521 421.459 261.263 421.459 262.055C421.459 262.919 420.332 263.136 418.501 262.747C416.67 262.358 415.52 261.633 415.52 260.793ZM416.506 252.531C416.506 251.547 417.257 250.866 418.478 251.126C419.745 251.395 420.45 252.361 420.45 253.369C420.45 254.449 419.628 254.946 418.478 254.702C417.257 254.442 416.506 253.539 416.506 252.531ZM430.425 257.097C430.425 260.337 432.679 263.24 436.177 263.984C439.675 264.727 441.928 262.782 441.928 259.542C441.928 256.302 439.675 253.399 436.177 252.656C432.679 251.912 430.425 253.857 430.425 257.097ZM433.313 257.711C433.313 255.839 434.58 254.909 436.177 255.248C437.82 255.597 439.064 257.11 439.064 258.934C439.064 260.806 437.843 261.77 436.177 261.416C434.533 261.067 433.313 259.511 433.313 257.711ZM453.819 256.67L451.119 256.096V263.272C450.509 263.958 449.64 264.278 448.748 264.088C447.269 263.774 446.729 262.627 446.729 261.187V255.163L444.03 254.589V261.189C444.03 264.285 445.673 266.002 447.739 266.441C449.382 266.791 450.486 266.233 451.119 265.576V266.896L453.819 267.47V256.67ZM456.593 263.955C456.593 266.715 457.485 268.489 459.879 268.998C461.241 269.287 462.368 268.999 463.002 268.606L462.18 266.295C461.804 266.503 461.288 266.729 460.56 266.575C459.668 266.385 459.293 265.537 459.293 264.361V260.425L462.697 261.149V258.557L459.293 257.833V254.833L456.593 254.259V263.955Z" fill="white"/>
    <rect x="0.978148" y="1.20791" width="142" height="142" transform="matrix(0.978148 0.207912 0 1 218.217 130.825)" fill="white" stroke="#7833FF" stroke-width="2"/>
    <path d="M265.649 215.651C265.649 216.923 264.616 217.399 263.255 217.11C261.987 216.84 260.438 215.887 259.475 214.41L257.832 216.077C258.63 217.951 261.095 219.411 263.208 219.86C266.283 220.513 268.701 219.107 268.701 216.275C268.701 210.683 261.259 210.206 261.259 206.726C261.259 205.622 262.128 205.062 263.56 205.367C264.875 205.646 265.673 206.272 266.471 207.233L268.02 205.355C267.034 204.041 265.344 202.986 263.325 202.557C260.133 201.878 258.208 203.581 258.208 206.101C258.208 211.573 265.649 212.339 265.649 215.651ZM279.541 220.043C278.93 220.418 277.85 220.668 276.559 220.394C274.892 220.039 273.625 218.882 273.39 217.2L281.02 218.822C281.137 218.439 281.184 218.041 281.184 217.369C281.184 214.345 278.907 211.869 276.184 211.29C272.709 210.551 270.596 212.622 270.596 215.766C270.596 219.174 272.873 221.914 276.277 222.638C277.756 222.952 279.259 222.839 280.315 222.152L279.541 220.043ZM276.066 213.569C277.616 213.898 278.508 215.12 278.484 216.435L273.296 215.332C273.578 213.976 274.446 213.225 276.066 213.569ZM283.358 223.879L286.058 224.453V217.205C286.363 216.646 286.856 216.222 287.795 216.422C288.359 216.542 288.64 216.698 289.157 217.119L290.119 214.732C289.767 214.393 289.345 214.159 288.476 213.975C287.208 213.705 286.551 214.117 286.058 214.709V213.653L283.358 213.079V223.879ZM301.493 216.934L298.653 216.33L296.822 220.525C296.54 221.161 296.235 222.08 296.047 222.856C295.859 221.976 295.531 220.946 295.249 220.238L293.301 215.192L290.084 214.509L294.944 226.389L296.939 226.814L301.493 216.934ZM310.834 226.695C310.223 227.069 309.143 227.32 307.852 227.045C306.185 226.691 304.918 225.533 304.683 223.852L312.313 225.473C312.43 225.09 312.477 224.692 312.477 224.02C312.477 220.996 310.2 218.52 307.477 217.941C304.002 217.203 301.889 219.274 301.889 222.418C301.889 225.826 304.167 228.566 307.571 229.289C309.049 229.604 310.552 229.491 311.608 228.804L310.834 226.695ZM307.359 220.22C308.909 220.55 309.801 221.771 309.777 223.086L304.589 221.984C304.871 220.627 305.739 219.876 307.359 220.22ZM314.651 230.53L317.351 231.104V223.856C317.656 223.297 318.149 222.874 319.088 223.073C319.652 223.193 319.933 223.349 320.45 223.771L321.412 221.383C321.06 221.045 320.638 220.811 319.769 220.626C318.501 220.357 317.844 220.769 317.351 221.36V220.304L314.651 219.73V230.53Z" fill="#7833FF"/>
    <circle r="72" transform="matrix(0.978148 0.207912 0 1 161.427 196.97)" fill="#FFE000"/>
    <path d="M132.273 198.123L142.555 200.308V197.548L135.161 195.977V181.937L132.273 181.323V198.123ZM143.404 195.089C143.404 198.329 145.658 201.232 149.156 201.975C152.654 202.719 154.907 200.774 154.907 197.534C154.907 194.294 152.654 191.391 149.156 190.647C145.658 189.904 143.404 191.849 143.404 195.089ZM146.292 195.703C146.292 193.831 147.559 192.9 149.156 193.239C150.799 193.589 152.043 195.101 152.043 196.925C152.043 198.797 150.822 199.762 149.156 199.407C147.512 199.058 146.292 197.503 146.292 195.703ZM155.859 204.6C155.859 207.072 158.276 208.642 161.352 209.296C164.427 209.949 166.845 209.359 166.845 206.935C166.845 204.511 164.427 202.893 161.352 202.24L161.234 202.215C161.141 202.027 161.094 201.825 161.094 201.633C161.094 201.513 161.094 201.369 161.141 201.235L161.328 201.275C164.051 201.854 165.812 200.404 165.812 198.244C165.812 197.764 165.718 197.264 165.554 196.797L167.315 196.763L167.221 194.535L164.028 194.577C163.3 193.942 162.385 193.459 161.328 193.235C158.535 192.641 156.821 194.173 156.821 196.333C156.821 197.917 157.737 199.503 159.333 200.491C159.169 200.672 159.098 200.945 159.098 201.209C159.098 201.449 159.169 201.752 159.286 201.993C157.267 201.996 155.859 202.8 155.859 204.6ZM158.37 205.134C158.37 204.342 159.427 204.039 161.352 204.448C163.3 204.862 164.31 205.605 164.31 206.397C164.31 207.261 163.183 207.477 161.352 207.088C159.521 206.699 158.37 205.974 158.37 205.134ZM159.356 196.872C159.356 195.888 160.108 195.207 161.328 195.467C162.596 195.736 163.3 196.702 163.3 197.71C163.3 198.79 162.479 199.287 161.328 199.043C160.108 198.783 159.356 197.88 159.356 196.872ZM174.332 207.063L177.032 207.637V196.837L174.332 196.263V207.063ZM174.051 192.315C174.051 193.419 174.825 194.208 175.741 194.402C176.516 194.567 177.29 194.108 177.29 193.004C177.29 192.02 176.516 191.231 175.741 191.066C174.825 190.872 174.051 191.331 174.051 192.315ZM180.444 208.362L183.144 208.936V201.568C183.778 201.055 184.529 200.83 185.444 201.025C186.947 201.344 187.815 202.345 187.815 204.073V209.929L190.515 210.503V204.167C190.515 200.783 188.754 199.136 186.172 198.587C184.904 198.318 183.778 198.655 183.144 199.216V198.136L180.444 197.562V208.362Z" fill="#10162F"/>
    <path d="M245.117 364.759L246.463 365.045L247.856 361.949L252.849 363.01L254.257 366.701L255.681 367.004L250.971 354.739L249.828 354.496L245.117 364.759ZM250.36 356.417L252.332 361.62L248.388 360.782L250.36 356.417ZM262.077 366.395C261.608 366.84 260.903 367.074 260.058 366.894C258.665 366.598 257.523 365.379 257.523 363.795C257.523 362.275 258.665 361.478 259.933 361.748C260.669 361.904 261.357 362.242 261.952 362.929L262.531 362.044C261.874 361.232 260.888 360.751 259.761 360.511C257.695 360.072 256.193 361.417 256.193 363.513C256.193 365.785 257.726 367.599 259.964 368.074C261.044 368.304 262.077 368.107 262.672 367.45L262.077 366.395ZM269.337 367.939C268.867 368.383 268.163 368.617 267.318 368.437C265.925 368.141 264.783 366.923 264.783 365.339C264.783 363.819 265.925 363.021 267.193 363.291C267.928 363.447 268.617 363.786 269.212 364.472L269.791 363.587C269.133 362.775 268.147 362.294 267.021 362.054C264.955 361.615 263.452 362.96 263.452 365.056C263.452 367.328 264.986 369.142 267.224 369.617C268.304 369.847 269.337 369.651 269.932 368.993L269.337 367.939ZM276.737 369.688C276.284 370.023 275.485 370.173 274.578 369.981C273.2 369.688 272.23 368.682 272.121 367.298L277.536 368.449C277.582 368.235 277.614 367.954 277.614 367.602C277.614 365.618 276.158 363.997 274.343 363.611C272.027 363.118 270.712 364.503 270.712 366.599C270.712 368.871 272.199 370.675 274.484 371.161C275.423 371.36 276.44 371.272 277.129 370.779L276.737 369.688ZM274.28 364.797C275.501 365.057 276.252 365.952 276.315 367.15L272.042 366.242C272.183 365.168 272.997 364.525 274.28 364.797ZM282.881 370.833C282.881 371.489 282.286 371.699 281.629 371.559C280.924 371.41 280.001 370.781 279.594 370.215L278.89 370.977C279.218 371.559 280.345 372.406 281.488 372.649C282.896 372.949 284.211 372.572 284.211 371.052C284.211 368.524 280.408 368.436 280.408 366.916C280.408 366.436 280.83 366.11 281.535 366.259C282.27 366.416 282.881 366.865 283.303 367.339L283.898 366.49C283.475 365.984 282.63 365.372 281.472 365.126C280.079 364.83 279.078 365.385 279.078 366.649C279.078 369.289 282.881 369.377 282.881 370.833ZM289.605 372.263C289.605 372.919 289.011 373.128 288.353 372.989C287.649 372.839 286.726 372.211 286.319 371.644L285.615 372.407C285.943 372.988 287.07 373.836 288.213 374.079C289.621 374.378 290.936 374.002 290.936 372.482C290.936 369.954 287.133 369.865 287.133 368.345C287.133 367.865 287.555 367.539 288.259 367.689C288.995 367.845 289.605 368.295 290.028 368.769L290.623 367.919C290.2 367.413 289.355 366.802 288.197 366.555C286.804 366.259 285.802 366.814 285.802 368.078C285.802 370.718 289.605 370.807 289.605 372.263ZM296.121 372.864C296.121 374.704 296.747 375.861 298.327 376.197C299.11 376.363 299.751 376.211 300.127 375.971L299.736 374.896C299.485 375.035 299.11 375.163 298.625 375.06C297.733 374.87 297.373 374.138 297.373 373.002V369.866L299.955 370.415V369.215L297.373 368.666V366.666L296.121 366.4V372.864ZM301.05 373.047C301.05 375.207 302.552 377.127 304.806 377.606C307.06 378.085 308.562 376.804 308.562 374.644C308.562 372.484 307.06 370.565 304.806 370.086C302.552 369.607 301.05 370.887 301.05 373.047ZM302.38 373.33C302.38 371.81 303.429 370.993 304.806 371.286C306.214 371.585 307.232 372.857 307.232 374.361C307.232 375.897 306.214 376.705 304.806 376.406C303.397 376.106 302.38 374.834 302.38 373.33ZM316.394 372.709L314.798 372.37L311.887 375.191L315.064 379.626L316.77 379.989L313.405 375.417L316.394 372.709ZM310.369 378.628L311.621 378.894V367.694L310.369 367.428V378.628ZM323.23 379.57C322.776 379.905 321.978 380.056 321.07 379.863C319.693 379.57 318.723 378.564 318.613 377.181L324.028 378.332C324.075 378.118 324.106 377.836 324.106 377.484C324.106 375.5 322.651 373.879 320.835 373.493C318.519 373.001 317.205 374.385 317.205 376.481C317.205 378.753 318.691 380.557 320.976 381.043C321.915 381.242 322.933 381.155 323.621 380.661L323.23 379.57ZM320.773 374.68C321.994 374.939 322.745 375.835 322.807 377.032L318.535 376.124C318.676 375.05 319.49 374.407 320.773 374.68ZM325.805 381.909L327.057 382.175V376.975C327.511 376.544 328.246 376.3 329.045 376.47C330.359 376.749 331.032 377.596 331.032 379.1V383.02L332.284 383.286V379.126C332.284 376.87 331.189 375.726 329.358 375.336C328.434 375.14 327.542 375.414 327.057 375.855V374.975L325.805 374.709V381.909ZM269.614 393.965L270.866 394.232V383.032L269.614 382.765V387.117C269.129 386.662 268.581 386.386 267.83 386.226C265.607 385.754 263.98 386.976 263.98 389.216C263.98 391.44 265.31 393.179 267.376 393.618C268.33 393.821 269.097 393.52 269.614 393.053V393.965ZM267.61 392.468C266.296 392.188 265.31 391.051 265.31 389.467C265.31 387.883 266.484 387.14 267.877 387.436C268.456 387.559 269.019 387.855 269.614 388.365V391.933C269.175 392.336 268.424 392.641 267.61 392.468ZM278.671 394.099C278.217 394.434 277.419 394.584 276.511 394.391C275.134 394.099 274.163 393.093 274.054 391.709L279.469 392.86C279.516 392.646 279.547 392.365 279.547 392.013C279.547 390.029 278.092 388.407 276.276 388.022C273.96 387.529 272.645 388.914 272.645 391.01C272.645 393.282 274.132 395.086 276.417 395.572C277.356 395.771 278.373 395.683 279.062 395.19L278.671 394.099ZM276.214 389.208C277.434 389.468 278.186 390.363 278.248 391.561L273.976 390.653C274.116 389.579 274.93 388.936 276.214 389.208ZM281.246 394.518C281.246 395.91 281.778 396.679 282.842 396.905C283.578 397.062 284.125 396.938 284.501 396.714L284.219 395.678C283.985 395.788 283.672 395.882 283.327 395.808C282.732 395.682 282.498 395.184 282.498 394.208V385.504L281.246 385.238V394.518ZM291.341 396.792C290.887 397.127 290.089 397.278 289.181 397.085C287.804 396.792 286.834 395.786 286.724 394.402L292.139 395.553C292.186 395.339 292.217 395.058 292.217 394.706C292.217 392.722 290.762 391.101 288.946 390.715C286.63 390.222 285.315 391.607 285.315 393.703C285.315 395.975 286.802 397.779 289.087 398.265C290.026 398.464 291.043 398.376 291.732 397.883L291.341 396.792ZM288.884 391.901C290.104 392.161 290.856 393.057 290.918 394.254L286.646 393.346C286.787 392.272 287.6 391.629 288.884 391.901ZM293.759 396.362C293.759 398.202 294.385 399.359 295.966 399.695C296.748 399.861 297.39 399.71 297.766 399.469L297.375 398.394C297.124 398.533 296.748 398.661 296.263 398.558C295.371 398.368 295.011 397.636 295.011 396.5V393.364L297.594 393.913V392.713L295.011 392.164V390.164L293.759 389.898V396.362ZM304.714 399.634C304.26 399.97 303.462 400.12 302.554 399.927C301.177 399.634 300.207 398.628 300.097 397.245L305.512 398.396C305.559 398.182 305.59 397.901 305.59 397.549C305.59 395.565 304.135 393.943 302.319 393.557C300.003 393.065 298.689 394.449 298.689 396.545C298.689 398.817 300.175 400.622 302.46 401.107C303.399 401.307 304.417 401.219 305.105 400.725L304.714 399.634ZM302.257 394.744C303.478 395.003 304.229 395.899 304.291 397.096L300.019 396.188C300.16 395.114 300.973 394.471 302.257 394.744ZM312.454 403.071L313.706 403.337V392.137L312.454 391.871V396.223C311.968 395.768 311.421 395.492 310.669 395.332C308.447 394.86 306.819 396.082 306.819 398.322C306.819 400.546 308.15 402.285 310.216 402.724C311.17 402.927 311.937 402.626 312.454 402.159V403.071ZM310.45 401.574C309.136 401.294 308.15 400.157 308.15 398.573C308.15 396.989 309.323 396.246 310.716 396.542C311.295 396.665 311.859 396.961 312.454 397.471V401.039C312.015 401.442 311.264 401.746 310.45 401.574Z" fill="#10162F"/>
    <path d="M245.117 49.7586L246.463 50.0447L247.856 46.9487L252.849 48.0099L254.257 51.7013L255.681 52.004L250.971 39.7387L249.828 39.4959L245.117 49.7586ZM250.36 41.417L252.332 46.6201L248.388 45.7818L250.36 41.417ZM262.077 51.3955C261.608 51.8397 260.903 52.074 260.058 51.8944C258.665 51.5983 257.523 50.3795 257.523 48.7955C257.523 47.2755 258.665 46.4783 259.933 46.7477C260.669 46.9041 261.357 47.2425 261.952 47.9289L262.531 47.044C261.874 46.2322 260.888 45.7507 259.761 45.5112C257.695 45.072 256.193 46.4167 256.193 48.5127C256.193 50.7847 257.726 52.5987 259.964 53.0744C261.044 53.3039 262.077 53.1075 262.672 52.4499L262.077 51.3955ZM269.337 52.9386C268.867 53.3828 268.163 53.6171 267.318 53.4375C265.925 53.1414 264.783 51.9225 264.783 50.3385C264.783 48.8185 265.925 48.0214 267.193 48.2908C267.928 48.4472 268.617 48.7856 269.212 49.472L269.791 48.5871C269.133 47.7753 268.147 47.2938 267.021 47.0542C264.955 46.6151 263.452 47.9598 263.452 50.0558C263.452 52.3278 264.986 54.1418 267.224 54.6175C268.304 54.847 269.337 54.6506 269.932 53.993L269.337 52.9386ZM276.737 54.6876C276.284 55.0231 275.485 55.1735 274.578 54.9805C273.2 54.6878 272.23 53.6816 272.121 52.2983L277.536 53.4493C277.582 53.2353 277.614 52.9539 277.614 52.6019C277.614 50.6179 276.158 48.9965 274.343 48.6106C272.027 48.1183 270.712 49.5029 270.712 51.5989C270.712 53.8709 272.199 55.6749 274.484 56.1606C275.423 56.3602 276.44 56.2724 277.129 55.7788L276.737 54.6876ZM274.28 49.7973C275.501 50.0568 276.252 50.9525 276.315 52.1498L272.042 51.2416C272.183 50.1676 272.997 49.5246 274.28 49.7973ZM282.881 55.8334C282.881 56.4894 282.286 56.699 281.629 56.5593C280.924 56.4096 280.001 55.7813 279.594 55.2148L278.89 55.9771C279.218 56.559 280.345 57.4065 281.488 57.6493C282.896 57.9487 284.211 57.5722 284.211 56.0522C284.211 53.5242 280.408 53.4358 280.408 51.9158C280.408 51.4358 280.83 51.1096 281.535 51.2593C282.27 51.4157 282.881 51.8654 283.303 52.3392L283.898 51.4896C283.475 50.9838 282.63 50.3722 281.472 50.126C280.079 49.8299 279.078 50.385 279.078 51.649C279.078 54.289 282.881 54.3774 282.881 55.8334ZM289.605 57.2628C289.605 57.9188 289.011 58.1284 288.353 57.9887C287.649 57.839 286.726 57.2107 286.319 56.6442L285.615 57.4065C285.943 57.9884 287.07 58.8359 288.213 59.0787C289.621 59.3781 290.936 59.0016 290.936 57.4816C290.936 54.9536 287.133 54.8652 287.133 53.3452C287.133 52.8652 287.555 52.539 288.259 52.6887C288.995 52.8451 289.605 53.2948 290.028 53.7686L290.623 52.919C290.2 52.4132 289.355 51.8016 288.197 51.5554C286.804 51.2593 285.802 51.8144 285.802 53.0784C285.802 55.7184 289.605 55.8068 289.605 57.2628ZM296.121 57.8636C296.121 59.7036 296.747 60.8607 298.327 61.1967C299.11 61.363 299.751 61.2114 300.127 60.9713L299.736 59.8961C299.485 60.0349 299.11 60.163 298.625 60.0599C297.733 59.8703 297.373 59.1378 297.373 58.0018V54.8658L299.955 55.4147V54.2147L297.373 53.6658V51.6658L296.121 51.3996V57.8636ZM301.05 58.0474C301.05 60.2074 302.552 62.1267 304.806 62.6058C307.06 63.0848 308.562 61.8042 308.562 59.6442C308.562 57.4842 307.06 55.5648 304.806 55.0858C302.552 54.6067 301.05 55.8874 301.05 58.0474ZM302.38 58.3302C302.38 56.8101 303.429 55.993 304.806 56.2858C306.214 56.5852 307.232 57.8574 307.232 59.3614C307.232 60.8974 306.214 61.7052 304.806 61.4058C303.397 61.1064 302.38 59.8342 302.38 58.3302ZM316.394 57.7089L314.798 57.3696L311.887 60.1908L315.064 64.6261L316.77 64.9887L313.405 60.4175L316.394 57.7089ZM310.369 63.6281L311.621 63.8943V52.6943L310.369 52.4281V63.6281ZM323.23 64.5699C322.776 64.9054 321.978 65.0558 321.07 64.8628C319.693 64.5701 318.723 63.5639 318.613 62.1806L324.028 63.3316C324.075 63.1176 324.106 62.8362 324.106 62.4842C324.106 60.5002 322.651 58.8788 320.835 58.4929C318.519 58.0006 317.205 59.3852 317.205 61.4812C317.205 63.7532 318.691 65.5572 320.976 66.0429C321.915 66.2425 322.933 66.1547 323.621 65.6611L323.23 64.5699ZM320.773 59.6796C321.994 59.9391 322.745 60.8348 322.807 62.0321L318.535 61.1239C318.676 60.0499 319.49 59.4069 320.773 59.6796ZM325.805 66.9092L327.057 67.1754V61.9754C327.511 61.5438 328.246 61.3002 329.045 61.4698C330.359 61.7493 331.032 62.5963 331.032 64.1003V68.0203L332.284 68.2865V64.1265C332.284 61.8705 331.189 60.7256 329.358 60.3364C328.434 60.1401 327.542 60.4145 327.057 60.8554V59.9754L325.805 59.7092V66.9092ZM270.453 77.1757C269.983 77.6199 269.279 77.8542 268.434 77.6746C267.041 77.3785 265.898 76.1597 265.898 74.5757C265.898 73.0557 267.041 72.2585 268.308 72.528C269.044 72.6843 269.733 73.0227 270.327 73.7091L270.906 72.8242C270.249 72.0125 269.263 71.5309 268.136 71.2914C266.07 70.8523 264.568 72.1969 264.568 74.2929C264.568 76.5649 266.102 78.3789 268.34 78.8546C269.42 79.0842 270.453 78.8877 271.047 78.2301L270.453 77.1757ZM272.679 79.617L273.931 79.8832V74.7792C274.197 74.3077 274.589 73.8949 275.402 74.0679C275.825 74.1577 276.013 74.2616 276.357 74.5428L276.795 73.4359C276.561 73.21 276.279 73.0542 275.7 72.9311C274.808 72.7415 274.291 73.0637 273.931 73.5312V72.6832L272.679 72.417V79.617ZM283.554 80.1365C283.1 80.472 282.302 80.6224 281.394 80.4294C280.017 80.1367 279.047 79.1304 278.937 77.7472L284.352 78.8982C284.399 78.6841 284.43 78.4028 284.43 78.0508C284.43 76.0668 282.975 74.4454 281.159 74.0595C278.843 73.5672 277.528 74.9518 277.528 77.0478C277.528 79.3198 279.015 81.1238 281.3 81.6095C282.239 81.8091 283.256 81.7213 283.945 81.2277L283.554 80.1365ZM281.097 75.2462C282.317 75.5057 283.069 76.4014 283.131 77.5987L278.859 76.6905C279 75.6165 279.813 74.9734 281.097 75.2462ZM286.504 76.8757C287.068 76.6914 287.584 76.5772 288.445 76.7602C289.838 77.0562 290.041 78.0275 290.041 79.3715C289.572 78.9197 288.836 78.6513 288.289 78.5349C286.77 78.2122 285.628 78.7854 285.628 80.2574C285.628 81.6494 286.504 82.6677 287.788 82.9404C288.946 83.1866 289.619 82.8337 290.041 82.3795V83.3075L291.231 83.5603V79.1443C291.231 77.2723 290.527 76.0506 288.523 75.6248C287.647 75.4385 286.802 75.5149 286.176 75.7818L286.504 76.8757ZM288.226 81.8816C287.412 81.7086 286.958 81.1641 286.958 80.4761C286.958 79.6441 287.709 79.4518 288.461 79.6115C289.071 79.7412 289.603 80.0143 290.041 80.4275V81.3395C289.681 81.695 289.149 82.0779 288.226 81.8816ZM293.171 81.2367C293.171 83.0767 293.797 84.2337 295.378 84.5697C296.16 84.736 296.802 84.5844 297.177 84.3443L296.786 83.2691C296.536 83.4079 296.16 83.536 295.675 83.4329C294.783 83.2433 294.423 82.5108 294.423 81.3748V78.2388L297.005 78.7877V77.5877L294.423 77.0388V75.0388L293.171 74.7727V81.2367ZM304.126 84.5091C303.672 84.8447 302.873 84.995 301.966 84.8021C300.589 84.5093 299.618 83.5031 299.509 82.1198L304.924 83.2708C304.971 83.0568 305.002 82.7754 305.002 82.4234C305.002 80.4394 303.546 78.8181 301.731 78.4322C299.415 77.9398 298.1 79.3244 298.1 81.4204C298.1 83.6924 299.587 85.4964 301.872 85.9821C302.811 86.1817 303.828 86.0939 304.517 85.6003L304.126 84.5091ZM301.668 79.6189C302.889 79.8783 303.64 80.774 303.703 81.9713L299.43 81.0632C299.571 79.9891 300.385 79.3461 301.668 79.6189ZM311.865 87.9462L313.117 88.2124V77.0124L311.865 76.7462V81.0982C311.38 80.6431 310.832 80.3667 310.081 80.207C307.859 79.7346 306.231 80.9567 306.231 83.1967C306.231 85.4207 307.561 87.1594 309.627 87.5985C310.582 87.8015 311.349 87.5005 311.865 87.0342V87.9462ZM309.862 86.4484C308.547 86.169 307.561 85.0314 307.561 83.4474C307.561 81.8634 308.735 81.1209 310.128 81.417C310.707 81.5401 311.27 81.8358 311.865 82.3462V85.9142C311.427 86.3171 310.676 86.6214 309.862 86.4484Z" fill="#10162F"/>
    <path d="M159.683 90.7359L157.332 88.3812C157.575 88.1699 157.862 87.8509 158.012 87.6834C159.21 86.3516 158.845 84.6366 157.739 83.5291C156.671 82.4587 155.182 81.9533 153.705 83.5961C153.353 83.9869 152.576 84.8907 152.296 85.2017L158.8 91.7169L159.683 90.7359ZM154.859 84.5708C155.462 83.9009 156.119 83.8771 156.797 84.5565C157.522 85.2825 157.439 86.0628 156.915 86.645C156.714 86.8683 156.481 87.0889 156.245 87.2922L154.247 85.2912C154.474 85.0187 154.68 84.7701 154.859 84.5708Z" fill="#6C7991"/>
    <path d="M163.448 80.1324C165.307 82.3252 167.784 82.6711 169.462 81.2144C171.14 79.7577 171.119 77.1393 169.328 75.027C167.469 72.8342 164.983 72.4953 163.305 73.952C161.571 75.4577 161.717 78.0904 163.448 80.1324ZM164.496 79.2219C163.26 77.7634 163.205 76.0472 164.286 75.1087C165.351 74.1843 167.043 74.4789 168.279 75.9374C169.456 77.3255 169.667 79.0282 168.481 80.0576C167.425 80.9751 165.69 80.6302 164.496 79.2219Z" fill="#6C7991"/>
    <path d="M178.325 71.1928C178.734 71.7592 178.568 72.3332 178.054 72.6811C177.576 73.0051 176.792 73.1232 176.02 72.8027L176.048 74.1205C176.896 74.6753 178.126 74.4622 178.923 73.9222C180.083 73.1363 180.378 71.6633 179.468 70.4021C177.672 67.9119 175.22 70.3054 174.103 68.7557C173.748 68.264 173.837 67.7107 174.377 67.3447C174.872 67.0088 175.32 67.0078 175.875 67.1565L175.75 65.7773C175.024 65.5376 174.163 65.6597 173.402 66.1756C172.198 66.9916 172.15 68.4241 172.96 69.5463C174.717 71.9831 177.261 69.7179 178.325 71.1928Z" fill="#6C7991"/>
    <path d="M181.501 63.0129L183.659 61.8733L187.687 68.4144L188.856 67.797L184.828 61.2559L186.985 60.1163L186.193 58.8304L180.709 61.7271L181.501 63.0129Z" fill="#6C7991"/>
    <path d="M388.883 386.808L389.018 386.741C389.636 386.434 390.402 386.083 390.807 385.882C393.382 384.604 393.591 382.135 392.274 379.912C391.037 377.825 388.87 376.549 386.169 377.889C385.677 378.134 384.732 378.646 384.327 378.847L384.202 378.909L388.883 386.808ZM386.919 379.197C388.53 378.397 390.077 378.943 391.02 380.534C392.01 382.204 391.706 383.757 390.076 384.566C389.912 384.647 389.642 384.781 389.301 384.921L386.157 379.618C386.414 379.462 386.639 379.335 386.919 379.197Z" fill="#6C7991"/>
    <path d="M399.903 380.925L403.664 378.561L402.807 377.313L400.16 378.977L398.81 377.012L401.095 375.577L400.237 374.329L397.953 375.764L396.655 373.876L399.212 372.27L398.354 371.021L394.683 373.329L399.903 380.925Z" fill="#6C7991"/>
    <path d="M408.758 375.003L412.47 372.155L411.536 370.96L408.866 373.008L404.115 366.93L403.073 367.73L408.758 375.003Z" fill="#6C7991"/>
    <path d="M417.01 368.289L420.261 365.271L419.256 364.137L416.968 366.26L415.386 364.474L417.36 362.642L416.355 361.507L414.381 363.339L412.86 361.622L415.069 359.572L414.064 358.437L410.891 361.382L417.01 368.289Z" fill="#6C7991"/>
    <path d="M418.537 356.109L420.153 354.287L425.612 359.706L426.488 358.718L421.029 353.3L422.645 351.478L421.572 350.412L417.464 355.044L418.537 356.109Z" fill="#6C7991"/>
    <path d="M432.059 351.932L434.699 348.308L433.565 347.319L431.707 349.869L429.922 348.312L431.525 346.112L430.39 345.123L428.787 347.323L427.071 345.827L428.865 343.364L427.731 342.375L425.154 345.912L432.059 351.932Z" fill="#6C7991"/>
</svg>
