<svg width="600" height="600" viewBox="0 0 600 600" fill="none" xmlns="http://www.w3.org/2000/svg">
    <path d="M45.4927 449.602C45.3525 435.145 54.8356 420.662 73.9419 409.631C111.876 387.729 173.38 387.729 211.314 409.631C230.42 420.662 239.903 435.145 239.763 449.602C239.765 449.813 239.765 450.024 239.763 450.235C239.765 450.445 239.765 450.656 239.763 450.867C239.765 451.077 239.765 451.288 239.763 451.499C239.765 451.709 239.765 451.92 239.763 452.13C239.765 452.341 239.765 452.552 239.763 452.762C239.763 452.809 239.764 452.855 239.764 452.901C239.764 452.942 239.764 452.983 239.764 453.024C239.765 453.147 239.764 453.271 239.763 453.394C239.765 453.605 239.765 453.816 239.763 454.026C239.764 454.131 239.765 454.236 239.765 454.34L239.764 454.435C239.764 454.471 239.764 454.506 239.764 454.542C239.764 454.581 239.763 454.619 239.763 454.658C239.764 454.782 239.765 454.906 239.764 455.029C239.764 455.116 239.764 455.203 239.763 455.29C239.765 455.501 239.765 455.712 239.763 455.922C239.764 456.012 239.764 456.101 239.765 456.19C239.765 456.312 239.764 456.433 239.763 456.554C239.765 456.765 239.765 456.976 239.763 457.186C239.765 457.397 239.765 457.608 239.763 457.818C239.765 458.029 239.765 458.239 239.763 458.45C239.765 458.661 239.765 458.871 239.763 459.082C239.765 459.293 239.765 459.503 239.763 459.714C239.765 459.925 239.765 460.135 239.763 460.346L239.764 460.407L239.764 460.491C239.764 460.532 239.764 460.573 239.765 460.614C239.765 460.736 239.764 460.857 239.763 460.978C239.765 461.189 239.765 461.399 239.763 461.61C239.765 461.821 239.765 462.031 239.763 462.242C239.765 462.453 239.765 462.663 239.763 462.874C239.765 463.085 239.765 463.295 239.763 463.506C239.765 463.717 239.765 463.927 239.763 464.138C239.765 464.348 239.765 464.559 239.763 464.77C239.765 464.98 239.765 465.191 239.763 465.402C239.765 465.612 239.765 465.823 239.763 466.034C239.764 466.139 239.765 466.244 239.765 466.349C239.765 466.455 239.764 466.56 239.763 466.666C239.765 466.876 239.765 467.087 239.763 467.298C239.765 467.508 239.765 467.719 239.763 467.93C239.764 468.021 239.764 468.113 239.765 468.205C239.765 468.324 239.764 468.443 239.763 468.562C239.765 468.772 239.765 468.983 239.763 469.194C239.765 469.404 239.765 469.615 239.763 469.826C239.765 470.036 239.765 470.247 239.763 470.458C239.765 470.668 239.765 470.879 239.763 471.089C239.765 471.3 239.765 471.511 239.763 471.721C239.765 471.932 239.765 472.143 239.763 472.353C239.763 472.395 239.764 472.437 239.764 472.478L239.764 472.568C239.765 472.707 239.764 472.846 239.763 472.985C239.765 473.196 239.765 473.407 239.763 473.617C239.765 473.828 239.765 474.039 239.763 474.249C239.765 474.46 239.765 474.671 239.763 474.881C239.765 475.092 239.765 475.303 239.763 475.513C239.765 475.724 239.765 475.935 239.763 476.145C239.765 476.356 239.765 476.566 239.763 476.777C239.765 476.988 239.765 477.198 239.763 477.409C239.765 477.62 239.765 477.83 239.763 478.041C239.765 478.252 239.765 478.462 239.763 478.673C239.765 478.884 239.765 479.094 239.763 479.305C239.765 479.516 239.765 479.726 239.763 479.937C239.903 494.395 230.42 508.878 211.314 519.909C173.38 541.81 111.876 541.81 73.9419 519.909C54.8356 508.878 45.3525 494.395 45.4927 479.937C45.4907 479.726 45.4907 479.516 45.4927 479.305C45.4907 479.094 45.4907 478.884 45.4927 478.673C45.4907 478.462 45.4907 478.252 45.4927 478.041C45.4907 477.83 45.4907 477.62 45.4927 477.409C45.4907 477.198 45.4907 476.988 45.4927 476.777C45.4907 476.566 45.4907 476.356 45.4927 476.145C45.4907 475.934 45.4907 475.724 45.4927 475.513C45.4907 475.302 45.4907 475.092 45.4927 474.881C45.4907 474.67 45.4907 474.46 45.4927 474.249C45.4907 474.038 45.4907 473.828 45.4927 473.617C45.4907 473.407 45.4907 473.196 45.4927 472.985C45.4907 472.775 45.4907 472.564 45.4927 472.353C45.4907 472.143 45.4907 471.932 45.4927 471.721C45.4907 471.511 45.4907 471.3 45.4927 471.089C45.4907 470.879 45.4907 470.668 45.4927 470.457C45.4907 470.247 45.4907 470.036 45.4927 469.825C45.4907 469.615 45.4907 469.404 45.4927 469.193C45.4907 468.983 45.4907 468.772 45.4927 468.561C45.4907 468.351 45.4907 468.14 45.4927 467.929C45.4907 467.719 45.4907 467.508 45.4927 467.297C45.4907 467.087 45.4907 466.876 45.4927 466.666C45.4907 466.455 45.4907 466.244 45.4927 466.034C45.4907 465.823 45.4907 465.612 45.4927 465.402C45.4907 465.191 45.4907 464.98 45.4927 464.77C45.4907 464.559 45.4907 464.348 45.4927 464.138C45.4907 463.927 45.4907 463.716 45.4927 463.506C45.4907 463.295 45.4907 463.084 45.4927 462.874C45.4907 462.663 45.4907 462.452 45.4927 462.242C45.4907 462.031 45.4907 461.82 45.4927 461.61C45.4907 461.399 45.4907 461.188 45.4927 460.978C45.4907 460.767 45.4907 460.557 45.4927 460.346C45.4907 460.135 45.4907 459.925 45.4927 459.714C45.4907 459.503 45.4907 459.293 45.4927 459.082C45.4907 458.871 45.4907 458.661 45.4927 458.45C45.4907 458.239 45.4907 458.029 45.4927 457.818C45.4907 457.607 45.4907 457.397 45.4927 457.186C45.4907 456.975 45.4907 456.765 45.4927 456.554C45.4907 456.343 45.4907 456.133 45.4927 455.922C45.4907 455.711 45.4907 455.501 45.4927 455.29C45.4907 455.079 45.4907 454.869 45.4927 454.658C45.4907 454.448 45.4907 454.237 45.4927 454.026C45.4907 453.816 45.4907 453.605 45.4927 453.394C45.4907 453.184 45.4907 452.973 45.4927 452.762C45.4907 452.552 45.4907 452.341 45.4927 452.13C45.4907 451.92 45.4907 451.709 45.4927 451.498C45.4907 451.288 45.4907 451.077 45.4927 450.866C45.4907 450.656 45.4907 450.445 45.4927 450.234C45.4907 450.024 45.4907 449.813 45.4927 449.602Z" fill="#73FFE5"/>
    <path d="M45.4927 449.602C45.3525 435.145 54.8356 420.662 73.9419 409.631C111.876 387.729 173.38 387.729 211.314 409.631C230.42 420.662 239.903 435.145 239.763 449.602C239.765 449.813 239.765 450.024 239.763 450.235C239.765 450.445 239.765 450.656 239.763 450.867C239.765 451.077 239.765 451.288 239.763 451.499C239.765 451.709 239.765 451.92 239.763 452.13C239.765 452.341 239.765 452.552 239.763 452.762C239.763 452.809 239.764 452.855 239.764 452.901C239.764 452.942 239.764 452.983 239.764 453.024C239.765 453.147 239.764 453.271 239.763 453.394C239.765 453.605 239.765 453.816 239.763 454.026C239.764 454.131 239.765 454.236 239.765 454.34L239.764 454.435C239.764 454.471 239.764 454.506 239.764 454.542C239.764 454.581 239.763 454.619 239.763 454.658C239.764 454.782 239.765 454.906 239.764 455.029C239.764 455.116 239.764 455.203 239.763 455.29C239.765 455.501 239.765 455.712 239.763 455.922C239.764 456.012 239.764 456.101 239.765 456.19C239.765 456.312 239.764 456.433 239.763 456.554C239.765 456.765 239.765 456.976 239.763 457.186C239.765 457.397 239.765 457.608 239.763 457.818C239.765 458.029 239.765 458.239 239.763 458.45C239.765 458.661 239.765 458.871 239.763 459.082C239.765 459.293 239.765 459.503 239.763 459.714C239.765 459.925 239.765 460.135 239.763 460.346L239.764 460.407L239.764 460.491C239.764 460.532 239.764 460.573 239.765 460.614C239.765 460.736 239.764 460.857 239.763 460.978C239.765 461.189 239.765 461.399 239.763 461.61C239.765 461.821 239.765 462.031 239.763 462.242C239.765 462.453 239.765 462.663 239.763 462.874C239.765 463.085 239.765 463.295 239.763 463.506C239.765 463.717 239.765 463.927 239.763 464.138C239.765 464.348 239.765 464.559 239.763 464.77C239.765 464.98 239.765 465.191 239.763 465.402C239.765 465.612 239.765 465.823 239.763 466.034C239.764 466.139 239.765 466.244 239.765 466.349C239.765 466.455 239.764 466.56 239.763 466.666C239.765 466.876 239.765 467.087 239.763 467.298C239.765 467.508 239.765 467.719 239.763 467.93C239.764 468.021 239.764 468.113 239.765 468.205C239.765 468.324 239.764 468.443 239.763 468.562C239.765 468.772 239.765 468.983 239.763 469.194C239.765 469.404 239.765 469.615 239.763 469.826C239.765 470.036 239.765 470.247 239.763 470.458C239.765 470.668 239.765 470.879 239.763 471.089C239.765 471.3 239.765 471.511 239.763 471.721C239.765 471.932 239.765 472.143 239.763 472.353C239.763 472.395 239.764 472.437 239.764 472.478L239.764 472.568C239.765 472.707 239.764 472.846 239.763 472.985C239.765 473.196 239.765 473.407 239.763 473.617C239.765 473.828 239.765 474.039 239.763 474.249C239.765 474.46 239.765 474.671 239.763 474.881C239.765 475.092 239.765 475.303 239.763 475.513C239.765 475.724 239.765 475.935 239.763 476.145C239.765 476.356 239.765 476.566 239.763 476.777C239.765 476.988 239.765 477.198 239.763 477.409C239.765 477.62 239.765 477.83 239.763 478.041C239.765 478.252 239.765 478.462 239.763 478.673C239.765 478.884 239.765 479.094 239.763 479.305C239.765 479.516 239.765 479.726 239.763 479.937C239.903 494.395 230.42 508.878 211.314 519.909C173.38 541.81 111.876 541.81 73.9419 519.909C54.8356 508.878 45.3525 494.395 45.4927 479.937C45.4907 479.726 45.4907 479.516 45.4927 479.305C45.4907 479.094 45.4907 478.884 45.4927 478.673C45.4907 478.462 45.4907 478.252 45.4927 478.041C45.4907 477.83 45.4907 477.62 45.4927 477.409C45.4907 477.198 45.4907 476.988 45.4927 476.777C45.4907 476.566 45.4907 476.356 45.4927 476.145C45.4907 475.934 45.4907 475.724 45.4927 475.513C45.4907 475.302 45.4907 475.092 45.4927 474.881C45.4907 474.67 45.4907 474.46 45.4927 474.249C45.4907 474.038 45.4907 473.828 45.4927 473.617C45.4907 473.407 45.4907 473.196 45.4927 472.985C45.4907 472.775 45.4907 472.564 45.4927 472.353C45.4907 472.143 45.4907 471.932 45.4927 471.721C45.4907 471.511 45.4907 471.3 45.4927 471.089C45.4907 470.879 45.4907 470.668 45.4927 470.457C45.4907 470.247 45.4907 470.036 45.4927 469.825C45.4907 469.615 45.4907 469.404 45.4927 469.193C45.4907 468.983 45.4907 468.772 45.4927 468.561C45.4907 468.351 45.4907 468.14 45.4927 467.929C45.4907 467.719 45.4907 467.508 45.4927 467.297C45.4907 467.087 45.4907 466.876 45.4927 466.666C45.4907 466.455 45.4907 466.244 45.4927 466.034C45.4907 465.823 45.4907 465.612 45.4927 465.402C45.4907 465.191 45.4907 464.98 45.4927 464.77C45.4907 464.559 45.4907 464.348 45.4927 464.138C45.4907 463.927 45.4907 463.716 45.4927 463.506C45.4907 463.295 45.4907 463.084 45.4927 462.874C45.4907 462.663 45.4907 462.452 45.4927 462.242C45.4907 462.031 45.4907 461.82 45.4927 461.61C45.4907 461.399 45.4907 461.188 45.4927 460.978C45.4907 460.767 45.4907 460.557 45.4927 460.346C45.4907 460.135 45.4907 459.925 45.4927 459.714C45.4907 459.503 45.4907 459.293 45.4927 459.082C45.4907 458.871 45.4907 458.661 45.4927 458.45C45.4907 458.239 45.4907 458.029 45.4927 457.818C45.4907 457.607 45.4907 457.397 45.4927 457.186C45.4907 456.975 45.4907 456.765 45.4927 456.554C45.4907 456.343 45.4907 456.133 45.4927 455.922C45.4907 455.711 45.4907 455.501 45.4927 455.29C45.4907 455.079 45.4907 454.869 45.4927 454.658C45.4907 454.448 45.4907 454.237 45.4927 454.026C45.4907 453.816 45.4907 453.605 45.4927 453.394C45.4907 453.184 45.4907 452.973 45.4927 452.762C45.4907 452.552 45.4907 452.341 45.4927 452.13C45.4907 451.92 45.4907 451.709 45.4927 451.498C45.4907 451.288 45.4907 451.077 45.4927 450.866C45.4907 450.656 45.4907 450.445 45.4927 450.234C45.4907 450.024 45.4907 449.813 45.4927 449.602Z" fill="url(#paint0_linear)"/>
    <circle r="79.3118" transform="matrix(0.866025 0.5 -0.866025 0.5 142.628 448.654)" fill="#3C4257"/>
    <ellipse cx="65.2935" cy="498.11" rx="5.05573" ry="5.6877" fill="#3C4257"/>
    <path d="M45.4927 399.602C45.3525 385.145 54.8356 370.662 73.9419 359.631C111.876 337.729 173.38 337.729 211.314 359.631C230.42 370.662 239.903 385.145 239.763 399.602C239.765 399.813 239.765 400.024 239.763 400.235C239.765 400.445 239.765 400.656 239.763 400.867C239.765 401.077 239.765 401.288 239.763 401.499C239.765 401.709 239.765 401.92 239.763 402.13C239.765 402.341 239.765 402.552 239.763 402.762C239.763 402.809 239.764 402.855 239.764 402.901C239.764 402.942 239.764 402.983 239.764 403.024C239.765 403.147 239.764 403.271 239.763 403.394C239.765 403.605 239.765 403.816 239.763 404.026C239.764 404.131 239.765 404.236 239.765 404.34L239.764 404.435C239.764 404.471 239.764 404.506 239.764 404.542C239.764 404.581 239.763 404.619 239.763 404.658C239.764 404.782 239.765 404.906 239.764 405.029C239.764 405.116 239.764 405.203 239.763 405.29C239.765 405.501 239.765 405.712 239.763 405.922C239.764 406.012 239.764 406.101 239.765 406.19C239.765 406.312 239.764 406.433 239.763 406.554C239.765 406.765 239.765 406.976 239.763 407.186C239.765 407.397 239.765 407.608 239.763 407.818C239.765 408.029 239.765 408.239 239.763 408.45C239.765 408.661 239.765 408.871 239.763 409.082C239.765 409.293 239.765 409.503 239.763 409.714C239.765 409.925 239.765 410.135 239.763 410.346L239.764 410.407L239.764 410.491C239.764 410.532 239.764 410.573 239.765 410.614C239.765 410.736 239.764 410.857 239.763 410.978C239.765 411.189 239.765 411.399 239.763 411.61C239.765 411.821 239.765 412.031 239.763 412.242C239.765 412.453 239.765 412.663 239.763 412.874C239.765 413.085 239.765 413.295 239.763 413.506C239.765 413.717 239.765 413.927 239.763 414.138C239.765 414.348 239.765 414.559 239.763 414.77C239.765 414.98 239.765 415.191 239.763 415.402C239.765 415.612 239.765 415.823 239.763 416.034C239.764 416.139 239.765 416.244 239.765 416.349C239.765 416.455 239.764 416.56 239.763 416.666C239.765 416.876 239.765 417.087 239.763 417.298C239.765 417.508 239.765 417.719 239.763 417.93C239.764 418.021 239.764 418.113 239.765 418.205C239.765 418.324 239.764 418.443 239.763 418.562C239.765 418.772 239.765 418.983 239.763 419.194C239.765 419.404 239.765 419.615 239.763 419.826C239.765 420.036 239.765 420.247 239.763 420.458C239.765 420.668 239.765 420.879 239.763 421.089C239.765 421.3 239.765 421.511 239.763 421.721C239.765 421.932 239.765 422.143 239.763 422.353C239.763 422.395 239.764 422.437 239.764 422.478L239.764 422.568C239.765 422.707 239.764 422.846 239.763 422.985C239.765 423.196 239.765 423.407 239.763 423.617C239.765 423.828 239.765 424.039 239.763 424.249C239.765 424.46 239.765 424.671 239.763 424.881C239.765 425.092 239.765 425.303 239.763 425.513C239.765 425.724 239.765 425.935 239.763 426.145C239.765 426.356 239.765 426.566 239.763 426.777C239.765 426.988 239.765 427.198 239.763 427.409C239.765 427.62 239.765 427.83 239.763 428.041C239.765 428.252 239.765 428.462 239.763 428.673C239.765 428.884 239.765 429.094 239.763 429.305C239.765 429.516 239.765 429.726 239.763 429.937C239.903 444.395 230.42 458.878 211.314 469.909C173.38 491.81 111.876 491.81 73.9419 469.909C54.8356 458.878 45.3525 444.395 45.4927 429.937C45.4907 429.726 45.4907 429.516 45.4927 429.305C45.4907 429.094 45.4907 428.884 45.4927 428.673C45.4907 428.462 45.4907 428.252 45.4927 428.041C45.4907 427.83 45.4907 427.62 45.4927 427.409C45.4907 427.198 45.4907 426.988 45.4927 426.777C45.4907 426.566 45.4907 426.356 45.4927 426.145C45.4907 425.934 45.4907 425.724 45.4927 425.513C45.4907 425.302 45.4907 425.092 45.4927 424.881C45.4907 424.67 45.4907 424.46 45.4927 424.249C45.4907 424.038 45.4907 423.828 45.4927 423.617C45.4907 423.407 45.4907 423.196 45.4927 422.985C45.4907 422.775 45.4907 422.564 45.4927 422.353C45.4907 422.143 45.4907 421.932 45.4927 421.721C45.4907 421.511 45.4907 421.3 45.4927 421.089C45.4907 420.879 45.4907 420.668 45.4927 420.457C45.4907 420.247 45.4907 420.036 45.4927 419.825C45.4907 419.615 45.4907 419.404 45.4927 419.193C45.4907 418.983 45.4907 418.772 45.4927 418.561C45.4907 418.351 45.4907 418.14 45.4927 417.929C45.4907 417.719 45.4907 417.508 45.4927 417.297C45.4907 417.087 45.4907 416.876 45.4927 416.666C45.4907 416.455 45.4907 416.244 45.4927 416.034C45.4907 415.823 45.4907 415.612 45.4927 415.402C45.4907 415.191 45.4907 414.98 45.4927 414.77C45.4907 414.559 45.4907 414.348 45.4927 414.138C45.4907 413.927 45.4907 413.716 45.4927 413.506C45.4907 413.295 45.4907 413.084 45.4927 412.874C45.4907 412.663 45.4907 412.452 45.4927 412.242C45.4907 412.031 45.4907 411.82 45.4927 411.61C45.4907 411.399 45.4907 411.188 45.4927 410.978C45.4907 410.767 45.4907 410.557 45.4927 410.346C45.4907 410.135 45.4907 409.925 45.4927 409.714C45.4907 409.503 45.4907 409.293 45.4927 409.082C45.4907 408.871 45.4907 408.661 45.4927 408.45C45.4907 408.239 45.4907 408.029 45.4927 407.818C45.4907 407.607 45.4907 407.397 45.4927 407.186C45.4907 406.975 45.4907 406.765 45.4927 406.554C45.4907 406.343 45.4907 406.133 45.4927 405.922C45.4907 405.711 45.4907 405.501 45.4927 405.29C45.4907 405.079 45.4907 404.869 45.4927 404.658C45.4907 404.448 45.4907 404.237 45.4927 404.026C45.4907 403.816 45.4907 403.605 45.4927 403.394C45.4907 403.184 45.4907 402.973 45.4927 402.762C45.4907 402.552 45.4907 402.341 45.4927 402.13C45.4907 401.92 45.4907 401.709 45.4927 401.498C45.4907 401.288 45.4907 401.077 45.4927 400.866C45.4907 400.656 45.4907 400.445 45.4927 400.234C45.4907 400.024 45.4907 399.813 45.4927 399.602Z" fill="#73FFE5"/>
    <path d="M45.4927 399.602C45.3525 385.145 54.8356 370.662 73.9419 359.631C111.876 337.729 173.38 337.729 211.314 359.631C230.42 370.662 239.903 385.145 239.763 399.602C239.765 399.813 239.765 400.024 239.763 400.235C239.765 400.445 239.765 400.656 239.763 400.867C239.765 401.077 239.765 401.288 239.763 401.499C239.765 401.709 239.765 401.92 239.763 402.13C239.765 402.341 239.765 402.552 239.763 402.762C239.763 402.809 239.764 402.855 239.764 402.901C239.764 402.942 239.764 402.983 239.764 403.024C239.765 403.147 239.764 403.271 239.763 403.394C239.765 403.605 239.765 403.816 239.763 404.026C239.764 404.131 239.765 404.236 239.765 404.34L239.764 404.435C239.764 404.471 239.764 404.506 239.764 404.542C239.764 404.581 239.763 404.619 239.763 404.658C239.764 404.782 239.765 404.906 239.764 405.029C239.764 405.116 239.764 405.203 239.763 405.29C239.765 405.501 239.765 405.712 239.763 405.922C239.764 406.012 239.764 406.101 239.765 406.19C239.765 406.312 239.764 406.433 239.763 406.554C239.765 406.765 239.765 406.976 239.763 407.186C239.765 407.397 239.765 407.608 239.763 407.818C239.765 408.029 239.765 408.239 239.763 408.45C239.765 408.661 239.765 408.871 239.763 409.082C239.765 409.293 239.765 409.503 239.763 409.714C239.765 409.925 239.765 410.135 239.763 410.346L239.764 410.407L239.764 410.491C239.764 410.532 239.764 410.573 239.765 410.614C239.765 410.736 239.764 410.857 239.763 410.978C239.765 411.189 239.765 411.399 239.763 411.61C239.765 411.821 239.765 412.031 239.763 412.242C239.765 412.453 239.765 412.663 239.763 412.874C239.765 413.085 239.765 413.295 239.763 413.506C239.765 413.717 239.765 413.927 239.763 414.138C239.765 414.348 239.765 414.559 239.763 414.77C239.765 414.98 239.765 415.191 239.763 415.402C239.765 415.612 239.765 415.823 239.763 416.034C239.764 416.139 239.765 416.244 239.765 416.349C239.765 416.455 239.764 416.56 239.763 416.666C239.765 416.876 239.765 417.087 239.763 417.298C239.765 417.508 239.765 417.719 239.763 417.93C239.764 418.021 239.764 418.113 239.765 418.205C239.765 418.324 239.764 418.443 239.763 418.562C239.765 418.772 239.765 418.983 239.763 419.194C239.765 419.404 239.765 419.615 239.763 419.826C239.765 420.036 239.765 420.247 239.763 420.458C239.765 420.668 239.765 420.879 239.763 421.089C239.765 421.3 239.765 421.511 239.763 421.721C239.765 421.932 239.765 422.143 239.763 422.353C239.763 422.395 239.764 422.437 239.764 422.478L239.764 422.568C239.765 422.707 239.764 422.846 239.763 422.985C239.765 423.196 239.765 423.407 239.763 423.617C239.765 423.828 239.765 424.039 239.763 424.249C239.765 424.46 239.765 424.671 239.763 424.881C239.765 425.092 239.765 425.303 239.763 425.513C239.765 425.724 239.765 425.935 239.763 426.145C239.765 426.356 239.765 426.566 239.763 426.777C239.765 426.988 239.765 427.198 239.763 427.409C239.765 427.62 239.765 427.83 239.763 428.041C239.765 428.252 239.765 428.462 239.763 428.673C239.765 428.884 239.765 429.094 239.763 429.305C239.765 429.516 239.765 429.726 239.763 429.937C239.903 444.395 230.42 458.878 211.314 469.909C173.38 491.81 111.876 491.81 73.9419 469.909C54.8356 458.878 45.3525 444.395 45.4927 429.937C45.4907 429.726 45.4907 429.516 45.4927 429.305C45.4907 429.094 45.4907 428.884 45.4927 428.673C45.4907 428.462 45.4907 428.252 45.4927 428.041C45.4907 427.83 45.4907 427.62 45.4927 427.409C45.4907 427.198 45.4907 426.988 45.4927 426.777C45.4907 426.566 45.4907 426.356 45.4927 426.145C45.4907 425.934 45.4907 425.724 45.4927 425.513C45.4907 425.302 45.4907 425.092 45.4927 424.881C45.4907 424.67 45.4907 424.46 45.4927 424.249C45.4907 424.038 45.4907 423.828 45.4927 423.617C45.4907 423.407 45.4907 423.196 45.4927 422.985C45.4907 422.775 45.4907 422.564 45.4927 422.353C45.4907 422.143 45.4907 421.932 45.4927 421.721C45.4907 421.511 45.4907 421.3 45.4927 421.089C45.4907 420.879 45.4907 420.668 45.4927 420.457C45.4907 420.247 45.4907 420.036 45.4927 419.825C45.4907 419.615 45.4907 419.404 45.4927 419.193C45.4907 418.983 45.4907 418.772 45.4927 418.561C45.4907 418.351 45.4907 418.14 45.4927 417.929C45.4907 417.719 45.4907 417.508 45.4927 417.297C45.4907 417.087 45.4907 416.876 45.4927 416.666C45.4907 416.455 45.4907 416.244 45.4927 416.034C45.4907 415.823 45.4907 415.612 45.4927 415.402C45.4907 415.191 45.4907 414.98 45.4927 414.77C45.4907 414.559 45.4907 414.348 45.4927 414.138C45.4907 413.927 45.4907 413.716 45.4927 413.506C45.4907 413.295 45.4907 413.084 45.4927 412.874C45.4907 412.663 45.4907 412.452 45.4927 412.242C45.4907 412.031 45.4907 411.82 45.4927 411.61C45.4907 411.399 45.4907 411.188 45.4927 410.978C45.4907 410.767 45.4907 410.557 45.4927 410.346C45.4907 410.135 45.4907 409.925 45.4927 409.714C45.4907 409.503 45.4907 409.293 45.4927 409.082C45.4907 408.871 45.4907 408.661 45.4927 408.45C45.4907 408.239 45.4907 408.029 45.4927 407.818C45.4907 407.607 45.4907 407.397 45.4927 407.186C45.4907 406.975 45.4907 406.765 45.4927 406.554C45.4907 406.343 45.4907 406.133 45.4927 405.922C45.4907 405.711 45.4907 405.501 45.4927 405.29C45.4907 405.079 45.4907 404.869 45.4927 404.658C45.4907 404.448 45.4907 404.237 45.4927 404.026C45.4907 403.816 45.4907 403.605 45.4927 403.394C45.4907 403.184 45.4907 402.973 45.4927 402.762C45.4907 402.552 45.4907 402.341 45.4927 402.13C45.4907 401.92 45.4907 401.709 45.4927 401.498C45.4907 401.288 45.4907 401.077 45.4927 400.866C45.4907 400.656 45.4907 400.445 45.4927 400.234C45.4907 400.024 45.4907 399.813 45.4927 399.602Z" fill="url(#paint1_linear)"/>
    <circle r="79.3118" transform="matrix(0.866025 0.5 -0.866025 0.5 142.628 398.654)" fill="#3C4257"/>
    <ellipse cx="65.2935" cy="448.11" rx="5.05573" ry="5.6877" fill="#3C4257"/>
    <path d="M45.4927 348.26C45.3525 333.802 54.8356 319.319 73.9419 308.288C111.876 286.387 173.38 286.387 211.314 308.288C230.42 319.319 239.903 333.802 239.763 348.26C239.765 348.471 239.765 348.682 239.763 348.892C239.765 349.103 239.765 349.314 239.763 349.524C239.765 349.735 239.765 349.946 239.763 350.156C239.765 350.367 239.765 350.578 239.763 350.788C239.765 350.999 239.765 351.209 239.763 351.42C239.763 351.466 239.764 351.513 239.764 351.559C239.764 351.6 239.764 351.64 239.764 351.681C239.765 351.805 239.764 351.929 239.763 352.052C239.765 352.263 239.765 352.473 239.763 352.684C239.764 352.789 239.765 352.893 239.765 352.998L239.764 353.093C239.764 353.129 239.764 353.164 239.764 353.2C239.764 353.238 239.763 353.277 239.763 353.316C239.764 353.44 239.765 353.563 239.764 353.687C239.764 353.774 239.764 353.861 239.763 353.948C239.765 354.159 239.765 354.369 239.763 354.58C239.764 354.669 239.764 354.759 239.765 354.848C239.765 354.969 239.764 355.091 239.763 355.212C239.765 355.423 239.765 355.633 239.763 355.844C239.765 356.055 239.765 356.265 239.763 356.476C239.765 356.687 239.765 356.897 239.763 357.108C239.765 357.318 239.765 357.529 239.763 357.74C239.765 357.95 239.765 358.161 239.763 358.372C239.765 358.582 239.765 358.793 239.763 359.004L239.764 359.065L239.764 359.148C239.764 359.19 239.764 359.231 239.765 359.272C239.765 359.393 239.764 359.515 239.763 359.636C239.765 359.846 239.765 360.057 239.763 360.268C239.765 360.478 239.765 360.689 239.763 360.9C239.765 361.11 239.765 361.321 239.763 361.532C239.765 361.742 239.765 361.953 239.763 362.164C239.765 362.374 239.765 362.585 239.763 362.796C239.765 363.006 239.765 363.217 239.763 363.428C239.765 363.638 239.765 363.849 239.763 364.059C239.765 364.27 239.765 364.481 239.763 364.691C239.764 364.797 239.765 364.902 239.765 365.007C239.765 365.112 239.764 365.218 239.763 365.323C239.765 365.534 239.765 365.745 239.763 365.955C239.765 366.166 239.765 366.377 239.763 366.587C239.764 366.679 239.764 366.771 239.765 366.862C239.765 366.981 239.764 367.1 239.763 367.219C239.765 367.43 239.765 367.641 239.763 367.851C239.765 368.062 239.765 368.273 239.763 368.483C239.765 368.694 239.765 368.905 239.763 369.115C239.765 369.326 239.765 369.537 239.763 369.747C239.765 369.958 239.765 370.168 239.763 370.379C239.765 370.59 239.765 370.8 239.763 371.011C239.763 371.053 239.764 371.094 239.764 371.136L239.764 371.225C239.765 371.365 239.764 371.504 239.763 371.643C239.765 371.854 239.765 372.064 239.763 372.275C239.765 372.486 239.765 372.696 239.763 372.907C239.765 373.118 239.765 373.328 239.763 373.539C239.765 373.75 239.765 373.96 239.763 374.171C239.765 374.382 239.765 374.592 239.763 374.803C239.765 375.014 239.765 375.224 239.763 375.435C239.765 375.646 239.765 375.856 239.763 376.067C239.765 376.277 239.765 376.488 239.763 376.699C239.765 376.909 239.765 377.12 239.763 377.331C239.765 377.541 239.765 377.752 239.763 377.963C239.765 378.173 239.765 378.384 239.763 378.595C239.903 393.052 230.42 407.535 211.314 418.566C173.38 440.468 111.876 440.468 73.9419 418.566C54.8356 407.535 45.3525 393.052 45.4927 378.595C45.4907 378.384 45.4907 378.173 45.4927 377.963C45.4907 377.752 45.4907 377.541 45.4927 377.331C45.4907 377.12 45.4907 376.909 45.4927 376.699C45.4907 376.488 45.4907 376.277 45.4927 376.067C45.4907 375.856 45.4907 375.645 45.4927 375.435C45.4907 375.224 45.4907 375.013 45.4927 374.803C45.4907 374.592 45.4907 374.381 45.4927 374.171C45.4907 373.96 45.4907 373.749 45.4927 373.539C45.4907 373.328 45.4907 373.117 45.4927 372.907C45.4907 372.696 45.4907 372.486 45.4927 372.275C45.4907 372.064 45.4907 371.854 45.4927 371.643C45.4907 371.432 45.4907 371.222 45.4927 371.011C45.4907 370.8 45.4907 370.59 45.4927 370.379C45.4907 370.168 45.4907 369.958 45.4927 369.747C45.4907 369.536 45.4907 369.326 45.4927 369.115C45.4907 368.904 45.4907 368.694 45.4927 368.483C45.4907 368.272 45.4907 368.062 45.4927 367.851C45.4907 367.64 45.4907 367.43 45.4927 367.219C45.4907 367.008 45.4907 366.798 45.4927 366.587C45.4907 366.377 45.4907 366.166 45.4927 365.955C45.4907 365.745 45.4907 365.534 45.4927 365.323C45.4907 365.113 45.4907 364.902 45.4927 364.691C45.4907 364.481 45.4907 364.27 45.4927 364.059C45.4907 363.849 45.4907 363.638 45.4927 363.427C45.4907 363.217 45.4907 363.006 45.4927 362.795C45.4907 362.585 45.4907 362.374 45.4927 362.163C45.4907 361.953 45.4907 361.742 45.4927 361.531C45.4907 361.321 45.4907 361.11 45.4927 360.899C45.4907 360.689 45.4907 360.478 45.4927 360.268C45.4907 360.057 45.4907 359.846 45.4927 359.636C45.4907 359.425 45.4907 359.214 45.4927 359.004C45.4907 358.793 45.4907 358.582 45.4927 358.372C45.4907 358.161 45.4907 357.95 45.4927 357.74C45.4907 357.529 45.4907 357.318 45.4927 357.108C45.4907 356.897 45.4907 356.686 45.4927 356.476C45.4907 356.265 45.4907 356.054 45.4927 355.844C45.4907 355.633 45.4907 355.422 45.4927 355.212C45.4907 355.001 45.4907 354.79 45.4927 354.58C45.4907 354.369 45.4907 354.159 45.4927 353.948C45.4907 353.737 45.4907 353.527 45.4927 353.316C45.4907 353.105 45.4907 352.895 45.4927 352.684C45.4907 352.473 45.4907 352.263 45.4927 352.052C45.4907 351.841 45.4907 351.631 45.4927 351.42C45.4907 351.209 45.4907 350.999 45.4927 350.788C45.4907 350.577 45.4907 350.367 45.4927 350.156C45.4907 349.945 45.4907 349.735 45.4927 349.524C45.4907 349.313 45.4907 349.103 45.4927 348.892C45.4907 348.681 45.4907 348.471 45.4927 348.26Z" fill="#73FFE5"/>
    <path d="M45.4927 348.26C45.3525 333.802 54.8356 319.319 73.9419 308.288C111.876 286.387 173.38 286.387 211.314 308.288C230.42 319.319 239.903 333.802 239.763 348.26C239.765 348.471 239.765 348.682 239.763 348.892C239.765 349.103 239.765 349.314 239.763 349.524C239.765 349.735 239.765 349.946 239.763 350.156C239.765 350.367 239.765 350.578 239.763 350.788C239.765 350.999 239.765 351.209 239.763 351.42C239.763 351.466 239.764 351.513 239.764 351.559C239.764 351.6 239.764 351.64 239.764 351.681C239.765 351.805 239.764 351.929 239.763 352.052C239.765 352.263 239.765 352.473 239.763 352.684C239.764 352.789 239.765 352.893 239.765 352.998L239.764 353.093C239.764 353.129 239.764 353.164 239.764 353.2C239.764 353.238 239.763 353.277 239.763 353.316C239.764 353.44 239.765 353.563 239.764 353.687C239.764 353.774 239.764 353.861 239.763 353.948C239.765 354.159 239.765 354.369 239.763 354.58C239.764 354.669 239.764 354.759 239.765 354.848C239.765 354.969 239.764 355.091 239.763 355.212C239.765 355.423 239.765 355.633 239.763 355.844C239.765 356.055 239.765 356.265 239.763 356.476C239.765 356.687 239.765 356.897 239.763 357.108C239.765 357.318 239.765 357.529 239.763 357.74C239.765 357.95 239.765 358.161 239.763 358.372C239.765 358.582 239.765 358.793 239.763 359.004L239.764 359.065L239.764 359.148C239.764 359.19 239.764 359.231 239.765 359.272C239.765 359.393 239.764 359.515 239.763 359.636C239.765 359.846 239.765 360.057 239.763 360.268C239.765 360.478 239.765 360.689 239.763 360.9C239.765 361.11 239.765 361.321 239.763 361.532C239.765 361.742 239.765 361.953 239.763 362.164C239.765 362.374 239.765 362.585 239.763 362.796C239.765 363.006 239.765 363.217 239.763 363.428C239.765 363.638 239.765 363.849 239.763 364.059C239.765 364.27 239.765 364.481 239.763 364.691C239.764 364.797 239.765 364.902 239.765 365.007C239.765 365.112 239.764 365.218 239.763 365.323C239.765 365.534 239.765 365.745 239.763 365.955C239.765 366.166 239.765 366.377 239.763 366.587C239.764 366.679 239.764 366.771 239.765 366.862C239.765 366.981 239.764 367.1 239.763 367.219C239.765 367.43 239.765 367.641 239.763 367.851C239.765 368.062 239.765 368.273 239.763 368.483C239.765 368.694 239.765 368.905 239.763 369.115C239.765 369.326 239.765 369.537 239.763 369.747C239.765 369.958 239.765 370.168 239.763 370.379C239.765 370.59 239.765 370.8 239.763 371.011C239.763 371.053 239.764 371.094 239.764 371.136L239.764 371.225C239.765 371.365 239.764 371.504 239.763 371.643C239.765 371.854 239.765 372.064 239.763 372.275C239.765 372.486 239.765 372.696 239.763 372.907C239.765 373.118 239.765 373.328 239.763 373.539C239.765 373.75 239.765 373.96 239.763 374.171C239.765 374.382 239.765 374.592 239.763 374.803C239.765 375.014 239.765 375.224 239.763 375.435C239.765 375.646 239.765 375.856 239.763 376.067C239.765 376.277 239.765 376.488 239.763 376.699C239.765 376.909 239.765 377.12 239.763 377.331C239.765 377.541 239.765 377.752 239.763 377.963C239.765 378.173 239.765 378.384 239.763 378.595C239.903 393.052 230.42 407.535 211.314 418.566C173.38 440.468 111.876 440.468 73.9419 418.566C54.8356 407.535 45.3525 393.052 45.4927 378.595C45.4907 378.384 45.4907 378.173 45.4927 377.963C45.4907 377.752 45.4907 377.541 45.4927 377.331C45.4907 377.12 45.4907 376.909 45.4927 376.699C45.4907 376.488 45.4907 376.277 45.4927 376.067C45.4907 375.856 45.4907 375.645 45.4927 375.435C45.4907 375.224 45.4907 375.013 45.4927 374.803C45.4907 374.592 45.4907 374.381 45.4927 374.171C45.4907 373.96 45.4907 373.749 45.4927 373.539C45.4907 373.328 45.4907 373.117 45.4927 372.907C45.4907 372.696 45.4907 372.486 45.4927 372.275C45.4907 372.064 45.4907 371.854 45.4927 371.643C45.4907 371.432 45.4907 371.222 45.4927 371.011C45.4907 370.8 45.4907 370.59 45.4927 370.379C45.4907 370.168 45.4907 369.958 45.4927 369.747C45.4907 369.536 45.4907 369.326 45.4927 369.115C45.4907 368.904 45.4907 368.694 45.4927 368.483C45.4907 368.272 45.4907 368.062 45.4927 367.851C45.4907 367.64 45.4907 367.43 45.4927 367.219C45.4907 367.008 45.4907 366.798 45.4927 366.587C45.4907 366.377 45.4907 366.166 45.4927 365.955C45.4907 365.745 45.4907 365.534 45.4927 365.323C45.4907 365.113 45.4907 364.902 45.4927 364.691C45.4907 364.481 45.4907 364.27 45.4927 364.059C45.4907 363.849 45.4907 363.638 45.4927 363.427C45.4907 363.217 45.4907 363.006 45.4927 362.795C45.4907 362.585 45.4907 362.374 45.4927 362.163C45.4907 361.953 45.4907 361.742 45.4927 361.531C45.4907 361.321 45.4907 361.11 45.4927 360.899C45.4907 360.689 45.4907 360.478 45.4927 360.268C45.4907 360.057 45.4907 359.846 45.4927 359.636C45.4907 359.425 45.4907 359.214 45.4927 359.004C45.4907 358.793 45.4907 358.582 45.4927 358.372C45.4907 358.161 45.4907 357.95 45.4927 357.74C45.4907 357.529 45.4907 357.318 45.4927 357.108C45.4907 356.897 45.4907 356.686 45.4927 356.476C45.4907 356.265 45.4907 356.054 45.4927 355.844C45.4907 355.633 45.4907 355.422 45.4927 355.212C45.4907 355.001 45.4907 354.79 45.4927 354.58C45.4907 354.369 45.4907 354.159 45.4927 353.948C45.4907 353.737 45.4907 353.527 45.4927 353.316C45.4907 353.105 45.4907 352.895 45.4927 352.684C45.4907 352.473 45.4907 352.263 45.4927 352.052C45.4907 351.841 45.4907 351.631 45.4927 351.42C45.4907 351.209 45.4907 350.999 45.4927 350.788C45.4907 350.577 45.4907 350.367 45.4927 350.156C45.4907 349.945 45.4907 349.735 45.4927 349.524C45.4907 349.313 45.4907 349.103 45.4927 348.892C45.4907 348.681 45.4907 348.471 45.4927 348.26Z" fill="url(#paint2_linear)"/>
    <circle r="79.3118" transform="matrix(0.866025 0.5 -0.866025 0.5 142.628 347.312)" fill="#3C4257"/>
    <ellipse cx="65.2935" cy="396.289" rx="5.05573" ry="5.6877" fill="#3C4257"/>
    <path d="M101.479 368.567C103.671 367.302 102.986 365.86 100.291 364.129L95.8082 361.233L99.066 359.352L108.154 364.599L110.453 363.272L99.4694 356.931L91.8578 361.325L98.0232 365.263C99.5912 366.265 100.124 366.976 99.104 367.565C98.9061 367.68 98.6702 367.781 98.5408 367.829L100.55 368.989C100.748 368.928 101.106 368.783 101.479 368.567ZM116.131 360.187C118.597 358.763 118.59 356.939 115.926 355.401L115.91 355.392C113.269 353.868 110.08 353.872 107.637 355.283C105.193 356.693 105.201 358.543 107.827 360.059L107.842 360.068C110.499 361.602 113.657 361.615 116.131 360.187ZM114.396 359.176C113.3 359.809 111.701 359.686 110.103 358.763L110.087 358.754C108.512 357.845 108.306 356.909 109.38 356.289C110.46 355.665 112.074 355.788 113.65 356.698L113.665 356.706C115.256 357.625 115.484 358.548 114.396 359.176ZM120.348 353.604L126.323 354.109L128.995 352.567L121.322 351.943L120.645 347.966L118.118 349.425L118.818 352.721L118.552 352.874L115.347 351.024L113.125 352.307L121.284 357.018L123.507 355.735L120.081 353.758L120.348 353.604ZM132.397 350.752C133.463 350.137 133.82 349.341 133.455 348.585L133.501 348.559L134.718 349.262L136.941 347.979L131.347 344.749C129.702 343.8 127.244 343.962 125.143 345.175C122.981 346.423 122.768 347.794 124.154 348.735L124.237 348.792L126.27 347.619L126.216 347.57C125.805 347.201 125.912 346.691 126.742 346.212C127.617 345.707 128.538 345.694 129.261 346.111L129.763 346.401L127.868 347.636C125.965 348.884 125.684 350.049 127.168 350.906L127.183 350.914C128.622 351.745 130.76 351.697 132.397 350.752ZM129.269 349.578L129.253 349.57C128.675 349.236 128.766 348.761 129.573 348.234L131.149 347.201L131.735 347.539C132.587 348.032 132.488 348.827 131.491 349.403C130.73 349.842 129.87 349.926 129.269 349.578ZM137.733 343.154L135.206 341.501L137.451 340.205L143.928 343.945L146.151 342.661L137.991 337.951L131.613 341.633L135.563 344.195C136.941 345.087 137.337 345.623 136.545 346.08C136.34 346.199 136.165 346.274 136.05 346.313L137.915 347.39C138.083 347.337 138.433 347.205 138.844 346.968C140.846 345.812 139.948 344.599 137.733 343.154ZM147.757 341.734L151.563 339.537C153.489 338.425 153.595 337.063 151.829 336.043L151.814 336.035C150.048 335.015 147.689 335.077 145.763 336.188L144.18 337.102L141.82 335.74L139.597 337.023L147.757 341.734ZM147.034 337.388C147.833 336.927 148.807 336.909 149.553 337.34L149.569 337.349C150.307 337.775 150.284 338.342 149.485 338.803L148.305 339.484L145.854 338.069L147.034 337.388ZM161.306 333.912L163.528 332.629L155.369 327.918L153.146 329.201L156.282 331.012L153.161 332.813L150.025 331.003L147.803 332.286L155.962 336.997L158.185 335.714L154.843 333.785L157.964 331.983L161.306 333.912ZM167.669 330.388C168.734 329.772 169.092 328.977 168.727 328.221L168.773 328.195L169.99 328.898L172.213 327.615L166.618 324.385C164.974 323.435 162.516 323.598 160.415 324.811C158.253 326.059 158.04 327.43 159.426 328.37L159.509 328.428L161.542 327.254L161.488 327.206C161.077 326.837 161.184 326.327 162.013 325.848C162.889 325.343 163.81 325.329 164.533 325.747L165.035 326.037L163.14 327.272C161.237 328.52 160.955 329.684 162.44 330.541L162.455 330.55C163.894 331.381 166.032 331.332 167.669 330.388ZM164.541 329.214L164.525 329.205C163.947 328.871 164.038 328.397 164.845 327.869L166.421 326.837L167.007 327.175C167.859 327.667 167.76 328.463 166.763 329.038C166.002 329.478 165.142 329.561 164.541 329.214ZM178.546 323.958L180.723 322.702L172.563 317.991L168.78 320.175C166.801 321.317 166.611 322.693 168.339 323.69L168.354 323.699C169.518 324.371 171.041 324.459 172.502 324.02L173.324 326.973L175.798 325.545L174.976 322.978L175.912 322.438L178.546 323.958ZM172.959 322.332C172.183 322.781 171.231 322.794 170.584 322.42L170.569 322.411C169.853 321.998 169.876 321.458 170.66 321.005L172.046 320.205L174.344 321.533L172.959 322.332ZM113.939 379.453C116.42 378.02 116.397 376.231 113.863 374.768L113.848 374.759C111.518 373.414 108.611 373.379 106.419 374.645C105.079 375.418 104.714 376.28 105.186 377.132L105.14 377.159L105.049 377.088C103.336 375.765 103.131 374.821 105.056 373.639L105.924 373.102C106.837 372.54 107.462 372.021 107.583 371.74L105.863 370.747C105.597 371.12 104.942 371.63 104.052 372.18L103.123 372.742C100.246 374.517 100.466 376.42 105.018 379.048L105.033 379.057C108.185 380.876 111.305 380.973 113.939 379.453ZM112.158 378.468C111.016 379.127 109.517 379.035 108.048 378.187L108.032 378.178C106.639 377.374 106.51 376.517 107.644 375.862C108.771 375.212 110.247 375.291 111.64 376.095L111.655 376.104C113.125 376.952 113.284 377.818 112.158 378.468ZM121.649 374.957C122.715 374.342 123.073 373.546 122.707 372.79L122.753 372.764L123.971 373.467L126.194 372.184L120.599 368.954C118.955 368.005 116.496 368.167 114.396 369.38C112.234 370.628 112.021 371.999 113.406 372.94L113.49 372.997L115.522 371.824L115.469 371.775C115.058 371.406 115.164 370.896 115.994 370.417C116.869 369.912 117.79 369.899 118.513 370.316L119.016 370.606L117.121 371.841C115.218 373.089 114.936 374.254 116.42 375.111L116.436 375.119C117.874 375.95 120.013 375.902 121.649 374.957ZM118.521 373.784L118.506 373.775C117.927 373.441 118.019 372.966 118.826 372.439L120.401 371.406L120.987 371.744C121.84 372.237 121.741 373.032 120.744 373.608C119.983 374.047 119.122 374.131 118.521 373.784ZM131.24 369.464C133.402 368.216 133.797 366.818 132.26 365.931L132.245 365.922C131.27 365.359 130.03 365.337 128.705 365.865L128.644 365.829C129.383 365.157 129.291 364.472 128.409 363.962L128.393 363.953C126.962 363.127 124.854 363.342 122.806 364.524C120.728 365.724 120.409 366.963 121.878 368.057L121.931 368.097L124.009 366.897L123.956 366.858C123.469 366.445 123.644 365.983 124.428 365.531C125.174 365.1 125.95 365.038 126.521 365.368L126.536 365.377C127.13 365.72 127.023 366.141 126.194 366.62L125.105 367.249L126.49 368.049L127.594 367.411C128.53 366.871 129.307 366.783 129.931 367.143L129.946 367.152C130.555 367.504 130.403 368.005 129.543 368.501C128.705 368.985 127.876 369.112 127.092 368.853L126.985 368.818L124.877 370.035L124.96 370.075C126.772 370.927 129.101 370.699 131.24 369.464ZM138.532 365.21C139.597 364.595 139.955 363.799 139.59 363.043L139.636 363.017L140.853 363.72L143.076 362.437L137.481 359.207C135.837 358.258 133.379 358.42 131.278 359.633C129.116 360.881 128.903 362.252 130.289 363.193L130.372 363.25L132.405 362.077L132.351 362.028C131.94 361.659 132.047 361.149 132.876 360.67C133.752 360.165 134.673 360.152 135.396 360.569L135.898 360.859L134.003 362.094C132.1 363.342 131.818 364.507 133.303 365.364L133.318 365.372C134.757 366.203 136.895 366.155 138.532 365.21ZM135.404 364.036L135.388 364.028C134.81 363.694 134.901 363.219 135.708 362.692L137.284 361.659L137.87 361.997C138.722 362.49 138.623 363.285 137.626 363.861C136.865 364.3 136.005 364.384 135.404 364.036ZM151.274 360.209L149.104 358.956L154.592 355.788L156.762 357.04L158.786 355.871L154.912 353.635L153.694 354.338L147.239 350.611L140.709 354.382L144.545 356.904C145.573 357.585 146.258 358.244 145.999 358.781L145.375 359.141L149.249 361.378L151.274 360.209ZM151.472 355.621L148.244 357.484L148.199 357.458C148.023 356.917 147.468 356.394 146.646 355.858L144.286 354.285L146.722 352.879L151.472 355.621ZM160.164 352.721C161.23 352.105 161.587 351.31 161.222 350.554L161.268 350.528L162.485 351.231L164.708 349.948L159.114 346.718C157.469 345.768 155.011 345.931 152.91 347.144C150.748 348.392 150.535 349.763 151.921 350.703L152.004 350.761L154.037 349.587L153.983 349.539C153.572 349.17 153.679 348.66 154.509 348.181C155.384 347.676 156.305 347.662 157.028 348.08L157.53 348.37L155.635 349.605C153.732 350.853 153.451 352.017 154.935 352.874L154.95 352.883C156.389 353.714 158.527 353.665 160.164 352.721ZM157.036 351.547L157.02 351.538C156.442 351.204 156.533 350.73 157.34 350.203L158.916 349.17L159.502 349.508C160.354 350 160.255 350.796 159.258 351.371C158.497 351.811 157.637 351.894 157.036 351.547ZM171.612 345.962L173.834 344.679L165.675 339.968L163.452 341.251L166.588 343.061L163.467 344.863L160.331 343.053L158.109 344.336L166.268 349.047L168.491 347.764L165.149 345.834L168.27 344.033L171.612 345.962ZM180.776 340.671L182.999 339.388L174.839 334.677L172.616 335.96L175.752 337.77L172.632 339.572L169.496 337.762L167.273 339.045L175.433 343.756L177.655 342.473L174.314 340.543L177.435 338.742L180.776 340.671ZM184.597 338.465L188.403 336.267C190.328 335.156 190.435 333.793 188.669 332.774L188.654 332.765C186.888 331.745 184.528 331.807 182.603 332.919L181.02 333.833L178.66 332.471L176.437 333.754L184.597 338.465ZM192.429 333.943L194.652 332.66L186.492 327.949L184.27 329.232L192.429 333.943ZM183.874 334.119C184.673 333.657 185.647 333.64 186.393 334.07L186.409 334.079C187.147 334.505 187.124 335.072 186.325 335.534L185.145 336.215L182.694 334.8L183.874 334.119ZM195.664 332.075L198.001 330.726L196.707 328.203L196.753 328.177L201.129 328.92L203.55 327.522L196.89 326.604L195.405 322.803L192.993 324.196L194.294 326.626L194.248 326.652L190.032 325.905L187.527 327.351L194.157 328.252L195.664 332.075Z" fill="white"/>
    <path d="M362.237 449.602C362.097 435.145 371.58 420.662 390.686 409.631C428.62 387.729 490.124 387.729 528.058 409.631C547.164 420.662 556.647 435.145 556.507 449.602C556.509 449.813 556.509 450.024 556.507 450.235C556.509 450.445 556.509 450.656 556.507 450.867C556.509 451.077 556.509 451.288 556.507 451.499C556.509 451.709 556.509 451.92 556.507 452.13C556.509 452.341 556.509 452.552 556.507 452.762C556.508 452.809 556.508 452.855 556.508 452.901C556.508 452.942 556.509 452.983 556.509 453.024C556.509 453.147 556.508 453.271 556.507 453.394C556.509 453.605 556.509 453.816 556.507 454.026C556.508 454.131 556.509 454.236 556.509 454.34L556.509 454.435C556.508 454.471 556.508 454.506 556.508 454.542C556.508 454.581 556.508 454.619 556.507 454.658C556.508 454.782 556.509 454.906 556.509 455.029C556.508 455.116 556.508 455.203 556.507 455.29C556.509 455.501 556.509 455.712 556.507 455.922C556.508 456.012 556.509 456.101 556.509 456.19C556.509 456.312 556.508 456.433 556.507 456.554C556.509 456.765 556.509 456.976 556.507 457.186C556.509 457.397 556.509 457.608 556.507 457.818C556.509 458.029 556.509 458.239 556.507 458.45C556.509 458.661 556.509 458.871 556.507 459.082C556.509 459.293 556.509 459.503 556.507 459.714C556.509 459.925 556.509 460.135 556.507 460.346L556.508 460.407L556.508 460.491C556.508 460.532 556.509 460.573 556.509 460.614C556.509 460.736 556.508 460.857 556.507 460.978C556.509 461.189 556.509 461.399 556.507 461.61C556.509 461.821 556.509 462.031 556.507 462.242C556.509 462.453 556.509 462.663 556.507 462.874C556.509 463.085 556.509 463.295 556.507 463.506C556.509 463.717 556.509 463.927 556.507 464.138C556.509 464.348 556.509 464.559 556.507 464.77C556.509 464.98 556.509 465.191 556.507 465.402C556.509 465.612 556.509 465.823 556.507 466.034C556.508 466.139 556.509 466.244 556.509 466.349C556.509 466.455 556.508 466.56 556.507 466.666C556.509 466.876 556.509 467.087 556.507 467.298C556.509 467.508 556.509 467.719 556.507 467.93C556.508 468.021 556.509 468.113 556.509 468.205C556.509 468.324 556.508 468.443 556.507 468.562C556.509 468.772 556.509 468.983 556.507 469.194C556.509 469.404 556.509 469.615 556.507 469.826C556.509 470.036 556.509 470.247 556.507 470.458C556.509 470.668 556.509 470.879 556.507 471.089C556.509 471.3 556.509 471.511 556.507 471.721C556.509 471.932 556.509 472.143 556.507 472.353C556.508 472.395 556.508 472.437 556.508 472.478L556.509 472.568C556.509 472.707 556.508 472.846 556.507 472.985C556.509 473.196 556.509 473.407 556.507 473.617C556.509 473.828 556.509 474.039 556.507 474.249C556.509 474.46 556.509 474.671 556.507 474.881C556.509 475.092 556.509 475.303 556.507 475.513C556.509 475.724 556.509 475.935 556.507 476.145C556.509 476.356 556.509 476.566 556.507 476.777C556.509 476.988 556.509 477.198 556.507 477.409C556.509 477.62 556.509 477.83 556.507 478.041C556.509 478.252 556.509 478.462 556.507 478.673C556.509 478.884 556.509 479.094 556.507 479.305C556.509 479.516 556.509 479.726 556.507 479.937C556.647 494.395 547.164 508.878 528.058 519.909C490.124 541.81 428.62 541.81 390.686 519.909C371.58 508.878 362.097 494.395 362.237 479.937C362.235 479.726 362.235 479.516 362.237 479.305C362.235 479.094 362.235 478.884 362.237 478.673C362.235 478.462 362.235 478.252 362.237 478.041C362.235 477.83 362.235 477.62 362.237 477.409C362.235 477.198 362.235 476.988 362.237 476.777C362.235 476.566 362.235 476.356 362.237 476.145C362.235 475.934 362.235 475.724 362.237 475.513C362.235 475.302 362.235 475.092 362.237 474.881C362.235 474.67 362.235 474.46 362.237 474.249C362.235 474.038 362.235 473.828 362.237 473.617C362.235 473.407 362.235 473.196 362.237 472.985C362.235 472.775 362.235 472.564 362.237 472.353C362.235 472.143 362.235 471.932 362.237 471.721C362.235 471.511 362.235 471.3 362.237 471.089C362.235 470.879 362.235 470.668 362.237 470.457C362.235 470.247 362.235 470.036 362.237 469.825C362.235 469.615 362.235 469.404 362.237 469.193C362.235 468.983 362.235 468.772 362.237 468.561C362.235 468.351 362.235 468.14 362.237 467.929C362.235 467.719 362.235 467.508 362.237 467.297C362.235 467.087 362.235 466.876 362.237 466.666C362.235 466.455 362.235 466.244 362.237 466.034C362.235 465.823 362.235 465.612 362.237 465.402C362.235 465.191 362.235 464.98 362.237 464.77C362.235 464.559 362.235 464.348 362.237 464.138C362.235 463.927 362.235 463.716 362.237 463.506C362.235 463.295 362.235 463.084 362.237 462.874C362.235 462.663 362.235 462.452 362.237 462.242C362.235 462.031 362.235 461.82 362.237 461.61C362.235 461.399 362.235 461.188 362.237 460.978C362.235 460.767 362.235 460.557 362.237 460.346C362.235 460.135 362.235 459.925 362.237 459.714C362.235 459.503 362.235 459.293 362.237 459.082C362.235 458.871 362.235 458.661 362.237 458.45C362.235 458.239 362.235 458.029 362.237 457.818C362.235 457.607 362.235 457.397 362.237 457.186C362.235 456.975 362.235 456.765 362.237 456.554C362.235 456.343 362.235 456.133 362.237 455.922C362.235 455.711 362.235 455.501 362.237 455.29C362.235 455.079 362.235 454.869 362.237 454.658C362.235 454.448 362.235 454.237 362.237 454.026C362.235 453.816 362.235 453.605 362.237 453.394C362.235 453.184 362.235 452.973 362.237 452.762C362.235 452.552 362.235 452.341 362.237 452.13C362.235 451.92 362.235 451.709 362.237 451.498C362.235 451.288 362.235 451.077 362.237 450.866C362.235 450.656 362.235 450.445 362.237 450.234C362.235 450.024 362.235 449.813 362.237 449.602Z" fill="#FF73E9"/>
    <path d="M362.237 449.602C362.097 435.145 371.58 420.662 390.686 409.631C428.62 387.729 490.124 387.729 528.058 409.631C547.164 420.662 556.647 435.145 556.507 449.602C556.509 449.813 556.509 450.024 556.507 450.235C556.509 450.445 556.509 450.656 556.507 450.867C556.509 451.077 556.509 451.288 556.507 451.499C556.509 451.709 556.509 451.92 556.507 452.13C556.509 452.341 556.509 452.552 556.507 452.762C556.508 452.809 556.508 452.855 556.508 452.901C556.508 452.942 556.509 452.983 556.509 453.024C556.509 453.147 556.508 453.271 556.507 453.394C556.509 453.605 556.509 453.816 556.507 454.026C556.508 454.131 556.509 454.236 556.509 454.34L556.509 454.435C556.508 454.471 556.508 454.506 556.508 454.542C556.508 454.581 556.508 454.619 556.507 454.658C556.508 454.782 556.509 454.906 556.509 455.029C556.508 455.116 556.508 455.203 556.507 455.29C556.509 455.501 556.509 455.712 556.507 455.922C556.508 456.012 556.509 456.101 556.509 456.19C556.509 456.312 556.508 456.433 556.507 456.554C556.509 456.765 556.509 456.976 556.507 457.186C556.509 457.397 556.509 457.608 556.507 457.818C556.509 458.029 556.509 458.239 556.507 458.45C556.509 458.661 556.509 458.871 556.507 459.082C556.509 459.293 556.509 459.503 556.507 459.714C556.509 459.925 556.509 460.135 556.507 460.346L556.508 460.407L556.508 460.491C556.508 460.532 556.509 460.573 556.509 460.614C556.509 460.736 556.508 460.857 556.507 460.978C556.509 461.189 556.509 461.399 556.507 461.61C556.509 461.821 556.509 462.031 556.507 462.242C556.509 462.453 556.509 462.663 556.507 462.874C556.509 463.085 556.509 463.295 556.507 463.506C556.509 463.717 556.509 463.927 556.507 464.138C556.509 464.348 556.509 464.559 556.507 464.77C556.509 464.98 556.509 465.191 556.507 465.402C556.509 465.612 556.509 465.823 556.507 466.034C556.508 466.139 556.509 466.244 556.509 466.349C556.509 466.455 556.508 466.56 556.507 466.666C556.509 466.876 556.509 467.087 556.507 467.298C556.509 467.508 556.509 467.719 556.507 467.93C556.508 468.021 556.509 468.113 556.509 468.205C556.509 468.324 556.508 468.443 556.507 468.562C556.509 468.772 556.509 468.983 556.507 469.194C556.509 469.404 556.509 469.615 556.507 469.826C556.509 470.036 556.509 470.247 556.507 470.458C556.509 470.668 556.509 470.879 556.507 471.089C556.509 471.3 556.509 471.511 556.507 471.721C556.509 471.932 556.509 472.143 556.507 472.353C556.508 472.395 556.508 472.437 556.508 472.478L556.509 472.568C556.509 472.707 556.508 472.846 556.507 472.985C556.509 473.196 556.509 473.407 556.507 473.617C556.509 473.828 556.509 474.039 556.507 474.249C556.509 474.46 556.509 474.671 556.507 474.881C556.509 475.092 556.509 475.303 556.507 475.513C556.509 475.724 556.509 475.935 556.507 476.145C556.509 476.356 556.509 476.566 556.507 476.777C556.509 476.988 556.509 477.198 556.507 477.409C556.509 477.62 556.509 477.83 556.507 478.041C556.509 478.252 556.509 478.462 556.507 478.673C556.509 478.884 556.509 479.094 556.507 479.305C556.509 479.516 556.509 479.726 556.507 479.937C556.647 494.395 547.164 508.878 528.058 519.909C490.124 541.81 428.62 541.81 390.686 519.909C371.58 508.878 362.097 494.395 362.237 479.937C362.235 479.726 362.235 479.516 362.237 479.305C362.235 479.094 362.235 478.884 362.237 478.673C362.235 478.462 362.235 478.252 362.237 478.041C362.235 477.83 362.235 477.62 362.237 477.409C362.235 477.198 362.235 476.988 362.237 476.777C362.235 476.566 362.235 476.356 362.237 476.145C362.235 475.934 362.235 475.724 362.237 475.513C362.235 475.302 362.235 475.092 362.237 474.881C362.235 474.67 362.235 474.46 362.237 474.249C362.235 474.038 362.235 473.828 362.237 473.617C362.235 473.407 362.235 473.196 362.237 472.985C362.235 472.775 362.235 472.564 362.237 472.353C362.235 472.143 362.235 471.932 362.237 471.721C362.235 471.511 362.235 471.3 362.237 471.089C362.235 470.879 362.235 470.668 362.237 470.457C362.235 470.247 362.235 470.036 362.237 469.825C362.235 469.615 362.235 469.404 362.237 469.193C362.235 468.983 362.235 468.772 362.237 468.561C362.235 468.351 362.235 468.14 362.237 467.929C362.235 467.719 362.235 467.508 362.237 467.297C362.235 467.087 362.235 466.876 362.237 466.666C362.235 466.455 362.235 466.244 362.237 466.034C362.235 465.823 362.235 465.612 362.237 465.402C362.235 465.191 362.235 464.98 362.237 464.77C362.235 464.559 362.235 464.348 362.237 464.138C362.235 463.927 362.235 463.716 362.237 463.506C362.235 463.295 362.235 463.084 362.237 462.874C362.235 462.663 362.235 462.452 362.237 462.242C362.235 462.031 362.235 461.82 362.237 461.61C362.235 461.399 362.235 461.188 362.237 460.978C362.235 460.767 362.235 460.557 362.237 460.346C362.235 460.135 362.235 459.925 362.237 459.714C362.235 459.503 362.235 459.293 362.237 459.082C362.235 458.871 362.235 458.661 362.237 458.45C362.235 458.239 362.235 458.029 362.237 457.818C362.235 457.607 362.235 457.397 362.237 457.186C362.235 456.975 362.235 456.765 362.237 456.554C362.235 456.343 362.235 456.133 362.237 455.922C362.235 455.711 362.235 455.501 362.237 455.29C362.235 455.079 362.235 454.869 362.237 454.658C362.235 454.448 362.235 454.237 362.237 454.026C362.235 453.816 362.235 453.605 362.237 453.394C362.235 453.184 362.235 452.973 362.237 452.762C362.235 452.552 362.235 452.341 362.237 452.13C362.235 451.92 362.235 451.709 362.237 451.498C362.235 451.288 362.235 451.077 362.237 450.866C362.235 450.656 362.235 450.445 362.237 450.234C362.235 450.024 362.235 449.813 362.237 449.602Z" fill="url(#paint3_linear)"/>
    <circle r="79.3118" transform="matrix(0.866025 0.5 -0.866025 0.5 459.372 448.654)" fill="#3C4257"/>
    <ellipse cx="382.038" cy="498.11" rx="5.05573" ry="5.6877" fill="#3C4257"/>
    <path d="M362.237 399.602C362.097 385.145 371.58 370.662 390.686 359.631C428.62 337.729 490.124 337.729 528.058 359.631C547.164 370.662 556.647 385.145 556.507 399.602C556.509 399.813 556.509 400.024 556.507 400.235C556.509 400.445 556.509 400.656 556.507 400.867C556.509 401.077 556.509 401.288 556.507 401.499C556.509 401.709 556.509 401.92 556.507 402.13C556.509 402.341 556.509 402.552 556.507 402.762C556.508 402.809 556.508 402.855 556.508 402.901C556.508 402.942 556.509 402.983 556.509 403.024C556.509 403.147 556.508 403.271 556.507 403.394C556.509 403.605 556.509 403.816 556.507 404.026C556.508 404.131 556.509 404.236 556.509 404.34L556.509 404.435C556.508 404.471 556.508 404.506 556.508 404.542C556.508 404.581 556.508 404.619 556.507 404.658C556.508 404.782 556.509 404.906 556.509 405.029C556.508 405.116 556.508 405.203 556.507 405.29C556.509 405.501 556.509 405.712 556.507 405.922C556.508 406.012 556.509 406.101 556.509 406.19C556.509 406.312 556.508 406.433 556.507 406.554C556.509 406.765 556.509 406.976 556.507 407.186C556.509 407.397 556.509 407.608 556.507 407.818C556.509 408.029 556.509 408.239 556.507 408.45C556.509 408.661 556.509 408.871 556.507 409.082C556.509 409.293 556.509 409.503 556.507 409.714C556.509 409.925 556.509 410.135 556.507 410.346L556.508 410.407L556.508 410.491C556.508 410.532 556.509 410.573 556.509 410.614C556.509 410.736 556.508 410.857 556.507 410.978C556.509 411.189 556.509 411.399 556.507 411.61C556.509 411.821 556.509 412.031 556.507 412.242C556.509 412.453 556.509 412.663 556.507 412.874C556.509 413.085 556.509 413.295 556.507 413.506C556.509 413.717 556.509 413.927 556.507 414.138C556.509 414.348 556.509 414.559 556.507 414.77C556.509 414.98 556.509 415.191 556.507 415.402C556.509 415.612 556.509 415.823 556.507 416.034C556.508 416.139 556.509 416.244 556.509 416.349C556.509 416.455 556.508 416.56 556.507 416.666C556.509 416.876 556.509 417.087 556.507 417.298C556.509 417.508 556.509 417.719 556.507 417.93C556.508 418.021 556.509 418.113 556.509 418.205C556.509 418.324 556.508 418.443 556.507 418.562C556.509 418.772 556.509 418.983 556.507 419.194C556.509 419.404 556.509 419.615 556.507 419.826C556.509 420.036 556.509 420.247 556.507 420.458C556.509 420.668 556.509 420.879 556.507 421.089C556.509 421.3 556.509 421.511 556.507 421.721C556.509 421.932 556.509 422.143 556.507 422.353C556.508 422.395 556.508 422.437 556.508 422.478L556.509 422.568C556.509 422.707 556.508 422.846 556.507 422.985C556.509 423.196 556.509 423.407 556.507 423.617C556.509 423.828 556.509 424.039 556.507 424.249C556.509 424.46 556.509 424.671 556.507 424.881C556.509 425.092 556.509 425.303 556.507 425.513C556.509 425.724 556.509 425.935 556.507 426.145C556.509 426.356 556.509 426.566 556.507 426.777C556.509 426.988 556.509 427.198 556.507 427.409C556.509 427.62 556.509 427.83 556.507 428.041C556.509 428.252 556.509 428.462 556.507 428.673C556.509 428.884 556.509 429.094 556.507 429.305C556.509 429.516 556.509 429.726 556.507 429.937C556.647 444.395 547.164 458.878 528.058 469.909C490.124 491.81 428.62 491.81 390.686 469.909C371.58 458.878 362.097 444.395 362.237 429.937C362.235 429.726 362.235 429.516 362.237 429.305C362.235 429.094 362.235 428.884 362.237 428.673C362.235 428.462 362.235 428.252 362.237 428.041C362.235 427.83 362.235 427.62 362.237 427.409C362.235 427.198 362.235 426.988 362.237 426.777C362.235 426.566 362.235 426.356 362.237 426.145C362.235 425.934 362.235 425.724 362.237 425.513C362.235 425.302 362.235 425.092 362.237 424.881C362.235 424.67 362.235 424.46 362.237 424.249C362.235 424.038 362.235 423.828 362.237 423.617C362.235 423.407 362.235 423.196 362.237 422.985C362.235 422.775 362.235 422.564 362.237 422.353C362.235 422.143 362.235 421.932 362.237 421.721C362.235 421.511 362.235 421.3 362.237 421.089C362.235 420.879 362.235 420.668 362.237 420.457C362.235 420.247 362.235 420.036 362.237 419.825C362.235 419.615 362.235 419.404 362.237 419.193C362.235 418.983 362.235 418.772 362.237 418.561C362.235 418.351 362.235 418.14 362.237 417.929C362.235 417.719 362.235 417.508 362.237 417.297C362.235 417.087 362.235 416.876 362.237 416.666C362.235 416.455 362.235 416.244 362.237 416.034C362.235 415.823 362.235 415.612 362.237 415.402C362.235 415.191 362.235 414.98 362.237 414.77C362.235 414.559 362.235 414.348 362.237 414.138C362.235 413.927 362.235 413.716 362.237 413.506C362.235 413.295 362.235 413.084 362.237 412.874C362.235 412.663 362.235 412.452 362.237 412.242C362.235 412.031 362.235 411.82 362.237 411.61C362.235 411.399 362.235 411.188 362.237 410.978C362.235 410.767 362.235 410.557 362.237 410.346C362.235 410.135 362.235 409.925 362.237 409.714C362.235 409.503 362.235 409.293 362.237 409.082C362.235 408.871 362.235 408.661 362.237 408.45C362.235 408.239 362.235 408.029 362.237 407.818C362.235 407.607 362.235 407.397 362.237 407.186C362.235 406.975 362.235 406.765 362.237 406.554C362.235 406.343 362.235 406.133 362.237 405.922C362.235 405.711 362.235 405.501 362.237 405.29C362.235 405.079 362.235 404.869 362.237 404.658C362.235 404.448 362.235 404.237 362.237 404.026C362.235 403.816 362.235 403.605 362.237 403.394C362.235 403.184 362.235 402.973 362.237 402.762C362.235 402.552 362.235 402.341 362.237 402.13C362.235 401.92 362.235 401.709 362.237 401.498C362.235 401.288 362.235 401.077 362.237 400.866C362.235 400.656 362.235 400.445 362.237 400.234C362.235 400.024 362.235 399.813 362.237 399.602Z" fill="#FF73E9"/>
    <path d="M362.237 399.602C362.097 385.145 371.58 370.662 390.686 359.631C428.62 337.729 490.124 337.729 528.058 359.631C547.164 370.662 556.647 385.145 556.507 399.602C556.509 399.813 556.509 400.024 556.507 400.235C556.509 400.445 556.509 400.656 556.507 400.867C556.509 401.077 556.509 401.288 556.507 401.499C556.509 401.709 556.509 401.92 556.507 402.13C556.509 402.341 556.509 402.552 556.507 402.762C556.508 402.809 556.508 402.855 556.508 402.901C556.508 402.942 556.509 402.983 556.509 403.024C556.509 403.147 556.508 403.271 556.507 403.394C556.509 403.605 556.509 403.816 556.507 404.026C556.508 404.131 556.509 404.236 556.509 404.34L556.509 404.435C556.508 404.471 556.508 404.506 556.508 404.542C556.508 404.581 556.508 404.619 556.507 404.658C556.508 404.782 556.509 404.906 556.509 405.029C556.508 405.116 556.508 405.203 556.507 405.29C556.509 405.501 556.509 405.712 556.507 405.922C556.508 406.012 556.509 406.101 556.509 406.19C556.509 406.312 556.508 406.433 556.507 406.554C556.509 406.765 556.509 406.976 556.507 407.186C556.509 407.397 556.509 407.608 556.507 407.818C556.509 408.029 556.509 408.239 556.507 408.45C556.509 408.661 556.509 408.871 556.507 409.082C556.509 409.293 556.509 409.503 556.507 409.714C556.509 409.925 556.509 410.135 556.507 410.346L556.508 410.407L556.508 410.491C556.508 410.532 556.509 410.573 556.509 410.614C556.509 410.736 556.508 410.857 556.507 410.978C556.509 411.189 556.509 411.399 556.507 411.61C556.509 411.821 556.509 412.031 556.507 412.242C556.509 412.453 556.509 412.663 556.507 412.874C556.509 413.085 556.509 413.295 556.507 413.506C556.509 413.717 556.509 413.927 556.507 414.138C556.509 414.348 556.509 414.559 556.507 414.77C556.509 414.98 556.509 415.191 556.507 415.402C556.509 415.612 556.509 415.823 556.507 416.034C556.508 416.139 556.509 416.244 556.509 416.349C556.509 416.455 556.508 416.56 556.507 416.666C556.509 416.876 556.509 417.087 556.507 417.298C556.509 417.508 556.509 417.719 556.507 417.93C556.508 418.021 556.509 418.113 556.509 418.205C556.509 418.324 556.508 418.443 556.507 418.562C556.509 418.772 556.509 418.983 556.507 419.194C556.509 419.404 556.509 419.615 556.507 419.826C556.509 420.036 556.509 420.247 556.507 420.458C556.509 420.668 556.509 420.879 556.507 421.089C556.509 421.3 556.509 421.511 556.507 421.721C556.509 421.932 556.509 422.143 556.507 422.353C556.508 422.395 556.508 422.437 556.508 422.478L556.509 422.568C556.509 422.707 556.508 422.846 556.507 422.985C556.509 423.196 556.509 423.407 556.507 423.617C556.509 423.828 556.509 424.039 556.507 424.249C556.509 424.46 556.509 424.671 556.507 424.881C556.509 425.092 556.509 425.303 556.507 425.513C556.509 425.724 556.509 425.935 556.507 426.145C556.509 426.356 556.509 426.566 556.507 426.777C556.509 426.988 556.509 427.198 556.507 427.409C556.509 427.62 556.509 427.83 556.507 428.041C556.509 428.252 556.509 428.462 556.507 428.673C556.509 428.884 556.509 429.094 556.507 429.305C556.509 429.516 556.509 429.726 556.507 429.937C556.647 444.395 547.164 458.878 528.058 469.909C490.124 491.81 428.62 491.81 390.686 469.909C371.58 458.878 362.097 444.395 362.237 429.937C362.235 429.726 362.235 429.516 362.237 429.305C362.235 429.094 362.235 428.884 362.237 428.673C362.235 428.462 362.235 428.252 362.237 428.041C362.235 427.83 362.235 427.62 362.237 427.409C362.235 427.198 362.235 426.988 362.237 426.777C362.235 426.566 362.235 426.356 362.237 426.145C362.235 425.934 362.235 425.724 362.237 425.513C362.235 425.302 362.235 425.092 362.237 424.881C362.235 424.67 362.235 424.46 362.237 424.249C362.235 424.038 362.235 423.828 362.237 423.617C362.235 423.407 362.235 423.196 362.237 422.985C362.235 422.775 362.235 422.564 362.237 422.353C362.235 422.143 362.235 421.932 362.237 421.721C362.235 421.511 362.235 421.3 362.237 421.089C362.235 420.879 362.235 420.668 362.237 420.457C362.235 420.247 362.235 420.036 362.237 419.825C362.235 419.615 362.235 419.404 362.237 419.193C362.235 418.983 362.235 418.772 362.237 418.561C362.235 418.351 362.235 418.14 362.237 417.929C362.235 417.719 362.235 417.508 362.237 417.297C362.235 417.087 362.235 416.876 362.237 416.666C362.235 416.455 362.235 416.244 362.237 416.034C362.235 415.823 362.235 415.612 362.237 415.402C362.235 415.191 362.235 414.98 362.237 414.77C362.235 414.559 362.235 414.348 362.237 414.138C362.235 413.927 362.235 413.716 362.237 413.506C362.235 413.295 362.235 413.084 362.237 412.874C362.235 412.663 362.235 412.452 362.237 412.242C362.235 412.031 362.235 411.82 362.237 411.61C362.235 411.399 362.235 411.188 362.237 410.978C362.235 410.767 362.235 410.557 362.237 410.346C362.235 410.135 362.235 409.925 362.237 409.714C362.235 409.503 362.235 409.293 362.237 409.082C362.235 408.871 362.235 408.661 362.237 408.45C362.235 408.239 362.235 408.029 362.237 407.818C362.235 407.607 362.235 407.397 362.237 407.186C362.235 406.975 362.235 406.765 362.237 406.554C362.235 406.343 362.235 406.133 362.237 405.922C362.235 405.711 362.235 405.501 362.237 405.29C362.235 405.079 362.235 404.869 362.237 404.658C362.235 404.448 362.235 404.237 362.237 404.026C362.235 403.816 362.235 403.605 362.237 403.394C362.235 403.184 362.235 402.973 362.237 402.762C362.235 402.552 362.235 402.341 362.237 402.13C362.235 401.92 362.235 401.709 362.237 401.498C362.235 401.288 362.235 401.077 362.237 400.866C362.235 400.656 362.235 400.445 362.237 400.234C362.235 400.024 362.235 399.813 362.237 399.602Z" fill="url(#paint4_linear)"/>
    <circle r="79.3118" transform="matrix(0.866025 0.5 -0.866025 0.5 459.372 398.654)" fill="#3C4257"/>
    <ellipse cx="382.038" cy="448.11" rx="5.05573" ry="5.6877" fill="#3C4257"/>
    <path d="M362.237 348.26C362.097 333.802 371.58 319.319 390.686 308.288C428.62 286.387 490.124 286.387 528.058 308.288C547.164 319.319 556.647 333.802 556.507 348.26C556.509 348.471 556.509 348.682 556.507 348.892C556.509 349.103 556.509 349.314 556.507 349.524C556.509 349.735 556.509 349.946 556.507 350.156C556.509 350.367 556.509 350.578 556.507 350.788C556.509 350.999 556.509 351.209 556.507 351.42C556.508 351.466 556.508 351.513 556.508 351.559C556.508 351.6 556.509 351.64 556.509 351.681C556.509 351.805 556.508 351.929 556.507 352.052C556.509 352.263 556.509 352.473 556.507 352.684C556.508 352.789 556.509 352.893 556.509 352.998L556.509 353.093C556.508 353.129 556.508 353.164 556.508 353.2C556.508 353.238 556.508 353.277 556.507 353.316C556.508 353.44 556.509 353.563 556.509 353.687C556.508 353.774 556.508 353.861 556.507 353.948C556.509 354.159 556.509 354.369 556.507 354.58C556.508 354.669 556.509 354.759 556.509 354.848C556.509 354.969 556.508 355.091 556.507 355.212C556.509 355.423 556.509 355.633 556.507 355.844C556.509 356.055 556.509 356.265 556.507 356.476C556.509 356.687 556.509 356.897 556.507 357.108C556.509 357.318 556.509 357.529 556.507 357.74C556.509 357.95 556.509 358.161 556.507 358.372C556.509 358.582 556.509 358.793 556.507 359.004L556.508 359.065L556.508 359.148C556.508 359.19 556.509 359.231 556.509 359.272C556.509 359.393 556.508 359.515 556.507 359.636C556.509 359.846 556.509 360.057 556.507 360.268C556.509 360.478 556.509 360.689 556.507 360.9C556.509 361.11 556.509 361.321 556.507 361.532C556.509 361.742 556.509 361.953 556.507 362.164C556.509 362.374 556.509 362.585 556.507 362.796C556.509 363.006 556.509 363.217 556.507 363.428C556.509 363.638 556.509 363.849 556.507 364.059C556.509 364.27 556.509 364.481 556.507 364.691C556.508 364.797 556.509 364.902 556.509 365.007C556.509 365.112 556.508 365.218 556.507 365.323C556.509 365.534 556.509 365.745 556.507 365.955C556.509 366.166 556.509 366.377 556.507 366.587C556.508 366.679 556.509 366.771 556.509 366.862C556.509 366.981 556.508 367.1 556.507 367.219C556.509 367.43 556.509 367.641 556.507 367.851C556.509 368.062 556.509 368.273 556.507 368.483C556.509 368.694 556.509 368.905 556.507 369.115C556.509 369.326 556.509 369.537 556.507 369.747C556.509 369.958 556.509 370.168 556.507 370.379C556.509 370.59 556.509 370.8 556.507 371.011C556.508 371.053 556.508 371.094 556.508 371.136L556.509 371.225C556.509 371.365 556.508 371.504 556.507 371.643C556.509 371.854 556.509 372.064 556.507 372.275C556.509 372.486 556.509 372.696 556.507 372.907C556.509 373.118 556.509 373.328 556.507 373.539C556.509 373.75 556.509 373.96 556.507 374.171C556.509 374.382 556.509 374.592 556.507 374.803C556.509 375.014 556.509 375.224 556.507 375.435C556.509 375.646 556.509 375.856 556.507 376.067C556.509 376.277 556.509 376.488 556.507 376.699C556.509 376.909 556.509 377.12 556.507 377.331C556.509 377.541 556.509 377.752 556.507 377.963C556.509 378.173 556.509 378.384 556.507 378.595C556.647 393.052 547.164 407.535 528.058 418.566C490.124 440.468 428.62 440.468 390.686 418.566C371.58 407.535 362.097 393.052 362.237 378.595C362.235 378.384 362.235 378.173 362.237 377.963C362.235 377.752 362.235 377.541 362.237 377.331C362.235 377.12 362.235 376.909 362.237 376.699C362.235 376.488 362.235 376.277 362.237 376.067C362.235 375.856 362.235 375.645 362.237 375.435C362.235 375.224 362.235 375.013 362.237 374.803C362.235 374.592 362.235 374.381 362.237 374.171C362.235 373.96 362.235 373.749 362.237 373.539C362.235 373.328 362.235 373.117 362.237 372.907C362.235 372.696 362.235 372.486 362.237 372.275C362.235 372.064 362.235 371.854 362.237 371.643C362.235 371.432 362.235 371.222 362.237 371.011C362.235 370.8 362.235 370.59 362.237 370.379C362.235 370.168 362.235 369.958 362.237 369.747C362.235 369.536 362.235 369.326 362.237 369.115C362.235 368.904 362.235 368.694 362.237 368.483C362.235 368.272 362.235 368.062 362.237 367.851C362.235 367.64 362.235 367.43 362.237 367.219C362.235 367.008 362.235 366.798 362.237 366.587C362.235 366.377 362.235 366.166 362.237 365.955C362.235 365.745 362.235 365.534 362.237 365.323C362.235 365.113 362.235 364.902 362.237 364.691C362.235 364.481 362.235 364.27 362.237 364.059C362.235 363.849 362.235 363.638 362.237 363.427C362.235 363.217 362.235 363.006 362.237 362.795C362.235 362.585 362.235 362.374 362.237 362.163C362.235 361.953 362.235 361.742 362.237 361.531C362.235 361.321 362.235 361.11 362.237 360.899C362.235 360.689 362.235 360.478 362.237 360.268C362.235 360.057 362.235 359.846 362.237 359.636C362.235 359.425 362.235 359.214 362.237 359.004C362.235 358.793 362.235 358.582 362.237 358.372C362.235 358.161 362.235 357.95 362.237 357.74C362.235 357.529 362.235 357.318 362.237 357.108C362.235 356.897 362.235 356.686 362.237 356.476C362.235 356.265 362.235 356.054 362.237 355.844C362.235 355.633 362.235 355.422 362.237 355.212C362.235 355.001 362.235 354.79 362.237 354.58C362.235 354.369 362.235 354.159 362.237 353.948C362.235 353.737 362.235 353.527 362.237 353.316C362.235 353.105 362.235 352.895 362.237 352.684C362.235 352.473 362.235 352.263 362.237 352.052C362.235 351.841 362.235 351.631 362.237 351.42C362.235 351.209 362.235 350.999 362.237 350.788C362.235 350.577 362.235 350.367 362.237 350.156C362.235 349.945 362.235 349.735 362.237 349.524C362.235 349.313 362.235 349.103 362.237 348.892C362.235 348.681 362.235 348.471 362.237 348.26Z" fill="#FF73E9"/>
    <path d="M362.237 348.26C362.097 333.802 371.58 319.319 390.686 308.288C428.62 286.387 490.124 286.387 528.058 308.288C547.164 319.319 556.647 333.802 556.507 348.26C556.509 348.471 556.509 348.682 556.507 348.892C556.509 349.103 556.509 349.314 556.507 349.524C556.509 349.735 556.509 349.946 556.507 350.156C556.509 350.367 556.509 350.578 556.507 350.788C556.509 350.999 556.509 351.209 556.507 351.42C556.508 351.466 556.508 351.513 556.508 351.559C556.508 351.6 556.509 351.64 556.509 351.681C556.509 351.805 556.508 351.929 556.507 352.052C556.509 352.263 556.509 352.473 556.507 352.684C556.508 352.789 556.509 352.893 556.509 352.998L556.509 353.093C556.508 353.129 556.508 353.164 556.508 353.2C556.508 353.238 556.508 353.277 556.507 353.316C556.508 353.44 556.509 353.563 556.509 353.687C556.508 353.774 556.508 353.861 556.507 353.948C556.509 354.159 556.509 354.369 556.507 354.58C556.508 354.669 556.509 354.759 556.509 354.848C556.509 354.969 556.508 355.091 556.507 355.212C556.509 355.423 556.509 355.633 556.507 355.844C556.509 356.055 556.509 356.265 556.507 356.476C556.509 356.687 556.509 356.897 556.507 357.108C556.509 357.318 556.509 357.529 556.507 357.74C556.509 357.95 556.509 358.161 556.507 358.372C556.509 358.582 556.509 358.793 556.507 359.004L556.508 359.065L556.508 359.148C556.508 359.19 556.509 359.231 556.509 359.272C556.509 359.393 556.508 359.515 556.507 359.636C556.509 359.846 556.509 360.057 556.507 360.268C556.509 360.478 556.509 360.689 556.507 360.9C556.509 361.11 556.509 361.321 556.507 361.532C556.509 361.742 556.509 361.953 556.507 362.164C556.509 362.374 556.509 362.585 556.507 362.796C556.509 363.006 556.509 363.217 556.507 363.428C556.509 363.638 556.509 363.849 556.507 364.059C556.509 364.27 556.509 364.481 556.507 364.691C556.508 364.797 556.509 364.902 556.509 365.007C556.509 365.112 556.508 365.218 556.507 365.323C556.509 365.534 556.509 365.745 556.507 365.955C556.509 366.166 556.509 366.377 556.507 366.587C556.508 366.679 556.509 366.771 556.509 366.862C556.509 366.981 556.508 367.1 556.507 367.219C556.509 367.43 556.509 367.641 556.507 367.851C556.509 368.062 556.509 368.273 556.507 368.483C556.509 368.694 556.509 368.905 556.507 369.115C556.509 369.326 556.509 369.537 556.507 369.747C556.509 369.958 556.509 370.168 556.507 370.379C556.509 370.59 556.509 370.8 556.507 371.011C556.508 371.053 556.508 371.094 556.508 371.136L556.509 371.225C556.509 371.365 556.508 371.504 556.507 371.643C556.509 371.854 556.509 372.064 556.507 372.275C556.509 372.486 556.509 372.696 556.507 372.907C556.509 373.118 556.509 373.328 556.507 373.539C556.509 373.75 556.509 373.96 556.507 374.171C556.509 374.382 556.509 374.592 556.507 374.803C556.509 375.014 556.509 375.224 556.507 375.435C556.509 375.646 556.509 375.856 556.507 376.067C556.509 376.277 556.509 376.488 556.507 376.699C556.509 376.909 556.509 377.12 556.507 377.331C556.509 377.541 556.509 377.752 556.507 377.963C556.509 378.173 556.509 378.384 556.507 378.595C556.647 393.052 547.164 407.535 528.058 418.566C490.124 440.468 428.62 440.468 390.686 418.566C371.58 407.535 362.097 393.052 362.237 378.595C362.235 378.384 362.235 378.173 362.237 377.963C362.235 377.752 362.235 377.541 362.237 377.331C362.235 377.12 362.235 376.909 362.237 376.699C362.235 376.488 362.235 376.277 362.237 376.067C362.235 375.856 362.235 375.645 362.237 375.435C362.235 375.224 362.235 375.013 362.237 374.803C362.235 374.592 362.235 374.381 362.237 374.171C362.235 373.96 362.235 373.749 362.237 373.539C362.235 373.328 362.235 373.117 362.237 372.907C362.235 372.696 362.235 372.486 362.237 372.275C362.235 372.064 362.235 371.854 362.237 371.643C362.235 371.432 362.235 371.222 362.237 371.011C362.235 370.8 362.235 370.59 362.237 370.379C362.235 370.168 362.235 369.958 362.237 369.747C362.235 369.536 362.235 369.326 362.237 369.115C362.235 368.904 362.235 368.694 362.237 368.483C362.235 368.272 362.235 368.062 362.237 367.851C362.235 367.64 362.235 367.43 362.237 367.219C362.235 367.008 362.235 366.798 362.237 366.587C362.235 366.377 362.235 366.166 362.237 365.955C362.235 365.745 362.235 365.534 362.237 365.323C362.235 365.113 362.235 364.902 362.237 364.691C362.235 364.481 362.235 364.27 362.237 364.059C362.235 363.849 362.235 363.638 362.237 363.427C362.235 363.217 362.235 363.006 362.237 362.795C362.235 362.585 362.235 362.374 362.237 362.163C362.235 361.953 362.235 361.742 362.237 361.531C362.235 361.321 362.235 361.11 362.237 360.899C362.235 360.689 362.235 360.478 362.237 360.268C362.235 360.057 362.235 359.846 362.237 359.636C362.235 359.425 362.235 359.214 362.237 359.004C362.235 358.793 362.235 358.582 362.237 358.372C362.235 358.161 362.235 357.95 362.237 357.74C362.235 357.529 362.235 357.318 362.237 357.108C362.235 356.897 362.235 356.686 362.237 356.476C362.235 356.265 362.235 356.054 362.237 355.844C362.235 355.633 362.235 355.422 362.237 355.212C362.235 355.001 362.235 354.79 362.237 354.58C362.235 354.369 362.235 354.159 362.237 353.948C362.235 353.737 362.235 353.527 362.237 353.316C362.235 353.105 362.235 352.895 362.237 352.684C362.235 352.473 362.235 352.263 362.237 352.052C362.235 351.841 362.235 351.631 362.237 351.42C362.235 351.209 362.235 350.999 362.237 350.788C362.235 350.577 362.235 350.367 362.237 350.156C362.235 349.945 362.235 349.735 362.237 349.524C362.235 349.313 362.235 349.103 362.237 348.892C362.235 348.681 362.235 348.471 362.237 348.26Z" fill="url(#paint5_linear)"/>
    <circle r="79.3118" transform="matrix(0.866025 0.5 -0.866025 0.5 459.373 347.312)" fill="#3C4257"/>
    <ellipse cx="382.038" cy="396.289" rx="5.05573" ry="5.6877" fill="#3C4257"/>
    <rect width="115.494" height="115.494" transform="matrix(0.866025 0.5 -0.866025 0.5 143.021 92)" fill="#73FFE5"/>
    <rect width="115.494" height="115.494" transform="matrix(0.866025 0.5 -0.866025 0.5 143.021 92)" fill="#3C4257"/>
    <path d="M43 149.747L143.021 207.494L143.021 322.988L43 265.241L43 207.494L43 149.747Z" fill="#73FFE5"/>
    <path d="M43 149.747L143.021 207.494L143.021 322.988L43 265.241L43 207.494L43 149.747Z" fill="url(#paint6_linear)"/>
    <path d="M143.095 207.494L243.115 149.747L243.115 265.241L143.095 322.988L143.095 265.241L143.095 207.494Z" fill="#73FFE5"/>
    <path d="M143.095 207.494L243.115 149.747L243.115 265.241L143.095 322.988L143.095 265.241L143.095 207.494Z" fill="url(#paint7_linear)"/>
    <path d="M145.083 187.756L138.832 184.147L139.339 183.854L150.787 184.463L154.593 182.266L140.486 181.516L139.471 174.086L136.01 176.084L136.995 182.5L136.487 182.793L130.439 179.301L127.374 181.071L142.018 189.526L145.083 187.756ZM154.522 176.483L151.152 174.28L154.146 172.551L162.783 177.538L165.746 175.827L154.867 169.545L146.362 174.456L151.629 177.872C153.466 179.061 153.994 179.776 152.938 180.385C152.664 180.543 152.431 180.643 152.279 180.696L154.765 182.131C154.988 182.061 155.455 181.885 156.003 181.569C158.672 180.028 157.475 178.411 154.522 176.483ZM167.887 174.59L170.79 172.915L168.192 166.469L168.304 166.405L175.184 170.377L178.097 168.696L167.218 162.415L164.315 164.09L166.812 170.489L166.71 170.547L159.921 166.627L157.008 168.309L167.887 174.59ZM185.384 164.747C188.479 162.959 188.144 161.032 186.886 159.907L186.795 159.831L184.075 161.401L184.115 161.448C184.521 161.917 184.45 162.731 183.232 163.434C181.72 164.307 179.762 164.266 177.985 163.288L185.475 158.963L184.562 158.436C181.274 156.538 177.123 156.438 173.936 158.278C170.739 160.124 170.912 162.579 174.373 164.577L174.383 164.583C177.864 166.592 182.045 166.674 185.384 164.747ZM176.199 159.526C177.417 158.823 179.082 158.764 180.766 159.526L176.159 162.186C174.88 161.225 174.971 160.235 176.199 159.526ZM199.044 156.602L202.008 154.891L191.128 148.61L188.165 150.321L192.346 152.735L188.185 155.137L184.004 152.723L181.04 154.434L191.92 160.715L194.883 159.004L190.428 156.432L194.589 154.03L199.044 156.602ZM202.079 142.288L192.64 147.737L194.883 149.032L198.121 147.163L206.757 152.149L209.721 150.438L201.084 145.452L204.321 143.583L202.079 142.288Z" fill="white"/>
    <rect width="115.494" height="115.494" transform="matrix(0.866025 0.5 -0.866025 0.5 459.021 92)" fill="#73FFE5"/>
    <rect width="115.494" height="115.494" transform="matrix(0.866025 0.5 -0.866025 0.5 459.021 92)" fill="#3C4257"/>
    <path d="M359 149.747L459.021 207.494L459.021 322.988L359 265.241L359 207.494L359 149.747Z" fill="#FF73E9"/>
    <path d="M359 149.747L459.021 207.494L459.021 322.988L359 265.241L359 207.494L359 149.747Z" fill="url(#paint8_linear)"/>
    <path d="M459.095 207.494L559.115 149.747L559.115 265.241L459.095 322.988L459.095 265.241L459.095 207.494Z" fill="#FF73E9"/>
    <path d="M459.095 207.494L559.115 149.747L559.115 265.241L459.095 322.988L459.095 265.241L459.095 207.494Z" fill="url(#paint9_linear)"/>
    <path d="M464.216 186.241C467.768 184.19 468.113 181.424 465.271 179.467L465.17 179.397L462.186 181.12L462.267 181.19C463.617 182.415 463.394 183.715 461.628 184.735C459.284 186.088 455.874 185.854 452.788 184.073L452.778 184.067C449.713 182.297 449.318 180.346 451.662 178.993C453.489 177.938 455.742 177.856 457.7 178.588L457.914 178.665L460.897 176.942L460.796 176.895C457.416 175.26 452.626 175.436 449.064 177.493C444.791 179.959 444.933 183.159 449.652 185.883L449.663 185.889C454.382 188.614 459.933 188.713 464.216 186.241ZM477.338 178.629C480.434 176.842 480.099 174.915 478.84 173.79L478.749 173.713L476.029 175.284L476.07 175.331C476.476 175.799 476.405 176.614 475.187 177.317C473.674 178.19 471.716 178.149 469.94 177.17L477.43 172.846L476.516 172.319C473.228 170.42 469.077 170.321 465.89 172.161C462.694 174.006 462.866 176.461 466.327 178.459L466.337 178.465C469.818 180.475 473.999 180.557 477.338 178.629ZM468.154 173.409C469.371 172.706 471.036 172.647 472.721 173.409L468.113 176.069C466.834 175.108 466.926 174.118 468.154 173.409ZM487.406 176.661L490.369 174.95L484.96 171.827L485.021 171.792C486.898 172.196 488.908 171.95 490.471 171.047C493.191 169.477 492.734 167.28 489.202 165.241L489.192 165.235C485.65 163.19 481.865 162.938 479.104 164.532C477.551 165.428 477.176 166.571 477.896 167.678L477.835 167.713L475.938 166.618L472.974 168.329L487.406 176.661ZM486.99 170.221C485.559 171.047 483.326 170.907 481.367 169.776L481.357 169.77C479.388 168.633 479.145 167.344 480.576 166.518C482.047 165.668 484.189 165.827 486.178 166.975L486.188 166.981C488.167 168.124 488.471 169.366 486.99 170.221ZM496.357 167.391L501.908 164.186C504.374 162.762 504.679 161.157 502.781 160.061L502.761 160.049C501.411 159.27 499.412 159.276 497.778 160.008L497.697 159.961C498.64 159.217 498.478 158.139 497.321 157.471L497.301 157.459C495.586 156.469 493.191 156.657 490.927 157.963L485.477 161.11L496.357 167.391ZM492.764 161.954L490.288 160.524L492.023 159.522C492.998 158.959 493.962 158.895 494.764 159.358L494.784 159.37C495.596 159.838 495.433 160.413 494.347 161.04L492.764 161.954ZM497.362 164.608L494.581 163.002L496.245 162.042C497.504 161.315 498.61 161.18 499.523 161.708L499.544 161.719C500.477 162.258 500.315 162.903 499.158 163.571L497.362 164.608ZM512.859 158.122C515.954 156.334 515.619 154.407 514.361 153.282L514.269 153.206L511.55 154.776L511.59 154.823C511.996 155.292 511.925 156.106 510.707 156.809C509.195 157.682 507.236 157.641 505.46 156.663L512.95 152.338L512.037 151.811C508.749 149.913 504.598 149.813 501.411 151.653C498.214 153.499 498.387 155.954 501.847 157.952L501.858 157.958C505.339 159.967 509.52 160.049 512.859 158.122ZM503.674 152.901C504.892 152.198 506.556 152.139 508.241 152.901L503.634 155.561C502.355 154.6 502.446 153.61 503.674 152.901ZM522.926 156.153L525.89 154.442L520.48 151.319L520.541 151.284C522.419 151.688 524.428 151.442 525.991 150.54C528.711 148.969 528.254 146.772 524.723 144.733L524.712 144.727C521.171 142.682 517.385 142.43 514.625 144.024C513.072 144.92 512.696 146.063 513.417 147.17L513.356 147.206L511.458 146.11L508.495 147.821L522.926 156.153ZM522.51 149.713C521.079 150.54 518.847 150.399 516.888 149.268L516.878 149.262C514.909 148.125 514.665 146.836 516.096 146.01C517.568 145.161 519.709 145.319 521.698 146.467L521.708 146.473C523.687 147.616 523.992 148.858 522.51 149.713Z" fill="white"/>
    <path d="M406.195 377.716C408.859 376.178 409.117 374.104 406.986 372.636L406.91 372.583L404.672 373.875L404.733 373.928C405.746 374.846 405.578 375.822 404.254 376.586C402.495 377.602 399.938 377.426 397.624 376.09L397.616 376.086C395.318 374.758 395.021 373.295 396.779 372.28C398.149 371.489 399.839 371.427 401.308 371.977L401.468 372.034L403.706 370.742L403.63 370.707C401.095 369.481 397.502 369.612 394.831 371.155C391.626 373.005 391.733 375.404 395.272 377.448L395.28 377.452C398.819 379.496 402.983 379.57 406.195 377.716ZM416.036 372.007C418.358 370.667 418.107 369.221 417.163 368.378L417.094 368.32L415.054 369.498L415.085 369.533C415.389 369.885 415.336 370.496 414.423 371.023C413.289 371.678 411.82 371.647 410.488 370.913L416.105 367.67L415.42 367.274C412.954 365.851 409.841 365.776 407.451 367.156C405.053 368.54 405.182 370.381 407.778 371.88L407.785 371.884C410.396 373.392 413.532 373.453 416.036 372.007ZM409.148 368.092C410.061 367.565 411.31 367.521 412.573 368.092L409.117 370.087C408.158 369.366 408.227 368.624 409.148 368.092ZM423.587 370.531L425.81 369.248L421.753 366.905L421.798 366.879C423.206 367.182 424.714 366.998 425.886 366.321C427.926 365.143 427.583 363.495 424.934 361.966L424.927 361.961C422.27 360.428 419.431 360.239 417.361 361.434C416.196 362.107 415.915 362.963 416.455 363.794L416.409 363.82L414.986 362.999L412.763 364.282L423.587 370.531ZM423.275 365.701C422.202 366.321 420.527 366.215 419.058 365.367L419.051 365.363C417.574 364.51 417.391 363.544 418.464 362.924C419.568 362.287 421.174 362.405 422.666 363.267L422.674 363.271C424.158 364.128 424.386 365.06 423.275 365.701ZM430.3 363.579L434.464 361.175C436.314 360.107 436.542 358.903 435.119 358.081L435.103 358.072C434.091 357.488 432.591 357.492 431.366 358.042L431.305 358.006C432.013 357.448 431.891 356.64 431.024 356.139L431.008 356.13C429.722 355.387 427.926 355.528 426.228 356.508L422.141 358.868L430.3 363.579ZM427.606 359.501L425.749 358.428L427.05 357.677C427.781 357.255 428.504 357.207 429.105 357.554L429.121 357.563C429.73 357.914 429.608 358.345 428.793 358.815L427.606 359.501ZM431.054 361.491L428.968 360.287L430.217 359.566C431.161 359.022 431.99 358.92 432.675 359.316L432.69 359.325C433.391 359.729 433.269 360.212 432.401 360.713L431.054 361.491ZM442.677 356.627C444.998 355.286 444.747 353.84 443.803 352.997L443.735 352.94L441.695 354.117L441.725 354.152C442.03 354.504 441.977 355.115 441.063 355.642C439.929 356.297 438.46 356.266 437.128 355.532L442.745 352.289L442.06 351.894C439.594 350.47 436.481 350.395 434.091 351.775C431.693 353.159 431.823 355.001 434.418 356.499L434.426 356.503C437.037 358.011 440.173 358.072 442.677 356.627ZM435.788 352.711C436.702 352.184 437.95 352.14 439.214 352.711L435.758 354.706C434.799 353.985 434.867 353.243 435.788 352.711ZM450.227 355.15L452.45 353.867L448.393 351.524L448.439 351.498C449.847 351.801 451.354 351.617 452.526 350.94C454.566 349.762 454.224 348.114 451.575 346.585L451.567 346.581C448.911 345.047 446.072 344.858 444.001 346.053C442.837 346.726 442.555 347.583 443.095 348.413L443.05 348.44L441.626 347.618L439.404 348.901L450.227 355.15ZM449.915 350.32C448.842 350.94 447.168 350.835 445.699 349.986L445.691 349.982C444.214 349.129 444.032 348.163 445.105 347.543C446.209 346.906 447.815 347.024 449.306 347.886L449.314 347.89C450.798 348.747 451.027 349.679 449.915 350.32ZM462.284 345.113L464.507 343.83L456.347 339.119L454.125 340.402L457.261 342.212L454.14 344.014L451.004 342.204L448.781 343.487L456.941 348.198L459.163 346.915L455.822 344.985L458.943 343.184L462.284 345.113ZM468.647 341.588C469.713 340.973 470.071 340.178 469.705 339.422L469.751 339.396L470.969 340.099L473.192 338.815L467.597 335.586C465.953 334.636 463.494 334.799 461.394 336.012C459.232 337.26 459.019 338.631 460.404 339.571L460.488 339.628L462.52 338.455L462.467 338.407C462.056 338.038 462.162 337.528 462.992 337.049C463.867 336.544 464.788 336.53 465.511 336.948L466.014 337.238L464.119 338.473C462.216 339.721 461.934 340.885 463.418 341.742L463.433 341.751C464.872 342.582 467.011 342.533 468.647 341.588ZM465.519 340.415L465.504 340.406C464.925 340.072 465.017 339.598 465.824 339.07L467.399 338.038L467.985 338.376C468.838 338.868 468.739 339.664 467.742 340.239C466.98 340.679 466.12 340.762 465.519 340.415ZM479.524 335.159L481.701 333.902L473.542 329.191L469.759 331.376C467.78 332.518 467.589 333.894 469.317 334.891L469.332 334.9C470.497 335.572 472.019 335.66 473.481 335.221L474.303 338.174L476.777 336.746L475.955 334.179L476.891 333.639L479.524 335.159ZM473.937 333.533C473.161 333.982 472.21 333.995 471.563 333.621L471.547 333.612C470.832 333.199 470.855 332.659 471.639 332.206L473.024 331.406L475.323 332.733L473.937 333.533ZM490.409 329.068C492.89 327.636 492.867 325.847 490.333 324.384L490.317 324.375C487.988 323.03 485.081 322.995 482.889 324.261C481.549 325.034 481.184 325.896 481.656 326.748L481.61 326.774L481.519 326.704C479.806 325.381 479.6 324.437 481.526 323.254L482.394 322.718C483.307 322.156 483.931 321.637 484.053 321.356L482.333 320.363C482.067 320.736 481.412 321.246 480.521 321.795L479.593 322.358C476.716 324.133 476.936 326.036 481.488 328.664L481.503 328.673C484.655 330.492 487.775 330.589 490.409 329.068ZM488.628 328.084C487.486 328.743 485.987 328.651 484.517 327.803L484.502 327.794C483.109 326.99 482.98 326.133 484.114 325.478C485.241 324.828 486.717 324.907 488.11 325.711L488.125 325.72C489.594 326.568 489.754 327.434 488.628 328.084ZM498.119 324.573C499.185 323.958 499.543 323.162 499.177 322.406L499.223 322.38L500.441 323.083L502.663 321.8L497.069 318.57C495.425 317.621 492.966 317.783 490.866 318.996C488.704 320.244 488.491 321.615 489.876 322.556L489.96 322.613L491.992 321.44L491.939 321.391C491.528 321.022 491.634 320.512 492.464 320.033C493.339 319.528 494.26 319.515 494.983 319.932L495.486 320.222L493.59 321.457C491.688 322.705 491.406 323.87 492.89 324.727L492.905 324.735C494.344 325.566 496.483 325.518 498.119 324.573ZM494.991 323.399L494.976 323.391C494.397 323.057 494.489 322.582 495.295 322.055L496.871 321.022L497.457 321.36C498.31 321.853 498.211 322.648 497.214 323.224C496.452 323.663 495.592 323.747 494.991 323.399ZM507.71 319.08C509.872 317.832 510.267 316.434 508.73 315.546L508.715 315.538C507.74 314.975 506.5 314.953 505.175 315.481L505.114 315.445C505.853 314.773 505.761 314.087 504.878 313.578L504.863 313.569C503.432 312.743 501.324 312.958 499.276 314.14C497.198 315.34 496.879 316.579 498.348 317.673L498.401 317.713L500.479 316.513L500.426 316.474C499.939 316.061 500.114 315.599 500.898 315.147C501.643 314.716 502.42 314.654 502.991 314.984L503.006 314.993C503.6 315.336 503.493 315.757 502.663 316.236L501.575 316.865L502.96 317.665L504.064 317.027C505 316.487 505.777 316.399 506.401 316.759L506.416 316.768C507.025 317.12 506.873 317.621 506.013 318.117C505.175 318.601 504.346 318.728 503.562 318.469L503.455 318.434L501.347 319.651L501.43 319.69C503.242 320.543 505.571 320.315 507.71 319.08ZM515.002 314.826C516.067 314.211 516.425 313.415 516.06 312.659L516.105 312.633L517.323 313.336L519.546 312.053L513.951 308.823C512.307 307.874 509.849 308.036 507.748 309.249C505.586 310.497 505.373 311.868 506.758 312.809L506.842 312.866L508.874 311.692L508.821 311.644C508.41 311.275 508.517 310.765 509.346 310.286C510.222 309.781 511.143 309.768 511.866 310.185L512.368 310.475L510.473 311.71C508.57 312.958 508.288 314.123 509.773 314.98L509.788 314.988C511.226 315.819 513.365 315.771 515.002 314.826ZM511.873 313.652L511.858 313.644C511.28 313.31 511.371 312.835 512.178 312.308L513.753 311.275L514.34 311.613C515.192 312.106 515.093 312.901 514.096 313.477C513.335 313.916 512.475 314 511.873 313.652ZM451.735 371.709L449.565 370.456L455.053 367.288L457.222 368.54L459.247 367.371L455.373 365.134L454.155 365.837L447.7 362.111L441.17 365.881L445.006 368.404C446.033 369.085 446.719 369.744 446.46 370.28L445.836 370.641L449.71 372.878L451.735 371.709ZM451.932 367.121L448.705 368.984L448.659 368.958C448.484 368.417 447.929 367.894 447.107 367.358L444.747 365.785L447.183 364.378L451.932 367.121ZM460.625 364.22C461.69 363.605 462.048 362.81 461.683 362.054L461.729 362.027L462.946 362.731L465.169 361.447L459.574 358.217C457.93 357.268 455.472 357.431 453.371 358.644C451.209 359.892 450.996 361.263 452.382 362.203L452.465 362.26L454.498 361.087L454.444 361.039C454.033 360.67 454.14 360.16 454.969 359.681C455.845 359.175 456.766 359.162 457.489 359.58L457.991 359.87L456.096 361.105C454.193 362.353 453.911 363.517 455.396 364.374L455.411 364.383C456.85 365.213 458.988 365.165 460.625 364.22ZM457.496 363.047L457.481 363.038C456.903 362.704 456.994 362.23 457.801 361.702L459.377 360.67L459.963 361.008C460.815 361.5 460.716 362.295 459.719 362.871C458.958 363.311 458.098 363.394 457.496 363.047ZM472.073 357.461L474.295 356.178L466.136 351.467L463.913 352.751L467.049 354.561L463.928 356.363L460.792 354.552L458.57 355.836L466.729 360.546L468.952 359.263L465.61 357.334L468.731 355.532L472.073 357.461ZM481.237 352.17L483.459 350.887L475.3 346.176L473.077 347.46L476.213 349.27L473.093 351.072L469.957 349.261L467.734 350.545L475.894 355.255L478.116 353.972L474.775 352.043L477.895 350.241L481.237 352.17ZM485.058 349.964L488.864 347.767C490.789 346.655 490.896 345.293 489.13 344.274L489.115 344.265C487.349 343.245 484.989 343.307 483.064 344.419L481.48 345.333L479.121 343.97L476.898 345.253L485.058 349.964ZM492.89 345.442L495.113 344.159L486.953 339.448L484.731 340.732L492.89 345.442ZM484.335 345.618C485.134 345.157 486.108 345.139 486.854 345.57L486.869 345.579C487.608 346.005 487.585 346.572 486.786 347.033L485.606 347.714L483.155 346.299L484.335 345.618ZM496.125 343.575L498.462 342.226L497.168 339.703L497.214 339.677L501.59 340.42L504.011 339.022L497.351 338.104L495.866 334.302L493.453 335.695L494.755 338.126L494.709 338.152L490.493 337.405L487.988 338.851L494.618 339.752L496.125 343.575Z" fill="white"/>
    <path d="M183.196 296.514C182.375 296.403 181.619 296.978 181.508 297.799L179.7 311.177C179.589 311.998 180.164 312.754 180.985 312.865C181.806 312.976 182.562 312.4 182.673 311.579L184.28 299.687L196.172 301.295C196.993 301.406 197.748 300.831 197.859 300.01C197.97 299.189 197.395 298.433 196.574 298.322L183.196 296.514ZM433.703 150.401C434.477 150.697 435.344 150.309 435.639 149.535L440.452 136.922C440.747 136.148 440.359 135.281 439.585 134.985C438.811 134.69 437.944 135.078 437.649 135.852L433.371 147.064L422.159 142.786C421.385 142.491 420.519 142.879 420.223 143.653C419.928 144.427 420.316 145.294 421.09 145.589L433.703 150.401ZM300 354.5C252.755 354.5 210.77 331.984 184.188 297.091L181.801 298.909C208.926 334.515 251.779 357.5 300 357.5V354.5ZM415.813 297.091C389.231 331.984 347.245 354.5 300 354.5V357.5C348.221 357.5 391.074 334.515 418.199 298.909L415.813 297.091ZM167.132 149.613C189.853 98.857 240.799 63.5 300 63.5V60.5C239.574 60.5 187.58 96.5913 164.394 148.387L167.132 149.613ZM300 63.5C359.201 63.5 410.148 98.857 432.869 149.613L435.607 148.387C412.421 96.5913 360.427 60.5 300 60.5V63.5Z" fill="#FBE582"/>
    <defs>
        <linearGradient id="paint0_linear" x1="239.715" y1="529.546" x2="45.7017" y2="529.546" gradientUnits="userSpaceOnUse">
            <stop stop-color="#FEFE88" stop-opacity="0.27"/>
            <stop offset="0.129625" stop-color="#FEFE88"/>
            <stop offset="0.747994" stop-color="#FEFE88" stop-opacity="0"/>
        </linearGradient>
        <linearGradient id="paint1_linear" x1="239.715" y1="479.546" x2="45.7017" y2="479.546" gradientUnits="userSpaceOnUse">
            <stop stop-color="#FEFE88" stop-opacity="0.27"/>
            <stop offset="0.129625" stop-color="#FEFE88"/>
            <stop offset="0.747994" stop-color="#FEFE88" stop-opacity="0"/>
        </linearGradient>
        <linearGradient id="paint2_linear" x1="239.715" y1="428.204" x2="45.7017" y2="428.204" gradientUnits="userSpaceOnUse">
            <stop stop-color="#FEFE88" stop-opacity="0.27"/>
            <stop offset="0.129625" stop-color="#FEFE88"/>
            <stop offset="0.747994" stop-color="#FEFE88" stop-opacity="0"/>
        </linearGradient>
        <linearGradient id="paint3_linear" x1="556.459" y1="529.546" x2="362.446" y2="529.546" gradientUnits="userSpaceOnUse">
            <stop stop-color="#FEFE88" stop-opacity="0.27"/>
            <stop offset="0.129625" stop-color="#FEFE88"/>
            <stop offset="0.747994" stop-color="#FEFE88" stop-opacity="0"/>
        </linearGradient>
        <linearGradient id="paint4_linear" x1="556.459" y1="479.546" x2="362.446" y2="479.546" gradientUnits="userSpaceOnUse">
            <stop stop-color="#FEFE88" stop-opacity="0.27"/>
            <stop offset="0.129625" stop-color="#FEFE88"/>
            <stop offset="0.747994" stop-color="#FEFE88" stop-opacity="0"/>
        </linearGradient>
        <linearGradient id="paint5_linear" x1="556.459" y1="428.204" x2="362.446" y2="428.204" gradientUnits="userSpaceOnUse">
            <stop stop-color="#FEFE88" stop-opacity="0.27"/>
            <stop offset="0.129625" stop-color="#FEFE88"/>
            <stop offset="0.747994" stop-color="#FEFE88" stop-opacity="0"/>
        </linearGradient>
        <linearGradient id="paint6_linear" x1="142.995" y1="317.495" x2="43.1083" y2="317.495" gradientUnits="userSpaceOnUse">
            <stop offset="0.129625" stop-color="#FEFE88"/>
            <stop offset="0.747994" stop-color="#FEFE88" stop-opacity="0"/>
        </linearGradient>
        <linearGradient id="paint7_linear" x1="243.09" y1="259.778" x2="143.203" y2="259.778" gradientUnits="userSpaceOnUse">
            <stop offset="0.129625" stop-color="#FEFE88"/>
            <stop offset="0.747994" stop-color="#FEFE88" stop-opacity="0"/>
        </linearGradient>
        <linearGradient id="paint8_linear" x1="458.995" y1="317.495" x2="359.108" y2="317.495" gradientUnits="userSpaceOnUse">
            <stop offset="0.129625" stop-color="#FEFE88"/>
            <stop offset="0.747994" stop-color="#FEFE88" stop-opacity="0"/>
        </linearGradient>
        <linearGradient id="paint9_linear" x1="559.09" y1="259.778" x2="459.203" y2="259.778" gradientUnits="userSpaceOnUse">
            <stop offset="0.129625" stop-color="#FEFE88"/>
            <stop offset="0.747994" stop-color="#FEFE88" stop-opacity="0"/>
        </linearGradient>
    </defs>
</svg>
