<svg width="600" height="600" viewBox="0 0 600 600" fill="none" xmlns="http://www.w3.org/2000/svg">
    <circle cx="105" cy="300" r="69" fill="#FFE173"/>
    <path d="M73.793 309H84.7266V306.082H77.332V292.09H73.793V309ZM92.1094 309.258C95.9062 309.258 98.332 306.82 98.332 302.719V302.695C98.332 298.629 95.8594 296.18 92.0977 296.18C88.3477 296.18 85.8867 298.652 85.8867 302.695V302.719C85.8867 306.809 88.2891 309.258 92.1094 309.258ZM92.1211 306.574C90.4336 306.574 89.3672 305.18 89.3672 302.719V302.695C89.3672 300.27 90.4453 298.863 92.0977 298.863C93.7617 298.863 94.8516 300.27 94.8516 302.695V302.719C94.8516 305.168 93.7852 306.574 92.1211 306.574ZM105.973 313.359C109.746 313.359 112.102 311.449 112.102 308.648V296.438H108.68V298.582H108.609C107.93 297.117 106.559 296.18 104.789 296.18C101.613 296.18 99.6445 298.559 99.6445 302.566V302.578C99.6445 306.48 101.59 308.824 104.73 308.824C106.547 308.824 107.953 307.992 108.609 306.68H108.68V308.602C108.68 310.008 107.742 310.922 105.973 310.922C104.543 310.922 103.629 310.383 103.359 309.762L103.324 309.68H99.9961L100.008 309.785C100.336 311.801 102.516 313.359 105.973 313.359ZM105.914 306.316C104.203 306.316 103.125 304.922 103.125 302.66V302.648C103.125 300.398 104.215 299.016 105.914 299.016C107.578 299.016 108.691 300.41 108.691 302.648V302.66C108.691 304.91 107.59 306.316 105.914 306.316ZM120.891 294.82C121.922 294.82 122.719 294.012 122.719 293.039C122.719 292.066 121.922 291.258 120.891 291.258C119.859 291.258 119.062 292.066 119.062 293.039C119.062 294.012 119.859 294.82 120.891 294.82ZM119.18 309H122.602V296.438H119.18V309ZM124.898 309H128.32V301.781C128.32 300.141 129.293 299.016 130.828 299.016C132.363 299.016 133.137 299.953 133.137 301.594V309H136.559V300.891C136.559 297.949 134.988 296.18 132.223 296.18C130.324 296.18 129.035 297.059 128.391 298.5H128.32V296.438H124.898V309Z" fill="black"/>
    <circle cx="496" cy="300" r="69" fill="#FB6864"/>
    <path d="M456.543 309H467.477V306.082H460.082V292.09H456.543V309ZM474.859 309.258C478.656 309.258 481.082 306.82 481.082 302.719V302.695C481.082 298.629 478.609 296.18 474.848 296.18C471.098 296.18 468.637 298.652 468.637 302.695V302.719C468.637 306.809 471.039 309.258 474.859 309.258ZM474.871 306.574C473.184 306.574 472.117 305.18 472.117 302.719V302.695C472.117 300.27 473.195 298.863 474.848 298.863C476.512 298.863 477.602 300.27 477.602 302.695V302.719C477.602 305.168 476.535 306.574 474.871 306.574ZM488.723 313.359C492.496 313.359 494.852 311.449 494.852 308.648V296.438H491.43V298.582H491.359C490.68 297.117 489.309 296.18 487.539 296.18C484.363 296.18 482.395 298.559 482.395 302.566V302.578C482.395 306.48 484.34 308.824 487.48 308.824C489.297 308.824 490.703 307.992 491.359 306.68H491.43V308.602C491.43 310.008 490.492 310.922 488.723 310.922C487.293 310.922 486.379 310.383 486.109 309.762L486.074 309.68H482.746L482.758 309.785C483.086 311.801 485.266 313.359 488.723 313.359ZM488.664 306.316C486.953 306.316 485.875 304.922 485.875 302.66V302.648C485.875 300.398 486.965 299.016 488.664 299.016C490.328 299.016 491.441 300.41 491.441 302.648V302.66C491.441 304.91 490.34 306.316 488.664 306.316ZM507.625 309.258C511.422 309.258 513.848 306.82 513.848 302.719V302.695C513.848 298.629 511.375 296.18 507.613 296.18C503.863 296.18 501.402 298.652 501.402 302.695V302.719C501.402 306.809 503.805 309.258 507.625 309.258ZM507.637 306.574C505.949 306.574 504.883 305.18 504.883 302.719V302.695C504.883 300.27 505.961 298.863 507.613 298.863C509.277 298.863 510.367 300.27 510.367 302.695V302.719C510.367 305.168 509.301 306.574 507.637 306.574ZM519.895 309.258C521.793 309.258 523.082 308.367 523.727 306.926H523.797V309H527.219V296.438H523.797V303.656C523.797 305.297 522.824 306.422 521.289 306.422C519.754 306.422 518.98 305.473 518.98 303.832V296.438H515.559V304.547C515.559 307.488 517.129 309.258 519.895 309.258ZM534.438 309.258C535.152 309.258 535.703 309.188 536.09 309.129V306.621C535.879 306.645 535.656 306.68 535.352 306.68C534.32 306.68 533.793 306.281 533.793 305.109V299.016H536.09V296.438H533.793V293.367H530.336V296.438H528.59V299.016H530.336V305.484C530.336 308.18 531.648 309.258 534.438 309.258Z" fill="white"/>
    <path d="M276.729 84H279.678V72.3398H283.75V69.9082H272.646V72.3398H276.729V84ZM288.281 84.2148C291.445 84.2148 293.467 82.1836 293.467 78.7656V78.7461C293.467 75.3574 291.416 73.3164 288.281 73.3164C285.146 73.3164 283.096 75.377 283.096 78.7461V78.7656C283.096 82.1738 285.107 84.2148 288.281 84.2148ZM288.291 81.9785C286.885 81.9785 285.996 80.8164 285.996 78.7656V78.7461C285.996 76.7246 286.904 75.5527 288.281 75.5527C289.668 75.5527 290.566 76.7246 290.566 78.7461V78.7656C290.566 80.8066 289.688 81.9785 288.291 81.9785ZM298.301 79.6055L301.572 84H305L300.771 78.3848L304.756 73.5312H301.514L298.301 77.6426H297.959V73.5312H295.107V84H297.959V79.6055H298.301ZM310.654 84.2148C313.633 84.2148 315.078 82.4473 315.41 80.9043L315.43 80.7969H312.812L312.793 80.8555C312.598 81.4414 311.885 82.0859 310.713 82.0859C309.258 82.0859 308.35 81.1094 308.311 79.4395H315.518V78.5605C315.518 75.3965 313.604 73.3164 310.537 73.3164C307.461 73.3164 305.498 75.4453 305.498 78.7754V78.7852C305.498 82.1348 307.441 84.2148 310.654 84.2148ZM310.586 75.4453C311.758 75.4453 312.607 76.1973 312.783 77.6426H308.35C308.535 76.2266 309.404 75.4453 310.586 75.4453ZM324.014 84H326.865V73.5312H324.014V77.5547H320.01V73.5312H317.158V84H320.01V79.7129H324.014V84ZM241.758 104.166C243.125 104.166 244.238 103.512 244.844 102.438H244.902V104H247.754V96.8223C247.754 94.7129 245.996 93.3164 243.301 93.3164C240.527 93.3164 238.867 94.7031 238.711 96.6367L238.701 96.7539H241.309L241.328 96.666C241.475 95.9922 242.109 95.4941 243.174 95.4941C244.297 95.4941 244.902 96.0703 244.902 96.998V97.6426L242.314 97.7988C239.707 97.9648 238.232 99.0781 238.232 100.982V101.002C238.232 102.848 239.658 104.166 241.758 104.166ZM241.055 100.855V100.836C241.055 100.094 241.641 99.625 242.744 99.5566L244.902 99.4199V100.172C244.902 101.266 243.955 102.086 242.676 102.086C241.699 102.086 241.055 101.627 241.055 100.855ZM249.756 104H255.098C257.471 104 258.955 102.809 258.955 100.982V100.963C258.955 99.6641 257.988 98.707 256.592 98.5312V98.4531C257.666 98.2871 258.486 97.3105 258.486 96.1973V96.1777C258.486 94.5273 257.178 93.5312 255 93.5312H249.756V104ZM252.559 97.7402V95.3574H254.229C255.166 95.3574 255.684 95.7676 255.684 96.5391V96.5586C255.684 97.3398 255.127 97.7402 254.082 97.7402H252.559ZM252.559 102.164V99.4883H254.16C255.371 99.4883 256.016 99.9082 256.016 100.787V100.807C256.016 101.705 255.4 102.164 254.287 102.164H252.559ZM268.77 93.5312H259.688V95.6895H262.803V104H265.654V95.6895H268.77V93.5312ZM274.805 104.215C277.969 104.215 279.99 102.184 279.99 98.7656V98.7461C279.99 95.3574 277.939 93.3164 274.805 93.3164C271.67 93.3164 269.619 95.377 269.619 98.7461V98.7656C269.619 102.174 271.631 104.215 274.805 104.215ZM274.814 101.979C273.408 101.979 272.52 100.816 272.52 98.7656V98.7461C272.52 96.7246 273.428 95.5527 274.805 95.5527C276.191 95.5527 277.09 96.7246 277.09 98.7461V98.7656C277.09 100.807 276.211 101.979 274.814 101.979ZM281.611 107.418H284.463V102.213H284.521C285.088 103.453 286.26 104.215 287.764 104.215C290.381 104.215 291.992 102.164 291.992 98.7656V98.7559C291.992 95.3477 290.381 93.3164 287.725 93.3164C286.23 93.3164 285.098 94.0879 284.521 95.3574H284.463V93.5312H281.611V107.418ZM286.777 101.852C285.4 101.852 284.443 100.66 284.443 98.7754V98.7656C284.443 96.8711 285.4 95.6797 286.777 95.6797C288.193 95.6797 289.092 96.8418 289.092 98.7559V98.7656C289.092 100.67 288.203 101.852 286.777 101.852ZM293.643 104H296.436L300.557 97.3789H300.664V104H303.467V93.5312H300.674L296.543 100.064H296.445V93.5312H293.643V104ZM309.775 104.215C312.549 104.215 314.355 102.916 314.355 100.943V100.924C314.355 99.6738 313.584 98.8535 312.148 98.5898V98.5117C313.369 98.2383 314.072 97.418 314.072 96.2852V96.2656C314.072 94.4297 312.48 93.3164 309.854 93.3164C307.188 93.3164 305.605 94.4883 305.332 96.6465L305.322 96.7246H307.988L307.998 96.6465C308.145 95.875 308.77 95.4746 309.775 95.4746C310.732 95.4746 311.299 95.9043 311.299 96.6367V96.6562C311.299 97.418 310.762 97.8184 309.697 97.8184H308.301V99.5957H309.717C310.918 99.5957 311.514 99.9961 311.514 100.797V100.816C311.514 101.598 310.859 102.057 309.756 102.057C308.682 102.057 308.008 101.666 307.793 100.875L307.764 100.768H305.059L305.068 100.865C305.283 102.975 307.031 104.215 309.775 104.215ZM319.18 104.166C320.547 104.166 321.66 103.512 322.266 102.438H322.324V104H325.176V96.8223C325.176 94.7129 323.418 93.3164 320.723 93.3164C317.949 93.3164 316.289 94.7031 316.133 96.6367L316.123 96.7539H318.73L318.75 96.666C318.896 95.9922 319.531 95.4941 320.596 95.4941C321.719 95.4941 322.324 96.0703 322.324 96.998V97.6426L319.736 97.7988C317.129 97.9648 315.654 99.0781 315.654 100.982V101.002C315.654 102.848 317.08 104.166 319.18 104.166ZM318.477 100.855V100.836C318.477 100.094 319.062 99.625 320.166 99.5566L322.324 99.4199V100.172C322.324 101.266 321.377 102.086 320.098 102.086C319.121 102.086 318.477 101.627 318.477 100.855ZM335.781 106.783H338.359V101.852H336.787V93.5312H333.936V101.852H330.029V93.5312H327.178V104H335.781V106.783ZM339.639 104H342.432L346.553 97.3789H346.66V104H349.463V93.5312H346.67L342.539 100.064H342.441V93.5312H339.639V104ZM351.514 104H354.307L358.428 97.3789H358.535V104H361.338V93.5312H358.545L354.414 100.064H354.316V93.5312H351.514V104ZM271.426 124.215C274.229 124.215 276.025 122.477 276.162 120.191L276.172 120.133H273.516L273.496 120.221C273.311 121.275 272.598 121.979 271.455 121.979C270.039 121.979 269.16 120.816 269.16 118.766V118.756C269.16 116.754 270.039 115.553 271.445 115.553C272.617 115.553 273.32 116.314 273.496 117.311L273.506 117.398H276.162L276.152 117.33C276.045 115.064 274.238 113.316 271.406 113.316C268.262 113.316 266.26 115.396 266.26 118.746V118.756C266.26 122.135 268.242 124.215 271.426 124.215ZM282.5 124.215C285.664 124.215 287.686 122.184 287.686 118.766V118.746C287.686 115.357 285.635 113.316 282.5 113.316C279.365 113.316 277.314 115.377 277.314 118.746V118.766C277.314 122.174 279.326 124.215 282.5 124.215ZM282.51 121.979C281.104 121.979 280.215 120.816 280.215 118.766V118.746C280.215 116.725 281.123 115.553 282.5 115.553C283.887 115.553 284.785 116.725 284.785 118.746V118.766C284.785 120.807 283.906 121.979 282.51 121.979ZM293.584 124.215C296.357 124.215 298.164 122.916 298.164 120.943V120.924C298.164 119.674 297.393 118.854 295.957 118.59V118.512C297.178 118.238 297.881 117.418 297.881 116.285V116.266C297.881 114.43 296.289 113.316 293.662 113.316C290.996 113.316 289.414 114.488 289.141 116.646L289.131 116.725H291.797L291.807 116.646C291.953 115.875 292.578 115.475 293.584 115.475C294.541 115.475 295.107 115.904 295.107 116.637V116.656C295.107 117.418 294.57 117.818 293.506 117.818H292.109V119.596H293.525C294.727 119.596 295.322 119.996 295.322 120.797V120.816C295.322 121.598 294.668 122.057 293.564 122.057C292.49 122.057 291.816 121.666 291.602 120.875L291.572 120.768H288.867L288.877 120.865C289.092 122.975 290.84 124.215 293.584 124.215ZM301.602 126.783V124H308.643V126.783H311.24V121.812H309.678V113.531H301.299L300.957 118.795C300.859 120.211 300.566 121.383 299.805 121.812H299.004V126.783H301.602ZM306.826 121.812H302.686V121.754C303.174 121.041 303.398 120.104 303.467 118.98L303.701 115.719H306.826V121.812ZM315.625 124.166C316.992 124.166 318.105 123.512 318.711 122.438H318.77V124H321.621V116.822C321.621 114.713 319.863 113.316 317.168 113.316C314.395 113.316 312.734 114.703 312.578 116.637L312.568 116.754H315.176L315.195 116.666C315.342 115.992 315.977 115.494 317.041 115.494C318.164 115.494 318.77 116.07 318.77 116.998V117.643L316.182 117.799C313.574 117.965 312.1 119.078 312.1 120.982V121.002C312.1 122.848 313.525 124.166 315.625 124.166ZM314.922 120.855V120.836C314.922 120.094 315.508 119.625 316.611 119.557L318.77 119.42V120.172C318.77 121.266 317.822 122.086 316.543 122.086C315.566 122.086 314.922 121.627 314.922 120.855ZM330.479 124H333.33V113.531H330.479V117.555H326.475V113.531H323.623V124H326.475V119.713H330.479V124Z" fill="black"/>
    <path d="M276.729 484H279.678V472.34H283.75V469.908H272.646V472.34H276.729V484ZM288.281 484.215C291.445 484.215 293.467 482.184 293.467 478.766V478.746C293.467 475.357 291.416 473.316 288.281 473.316C285.146 473.316 283.096 475.377 283.096 478.746V478.766C283.096 482.174 285.107 484.215 288.281 484.215ZM288.291 481.979C286.885 481.979 285.996 480.816 285.996 478.766V478.746C285.996 476.725 286.904 475.553 288.281 475.553C289.668 475.553 290.566 476.725 290.566 478.746V478.766C290.566 480.807 289.688 481.979 288.291 481.979ZM298.301 479.605L301.572 484H305L300.771 478.385L304.756 473.531H301.514L298.301 477.643H297.959V473.531H295.107V484H297.959V479.605H298.301ZM310.654 484.215C313.633 484.215 315.078 482.447 315.41 480.904L315.43 480.797H312.812L312.793 480.855C312.598 481.441 311.885 482.086 310.713 482.086C309.258 482.086 308.35 481.109 308.311 479.439H315.518V478.561C315.518 475.396 313.604 473.316 310.537 473.316C307.461 473.316 305.498 475.445 305.498 478.775V478.785C305.498 482.135 307.441 484.215 310.654 484.215ZM310.586 475.445C311.758 475.445 312.607 476.197 312.783 477.643H308.35C308.535 476.227 309.404 475.445 310.586 475.445ZM324.014 484H326.865V473.531H324.014V477.555H320.01V473.531H317.158V484H320.01V479.713H324.014V484ZM241.758 504.166C243.125 504.166 244.238 503.512 244.844 502.438H244.902V504H247.754V496.822C247.754 494.713 245.996 493.316 243.301 493.316C240.527 493.316 238.867 494.703 238.711 496.637L238.701 496.754H241.309L241.328 496.666C241.475 495.992 242.109 495.494 243.174 495.494C244.297 495.494 244.902 496.07 244.902 496.998V497.643L242.314 497.799C239.707 497.965 238.232 499.078 238.232 500.982V501.002C238.232 502.848 239.658 504.166 241.758 504.166ZM241.055 500.855V500.836C241.055 500.094 241.641 499.625 242.744 499.557L244.902 499.42V500.172C244.902 501.266 243.955 502.086 242.676 502.086C241.699 502.086 241.055 501.627 241.055 500.855ZM249.756 504H255.098C257.471 504 258.955 502.809 258.955 500.982V500.963C258.955 499.664 257.988 498.707 256.592 498.531V498.453C257.666 498.287 258.486 497.311 258.486 496.197V496.178C258.486 494.527 257.178 493.531 255 493.531H249.756V504ZM252.559 497.74V495.357H254.229C255.166 495.357 255.684 495.768 255.684 496.539V496.559C255.684 497.34 255.127 497.74 254.082 497.74H252.559ZM252.559 502.164V499.488H254.16C255.371 499.488 256.016 499.908 256.016 500.787V500.807C256.016 501.705 255.4 502.164 254.287 502.164H252.559ZM268.77 493.531H259.688V495.689H262.803V504H265.654V495.689H268.77V493.531ZM274.805 504.215C277.969 504.215 279.99 502.184 279.99 498.766V498.746C279.99 495.357 277.939 493.316 274.805 493.316C271.67 493.316 269.619 495.377 269.619 498.746V498.766C269.619 502.174 271.631 504.215 274.805 504.215ZM274.814 501.979C273.408 501.979 272.52 500.816 272.52 498.766V498.746C272.52 496.725 273.428 495.553 274.805 495.553C276.191 495.553 277.09 496.725 277.09 498.746V498.766C277.09 500.807 276.211 501.979 274.814 501.979ZM281.611 507.418H284.463V502.213H284.521C285.088 503.453 286.26 504.215 287.764 504.215C290.381 504.215 291.992 502.164 291.992 498.766V498.756C291.992 495.348 290.381 493.316 287.725 493.316C286.23 493.316 285.098 494.088 284.521 495.357H284.463V493.531H281.611V507.418ZM286.777 501.852C285.4 501.852 284.443 500.66 284.443 498.775V498.766C284.443 496.871 285.4 495.68 286.777 495.68C288.193 495.68 289.092 496.842 289.092 498.756V498.766C289.092 500.67 288.203 501.852 286.777 501.852ZM293.643 504H296.436L300.557 497.379H300.664V504H303.467V493.531H300.674L296.543 500.064H296.445V493.531H293.643V504ZM309.775 504.215C312.549 504.215 314.355 502.916 314.355 500.943V500.924C314.355 499.674 313.584 498.854 312.148 498.59V498.512C313.369 498.238 314.072 497.418 314.072 496.285V496.266C314.072 494.43 312.48 493.316 309.854 493.316C307.188 493.316 305.605 494.488 305.332 496.646L305.322 496.725H307.988L307.998 496.646C308.145 495.875 308.77 495.475 309.775 495.475C310.732 495.475 311.299 495.904 311.299 496.637V496.656C311.299 497.418 310.762 497.818 309.697 497.818H308.301V499.596H309.717C310.918 499.596 311.514 499.996 311.514 500.797V500.816C311.514 501.598 310.859 502.057 309.756 502.057C308.682 502.057 308.008 501.666 307.793 500.875L307.764 500.768H305.059L305.068 500.865C305.283 502.975 307.031 504.215 309.775 504.215ZM319.18 504.166C320.547 504.166 321.66 503.512 322.266 502.438H322.324V504H325.176V496.822C325.176 494.713 323.418 493.316 320.723 493.316C317.949 493.316 316.289 494.703 316.133 496.637L316.123 496.754H318.73L318.75 496.666C318.896 495.992 319.531 495.494 320.596 495.494C321.719 495.494 322.324 496.07 322.324 496.998V497.643L319.736 497.799C317.129 497.965 315.654 499.078 315.654 500.982V501.002C315.654 502.848 317.08 504.166 319.18 504.166ZM318.477 500.855V500.836C318.477 500.094 319.062 499.625 320.166 499.557L322.324 499.42V500.172C322.324 501.266 321.377 502.086 320.098 502.086C319.121 502.086 318.477 501.627 318.477 500.855ZM335.781 506.783H338.359V501.852H336.787V493.531H333.936V501.852H330.029V493.531H327.178V504H335.781V506.783ZM339.639 504H342.432L346.553 497.379H346.66V504H349.463V493.531H346.67L342.539 500.064H342.441V493.531H339.639V504ZM351.514 504H354.307L358.428 497.379H358.535V504H361.338V493.531H358.545L354.414 500.064H354.316V493.531H351.514V504ZM267.979 527.447C270.312 527.447 271.719 526.656 272.539 524.186L276.123 513.531H273.115L270.908 521.715H270.82L268.613 513.531H265.488L269.18 524L269.062 524.342C268.809 525.055 268.34 525.299 267.49 525.299C267.061 525.299 266.729 525.24 266.533 525.201V527.32C266.865 527.379 267.422 527.447 267.979 527.447ZM278.779 526.783V524H285.82V526.783H288.418V521.812H286.855V513.531H278.477L278.135 518.795C278.037 520.211 277.744 521.383 276.982 521.812H276.182V526.783H278.779ZM284.004 521.812H279.863V521.754C280.352 521.041 280.576 520.104 280.645 518.98L280.879 515.719H284.004V521.812ZM292.803 524.166C294.17 524.166 295.283 523.512 295.889 522.438H295.947V524H298.799V516.822C298.799 514.713 297.041 513.316 294.346 513.316C291.572 513.316 289.912 514.703 289.756 516.637L289.746 516.754H292.354L292.373 516.666C292.52 515.992 293.154 515.494 294.219 515.494C295.342 515.494 295.947 516.07 295.947 516.998V517.643L293.359 517.799C290.752 517.965 289.277 519.078 289.277 520.982V521.002C289.277 522.848 290.703 524.166 292.803 524.166ZM292.1 520.855V520.836C292.1 520.094 292.686 519.625 293.789 519.557L295.947 519.42V520.172C295.947 521.266 295 522.086 293.721 522.086C292.744 522.086 292.1 521.627 292.1 520.855ZM304.668 519.146L304.883 515.689H307.764V524H310.615V513.531H302.432L302.119 518.912C302.012 520.787 301.67 521.637 300.654 521.637C300.391 521.637 300.195 521.607 300.078 521.578V523.971C300.244 524.02 300.615 524.098 301.143 524.098C303.711 524.098 304.482 522.174 304.668 519.146ZM317.422 524.215C320.4 524.215 321.846 522.447 322.178 520.904L322.197 520.797H319.58L319.561 520.855C319.365 521.441 318.652 522.086 317.48 522.086C316.025 522.086 315.117 521.109 315.078 519.439H322.285V518.561C322.285 515.396 320.371 513.316 317.305 513.316C314.229 513.316 312.266 515.445 312.266 518.775V518.785C312.266 522.135 314.209 524.215 317.422 524.215ZM317.354 515.445C318.525 515.445 319.375 516.197 319.551 517.643H315.117C315.303 516.227 316.172 515.445 317.354 515.445ZM330.781 524H333.633V513.531H330.781V517.555H326.777V513.531H323.926V524H326.777V519.713H330.781V524Z" fill="black"/>
    <rect width="115.494" height="115.494" transform="matrix(0.866025 0.5 -0.866025 0.5 300.021 185)" fill="#73FFE5"/>
    <rect width="115.494" height="115.494" transform="matrix(0.866025 0.5 -0.866025 0.5 300.021 185)" fill="#3C4257"/>
    <path d="M200 242.747L300.021 300.494L300.021 415.988L200 358.241L200 300.494L200 242.747Z" fill="#E1E8FF"/>
    <path d="M300.095 300.494L400.115 242.747L400.115 358.241L300.095 415.988L300.095 358.241L300.095 300.494Z" fill="#CEC0FF"/>
    <path d="M309.888 276.543C313.582 274.41 314.008 272.102 311.197 270.479L311.187 270.473C308.883 269.143 306.254 269.219 302.58 270.637L300.713 271.352C298.693 272.131 297.405 272.254 296.481 271.721L296.471 271.715C295.426 271.111 295.649 270.15 297.212 269.236C298.724 268.363 300.48 268.158 301.779 268.732L301.911 268.797L304.803 267.127L304.6 267.021C301.89 265.621 298.115 265.844 294.725 267.801C291.478 269.676 290.909 272.043 293.589 273.59L293.599 273.596C295.801 274.867 298.643 274.82 302.114 273.484L303.961 272.77C306.153 271.938 307.371 271.809 308.365 272.383L308.375 272.389C309.492 273.033 309.167 274.076 307.472 275.055C305.798 276.021 303.879 276.309 302.55 275.764L302.418 275.711L299.526 277.381L299.698 277.469C302.57 278.928 306.406 278.553 309.888 276.543ZM322.34 269.318C325.446 267.525 325.111 265.598 323.842 264.479L323.761 264.396L321.041 265.967L321.082 266.014C321.477 266.488 321.406 267.303 320.188 268.006C318.676 268.879 316.718 268.838 314.952 267.854L322.441 263.529L321.528 263.002C318.24 261.104 314.079 261.01 310.892 262.85C307.706 264.689 307.878 267.145 311.339 269.143L311.349 269.148C314.83 271.158 319.011 271.24 322.34 269.318ZM313.155 264.098C314.383 263.389 316.048 263.33 317.732 264.092L313.115 266.758C311.836 265.797 311.938 264.801 313.155 264.098ZM328.713 265.381L331.677 263.67L325.588 260.154C324.004 259.24 323.984 258.244 325.446 257.4C325.872 257.154 326.339 256.955 326.684 256.873L324.075 255.367C323.791 255.461 323.436 255.607 323.111 255.795C321.843 256.527 321.741 257.488 322.756 258.449L322.695 258.484L320.797 257.389L317.834 259.1L328.713 265.381ZM339.156 259.352L342.495 257.424L335.351 248.986L332.255 250.773L338.274 256.838L338.213 256.873L327.678 253.416L324.512 255.244L339.156 259.352ZM352.056 252.162C355.161 250.369 354.826 248.441 353.558 247.322L353.476 247.24L350.756 248.811L350.797 248.857C351.193 249.332 351.122 250.146 349.904 250.85C348.392 251.723 346.433 251.682 344.667 250.697L352.157 246.373L351.244 245.846C347.955 243.947 343.794 243.854 340.608 245.693C337.421 247.533 337.594 249.988 341.054 251.986L341.064 251.992C344.545 254.002 348.727 254.084 352.056 252.162ZM342.871 246.941C344.099 246.232 345.763 246.174 347.448 246.936L342.83 249.602C341.552 248.641 341.653 247.645 342.871 246.941ZM358.429 248.225L361.392 246.514L355.303 242.998C353.72 242.084 353.7 241.088 355.161 240.244C355.587 239.998 356.054 239.799 356.399 239.717L353.791 238.211C353.507 238.305 353.152 238.451 352.827 238.639C351.558 239.371 351.457 240.332 352.472 241.293L352.411 241.328L350.513 240.232L347.549 241.943L358.429 248.225Z" fill="white"/>
    <path d="M216.934 112.205C217.131 111.689 216.873 111.111 216.357 110.914L207.95 107.702C207.434 107.504 206.856 107.763 206.659 108.279C206.461 108.795 206.72 109.373 207.236 109.57L214.709 112.425L211.854 119.898C211.657 120.414 211.915 120.992 212.431 121.189C212.947 121.386 213.525 121.128 213.722 120.612L216.934 112.205ZM383.066 487.794C382.869 488.31 383.127 488.888 383.643 489.085L392.05 492.297C392.566 492.495 393.144 492.236 393.341 491.72C393.539 491.204 393.28 490.626 392.764 490.429L385.291 487.574L388.146 480.101C388.343 479.585 388.085 479.007 387.569 478.81C387.053 478.613 386.475 478.871 386.278 479.387L383.066 487.794ZM109.8 223.373C129.658 174.13 168.086 134.367 216.408 112.761L215.592 110.935C166.799 132.751 127.997 172.901 107.946 222.625L109.8 223.373ZM383.592 112.761C431.914 134.367 470.342 174.13 490.2 223.373L492.054 222.625C472.003 172.901 433.201 132.751 384.408 110.935L383.592 112.761ZM216.408 487.238C168.412 465.778 130.177 426.404 110.205 377.621L108.354 378.378C128.521 427.639 167.128 467.395 215.592 489.064L216.408 487.238ZM489.795 377.621C469.823 426.404 431.588 465.778 383.592 487.238L384.408 489.064C432.872 467.395 471.479 427.639 491.646 378.378L489.795 377.621Z" fill="#B8C0CD"/>
    <path d="M120.231 174.286L122.366 171.464L118.115 168.246L120.08 165.648C122.23 162.807 121.834 159.524 119.058 157.424L119.04 157.41C116.264 155.31 112.997 155.821 110.848 158.662L106.746 164.082L120.231 174.286ZM112.558 161.043C113.781 159.427 115.353 159.117 116.885 160.277L116.904 160.291C118.437 161.451 118.575 163.054 117.352 164.671L115.909 166.577L111.115 162.95L112.558 161.043Z" fill="black"/>
    <path d="M134.27 157.279C137.621 153.53 137.198 148.956 133.187 145.371L133.17 145.356C129.168 141.779 124.567 141.88 121.225 145.62C117.891 149.351 118.289 153.934 122.3 157.519L122.317 157.534C126.328 161.119 130.92 161.027 134.27 157.279ZM132.034 155.279C130.183 157.35 127.361 157.202 124.722 154.843L124.705 154.828C122.066 152.469 121.619 149.681 123.462 147.619C125.313 145.548 128.134 145.697 130.765 148.047L130.782 148.063C133.395 150.398 133.908 153.182 132.034 155.279Z" fill="black"/>
    <path d="M146.043 145.162C149.145 142.234 149.588 138.981 147.36 136.62L147.352 136.612C145.526 134.677 143.377 134.723 140.321 136.64L138.768 137.607C137.087 138.661 136.03 138.804 135.299 138.028L135.29 138.02C134.462 137.142 134.684 135.789 135.997 134.534C137.266 133.335 138.708 133.087 139.745 133.929L139.85 134.024L142.279 131.731L142.117 131.577C139.963 129.534 136.873 129.759 134.026 132.446C131.299 135.019 130.738 138.352 132.861 140.602L132.869 140.611C134.615 142.46 136.936 142.461 139.823 140.655L141.36 139.688C143.183 138.563 144.183 138.41 144.971 139.245L144.979 139.254C145.864 140.191 145.556 141.658 144.132 143.001C142.726 144.328 141.149 144.689 140.086 143.887L139.981 143.809L137.552 146.102L137.689 146.23C139.973 148.36 143.12 147.921 146.043 145.162Z" fill="black"/>
    <path d="M155.442 136.433L158.189 134.202L149.366 123.342L153.168 120.253L151.328 117.988L140.987 126.389L142.826 128.654L146.619 125.573L155.442 136.433Z" fill="black"/>
    <path d="M450.753 493.974L455.908 490.086C459.959 487.03 460.447 482.714 457.215 478.429L457.201 478.41C453.976 474.135 449.767 473.537 445.725 476.585L440.57 480.474L450.753 493.974ZM451.815 489.504L445.153 480.672L447.146 479.169C449.625 477.299 452.202 477.777 454.326 480.593L454.34 480.612C456.542 483.531 456.333 486.095 453.807 488.001L451.815 489.504Z" fill="black"/>
    <path d="M464.468 483.415L472.89 476.027L470.966 473.833L465.204 478.887L462.399 475.689L467.835 470.921L466.011 468.842L460.575 473.61L457.902 470.562L463.663 465.508L461.739 463.315L453.317 470.702L464.468 483.415Z" fill="black"/>
    <path d="M475.831 473.246L483.539 465.492L481.47 463.435L476.257 468.679L466.333 458.814L463.838 461.324L475.831 473.246Z" fill="black"/>
    <path d="M485.542 463.335L492.895 454.883L490.694 452.968L485.663 458.75L482.454 455.958L487.2 450.503L485.113 448.688L480.367 454.143L477.308 451.481L482.339 445.699L480.137 443.784L472.784 452.236L485.542 463.335Z" fill="black"/>
    <path d="M497.65 448.813L499.78 445.986L488.605 437.566L491.553 433.654L489.223 431.898L481.204 442.539L483.535 444.295L486.476 440.393L497.65 448.813Z" fill="black"/>
    <path d="M504.487 439.504L510.581 430.104L508.133 428.517L503.963 434.947L500.394 432.633L504.328 426.566L502.007 425.062L498.074 431.129L494.671 428.923L498.841 422.492L496.393 420.905L490.298 430.305L504.487 439.504Z" fill="black"/>
</svg>
