<svg width="599" height="330" viewBox="0 0 599 330" fill="none" xmlns="http://www.w3.org/2000/svg">
    <path d="M382 159.232L384.824 154.832L379.176 153.632L382 159.232ZM382 29.2336L382.489 29.3375V28.8375L382 28.7336V29.2336ZM248 0.750977V0.250977L247.511 0.147021V0.647021L248 0.750977ZM248 69.5393L250.824 65.1395L245.176 63.9391L248 69.5393ZM382.489 154.836V29.3375L381.511 29.1296V154.628L382.489 154.836ZM382 28.7336L248 0.250977V1.25098L382 29.7336V28.7336ZM247.511 0.647021V64.9353L248.489 65.1432V0.854932L247.511 0.647021Z" fill="#FFE000"/>
    <circle r="71.5" transform="matrix(0.978148 0.207912 0 1 385.427 238.97)" fill="white" stroke="#7833FF"/>
    <circle r="71.5" transform="matrix(0.978148 0.207912 0 1 369.427 239.97)" fill="white" stroke="#7833FF"/>
    <circle r="71.5" transform="matrix(0.978148 0.207912 0 1 353.427 240.97)" fill="white" stroke="#7833FF"/>
    <circle r="71" transform="matrix(0.978148 0.207912 0 1 337.427 241.97)" fill="white" stroke="#7833FF" stroke-width="2"/>
    <path d="M295.412 212.199L296.515 214.642C295.999 215.092 295.256 215.39 294.285 215.536C293.331 215.685 292.321 215.646 291.257 215.42C288.753 214.888 286.71 213.662 285.13 211.742C283.565 209.825 282.782 207.563 282.782 204.955C282.782 202.459 283.526 200.545 285.012 199.213C286.484 197.893 288.542 197.515 291.186 198.077C293.284 198.523 294.95 199.445 296.187 200.844L294.896 202.753C293.784 201.765 292.548 201.126 291.186 200.837C289.621 200.504 288.338 200.768 287.337 201.627C286.335 202.486 285.834 203.811 285.834 205.603C285.834 207.363 286.358 208.899 287.407 210.21C288.471 211.524 289.841 212.359 291.515 212.715C292.955 213.021 294.254 212.849 295.412 212.199ZM306.21 215.31L306.985 217.419C305.936 218.092 304.59 218.254 302.947 217.905C301.257 217.545 299.88 216.733 298.815 215.467C297.783 214.223 297.266 212.745 297.266 211.033C297.266 209.433 297.775 208.197 298.792 207.326C299.809 206.454 301.163 206.198 302.853 206.557C304.246 206.853 305.428 207.576 306.398 208.726C307.368 209.877 307.854 211.18 307.854 212.636C307.854 213.276 307.799 213.76 307.689 214.089L300.06 212.467C300.169 213.274 300.506 213.962 301.069 214.53C301.648 215.101 302.368 215.478 303.229 215.661C304.403 215.91 305.396 215.793 306.21 215.31ZM302.736 208.836C301.202 208.51 300.279 209.098 299.966 210.599L305.154 211.702C305.17 211.017 304.95 210.411 304.497 209.882C304.058 209.341 303.471 208.992 302.736 208.836ZM312.728 224.52L310.028 223.946V208.346L312.728 208.92V209.952C313.072 209.641 313.542 209.429 314.136 209.315C314.731 209.201 315.349 209.213 315.991 209.349C317.446 209.659 318.604 210.417 319.465 211.624C320.342 212.85 320.78 214.263 320.78 215.863C320.78 217.543 320.263 218.825 319.23 219.71C318.197 220.594 316.852 220.86 315.193 220.508C314.128 220.281 313.307 219.931 312.728 219.456V224.52ZM315.146 211.762C314.207 211.562 313.401 211.783 312.728 212.424V216.792C313.369 217.344 314.113 217.71 314.958 217.89C315.85 218.079 316.562 217.935 317.094 217.456C317.642 216.98 317.916 216.27 317.916 215.326C317.916 214.43 317.665 213.657 317.165 213.007C316.679 212.36 316.006 211.945 315.146 211.762ZM323.118 221.928V211.128C323.259 211.158 323.854 211.269 324.903 211.46C325.967 211.638 326.757 211.782 327.274 211.891C330.466 212.57 332.063 213.853 332.063 215.741C332.063 216.349 331.875 216.845 331.499 217.23C331.124 217.598 330.654 217.762 330.091 217.722V217.77C331.593 218.458 332.344 219.449 332.344 220.745C332.344 222.921 330.67 223.653 327.32 222.941C326.835 222.838 326.092 222.656 325.09 222.395C324.84 222.342 324.55 222.273 324.222 222.187C323.909 222.12 323.666 222.061 323.494 222.008C323.337 221.975 323.212 221.948 323.118 221.928ZM327.508 218.277L325.818 217.918V220.318C326.757 220.582 327.352 220.74 327.602 220.793C328.197 220.92 328.659 220.906 328.987 220.752C329.332 220.601 329.504 220.334 329.504 219.95C329.504 219.118 328.839 218.56 327.508 218.277ZM327.508 214.173C326.882 214.04 326.319 213.937 325.818 213.862V216.238L327.579 216.612C328.064 216.715 328.455 216.687 328.753 216.526C329.05 216.365 329.199 216.093 329.199 215.709C329.199 214.925 328.635 214.413 327.508 214.173ZM343.189 223.17L343.964 225.279C342.915 225.952 341.569 226.114 339.926 225.765C338.236 225.406 336.858 224.593 335.794 223.327C334.761 222.083 334.245 220.605 334.245 218.893C334.245 217.293 334.753 216.057 335.771 215.186C336.788 214.314 338.142 214.058 339.832 214.417C341.225 214.713 342.406 215.436 343.377 216.586C344.347 217.737 344.832 219.04 344.832 220.496C344.832 221.136 344.777 221.62 344.668 221.949L337.038 220.327C337.148 221.134 337.484 221.822 338.048 222.39C338.627 222.961 339.347 223.338 340.207 223.521C341.381 223.77 342.375 223.653 343.189 223.17ZM339.714 216.696C338.181 216.37 337.257 216.958 336.944 218.459L342.132 219.562C342.148 218.877 341.929 218.271 341.475 217.742C341.037 217.201 340.45 216.852 339.714 216.696ZM349.706 232.38L347.007 231.806V216.206L349.706 216.78V217.812C350.051 217.501 350.52 217.289 351.115 217.175C351.71 217.062 352.328 217.073 352.969 217.209C354.425 217.519 355.583 218.277 356.444 219.484C357.32 220.71 357.758 222.123 357.758 223.723C357.758 225.403 357.242 226.685 356.209 227.57C355.176 228.454 353.83 228.72 352.171 228.368C351.107 228.141 350.285 227.791 349.706 227.316V232.38ZM352.124 219.622C351.185 219.422 350.379 219.643 349.706 220.284V224.652C350.348 225.204 351.091 225.57 351.936 225.75C352.829 225.939 353.541 225.795 354.073 225.316C354.62 224.84 354.894 224.13 354.894 223.186C354.894 222.29 354.644 221.517 354.143 220.867C353.658 220.22 352.985 219.805 352.124 219.622ZM370.121 231.919L367.421 231.345V227.217L362.797 226.234V230.362L360.097 229.788V218.988L362.797 219.562V223.642L367.421 224.625V220.545L370.121 221.119V231.919ZM373.94 224.715L373.259 222.554C374.402 222.109 375.646 222.029 376.992 222.315C378.463 222.628 379.535 223.224 380.208 224.103C380.881 224.982 381.218 226.182 381.218 227.702V234.278L378.87 233.779V232.531C378.244 233.326 377.203 233.568 375.748 233.259C374.746 233.046 373.94 232.579 373.33 231.857C372.735 231.123 372.438 230.251 372.438 229.243C372.438 228.123 372.79 227.334 373.494 226.876C374.198 226.418 375.13 226.312 376.288 226.558C377.242 226.761 378.041 227.162 378.682 227.763C378.714 226.809 378.573 226.075 378.26 225.561C377.962 225.05 377.446 224.716 376.71 224.56C375.896 224.387 374.973 224.438 373.94 224.715ZM376.64 231.121C377.548 231.314 378.228 231.13 378.682 230.571V229.467C378.244 229.022 377.626 228.714 376.828 228.545C376.327 228.438 375.92 228.472 375.607 228.645C375.294 228.819 375.137 229.113 375.137 229.529C375.137 229.913 375.278 230.255 375.56 230.555C375.842 230.839 376.202 231.027 376.64 231.121ZM389.15 225.164L392.601 225.897V236.697L389.901 236.123V232.883L388.399 232.564L386.215 235.34L383.117 234.681L385.934 231.44C385.355 231.109 384.869 230.63 384.478 230.003C384.087 229.36 383.891 228.654 383.891 227.886C383.891 226.702 384.329 225.859 385.206 225.357C386.098 224.859 387.413 224.794 389.15 225.164ZM386.779 228.692C386.779 229.108 386.951 229.496 387.295 229.857C387.639 230.219 388.039 230.447 388.492 230.544L389.901 230.843V227.723L388.704 227.469C388.109 227.342 387.639 227.403 387.295 227.649C386.951 227.88 386.779 228.228 386.779 228.692ZM324.519 237.162L325.928 239.717C325.552 240.118 325.083 240.37 324.519 240.474C324.019 240.544 323.393 240.587 322.641 240.603C321.906 240.591 321.295 240.661 320.81 240.814C319.511 241.162 318.752 242.344 318.533 244.362L318.58 244.372C318.909 243.849 319.417 243.478 320.106 243.256C320.795 243.018 321.522 242.981 322.289 243.144C323.745 243.453 324.911 244.181 325.787 245.328C326.663 246.49 327.102 247.871 327.102 249.471C327.102 251.023 326.585 252.233 325.552 253.102C324.519 253.954 323.189 254.207 321.561 253.861C319.793 253.485 318.392 252.572 317.359 251.12C316.342 249.672 315.833 247.9 315.833 245.804C315.833 241.196 317.164 238.583 319.824 237.964C320.403 237.831 321.045 237.776 321.749 237.797C322.547 237.807 323.134 237.78 323.51 237.716C323.886 237.635 324.222 237.451 324.519 237.162ZM318.721 246.994C318.737 248.085 318.995 249.028 319.496 249.822C319.996 250.617 320.662 251.102 321.491 251.278C322.305 251.451 322.962 251.319 323.463 250.882C323.964 250.444 324.214 249.809 324.214 248.977C324.214 248.129 323.979 247.391 323.51 246.764C323.056 246.139 322.422 245.74 321.608 245.567C320.904 245.418 320.294 245.48 319.777 245.754C319.261 246.012 318.909 246.425 318.721 246.994ZM330.267 247.432L329.587 245.271C330.729 244.826 331.973 244.746 333.319 245.033C334.79 245.345 335.862 245.941 336.535 246.82C337.208 247.699 337.545 248.899 337.545 250.419V256.995L335.197 256.496V255.248C334.571 256.043 333.531 256.285 332.075 255.976C331.073 255.763 330.267 255.296 329.657 254.574C329.062 253.84 328.765 252.968 328.765 251.96C328.765 250.84 329.117 250.051 329.821 249.593C330.526 249.135 331.457 249.029 332.615 249.275C333.57 249.478 334.368 249.879 335.009 250.48C335.041 249.526 334.9 248.793 334.587 248.278C334.29 247.767 333.773 247.433 333.038 247.277C332.224 247.104 331.3 247.155 330.267 247.432ZM332.967 253.838C333.875 254.031 334.556 253.847 335.009 253.288V252.184C334.571 251.739 333.953 251.431 333.155 251.262C332.654 251.155 332.247 251.189 331.934 251.362C331.621 251.536 331.465 251.83 331.465 252.246C331.465 252.63 331.606 252.972 331.887 253.272C332.169 253.556 332.529 253.745 332.967 253.838ZM344.045 258.64C343.122 258.444 342.222 258.085 341.345 257.563C340.469 257.024 339.835 256.458 339.444 255.862L340.829 254.429C341.142 254.863 341.588 255.27 342.167 255.649C342.746 256.028 343.294 256.273 343.81 256.382C344.499 256.529 345.031 256.522 345.407 256.362C345.782 256.202 345.97 255.922 345.97 255.522C345.97 255.154 345.829 254.828 345.547 254.544C345.266 254.26 344.874 254.065 344.374 253.958L342.402 253.539V251.691L344.256 252.085C344.679 252.175 345.015 252.127 345.266 251.94C345.532 251.74 345.665 251.449 345.665 251.065C345.665 250.281 345.047 249.757 343.81 249.494C342.84 249.288 341.877 249.5 340.923 250.129L339.796 248.233C340.798 247.23 342.308 246.943 344.327 247.372C345.688 247.662 346.729 248.155 347.449 248.852C348.185 249.536 348.552 250.366 348.552 251.342C348.552 251.87 348.38 252.314 348.036 252.673C347.692 253.031 347.214 253.25 346.604 253.328V253.376C347.308 253.67 347.856 254.09 348.247 254.638C348.638 255.169 348.834 255.754 348.834 256.394C348.834 257.402 348.396 258.109 347.519 258.515C346.659 258.908 345.5 258.95 344.045 258.64ZM352.207 252.095L351.526 249.935C352.669 249.489 353.913 249.41 355.259 249.696C356.73 250.009 357.802 250.604 358.475 251.484C359.148 252.363 359.484 253.562 359.484 255.082V261.658L357.137 261.159V259.911C356.511 260.706 355.47 260.949 354.015 260.639C353.013 260.427 352.207 259.959 351.597 259.238C351.002 258.503 350.705 257.632 350.705 256.624C350.705 255.504 351.057 254.715 351.761 254.256C352.465 253.798 353.396 253.692 354.555 253.938C355.509 254.141 356.307 254.543 356.949 255.143C356.98 254.19 356.839 253.456 356.526 252.941C356.229 252.43 355.713 252.096 354.977 251.94C354.163 251.767 353.24 251.819 352.207 252.095ZM354.907 258.501C355.814 258.694 356.495 258.511 356.949 257.951V256.847C356.511 256.402 355.893 256.095 355.094 255.925C354.594 255.819 354.187 255.852 353.874 256.026C353.561 256.199 353.404 256.494 353.404 256.91C353.404 257.294 353.545 257.636 353.827 257.936C354.108 258.219 354.468 258.408 354.907 258.501ZM301.621 283.879L299.109 283.345V278.257L300.447 278.541C301.276 277.582 301.769 275.806 301.926 273.216L302.09 270.659L309.884 272.315V280.547L311.645 280.921V286.009L309.109 285.471V282.951L301.621 281.359V283.879ZM304.602 273.785L304.532 274.874C304.344 276.914 303.921 278.336 303.264 279.14L307.184 279.973V274.333L304.602 273.785ZM314.243 276.026L313.562 273.865C314.704 273.42 315.948 273.34 317.294 273.626C318.766 273.939 319.838 274.535 320.511 275.414C321.184 276.293 321.52 277.493 321.52 279.013V285.589L319.172 285.09V283.842C318.546 284.636 317.506 284.879 316.05 284.57C315.049 284.357 314.243 283.89 313.632 283.168C313.038 282.434 312.74 281.562 312.74 280.554C312.74 279.434 313.092 278.645 313.797 278.187C314.501 277.729 315.432 277.622 316.59 277.869C317.545 278.072 318.343 278.473 318.985 279.074C319.016 278.12 318.875 277.386 318.562 276.872C318.265 276.361 317.748 276.027 317.013 275.87C316.199 275.697 315.276 275.749 314.243 276.026ZM316.942 282.432C317.85 282.624 318.531 282.441 318.985 281.882V280.778C318.546 280.332 317.928 280.025 317.13 279.855C316.629 279.749 316.222 279.782 315.909 279.956C315.596 280.129 315.44 280.424 315.44 280.84C315.44 281.224 315.581 281.566 315.862 281.866C316.144 282.15 316.504 282.338 316.942 282.432ZM334.312 288.307L331.612 287.734V283.606L326.987 282.623V286.751L324.288 286.177V275.377L326.987 275.951V280.031L331.612 281.014V276.934L334.312 277.507V288.307ZM347.333 291.075L344.634 290.501V286.373L340.009 285.39V289.518L337.309 288.945V278.145L340.009 278.718V282.798L344.634 283.781V279.701L347.333 280.275V291.075ZM354.134 292.521L350.331 291.712V280.912L353.03 281.486V284.438L354.345 284.718C355.926 285.054 357.092 285.638 357.843 286.469C358.61 287.304 358.993 288.298 358.993 289.45C358.993 290.682 358.586 291.587 357.772 292.166C356.959 292.745 355.746 292.863 354.134 292.521ZM363.195 294.447L360.496 293.873V283.073L363.195 283.647V294.447ZM354.11 286.876L353.03 286.646V289.886L354.087 290.111C355.448 290.4 356.129 290.009 356.129 288.937C356.129 287.849 355.456 287.162 354.11 286.876ZM373.167 285.767L376.29 286.43L372.768 290.842L376.524 297.28L373.238 296.581L370.773 292.17L368.214 295.514L365.092 294.85L368.848 290.152L365.326 284.1L368.637 284.803L370.867 288.853L373.167 285.767Z" fill="#7833FF"/>
    <rect x="0.978148" y="1.20791" width="214" height="94" transform="matrix(0.978148 0.207912 0 1 144.021 53.7966)" fill="white"/>
    <rect width="56" height="16" transform="matrix(0.978148 0.207912 0 1 159.65 73.3267)" fill="#7833FF"/>
    <rect width="56" height="16" transform="matrix(0.978148 0.207912 0 1 222.252 86.6331)" fill="#7833FF"/>
    <path d="M284.853 99.9395L339.63 111.583V127.583L284.853 115.939V99.9395Z" fill="#7833FF"/>
    <rect width="56" height="16" transform="matrix(0.978148 0.207912 0 1 159.65 97.3267)" fill="#D3DBE6"/>
    <rect width="56" height="16" transform="matrix(0.978148 0.207912 0 1 222.252 110.633)" fill="#D3DBE6"/>
    <path d="M284.853 123.939L339.63 135.583V151.583L284.853 139.939V123.939Z" fill="#D3DBE6"/>
    <rect width="56" height="16" transform="matrix(0.978148 0.207912 0 1 159.65 121.327)" fill="#D3DBE6"/>
    <rect width="56" height="16" transform="matrix(0.978148 0.207912 0 1 222.252 134.633)" fill="#D3DBE6"/>
    <path d="M284.853 147.939L339.63 159.583V175.583L284.853 163.939V147.939Z" fill="#D3DBE6"/>
    <rect x="0.978148" y="1.20791" width="214" height="94" transform="matrix(0.978148 0.207912 0 1 144.021 53.7966)" stroke="#7833FF" stroke-width="2"/>
</svg>
