<svg width="371" height="228" viewBox="0 0 371 228" fill="none" xmlns="http://www.w3.org/2000/svg">
    <path d="M144.132 17.0086C144.68 17.0816 145.064 17.5846 144.991 18.132C144.918 18.6795 144.415 19.0641 143.868 18.9911L144.132 17.0086ZM88.7071 67.2054C88.3166 67.596 87.6834 67.596 87.2929 67.2054L80.9289 60.8415C80.5384 60.451 80.5384 59.8178 80.9289 59.4273C81.3195 59.0367 81.9526 59.0367 82.3431 59.4273L88 65.0841L93.6569 59.4273C94.0474 59.0367 94.6805 59.0367 95.0711 59.4273C95.4616 59.8178 95.4616 60.451 95.0711 60.8415L88.7071 67.2054ZM143.868 18.9911C129.076 17.0188 115.365 20.1118 105.371 28.0334C95.3969 35.9397 89 48.7548 89 66.4983H87C87 48.2435 93.6031 34.8095 104.129 26.4661C114.635 18.1381 128.924 14.9809 144.132 17.0086L143.868 18.9911Z" fill="#73FFE5"/>
    <path d="M64.1322 201.903C64.6796 201.83 65.0642 201.328 64.9912 200.78C64.9182 200.233 64.4153 199.848 63.8678 199.921L64.1322 201.903ZM8.70711 151.707C8.31658 151.316 7.68342 151.316 7.29289 151.707L0.928932 158.071C0.538408 158.461 0.538408 159.094 0.928932 159.485C1.31946 159.875 1.95262 159.875 2.34315 159.485L8 153.828L13.6569 159.485C14.0474 159.875 14.6805 159.875 15.0711 159.485C15.4616 159.094 15.4616 158.461 15.0711 158.071L8.70711 151.707ZM63.8678 199.921C49.0758 201.893 35.3648 198.8 25.3712 190.879C15.3969 182.972 9 170.157 9 152.414H7C7 170.669 13.6031 184.103 24.1288 192.446C34.6352 200.774 48.9242 203.931 64.1322 201.903L63.8678 199.921Z" fill="#73FFE5"/>
    <rect x="141" width="230" height="56" rx="28" fill="#73FFE5"/>
    <path d="M178.555 22.9766V24.1562H179.945V22.9766C183 22.8906 184.922 21.0938 184.922 18.3281C184.922 15.5469 183 13.7422 179.945 13.6719V12.5703H178.555V13.6719C175.492 13.7578 173.57 15.5547 173.57 18.3203C173.57 21.1016 175.5 22.9062 178.555 22.9766ZM178.555 21.7188C176.352 21.6484 174.992 20.3516 174.992 18.3203C174.992 16.3125 176.352 15.0156 178.555 14.9297V21.7188ZM183.5 18.3281C183.5 20.3359 182.141 21.6328 179.945 21.7188V14.9297C182.141 15 183.5 16.3047 183.5 18.3281ZM187.234 27.0391C188.703 27.0391 189.375 26.4688 190.07 24.5703L193.266 15.875H191.836L189.586 22.6406H189.562L187.312 15.875H185.859L188.859 24.0078L188.672 24.5781C188.359 25.5234 187.938 25.8906 187.18 25.8906C187.008 25.8906 186.797 25.8828 186.648 25.8516V26.9922C186.797 27.0234 187.07 27.0391 187.234 27.0391ZM199.82 24H201.18V15.875H199.82V19.2266H195.844V15.875H194.484V24H195.844V20.3438H199.82V24ZM204.516 20.0938L208.008 24H209.758L205.867 19.7188L209.648 15.875H207.969L204.516 19.4688H204.453V15.875H203.094V24H204.453V20.0938H204.516ZM218.734 26.1484V22.8828H217.438V15.875H216.078V22.8828H212.25V15.875H210.891V24H217.469V26.1484H218.734ZM221.297 24L225.344 17.9609H225.406V24H226.766V15.875H225.422L221.375 21.9141H221.312V15.875H219.953V24H221.297ZM233.133 24H234.492V15.875H231.586C229.719 15.875 228.516 16.8984 228.516 18.5703C228.516 19.6875 229.211 20.5312 230.359 20.8594L228.094 24H229.664L231.727 21.1094H233.133V24ZM231.594 19.9922C230.547 19.9922 229.867 19.3906 229.867 18.5469C229.867 17.5703 230.539 16.9922 231.594 16.9922H233.133V19.9922H231.594ZM237.266 26.2422L238.336 22.2656H236.891L236.133 26.2422H237.266ZM248.227 24H249.594V15.875H242.969V24H244.328V16.9922H248.227V24ZM254.875 24.1406C257.117 24.1406 258.633 22.5234 258.633 19.9375C258.633 17.3438 257.117 15.7344 254.875 15.7344C252.625 15.7344 251.109 17.3438 251.109 19.9375C251.109 22.5234 252.625 24.1406 254.875 24.1406ZM254.875 22.9453C253.438 22.9453 252.492 21.8516 252.492 19.9375C252.492 18.0234 253.438 16.9297 254.875 16.9297C256.312 16.9297 257.25 18.0234 257.25 19.9375C257.25 21.8516 256.312 22.9453 254.875 22.9453ZM262.867 24.1406C264.773 24.1406 266.039 23.125 266.039 21.625C266.039 20.7109 265.484 20.0391 264.414 19.8047V19.7422C265.258 19.5469 265.812 18.7969 265.812 17.9531C265.812 16.6328 264.805 15.7344 262.953 15.7344C261.234 15.7344 260.062 16.5859 259.891 17.9297H261.211C261.32 17.2812 261.992 16.8672 262.953 16.8672C264 16.8672 264.484 17.3672 264.484 18.0625C264.484 18.8828 263.938 19.2891 262.867 19.2891H261.648V20.3984H262.867C264.094 20.3984 264.703 20.7969 264.703 21.6875C264.703 22.4609 264.047 23.0156 262.867 23.0156C261.859 23.0156 261.188 22.6016 261.031 21.8906H259.656C259.797 23.2656 261.086 24.1406 262.867 24.1406ZM271.094 24C272.82 24 273.883 23.1016 273.883 21.6641C273.883 20.6719 273.211 19.9453 272.188 19.8047V19.7422C272.938 19.5859 273.523 18.8125 273.523 17.9766C273.523 16.6719 272.594 15.875 271.07 15.875H267.594V24H271.094ZM268.953 16.9766H270.867C271.719 16.9766 272.18 17.3828 272.18 18.1172C272.18 18.9062 271.688 19.2891 270.664 19.2891H268.953V16.9766ZM268.953 20.3828H270.773C271.961 20.3828 272.531 20.7891 272.531 21.6328C272.531 22.4531 272 22.8984 271.016 22.8984H268.953V20.3828ZM278.812 24.1406C281.055 24.1406 282.57 22.5234 282.57 19.9375C282.57 17.3438 281.055 15.7344 278.812 15.7344C276.562 15.7344 275.047 17.3438 275.047 19.9375C275.047 22.5234 276.562 24.1406 278.812 24.1406ZM278.812 22.9453C277.375 22.9453 276.43 21.8516 276.43 19.9375C276.43 18.0234 277.375 16.9297 278.812 16.9297C280.25 16.9297 281.188 18.0234 281.188 19.9375C281.188 21.8516 280.25 22.9453 278.812 22.9453ZM285.969 20.4141L286.219 16.9922H288.953V24H290.312V15.875H284.992L284.68 20.3828C284.578 21.875 284.273 22.8203 283.469 22.8203C283.273 22.8203 283.125 22.7812 283.055 22.7578V23.9844C283.148 24.0234 283.305 24.0703 283.539 24.0703C285.25 24.0703 285.805 22.6562 285.969 20.4141ZM296.695 24H298.055V15.875H295.148C293.281 15.875 292.078 16.8984 292.078 18.5703C292.078 19.6875 292.773 20.5312 293.922 20.8594L291.656 24H293.227L295.289 21.1094H296.695V24ZM295.156 19.9922C294.109 19.9922 293.43 19.3906 293.43 18.5469C293.43 17.5703 294.102 16.9922 295.156 16.9922H296.695V19.9922H295.156ZM306.375 24.1406C308.656 24.1406 310.062 22.5469 310.062 19.9375C310.062 17.3203 308.656 15.7344 306.375 15.7344C304.312 15.7344 302.969 17.0391 302.727 19.2266H301.328V15.875H299.969V24H301.328V20.3438H302.695C302.844 22.7109 304.219 24.1406 306.375 24.1406ZM306.375 22.9375C304.906 22.9375 304.078 21.8438 304.078 19.9375C304.078 18.0234 304.906 16.9375 306.375 16.9375C307.844 16.9375 308.672 18.0234 308.672 19.9375C308.672 21.8438 307.844 22.9375 306.375 22.9375ZM311.578 24H321.633V26.2266H322.938V22.875H321.609V15.875H320.25V22.8828H317.273V15.875H315.914V22.8828H312.938V15.875H311.578V24ZM326.508 24.1406C327.602 24.1406 328.633 23.5312 329.117 22.6016H329.148V24H330.438V18.3828C330.438 16.7656 329.234 15.7344 327.328 15.7344C325.406 15.7344 324.203 16.8125 324.109 18.2188H325.422C325.594 17.4219 326.25 16.9297 327.297 16.9297C328.422 16.9297 329.078 17.5234 329.078 18.5156V19.1953L326.75 19.3281C324.875 19.4375 323.805 20.3125 323.805 21.7031C323.805 23.1641 324.891 24.1406 326.508 24.1406ZM326.812 22.9844C325.836 22.9844 325.188 22.4766 325.188 21.7031C325.188 20.9375 325.812 20.4531 326.906 20.3828L329.078 20.25V20.9141C329.078 22.0859 328.094 22.9844 326.812 22.9844ZM336.773 24H338.133V15.875H335.227C333.359 15.875 332.156 16.8984 332.156 18.5703C332.156 19.6875 332.852 20.5312 334 20.8594L331.734 24H333.305L335.367 21.1094H336.773V24ZM335.234 19.9922C334.188 19.9922 333.508 19.3906 333.508 18.5469C333.508 17.5703 334.18 16.9922 335.234 16.9922H336.773V19.9922H335.234ZM165.219 35.7344C164.039 35.7344 163.094 36.3359 162.594 37.25H162.562V35.875H161.273V46.7109H162.633V42.6797H162.664C163.148 43.5703 164.086 44.1406 165.25 44.1406C167.297 44.1406 168.695 42.4844 168.695 39.9375C168.695 37.3906 167.289 35.7344 165.219 35.7344ZM164.953 42.9453C163.562 42.9453 162.625 41.75 162.625 39.9375C162.625 38.1328 163.562 36.9297 164.953 36.9297C166.398 36.9297 167.305 38.1016 167.305 39.9375C167.305 41.7812 166.398 42.9453 164.953 42.9453ZM175.617 41.6719C175.391 42.4375 174.633 42.9609 173.602 42.9609C172.141 42.9609 171.227 41.9375 171.227 40.3828V40.3047H177.055V39.7891C177.055 37.3281 175.703 35.7344 173.508 35.7344C171.266 35.7344 169.828 37.4453 169.828 39.9688C169.828 42.5234 171.242 44.1406 173.57 44.1406C175.344 44.1406 176.719 43.0938 176.953 41.6719H175.617ZM173.484 36.9141C174.766 36.9141 175.617 37.8828 175.648 39.2422H171.234C171.32 37.8906 172.211 36.9141 173.484 36.9141ZM178.883 46.1484V44H185.188V46.1484H186.453V42.8828H185.164V35.875H179.57L179.258 40.3828C179.18 41.4766 178.891 42.4922 178.297 42.8828H177.617V46.1484H178.883ZM183.812 42.8828H179.852V42.8203C180.234 42.3047 180.445 41.4219 180.516 40.4141L180.766 36.9922H183.812V42.8828ZM190.055 44.1406C191.148 44.1406 192.18 43.5312 192.664 42.6016H192.695V44H193.984V38.3828C193.984 36.7656 192.781 35.7344 190.875 35.7344C188.953 35.7344 187.75 36.8125 187.656 38.2188H188.969C189.141 37.4219 189.797 36.9297 190.844 36.9297C191.969 36.9297 192.625 37.5234 192.625 38.5156V39.1953L190.297 39.3281C188.422 39.4375 187.352 40.3125 187.352 41.7031C187.352 43.1641 188.438 44.1406 190.055 44.1406ZM190.359 42.9844C189.383 42.9844 188.734 42.4766 188.734 41.7031C188.734 40.9375 189.359 40.4531 190.453 40.3828L192.625 40.25V40.9141C192.625 42.0859 191.641 42.9844 190.359 42.9844ZM197.281 40.0938L200.773 44H202.523L198.633 39.7188L202.414 35.875H200.734L197.281 39.4688H197.219V35.875H195.859V44H197.219V40.0938H197.281ZM209.445 35.875H202.852V36.9922H205.469V44H206.828V36.9922H209.445V35.875ZM212.047 44L216.094 37.9609H216.156V44H217.516V35.875H216.172L212.125 41.9141H212.062V35.875H210.703V44H212.047ZM223.375 35.7344C222.195 35.7344 221.25 36.3359 220.75 37.25H220.719V35.875H219.43V46.7109H220.789V42.6797H220.82C221.305 43.5703 222.242 44.1406 223.406 44.1406C225.453 44.1406 226.852 42.4844 226.852 39.9375C226.852 37.3906 225.445 35.7344 223.375 35.7344ZM223.109 42.9453C221.719 42.9453 220.781 41.75 220.781 39.9375C220.781 38.1328 221.719 36.9297 223.109 36.9297C224.555 36.9297 225.461 38.1016 225.461 39.9375C225.461 41.7812 224.555 42.9453 223.109 42.9453ZM231.75 44.1406C233.992 44.1406 235.508 42.5234 235.508 39.9375C235.508 37.3438 233.992 35.7344 231.75 35.7344C229.5 35.7344 227.984 37.3438 227.984 39.9375C227.984 42.5234 229.5 44.1406 231.75 44.1406ZM231.75 42.9453C230.312 42.9453 229.367 41.8516 229.367 39.9375C229.367 38.0234 230.312 36.9297 231.75 36.9297C233.188 36.9297 234.125 38.0234 234.125 39.9375C234.125 41.8516 233.188 42.9453 231.75 42.9453ZM240.531 44C242.258 44 243.32 43.1016 243.32 41.6641C243.32 40.6719 242.648 39.9453 241.625 39.8047V39.7422C242.375 39.5859 242.961 38.8125 242.961 37.9766C242.961 36.6719 242.031 35.875 240.508 35.875H237.031V44H240.531ZM238.391 36.9766H240.305C241.156 36.9766 241.617 37.3828 241.617 38.1172C241.617 38.9062 241.125 39.2891 240.102 39.2891H238.391V36.9766ZM238.391 40.3828H240.211C241.398 40.3828 241.969 40.7891 241.969 41.6328C241.969 42.4531 241.438 42.8984 240.453 42.8984H238.391V40.3828ZM247.258 44.1406C248.352 44.1406 249.383 43.5312 249.867 42.6016H249.898V44H251.188V38.3828C251.188 36.7656 249.984 35.7344 248.078 35.7344C246.156 35.7344 244.953 36.8125 244.859 38.2188H246.172C246.344 37.4219 247 36.9297 248.047 36.9297C249.172 36.9297 249.828 37.5234 249.828 38.5156V39.1953L247.5 39.3281C245.625 39.4375 244.555 40.3125 244.555 41.7031C244.555 43.1641 245.641 44.1406 247.258 44.1406ZM247.562 42.9844C246.586 42.9844 245.938 42.4766 245.938 41.7031C245.938 40.9375 246.562 40.4531 247.656 40.3828L249.828 40.25V40.9141C249.828 42.0859 248.844 42.9844 247.562 42.9844ZM258.852 35.875H252.258V36.9922H254.875V44H256.234V36.9922H258.852V35.875ZM260.109 44H262.992C264.852 44 266.047 42.9297 266.047 41.2344C266.047 39.5391 264.852 38.4688 262.992 38.4688H261.469V35.875H260.109V44ZM262.969 39.5859C264.016 39.5859 264.703 40.2344 264.703 41.2344C264.703 42.2266 264.023 42.8828 262.969 42.8828H261.469V39.5859H262.969ZM276.758 35.875H270.164V36.9922H272.781V44H274.141V36.9922H276.758V35.875ZM283.258 41.6719C283.031 42.4375 282.273 42.9609 281.242 42.9609C279.781 42.9609 278.867 41.9375 278.867 40.3828V40.3047H284.695V39.7891C284.695 37.3281 283.344 35.7344 281.148 35.7344C278.906 35.7344 277.469 37.4453 277.469 39.9688C277.469 42.5234 278.883 44.1406 281.211 44.1406C282.984 44.1406 284.359 43.0938 284.594 41.6719H283.258ZM281.125 36.9141C282.406 36.9141 283.258 37.8828 283.289 39.2422H278.875C278.961 37.8906 279.852 36.9141 281.125 36.9141ZM287.641 40.0938L291.133 44H292.883L288.992 39.7188L292.773 35.875H291.094L287.641 39.4688H287.578V35.875H286.219V44H287.578V40.0938H287.641ZM300.617 38.5391C300.445 37.0781 299.234 35.7344 297.203 35.7344C294.961 35.7344 293.469 37.375 293.469 39.9375C293.469 42.5547 294.969 44.1406 297.219 44.1406C299.062 44.1406 300.422 43 300.633 41.3828H299.297C299.062 42.3594 298.336 42.9453 297.227 42.9453C295.82 42.9453 294.852 41.8281 294.852 39.9375C294.852 38.0938 295.805 36.9297 297.211 36.9297C298.406 36.9297 299.094 37.6562 299.289 38.5391H300.617ZM307.82 35.875H301.227V36.9922H303.844V44H305.203V36.9922H307.82V35.875ZM317.617 44H318.984V35.875H312.359V44H313.719V36.9922H317.617V44ZM324.266 44.1406C326.508 44.1406 328.023 42.5234 328.023 39.9375C328.023 37.3438 326.508 35.7344 324.266 35.7344C322.016 35.7344 320.5 37.3438 320.5 39.9375C320.5 42.5234 322.016 44.1406 324.266 44.1406ZM324.266 42.9453C322.828 42.9453 321.883 41.8516 321.883 39.9375C321.883 38.0234 322.828 36.9297 324.266 36.9297C325.703 36.9297 326.641 38.0234 326.641 39.9375C326.641 41.8516 325.703 42.9453 324.266 42.9453ZM336.305 38.5391C336.133 37.0781 334.922 35.7344 332.891 35.7344C330.648 35.7344 329.156 37.375 329.156 39.9375C329.156 42.5547 330.656 44.1406 332.906 44.1406C334.75 44.1406 336.109 43 336.32 41.3828H334.984C334.75 42.3594 334.023 42.9453 332.914 42.9453C331.508 42.9453 330.539 41.8281 330.539 39.9375C330.539 38.0938 331.492 36.9297 332.898 36.9297C334.094 36.9297 334.781 37.6562 334.977 38.5391H336.305ZM343.508 35.875H336.914V36.9922H339.531V44H340.891V36.9922H343.508V35.875ZM346.836 44.1406C347.93 44.1406 348.961 43.5312 349.445 42.6016H349.477V44H350.766V38.3828C350.766 36.7656 349.562 35.7344 347.656 35.7344C345.734 35.7344 344.531 36.8125 344.438 38.2188H345.75C345.922 37.4219 346.578 36.9297 347.625 36.9297C348.75 36.9297 349.406 37.5234 349.406 38.5156V39.1953L347.078 39.3281C345.203 39.4375 344.133 40.3125 344.133 41.7031C344.133 43.1641 345.219 44.1406 346.836 44.1406ZM347.141 42.9844C346.164 42.9844 345.516 42.4766 345.516 41.7031C345.516 40.9375 346.141 40.4531 347.234 40.3828L349.406 40.25V40.9141C349.406 42.0859 348.422 42.9844 347.141 42.9844Z" fill="black"/>
    <rect x="61" y="172" width="250" height="56" rx="28" fill="#73FFE5"/>
    <path d="M99.8281 194.734H94.25V190.859H99.5391V189.609H94.25V185.992H99.8281V184.727H92.8438V196H99.8281V194.734ZM108.383 190.539C108.211 189.078 107 187.734 104.969 187.734C102.727 187.734 101.234 189.375 101.234 191.938C101.234 194.555 102.734 196.141 104.984 196.141C106.828 196.141 108.188 195 108.398 193.383H107.062C106.828 194.359 106.102 194.945 104.992 194.945C103.586 194.945 102.617 193.828 102.617 191.938C102.617 190.094 103.57 188.93 104.977 188.93C106.172 188.93 106.859 189.656 107.055 190.539H108.383ZM111.906 192.414L112.156 188.992H114.891V196H116.25V187.875H110.93L110.617 192.383C110.516 193.875 110.211 194.82 109.406 194.82C109.211 194.82 109.062 194.781 108.992 194.758V195.984C109.086 196.023 109.242 196.07 109.477 196.07C111.188 196.07 111.742 194.656 111.906 192.414ZM119.516 196L123.562 189.961H123.625V196H124.984V187.875H123.641L119.594 193.914H119.531V187.875H118.172V196H119.516ZM135.43 196H136.797V187.875H130.172V196H131.531V188.992H135.43V196ZM142.078 196.141C144.32 196.141 145.836 194.523 145.836 191.938C145.836 189.344 144.32 187.734 142.078 187.734C139.828 187.734 138.312 189.344 138.312 191.938C138.312 194.523 139.828 196.141 142.078 196.141ZM142.078 194.945C140.641 194.945 139.695 193.852 139.695 191.938C139.695 190.023 140.641 188.93 142.078 188.93C143.516 188.93 144.453 190.023 144.453 191.938C144.453 193.852 143.516 194.945 142.078 194.945ZM154.117 190.539C153.945 189.078 152.734 187.734 150.703 187.734C148.461 187.734 146.969 189.375 146.969 191.938C146.969 194.555 148.469 196.141 150.719 196.141C152.562 196.141 153.922 195 154.133 193.383H152.797C152.562 194.359 151.836 194.945 150.727 194.945C149.32 194.945 148.352 193.828 148.352 191.938C148.352 190.094 149.305 188.93 150.711 188.93C151.906 188.93 152.594 189.656 152.789 190.539H154.117ZM161.32 187.875H154.727V188.992H157.344V196H158.703V188.992H161.32V187.875ZM166.547 199.039C168.016 199.039 168.688 198.469 169.383 196.57L172.578 187.875H171.148L168.898 194.641H168.875L166.625 187.875H165.172L168.172 196.008L167.984 196.578C167.672 197.523 167.25 197.891 166.492 197.891C166.32 197.891 166.109 197.883 165.961 197.852V198.992C166.109 199.023 166.383 199.039 166.547 199.039ZM174.586 196L177.867 192.094H177.922V196H179.266V192.094H179.328L182.609 196H184.352L180.68 191.719L184.227 187.875H182.57L179.328 191.469H179.266V187.875H177.922V191.469H177.867L174.625 187.875H172.953L176.516 191.742L172.867 196H174.586ZM190.648 193.672C190.422 194.438 189.664 194.961 188.633 194.961C187.172 194.961 186.258 193.938 186.258 192.383V192.305H192.086V191.789C192.086 189.328 190.734 187.734 188.539 187.734C186.297 187.734 184.859 189.445 184.859 191.969C184.859 194.523 186.273 196.141 188.602 196.141C190.375 196.141 191.75 195.094 191.984 193.672H190.648ZM188.516 188.914C189.797 188.914 190.648 189.883 190.68 191.242H186.266C186.352 189.891 187.242 188.914 188.516 188.914ZM200.391 196C202.117 196 203.18 195.102 203.18 193.664C203.18 192.672 202.508 191.945 201.484 191.805V191.742C202.234 191.586 202.82 190.812 202.82 189.977C202.82 188.672 201.891 187.875 200.367 187.875H196.891V196H200.391ZM198.25 188.977H200.164C201.016 188.977 201.477 189.383 201.477 190.117C201.477 190.906 200.984 191.289 199.961 191.289H198.25V188.977ZM198.25 192.383H200.07C201.258 192.383 201.828 192.789 201.828 193.633C201.828 194.453 201.297 194.898 200.312 194.898H198.25V192.383ZM211.688 196H213.031V187.875H211.688V196ZM204.734 196H207.617C209.477 196 210.672 194.93 210.672 193.234C210.672 191.539 209.477 190.469 207.617 190.469H206.094V187.875H204.734V196ZM207.594 191.586C208.641 191.586 209.328 192.234 209.328 193.234C209.328 194.227 208.648 194.883 207.594 194.883H206.094V191.586H207.594ZM221.695 190.539C221.523 189.078 220.312 187.734 218.281 187.734C216.039 187.734 214.547 189.375 214.547 191.938C214.547 194.555 216.047 196.141 218.297 196.141C220.141 196.141 221.5 195 221.711 193.383H220.375C220.141 194.359 219.414 194.945 218.305 194.945C216.898 194.945 215.93 193.828 215.93 191.938C215.93 190.094 216.883 188.93 218.289 188.93C219.484 188.93 220.172 189.656 220.367 190.539H221.695ZM228.898 187.875H222.305V188.992H224.922V196H226.281V188.992H228.898V187.875ZM232.227 196.141C233.32 196.141 234.352 195.531 234.836 194.602H234.867V196H236.156V190.383C236.156 188.766 234.953 187.734 233.047 187.734C231.125 187.734 229.922 188.812 229.828 190.219H231.141C231.312 189.422 231.969 188.93 233.016 188.93C234.141 188.93 234.797 189.523 234.797 190.516V191.195L232.469 191.328C230.594 191.438 229.523 192.312 229.523 193.703C229.523 195.164 230.609 196.141 232.227 196.141ZM232.531 194.984C231.555 194.984 230.906 194.477 230.906 193.703C230.906 192.938 231.531 192.453 232.625 192.383L234.797 192.25V192.914C234.797 194.086 233.812 194.984 232.531 194.984ZM241.531 196C243.258 196 244.32 195.102 244.32 193.664C244.32 192.672 243.648 191.945 242.625 191.805V191.742C243.375 191.586 243.961 190.812 243.961 189.977C243.961 188.672 243.031 187.875 241.508 187.875H238.031V196H241.531ZM239.391 188.977H241.305C242.156 188.977 242.617 189.383 242.617 190.117C242.617 190.906 242.125 191.289 241.102 191.289H239.391V188.977ZM239.391 192.383H241.211C242.398 192.383 242.969 192.789 242.969 193.633C242.969 194.453 242.438 194.898 241.453 194.898H239.391V192.383ZM247.906 192.414L248.156 188.992H250.891V196H252.25V187.875H246.93L246.617 192.383C246.516 193.875 246.211 194.82 245.406 194.82C245.211 194.82 245.062 194.781 244.992 194.758V195.984C245.086 196.023 245.242 196.07 245.477 196.07C247.188 196.07 247.742 194.656 247.906 192.414ZM259.57 193.672C259.344 194.438 258.586 194.961 257.555 194.961C256.094 194.961 255.18 193.938 255.18 192.383V192.305H261.008V191.789C261.008 189.328 259.656 187.734 257.461 187.734C255.219 187.734 253.781 189.445 253.781 191.969C253.781 194.523 255.195 196.141 257.523 196.141C259.297 196.141 260.672 195.094 260.906 193.672H259.57ZM257.438 188.914C258.719 188.914 259.57 189.883 259.602 191.242H255.188C255.273 189.891 256.164 188.914 257.438 188.914ZM267.867 196H269.227V187.875H267.867V191.227H263.891V187.875H262.531V196H263.891V192.344H267.867V196ZM279.461 192.062V190.797H274.336V192.062H279.461ZM85.8828 207.734C84.7031 207.734 83.7578 208.336 83.2578 209.25H83.2266V207.875H81.9375V218.711H83.2969V214.68H83.3281C83.8125 215.57 84.75 216.141 85.9141 216.141C87.9609 216.141 89.3594 214.484 89.3594 211.938C89.3594 209.391 87.9531 207.734 85.8828 207.734ZM85.6172 214.945C84.2266 214.945 83.2891 213.75 83.2891 211.938C83.2891 210.133 84.2266 208.93 85.6172 208.93C87.0625 208.93 87.9688 210.102 87.9688 211.938C87.9688 213.781 87.0625 214.945 85.6172 214.945ZM96.2812 213.672C96.0547 214.438 95.2969 214.961 94.2656 214.961C92.8047 214.961 91.8906 213.938 91.8906 212.383V212.305H97.7188V211.789C97.7188 209.328 96.3672 207.734 94.1719 207.734C91.9297 207.734 90.4922 209.445 90.4922 211.969C90.4922 214.523 91.9062 216.141 94.2344 216.141C96.0078 216.141 97.3828 215.094 97.6172 213.672H96.2812ZM94.1484 208.914C95.4297 208.914 96.2812 209.883 96.3125 211.242H91.8984C91.9844 209.891 92.875 208.914 94.1484 208.914ZM99.5469 218.148V216H105.852V218.148H107.117V214.883H105.828V207.875H100.234L99.9219 212.383C99.8438 213.477 99.5547 214.492 98.9609 214.883H98.2812V218.148H99.5469ZM104.477 214.883H100.516V214.82C100.898 214.305 101.109 213.422 101.18 212.414L101.43 208.992H104.477V214.883ZM110.719 216.141C111.812 216.141 112.844 215.531 113.328 214.602H113.359V216H114.648V210.383C114.648 208.766 113.445 207.734 111.539 207.734C109.617 207.734 108.414 208.812 108.32 210.219H109.633C109.805 209.422 110.461 208.93 111.508 208.93C112.633 208.93 113.289 209.523 113.289 210.516V211.195L110.961 211.328C109.086 211.438 108.016 212.312 108.016 213.703C108.016 215.164 109.102 216.141 110.719 216.141ZM111.023 214.984C110.047 214.984 109.398 214.477 109.398 213.703C109.398 212.938 110.023 212.453 111.117 212.383L113.289 212.25V212.914C113.289 214.086 112.305 214.984 111.023 214.984ZM117.945 212.094L121.438 216H123.188L119.297 211.719L123.078 207.875H121.398L117.945 211.469H117.883V207.875H116.523V216H117.883V212.094H117.945ZM130.109 207.875H123.516V208.992H126.133V216H127.492V208.992H130.109V207.875ZM132.711 216L136.758 209.961H136.82V216H138.18V207.875H136.836L132.789 213.914H132.727V207.875H131.367V216H132.711ZM144.039 207.734C142.859 207.734 141.914 208.336 141.414 209.25H141.383V207.875H140.094V218.711H141.453V214.68H141.484C141.969 215.57 142.906 216.141 144.07 216.141C146.117 216.141 147.516 214.484 147.516 211.938C147.516 209.391 146.109 207.734 144.039 207.734ZM143.773 214.945C142.383 214.945 141.445 213.75 141.445 211.938C141.445 210.133 142.383 208.93 143.773 208.93C145.219 208.93 146.125 210.102 146.125 211.938C146.125 213.781 145.219 214.945 143.773 214.945ZM152.414 216.141C154.656 216.141 156.172 214.523 156.172 211.938C156.172 209.344 154.656 207.734 152.414 207.734C150.164 207.734 148.648 209.344 148.648 211.938C148.648 214.523 150.164 216.141 152.414 216.141ZM152.414 214.945C150.977 214.945 150.031 213.852 150.031 211.938C150.031 210.023 150.977 208.93 152.414 208.93C153.852 208.93 154.789 210.023 154.789 211.938C154.789 213.852 153.852 214.945 152.414 214.945ZM161.195 216C162.922 216 163.984 215.102 163.984 213.664C163.984 212.672 163.312 211.945 162.289 211.805V211.742C163.039 211.586 163.625 210.812 163.625 209.977C163.625 208.672 162.695 207.875 161.172 207.875H157.695V216H161.195ZM159.055 208.977H160.969C161.82 208.977 162.281 209.383 162.281 210.117C162.281 210.906 161.789 211.289 160.766 211.289H159.055V208.977ZM159.055 212.383H160.875C162.062 212.383 162.633 212.789 162.633 213.633C162.633 214.453 162.102 214.898 161.117 214.898H159.055V212.383ZM167.922 216.141C169.016 216.141 170.047 215.531 170.531 214.602H170.562V216H171.852V210.383C171.852 208.766 170.648 207.734 168.742 207.734C166.82 207.734 165.617 208.812 165.523 210.219H166.836C167.008 209.422 167.664 208.93 168.711 208.93C169.836 208.93 170.492 209.523 170.492 210.516V211.195L168.164 211.328C166.289 211.438 165.219 212.312 165.219 213.703C165.219 215.164 166.305 216.141 167.922 216.141ZM168.227 214.984C167.25 214.984 166.602 214.477 166.602 213.703C166.602 212.938 167.227 212.453 168.32 212.383L170.492 212.25V212.914C170.492 214.086 169.508 214.984 168.227 214.984ZM179.062 216H180.422V207.875H179.062V211.227H175.086V207.875H173.727V216H175.086V212.344H179.062V216ZM183.68 216L187.727 209.961H187.789V216H189.148V207.875H187.805L183.758 213.914H183.695V207.875H182.336V216H183.68ZM196.453 213.672C196.227 214.438 195.469 214.961 194.438 214.961C192.977 214.961 192.062 213.938 192.062 212.383V212.305H197.891V211.789C197.891 209.328 196.539 207.734 194.344 207.734C192.102 207.734 190.664 209.445 190.664 211.969C190.664 214.523 192.078 216.141 194.406 216.141C196.18 216.141 197.555 215.094 197.789 213.672H196.453ZM194.32 208.914C195.602 208.914 196.453 209.883 196.484 211.242H192.07C192.156 209.891 193.047 208.914 194.32 208.914ZM208.031 216H209.391V207.875H208.031V211.227H204.055V207.875H202.695V216H204.055V212.344H208.031V216ZM216.703 213.672C216.477 214.438 215.719 214.961 214.688 214.961C213.227 214.961 212.312 213.938 212.312 212.383V212.305H218.141V211.789C218.141 209.328 216.789 207.734 214.594 207.734C212.352 207.734 210.914 209.445 210.914 211.969C210.914 214.523 212.328 216.141 214.656 216.141C216.43 216.141 217.805 215.094 218.039 213.672H216.703ZM214.57 208.914C215.852 208.914 216.703 209.883 216.734 211.242H212.32C212.406 209.891 213.297 208.914 214.57 208.914ZM223.164 216C224.891 216 225.953 215.102 225.953 213.664C225.953 212.672 225.281 211.945 224.258 211.805V211.742C225.008 211.586 225.594 210.812 225.594 209.977C225.594 208.672 224.664 207.875 223.141 207.875H219.664V216H223.164ZM221.023 208.977H222.938C223.789 208.977 224.25 209.383 224.25 210.117C224.25 210.906 223.758 211.289 222.734 211.289H221.023V208.977ZM221.023 212.383H222.844C224.031 212.383 224.602 212.789 224.602 213.633C224.602 214.453 224.07 214.898 223.086 214.898H221.023V212.383ZM230.883 216.141C233.125 216.141 234.641 214.523 234.641 211.938C234.641 209.344 233.125 207.734 230.883 207.734C228.633 207.734 227.117 209.344 227.117 211.938C227.117 214.523 228.633 216.141 230.883 216.141ZM230.883 214.945C229.445 214.945 228.5 213.852 228.5 211.938C228.5 210.023 229.445 208.93 230.883 208.93C232.32 208.93 233.258 210.023 233.258 211.938C233.258 213.852 232.32 214.945 230.883 214.945ZM238.875 216.141C240.781 216.141 242.047 215.125 242.047 213.625C242.047 212.711 241.492 212.039 240.422 211.805V211.742C241.266 211.547 241.82 210.797 241.82 209.953C241.82 208.633 240.812 207.734 238.961 207.734C237.242 207.734 236.07 208.586 235.898 209.93H237.219C237.328 209.281 238 208.867 238.961 208.867C240.008 208.867 240.492 209.367 240.492 210.062C240.492 210.883 239.945 211.289 238.875 211.289H237.656V212.398H238.875C240.102 212.398 240.711 212.797 240.711 213.688C240.711 214.461 240.055 215.016 238.875 215.016C237.867 215.016 237.195 214.602 237.039 213.891H235.664C235.805 215.266 237.094 216.141 238.875 216.141ZM244.945 216V210.234H245L247.625 215.766H248.664L251.289 210.234H251.344V216H252.695V207.875H251.109L248.203 214.203H248.141L245.25 207.875H243.602V216H244.945ZM257.977 216.141C260.219 216.141 261.734 214.523 261.734 211.938C261.734 209.344 260.219 207.734 257.977 207.734C255.727 207.734 254.211 209.344 254.211 211.938C254.211 214.523 255.727 216.141 257.977 216.141ZM257.977 214.945C256.539 214.945 255.594 213.852 255.594 211.938C255.594 210.023 256.539 208.93 257.977 208.93C259.414 208.93 260.352 210.023 260.352 211.938C260.352 213.852 259.414 214.945 257.977 214.945ZM263.812 216L267.094 212.094H267.148V216H268.492V212.094H268.555L271.836 216H273.578L269.906 211.719L273.453 207.875H271.797L268.555 211.469H268.492V207.875H267.148V211.469H267.094L263.852 207.875H262.18L265.742 211.742L262.094 216H263.812ZM280.047 216H281.406V207.875H280.047V211.227H276.07V207.875H274.711V216H276.07V212.344H280.047V216ZM286.695 216.141C288.938 216.141 290.453 214.523 290.453 211.938C290.453 209.344 288.938 207.734 286.695 207.734C284.445 207.734 282.93 209.344 282.93 211.938C282.93 214.523 284.445 216.141 286.695 216.141ZM286.695 214.945C285.258 214.945 284.312 213.852 284.312 211.938C284.312 210.023 285.258 208.93 286.695 208.93C288.133 208.93 289.07 210.023 289.07 211.938C289.07 213.852 288.133 214.945 286.695 214.945Z" fill="black"/>
</svg>
