<svg width="1182" height="648" viewBox="0 0 1182 648" fill="none" xmlns="http://www.w3.org/2000/svg">
    <rect x="251" y="44" width="425" height="121" rx="39" fill="#F4F7FA"/>
    <path d="M425.715 113H427.824V105.301H437.105V113H439.215V96.0898H437.105V103.402H427.824V96.0898H425.715V113ZM445.977 113.234C447.605 113.234 449.07 112.355 449.785 111.02H449.832V113H451.871V104.574C451.871 102.137 450.066 100.578 447.184 100.578C444.312 100.578 442.566 102.195 442.391 104.199L442.379 104.328H444.348L444.371 104.223C444.605 103.133 445.59 102.383 447.16 102.383C448.859 102.383 449.832 103.285 449.832 104.773V105.793L446.34 105.992C443.539 106.156 441.922 107.457 441.922 109.531V109.555C441.922 111.77 443.551 113.234 445.977 113.234ZM444.008 109.555V109.531C444.008 108.395 444.945 107.668 446.574 107.574L449.832 107.375V108.371C449.832 110.141 448.355 111.465 446.434 111.465C444.969 111.465 444.008 110.727 444.008 109.555ZM463.977 113V100.812H461.938V105.945C461.375 106.508 460.285 106.883 459.207 106.883C457.344 106.883 456.418 106.027 456.418 104.293V100.812H454.379V104.434C454.379 107.023 455.891 108.688 458.82 108.688C459.98 108.688 461.129 108.348 461.891 107.668H461.938V113H463.977ZM470.422 113.234C472.051 113.234 473.516 112.355 474.23 111.02H474.277V113H476.316V104.574C476.316 102.137 474.512 100.578 471.629 100.578C468.758 100.578 467.012 102.195 466.836 104.199L466.824 104.328H468.793L468.816 104.223C469.051 103.133 470.035 102.383 471.605 102.383C473.305 102.383 474.277 103.285 474.277 104.773V105.793L470.785 105.992C467.984 106.156 466.367 107.457 466.367 109.531V109.555C466.367 111.77 467.996 113.234 470.422 113.234ZM468.453 109.555V109.531C468.453 108.395 469.391 107.668 471.02 107.574L474.277 107.375V108.371C474.277 110.141 472.801 111.465 470.879 111.465C469.414 111.465 468.453 110.727 468.453 109.555ZM482.516 107.633L482.902 102.5H487.59V113H489.629V100.812H481.062L480.582 107.586C480.418 109.824 479.973 111.242 478.672 111.242C478.355 111.242 478.133 111.195 478.027 111.16V113C478.191 113.059 478.496 113.117 478.883 113.117C481.473 113.117 482.258 110.996 482.516 107.633ZM497.574 113.234C500.938 113.234 503.211 110.797 503.211 106.906V106.883C503.211 102.992 500.926 100.578 497.562 100.578C494.199 100.578 491.926 103.004 491.926 106.883V106.906C491.926 110.785 494.188 113.234 497.574 113.234ZM497.586 111.43C495.43 111.43 494.012 109.777 494.012 106.906V106.883C494.012 104.035 495.441 102.383 497.562 102.383C499.719 102.383 501.125 104.023 501.125 106.883V106.906C501.125 109.766 499.73 111.43 497.586 111.43Z" fill="black"/>
    <rect x="251" y="44" width="425" height="121" rx="39" stroke="#D3DBE6" stroke-width="2" stroke-dasharray="8 8"/>
    <path d="M51.3438 434H54.1562V423.734H66.5312V434H69.3438V411.453H66.5312V421.203H54.1562V411.453H51.3438V434ZM80.2969 434.312C83.8438 434.312 86.5 432.188 87.0312 429.5L87.0625 429.344H84.3906L84.3438 429.484C83.875 430.875 82.4219 431.906 80.3594 431.906C77.4688 431.906 75.625 429.953 75.5625 426.609H87.2656V425.609C87.2656 420.734 84.5625 417.438 80.125 417.438C75.6875 417.438 72.8125 420.891 72.8125 425.922V425.938C72.8125 431.047 75.625 434.312 80.2969 434.312ZM80.1094 419.844C82.4844 419.844 84.2344 421.328 84.5 424.484H75.6094C75.9062 421.453 77.75 419.844 80.1094 419.844ZM101.578 417.75H88.3906V420H93.625V434H96.3438V420H101.578V417.75Z" fill="black"/>
    <path d="M726.078 269.453V265H742.578V269.453H745.188V262.469H742.375V242.453H728.422L727.562 256.641C727.391 259.594 726.781 261.594 725.141 262.469H723.469V269.453H726.078ZM730.203 256.703L730.938 244.984H739.562V262.469H728.625V262.344C729.734 261 730.047 259.281 730.203 256.703ZM752.797 265.312C754.969 265.312 756.922 264.141 757.875 262.359H757.938V265H760.656V253.766C760.656 250.516 758.25 248.438 754.406 248.438C750.578 248.438 748.25 250.594 748.016 253.266L748 253.438H750.625L750.656 253.297C750.969 251.844 752.281 250.844 754.375 250.844C756.641 250.844 757.938 252.047 757.938 254.031V255.391L753.281 255.656C749.547 255.875 747.391 257.609 747.391 260.375V260.406C747.391 263.359 749.562 265.312 752.797 265.312ZM750.172 260.406V260.375C750.172 258.859 751.422 257.891 753.594 257.766L757.938 257.5V258.828C757.938 261.188 755.969 262.953 753.406 262.953C751.453 262.953 750.172 261.969 750.172 260.406Z" fill="black"/>
    <path d="M573.469 326.375C578.453 326.375 581.797 323.891 582.828 319.438H579.984C579.172 322.188 576.797 323.781 573.484 323.781C569.031 323.781 566.203 320.25 566.203 314.719C566.203 309.234 569.062 305.672 573.469 305.672C576.688 305.672 579.266 307.609 579.984 310.562H582.828C582.109 306.062 578.375 303.078 573.469 303.078C567.297 303.078 563.312 307.641 563.312 314.719C563.312 321.859 567.25 326.375 573.469 326.375ZM585.875 326H588.594V303.453H585.875V326ZM597.016 326.281C599.203 326.281 601.266 325.062 602.234 323.203H602.297V326H604.875V314.766C604.875 311.531 602.469 309.469 598.656 309.469C594.812 309.469 592.406 311.625 592.219 314.438H594.844C595.188 312.844 596.5 311.859 598.594 311.859C600.844 311.859 602.156 313.047 602.156 315.031V316.391L597.5 316.656C593.75 316.875 591.609 318.625 591.609 321.406C591.609 324.328 593.781 326.281 597.016 326.281ZM597.625 323.969C595.672 323.969 594.375 322.953 594.375 321.406C594.375 319.875 595.625 318.906 597.812 318.766L602.156 318.5V319.828C602.156 322.172 600.188 323.969 597.625 323.969ZM608.047 314.234C608.047 316.578 609.531 318 612.594 318.734L615.172 319.359C617.031 319.812 617.672 320.484 617.672 321.656C617.672 323.125 616.312 324.062 614.109 324.062C611.906 324.062 610.656 323.172 610.328 321.312H607.609C607.922 324.359 610.297 326.281 614.109 326.281C617.734 326.281 620.406 324.281 620.406 321.453C620.406 319.125 619.219 317.844 615.938 317.047L613.359 316.422C611.547 315.984 610.719 315.219 610.719 314.094C610.719 312.672 612.031 311.688 614.016 311.688C616.016 311.688 617.266 312.734 617.469 314.438H620.062C619.953 311.562 617.578 309.469 614.016 309.469C610.5 309.469 608.047 311.453 608.047 314.234ZM622.953 314.234C622.953 316.578 624.438 318 627.5 318.734L630.078 319.359C631.938 319.812 632.578 320.484 632.578 321.656C632.578 323.125 631.219 324.062 629.016 324.062C626.812 324.062 625.562 323.172 625.234 321.312H622.516C622.828 324.359 625.203 326.281 629.016 326.281C632.641 326.281 635.312 324.281 635.312 321.453C635.312 319.125 634.125 317.844 630.844 317.047L628.266 316.422C626.453 315.984 625.625 315.219 625.625 314.094C625.625 312.672 626.938 311.688 628.922 311.688C630.922 311.688 632.172 312.734 632.375 314.438H634.969C634.859 311.562 632.484 309.469 628.922 309.469C625.406 309.469 622.953 311.453 622.953 314.234Z" fill="black"/>
    <path d="M273 299H167C150.431 299 137 312.431 137 329V518C137 534.569 150.431 548 167 548H320" stroke="black" stroke-width="4" stroke-linecap="round" stroke-dasharray="0.01 8"/>
    <path d="M964 353L964 413C964 429.569 950.569 443 934 443L492 443C475.431 443 462 429.569 462 413L462 353" stroke="black" stroke-width="4" stroke-linecap="round" stroke-dasharray="0.01 8"/>
    <path d="M803 299H665" stroke="black" stroke-width="4" stroke-linecap="round" stroke-dasharray="0.01 8"/>
    <path d="M464 166L464 238" stroke="black" stroke-width="4" stroke-linecap="round" stroke-dasharray="0.01 8"/>
    <path d="M458.768 225.372C461.859 224.476 465.141 224.476 468.232 225.372L667.663 283.172C684.02 287.913 684.02 311.087 667.663 315.828L468.232 373.628C465.141 374.524 461.859 374.524 458.768 373.628L259.337 315.828C242.98 311.087 242.98 287.913 259.337 283.172L458.768 225.372Z" fill="#FEFE88"/>
    <rect x="313" y="497" width="302" height="102" rx="12" fill="#F0C2FB"/>
    <path d="M374.211 542H380.598C384.195 542 386.328 540.23 386.328 537.254V537.23C386.328 534.992 384.852 533.352 382.414 533.07V533.023C384.16 532.777 385.473 531.078 385.473 529.332V529.309C385.473 526.777 383.516 525.09 380.621 525.09H374.211V542ZM380.141 526.953C382.18 526.953 383.34 527.867 383.34 529.531V529.555C383.34 531.383 381.98 532.379 379.484 532.379H376.32V526.953H380.141ZM380.082 534.195C382.777 534.195 384.16 535.191 384.16 537.148V537.172C384.16 539.117 382.812 540.137 380.281 540.137H376.32V534.195H380.082ZM388.625 542H392.949C395.738 542 397.531 540.395 397.531 537.863V537.84C397.531 535.309 395.738 533.703 392.949 533.703H390.664V529.812H388.625V542ZM399.078 542H401.117V529.812H399.078V542ZM392.914 535.391C394.461 535.391 395.445 536.352 395.445 537.84V537.863C395.445 539.34 394.473 540.312 392.914 540.312H390.664V535.391H392.914ZM404 542H406.039V531.5H411.887V542H413.938V529.812H404V542ZM421.859 542.234C425.223 542.234 427.496 539.797 427.496 535.906V535.883C427.496 531.992 425.211 529.578 421.848 529.578C418.484 529.578 416.211 532.004 416.211 535.883V535.906C416.211 539.785 418.473 542.234 421.859 542.234ZM421.871 540.43C419.715 540.43 418.297 538.777 418.297 535.906V535.883C418.297 533.035 419.727 531.383 421.848 531.383C424.004 531.383 425.41 533.023 425.41 535.883V535.906C425.41 538.766 424.016 540.43 421.871 540.43ZM432.676 536.633L433.062 531.5H437.75V542H439.789V529.812H431.223L430.742 536.586C430.578 538.824 430.133 540.242 428.832 540.242C428.516 540.242 428.293 540.195 428.188 540.16V542C428.352 542.059 428.656 542.117 429.043 542.117C431.633 542.117 432.418 539.996 432.676 536.633ZM450.676 542H452.715V529.812H450.676V534.84H444.711V529.812H442.672V542H444.711V536.527H450.676V542ZM455.586 542H457.602L463.672 532.941H463.766V542H465.805V529.812H463.789L457.719 538.871H457.625V529.812H455.586V542ZM477.582 529.812H467.691V531.5H471.617V542H473.656V531.5H477.582V529.812ZM479.469 542H483.793C486.582 542 488.375 540.395 488.375 537.863V537.84C488.375 535.309 486.582 533.703 483.793 533.703H481.508V529.812H479.469V542ZM483.758 535.391C485.305 535.391 486.289 536.352 486.289 537.84V537.863C486.289 539.34 485.316 540.312 483.758 540.312H481.508V535.391H483.758ZM498.031 536.375L502.895 542H505.473L499.871 535.578L505.309 529.812H502.836L498.031 534.969H497.562V529.812H495.523V542H497.562V536.375H498.031ZM512 542.234C515.363 542.234 517.637 539.797 517.637 535.906V535.883C517.637 531.992 515.352 529.578 511.988 529.578C508.625 529.578 506.352 532.004 506.352 535.883V535.906C506.352 539.785 508.613 542.234 512 542.234ZM512.012 540.43C509.855 540.43 508.438 538.777 508.438 535.906V535.883C508.438 533.035 509.867 531.383 511.988 531.383C514.145 531.383 515.551 533.023 515.551 535.883V535.906C515.551 538.766 514.156 540.43 512.012 540.43ZM520.355 545.34V542H529.812V545.34H531.711V540.312H529.777V529.812H521.387L520.918 536.574C520.801 538.215 520.367 539.727 519.477 540.312H518.457V545.34H520.355ZM527.738 540.312H521.773V540.266C522.383 539.48 522.699 538.156 522.805 536.621L523.18 531.5H527.738V540.312ZM542.527 542.234C545.375 542.234 547.285 540.711 547.285 538.449V538.426C547.285 537.02 546.418 536.047 544.848 535.707V535.613C546.09 535.332 546.945 534.242 546.945 532.941V532.918C546.945 530.855 545.316 529.578 542.656 529.578C540.125 529.578 538.355 530.844 538.074 532.812L538.062 532.895H540.043L540.055 532.836C540.242 531.887 541.262 531.266 542.656 531.266C544.098 531.266 544.953 531.945 544.953 533.082V533.105C544.953 534.312 544.145 534.922 542.527 534.922H540.699V536.609H542.527C544.391 536.609 545.281 537.219 545.281 538.52V538.543C545.281 539.773 544.215 540.547 542.527 540.547C541.074 540.547 540.102 539.973 539.809 538.953L539.773 538.836H537.711L537.723 538.93C537.969 540.922 539.879 542.234 542.527 542.234ZM553.191 542.234C554.82 542.234 556.285 541.355 557 540.02H557.047V542H559.086V533.574C559.086 531.137 557.281 529.578 554.398 529.578C551.527 529.578 549.781 531.195 549.605 533.199L549.594 533.328H551.562L551.586 533.223C551.82 532.133 552.805 531.383 554.375 531.383C556.074 531.383 557.047 532.285 557.047 533.773V534.793L553.555 534.992C550.754 535.156 549.137 536.457 549.137 538.531V538.555C549.137 540.77 550.766 542.234 553.191 542.234ZM551.223 538.555V538.531C551.223 537.395 552.16 536.668 553.789 536.574L557.047 536.375V537.371C557.047 539.141 555.57 540.465 553.648 540.465C552.184 540.465 551.223 539.727 551.223 538.555ZM371.785 571H373.824V560.5H379.672V571H381.723V558.812H371.785V571ZM384.594 575.102H386.633V568.961H386.68C387.441 570.367 388.859 571.234 390.582 571.234C393.641 571.234 395.727 568.762 395.727 564.918V564.906C395.727 561.062 393.664 558.578 390.547 558.578C388.801 558.578 387.441 559.457 386.68 560.875H386.633V558.812H384.594V575.102ZM390.148 569.43C388.098 569.43 386.621 567.637 386.621 564.918V564.906C386.621 562.176 388.086 560.383 390.148 560.383C392.305 560.383 393.641 562.105 393.641 564.906V564.918C393.641 567.695 392.305 569.43 390.148 569.43ZM403.039 571.234C405.699 571.234 407.691 569.641 408.09 567.625L408.113 567.508H406.109L406.074 567.613C405.723 568.656 404.633 569.43 403.086 569.43C400.918 569.43 399.535 567.965 399.488 565.457H408.266V564.707C408.266 561.051 406.238 558.578 402.91 558.578C399.582 558.578 397.426 561.168 397.426 564.941V564.953C397.426 568.785 399.535 571.234 403.039 571.234ZM402.898 560.383C404.68 560.383 405.992 561.496 406.191 563.863H399.523C399.746 561.59 401.129 560.383 402.898 560.383ZM411.008 574.34V571H420.465V574.34H422.363V569.312H420.43V558.812H412.039L411.57 565.574C411.453 567.215 411.02 568.727 410.129 569.312H409.109V574.34H411.008ZM418.391 569.312H412.426V569.266C413.035 568.48 413.352 567.156 413.457 565.621L413.832 560.5H418.391V569.312ZM429.219 571.234C431.879 571.234 433.871 569.641 434.27 567.625L434.293 567.508H432.289L432.254 567.613C431.902 568.656 430.812 569.43 429.266 569.43C427.098 569.43 425.715 567.965 425.668 565.457H434.445V564.707C434.445 561.051 432.418 558.578 429.09 558.578C425.762 558.578 423.605 561.168 423.605 564.941V564.953C423.605 568.785 425.715 571.234 429.219 571.234ZM429.078 560.383C430.859 560.383 432.172 561.496 432.371 563.863H425.703C425.926 561.59 427.309 560.383 429.078 560.383ZM439.648 565.633L440.035 560.5H444.723V571H446.762V558.812H438.195L437.715 565.586C437.551 567.824 437.105 569.242 435.805 569.242C435.488 569.242 435.266 569.195 435.16 569.16V571C435.324 571.059 435.629 571.117 436.016 571.117C438.605 571.117 439.391 568.996 439.648 565.633ZM453.219 571.234C454.848 571.234 456.312 570.355 457.027 569.02H457.074V571H459.113V562.574C459.113 560.137 457.309 558.578 454.426 558.578C451.555 558.578 449.809 560.195 449.633 562.199L449.621 562.328H451.59L451.613 562.223C451.848 561.133 452.832 560.383 454.402 560.383C456.102 560.383 457.074 561.285 457.074 562.773V563.793L453.582 563.992C450.781 564.156 449.164 565.457 449.164 567.531V567.555C449.164 569.77 450.793 571.234 453.219 571.234ZM451.25 567.555V567.531C451.25 566.395 452.188 565.668 453.816 565.574L457.074 565.375V566.371C457.074 568.141 455.598 569.465 453.676 569.465C452.211 569.465 451.25 568.727 451.25 567.555ZM463.965 571V562.352H464.047L467.961 570.648H469.52L473.445 562.352H473.527V571H475.566V558.812H473.176L468.828 568.305H468.734L464.422 558.812H461.926V571H463.965ZM478.426 571H480.441L486.512 561.941H486.605V571H488.645V558.812H486.629L480.559 567.871H480.465V558.812H478.426V571ZM501.652 571.234C505.18 571.234 507.348 568.867 507.348 565.035V565.012C507.348 561.391 505.25 559.07 501.957 559.07C500.059 559.07 498.523 559.82 497.715 561.262H497.668L497.691 561.098C498.195 557.57 499.215 556.129 502.555 556L503.457 555.965C504.863 555.906 506.152 555.602 506.539 555.25V553.469C505.848 553.832 504.535 554.078 503.363 554.125L502.461 554.16C497.727 554.348 495.945 557.137 495.945 563.852V563.875C495.945 568.715 497.914 571.234 501.652 571.234ZM501.652 569.43C499.355 569.43 498.031 567.836 498.031 565.035V565.012C498.031 562.363 499.355 560.875 501.652 560.875C503.938 560.875 505.262 562.363 505.262 565.012V565.035C505.262 567.836 503.938 569.43 501.652 569.43ZM512.539 565.633L512.926 560.5H517.613V571H519.652V558.812H511.086L510.605 565.586C510.441 567.824 509.996 569.242 508.695 569.242C508.379 569.242 508.156 569.195 508.051 569.16V571C508.215 571.059 508.52 571.117 508.906 571.117C511.496 571.117 512.281 568.996 512.539 565.633ZM527.598 571.234C530.961 571.234 533.234 568.797 533.234 564.906V564.883C533.234 560.992 530.949 558.578 527.586 558.578C524.223 558.578 521.949 561.004 521.949 564.883V564.906C521.949 568.785 524.211 571.234 527.598 571.234ZM527.609 569.43C525.453 569.43 524.035 567.777 524.035 564.906V564.883C524.035 562.035 525.465 560.383 527.586 560.383C529.742 560.383 531.148 562.023 531.148 564.883V564.906C531.148 567.766 529.754 569.43 527.609 569.43ZM538.004 565.375L542.867 571H545.445L539.844 564.578L545.281 558.812H542.809L538.004 563.969H537.535V558.812H535.496V571H537.535V565.375H538.004ZM550.367 571.234C551.996 571.234 553.461 570.355 554.176 569.02H554.223V571H556.262V562.574C556.262 560.137 554.457 558.578 551.574 558.578C548.703 558.578 546.957 560.195 546.781 562.199L546.77 562.328H548.738L548.762 562.223C548.996 561.133 549.98 560.383 551.551 560.383C553.25 560.383 554.223 561.285 554.223 562.773V563.793L550.73 563.992C547.93 564.156 546.312 565.457 546.312 567.531V567.555C546.312 569.77 547.941 571.234 550.367 571.234ZM548.398 567.555V567.531C548.398 566.395 549.336 565.668 550.965 565.574L554.223 565.375V566.371C554.223 568.141 552.746 569.465 550.824 569.465C549.359 569.465 548.398 568.727 548.398 567.555Z" fill="black"/>
    <rect x="807" y="248" width="302" height="102" rx="12" fill="#C1FCF0"/>
    <path d="M842.98 293H849.367C852.965 293 855.098 291.23 855.098 288.254V288.23C855.098 285.992 853.621 284.352 851.184 284.07V284.023C852.93 283.777 854.242 282.078 854.242 280.332V280.309C854.242 277.777 852.285 276.09 849.391 276.09H842.98V293ZM848.91 277.953C850.949 277.953 852.109 278.867 852.109 280.531V280.555C852.109 282.383 850.75 283.379 848.254 283.379H845.09V277.953H848.91ZM848.852 285.195C851.547 285.195 852.93 286.191 852.93 288.148V288.172C852.93 290.117 851.582 291.137 849.051 291.137H845.09V285.195H848.852ZM857.395 293H861.719C864.508 293 866.301 291.395 866.301 288.863V288.84C866.301 286.309 864.508 284.703 861.719 284.703H859.434V280.812H857.395V293ZM867.848 293H869.887V280.812H867.848V293ZM861.684 286.391C863.23 286.391 864.215 287.352 864.215 288.84V288.863C864.215 290.34 863.242 291.312 861.684 291.312H859.434V286.391H861.684ZM872.77 293H874.809V282.5H880.656V293H882.707V280.812H872.77V293ZM890.629 293.234C893.992 293.234 896.266 290.797 896.266 286.906V286.883C896.266 282.992 893.98 280.578 890.617 280.578C887.254 280.578 884.98 283.004 884.98 286.883V286.906C884.98 290.785 887.242 293.234 890.629 293.234ZM890.641 291.43C888.484 291.43 887.066 289.777 887.066 286.906V286.883C887.066 284.035 888.496 282.383 890.617 282.383C892.773 282.383 894.18 284.023 894.18 286.883V286.906C894.18 289.766 892.785 291.43 890.641 291.43ZM901.445 287.633L901.832 282.5H906.52V293H908.559V280.812H899.992L899.512 287.586C899.348 289.824 898.902 291.242 897.602 291.242C897.285 291.242 897.062 291.195 896.957 291.16V293C897.121 293.059 897.426 293.117 897.812 293.117C900.402 293.117 901.188 290.996 901.445 287.633ZM919.445 293H921.484V280.812H919.445V285.84H913.48V280.812H911.441V293H913.48V287.527H919.445V293ZM924.355 293H926.371L932.441 283.941H932.535V293H934.574V280.812H932.559L926.488 289.871H926.395V280.812H924.355V293ZM946.352 280.812H936.461V282.5H940.387V293H942.426V282.5H946.352V280.812ZM948.238 293H952.562C955.352 293 957.145 291.395 957.145 288.863V288.84C957.145 286.309 955.352 284.703 952.562 284.703H950.277V280.812H948.238V293ZM952.527 286.391C954.074 286.391 955.059 287.352 955.059 288.84V288.863C955.059 290.34 954.086 291.312 952.527 291.312H950.277V286.391H952.527ZM966.801 287.375L971.664 293H974.242L968.641 286.578L974.078 280.812H971.605L966.801 285.969H966.332V280.812H964.293V293H966.332V287.375H966.801ZM980.77 293.234C984.133 293.234 986.406 290.797 986.406 286.906V286.883C986.406 282.992 984.121 280.578 980.758 280.578C977.395 280.578 975.121 283.004 975.121 286.883V286.906C975.121 290.785 977.383 293.234 980.77 293.234ZM980.781 291.43C978.625 291.43 977.207 289.777 977.207 286.906V286.883C977.207 284.035 978.637 282.383 980.758 282.383C982.914 282.383 984.32 284.023 984.32 286.883V286.906C984.32 289.766 982.926 291.43 980.781 291.43ZM989.125 296.34V293H998.582V296.34H1000.48V291.312H998.547V280.812H990.156L989.688 287.574C989.57 289.215 989.137 290.727 988.246 291.312H987.227V296.34H989.125ZM996.508 291.312H990.543V291.266C991.152 290.48 991.469 289.156 991.574 287.621L991.949 282.5H996.508V291.312ZM1007.23 293H1012.48C1015.07 293 1016.66 291.652 1016.66 289.508V289.484C1016.66 287.996 1015.66 286.918 1014.12 286.707V286.613C1015.25 286.379 1016.12 285.23 1016.12 283.977V283.953C1016.12 282.02 1014.73 280.812 1012.45 280.812H1007.23V293ZM1009.27 285.91V282.5H1012.14C1013.42 282.5 1014.1 283.074 1014.1 284.164V284.188C1014.1 285.359 1013.37 285.91 1011.84 285.91H1009.27ZM1009.27 291.312V287.598H1011.94C1013.72 287.598 1014.58 288.184 1014.58 289.438V289.461C1014.58 290.68 1013.78 291.312 1012.3 291.312H1009.27ZM1027 293H1029.04V280.812H1027V285.84H1021.04V280.812H1019V293H1021.04V287.527H1027V293ZM1033.09 297.102C1035.3 297.102 1036.36 296.094 1037.23 293.762L1041.99 280.812H1039.84L1036.47 290.961H1036.42L1033.06 280.812H1030.88L1035.4 293.012L1035.16 293.703C1034.66 295.086 1033.95 295.414 1032.66 295.414C1032.41 295.414 1032.18 295.379 1032 295.344V297.008C1032.26 297.055 1032.7 297.102 1033.09 297.102ZM1052.73 280.812H1042.84V282.5H1046.77V293H1048.81V282.5H1052.73V280.812ZM1054.63 297.102H1056.67V290.961H1056.72C1057.48 292.367 1058.9 293.234 1060.62 293.234C1063.68 293.234 1065.77 290.762 1065.77 286.918V286.906C1065.77 283.062 1063.7 280.578 1060.59 280.578C1058.84 280.578 1057.48 281.457 1056.72 282.875H1056.67V280.812H1054.63V297.102ZM1060.19 291.43C1058.14 291.43 1056.66 289.637 1056.66 286.918V286.906C1056.66 284.176 1058.12 282.383 1060.19 282.383C1062.34 282.383 1063.68 284.105 1063.68 286.906V286.918C1063.68 289.695 1062.34 291.43 1060.19 291.43ZM1068.05 293H1070.07L1076.14 283.941H1076.23V293H1078.27V280.812H1076.25L1070.18 289.871H1070.09V280.812H1068.05V293ZM933.332 322.234C936.859 322.234 939.027 319.867 939.027 316.035V316.012C939.027 312.391 936.93 310.07 933.637 310.07C931.738 310.07 930.203 310.82 929.395 312.262H929.348L929.371 312.098C929.875 308.57 930.895 307.129 934.234 307L935.137 306.965C936.543 306.906 937.832 306.602 938.219 306.25V304.469C937.527 304.832 936.215 305.078 935.043 305.125L934.141 305.16C929.406 305.348 927.625 308.137 927.625 314.852V314.875C927.625 319.715 929.594 322.234 933.332 322.234ZM933.332 320.43C931.035 320.43 929.711 318.836 929.711 316.035V316.012C929.711 313.363 931.035 311.875 933.332 311.875C935.617 311.875 936.941 313.363 936.941 316.012V316.035C936.941 318.836 935.617 320.43 933.332 320.43ZM944.219 316.633L944.605 311.5H949.293V322H951.332V309.812H942.766L942.285 316.586C942.121 318.824 941.676 320.242 940.375 320.242C940.059 320.242 939.836 320.195 939.73 320.16V322C939.895 322.059 940.199 322.117 940.586 322.117C943.176 322.117 943.961 319.996 944.219 316.633ZM959.277 322.234C962.641 322.234 964.914 319.797 964.914 315.906V315.883C964.914 311.992 962.629 309.578 959.266 309.578C955.902 309.578 953.629 312.004 953.629 315.883V315.906C953.629 319.785 955.891 322.234 959.277 322.234ZM959.289 320.43C957.133 320.43 955.715 318.777 955.715 315.906V315.883C955.715 313.035 957.145 311.383 959.266 311.383C961.422 311.383 962.828 313.023 962.828 315.883V315.906C962.828 318.766 961.434 320.43 959.289 320.43ZM969.684 316.375L974.547 322H977.125L971.523 315.578L976.961 309.812H974.488L969.684 314.969H969.215V309.812H967.176V322H969.215V316.375H969.684ZM982.047 322.234C983.676 322.234 985.141 321.355 985.855 320.02H985.902V322H987.941V313.574C987.941 311.137 986.137 309.578 983.254 309.578C980.383 309.578 978.637 311.195 978.461 313.199L978.449 313.328H980.418L980.441 313.223C980.676 312.133 981.66 311.383 983.23 311.383C984.93 311.383 985.902 312.285 985.902 313.773V314.793L982.41 314.992C979.609 315.156 977.992 316.457 977.992 318.531V318.555C977.992 320.77 979.621 322.234 982.047 322.234ZM980.078 318.555V318.531C980.078 317.395 981.016 316.668 982.645 316.574L985.902 316.375V317.371C985.902 319.141 984.426 320.465 982.504 320.465C981.039 320.465 980.078 319.727 980.078 318.555Z" fill="black"/>
    <path d="M367.789 308.117C370.273 308.117 371.586 306.91 373.191 303.16L378.371 291.09H376.18L371.75 302.047H371.562L367.027 291.09H364.777L370.555 304.391C369.887 305.633 369.055 306.172 367.789 306.172C367.426 306.172 367.086 306.137 366.852 306.078V307.965C367.039 308.059 367.402 308.117 367.789 308.117ZM383.984 308.234C386.738 308.234 388.742 306.441 389.07 304.121L389.082 304.039H387.078L387.055 304.133C386.715 305.492 385.648 306.43 383.984 306.43C381.875 306.43 380.422 304.754 380.422 301.918V301.906C380.422 299.141 381.84 297.383 383.961 297.383C385.754 297.383 386.738 298.461 387.043 299.68L387.066 299.773H389.059L389.047 299.68C388.789 297.594 386.996 295.578 383.961 295.578C380.574 295.578 378.336 298.039 378.336 301.883V301.895C378.336 305.773 380.527 308.234 383.984 308.234ZM394.449 302.633L394.836 297.5H399.523V308H401.562V295.812H392.996L392.516 302.586C392.352 304.824 391.906 306.242 390.605 306.242C390.289 306.242 390.066 306.195 389.961 306.16V308C390.125 308.059 390.43 308.117 390.816 308.117C393.406 308.117 394.191 305.996 394.449 302.633ZM409.508 308.234C412.871 308.234 415.145 305.797 415.145 301.906V301.883C415.145 297.992 412.859 295.578 409.496 295.578C406.133 295.578 403.859 298.004 403.859 301.883V301.906C403.859 305.785 406.121 308.234 409.508 308.234ZM409.52 306.43C407.363 306.43 405.945 304.777 405.945 301.906V301.883C405.945 299.035 407.375 297.383 409.496 297.383C411.652 297.383 413.059 299.023 413.059 301.883V301.906C413.059 304.766 411.664 306.43 409.52 306.43ZM417.406 308H422.656C425.246 308 426.84 306.652 426.84 304.508V304.484C426.84 302.996 425.832 301.918 424.297 301.707V301.613C425.422 301.379 426.301 300.23 426.301 298.977V298.953C426.301 297.02 424.906 295.812 422.621 295.812H417.406V308ZM419.445 300.91V297.5H422.316C423.594 297.5 424.273 298.074 424.273 299.164V299.188C424.273 300.359 423.547 300.91 422.012 300.91H419.445ZM419.445 306.312V302.598H422.117C423.898 302.598 424.754 303.184 424.754 304.438V304.461C424.754 305.68 423.957 306.312 422.48 306.312H419.445ZM429.172 308H431.188L437.258 298.941H437.352V308H439.391V295.812H437.375L431.305 304.871H431.211V295.812H429.172V308ZM447.277 308.234C449.938 308.234 451.93 306.641 452.328 304.625L452.352 304.508H450.348L450.312 304.613C449.961 305.656 448.871 306.43 447.324 306.43C445.156 306.43 443.773 304.965 443.727 302.457H452.504V301.707C452.504 298.051 450.477 295.578 447.148 295.578C443.82 295.578 441.664 298.168 441.664 301.941V301.953C441.664 305.785 443.773 308.234 447.277 308.234ZM447.137 297.383C448.918 297.383 450.23 298.496 450.43 300.863H443.762C443.984 298.59 445.367 297.383 447.137 297.383ZM459.711 308H464.961C467.551 308 469.145 306.652 469.145 304.508V304.484C469.145 302.996 468.137 301.918 466.602 301.707V301.613C467.727 301.379 468.605 300.23 468.605 298.977V298.953C468.605 297.02 467.211 295.812 464.926 295.812H459.711V308ZM461.75 300.91V297.5H464.621C465.898 297.5 466.578 298.074 466.578 299.164V299.188C466.578 300.359 465.852 300.91 464.316 300.91H461.75ZM461.75 306.312V302.598H464.422C466.203 302.598 467.059 303.184 467.059 304.438V304.461C467.059 305.68 466.262 306.312 464.785 306.312H461.75ZM476.504 308.234C479.164 308.234 481.156 306.641 481.555 304.625L481.578 304.508H479.574L479.539 304.613C479.188 305.656 478.098 306.43 476.551 306.43C474.383 306.43 473 304.965 472.953 302.457H481.73V301.707C481.73 298.051 479.703 295.578 476.375 295.578C473.047 295.578 470.891 298.168 470.891 301.941V301.953C470.891 305.785 473 308.234 476.504 308.234ZM476.363 297.383C478.145 297.383 479.457 298.496 479.656 300.863H472.988C473.211 298.59 474.594 297.383 476.363 297.383ZM484.027 312.102H486.066V305.961H486.113C486.875 307.367 488.293 308.234 490.016 308.234C493.074 308.234 495.16 305.762 495.16 301.918V301.906C495.16 298.062 493.098 295.578 489.98 295.578C488.234 295.578 486.875 296.457 486.113 297.875H486.066V295.812H484.027V312.102ZM489.582 306.43C487.531 306.43 486.055 304.637 486.055 301.918V301.906C486.055 299.176 487.52 297.383 489.582 297.383C491.738 297.383 493.074 299.105 493.074 301.906V301.918C493.074 304.695 491.738 306.43 489.582 306.43ZM505.449 308H507.488V295.812H505.449V300.84H499.484V295.812H497.445V308H499.484V302.527H505.449V308ZM515.422 308.234C518.785 308.234 521.059 305.797 521.059 301.906V301.883C521.059 297.992 518.773 295.578 515.41 295.578C512.047 295.578 509.773 298.004 509.773 301.883V301.906C509.773 305.785 512.035 308.234 515.422 308.234ZM515.434 306.43C513.277 306.43 511.859 304.777 511.859 301.906V301.883C511.859 299.035 513.289 297.383 515.41 297.383C517.566 297.383 518.973 299.023 518.973 301.883V301.906C518.973 304.766 517.578 306.43 515.434 306.43ZM526.215 302.773H528.266V302.012C528.266 300.781 528.688 300.125 530.176 299.246C531.676 298.344 532.625 297.043 532.625 295.215V295.203C532.625 292.777 530.598 290.961 527.656 290.961C524.363 290.961 522.746 292.965 522.559 295.355L522.547 295.508H524.551L524.562 295.391C524.715 293.832 525.805 292.789 527.574 292.789C529.309 292.789 530.445 293.844 530.445 295.309V295.32C530.445 296.562 529.918 297.301 528.559 298.133C526.953 299.094 526.215 300.148 526.215 301.695V302.773ZM527.246 308.117C528.008 308.117 528.582 307.531 528.582 306.781C528.582 306.02 528.008 305.445 527.246 305.445C526.496 305.445 525.91 306.02 525.91 306.781C525.91 307.531 526.496 308.117 527.246 308.117Z" fill="black"/>
</svg>
