<svg width="587" height="488" viewBox="0 0 587 488" fill="none" xmlns="http://www.w3.org/2000/svg">
    <path d="M352.127 380.24L357.753 381.939L355.366 376.199L352.127 380.24ZM420.632 333.778L421.046 334.131L420.632 333.778ZM415.5 154.982L415.101 155.187L415.5 154.982ZM356.326 379.683C382.902 372.197 405.347 356.422 421.046 334.131L420.217 333.424C404.615 355.576 382.31 371.252 355.9 378.692L356.326 379.683ZM421.046 334.131C437.527 310.732 445.835 281.202 444.919 249.277L443.941 249.099C444.852 280.825 436.596 310.17 420.217 333.424L421.046 334.131ZM444.919 249.277C444.002 217.352 433.903 184.466 415.898 154.777L415.101 155.187C432.994 184.691 443.03 217.373 443.941 249.099L444.919 249.277ZM415.898 154.777C397.893 125.088 372.791 99.9291 343.766 82.4826L343.419 83.3435C372.263 100.681 397.208 125.683 415.101 155.187L415.898 154.777Z" fill="#D3DBE6"/>
    <path d="M159.488 284.667L159.889 284.467L159.488 284.667ZM161.684 99.3386L161.29 98.9595L161.684 99.3386ZM238.816 58.3102L233.27 56.0416L235.12 61.8898L238.816 58.3102ZM235.404 359.645C204.826 341.953 178.427 315.672 159.889 284.467L159.086 284.867C177.74 316.268 204.304 342.713 235.074 360.517L235.404 359.645ZM159.889 284.467C141.351 253.262 131.599 218.69 131.991 185.571L131.013 185.351C130.618 218.678 140.432 253.467 159.086 284.867L159.889 284.467ZM131.991 185.571C132.384 152.453 142.902 122.44 162.079 99.7177L161.29 98.9595C141.992 121.824 131.408 152.025 131.013 185.351L131.991 185.571ZM162.079 99.7177C180.392 78.0197 205.729 64.0034 234.825 59.4055L234.492 58.3945C205.213 63.0213 179.717 77.1254 161.29 98.9595L162.079 99.7177Z" fill="#D3DBE6"/>
    <circle r="72" transform="matrix(0.978148 0.207912 0 1 425.526 254.106)" fill="#FF315D"/>
    <path d="M389.423 253.782L399.705 255.967V253.207L392.31 251.636V237.596L389.423 236.982V253.782ZM400.554 250.748C400.554 253.988 402.807 256.891 406.305 257.634C409.803 258.378 412.057 256.433 412.057 253.193C412.057 249.953 409.803 247.05 406.305 246.306C402.807 245.563 400.554 247.508 400.554 250.748ZM403.441 251.362C403.441 249.49 404.709 248.559 406.305 248.898C407.948 249.248 409.193 250.76 409.193 252.584C409.193 254.456 407.972 255.421 406.305 255.066C404.662 254.717 403.441 253.162 403.441 251.362ZM413.008 260.259C413.008 262.731 415.426 264.301 418.501 264.955C421.577 265.608 423.995 265.018 423.995 262.594C423.995 260.17 421.577 258.552 418.501 257.899L418.384 257.874C418.29 257.686 418.243 257.484 418.243 257.292C418.243 257.172 418.243 257.028 418.29 256.894L418.478 256.934C421.201 257.512 422.962 256.063 422.962 253.903C422.962 253.423 422.868 252.923 422.703 252.456L424.464 252.422L424.37 250.194L421.177 250.235C420.45 249.601 419.534 249.118 418.478 248.894C415.684 248.3 413.97 249.832 413.97 251.992C413.97 253.576 414.886 255.162 416.482 256.15C416.318 256.331 416.248 256.604 416.248 256.868C416.248 257.108 416.318 257.411 416.435 257.652C414.417 257.654 413.008 258.459 413.008 260.259ZM415.52 260.793C415.52 260.001 416.576 259.697 418.501 260.107C420.45 260.521 421.459 261.263 421.459 262.055C421.459 262.919 420.332 263.136 418.501 262.747C416.67 262.357 415.52 261.633 415.52 260.793ZM416.506 252.53C416.506 251.546 417.257 250.866 418.478 251.126C419.745 251.395 420.45 252.361 420.45 253.369C420.45 254.449 419.628 254.946 418.478 254.702C417.257 254.442 416.506 253.538 416.506 252.53ZM430.425 257.097C430.425 260.337 432.679 263.24 436.177 263.984C439.675 264.727 441.928 262.782 441.928 259.542C441.928 256.302 439.675 253.399 436.177 252.656C432.679 251.912 430.425 253.857 430.425 257.097ZM433.313 257.711C433.313 255.839 434.581 254.908 436.177 255.248C437.82 255.597 439.064 257.109 439.064 258.933C439.064 260.805 437.844 261.77 436.177 261.416C434.534 261.066 433.313 259.511 433.313 257.711ZM453.819 256.67L451.12 256.096V263.272C450.509 263.958 449.641 264.278 448.749 264.088C447.27 263.774 446.73 262.627 446.73 261.187V255.163L444.03 254.589V261.189C444.03 264.285 445.673 266.002 447.739 266.441C449.382 266.791 450.486 266.233 451.12 265.576V266.896L453.819 267.47V256.67ZM456.593 263.955C456.593 266.715 457.485 268.489 459.88 268.998C461.241 269.287 462.368 268.999 463.002 268.606L462.18 266.295C461.805 266.503 461.288 266.729 460.56 266.575C459.668 266.385 459.293 265.537 459.293 264.361V260.425L462.697 261.149V258.557L459.293 257.833V254.833L456.593 254.259V263.955Z" fill="white"/>
    <rect x="0.978148" y="1.20791" width="142" height="142" transform="matrix(0.978148 0.207912 0 1 218.217 130.825)" fill="white" stroke="#7833FF" stroke-width="2"/>
    <path d="M264.363 216.001C263.237 216.65 261.852 216.811 260.466 216.517C257.109 215.803 254.785 212.909 254.785 209.405C254.785 205.757 257.086 203.99 260.138 204.639C261.781 204.988 262.861 205.674 263.847 206.556L265.138 204.646C264.058 203.408 262.274 202.333 260.138 201.879C254.715 200.726 251.734 203.933 251.734 208.757C251.734 213.989 255.184 218.154 260.208 219.222C262.345 219.676 264.434 219.352 265.467 218.444L264.363 216.001ZM275.162 219.113C274.551 219.487 273.471 219.737 272.18 219.463C270.513 219.109 269.246 217.951 269.011 216.269L276.641 217.891C276.758 217.508 276.805 217.11 276.805 216.438C276.805 213.414 274.528 210.938 271.805 210.359C268.33 209.62 266.217 211.691 266.217 214.835C266.217 218.243 268.495 220.983 271.899 221.707C273.377 222.021 274.88 221.909 275.936 221.221L275.162 219.113ZM271.687 212.638C273.237 212.967 274.129 214.189 274.105 215.504L268.917 214.401C269.199 213.045 270.067 212.294 271.687 212.638ZM278.979 227.748L281.679 228.322V223.258C282.289 223.748 283.205 224.11 284.144 224.31C287.524 225.028 289.731 222.953 289.731 219.665C289.731 216.473 287.853 213.77 284.942 213.151C283.581 212.862 282.336 213.174 281.679 213.754V212.722L278.979 212.148V227.748ZM284.097 215.564C285.881 215.943 286.867 217.401 286.867 219.129C286.867 220.929 285.787 222.091 283.909 221.692C283.017 221.502 282.407 221.229 281.679 220.594V216.226C282.336 215.622 283.181 215.369 284.097 215.564ZM292.07 225.73C293.032 225.935 294.957 226.464 296.272 226.744C299.676 227.467 301.296 226.683 301.296 224.547C301.296 223.299 300.521 222.247 299.042 221.572V221.524C300.098 221.581 301.014 220.84 301.014 219.544C301.014 217.576 299.3 216.347 296.225 215.694C294.582 215.344 292.985 215.101 292.07 214.93V225.73ZM296.46 222.08C297.727 222.349 298.455 222.936 298.455 223.752C298.455 224.496 297.751 224.85 296.554 224.596C295.896 224.456 295.168 224.229 294.769 224.12V221.72L296.46 222.08ZM296.46 217.976C297.469 218.19 298.15 218.719 298.15 219.511C298.15 220.351 297.422 220.604 296.53 220.415L294.769 220.04V217.664C295.051 217.7 295.826 217.841 296.46 217.976ZM312.14 226.973C311.53 227.347 310.45 227.597 309.159 227.323C307.492 226.969 306.224 225.811 305.99 224.129L313.619 225.751C313.737 225.368 313.783 224.97 313.783 224.298C313.783 221.274 311.506 218.798 308.783 218.219C305.309 217.481 303.196 219.551 303.196 222.695C303.196 226.103 305.473 228.843 308.877 229.567C310.356 229.881 311.858 229.769 312.915 229.081L312.14 226.973ZM308.666 220.498C310.215 220.827 311.107 222.049 311.084 223.364L305.896 222.261C306.177 220.905 307.046 220.154 308.666 220.498ZM315.958 235.608L318.658 236.182V231.118C319.268 231.608 320.183 231.97 321.123 232.17C324.503 232.888 326.71 230.813 326.71 227.525C326.71 224.333 324.832 221.63 321.921 221.011C320.559 220.722 319.315 221.034 318.658 221.614V220.582L315.958 220.008V235.608ZM321.076 223.424C322.86 223.803 323.846 225.261 323.846 226.989C323.846 228.789 322.766 229.951 320.888 229.552C319.996 229.362 319.385 229.089 318.658 228.454V224.086C319.315 223.482 320.16 223.229 321.076 223.424Z" fill="#7833FF"/>
    <circle r="72" transform="matrix(0.978148 0.207912 0 1 161.427 196.97)" fill="#FFE000"/>
    <path d="M132.273 198.123L142.555 200.308V197.548L135.161 195.977V181.937L132.273 181.323V198.123ZM143.404 195.089C143.404 198.329 145.658 201.232 149.156 201.975C152.654 202.719 154.907 200.774 154.907 197.534C154.907 194.294 152.654 191.391 149.156 190.647C145.658 189.904 143.404 191.849 143.404 195.089ZM146.292 195.703C146.292 193.831 147.559 192.9 149.156 193.239C150.799 193.589 152.043 195.101 152.043 196.925C152.043 198.797 150.823 199.762 149.156 199.407C147.512 199.058 146.292 197.503 146.292 195.703ZM155.859 204.6C155.859 207.072 158.277 208.642 161.352 209.296C164.427 209.949 166.845 209.359 166.845 206.935C166.845 204.511 164.427 202.893 161.352 202.24L161.234 202.215C161.141 202.027 161.094 201.825 161.094 201.633C161.094 201.513 161.094 201.369 161.141 201.235L161.328 201.275C164.052 201.854 165.812 200.404 165.812 198.244C165.812 197.764 165.718 197.264 165.554 196.797L167.315 196.763L167.221 194.535L164.028 194.577C163.3 193.942 162.385 193.459 161.328 193.235C158.535 192.641 156.821 194.173 156.821 196.333C156.821 197.917 157.737 199.503 159.333 200.491C159.169 200.672 159.098 200.945 159.098 201.209C159.098 201.449 159.169 201.752 159.286 201.993C157.267 201.996 155.859 202.8 155.859 204.6ZM158.37 205.134C158.37 204.342 159.427 204.039 161.352 204.448C163.3 204.862 164.31 205.605 164.31 206.397C164.31 207.261 163.183 207.477 161.352 207.088C159.521 206.699 158.37 205.974 158.37 205.134ZM159.356 196.872C159.356 195.888 160.108 195.207 161.328 195.467C162.596 195.736 163.3 196.702 163.3 197.71C163.3 198.79 162.479 199.287 161.328 199.043C160.108 198.783 159.356 197.88 159.356 196.872ZM174.332 207.063L177.032 207.637V196.837L174.332 196.263V207.063ZM174.051 192.315C174.051 193.419 174.825 194.208 175.741 194.402C176.516 194.567 177.29 194.108 177.29 193.004C177.29 192.02 176.516 191.231 175.741 191.066C174.825 190.872 174.051 191.331 174.051 192.315ZM180.444 208.362L183.144 208.936V201.568C183.778 201.055 184.529 200.83 185.444 201.025C186.947 201.344 187.815 202.345 187.815 204.073V209.929L190.515 210.503V204.167C190.515 200.783 188.754 199.136 186.172 198.587C184.904 198.318 183.778 198.655 183.144 199.216V198.136L180.444 197.562V208.362Z" fill="#10162F"/>
    <path d="M222.374 367.004L226.208 367.819V377.739L227.538 378.022V368.102L231.373 368.917V367.637L222.374 365.724V367.004ZM230.119 374.971C230.119 377.131 231.621 379.05 233.875 379.529C236.129 380.008 237.631 378.727 237.631 376.567C237.631 374.407 236.129 372.488 233.875 372.009C231.621 371.53 230.119 372.811 230.119 374.971ZM231.449 375.253C231.449 373.733 232.498 372.916 233.875 373.209C235.283 373.508 236.301 374.781 236.301 376.285C236.301 377.821 235.283 378.628 233.875 378.329C232.466 378.03 231.449 376.757 231.449 375.253ZM245.604 374.662L243.961 374.313L240.987 377.201L244.164 381.556L245.901 381.925L242.521 377.447L245.604 374.662ZM239.438 380.551L240.69 380.817V373.617L239.438 373.351V380.551ZM252.406 381.516C251.952 381.851 251.154 382.002 250.246 381.809C248.869 381.516 247.899 380.51 247.789 379.126L253.204 380.277C253.251 380.063 253.282 379.782 253.282 379.43C253.282 377.446 251.827 375.825 250.011 375.439C247.695 374.946 246.381 376.331 246.381 378.427C246.381 380.699 247.867 382.503 250.152 382.989C251.091 383.188 252.109 383.101 252.797 382.607L252.406 381.516ZM249.949 376.626C251.17 376.885 251.921 377.781 251.983 378.978L247.711 378.07C247.852 376.996 248.666 376.353 249.949 376.626ZM260.146 384.953L261.398 385.219V378.019L260.146 377.753V380.713L256.233 379.881V376.921L254.981 376.655V383.855L256.233 384.121V381.081L260.146 381.913V384.953ZM267.553 380.847C268.116 380.663 268.633 380.549 269.493 380.732C270.886 381.028 271.09 381.999 271.09 383.343C270.62 382.891 269.885 382.623 269.337 382.507C267.819 382.184 266.676 382.757 266.676 384.229C266.676 385.621 267.553 386.639 268.836 386.912C269.994 387.158 270.667 386.805 271.09 386.351V387.279L272.279 387.532V383.116C272.279 381.244 271.575 380.022 269.572 379.596C268.695 379.41 267.85 379.487 267.224 379.754L267.553 380.847ZM269.274 385.853C268.461 385.68 268.007 385.136 268.007 384.448C268.007 383.616 268.758 383.424 269.509 383.583C270.119 383.713 270.652 383.986 271.09 384.399V385.311C270.73 385.667 270.198 386.05 269.274 385.853ZM274.376 387.978C275.017 388.114 276.082 388.404 276.958 388.591C279.149 389.056 280.198 388.543 280.198 387.183C280.198 386.287 279.681 385.585 278.554 385.138V385.106C279.4 385.157 279.963 384.605 279.963 383.757C279.963 382.461 278.899 381.675 276.927 381.256C275.91 381.04 274.986 380.907 274.376 380.778V387.978ZM277.13 385.331C278.257 385.571 278.867 386.052 278.867 386.804C278.867 387.556 278.226 387.82 277.068 387.574C276.504 387.454 276.003 387.316 275.628 387.22V385.012L277.13 385.331ZM277.021 382.316C277.928 382.509 278.633 382.946 278.633 383.73C278.633 384.434 278.038 384.724 277.208 384.548L275.628 384.212V382.068C275.941 382.118 276.457 382.196 277.021 382.316ZM281.217 383.512L283.799 384.061V389.981L285.052 390.247V384.327L287.634 384.876V383.596L281.217 382.232V383.512ZM288.303 387.338C288.303 389.498 289.806 391.417 292.059 391.896C294.313 392.375 295.816 391.095 295.816 388.935C295.816 386.775 294.313 384.855 292.059 384.376C289.806 383.897 288.303 385.178 288.303 387.338ZM289.634 387.621C289.634 386.101 290.682 385.284 292.059 385.576C293.468 385.876 294.485 387.148 294.485 388.652C294.485 390.188 293.468 390.996 292.059 390.696C290.651 390.397 289.634 389.125 289.634 387.621ZM297.622 396.119L298.874 396.385V392.849C299.375 393.291 300.11 393.608 300.862 393.767C303.068 394.236 304.524 392.866 304.524 390.674C304.524 388.546 303.272 386.76 301.269 386.334C300.298 386.128 299.359 386.36 298.874 386.833V385.985L297.622 385.719V396.119ZM300.909 387.457C302.364 387.767 303.194 388.983 303.194 390.439C303.194 391.959 302.255 392.863 300.752 392.544C300.079 392.401 299.5 392.15 298.874 391.585V388.017C299.312 387.55 300.079 387.281 300.909 387.457ZM307.57 395.033L311.64 390.538V395.898L312.892 396.164V388.964L311.64 388.698L307.57 393.193V387.833L306.318 387.567V394.767L307.57 395.033ZM317.499 397.304C319.237 397.673 320.489 397.123 320.489 395.779C320.489 394.947 320.004 394.092 319.018 393.771V393.739C319.91 393.608 320.254 393.009 320.254 392.305C320.254 391.121 319.331 390.173 317.609 389.807C316.498 389.571 315.402 389.69 314.823 390.175L315.308 391.27C315.778 390.986 316.451 390.713 317.421 390.919C318.329 391.112 318.924 391.623 318.924 392.279C318.924 392.855 318.407 393.193 317.703 393.043L316.592 392.807V393.847L317.781 394.1C318.642 394.283 319.158 394.728 319.158 395.32C319.158 396.04 318.376 396.338 317.312 396.112C316.701 395.982 315.825 395.508 315.23 394.885L314.589 395.709C315.058 396.385 316.467 397.084 317.499 397.304ZM322.772 392.585C323.336 392.4 323.852 392.286 324.713 392.469C326.106 392.765 326.309 393.736 326.309 395.08C325.84 394.629 325.104 394.36 324.556 394.244C323.038 393.921 321.896 394.494 321.896 395.966C321.896 397.358 322.772 398.377 324.056 398.649C325.214 398.896 325.887 398.543 326.309 398.088V399.016L327.499 399.269V394.853C327.499 392.981 326.794 391.76 324.791 391.334C323.915 391.147 323.07 391.224 322.444 391.491L322.772 392.585ZM324.494 397.591C323.68 397.418 323.226 396.873 323.226 396.185C323.226 395.353 323.977 395.161 324.729 395.32C325.339 395.45 325.871 395.723 326.309 396.136V397.048C325.949 397.404 325.417 397.787 324.494 397.591ZM329.595 399.715L335.855 401.046V402.806L337.029 403.055V400.095L335.855 399.846V393.846L334.603 393.579V399.579L330.847 398.781V392.781L329.595 392.515V399.715ZM339.635 401.849L343.704 397.354V402.714L344.956 402.98V395.78L343.704 395.514L339.635 400.009V394.649L338.383 394.383V401.583L339.635 401.849ZM348.485 403.73L352.554 399.235V404.595L353.806 404.861V397.661L352.554 397.395L348.485 401.89V396.53L347.232 396.264V403.464L348.485 403.73ZM272.134 404.301L270.71 403.998L269.082 408.212C268.957 408.57 268.847 408.915 268.753 409.247C268.613 408.849 268.487 408.47 268.331 408.069L266.265 403.054L264.763 402.734L268.143 410.653L267.987 411.004C267.517 412.056 267.079 412.443 266.484 412.316C266.202 412.256 265.936 412.072 265.702 411.91L265.295 412.799C265.67 413.135 266.093 413.417 266.625 413.53C267.627 413.743 268.284 413.259 269.317 410.902L272.134 404.301ZM271.946 413.221L273.12 413.471V411.711L278.816 412.922V414.682L279.99 414.931V411.971L278.816 411.722V405.722L274.012 404.7L273.902 406.581C273.777 408.522 273.292 409.939 272.822 410.447L271.946 410.261V413.221ZM275.107 407.333L275.185 406.15L277.564 406.655V411.455L274.153 410.73C274.481 410.352 274.951 409.14 275.107 407.333ZM281.728 407.86C282.292 407.676 282.808 407.562 283.669 407.745C285.062 408.041 285.265 409.012 285.265 410.356C284.796 409.904 284.06 409.636 283.512 409.52C281.994 409.197 280.852 409.77 280.852 411.242C280.852 412.634 281.728 413.652 283.012 413.925C284.17 414.171 284.843 413.818 285.265 413.364V414.292L286.455 414.545V410.129C286.455 408.257 285.75 407.035 283.747 406.61C282.871 406.423 282.026 406.5 281.4 406.767L281.728 407.86ZM283.45 412.866C282.636 412.693 282.182 412.149 282.182 411.461C282.182 410.629 282.933 410.437 283.685 410.596C284.295 410.726 284.827 410.999 285.265 411.412V412.324C284.905 412.68 284.373 413.063 283.45 412.866ZM293.372 416.015L294.624 416.281V409.081L289.725 408.04L289.6 410.254C289.428 413.545 288.426 413.86 287.894 413.699L287.988 414.967C289.443 415.276 290.508 414.799 290.821 410.769L290.899 409.57L293.372 410.095V416.015ZM302.437 416.15C301.983 416.486 301.185 416.636 300.277 416.443C298.9 416.15 297.929 415.144 297.82 413.761L303.235 414.912C303.282 414.698 303.313 414.416 303.313 414.064C303.313 412.08 301.858 410.459 300.042 410.073C297.726 409.581 296.411 410.965 296.411 413.061C296.411 415.333 297.898 417.137 300.183 417.623C301.122 417.823 302.139 417.735 302.828 417.241L302.437 416.15ZM299.98 411.26C301.2 411.519 301.952 412.415 302.014 413.612L297.742 412.704C297.882 411.63 298.696 410.987 299.98 411.26ZM310.176 419.587L311.428 419.853V412.653L310.176 412.387V415.347L306.264 414.516V411.556L305.012 411.289V418.489L306.264 418.756V415.716L310.176 416.547V419.587Z" fill="#10162F"/>
    <path d="M226.208 28.8192L222.374 28.0042V26.7242L231.373 28.637V29.917L227.538 29.102V39.022L226.208 38.7392V28.8192ZM231.152 38.8941C230.463 38.0224 230.119 37.0479 230.119 35.9705C230.119 34.8825 230.463 34.0597 231.152 33.5021C231.851 32.936 232.759 32.7716 233.875 33.0089C234.991 33.2462 235.894 33.7954 236.582 34.6564C237.282 35.509 237.631 36.4793 237.631 37.5673C237.631 38.6553 237.282 39.4823 236.582 40.0484C235.894 40.606 234.991 40.7662 233.875 40.5289C232.769 40.2938 231.861 39.7489 231.152 38.8941ZM232.138 34.5597C231.679 34.9314 231.449 35.496 231.449 36.2533C231.449 37.0106 231.673 37.6716 232.122 38.2363C232.581 38.8139 233.165 39.1781 233.875 39.3289C234.584 39.4797 235.164 39.3681 235.612 38.9942C236.071 38.6117 236.301 38.0419 236.301 37.2845C236.301 36.5485 236.071 35.8864 235.612 35.2982C235.164 34.7228 234.584 34.3597 233.875 34.2089C233.165 34.0581 232.586 34.175 232.138 34.5597ZM243.961 35.3127L245.604 35.662L242.521 38.4466L245.901 42.9252L244.164 42.5559L240.987 38.2006L243.961 35.3127ZM240.69 41.8174L239.438 41.5513V34.3513L240.69 34.6174V41.8174ZM252.406 42.5158L252.797 43.607C252.119 44.0921 251.237 44.2194 250.152 43.9888C249.005 43.7448 248.092 43.2094 247.414 42.3826C246.725 41.5536 246.381 40.5684 246.381 39.4271C246.381 38.3497 246.704 37.5225 247.351 36.9453C247.987 36.3659 248.874 36.1971 250.011 36.4388C250.95 36.6384 251.728 37.113 252.343 37.8625C252.969 38.6036 253.282 39.4594 253.282 40.4301C253.282 40.7394 253.256 41.0219 253.204 41.2775L247.789 40.1265C247.841 40.8095 248.086 41.3897 248.525 41.8668C248.973 42.3462 249.547 42.6601 250.246 42.8087C251.164 43.0039 251.884 42.9062 252.406 42.5158ZM249.949 37.6255C249.333 37.4947 248.822 37.562 248.415 37.8275C248.019 38.0952 247.784 38.5093 247.711 39.0698L251.983 39.978C251.952 39.374 251.754 38.8625 251.389 38.4436C251.034 38.0268 250.554 37.7542 249.949 37.6255ZM261.398 46.219L260.146 45.9529V42.9129L256.233 42.0813V45.1213L254.981 44.8551V37.6551L256.233 37.9213V40.8813L260.146 41.7129V38.7529L261.398 39.019V46.219ZM267.553 41.8474L267.224 40.7535C267.923 40.4648 268.706 40.4124 269.572 40.5965C270.521 40.7983 271.21 41.1847 271.638 41.7556C272.065 42.3265 272.279 43.1133 272.279 44.116V48.532L271.09 48.2792V47.3512C270.537 47.927 269.786 48.114 268.836 47.9121C268.189 47.7746 267.668 47.4664 267.271 46.9875C266.875 46.4979 266.676 45.9117 266.676 45.2291C266.676 44.5251 266.922 44.0225 267.412 43.7214C267.902 43.4097 268.544 43.338 269.337 43.5066C270.078 43.6641 270.662 43.9429 271.09 44.3432C271.09 43.5325 270.98 42.9279 270.761 42.5293C270.542 42.1307 270.119 41.8649 269.493 41.7319C268.857 41.5966 268.21 41.6351 267.553 41.8474ZM269.274 46.8533C269.973 47.0019 270.579 46.8212 271.09 46.3112V45.3992C270.652 44.986 270.125 44.714 269.509 44.5832C269.081 44.4923 268.721 44.5224 268.429 44.6737C268.148 44.8164 268.007 45.0745 268.007 45.4478C268.007 45.7998 268.116 46.1005 268.335 46.3497C268.565 46.6011 268.878 46.769 269.274 46.8533ZM274.376 48.9776V41.7776C274.428 41.7887 274.501 41.8042 274.595 41.8242C274.689 41.8335 274.824 41.857 275.002 41.8947C275.179 41.9217 275.341 41.9508 275.487 41.9818C276.259 42.1246 276.739 42.2159 276.927 42.2559C278.951 42.6861 279.963 43.5199 279.963 44.7572C279.963 45.1839 279.833 45.5242 279.572 45.7781C279.311 46.0213 278.972 46.1305 278.554 46.1058V46.1378C279.65 46.5734 280.198 47.2551 280.198 48.1831C280.198 49.5804 279.118 50.0496 276.958 49.5905C276.854 49.5683 276.395 49.4601 275.581 49.2658C275.424 49.2325 275.252 49.1906 275.064 49.14C274.877 49.1001 274.731 49.0637 274.626 49.0309C274.522 49.0087 274.438 48.9909 274.376 48.9776ZM277.13 46.3311L275.628 46.0118V48.2198C276.379 48.4114 276.859 48.5294 277.068 48.5738C278.267 48.8288 278.867 48.5724 278.867 47.8044C278.867 47.0684 278.288 46.5773 277.13 46.3311ZM277.021 43.3158C276.718 43.2515 276.254 43.1688 275.628 43.0678V45.2118L277.208 45.5477C277.636 45.6387 277.981 45.6105 278.241 45.4633C278.502 45.3161 278.633 45.0718 278.633 44.7305C278.633 44.0158 278.095 43.5442 277.021 43.3158ZM283.799 45.0607L281.217 44.5118V43.2318L287.634 44.5957V45.8757L285.052 45.3268V51.2468L283.799 50.9807V45.0607ZM289.336 51.2616C288.648 50.3899 288.303 49.4154 288.303 48.338C288.303 47.25 288.648 46.4272 289.336 45.8696C290.035 45.3035 290.943 45.1391 292.059 45.3764C293.176 45.6137 294.078 46.1629 294.767 47.0239C295.466 47.8765 295.816 48.8468 295.816 49.9348C295.816 51.0228 295.466 51.8498 294.767 52.4159C294.078 52.9735 293.176 53.1337 292.059 52.8964C290.953 52.6613 290.046 52.1164 289.336 51.2616ZM290.322 46.9272C289.863 47.2989 289.634 47.8635 289.634 48.6208C289.634 49.3781 289.858 50.0391 290.307 50.6038C290.766 51.1814 291.35 51.5456 292.059 51.6964C292.769 51.8472 293.348 51.7356 293.797 51.3617C294.256 50.9792 294.485 50.4094 294.485 49.652C294.485 48.916 294.256 48.2539 293.797 47.6657C293.348 47.0903 292.769 46.7272 292.059 46.5764C291.35 46.4256 290.771 46.5425 290.322 46.9272ZM298.874 57.3849L297.622 57.1188V46.7188L298.874 46.9849V47.8329C299.124 47.5875 299.469 47.4206 299.907 47.3325C300.345 47.2336 300.799 47.2341 301.269 47.3339C302.27 47.5468 303.058 48.0555 303.632 48.8602C304.227 49.6586 304.524 50.5965 304.524 51.6738C304.524 52.7725 304.185 53.6231 303.507 54.2256C302.839 54.8196 301.957 55.0002 300.862 54.7674C300.017 54.5877 299.354 54.2816 298.874 53.8489V57.3849ZM300.909 48.4574C300.074 48.2799 299.396 48.4665 298.874 49.0169V52.5849C299.427 53.0758 300.053 53.3955 300.752 53.5441C301.493 53.7016 302.082 53.5869 302.521 53.2C302.969 52.8047 303.194 52.2177 303.194 51.439C303.194 50.6817 302.99 50.0358 302.583 49.5013C302.176 48.9561 301.618 48.6082 300.909 48.4574ZM311.64 51.5383L307.57 56.0334L306.318 55.7672V48.5672L307.57 48.8334V54.1934L311.64 49.6983L312.892 49.9644V57.1644L311.64 56.8983V51.5383ZM317.499 58.3039C316.967 58.1907 316.404 57.9803 315.809 57.6726C315.235 57.3586 314.828 57.0374 314.589 56.7091L315.23 55.8855C315.512 56.18 315.846 56.443 316.232 56.6744C316.628 56.8973 316.988 57.0432 317.312 57.1119C317.854 57.2273 318.298 57.2148 318.642 57.0747C318.986 56.9239 319.158 56.6725 319.158 56.3205C319.158 56.0218 319.033 55.7659 318.783 55.5526C318.543 55.3416 318.209 55.1907 317.781 55.0997L316.592 54.8469V53.8069L317.703 54.0431C318.058 54.1185 318.35 54.0846 318.579 53.9414C318.809 53.7875 318.924 53.5666 318.924 53.2786C318.924 52.9586 318.788 52.6791 318.517 52.4401C318.245 52.1904 317.88 52.0168 317.421 51.9192C316.68 51.7618 315.976 51.8787 315.308 52.2701L314.823 51.175C315.105 50.9362 315.496 50.7847 315.997 50.7205C316.508 50.6585 317.046 50.6874 317.609 50.8071C318.444 50.9846 319.091 51.2927 319.55 51.7316C320.019 52.1728 320.254 52.6973 320.254 53.3053C320.254 54.1373 319.842 54.6151 319.018 54.7385V54.7705C319.477 54.9214 319.837 55.1846 320.097 55.5601C320.358 55.9248 320.489 56.3312 320.489 56.7792C320.489 57.4406 320.212 57.9098 319.659 58.1869C319.117 58.4556 318.397 58.4946 317.499 58.3039ZM322.772 53.5846L322.444 52.4908C323.143 52.202 323.925 52.1497 324.791 52.3338C325.741 52.5356 326.429 52.9219 326.857 53.4929C327.285 54.0638 327.499 54.8506 327.499 55.8533V60.2693L326.309 60.0164V59.0884C325.756 59.6642 325.005 59.8512 324.056 59.6494C323.409 59.5119 322.887 59.2037 322.491 58.7247C322.094 58.2351 321.896 57.649 321.896 56.9663C321.896 56.2623 322.141 55.7598 322.631 55.4587C323.122 55.1469 323.764 55.0753 324.556 55.2439C325.297 55.4013 325.882 55.6802 326.309 56.0804C326.309 55.2698 326.2 54.6651 325.981 54.2666C325.762 53.868 325.339 53.6022 324.713 53.4691C324.077 53.3338 323.43 53.3723 322.772 53.5846ZM324.494 58.5906C325.193 58.7391 325.798 58.5584 326.309 58.0484V57.1364C325.871 56.7233 325.344 56.4513 324.729 56.3205C324.301 56.2295 323.941 56.2597 323.649 56.4109C323.367 56.5537 323.226 56.8118 323.226 57.1851C323.226 57.5371 323.336 57.8377 323.555 58.087C323.784 58.3384 324.097 58.5063 324.494 58.5906ZM335.855 62.0455L329.595 60.7149V53.5149L330.847 53.781V59.781L334.603 60.5794V54.5794L335.855 54.8455V60.8455L337.029 61.095V64.055L335.855 63.8055V62.0455ZM343.704 58.3539L339.635 62.849L338.383 62.5828V55.3828L339.635 55.649V61.009L343.704 56.5139L344.956 56.78V63.98L343.704 63.7139V58.3539ZM352.554 60.2348L348.485 64.7299L347.232 64.4638V57.2638L348.485 57.5299V62.8899L352.554 58.3948L353.806 58.661V65.861L352.554 65.5948V60.2348ZM271.301 70.356L271.895 71.4104C271.29 72.0818 270.388 72.29 269.188 72.0349C268.061 71.7954 267.148 71.26 266.449 70.4288C265.761 69.5997 265.416 68.6146 265.416 67.4732C265.416 66.4172 265.755 65.5986 266.434 65.0174C267.112 64.4363 267.962 64.2543 268.985 64.4717C270.216 64.7334 271.139 65.2443 271.755 66.0045L271.176 66.8894C270.633 66.2727 269.96 65.879 269.157 65.7083C268.499 65.5686 267.931 65.693 267.451 66.0817C266.981 66.4619 266.747 67.02 266.747 67.756C266.747 68.5346 266.986 69.2043 267.466 69.765C267.957 70.3386 268.562 70.7019 269.282 70.8549C270.096 71.0279 270.769 70.8616 271.301 70.356ZM273.709 71.9399C273.02 71.0682 272.676 70.0936 272.676 69.0163C272.676 67.9283 273.02 67.1055 273.709 66.5479C274.408 65.9818 275.316 65.8174 276.432 66.0547C277.548 66.292 278.451 66.8412 279.14 67.7022C279.839 68.5548 280.188 69.5251 280.188 70.6131C280.188 71.7011 279.839 72.5281 279.14 73.0942C278.451 73.6518 277.548 73.812 276.432 73.5747C275.326 73.3396 274.418 72.7947 273.709 71.9399ZM274.695 67.6054C274.236 67.9772 274.006 68.5417 274.006 69.2991C274.006 70.0564 274.231 70.7174 274.679 71.2821C275.138 71.8597 275.723 72.2239 276.432 72.3747C277.142 72.5255 277.721 72.4139 278.169 72.0399C278.628 71.6575 278.858 71.0876 278.858 70.3303C278.858 69.5943 278.628 68.9322 278.169 68.3439C277.721 67.7686 277.142 67.4055 276.432 67.2547C275.723 67.1039 275.143 67.2208 274.695 67.6054ZM284.327 75.2527C283.794 75.1396 283.231 74.9292 282.636 74.6215C282.062 74.3075 281.656 73.9863 281.416 73.658L282.057 72.8344C282.339 73.1289 282.673 73.3919 283.059 73.6233C283.455 73.8462 283.815 73.9921 284.139 74.0608C284.681 74.1761 285.125 74.1637 285.469 74.0236C285.813 73.8727 285.985 73.6213 285.985 73.2693C285.985 72.9707 285.86 72.7147 285.61 72.5015C285.37 72.2905 285.036 72.1395 284.608 72.0486L283.419 71.7958V70.7558L284.53 70.992C284.885 71.0674 285.177 71.0335 285.406 70.8903C285.636 70.7364 285.751 70.5154 285.751 70.2274C285.751 69.9074 285.615 69.6279 285.344 69.389C285.073 69.1393 284.707 68.9657 284.248 68.8681C283.507 68.7106 282.803 68.8276 282.135 69.219L281.65 68.1239C281.932 67.8851 282.323 67.7336 282.824 67.6694C283.335 67.6074 283.873 67.6363 284.436 67.756C285.271 67.9334 285.918 68.2416 286.377 68.6805C286.846 69.1216 287.081 69.6462 287.081 70.2542C287.081 71.0862 286.669 71.5639 285.845 71.6874V71.7194C286.304 71.8703 286.664 72.1335 286.924 72.5089C287.185 72.8737 287.316 73.2801 287.316 73.7281C287.316 74.3894 287.039 74.8587 286.486 75.1358C285.944 75.4045 285.224 75.4434 284.327 75.2527ZM289.427 77.9369L288.253 77.6874V74.7274L289.13 74.9137C289.391 74.6385 289.62 74.1539 289.818 73.4601C290.017 72.7555 290.147 71.9513 290.21 71.0472L290.319 69.1665L295.124 70.1878V76.1878L296.298 76.4373V79.3973L295.124 79.1478V77.3878L289.427 76.1769V77.9369ZM291.493 70.616L291.415 71.7994C291.352 72.5861 291.227 73.2901 291.039 73.9115C290.851 74.533 290.658 74.9613 290.46 75.1965L293.872 75.9217V71.1217L291.493 70.616ZM298.036 72.3267L297.707 71.2329C298.406 70.9441 299.189 70.8918 300.055 71.0759C301.004 71.2777 301.693 71.664 302.121 72.235C302.548 72.8059 302.762 73.5927 302.762 74.5954V79.0114L301.573 78.7585V77.8305C301.02 78.4063 300.269 78.5933 299.319 78.3915C298.672 78.254 298.151 77.9458 297.754 77.4669C297.358 76.9773 297.159 76.3911 297.159 75.7084C297.159 75.0044 297.405 74.5019 297.895 74.2008C298.385 73.889 299.027 73.8174 299.82 73.986C300.561 74.1434 301.145 74.4223 301.573 74.8225C301.573 74.0119 301.463 73.4073 301.244 73.0087C301.025 72.6101 300.603 72.3443 299.977 72.2112C299.34 72.076 298.693 72.1145 298.036 72.3267ZM299.757 77.3327C300.456 77.4812 301.062 77.3005 301.573 76.7905V75.8785C301.135 75.4654 300.608 75.1934 299.992 75.0626C299.564 74.9716 299.204 75.0018 298.912 75.153C298.631 75.2958 298.49 75.5539 298.49 75.9272C298.49 76.2792 298.599 76.5798 298.818 76.8291C299.048 77.0805 299.361 77.2484 299.757 77.3327ZM311.275 80.8209L310.023 80.5548V77.5148L306.111 76.6831V79.7231L304.859 79.457V72.257L306.111 72.5231V75.4831L310.023 76.3148V73.3548L311.275 73.6209V80.8209Z" fill="#10162F"/>
    <path d="M159.683 90.7359L157.332 88.3812C157.575 88.1699 157.862 87.8509 158.012 87.6834C159.21 86.3516 158.845 84.6366 157.739 83.5291C156.671 82.4587 155.182 81.9533 153.705 83.5961C153.354 83.9869 152.576 84.8907 152.296 85.2017L158.801 91.7169L159.683 90.7359ZM154.86 84.5708C155.462 83.9009 156.119 83.8771 156.798 84.5565C157.522 85.2825 157.439 86.0628 156.915 86.645C156.714 86.8683 156.481 87.0889 156.245 87.2922L154.247 85.2912C154.474 85.0187 154.68 84.7701 154.86 84.5708Z" fill="#6C7991"/>
    <path d="M163.448 80.1324C165.307 82.3252 167.784 82.6711 169.462 81.2144C171.14 79.7577 171.119 77.1393 169.328 75.027C167.469 72.8342 164.983 72.4953 163.305 73.952C161.571 75.4577 161.717 78.0904 163.448 80.1324ZM164.496 79.2219C163.26 77.7634 163.205 76.0472 164.286 75.1087C165.351 74.1843 167.043 74.4789 168.279 75.9374C169.456 77.3255 169.667 79.0282 168.481 80.0576C167.425 80.9751 165.69 80.6302 164.496 79.2219Z" fill="#6C7991"/>
    <path d="M178.325 71.1928C178.733 71.7592 178.568 72.3332 178.054 72.6811C177.576 73.0051 176.792 73.1232 176.02 72.8027L176.048 74.1205C176.896 74.6753 178.126 74.4622 178.923 73.9222C180.083 73.1363 180.378 71.6633 179.468 70.4021C177.672 67.9119 175.22 70.3054 174.103 68.7557C173.748 68.264 173.837 67.7107 174.376 67.3447C174.872 67.0088 175.32 67.0078 175.875 67.1565L175.75 65.7773C175.024 65.5376 174.163 65.6597 173.401 66.1756C172.198 66.9916 172.15 68.4241 172.96 69.5463C174.717 71.9831 177.261 69.7179 178.325 71.1928Z" fill="#6C7991"/>
    <path d="M181.501 63.0129L183.658 61.8733L187.687 68.4144L188.856 67.797L184.828 61.2559L186.985 60.1163L186.193 58.8304L180.709 61.7271L181.501 63.0129Z" fill="#6C7991"/>
    <path d="M388.883 386.807L389.018 386.74C389.636 386.434 390.402 386.083 390.807 385.882C393.382 384.604 393.591 382.135 392.274 379.912C391.037 377.825 388.87 376.549 386.169 377.889C385.677 378.133 384.732 378.646 384.327 378.847L384.202 378.909L388.883 386.807ZM386.919 379.196C388.53 378.397 390.077 378.943 391.02 380.534C392.01 382.204 391.706 383.756 390.076 384.565C389.912 384.647 389.642 384.781 389.301 384.921L386.157 379.618C386.414 379.461 386.639 379.335 386.919 379.196Z" fill="#6C7991"/>
    <path d="M399.903 380.925L403.665 378.561L402.807 377.313L400.16 378.977L398.81 377.012L401.095 375.577L400.237 374.329L397.953 375.764L396.655 373.876L399.212 372.27L398.354 371.022L394.683 373.329L399.903 380.925Z" fill="#6C7991"/>
    <path d="M408.758 375.003L412.47 372.155L411.536 370.96L408.866 373.008L404.115 366.93L403.073 367.73L408.758 375.003Z" fill="#6C7991"/>
    <path d="M417.01 368.289L420.261 365.272L419.256 364.137L416.968 366.26L415.386 364.474L417.361 362.642L416.355 361.507L414.381 363.339L412.86 361.622L415.07 359.572L414.064 358.437L410.891 361.382L417.01 368.289Z" fill="#6C7991"/>
    <path d="M418.537 356.109L420.153 354.287L425.612 359.706L426.488 358.718L421.029 353.3L422.646 351.478L421.572 350.412L417.464 355.044L418.537 356.109Z" fill="#6C7991"/>
    <path d="M432.059 351.932L434.699 348.309L433.565 347.319L431.707 349.869L429.922 348.312L431.525 346.112L430.39 345.123L428.787 347.323L427.071 345.827L428.865 343.364L427.731 342.375L425.154 345.912L432.059 351.932Z" fill="#6C7991"/>
</svg>
