<svg width="81" height="80" viewBox="0 0 81 80" fill="none" xmlns="http://www.w3.org/2000/svg">
    <path d="M0.75 40C0.75 17.9086 18.6586 0 40.75 0C62.8414 0 80.75 17.9086 80.75 40C80.75 62.0914 62.8414 80 40.75 80C18.6586 80 0.75 62.0914 0.75 40Z" fill="#FDDE4F"/>
    <path d="M31.1593 43.8234C31.2086 43.5029 31.2579 43.0097 31.2579 42.566C31.2579 39.1882 28.9403 37.5856 22.3574 37.3883L19.3741 37.3144C16.2428 37.2404 15.8237 36.5994 15.8237 35.9337C15.8237 35.2187 16.1935 34.5037 19.9411 34.5037H20.163C24.0586 34.5037 24.2558 35.7611 24.3051 36.4761H31.7017C32.0222 33.6161 30.7155 30.4849 21.5437 30.4849H19.448C11.2871 30.4849 8.94488 32.5313 8.45177 35.2926C8.40246 35.5639 8.35315 35.9583 8.35315 36.3528C8.35315 39.1635 10.079 41.5797 16.588 41.8016L19.6453 41.9249C22.9984 42.0482 23.4915 42.566 23.4915 43.4535C23.4915 44.2425 23.1217 45.3273 18.9303 45.3273H18.733C14.8128 45.3273 14.5663 43.7741 14.5416 42.7385H7.04642C6.77521 45.2287 7.39159 49.4941 17.2537 49.4941H19.3987C28.8417 49.4941 30.7155 46.7327 31.1593 43.8234Z" fill="#1B2036"/>
    <path d="M42.5536 52.2899C42.5536 49.6078 40.9737 45.6398 40.9737 43.619C40.9737 42.7372 41.3411 42.0759 42.6271 42.0759H45.1255L45.8236 37.7404H43.5823C42.5903 37.7404 42.0392 37.4097 42.0392 36.6382C42.0392 34.7644 46.6686 29.8043 46.6686 26.6813C46.6686 23.9257 44.5376 22.75 40.5328 22.75H35.3523L34.6542 27.0855H37.2261C38.4386 27.0855 38.9897 27.5631 38.9897 28.4816C38.9897 30.5391 35.3891 34.2133 35.3891 36.7484C35.3891 38.1813 36.0871 39.357 38.6223 39.8714C35.2788 40.3858 34.2501 42.0024 34.2501 43.8395C34.2501 45.9704 35.3891 49.7181 35.3891 51.3714C35.3891 52.3634 34.8747 52.8778 33.6622 52.8778H30.576L29.8779 57.25H35.8667C40.79 57.25 42.5536 55.3027 42.5536 52.2899Z" fill="#1B2036"/>
    <path fill-rule="evenodd" clip-rule="evenodd" d="M74.0007 42.0875C73.5597 44.8816 71.3363 49.5187 61.0737 49.5187H60.1368C50.3733 49.5187 48.1543 44.8589 48.1543 41.062C48.1543 40.3716 48.179 39.8292 48.3022 38.9909C48.7707 35.7611 50.965 30.4849 61.764 30.4849H62.6763C73.2058 30.4849 74.8776 35.0228 74.6489 37.7366H67.3978C67.0954 36.8846 65.9917 35.4159 61.8873 35.4159C57.0055 35.4159 55.6988 37.6842 55.4276 39.3361C55.3536 39.7799 55.329 40.1744 55.329 40.5935C55.329 42.5906 56.5618 44.563 60.8271 44.563C64.9172 44.563 66.2748 42.9779 66.7545 42.0875H74.0007Z" fill="#1B2036"/>
</svg>
