<svg width="573" height="224" viewBox="0 0 573 224" fill="none" xmlns="http://www.w3.org/2000/svg">
    <path d="M176.63 17.0694C176.117 17.2738 175.867 17.8554 176.071 18.3685C176.275 18.8816 176.857 19.1318 177.37 18.9275L176.63 17.0694ZM287.653 67.4365C288.171 67.628 288.747 67.3632 288.938 66.8452L292.058 58.4032C292.249 57.8851 291.984 57.31 291.466 57.1185C290.948 56.9271 290.373 57.1919 290.182 57.7099L287.409 65.2139L279.905 62.4408C279.387 62.2494 278.811 62.5142 278.62 63.0322C278.429 63.5503 278.693 64.1254 279.211 64.3168L287.653 67.4365ZM177.37 18.9275C206.579 7.29349 230.377 11.516 248.673 22.4818C267.016 33.4755 279.9 51.2936 287.092 66.9167L288.908 66.0804C281.6 50.2049 268.484 32.023 249.702 20.7663C230.873 9.48167 206.421 5.20341 176.63 17.0694L177.37 18.9275Z" fill="#73FFE5"/>
    <path d="M433.132 17.0086C433.68 17.0816 434.064 17.5846 433.991 18.132C433.918 18.6795 433.415 19.0641 432.868 18.9911L433.132 17.0086ZM377.707 67.2054C377.317 67.596 376.683 67.596 376.293 67.2054L369.929 60.8415C369.538 60.451 369.538 59.8178 369.929 59.4273C370.319 59.0367 370.953 59.0367 371.343 59.4273L377 65.0841L382.657 59.4273C383.047 59.0367 383.681 59.0367 384.071 59.4273C384.462 59.8178 384.462 60.451 384.071 60.8415L377.707 67.2054ZM432.868 18.9911C418.076 17.0188 404.365 20.1118 394.371 28.0334C384.397 35.9397 378 48.7548 378 66.4983H376C376 48.2435 382.603 34.8095 393.129 26.4661C403.635 18.1381 417.924 14.9809 433.132 17.0086L432.868 18.9911Z" fill="#73FFE5"/>
    <path d="M208 196.499C207.448 196.499 207 196.051 207 195.499C207 194.946 207.448 194.499 208 194.499L208 196.499ZM262.793 128.293C263.183 127.902 263.817 127.902 264.207 128.293L270.571 134.657C270.962 135.047 270.962 135.68 270.571 136.071C270.181 136.461 269.547 136.461 269.157 136.071L263.5 130.414L257.843 136.071C257.453 136.461 256.819 136.461 256.429 136.071C256.038 135.68 256.038 135.047 256.429 134.657L262.793 128.293ZM208 194.499C230.754 194.499 244.274 186.974 252.169 175.192C260.122 163.324 262.5 146.953 262.5 129H264.5C264.5 147.045 262.128 163.923 253.831 176.305C245.476 188.773 231.246 196.499 208 196.499L208 194.499Z" fill="#73FFE5"/>
    <rect x="85" width="101" height="36" rx="18" fill="#73FFE5"/>
    <path d="M103.5 12.7266H102.094V20.0469C102.094 22.4531 103.773 24.1875 106.57 24.1875C109.367 24.1875 111.047 22.4531 111.047 20.0469V12.7266H109.641V19.9531C109.641 21.6562 108.523 22.8906 106.57 22.8906C104.617 22.8906 103.5 21.6562 103.5 19.9531V12.7266ZM112.883 18.1172C112.883 19.2891 113.625 20 115.156 20.3672L116.445 20.6797C117.375 20.9062 117.695 21.2422 117.695 21.8281C117.695 22.5625 117.016 23.0312 115.914 23.0312C114.812 23.0312 114.188 22.5859 114.023 21.6562H112.664C112.82 23.1797 114.008 24.1406 115.914 24.1406C117.727 24.1406 119.062 23.1406 119.062 21.7266C119.062 20.5625 118.469 19.9219 116.828 19.5234L115.539 19.2109C114.633 18.9922 114.219 18.6094 114.219 18.0469C114.219 17.3359 114.875 16.8438 115.867 16.8438C116.867 16.8438 117.492 17.3672 117.594 18.2188H118.891C118.836 16.7812 117.648 15.7344 115.867 15.7344C114.109 15.7344 112.883 16.7266 112.883 18.1172ZM125.867 21.6719C125.641 22.4375 124.883 22.9609 123.852 22.9609C122.391 22.9609 121.477 21.9375 121.477 20.3828V20.3047H127.305V19.7891C127.305 17.3281 125.953 15.7344 123.758 15.7344C121.516 15.7344 120.078 17.4453 120.078 19.9688C120.078 22.5234 121.492 24.1406 123.82 24.1406C125.594 24.1406 126.969 23.0938 127.203 21.6719H125.867ZM123.734 16.9141C125.016 16.9141 125.867 17.8828 125.898 19.2422H121.484C121.57 17.8906 122.461 16.9141 123.734 16.9141ZM128.68 24H130.039V18.9375C130.039 17.7891 130.727 17.0312 131.781 17.0312C132.109 17.0312 132.398 17.0703 132.508 17.1094V15.7891C132.398 15.7734 132.195 15.7344 131.961 15.7344C131.008 15.7344 130.258 16.3047 129.992 17.2031H129.961V15.875H128.68V24ZM137.648 14.4297C138.125 14.4297 138.5 14.0469 138.5 13.5781C138.5 13.1016 138.125 12.7266 137.648 12.7266C137.18 12.7266 136.797 13.1016 136.797 13.5781C136.797 14.0469 137.18 14.4297 137.648 14.4297ZM136.969 24H138.328V15.875H136.969V24ZM140.164 24H141.523V19.2188C141.523 17.8438 142.359 16.9375 143.641 16.9375C144.891 16.9375 145.508 17.6562 145.508 18.9688V24H146.867V18.7266C146.867 16.8828 145.836 15.7344 144.055 15.7344C142.797 15.7344 141.93 16.2969 141.477 17.1719H141.445V15.875H140.164V24ZM152.547 15.7344C151.367 15.7344 150.422 16.3359 149.922 17.25H149.891V15.875H148.602V26.7109H149.961V22.6797H149.992C150.477 23.5703 151.414 24.1406 152.578 24.1406C154.625 24.1406 156.023 22.4844 156.023 19.9375C156.023 17.3906 154.617 15.7344 152.547 15.7344ZM152.281 22.9453C150.891 22.9453 149.953 21.75 149.953 19.9375C149.953 18.1328 150.891 16.9297 152.281 16.9297C153.727 16.9297 154.633 18.1016 154.633 19.9375C154.633 21.7812 153.727 22.9453 152.281 22.9453ZM164.07 15.875H162.711V20.6484C162.711 22.0312 161.914 22.9375 160.594 22.9375C159.336 22.9375 158.719 22.2266 158.719 20.9062V15.875H157.359V21.1484C157.359 22.9922 158.398 24.1406 160.172 24.1406C161.422 24.1406 162.266 23.6172 162.75 22.6797H162.781V24H164.07V15.875ZM166.273 13.9141V15.875H165.062V16.9922H166.273V21.8906C166.273 23.4531 166.852 24.0625 168.344 24.0625C168.664 24.0625 169.039 24.0391 169.203 24V22.8594C169.109 22.875 168.797 22.8984 168.641 22.8984C167.945 22.8984 167.633 22.5625 167.633 21.8203V16.9922H169.211V15.875H167.633V13.9141H166.273Z" fill="black"/>
    <rect x="430" width="143" height="36" rx="18" fill="#73FFE5"/>
    <path d="M451.352 24V13.9922H454.906V12.7266H446.391V13.9922H449.945V24H451.352ZM454.984 27.0391C456.453 27.0391 457.125 26.4688 457.82 24.5703L461.016 15.875H459.586L457.336 22.6406H457.312L455.062 15.875H453.609L456.609 24.0078L456.422 24.5781C456.109 25.5234 455.688 25.8906 454.93 25.8906C454.758 25.8906 454.547 25.8828 454.398 25.8516V26.9922C454.547 27.0234 454.82 27.0391 454.984 27.0391ZM466.031 15.7344C464.852 15.7344 463.906 16.3359 463.406 17.25H463.375V15.875H462.086V26.7109H463.445V22.6797H463.477C463.961 23.5703 464.898 24.1406 466.062 24.1406C468.109 24.1406 469.508 22.4844 469.508 19.9375C469.508 17.3906 468.102 15.7344 466.031 15.7344ZM465.766 22.9453C464.375 22.9453 463.438 21.75 463.438 19.9375C463.438 18.1328 464.375 16.9297 465.766 16.9297C467.211 16.9297 468.117 18.1016 468.117 19.9375C468.117 21.7812 467.211 22.9453 465.766 22.9453ZM476.273 21.6719C476.047 22.4375 475.289 22.9609 474.258 22.9609C472.797 22.9609 471.883 21.9375 471.883 20.3828V20.3047H477.711V19.7891C477.711 17.3281 476.359 15.7344 474.164 15.7344C471.922 15.7344 470.484 17.4453 470.484 19.9688C470.484 22.5234 471.898 24.1406 474.227 24.1406C476 24.1406 477.375 23.0938 477.609 21.6719H476.273ZM474.141 16.9141C475.422 16.9141 476.273 17.8828 476.305 19.2422H471.891C471.977 17.8906 472.867 16.9141 474.141 16.9141ZM485.734 24.1406C487.977 24.1406 489.492 22.5234 489.492 19.9375C489.492 17.3438 487.977 15.7344 485.734 15.7344C483.484 15.7344 481.969 17.3438 481.969 19.9375C481.969 22.5234 483.484 24.1406 485.734 24.1406ZM485.734 22.9453C484.297 22.9453 483.352 21.8516 483.352 19.9375C483.352 18.0234 484.297 16.9297 485.734 16.9297C487.172 16.9297 488.109 18.0234 488.109 19.9375C488.109 21.8516 487.172 22.9453 485.734 22.9453ZM491.305 24H492.664V16.9922H494.32V15.875H492.656V14.9766C492.656 14.1719 493.008 13.7812 493.742 13.7812C493.969 13.7812 494.195 13.8047 494.359 13.8281V12.7266C494.164 12.6953 493.836 12.6641 493.531 12.6641C492.031 12.6641 491.305 13.4062 491.305 14.9688V15.875H490.172V16.9922H491.305V24ZM499.445 13.9141V15.875H498.234V16.9922H499.445V21.8906C499.445 23.4531 500.023 24.0625 501.516 24.0625C501.836 24.0625 502.211 24.0391 502.375 24V22.8594C502.281 22.875 501.969 22.8984 501.812 22.8984C501.117 22.8984 500.805 22.5625 500.805 21.8203V16.9922H502.383V15.875H500.805V13.9141H499.445ZM503.906 24H505.266V19.2656C505.266 17.8594 506.102 16.9375 507.453 16.9375C508.727 16.9375 509.375 17.7109 509.375 19V24H510.734V18.75C510.734 16.9375 509.656 15.7344 507.875 15.7344C506.641 15.7344 505.75 16.2656 505.297 17.1719H505.266V12.7266H503.906V24ZM517.852 21.6719C517.625 22.4375 516.867 22.9609 515.836 22.9609C514.375 22.9609 513.461 21.9375 513.461 20.3828V20.3047H519.289V19.7891C519.289 17.3281 517.938 15.7344 515.742 15.7344C513.5 15.7344 512.062 17.4453 512.062 19.9688C512.062 22.5234 513.477 24.1406 515.805 24.1406C517.578 24.1406 518.953 23.0938 519.188 21.6719H517.852ZM515.719 16.9141C517 16.9141 517.852 17.8828 517.883 19.2422H513.469C513.555 17.8906 514.445 16.9141 515.719 16.9141ZM524.695 14.4297C525.172 14.4297 525.547 14.0469 525.547 13.5781C525.547 13.1016 525.172 12.7266 524.695 12.7266C524.227 12.7266 523.844 13.1016 523.844 13.5781C523.844 14.0469 524.227 14.4297 524.695 14.4297ZM524.016 24H525.375V15.875H524.016V24ZM527.211 24H528.57V19.2188C528.57 17.8438 529.406 16.9375 530.688 16.9375C531.938 16.9375 532.555 17.6562 532.555 18.9688V24H533.914V18.7266C533.914 16.8828 532.883 15.7344 531.102 15.7344C529.844 15.7344 528.977 16.2969 528.523 17.1719H528.492V15.875H527.211V24ZM539.594 15.7344C538.414 15.7344 537.469 16.3359 536.969 17.25H536.938V15.875H535.648V26.7109H537.008V22.6797H537.039C537.523 23.5703 538.461 24.1406 539.625 24.1406C541.672 24.1406 543.07 22.4844 543.07 19.9375C543.07 17.3906 541.664 15.7344 539.594 15.7344ZM539.328 22.9453C537.938 22.9453 537 21.75 537 19.9375C537 18.1328 537.938 16.9297 539.328 16.9297C540.773 16.9297 541.68 18.1016 541.68 19.9375C541.68 21.7812 540.773 22.9453 539.328 22.9453ZM551.117 15.875H549.758V20.6484C549.758 22.0312 548.961 22.9375 547.641 22.9375C546.383 22.9375 545.766 22.2266 545.766 20.9062V15.875H544.406V21.1484C544.406 22.9922 545.445 24.1406 547.219 24.1406C548.469 24.1406 549.312 23.6172 549.797 22.6797H549.828V24H551.117V15.875ZM553.32 13.9141V15.875H552.109V16.9922H553.32V21.8906C553.32 23.4531 553.898 24.0625 555.391 24.0625C555.711 24.0625 556.086 24.0391 556.25 24V22.8594C556.156 22.875 555.844 22.8984 555.688 22.8984C554.992 22.8984 554.68 22.5625 554.68 21.8203V16.9922H556.258V15.875H554.68V13.9141H553.32Z" fill="black"/>
    <rect y="168" width="208" height="56" rx="28" fill="#73FFE5"/>
    <path d="M26.6484 190.734H21.0703V186.859H26.3594V185.609H21.0703V181.992H26.6484V180.727H19.6641V192H26.6484V190.734ZM31.3594 183.734C29.2734 183.734 27.8984 185.383 27.8984 187.938C27.8984 190.484 29.2734 192.141 31.3281 192.141C32.4766 192.141 33.4219 191.57 33.9297 190.641H33.9609V194.711H35.3203V183.875H34.0234V185.25H33.9922C33.4688 184.312 32.5391 183.734 31.3594 183.734ZM31.6016 190.945C30.1797 190.945 29.2891 189.789 29.2891 187.938C29.2891 186.078 30.1797 184.93 31.6016 184.93C32.9922 184.93 33.9609 186.125 33.9609 187.938C33.9609 189.75 32.9922 190.945 31.6016 190.945ZM43.7656 183.875H42.4062V188.648C42.4062 190.031 41.6094 190.938 40.2891 190.938C39.0312 190.938 38.4141 190.227 38.4141 188.906V183.875H37.0547V189.148C37.0547 190.992 38.0938 192.141 39.8672 192.141C41.1172 192.141 41.9609 191.617 42.4453 190.68H42.4766V192H43.7656V183.875ZM47.9062 192.141C49 192.141 50.0312 191.531 50.5156 190.602H50.5469V192H51.8359V186.383C51.8359 184.766 50.6328 183.734 48.7266 183.734C46.8047 183.734 45.6016 184.812 45.5078 186.219H46.8203C46.9922 185.422 47.6484 184.93 48.6953 184.93C49.8203 184.93 50.4766 185.523 50.4766 186.516V187.195L48.1484 187.328C46.2734 187.438 45.2031 188.312 45.2031 189.703C45.2031 191.164 46.2891 192.141 47.9062 192.141ZM48.2109 190.984C47.2344 190.984 46.5859 190.477 46.5859 189.703C46.5859 188.938 47.2109 188.453 48.3047 188.383L50.4766 188.25V188.914C50.4766 190.086 49.4922 190.984 48.2109 190.984ZM53.6328 192H54.9922V180.727H53.6328V192ZM59.9688 186.117C59.9688 187.289 60.7109 188 62.2422 188.367L63.5312 188.68C64.4609 188.906 64.7812 189.242 64.7812 189.828C64.7812 190.562 64.1016 191.031 63 191.031C61.8984 191.031 61.2734 190.586 61.1094 189.656H59.75C59.9062 191.18 61.0938 192.141 63 192.141C64.8125 192.141 66.1484 191.141 66.1484 189.727C66.1484 188.562 65.5547 187.922 63.9141 187.523L62.625 187.211C61.7188 186.992 61.3047 186.609 61.3047 186.047C61.3047 185.336 61.9609 184.844 62.9531 184.844C63.9531 184.844 64.5781 185.367 64.6797 186.219H65.9766C65.9219 184.781 64.7344 183.734 62.9531 183.734C61.1953 183.734 59.9688 184.727 59.9688 186.117ZM68.3125 182.43C68.7891 182.43 69.1641 182.047 69.1641 181.578C69.1641 181.102 68.7891 180.727 68.3125 180.727C67.8438 180.727 67.4609 181.102 67.4609 181.578C67.4609 182.047 67.8438 182.43 68.3125 182.43ZM67.6328 192H68.9922V183.875H67.6328V192ZM74.1797 195.062C76.4219 195.062 77.8516 193.773 77.8516 191.836V183.875H76.5547V185.242H76.5312C75.9922 184.297 75.0391 183.734 73.8906 183.734C71.7891 183.734 70.4297 185.359 70.4297 187.906C70.4297 190.43 71.7891 192.062 73.8594 192.062C75 192.062 75.9609 191.484 76.4609 190.602H76.4922V191.883C76.4922 193.094 75.6406 193.906 74.2344 193.906C73.2188 193.906 72.4141 193.414 72.1484 192.672H70.75C70.9766 194.055 72.3906 195.062 74.1797 195.062ZM74.1328 190.867C72.7344 190.867 71.8203 189.727 71.8203 187.906C71.8203 186.086 72.7344 184.93 74.1328 184.93C75.5469 184.93 76.4922 186.117 76.4922 187.906C76.4922 189.695 75.5469 190.867 74.1328 190.867ZM79.625 192H80.9844V187.219C80.9844 185.844 81.8203 184.938 83.1016 184.938C84.3516 184.938 84.9688 185.656 84.9688 186.969V192H86.3281V186.727C86.3281 184.883 85.2969 183.734 83.5156 183.734C82.2578 183.734 81.3906 184.297 80.9375 185.172H80.9062V183.875H79.625V192ZM91.3438 192H92.7031V186.906C92.7031 185.781 93.4844 184.938 94.5625 184.938C95.5703 184.938 96.2266 185.578 96.2266 186.555V192H97.5859V186.836C97.5859 185.734 98.3438 184.938 99.4219 184.938C100.492 184.938 101.109 185.594 101.109 186.703V192H102.469V186.391C102.469 184.781 101.43 183.734 99.8203 183.734C98.6797 183.734 97.7266 184.312 97.2734 185.281H97.2422C96.8906 184.297 96.0703 183.734 94.9609 183.734C93.8672 183.734 93.0391 184.312 92.6562 185.172H92.625V183.875H91.3438V192ZM109.594 189.672C109.367 190.438 108.609 190.961 107.578 190.961C106.117 190.961 105.203 189.938 105.203 188.383V188.305H111.031V187.789C111.031 185.328 109.68 183.734 107.484 183.734C105.242 183.734 103.805 185.445 103.805 187.969C103.805 190.523 105.219 192.141 107.547 192.141C109.32 192.141 110.695 191.094 110.93 189.672H109.594ZM107.461 184.914C108.742 184.914 109.594 185.883 109.625 187.242H105.211C105.297 185.891 106.188 184.914 107.461 184.914ZM114.781 192.141C115.875 192.141 116.906 191.531 117.391 190.602H117.422V192H118.711V186.383C118.711 184.766 117.508 183.734 115.602 183.734C113.68 183.734 112.477 184.812 112.383 186.219H113.695C113.867 185.422 114.523 184.93 115.57 184.93C116.695 184.93 117.352 185.523 117.352 186.516V187.195L115.023 187.328C113.148 187.438 112.078 188.312 112.078 189.703C112.078 191.164 113.164 192.141 114.781 192.141ZM115.086 190.984C114.109 190.984 113.461 190.477 113.461 189.703C113.461 188.938 114.086 188.453 115.18 188.383L117.352 188.25V188.914C117.352 190.086 116.367 190.984 115.086 190.984ZM120.438 192H121.797V187.219C121.797 185.844 122.633 184.938 123.914 184.938C125.164 184.938 125.781 185.656 125.781 186.969V192H127.141V186.727C127.141 184.883 126.109 183.734 124.328 183.734C123.07 183.734 122.203 184.297 121.75 185.172H121.719V183.875H120.438V192ZM128.734 186.117C128.734 187.289 129.477 188 131.008 188.367L132.297 188.68C133.227 188.906 133.547 189.242 133.547 189.828C133.547 190.562 132.867 191.031 131.766 191.031C130.664 191.031 130.039 190.586 129.875 189.656H128.516C128.672 191.18 129.859 192.141 131.766 192.141C133.578 192.141 134.914 191.141 134.914 189.727C134.914 188.562 134.32 187.922 132.68 187.523L131.391 187.211C130.484 186.992 130.07 186.609 130.07 186.047C130.07 185.336 130.727 184.844 131.719 184.844C132.719 184.844 133.344 185.367 133.445 186.219H134.742C134.688 184.781 133.5 183.734 131.719 183.734C129.961 183.734 128.734 184.727 128.734 186.117ZM149.945 183.875H148.602L146.977 190.484H146.945L145.102 183.875H143.789L141.953 190.484H141.922L140.297 183.875H138.945L141.219 192H142.602L144.43 185.711H144.461L146.297 192H147.68L149.945 183.875ZM156.453 189.672C156.227 190.438 155.469 190.961 154.438 190.961C152.977 190.961 152.062 189.938 152.062 188.383V188.305H157.891V187.789C157.891 185.328 156.539 183.734 154.344 183.734C152.102 183.734 150.664 185.445 150.664 187.969C150.664 190.523 152.078 192.141 154.406 192.141C156.18 192.141 157.555 191.094 157.789 189.672H156.453ZM154.32 184.914C155.602 184.914 156.453 185.883 156.484 187.242H152.07C152.156 185.891 153.047 184.914 154.32 184.914ZM165.898 195.062C168.141 195.062 169.57 193.773 169.57 191.836V183.875H168.273V185.242H168.25C167.711 184.297 166.758 183.734 165.609 183.734C163.508 183.734 162.148 185.359 162.148 187.906C162.148 190.43 163.508 192.062 165.578 192.062C166.719 192.062 167.68 191.484 168.18 190.602H168.211V191.883C168.211 193.094 167.359 193.906 165.953 193.906C164.938 193.906 164.133 193.414 163.867 192.672H162.469C162.695 194.055 164.109 195.062 165.898 195.062ZM165.852 190.867C164.453 190.867 163.539 189.727 163.539 187.906C163.539 186.086 164.453 184.93 165.852 184.93C167.266 184.93 168.211 186.117 168.211 187.906C168.211 189.695 167.266 190.867 165.852 190.867ZM172.094 182.43C172.57 182.43 172.945 182.047 172.945 181.578C172.945 181.102 172.57 180.727 172.094 180.727C171.625 180.727 171.242 181.102 171.242 181.578C171.242 182.047 171.625 182.43 172.094 182.43ZM171.414 192H172.773V183.875H171.414V192ZM181.273 183.875H179.859L177.609 190.555H177.578L175.336 183.875H173.906L176.898 192H178.289L181.273 183.875ZM187.5 189.672C187.273 190.438 186.516 190.961 185.484 190.961C184.023 190.961 183.109 189.938 183.109 188.383V188.305H188.938V187.789C188.938 185.328 187.586 183.734 185.391 183.734C183.148 183.734 181.711 185.445 181.711 187.969C181.711 190.523 183.125 192.141 185.453 192.141C187.227 192.141 188.602 191.094 188.836 189.672H187.5ZM185.367 184.914C186.648 184.914 187.5 185.883 187.531 187.242H183.117C183.203 185.891 184.094 184.914 185.367 184.914ZM34.7656 212.141C35.8594 212.141 36.8906 211.531 37.375 210.602H37.4062V212H38.6953V206.383C38.6953 204.766 37.4922 203.734 35.5859 203.734C33.6641 203.734 32.4609 204.812 32.3672 206.219H33.6797C33.8516 205.422 34.5078 204.93 35.5547 204.93C36.6797 204.93 37.3359 205.523 37.3359 206.516V207.195L35.0078 207.328C33.1328 207.438 32.0625 208.312 32.0625 209.703C32.0625 211.164 33.1484 212.141 34.7656 212.141ZM35.0703 210.984C34.0938 210.984 33.4453 210.477 33.4453 209.703C33.4453 208.938 34.0703 208.453 35.1641 208.383L37.3359 208.25V208.914C37.3359 210.086 36.3516 210.984 35.0703 210.984ZM50.3672 203.875H48.9531L46.7031 210.555H46.6719L44.4297 203.875H43L45.9922 212H47.3828L50.3672 203.875ZM53.6562 212.141C54.75 212.141 55.7812 211.531 56.2656 210.602H56.2969V212H57.5859V206.383C57.5859 204.766 56.3828 203.734 54.4766 203.734C52.5547 203.734 51.3516 204.812 51.2578 206.219H52.5703C52.7422 205.422 53.3984 204.93 54.4453 204.93C55.5703 204.93 56.2266 205.523 56.2266 206.516V207.195L53.8984 207.328C52.0234 207.438 50.9531 208.312 50.9531 209.703C50.9531 211.164 52.0391 212.141 53.6562 212.141ZM53.9609 210.984C52.9844 210.984 52.3359 210.477 52.3359 209.703C52.3359 208.938 52.9609 208.453 54.0547 208.383L56.2266 208.25V208.914C56.2266 210.086 55.2422 210.984 53.9609 210.984ZM59.3125 212H60.6719V206.938C60.6719 205.789 61.3594 205.031 62.4141 205.031C62.7422 205.031 63.0312 205.07 63.1406 205.109V203.789C63.0312 203.773 62.8281 203.734 62.5938 203.734C61.6406 203.734 60.8906 204.305 60.625 205.203H60.5938V203.875H59.3125V212ZM65 202.43C65.4766 202.43 65.8516 202.047 65.8516 201.578C65.8516 201.102 65.4766 200.727 65 200.727C64.5312 200.727 64.1484 201.102 64.1484 201.578C64.1484 202.047 64.5312 202.43 65 202.43ZM64.3203 212H65.6797V203.875H64.3203V212ZM69.8906 212.141C70.9844 212.141 72.0156 211.531 72.5 210.602H72.5312V212H73.8203V206.383C73.8203 204.766 72.6172 203.734 70.7109 203.734C68.7891 203.734 67.5859 204.812 67.4922 206.219H68.8047C68.9766 205.422 69.6328 204.93 70.6797 204.93C71.8047 204.93 72.4609 205.523 72.4609 206.516V207.195L70.1328 207.328C68.2578 207.438 67.1875 208.312 67.1875 209.703C67.1875 211.164 68.2734 212.141 69.8906 212.141ZM70.1953 210.984C69.2188 210.984 68.5703 210.477 68.5703 209.703C68.5703 208.938 69.1953 208.453 70.2891 208.383L72.4609 208.25V208.914C72.4609 210.086 71.4766 210.984 70.1953 210.984ZM79.5859 212.141C81.6641 212.141 83.0391 210.492 83.0391 207.938C83.0391 205.391 81.6562 203.734 79.6094 203.734C78.4609 203.734 77.5156 204.305 77.0078 205.234H76.9766V200.727H75.6172V212H76.9141V210.625H76.9453C77.4688 211.562 78.3984 212.141 79.5859 212.141ZM79.3203 204.93C80.7578 204.93 81.6484 206.094 81.6484 207.938C81.6484 209.797 80.7578 210.945 79.3203 210.945C77.9453 210.945 76.9688 209.75 76.9688 207.938C76.9688 206.133 77.9453 204.93 79.3203 204.93ZM84.4922 212H85.8516V200.727H84.4922V212ZM93.0781 209.672C92.8516 210.438 92.0938 210.961 91.0625 210.961C89.6016 210.961 88.6875 209.938 88.6875 208.383V208.305H94.5156V207.789C94.5156 205.328 93.1641 203.734 90.9688 203.734C88.7266 203.734 87.2891 205.445 87.2891 207.969C87.2891 210.523 88.7031 212.141 91.0312 212.141C92.8047 212.141 94.1797 211.094 94.4141 209.672H93.0781ZM90.9453 204.914C92.2266 204.914 93.0781 205.883 93.1094 207.242H88.6953C88.7812 205.891 89.6719 204.914 90.9453 204.914ZM101.547 212.141C102.641 212.141 103.672 211.531 104.156 210.602H104.188V212H105.477V206.383C105.477 204.766 104.273 203.734 102.367 203.734C100.445 203.734 99.2422 204.812 99.1484 206.219H100.461C100.633 205.422 101.289 204.93 102.336 204.93C103.461 204.93 104.117 205.523 104.117 206.516V207.195L101.789 207.328C99.9141 207.438 98.8438 208.312 98.8438 209.703C98.8438 211.164 99.9297 212.141 101.547 212.141ZM101.852 210.984C100.875 210.984 100.227 210.477 100.227 209.703C100.227 208.938 100.852 208.453 101.945 208.383L104.117 208.25V208.914C104.117 210.086 103.133 210.984 101.852 210.984ZM110.484 212H111.844V207.219C111.844 205.844 112.68 204.938 113.961 204.938C115.211 204.938 115.828 205.656 115.828 206.969V212H117.188V206.727C117.188 204.883 116.156 203.734 114.375 203.734C113.117 203.734 112.25 204.297 111.797 205.172H111.766V203.875H110.484V212ZM124.312 209.672C124.086 210.438 123.328 210.961 122.297 210.961C120.836 210.961 119.922 209.938 119.922 208.383V208.305H125.75V207.789C125.75 205.328 124.398 203.734 122.203 203.734C119.961 203.734 118.523 205.445 118.523 207.969C118.523 210.523 119.938 212.141 122.266 212.141C124.039 212.141 125.414 211.094 125.648 209.672H124.312ZM122.18 204.914C123.461 204.914 124.312 205.883 124.344 207.242H119.93C120.016 205.891 120.906 204.914 122.18 204.914ZM137.461 203.875H136.117L134.492 210.484H134.461L132.617 203.875H131.305L129.469 210.484H129.438L127.812 203.875H126.461L128.734 212H130.117L131.945 205.711H131.977L133.812 212H135.195L137.461 203.875ZM148.523 203.875H147.109L144.859 210.555H144.828L142.586 203.875H141.156L144.148 212H145.539L148.523 203.875ZM151.812 212.141C152.906 212.141 153.938 211.531 154.422 210.602H154.453V212H155.742V206.383C155.742 204.766 154.539 203.734 152.633 203.734C150.711 203.734 149.508 204.812 149.414 206.219H150.727C150.898 205.422 151.555 204.93 152.602 204.93C153.727 204.93 154.383 205.523 154.383 206.516V207.195L152.055 207.328C150.18 207.438 149.109 208.312 149.109 209.703C149.109 211.164 150.195 212.141 151.812 212.141ZM152.117 210.984C151.141 210.984 150.492 210.477 150.492 209.703C150.492 208.938 151.117 208.453 152.211 208.383L154.383 208.25V208.914C154.383 210.086 153.398 210.984 152.117 210.984ZM157.539 212H158.898V200.727H157.539V212ZM167.406 203.875H166.047V208.648C166.047 210.031 165.25 210.938 163.93 210.938C162.672 210.938 162.055 210.227 162.055 208.906V203.875H160.695V209.148C160.695 210.992 161.734 212.141 163.508 212.141C164.758 212.141 165.602 211.617 166.086 210.68H166.117V212H167.406V203.875ZM174.562 209.672C174.336 210.438 173.578 210.961 172.547 210.961C171.086 210.961 170.172 209.938 170.172 208.383V208.305H176V207.789C176 205.328 174.648 203.734 172.453 203.734C170.211 203.734 168.773 205.445 168.773 207.969C168.773 210.523 170.188 212.141 172.516 212.141C174.289 212.141 175.664 211.094 175.898 209.672H174.562ZM172.43 204.914C173.711 204.914 174.562 205.883 174.594 207.242H170.18C170.266 205.891 171.156 204.914 172.43 204.914Z" fill="black"/>
</svg>
