<svg width="600" height="600" viewBox="0 0 600 600" fill="none" xmlns="http://www.w3.org/2000/svg">
    <g clip-path="url(#clip0)">
        <path d="M228.669 356.727C228.447 333.849 243.453 310.932 273.686 293.477C333.712 258.821 431.033 258.821 491.059 293.477C521.292 310.932 536.297 333.849 536.075 356.727C536.079 357.06 536.079 357.394 536.075 357.727C536.079 358.06 536.079 358.394 536.075 358.727C536.079 359.06 536.079 359.394 536.075 359.727C536.079 360.06 536.079 360.394 536.075 360.727C536.079 361.06 536.079 361.394 536.075 361.727C536.076 361.8 536.077 361.873 536.077 361.946C536.077 362.011 536.078 362.076 536.078 362.14C536.078 362.336 536.077 362.531 536.075 362.727C536.079 363.06 536.079 363.394 536.075 363.727C536.077 363.893 536.078 364.058 536.078 364.224L536.078 364.374C536.077 364.43 536.077 364.487 536.077 364.543C536.076 364.604 536.076 364.666 536.075 364.727C536.077 364.923 536.078 365.118 536.078 365.314C536.078 365.452 536.077 365.589 536.075 365.727C536.079 366.06 536.079 366.394 536.075 366.727C536.077 366.868 536.078 367.01 536.078 367.151C536.078 367.343 536.077 367.535 536.075 367.727C536.079 368.06 536.079 368.394 536.075 368.727C536.079 369.06 536.079 369.394 536.075 369.727C536.079 370.06 536.079 370.394 536.075 370.727C536.079 371.06 536.079 371.394 536.075 371.727C536.079 372.06 536.079 372.394 536.075 372.727C536.079 373.06 536.079 373.394 536.075 373.727L536.076 373.823L536.077 373.956C536.078 374.021 536.078 374.086 536.078 374.152C536.078 374.343 536.077 374.535 536.075 374.727C536.079 375.06 536.079 375.394 536.075 375.727C536.079 376.06 536.079 376.394 536.075 376.727C536.079 377.06 536.079 377.394 536.075 377.727C536.079 378.06 536.079 378.394 536.075 378.727C536.079 379.06 536.079 379.394 536.075 379.727C536.079 380.06 536.079 380.394 536.075 380.727C536.079 381.06 536.079 381.394 536.075 381.727C536.079 382.06 536.079 382.394 536.075 382.727C536.077 382.893 536.078 383.06 536.078 383.226C536.078 383.393 536.077 383.56 536.075 383.727C536.079 384.06 536.079 384.394 536.075 384.727C536.079 385.06 536.079 385.394 536.075 385.727C536.077 385.872 536.078 386.017 536.078 386.162C536.078 386.351 536.077 386.539 536.075 386.727C536.079 387.06 536.079 387.394 536.075 387.727C536.079 388.06 536.079 388.394 536.075 388.727C536.079 389.06 536.079 389.394 536.075 389.727C536.079 390.06 536.079 390.394 536.075 390.727C536.079 391.06 536.079 391.394 536.075 391.727C536.079 392.06 536.079 392.394 536.075 392.727C536.076 392.793 536.077 392.859 536.077 392.925L536.078 393.066C536.078 393.286 536.078 393.507 536.075 393.727C536.079 394.06 536.079 394.394 536.075 394.727C536.079 395.06 536.079 395.394 536.075 395.727C536.079 396.06 536.079 396.394 536.075 396.727C536.079 397.06 536.079 397.394 536.075 397.727C536.079 398.06 536.079 398.394 536.075 398.727C536.079 399.06 536.079 399.394 536.075 399.727C536.079 400.06 536.079 400.394 536.075 400.727C536.079 401.06 536.079 401.394 536.075 401.727C536.079 402.06 536.079 402.394 536.075 402.727C536.079 403.06 536.079 403.394 536.075 403.727C536.079 404.06 536.079 404.394 536.075 404.727C536.297 427.604 521.292 450.522 491.059 467.977C431.033 502.633 333.712 502.633 273.686 467.977C243.453 450.522 228.447 427.604 228.669 404.727C228.666 404.393 228.666 404.06 228.669 403.727C228.666 403.393 228.666 403.06 228.669 402.727C228.666 402.393 228.666 402.06 228.669 401.727C228.666 401.393 228.666 401.06 228.669 400.727C228.666 400.393 228.666 400.06 228.669 399.727C228.666 399.393 228.666 399.06 228.669 398.727C228.666 398.393 228.666 398.06 228.669 397.727C228.666 397.393 228.666 397.06 228.669 396.727C228.666 396.393 228.666 396.06 228.669 395.727C228.666 395.393 228.666 395.06 228.669 394.727C228.666 394.393 228.666 394.06 228.669 393.727C228.666 393.393 228.666 393.06 228.669 392.727C228.666 392.393 228.666 392.06 228.669 391.727C228.666 391.393 228.666 391.06 228.669 390.727C228.666 390.393 228.666 390.06 228.669 389.727C228.666 389.393 228.666 389.06 228.669 388.727C228.666 388.393 228.666 388.06 228.669 387.727C228.666 387.393 228.666 387.06 228.669 386.727C228.666 386.393 228.666 386.06 228.669 385.727C228.666 385.393 228.666 385.06 228.669 384.727C228.666 384.393 228.666 384.06 228.669 383.727C228.666 383.393 228.666 383.06 228.669 382.727C228.666 382.393 228.666 382.06 228.669 381.727C228.666 381.393 228.666 381.06 228.669 380.727C228.666 380.393 228.666 380.06 228.669 379.727C228.666 379.393 228.666 379.06 228.669 378.727C228.666 378.393 228.666 378.06 228.669 377.727C228.666 377.393 228.666 377.06 228.669 376.727C228.666 376.393 228.666 376.06 228.669 375.727C228.666 375.393 228.666 375.06 228.669 374.727C228.666 374.393 228.666 374.06 228.669 373.727C228.666 373.393 228.666 373.06 228.669 372.727C228.666 372.393 228.666 372.06 228.669 371.727C228.666 371.393 228.666 371.06 228.669 370.727C228.666 370.393 228.666 370.06 228.669 369.727C228.666 369.393 228.666 369.06 228.669 368.727C228.666 368.393 228.666 368.06 228.669 367.727C228.666 367.393 228.666 367.06 228.669 366.727C228.666 366.393 228.666 366.06 228.669 365.727C228.666 365.393 228.666 365.06 228.669 364.727C228.666 364.393 228.666 364.06 228.669 363.727C228.666 363.393 228.666 363.06 228.669 362.727C228.666 362.393 228.666 362.06 228.669 361.727C228.666 361.393 228.666 361.06 228.669 360.727C228.666 360.393 228.666 360.06 228.669 359.727C228.666 359.393 228.666 359.06 228.669 358.727C228.666 358.393 228.666 358.06 228.669 357.727C228.666 357.393 228.666 357.06 228.669 356.727Z" fill="#E1E8FF"/>
        <path d="M228.669 356.727C228.447 333.849 243.453 310.932 273.686 293.477C333.712 258.821 431.033 258.821 491.059 293.477C521.292 310.932 536.297 333.849 536.075 356.727C536.079 357.06 536.079 357.394 536.075 357.727C536.079 358.06 536.079 358.394 536.075 358.727C536.079 359.06 536.079 359.394 536.075 359.727C536.079 360.06 536.079 360.394 536.075 360.727C536.079 361.06 536.079 361.394 536.075 361.727C536.076 361.8 536.077 361.873 536.077 361.946C536.077 362.011 536.078 362.076 536.078 362.14C536.078 362.336 536.077 362.531 536.075 362.727C536.079 363.06 536.079 363.394 536.075 363.727C536.077 363.893 536.078 364.058 536.078 364.224L536.078 364.374C536.077 364.43 536.077 364.487 536.077 364.543C536.076 364.604 536.076 364.666 536.075 364.727C536.077 364.923 536.078 365.118 536.078 365.314C536.078 365.452 536.077 365.589 536.075 365.727C536.079 366.06 536.079 366.394 536.075 366.727C536.077 366.868 536.078 367.01 536.078 367.151C536.078 367.343 536.077 367.535 536.075 367.727C536.079 368.06 536.079 368.394 536.075 368.727C536.079 369.06 536.079 369.394 536.075 369.727C536.079 370.06 536.079 370.394 536.075 370.727C536.079 371.06 536.079 371.394 536.075 371.727C536.079 372.06 536.079 372.394 536.075 372.727C536.079 373.06 536.079 373.394 536.075 373.727L536.076 373.823L536.077 373.956C536.078 374.021 536.078 374.086 536.078 374.152C536.078 374.343 536.077 374.535 536.075 374.727C536.079 375.06 536.079 375.394 536.075 375.727C536.079 376.06 536.079 376.394 536.075 376.727C536.079 377.06 536.079 377.394 536.075 377.727C536.079 378.06 536.079 378.394 536.075 378.727C536.079 379.06 536.079 379.394 536.075 379.727C536.079 380.06 536.079 380.394 536.075 380.727C536.079 381.06 536.079 381.394 536.075 381.727C536.079 382.06 536.079 382.394 536.075 382.727C536.077 382.893 536.078 383.06 536.078 383.226C536.078 383.393 536.077 383.56 536.075 383.727C536.079 384.06 536.079 384.394 536.075 384.727C536.079 385.06 536.079 385.394 536.075 385.727C536.077 385.872 536.078 386.017 536.078 386.162C536.078 386.351 536.077 386.539 536.075 386.727C536.079 387.06 536.079 387.394 536.075 387.727C536.079 388.06 536.079 388.394 536.075 388.727C536.079 389.06 536.079 389.394 536.075 389.727C536.079 390.06 536.079 390.394 536.075 390.727C536.079 391.06 536.079 391.394 536.075 391.727C536.079 392.06 536.079 392.394 536.075 392.727C536.076 392.793 536.077 392.859 536.077 392.925L536.078 393.066C536.078 393.286 536.078 393.507 536.075 393.727C536.079 394.06 536.079 394.394 536.075 394.727C536.079 395.06 536.079 395.394 536.075 395.727C536.079 396.06 536.079 396.394 536.075 396.727C536.079 397.06 536.079 397.394 536.075 397.727C536.079 398.06 536.079 398.394 536.075 398.727C536.079 399.06 536.079 399.394 536.075 399.727C536.079 400.06 536.079 400.394 536.075 400.727C536.079 401.06 536.079 401.394 536.075 401.727C536.079 402.06 536.079 402.394 536.075 402.727C536.079 403.06 536.079 403.394 536.075 403.727C536.079 404.06 536.079 404.394 536.075 404.727C536.297 427.604 521.292 450.522 491.059 467.977C431.033 502.633 333.712 502.633 273.686 467.977C243.453 450.522 228.447 427.604 228.669 404.727C228.666 404.393 228.666 404.06 228.669 403.727C228.666 403.393 228.666 403.06 228.669 402.727C228.666 402.393 228.666 402.06 228.669 401.727C228.666 401.393 228.666 401.06 228.669 400.727C228.666 400.393 228.666 400.06 228.669 399.727C228.666 399.393 228.666 399.06 228.669 398.727C228.666 398.393 228.666 398.06 228.669 397.727C228.666 397.393 228.666 397.06 228.669 396.727C228.666 396.393 228.666 396.06 228.669 395.727C228.666 395.393 228.666 395.06 228.669 394.727C228.666 394.393 228.666 394.06 228.669 393.727C228.666 393.393 228.666 393.06 228.669 392.727C228.666 392.393 228.666 392.06 228.669 391.727C228.666 391.393 228.666 391.06 228.669 390.727C228.666 390.393 228.666 390.06 228.669 389.727C228.666 389.393 228.666 389.06 228.669 388.727C228.666 388.393 228.666 388.06 228.669 387.727C228.666 387.393 228.666 387.06 228.669 386.727C228.666 386.393 228.666 386.06 228.669 385.727C228.666 385.393 228.666 385.06 228.669 384.727C228.666 384.393 228.666 384.06 228.669 383.727C228.666 383.393 228.666 383.06 228.669 382.727C228.666 382.393 228.666 382.06 228.669 381.727C228.666 381.393 228.666 381.06 228.669 380.727C228.666 380.393 228.666 380.06 228.669 379.727C228.666 379.393 228.666 379.06 228.669 378.727C228.666 378.393 228.666 378.06 228.669 377.727C228.666 377.393 228.666 377.06 228.669 376.727C228.666 376.393 228.666 376.06 228.669 375.727C228.666 375.393 228.666 375.06 228.669 374.727C228.666 374.393 228.666 374.06 228.669 373.727C228.666 373.393 228.666 373.06 228.669 372.727C228.666 372.393 228.666 372.06 228.669 371.727C228.666 371.393 228.666 371.06 228.669 370.727C228.666 370.393 228.666 370.06 228.669 369.727C228.666 369.393 228.666 369.06 228.669 368.727C228.666 368.393 228.666 368.06 228.669 367.727C228.666 367.393 228.666 367.06 228.669 366.727C228.666 366.393 228.666 366.06 228.669 365.727C228.666 365.393 228.666 365.06 228.669 364.727C228.666 364.393 228.666 364.06 228.669 363.727C228.666 363.393 228.666 363.06 228.669 362.727C228.666 362.393 228.666 362.06 228.669 361.727C228.666 361.393 228.666 361.06 228.669 360.727C228.666 360.393 228.666 360.06 228.669 359.727C228.666 359.393 228.666 359.06 228.669 358.727C228.666 358.393 228.666 358.06 228.669 357.727C228.666 357.393 228.666 357.06 228.669 356.727Z" fill="url(#paint0_linear)"/>
        <circle r="125.5" transform="matrix(0.866025 0.5 -0.866025 0.5 382.372 355.227)" fill="#3C4257"/>
        <path d="M228.669 275.485C228.447 252.607 243.453 229.69 273.686 212.235C333.712 177.579 431.033 177.579 491.059 212.235C521.292 229.69 536.297 252.607 536.075 275.485C536.079 275.818 536.079 276.151 536.075 276.485C536.079 276.818 536.079 277.151 536.075 277.485C536.079 277.818 536.079 278.151 536.075 278.485C536.079 278.818 536.079 279.152 536.075 279.485C536.079 279.818 536.079 280.151 536.075 280.485C536.076 280.558 536.077 280.631 536.077 280.704C536.077 280.769 536.078 280.833 536.078 280.898C536.078 281.094 536.077 281.289 536.075 281.485C536.079 281.818 536.079 282.152 536.075 282.485C536.077 282.65 536.078 282.816 536.078 282.982L536.078 283.132C536.077 283.188 536.077 283.244 536.077 283.3C536.076 283.362 536.076 283.423 536.075 283.485C536.077 283.68 536.078 283.876 536.078 284.072C536.078 284.209 536.077 284.347 536.075 284.485C536.079 284.818 536.079 285.152 536.075 285.485C536.077 285.626 536.078 285.768 536.078 285.909C536.078 286.101 536.077 286.293 536.075 286.485C536.079 286.818 536.079 287.152 536.075 287.485C536.079 287.818 536.079 288.152 536.075 288.485C536.079 288.818 536.079 289.151 536.075 289.485C536.079 289.818 536.079 290.152 536.075 290.485C536.079 290.818 536.079 291.152 536.075 291.485C536.079 291.818 536.079 292.151 536.075 292.485L536.076 292.581L536.077 292.714C536.078 292.779 536.078 292.844 536.078 292.909C536.078 293.101 536.077 293.293 536.075 293.485C536.079 293.818 536.079 294.152 536.075 294.485C536.079 294.818 536.079 295.151 536.075 295.485C536.079 295.818 536.079 296.152 536.075 296.485C536.079 296.818 536.079 297.152 536.075 297.485C536.079 297.818 536.079 298.151 536.075 298.485C536.079 298.818 536.079 299.152 536.075 299.485C536.079 299.818 536.079 300.152 536.075 300.485C536.079 300.818 536.079 301.151 536.075 301.485C536.077 301.651 536.078 301.818 536.078 301.984C536.078 302.151 536.077 302.318 536.075 302.485C536.079 302.818 536.079 303.152 536.075 303.485C536.079 303.818 536.079 304.151 536.075 304.485C536.077 304.63 536.078 304.775 536.078 304.92C536.078 305.108 536.077 305.297 536.075 305.485C536.079 305.818 536.079 306.152 536.075 306.485C536.079 306.818 536.079 307.151 536.075 307.485C536.079 307.818 536.079 308.152 536.075 308.485C536.079 308.818 536.079 309.152 536.075 309.485C536.079 309.818 536.079 310.151 536.075 310.485C536.079 310.818 536.079 311.152 536.075 311.485C536.076 311.551 536.077 311.617 536.077 311.682L536.078 311.824C536.078 312.044 536.078 312.265 536.075 312.485C536.079 312.818 536.079 313.151 536.075 313.485C536.079 313.818 536.079 314.152 536.075 314.485C536.079 314.818 536.079 315.152 536.075 315.485C536.079 315.818 536.079 316.151 536.075 316.485C536.079 316.818 536.079 317.152 536.075 317.485C536.079 317.818 536.079 318.152 536.075 318.485C536.079 318.818 536.079 319.151 536.075 319.485C536.079 319.818 536.079 320.152 536.075 320.485C536.079 320.818 536.079 321.152 536.075 321.485C536.079 321.818 536.079 322.151 536.075 322.485C536.079 322.818 536.079 323.152 536.075 323.485C536.297 346.362 521.292 369.28 491.059 386.735C431.033 421.39 333.712 421.39 273.686 386.735C243.453 369.279 228.447 346.362 228.669 323.485C228.666 323.151 228.666 322.818 228.669 322.485C228.666 322.151 228.666 321.818 228.669 321.485C228.666 321.151 228.666 320.818 228.669 320.485C228.666 320.151 228.666 319.818 228.669 319.485C228.666 319.151 228.666 318.818 228.669 318.485C228.666 318.151 228.666 317.818 228.669 317.485C228.666 317.151 228.666 316.818 228.669 316.485C228.666 316.151 228.666 315.818 228.669 315.485C228.666 315.151 228.666 314.818 228.669 314.485C228.666 314.151 228.666 313.818 228.669 313.485C228.666 313.151 228.666 312.818 228.669 312.485C228.666 312.151 228.666 311.818 228.669 311.485C228.666 311.151 228.666 310.818 228.669 310.485C228.666 310.151 228.666 309.818 228.669 309.485C228.666 309.151 228.666 308.818 228.669 308.485C228.666 308.151 228.666 307.818 228.669 307.485C228.666 307.151 228.666 306.818 228.669 306.485C228.666 306.151 228.666 305.818 228.669 305.485C228.666 305.151 228.666 304.818 228.669 304.485C228.666 304.151 228.666 303.818 228.669 303.485C228.666 303.151 228.666 302.818 228.669 302.485C228.666 302.151 228.666 301.818 228.669 301.485C228.666 301.151 228.666 300.818 228.669 300.485C228.666 300.151 228.666 299.818 228.669 299.485C228.666 299.151 228.666 298.818 228.669 298.485C228.666 298.151 228.666 297.818 228.669 297.485C228.666 297.151 228.666 296.818 228.669 296.485C228.666 296.151 228.666 295.818 228.669 295.485C228.666 295.151 228.666 294.818 228.669 294.485C228.666 294.151 228.666 293.818 228.669 293.485C228.666 293.151 228.666 292.818 228.669 292.485C228.666 292.151 228.666 291.818 228.669 291.485C228.666 291.151 228.666 290.818 228.669 290.485C228.666 290.151 228.666 289.818 228.669 289.485C228.666 289.151 228.666 288.818 228.669 288.485C228.666 288.151 228.666 287.818 228.669 287.485C228.666 287.151 228.666 286.818 228.669 286.485C228.666 286.151 228.666 285.818 228.669 285.485C228.666 285.151 228.666 284.818 228.669 284.485C228.666 284.151 228.666 283.818 228.669 283.485C228.666 283.151 228.666 282.818 228.669 282.485C228.666 282.151 228.666 281.818 228.669 281.485C228.666 281.151 228.666 280.818 228.669 280.485C228.666 280.151 228.666 279.818 228.669 279.485C228.666 279.151 228.666 278.818 228.669 278.485C228.666 278.151 228.666 277.818 228.669 277.485C228.666 277.151 228.666 276.818 228.669 276.485C228.666 276.151 228.666 275.818 228.669 275.485Z" fill="#E1E8FF"/>
        <path d="M228.669 275.485C228.447 252.607 243.453 229.69 273.686 212.235C333.712 177.579 431.033 177.579 491.059 212.235C521.292 229.69 536.297 252.607 536.075 275.485C536.079 275.818 536.079 276.151 536.075 276.485C536.079 276.818 536.079 277.151 536.075 277.485C536.079 277.818 536.079 278.151 536.075 278.485C536.079 278.818 536.079 279.152 536.075 279.485C536.079 279.818 536.079 280.151 536.075 280.485C536.076 280.558 536.077 280.631 536.077 280.704C536.077 280.769 536.078 280.833 536.078 280.898C536.078 281.094 536.077 281.289 536.075 281.485C536.079 281.818 536.079 282.152 536.075 282.485C536.077 282.65 536.078 282.816 536.078 282.982L536.078 283.132C536.077 283.188 536.077 283.244 536.077 283.3C536.076 283.362 536.076 283.423 536.075 283.485C536.077 283.68 536.078 283.876 536.078 284.072C536.078 284.209 536.077 284.347 536.075 284.485C536.079 284.818 536.079 285.152 536.075 285.485C536.077 285.626 536.078 285.768 536.078 285.909C536.078 286.101 536.077 286.293 536.075 286.485C536.079 286.818 536.079 287.152 536.075 287.485C536.079 287.818 536.079 288.152 536.075 288.485C536.079 288.818 536.079 289.151 536.075 289.485C536.079 289.818 536.079 290.152 536.075 290.485C536.079 290.818 536.079 291.152 536.075 291.485C536.079 291.818 536.079 292.151 536.075 292.485L536.076 292.581L536.077 292.714C536.078 292.779 536.078 292.844 536.078 292.909C536.078 293.101 536.077 293.293 536.075 293.485C536.079 293.818 536.079 294.152 536.075 294.485C536.079 294.818 536.079 295.151 536.075 295.485C536.079 295.818 536.079 296.152 536.075 296.485C536.079 296.818 536.079 297.152 536.075 297.485C536.079 297.818 536.079 298.151 536.075 298.485C536.079 298.818 536.079 299.152 536.075 299.485C536.079 299.818 536.079 300.152 536.075 300.485C536.079 300.818 536.079 301.151 536.075 301.485C536.077 301.651 536.078 301.818 536.078 301.984C536.078 302.151 536.077 302.318 536.075 302.485C536.079 302.818 536.079 303.152 536.075 303.485C536.079 303.818 536.079 304.151 536.075 304.485C536.077 304.63 536.078 304.775 536.078 304.92C536.078 305.108 536.077 305.297 536.075 305.485C536.079 305.818 536.079 306.152 536.075 306.485C536.079 306.818 536.079 307.151 536.075 307.485C536.079 307.818 536.079 308.152 536.075 308.485C536.079 308.818 536.079 309.152 536.075 309.485C536.079 309.818 536.079 310.151 536.075 310.485C536.079 310.818 536.079 311.152 536.075 311.485C536.076 311.551 536.077 311.617 536.077 311.682L536.078 311.824C536.078 312.044 536.078 312.265 536.075 312.485C536.079 312.818 536.079 313.151 536.075 313.485C536.079 313.818 536.079 314.152 536.075 314.485C536.079 314.818 536.079 315.152 536.075 315.485C536.079 315.818 536.079 316.151 536.075 316.485C536.079 316.818 536.079 317.152 536.075 317.485C536.079 317.818 536.079 318.152 536.075 318.485C536.079 318.818 536.079 319.151 536.075 319.485C536.079 319.818 536.079 320.152 536.075 320.485C536.079 320.818 536.079 321.152 536.075 321.485C536.079 321.818 536.079 322.151 536.075 322.485C536.079 322.818 536.079 323.152 536.075 323.485C536.297 346.362 521.292 369.28 491.059 386.735C431.033 421.39 333.712 421.39 273.686 386.735C243.453 369.279 228.447 346.362 228.669 323.485C228.666 323.151 228.666 322.818 228.669 322.485C228.666 322.151 228.666 321.818 228.669 321.485C228.666 321.151 228.666 320.818 228.669 320.485C228.666 320.151 228.666 319.818 228.669 319.485C228.666 319.151 228.666 318.818 228.669 318.485C228.666 318.151 228.666 317.818 228.669 317.485C228.666 317.151 228.666 316.818 228.669 316.485C228.666 316.151 228.666 315.818 228.669 315.485C228.666 315.151 228.666 314.818 228.669 314.485C228.666 314.151 228.666 313.818 228.669 313.485C228.666 313.151 228.666 312.818 228.669 312.485C228.666 312.151 228.666 311.818 228.669 311.485C228.666 311.151 228.666 310.818 228.669 310.485C228.666 310.151 228.666 309.818 228.669 309.485C228.666 309.151 228.666 308.818 228.669 308.485C228.666 308.151 228.666 307.818 228.669 307.485C228.666 307.151 228.666 306.818 228.669 306.485C228.666 306.151 228.666 305.818 228.669 305.485C228.666 305.151 228.666 304.818 228.669 304.485C228.666 304.151 228.666 303.818 228.669 303.485C228.666 303.151 228.666 302.818 228.669 302.485C228.666 302.151 228.666 301.818 228.669 301.485C228.666 301.151 228.666 300.818 228.669 300.485C228.666 300.151 228.666 299.818 228.669 299.485C228.666 299.151 228.666 298.818 228.669 298.485C228.666 298.151 228.666 297.818 228.669 297.485C228.666 297.151 228.666 296.818 228.669 296.485C228.666 296.151 228.666 295.818 228.669 295.485C228.666 295.151 228.666 294.818 228.669 294.485C228.666 294.151 228.666 293.818 228.669 293.485C228.666 293.151 228.666 292.818 228.669 292.485C228.666 292.151 228.666 291.818 228.669 291.485C228.666 291.151 228.666 290.818 228.669 290.485C228.666 290.151 228.666 289.818 228.669 289.485C228.666 289.151 228.666 288.818 228.669 288.485C228.666 288.151 228.666 287.818 228.669 287.485C228.666 287.151 228.666 286.818 228.669 286.485C228.666 286.151 228.666 285.818 228.669 285.485C228.666 285.151 228.666 284.818 228.669 284.485C228.666 284.151 228.666 283.818 228.669 283.485C228.666 283.151 228.666 282.818 228.669 282.485C228.666 282.151 228.666 281.818 228.669 281.485C228.666 281.151 228.666 280.818 228.669 280.485C228.666 280.151 228.666 279.818 228.669 279.485C228.666 279.151 228.666 278.818 228.669 278.485C228.666 278.151 228.666 277.818 228.669 277.485C228.666 277.151 228.666 276.818 228.669 276.485C228.666 276.151 228.666 275.818 228.669 275.485Z" fill="url(#paint1_linear)"/>
        <circle r="125.5" transform="matrix(0.866025 0.5 -0.866025 0.5 382.372 273.984)" fill="#3C4257"/>
        <path d="M228.669 194.242C228.447 171.365 243.453 148.447 273.686 130.992C333.712 96.3365 431.033 96.3365 491.059 130.992C521.292 148.447 536.297 171.365 536.075 194.242C536.079 194.576 536.079 194.909 536.075 195.243C536.079 195.576 536.079 195.909 536.075 196.243C536.079 196.576 536.079 196.909 536.075 197.243C536.079 197.576 536.079 197.909 536.075 198.243C536.079 198.576 536.079 198.909 536.075 199.243C536.076 199.316 536.077 199.389 536.077 199.462C536.077 199.527 536.078 199.591 536.078 199.656C536.078 199.851 536.077 200.047 536.075 200.243C536.079 200.576 536.079 200.909 536.075 201.243C536.077 201.408 536.078 201.574 536.078 201.739L536.078 201.89C536.077 201.946 536.077 202.002 536.077 202.058C536.076 202.12 536.076 202.181 536.075 202.243C536.077 202.438 536.078 202.634 536.078 202.829C536.078 202.967 536.077 203.105 536.075 203.243C536.079 203.576 536.079 203.909 536.075 204.243C536.077 204.384 536.078 204.525 536.078 204.667C536.078 204.859 536.077 205.051 536.075 205.243C536.079 205.576 536.079 205.909 536.075 206.243C536.079 206.576 536.079 206.909 536.075 207.243C536.079 207.576 536.079 207.909 536.075 208.243C536.079 208.576 536.079 208.909 536.075 209.243C536.079 209.576 536.079 209.909 536.075 210.243C536.079 210.576 536.079 210.909 536.075 211.243L536.076 211.339L536.077 211.472C536.078 211.537 536.078 211.602 536.078 211.667C536.078 211.859 536.077 212.051 536.075 212.243C536.079 212.576 536.079 212.909 536.075 213.243C536.079 213.576 536.079 213.909 536.075 214.243C536.079 214.576 536.079 214.909 536.075 215.243C536.079 215.576 536.079 215.909 536.075 216.243C536.079 216.576 536.079 216.909 536.075 217.243C536.079 217.576 536.079 217.909 536.075 218.243C536.079 218.576 536.079 218.909 536.075 219.243C536.079 219.576 536.079 219.909 536.075 220.243C536.077 220.409 536.078 220.575 536.078 220.742C536.078 220.909 536.077 221.076 536.075 221.243C536.079 221.576 536.079 221.909 536.075 222.243C536.079 222.576 536.079 222.909 536.075 223.243C536.077 223.388 536.078 223.533 536.078 223.678C536.078 223.866 536.077 224.054 536.075 224.243C536.079 224.576 536.079 224.909 536.075 225.243C536.079 225.576 536.079 225.909 536.075 226.243C536.079 226.576 536.079 226.909 536.075 227.243C536.079 227.576 536.079 227.909 536.075 228.243C536.079 228.576 536.079 228.909 536.075 229.243C536.079 229.576 536.079 229.909 536.075 230.243C536.076 230.309 536.077 230.374 536.077 230.44L536.078 230.582C536.078 230.802 536.078 231.022 536.075 231.243C536.079 231.576 536.079 231.909 536.075 232.243C536.079 232.576 536.079 232.909 536.075 233.243C536.079 233.576 536.079 233.909 536.075 234.243C536.079 234.576 536.079 234.909 536.075 235.243C536.079 235.576 536.079 235.909 536.075 236.243C536.079 236.576 536.079 236.909 536.075 237.243C536.079 237.576 536.079 237.909 536.075 238.243C536.079 238.576 536.079 238.909 536.075 239.243C536.079 239.576 536.079 239.909 536.075 240.243C536.079 240.576 536.079 240.909 536.075 241.243C536.079 241.576 536.079 241.909 536.075 242.243C536.297 265.12 521.292 288.037 491.059 305.492C431.033 340.148 333.712 340.148 273.686 305.492C243.453 288.037 228.447 265.12 228.669 242.242C228.666 241.909 228.666 241.576 228.669 241.242C228.666 240.909 228.666 240.576 228.669 240.242C228.666 239.909 228.666 239.576 228.669 239.242C228.666 238.909 228.666 238.576 228.669 238.242C228.666 237.909 228.666 237.576 228.669 237.242C228.666 236.909 228.666 236.576 228.669 236.242C228.666 235.909 228.666 235.576 228.669 235.242C228.666 234.909 228.666 234.576 228.669 234.242C228.666 233.909 228.666 233.576 228.669 233.242C228.666 232.909 228.666 232.576 228.669 232.242C228.666 231.909 228.666 231.576 228.669 231.242C228.666 230.909 228.666 230.576 228.669 230.242C228.666 229.909 228.666 229.576 228.669 229.242C228.666 228.909 228.666 228.576 228.669 228.242C228.666 227.909 228.666 227.576 228.669 227.242C228.666 226.909 228.666 226.576 228.669 226.242C228.666 225.909 228.666 225.576 228.669 225.242C228.666 224.909 228.666 224.576 228.669 224.242C228.666 223.909 228.666 223.576 228.669 223.242C228.666 222.909 228.666 222.576 228.669 222.242C228.666 221.909 228.666 221.576 228.669 221.242C228.666 220.909 228.666 220.576 228.669 220.242C228.666 219.909 228.666 219.576 228.669 219.242C228.666 218.909 228.666 218.576 228.669 218.242C228.666 217.909 228.666 217.576 228.669 217.242C228.666 216.909 228.666 216.576 228.669 216.242C228.666 215.909 228.666 215.576 228.669 215.242C228.666 214.909 228.666 214.576 228.669 214.242C228.666 213.909 228.666 213.576 228.669 213.242C228.666 212.909 228.666 212.576 228.669 212.242C228.666 211.909 228.666 211.576 228.669 211.242C228.666 210.909 228.666 210.576 228.669 210.242C228.666 209.909 228.666 209.576 228.669 209.242C228.666 208.909 228.666 208.576 228.669 208.242C228.666 207.909 228.666 207.576 228.669 207.242C228.666 206.909 228.666 206.576 228.669 206.242C228.666 205.909 228.666 205.576 228.669 205.242C228.666 204.909 228.666 204.576 228.669 204.242C228.666 203.909 228.666 203.576 228.669 203.242C228.666 202.909 228.666 202.576 228.669 202.242C228.666 201.909 228.666 201.576 228.669 201.242C228.666 200.909 228.666 200.576 228.669 200.242C228.666 199.909 228.666 199.576 228.669 199.242C228.666 198.909 228.666 198.576 228.669 198.242C228.666 197.909 228.666 197.576 228.669 197.242C228.666 196.909 228.666 196.576 228.669 196.242C228.666 195.909 228.666 195.576 228.669 195.242C228.666 194.909 228.666 194.576 228.669 194.242Z" fill="#E1E8FF"/>
        <path d="M228.669 194.242C228.447 171.365 243.453 148.447 273.686 130.992C333.712 96.3365 431.033 96.3365 491.059 130.992C521.292 148.447 536.297 171.365 536.075 194.242C536.079 194.576 536.079 194.909 536.075 195.243C536.079 195.576 536.079 195.909 536.075 196.243C536.079 196.576 536.079 196.909 536.075 197.243C536.079 197.576 536.079 197.909 536.075 198.243C536.079 198.576 536.079 198.909 536.075 199.243C536.076 199.316 536.077 199.389 536.077 199.462C536.077 199.527 536.078 199.591 536.078 199.656C536.078 199.851 536.077 200.047 536.075 200.243C536.079 200.576 536.079 200.909 536.075 201.243C536.077 201.408 536.078 201.574 536.078 201.739L536.078 201.89C536.077 201.946 536.077 202.002 536.077 202.058C536.076 202.12 536.076 202.181 536.075 202.243C536.077 202.438 536.078 202.634 536.078 202.829C536.078 202.967 536.077 203.105 536.075 203.243C536.079 203.576 536.079 203.909 536.075 204.243C536.077 204.384 536.078 204.525 536.078 204.667C536.078 204.859 536.077 205.051 536.075 205.243C536.079 205.576 536.079 205.909 536.075 206.243C536.079 206.576 536.079 206.909 536.075 207.243C536.079 207.576 536.079 207.909 536.075 208.243C536.079 208.576 536.079 208.909 536.075 209.243C536.079 209.576 536.079 209.909 536.075 210.243C536.079 210.576 536.079 210.909 536.075 211.243L536.076 211.339L536.077 211.472C536.078 211.537 536.078 211.602 536.078 211.667C536.078 211.859 536.077 212.051 536.075 212.243C536.079 212.576 536.079 212.909 536.075 213.243C536.079 213.576 536.079 213.909 536.075 214.243C536.079 214.576 536.079 214.909 536.075 215.243C536.079 215.576 536.079 215.909 536.075 216.243C536.079 216.576 536.079 216.909 536.075 217.243C536.079 217.576 536.079 217.909 536.075 218.243C536.079 218.576 536.079 218.909 536.075 219.243C536.079 219.576 536.079 219.909 536.075 220.243C536.077 220.409 536.078 220.575 536.078 220.742C536.078 220.909 536.077 221.076 536.075 221.243C536.079 221.576 536.079 221.909 536.075 222.243C536.079 222.576 536.079 222.909 536.075 223.243C536.077 223.388 536.078 223.533 536.078 223.678C536.078 223.866 536.077 224.054 536.075 224.243C536.079 224.576 536.079 224.909 536.075 225.243C536.079 225.576 536.079 225.909 536.075 226.243C536.079 226.576 536.079 226.909 536.075 227.243C536.079 227.576 536.079 227.909 536.075 228.243C536.079 228.576 536.079 228.909 536.075 229.243C536.079 229.576 536.079 229.909 536.075 230.243C536.076 230.309 536.077 230.374 536.077 230.44L536.078 230.582C536.078 230.802 536.078 231.022 536.075 231.243C536.079 231.576 536.079 231.909 536.075 232.243C536.079 232.576 536.079 232.909 536.075 233.243C536.079 233.576 536.079 233.909 536.075 234.243C536.079 234.576 536.079 234.909 536.075 235.243C536.079 235.576 536.079 235.909 536.075 236.243C536.079 236.576 536.079 236.909 536.075 237.243C536.079 237.576 536.079 237.909 536.075 238.243C536.079 238.576 536.079 238.909 536.075 239.243C536.079 239.576 536.079 239.909 536.075 240.243C536.079 240.576 536.079 240.909 536.075 241.243C536.079 241.576 536.079 241.909 536.075 242.243C536.297 265.12 521.292 288.037 491.059 305.492C431.033 340.148 333.712 340.148 273.686 305.492C243.453 288.037 228.447 265.12 228.669 242.242C228.666 241.909 228.666 241.576 228.669 241.242C228.666 240.909 228.666 240.576 228.669 240.242C228.666 239.909 228.666 239.576 228.669 239.242C228.666 238.909 228.666 238.576 228.669 238.242C228.666 237.909 228.666 237.576 228.669 237.242C228.666 236.909 228.666 236.576 228.669 236.242C228.666 235.909 228.666 235.576 228.669 235.242C228.666 234.909 228.666 234.576 228.669 234.242C228.666 233.909 228.666 233.576 228.669 233.242C228.666 232.909 228.666 232.576 228.669 232.242C228.666 231.909 228.666 231.576 228.669 231.242C228.666 230.909 228.666 230.576 228.669 230.242C228.666 229.909 228.666 229.576 228.669 229.242C228.666 228.909 228.666 228.576 228.669 228.242C228.666 227.909 228.666 227.576 228.669 227.242C228.666 226.909 228.666 226.576 228.669 226.242C228.666 225.909 228.666 225.576 228.669 225.242C228.666 224.909 228.666 224.576 228.669 224.242C228.666 223.909 228.666 223.576 228.669 223.242C228.666 222.909 228.666 222.576 228.669 222.242C228.666 221.909 228.666 221.576 228.669 221.242C228.666 220.909 228.666 220.576 228.669 220.242C228.666 219.909 228.666 219.576 228.669 219.242C228.666 218.909 228.666 218.576 228.669 218.242C228.666 217.909 228.666 217.576 228.669 217.242C228.666 216.909 228.666 216.576 228.669 216.242C228.666 215.909 228.666 215.576 228.669 215.242C228.666 214.909 228.666 214.576 228.669 214.242C228.666 213.909 228.666 213.576 228.669 213.242C228.666 212.909 228.666 212.576 228.669 212.242C228.666 211.909 228.666 211.576 228.669 211.242C228.666 210.909 228.666 210.576 228.669 210.242C228.666 209.909 228.666 209.576 228.669 209.242C228.666 208.909 228.666 208.576 228.669 208.242C228.666 207.909 228.666 207.576 228.669 207.242C228.666 206.909 228.666 206.576 228.669 206.242C228.666 205.909 228.666 205.576 228.669 205.242C228.666 204.909 228.666 204.576 228.669 204.242C228.666 203.909 228.666 203.576 228.669 203.242C228.666 202.909 228.666 202.576 228.669 202.242C228.666 201.909 228.666 201.576 228.669 201.242C228.666 200.909 228.666 200.576 228.669 200.242C228.666 199.909 228.666 199.576 228.669 199.242C228.666 198.909 228.666 198.576 228.669 198.242C228.666 197.909 228.666 197.576 228.669 197.242C228.666 196.909 228.666 196.576 228.669 196.242C228.666 195.909 228.666 195.576 228.669 195.242C228.666 194.909 228.666 194.576 228.669 194.242Z" fill="url(#paint2_linear)"/>
        <circle r="125.5" transform="matrix(0.866025 0.5 -0.866025 0.5 382.372 192.742)" fill="#3C4257"/>
        <path d="M228.669 113C228.447 90.1228 243.453 67.2053 273.686 49.7502C333.712 15.0943 431.033 15.0943 491.059 49.7502C521.292 67.2053 536.297 90.1228 536.075 113C536.079 113.334 536.079 113.667 536.075 114.001C536.079 114.334 536.079 114.667 536.075 115C536.079 115.334 536.079 115.667 536.075 116C536.079 116.334 536.079 116.667 536.075 117C536.079 117.334 536.079 117.667 536.075 118C536.076 118.074 536.077 118.147 536.077 118.22C536.077 118.284 536.078 118.349 536.078 118.414C536.078 118.609 536.077 118.805 536.075 119C536.079 119.334 536.079 119.667 536.075 120C536.077 120.166 536.078 120.332 536.078 120.497L536.078 120.648C536.077 120.704 536.077 120.76 536.077 120.816C536.076 120.878 536.076 120.939 536.075 121C536.077 121.196 536.078 121.392 536.078 121.587C536.078 121.725 536.077 121.863 536.075 122C536.079 122.334 536.079 122.667 536.075 123C536.077 123.142 536.078 123.283 536.078 123.424C536.078 123.616 536.077 123.808 536.075 124C536.079 124.334 536.079 124.667 536.075 125C536.079 125.334 536.079 125.667 536.075 126C536.079 126.334 536.079 126.667 536.075 127C536.079 127.334 536.079 127.667 536.075 128C536.079 128.334 536.079 128.667 536.075 129C536.079 129.334 536.079 129.667 536.075 130L536.076 130.097L536.077 130.229C536.078 130.295 536.078 130.36 536.078 130.425C536.078 130.617 536.077 130.809 536.075 131C536.079 131.334 536.079 131.667 536.075 132C536.079 132.334 536.079 132.667 536.075 133C536.079 133.334 536.079 133.667 536.075 134C536.079 134.334 536.079 134.667 536.075 135C536.079 135.334 536.079 135.667 536.075 136C536.079 136.334 536.079 136.667 536.075 137C536.079 137.334 536.079 137.667 536.075 138C536.079 138.334 536.079 138.667 536.075 139C536.077 139.167 536.078 139.333 536.078 139.5C536.078 139.667 536.077 139.834 536.075 140C536.079 140.334 536.079 140.667 536.075 141C536.079 141.334 536.079 141.667 536.075 142C536.077 142.146 536.078 142.291 536.078 142.436C536.078 142.624 536.077 142.812 536.075 143C536.079 143.334 536.079 143.667 536.075 144C536.079 144.334 536.079 144.667 536.075 145C536.079 145.334 536.079 145.667 536.075 146C536.079 146.334 536.079 146.667 536.075 147C536.079 147.334 536.079 147.667 536.075 148C536.079 148.334 536.079 148.667 536.075 149C536.076 149.066 536.077 149.132 536.077 149.198L536.078 149.34C536.078 149.56 536.078 149.78 536.075 150C536.079 150.334 536.079 150.667 536.075 151C536.079 151.334 536.079 151.667 536.075 152C536.079 152.334 536.079 152.667 536.075 153C536.079 153.334 536.079 153.667 536.075 154C536.079 154.334 536.079 154.667 536.075 155C536.079 155.334 536.079 155.667 536.075 156C536.079 156.334 536.079 156.667 536.075 157C536.079 157.334 536.079 157.667 536.075 158C536.079 158.334 536.079 158.667 536.075 159C536.079 159.334 536.079 159.667 536.075 160C536.079 160.334 536.079 160.667 536.075 161C536.297 183.878 521.292 206.795 491.059 224.25C431.033 258.906 333.712 258.906 273.686 224.25C243.453 206.795 228.447 183.878 228.669 161C228.666 160.667 228.666 160.334 228.669 160C228.666 159.667 228.666 159.334 228.669 159C228.666 158.667 228.666 158.334 228.669 158C228.666 157.667 228.666 157.334 228.669 157C228.666 156.667 228.666 156.334 228.669 156C228.666 155.667 228.666 155.334 228.669 155C228.666 154.667 228.666 154.334 228.669 154C228.666 153.667 228.666 153.334 228.669 153C228.666 152.667 228.666 152.334 228.669 152C228.666 151.667 228.666 151.334 228.669 151C228.666 150.667 228.666 150.334 228.669 150C228.666 149.667 228.666 149.334 228.669 149C228.666 148.667 228.666 148.334 228.669 148C228.666 147.667 228.666 147.334 228.669 147C228.666 146.667 228.666 146.334 228.669 146C228.666 145.667 228.666 145.334 228.669 145C228.666 144.667 228.666 144.334 228.669 144C228.666 143.667 228.666 143.334 228.669 143C228.666 142.667 228.666 142.334 228.669 142C228.666 141.667 228.666 141.334 228.669 141C228.666 140.667 228.666 140.334 228.669 140C228.666 139.667 228.666 139.334 228.669 139C228.666 138.667 228.666 138.334 228.669 138C228.666 137.667 228.666 137.334 228.669 137C228.666 136.667 228.666 136.334 228.669 136C228.666 135.667 228.666 135.334 228.669 135C228.666 134.667 228.666 134.334 228.669 134C228.666 133.667 228.666 133.334 228.669 133C228.666 132.667 228.666 132.334 228.669 132C228.666 131.667 228.666 131.334 228.669 131C228.666 130.667 228.666 130.334 228.669 130C228.666 129.667 228.666 129.334 228.669 129C228.666 128.667 228.666 128.334 228.669 128C228.666 127.667 228.666 127.334 228.669 127C228.666 126.667 228.666 126.334 228.669 126C228.666 125.667 228.666 125.334 228.669 125C228.666 124.667 228.666 124.334 228.669 124C228.666 123.667 228.666 123.334 228.669 123C228.666 122.667 228.666 122.334 228.669 122C228.666 121.667 228.666 121.334 228.669 121C228.666 120.667 228.666 120.334 228.669 120C228.666 119.667 228.666 119.334 228.669 119C228.666 118.667 228.666 118.334 228.669 118C228.666 117.667 228.666 117.334 228.669 117C228.666 116.667 228.666 116.334 228.669 116C228.666 115.667 228.666 115.334 228.669 115C228.666 114.667 228.666 114.334 228.669 114C228.666 113.667 228.666 113.334 228.669 113Z" fill="#E1E8FF"/>
        <path d="M228.669 113C228.447 90.1228 243.453 67.2053 273.686 49.7502C333.712 15.0943 431.033 15.0943 491.059 49.7502C521.292 67.2053 536.297 90.1228 536.075 113C536.079 113.334 536.079 113.667 536.075 114.001C536.079 114.334 536.079 114.667 536.075 115C536.079 115.334 536.079 115.667 536.075 116C536.079 116.334 536.079 116.667 536.075 117C536.079 117.334 536.079 117.667 536.075 118C536.076 118.074 536.077 118.147 536.077 118.22C536.077 118.284 536.078 118.349 536.078 118.414C536.078 118.609 536.077 118.805 536.075 119C536.079 119.334 536.079 119.667 536.075 120C536.077 120.166 536.078 120.332 536.078 120.497L536.078 120.648C536.077 120.704 536.077 120.76 536.077 120.816C536.076 120.878 536.076 120.939 536.075 121C536.077 121.196 536.078 121.392 536.078 121.587C536.078 121.725 536.077 121.863 536.075 122C536.079 122.334 536.079 122.667 536.075 123C536.077 123.142 536.078 123.283 536.078 123.424C536.078 123.616 536.077 123.808 536.075 124C536.079 124.334 536.079 124.667 536.075 125C536.079 125.334 536.079 125.667 536.075 126C536.079 126.334 536.079 126.667 536.075 127C536.079 127.334 536.079 127.667 536.075 128C536.079 128.334 536.079 128.667 536.075 129C536.079 129.334 536.079 129.667 536.075 130L536.076 130.097L536.077 130.229C536.078 130.295 536.078 130.36 536.078 130.425C536.078 130.617 536.077 130.809 536.075 131C536.079 131.334 536.079 131.667 536.075 132C536.079 132.334 536.079 132.667 536.075 133C536.079 133.334 536.079 133.667 536.075 134C536.079 134.334 536.079 134.667 536.075 135C536.079 135.334 536.079 135.667 536.075 136C536.079 136.334 536.079 136.667 536.075 137C536.079 137.334 536.079 137.667 536.075 138C536.079 138.334 536.079 138.667 536.075 139C536.077 139.167 536.078 139.333 536.078 139.5C536.078 139.667 536.077 139.834 536.075 140C536.079 140.334 536.079 140.667 536.075 141C536.079 141.334 536.079 141.667 536.075 142C536.077 142.146 536.078 142.291 536.078 142.436C536.078 142.624 536.077 142.812 536.075 143C536.079 143.334 536.079 143.667 536.075 144C536.079 144.334 536.079 144.667 536.075 145C536.079 145.334 536.079 145.667 536.075 146C536.079 146.334 536.079 146.667 536.075 147C536.079 147.334 536.079 147.667 536.075 148C536.079 148.334 536.079 148.667 536.075 149C536.076 149.066 536.077 149.132 536.077 149.198L536.078 149.34C536.078 149.56 536.078 149.78 536.075 150C536.079 150.334 536.079 150.667 536.075 151C536.079 151.334 536.079 151.667 536.075 152C536.079 152.334 536.079 152.667 536.075 153C536.079 153.334 536.079 153.667 536.075 154C536.079 154.334 536.079 154.667 536.075 155C536.079 155.334 536.079 155.667 536.075 156C536.079 156.334 536.079 156.667 536.075 157C536.079 157.334 536.079 157.667 536.075 158C536.079 158.334 536.079 158.667 536.075 159C536.079 159.334 536.079 159.667 536.075 160C536.079 160.334 536.079 160.667 536.075 161C536.297 183.878 521.292 206.795 491.059 224.25C431.033 258.906 333.712 258.906 273.686 224.25C243.453 206.795 228.447 183.878 228.669 161C228.666 160.667 228.666 160.334 228.669 160C228.666 159.667 228.666 159.334 228.669 159C228.666 158.667 228.666 158.334 228.669 158C228.666 157.667 228.666 157.334 228.669 157C228.666 156.667 228.666 156.334 228.669 156C228.666 155.667 228.666 155.334 228.669 155C228.666 154.667 228.666 154.334 228.669 154C228.666 153.667 228.666 153.334 228.669 153C228.666 152.667 228.666 152.334 228.669 152C228.666 151.667 228.666 151.334 228.669 151C228.666 150.667 228.666 150.334 228.669 150C228.666 149.667 228.666 149.334 228.669 149C228.666 148.667 228.666 148.334 228.669 148C228.666 147.667 228.666 147.334 228.669 147C228.666 146.667 228.666 146.334 228.669 146C228.666 145.667 228.666 145.334 228.669 145C228.666 144.667 228.666 144.334 228.669 144C228.666 143.667 228.666 143.334 228.669 143C228.666 142.667 228.666 142.334 228.669 142C228.666 141.667 228.666 141.334 228.669 141C228.666 140.667 228.666 140.334 228.669 140C228.666 139.667 228.666 139.334 228.669 139C228.666 138.667 228.666 138.334 228.669 138C228.666 137.667 228.666 137.334 228.669 137C228.666 136.667 228.666 136.334 228.669 136C228.666 135.667 228.666 135.334 228.669 135C228.666 134.667 228.666 134.334 228.669 134C228.666 133.667 228.666 133.334 228.669 133C228.666 132.667 228.666 132.334 228.669 132C228.666 131.667 228.666 131.334 228.669 131C228.666 130.667 228.666 130.334 228.669 130C228.666 129.667 228.666 129.334 228.669 129C228.666 128.667 228.666 128.334 228.669 128C228.666 127.667 228.666 127.334 228.669 127C228.666 126.667 228.666 126.334 228.669 126C228.666 125.667 228.666 125.334 228.669 125C228.666 124.667 228.666 124.334 228.669 124C228.666 123.667 228.666 123.334 228.669 123C228.666 122.667 228.666 122.334 228.669 122C228.666 121.667 228.666 121.334 228.669 121C228.666 120.667 228.666 120.334 228.669 120C228.666 119.667 228.666 119.334 228.669 119C228.666 118.667 228.666 118.334 228.669 118C228.666 117.667 228.666 117.334 228.669 117C228.666 116.667 228.666 116.334 228.669 116C228.666 115.667 228.666 115.334 228.669 115C228.666 114.667 228.666 114.334 228.669 114C228.666 113.667 228.666 113.334 228.669 113Z" fill="url(#paint3_linear)"/>
        <circle r="125.5" transform="matrix(0.866025 0.5 -0.866025 0.5 382.372 111.5)" fill="#3C4257"/>
        <ellipse cx="260" cy="189" rx="8" ry="9" fill="#3C4257"/>
        <ellipse cx="260" cy="271" rx="8" ry="9" fill="#3C4257"/>
        <ellipse cx="260" cy="353" rx="8" ry="9" fill="#3C4257"/>
        <ellipse cx="260" cy="435" rx="8" ry="9" fill="#3C4257"/>
        <rect x="34.5" y="364.5" width="383" height="201" rx="23.5" fill="#3C4257"/>
        <rect x="64" y="394" width="100" height="40" fill="#CEC0FF"/>
        <rect x="176" y="394" width="100" height="40" fill="#CEC0FF"/>
        <rect x="288" y="394" width="100" height="40" fill="#CEC0FF"/>
        <rect x="64" y="445" width="100" height="40" fill="#EDF1F5"/>
        <rect x="176" y="445" width="100" height="40" fill="#EDF1F5"/>
        <rect x="288" y="445" width="100" height="40" fill="#EDF1F5"/>
        <rect x="64" y="496" width="100" height="40" fill="#EDF1F5"/>
        <rect x="176" y="496" width="100" height="40" fill="#EDF1F5"/>
        <rect x="288" y="496" width="100" height="40" fill="#EDF1F5"/>
        <rect x="34.5" y="364.5" width="383" height="201" rx="23.5" stroke="white" stroke-width="11" stroke-linecap="round"/>
        <path d="M196.5 218L165.635 202.273L167.447 236.866L196.5 218ZM73 341.5L91.7884 312.397L57.1901 310.677L73 341.5ZM169.199 216.431C136.808 220.074 113.709 230.63 97.9877 247.465C82.2909 264.274 74.2966 286.974 71.3572 314.22L77.3226 314.864C80.1818 288.36 87.8765 267.084 102.373 251.56C116.845 236.063 138.444 225.928 169.869 222.394L169.199 216.431Z" fill="#FB6864"/>
    </g>
    <defs>
        <linearGradient id="paint0_linear" x1="536" y1="483.227" x2="229" y2="483.227" gradientUnits="userSpaceOnUse">
            <stop stop-color="#CEC0FF" stop-opacity="0"/>
            <stop offset="0.129625" stop-color="#CEC0FF"/>
            <stop offset="0.747994" stop-color="#CEC0FF" stop-opacity="0"/>
        </linearGradient>
        <linearGradient id="paint1_linear" x1="536" y1="401.984" x2="229" y2="401.984" gradientUnits="userSpaceOnUse">
            <stop stop-color="#CEC0FF" stop-opacity="0"/>
            <stop offset="0.129625" stop-color="#CEC0FF"/>
            <stop offset="0.747994" stop-color="#CEC0FF" stop-opacity="0"/>
        </linearGradient>
        <linearGradient id="paint2_linear" x1="536" y1="320.742" x2="229" y2="320.742" gradientUnits="userSpaceOnUse">
            <stop stop-color="#CEC0FF" stop-opacity="0"/>
            <stop offset="0.129625" stop-color="#CEC0FF"/>
            <stop offset="0.747994" stop-color="#CEC0FF" stop-opacity="0"/>
        </linearGradient>
        <linearGradient id="paint3_linear" x1="536" y1="239.5" x2="229" y2="239.5" gradientUnits="userSpaceOnUse">
            <stop stop-color="#CEC0FF" stop-opacity="0"/>
            <stop offset="0.129625" stop-color="#CEC0FF"/>
            <stop offset="0.747994" stop-color="#CEC0FF" stop-opacity="0"/>
        </linearGradient>
        <clipPath id="clip0">
            <rect width="600" height="600" fill="white"/>
        </clipPath>
    </defs>
</svg>
