<svg width="599" height="330" viewBox="0 0 599 330" fill="none" xmlns="http://www.w3.org/2000/svg">
    <path d="M382 159.232L384.824 154.832L379.176 153.632L382 159.232ZM382 29.2336L382.489 29.3375V28.8375L382 28.7336V29.2336ZM248 0.750977V0.250977L247.511 0.147021V0.647021L248 0.750977ZM248 69.5393L250.824 65.1395L245.176 63.9391L248 69.5393ZM382.489 154.836V29.3375L381.511 29.1296V154.628L382.489 154.836ZM382 28.7336L248 0.250977V1.25098L382 29.7336V28.7336ZM247.511 0.647021V64.9353L248.489 65.1432V0.854932L247.511 0.647021Z" fill="#FFE000"/>
    <circle r="71.5" transform="matrix(0.978148 0.207912 0 1 385.427 238.97)" fill="white" stroke="#7833FF"/>
    <circle r="71.5" transform="matrix(0.978148 0.207912 0 1 369.427 239.97)" fill="white" stroke="#7833FF"/>
    <circle r="71.5" transform="matrix(0.978148 0.207912 0 1 353.427 240.97)" fill="white" stroke="#7833FF"/>
    <circle r="71" transform="matrix(0.978148 0.207912 0 1 337.427 241.97)" fill="white" stroke="#7833FF" stroke-width="2"/>
    <path d="M313.964 223.519C313.964 224.791 312.931 225.267 311.569 224.978C310.302 224.708 308.752 223.755 307.79 222.278L306.147 223.945C306.945 225.819 309.41 227.279 311.523 227.728C314.598 228.381 317.016 226.975 317.016 224.143C317.016 218.551 309.574 218.073 309.574 214.593C309.574 213.489 310.443 212.93 311.875 213.235C313.189 213.514 313.987 214.14 314.786 215.101L316.335 213.223C315.349 211.909 313.659 210.854 311.64 210.425C308.447 209.746 306.522 211.449 306.522 213.969C306.522 219.441 313.964 220.207 313.964 223.519ZM327.855 227.911C327.245 228.286 326.165 228.536 324.874 228.262C323.207 227.907 321.939 226.75 321.705 225.068L329.334 226.69C329.452 226.307 329.499 225.909 329.499 225.237C329.499 222.213 327.221 219.737 324.498 219.158C321.024 218.419 318.911 220.49 318.911 223.634C318.911 227.042 321.188 229.782 324.592 230.506C326.071 230.82 327.574 230.707 328.63 230.02L327.855 227.911ZM324.381 221.437C325.93 221.766 326.822 222.988 326.799 224.303L321.611 223.2C321.892 221.844 322.761 221.092 324.381 221.437ZM331.673 231.747L334.373 232.321V225.073C334.678 224.513 335.171 224.09 336.11 224.29C336.673 224.41 336.955 224.565 337.471 224.987L338.434 222.6C338.082 222.261 337.659 222.027 336.791 221.843C335.523 221.573 334.866 221.985 334.373 222.577V221.521L331.673 220.947V231.747ZM349.808 224.802L346.968 224.198L345.137 228.393C344.855 229.029 344.55 229.948 344.362 230.724C344.174 229.844 343.845 228.814 343.564 228.106L341.615 223.06L338.399 222.376L343.259 234.257L345.254 234.681L349.808 224.802ZM359.148 234.563C358.538 234.937 357.458 235.188 356.167 234.913C354.5 234.559 353.233 233.401 352.998 231.719L360.627 233.341C360.745 232.958 360.792 232.56 360.792 231.888C360.792 228.864 358.515 226.388 355.791 225.809C352.317 225.071 350.204 227.142 350.204 230.286C350.204 233.694 352.481 236.434 355.885 237.157C357.364 237.472 358.867 237.359 359.923 236.672L359.148 234.563ZM355.674 228.088C357.223 228.418 358.115 229.639 358.092 230.954L352.904 229.852C353.186 228.495 354.054 227.744 355.674 228.088ZM362.966 238.398L365.666 238.972V231.724C365.971 231.165 366.464 230.742 367.403 230.941C367.966 231.061 368.248 231.217 368.765 231.639L369.727 229.251C369.375 228.913 368.952 228.679 368.084 228.494C366.816 228.225 366.159 228.637 365.666 229.228V228.172L362.966 227.598V238.398ZM301.526 257.339L304.226 257.913V241.113L301.526 240.539V246.803C300.94 246.318 300.259 246.005 299.32 245.806C295.916 245.082 293.521 246.949 293.521 250.357C293.521 253.645 295.47 256.244 298.498 256.887C299.86 257.177 300.822 256.829 301.526 256.211V257.339ZM299.062 254.439C297.63 254.135 296.409 252.795 296.409 250.875C296.409 248.883 297.841 248.084 299.437 248.423C300.165 248.578 300.846 248.938 301.526 249.515V253.859C300.916 254.353 300.047 254.649 299.062 254.439ZM308.045 250.708C308.819 250.513 309.594 250.294 310.815 250.553C312.388 250.888 312.857 251.971 312.787 253.756C312.27 253.263 311.331 252.751 310.392 252.551C308.256 252.097 306.542 252.861 306.542 255.237C306.542 257.325 307.927 258.843 309.852 259.253C311.284 259.557 312.411 259.221 312.975 258.524V259.772L315.322 260.271V253.695C315.322 250.839 314.219 248.973 311.097 248.309C309.712 248.015 308.28 248.19 307.364 248.548L308.045 250.708ZM310.744 257.114C309.899 256.935 309.242 256.339 309.242 255.523C309.242 254.611 310.04 254.349 310.932 254.538C311.707 254.703 312.317 255.001 312.787 255.46V256.564C312.458 256.975 311.871 257.354 310.744 257.114ZM317.855 256.706C317.855 259.466 318.747 261.239 321.142 261.748C322.503 262.038 323.63 261.749 324.264 261.356L323.442 259.045C323.067 259.253 322.55 259.48 321.822 259.325C320.93 259.135 320.555 258.287 320.555 257.111V253.175L323.959 253.899V251.307L320.555 250.583V247.583L317.855 247.01V256.706ZM327.371 254.816C328.146 254.621 328.92 254.402 330.141 254.661C331.714 254.995 332.183 256.079 332.113 257.864C331.596 257.37 330.657 256.859 329.718 256.659C327.582 256.205 325.868 256.969 325.868 259.345C325.868 261.433 327.253 262.951 329.178 263.361C330.61 263.665 331.737 263.328 332.301 262.632V263.88L334.648 264.379V257.803C334.648 254.947 333.545 253.081 330.423 252.417C329.038 252.123 327.606 252.298 326.69 252.656L327.371 254.816ZM330.071 261.222C329.225 261.043 328.568 260.447 328.568 259.631C328.568 258.719 329.366 258.456 330.258 258.646C331.033 258.811 331.643 259.108 332.113 259.568V260.672C331.784 261.082 331.197 261.462 330.071 261.222ZM337.416 264.031C338.378 264.86 340.162 265.815 341.9 266.185C345.609 266.973 347.933 265.187 347.933 261.635C347.933 258.443 346.055 255.74 342.909 255.071C341.782 254.832 340.773 255.025 340.115 255.413V248.741L337.416 248.167V264.031ZM342.275 257.528C343.801 257.853 345.045 259.149 345.045 261.213C345.045 263.157 343.731 264.006 342.04 263.646C341.289 263.487 340.702 263.194 340.115 262.685V258.101C340.562 257.668 341.336 257.329 342.275 257.528ZM351.099 259.86C351.873 259.664 352.648 259.445 353.869 259.705C355.442 260.039 355.911 261.123 355.841 262.908C355.324 262.414 354.385 261.902 353.446 261.703C351.31 261.249 349.596 262.012 349.596 264.388C349.596 266.476 350.981 267.995 352.906 268.404C354.338 268.708 355.465 268.372 356.028 267.676V268.924L358.376 269.423V262.847C358.376 259.991 357.273 258.124 354.15 257.46C352.765 257.166 351.333 257.342 350.418 257.699L351.099 259.86ZM353.798 266.266C352.953 266.086 352.296 265.49 352.296 264.674C352.296 263.762 353.094 263.5 353.986 263.69C354.761 263.854 355.371 264.152 355.841 264.612V265.716C355.512 266.126 354.925 266.505 353.798 266.266ZM366.496 268.101C366.496 268.773 365.886 268.979 365.111 268.814C364.054 268.59 362.458 267.602 361.824 266.772L360.51 268.292C361.003 269.165 362.975 270.664 364.923 271.078C367.505 271.627 369.196 270.666 369.196 268.53C369.196 264.714 363.491 264.486 363.491 262.686C363.491 262.206 363.984 261.855 364.806 262.029C365.933 262.269 367.036 263.031 367.67 263.67L368.679 261.917C368.022 261.153 366.707 260.13 364.665 259.695C362.482 259.231 360.791 260.048 360.791 262.16C360.791 266.096 366.496 266.349 366.496 268.101ZM379.861 270.966C379.251 271.34 378.171 271.59 376.88 271.316C375.213 270.962 373.946 269.804 373.711 268.122L381.34 269.744C381.458 269.361 381.505 268.963 381.505 268.291C381.505 265.267 379.228 262.791 376.504 262.212C373.03 261.473 370.917 263.544 370.917 266.688C370.917 270.096 373.194 272.836 376.598 273.56C378.077 273.874 379.58 273.762 380.636 273.074L379.861 270.966ZM376.387 264.491C377.936 264.82 378.828 266.042 378.805 267.357L373.617 266.254C373.899 264.898 374.767 264.147 376.387 264.491Z" fill="#7833FF"/>
    <rect x="0.978148" y="1.20791" width="214" height="94" transform="matrix(0.978148 0.207912 0 1 144.021 53.7966)" fill="white"/>
    <rect width="56" height="16" transform="matrix(0.978148 0.207912 0 1 159.65 73.3267)" fill="#7833FF"/>
    <rect width="56" height="16" transform="matrix(0.978148 0.207912 0 1 222.252 86.6328)" fill="#7833FF"/>
    <path d="M284.854 99.9395L339.63 111.583V127.583L284.854 115.939V99.9395Z" fill="#7833FF"/>
    <rect width="56" height="16" transform="matrix(0.978148 0.207912 0 1 159.65 97.3267)" fill="#D3DBE6"/>
    <rect width="56" height="16" transform="matrix(0.978148 0.207912 0 1 222.252 110.633)" fill="#D3DBE6"/>
    <path d="M284.854 123.939L339.63 135.583V151.583L284.854 139.939V123.939Z" fill="#D3DBE6"/>
    <rect width="56" height="16" transform="matrix(0.978148 0.207912 0 1 159.65 121.327)" fill="#D3DBE6"/>
    <rect width="56" height="16" transform="matrix(0.978148 0.207912 0 1 222.252 134.633)" fill="#D3DBE6"/>
    <path d="M284.854 147.939L339.63 159.583V175.583L284.854 163.939V147.939Z" fill="#D3DBE6"/>
    <rect x="0.978148" y="1.20791" width="214" height="94" transform="matrix(0.978148 0.207912 0 1 144.021 53.7966)" stroke="#7833FF" stroke-width="2"/>
</svg>
