<svg width="600" height="600" viewBox="0 0 600 600" fill="none" xmlns="http://www.w3.org/2000/svg">
    <g clip-path="url(#clip0)">
        <path d="M62 196.564L225.79 102L225.79 156.847L62 251.411L62 223.988L62 196.564Z" fill="#3C4257"/>
        <path d="M257 279.564L377.489 210L377.489 264.847L257 334.411L257 306.988L257 279.564Z" fill="#3C4257"/>
        <path d="M382 207.564L575.235 96.0003L575.235 150.847L382 262.411L382 234.988L382 207.564Z" fill="#3C4257"/>
        <path d="M257 339.469L377.489 269.905L377.489 335.349L257 404.913L257 372.191L257 339.469Z" fill="#E1E8FF"/>
        <path d="M382 267.469L575.235 155.905L575.235 221.349L382 332.913L382 300.191L382 267.469Z" fill="#E1E8FF"/>
        <path d="M257 409.564L377.489 340L377.489 405.445L257 475.009L257 442.287L257 409.564Z" fill="#E1E8FF"/>
        <path d="M382 337.564L575.235 226L575.235 291.445L382 403.009L382 370.287L382 337.564Z" fill="#E1E8FF"/>
        <path d="M257 480.564L377.489 411L377.489 476.445L257 546.009L257 513.287L257 480.564Z" fill="#E1E8FF"/>
        <path d="M382 408.564L575.235 297L575.235 362.445L382 474.009L382 441.287L382 408.564Z" fill="#E1E8FF"/>
        <path d="M62 387.564L225.79 293L225.79 451.103L62 545.667L62 466.616L62 387.564Z" fill="#E1E8FF"/>
        <path d="M120.352 399.474C123.133 397.868 124.933 394.83 125.069 392.124L125.069 392.056L122.423 393.583L122.414 393.69C122.219 395.015 121.509 396.234 120.371 396.891C118.971 397.699 118.095 396.868 118.095 394.51L118.095 394.499C118.095 392.197 118.971 390.31 120.361 389.507C121.538 388.827 122.229 389.305 122.404 390.349L122.423 390.439L125.059 388.917L125.059 388.839C124.952 386.295 123.153 385.323 120.323 386.958C117.201 388.76 115.207 392.303 115.207 396.155L115.207 396.167C115.207 400.052 117.171 401.31 120.352 399.474ZM126.44 395.712L129.28 394.072L129.28 387.334C129.28 385.582 130.097 384.144 131.498 383.336C131.906 383.1 132.295 382.943 132.528 382.92L132.528 380.034C132.315 380.09 132.023 380.202 131.712 380.382C130.496 381.084 129.65 382.437 129.338 384.099L129.28 384.133L129.28 382.033L126.44 383.673L126.44 395.712ZM138.092 389.232C141.068 387.513 142.507 384.65 142.828 382.69L142.857 382.55L140.251 384.054L140.231 384.133C140.027 384.925 139.317 386.076 138.15 386.75C136.701 387.586 135.796 386.986 135.767 385.082L142.945 380.938L142.945 379.927C142.945 376.289 141.029 375.003 137.975 376.766C134.921 378.529 132.966 382.106 132.966 385.936L132.966 385.947C132.966 389.799 134.902 391.073 138.092 389.232ZM138.024 379.186C139.2 378.507 140.047 378.883 140.222 380.444L135.796 382.999C135.981 381.264 136.857 379.86 138.024 379.186ZM147.516 383.734C148.887 382.943 149.996 381.55 150.589 379.972L150.648 379.938L150.648 381.735L153.488 380.096L153.488 371.841C153.488 369.416 151.747 368.815 149.053 370.37C146.3 371.959 144.647 374.509 144.491 376.822L144.482 376.962L147.078 375.463L147.098 375.351C147.234 374.497 147.876 373.554 148.936 372.942C150.045 372.302 150.648 372.616 150.648 373.683L150.648 374.424L148.07 376.092C145.483 377.777 144.015 379.905 144.015 382.095L144.015 382.117C144.015 384.24 145.425 384.942 147.516 383.734ZM146.826 380.326L146.826 380.303C146.826 379.45 147.399 378.58 148.498 377.866L150.648 376.468L150.648 377.333C150.648 378.591 149.714 380.073 148.44 380.809C147.458 381.376 146.826 381.213 146.826 380.326ZM159.469 376.889C160.062 376.547 160.52 376.216 160.841 375.974L160.841 373.571C160.665 373.694 160.481 373.835 160.228 373.981C159.372 374.475 158.934 374.346 158.934 373.223L158.934 367.383L160.841 366.282L160.841 363.812L158.934 364.912L158.934 361.97L156.065 363.626L156.065 366.569L154.616 367.405L154.616 369.876L156.065 369.039L156.065 375.239C156.065 377.822 157.154 378.226 159.469 376.889ZM166.997 372.543C169.973 370.825 171.413 367.961 171.733 366.001L171.763 365.861L169.156 367.366L169.137 367.445C168.932 368.236 168.222 369.387 167.055 370.061C165.606 370.898 164.702 370.297 164.672 368.394L171.85 364.25L171.85 363.239C171.85 359.6 169.934 358.314 166.88 360.077C163.826 361.841 161.871 365.417 161.871 369.247L161.871 369.258C161.871 373.11 163.807 374.385 166.997 372.543ZM166.929 362.498C168.106 361.818 168.952 362.194 169.127 363.755L164.702 366.31C164.886 364.575 165.762 363.171 166.929 362.498Z" fill="#2D2E35"/>
        <path d="M115.533 446.756C117.108 445.847 118.178 444.375 118.713 442.685L118.771 442.652L118.771 444.639L121.611 443L121.611 430.961L118.771 432.6L118.771 439.518C118.771 441.091 117.964 442.635 116.69 443.37C115.416 444.106 114.774 443.567 114.774 441.995L114.774 434.908L111.934 436.548L111.934 444.319C111.934 447.138 113.237 448.082 115.533 446.756ZM123.459 445.864L126.299 444.224L126.299 438.238L126.357 438.204C126.922 439.305 128.098 439.501 129.586 438.642C132.193 437.137 133.807 433.847 133.807 429.939L133.807 429.927C133.807 426.008 132.193 424.604 129.548 426.132C128.069 426.985 126.931 428.529 126.367 430.315L126.299 430.354L126.299 428.254L123.459 429.894L123.459 445.864ZM128.614 436.486C127.233 437.283 126.289 436.458 126.289 434.291L126.289 434.279C126.289 432.101 127.233 430.186 128.614 429.388C130.024 428.574 130.919 429.394 130.919 431.595L130.919 431.606C130.919 433.796 130.024 435.672 128.614 436.486ZM139.147 433.123C140.654 432.252 141.802 430.714 142.357 428.967L142.415 428.934L142.415 430.989L145.255 429.349L145.255 413.144L142.415 414.783L142.415 421.039L142.357 421.072C141.792 419.938 140.625 419.736 139.147 420.589C136.521 422.105 134.906 425.374 134.906 429.293L134.906 429.304C134.906 433.212 136.521 434.639 139.147 433.123ZM140.1 429.854C138.68 430.674 137.795 429.826 137.795 427.636L137.795 427.625C137.795 425.424 138.69 423.571 140.1 422.757C141.471 421.965 142.425 422.785 142.425 424.952L142.425 424.964C142.425 427.142 141.481 429.057 140.1 429.854ZM150.254 426.654C151.625 425.862 152.734 424.469 153.327 422.892L153.386 422.858L153.386 424.655L156.226 423.015L156.226 414.761C156.226 412.335 154.485 411.734 151.791 413.29C149.038 414.879 147.385 417.428 147.229 419.741L147.219 419.882L149.816 418.383L149.836 418.27C149.972 417.417 150.614 416.473 151.674 415.861C152.783 415.221 153.386 415.536 153.386 416.603L153.386 417.344L150.808 419.011C148.221 420.696 146.753 422.824 146.753 425.014L146.753 425.037C146.753 427.159 148.163 427.861 150.254 426.654ZM149.563 423.245L149.563 423.223C149.563 422.369 150.137 421.499 151.236 420.786L153.386 419.388L153.386 420.252C153.386 421.51 152.452 422.993 151.178 423.728C150.196 424.295 149.563 424.133 149.563 423.245ZM162.207 419.809C162.8 419.466 163.257 419.135 163.578 418.894L163.578 416.49C163.403 416.614 163.219 416.754 162.966 416.9C162.11 417.394 161.672 417.265 161.672 416.142L161.672 410.302L163.578 409.202L163.578 406.731L161.672 407.832L161.672 404.889L158.803 406.546L158.803 409.488L157.354 410.325L157.354 412.795L158.803 411.959L158.803 418.158C158.803 420.741 159.892 421.145 162.207 419.809ZM169.735 415.463C172.711 413.744 174.15 410.881 174.471 408.921L174.501 408.781L171.894 410.285L171.875 410.364C171.67 411.156 170.96 412.307 169.793 412.981C168.344 413.817 167.44 413.217 167.41 411.313L174.588 407.169L174.588 406.158C174.588 402.52 172.672 401.234 169.618 402.997C166.564 404.76 164.609 408.337 164.609 412.167L164.609 412.178C164.609 416.03 166.545 417.304 169.735 415.463ZM169.667 405.417C170.844 404.738 171.69 405.114 171.865 406.675L167.44 409.23C167.624 407.495 168.5 406.091 169.667 405.417Z" fill="#2D2E35"/>
        <path d="M119.471 488.386C120.979 487.516 122.126 485.978 122.681 484.231L122.739 484.198L122.739 486.253L125.579 484.613L125.579 468.407L122.739 470.047L122.739 476.302L122.681 476.336C122.117 475.202 120.95 475 119.471 475.853C116.845 477.369 115.231 480.637 115.231 484.557L115.231 484.568C115.231 488.476 116.845 489.903 119.471 488.386ZM120.424 485.118C119.004 485.938 118.119 485.09 118.119 482.9L118.119 482.889C118.119 480.688 119.014 478.835 120.424 478.021C121.796 477.229 122.749 478.049 122.749 480.216L122.749 480.228C122.749 482.406 121.806 484.321 120.424 485.118ZM132.222 481.025C135.198 479.307 136.637 476.443 136.958 474.483L136.988 474.343L134.381 475.848L134.362 475.926C134.157 476.718 133.447 477.869 132.28 478.543C130.831 479.38 129.927 478.779 129.897 476.875L137.075 472.731L137.075 471.72C137.075 468.082 135.159 466.796 132.105 468.559C129.051 470.322 127.096 473.899 127.096 477.729L127.096 477.74C127.096 481.592 129.032 482.867 132.222 481.025ZM132.154 470.979C133.331 470.3 134.177 470.676 134.352 472.237L129.927 474.792C130.111 473.057 130.987 471.653 132.154 470.979ZM138.612 477.089L141.452 475.449L141.452 459.243L138.612 460.883L138.612 477.089ZM148.114 471.85C151.09 470.131 152.53 467.268 152.85 465.308L152.88 465.167L150.273 466.672L150.254 466.751C150.049 467.543 149.339 468.694 148.172 469.368C146.723 470.204 145.819 469.604 145.79 467.7L152.967 463.556L152.967 462.545C152.967 458.906 151.051 457.621 147.997 459.384C144.943 461.147 142.988 464.724 142.988 468.553L142.988 468.565C142.988 472.417 144.924 473.691 148.114 471.85ZM148.046 461.804C149.223 461.125 150.069 461.501 150.244 463.062L145.819 465.617C146.003 463.882 146.879 462.478 148.046 461.804ZM158.579 465.808C159.172 465.465 159.629 465.134 159.95 464.892L159.95 462.489C159.775 462.613 159.591 462.753 159.338 462.899C158.482 463.393 158.044 463.264 158.044 462.141L158.044 456.301L159.95 455.2L159.95 452.73L158.044 453.83L158.044 450.888L155.175 452.544L155.175 455.487L153.726 456.323L153.726 458.794L155.175 457.958L155.175 464.157C155.175 466.74 156.264 467.144 158.579 465.808ZM166.107 461.461C169.083 459.743 170.522 456.879 170.843 454.92L170.873 454.779L168.266 456.284L168.247 456.363C168.042 457.155 167.332 458.306 166.165 458.979C164.716 459.816 163.812 459.215 163.782 457.312L170.96 453.168L170.96 452.157C170.96 448.518 169.044 447.232 165.99 448.996C162.936 450.759 160.981 454.336 160.981 458.165L160.981 458.177C160.981 462.029 162.917 463.303 166.107 461.461ZM166.039 451.416C167.216 450.736 168.062 451.113 168.237 452.674L163.812 455.229C163.996 453.493 164.872 452.09 166.039 451.416Z" fill="#2D2E35"/>
        <path d="M62 256.469L225.79 161.905L225.79 287.349L62 381.913L62 319.191L62 256.469Z" fill="#E1E8FF"/>
        <path d="M102.651 278.598C104.227 277.688 105.296 276.217 105.831 274.527L105.89 274.493L105.89 276.481L108.73 274.841L108.73 262.802L105.89 264.442L105.89 271.36C105.89 272.932 105.082 274.476 103.808 275.212C102.534 275.948 101.892 275.408 101.892 273.836L101.892 266.75L99.0524 268.389L99.0524 276.161C99.0524 278.98 100.356 279.923 102.651 278.598ZM114.867 271.545C117.551 269.995 119.428 267.362 119.428 265.003L119.428 264.992C119.428 263.218 118.533 262.746 116.355 263.476L114.585 264.06C113.534 264.408 113.174 264.212 113.174 263.594L113.174 263.583C113.174 262.808 113.787 261.949 114.769 261.382C115.82 260.775 116.433 261.073 116.53 261.881L116.54 261.966L119.156 260.455L119.156 260.343C119.088 258.271 117.541 257.468 114.769 259.068C112.114 260.601 110.403 263.072 110.403 265.363L110.403 265.374C110.403 267.171 111.424 267.749 113.447 267.075L115.217 266.48C116.238 266.149 116.588 266.317 116.588 266.958L116.588 266.969C116.588 267.744 115.937 268.603 114.867 269.22C113.729 269.877 113.116 269.681 112.931 268.844L112.912 268.754L110.14 270.355L110.15 270.45C110.373 272.601 111.978 273.213 114.867 271.545ZM125.575 265.363C128.551 263.645 129.99 260.781 130.311 258.821L130.341 258.681L127.734 260.186L127.715 260.264C127.51 261.056 126.8 262.207 125.633 262.881C124.184 263.718 123.28 263.117 123.25 261.213L130.428 257.069L130.428 256.058C130.428 252.42 128.512 251.134 125.458 252.897C122.404 254.66 120.449 258.237 120.449 262.067L120.449 262.078C120.449 265.93 122.385 267.205 125.575 265.363ZM125.507 255.317C126.684 254.638 127.53 255.014 127.705 256.575L123.28 259.13C123.464 257.395 124.34 255.991 125.507 255.317ZM131.897 261.466L134.737 259.826L134.737 253.088C134.737 251.336 135.554 249.898 136.954 249.09C137.363 248.854 137.752 248.697 137.985 248.674L137.985 245.788C137.771 245.844 137.479 245.957 137.168 246.136C135.952 246.838 135.106 248.191 134.795 249.854L134.737 249.887L134.737 247.787L131.897 249.427L131.897 261.466ZM139.152 257.277L141.992 255.637L141.992 248.719C141.992 247.147 142.799 245.603 144.073 244.867C145.348 244.132 145.989 244.659 145.989 246.232L145.989 253.329L148.829 251.69L148.829 243.918C148.829 241.099 147.526 240.156 145.231 241.481C143.655 242.391 142.585 243.851 142.051 245.541L141.992 245.575L141.992 243.598L139.152 245.238L139.152 257.277ZM153.731 249.051C155.103 248.259 156.211 246.866 156.805 245.288L156.863 245.255L156.863 247.052L159.703 245.412L159.703 237.157C159.703 234.732 157.962 234.131 155.268 235.686C152.516 237.275 150.862 239.825 150.707 242.138L150.697 242.279L153.294 240.779L153.313 240.667C153.449 239.813 154.091 238.87 155.151 238.258C156.26 237.618 156.863 237.932 156.863 238.999L156.863 239.74L154.286 241.408C151.699 243.093 150.23 245.221 150.23 247.411L150.23 247.433C150.23 249.556 151.64 250.258 153.731 249.051ZM153.041 245.642L153.041 245.62C153.041 244.766 153.615 243.896 154.714 243.183L156.863 241.784L156.863 242.649C156.863 243.907 155.929 245.389 154.655 246.125C153.673 246.692 153.041 246.529 153.041 245.642ZM161.541 244.351L164.381 242.711L164.381 235.445C164.381 234.086 165.111 232.721 166.19 232.098C167.241 231.492 167.873 231.89 167.873 233.182L167.873 240.695L170.606 239.117L170.606 231.795C170.606 230.458 171.316 229.139 172.395 228.516C173.494 227.881 174.097 228.297 174.097 229.689L174.097 237.101L176.937 235.462L176.937 227.23C176.937 224.804 175.566 223.967 173.523 225.146C171.996 226.028 170.752 227.713 170.285 229.498L170.226 229.532C169.876 228.151 168.816 227.864 167.357 228.707C165.957 229.515 164.867 231.042 164.439 232.66L164.381 232.693L164.381 230.672L161.541 232.312L161.541 244.351ZM183.483 231.93C186.459 230.211 187.898 227.348 188.219 225.388L188.248 225.248L185.642 226.752L185.622 226.831C185.418 227.623 184.708 228.774 183.541 229.448C182.092 230.284 181.187 229.684 181.158 227.78L188.336 223.636L188.336 222.625C188.336 218.987 186.42 217.701 183.366 219.464C180.312 221.227 178.357 224.804 178.357 228.634L178.357 228.645C178.357 232.497 180.293 233.771 183.483 231.93ZM183.415 221.884C184.591 221.205 185.438 221.581 185.613 223.142L181.187 225.697C181.372 223.962 182.248 222.558 183.415 221.884Z" fill="#2D2E35"/>
        <path d="M278.588 302.098C280.164 301.188 281.234 299.717 281.769 298.027L281.827 297.993L281.827 299.981L284.667 298.341L284.667 286.302L281.827 287.942L281.827 294.86C281.827 296.432 281.02 297.976 279.746 298.712C278.472 299.448 277.83 298.908 277.83 297.336L277.83 290.25L274.99 291.889L274.99 299.661C274.99 302.48 276.293 303.423 278.588 302.098ZM290.804 295.045C293.489 293.495 295.366 290.862 295.366 288.503L295.366 288.492C295.366 286.718 294.471 286.246 292.292 286.976L290.522 287.56C289.472 287.908 289.112 287.712 289.112 287.094L289.112 287.083C289.112 286.308 289.725 285.449 290.707 284.882C291.757 284.275 292.37 284.573 292.467 285.381L292.477 285.466L295.093 283.955L295.093 283.843C295.025 281.771 293.479 280.968 290.707 282.568C288.052 284.101 286.34 286.572 286.34 288.863L286.34 288.874C286.34 290.671 287.361 291.249 289.384 290.575L291.154 289.98C292.176 289.649 292.526 289.817 292.526 290.458L292.526 290.469C292.526 291.244 291.874 292.103 290.804 292.72C289.666 293.377 289.054 293.181 288.869 292.344L288.849 292.254L286.077 293.855L286.087 293.95C286.311 296.101 287.916 296.713 290.804 295.045ZM301.512 288.863C304.488 287.145 305.928 284.281 306.249 282.321L306.278 282.181L303.672 283.686L303.652 283.764C303.448 284.556 302.738 285.707 301.571 286.381C300.122 287.218 299.217 286.617 299.188 284.713L306.366 280.569L306.366 279.558C306.366 275.92 304.45 274.634 301.396 276.397C298.342 278.16 296.387 281.737 296.387 285.567L296.387 285.578C296.387 289.43 298.322 290.705 301.512 288.863ZM301.444 278.817C302.621 278.138 303.467 278.514 303.642 280.075L299.217 282.63C299.402 280.895 300.277 279.491 301.444 278.817ZM307.834 284.966L310.674 283.326L310.674 276.588C310.674 274.836 311.491 273.398 312.892 272.59C313.3 272.354 313.689 272.197 313.923 272.174L313.923 269.288C313.709 269.344 313.417 269.457 313.106 269.636C311.89 270.338 311.044 271.691 310.733 273.354L310.674 273.387L310.674 271.287L307.834 272.927L307.834 284.966ZM315.09 280.777L317.93 279.137L317.93 272.219C317.93 270.647 318.737 269.103 320.011 268.367C321.285 267.632 321.927 268.159 321.927 269.732L321.927 276.829L324.767 275.19L324.767 267.418C324.767 264.599 323.464 263.656 321.168 264.981C319.593 265.891 318.523 267.351 317.988 269.041L317.93 269.075L317.93 267.098L315.09 268.738L315.09 280.777ZM329.669 272.551C331.04 271.759 332.149 270.366 332.742 268.788L332.801 268.755L332.801 270.552L335.64 268.912L335.64 260.657C335.64 258.232 333.9 257.631 331.205 259.186C328.453 260.775 326.8 263.325 326.644 265.638L326.634 265.779L329.231 264.279L329.251 264.167C329.387 263.313 330.029 262.37 331.089 261.758C332.197 261.118 332.801 261.432 332.801 262.499L332.801 263.24L330.223 264.908C327.636 266.593 326.167 268.721 326.167 270.911L326.167 270.933C326.167 273.056 327.578 273.758 329.669 272.551ZM328.978 269.142L328.978 269.12C328.978 268.266 329.552 267.396 330.651 266.683L332.801 265.284L332.801 266.149C332.801 267.407 331.867 268.889 330.593 269.625C329.61 270.192 328.978 270.029 328.978 269.142ZM337.479 267.851L340.319 266.211L340.319 258.945C340.319 257.586 341.048 256.221 342.128 255.598C343.178 254.992 343.81 255.39 343.81 256.682L343.81 264.195L346.543 262.617L346.543 255.295C346.543 253.958 347.253 252.639 348.333 252.016C349.432 251.381 350.035 251.797 350.035 253.189L350.035 260.601L352.875 258.962L352.875 250.73C352.875 248.304 351.503 247.467 349.461 248.646C347.934 249.528 346.689 251.213 346.222 252.998L346.164 253.032C345.814 251.651 344.754 251.364 343.295 252.207C341.894 253.015 340.805 254.542 340.377 256.16L340.319 256.193L340.319 254.172L337.479 255.812L337.479 267.851ZM359.42 255.43C362.396 253.711 363.836 250.848 364.157 248.888L364.186 248.748L361.579 250.252L361.56 250.331C361.356 251.123 360.646 252.274 359.479 252.948C358.029 253.784 357.125 253.184 357.096 251.28L364.273 247.136L364.273 246.125C364.273 242.487 362.357 241.201 359.304 242.964C356.25 244.727 354.295 248.304 354.295 252.134L354.295 252.145C354.295 255.997 356.23 257.271 359.42 255.43ZM359.352 245.384C360.529 244.705 361.375 245.081 361.55 246.642L357.125 249.197C357.31 247.462 358.185 246.058 359.352 245.384Z" fill="white"/>
        <path d="M425.734 217.312C428.71 215.594 430.149 212.73 430.47 210.77L430.5 210.63L427.893 212.135L427.874 212.213C427.669 213.005 426.959 214.156 425.792 214.83C424.343 215.667 423.439 215.066 423.409 213.162L430.587 209.018L430.587 208.008C430.587 204.369 428.671 203.083 425.617 204.846C422.563 206.609 420.608 210.186 420.608 214.016L420.608 214.027C420.608 217.879 422.544 219.154 425.734 217.312ZM425.666 207.266C426.843 206.587 427.689 206.963 427.864 208.524L423.439 211.079C423.623 209.344 424.499 207.94 425.666 207.266ZM432.056 213.415L434.896 211.775L434.896 204.509C434.896 203.15 435.625 201.786 436.705 201.163C437.755 200.556 438.387 200.955 438.387 202.246L438.387 209.76L441.12 208.182L441.12 200.859C441.12 199.523 441.83 198.203 442.91 197.58C444.009 196.946 444.612 197.361 444.612 198.754L444.612 206.166L447.452 204.526L447.452 196.294C447.452 193.868 446.08 193.032 444.038 194.211C442.511 195.093 441.266 196.777 440.799 198.563L440.741 198.596C440.391 197.215 439.331 196.929 437.872 197.771C436.471 198.58 435.382 200.107 434.954 201.724L434.896 201.758L434.896 199.736L432.056 201.376L432.056 213.415ZM452.354 201.887C453.725 201.095 454.834 199.703 455.427 198.125L455.485 198.091L455.485 199.888L458.325 198.248L458.325 189.994C458.325 187.568 456.584 186.967 453.89 188.523C451.138 190.112 449.484 192.661 449.329 194.975L449.319 195.115L451.916 193.616L451.935 193.503C452.072 192.65 452.713 191.707 453.774 191.094C454.882 190.454 455.485 190.769 455.485 191.836L455.485 192.577L452.908 194.245C450.321 195.929 448.852 198.057 448.852 200.247L448.852 200.27C448.852 202.392 450.263 203.094 452.354 201.887ZM451.663 198.479L451.663 198.456C451.663 197.603 452.237 196.732 453.336 196.019L455.485 194.621L455.485 195.486C455.485 196.743 454.552 198.226 453.278 198.961C452.295 199.529 451.663 199.366 451.663 198.479ZM461.642 182.745C462.498 182.25 463.159 181.094 463.159 180.162C463.159 179.229 462.498 178.836 461.642 179.331C460.786 179.825 460.125 180.981 460.125 181.914C460.125 182.846 460.786 183.239 461.642 182.745ZM460.222 197.153L463.062 195.514L463.062 183.475L460.222 185.114L460.222 197.153ZM465.036 194.374L467.876 192.734L467.876 176.529L465.036 178.168L465.036 194.374Z" fill="white"/>
        <path d="M124.796 310.312C127.772 308.594 129.212 305.73 129.533 303.77L129.562 303.63L126.956 305.135L126.936 305.213C126.732 306.005 126.022 307.156 124.855 307.83C123.406 308.667 122.501 308.066 122.472 306.162L129.65 302.018L129.65 301.008C129.65 297.369 127.734 296.083 124.68 297.846C121.626 299.609 119.671 303.186 119.671 307.016L119.671 307.027C119.671 310.879 121.606 312.154 124.796 310.312ZM124.728 300.266C125.905 299.587 126.751 299.963 126.926 301.524L122.501 304.079C122.686 302.344 123.561 300.94 124.728 300.266ZM131.118 306.415L133.958 304.775L133.958 297.509C133.958 296.15 134.688 294.786 135.767 294.163C136.818 293.556 137.45 293.955 137.45 295.246L137.45 302.76L140.183 301.182L140.183 293.859C140.183 292.523 140.893 291.203 141.972 290.58C143.071 289.946 143.674 290.361 143.674 291.754L143.674 299.166L146.514 297.526L146.514 289.294C146.514 286.868 145.143 286.032 143.1 287.211C141.574 288.093 140.329 289.777 139.862 291.563L139.803 291.596C139.453 290.215 138.393 289.929 136.934 290.771C135.534 291.58 134.444 293.107 134.017 294.724L133.958 294.758L133.958 292.736L131.118 294.376L131.118 306.415ZM151.416 294.887C152.787 294.095 153.896 292.703 154.489 291.125L154.548 291.091L154.548 292.888L157.388 291.248L157.388 282.994C157.388 280.568 155.647 279.967 152.953 281.523C150.2 283.112 148.547 285.661 148.391 287.975L148.382 288.115L150.978 286.616L150.998 286.503C151.134 285.65 151.776 284.707 152.836 284.094C153.945 283.454 154.548 283.769 154.548 284.836L154.548 285.577L151.97 287.245C149.383 288.929 147.915 291.057 147.915 293.247L147.915 293.27C147.915 295.392 149.325 296.094 151.416 294.887ZM150.726 291.479L150.726 291.456C150.726 290.603 151.299 289.732 152.398 289.019L154.548 287.621L154.548 288.486C154.548 289.743 153.614 291.226 152.34 291.961C151.358 292.529 150.726 292.366 150.726 291.479ZM160.704 275.745C161.56 275.25 162.222 274.094 162.222 273.162C162.222 272.229 161.56 271.836 160.704 272.331C159.848 272.825 159.187 273.981 159.187 274.914C159.187 275.846 159.848 276.239 160.704 275.745ZM159.284 290.153L162.124 288.514L162.124 276.475L159.284 278.114L159.284 290.153ZM164.099 287.374L166.939 285.734L166.939 269.529L164.099 271.168L164.099 287.374Z" fill="#2D2E35"/>
        <path d="M276.322 368.505L279.434 366.708L283.519 350.258L280.686 351.894L277.903 364.574L277.852 364.604L275.062 355.141L272.237 356.771L276.322 368.505ZM287.502 362.265C290.09 360.771 291.342 358.28 291.621 356.576L291.646 356.454L289.38 357.763L289.363 357.831C289.185 358.52 288.568 359.521 287.553 360.106C286.293 360.834 285.506 360.312 285.481 358.656L291.722 355.053L291.722 354.174C291.722 351.01 290.056 349.892 287.401 351.425C284.745 352.958 283.045 356.068 283.045 359.398L283.045 359.408C283.045 362.758 284.728 363.866 287.502 362.265ZM287.443 353.529C288.466 352.938 289.202 353.266 289.354 354.623L285.506 356.845C285.667 355.336 286.428 354.115 287.443 353.529ZM292.999 358.876L295.469 357.45L295.469 351.591C295.469 350.067 296.179 348.817 297.397 348.114C297.752 347.909 298.091 347.772 298.294 347.753L298.294 345.243C298.108 345.292 297.854 345.39 297.583 345.546C296.526 346.156 295.79 347.333 295.52 348.778L295.469 348.808L295.469 346.981L292.999 348.407L292.999 358.876ZM303.165 353.222C305.905 351.64 307.656 348.598 307.656 345.18L307.656 345.16C307.656 341.771 305.871 340.761 303.157 342.328C300.45 343.891 298.674 346.977 298.674 350.346L298.674 350.365C298.674 353.773 300.408 354.813 303.165 353.222ZM303.174 350.98C301.956 351.684 301.186 350.966 301.186 348.915L301.186 348.896C301.186 346.874 301.964 345.253 303.157 344.564C304.358 343.871 305.144 344.589 305.144 346.61L305.144 346.63C305.144 348.671 304.374 350.287 303.174 350.98ZM308.933 349.677L311.402 348.251L311.402 342.235C311.402 340.868 312.104 339.525 313.212 338.886C314.32 338.246 314.878 338.705 314.878 340.072L314.878 346.244L317.348 344.818L317.348 338.061C317.348 335.609 316.215 334.789 314.219 335.941C312.849 336.732 311.918 338.002 311.453 339.472L311.402 339.501L311.402 337.782L308.933 339.208L308.933 349.677ZM320.198 331.356C320.942 330.927 321.517 329.921 321.517 329.11C321.517 328.3 320.942 327.958 320.198 328.388C319.454 328.817 318.879 329.823 318.879 330.634C318.879 331.444 319.454 331.786 320.198 331.356ZM318.963 343.886L321.433 342.46L321.433 331.991L318.963 333.417L318.963 343.886ZM327.234 339.325C329.653 337.929 331.218 335.287 331.336 332.934L331.336 332.875L329.036 334.203L329.027 334.296C328.858 335.448 328.241 336.508 327.251 337.079C326.034 337.782 325.272 337.06 325.272 335.009L325.272 334.999C325.272 332.997 326.034 331.356 327.243 330.658C328.266 330.067 328.867 330.482 329.019 331.391L329.036 331.469L331.328 330.146L331.328 330.077C331.235 327.865 329.67 327.021 327.209 328.441C324.494 330.009 322.761 333.09 322.761 336.439L322.761 336.449C322.761 339.828 324.469 340.922 327.234 339.325ZM335.227 334.662C336.419 333.974 337.383 332.763 337.899 331.391L337.95 331.361L337.95 332.924L340.419 331.498L340.419 324.32C340.419 322.211 338.906 321.688 336.563 323.041C334.169 324.423 332.732 326.64 332.596 328.651L332.588 328.773L334.846 327.47L334.863 327.372C334.981 326.63 335.54 325.81 336.461 325.277C337.426 324.721 337.95 324.994 337.95 325.922L337.95 326.566L335.709 328.017C333.459 329.481 332.182 331.332 332.182 333.236L332.182 333.256C332.182 335.102 333.408 335.712 335.227 334.662ZM334.626 331.698L334.626 331.679C334.626 330.937 335.125 330.18 336.081 329.56L337.95 328.344L337.95 329.096C337.95 330.189 337.138 331.479 336.03 332.118C335.176 332.611 334.626 332.47 334.626 331.698Z" fill="#2D2E35"/>
        <path d="M400.197 294.154L402.979 292.548L406.092 280.282L403.512 281.771L401.643 290.8L401.592 290.829L399.698 283.974L397.059 285.497L400.197 294.154ZM410.76 288.271C413.348 286.776 414.6 284.286 414.879 282.582L414.904 282.46L412.638 283.769L412.621 283.837C412.443 284.525 411.826 285.526 410.811 286.112C409.551 286.84 408.764 286.317 408.739 284.662L414.98 281.059L414.98 280.18C414.98 277.016 413.314 275.897 410.659 277.431C408.003 278.964 406.303 282.074 406.303 285.404L406.303 285.414C406.303 288.764 407.986 289.872 410.76 288.271ZM410.701 279.535C411.724 278.944 412.46 279.271 412.612 280.629L408.764 282.851C408.925 281.342 409.686 280.121 410.701 279.535ZM416.257 284.882L418.727 283.456L418.727 277.597C418.727 276.073 419.437 274.823 420.655 274.12C421.01 273.915 421.349 273.778 421.551 273.759L421.551 271.249C421.365 271.298 421.112 271.396 420.841 271.552C419.784 272.162 419.048 273.339 418.777 274.784L418.727 274.813L418.727 272.987L416.257 274.413L416.257 284.882ZM426.423 279.228C429.163 277.646 430.914 274.604 430.914 271.186L430.914 271.166C430.914 267.777 429.129 266.767 426.414 268.334C423.708 269.896 421.932 272.982 421.932 276.352L421.932 276.371C421.932 279.779 423.666 280.819 426.423 279.228ZM426.431 276.986C425.213 277.689 424.444 276.972 424.444 274.921L424.444 274.901C424.444 272.88 425.222 271.259 426.414 270.57C427.615 269.877 428.402 270.595 428.402 272.616L428.402 272.636C428.402 274.677 427.632 276.293 426.431 276.986ZM432.191 275.683L434.66 274.257L434.66 268.241C434.66 266.874 435.362 265.531 436.47 264.892C437.578 264.252 438.136 264.711 438.136 266.078L438.136 272.25L440.606 270.824L440.606 264.066C440.606 261.615 439.472 260.795 437.477 261.947C436.106 262.738 435.176 264.008 434.711 265.478L434.66 265.507L434.66 263.788L432.191 265.214L432.191 275.683ZM443.456 257.362C444.2 256.933 444.775 255.927 444.775 255.116C444.775 254.306 444.2 253.964 443.456 254.394C442.712 254.823 442.136 255.829 442.136 256.64C442.136 257.45 442.712 257.792 443.456 257.362ZM442.221 269.892L444.691 268.466L444.691 257.997L442.221 259.423L442.221 269.892ZM450.492 265.331C452.911 263.935 454.476 261.293 454.594 258.939L454.594 258.881L452.294 260.209L452.285 260.302C452.116 261.454 451.499 262.514 450.509 263.085C449.291 263.788 448.53 263.065 448.53 261.015L448.53 261.005C448.53 259.003 449.291 257.362 450.501 256.664C451.524 256.073 452.125 256.488 452.277 257.396L452.294 257.475L454.586 256.151L454.586 256.083C454.493 253.871 452.928 253.026 450.467 254.447C447.752 256.015 446.018 259.096 446.018 262.445L446.018 262.455C446.018 265.834 447.727 266.928 450.492 265.331ZM458.484 260.668C459.677 259.979 460.641 258.769 461.157 257.396L461.208 257.367L461.208 258.93L463.677 257.504L463.677 250.326C463.677 248.217 462.163 247.694 459.821 249.047C457.427 250.429 455.99 252.646 455.854 254.657L455.846 254.779L458.104 253.476L458.121 253.378C458.239 252.636 458.797 251.815 459.719 251.283C460.683 250.727 461.208 251 461.208 251.928L461.208 252.572L458.966 254.022C456.717 255.487 455.44 257.338 455.44 259.242L455.44 259.262C455.44 261.107 456.666 261.718 458.484 260.668ZM457.884 257.704L457.884 257.685C457.884 256.942 458.383 256.186 459.339 255.565L461.208 254.35L461.208 255.102C461.208 256.195 460.396 257.484 459.288 258.124C458.434 258.617 457.884 258.476 457.884 257.704ZM472.6 254.726C473.699 254.091 474.714 253.329 475.577 252.489L475.577 250.878C474.841 251.615 473.784 252.411 472.726 253.021C469.166 255.077 466.747 254.091 466.747 249.833L466.747 249.823C466.747 245.878 469.022 241.869 472.287 239.984C475.517 238.119 477.606 239.228 477.606 242.909L477.606 242.919C477.606 244.921 477.107 246.342 476.372 246.767C475.796 247.099 475.433 246.693 475.433 245.512L475.433 240.951L473.724 241.938L473.724 243.168L473.657 243.207C473.318 242.514 472.532 242.411 471.593 242.953C469.91 243.925 468.684 246.312 468.684 248.705L468.684 248.715C468.684 251.264 469.868 252.26 471.593 251.264C472.659 250.648 473.505 249.564 473.936 248.153L474.012 248.109L474.088 248.241C474.435 248.969 475.213 249.174 476.253 248.573C477.978 247.577 479.196 245.048 479.196 241.923L479.196 241.913C479.196 237.333 476.414 236 472.337 238.354C468.1 240.8 465.157 245.839 465.157 250.731L465.157 250.741C465.157 255.937 468.227 257.25 472.6 254.726ZM472.058 249.198C471.162 249.716 470.604 249.149 470.604 247.655L470.604 247.646C470.604 246.171 471.153 244.984 472.067 244.457C472.972 243.935 473.564 244.481 473.564 245.927L473.564 245.956C473.564 247.421 472.972 248.671 472.058 249.198ZM484.888 248.891C487.611 247.318 489.311 244.745 489.311 242.411L489.311 232.235L486.842 233.661L486.842 235.448L486.791 235.478C486.3 234.54 485.311 234.33 484.034 235.067C481.742 236.391 480.321 239.193 480.321 242.533L480.321 242.543C480.321 245.795 481.725 246.938 483.992 245.629C485.302 244.872 486.317 243.593 486.791 242.226L486.842 242.196L486.842 243.798C486.842 244.97 486.165 246.122 484.888 246.859C483.856 247.455 483.197 247.387 483.002 246.981L482.977 246.928L480.575 248.314L480.583 248.397C480.82 249.94 482.393 250.331 484.888 248.891ZM484.846 243.046C483.611 243.759 482.833 243.046 482.833 241.161L482.833 241.151C482.833 239.276 483.619 237.67 484.846 236.962C486.047 236.269 486.85 236.967 486.85 238.832L486.85 238.842C486.85 240.717 486.055 242.348 484.846 243.046ZM490.935 241.767L493.405 240.341L493.405 234.022C493.405 232.841 494.039 231.654 494.978 231.112C495.891 230.585 496.441 230.932 496.441 232.055L496.441 238.588L498.817 237.216L498.817 230.849C498.817 229.687 499.435 228.539 500.373 227.997C501.329 227.445 501.853 227.807 501.853 229.018L501.853 235.463L504.323 234.037L504.323 226.879C504.323 224.77 503.13 224.042 501.354 225.067C500.027 225.834 498.944 227.299 498.538 228.852L498.487 228.881C498.183 227.68 497.261 227.431 495.992 228.163C494.775 228.866 493.827 230.194 493.455 231.601L493.405 231.63L493.405 229.872L490.935 231.298L490.935 241.767ZM508.585 231.742C509.778 231.054 510.742 229.843 511.258 228.471L511.309 228.441L511.309 230.004L513.778 228.578L513.778 221.4C513.778 219.291 512.264 218.769 509.922 220.121C507.528 221.503 506.09 223.72 505.955 225.731L505.947 225.854L508.205 224.55L508.222 224.452C508.34 223.71 508.898 222.89 509.82 222.357C510.784 221.801 511.309 222.074 511.309 223.002L511.309 223.646L509.067 225.097C506.818 226.562 505.541 228.412 505.541 230.316L505.541 230.336C505.541 232.182 506.767 232.792 508.585 231.742ZM507.985 228.778L507.985 228.759C507.985 228.017 508.484 227.26 509.44 226.64L511.309 225.424L511.309 226.176C511.309 227.27 510.497 228.559 509.389 229.198C508.535 229.691 507.985 229.55 507.985 228.778ZM516.662 215.097C517.406 214.667 517.981 213.661 517.981 212.851C517.981 212.04 517.406 211.698 516.662 212.128C515.918 212.558 515.343 213.563 515.343 214.374C515.343 215.185 515.918 215.526 516.662 215.097ZM515.427 227.626L517.897 226.2L517.897 215.731L515.427 217.157L515.427 227.626ZM519.614 225.209L522.083 223.783L522.083 209.691L519.614 211.117L519.614 225.209ZM525.035 222.245C525.796 221.806 526.405 220.751 526.405 219.872C526.405 218.983 525.796 218.642 525.035 219.081C524.265 219.525 523.665 220.565 523.665 221.454C523.665 222.333 524.265 222.689 525.035 222.245ZM531.682 218.456C534.101 217.06 535.666 214.418 535.784 212.064L535.784 212.006L533.484 213.334L533.475 213.427C533.306 214.579 532.689 215.639 531.699 216.21C530.481 216.913 529.72 216.19 529.72 214.14L529.72 214.13C529.72 212.128 530.481 210.487 531.691 209.789C532.714 209.198 533.314 209.613 533.467 210.521L533.484 210.6L535.775 209.276L535.775 209.208C535.682 206.996 534.118 206.151 531.657 207.572C528.942 209.14 527.208 212.221 527.208 215.57L527.208 215.58C527.208 218.959 528.917 220.053 531.682 218.456ZM541.137 212.997C543.878 211.415 545.628 208.373 545.628 204.955L545.628 204.936C545.628 201.547 543.844 200.536 541.129 202.104C538.423 203.666 536.647 206.752 536.647 210.121L536.647 210.141C536.647 213.549 538.38 214.589 541.137 212.997ZM541.146 210.756C539.928 211.459 539.158 210.741 539.158 208.69L539.158 208.671C539.158 206.649 539.936 205.028 541.129 204.34C542.33 203.646 543.116 204.364 543.116 206.386L543.116 206.405C543.116 208.446 542.347 210.062 541.146 210.756ZM546.905 209.452L549.375 208.026L549.375 201.708C549.375 200.526 550.009 199.34 550.948 198.798C551.861 198.271 552.411 198.617 552.411 199.74L552.411 206.273L554.787 204.901L554.787 198.534C554.787 197.372 555.405 196.225 556.344 195.683C557.299 195.131 557.824 195.492 557.824 196.703L557.824 203.148L560.293 201.723L560.293 194.564C560.293 192.455 559.101 191.728 557.325 192.753C555.997 193.52 554.914 194.984 554.508 196.537L554.458 196.566C554.153 195.365 553.231 195.116 551.963 195.849C550.745 196.552 549.798 197.88 549.426 199.286L549.375 199.315L549.375 197.558L546.905 198.983L546.905 209.452Z" fill="#2D2E35"/>
        <path d="M278.771 435.58C282.171 433.617 284.184 430.131 284.184 426.293L284.184 424.672L278.906 427.719L278.906 429.916L281.697 428.305L281.689 428.515C281.621 430.292 280.479 432.094 278.813 433.056C276.783 434.228 275.498 433.163 275.498 430.106L275.498 430.097C275.498 427.108 276.707 424.691 278.72 423.529C280.099 422.733 281.071 422.963 281.477 424.096L281.511 424.174L284.074 422.694L284.048 422.572C283.642 420.16 281.646 419.34 278.712 421.034C275.134 423.1 272.893 427.118 272.893 431.63L272.893 431.64C272.893 436.229 275.126 437.685 278.771 435.58ZM289.791 429.188C292.379 427.694 293.63 425.204 293.909 423.5L293.935 423.378L291.668 424.687L291.651 424.755C291.474 425.443 290.856 426.444 289.841 427.03C288.581 427.758 287.795 427.235 287.769 425.58L294.011 421.977L294.011 421.098C294.011 417.934 292.345 416.815 289.689 418.349C287.034 419.882 285.334 422.992 285.334 426.322L285.334 426.332C285.334 429.682 287.017 430.79 289.791 429.188ZM289.732 420.453C290.755 419.862 291.491 420.189 291.643 421.547L287.795 423.769C287.955 422.26 288.717 421.039 289.732 420.453ZM299.449 423.612C302.189 422.03 303.94 418.988 303.94 415.57L303.94 415.551C303.94 412.162 302.155 411.151 299.44 412.719C296.734 414.281 294.958 417.367 294.958 420.736L294.958 420.756C294.958 424.164 296.692 425.204 299.449 423.612ZM299.457 421.371C298.24 422.074 297.47 421.356 297.47 419.306L297.47 419.286C297.47 417.265 298.248 415.644 299.44 414.955C300.641 414.262 301.428 414.979 301.428 417.001L301.428 417.021C301.428 419.062 300.658 420.678 299.457 421.371ZM305.217 420.067L307.686 418.642L307.686 412.782C307.686 411.259 308.397 410.009 309.615 409.306C309.97 409.101 310.308 408.964 310.511 408.944L310.511 406.435C310.325 406.483 310.071 406.581 309.801 406.737C308.743 407.348 308.008 408.524 307.737 409.97L307.686 409.999L307.686 408.173L305.217 409.599L305.217 420.067ZM315.459 417.787C318.182 416.215 319.882 413.642 319.882 411.308L319.882 401.132L317.412 402.558L317.412 404.345L317.361 404.374C316.871 403.437 315.881 403.227 314.604 403.964C312.312 405.287 310.892 408.09 310.892 411.43L310.892 411.439C310.892 414.691 312.296 415.834 314.562 414.525C315.873 413.769 316.888 412.489 317.361 411.122L317.412 411.093L317.412 412.694C317.412 413.866 316.736 415.019 315.459 415.756C314.427 416.352 313.767 416.283 313.573 415.878L313.547 415.824L311.145 417.211L311.154 417.294C311.391 418.837 312.964 419.228 315.459 417.787ZM315.416 411.942C314.182 412.655 313.403 411.942 313.403 410.058L313.403 410.048C313.403 408.173 314.19 406.566 315.416 405.858C316.617 405.165 317.421 405.863 317.421 407.729L317.421 407.738C317.421 409.613 316.626 411.244 315.416 411.942ZM325.633 408.495C328.221 407.001 329.472 404.511 329.751 402.807L329.777 402.685L327.51 403.993L327.493 404.062C327.316 404.75 326.698 405.751 325.683 406.337C324.423 407.064 323.637 406.542 323.611 404.887L329.853 401.283L329.853 400.404C329.853 397.24 328.187 396.122 325.531 397.655C322.876 399.188 321.176 402.299 321.176 405.629L321.176 405.639C321.176 408.988 322.859 410.097 325.633 408.495ZM325.573 399.76C326.597 399.169 327.333 399.496 327.485 400.854L323.637 403.075C323.797 401.566 324.559 400.346 325.573 399.76Z" fill="#2D2E35"/>
        <path d="M402.041 366.223C404.764 364.65 406.464 362.077 406.464 359.743L406.464 349.567L403.994 350.993L403.994 352.78L403.943 352.81C403.453 351.872 402.463 351.662 401.186 352.399C398.894 353.723 397.474 356.525 397.474 359.865L397.474 359.875C397.474 363.127 398.878 364.27 401.144 362.961C402.455 362.204 403.47 360.925 403.943 359.558L403.994 359.528L403.994 361.13C403.994 362.302 403.318 363.454 402.041 364.191C401.009 364.787 400.349 364.719 400.155 364.313L400.129 364.26L397.727 365.646L397.736 365.729C397.973 367.272 399.546 367.663 402.041 366.223ZM401.998 360.378C400.763 361.091 399.985 360.378 399.985 358.493L399.985 358.483C399.985 356.608 400.772 355.002 401.998 354.294C403.199 353.601 404.003 354.299 404.003 356.164L404.003 356.174C404.003 358.049 403.208 359.68 401.998 360.378ZM412.215 356.931C414.803 355.437 416.054 352.946 416.333 351.242L416.359 351.12L414.092 352.429L414.075 352.497C413.898 353.186 413.28 354.187 412.265 354.772C411.005 355.5 410.219 354.978 410.193 353.322L416.435 349.719L416.435 348.84C416.435 345.676 414.769 344.558 412.113 346.091C409.458 347.624 407.758 350.734 407.758 354.064L407.758 354.074C407.758 357.424 409.441 358.532 412.215 356.931ZM412.155 348.195C413.179 347.604 413.915 347.932 414.067 349.289L410.219 351.511C410.379 350.002 411.141 348.781 412.155 348.195ZM421.873 351.354C424.613 349.772 426.364 346.73 426.364 343.312L426.364 343.293C426.364 339.904 424.579 338.894 421.864 340.461C419.158 342.023 417.382 345.109 417.382 348.479L417.382 348.498C417.382 351.906 419.116 352.946 421.873 351.354ZM421.881 349.113C420.663 349.816 419.894 349.099 419.894 347.048L419.894 347.028C419.894 345.007 420.672 343.386 421.864 342.697C423.065 342.004 423.852 342.722 423.852 344.743L423.852 344.763C423.852 346.804 423.082 348.42 421.881 349.113ZM427.641 347.81L430.11 346.384L430.11 340.524C430.11 339.001 430.821 337.751 432.039 337.048C432.394 336.843 432.732 336.706 432.935 336.687L432.935 334.177C432.749 334.226 432.495 334.323 432.225 334.479C431.167 335.09 430.432 336.267 430.161 337.712L430.11 337.741L430.11 335.915L427.641 337.341L427.641 347.81ZM437.882 345.529C440.606 343.957 442.306 341.384 442.306 339.05L442.306 328.874L439.836 330.3L439.836 332.087L439.785 332.116C439.295 331.179 438.305 330.969 437.028 331.706C434.736 333.029 433.316 335.832 433.316 339.172L433.316 339.182C433.316 342.434 434.719 343.576 436.986 342.268C438.297 341.511 439.312 340.231 439.785 338.864L439.836 338.835L439.836 340.437C439.836 341.608 439.16 342.761 437.882 343.498C436.851 344.094 436.191 344.025 435.997 343.62L435.971 343.566L433.569 344.953L433.578 345.036C433.815 346.579 435.388 346.97 437.882 345.529ZM437.84 339.685C436.605 340.397 435.827 339.685 435.827 337.8L435.827 337.79C435.827 335.915 436.614 334.309 437.84 333.601C439.041 332.907 439.845 333.605 439.845 335.471L439.845 335.48C439.845 337.355 439.05 338.986 437.84 339.685ZM448.057 336.237C450.645 334.743 451.896 332.253 452.175 330.549L452.201 330.427L449.934 331.735L449.917 331.804C449.74 332.492 449.122 333.493 448.107 334.079C446.847 334.807 446.061 334.284 446.035 332.629L452.277 329.025L452.277 328.146C452.277 324.982 450.611 323.864 447.955 325.397C445.3 326.931 443.6 330.041 443.6 333.371L443.6 333.381C443.6 336.73 445.283 337.839 448.057 336.237ZM447.997 327.502C449.021 326.911 449.757 327.238 449.909 328.596L446.061 330.817C446.221 329.309 446.983 328.088 447.997 327.502ZM460.878 330.993C461.977 330.358 462.992 329.597 463.855 328.757L463.855 327.146C463.119 327.883 462.062 328.679 461.005 329.289C457.444 331.345 455.025 330.358 455.025 326.101L455.025 326.091C455.025 322.146 457.3 318.137 460.565 316.252C463.796 314.387 465.885 315.495 465.885 319.177L465.885 319.187C465.885 321.188 465.386 322.609 464.65 323.034C464.075 323.366 463.711 322.961 463.711 321.779L463.711 317.219L462.003 318.205L462.003 319.436L461.935 319.475C461.597 318.781 460.81 318.679 459.871 319.221C458.188 320.192 456.962 322.58 456.962 324.973L456.962 324.982C456.962 327.531 458.146 328.527 459.871 327.531C460.937 326.916 461.783 325.832 462.214 324.421L462.29 324.377L462.366 324.509C462.713 325.236 463.491 325.441 464.531 324.841C466.257 323.845 467.475 321.315 467.475 318.19L467.475 318.181C467.475 313.601 464.692 312.268 460.616 314.621C456.379 317.067 453.435 322.106 453.435 326.999L453.435 327.009C453.435 332.204 456.505 333.518 460.878 330.993ZM460.337 325.466C459.44 325.983 458.882 325.417 458.882 323.923L458.882 323.913C458.882 322.438 459.432 321.252 460.345 320.725C461.25 320.202 461.842 320.749 461.842 322.194L461.842 322.224C461.842 323.688 461.25 324.938 460.337 325.466ZM473.166 325.158C475.89 323.586 477.589 321.013 477.589 318.679L477.589 308.503L475.12 309.929L475.12 311.716L475.069 311.745C474.579 310.808 473.589 310.598 472.312 311.335C470.02 312.658 468.599 315.461 468.599 318.801L468.599 318.811C468.599 322.062 470.003 323.205 472.27 321.896C473.581 321.14 474.596 319.86 475.069 318.493L475.12 318.464L475.12 320.065C475.12 321.237 474.443 322.39 473.166 323.127C472.134 323.723 471.475 323.654 471.28 323.249L471.255 323.195L468.853 324.582L468.862 324.665C469.098 326.208 470.671 326.599 473.166 325.158ZM473.124 319.313C471.889 320.026 471.111 319.313 471.111 317.429L471.111 317.419C471.111 315.544 471.898 313.938 473.124 313.229C474.325 312.536 475.128 313.234 475.128 315.1L475.128 315.109C475.128 316.984 474.333 318.615 473.124 319.313ZM479.213 318.034L481.683 316.608L481.683 310.29C481.683 309.108 482.317 307.922 483.256 307.38C484.169 306.853 484.719 307.199 484.719 308.322L484.719 314.855L487.095 313.483L487.095 307.116C487.095 305.954 487.713 304.807 488.652 304.265C489.607 303.713 490.132 304.074 490.132 305.285L490.132 311.73L492.601 310.305L492.601 303.146C492.601 301.037 491.409 300.31 489.633 301.335C488.305 302.102 487.222 303.566 486.816 305.119L486.766 305.148C486.461 303.947 485.539 303.698 484.271 304.431C483.053 305.134 482.106 306.462 481.733 307.868L481.683 307.897L481.683 306.14L479.213 307.565L479.213 318.034ZM496.864 308.01C498.056 307.321 499.02 306.11 499.536 304.738L499.587 304.709L499.587 306.271L502.056 304.846L502.056 297.668C502.056 295.559 500.542 295.036 498.2 296.389C495.806 297.771 494.369 299.987 494.233 301.999L494.225 302.121L496.483 300.817L496.5 300.72C496.618 299.978 497.176 299.157 498.098 298.625C499.062 298.068 499.587 298.342 499.587 299.27L499.587 299.914L497.346 301.364C495.096 302.829 493.819 304.68 493.819 306.584L493.819 306.604C493.819 308.449 495.045 309.06 496.864 308.01ZM496.263 305.046L496.263 305.026C496.263 304.284 496.762 303.527 497.718 302.907L499.587 301.691L499.587 302.443C499.587 303.537 498.775 304.826 497.667 305.466C496.813 305.959 496.263 305.817 496.263 305.046ZM504.94 291.364C505.684 290.935 506.26 289.929 506.26 289.118C506.26 288.308 505.684 287.966 504.94 288.396C504.196 288.825 503.621 289.831 503.621 290.642C503.621 291.452 504.196 291.794 504.94 291.364ZM503.705 303.894L506.175 302.468L506.175 291.999L503.705 293.425L503.705 303.894ZM507.892 301.477L510.361 300.051L510.361 285.959L507.892 287.385L507.892 301.477ZM513.313 298.513C514.074 298.073 514.683 297.019 514.683 296.14C514.683 295.251 514.074 294.909 513.313 295.349C512.543 295.793 511.943 296.833 511.943 297.722C511.943 298.601 512.543 298.957 513.313 298.513ZM519.96 294.724C522.379 293.327 523.944 290.686 524.062 288.332L524.062 288.273L521.762 289.602L521.753 289.694C521.584 290.847 520.967 291.906 519.977 292.478C518.759 293.181 517.998 292.458 517.998 290.407L517.998 290.397C517.998 288.396 518.759 286.755 519.969 286.057C520.992 285.466 521.593 285.881 521.745 286.789L521.762 286.867L524.054 285.544L524.054 285.476C523.961 283.264 522.396 282.419 519.935 283.84C517.22 285.407 515.486 288.488 515.486 291.838L515.486 291.848C515.486 295.227 517.195 296.32 519.96 294.724ZM529.416 289.265C532.156 287.683 533.906 284.641 533.906 281.223L533.906 281.203C533.906 277.814 532.122 276.804 529.407 278.371C526.701 279.934 524.925 283.02 524.925 286.389L524.925 286.408C524.925 289.816 526.659 290.856 529.416 289.265ZM529.424 287.023C528.206 287.727 527.437 287.009 527.437 284.958L527.437 284.938C527.437 282.917 528.215 281.296 529.407 280.607C530.608 279.914 531.395 280.632 531.395 282.653L531.395 282.673C531.395 284.714 530.625 286.33 529.424 287.023ZM535.183 285.72L537.653 284.294L537.653 277.976C537.653 276.794 538.287 275.607 539.226 275.065C540.139 274.538 540.689 274.885 540.689 276.008L540.689 282.541L543.066 281.169L543.066 274.802C543.066 273.64 543.683 272.492 544.622 271.95C545.577 271.398 546.102 271.76 546.102 272.971L546.102 279.416L548.571 277.99L548.571 270.832C548.571 268.723 547.379 267.995 545.603 269.021C544.275 269.787 543.193 271.252 542.787 272.805L542.736 272.834C542.431 271.633 541.51 271.384 540.241 272.116C539.023 272.819 538.076 274.147 537.704 275.554L537.653 275.583L537.653 273.825L535.183 275.251L535.183 285.72Z" fill="#2D2E35"/>
        <path d="M272.084 510.959L274.765 509.411L275.687 505.461L280 502.971L280.922 505.856L283.603 504.309L279.349 492.673L276.347 494.406L272.084 510.959ZM277.818 496.291L277.869 496.262L279.408 501.105L276.279 502.912L277.818 496.291ZM284.644 503.708L287.113 502.282L287.113 496.267C287.113 494.899 287.815 493.557 288.923 492.917C290.031 492.277 290.589 492.736 290.589 494.104L290.589 500.275L293.059 498.85L293.059 492.092C293.059 489.641 291.925 488.82 289.929 489.973C288.559 490.764 287.629 492.033 287.164 493.503L287.113 493.532L287.113 491.813L284.644 493.239L284.644 503.708ZM294.623 497.946L297.093 496.521L297.093 490.505C297.093 489.138 297.795 487.795 298.902 487.155C300.01 486.516 300.569 486.975 300.569 488.342L300.569 494.514L303.038 493.088L303.038 486.33C303.038 483.879 301.905 483.059 299.909 484.211C298.539 485.002 297.609 486.271 297.143 487.741L297.093 487.771L297.093 486.052L294.623 487.478L294.623 497.946Z" fill="#2D2E35"/>
        <path d="M405.501 433.145C406.694 432.456 407.658 431.245 408.174 429.873L408.225 429.844L408.225 431.406L410.694 429.98L410.694 422.803C410.694 420.693 409.18 420.171 406.838 421.523C404.444 422.905 403.006 425.122 402.871 427.134L402.863 427.256L405.121 425.952L405.138 425.854C405.256 425.112 405.814 424.292 406.736 423.76C407.7 423.203 408.225 423.477 408.225 424.404L408.225 425.049L405.983 426.499C403.734 427.964 402.457 429.814 402.457 431.719L402.457 431.738C402.457 433.584 403.683 434.194 405.501 433.145ZM404.901 430.181L404.901 430.161C404.901 429.419 405.4 428.662 406.355 428.042L408.225 426.826L408.225 427.578C408.225 428.672 407.413 429.961 406.305 430.601C405.451 431.094 404.901 430.952 404.901 430.181ZM412.293 429.058L414.762 427.632L414.762 421.616C414.762 420.249 415.464 418.906 416.572 418.267C417.68 417.627 418.238 418.086 418.238 419.453L418.238 425.625L420.708 424.199L420.708 417.441C420.708 414.99 419.574 414.17 417.578 415.322C416.208 416.113 415.278 417.383 414.813 418.853L414.762 418.882L414.762 417.163L412.293 418.589L412.293 429.058ZM422.272 423.296L424.742 421.87L424.742 415.854C424.742 414.487 425.444 413.145 426.551 412.505C427.659 411.865 428.218 412.324 428.218 413.691L428.218 419.863L430.687 418.438L430.687 411.68C430.687 409.229 429.554 408.408 427.558 409.561C426.188 410.352 425.258 411.621 424.792 413.091L424.742 413.12L424.742 411.401L422.272 412.827L422.272 423.296ZM439.576 415.679C440.675 415.044 441.69 414.282 442.553 413.442L442.553 411.831C441.817 412.568 440.76 413.364 439.703 413.975C436.142 416.03 433.723 415.044 433.723 410.786L433.723 410.776C433.723 406.831 435.998 402.822 439.263 400.938C442.493 399.072 444.582 400.181 444.582 403.862L444.582 403.872C444.582 405.874 444.083 407.295 443.348 407.72C442.773 408.052 442.409 407.646 442.409 406.465L442.409 401.904L440.701 402.891L440.701 404.121L440.633 404.16C440.295 403.467 439.508 403.364 438.569 403.906C436.886 404.878 435.66 407.266 435.66 409.658L435.66 409.668C435.66 412.217 436.844 413.213 438.569 412.217C439.635 411.602 440.481 410.518 440.912 409.106L440.988 409.062L441.064 409.194C441.411 409.922 442.189 410.127 443.229 409.526C444.955 408.53 446.172 406.001 446.172 402.876L446.172 402.866C446.172 398.286 443.39 396.953 439.314 399.307C435.076 401.753 432.133 406.792 432.133 411.685L432.133 411.694C432.133 416.89 435.203 418.203 439.576 415.679ZM439.034 410.151C438.138 410.669 437.58 410.103 437.58 408.608L437.58 408.599C437.58 407.124 438.129 405.938 439.043 405.41C439.948 404.888 440.54 405.435 440.54 406.88L440.54 406.909C440.54 408.374 439.948 409.624 439.034 410.151ZM451.864 409.844C454.587 408.271 456.287 405.698 456.287 403.364L456.287 393.188L453.818 394.614L453.818 396.401L453.767 396.431C453.276 395.493 452.287 395.283 451.01 396.021C448.718 397.344 447.297 400.146 447.297 403.486L447.297 403.496C447.297 406.748 448.701 407.891 450.968 406.582C452.279 405.825 453.293 404.546 453.767 403.179L453.818 403.149L453.818 404.751C453.818 405.923 453.141 407.075 451.864 407.812C450.832 408.408 450.173 408.34 449.978 407.935L449.953 407.881L447.551 409.268L447.559 409.351C447.796 410.894 449.369 411.284 451.864 409.844ZM451.822 403.999C450.587 404.712 449.809 403.999 449.809 402.114L449.809 402.104C449.809 400.229 450.596 398.623 451.822 397.915C453.023 397.222 453.826 397.92 453.826 399.785L453.826 399.795C453.826 401.67 453.031 403.301 451.822 403.999ZM457.911 402.72L460.381 401.294L460.381 394.976C460.381 393.794 461.015 392.607 461.954 392.065C462.867 391.538 463.417 391.885 463.417 393.008L463.417 399.541L465.793 398.169L465.793 391.802C465.793 390.64 466.411 389.492 467.349 388.95C468.305 388.398 468.829 388.76 468.829 389.971L468.829 396.416L471.299 394.99L471.299 387.832C471.299 385.723 470.106 384.995 468.33 386.021C467.003 386.787 465.92 388.252 465.514 389.805L465.463 389.834C465.159 388.633 464.237 388.384 462.969 389.116C461.751 389.819 460.803 391.147 460.431 392.554L460.381 392.583L460.381 390.825L457.911 392.251L457.911 402.72ZM475.561 392.695C476.754 392.007 477.718 390.796 478.234 389.424L478.285 389.395L478.285 390.957L480.754 389.531L480.754 382.354C480.754 380.244 479.24 379.722 476.898 381.074C474.504 382.456 473.067 384.673 472.931 386.685L472.923 386.807L475.181 385.503L475.198 385.405C475.316 384.663 475.874 383.843 476.796 383.311C477.76 382.754 478.285 383.027 478.285 383.955L478.285 384.6L476.043 386.05C473.794 387.515 472.517 389.365 472.517 391.27L472.517 391.289C472.517 393.135 473.743 393.745 475.561 392.695ZM474.961 389.731L474.961 389.712C474.961 388.97 475.46 388.213 476.416 387.593L478.285 386.377L478.285 387.129C478.285 388.223 477.473 389.512 476.365 390.151C475.511 390.645 474.961 390.503 474.961 389.731ZM483.638 376.05C484.382 375.62 484.957 374.614 484.957 373.804C484.957 372.993 484.382 372.651 483.638 373.081C482.894 373.511 482.319 374.517 482.319 375.327C482.319 376.138 482.894 376.479 483.638 376.05ZM482.403 388.579L484.873 387.153L484.873 376.685L482.403 378.11L482.403 388.579ZM486.59 386.162L489.059 384.736L489.059 370.645L486.59 372.07L486.59 386.162ZM492.011 383.198C492.772 382.759 493.381 381.704 493.381 380.825C493.381 379.937 492.772 379.595 492.011 380.034C491.241 380.479 490.641 381.519 490.641 382.407C490.641 383.286 491.241 383.643 492.011 383.198ZM498.658 379.409C501.077 378.013 502.642 375.371 502.76 373.018L502.76 372.959L500.46 374.287L500.451 374.38C500.282 375.532 499.665 376.592 498.675 377.163C497.457 377.866 496.696 377.144 496.696 375.093L496.696 375.083C496.696 373.081 497.457 371.44 498.667 370.742C499.69 370.151 500.29 370.566 500.443 371.475L500.46 371.553L502.752 370.229L502.752 370.161C502.659 367.949 501.094 367.104 498.633 368.525C495.918 370.093 494.184 373.174 494.184 376.523L494.184 376.533C494.184 379.912 495.893 381.006 498.658 379.409ZM508.113 373.95C510.854 372.368 512.604 369.326 512.604 365.908L512.604 365.889C512.604 362.5 510.82 361.489 508.105 363.057C505.399 364.619 503.623 367.705 503.623 371.074L503.623 371.094C503.623 374.502 505.356 375.542 508.113 373.95ZM508.122 371.709C506.904 372.412 506.134 371.694 506.134 369.644L506.134 369.624C506.134 367.603 506.913 365.981 508.105 365.293C509.306 364.6 510.092 365.317 510.092 367.339L510.092 367.358C510.092 369.399 509.323 371.016 508.122 371.709ZM513.881 370.405L516.351 368.979L516.351 362.661C516.351 361.479 516.985 360.293 517.924 359.751C518.837 359.224 519.387 359.57 519.387 360.693L519.387 367.227L521.764 365.854L521.764 359.487C521.764 358.325 522.381 357.178 523.32 356.636C524.275 356.084 524.8 356.445 524.8 357.656L524.8 364.102L527.269 362.676L527.269 355.518C527.269 353.408 526.077 352.681 524.301 353.706C522.973 354.473 521.89 355.938 521.484 357.49L521.434 357.52C521.129 356.318 520.207 356.069 518.939 356.802C517.721 357.505 516.774 358.833 516.402 360.239L516.351 360.269L516.351 358.511L513.881 359.937L513.881 370.405Z" fill="#2D2E35"/>
        <path d="M128.916 193.842C132.691 191.662 135.046 187.783 135.046 184.033L135.046 173.1L131.981 174.869L131.981 185.486C131.981 187.678 130.885 189.705 128.916 190.842C126.947 191.979 125.841 191.223 125.841 189.031L125.841 178.414L122.776 180.184L122.776 191.117C122.776 194.879 125.161 196.01 128.916 193.842ZM141.51 186.535C144.311 184.918 146.27 182.17 146.27 179.709L146.27 179.697C146.27 177.846 145.336 177.354 143.063 178.115L141.216 178.725C140.12 179.088 139.744 178.883 139.744 178.238L139.744 178.227C139.744 177.418 140.384 176.521 141.409 175.93C142.505 175.297 143.144 175.607 143.246 176.451L143.256 176.539L145.986 174.963L145.986 174.846C145.915 172.684 144.301 171.846 141.409 173.516C138.638 175.115 136.852 177.693 136.852 180.084L136.852 180.096C136.852 181.971 137.918 182.574 140.029 181.871L141.876 181.25C142.941 180.904 143.307 181.08 143.307 181.748L143.307 181.76C143.307 182.568 142.627 183.465 141.51 184.109C140.323 184.795 139.684 184.59 139.491 183.717L139.47 183.623L136.578 185.293L136.588 185.393C136.822 187.637 138.496 188.275 141.51 186.535ZM152.684 180.084C155.79 178.291 157.292 175.303 157.626 173.258L157.657 173.111L154.937 174.682L154.917 174.764C154.704 175.59 153.963 176.791 152.745 177.494C151.233 178.367 150.289 177.74 150.259 175.754L157.748 171.43L157.748 170.375C157.748 166.578 155.749 165.236 152.562 167.076C149.376 168.916 147.336 172.648 147.336 176.645L147.336 176.656C147.336 180.676 149.355 182.006 152.684 180.084ZM152.613 169.602C153.841 168.893 154.724 169.285 154.907 170.914L150.289 173.58C150.482 171.77 151.395 170.305 152.613 169.602ZM159.281 176.018L162.244 174.307L162.244 167.275C162.244 165.447 163.097 163.947 164.558 163.104C164.984 162.857 165.39 162.693 165.634 162.67L165.634 159.658C165.411 159.717 165.106 159.834 164.781 160.021C163.513 160.754 162.63 162.166 162.305 163.9L162.244 163.936L162.244 161.744L159.281 163.455L159.281 176.018Z" fill="white"/>
        <path d="M53.0933 259L50.0622 260.75C48.6273 261.578 47.4641 263.593 47.4641 265.25L47.4641 317.192C47.4641 317.756 47.3265 318.388 47.067 319.016L44.8658 324.339C44.3363 325.62 44.3363 326.858 44.8658 327.527L47.067 330.309C47.3265 330.637 47.4641 331.11 47.4641 331.674L47.4641 382.819C47.4641 384.476 48.6273 385.147 50.0622 384.319L53.0933 382.569" stroke="#B8C0CD" stroke-width="2"/>
        <path d="M53.0933 393L50.0622 394.75C48.6273 395.578 47.4641 397.593 47.4641 399.25L47.4641 467.192C47.4641 467.756 47.3265 468.388 47.067 469.016L44.8658 474.339C44.3363 475.62 44.3363 476.858 44.8658 477.527L47.067 480.309C47.3265 480.637 47.4641 481.11 47.4641 481.674L47.4641 548.819C47.4641 550.476 48.6273 551.147 50.0622 550.319L53.0933 548.569" stroke="#B8C0CD" stroke-width="2"/>
        <path d="M29 346.195L29 343.914L22.3437 343.914L22.3437 342.305L20.625 342.305L20.625 343.969L20.0391 343.969C19.4375 343.969 19.1172 343.633 19.1172 342.875C19.1172 342.664 19.125 342.445 19.1562 342.289L17.6484 342.289C17.5937 342.555 17.5547 343.016 17.5547 343.437C17.5547 345.414 18.3125 346.195 19.9531 346.195L20.625 346.195L20.625 347.336L22.3437 347.336L22.3437 346.195L29 346.195ZM19.5469 339.914C19.5469 339.227 19.0078 338.695 18.3594 338.695C17.7109 338.695 17.1719 339.227 17.1719 339.914C17.1719 340.602 17.7109 341.133 18.3594 341.133C19.0078 341.133 19.5469 340.602 19.5469 339.914ZM29 341.055L29 338.773L20.625 338.773L20.625 341.055L29 341.055ZM29.1719 333.43C29.1719 331.039 27.7578 329.883 26.5234 329.625L26.4375 329.602L26.4375 331.695L26.4844 331.711C26.9531 331.875 27.4687 332.445 27.4687 333.383C27.4687 334.547 26.6875 335.273 25.3516 335.297L25.3516 329.531L24.6484 329.531C22.1172 329.531 20.4531 331.07 20.4531 333.523C20.4531 335.977 22.1562 337.547 24.8203 337.547L24.8281 337.547C27.5078 337.547 29.1719 335.992 29.1719 333.43ZM22.1562 333.484C22.1562 332.539 22.7578 331.859 23.9141 331.719L23.9141 335.273C22.7812 335.125 22.1562 334.422 22.1562 333.484ZM29 328.297L29 326.016L17.7266 326.016L17.7266 328.297L29 328.297ZM29.1719 321.375C29.1719 320.164 28.5625 319.242 27.5703 318.797L27.5703 318.75L29 318.75L29 316.469L17.7266 316.469L17.7266 318.75L22.0781 318.75L22.0781 318.797C21.0625 319.25 20.4531 320.187 20.4531 321.375C20.4531 323.484 22.0781 324.781 24.8047 324.781L24.8125 324.781C27.5312 324.781 29.1719 323.484 29.1719 321.375ZM27.2812 320.609C27.2812 321.75 26.3359 322.461 24.8125 322.461L24.8047 322.461C23.2734 322.461 22.3437 321.742 22.3437 320.609C22.3437 319.508 23.2969 318.742 24.8047 318.742L24.8125 318.742C26.3281 318.742 27.2812 319.5 27.2812 320.609ZM29.1719 311.5C29.1719 309.344 28.0937 307.836 26.4531 307.836L26.4453 307.836C25.2109 307.836 24.5234 308.555 24.1562 310.305L23.8516 311.727C23.6719 312.57 23.3906 312.859 22.9609 312.859L22.9531 312.859C22.4141 312.859 22.0625 312.367 22.0625 311.578C22.0625 310.734 22.5156 310.242 23.1172 310.164L23.1797 310.156L23.1797 308.055L23.1016 308.055C21.6328 308.109 20.4531 309.352 20.4531 311.578C20.4531 313.711 21.4844 315.086 23.0781 315.086L23.0859 315.086C24.3359 315.086 25.1484 314.266 25.4922 312.641L25.7891 311.219C25.9687 310.398 26.2266 310.117 26.6719 310.117L26.6797 310.117C27.2187 310.117 27.5547 310.641 27.5547 311.5C27.5547 312.414 27.1719 312.906 26.5156 313.055L26.4453 313.07L26.4453 315.297L26.5156 315.289C28.1016 315.109 29.1719 313.82 29.1719 311.5Z" fill="black"/>
        <path d="M29 505.102L29 502.82L23.9453 502.82C23 502.82 22.3437 502.234 22.3437 501.367C22.3437 500.523 22.875 500.016 23.7734 500.016L29 500.016L29 497.82L23.9062 497.82C22.9766 497.82 22.3437 497.25 22.3437 496.383C22.3437 495.5 22.875 495.016 23.8437 495.016L29 495.016L29 492.734L23.2734 492.734C21.5859 492.734 20.4531 493.836 20.4531 495.477C20.4531 496.703 21.125 497.703 22.1797 498.078L22.1797 498.125C21.0781 498.406 20.4531 499.258 20.4531 500.43C20.4531 501.555 21.0781 502.43 22.0312 502.773L22.0312 502.82L20.625 502.82L20.625 505.102L29 505.102ZM29.1719 487.477C29.1719 485.086 27.7578 483.93 26.5234 483.672L26.4375 483.648L26.4375 485.742L26.4844 485.758C26.9531 485.922 27.4687 486.492 27.4687 487.43C27.4687 488.594 26.6875 489.32 25.3516 489.344L25.3516 483.578L24.6484 483.578C22.1172 483.578 20.4531 485.117 20.4531 487.57C20.4531 490.023 22.1562 491.594 24.8203 491.594L24.8281 491.594C27.5078 491.594 29.1719 490.039 29.1719 487.477ZM22.1562 487.531C22.1562 486.586 22.7578 485.906 23.9141 485.766L23.9141 489.32C22.7812 489.172 22.1562 488.469 22.1562 487.531ZM29.1719 479.07C29.1719 478.594 29.125 478.227 29.0859 477.969L27.4141 477.969C27.4297 478.109 27.4531 478.258 27.4531 478.461C27.4531 479.148 27.1875 479.5 26.4062 479.5L22.3437 479.5L22.3437 477.969L20.625 477.969L20.625 479.5L18.5781 479.5L18.5781 481.805L20.625 481.805L20.625 482.969L22.3437 482.969L22.3437 481.805L26.6562 481.805C28.4531 481.805 29.1719 480.93 29.1719 479.07ZM29 476.656L29 474.375L24.2031 474.375C23.1094 474.375 22.3437 473.727 22.3437 472.719C22.3437 471.68 23.0391 471.102 24.2109 471.102L29 471.102L29 468.82L23.7422 468.82C21.7187 468.82 20.4531 469.945 20.4531 471.758C20.4531 473.016 21.0312 473.898 22.0703 474.328L22.0703 474.375L17.7266 474.375L17.7266 476.656L29 476.656ZM29.1719 463.508C29.1719 460.977 27.5469 459.359 24.8125 459.359L24.7969 459.359C22.0859 459.359 20.4531 461.008 20.4531 463.516C20.4531 466.016 22.1016 467.656 24.7969 467.656L24.8125 467.656C27.5391 467.656 29.1719 466.055 29.1719 463.508ZM27.3828 463.5C27.3828 464.625 26.4531 465.336 24.8125 465.336L24.7969 465.336C23.1797 465.336 22.2422 464.617 22.2422 463.516C22.2422 462.406 23.1797 461.68 24.7969 461.68L24.8125 461.68C26.4453 461.68 27.3828 462.391 27.3828 463.5ZM29.1719 455.078C29.1719 453.867 28.5625 452.945 27.5703 452.5L27.5703 452.453L29 452.453L29 450.172L17.7266 450.172L17.7266 452.453L22.0781 452.453L22.0781 452.5C21.0625 452.953 20.4531 453.891 20.4531 455.078C20.4531 457.187 22.0781 458.484 24.8047 458.484L24.8125 458.484C27.5312 458.484 29.1719 457.187 29.1719 455.078ZM27.2812 454.312C27.2812 455.453 26.3359 456.164 24.8125 456.164L24.8047 456.164C23.2734 456.164 22.3437 455.445 22.3437 454.312C22.3437 453.211 23.2969 452.445 24.8047 452.445L24.8125 452.445C26.3281 452.445 27.2812 453.203 27.2812 454.312ZM29.1719 445.203C29.1719 443.047 28.0937 441.539 26.4531 441.539L26.4453 441.539C25.2109 441.539 24.5234 442.258 24.1562 444.008L23.8516 445.43C23.6719 446.273 23.3906 446.562 22.9609 446.562L22.9531 446.562C22.4141 446.562 22.0625 446.07 22.0625 445.281C22.0625 444.437 22.5156 443.945 23.1172 443.867L23.1797 443.859L23.1797 441.758L23.1016 441.758C21.6328 441.812 20.4531 443.055 20.4531 445.281C20.4531 447.414 21.4844 448.789 23.0781 448.789L23.0859 448.789C24.3359 448.789 25.1484 447.969 25.4922 446.344L25.7891 444.922C25.9687 444.102 26.2266 443.82 26.6719 443.82L26.6797 443.82C27.2187 443.82 27.5547 444.344 27.5547 445.203C27.5547 446.117 27.1719 446.609 26.5156 446.758L26.4453 446.773L26.4453 449L26.5156 448.992C28.1016 448.812 29.1719 447.523 29.1719 445.203Z" fill="black"/>
        <rect width="168" height="44" transform="matrix(0.866025 -0.5 2.20305e-08 1 70 134)" fill="#FDF3B4"/>
        <path d="M79.3063 159.627L82.5234 157.77L83.6297 153.029L88.8055 150.041L89.9117 153.504L93.1289 151.646L88.0241 137.684L84.4213 139.764L79.3063 159.627ZM86.1871 142.025L86.248 141.99L88.0951 147.803L84.3401 149.971L86.1871 142.025ZM98.9441 148.547C101.847 146.871 103.724 143.701 103.866 140.877L103.866 140.807L101.106 142.4L101.096 142.512C100.893 143.895 100.152 145.166 98.9644 145.852C97.503 146.695 96.5896 145.828 96.5896 143.367L96.5896 143.355C96.5896 140.953 97.503 138.984 98.9542 138.146C100.182 137.438 100.903 137.936 101.085 139.025L101.106 139.119L103.856 137.531L103.856 137.449C103.744 134.795 101.867 133.781 98.9136 135.486C95.6559 137.367 93.5754 141.064 93.5754 145.084L93.5754 145.096C93.5754 149.15 95.6255 150.463 98.9441 148.547ZM109.621 142.383C110.24 142.025 110.717 141.68 111.052 141.428L111.052 138.92C110.869 139.049 110.676 139.195 110.412 139.348C109.519 139.863 109.062 139.729 109.062 138.557L109.062 132.463L111.052 131.314L111.052 128.736L109.062 129.885L109.062 126.814L106.069 128.543L106.069 131.613L104.556 132.486L104.556 135.064L106.069 134.191L106.069 140.66C106.069 143.355 107.205 143.777 109.621 142.383ZM114.228 125.285C115.121 124.77 115.811 123.562 115.811 122.59C115.811 121.617 115.121 121.207 114.228 121.723C113.335 122.238 112.645 123.445 112.645 124.418C112.645 125.391 113.335 125.801 114.228 125.285ZM112.746 140.32L115.71 138.609L115.71 126.047L112.746 127.758L112.746 140.32ZM120.571 135.803L123.91 133.875L127.645 119.156L124.549 120.943L122.306 131.777L122.246 131.812L119.972 123.586L116.806 125.414L120.571 135.803ZM133.247 128.742C136.352 126.949 137.854 123.961 138.189 121.916L138.22 121.77L135.5 123.34L135.48 123.422C135.266 124.248 134.526 125.449 133.308 126.152C131.796 127.025 130.852 126.398 130.821 124.412L138.311 120.088L138.311 119.033C138.311 115.236 136.312 113.895 133.125 115.734C129.938 117.574 127.898 121.307 127.898 125.303L127.898 125.314C127.898 129.334 129.918 130.664 133.247 128.742ZM133.176 118.26C134.404 117.551 135.287 117.943 135.469 119.572L130.852 122.238C131.045 120.428 131.958 118.963 133.176 118.26ZM140.097 124.529L143.162 122.76L143.162 116.631L145.618 115.213L148.348 119.766L151.819 117.762L148.734 112.887C150.358 111.211 151.383 108.768 151.383 106.541L151.383 106.518C151.383 103.119 149.434 102.229 146.146 104.127L140.097 107.619L140.097 124.529ZM143.162 113.947L143.162 108.615L145.77 107.109C147.283 106.236 148.247 106.711 148.247 108.328L148.247 108.352C148.247 110.016 147.333 111.539 145.811 112.418L143.162 113.947ZM158.01 114.445C161.115 112.652 162.617 109.664 162.952 107.619L162.983 107.473L160.263 109.043L160.242 109.125C160.029 109.951 159.288 111.152 158.071 111.855C156.558 112.729 155.615 112.102 155.584 110.115L163.074 105.791L163.074 104.736C163.074 100.939 161.075 99.5977 157.888 101.438C154.701 103.277 152.661 107.01 152.661 111.006L152.661 111.018C152.661 115.037 154.681 116.367 158.01 114.445ZM157.939 103.963C159.167 103.254 160.05 103.646 160.232 105.275L155.615 107.941C155.807 106.131 156.721 104.666 157.939 103.963ZM169.579 107.766C172.482 106.09 174.359 102.92 174.501 100.096L174.501 100.025L171.741 101.619L171.731 101.73C171.528 103.113 170.787 104.385 169.6 105.07C168.138 105.914 167.225 105.047 167.225 102.586L167.225 102.574C167.225 100.172 168.138 98.2031 169.589 97.3652C170.817 96.6562 171.538 97.1543 171.721 98.2441L171.741 98.3379L174.491 96.75L174.491 96.668C174.38 94.0137 172.502 93 169.549 94.7051C166.291 96.5859 164.211 100.283 164.211 104.303L164.211 104.314C164.211 108.369 166.261 109.682 169.579 107.766ZM180.926 101.215C184.214 99.3164 186.315 95.666 186.315 91.5645L186.315 91.541C186.315 87.4746 184.173 86.2617 180.915 88.1426C177.668 90.0176 175.537 93.7207 175.537 97.7637L175.537 97.7871C175.537 101.877 177.617 103.125 180.926 101.215ZM180.936 98.5254C179.474 99.3691 178.551 98.5078 178.551 96.0469L178.551 96.0234C178.551 93.5977 179.484 91.6523 180.915 90.8262C182.357 89.9941 183.3 90.8555 183.3 93.2812L183.3 93.3047C183.3 95.7539 182.377 97.6934 180.936 98.5254ZM187.847 96.9609L190.81 95.25L190.81 88.2188C190.81 86.3906 191.663 84.8906 193.124 84.0469C193.551 83.8008 193.957 83.6367 194.2 83.6133L194.2 80.6016C193.977 80.6602 193.672 80.7773 193.348 80.9648C192.079 81.6973 191.196 83.1094 190.871 84.8438L190.81 84.8789L190.81 82.6875L187.847 84.3984L187.847 96.9609ZM199.082 90.7324C200.655 89.8242 201.852 88.2188 202.431 86.3965L202.492 86.3613L202.492 88.5059L205.455 86.7949L205.455 69.8848L202.492 71.5957L202.492 78.123L202.431 78.1582C201.842 76.9746 200.624 76.7637 199.082 77.6543C196.342 79.2363 194.657 82.6465 194.657 86.7363L194.657 86.748C194.657 90.8262 196.342 92.3145 199.082 90.7324ZM200.076 87.3223C198.595 88.1777 197.671 87.293 197.671 85.0078L197.671 84.9961C197.671 82.6992 198.605 80.7656 200.076 79.916C201.507 79.0898 202.502 79.9453 202.502 82.207L202.502 82.2188C202.502 84.4922 201.517 86.4902 200.076 87.3223Z" fill="black"/>
        <rect width="131" height="44" transform="matrix(0.866025 -0.5 2.20305e-08 1 345 167.5)" fill="#FDF3B4"/>
        <path d="M355.142 192.645L360.734 189.416C365.128 186.879 367.716 182.232 367.716 176.865L367.716 176.842C367.716 171.486 365.118 169.975 360.734 172.506L355.142 175.734L355.142 192.645ZM358.207 187.945L358.207 176.883L360.368 175.635C363.058 174.082 364.59 175.131 364.59 178.658L364.59 178.682C364.59 182.338 363.109 185.115 360.368 186.697L358.207 187.945ZM372.618 182.754C374.049 181.928 375.206 180.475 375.825 178.828L375.886 178.793L375.886 180.668L378.849 178.957L378.849 170.344C378.849 167.812 377.033 167.186 374.221 168.809C371.349 170.467 369.624 173.127 369.462 175.541L369.452 175.688L372.161 174.123L372.182 174.006C372.324 173.115 372.993 172.131 374.1 171.492C375.257 170.824 375.886 171.152 375.886 172.266L375.886 173.039L373.196 174.779C370.497 176.537 368.964 178.758 368.964 181.043L368.964 181.066C368.964 183.281 370.436 184.014 372.618 182.754ZM371.897 179.197L371.897 179.174C371.897 178.283 372.496 177.375 373.643 176.631L375.886 175.172L375.886 176.074C375.886 177.387 374.912 178.934 373.582 179.701C372.557 180.293 371.897 180.123 371.897 179.197ZM385.091 175.611C385.71 175.254 386.187 174.908 386.522 174.656L386.522 172.148C386.339 172.277 386.146 172.424 385.882 172.576C384.989 173.092 384.533 172.957 384.533 171.785L384.533 165.691L386.522 164.543L386.522 161.965L384.533 163.113L384.533 160.043L381.539 161.771L381.539 164.842L380.027 165.715L380.027 168.293L381.539 167.42L381.539 173.889C381.539 176.584 382.675 177.006 385.091 175.611ZM391.292 171.973C392.723 171.146 393.88 169.693 394.499 168.047L394.56 168.012L394.56 169.887L397.523 168.176L397.523 159.562C397.523 157.031 395.706 156.404 392.895 158.027C390.023 159.686 388.298 162.346 388.135 164.76L388.125 164.906L390.835 163.342L390.855 163.225C390.997 162.334 391.667 161.35 392.773 160.711C393.93 160.043 394.56 160.371 394.56 161.484L394.56 162.258L391.87 163.998C389.171 165.756 387.638 167.977 387.638 170.262L387.638 170.285C387.638 172.5 389.11 173.232 391.292 171.973ZM390.571 168.416L390.571 168.393C390.571 167.502 391.17 166.594 392.317 165.85L394.56 164.391L394.56 165.293C394.56 166.605 393.585 168.152 392.256 168.92C391.231 169.512 390.571 169.342 390.571 168.416ZM403.815 164.543L410.3 160.799C413.426 158.994 415.364 156.023 415.364 153.059L415.364 153.035C415.364 150.82 413.893 150.006 411.853 151.008L411.853 150.938C413.467 149.76 414.685 147.475 414.685 145.623L414.685 145.6C414.685 142.998 412.949 142.359 410.189 143.953L403.815 147.633L403.815 164.543ZM409.397 147.035C410.828 146.209 411.67 146.496 411.67 147.844L411.67 147.867C411.67 149.332 410.747 150.697 409.022 151.693L406.88 152.93L406.88 148.488L409.397 147.035ZM409.387 153.885C411.264 152.801 412.239 153.07 412.239 154.617L412.239 154.641C412.239 156.211 411.275 157.6 409.519 158.613L406.88 160.137L406.88 155.332L409.387 153.885ZM420.094 155.344C421.525 154.518 422.682 153.064 423.301 151.418L423.362 151.383L423.362 153.258L426.325 151.547L426.325 142.934C426.325 140.402 424.508 139.775 421.697 141.398C418.825 143.057 417.1 145.717 416.938 148.131L416.927 148.277L419.637 146.713L419.657 146.596C419.799 145.705 420.469 144.721 421.575 144.082C422.732 143.414 423.362 143.742 423.362 144.855L423.362 145.629L420.672 147.369C417.973 149.127 416.44 151.348 416.44 153.633L416.44 153.656C416.44 155.871 417.912 156.604 420.094 155.344ZM419.373 151.787L419.373 151.764C419.373 150.873 419.972 149.965 421.119 149.221L423.362 147.762L423.362 148.664C423.362 149.977 422.387 151.523 421.058 152.291C420.033 152.883 419.373 152.713 419.373 151.787ZM432.719 148.113C435.52 146.496 437.479 143.748 437.479 141.287L437.479 141.275C437.479 139.424 436.545 138.932 434.272 139.693L432.424 140.303C431.328 140.666 430.953 140.461 430.953 139.816L430.953 139.805C430.953 138.996 431.592 138.1 432.617 137.508C433.713 136.875 434.353 137.186 434.454 138.029L434.464 138.117L437.194 136.541L437.194 136.424C437.123 134.262 435.51 133.424 432.617 135.094C429.847 136.693 428.061 139.271 428.061 141.662L428.061 141.674C428.061 143.549 429.126 144.152 431.237 143.449L433.084 142.828C434.15 142.482 434.515 142.658 434.515 143.326L434.515 143.338C434.515 144.146 433.835 145.043 432.719 145.688C431.531 146.373 430.892 146.168 430.699 145.295L430.679 145.201L427.787 146.871L427.797 146.971C428.03 149.215 429.705 149.854 432.719 148.113ZM443.893 141.662C446.998 139.869 448.5 136.881 448.835 134.836L448.865 134.689L446.146 136.26L446.125 136.342C445.912 137.168 445.171 138.369 443.953 139.072C442.441 139.945 441.497 139.318 441.467 137.332L448.957 133.008L448.957 131.953C448.957 128.156 446.957 126.814 443.771 128.654C440.584 130.494 438.544 134.227 438.544 138.223L438.544 138.234C438.544 142.254 440.564 143.584 443.893 141.662ZM443.822 131.18C445.05 130.471 445.932 130.863 446.115 132.492L441.497 135.158C441.69 133.348 442.604 131.883 443.822 131.18Z" fill="black"/>
        <path d="M215.388 74.3379C215.049 74.9236 215.049 75.5568 215.388 75.7521L220.899 78.934C221.237 79.1293 221.786 78.8127 222.124 78.2269C222.462 77.6412 222.462 77.008 222.124 76.8127L217.225 73.9843L222.124 65.499C222.462 64.9132 222.462 64.2801 222.124 64.0848C221.786 63.8895 221.237 64.2061 220.899 64.7919L215.388 74.3379ZM400.182 136.561C400.52 136.756 401.069 136.439 401.407 135.854L406.918 126.308C407.256 125.722 407.256 125.089 406.918 124.893C406.58 124.698 406.032 125.015 405.694 125.6L400.795 134.086L395.896 131.257C395.557 131.062 395.009 131.379 394.671 131.964C394.333 132.55 394.333 133.183 394.671 133.379L400.182 136.561ZM391.337 53.7346L390.944 54.8526L391.337 53.7346ZM398.907 58.1048L398.135 59.0042L398.907 58.1048ZM282.888 103.248L283.659 102.349L282.888 103.248ZM290.457 107.618L290.85 106.5L290.457 107.618ZM279.112 49.1739L278.34 50.0734L278.34 50.0734L279.112 49.1739ZM271.543 44.8037L271.936 43.6857L271.936 43.6857L271.543 44.8037ZM280.134 69.6638L280.134 83.7582L281.866 82.7582L281.866 68.6638L280.134 69.6638ZM308.713 100.258L373.082 63.0946L373.082 61.0946L308.713 98.2581L308.713 100.258ZM216 75.6914L253.298 54.1575L253.298 52.1575L216 73.6914L216 75.6914ZM399.929 78.5946L399.929 136L401.661 135L401.661 77.5946L399.929 78.5946ZM373.082 63.0946C377.946 60.2861 381.542 58.2106 384.387 56.8365C387.222 55.4674 389.234 54.8338 390.944 54.8526L391.731 52.6166C389.736 52.5947 387.47 53.3408 384.528 54.7617C381.597 56.1778 377.918 58.3026 373.082 61.0946L373.082 63.0946ZM401.661 77.5946C401.661 72.0106 401.661 67.7621 401.422 64.5151C401.181 61.257 400.695 58.922 399.678 57.2053L398.135 59.0042C399.006 60.4758 399.464 62.5352 399.695 65.6747C399.928 68.8254 399.929 72.9776 399.929 78.5946L401.661 77.5946ZM390.944 54.8526C394.04 54.8867 396.558 56.34 398.135 59.0042L399.678 57.2053C397.935 54.2605 395.153 52.6542 391.731 52.6166L390.944 54.8526ZM280.134 83.7582C280.134 89.3422 280.133 93.5907 280.373 96.8376C280.613 100.096 281.099 102.431 282.116 104.148L283.659 102.349C282.788 100.877 282.331 98.8176 282.099 95.6781C281.866 92.5274 281.866 88.3752 281.866 82.7582L280.134 83.7582ZM308.713 98.2581C303.848 101.067 300.252 103.142 297.407 104.516C294.572 105.885 292.56 106.519 290.85 106.5L290.064 108.736C292.059 108.758 294.324 108.012 297.266 106.591C300.198 105.175 303.877 103.05 308.713 100.258L308.713 98.2581ZM282.116 104.148C283.86 107.092 286.642 108.699 290.064 108.736L290.85 106.5C287.754 106.466 285.237 105.013 283.659 102.349L282.116 104.148ZM281.866 68.6638C281.866 63.0797 281.866 58.8312 281.627 55.5843C281.387 52.3262 280.9 49.9911 279.884 48.2744L278.34 50.0734C279.212 51.545 279.669 53.6043 279.901 56.7438C280.133 59.8945 280.134 64.0467 280.134 69.6638L281.866 68.6638ZM253.298 54.1575C258.159 51.3511 261.752 49.2771 264.595 47.9041C267.428 46.536 269.439 45.9029 271.149 45.9217L271.936 43.6857C269.941 43.6638 267.676 44.4094 264.736 45.8293C261.806 47.2443 258.13 49.3676 253.298 52.1575L253.298 54.1575ZM279.884 48.2744C278.14 45.3297 275.358 43.7234 271.936 43.6857L271.149 45.9217C274.246 45.9558 276.763 47.4091 278.34 50.0734L279.884 48.2744Z" fill="#B8C0CD"/>
    </g>
    <defs>
        <clipPath id="clip0">
            <rect width="600" height="600" fill="white"/>
        </clipPath>
    </defs>
</svg>
