<svg width="600" height="900" viewBox="0 0 600 900" fill="none" xmlns="http://www.w3.org/2000/svg">
    <rect x="84" y="110" width="433" height="750" rx="39" fill="#F4F7FA"/>
    <rect x="123" y="149" width="113" height="64" rx="12" fill="#F0C2FB"/>
    <path d="M152.141 195.391C155.227 195.391 157.297 194.004 158.391 192.109H158.469V195H161.867V174.688H158.469V186.641C158.469 190.098 156.379 192.383 153.176 192.383C150.051 192.383 148.508 190.566 148.508 187.266V174.688H145.109V187.871C145.109 192.5 147.688 195.391 152.141 195.391ZM173.508 195.391C178.039 195.391 181.398 192.891 181.398 189.336V189.316C181.398 186.426 179.914 184.805 175.812 183.809L172.59 183.027C170.344 182.48 169.426 181.523 169.426 180.137V180.117C169.426 178.32 170.949 177.129 173.41 177.129C175.93 177.129 177.434 178.438 177.707 180.41L177.727 180.547H180.969L180.949 180.293C180.695 176.895 177.863 174.297 173.41 174.297C169.016 174.297 165.949 176.777 165.949 180.273V180.293C165.949 183.223 167.805 185 171.633 185.918L174.855 186.699C177.16 187.266 177.922 188.086 177.922 189.551V189.57C177.922 191.406 176.281 192.559 173.527 192.559C170.754 192.559 169.25 191.367 168.84 189.336L168.801 189.141H165.402L165.422 189.316C165.832 192.949 168.723 195.391 173.508 195.391ZM193.293 195.391C197.727 195.391 201.047 192.734 201.711 189.375L201.75 189.18H198.41L198.352 189.355C197.766 191.094 195.949 192.383 193.371 192.383C189.758 192.383 187.453 189.941 187.375 185.762H202.004V184.512C202.004 178.418 198.625 174.297 193.078 174.297C187.531 174.297 183.938 178.613 183.938 184.902V184.922C183.938 191.309 187.453 195.391 193.293 195.391ZM193.059 177.305C196.027 177.305 198.215 179.16 198.547 183.105H187.434C187.805 179.316 190.109 177.305 193.059 177.305ZM205.441 195H208.84V182.305C208.84 179.434 210.559 177.539 213.195 177.539C214.016 177.539 214.738 177.637 215.012 177.734V174.434C214.738 174.395 214.23 174.297 213.645 174.297C211.262 174.297 209.387 175.723 208.723 177.969H208.645V174.688H205.441V195Z" fill="black"/>
    <rect x="123" y="225" width="103" height="64" rx="12" fill="#FEFE88"/>
    <path d="M151.809 271.391C152.473 271.391 153.195 271.312 153.625 271.254V268.5C153.332 268.52 152.941 268.578 152.531 268.578C150.715 268.578 149.758 267.973 149.758 265.805V253.5H153.625V250.688H149.758V245.199H146.242V250.688H143.273V253.5H146.242V265.824C146.242 269.711 148.078 271.391 151.809 271.391ZM165.051 271.391C169.484 271.391 172.805 268.734 173.469 265.375L173.508 265.18H170.168L170.109 265.355C169.523 267.094 167.707 268.383 165.129 268.383C161.516 268.383 159.211 265.941 159.133 261.762H173.762V260.512C173.762 254.418 170.383 250.297 164.836 250.297C159.289 250.297 155.695 254.613 155.695 260.902V260.922C155.695 267.309 159.211 271.391 165.051 271.391ZM164.816 253.305C167.785 253.305 169.973 255.16 170.305 259.105H159.191C159.562 255.316 161.867 253.305 164.816 253.305ZM175.227 271H178.996L183.898 263.266H183.977L188.84 271H192.609L185.852 260.707L192.707 250.688H188.918L184.094 258.305H184.016L179.133 250.688H175.344L182.141 260.844L175.227 271ZM202.16 271.391C202.824 271.391 203.547 271.312 203.977 271.254V268.5C203.684 268.52 203.293 268.578 202.883 268.578C201.066 268.578 200.109 267.973 200.109 265.805V253.5H203.977V250.688H200.109V245.199H196.594V250.688H193.625V253.5H196.594V265.824C196.594 269.711 198.43 271.391 202.16 271.391Z" fill="black"/>
    <rect x="123" y="301" width="113" height="64" rx="12" fill="#99FCE6"/>
    <path d="M151.809 347.391C152.473 347.391 153.195 347.312 153.625 347.254V344.5C153.332 344.52 152.941 344.578 152.531 344.578C150.715 344.578 149.758 343.973 149.758 341.805V329.5H153.625V326.688H149.758V321.199H146.242V326.688H143.273V329.5H146.242V341.824C146.242 345.711 148.078 347.391 151.809 347.391ZM159.191 323.25C160.383 323.25 161.32 322.293 161.32 321.121C161.32 319.93 160.383 318.992 159.191 318.992C158.02 318.992 157.062 319.93 157.062 321.121C157.062 322.293 158.02 323.25 159.191 323.25ZM157.492 347H160.891V326.688H157.492V347ZM165.52 347H168.918V334.266C168.918 331.434 170.871 329.305 173.566 329.305C176.086 329.305 177.727 330.926 177.727 333.387V347H181.125V334.09C181.125 331.316 183.02 329.305 185.715 329.305C188.391 329.305 189.934 330.965 189.934 333.758V347H193.332V332.977C193.332 328.934 190.734 326.297 186.711 326.297C183.859 326.297 181.477 327.762 180.344 330.203H180.266C179.387 327.723 177.336 326.297 174.562 326.297C171.945 326.297 169.914 327.645 168.996 329.656H168.918V326.688H165.52V347ZM206.027 347.391C210.461 347.391 213.781 344.734 214.445 341.375L214.484 341.18H211.145L211.086 341.355C210.5 343.094 208.684 344.383 206.105 344.383C202.492 344.383 200.188 341.941 200.109 337.762H214.738V336.512C214.738 330.418 211.359 326.297 205.812 326.297C200.266 326.297 196.672 330.613 196.672 336.902V336.922C196.672 343.309 200.188 347.391 206.027 347.391ZM205.793 329.305C208.762 329.305 210.949 331.16 211.281 335.105H200.168C200.539 331.316 202.844 329.305 205.793 329.305Z" fill="black"/>
    <rect x="123" y="377" width="290" height="64" rx="12" fill="#99FCE6"/>
    <path d="M144.855 408.293C144.855 411.223 146.711 413 150.539 413.918L153.762 414.699C156.086 415.266 156.887 416.105 156.887 417.57C156.887 419.406 155.188 420.578 152.434 420.578C149.68 420.578 148.117 419.465 147.707 417.141H144.309C144.699 420.949 147.668 423.352 152.434 423.352C156.965 423.352 160.305 420.852 160.305 417.316C160.305 414.406 158.82 412.805 154.719 411.809L151.496 411.027C149.23 410.48 148.195 409.523 148.195 408.117C148.195 406.34 149.836 405.109 152.316 405.109C154.816 405.109 156.379 406.418 156.633 408.547H159.875C159.738 404.953 156.77 402.336 152.316 402.336C147.922 402.336 144.855 404.816 144.855 408.293ZM177.316 417.18C176.75 419.094 174.855 420.402 172.277 420.402C168.625 420.402 166.34 417.844 166.34 413.957V413.762H180.91V412.473C180.91 406.32 177.531 402.336 172.043 402.336C166.438 402.336 162.844 406.613 162.844 412.922C162.844 419.309 166.379 423.352 172.199 423.352C176.633 423.352 180.07 420.734 180.656 417.18H177.316ZM171.984 405.285C175.188 405.285 177.316 407.707 177.395 411.105H166.359C166.574 407.727 168.801 405.285 171.984 405.285ZM185.441 397.785V402.688H182.414V405.48H185.441V417.727C185.441 421.633 186.887 423.156 190.617 423.156C191.418 423.156 192.355 423.098 192.766 423V420.148C192.531 420.188 191.75 420.246 191.359 420.246C189.621 420.246 188.84 419.406 188.84 417.551V405.48H192.785V402.688H188.84V397.785H185.441ZM208.84 394.348C200.852 394.348 195.852 399.973 195.852 408.918C195.852 417.863 200.852 423.469 208.84 423.469C216.828 423.469 221.828 417.863 221.828 408.918C221.828 399.973 216.828 394.348 208.84 394.348ZM208.84 397.59C214.602 397.59 218.215 401.965 218.215 408.918C218.215 415.852 214.602 420.227 208.84 420.227C203.078 420.227 199.465 415.852 199.465 408.918C199.465 401.965 203.078 397.59 208.84 397.59ZM226.77 423H230.168V405.48H234.309V402.688H230.148V400.441C230.148 398.43 231.027 397.453 232.863 397.453C233.43 397.453 233.996 397.512 234.406 397.57V394.816C233.918 394.738 233.098 394.66 232.336 394.66C228.586 394.66 226.77 396.516 226.77 400.422V402.688H223.938V405.48H226.77V423ZM241.867 411.848H248.605L254.641 423H258.762L252.238 411.301C255.773 410.188 257.902 407.141 257.902 403.215C257.902 398.137 254.348 394.816 248.918 394.816H238.352V423H241.867V411.848ZM241.867 397.941H248.449C252.082 397.941 254.27 399.953 254.27 403.332C254.27 406.789 252.219 408.742 248.605 408.742H241.867V397.941ZM275.285 417.18C274.719 419.094 272.824 420.402 270.246 420.402C266.594 420.402 264.309 417.844 264.309 413.957V413.762H278.879V412.473C278.879 406.32 275.5 402.336 270.012 402.336C264.406 402.336 260.812 406.613 260.812 412.922C260.812 419.309 264.348 423.352 270.168 423.352C274.602 423.352 278.039 420.734 278.625 417.18H275.285ZM269.953 405.285C273.156 405.285 275.285 407.707 275.363 411.105H264.328C264.543 407.727 266.77 405.285 269.953 405.285ZM283.41 397.785V402.688H280.383V405.48H283.41V417.727C283.41 421.633 284.855 423.156 288.586 423.156C289.387 423.156 290.324 423.098 290.734 423V420.148C290.5 420.188 289.719 420.246 289.328 420.246C287.59 420.246 286.809 419.406 286.809 417.551V405.48H290.754V402.688H286.809V397.785H283.41ZM320.227 402.688H316.867L312.805 419.211H312.727L308.117 402.688H304.836L300.246 419.211H300.168L296.105 402.688H292.727L298.41 423H301.867L306.438 407.277H306.516L311.105 423H314.562L320.227 402.688ZM336.496 417.18C335.93 419.094 334.035 420.402 331.457 420.402C327.805 420.402 325.52 417.844 325.52 413.957V413.762H340.09V412.473C340.09 406.32 336.711 402.336 331.223 402.336C325.617 402.336 322.023 406.613 322.023 412.922C322.023 419.309 325.559 423.352 331.379 423.352C335.812 423.352 339.25 420.734 339.836 417.18H336.496ZM331.164 405.285C334.367 405.285 336.496 407.707 336.574 411.105H325.539C325.754 407.727 327.98 405.285 331.164 405.285ZM357.004 417.18C356.438 419.094 354.543 420.402 351.965 420.402C348.312 420.402 346.027 417.844 346.027 413.957V413.762H360.598V412.473C360.598 406.32 357.219 402.336 351.73 402.336C346.125 402.336 342.531 406.613 342.531 412.922C342.531 419.309 346.066 423.352 351.887 423.352C356.32 423.352 359.758 420.734 360.344 417.18H357.004ZM351.672 405.285C354.875 405.285 357.004 407.707 357.082 411.105H346.047C346.262 407.727 348.488 405.285 351.672 405.285ZM365.129 397.785V402.688H362.102V405.48H365.129V417.727C365.129 421.633 366.574 423.156 370.305 423.156C371.105 423.156 372.043 423.098 372.453 423V420.148C372.219 420.188 371.438 420.246 371.047 420.246C369.309 420.246 368.527 419.406 368.527 417.551V405.48H372.473V402.688H368.527V397.785H365.129ZM375.754 408.293C375.754 411.223 377.609 413 381.438 413.918L384.66 414.699C386.984 415.266 387.785 416.105 387.785 417.57C387.785 419.406 386.086 420.578 383.332 420.578C380.578 420.578 379.016 419.465 378.605 417.141H375.207C375.598 420.949 378.566 423.352 383.332 423.352C387.863 423.352 391.203 420.852 391.203 417.316C391.203 414.406 389.719 412.805 385.617 411.809L382.395 411.027C380.129 410.48 379.094 409.523 379.094 408.117C379.094 406.34 380.734 405.109 383.215 405.109C385.715 405.109 387.277 406.418 387.531 408.547H390.773C390.637 404.953 387.668 402.336 383.215 402.336C378.82 402.336 375.754 404.816 375.754 408.293Z" fill="black"/>
    <rect x="123" y="453" width="255" height="64" rx="12" fill="#99FCE6"/>
    <path d="M152.414 499.391C156.945 499.391 160.305 496.891 160.305 493.336V493.316C160.305 490.426 158.82 488.805 154.719 487.809L151.496 487.027C149.25 486.48 148.332 485.523 148.332 484.137V484.117C148.332 482.32 149.855 481.129 152.316 481.129C154.836 481.129 156.34 482.438 156.613 484.41L156.633 484.547H159.875L159.855 484.293C159.602 480.895 156.77 478.297 152.316 478.297C147.922 478.297 144.855 480.777 144.855 484.273V484.293C144.855 487.223 146.711 489 150.539 489.918L153.762 490.699C156.066 491.266 156.828 492.086 156.828 493.551V493.57C156.828 495.406 155.188 496.559 152.434 496.559C149.66 496.559 148.156 495.367 147.746 493.336L147.707 493.141H144.309L144.328 493.316C144.738 496.949 147.629 499.391 152.414 499.391ZM172.199 499.391C176.633 499.391 179.953 496.734 180.617 493.375L180.656 493.18H177.316L177.258 493.355C176.672 495.094 174.855 496.383 172.277 496.383C168.664 496.383 166.359 493.941 166.281 489.762H180.91V488.512C180.91 482.418 177.531 478.297 171.984 478.297C166.438 478.297 162.844 482.613 162.844 488.902V488.922C162.844 495.309 166.359 499.391 172.199 499.391ZM171.965 481.305C174.934 481.305 177.121 483.16 177.453 487.105H166.34C166.711 483.316 169.016 481.305 171.965 481.305ZM190.949 499.391C191.613 499.391 192.336 499.312 192.766 499.254V496.5C192.473 496.52 192.082 496.578 191.672 496.578C189.855 496.578 188.898 495.973 188.898 493.805V481.5H192.766V478.688H188.898V473.199H185.383V478.688H182.414V481.5H185.383V493.824C185.383 497.711 187.219 499.391 190.949 499.391ZM208.859 499.469C216.848 499.469 221.828 493.863 221.828 484.918V484.879C221.828 475.953 216.828 470.348 208.859 470.348C200.871 470.348 195.852 475.953 195.852 484.879V484.918C195.852 493.863 200.852 499.469 208.859 499.469ZM208.859 496.227C203.078 496.227 199.445 491.852 199.445 484.918V484.879C199.445 477.945 203.098 473.59 208.859 473.59C214.602 473.59 218.234 477.965 218.234 484.879V484.918C218.234 491.793 214.66 496.227 208.859 496.227ZM226.77 499H230.168V481.5H234.309V478.688H230.129V476.207C230.129 474.195 231.066 473.238 232.941 473.238C233.469 473.238 233.996 473.258 234.406 473.316V470.562C233.898 470.484 233.098 470.426 232.336 470.426C228.586 470.426 226.77 472.281 226.77 476.188V478.688H223.938V481.5H226.77V499ZM238.352 499H241.867V487.848H248.605L254.641 499H258.762L252.238 487.301C255.754 486.188 257.902 483.16 257.902 479.254V479.215C257.902 474.137 254.348 470.816 248.918 470.816H238.352V499ZM241.867 484.742V473.941H248.449C252.062 473.941 254.27 475.934 254.27 479.293V479.332C254.27 482.789 252.219 484.742 248.605 484.742H241.867ZM270.168 499.391C274.602 499.391 277.922 496.734 278.586 493.375L278.625 493.18H275.285L275.227 493.355C274.641 495.094 272.824 496.383 270.246 496.383C266.633 496.383 264.328 493.941 264.25 489.762H278.879V488.512C278.879 482.418 275.5 478.297 269.953 478.297C264.406 478.297 260.812 482.613 260.812 488.902V488.922C260.812 495.309 264.328 499.391 270.168 499.391ZM269.934 481.305C272.902 481.305 275.09 483.16 275.422 487.105H264.309C264.68 483.316 266.984 481.305 269.934 481.305ZM282.316 505.836H285.715V495.602H285.793C287.062 497.945 289.426 499.391 292.297 499.391C297.395 499.391 300.871 495.27 300.871 488.863V488.844C300.871 482.438 297.434 478.297 292.238 478.297C289.328 478.297 287.062 479.762 285.793 482.125H285.715V478.688H282.316V505.836ZM291.574 496.383C288.156 496.383 285.695 493.395 285.695 488.863V488.844C285.695 484.293 288.137 481.305 291.574 481.305C295.168 481.305 297.395 484.176 297.395 488.844V488.863C297.395 493.492 295.168 496.383 291.574 496.383ZM304.484 499H307.883V470.816H304.484V499ZM314.387 475.25C315.578 475.25 316.516 474.293 316.516 473.121C316.516 471.93 315.578 470.992 314.387 470.992C313.215 470.992 312.258 471.93 312.258 473.121C312.258 474.293 313.215 475.25 314.387 475.25ZM312.688 499H316.086V478.688H312.688V499ZM329.074 499.391C333.508 499.391 336.828 496.734 337.492 493.375L337.531 493.18H334.191L334.133 493.355C333.547 495.094 331.73 496.383 329.152 496.383C325.539 496.383 323.234 493.941 323.156 489.762H337.785V488.512C337.785 482.418 334.406 478.297 328.859 478.297C323.312 478.297 319.719 482.613 319.719 488.902V488.922C319.719 495.309 323.234 499.391 329.074 499.391ZM328.84 481.305C331.809 481.305 333.996 483.16 334.328 487.105H323.215C323.586 483.316 325.891 481.305 328.84 481.305ZM348.43 499.391C352.961 499.391 356.32 496.891 356.32 493.336V493.316C356.32 490.426 354.836 488.805 350.734 487.809L347.512 487.027C345.266 486.48 344.348 485.523 344.348 484.137V484.117C344.348 482.32 345.871 481.129 348.332 481.129C350.852 481.129 352.355 482.438 352.629 484.41L352.648 484.547H355.891L355.871 484.293C355.617 480.895 352.785 478.297 348.332 478.297C343.938 478.297 340.871 480.777 340.871 484.273V484.293C340.871 487.223 342.727 489 346.555 489.918L349.777 490.699C352.082 491.266 352.844 492.086 352.844 493.551V493.57C352.844 495.406 351.203 496.559 348.449 496.559C345.676 496.559 344.172 495.367 343.762 493.336L343.723 493.141H340.324L340.344 493.316C340.754 496.949 343.645 499.391 348.43 499.391Z" fill="black"/>
    <rect x="123" y="529" width="220" height="64" rx="12" fill="#E7D2DB"/>
    <path d="M144.855 560.293C144.855 563.223 146.711 565 150.539 565.918L153.762 566.699C156.086 567.266 156.887 568.105 156.887 569.57C156.887 571.406 155.188 572.578 152.434 572.578C149.68 572.578 148.117 571.465 147.707 569.141H144.309C144.699 572.949 147.668 575.352 152.434 575.352C156.965 575.352 160.305 572.852 160.305 569.316C160.305 566.406 158.82 564.805 154.719 563.809L151.496 563.027C149.23 562.48 148.195 561.523 148.195 560.117C148.195 558.34 149.836 557.109 152.316 557.109C154.816 557.109 156.379 558.418 156.633 560.547H159.875C159.738 556.953 156.77 554.336 152.316 554.336C147.922 554.336 144.855 556.816 144.855 560.293ZM177.316 569.18C176.75 571.094 174.855 572.402 172.277 572.402C168.625 572.402 166.34 569.844 166.34 565.957V565.762H180.91V564.473C180.91 558.32 177.531 554.336 172.043 554.336C166.438 554.336 162.844 558.613 162.844 564.922C162.844 571.309 166.379 575.352 172.199 575.352C176.633 575.352 180.07 572.734 180.656 569.18H177.316ZM171.984 557.285C175.188 557.285 177.316 559.707 177.395 563.105H166.359C166.574 559.727 168.801 557.285 171.984 557.285ZM185.441 549.785V554.688H182.414V557.48H185.441V569.727C185.441 573.633 186.887 575.156 190.617 575.156C191.418 575.156 192.355 575.098 192.766 575V572.148C192.531 572.188 191.75 572.246 191.359 572.246C189.621 572.246 188.84 571.406 188.84 569.551V557.48H192.785V554.688H188.84V549.785H185.441ZM208.84 546.348C200.852 546.348 195.852 551.973 195.852 560.918C195.852 569.863 200.852 575.469 208.84 575.469C216.828 575.469 221.828 569.863 221.828 560.918C221.828 551.973 216.828 546.348 208.84 546.348ZM208.84 549.59C214.602 549.59 218.215 553.965 218.215 560.918C218.215 567.852 214.602 572.227 208.84 572.227C203.078 572.227 199.465 567.852 199.465 560.918C199.465 553.965 203.078 549.59 208.84 549.59ZM226.77 575H230.168V557.48H234.309V554.688H230.148V552.441C230.148 550.43 231.027 549.453 232.863 549.453C233.43 549.453 233.996 549.512 234.406 549.57V546.816C233.918 546.738 233.098 546.66 232.336 546.66C228.586 546.66 226.77 548.516 226.77 552.422V554.688H223.938V557.48H226.77V575ZM255.461 571.836H241.867V546.816H238.352V575H255.461V571.836ZM260.676 551.074C261.867 551.074 262.805 550.117 262.805 548.945C262.805 547.754 261.867 546.816 260.676 546.816C259.504 546.816 258.547 547.754 258.547 548.945C258.547 550.117 259.504 551.074 260.676 551.074ZM258.977 575H262.375V554.688H258.977V575ZM270.539 567.344L272.434 565.547L279.973 575H283.918L274.836 563.457L283.645 554.688H279.523L270.539 563.711V546.816H267.141V575H270.539V567.344ZM298.879 569.18C298.312 571.094 296.418 572.402 293.84 572.402C290.188 572.402 287.902 569.844 287.902 565.957V565.762H302.473V564.473C302.473 558.32 299.094 554.336 293.605 554.336C288 554.336 284.406 558.613 284.406 564.922C284.406 571.309 287.941 575.352 293.762 575.352C298.195 575.352 301.633 572.734 302.219 569.18H298.879ZM293.547 557.285C296.75 557.285 298.879 559.707 298.957 563.105H287.922C288.137 559.727 290.363 557.285 293.547 557.285ZM305.559 560.293C305.559 563.223 307.414 565 311.242 565.918L314.465 566.699C316.789 567.266 317.59 568.105 317.59 569.57C317.59 571.406 315.891 572.578 313.137 572.578C310.383 572.578 308.82 571.465 308.41 569.141H305.012C305.402 572.949 308.371 575.352 313.137 575.352C317.668 575.352 321.008 572.852 321.008 569.316C321.008 566.406 319.523 564.805 315.422 563.809L312.199 563.027C309.934 562.48 308.898 561.523 308.898 560.117C308.898 558.34 310.539 557.109 313.02 557.109C315.52 557.109 317.082 558.418 317.336 560.547H320.578C320.441 556.953 317.473 554.336 313.02 554.336C308.625 554.336 305.559 556.816 305.559 560.293Z" fill="black"/>
    <rect x="123" y="605" width="230" height="64" rx="12" fill="#C5DFDA"/>
    <path d="M152.414 651.391C156.945 651.391 160.305 648.891 160.305 645.336V645.316C160.305 642.426 158.82 640.805 154.719 639.809L151.496 639.027C149.25 638.48 148.332 637.523 148.332 636.137V636.117C148.332 634.32 149.855 633.129 152.316 633.129C154.836 633.129 156.34 634.438 156.613 636.41L156.633 636.547H159.875L159.855 636.293C159.602 632.895 156.77 630.297 152.316 630.297C147.922 630.297 144.855 632.777 144.855 636.273V636.293C144.855 639.223 146.711 641 150.539 641.918L153.762 642.699C156.066 643.266 156.828 644.086 156.828 645.551V645.57C156.828 647.406 155.188 648.559 152.434 648.559C149.66 648.559 148.156 647.367 147.746 645.336L147.707 645.141H144.309L144.328 645.316C144.738 648.949 147.629 651.391 152.414 651.391ZM172.199 651.391C176.633 651.391 179.953 648.734 180.617 645.375L180.656 645.18H177.316L177.258 645.355C176.672 647.094 174.855 648.383 172.277 648.383C168.664 648.383 166.359 645.941 166.281 641.762H180.91V640.512C180.91 634.418 177.531 630.297 171.984 630.297C166.438 630.297 162.844 634.613 162.844 640.902V640.922C162.844 647.309 166.359 651.391 172.199 651.391ZM171.965 633.305C174.934 633.305 177.121 635.16 177.453 639.105H166.34C166.711 635.316 169.016 633.305 171.965 633.305ZM190.949 651.391C191.613 651.391 192.336 651.312 192.766 651.254V648.5C192.473 648.52 192.082 648.578 191.672 648.578C189.855 648.578 188.898 647.973 188.898 645.805V633.5H192.766V630.688H188.898V625.199H185.383V630.688H182.414V633.5H185.383V645.824C185.383 649.711 187.219 651.391 190.949 651.391ZM208.859 651.469C216.848 651.469 221.828 645.863 221.828 636.918V636.879C221.828 627.953 216.828 622.348 208.859 622.348C200.871 622.348 195.852 627.953 195.852 636.879V636.918C195.852 645.863 200.852 651.469 208.859 651.469ZM208.859 648.227C203.078 648.227 199.445 643.852 199.445 636.918V636.879C199.445 629.945 203.098 625.59 208.859 625.59C214.602 625.59 218.234 629.965 218.234 636.879V636.918C218.234 643.793 214.66 648.227 208.859 648.227ZM226.77 651H230.168V633.5H234.309V630.688H230.129V628.207C230.129 626.195 231.066 625.238 232.941 625.238C233.469 625.238 233.996 625.258 234.406 625.316V622.562C233.898 622.484 233.098 622.426 232.336 622.426C228.586 622.426 226.77 624.281 226.77 628.188V630.688H223.938V633.5H226.77V651ZM247.375 651.469C253.82 651.469 257.785 648.305 257.785 643.305V643.285C257.785 638.988 255.363 636.645 249.582 635.375L246.457 634.691C242.785 633.891 241.086 632.445 241.086 630.141V630.121C241.086 627.406 243.547 625.609 247.316 625.59C250.891 625.59 253.293 627.289 253.723 630.16L253.762 630.434H257.277L257.258 630.141C256.945 625.531 252.922 622.348 247.414 622.348C241.613 622.348 237.512 625.59 237.492 630.219V630.238C237.492 634.359 240.07 636.84 245.578 638.051L248.703 638.734C252.57 639.594 254.191 640.98 254.191 643.461V643.48C254.191 646.391 251.633 648.227 247.57 648.227C243.488 648.227 240.754 646.488 240.344 643.656L240.305 643.383H236.789L236.809 643.656C237.16 648.48 241.281 651.469 247.375 651.469ZM261.555 651H264.953V639.145C264.953 635.688 267.043 633.305 270.188 633.305C273.352 633.305 275.227 635.473 275.227 639.145V651H278.625V638.559C278.625 633.637 275.676 630.297 271.359 630.297C268.332 630.297 266.125 631.645 265.031 633.93H264.953V622.816H261.555V651ZM288.879 651.391C291.594 651.391 294.035 649.926 295.227 647.699H295.305V651H298.703V636.957C298.703 632.895 295.695 630.297 290.891 630.297C286.105 630.297 283.195 632.992 282.902 636.332L282.883 636.547H286.164L286.203 636.371C286.594 634.555 288.234 633.305 290.852 633.305C293.684 633.305 295.305 634.809 295.305 637.289V638.988L289.484 639.32C284.816 639.594 282.121 641.762 282.121 645.219V645.258C282.121 648.949 284.836 651.391 288.879 651.391ZM285.598 645.258V645.219C285.598 643.324 287.16 642.113 289.875 641.957L295.305 641.625V643.285C295.305 646.234 292.844 648.441 289.641 648.441C287.199 648.441 285.598 647.211 285.598 645.258ZM303.02 651H306.418V638.305C306.418 635.434 308.137 633.539 310.773 633.539C311.594 633.539 312.316 633.637 312.59 633.734V630.434C312.316 630.395 311.809 630.297 311.223 630.297C308.84 630.297 306.965 631.723 306.301 633.969H306.223V630.688H303.02V651ZM322.746 651.391C327.18 651.391 330.5 648.734 331.164 645.375L331.203 645.18H327.863L327.805 645.355C327.219 647.094 325.402 648.383 322.824 648.383C319.211 648.383 316.906 645.941 316.828 641.762H331.457V640.512C331.457 634.418 328.078 630.297 322.531 630.297C316.984 630.297 313.391 634.613 313.391 640.902V640.922C313.391 647.309 316.906 651.391 322.746 651.391ZM322.512 633.305C325.48 633.305 327.668 635.16 328 639.105H316.887C317.258 635.316 319.562 633.305 322.512 633.305Z" fill="black"/>
    <rect x="123" y="681" width="228" height="64" rx="12" fill="#AAEDFC"/>
    <path d="M145.734 698.816V727H149.25V716.941H155.754C161.047 716.941 164.816 713.211 164.816 707.859C164.816 702.527 161.086 698.816 155.793 698.816H145.734ZM149.25 701.941H154.875C158.918 701.941 161.203 704.129 161.203 707.859C161.203 711.609 158.898 713.816 154.875 713.816H149.25V701.941ZM170.207 703.074C171.398 703.074 172.336 702.117 172.336 700.945C172.336 699.754 171.398 698.816 170.207 698.816C169.035 698.816 168.078 699.754 168.078 700.945C168.078 702.117 169.035 703.074 170.207 703.074ZM168.508 727H171.906V706.688H168.508V727ZM193.371 713.348C192.941 709.695 189.914 706.336 184.836 706.336C179.23 706.336 175.5 710.438 175.5 716.844C175.5 723.387 179.25 727.352 184.875 727.352C189.484 727.352 192.883 724.5 193.41 720.457H190.07C189.484 722.898 187.668 724.363 184.895 724.363C181.379 724.363 178.957 721.57 178.957 716.844C178.957 712.234 181.34 709.324 184.855 709.324C187.844 709.324 189.562 711.141 190.051 713.348H193.371ZM197.629 701.785V706.688H194.602V709.48H197.629V721.727C197.629 725.633 199.074 727.156 202.805 727.156C203.605 727.156 204.543 727.098 204.953 727V724.148C204.719 724.188 203.938 724.246 203.547 724.246C201.809 724.246 201.027 723.406 201.027 721.551V709.48H204.973V706.688H201.027V701.785H197.629ZM225.285 706.688H221.887V718.621C221.887 722.078 219.895 724.344 216.594 724.344C213.449 724.344 211.906 722.566 211.906 719.266V706.688H208.508V719.871C208.508 724.48 211.105 727.352 215.539 727.352C218.664 727.352 220.773 726.043 221.984 723.699H222.062V727H225.285V706.688ZM229.699 727H233.098V714.344C233.098 711.473 234.816 709.578 237.453 709.578C238.273 709.578 238.996 709.676 239.27 709.773V706.473C238.996 706.434 238.488 706.336 237.902 706.336C235.52 706.336 233.645 707.762 232.98 710.008H232.902V706.688H229.699V727ZM254.543 721.18C253.977 723.094 252.082 724.402 249.504 724.402C245.852 724.402 243.566 721.844 243.566 717.957V717.762H258.137V716.473C258.137 710.32 254.758 706.336 249.27 706.336C243.664 706.336 240.07 710.613 240.07 716.922C240.07 723.309 243.605 727.352 249.426 727.352C253.859 727.352 257.297 724.734 257.883 721.18H254.543ZM249.211 709.285C252.414 709.285 254.543 711.707 254.621 715.105H243.586C243.801 711.727 246.027 709.285 249.211 709.285ZM262.277 732.996L272.258 698.816H269.348L259.367 732.996H262.277ZM298.762 715.34V712.664H287.297V715.75H295.246V716.258C295.246 720.984 291.809 724.227 286.809 724.227C281.066 724.227 277.512 719.832 277.512 712.742C277.512 705.77 281.008 701.59 286.809 701.59C290.773 701.59 293.723 703.758 294.895 707.566H298.586C297.531 701.961 292.902 698.348 286.809 698.348C278.918 698.348 273.898 703.953 273.898 712.762C273.898 721.727 278.938 727.469 286.809 727.469C294.328 727.469 298.762 722.957 298.762 715.34ZM306.789 727V698.816H303.273V727H306.789ZM315.773 727V714.793H328.254V711.668H315.773V701.98H329.367V698.816H312.258V727H315.773Z" fill="black"/>
    <rect x="123" y="757" width="185" height="64" rx="12" fill="#AAEDFC"/>
    <path d="M145.734 803H162.844V799.836H149.25V774.816H145.734V803ZM174.016 803.391C179.621 803.391 183.41 799.328 183.41 792.844V792.805C183.41 786.32 179.602 782.297 173.996 782.297C168.391 782.297 164.602 786.34 164.602 792.805V792.844C164.602 799.309 168.371 803.391 174.016 803.391ZM174.035 800.383C170.441 800.383 168.078 797.629 168.078 792.844V792.805C168.078 788.059 170.461 785.305 173.996 785.305C177.59 785.305 179.934 788.039 179.934 792.805V792.844C179.934 797.609 177.609 800.383 174.035 800.383ZM195.266 803.391C199.855 803.391 203.195 800.402 203.742 796.535L203.762 796.398H200.422L200.383 796.555C199.816 798.82 198.039 800.383 195.266 800.383C191.75 800.383 189.328 797.59 189.328 792.863V792.844C189.328 788.234 191.691 785.305 195.227 785.305C198.215 785.305 199.855 787.102 200.363 789.133L200.402 789.289H203.723L203.703 789.133C203.273 785.656 200.285 782.297 195.227 782.297C189.582 782.297 185.852 786.398 185.852 792.805V792.824C185.852 799.289 189.504 803.391 195.266 803.391ZM212.824 803.391C215.539 803.391 217.98 801.926 219.172 799.699H219.25V803H222.648V788.957C222.648 784.895 219.641 782.297 214.836 782.297C210.051 782.297 207.141 784.992 206.848 788.332L206.828 788.547H210.109L210.148 788.371C210.539 786.555 212.18 785.305 214.797 785.305C217.629 785.305 219.25 786.809 219.25 789.289V790.988L213.43 791.32C208.762 791.594 206.066 793.762 206.066 797.219V797.258C206.066 800.949 208.781 803.391 212.824 803.391ZM209.543 797.258V797.219C209.543 795.324 211.105 794.113 213.82 793.957L219.25 793.625V795.285C219.25 798.234 216.789 800.441 213.586 800.441C211.145 800.441 209.543 799.211 209.543 797.258ZM233.566 803.391C234.23 803.391 234.953 803.312 235.383 803.254V800.5C235.09 800.52 234.699 800.578 234.289 800.578C232.473 800.578 231.516 799.973 231.516 797.805V785.5H235.383V782.688H231.516V777.199H228V782.688H225.031V785.5H228V797.824C228 801.711 229.836 803.391 233.566 803.391ZM240.949 779.25C242.141 779.25 243.078 778.293 243.078 777.121C243.078 775.93 242.141 774.992 240.949 774.992C239.777 774.992 238.82 775.93 238.82 777.121C238.82 778.293 239.777 779.25 240.949 779.25ZM239.25 803H242.648V782.688H239.25V803ZM255.695 803.391C261.301 803.391 265.09 799.328 265.09 792.844V792.805C265.09 786.32 261.281 782.297 255.676 782.297C250.07 782.297 246.281 786.34 246.281 792.805V792.844C246.281 799.309 250.051 803.391 255.695 803.391ZM255.715 800.383C252.121 800.383 249.758 797.629 249.758 792.844V792.805C249.758 788.059 252.141 785.305 255.676 785.305C259.27 785.305 261.613 788.039 261.613 792.805V792.844C261.613 797.609 259.289 800.383 255.715 800.383ZM268.527 803H271.926V791.047C271.926 787.59 274.016 785.305 277.219 785.305C280.344 785.305 281.887 787.121 281.887 790.422V803H285.285V789.816C285.285 785.188 282.707 782.297 278.254 782.297C275.168 782.297 273.098 783.684 272.004 785.578H271.926V782.688H268.527V803Z" fill="black"/>
    <rect x="84" y="110" width="433" height="750" rx="39" stroke="#D3DBE6" stroke-width="2" stroke-dasharray="8 8"/>
    <path d="M137.98 79V55.6797H146.145V50.8164H123.938V55.6797H132.082V79H137.98ZM176.34 58.0625H170.715L167.531 73.5898H167.414L163.684 58.0625H158.215L154.504 73.5898H154.387L151.223 58.0625H145.48L151.047 79H157.043L160.812 64.1953H160.93L164.719 79H170.793L176.34 58.0625ZM192.121 72.5938C191.594 74.1953 189.992 75.2305 187.902 75.2305C184.992 75.2305 183.098 73.1797 183.098 70.1914V69.8398H197.531V68.1016C197.531 61.7344 193.684 57.6133 187.59 57.6133C181.398 57.6133 177.492 61.9492 177.492 68.6289C177.492 75.3281 181.359 79.4492 187.805 79.4492C192.98 79.4492 196.73 76.6953 197.355 72.5938H192.121ZM187.648 61.832C190.188 61.832 191.926 63.668 192.043 66.3438H183.156C183.352 63.7266 185.148 61.832 187.648 61.832ZM214.348 72.5938C213.82 74.1953 212.219 75.2305 210.129 75.2305C207.219 75.2305 205.324 73.1797 205.324 70.1914V69.8398H219.758V68.1016C219.758 61.7344 215.91 57.6133 209.816 57.6133C203.625 57.6133 199.719 61.9492 199.719 68.6289C199.719 75.3281 203.586 79.4492 210.031 79.4492C215.207 79.4492 218.957 76.6953 219.582 72.5938H214.348ZM209.875 61.832C212.414 61.832 214.152 63.668 214.27 66.3438H205.383C205.578 63.7266 207.375 61.832 209.875 61.832ZM224.23 53.2383V58.0625H221.281V62.3594H224.23V73.3555C224.23 77.4375 226.145 79.0781 231.066 79.0781C232.219 79.0781 233.195 78.9805 233.781 78.8438V74.6445C233.43 74.7031 232.902 74.7422 232.395 74.7422C230.715 74.7422 229.934 73.9805 229.934 72.3789V62.3594H233.801V58.0625H229.934V53.2383H224.23Z" fill="black"/>
</svg>
