<svg width="293" height="629" viewBox="0 0 293 629" fill="none" xmlns="http://www.w3.org/2000/svg">
    <g clip-path="url(#clip0_242_321)">
        <rect width="65" height="52" transform="translate(28.0005 69.3335)" fill="#FF315D"/>
        <path d="M49.3045 91.5335H46.5445V98.7095C45.9205 99.5255 45.0325 100.029 44.1205 100.029C42.6085 100.029 42.0565 98.9975 42.0565 97.5575V91.5335H39.2965V98.1335C39.2965 101.229 40.9765 102.597 43.0885 102.597C44.7685 102.597 45.8965 101.805 46.5445 101.013V102.333H49.3045V91.5335ZM57.8522 99.2855C57.8522 99.9575 57.2282 100.293 56.4362 100.293C55.3562 100.293 53.7242 99.6455 53.0762 98.9495L51.7322 100.749C52.2362 101.517 54.2522 102.597 56.2442 102.597C58.8842 102.597 60.6122 101.277 60.6122 99.1415C60.6122 95.3255 54.7802 96.3095 54.7802 94.5095C54.7802 94.0295 55.2842 93.5735 56.1242 93.5735C57.2762 93.5735 58.4042 94.1015 59.0522 94.6055L60.0842 92.6375C59.4122 92.0135 58.0682 91.2695 55.9802 91.2695C53.7482 91.2695 52.0202 92.4455 52.0202 94.5575C52.0202 98.4935 57.8522 97.5335 57.8522 99.2855ZM71.5163 99.3095C70.8923 99.8135 69.7883 100.293 68.4683 100.293C66.7643 100.293 65.4683 99.4055 65.2283 97.7735H73.0283C73.1483 97.3655 73.1963 96.9575 73.1963 96.2855C73.1963 93.2615 70.8683 91.2695 68.0843 91.2695C64.5323 91.2695 62.3723 93.7895 62.3723 96.9335C62.3723 100.341 64.7003 102.597 68.1803 102.597C69.6923 102.597 71.2283 102.165 72.3083 101.253L71.5163 99.3095ZM67.9643 93.5735C69.5483 93.5735 70.4603 94.6055 70.4363 95.9255H65.1323C65.4203 94.5095 66.3083 93.5735 67.9643 93.5735ZM75.4193 102.333H78.1793V95.0855C78.4913 94.4615 78.9953 93.9335 79.9553 93.9335C80.5313 93.9335 80.8193 94.0295 81.3473 94.3415L82.3313 91.7495C81.9713 91.4855 81.5393 91.3415 80.6513 91.3415C79.3553 91.3415 78.6833 91.8935 78.1793 92.5895V91.5335H75.4193V102.333Z" fill="white"/>
        <rect width="62" height="52" transform="translate(28.0005 129.333)" fill="#FFE000"/>
        <path d="M39.2965 158.229C39.2965 160.989 40.2085 162.573 42.6565 162.573C44.0485 162.573 45.2005 162.045 45.8485 161.517L45.0085 159.381C44.6245 159.669 44.0965 160.005 43.3525 160.005C42.4405 160.005 42.0565 159.237 42.0565 158.061V154.125H45.5365V151.533H42.0565V148.533H39.2965V158.229ZM56.2351 159.309C55.6111 159.813 54.5071 160.293 53.1871 160.293C51.4831 160.293 50.1871 159.405 49.9471 157.773H57.7471C57.8671 157.365 57.9151 156.957 57.9151 156.285C57.9151 153.261 55.5871 151.269 52.8031 151.269C49.2511 151.269 47.0911 153.789 47.0911 156.933C47.0911 160.341 49.4191 162.597 52.8991 162.597C54.4111 162.597 55.9471 162.165 57.0271 161.253L56.2351 159.309ZM52.6831 153.573C54.2671 153.573 55.1791 154.605 55.1551 155.925H49.8511C50.1391 154.509 51.0271 153.573 52.6831 153.573ZM69.8956 151.533H66.7036L64.3516 155.109L62.0716 151.533H58.6876L62.2876 156.837L58.4476 162.333H61.6396L64.2556 158.445L66.7756 162.333H70.1356L66.2956 156.693L69.8956 151.533ZM71.8746 158.229C71.8746 160.989 72.7866 162.573 75.2346 162.573C76.6266 162.573 77.7786 162.045 78.4266 161.517L77.5866 159.381C77.2026 159.669 76.6746 160.005 75.9306 160.005C75.0186 160.005 74.6346 159.237 74.6346 158.061V154.125H78.1146V151.533H74.6346V148.533H71.8746V158.229Z" fill="#10162F"/>
        <rect width="67" height="52" transform="translate(28.0005 189.333)" fill="#1EC1A1"/>
        <path d="M39.2965 218.229C39.2965 220.989 40.2085 222.573 42.6565 222.573C44.0485 222.573 45.2005 222.045 45.8485 221.517L45.0085 219.381C44.6245 219.669 44.0965 220.005 43.3525 220.005C42.4405 220.005 42.0565 219.237 42.0565 218.061V214.125H45.5365V211.533H42.0565V208.533H39.2965V218.229ZM48.5929 222.333H51.3529V211.533H48.5929V222.333ZM48.3049 207.645C48.3049 208.749 49.0969 209.373 50.0329 209.373C50.8249 209.373 51.6169 208.749 51.6169 207.645C51.6169 206.661 50.8249 206.037 50.0329 206.037C49.0969 206.037 48.3049 206.661 48.3049 207.645ZM71.2332 215.277C71.2332 212.325 69.7452 211.341 67.7772 211.341C66.0972 211.341 64.8972 212.061 64.1292 213.069C63.7452 212.085 62.6412 211.341 60.9852 211.341C59.6412 211.341 58.3692 211.869 57.6012 212.733V211.533H54.8412V222.333H57.6012V215.085C58.0812 214.365 58.8732 213.933 59.8572 213.933C61.0332 213.933 61.6572 214.677 61.6572 215.805V222.333H64.4172V215.973C64.4172 215.733 64.3932 215.349 64.3932 215.181C64.7772 214.437 65.5932 213.933 66.6252 213.933C67.9212 213.933 68.4732 214.653 68.4732 215.997V222.333H71.2332V215.277ZM82.5085 219.309C81.8845 219.813 80.7805 220.293 79.4605 220.293C77.7565 220.293 76.4605 219.405 76.2205 217.773H84.0205C84.1405 217.365 84.1885 216.957 84.1885 216.285C84.1885 213.261 81.8605 211.269 79.0765 211.269C75.5245 211.269 73.3645 213.789 73.3645 216.933C73.3645 220.341 75.6925 222.597 79.1725 222.597C80.6845 222.597 82.2205 222.165 83.3005 221.253L82.5085 219.309ZM78.9565 213.573C80.5405 213.573 81.4525 214.605 81.4285 215.925H76.1245C76.4125 214.509 77.3005 213.573 78.9565 213.573Z" fill="white"/>
        <rect width="176" height="52" transform="translate(28.0005 249.333)" fill="#1EC1A1"/>
        <path d="M45.0085 279.285C45.0085 279.957 44.3845 280.293 43.5925 280.293C42.5125 280.293 40.8805 279.645 40.2325 278.949L38.8885 280.749C39.3925 281.517 41.4085 282.597 43.4005 282.597C46.0405 282.597 47.7685 281.277 47.7685 279.141C47.7685 275.325 41.9365 276.309 41.9365 274.509C41.9365 274.029 42.4405 273.573 43.2805 273.573C44.4325 273.573 45.5605 274.101 46.2085 274.605L47.2405 272.637C46.5685 272.013 45.2245 271.269 43.1365 271.269C40.9045 271.269 39.1765 272.445 39.1765 274.557C39.1765 278.493 45.0085 277.533 45.0085 279.285ZM58.6726 279.309C58.0486 279.813 56.9446 280.293 55.6246 280.293C53.9206 280.293 52.6246 279.405 52.3846 277.773H60.1846C60.3046 277.365 60.3526 276.957 60.3526 276.285C60.3526 273.261 58.0246 271.269 55.2406 271.269C51.6886 271.269 49.5286 273.789 49.5286 276.933C49.5286 280.341 51.8566 282.597 55.3366 282.597C56.8486 282.597 58.3846 282.165 59.4646 281.253L58.6726 279.309ZM55.1206 273.573C56.7046 273.573 57.6166 274.605 57.5926 275.925H52.2886C52.5766 274.509 53.4646 273.573 55.1206 273.573ZM62.3356 278.229C62.3356 280.989 63.2476 282.573 65.6956 282.573C67.0876 282.573 68.2396 282.045 68.8876 281.517L68.0476 279.381C67.6636 279.669 67.1356 280.005 66.3916 280.005C65.4796 280.005 65.0956 279.237 65.0956 278.061V274.125H68.5756V271.533H65.0956V268.533H62.3356V278.229ZM70.768 273.933C70.768 279.165 74.512 282.597 79.504 282.597C84.496 282.597 88.264 278.973 88.264 273.933C88.264 268.701 84.496 265.269 79.504 265.269C74.344 265.269 70.768 269.061 70.768 273.933ZM73.888 273.933C73.888 270.453 76.288 268.029 79.504 268.029C82.672 268.029 85.144 270.453 85.144 273.933C85.144 277.245 83.032 279.837 79.504 279.837C76.36 279.837 73.888 277.293 73.888 273.933ZM91.0081 282.333H93.7681V274.125H96.6961V271.533H93.7681V269.997C93.7681 268.509 94.4161 267.861 95.3521 267.861C95.9761 267.861 96.5761 268.029 96.9361 268.389L97.8721 266.277C97.3201 265.701 96.1441 265.269 94.8481 265.269C92.4481 265.269 91.0081 266.781 91.0081 269.781V282.333ZM102.437 282.333V276.045H104.501L109.133 282.333H112.709L107.453 275.469C108.845 274.989 110.693 273.549 110.693 270.669C110.693 267.765 109.181 265.485 104.597 265.485C104.117 265.485 100.421 265.533 99.4847 265.533V282.333H102.437ZM104.453 268.245C106.853 268.245 107.573 269.373 107.573 270.693C107.573 272.421 106.061 273.285 104.357 273.285H102.437V268.293C103.229 268.269 103.901 268.245 104.453 268.245ZM121.977 279.309C121.353 279.813 120.249 280.293 118.929 280.293C117.225 280.293 115.929 279.405 115.689 277.773H123.489C123.609 277.365 123.657 276.957 123.657 276.285C123.657 273.261 121.329 271.269 118.545 271.269C114.993 271.269 112.833 273.789 112.833 276.933C112.833 280.341 115.161 282.597 118.641 282.597C120.153 282.597 121.689 282.165 122.769 281.253L121.977 279.309ZM118.425 273.573C120.009 273.573 120.921 274.605 120.897 275.925H115.593C115.881 274.509 116.769 273.573 118.425 273.573ZM125.64 278.229C125.64 280.989 126.552 282.573 129 282.573C130.392 282.573 131.544 282.045 132.192 281.517L131.352 279.381C130.968 279.669 130.44 280.005 129.696 280.005C128.784 280.005 128.4 279.237 128.4 278.061V274.125H131.88V271.533H128.4V268.533H125.64V278.229ZM149.966 271.533H147.182L145.598 277.317C145.478 277.845 145.358 278.373 145.262 278.877C145.142 278.373 145.022 277.869 144.854 277.389L142.766 271.533H140.318L138.302 277.413C138.086 278.013 138.014 278.397 137.894 278.853C137.798 278.349 137.75 277.941 137.582 277.413L135.854 271.533H132.902L136.406 282.381H138.758L141.038 276.429C141.206 275.997 141.326 275.589 141.422 275.109C141.542 275.517 141.614 275.973 141.782 276.381L144.086 282.381H146.558L149.966 271.533ZM159.876 279.309C159.252 279.813 158.148 280.293 156.828 280.293C155.124 280.293 153.828 279.405 153.588 277.773H161.388C161.508 277.365 161.556 276.957 161.556 276.285C161.556 273.261 159.228 271.269 156.444 271.269C152.892 271.269 150.732 273.789 150.732 276.933C150.732 280.341 153.06 282.597 156.54 282.597C158.052 282.597 159.588 282.165 160.668 281.253L159.876 279.309ZM156.324 273.573C157.908 273.573 158.82 274.605 158.796 275.925H153.492C153.78 274.509 154.668 273.573 156.324 273.573ZM172.18 279.309C171.556 279.813 170.452 280.293 169.132 280.293C167.428 280.293 166.132 279.405 165.892 277.773H173.692C173.812 277.365 173.86 276.957 173.86 276.285C173.86 273.261 171.532 271.269 168.748 271.269C165.196 271.269 163.036 273.789 163.036 276.933C163.036 280.341 165.364 282.597 168.844 282.597C170.356 282.597 171.892 282.165 172.972 281.253L172.18 279.309ZM168.628 273.573C170.212 273.573 171.124 274.605 171.1 275.925H165.796C166.084 274.509 166.972 273.573 168.628 273.573ZM175.843 278.229C175.843 280.989 176.755 282.573 179.203 282.573C180.595 282.573 181.747 282.045 182.395 281.517L181.555 279.381C181.171 279.669 180.643 280.005 179.899 280.005C178.987 280.005 178.603 279.237 178.603 278.061V274.125H182.083V271.533H178.603V268.533H175.843V278.229ZM190.204 279.285C190.204 279.957 189.58 280.293 188.788 280.293C187.708 280.293 186.076 279.645 185.428 278.949L184.084 280.749C184.588 281.517 186.604 282.597 188.596 282.597C191.236 282.597 192.964 281.277 192.964 279.141C192.964 275.325 187.132 276.309 187.132 274.509C187.132 274.029 187.636 273.573 188.476 273.573C189.628 273.573 190.756 274.101 191.404 274.605L192.436 272.637C191.764 272.013 190.42 271.269 188.332 271.269C186.1 271.269 184.372 272.445 184.372 274.557C184.372 278.493 190.204 277.533 190.204 279.285Z" fill="white"/>
        <rect width="157" height="52" transform="translate(28.0005 309.333)" fill="#1EC1A1"/>
        <path d="M45.0085 339.285C45.0085 339.957 44.3845 340.293 43.5925 340.293C42.5125 340.293 40.8805 339.645 40.2325 338.949L38.8885 340.749C39.3925 341.517 41.4085 342.597 43.4005 342.597C46.0405 342.597 47.7685 341.277 47.7685 339.141C47.7685 335.325 41.9365 336.309 41.9365 334.509C41.9365 334.029 42.4405 333.573 43.2805 333.573C44.4325 333.573 45.5605 334.101 46.2085 334.605L47.2405 332.637C46.5685 332.013 45.2245 331.269 43.1365 331.269C40.9045 331.269 39.1765 332.445 39.1765 334.557C39.1765 338.493 45.0085 337.533 45.0085 339.285ZM58.6726 339.309C58.0486 339.813 56.9446 340.293 55.6246 340.293C53.9206 340.293 52.6246 339.405 52.3846 337.773H60.1846C60.3046 337.365 60.3526 336.957 60.3526 336.285C60.3526 333.261 58.0246 331.269 55.2406 331.269C51.6886 331.269 49.5286 333.789 49.5286 336.933C49.5286 340.341 51.8566 342.597 55.3366 342.597C56.8486 342.597 58.3846 342.165 59.4646 341.253L58.6726 339.309ZM55.1206 333.573C56.7046 333.573 57.6166 334.605 57.5926 335.925H52.2886C52.5766 334.509 53.4646 333.573 55.1206 333.573ZM62.3356 338.229C62.3356 340.989 63.2476 342.573 65.6956 342.573C67.0876 342.573 68.2396 342.045 68.8876 341.517L68.0476 339.381C67.6636 339.669 67.1356 340.005 66.3916 340.005C65.4796 340.005 65.0956 339.237 65.0956 338.061V334.125H68.5756V331.533H65.0956V328.533H62.3356V338.229ZM70.768 333.933C70.768 339.165 74.512 342.597 79.504 342.597C84.496 342.597 88.264 338.973 88.264 333.933C88.264 328.701 84.496 325.269 79.504 325.269C74.344 325.269 70.768 329.061 70.768 333.933ZM73.888 333.933C73.888 330.453 76.288 328.029 79.504 328.029C82.672 328.029 85.144 330.453 85.144 333.933C85.144 337.245 83.032 339.837 79.504 339.837C76.36 339.837 73.888 337.293 73.888 333.933ZM91.0081 342.333H93.7681V334.125H96.6961V331.533H93.7681V329.997C93.7681 328.509 94.4161 327.861 95.3521 327.861C95.9761 327.861 96.5761 328.029 96.9361 328.389L97.8721 326.277C97.3201 325.701 96.1441 325.269 94.8481 325.269C92.4481 325.269 91.0081 326.781 91.0081 329.781V342.333ZM102.437 342.333V336.045H104.501L109.133 342.333H112.709L107.453 335.469C108.845 334.989 110.693 333.549 110.693 330.669C110.693 327.765 109.181 325.485 104.597 325.485C104.117 325.485 100.421 325.533 99.4847 325.533V342.333H102.437ZM104.453 328.245C106.853 328.245 107.573 329.373 107.573 330.693C107.573 332.421 106.061 333.285 104.357 333.285H102.437V328.293C103.229 328.269 103.901 328.245 104.453 328.245ZM121.977 339.309C121.353 339.813 120.249 340.293 118.929 340.293C117.225 340.293 115.929 339.405 115.689 337.773H123.489C123.609 337.365 123.657 336.957 123.657 336.285C123.657 333.261 121.329 331.269 118.545 331.269C114.993 331.269 112.833 333.789 112.833 336.933C112.833 340.341 115.161 342.597 118.641 342.597C120.153 342.597 121.689 342.165 122.769 341.253L121.977 339.309ZM118.425 333.573C120.009 333.573 120.921 334.605 120.897 335.925H115.593C115.881 334.509 116.769 333.573 118.425 333.573ZM125.88 347.133H128.64V342.069C129.264 342.429 130.2 342.597 131.16 342.597C134.616 342.597 136.872 340.053 136.872 336.765C136.872 333.573 134.952 331.269 131.976 331.269C130.584 331.269 129.312 331.845 128.64 332.565V331.533H125.88V347.133ZM131.112 333.861C132.936 333.861 133.944 335.109 133.944 336.837C133.944 338.637 132.84 340.029 130.92 340.029C130.008 340.029 129.384 339.885 128.64 339.405V335.037C129.312 334.293 130.176 333.861 131.112 333.861ZM139.263 339.357C139.263 341.565 140.151 342.573 141.807 342.573C143.103 342.573 144.039 342.165 144.663 341.661L144.087 339.549C143.751 339.789 143.391 339.981 142.959 339.981C142.311 339.981 142.023 339.453 142.023 338.229V325.533H139.263V339.357ZM146.843 342.333H149.603V331.533H146.843V342.333ZM146.555 327.645C146.555 328.749 147.347 329.373 148.283 329.373C149.075 329.373 149.867 328.749 149.867 327.645C149.867 326.661 149.075 326.037 148.283 326.037C147.347 326.037 146.555 326.661 146.555 327.645ZM161.563 339.309C160.939 339.813 159.835 340.293 158.515 340.293C156.811 340.293 155.515 339.405 155.275 337.773H163.075C163.195 337.365 163.243 336.957 163.243 336.285C163.243 333.261 160.915 331.269 158.131 331.269C154.579 331.269 152.419 333.789 152.419 336.933C152.419 340.341 154.747 342.597 158.227 342.597C159.739 342.597 161.275 342.165 162.355 341.253L161.563 339.309ZM158.011 333.573C159.595 333.573 160.507 334.605 160.483 335.925H155.179C155.467 334.509 156.355 333.573 158.011 333.573ZM170.938 339.285C170.938 339.957 170.314 340.293 169.522 340.293C168.442 340.293 166.81 339.645 166.162 338.949L164.818 340.749C165.322 341.517 167.338 342.597 169.33 342.597C171.97 342.597 173.698 341.277 173.698 339.141C173.698 335.325 167.866 336.309 167.866 334.509C167.866 334.029 168.37 333.573 169.21 333.573C170.362 333.573 171.49 334.101 172.138 334.605L173.17 332.637C172.498 332.013 171.154 331.269 169.066 331.269C166.834 331.269 165.106 332.445 165.106 334.557C165.106 338.493 170.938 337.533 170.938 339.285Z" fill="white"/>
        <rect width="134" height="52" transform="translate(28.0005 369.333)" fill="#00D1FF"/>
        <path d="M45.0085 399.285C45.0085 399.957 44.3845 400.293 43.5925 400.293C42.5125 400.293 40.8805 399.645 40.2325 398.949L38.8885 400.749C39.3925 401.517 41.4085 402.597 43.4005 402.597C46.0405 402.597 47.7685 401.277 47.7685 399.141C47.7685 395.325 41.9365 396.309 41.9365 394.509C41.9365 394.029 42.4405 393.573 43.2805 393.573C44.4325 393.573 45.5605 394.101 46.2085 394.605L47.2405 392.637C46.5685 392.013 45.2245 391.269 43.1365 391.269C40.9045 391.269 39.1765 392.445 39.1765 394.557C39.1765 398.493 45.0085 397.533 45.0085 399.285ZM58.6726 399.309C58.0486 399.813 56.9446 400.293 55.6246 400.293C53.9206 400.293 52.6246 399.405 52.3846 397.773H60.1846C60.3046 397.365 60.3526 396.957 60.3526 396.285C60.3526 393.261 58.0246 391.269 55.2406 391.269C51.6886 391.269 49.5286 393.789 49.5286 396.933C49.5286 400.341 51.8566 402.597 55.3366 402.597C56.8486 402.597 58.3846 402.165 59.4646 401.253L58.6726 399.309ZM55.1206 393.573C56.7046 393.573 57.6166 394.605 57.5926 395.925H52.2886C52.5766 394.509 53.4646 393.573 55.1206 393.573ZM62.3356 398.229C62.3356 400.989 63.2476 402.573 65.6956 402.573C67.0876 402.573 68.2396 402.045 68.8876 401.517L68.0476 399.381C67.6636 399.669 67.1356 400.005 66.3916 400.005C65.4796 400.005 65.0956 399.237 65.0956 398.061V394.125H68.5756V391.533H65.0956V388.533H62.3356V398.229ZM70.768 393.933C70.768 399.165 74.512 402.597 79.504 402.597C84.496 402.597 88.264 398.973 88.264 393.933C88.264 388.701 84.496 385.269 79.504 385.269C74.344 385.269 70.768 389.061 70.768 393.933ZM73.888 393.933C73.888 390.453 76.288 388.029 79.504 388.029C82.672 388.029 85.144 390.453 85.144 393.933C85.144 397.245 83.032 399.837 79.504 399.837C76.36 399.837 73.888 397.293 73.888 393.933ZM91.0081 402.333H93.7681V394.125H96.6961V391.533H93.7681V389.997C93.7681 388.509 94.4161 387.861 95.3521 387.861C95.9761 387.861 96.5761 388.029 96.9361 388.389L97.8721 386.277C97.3201 385.701 96.1441 385.269 94.8481 385.269C92.4481 385.269 91.0081 386.781 91.0081 389.781V402.333ZM99.4847 402.333H109.997V399.573H102.437V385.533H99.4847V402.333ZM111.663 402.333H114.423V391.533H111.663V402.333ZM111.375 387.645C111.375 388.749 112.167 389.373 113.103 389.373C113.895 389.373 114.687 388.749 114.687 387.645C114.687 386.661 113.895 386.037 113.103 386.037C112.167 386.037 111.375 386.661 111.375 387.645ZM128.063 391.533H124.583L120.719 396.693L124.991 402.333H128.543L124.007 396.477L128.063 391.533ZM117.911 402.333H120.671V385.533H117.911V402.333ZM138.055 399.309C137.431 399.813 136.327 400.293 135.007 400.293C133.303 400.293 132.007 399.405 131.767 397.773H139.567C139.687 397.365 139.735 396.957 139.735 396.285C139.735 393.261 137.407 391.269 134.623 391.269C131.071 391.269 128.911 393.789 128.911 396.933C128.911 400.341 131.239 402.597 134.719 402.597C136.231 402.597 137.767 402.165 138.847 401.253L138.055 399.309ZM134.503 393.573C136.087 393.573 136.999 394.605 136.975 395.925H131.671C131.959 394.509 132.847 393.573 134.503 393.573ZM147.43 399.285C147.43 399.957 146.806 400.293 146.014 400.293C144.934 400.293 143.302 399.645 142.654 398.949L141.31 400.749C141.814 401.517 143.83 402.597 145.822 402.597C148.462 402.597 150.19 401.277 150.19 399.141C150.19 395.325 144.358 396.309 144.358 394.509C144.358 394.029 144.862 393.573 145.702 393.573C146.854 393.573 147.982 394.101 148.63 394.605L149.662 392.637C148.99 392.013 147.646 391.269 145.558 391.269C143.326 391.269 141.598 392.445 141.598 394.557C141.598 398.493 147.43 397.533 147.43 399.285Z" fill="white"/>
        <rect width="138" height="52" transform="translate(28.0005 429.333)" fill="#70D258"/>
        <path d="M45.0085 459.285C45.0085 459.957 44.3845 460.293 43.5925 460.293C42.5125 460.293 40.8805 459.645 40.2325 458.949L38.8885 460.749C39.3925 461.517 41.4085 462.597 43.4005 462.597C46.0405 462.597 47.7685 461.277 47.7685 459.141C47.7685 455.325 41.9365 456.309 41.9365 454.509C41.9365 454.029 42.4405 453.573 43.2805 453.573C44.4325 453.573 45.5605 454.101 46.2085 454.605L47.2405 452.637C46.5685 452.013 45.2245 451.269 43.1365 451.269C40.9045 451.269 39.1765 452.445 39.1765 454.557C39.1765 458.493 45.0085 457.533 45.0085 459.285ZM58.6726 459.309C58.0486 459.813 56.9446 460.293 55.6246 460.293C53.9206 460.293 52.6246 459.405 52.3846 457.773H60.1846C60.3046 457.365 60.3526 456.957 60.3526 456.285C60.3526 453.261 58.0246 451.269 55.2406 451.269C51.6886 451.269 49.5286 453.789 49.5286 456.933C49.5286 460.341 51.8566 462.597 55.3366 462.597C56.8486 462.597 58.3846 462.165 59.4646 461.253L58.6726 459.309ZM55.1206 453.573C56.7046 453.573 57.6166 454.605 57.5926 455.925H52.2886C52.5766 454.509 53.4646 453.573 55.1206 453.573ZM62.3356 458.229C62.3356 460.989 63.2476 462.573 65.6956 462.573C67.0876 462.573 68.2396 462.045 68.8876 461.517L68.0476 459.381C67.6636 459.669 67.1356 460.005 66.3916 460.005C65.4796 460.005 65.0956 459.237 65.0956 458.061V454.125H68.5756V451.533H65.0956V448.533H62.3356V458.229ZM70.768 453.933C70.768 459.165 74.512 462.597 79.504 462.597C84.496 462.597 88.264 458.973 88.264 453.933C88.264 448.701 84.496 445.269 79.504 445.269C74.344 445.269 70.768 449.061 70.768 453.933ZM73.888 453.933C73.888 450.453 76.288 448.029 79.504 448.029C82.672 448.029 85.144 450.453 85.144 453.933C85.144 457.245 83.032 459.837 79.504 459.837C76.36 459.837 73.888 457.293 73.888 453.933ZM91.0081 462.333H93.7681V454.125H96.6961V451.533H93.7681V449.997C93.7681 448.509 94.4161 447.861 95.3521 447.861C95.9761 447.861 96.5761 448.029 96.9361 448.389L97.8721 446.277C97.3201 445.701 96.1441 445.269 94.8481 445.269C92.4481 445.269 91.0081 446.781 91.0081 449.781V462.333ZM106.229 457.869C106.229 459.141 105.173 459.837 103.781 459.837C102.485 459.837 100.901 459.213 99.9167 457.941L98.2367 459.957C99.0527 461.661 101.573 462.597 103.733 462.597C106.877 462.597 109.349 460.677 109.349 457.845C109.349 452.253 101.741 453.357 101.741 449.877C101.741 448.773 102.629 448.029 104.093 448.029C105.437 448.029 106.253 448.485 107.069 449.277L108.653 447.069C107.645 445.965 105.917 445.269 103.853 445.269C100.589 445.269 98.6207 447.381 98.6207 449.901C98.6207 455.373 106.229 454.557 106.229 457.869ZM111.958 462.333H114.718V454.917C115.342 454.293 116.206 453.933 117.094 453.933C118.606 453.933 119.494 454.821 119.494 456.429V462.333H122.254V456.069C122.254 452.685 120.454 451.341 117.814 451.341C116.566 451.341 115.414 451.845 114.718 452.517V445.533H111.958V462.333ZM125.9 454.317C126.692 453.957 127.484 453.573 128.732 453.573C130.34 453.573 130.82 454.557 130.748 456.357C130.22 455.973 129.26 455.661 128.3 455.661C126.116 455.661 124.364 456.789 124.364 459.165C124.364 461.253 125.78 462.477 127.748 462.477C129.212 462.477 130.364 461.901 130.94 461.085V462.333H133.34V455.757C133.34 452.901 132.212 451.269 129.02 451.269C127.604 451.269 126.14 451.749 125.204 452.301L125.9 454.317ZM128.66 460.149C127.796 460.149 127.124 459.693 127.124 458.877C127.124 457.965 127.94 457.533 128.852 457.533C129.644 457.533 130.268 457.701 130.748 458.061V459.165C130.412 459.645 129.812 460.149 128.66 460.149ZM136.169 462.333H138.929V455.085C139.241 454.461 139.745 453.933 140.705 453.933C141.281 453.933 141.569 454.029 142.097 454.341L143.081 451.749C142.721 451.485 142.289 451.341 141.401 451.341C140.105 451.341 139.433 451.893 138.929 452.589V451.533H136.169V462.333ZM153.126 459.309C152.502 459.813 151.398 460.293 150.078 460.293C148.374 460.293 147.078 459.405 146.838 457.773H154.638C154.758 457.365 154.806 456.957 154.806 456.285C154.806 453.261 152.478 451.269 149.694 451.269C146.142 451.269 143.982 453.789 143.982 456.933C143.982 460.341 146.31 462.597 149.79 462.597C151.302 462.597 152.838 462.165 153.918 461.253L153.126 459.309ZM149.574 453.573C151.158 453.573 152.07 454.605 152.046 455.925H146.742C147.03 454.509 147.918 453.573 149.574 453.573Z" fill="white"/>
        <rect width="147" height="52" transform="translate(28.0005 489.333)" fill="#7833FF"/>
        <path d="M43.2805 522.333V516.261C44.0005 516.333 44.9605 516.333 45.4645 516.333C49.4725 516.333 51.6085 513.741 51.6085 510.885C51.6085 508.125 50.0485 505.485 45.1045 505.485C43.9285 505.485 41.2645 505.533 40.3285 505.533V522.333H43.2805ZM45.3925 508.245C47.4085 508.245 48.4885 509.109 48.4885 510.861C48.4885 512.733 47.1205 513.573 45.3685 513.573C44.6965 513.573 43.9765 513.525 43.2805 513.453V508.293C44.0725 508.269 44.7925 508.245 45.3925 508.245ZM54.6398 522.333H57.3998V511.533H54.6398V522.333ZM54.3518 507.645C54.3518 508.749 55.1438 509.373 56.0798 509.373C56.8718 509.373 57.6638 508.749 57.6638 507.645C57.6638 506.661 56.8718 506.037 56.0798 506.037C55.1438 506.037 54.3518 506.661 54.3518 507.645ZM69.0721 518.709C68.3761 519.477 67.4641 520.029 66.2881 520.029C64.6561 520.029 63.1681 518.853 63.1681 516.933C63.1681 515.037 64.6321 513.861 66.1681 513.861C67.1521 513.861 68.0401 514.125 68.8561 514.917L70.1521 512.733C69.1441 511.725 67.5841 511.269 65.8081 511.269C62.5201 511.269 60.2161 513.789 60.2161 516.933C60.2161 520.341 62.5681 522.597 66.0721 522.597C67.8241 522.597 69.4561 521.949 70.3681 520.725L69.0721 518.709ZM72.3434 518.229C72.3434 520.989 73.2554 522.573 75.7034 522.573C77.0954 522.573 78.2474 522.045 78.8954 521.517L78.0554 519.381C77.6714 519.669 77.1434 520.005 76.3994 520.005C75.4874 520.005 75.1034 519.237 75.1034 518.061V514.125H78.5834V511.533H75.1034V508.533H72.3434V518.229ZM90.9998 511.533H88.2398V518.709C87.6158 519.525 86.7278 520.029 85.8158 520.029C84.3038 520.029 83.7518 518.997 83.7518 517.557V511.533H80.9918V518.133C80.9918 521.229 82.6718 522.597 84.7838 522.597C86.4638 522.597 87.5918 521.805 88.2398 521.013V522.333H90.9998V511.533ZM94.0756 522.333H96.8356V515.085C97.1476 514.461 97.6516 513.933 98.6116 513.933C99.1876 513.933 99.4756 514.029 100.004 514.341L100.988 511.749C100.628 511.485 100.196 511.341 99.3076 511.341C98.0116 511.341 97.3396 511.893 96.8356 512.589V511.533H94.0756V522.333ZM111.032 519.309C110.408 519.813 109.304 520.293 107.984 520.293C106.28 520.293 104.984 519.405 104.744 517.773H112.544C112.664 517.365 112.712 516.957 112.712 516.285C112.712 513.261 110.384 511.269 107.6 511.269C104.048 511.269 101.888 513.789 101.888 516.933C101.888 520.341 104.216 522.597 107.696 522.597C109.208 522.597 110.744 522.165 111.824 521.253L111.032 519.309ZM107.48 513.573C109.064 513.573 109.976 514.605 109.952 515.925H104.648C104.936 514.509 105.824 513.573 107.48 513.573ZM117.765 526.533L119.901 527.325L127.821 506.061L125.685 505.269L117.765 526.533ZM141.508 516.045H145.564V518.685C144.94 519.285 143.38 519.837 142.084 519.837C138.676 519.837 136.396 517.509 136.396 513.933C136.396 510.189 138.772 508.029 142.012 508.029C143.476 508.029 144.964 508.533 145.804 509.325L147.052 506.973C145.684 505.893 144.052 505.269 141.652 505.269C136.516 505.269 133.276 509.109 133.276 513.933C133.276 519.165 136.54 522.597 142.036 522.597C144.124 522.597 146.836 521.733 148.324 520.245V513.285H141.508V516.045ZM151.577 522.333H154.337V511.533H151.577V522.333ZM151.289 507.645C151.289 508.749 152.081 509.373 153.017 509.373C153.809 509.373 154.601 508.749 154.601 507.645C154.601 506.661 153.809 506.037 153.017 506.037C152.081 506.037 151.289 506.661 151.289 507.645ZM157.946 522.333H160.706V514.125H163.634V511.533H160.706V509.997C160.706 508.509 161.354 507.861 162.29 507.861C162.914 507.861 163.514 508.029 163.874 508.389L164.81 506.277C164.258 505.701 163.082 505.269 161.786 505.269C159.386 505.269 157.946 506.781 157.946 509.781V522.333Z" fill="white"/>
        <rect width="112" height="52" transform="translate(28.0005 549.333)" fill="#7833FF"/>
        <path d="M40.3285 582.333H50.8405V579.573H43.2805V565.533H40.3285V582.333ZM51.7082 576.933C51.7082 580.173 54.0122 582.597 57.5882 582.597C61.1642 582.597 63.4682 580.173 63.4682 576.933C63.4682 573.693 61.1642 571.269 57.5882 571.269C54.0122 571.269 51.7082 573.693 51.7082 576.933ZM54.6602 576.933C54.6602 575.061 55.9562 573.861 57.5882 573.861C59.2682 573.861 60.5402 575.109 60.5402 576.933C60.5402 578.805 59.2922 580.029 57.5882 580.029C55.9082 580.029 54.6602 578.733 54.6602 576.933ZM74.0408 578.709C73.3448 579.477 72.4328 580.029 71.2568 580.029C69.6248 580.029 68.1368 578.853 68.1368 576.933C68.1368 575.037 69.6008 573.861 71.1368 573.861C72.1208 573.861 73.0088 574.125 73.8248 574.917L75.1208 572.733C74.1128 571.725 72.5528 571.269 70.7768 571.269C67.4888 571.269 65.1848 573.789 65.1848 576.933C65.1848 580.341 67.5368 582.597 71.0408 582.597C72.7928 582.597 74.4248 581.949 75.3368 580.725L74.0408 578.709ZM78.3921 574.317C79.1841 573.957 79.9761 573.573 81.2241 573.573C82.8321 573.573 83.3121 574.557 83.2401 576.357C82.7121 575.973 81.7521 575.661 80.7921 575.661C78.6081 575.661 76.8561 576.789 76.8561 579.165C76.8561 581.253 78.2721 582.477 80.2401 582.477C81.7041 582.477 82.8561 581.901 83.4321 581.085V582.333H85.8321V575.757C85.8321 572.901 84.7041 571.269 81.5121 571.269C80.0961 571.269 78.6321 571.749 77.6961 572.301L78.3921 574.317ZM81.1521 580.149C80.2881 580.149 79.6161 579.693 79.6161 578.877C79.6161 577.965 80.4321 577.533 81.3441 577.533C82.1361 577.533 82.7601 577.701 83.2401 578.061V579.165C82.9041 579.645 82.3041 580.149 81.1521 580.149ZM88.4215 578.229C88.4215 580.989 89.3335 582.573 91.7815 582.573C93.1735 582.573 94.3255 582.045 94.9735 581.517L94.1335 579.381C93.7495 579.669 93.2215 580.005 92.4775 580.005C91.5655 580.005 91.1815 579.237 91.1815 578.061V574.125H94.6615V571.533H91.1815V568.533H88.4215V578.229ZM97.7179 582.333H100.478V571.533H97.7179V582.333ZM97.4299 567.645C97.4299 568.749 98.2219 569.373 99.1579 569.373C99.9499 569.373 100.742 568.749 100.742 567.645C100.742 566.661 99.9499 566.037 99.1579 566.037C98.2219 566.037 97.4299 566.661 97.4299 567.645ZM103.294 576.933C103.294 580.173 105.598 582.597 109.174 582.597C112.75 582.597 115.054 580.173 115.054 576.933C115.054 573.693 112.75 571.269 109.174 571.269C105.598 571.269 103.294 573.693 103.294 576.933ZM106.246 576.933C106.246 575.061 107.542 573.861 109.174 573.861C110.854 573.861 112.126 575.109 112.126 576.933C112.126 578.805 110.878 580.029 109.174 580.029C107.494 580.029 106.246 578.733 106.246 576.933ZM117.443 582.333H120.203V574.965C120.851 574.317 121.619 573.933 122.555 573.933C124.091 573.933 124.979 574.749 124.979 576.477V582.333H127.739V575.997C127.739 572.613 125.939 571.341 123.299 571.341C122.003 571.341 120.851 571.917 120.203 572.613V571.533H117.443V582.333Z" fill="white"/>
    </g>
    <rect x="1.33374" y="42.6667" width="290" height="585.333" stroke="#D3DBE6" stroke-width="2" stroke-linecap="round" stroke-dasharray="5.33 5.33"/>
    <path d="M37.7205 19.376C37.0245 20.144 36.1125 20.696 34.9365 20.696C33.3045 20.696 31.8165 19.52 31.8165 17.6C31.8165 15.704 33.2805 14.528 34.8165 14.528C35.8005 14.528 36.6885 14.792 37.5045 15.584L38.8005 13.4C37.7925 12.392 36.2325 11.936 34.4565 11.936C31.1685 11.936 28.8645 14.456 28.8645 17.6C28.8645 21.008 31.2165 23.264 34.7205 23.264C36.4725 23.264 38.1045 22.616 39.0165 21.392L37.7205 19.376ZM41.2318 20.024C41.2318 22.232 42.1198 23.24 43.7758 23.24C45.0718 23.24 46.0078 22.832 46.6318 22.328L46.0558 20.216C45.7198 20.456 45.3598 20.648 44.9278 20.648C44.2798 20.648 43.9918 20.12 43.9918 18.896V6.2H41.2318V20.024ZM49.2437 14.984C50.0357 14.624 50.8277 14.24 52.0757 14.24C53.6837 14.24 54.1637 15.224 54.0917 17.024C53.5637 16.64 52.6037 16.328 51.6437 16.328C49.4597 16.328 47.7077 17.456 47.7077 19.832C47.7077 21.92 49.1237 23.144 51.0917 23.144C52.5557 23.144 53.7077 22.568 54.2837 21.752V23H56.6837V16.424C56.6837 13.568 55.5557 11.936 52.3637 11.936C50.9477 11.936 49.4837 12.416 48.5477 12.968L49.2437 14.984ZM52.0037 20.816C51.1397 20.816 50.4677 20.36 50.4677 19.544C50.4677 18.632 51.2837 18.2 52.1957 18.2C52.9877 18.2 53.6117 18.368 54.0917 18.728V19.832C53.7557 20.312 53.1557 20.816 52.0037 20.816ZM64.9851 19.952C64.9851 20.624 64.3611 20.96 63.5691 20.96C62.4891 20.96 60.8571 20.312 60.2091 19.616L58.8651 21.416C59.3691 22.184 61.3851 23.264 63.3771 23.264C66.0171 23.264 67.7451 21.944 67.7451 19.808C67.7451 15.992 61.9131 16.976 61.9131 15.176C61.9131 14.696 62.4171 14.24 63.2571 14.24C64.4091 14.24 65.5371 14.768 66.1851 15.272L67.2171 13.304C66.5451 12.68 65.2011 11.936 63.1131 11.936C60.8811 11.936 59.1531 13.112 59.1531 15.224C59.1531 19.16 64.9851 18.2 64.9851 19.952ZM75.6491 19.952C75.6491 20.624 75.0251 20.96 74.2331 20.96C73.1531 20.96 71.5211 20.312 70.8731 19.616L69.5291 21.416C70.0331 22.184 72.0491 23.264 74.0411 23.264C76.6811 23.264 78.4091 21.944 78.4091 19.808C78.4091 15.992 72.5771 16.976 72.5771 15.176C72.5771 14.696 73.0811 14.24 73.9211 14.24C75.0731 14.24 76.2011 14.768 76.8491 15.272L77.8811 13.304C77.2091 12.68 75.8651 11.936 73.7771 11.936C71.5451 11.936 69.8171 13.112 69.8171 15.224C69.8171 19.16 75.6491 18.2 75.6491 19.952ZM84.6311 8.96H90.0791V23H93.0311V8.96H98.4791V6.2H84.6311V8.96ZM113.083 12.2H110.299L108.715 17.984C108.595 18.512 108.475 19.04 108.379 19.544C108.259 19.04 108.139 18.536 107.971 18.056L105.883 12.2H103.435L101.419 18.08C101.203 18.68 101.131 19.064 101.011 19.52C100.915 19.016 100.867 18.608 100.699 18.08L98.9709 12.2H96.0189L99.5229 23.048H101.875L104.155 17.096C104.323 16.664 104.443 16.256 104.539 15.776C104.659 16.184 104.731 16.64 104.899 17.048L107.203 23.048H109.675L113.083 12.2ZM122.993 19.976C122.369 20.48 121.265 20.96 119.945 20.96C118.241 20.96 116.945 20.072 116.705 18.44H124.505C124.625 18.032 124.673 17.624 124.673 16.952C124.673 13.928 122.345 11.936 119.561 11.936C116.009 11.936 113.849 14.456 113.849 17.6C113.849 21.008 116.177 23.264 119.657 23.264C121.169 23.264 122.705 22.832 123.785 21.92L122.993 19.976ZM119.441 14.24C121.025 14.24 121.937 15.272 121.913 16.592H116.609C116.897 15.176 117.785 14.24 119.441 14.24ZM135.298 19.976C134.674 20.48 133.57 20.96 132.25 20.96C130.546 20.96 129.25 20.072 129.01 18.44H136.81C136.93 18.032 136.978 17.624 136.978 16.952C136.978 13.928 134.65 11.936 131.866 11.936C128.314 11.936 126.154 14.456 126.154 17.6C126.154 21.008 128.482 23.264 131.962 23.264C133.474 23.264 135.01 22.832 136.09 21.92L135.298 19.976ZM131.746 14.24C133.33 14.24 134.242 15.272 134.218 16.592H128.914C129.202 15.176 130.09 14.24 131.746 14.24ZM138.961 18.896C138.961 21.656 139.873 23.24 142.321 23.24C143.713 23.24 144.865 22.712 145.513 22.184L144.673 20.048C144.289 20.336 143.761 20.672 143.017 20.672C142.105 20.672 141.721 19.904 141.721 18.728V14.792H145.201V12.2H141.721V9.2H138.961V18.896Z" fill="#10162F"/>
    <defs>
        <clipPath id="clip0_242_321">
            <rect width="176" height="532" fill="white" transform="translate(28.0005 69.3335)"/>
        </clipPath>
    </defs>
</svg>
