<svg width="420" height="240" viewBox="0 0 420 240" fill="none" xmlns="http://www.w3.org/2000/svg">
    <rect width="420" height="240" rx="16" fill="#F4F7FA"/>
    <rect x="30" y="30" width="81" height="36" rx="6" fill="#F0C2FB"/>
    <path d="M47.6484 57.2344C50.3672 57.2344 52.3828 55.7344 52.3828 53.6016V53.5898C52.3828 51.8555 51.4922 50.8828 49.0312 50.2852L47.0977 49.8164C45.75 49.4883 45.1992 48.9141 45.1992 48.082V48.0703C45.1992 46.9922 46.1133 46.2773 47.5898 46.2773C49.1016 46.2773 50.0039 47.0625 50.168 48.2461L50.1797 48.3281H52.125L52.1133 48.1758C51.9609 46.1367 50.2617 44.5781 47.5898 44.5781C44.9531 44.5781 43.1133 46.0664 43.1133 48.1641V48.1758C43.1133 49.9336 44.2266 51 46.5234 51.5508L48.457 52.0195C49.8398 52.3594 50.2969 52.8516 50.2969 53.7305V53.7422C50.2969 54.8438 49.3125 55.5352 47.6602 55.5352C45.9961 55.5352 45.0938 54.8203 44.8477 53.6016L44.8242 53.4844H42.7852L42.7969 53.5898C43.043 55.7695 44.7773 57.2344 47.6484 57.2344ZM58.4648 57.2344C58.8633 57.2344 59.2969 57.1875 59.5547 57.1523V55.5C59.3789 55.5117 59.1445 55.5469 58.8984 55.5469C57.8086 55.5469 57.2344 55.1836 57.2344 53.8828V46.5H59.5547V44.8125H57.2344V41.5195H55.125V44.8125H53.3438V46.5H55.125V53.8945C55.125 56.2266 56.2266 57.2344 58.4648 57.2344ZM61.7461 57H63.7852V49.3828C63.7852 47.6602 64.8164 46.5234 66.3984 46.5234C66.8906 46.5234 67.3242 46.582 67.4883 46.6406V44.6602C67.3242 44.6367 67.0195 44.5781 66.668 44.5781C65.2383 44.5781 64.1133 45.4336 63.7148 46.7812H63.668V44.8125H61.7461V57ZM70.3008 42.75C71.0156 42.75 71.5781 42.1758 71.5781 41.4727C71.5781 40.7578 71.0156 40.1953 70.3008 40.1953C69.5977 40.1953 69.0234 40.7578 69.0234 41.4727C69.0234 42.1758 69.5977 42.75 70.3008 42.75ZM69.2812 57H71.3203V44.8125H69.2812V57ZM74.0977 57H76.1367V49.8281C76.1367 47.7539 77.3906 46.3828 79.3125 46.3828C81.1875 46.3828 82.1133 47.4727 82.1133 49.4531V57H84.1523V49.0898C84.1523 46.3125 82.6055 44.5781 79.9336 44.5781C78.082 44.5781 76.8398 45.4102 76.1836 46.5469H76.1367V44.8125H74.0977V57ZM91.9102 61.3359C95.2148 61.3359 97.2891 59.4844 97.2891 56.6602V44.8125H95.25V46.875H95.2031C94.4531 45.5156 93.0938 44.5781 91.3711 44.5781C88.2773 44.5781 86.1562 47.0391 86.1562 50.8242V50.8359C86.1562 54.6445 88.2539 57.1172 91.3242 57.1172C93.0703 57.1172 94.4766 56.25 95.2031 54.9023H95.25V56.4609C95.25 58.3477 94.0312 59.5312 91.8867 59.5312C90.2227 59.5312 89.0625 58.9922 88.6758 58.1133L88.6289 58.0078H86.5781L86.6016 58.1133C87 59.918 88.8984 61.3359 91.9102 61.3359ZM91.7695 55.3125C89.6016 55.3125 88.2422 53.6016 88.2422 50.8359V50.8242C88.2422 48.1172 89.6016 46.3828 91.7695 46.3828C93.832 46.3828 95.25 48.1406 95.25 50.8242V50.8359C95.25 53.543 93.8438 55.3125 91.7695 55.3125Z" fill="black"/>
    <rect x="30" y="78" width="49" height="36" rx="6" fill="#FDDE4F"/>
    <path d="M44.4727 90.75C45.1875 90.75 45.75 90.1758 45.75 89.4727C45.75 88.7578 45.1875 88.1953 44.4727 88.1953C43.7695 88.1953 43.1953 88.7578 43.1953 89.4727C43.1953 90.1758 43.7695 90.75 44.4727 90.75ZM43.4531 105H45.4922V92.8125H43.4531V105ZM48.2695 105H50.3086V97.8281C50.3086 95.7539 51.5625 94.3828 53.4844 94.3828C55.3594 94.3828 56.2852 95.4727 56.2852 97.4531V105H58.3242V97.0898C58.3242 94.3125 56.7773 92.5781 54.1055 92.5781C52.2539 92.5781 51.0117 93.4102 50.3555 94.5469H50.3086V92.8125H48.2695V105ZM64.8867 105.234C65.2852 105.234 65.7188 105.188 65.9766 105.152V103.5C65.8008 103.512 65.5664 103.547 65.3203 103.547C64.2305 103.547 63.6562 103.184 63.6562 101.883V94.5H65.9766V92.8125H63.6562V89.5195H61.5469V92.8125H59.7656V94.5H61.5469V101.895C61.5469 104.227 62.6484 105.234 64.8867 105.234Z" fill="black"/>
    <rect x="30" y="126" width="69" height="36" rx="6" fill="#99FCE6"/>
    <path d="M43.9805 153H46.0195V142.5H48.5039V140.812H45.9961V139.324C45.9961 138.117 46.5586 137.543 47.6836 137.543C48 137.543 48.3164 137.555 48.5625 137.59V135.938C48.2578 135.891 47.7773 135.855 47.3203 135.855C45.0703 135.855 43.9805 136.969 43.9805 139.312V140.812H42.2812V142.5H43.9805V153ZM50.7188 153H52.7578V136.09H50.7188V153ZM60.5625 153.234C63.9258 153.234 66.1992 150.797 66.1992 146.906V146.883C66.1992 142.992 63.9141 140.578 60.5508 140.578C57.1875 140.578 54.9141 143.004 54.9141 146.883V146.906C54.9141 150.785 57.1758 153.234 60.5625 153.234ZM60.5742 151.43C58.418 151.43 57 149.777 57 146.906V146.883C57 144.035 58.4297 142.383 60.5508 142.383C62.707 142.383 64.1133 144.023 64.1133 146.883V146.906C64.1133 149.766 62.7188 151.43 60.5742 151.43ZM71.8242 153.234C73.4531 153.234 74.918 152.355 75.6328 151.02H75.6797V153H77.7188V144.574C77.7188 142.137 75.9141 140.578 73.0312 140.578C70.1602 140.578 68.4141 142.195 68.2383 144.199L68.2266 144.328H70.1953L70.2188 144.223C70.4531 143.133 71.4375 142.383 73.0078 142.383C74.707 142.383 75.6797 143.285 75.6797 144.773V145.793L72.1875 145.992C69.3867 146.156 67.7695 147.457 67.7695 149.531V149.555C67.7695 151.77 69.3984 153.234 71.8242 153.234ZM69.8555 149.555V149.531C69.8555 148.395 70.793 147.668 72.4219 147.574L75.6797 147.375V148.371C75.6797 150.141 74.2031 151.465 72.2812 151.465C70.8164 151.465 69.8555 150.727 69.8555 149.555ZM84.2695 153.234C84.668 153.234 85.1016 153.188 85.3594 153.152V151.5C85.1836 151.512 84.9492 151.547 84.7031 151.547C83.6133 151.547 83.0391 151.184 83.0391 149.883V142.5H85.3594V140.812H83.0391V137.52H80.9297V140.812H79.1484V142.5H80.9297V149.895C80.9297 152.227 82.0312 153.234 84.2695 153.234Z" fill="black"/>
    <rect x="30" y="174" width="68" height="36" rx="6" fill="#AFDAFF"/>
    <path d="M49.3828 201.234C52.5 201.234 54.5625 198.75 54.5625 194.906V194.895C54.5625 191.051 52.4766 188.578 49.418 188.578C47.6953 188.578 46.2773 189.445 45.5156 190.852H45.4688V184.09H43.4297V201H45.4688V198.938H45.5156C46.2773 200.355 47.6367 201.234 49.3828 201.234ZM48.9844 199.43C46.9219 199.43 45.457 197.637 45.457 194.906V194.895C45.457 192.176 46.9336 190.383 48.9844 190.383C51.1406 190.383 52.4766 192.117 52.4766 194.895V194.906C52.4766 197.707 51.1406 199.43 48.9844 199.43ZM61.6641 201.234C65.0273 201.234 67.3008 198.797 67.3008 194.906V194.883C67.3008 190.992 65.0156 188.578 61.6523 188.578C58.2891 188.578 56.0156 191.004 56.0156 194.883V194.906C56.0156 198.785 58.2773 201.234 61.6641 201.234ZM61.6758 199.43C59.5195 199.43 58.1016 197.777 58.1016 194.906V194.883C58.1016 192.035 59.5312 190.383 61.6523 190.383C63.8086 190.383 65.2148 192.023 65.2148 194.883V194.906C65.2148 197.766 63.8203 199.43 61.6758 199.43ZM74.4141 201.234C77.7773 201.234 80.0508 198.797 80.0508 194.906V194.883C80.0508 190.992 77.7656 188.578 74.4023 188.578C71.0391 188.578 68.7656 191.004 68.7656 194.883V194.906C68.7656 198.785 71.0273 201.234 74.4141 201.234ZM74.4258 199.43C72.2695 199.43 70.8516 197.777 70.8516 194.906V194.883C70.8516 192.035 72.2812 190.383 74.4023 190.383C76.5586 190.383 77.9648 192.023 77.9648 194.883V194.906C77.9648 197.766 76.5703 199.43 74.4258 199.43ZM82.2188 201H84.2578V184.09H82.2188V201Z" fill="black"/>
    <path d="M131.668 51.0938H150.289V49.1953H131.668V51.0938ZM161.516 57.2344C164.234 57.2344 166.25 55.7344 166.25 53.6016V53.5898C166.25 51.8555 165.359 50.8828 162.898 50.2852L160.965 49.8164C159.617 49.4883 159.066 48.9141 159.066 48.082V48.0703C159.066 46.9922 159.98 46.2773 161.457 46.2773C162.969 46.2773 163.871 47.0625 164.035 48.2461L164.047 48.3281H165.992L165.98 48.1758C165.828 46.1367 164.129 44.5781 161.457 44.5781C158.82 44.5781 156.98 46.0664 156.98 48.1641V48.1758C156.98 49.9336 158.094 51 160.391 51.5508L162.324 52.0195C163.707 52.3594 164.164 52.8516 164.164 53.7305V53.7422C164.164 54.8438 163.18 55.5352 161.527 55.5352C159.863 55.5352 158.961 54.8203 158.715 53.6016L158.691 53.4844H156.652L156.664 53.5898C156.91 55.7695 158.645 57.2344 161.516 57.2344ZM172.332 57.2344C172.73 57.2344 173.164 57.1875 173.422 57.1523V55.5C173.246 55.5117 173.012 55.5469 172.766 55.5469C171.676 55.5469 171.102 55.1836 171.102 53.8828V46.5H173.422V44.8125H171.102V41.5195H168.992V44.8125H167.211V46.5H168.992V53.8945C168.992 56.2266 170.094 57.2344 172.332 57.2344ZM175.613 57H177.652V49.3828C177.652 47.6602 178.684 46.5234 180.266 46.5234C180.758 46.5234 181.191 46.582 181.355 46.6406V44.6602C181.191 44.6367 180.887 44.5781 180.535 44.5781C179.105 44.5781 177.98 45.4336 177.582 46.7812H177.535V44.8125H175.613V57ZM184.168 42.75C184.883 42.75 185.445 42.1758 185.445 41.4727C185.445 40.7578 184.883 40.1953 184.168 40.1953C183.465 40.1953 182.891 40.7578 182.891 41.4727C182.891 42.1758 183.465 42.75 184.168 42.75ZM183.148 57H185.188V44.8125H183.148V57ZM187.965 57H190.004V49.8281C190.004 47.7539 191.258 46.3828 193.18 46.3828C195.055 46.3828 195.98 47.4727 195.98 49.4531V57H198.02V49.0898C198.02 46.3125 196.473 44.5781 193.801 44.5781C191.949 44.5781 190.707 45.4102 190.051 46.5469H190.004V44.8125H187.965V57ZM205.777 61.3359C209.082 61.3359 211.156 59.4844 211.156 56.6602V44.8125H209.117V46.875H209.07C208.32 45.5156 206.961 44.5781 205.238 44.5781C202.145 44.5781 200.023 47.0391 200.023 50.8242V50.8359C200.023 54.6445 202.121 57.1172 205.191 57.1172C206.938 57.1172 208.344 56.25 209.07 54.9023H209.117V56.4609C209.117 58.3477 207.898 59.5312 205.754 59.5312C204.09 59.5312 202.93 58.9922 202.543 58.1133L202.496 58.0078H200.445L200.469 58.1133C200.867 59.918 202.766 61.3359 205.777 61.3359ZM205.637 55.3125C203.469 55.3125 202.109 53.6016 202.109 50.8359V50.8242C202.109 48.1172 203.469 46.3828 205.637 46.3828C207.699 46.3828 209.117 48.1406 209.117 50.8242V50.8359C209.117 53.543 207.711 55.3125 205.637 55.3125Z" fill="black"/>
    <path d="M131.668 99.0938H150.289V97.1953H131.668V99.0938ZM159.605 105H161.68L164.422 95.5664H164.469L167.223 105H169.297L172.695 92.8125H170.68L168.242 102.727H168.195L165.43 92.8125H163.461L160.707 102.727H160.66L158.223 92.8125H156.195L159.605 105ZM174.477 105H176.516V97.8867C176.516 95.8125 177.77 94.3828 179.656 94.3828C181.555 94.3828 182.68 95.6836 182.68 97.8867V105H184.719V97.5352C184.719 94.582 182.949 92.5781 180.359 92.5781C178.543 92.5781 177.219 93.3867 176.562 94.7578H176.516V88.0898H174.477V105ZM192.359 105.234C195.723 105.234 197.996 102.797 197.996 98.9062V98.8828C197.996 94.9922 195.711 92.5781 192.348 92.5781C188.984 92.5781 186.711 95.0039 186.711 98.8828V98.9062C186.711 102.785 188.973 105.234 192.359 105.234ZM192.371 103.43C190.215 103.43 188.797 101.777 188.797 98.9062V98.8828C188.797 96.0352 190.227 94.3828 192.348 94.3828C194.504 94.3828 195.91 96.0234 195.91 98.8828V98.9062C195.91 101.766 194.516 103.43 192.371 103.43ZM200.164 105H202.203V88.0898H200.164V105ZM209.973 105.234C212.633 105.234 214.625 103.641 215.023 101.625L215.047 101.508H213.043L213.008 101.613C212.656 102.656 211.566 103.43 210.02 103.43C207.852 103.43 206.469 101.965 206.422 99.457H215.199V98.707C215.199 95.0508 213.172 92.5781 209.844 92.5781C206.516 92.5781 204.359 95.168 204.359 98.9414V98.9531C204.359 102.785 206.469 105.234 209.973 105.234ZM209.832 94.3828C211.613 94.3828 212.926 95.4961 213.125 97.8633H206.457C206.68 95.5898 208.062 94.3828 209.832 94.3828ZM222.184 105H224.223V97.8281C224.223 95.7539 225.477 94.3828 227.398 94.3828C229.273 94.3828 230.199 95.4727 230.199 97.4531V105H232.238V97.0898C232.238 94.3125 230.691 92.5781 228.02 92.5781C226.168 92.5781 224.926 93.4102 224.27 94.5469H224.223V92.8125H222.184V105ZM239 105.234C240.852 105.234 242.094 104.402 242.75 103.266H242.797V105H244.836V92.8125H242.797V99.9844C242.797 102.059 241.543 103.43 239.621 103.43C237.746 103.43 236.82 102.34 236.82 100.359V92.8125H234.781V100.723C234.781 103.5 236.328 105.234 239 105.234ZM247.496 105H249.535V97.3594C249.535 95.6602 250.707 94.3828 252.324 94.3828C253.836 94.3828 254.82 95.3555 254.82 96.832V105H256.859V97.2539C256.859 95.5898 257.996 94.3828 259.613 94.3828C261.219 94.3828 262.145 95.3789 262.145 97.0547V105H264.184V96.5859C264.184 94.1602 262.625 92.5781 260.211 92.5781C258.5 92.5781 257.07 93.457 256.391 94.9219H256.344C255.816 93.4336 254.586 92.5781 252.922 92.5781C251.352 92.5781 250.133 93.3867 249.582 94.5938H249.535V92.8125H247.496V105ZM272.844 105.234C275.961 105.234 278.023 102.75 278.023 98.9062V98.8945C278.023 95.0508 275.938 92.5781 272.879 92.5781C271.156 92.5781 269.738 93.4453 268.977 94.8516H268.93V88.0898H266.891V105H268.93V102.938H268.977C269.738 104.355 271.098 105.234 272.844 105.234ZM272.445 103.43C270.383 103.43 268.918 101.637 268.918 98.9062V98.8945C268.918 96.1758 270.395 94.3828 272.445 94.3828C274.602 94.3828 275.938 96.1172 275.938 98.8945V98.9062C275.938 101.707 274.602 103.43 272.445 103.43ZM285.09 105.234C287.75 105.234 289.742 103.641 290.141 101.625L290.164 101.508H288.16L288.125 101.613C287.773 102.656 286.684 103.43 285.137 103.43C282.969 103.43 281.586 101.965 281.539 99.457H290.316V98.707C290.316 95.0508 288.289 92.5781 284.961 92.5781C281.633 92.5781 279.477 95.168 279.477 98.9414V98.9531C279.477 102.785 281.586 105.234 285.09 105.234ZM284.949 94.3828C286.73 94.3828 288.043 95.4961 288.242 97.8633H281.574C281.797 95.5898 283.18 94.3828 284.949 94.3828ZM292.379 105H294.418V97.3828C294.418 95.6602 295.449 94.5234 297.031 94.5234C297.523 94.5234 297.957 94.582 298.121 94.6406V92.6602C297.957 92.6367 297.652 92.5781 297.301 92.5781C295.871 92.5781 294.746 93.4336 294.348 94.7812H294.301V92.8125H292.379V105Z" fill="black"/>
    <path d="M131.668 147.094H150.289V145.195H131.668V147.094ZM160.754 153.234C162.383 153.234 163.848 152.355 164.562 151.02H164.609V153H166.648V144.574C166.648 142.137 164.844 140.578 161.961 140.578C159.09 140.578 157.344 142.195 157.168 144.199L157.156 144.328H159.125L159.148 144.223C159.383 143.133 160.367 142.383 161.938 142.383C163.637 142.383 164.609 143.285 164.609 144.773V145.793L161.117 145.992C158.316 146.156 156.699 147.457 156.699 149.531V149.555C156.699 151.77 158.328 153.234 160.754 153.234ZM158.785 149.555V149.531C158.785 148.395 159.723 147.668 161.352 147.574L164.609 147.375V148.371C164.609 150.141 163.133 151.465 161.211 151.465C159.746 151.465 158.785 150.727 158.785 149.555ZM174.816 153H176.855V142.5H179.34V140.812H176.832V139.324C176.832 138.117 177.395 137.543 178.52 137.543C178.836 137.543 179.152 137.555 179.398 137.59V135.938C179.094 135.891 178.613 135.855 178.156 135.855C175.906 135.855 174.816 136.969 174.816 139.312V140.812H173.117V142.5H174.816V153ZM181.555 153H183.594V136.09H181.555V153ZM191.398 153.234C194.762 153.234 197.035 150.797 197.035 146.906V146.883C197.035 142.992 194.75 140.578 191.387 140.578C188.023 140.578 185.75 143.004 185.75 146.883V146.906C185.75 150.785 188.012 153.234 191.398 153.234ZM191.41 151.43C189.254 151.43 187.836 149.777 187.836 146.906V146.883C187.836 144.035 189.266 142.383 191.387 142.383C193.543 142.383 194.949 144.023 194.949 146.883V146.906C194.949 149.766 193.555 151.43 191.41 151.43ZM202.66 153.234C204.289 153.234 205.754 152.355 206.469 151.02H206.516V153H208.555V144.574C208.555 142.137 206.75 140.578 203.867 140.578C200.996 140.578 199.25 142.195 199.074 144.199L199.062 144.328H201.031L201.055 144.223C201.289 143.133 202.273 142.383 203.844 142.383C205.543 142.383 206.516 143.285 206.516 144.773V145.793L203.023 145.992C200.223 146.156 198.605 147.457 198.605 149.531V149.555C198.605 151.77 200.234 153.234 202.66 153.234ZM200.691 149.555V149.531C200.691 148.395 201.629 147.668 203.258 147.574L206.516 147.375V148.371C206.516 150.141 205.039 151.465 203.117 151.465C201.652 151.465 200.691 150.727 200.691 149.555ZM215.105 153.234C215.504 153.234 215.938 153.188 216.195 153.152V151.5C216.02 151.512 215.785 151.547 215.539 151.547C214.449 151.547 213.875 151.184 213.875 149.883V142.5H216.195V140.812H213.875V137.52H211.766V140.812H209.984V142.5H211.766V149.895C211.766 152.227 212.867 153.234 215.105 153.234ZM219.535 138.75C220.25 138.75 220.812 138.176 220.812 137.473C220.812 136.758 220.25 136.195 219.535 136.195C218.832 136.195 218.258 136.758 218.258 137.473C218.258 138.176 218.832 138.75 219.535 138.75ZM218.516 153H220.555V140.812H218.516V153ZM223.332 153H225.371V145.828C225.371 143.754 226.625 142.383 228.547 142.383C230.422 142.383 231.348 143.473 231.348 145.453V153H233.387V145.09C233.387 142.312 231.84 140.578 229.168 140.578C227.316 140.578 226.074 141.41 225.418 142.547H225.371V140.812H223.332V153ZM241.145 157.336C244.449 157.336 246.523 155.484 246.523 152.66V140.812H244.484V142.875H244.438C243.688 141.516 242.328 140.578 240.605 140.578C237.512 140.578 235.391 143.039 235.391 146.824V146.836C235.391 150.645 237.488 153.117 240.559 153.117C242.305 153.117 243.711 152.25 244.438 150.902H244.484V152.461C244.484 154.348 243.266 155.531 241.121 155.531C239.457 155.531 238.297 154.992 237.91 154.113L237.863 154.008H235.812L235.836 154.113C236.234 155.918 238.133 157.336 241.145 157.336ZM241.004 151.312C238.836 151.312 237.477 149.602 237.477 146.836V146.824C237.477 144.117 238.836 142.383 241.004 142.383C243.066 142.383 244.484 144.141 244.484 146.824V146.836C244.484 149.543 243.078 151.312 241.004 151.312ZM254.082 157.102H256.121V150.961H256.168C256.93 152.367 258.348 153.234 260.07 153.234C263.129 153.234 265.215 150.762 265.215 146.918V146.906C265.215 143.062 263.152 140.578 260.035 140.578C258.289 140.578 256.93 141.457 256.168 142.875H256.121V140.812H254.082V157.102ZM259.637 151.43C257.586 151.43 256.109 149.637 256.109 146.918V146.906C256.109 144.176 257.574 142.383 259.637 142.383C261.793 142.383 263.129 144.105 263.129 146.906V146.918C263.129 149.695 261.793 151.43 259.637 151.43ZM272.328 153.234C275.691 153.234 277.965 150.797 277.965 146.906V146.883C277.965 142.992 275.68 140.578 272.316 140.578C268.953 140.578 266.68 143.004 266.68 146.883V146.906C266.68 150.785 268.941 153.234 272.328 153.234ZM272.34 151.43C270.184 151.43 268.766 149.777 268.766 146.906V146.883C268.766 144.035 270.195 142.383 272.316 142.383C274.473 142.383 275.879 144.023 275.879 146.883V146.906C275.879 149.766 274.484 151.43 272.34 151.43ZM281.176 138.75C281.891 138.75 282.453 138.176 282.453 137.473C282.453 136.758 281.891 136.195 281.176 136.195C280.473 136.195 279.898 136.758 279.898 137.473C279.898 138.176 280.473 138.75 281.176 138.75ZM280.156 153H282.195V140.812H280.156V153ZM284.973 153H287.012V145.828C287.012 143.754 288.266 142.383 290.188 142.383C292.062 142.383 292.988 143.473 292.988 145.453V153H295.027V145.09C295.027 142.312 293.48 140.578 290.809 140.578C288.957 140.578 287.715 141.41 287.059 142.547H287.012V140.812H284.973V153ZM301.59 153.234C301.988 153.234 302.422 153.188 302.68 153.152V151.5C302.504 151.512 302.27 151.547 302.023 151.547C300.934 151.547 300.359 151.184 300.359 149.883V142.5H302.68V140.812H300.359V137.52H298.25V140.812H296.469V142.5H298.25V149.895C298.25 152.227 299.352 153.234 301.59 153.234ZM309.793 153H311.832V145.828C311.832 143.754 313.086 142.383 315.008 142.383C316.883 142.383 317.809 143.473 317.809 145.453V153H319.848V145.09C319.848 142.312 318.301 140.578 315.629 140.578C313.777 140.578 312.535 141.41 311.879 142.547H311.832V140.812H309.793V153ZM326.609 153.234C328.461 153.234 329.703 152.402 330.359 151.266H330.406V153H332.445V140.812H330.406V147.984C330.406 150.059 329.152 151.43 327.23 151.43C325.355 151.43 324.43 150.34 324.43 148.359V140.812H322.391V148.723C322.391 151.5 323.938 153.234 326.609 153.234ZM335.105 153H337.145V145.359C337.145 143.66 338.316 142.383 339.934 142.383C341.445 142.383 342.43 143.355 342.43 144.832V153H344.469V145.254C344.469 143.59 345.605 142.383 347.223 142.383C348.828 142.383 349.754 143.379 349.754 145.055V153H351.793V144.586C351.793 142.16 350.234 140.578 347.82 140.578C346.109 140.578 344.68 141.457 344 142.922H343.953C343.426 141.434 342.195 140.578 340.531 140.578C338.961 140.578 337.742 141.387 337.191 142.594H337.145V140.812H335.105V153ZM360.453 153.234C363.57 153.234 365.633 150.75 365.633 146.906V146.895C365.633 143.051 363.547 140.578 360.488 140.578C358.766 140.578 357.348 141.445 356.586 142.852H356.539V136.09H354.5V153H356.539V150.938H356.586C357.348 152.355 358.707 153.234 360.453 153.234ZM360.055 151.43C357.992 151.43 356.527 149.637 356.527 146.906V146.895C356.527 144.176 358.004 142.383 360.055 142.383C362.211 142.383 363.547 144.117 363.547 146.895V146.906C363.547 149.707 362.211 151.43 360.055 151.43ZM372.699 153.234C375.359 153.234 377.352 151.641 377.75 149.625L377.773 149.508H375.77L375.734 149.613C375.383 150.656 374.293 151.43 372.746 151.43C370.578 151.43 369.195 149.965 369.148 147.457H377.926V146.707C377.926 143.051 375.898 140.578 372.57 140.578C369.242 140.578 367.086 143.168 367.086 146.941V146.953C367.086 150.785 369.195 153.234 372.699 153.234ZM372.559 142.383C374.34 142.383 375.652 143.496 375.852 145.863H369.184C369.406 143.59 370.789 142.383 372.559 142.383ZM379.988 153H382.027V145.383C382.027 143.66 383.059 142.523 384.641 142.523C385.133 142.523 385.566 142.582 385.73 142.641V140.66C385.566 140.637 385.262 140.578 384.91 140.578C383.48 140.578 382.355 141.434 381.957 142.781H381.91V140.812H379.988V153Z" fill="black"/>
    <path d="M131.668 195.094H150.289V193.195H131.668V195.094ZM161.152 201.234C161.551 201.234 161.984 201.188 162.242 201.152V199.5C162.066 199.512 161.832 199.547 161.586 199.547C160.496 199.547 159.922 199.184 159.922 197.883V190.5H162.242V188.812H159.922V185.52H157.812V188.812H156.031V190.5H157.812V197.895C157.812 200.227 158.914 201.234 161.152 201.234ZM164.434 201H166.473V193.383C166.473 191.66 167.504 190.523 169.086 190.523C169.578 190.523 170.012 190.582 170.176 190.641V188.66C170.012 188.637 169.707 188.578 169.355 188.578C167.926 188.578 166.801 189.434 166.402 190.781H166.355V188.812H164.434V201ZM176 201.234C177.852 201.234 179.094 200.402 179.75 199.266H179.797V201H181.836V188.812H179.797V195.984C179.797 198.059 178.543 199.43 176.621 199.43C174.746 199.43 173.82 198.34 173.82 196.359V188.812H171.781V196.723C171.781 199.5 173.328 201.234 176 201.234ZM189.512 201.234C192.172 201.234 194.164 199.641 194.562 197.625L194.586 197.508H192.582L192.547 197.613C192.195 198.656 191.105 199.43 189.559 199.43C187.391 199.43 186.008 197.965 185.961 195.457H194.738V194.707C194.738 191.051 192.711 188.578 189.383 188.578C186.055 188.578 183.898 191.168 183.898 194.941V194.953C183.898 198.785 186.008 201.234 189.512 201.234ZM189.371 190.383C191.152 190.383 192.465 191.496 192.664 193.863H185.996C186.219 191.59 187.602 190.383 189.371 190.383ZM206.773 201.234C210.137 201.234 212.41 198.797 212.41 194.906V194.883C212.41 190.992 210.125 188.578 206.762 188.578C203.398 188.578 201.125 191.004 201.125 194.883V194.906C201.125 198.785 203.387 201.234 206.773 201.234ZM206.785 199.43C204.629 199.43 203.211 197.777 203.211 194.906V194.883C203.211 192.035 204.641 190.383 206.762 190.383C208.918 190.383 210.324 192.023 210.324 194.883V194.906C210.324 197.766 208.93 199.43 206.785 199.43ZM214.473 201H216.512V193.383C216.512 191.66 217.543 190.523 219.125 190.523C219.617 190.523 220.051 190.582 220.215 190.641V188.66C220.051 188.637 219.746 188.578 219.395 188.578C217.965 188.578 216.84 189.434 216.441 190.781H216.395V188.812H214.473V201ZM227.457 201H229.496V190.5H231.98V188.812H229.473V187.324C229.473 186.117 230.035 185.543 231.16 185.543C231.477 185.543 231.793 185.555 232.039 185.59V183.938C231.734 183.891 231.254 183.855 230.797 183.855C228.547 183.855 227.457 184.969 227.457 187.312V188.812H225.758V190.5H227.457V201ZM236.949 201.234C238.578 201.234 240.043 200.355 240.758 199.02H240.805V201H242.844V192.574C242.844 190.137 241.039 188.578 238.156 188.578C235.285 188.578 233.539 190.195 233.363 192.199L233.352 192.328H235.32L235.344 192.223C235.578 191.133 236.562 190.383 238.133 190.383C239.832 190.383 240.805 191.285 240.805 192.773V193.793L237.312 193.992C234.512 194.156 232.895 195.457 232.895 197.531V197.555C232.895 199.77 234.523 201.234 236.949 201.234ZM234.98 197.555V197.531C234.98 196.395 235.918 195.668 237.547 195.574L240.805 195.375V196.371C240.805 198.141 239.328 199.465 237.406 199.465C235.941 199.465 234.98 198.727 234.98 197.555ZM245.539 201H247.578V184.09H245.539V201ZM254.656 201.234C257.375 201.234 259.391 199.734 259.391 197.602V197.59C259.391 195.855 258.5 194.883 256.039 194.285L254.105 193.816C252.758 193.488 252.207 192.914 252.207 192.082V192.07C252.207 190.992 253.121 190.277 254.598 190.277C256.109 190.277 257.012 191.062 257.176 192.246L257.188 192.328H259.133L259.121 192.176C258.969 190.137 257.27 188.578 254.598 188.578C251.961 188.578 250.121 190.066 250.121 192.164V192.176C250.121 193.934 251.234 195 253.531 195.551L255.465 196.02C256.848 196.359 257.305 196.852 257.305 197.73V197.742C257.305 198.844 256.32 199.535 254.668 199.535C253.004 199.535 252.102 198.82 251.855 197.602L251.832 197.484H249.793L249.805 197.59C250.051 199.77 251.785 201.234 254.656 201.234ZM266.527 201.234C269.188 201.234 271.18 199.641 271.578 197.625L271.602 197.508H269.598L269.562 197.613C269.211 198.656 268.121 199.43 266.574 199.43C264.406 199.43 263.023 197.965 262.977 195.457H271.754V194.707C271.754 191.051 269.727 188.578 266.398 188.578C263.07 188.578 260.914 191.168 260.914 194.941V194.953C260.914 198.785 263.023 201.234 266.527 201.234ZM266.387 190.383C268.168 190.383 269.48 191.496 269.68 193.863H263.012C263.234 191.59 264.617 190.383 266.387 190.383Z" fill="black"/>
</svg>
