<svg width="599" height="267" viewBox="0 0 599 267" fill="none" xmlns="http://www.w3.org/2000/svg">
    <rect width="80" height="52" transform="translate(56 16)" fill="#FF315D"/>
    <path d="M73.008 45.952C73.008 46.624 72.384 46.96 71.592 46.96C70.512 46.96 68.88 46.312 68.232 45.616L66.888 47.416C67.392 48.184 69.408 49.264 71.4 49.264C74.04 49.264 75.768 47.944 75.768 45.808C75.768 41.992 69.936 42.976 69.936 41.176C69.936 40.696 70.44 40.24 71.28 40.24C72.432 40.24 73.56 40.768 74.208 41.272L75.24 39.304C74.568 38.68 73.224 37.936 71.136 37.936C68.904 37.936 67.176 39.112 67.176 41.224C67.176 45.16 73.008 44.2 73.008 45.952ZM77.9601 44.896C77.9601 47.656 78.8721 49.24 81.3201 49.24C82.7121 49.24 83.8641 48.712 84.5121 48.184L83.6721 46.048C83.2881 46.336 82.7601 46.672 82.0161 46.672C81.1041 46.672 80.7201 45.904 80.7201 44.728V40.792H84.2001V38.2H80.7201V35.2H77.9601V44.896ZM86.8485 49H89.6085V41.752C89.9205 41.128 90.4245 40.6 91.3845 40.6C91.9605 40.6 92.2485 40.696 92.7765 41.008L93.7605 38.416C93.4005 38.152 92.9685 38.008 92.0805 38.008C90.7845 38.008 90.1125 38.56 89.6085 39.256V38.2H86.8485V49ZM95.7409 49H98.5009V38.2H95.7409V49ZM95.4529 34.312C95.4529 35.416 96.2449 36.04 97.1809 36.04C97.9729 36.04 98.7649 35.416 98.7649 34.312C98.7649 33.328 97.9729 32.704 97.1809 32.704C96.2449 32.704 95.4529 33.328 95.4529 34.312ZM101.989 49H104.749V41.632C105.397 40.984 106.165 40.6 107.101 40.6C108.637 40.6 109.525 41.416 109.525 43.144V49H112.285V42.664C112.285 39.28 110.485 38.008 107.845 38.008C106.549 38.008 105.397 38.584 104.749 39.28V38.2H101.989V49ZM113.675 50.464C113.675 52.936 116.147 53.992 119.291 53.992C122.435 53.992 124.907 52.888 124.907 50.464C124.907 48.04 122.435 46.936 119.291 46.936H119.171C119.075 46.768 119.027 46.576 119.027 46.384C119.027 46.264 119.027 46.12 119.075 45.976H119.267C122.051 45.976 123.851 44.152 123.851 41.992C123.851 41.512 123.755 41.032 123.587 40.6L125.387 40.192L125.291 37.984L122.027 38.704C121.283 38.224 120.347 37.936 119.267 37.936C116.411 37.936 114.659 39.832 114.659 41.992C114.659 43.576 115.595 44.968 117.227 45.616C117.059 45.832 116.987 46.12 116.987 46.384C116.987 46.624 117.059 46.912 117.179 47.128C115.115 47.56 113.675 48.664 113.675 50.464ZM116.243 50.464C116.243 49.672 117.323 49.144 119.291 49.144C121.283 49.144 122.315 49.672 122.315 50.464C122.315 51.328 121.163 51.784 119.291 51.784C117.419 51.784 116.243 51.304 116.243 50.464ZM117.251 41.992C117.251 41.008 118.019 40.168 119.267 40.168C120.563 40.168 121.283 40.984 121.283 41.992C121.283 43.072 120.443 43.744 119.267 43.744C118.019 43.744 117.251 43 117.251 41.992Z" fill="white"/>
    <rect width="49" height="52" transform="translate(56 76)" fill="#FFE000"/>
    <path d="M67.944 109H70.704V98.2H67.944V109ZM67.656 94.312C67.656 95.416 68.448 96.04 69.384 96.04C70.176 96.04 70.968 95.416 70.968 94.312C70.968 93.328 70.176 92.704 69.384 92.704C68.448 92.704 67.656 93.328 67.656 94.312ZM74.1923 109H76.9523V101.632C77.6003 100.984 78.3683 100.6 79.3043 100.6C80.8403 100.6 81.7283 101.416 81.7283 103.144V109H84.4883V102.664C84.4883 99.28 82.6883 98.008 80.0483 98.008C78.7523 98.008 77.6003 98.584 76.9523 99.28V98.2H74.1923V109ZM87.0538 104.896C87.0538 107.656 87.9658 109.24 90.4138 109.24C91.8058 109.24 92.9578 108.712 93.6058 108.184L92.7658 106.048C92.3818 106.336 91.8538 106.672 91.1098 106.672C90.1978 106.672 89.8138 105.904 89.8138 104.728V100.792H93.2938V98.2H89.8138V95.2H87.0538V104.896Z" fill="#10162F"/>
    <rect width="67" height="52" transform="translate(56 136)" fill="#1EC1A1"/>
    <path d="M74.016 166.024C74.016 168.232 74.928 169.24 76.584 169.24C77.88 169.24 78.816 168.832 79.44 168.328L78.864 166.216C78.528 166.456 78.168 166.648 77.712 166.648C77.088 166.648 76.776 166.12 76.776 164.896V152.656H74.328C73.608 152.2 72.6 151.936 71.496 151.936C69.096 151.936 67.656 153.448 67.656 156.448V169H70.416V160.792H72.36V158.2H70.416V156.664C70.416 155.176 71.064 154.528 72.312 154.528C72.96 154.528 73.608 154.816 74.016 155.104V166.024ZM80.5515 163.6C80.5515 166.84 82.8555 169.264 86.4315 169.264C90.0075 169.264 92.3115 166.84 92.3115 163.6C92.3115 160.36 90.0075 157.936 86.4315 157.936C82.8555 157.936 80.5515 160.36 80.5515 163.6ZM83.5035 163.6C83.5035 161.728 84.7995 160.528 86.4315 160.528C88.1115 160.528 89.3835 161.776 89.3835 163.6C89.3835 165.472 88.1355 166.696 86.4315 166.696C84.7515 166.696 83.5035 165.4 83.5035 163.6ZM95.5401 160.984C96.3321 160.624 97.1241 160.24 98.3721 160.24C99.9801 160.24 100.46 161.224 100.388 163.024C99.8601 162.64 98.9001 162.328 97.9401 162.328C95.7561 162.328 94.0041 163.456 94.0041 165.832C94.0041 167.92 95.4201 169.144 97.3881 169.144C98.8521 169.144 100.004 168.568 100.58 167.752V169H102.98V162.424C102.98 159.568 101.852 157.936 98.6601 157.936C97.2441 157.936 95.7801 158.416 94.8441 158.968L95.5401 160.984ZM98.3001 166.816C97.4361 166.816 96.7641 166.36 96.7641 165.544C96.7641 164.632 97.5801 164.2 98.4921 164.2C99.2841 164.2 99.9081 164.368 100.388 164.728V165.832C100.052 166.312 99.4521 166.816 98.3001 166.816ZM105.569 164.896C105.569 167.656 106.481 169.24 108.929 169.24C110.321 169.24 111.473 168.712 112.121 168.184L111.281 166.048C110.897 166.336 110.369 166.672 109.625 166.672C108.713 166.672 108.329 165.904 108.329 164.728V160.792H111.809V158.2H108.329V155.2H105.569V164.896Z" fill="white"/>
    <rect width="68" height="52" transform="translate(56 196)" fill="#7833FF"/>
    <path d="M67.536 228.064C68.52 228.688 70.344 229.264 72.12 229.264C75.912 229.264 78.288 226.984 78.288 223.432C78.288 220.24 76.368 217.936 73.152 217.936C72 217.936 70.968 218.344 70.296 218.872V212.2H67.536V228.064ZM72.504 220.528C74.064 220.528 75.336 221.56 75.336 223.624C75.336 225.568 73.992 226.696 72.264 226.696C71.496 226.696 70.896 226.528 70.296 226.144V221.56C70.752 221.032 71.544 220.528 72.504 220.528ZM80.0124 223.6C80.0124 226.84 82.3164 229.264 85.8924 229.264C89.4684 229.264 91.7724 226.84 91.7724 223.6C91.7724 220.36 89.4684 217.936 85.8924 217.936C82.3164 217.936 80.0124 220.36 80.0124 223.6ZM82.9644 223.6C82.9644 221.728 84.2604 220.528 85.8924 220.528C87.5724 220.528 88.8444 221.776 88.8444 223.6C88.8444 225.472 87.5964 226.696 85.8924 226.696C84.2124 226.696 82.9644 225.4 82.9644 223.6ZM93.489 223.6C93.489 226.84 95.793 229.264 99.369 229.264C102.945 229.264 105.249 226.84 105.249 223.6C105.249 220.36 102.945 217.936 99.369 217.936C95.793 217.936 93.489 220.36 93.489 223.6ZM96.441 223.6C96.441 221.728 97.737 220.528 99.369 220.528C101.049 220.528 102.321 221.776 102.321 223.6C102.321 225.472 101.073 226.696 99.369 226.696C97.689 226.696 96.441 225.4 96.441 223.6ZM107.638 226.024C107.638 228.232 108.526 229.24 110.182 229.24C111.478 229.24 112.414 228.832 113.038 228.328L112.462 226.216C112.126 226.456 111.766 226.648 111.334 226.648C110.686 226.648 110.398 226.12 110.398 224.896V212.2H107.638V226.024Z" fill="white"/>
    <path d="M211.496 43.72H196.04V41.32H211.496V43.72ZM221.608 40.96H218.056V38.2H227.896V40.96H224.368V49H221.608V40.96ZM238.016 45.976L238.808 47.92C237.736 48.816 236.36 49.264 234.68 49.264C232.952 49.264 231.544 48.744 230.456 47.704C229.4 46.68 228.872 45.312 228.872 43.6C228.872 42 229.392 40.656 230.432 39.568C231.472 38.48 232.856 37.936 234.584 37.936C236.008 37.936 237.216 38.408 238.208 39.352C239.2 40.296 239.696 41.496 239.696 42.952C239.696 43.592 239.64 44.088 239.528 44.44H231.728C231.84 45.224 232.184 45.84 232.76 46.288C233.352 46.736 234.088 46.96 234.968 46.96C236.168 46.96 237.184 46.632 238.016 45.976ZM234.464 40.24C232.896 40.24 231.952 41.024 231.632 42.592H236.936C236.952 41.904 236.728 41.344 236.264 40.912C235.816 40.464 235.216 40.24 234.464 40.24ZM248.663 38.2H252.143L247.991 43.336L252.647 49H249.047L244.775 43.552L248.663 38.2ZM244.679 49H241.919V38.2H244.679V49ZM261.798 45.376L263.094 47.392C262.182 48.64 260.75 49.264 258.798 49.264C257.054 49.264 255.638 48.744 254.55 47.704C253.478 46.68 252.942 45.312 252.942 43.6C252.942 41.984 253.47 40.64 254.526 39.568C255.582 38.48 256.918 37.936 258.534 37.936C260.454 37.936 261.902 38.424 262.878 39.4L261.582 41.584C260.846 40.88 259.95 40.528 258.894 40.528C258.094 40.528 257.39 40.816 256.782 41.392C256.19 41.936 255.894 42.672 255.894 43.6C255.894 44.528 256.198 45.28 256.806 45.856C257.446 46.416 258.182 46.696 259.014 46.696C260.086 46.696 261.014 46.256 261.798 45.376ZM267.523 40.96H263.971V38.2H273.811V40.96H270.283V49H267.523V40.96Z" fill="#10162F"/>
    <path d="M211.496 104.72H196.04V102.32H211.496V104.72ZM228.352 110H219.184V99.2H221.944V107.432H226.384V99.2H229.144V107.432H230.944V112.52H228.352V110ZM241.25 106.976L242.042 108.92C240.97 109.816 239.594 110.264 237.914 110.264C236.186 110.264 234.778 109.744 233.69 108.704C232.634 107.68 232.106 106.312 232.106 104.6C232.106 103 232.626 101.656 233.666 100.568C234.706 99.48 236.09 98.936 237.818 98.936C239.242 98.936 240.45 99.408 241.442 100.352C242.434 101.296 242.93 102.496 242.93 103.952C242.93 104.592 242.874 105.088 242.762 105.44H234.962C235.074 106.224 235.418 106.84 235.994 107.288C236.586 107.736 237.322 107.96 238.202 107.96C239.402 107.96 240.418 107.632 241.25 106.976ZM237.698 101.24C236.13 101.24 235.186 102.024 234.866 103.592H240.17C240.186 102.904 239.962 102.344 239.498 101.912C239.05 101.464 238.45 101.24 237.698 101.24ZM254.666 110H251.906V101.96H249.05L248.978 103.112C248.77 105.064 248.466 106.552 248.066 107.576C247.682 108.6 247.186 109.296 246.578 109.664C245.986 110.016 245.162 110.2 244.106 110.216L243.866 107.528C244.218 107.544 244.546 107.448 244.85 107.24C245.202 106.984 245.514 106.448 245.786 105.632C246.058 104.816 246.234 103.792 246.314 102.56L246.482 99.2H254.666V110ZM258.675 108.68C257.603 107.608 257.067 106.248 257.067 104.6C257.067 102.952 257.603 101.6 258.675 100.544C259.747 99.472 261.171 98.936 262.947 98.936C264.707 98.936 266.123 99.472 267.195 100.544C268.283 101.6 268.827 102.952 268.827 104.6C268.827 106.232 268.283 107.592 267.195 108.68C266.107 109.736 264.691 110.264 262.947 110.264C261.171 110.264 259.747 109.736 258.675 108.68ZM260.859 102.392C260.299 102.968 260.019 103.704 260.019 104.6C260.019 105.496 260.291 106.24 260.835 106.832C261.395 107.408 262.099 107.696 262.947 107.696C263.811 107.696 264.515 107.408 265.059 106.832C265.619 106.256 265.899 105.512 265.899 104.6C265.899 103.704 265.619 102.968 265.059 102.392C264.499 101.816 263.795 101.528 262.947 101.528C262.115 101.528 261.419 101.816 260.859 102.392ZM279.688 106.976L280.48 108.92C279.408 109.816 278.032 110.264 276.352 110.264C274.624 110.264 273.216 109.744 272.128 108.704C271.072 107.68 270.544 106.312 270.544 104.6C270.544 103 271.064 101.656 272.104 100.568C273.144 99.48 274.528 98.936 276.256 98.936C277.68 98.936 278.888 99.408 279.88 100.352C280.872 101.296 281.368 102.496 281.368 103.952C281.368 104.592 281.312 105.088 281.2 105.44H273.4C273.512 106.224 273.856 106.84 274.432 107.288C275.024 107.736 275.76 107.96 276.64 107.96C277.84 107.96 278.856 107.632 279.688 106.976ZM276.136 101.24C274.568 101.24 273.624 102.024 273.304 103.592H278.608C278.624 102.904 278.4 102.344 277.936 101.912C277.488 101.464 276.888 101.24 276.136 101.24ZM294.629 99.2H297.389V110H294.629V106.28C293.829 106.696 292.933 106.904 291.941 106.904C290.597 106.904 289.605 106.552 288.965 105.848C288.341 105.144 288.029 104.08 288.029 102.656V99.2H290.981V102.32C290.981 103.648 291.565 104.312 292.733 104.312C293.485 104.312 294.117 104.168 294.629 103.88V99.2ZM308.266 103.16L303.226 110H300.466V99.2H303.226V106.04L308.266 99.2H311.026V110H308.266V103.16ZM322.29 106.376L323.586 108.392C322.674 109.64 321.242 110.264 319.29 110.264C317.546 110.264 316.13 109.744 315.042 108.704C313.97 107.68 313.434 106.312 313.434 104.6C313.434 102.984 313.962 101.64 315.018 100.568C316.074 99.48 317.41 98.936 319.026 98.936C320.946 98.936 322.394 99.424 323.37 100.4L322.074 102.584C321.338 101.88 320.442 101.528 319.386 101.528C318.586 101.528 317.882 101.816 317.274 102.392C316.682 102.936 316.386 103.672 316.386 104.6C316.386 105.528 316.69 106.28 317.298 106.856C317.938 107.416 318.674 107.696 319.506 107.696C320.578 107.696 321.506 107.256 322.29 106.376ZM335.548 110H332.788V101.96H329.932L329.86 103.112C329.652 105.064 329.348 106.552 328.948 107.576C328.564 108.6 328.068 109.296 327.46 109.664C326.868 110.016 326.044 110.2 324.988 110.216L324.748 107.528C325.1 107.544 325.428 107.448 325.732 107.24C326.084 106.984 326.396 106.448 326.668 105.632C326.94 104.816 327.116 103.792 327.196 102.56L327.364 99.2H335.548V110ZM339.558 108.68C338.486 107.608 337.95 106.248 337.95 104.6C337.95 102.952 338.486 101.6 339.558 100.544C340.63 99.472 342.054 98.936 343.83 98.936C345.59 98.936 347.006 99.472 348.078 100.544C349.166 101.6 349.71 102.952 349.71 104.6C349.71 106.232 349.166 107.592 348.078 108.68C346.99 109.736 345.574 110.264 343.83 110.264C342.054 110.264 340.63 109.736 339.558 108.68ZM341.742 102.392C341.182 102.968 340.902 103.704 340.902 104.6C340.902 105.496 341.174 106.24 341.718 106.832C342.278 107.408 342.982 107.696 343.83 107.696C344.694 107.696 345.398 107.408 345.942 106.832C346.502 106.256 346.782 105.512 346.782 104.6C346.782 103.704 346.502 102.968 345.942 102.392C345.382 101.816 344.678 101.528 343.83 101.528C342.998 101.528 342.302 101.816 341.742 102.392Z" fill="#10162F"/>
    <path d="M211.496 165.72H196.04V163.32H211.496V165.72ZM225.136 160.2H227.896V171H225.136V167.28C224.336 167.696 223.44 167.904 222.448 167.904C221.104 167.904 220.112 167.552 219.472 166.848C218.848 166.144 218.536 165.08 218.536 163.656V160.2H221.488V163.32C221.488 164.648 222.072 165.312 223.24 165.312C223.992 165.312 224.624 165.168 225.136 164.88V160.2ZM238.774 164.16L233.734 171H230.974V160.2H233.734V167.04L238.774 160.2H241.534V171H238.774V164.16ZM252.798 167.376L254.094 169.392C253.182 170.64 251.75 171.264 249.798 171.264C248.054 171.264 246.638 170.744 245.55 169.704C244.478 168.68 243.942 167.312 243.942 165.6C243.942 163.984 244.47 162.64 245.526 161.568C246.582 160.48 247.918 159.936 249.534 159.936C251.454 159.936 252.902 160.424 253.878 161.4L252.582 163.584C251.846 162.88 250.95 162.528 249.894 162.528C249.094 162.528 248.39 162.816 247.782 163.392C247.19 163.936 246.894 164.672 246.894 165.6C246.894 166.528 247.198 167.28 247.806 167.856C248.446 168.416 249.182 168.696 250.014 168.696C251.086 168.696 252.014 168.256 252.798 167.376ZM266.056 171H263.296V162.96H260.44L260.368 164.112C260.16 166.064 259.856 167.552 259.456 168.576C259.072 169.6 258.576 170.296 257.968 170.664C257.376 171.016 256.552 171.2 255.496 171.216L255.256 168.528C255.608 168.544 255.936 168.448 256.24 168.24C256.592 167.984 256.904 167.448 257.176 166.632C257.448 165.816 257.624 164.792 257.704 163.56L257.872 160.2H266.056V171ZM270.066 169.68C268.994 168.608 268.458 167.248 268.458 165.6C268.458 163.952 268.994 162.6 270.066 161.544C271.138 160.472 272.562 159.936 274.338 159.936C276.098 159.936 277.514 160.472 278.586 161.544C279.674 162.6 280.218 163.952 280.218 165.6C280.218 167.232 279.674 168.592 278.586 169.68C277.498 170.736 276.082 171.264 274.338 171.264C272.562 171.264 271.138 170.736 270.066 169.68ZM272.25 163.392C271.69 163.968 271.41 164.704 271.41 165.6C271.41 166.496 271.682 167.24 272.226 167.832C272.786 168.408 273.49 168.696 274.338 168.696C275.202 168.696 275.906 168.408 276.45 167.832C277.01 167.256 277.29 166.512 277.29 165.6C277.29 164.704 277.01 163.968 276.45 163.392C275.89 162.816 275.186 162.528 274.338 162.528C273.506 162.528 272.81 162.816 272.25 163.392ZM295.876 167.376L297.172 169.392C296.26 170.64 294.828 171.264 292.876 171.264C291.132 171.264 289.716 170.744 288.628 169.704C287.556 168.68 287.02 167.312 287.02 165.6C287.02 163.984 287.548 162.64 288.604 161.568C289.66 160.48 290.996 159.936 292.612 159.936C294.532 159.936 295.98 160.424 296.956 161.4L295.66 163.584C294.924 162.88 294.028 162.528 292.972 162.528C292.172 162.528 291.468 162.816 290.86 163.392C290.268 163.936 289.972 164.672 289.972 165.6C289.972 166.528 290.276 167.28 290.884 167.856C291.524 168.416 292.26 168.696 293.092 168.696C294.164 168.696 295.092 168.256 295.876 167.376ZM306.898 162.96H303.346V160.2H313.186V162.96H309.658V171H306.898V162.96ZM315.769 169.68C314.697 168.608 314.161 167.248 314.161 165.6C314.161 163.952 314.697 162.6 315.769 161.544C316.841 160.472 318.265 159.936 320.041 159.936C321.801 159.936 323.217 160.472 324.289 161.544C325.377 162.6 325.921 163.952 325.921 165.6C325.921 167.232 325.377 168.592 324.289 169.68C323.201 170.736 321.785 171.264 320.041 171.264C318.265 171.264 316.841 170.736 315.769 169.68ZM317.953 163.392C317.393 163.968 317.113 164.704 317.113 165.6C317.113 166.496 317.385 167.24 317.929 167.832C318.489 168.408 319.193 168.696 320.041 168.696C320.905 168.696 321.609 168.408 322.153 167.832C322.713 167.256 322.993 166.512 322.993 165.6C322.993 164.704 322.713 163.968 322.153 163.392C321.593 162.816 320.889 162.528 320.041 162.528C319.209 162.528 318.513 162.816 317.953 163.392ZM334.261 160.2H337.021V171H334.261V167.28C333.461 167.696 332.565 167.904 331.573 167.904C330.229 167.904 329.237 167.552 328.597 166.848C327.973 166.144 327.661 165.08 327.661 163.656V160.2H330.613V163.32C330.613 164.648 331.197 165.312 332.365 165.312C333.117 165.312 333.749 165.168 334.261 164.88V160.2ZM346.843 160.2H350.323L346.171 165.336L350.827 171H347.227L342.955 165.552L346.843 160.2ZM342.859 171H340.099V160.2H342.859V171ZM352.73 169.68C351.658 168.608 351.122 167.248 351.122 165.6C351.122 163.952 351.658 162.6 352.73 161.544C353.802 160.472 355.226 159.936 357.002 159.936C358.762 159.936 360.178 160.472 361.25 161.544C362.338 162.6 362.882 163.952 362.882 165.6C362.882 167.232 362.338 168.592 361.25 169.68C360.162 170.736 358.746 171.264 357.002 171.264C355.226 171.264 353.802 170.736 352.73 169.68ZM354.914 163.392C354.354 163.968 354.074 164.704 354.074 165.6C354.074 166.496 354.346 167.24 354.89 167.832C355.45 168.408 356.154 168.696 357.002 168.696C357.866 168.696 358.57 168.408 359.114 167.832C359.674 167.256 359.954 166.512 359.954 165.6C359.954 164.704 359.674 163.968 359.114 163.392C358.554 162.816 357.85 162.528 357.002 162.528C356.17 162.528 355.474 162.816 354.914 163.392ZM373.07 164.16L368.03 171H365.27V160.2H368.03V167.04L373.07 160.2H375.83V171H373.07V164.16ZM366.878 154.8H369.398C369.398 155.328 369.502 155.752 369.71 156.072C369.918 156.392 370.23 156.552 370.646 156.552C371.014 156.552 371.294 156.392 371.486 156.072C371.694 155.736 371.798 155.312 371.798 154.8H374.318C374.318 155.92 373.99 156.824 373.334 157.512C372.678 158.184 371.782 158.52 370.646 158.52C369.398 158.52 368.454 158.192 367.814 157.536C367.19 156.864 366.878 155.952 366.878 154.8Z" fill="#10162F"/>
    <path d="M211.496 226.72H196.04V224.32H211.496V226.72ZM220.456 234.52H217.888V229.432H219.256C220.104 228.296 220.608 226.416 220.768 223.792L220.936 221.2H228.904V229.432H230.704V234.52H228.112V232H220.456V234.52ZM223.504 223.792L223.432 224.896C223.24 226.976 222.808 228.488 222.136 229.432H226.144V223.792H223.504ZM233.36 223.984L232.664 221.968C233.832 221.28 235.104 220.936 236.48 220.936C237.984 220.936 239.08 221.304 239.768 222.04C240.456 222.776 240.8 223.904 240.8 225.424V232H238.4V230.752C237.76 231.68 236.696 232.144 235.208 232.144C234.184 232.144 233.36 231.848 232.736 231.256C232.128 230.648 231.824 229.84 231.824 228.832C231.824 227.712 232.184 226.848 232.904 226.24C233.624 225.632 234.576 225.328 235.76 225.328C236.736 225.328 237.552 225.56 238.208 226.024C238.24 225.064 238.096 224.36 237.776 223.912C237.472 223.464 236.944 223.24 236.192 223.24C235.36 223.24 234.416 223.488 233.36 223.984ZM236.12 229.816C237.048 229.816 237.744 229.488 238.208 228.832V227.728C237.76 227.376 237.128 227.2 236.312 227.2C235.8 227.2 235.384 227.32 235.064 227.56C234.744 227.8 234.584 228.128 234.584 228.544C234.584 228.928 234.728 229.24 235.016 229.48C235.304 229.704 235.672 229.816 236.12 229.816ZM248.596 236.992L246.46 236.2L254.38 214.936L256.516 215.728L248.596 236.992ZM272.675 232H269.915V227.872H265.187V232H262.427V221.2H265.187V225.28H269.915V221.2H272.675V232ZM284.211 228.976L285.003 230.92C283.931 231.816 282.555 232.264 280.875 232.264C279.147 232.264 277.739 231.744 276.651 230.704C275.595 229.68 275.067 228.312 275.067 226.6C275.067 225 275.587 223.656 276.627 222.568C277.667 221.48 279.051 220.936 280.779 220.936C282.203 220.936 283.411 221.408 284.403 222.352C285.395 223.296 285.891 224.496 285.891 225.952C285.891 226.592 285.835 227.088 285.723 227.44H277.923C278.035 228.224 278.379 228.84 278.955 229.288C279.547 229.736 280.283 229.96 281.163 229.96C282.363 229.96 283.379 229.632 284.211 228.976ZM280.659 223.24C279.091 223.24 278.147 224.024 277.827 225.592H283.131C283.147 224.904 282.923 224.344 282.459 223.912C282.011 223.464 281.411 223.24 280.659 223.24ZM290.421 223.96H286.869V221.2H296.709V223.96H293.181V232H290.421V223.96Z" fill="#10162F"/>
    <rect x="1" y="1" width="598" height="265" stroke="#EDF1F5" stroke-width="2"/>
</svg>
