<svg width="96" height="96" viewBox="0 0 96 96" fill="none" xmlns="http://www.w3.org/2000/svg">
    <g clip-path="url(#clip0)">
        <path d="M0 34.5C0 22.4239 0 16.3858 2.35017 11.7733C4.41744 7.71608 7.71608 4.41744 11.7733 2.35017C16.3858 0 22.4239 0 34.5 0H61.5C73.5761 0 79.6142 0 84.2267 2.35017C88.2839 4.41744 91.5826 7.71608 93.6498 11.7733C96 16.3858 96 22.4239 96 34.5V61.5C96 73.5761 96 79.6142 93.6498 84.2267C91.5826 88.2839 88.2839 91.5826 84.2267 93.6498C79.6142 96 73.5761 96 61.5 96H34.5C22.4239 96 16.3858 96 11.7733 93.6498C7.71608 91.5826 4.41744 88.2839 2.35017 84.2267C0 79.6142 0 73.5761 0 61.5V34.5Z" fill="#2A5CFF"/>
        <path opacity="0.5" fill-rule="evenodd" clip-rule="evenodd" d="M21.6562 76.5968L74.25 58.5V82.252L21.6562 100.349V100.403L-30.9375 118.5V94.748L21.6562 76.6512V76.5968Z" fill="url(#paint0_linear)"/>
        <path d="M21.6562 34.7843L74.25 58.5363V82.2883L21.6562 58.5363V34.7843Z" fill="#FCCE16"/>
        <g style="mix-blend-mode:multiply" opacity="0.6">
            <path d="M21.6562 34.7843L74.25 58.5363V82.2883L21.6562 58.5363V34.7843Z" fill="url(#paint1_linear)"/>
        </g>
        <path d="M74.25 16.6875L21.6562 34.7843V58.5363L74.25 40.4395L66.0499 31.9567L74.25 16.6875Z" fill="white"/>
    </g>
    <defs>
        <linearGradient id="paint0_linear" x1="58.6406" y1="77.2031" x2="39" y2="110.156" gradientUnits="userSpaceOnUse">
            <stop/>
            <stop offset="0.776042" stop-color="#5A80FF" stop-opacity="0"/>
        </linearGradient>
        <linearGradient id="paint1_linear" x1="37.5" y1="53.0625" x2="45.7031" y2="73.5937" gradientUnits="userSpaceOnUse">
            <stop stop-color="#2A4CC0"/>
            <stop offset="0.533144" stop-color="#5A80FF" stop-opacity="0"/>
        </linearGradient>
        <clipPath id="clip0">
            <path d="M0 34.5C0 22.4239 0 16.3858 2.35017 11.7733C4.41744 7.71608 7.71608 4.41744 11.7733 2.35017C16.3858 0 22.4239 0 34.5 0H61.5C73.5761 0 79.6142 0 84.2267 2.35017C88.2839 4.41744 91.5826 7.71608 93.6498 11.7733C96 16.3858 96 22.4239 96 34.5V61.5C96 73.5761 96 79.6142 93.6498 84.2267C91.5826 88.2839 88.2839 91.5826 84.2267 93.6498C79.6142 96 73.5761 96 61.5 96H34.5C22.4239 96 16.3858 96 11.7733 93.6498C7.71608 91.5826 4.41744 88.2839 2.35017 84.2267C0 79.6142 0 73.5761 0 61.5V34.5Z" fill="white"/>
        </clipPath>
    </defs>
</svg>
