<svg width="140" height="140" viewBox="0 0 140 140" fill="none" xmlns="http://www.w3.org/2000/svg">
    <path d="M103.733 90.5287C103.334 90.9281 102.158 91.7029 99.9734 92.8138C97.8941 93.8711 95.1678 95.1041 91.9443 96.4647C85.503 99.1835 77.2069 102.358 68.4107 105.58C50.8256 112.023 31.3546 118.62 20.9754 122.089C19.8216 122.475 18.7537 121.407 19.1395 120.254C22.6092 109.874 29.2058 90.4034 35.6487 72.8183C38.8714 64.0221 42.0455 55.726 44.7643 49.2847C46.1249 46.0611 47.3578 43.3348 48.4152 41.2555C49.526 39.071 50.3009 37.895 50.7002 37.4957C53.086 35.1099 58.0688 34.5954 65.3301 37.3497C72.3508 40.0127 80.5572 45.4323 88.1769 53.052C95.7966 60.6718 101.216 68.8781 103.879 75.8988C106.634 83.1601 106.119 88.1429 103.733 90.5287Z" stroke="#2D2E35" stroke-width="5"/>
    <path d="M103.733 90.5287C101.347 92.9145 96.3647 93.429 89.1034 90.6747C82.0827 88.0117 73.8763 82.5921 66.2566 74.9723C58.6369 67.3526 53.2173 59.1462 50.5542 52.1256C47.8 44.8643 48.3145 39.8815 50.7002 37.4957C53.086 35.1099 58.0688 34.5954 65.3301 37.3497C72.3508 40.0127 80.5572 45.4323 88.1769 53.052C95.7966 60.6717 101.216 68.8781 103.879 75.8988C106.634 83.1601 106.119 88.1429 103.733 90.5287Z" stroke="#2D2E35" stroke-width="5"/>
    <circle cx="99" cy="31" r="4" fill="#FDDE4F"/>
    <circle cx="71.5" cy="57.5" r="2.5" fill="#C1FCF0"/>
    <circle cx="124.778" cy="22.6633" r="3.28" transform="rotate(-179 124.778 22.6633)" fill="#C1FCF0"/>
    <circle cx="59.0503" cy="87.0502" r="3.16" transform="rotate(20 59.0503 87.0502)" fill="#F9B2FF"/>
    <circle cx="62.537" cy="18.5372" r="4.32" transform="rotate(-160 62.537 18.5372)" fill="#C1FCF0"/>
    <ellipse cx="114.985" cy="60.9852" rx="3.36" ry="3.36" transform="rotate(12 114.985 60.9852)" fill="#FDDE4F"/>
    <ellipse cx="40.5823" cy="83.5825" rx="4.68" ry="4.68" transform="rotate(129 40.5823 83.5825)" fill="#FDDE4F"/>
    <circle cx="106.975" cy="109.975" r="3.52" transform="rotate(137 106.975 109.975)" fill="#F9BFFF"/>
    <ellipse cx="24.2619" cy="60.2623" rx="3.12" ry="3.12" transform="rotate(150 24.2619 60.2623)" fill="#8BE371"/>
    <ellipse cx="116.463" cy="39.463" rx="2.92" ry="2.92" transform="rotate(-12 116.463 39.463)" fill="#F9BFFF"/>
    <ellipse cx="37.5952" cy="33.5951" rx="4.16" ry="4.16" transform="rotate(-63 37.5952 33.5951)" fill="#F9BFFF"/>
    <path d="M99.8105 81.9852C105.656 72.4593 116.879 68.7545 120.923 78.4412C124.968 88.1279 115.192 90.873 112.301 89.6199C109.409 88.3668 113.695 75.3086 128.618 72.5733" stroke="#FFE173" stroke-width="4" stroke-linecap="round"/>
    <path d="M79.9621 47.242C94.4953 33.9741 84.0483 8.83233 84.0483 8.83233C81.0002 1.49972 74.0965 13.9997 84.0483 25.4997C92.0098 34.6997 93.3335 20.3332 93.0001 12" stroke="#F9B2FF" stroke-width="4" stroke-linecap="round"/>
    <path d="M58 55C64 40 71.2 8.6 52 3" stroke="#FFA492" stroke-width="4" stroke-linecap="round"/>
    <path d="M77 69C82.8333 62 100.8 48 126 48" stroke="#8BE371" stroke-width="4" stroke-linecap="round"/>
</svg>
