<svg width="600" height="600" viewBox="0 0 600 600" fill="none" xmlns="http://www.w3.org/2000/svg">
    <rect width="180" height="180" transform="matrix(0.866025 0.5 -0.866025 0.5 295.885 195)" fill="#73FFE5"/>
    <rect width="180" height="180" transform="matrix(0.866025 0.5 -0.866025 0.5 295.885 195)" fill="#3C4257"/>
    <path d="M140 285L295.885 375L295.885 555L140 465L140 375L140 285Z" fill="#FFE173"/>
    <path d="M296 375L451.885 285L451.885 465L296 555L296 465L296 375Z" fill="#CEC0FF"/>
    <path d="M114.5 127V192.213C114.5 198.878 114.5 202.211 115.463 205.201C116.314 207.846 117.708 210.284 119.554 212.361C121.641 214.708 124.513 216.4 130.255 219.783L219.574 272.411C224.609 275.378 227.127 276.861 229.772 277.566C233.19 278.477 236.789 278.465 240.202 277.53C242.842 276.808 245.349 275.307 250.364 272.307L262.963 264.768C265.36 263.334 266.559 262.616 267.432 262.202C279.954 256.266 294.572 264.554 295.907 278.348C296 279.309 296 280.706 296 283.5V283.5" stroke="#B8C0CD" stroke-width="2" stroke-linecap="round"/>
    <path d="M477.5 127V192.213C477.5 198.878 477.5 202.211 476.537 205.201C475.686 207.846 474.292 210.284 472.446 212.361C470.359 214.708 467.487 216.4 461.745 219.783L372.426 272.411C367.391 275.378 364.873 276.861 362.228 277.566C358.81 278.477 355.211 278.465 351.798 277.53C349.158 276.808 346.651 275.307 341.636 272.307L329.037 264.768C326.64 263.334 325.441 262.616 324.568 262.202C312.046 256.266 297.428 264.554 296.093 278.348C296 279.309 296 280.706 296 283.5V283.5" stroke="#B8C0CD" stroke-width="2" stroke-linecap="round"/>
    <path d="M295 116C295 115.448 295.448 115 296 115C296.552 115 297 115.448 297 116H295ZM296.707 294.207C296.317 294.598 295.683 294.598 295.293 294.207L288.929 287.843C288.538 287.453 288.538 286.819 288.929 286.429C289.319 286.038 289.953 286.038 290.343 286.429L296 292.086L301.657 286.429C302.047 286.038 302.681 286.038 303.071 286.429C303.462 286.819 303.462 287.453 303.071 287.843L296.707 294.207ZM297 116V293.5H295V116H297Z" fill="#B8C0CD"/>
    <rect width="60" height="113.238" transform="matrix(0.866025 0.5 -0.866025 0.5 160.067 55)" fill="#73FFE5"/>
    <rect width="60" height="113.238" transform="matrix(0.866025 0.5 -0.866025 0.5 160.067 55)" fill="#3C4257"/>
    <path d="M99.0522 122.989L102.807 120.821C104.685 119.737 104.824 118.323 103.099 117.327L103.086 117.32C101.399 116.346 98.938 116.456 97.0288 117.558L95.2527 118.583L93.3943 117.51L97.5616 115.104L95.9822 114.192L89.8993 117.704L99.0522 122.989ZM99.4391 121L96.7116 119.426L98.069 118.642C99.141 118.023 100.251 117.939 101.133 118.448L101.145 118.455C102.021 118.96 101.868 119.598 100.803 120.213L99.4391 121ZM107.19 118.29L109.004 117.243L107.38 113.215L107.45 113.174L111.751 115.657L113.571 114.606L106.772 110.68L104.957 111.728L106.518 115.727L106.454 115.763L102.211 113.313L100.391 114.365L107.19 118.29ZM118.259 112.061C120.326 110.867 120.307 109.377 118.195 108.157L118.183 108.15C116.242 107.029 113.819 107 111.992 108.055C110.875 108.699 110.571 109.417 110.964 110.127L110.926 110.149L110.85 110.091C109.423 108.989 109.252 108.201 110.856 107.216L111.58 106.769C112.341 106.301 112.861 105.868 112.962 105.634L111.529 104.806C111.307 105.118 110.761 105.542 110.019 106L109.245 106.469C106.848 107.948 107.032 109.534 110.825 111.724L110.837 111.731C113.463 113.248 116.064 113.328 118.259 112.061ZM116.774 111.241C115.823 111.79 114.573 111.713 113.349 111.006L113.337 110.999C112.176 110.329 112.068 109.615 113.013 109.069C113.952 108.527 115.182 108.593 116.343 109.263L116.356 109.271C117.58 109.977 117.713 110.699 116.774 111.241ZM121.697 106.275L119.591 104.898L121.462 103.818L126.86 106.934L128.712 105.865L121.912 101.939L116.597 105.008L119.889 107.143C121.037 107.886 121.367 108.333 120.707 108.714C120.536 108.813 120.39 108.875 120.295 108.908L121.849 109.805C121.988 109.761 122.28 109.651 122.623 109.454C124.291 108.49 123.542 107.48 121.697 106.275ZM130.05 105.092L131.864 104.045L130.241 100.016L130.31 99.9761L134.611 102.459L136.431 101.408L129.632 97.4822L127.817 98.5295L129.378 102.529L129.314 102.565L125.071 100.115L123.251 101.166L130.05 105.092ZM141.005 98.9287C143.06 97.7422 143.053 96.2224 140.833 94.9407L140.821 94.9333C138.62 93.6626 135.962 93.6663 133.926 94.8418C131.89 96.0173 131.896 97.5591 134.084 98.8225L134.097 98.8298C136.311 100.108 138.943 100.119 141.005 98.9287ZM139.558 98.0864C138.645 98.6138 137.313 98.5112 135.981 97.7422L135.968 97.7349C134.655 96.9768 134.484 96.1968 135.378 95.6804C136.279 95.1604 137.624 95.2629 138.937 96.021L138.949 96.0283C140.275 96.7937 140.465 97.5627 139.558 98.0864ZM143.821 89.29L137.922 92.6958L139.324 93.5051L141.347 92.3369L146.745 95.4534L148.597 94.384L143.199 91.2676L145.223 90.0994L143.821 89.29ZM154.661 91.0442C156.596 89.9272 156.386 88.7224 155.6 88.0193L155.543 87.9717L153.843 88.9531L153.868 88.9824C154.122 89.2754 154.077 89.7844 153.316 90.2239C152.371 90.7695 151.147 90.7439 150.037 90.1323L154.718 87.4297L154.147 87.1001C152.092 85.9136 149.498 85.8513 147.506 87.0012C145.508 88.1548 145.616 89.6892 147.779 90.938L147.785 90.9417C149.961 92.1978 152.574 92.249 154.661 91.0442ZM148.921 87.7812C149.682 87.3418 150.722 87.3052 151.775 87.7812L148.895 89.4438C148.096 88.8433 148.153 88.2244 148.921 87.7812ZM157.966 85.6792L162.945 86.1003L165.171 84.8149L158.777 84.2949L158.213 80.9807L156.107 82.1965L156.691 84.9431L156.469 85.0713L153.798 83.5295L151.946 84.5989L158.746 88.5247L160.598 87.4553L157.744 85.8074L157.966 85.6792ZM168.006 83.3025C168.895 82.7898 169.193 82.127 168.888 81.4971L168.926 81.4751L169.941 82.061L171.793 80.9917L167.131 78.3C165.761 77.509 163.712 77.6445 161.962 78.6553C160.16 79.6953 159.983 80.8379 161.137 81.6216L161.207 81.6692L162.9 80.6914L162.856 80.6511C162.513 80.3435 162.602 79.9187 163.294 79.5195C164.023 79.0984 164.791 79.0874 165.393 79.4353L165.812 79.677L164.232 80.7061C162.647 81.7461 162.412 82.7166 163.649 83.4307L163.662 83.438C164.86 84.1301 166.643 84.0898 168.006 83.3025ZM165.4 82.3247L165.387 82.3174C164.905 82.0391 164.981 81.6436 165.653 81.2041L166.966 80.3435L167.455 80.6255C168.165 81.0356 168.083 81.6985 167.252 82.1782C166.617 82.5444 165.901 82.614 165.4 82.3247ZM177.94 77.4431L179.836 76.3481L170.683 71.0637L168.78 72.1624L168.057 74.4768L169.757 75.4583L170.506 73.1951L170.544 73.1731L177.94 77.4431Z" fill="white"/>
    <path d="M62 111.619L113.962 141.619L113.962 201.619L62 171.619L62 141.619L62 111.619Z" fill="#CEC0FF"/>
    <path d="M114 141.619L212 85.0388L212 145.039L114 201.619L114 171.619L114 141.619Z" fill="#FDDE4F"/>
    <rect width="60" height="113.238" transform="matrix(0.866025 0.5 -0.866025 0.5 319.067 55)" fill="#73FFE5"/>
    <rect width="60" height="113.238" transform="matrix(0.866025 0.5 -0.866025 0.5 319.067 55)" fill="#3C4257"/>
    <path d="M257.253 123.45L261.008 121.282C262.886 120.198 263.025 118.785 261.3 117.789L261.287 117.781C259.6 116.807 257.139 116.917 255.23 118.019L253.454 119.045L251.595 117.972L255.763 115.566L254.183 114.654L248.1 118.166L257.253 123.45ZM257.64 121.462L254.913 119.887L256.27 119.103C257.342 118.484 258.452 118.4 259.334 118.909L259.346 118.917C260.222 119.422 260.07 120.059 259.004 120.674L257.64 121.462ZM265.391 118.752L267.205 117.704L265.582 113.676L265.651 113.636L269.952 116.119L271.772 115.068L264.973 111.142L263.159 112.189L264.719 116.188L264.656 116.225L260.412 113.775L258.592 114.826L265.391 118.752ZM276.46 112.522C278.528 111.329 278.509 109.838 276.396 108.619L276.384 108.611C274.443 107.491 272.02 107.461 270.193 108.516C269.077 109.161 268.772 109.878 269.165 110.589L269.127 110.611L269.051 110.552C267.624 109.45 267.453 108.663 269.058 107.677L269.781 107.231C270.542 106.762 271.062 106.33 271.163 106.095L269.73 105.268C269.508 105.579 268.962 106.004 268.22 106.462L267.446 106.93C265.049 108.41 265.233 109.996 269.026 112.186L269.038 112.193C271.664 113.709 274.265 113.79 276.46 112.522ZM274.975 111.702C274.024 112.251 272.774 112.175 271.55 111.468L271.538 111.46C270.377 110.79 270.269 110.076 271.214 109.531C272.153 108.989 273.383 109.054 274.544 109.725L274.557 109.732C275.781 110.439 275.914 111.16 274.975 111.702ZM279.898 106.736L277.792 105.359L279.663 104.279L285.061 107.396L286.913 106.326L280.113 102.4L274.798 105.469L278.09 107.604C279.238 108.348 279.568 108.794 278.908 109.175C278.737 109.274 278.591 109.336 278.496 109.369L280.05 110.267C280.189 110.223 280.481 110.113 280.824 109.915C282.492 108.952 281.743 107.941 279.898 106.736ZM288.251 105.553L290.065 104.506L288.442 100.478L288.511 100.438L292.812 102.92L294.632 101.869L287.833 97.9436L286.019 98.991L287.579 102.99L287.516 103.027L283.272 100.577L281.452 101.628L288.251 105.553ZM299.206 99.3901C301.261 98.2036 301.254 96.6838 299.034 95.4021L299.022 95.3948C296.821 94.124 294.163 94.1277 292.127 95.3032C290.091 96.4788 290.097 98.0205 292.285 99.2839L292.298 99.2913C294.512 100.569 297.144 100.58 299.206 99.3901ZM297.759 98.5479C296.846 99.0752 295.514 98.9727 294.182 98.2036L294.169 98.1963C292.856 97.4382 292.685 96.6582 293.579 96.1418C294.48 95.6218 295.825 95.7244 297.138 96.4824L297.15 96.4897C298.476 97.2551 298.666 98.0242 297.759 98.5479ZM302.022 89.7515L296.123 93.1572L297.525 93.9666L299.548 92.7983L304.946 95.9148L306.798 94.8455L301.4 91.729L303.424 90.5608L302.022 89.7515ZM312.862 91.5056C314.797 90.3887 314.587 89.1838 313.801 88.4807L313.744 88.4331L312.044 89.4146L312.069 89.4438C312.323 89.7368 312.278 90.2458 311.517 90.6853C310.572 91.231 309.348 91.2053 308.238 90.5938L312.919 87.8911L312.348 87.5615C310.293 86.375 307.699 86.3127 305.707 87.4626C303.709 88.6162 303.817 90.1506 305.98 91.3994L305.986 91.4031C308.162 92.6592 310.775 92.7104 312.862 91.5056ZM307.122 88.2427C307.883 87.8032 308.923 87.7666 309.976 88.2427L307.096 89.9053C306.297 89.3047 306.354 88.6858 307.122 88.2427ZM316.167 86.1406L321.146 86.5618L323.372 85.2764L316.979 84.7563L316.414 81.4421L314.308 82.658L314.892 85.4045L314.67 85.5327L311.999 83.991L310.147 85.0603L316.947 88.9861L318.799 87.9167L315.945 86.2688L316.167 86.1406ZM326.208 83.7639C327.096 83.2512 327.394 82.5884 327.089 81.9585L327.127 81.9365L328.142 82.5225L329.994 81.4531L325.332 78.7615C323.962 77.9705 321.913 78.106 320.163 79.1167C318.361 80.1567 318.184 81.2993 319.338 82.083L319.408 82.1306L321.102 81.1528L321.057 81.1125C320.715 80.8049 320.803 80.3801 321.495 79.981C322.224 79.5598 322.992 79.5488 323.594 79.8967L324.013 80.1384L322.434 81.1675C320.848 82.2075 320.613 83.178 321.85 83.8921L321.863 83.8994C323.061 84.5916 324.844 84.5513 326.208 83.7639ZM323.601 82.7861L323.588 82.7788C323.106 82.5005 323.182 82.105 323.854 81.6655L325.167 80.8049L325.656 81.0869C326.366 81.4971 326.284 82.1599 325.453 82.6396C324.818 83.0059 324.102 83.0754 323.601 82.7861ZM333.851 79.2266L340.505 75.385L338.982 74.5061L334.834 76.9011L334.758 76.8572L334.923 74.7405C335.05 72.99 334.853 72.2686 333.743 71.6277L333.73 71.6204C332.17 70.7195 329.734 70.8513 327.8 71.9683C325.865 73.0852 325.643 74.6123 327.368 75.6084L327.419 75.6377L329.195 74.6123L329.144 74.5757C328.345 74.085 328.364 73.3635 329.303 72.8215C330.115 72.3528 331.219 72.3308 331.973 72.7593L331.986 72.7666C332.62 73.1328 332.823 73.5356 332.747 74.854L332.538 78.4685L333.851 79.2266Z" fill="white"/>
    <path d="M221 111.619L272.962 141.619L272.962 201.619L221 171.619L221 141.619L221 111.619Z" fill="#CEC0FF"/>
    <path d="M273 141.619L371 85.0388L371 145.039L273 201.619L273 171.619L273 141.619Z" fill="#FDDE4F"/>
    <rect width="60" height="113.238" transform="matrix(0.866025 0.5 -0.866025 0.5 485.067 55)" fill="#73FFE5"/>
    <rect width="60" height="113.238" transform="matrix(0.866025 0.5 -0.866025 0.5 485.067 55)" fill="#3C4257"/>
    <path d="M423.515 123.299L427.27 121.131C429.148 120.047 429.287 118.634 427.562 117.637L427.549 117.63C425.862 116.656 423.401 116.766 421.492 117.868L419.716 118.894L417.857 117.821L422.024 115.415L420.445 114.503L414.362 118.015L423.515 123.299ZM423.902 121.311L421.174 119.736L422.532 118.952C423.604 118.333 424.714 118.249 425.596 118.758L425.608 118.765C426.484 119.271 426.331 119.908 425.266 120.523L423.902 121.311ZM431.653 118.601L433.467 117.553L431.843 113.525L431.913 113.485L436.214 115.968L438.034 114.917L431.234 110.991L429.42 112.038L430.981 116.037L430.917 116.074L426.674 113.624L424.853 114.675L431.653 118.601ZM442.722 112.371C444.789 111.177 444.77 109.687 442.658 108.468L442.645 108.46C440.704 107.34 438.281 107.31 436.455 108.365C435.338 109.01 435.034 109.727 435.427 110.438L435.389 110.46L435.313 110.401C433.886 109.299 433.714 108.511 435.319 107.526L436.042 107.08C436.804 106.611 437.324 106.179 437.425 105.944L435.992 105.117C435.77 105.428 435.224 105.853 434.482 106.311L433.708 106.779C431.311 108.259 431.494 109.844 435.288 112.034L435.3 112.042C437.926 113.558 440.527 113.638 442.722 112.371ZM441.237 111.551C440.286 112.1 439.036 112.023 437.812 111.317L437.799 111.309C436.639 110.639 436.531 109.925 437.476 109.379C438.415 108.837 439.645 108.903 440.806 109.573L440.819 109.581C442.043 110.288 442.176 111.009 441.237 111.551ZM446.159 106.585L444.054 105.208L445.925 104.128L451.323 107.244L453.175 106.175L446.375 102.249L441.06 105.318L444.352 107.453C445.5 108.197 445.83 108.643 445.17 109.024C444.999 109.123 444.853 109.185 444.758 109.218L446.312 110.115C446.451 110.072 446.743 109.962 447.085 109.764C448.754 108.801 448.005 107.79 446.159 106.585ZM454.513 105.402L456.327 104.355L454.703 100.327L454.773 100.286L459.074 102.769L460.894 101.718L454.094 97.7925L452.28 98.8398L453.841 102.839L453.777 102.875L449.534 100.426L447.713 101.477L454.513 105.402ZM465.467 99.239C467.522 98.0525 467.516 96.5327 465.296 95.251L465.283 95.2437C463.082 93.9729 460.425 93.9766 458.389 95.1521C456.353 96.3276 456.359 97.8694 458.547 99.1328L458.56 99.1401C460.774 100.418 463.406 100.429 465.467 99.239ZM464.021 98.3967C463.108 98.9241 461.776 98.8215 460.444 98.0525L460.431 98.0452C459.118 97.2871 458.947 96.5071 459.841 95.9907C460.742 95.4707 462.087 95.5732 463.4 96.3313L463.412 96.3386C464.738 97.104 464.928 97.873 464.021 98.3967ZM468.284 89.6003L462.385 93.0061L463.786 93.8154L465.81 92.6472L471.208 95.7637L473.06 94.6943L467.662 91.5779L469.685 90.4097L468.284 89.6003ZM479.124 91.3545C481.058 90.2375 480.849 89.0327 480.063 88.3296L480.005 88.282L478.306 89.2634L478.331 89.2927C478.585 89.5857 478.54 90.0947 477.779 90.5342C476.834 91.0798 475.61 91.0542 474.5 90.4426L479.181 87.74L478.61 87.4104C476.555 86.2239 473.961 86.1616 471.969 87.3115C469.971 88.4651 470.079 89.9995 472.242 91.2483L472.248 91.252C474.424 92.5081 477.037 92.5593 479.124 91.3545ZM473.383 88.0916C474.145 87.6521 475.185 87.6155 476.238 88.0916L473.358 89.7542C472.559 89.1536 472.616 88.5347 473.383 88.0916ZM482.428 85.9895L487.408 86.4106L489.634 85.1252L483.24 84.6052L482.676 81.291L480.57 82.5068L481.153 85.2534L480.931 85.3816L478.261 83.8398L476.409 84.9092L483.209 88.835L485.061 87.7656L482.206 86.1177L482.428 85.9895ZM492.469 83.6128C493.357 83.1001 493.655 82.4373 493.351 81.8074L493.389 81.7854L494.404 82.3713L496.256 81.302L491.594 78.6104C490.224 77.8193 488.175 77.9548 486.424 78.9656C484.623 80.0056 484.445 81.1482 485.6 81.9319L485.67 81.9795L487.363 81.0017L487.319 80.9614C486.976 80.6538 487.065 80.229 487.757 79.8298C488.486 79.4087 489.253 79.3977 489.856 79.7456L490.275 79.9873L488.695 81.0164C487.11 82.0564 486.875 83.0269 488.112 83.741L488.124 83.7483C489.323 84.4404 491.106 84.4001 492.469 83.6128ZM489.862 82.635L489.85 82.6277C489.368 82.3494 489.444 81.9539 490.116 81.5144L491.429 80.6538L491.917 80.9358C492.628 81.3459 492.545 82.0088 491.715 82.4885C491.08 82.8547 490.363 82.9243 489.862 82.635ZM503.677 77.2004C505.815 75.9663 506.132 74.5088 504.496 73.564L504.483 73.5566C503.24 72.8389 501.565 72.8975 500.081 73.6079L500.043 73.5859C500.893 72.8389 500.988 71.927 499.846 71.2678L499.834 71.2605C498.394 70.4292 496.161 70.605 494.188 71.7439C492.266 72.8535 492.019 74.1975 493.478 75.1863L493.548 75.2339L495.305 74.2195L495.254 74.1829C494.62 73.7288 494.765 73.1099 495.66 72.5935C496.561 72.0735 497.531 72.0259 498.273 72.4543L498.286 72.4617C499.028 72.8901 498.914 73.542 497.956 74.095L496.935 74.6846L498.299 75.4719L499.345 74.8677C500.449 74.2305 501.584 74.1316 502.459 74.637L502.472 74.6443C503.221 75.0764 503.113 75.7466 502.13 76.3142C501.14 76.8855 500.005 76.9771 499.269 76.6475L499.187 76.6145L497.36 77.6692L497.449 77.7131C499.155 78.5518 501.603 78.3979 503.677 77.2004Z" fill="white"/>
    <path d="M387 111.619L438.962 141.619L438.962 201.619L387 171.619L387 141.619L387 111.619Z" fill="#CEC0FF"/>
    <path d="M439 141.619L537 85.0388L537 145.039L439 201.619L439 171.619L439 141.619Z" fill="#FDDE4F"/>
    <rect width="90" height="90" transform="matrix(0.866025 0.5 -0.866025 0.5 295.943 375)" fill="#73FFE5"/>
    <rect width="90" height="90" transform="matrix(0.866025 0.5 -0.866025 0.5 295.943 375)" fill="#3C4257"/>
    <path d="M218 420L295.942 465L295.942 555L218 510L218 465L218 420Z" fill="#CEC0FF"/>
    <path d="M296 465L373.942 420L373.942 510L296 555L296 510L296 465Z" fill="#FDDE4F"/>
    <path d="M288.115 434.646C292.425 432.157 292.923 429.464 289.643 427.57L289.631 427.563C286.943 426.012 283.877 426.101 279.591 427.755L277.412 428.589C275.056 429.498 273.552 429.642 272.475 429.02L272.463 429.013C271.243 428.309 271.504 427.188 273.327 426.121C275.091 425.103 277.14 424.863 278.655 425.533L278.809 425.608L282.184 423.66L281.947 423.537C278.785 421.903 274.381 422.163 270.426 424.446C266.637 426.634 265.974 429.396 269.1 431.2L269.112 431.207C271.681 432.69 274.997 432.636 279.046 431.077L281.201 430.243C283.758 429.272 285.179 429.122 286.339 429.792L286.351 429.799C287.654 430.551 287.275 431.768 285.297 432.909C283.344 434.037 281.106 434.372 279.555 433.736L279.401 433.675L276.027 435.623L276.228 435.726C279.579 437.428 284.054 436.99 288.115 434.646ZM296.901 429.231L303.425 425.465C308.552 422.505 308.386 418.923 302.963 415.792L302.939 415.778C297.528 412.654 291.454 412.647 286.339 415.601L279.815 419.367L296.901 429.231ZM297.517 425.458L286.339 419.005L288.861 417.549C291.999 415.737 295.741 415.833 299.304 417.891L299.328 417.904C303.022 420.037 303.235 422.156 300.039 424.002L297.517 425.458ZM313.88 419.429L317.455 417.364L312.222 414.343L311.843 412.278L323.944 413.618L328.218 411.15L312.116 409.428L310.695 401.539L306.716 403.836L308.267 411.964L308.185 412.012L300.37 407.5L296.794 409.564L313.88 419.429Z" fill="white"/>
    <path d="M323.358 342.462L306.272 332.598L291.484 341.136L308.569 351L312.145 348.936L298.008 340.773L305.645 336.364L319.782 344.526L323.358 342.462ZM330.272 343.255L333.73 341.259L327.419 337.615L327.49 337.574C329.68 338.046 332.025 337.759 333.848 336.706C337.021 334.874 336.488 332.311 332.368 329.932L332.356 329.925C328.224 327.539 323.808 327.245 320.587 329.104C318.775 330.15 318.337 331.483 319.178 332.775L319.107 332.816L316.893 331.538L313.436 333.534L330.272 343.255ZM329.787 335.742C328.117 336.706 325.513 336.542 323.227 335.223L323.216 335.216C320.919 333.89 320.634 332.386 322.304 331.422C324.021 330.431 326.519 330.615 328.84 331.955L328.851 331.962C331.16 333.295 331.516 334.744 329.787 335.742ZM346.766 329.248C350.602 327.033 350.59 324.196 346.446 321.804L346.422 321.79C342.314 319.418 337.353 319.425 333.552 321.619C329.751 323.813 329.763 326.691 333.848 329.05L333.872 329.063C338.004 331.449 342.918 331.47 346.766 329.248ZM344.066 327.676C342.361 328.66 339.875 328.469 337.388 327.033L337.365 327.02C334.914 325.604 334.594 324.148 336.263 323.185C337.945 322.214 340.455 322.405 342.906 323.82L342.929 323.834C345.404 325.263 345.759 326.698 344.066 327.676ZM360.11 325.14L356.735 323.191L365.272 318.263L368.646 320.211L371.796 318.393L365.769 314.913L363.875 316.007L353.834 310.21L343.675 316.075L349.643 319.999C351.241 321.059 352.307 322.084 351.904 322.918L350.933 323.479L356.96 326.958L360.11 325.14ZM360.417 318.003L355.397 320.901L355.326 320.86C355.054 320.02 354.189 319.206 352.911 318.372L349.24 315.925L353.029 313.737L360.417 318.003ZM375.999 316.896C378.829 315.262 379.575 313.724 377.574 311.42L369.002 301.453L365.355 303.559L372.601 310.832L372.494 310.894L359.896 306.71L356.108 308.897L373.276 313.642L373.548 313.963C374.105 314.64 373.832 315.139 372.802 315.733C372.281 316.034 371.808 316.226 371.524 316.335L374.093 317.818C374.566 317.627 375.324 317.285 375.999 316.896ZM381.671 302.643L390.965 303.429L395.121 301.029L383.186 300.059L382.132 293.872L378.201 296.142L379.291 301.269L378.876 301.508L373.892 298.63L370.434 300.626L383.127 307.954L386.584 305.958L381.256 302.882L381.671 302.643ZM393.89 287.084L382.878 293.441L385.495 294.952L389.272 292.771L399.348 298.589L402.805 296.593L392.729 290.775L396.506 288.595L393.89 287.084Z" fill="white"/>
</svg>
