<svg width="599" height="332" viewBox="0 0 599 332" fill="none" xmlns="http://www.w3.org/2000/svg">
    <path d="M129.44 34H138.2V31.7H131.9V20H129.44V34ZM139.589 34H141.889V25H139.589V34ZM139.349 21.76C139.349 22.68 140.009 23.2 140.789 23.2C141.449 23.2 142.109 22.68 142.109 21.76C142.109 20.94 141.449 20.42 140.789 20.42C140.009 20.42 139.349 20.94 139.349 21.76ZM144.796 33.22C145.616 33.74 147.136 34.22 148.616 34.22C151.776 34.22 153.756 32.32 153.756 29.36C153.756 26.7 152.156 24.78 149.476 24.78C148.516 24.78 147.656 25.12 147.096 25.56V20H144.796V33.22ZM148.936 26.94C150.236 26.94 151.296 27.8 151.296 29.52C151.296 31.14 150.176 32.08 148.736 32.08C148.096 32.08 147.596 31.94 147.096 31.62V27.8C147.476 27.36 148.136 26.94 148.936 26.94ZM155.753 34H158.053V27.96C158.313 27.44 158.733 27 159.533 27C160.013 27 160.253 27.08 160.693 27.34L161.513 25.18C161.213 24.96 160.853 24.84 160.113 24.84C159.033 24.84 158.473 25.3 158.053 25.88V25H155.753V34ZM163.523 27.32C164.183 27.02 164.843 26.7 165.883 26.7C167.223 26.7 167.623 27.52 167.563 29.02C167.123 28.7 166.323 28.44 165.523 28.44C163.703 28.44 162.243 29.38 162.243 31.36C162.243 33.1 163.423 34.12 165.063 34.12C166.283 34.12 167.243 33.64 167.723 32.96V34H169.723V28.52C169.723 26.14 168.783 24.78 166.123 24.78C164.943 24.78 163.723 25.18 162.943 25.64L163.523 27.32ZM165.823 32.18C165.103 32.18 164.543 31.8 164.543 31.12C164.543 30.36 165.223 30 165.983 30C166.643 30 167.163 30.14 167.563 30.44V31.36C167.283 31.76 166.783 32.18 165.823 32.18ZM172.081 34H174.381V27.96C174.641 27.44 175.061 27 175.861 27C176.341 27 176.581 27.08 177.021 27.34L177.841 25.18C177.541 24.96 177.181 24.84 176.441 24.84C175.361 24.84 174.801 25.3 174.381 25.88V25H172.081V34ZM187.831 25H185.211L183.591 29.9C183.431 30.36 183.351 30.8 183.271 31.22C183.131 30.78 183.011 30.36 182.831 29.92L180.731 25H177.971L182.131 34L181.931 34.48C181.551 35.42 181.131 35.88 180.551 35.88C180.191 35.88 179.851 35.7 179.611 35.56L178.871 37.3C179.391 37.68 179.991 38 180.811 38C182.131 38 182.971 37.22 184.291 34L187.831 25ZM192.608 22.64L193.828 24.54L195.548 23.24V34H197.848V19.96H196.188L192.608 22.64Z" fill="#10162F"/>
    <rect x="101" y="1" width="126" height="54" stroke="#FFE000" stroke-width="2"/>
    <path d="M263.94 34H272.7V31.7H266.4V20H263.94V34ZM274.089 34H276.389V25H274.089V34ZM273.849 21.76C273.849 22.68 274.509 23.2 275.289 23.2C275.949 23.2 276.609 22.68 276.609 21.76C276.609 20.94 275.949 20.42 275.289 20.42C274.509 20.42 273.849 20.94 273.849 21.76ZM279.296 33.22C280.116 33.74 281.636 34.22 283.116 34.22C286.276 34.22 288.256 32.32 288.256 29.36C288.256 26.7 286.656 24.78 283.976 24.78C283.016 24.78 282.156 25.12 281.596 25.56V20H279.296V33.22ZM283.436 26.94C284.736 26.94 285.796 27.8 285.796 29.52C285.796 31.14 284.676 32.08 283.236 32.08C282.596 32.08 282.096 31.94 281.596 31.62V27.8C281.976 27.36 282.636 26.94 283.436 26.94ZM290.253 34H292.553V27.96C292.813 27.44 293.233 27 294.033 27C294.513 27 294.753 27.08 295.193 27.34L296.013 25.18C295.713 24.96 295.353 24.84 294.613 24.84C293.533 24.84 292.973 25.3 292.553 25.88V25H290.253V34ZM298.023 27.32C298.683 27.02 299.343 26.7 300.383 26.7C301.723 26.7 302.123 27.52 302.063 29.02C301.623 28.7 300.823 28.44 300.023 28.44C298.203 28.44 296.743 29.38 296.743 31.36C296.743 33.1 297.923 34.12 299.563 34.12C300.783 34.12 301.743 33.64 302.223 32.96V34H304.223V28.52C304.223 26.14 303.283 24.78 300.623 24.78C299.443 24.78 298.223 25.18 297.443 25.64L298.023 27.32ZM300.323 32.18C299.603 32.18 299.043 31.8 299.043 31.12C299.043 30.36 299.723 30 300.483 30C301.143 30 301.663 30.14 302.063 30.44V31.36C301.783 31.76 301.283 32.18 300.323 32.18ZM306.581 34H308.881V27.96C309.141 27.44 309.561 27 310.361 27C310.841 27 311.081 27.08 311.521 27.34L312.341 25.18C312.041 24.96 311.681 24.84 310.941 24.84C309.861 24.84 309.301 25.3 308.881 25.88V25H306.581V34ZM322.331 25H319.711L318.091 29.9C317.931 30.36 317.851 30.8 317.771 31.22C317.631 30.78 317.511 30.36 317.331 29.92L315.231 25H312.471L316.631 34L316.431 34.48C316.051 35.42 315.631 35.88 315.051 35.88C314.691 35.88 314.351 35.7 314.111 35.56L313.371 37.3C313.891 37.68 314.491 38 315.311 38C316.631 38 317.471 37.22 318.791 34L322.331 25ZM327.408 34H336.208V31.86H330.388C331.488 30.96 335.668 27.42 335.668 23.5C335.668 21.64 334.368 19.84 331.708 19.84C329.488 19.84 327.888 21.12 327.508 23.16L329.428 24.02C329.728 22.84 330.448 22.14 331.448 22.14C332.608 22.14 333.228 22.84 333.228 23.96C333.228 26.68 329.688 29.92 327.408 32.16V34Z" fill="#10162F"/>
    <rect x="237" y="1" width="126" height="54" stroke="#FFE000" stroke-width="2"/>
    <path d="M399.94 34H408.7V31.7H402.4V20H399.94V34ZM410.089 34H412.389V25H410.089V34ZM409.849 21.76C409.849 22.68 410.509 23.2 411.289 23.2C411.949 23.2 412.609 22.68 412.609 21.76C412.609 20.94 411.949 20.42 411.289 20.42C410.509 20.42 409.849 20.94 409.849 21.76ZM415.296 33.22C416.116 33.74 417.636 34.22 419.116 34.22C422.276 34.22 424.256 32.32 424.256 29.36C424.256 26.7 422.656 24.78 419.976 24.78C419.016 24.78 418.156 25.12 417.596 25.56V20H415.296V33.22ZM419.436 26.94C420.736 26.94 421.796 27.8 421.796 29.52C421.796 31.14 420.676 32.08 419.236 32.08C418.596 32.08 418.096 31.94 417.596 31.62V27.8C417.976 27.36 418.636 26.94 419.436 26.94ZM426.253 34H428.553V27.96C428.813 27.44 429.233 27 430.033 27C430.513 27 430.753 27.08 431.193 27.34L432.013 25.18C431.713 24.96 431.353 24.84 430.613 24.84C429.533 24.84 428.973 25.3 428.553 25.88V25H426.253V34ZM434.023 27.32C434.683 27.02 435.343 26.7 436.383 26.7C437.723 26.7 438.123 27.52 438.063 29.02C437.623 28.7 436.823 28.44 436.023 28.44C434.203 28.44 432.743 29.38 432.743 31.36C432.743 33.1 433.923 34.12 435.563 34.12C436.783 34.12 437.743 33.64 438.223 32.96V34H440.223V28.52C440.223 26.14 439.283 24.78 436.623 24.78C435.443 24.78 434.223 25.18 433.443 25.64L434.023 27.32ZM436.323 32.18C435.603 32.18 435.043 31.8 435.043 31.12C435.043 30.36 435.723 30 436.483 30C437.143 30 437.663 30.14 438.063 30.44V31.36C437.783 31.76 437.283 32.18 436.323 32.18ZM442.581 34H444.881V27.96C445.141 27.44 445.561 27 446.361 27C446.841 27 447.081 27.08 447.521 27.34L448.341 25.18C448.041 24.96 447.681 24.84 446.941 24.84C445.861 24.84 445.301 25.3 444.881 25.88V25H442.581V34ZM458.331 25H455.711L454.091 29.9C453.931 30.36 453.851 30.8 453.771 31.22C453.631 30.78 453.511 30.36 453.331 29.92L451.231 25H448.471L452.631 34L452.431 34.48C452.051 35.42 451.631 35.88 451.051 35.88C450.691 35.88 450.351 35.7 450.111 35.56L449.371 37.3C449.891 37.68 450.491 38 451.311 38C452.631 38 453.471 37.22 454.791 34L458.331 25ZM467.548 34.22C470.128 34.22 472.128 32.64 472.128 30.06C472.128 28.4 471.188 27.02 469.448 26.72V26.66C470.868 26.04 471.588 24.92 471.588 23.34C471.588 21.14 469.968 19.78 467.568 19.78C465.648 19.78 464.188 20.54 463.428 21.96L464.708 23.58C465.408 22.56 466.228 22.08 467.348 22.08C468.548 22.08 469.128 22.78 469.128 23.78C469.128 24.98 468.108 25.7 466.968 25.7H466.068V28H467.068C468.688 28 469.668 28.7 469.668 29.98C469.668 31.04 468.908 31.92 467.408 31.92C466.188 31.92 465.108 31.22 464.408 30.18L463.108 31.86C463.848 33.28 465.408 34.22 467.548 34.22Z" fill="#10162F"/>
    <rect x="373" y="1" width="126" height="54" stroke="#FFE000" stroke-width="2"/>
    <path d="M168 56V80H432V56" stroke="#D3DBE6"/>
    <path d="M300 104L302.887 99H297.113L300 104ZM300.5 99.5V56H299.5V99.5H300.5Z" fill="#D3DBE6"/>
    <path d="M300 218L198 161L300 104L402 161L300 218Z" fill="#6C7991"/>
    <path d="M198 161L300 218V332L198 279.071V161Z" fill="#AE85FF"/>
    <path d="M402 161L300 218V332L402 279.071V161Z" fill="#7833FF"/>
    <path d="M301.421 275L250.421 246.5L301.421 218L352.421 246.5L301.421 275Z" fill="#6C7991"/>
    <path d="M250.421 246.5L301.421 275V332L250.421 305.536V246.5Z" fill="#7833FF"/>
    <path d="M352.421 246.5L301.421 275V332L352.421 305.536V246.5Z" fill="#AE85FF"/>
    <path d="M270.4 167V161.94C271 162 271.8 162 272.22 162C275.56 162 277.34 159.84 277.34 157.46C277.34 155.16 276.04 152.96 271.92 152.96C270.94 152.96 268.72 153 267.94 153V167H270.4ZM272.16 155.26C273.84 155.26 274.74 155.98 274.74 157.44C274.74 159 273.6 159.7 272.14 159.7C271.58 159.7 270.98 159.66 270.4 159.6V155.3C271.06 155.28 271.66 155.26 272.16 155.26ZM278.823 167H281.123V160.96C281.383 160.44 281.803 160 282.603 160C283.083 160 283.323 160.08 283.763 160.34L284.583 158.18C284.283 157.96 283.923 157.84 283.183 157.84C282.103 157.84 281.543 158.3 281.123 158.88V158H278.823V167ZM285.333 162.5C285.333 165.2 287.253 167.22 290.233 167.22C293.213 167.22 295.133 165.2 295.133 162.5C295.133 159.8 293.213 157.78 290.233 157.78C287.253 157.78 285.333 159.8 285.333 162.5ZM287.793 162.5C287.793 160.94 288.873 159.94 290.233 159.94C291.633 159.94 292.693 160.98 292.693 162.5C292.693 164.06 291.653 165.08 290.233 165.08C288.833 165.08 287.793 164 287.793 162.5ZM303.384 167H305.684V153H303.384V158.22C302.884 157.92 302.304 157.78 301.504 157.78C298.604 157.78 296.564 159.76 296.564 162.6C296.564 165.34 298.224 167.16 300.804 167.16C301.964 167.16 302.784 166.7 303.384 166.06V167ZM301.284 165.02C300.064 165.02 299.024 164.12 299.024 162.52C299.024 160.86 300.244 159.94 301.604 159.94C302.224 159.94 302.804 160.12 303.384 160.48V164.1C302.864 164.62 302.124 165.02 301.284 165.02ZM316.377 158H314.077V163.98C313.557 164.66 312.817 165.08 312.057 165.08C310.797 165.08 310.337 164.22 310.337 163.02V158H308.037V163.5C308.037 166.08 309.437 167.22 311.197 167.22C312.597 167.22 313.537 166.56 314.077 165.9V167H316.377V158ZM325.76 163.98C325.18 164.62 324.42 165.08 323.44 165.08C322.08 165.08 320.84 164.1 320.84 162.5C320.84 160.92 322.06 159.94 323.34 159.94C324.16 159.94 324.9 160.16 325.58 160.82L326.66 159C325.82 158.16 324.52 157.78 323.04 157.78C320.3 157.78 318.38 159.88 318.38 162.5C318.38 165.34 320.34 167.22 323.26 167.22C324.72 167.22 326.08 166.68 326.84 165.66L325.76 163.98ZM328.486 163.58C328.486 165.88 329.246 167.2 331.286 167.2C332.446 167.2 333.406 166.76 333.946 166.32L333.246 164.54C332.926 164.78 332.486 165.06 331.866 165.06C331.106 165.06 330.786 164.42 330.786 163.44V160.16H333.686V158H330.786V155.5H328.486V163.58Z" fill="white"/>
    <path d="M287.56 250.28C287.56 251.34 286.68 251.92 285.52 251.92C284.44 251.92 283.12 251.4 282.3 250.34L280.9 252.02C281.58 253.44 283.68 254.22 285.48 254.22C288.1 254.22 290.16 252.62 290.16 250.26C290.16 245.6 283.82 246.52 283.82 243.62C283.82 242.7 284.56 242.08 285.78 242.08C286.9 242.08 287.58 242.46 288.26 243.12L289.58 241.28C288.74 240.36 287.3 239.78 285.58 239.78C282.86 239.78 281.22 241.54 281.22 243.64C281.22 248.2 287.56 247.52 287.56 250.28ZM292.995 254H293.275C294.555 254 296.115 254.04 296.955 254.04C302.295 254.04 304.975 250.8 304.975 246.86C304.975 243.16 302.715 239.94 297.115 239.94C296.095 239.94 294.095 240 293.255 240H292.995V254ZM297.075 242.24C300.415 242.24 302.375 244.04 302.375 246.86C302.375 249.82 300.415 251.74 297.035 251.74C296.695 251.74 296.135 251.74 295.455 251.7V242.3C296.015 242.26 296.495 242.24 297.075 242.24ZM307.819 254H310.279V246.78L315.999 254H319.119L312.999 246.52L318.759 240H315.799L310.279 246.64V240H307.819V254Z" fill="white"/>
</svg>
