<svg width="1182" height="648" viewBox="0 0 1182 648" fill="none" xmlns="http://www.w3.org/2000/svg">
    <rect x="251" y="44" width="425" height="121" rx="39" fill="#F4F7FA"/>
    <path d="M415.133 113H421.52C425.117 113 427.25 111.23 427.25 108.254V108.23C427.25 105.992 425.773 104.352 423.336 104.07V104.023C425.082 103.777 426.395 102.078 426.395 100.332V100.309C426.395 97.7773 424.438 96.0898 421.543 96.0898H415.133V113ZM421.062 97.9531C423.102 97.9531 424.262 98.8672 424.262 100.531V100.555C424.262 102.383 422.902 103.379 420.406 103.379H417.242V97.9531H421.062ZM421.004 105.195C423.699 105.195 425.082 106.191 425.082 108.148V108.172C425.082 110.117 423.734 111.137 421.203 111.137H417.242V105.195H421.004ZM434.34 113.234C437 113.234 438.992 111.641 439.391 109.625L439.414 109.508H437.41L437.375 109.613C437.023 110.656 435.934 111.43 434.387 111.43C432.219 111.43 430.836 109.965 430.789 107.457H439.566V106.707C439.566 103.051 437.539 100.578 434.211 100.578C430.883 100.578 428.727 103.168 428.727 106.941V106.953C428.727 110.785 430.836 113.234 434.34 113.234ZM434.199 102.383C435.98 102.383 437.293 103.496 437.492 105.863H430.824C431.047 103.59 432.43 102.383 434.199 102.383ZM446.785 117.336C450.09 117.336 452.164 115.484 452.164 112.66V100.812H450.125V102.875H450.078C449.328 101.516 447.969 100.578 446.246 100.578C443.152 100.578 441.031 103.039 441.031 106.824V106.836C441.031 110.645 443.129 113.117 446.199 113.117C447.945 113.117 449.352 112.25 450.078 110.902H450.125V112.461C450.125 114.348 448.906 115.531 446.762 115.531C445.098 115.531 443.938 114.992 443.551 114.113L443.504 114.008H441.453L441.477 114.113C441.875 115.918 443.773 117.336 446.785 117.336ZM446.645 111.312C444.477 111.312 443.117 109.602 443.117 106.836V106.824C443.117 104.117 444.477 102.383 446.645 102.383C448.707 102.383 450.125 104.141 450.125 106.824V106.836C450.125 109.543 448.719 111.312 446.645 111.312ZM455.949 98.75C456.664 98.75 457.227 98.1758 457.227 97.4727C457.227 96.7578 456.664 96.1953 455.949 96.1953C455.246 96.1953 454.672 96.7578 454.672 97.4727C454.672 98.1758 455.246 98.75 455.949 98.75ZM454.93 113H456.969V100.812H454.93V113ZM459.746 113H461.785V105.828C461.785 103.754 463.039 102.383 464.961 102.383C466.836 102.383 467.762 103.473 467.762 105.453V113H469.801V105.09C469.801 102.312 468.254 100.578 465.582 100.578C463.73 100.578 462.488 101.41 461.832 102.547H461.785V100.812H459.746V113ZM472.402 113H474.441V105.828C474.441 103.754 475.695 102.383 477.617 102.383C479.492 102.383 480.418 103.473 480.418 105.453V113H482.457V105.09C482.457 102.312 480.91 100.578 478.238 100.578C476.387 100.578 475.145 101.41 474.488 102.547H474.441V100.812H472.402V113ZM486.207 98.75C486.922 98.75 487.484 98.1758 487.484 97.4727C487.484 96.7578 486.922 96.1953 486.207 96.1953C485.504 96.1953 484.93 96.7578 484.93 97.4727C484.93 98.1758 485.504 98.75 486.207 98.75ZM485.188 113H487.227V100.812H485.188V113ZM490.004 113H492.043V105.828C492.043 103.754 493.297 102.383 495.219 102.383C497.094 102.383 498.02 103.473 498.02 105.453V113H500.059V105.09C500.059 102.312 498.512 100.578 495.84 100.578C493.988 100.578 492.746 101.41 492.09 102.547H492.043V100.812H490.004V113ZM507.816 117.336C511.121 117.336 513.195 115.484 513.195 112.66V100.812H511.156V102.875H511.109C510.359 101.516 509 100.578 507.277 100.578C504.184 100.578 502.062 103.039 502.062 106.824V106.836C502.062 110.645 504.16 113.117 507.23 113.117C508.977 113.117 510.383 112.25 511.109 110.902H511.156V112.461C511.156 114.348 509.938 115.531 507.793 115.531C506.129 115.531 504.969 114.992 504.582 114.113L504.535 114.008H502.484L502.508 114.113C502.906 115.918 504.805 117.336 507.816 117.336ZM507.676 111.312C505.508 111.312 504.148 109.602 504.148 106.836V106.824C504.148 104.117 505.508 102.383 507.676 102.383C509.738 102.383 511.156 104.141 511.156 106.824V106.836C511.156 109.543 509.75 111.312 507.676 111.312Z" fill="black"/>
    <rect x="251" y="44" width="425" height="121" rx="39" stroke="#D3DBE6" stroke-width="2" stroke-dasharray="8 8"/>
    <path d="M43.3281 434H46.1406V424.234H56.125V421.734H46.1406V413.984H57.0156V411.453H43.3281V434ZM63.4688 434.312C65.6406 434.312 67.5938 433.141 68.5469 431.359H68.6094V434H71.3281V422.766C71.3281 419.516 68.9219 417.438 65.0781 417.438C61.25 417.438 58.9219 419.594 58.6875 422.266L58.6719 422.438H61.2969L61.3281 422.297C61.6406 420.844 62.9531 419.844 65.0469 419.844C67.3125 419.844 68.6094 421.047 68.6094 423.031V424.391L63.9531 424.656C60.2188 424.875 58.0625 426.609 58.0625 429.375V429.406C58.0625 432.359 60.2344 434.312 63.4688 434.312ZM60.8438 429.406V429.375C60.8438 427.859 62.0938 426.891 64.2656 426.766L68.6094 426.5V427.828C68.6094 430.188 66.6406 431.953 64.0781 431.953C62.125 431.953 60.8438 430.969 60.8438 429.406ZM74.9219 434H77.6406V411.453H74.9219V434ZM87.0781 434.312C90.7031 434.312 93.3906 432.312 93.3906 429.469V429.453C93.3906 427.141 92.2031 425.844 88.9219 425.047L86.3438 424.422C84.5469 423.984 83.8125 423.219 83.8125 422.109V422.094C83.8125 420.656 85.0312 419.703 87 419.703C89.0156 419.703 90.2188 420.75 90.4375 422.328L90.4531 422.438H93.0469L93.0312 422.234C92.8281 419.516 90.5625 417.438 87 417.438C83.4844 417.438 81.0312 419.422 81.0312 422.219V422.234C81.0312 424.578 82.5156 426 85.5781 426.734L88.1562 427.359C90 427.812 90.6094 428.469 90.6094 429.641V429.656C90.6094 431.125 89.2969 432.047 87.0938 432.047C84.875 432.047 83.6719 431.094 83.3438 429.469L83.3125 429.312H80.5938L80.6094 429.453C80.9375 432.359 83.25 434.312 87.0781 434.312ZM102.906 434.312C106.453 434.312 109.109 432.188 109.641 429.5L109.672 429.344H107L106.953 429.484C106.484 430.875 105.031 431.906 102.969 431.906C100.078 431.906 98.2344 429.953 98.1719 426.609H109.875V425.609C109.875 420.734 107.172 417.438 102.734 417.438C98.2969 417.438 95.4219 420.891 95.4219 425.922V425.938C95.4219 431.047 98.2344 434.312 102.906 434.312ZM102.719 419.844C105.094 419.844 106.844 421.328 107.109 424.484H98.2188C98.5156 421.453 100.359 419.844 102.719 419.844Z" fill="black"/>
    <path d="M721.891 265H724.703V244.984H731.812V242.453H714.781V244.984H721.891V265ZM730.766 265H733.484V254.844C733.484 252.547 734.859 251.031 736.969 251.031C737.625 251.031 738.203 251.109 738.422 251.188V248.547C738.203 248.516 737.797 248.438 737.328 248.438C735.422 248.438 733.922 249.578 733.391 251.375H733.328V248.75H730.766V265ZM746.188 265.312C748.656 265.312 750.312 264.203 751.188 262.688H751.25V265H753.969V248.75H751.25V258.312C751.25 261.078 749.578 262.906 747.016 262.906C744.516 262.906 743.281 261.453 743.281 258.812V248.75H740.562V259.297C740.562 263 742.625 265.312 746.188 265.312ZM764.203 265.312C767.75 265.312 770.406 263.188 770.938 260.5L770.969 260.344H768.297L768.25 260.484C767.781 261.875 766.328 262.906 764.266 262.906C761.375 262.906 759.531 260.953 759.469 257.609H771.172V256.609C771.172 251.734 768.469 248.438 764.031 248.438C759.594 248.438 756.719 251.891 756.719 256.922V256.938C756.719 262.047 759.531 265.312 764.203 265.312ZM764.016 250.844C766.391 250.844 768.141 252.328 768.406 255.484H759.516C759.812 252.453 761.656 250.844 764.016 250.844Z" fill="black"/>
    <path d="M573.469 326.375C578.453 326.375 581.797 323.891 582.828 319.438H579.984C579.172 322.188 576.797 323.781 573.484 323.781C569.031 323.781 566.203 320.25 566.203 314.719C566.203 309.234 569.062 305.672 573.469 305.672C576.688 305.672 579.266 307.609 579.984 310.562H582.828C582.109 306.062 578.375 303.078 573.469 303.078C567.297 303.078 563.312 307.641 563.312 314.719C563.312 321.859 567.25 326.375 573.469 326.375ZM585.875 326H588.594V303.453H585.875V326ZM597.016 326.281C599.203 326.281 601.266 325.062 602.234 323.203H602.297V326H604.875V314.766C604.875 311.531 602.469 309.469 598.656 309.469C594.812 309.469 592.406 311.625 592.219 314.438H594.844C595.188 312.844 596.5 311.859 598.594 311.859C600.844 311.859 602.156 313.047 602.156 315.031V316.391L597.5 316.656C593.75 316.875 591.609 318.625 591.609 321.406C591.609 324.328 593.781 326.281 597.016 326.281ZM597.625 323.969C595.672 323.969 594.375 322.953 594.375 321.406C594.375 319.875 595.625 318.906 597.812 318.766L602.156 318.5V319.828C602.156 322.172 600.188 323.969 597.625 323.969ZM608.047 314.234C608.047 316.578 609.531 318 612.594 318.734L615.172 319.359C617.031 319.812 617.672 320.484 617.672 321.656C617.672 323.125 616.312 324.062 614.109 324.062C611.906 324.062 610.656 323.172 610.328 321.312H607.609C607.922 324.359 610.297 326.281 614.109 326.281C617.734 326.281 620.406 324.281 620.406 321.453C620.406 319.125 619.219 317.844 615.938 317.047L613.359 316.422C611.547 315.984 610.719 315.219 610.719 314.094C610.719 312.672 612.031 311.688 614.016 311.688C616.016 311.688 617.266 312.734 617.469 314.438H620.062C619.953 311.562 617.578 309.469 614.016 309.469C610.5 309.469 608.047 311.453 608.047 314.234ZM622.953 314.234C622.953 316.578 624.438 318 627.5 318.734L630.078 319.359C631.938 319.812 632.578 320.484 632.578 321.656C632.578 323.125 631.219 324.062 629.016 324.062C626.812 324.062 625.562 323.172 625.234 321.312H622.516C622.828 324.359 625.203 326.281 629.016 326.281C632.641 326.281 635.312 324.281 635.312 321.453C635.312 319.125 634.125 317.844 630.844 317.047L628.266 316.422C626.453 315.984 625.625 315.219 625.625 314.094C625.625 312.672 626.938 311.688 628.922 311.688C630.922 311.688 632.172 312.734 632.375 314.438H634.969C634.859 311.562 632.484 309.469 628.922 309.469C625.406 309.469 622.953 311.453 622.953 314.234Z" fill="black"/>
    <path d="M273 299H167C150.431 299 137 312.431 137 329V518C137 534.569 150.431 548 167 548H320" stroke="black" stroke-width="4" stroke-linecap="round" stroke-dasharray="0.01 8"/>
    <path d="M964 353L964 413C964 429.569 950.569 443 934 443L492 443C475.431 443 462 429.569 462 413L462 353" stroke="black" stroke-width="4" stroke-linecap="round" stroke-dasharray="0.01 8"/>
    <path d="M803 299H665" stroke="black" stroke-width="4" stroke-linecap="round" stroke-dasharray="0.01 8"/>
    <path d="M464 166L464 238" stroke="black" stroke-width="4" stroke-linecap="round" stroke-dasharray="0.01 8"/>
    <path d="M458.768 225.372C461.859 224.476 465.141 224.476 468.232 225.372L667.663 283.172C684.02 287.913 684.02 311.087 667.663 315.828L468.232 373.628C465.141 374.524 461.859 374.524 458.768 373.628L259.337 315.828C242.98 311.087 242.98 287.913 259.337 283.172L458.768 225.372Z" fill="#FEFE88"/>
    <rect x="313" y="497" width="302" height="102" rx="12" fill="#F0C2FB"/>
    <path d="M339.418 542H349.895V540.102H341.527V534.289H349.461V532.414H341.527V526.988H349.895V525.09H339.418V542ZM351.418 542H353.68L356.621 537.359H356.668L359.586 542H361.848L357.793 535.824L361.906 529.812H359.633L356.738 534.383H356.691L353.762 529.812H351.488L355.566 535.906L351.418 542ZM368.398 542.234C371.059 542.234 373.051 540.641 373.449 538.625L373.473 538.508H371.469L371.434 538.613C371.082 539.656 369.992 540.43 368.445 540.43C366.277 540.43 364.895 538.965 364.848 536.457H373.625V535.707C373.625 532.051 371.598 529.578 368.27 529.578C364.941 529.578 362.785 532.168 362.785 535.941V535.953C362.785 539.785 364.895 542.234 368.398 542.234ZM368.258 531.383C370.039 531.383 371.352 532.496 371.551 534.863H364.883C365.105 532.59 366.488 531.383 368.258 531.383ZM380.738 542.234C383.492 542.234 385.496 540.441 385.824 538.121L385.836 538.039H383.832L383.809 538.133C383.469 539.492 382.402 540.43 380.738 540.43C378.629 540.43 377.176 538.754 377.176 535.918V535.906C377.176 533.141 378.594 531.383 380.715 531.383C382.508 531.383 383.492 532.461 383.797 533.68L383.82 533.773H385.812L385.801 533.68C385.543 531.594 383.75 529.578 380.715 529.578C377.328 529.578 375.09 532.039 375.09 535.883V535.895C375.09 539.773 377.281 542.234 380.738 542.234ZM391.871 542.234C393.723 542.234 394.965 541.402 395.621 540.266H395.668V542H397.707V529.812H395.668V536.984C395.668 539.059 394.414 540.43 392.492 540.43C390.617 540.43 389.691 539.34 389.691 537.359V529.812H387.652V537.723C387.652 540.5 389.199 542.234 391.871 542.234ZM404.328 542.234C404.727 542.234 405.16 542.188 405.418 542.152V540.5C405.242 540.512 405.008 540.547 404.762 540.547C403.672 540.547 403.098 540.184 403.098 538.883V531.5H405.418V529.812H403.098V526.52H400.988V529.812H399.207V531.5H400.988V538.895C400.988 541.227 402.09 542.234 404.328 542.234ZM412.273 542.234C414.934 542.234 416.926 540.641 417.324 538.625L417.348 538.508H415.344L415.309 538.613C414.957 539.656 413.867 540.43 412.32 540.43C410.152 540.43 408.77 538.965 408.723 536.457H417.5V535.707C417.5 532.051 415.473 529.578 412.145 529.578C408.816 529.578 406.66 532.168 406.66 535.941V535.953C406.66 539.785 408.77 542.234 412.273 542.234ZM412.133 531.383C413.914 531.383 415.227 532.496 415.426 534.863H408.758C408.98 532.59 410.363 531.383 412.133 531.383ZM428.445 542.234C428.844 542.234 429.277 542.188 429.535 542.152V540.5C429.359 540.512 429.125 540.547 428.879 540.547C427.789 540.547 427.215 540.184 427.215 538.883V531.5H429.535V529.812H427.215V526.52H425.105V529.812H423.324V531.5H425.105V538.895C425.105 541.227 426.207 542.234 428.445 542.234ZM431.832 542H433.871V534.887C433.871 532.812 435.125 531.383 437.012 531.383C438.91 531.383 440.035 532.684 440.035 534.887V542H442.074V534.535C442.074 531.582 440.305 529.578 437.715 529.578C435.898 529.578 434.574 530.387 433.918 531.758H433.871V525.09H431.832V542ZM449.68 542.234C452.34 542.234 454.332 540.641 454.73 538.625L454.754 538.508H452.75L452.715 538.613C452.363 539.656 451.273 540.43 449.727 540.43C447.559 540.43 446.176 538.965 446.129 536.457H454.906V535.707C454.906 532.051 452.879 529.578 449.551 529.578C446.223 529.578 444.066 532.168 444.066 535.941V535.953C444.066 539.785 446.176 542.234 449.68 542.234ZM449.539 531.383C451.32 531.383 452.633 532.496 452.832 534.863H446.164C446.387 532.59 447.77 531.383 449.539 531.383ZM466.941 542.234C469.695 542.234 471.699 540.441 472.027 538.121L472.039 538.039H470.035L470.012 538.133C469.672 539.492 468.605 540.43 466.941 540.43C464.832 540.43 463.379 538.754 463.379 535.918V535.906C463.379 533.141 464.797 531.383 466.918 531.383C468.711 531.383 469.695 532.461 470 533.68L470.023 533.773H472.016L472.004 533.68C471.746 531.594 469.953 529.578 466.918 529.578C463.531 529.578 461.293 532.039 461.293 535.883V535.895C461.293 539.773 463.484 542.234 466.941 542.234ZM478.965 542.234C482.328 542.234 484.602 539.797 484.602 535.906V535.883C484.602 531.992 482.316 529.578 478.953 529.578C475.59 529.578 473.316 532.004 473.316 535.883V535.906C473.316 539.785 475.578 542.234 478.965 542.234ZM478.977 540.43C476.82 540.43 475.402 538.777 475.402 535.906V535.883C475.402 533.035 476.832 531.383 478.953 531.383C481.109 531.383 482.516 533.023 482.516 535.883V535.906C482.516 538.766 481.121 540.43 478.977 540.43ZM491.246 542.234C492.992 542.234 494.352 541.355 495.113 539.938H495.16V542H497.199V525.09H495.16V531.852H495.113C494.352 530.445 492.934 529.578 491.211 529.578C488.152 529.578 486.066 532.051 486.066 535.895V535.906C486.066 539.75 488.129 542.234 491.246 542.234ZM491.645 540.43C489.488 540.43 488.152 538.707 488.152 535.906V535.895C488.152 533.117 489.488 531.383 491.645 531.383C493.695 531.383 495.172 533.176 495.172 535.895V535.906C495.172 538.637 493.707 540.43 491.645 540.43ZM504.969 542.234C507.629 542.234 509.621 540.641 510.02 538.625L510.043 538.508H508.039L508.004 538.613C507.652 539.656 506.562 540.43 505.016 540.43C502.848 540.43 501.465 538.965 501.418 536.457H510.195V535.707C510.195 532.051 508.168 529.578 504.84 529.578C501.512 529.578 499.355 532.168 499.355 535.941V535.953C499.355 539.785 501.465 542.234 504.969 542.234ZM504.828 531.383C506.609 531.383 507.922 532.496 508.121 534.863H501.453C501.676 532.59 503.059 531.383 504.828 531.383ZM522.23 542.234C525.594 542.234 527.867 539.797 527.867 535.906V535.883C527.867 531.992 525.582 529.578 522.219 529.578C518.855 529.578 516.582 532.004 516.582 535.883V535.906C516.582 539.785 518.844 542.234 522.23 542.234ZM522.242 540.43C520.086 540.43 518.668 538.777 518.668 535.906V535.883C518.668 533.035 520.098 531.383 522.219 531.383C524.375 531.383 525.781 533.023 525.781 535.883V535.906C525.781 538.766 524.387 540.43 522.242 540.43ZM534.09 542.234C535.941 542.234 537.184 541.402 537.84 540.266H537.887V542H539.926V529.812H537.887V536.984C537.887 539.059 536.633 540.43 534.711 540.43C532.836 540.43 531.91 539.34 531.91 537.359V529.812H529.871V537.723C529.871 540.5 531.418 542.234 534.09 542.234ZM546.547 542.234C546.945 542.234 547.379 542.188 547.637 542.152V540.5C547.461 540.512 547.227 540.547 546.98 540.547C545.891 540.547 545.316 540.184 545.316 538.883V531.5H547.637V529.812H545.316V526.52H543.207V529.812H541.426V531.5H543.207V538.895C543.207 541.227 544.309 542.234 546.547 542.234ZM554.152 542.234C556.871 542.234 558.887 540.734 558.887 538.602V538.59C558.887 536.855 557.996 535.883 555.535 535.285L553.602 534.816C552.254 534.488 551.703 533.914 551.703 533.082V533.07C551.703 531.992 552.617 531.277 554.094 531.277C555.605 531.277 556.508 532.062 556.672 533.246L556.684 533.328H558.629L558.617 533.176C558.465 531.137 556.766 529.578 554.094 529.578C551.457 529.578 549.617 531.066 549.617 533.164V533.176C549.617 534.934 550.73 536 553.027 536.551L554.961 537.02C556.344 537.359 556.801 537.852 556.801 538.73V538.742C556.801 539.844 555.816 540.535 554.164 540.535C552.5 540.535 551.598 539.82 551.352 538.602L551.328 538.484H549.289L549.301 538.59C549.547 540.77 551.281 542.234 554.152 542.234ZM562.156 527.75C562.871 527.75 563.434 527.176 563.434 526.473C563.434 525.758 562.871 525.195 562.156 525.195C561.453 525.195 560.879 525.758 560.879 526.473C560.879 527.176 561.453 527.75 562.156 527.75ZM561.137 542H563.176V529.812H561.137V542ZM570.535 542.234C572.281 542.234 573.641 541.355 574.402 539.938H574.449V542H576.488V525.09H574.449V531.852H574.402C573.641 530.445 572.223 529.578 570.5 529.578C567.441 529.578 565.355 532.051 565.355 535.895V535.906C565.355 539.75 567.418 542.234 570.535 542.234ZM570.934 540.43C568.777 540.43 567.441 538.707 567.441 535.906V535.895C567.441 533.117 568.777 531.383 570.934 531.383C572.984 531.383 574.461 533.176 574.461 535.895V535.906C574.461 538.637 572.996 540.43 570.934 540.43ZM584.258 542.234C586.918 542.234 588.91 540.641 589.309 538.625L589.332 538.508H587.328L587.293 538.613C586.941 539.656 585.852 540.43 584.305 540.43C582.137 540.43 580.754 538.965 580.707 536.457H589.484V535.707C589.484 532.051 587.457 529.578 584.129 529.578C580.801 529.578 578.645 532.168 578.645 535.941V535.953C578.645 539.785 580.754 542.234 584.258 542.234ZM584.117 531.383C585.898 531.383 587.211 532.496 587.41 534.863H580.742C580.965 532.59 582.348 531.383 584.117 531.383ZM423.277 571.234C423.676 571.234 424.109 571.188 424.367 571.152V569.5C424.191 569.512 423.957 569.547 423.711 569.547C422.621 569.547 422.047 569.184 422.047 567.883V560.5H424.367V558.812H422.047V555.52H419.938V558.812H418.156V560.5H419.938V567.895C419.938 570.227 421.039 571.234 423.277 571.234ZM426.664 571H428.703V563.887C428.703 561.812 429.957 560.383 431.844 560.383C433.742 560.383 434.867 561.684 434.867 563.887V571H436.906V563.535C436.906 560.582 435.137 558.578 432.547 558.578C430.73 558.578 429.406 559.387 428.75 560.758H428.703V554.09H426.664V571ZM444.512 571.234C447.172 571.234 449.164 569.641 449.562 567.625L449.586 567.508H447.582L447.547 567.613C447.195 568.656 446.105 569.43 444.559 569.43C442.391 569.43 441.008 567.965 440.961 565.457H449.738V564.707C449.738 561.051 447.711 558.578 444.383 558.578C441.055 558.578 438.898 561.168 438.898 564.941V564.953C438.898 568.785 441.008 571.234 444.512 571.234ZM444.371 560.383C446.152 560.383 447.465 561.496 447.664 563.863H440.996C441.219 561.59 442.602 560.383 444.371 560.383ZM462.781 571.234C465.898 571.234 467.961 568.75 467.961 564.906V564.895C467.961 561.051 465.875 558.578 462.816 558.578C461.094 558.578 459.676 559.445 458.914 560.852H458.867V554.09H456.828V571H458.867V568.938H458.914C459.676 570.355 461.035 571.234 462.781 571.234ZM462.383 569.43C460.32 569.43 458.855 567.637 458.855 564.906V564.895C458.855 562.176 460.332 560.383 462.383 560.383C464.539 560.383 465.875 562.117 465.875 564.895V564.906C465.875 567.707 464.539 569.43 462.383 569.43ZM470.117 571H472.156V554.09H470.117V571ZM479.961 571.234C483.324 571.234 485.598 568.797 485.598 564.906V564.883C485.598 560.992 483.312 558.578 479.949 558.578C476.586 558.578 474.312 561.004 474.312 564.883V564.906C474.312 568.785 476.574 571.234 479.961 571.234ZM479.973 569.43C477.816 569.43 476.398 567.777 476.398 564.906V564.883C476.398 562.035 477.828 560.383 479.949 560.383C482.105 560.383 483.512 562.023 483.512 564.883V564.906C483.512 567.766 482.117 569.43 479.973 569.43ZM492.711 571.234C495.465 571.234 497.469 569.441 497.797 567.121L497.809 567.039H495.805L495.781 567.133C495.441 568.492 494.375 569.43 492.711 569.43C490.602 569.43 489.148 567.754 489.148 564.918V564.906C489.148 562.141 490.566 560.383 492.688 560.383C494.48 560.383 495.465 561.461 495.77 562.68L495.793 562.773H497.785L497.773 562.68C497.516 560.594 495.723 558.578 492.688 558.578C489.301 558.578 487.062 561.039 487.062 564.883V564.895C487.062 568.773 489.254 571.234 492.711 571.234ZM499.848 571H501.887V566.406L503.023 565.316L507.547 571H509.914L504.465 564.074L509.75 558.812H507.277L501.934 564.191H501.887V554.09H499.848V571Z" fill="black"/>
    <rect x="807" y="248" width="302" height="102" rx="12" fill="#C1FCF0"/>
    <path d="M872.562 293H883.039V291.102H874.672V285.289H882.605V283.414H874.672V277.988H883.039V276.09H872.562V293ZM884.562 293H886.824L889.766 288.359H889.812L892.73 293H894.992L890.938 286.824L895.051 280.812H892.777L889.883 285.383H889.836L886.906 280.812H884.633L888.711 286.906L884.562 293ZM901.543 293.234C904.203 293.234 906.195 291.641 906.594 289.625L906.617 289.508H904.613L904.578 289.613C904.227 290.656 903.137 291.43 901.59 291.43C899.422 291.43 898.039 289.965 897.992 287.457H906.77V286.707C906.77 283.051 904.742 280.578 901.414 280.578C898.086 280.578 895.93 283.168 895.93 286.941V286.953C895.93 290.785 898.039 293.234 901.543 293.234ZM901.402 282.383C903.184 282.383 904.496 283.496 904.695 285.863H898.027C898.25 283.59 899.633 282.383 901.402 282.383ZM913.883 293.234C916.637 293.234 918.641 291.441 918.969 289.121L918.98 289.039H916.977L916.953 289.133C916.613 290.492 915.547 291.43 913.883 291.43C911.773 291.43 910.32 289.754 910.32 286.918V286.906C910.32 284.141 911.738 282.383 913.859 282.383C915.652 282.383 916.637 283.461 916.941 284.68L916.965 284.773H918.957L918.945 284.68C918.688 282.594 916.895 280.578 913.859 280.578C910.473 280.578 908.234 283.039 908.234 286.883V286.895C908.234 290.773 910.426 293.234 913.883 293.234ZM925.016 293.234C926.867 293.234 928.109 292.402 928.766 291.266H928.812V293H930.852V280.812H928.812V287.984C928.812 290.059 927.559 291.43 925.637 291.43C923.762 291.43 922.836 290.34 922.836 288.359V280.812H920.797V288.723C920.797 291.5 922.344 293.234 925.016 293.234ZM937.473 293.234C937.871 293.234 938.305 293.188 938.562 293.152V291.5C938.387 291.512 938.152 291.547 937.906 291.547C936.816 291.547 936.242 291.184 936.242 289.883V282.5H938.562V280.812H936.242V277.52H934.133V280.812H932.352V282.5H934.133V289.895C934.133 292.227 935.234 293.234 937.473 293.234ZM945.418 293.234C948.078 293.234 950.07 291.641 950.469 289.625L950.492 289.508H948.488L948.453 289.613C948.102 290.656 947.012 291.43 945.465 291.43C943.297 291.43 941.914 289.965 941.867 287.457H950.645V286.707C950.645 283.051 948.617 280.578 945.289 280.578C941.961 280.578 939.805 283.168 939.805 286.941V286.953C939.805 290.785 941.914 293.234 945.418 293.234ZM945.277 282.383C947.059 282.383 948.371 283.496 948.57 285.863H941.902C942.125 283.59 943.508 282.383 945.277 282.383ZM961.59 293.234C961.988 293.234 962.422 293.188 962.68 293.152V291.5C962.504 291.512 962.27 291.547 962.023 291.547C960.934 291.547 960.359 291.184 960.359 289.883V282.5H962.68V280.812H960.359V277.52H958.25V280.812H956.469V282.5H958.25V289.895C958.25 292.227 959.352 293.234 961.59 293.234ZM964.977 293H967.016V285.887C967.016 283.812 968.27 282.383 970.156 282.383C972.055 282.383 973.18 283.684 973.18 285.887V293H975.219V285.535C975.219 282.582 973.449 280.578 970.859 280.578C969.043 280.578 967.719 281.387 967.062 282.758H967.016V276.09H964.977V293ZM982.824 293.234C985.484 293.234 987.477 291.641 987.875 289.625L987.898 289.508H985.895L985.859 289.613C985.508 290.656 984.418 291.43 982.871 291.43C980.703 291.43 979.32 289.965 979.273 287.457H988.051V286.707C988.051 283.051 986.023 280.578 982.695 280.578C979.367 280.578 977.211 283.168 977.211 286.941V286.953C977.211 290.785 979.32 293.234 982.824 293.234ZM982.684 282.383C984.465 282.383 985.777 283.496 985.977 285.863H979.309C979.531 283.59 980.914 282.383 982.684 282.383ZM1000.09 293.234C1002.84 293.234 1004.84 291.441 1005.17 289.121L1005.18 289.039H1003.18L1003.16 289.133C1002.82 290.492 1001.75 291.43 1000.09 291.43C997.977 291.43 996.523 289.754 996.523 286.918V286.906C996.523 284.141 997.941 282.383 1000.06 282.383C1001.86 282.383 1002.84 283.461 1003.14 284.68L1003.17 284.773H1005.16L1005.15 284.68C1004.89 282.594 1003.1 280.578 1000.06 280.578C996.676 280.578 994.438 283.039 994.438 286.883V286.895C994.438 290.773 996.629 293.234 1000.09 293.234ZM1012.11 293.234C1015.47 293.234 1017.75 290.797 1017.75 286.906V286.883C1017.75 282.992 1015.46 280.578 1012.1 280.578C1008.73 280.578 1006.46 283.004 1006.46 286.883V286.906C1006.46 290.785 1008.72 293.234 1012.11 293.234ZM1012.12 291.43C1009.96 291.43 1008.55 289.777 1008.55 286.906V286.883C1008.55 284.035 1009.98 282.383 1012.1 282.383C1014.25 282.383 1015.66 284.023 1015.66 286.883V286.906C1015.66 289.766 1014.27 291.43 1012.12 291.43ZM1024.39 293.234C1026.14 293.234 1027.5 292.355 1028.26 290.938H1028.3V293H1030.34V276.09H1028.3V282.852H1028.26C1027.5 281.445 1026.08 280.578 1024.36 280.578C1021.3 280.578 1019.21 283.051 1019.21 286.895V286.906C1019.21 290.75 1021.27 293.234 1024.39 293.234ZM1024.79 291.43C1022.63 291.43 1021.3 289.707 1021.3 286.906V286.895C1021.3 284.117 1022.63 282.383 1024.79 282.383C1026.84 282.383 1028.32 284.176 1028.32 286.895V286.906C1028.32 289.637 1026.85 291.43 1024.79 291.43ZM1038.11 293.234C1040.77 293.234 1042.77 291.641 1043.16 289.625L1043.19 289.508H1041.18L1041.15 289.613C1040.8 290.656 1039.71 291.43 1038.16 291.43C1035.99 291.43 1034.61 289.965 1034.56 287.457H1043.34V286.707C1043.34 283.051 1041.31 280.578 1037.98 280.578C1034.66 280.578 1032.5 283.168 1032.5 286.941V286.953C1032.5 290.785 1034.61 293.234 1038.11 293.234ZM1037.97 282.383C1039.75 282.383 1041.07 283.496 1041.27 285.863H1034.6C1034.82 283.59 1036.2 282.383 1037.97 282.383ZM881.844 307.75C882.559 307.75 883.121 307.176 883.121 306.473C883.121 305.758 882.559 305.195 881.844 305.195C881.141 305.195 880.566 305.758 880.566 306.473C880.566 307.176 881.141 307.75 881.844 307.75ZM880.824 322H882.863V309.812H880.824V322ZM885.641 322H887.68V314.828C887.68 312.754 888.934 311.383 890.855 311.383C892.73 311.383 893.656 312.473 893.656 314.453V322H895.695V314.09C895.695 311.312 894.148 309.578 891.477 309.578C889.625 309.578 888.383 310.41 887.727 311.547H887.68V309.812H885.641V322ZM902.621 322.234C905.34 322.234 907.355 320.734 907.355 318.602V318.59C907.355 316.855 906.465 315.883 904.004 315.285L902.07 314.816C900.723 314.488 900.172 313.914 900.172 313.082V313.07C900.172 311.992 901.086 311.277 902.562 311.277C904.074 311.277 904.977 312.062 905.141 313.246L905.152 313.328H907.098L907.086 313.176C906.934 311.137 905.234 309.578 902.562 309.578C899.926 309.578 898.086 311.066 898.086 313.164V313.176C898.086 314.934 899.199 316 901.496 316.551L903.43 317.02C904.812 317.359 905.27 317.852 905.27 318.73V318.742C905.27 319.844 904.285 320.535 902.633 320.535C900.969 320.535 900.066 319.82 899.82 318.602L899.797 318.484H897.758L897.77 318.59C898.016 320.77 899.75 322.234 902.621 322.234ZM910.625 307.75C911.34 307.75 911.902 307.176 911.902 306.473C911.902 305.758 911.34 305.195 910.625 305.195C909.922 305.195 909.348 305.758 909.348 306.473C909.348 307.176 909.922 307.75 910.625 307.75ZM909.605 322H911.645V309.812H909.605V322ZM919.004 322.234C920.75 322.234 922.109 321.355 922.871 319.938H922.918V322H924.957V305.09H922.918V311.852H922.871C922.109 310.445 920.691 309.578 918.969 309.578C915.91 309.578 913.824 312.051 913.824 315.895V315.906C913.824 319.75 915.887 322.234 919.004 322.234ZM919.402 320.43C917.246 320.43 915.91 318.707 915.91 315.906V315.895C915.91 313.117 917.246 311.383 919.402 311.383C921.453 311.383 922.93 313.176 922.93 315.895V315.906C922.93 318.637 921.465 320.43 919.402 320.43ZM932.727 322.234C935.387 322.234 937.379 320.641 937.777 318.625L937.801 318.508H935.797L935.762 318.613C935.41 319.656 934.32 320.43 932.773 320.43C930.605 320.43 929.223 318.965 929.176 316.457H937.953V315.707C937.953 312.051 935.926 309.578 932.598 309.578C929.27 309.578 927.113 312.168 927.113 315.941V315.953C927.113 319.785 929.223 322.234 932.727 322.234ZM932.586 311.383C934.367 311.383 935.68 312.496 935.879 314.863H929.211C929.434 312.59 930.816 311.383 932.586 311.383ZM948.898 322.234C949.297 322.234 949.73 322.188 949.988 322.152V320.5C949.812 320.512 949.578 320.547 949.332 320.547C948.242 320.547 947.668 320.184 947.668 318.883V311.5H949.988V309.812H947.668V306.52H945.559V309.812H943.777V311.5H945.559V318.895C945.559 321.227 946.66 322.234 948.898 322.234ZM952.285 322H954.324V314.887C954.324 312.812 955.578 311.383 957.465 311.383C959.363 311.383 960.488 312.684 960.488 314.887V322H962.527V314.535C962.527 311.582 960.758 309.578 958.168 309.578C956.352 309.578 955.027 310.387 954.371 311.758H954.324V305.09H952.285V322ZM970.133 322.234C972.793 322.234 974.785 320.641 975.184 318.625L975.207 318.508H973.203L973.168 318.613C972.816 319.656 971.727 320.43 970.18 320.43C968.012 320.43 966.629 318.965 966.582 316.457H975.359V315.707C975.359 312.051 973.332 309.578 970.004 309.578C966.676 309.578 964.52 312.168 964.52 315.941V315.953C964.52 319.785 966.629 322.234 970.133 322.234ZM969.992 311.383C971.773 311.383 973.086 312.496 973.285 314.863H966.617C966.84 312.59 968.223 311.383 969.992 311.383ZM988.402 322.234C991.52 322.234 993.582 319.75 993.582 315.906V315.895C993.582 312.051 991.496 309.578 988.438 309.578C986.715 309.578 985.297 310.445 984.535 311.852H984.488V305.09H982.449V322H984.488V319.938H984.535C985.297 321.355 986.656 322.234 988.402 322.234ZM988.004 320.43C985.941 320.43 984.477 318.637 984.477 315.906V315.895C984.477 313.176 985.953 311.383 988.004 311.383C990.16 311.383 991.496 313.117 991.496 315.895V315.906C991.496 318.707 990.16 320.43 988.004 320.43ZM995.738 322H997.777V305.09H995.738V322ZM1005.58 322.234C1008.95 322.234 1011.22 319.797 1011.22 315.906V315.883C1011.22 311.992 1008.93 309.578 1005.57 309.578C1002.21 309.578 999.934 312.004 999.934 315.883V315.906C999.934 319.785 1002.2 322.234 1005.58 322.234ZM1005.59 320.43C1003.44 320.43 1002.02 318.777 1002.02 315.906V315.883C1002.02 313.035 1003.45 311.383 1005.57 311.383C1007.73 311.383 1009.13 313.023 1009.13 315.883V315.906C1009.13 318.766 1007.74 320.43 1005.59 320.43ZM1018.33 322.234C1021.09 322.234 1023.09 320.441 1023.42 318.121L1023.43 318.039H1021.43L1021.4 318.133C1021.06 319.492 1020 320.43 1018.33 320.43C1016.22 320.43 1014.77 318.754 1014.77 315.918V315.906C1014.77 313.141 1016.19 311.383 1018.31 311.383C1020.1 311.383 1021.09 312.461 1021.39 313.68L1021.41 313.773H1023.41L1023.39 313.68C1023.14 311.594 1021.34 309.578 1018.31 309.578C1014.92 309.578 1012.68 312.039 1012.68 315.883V315.895C1012.68 319.773 1014.88 322.234 1018.33 322.234ZM1025.47 322H1027.51V317.406L1028.64 316.316L1033.17 322H1035.54L1030.09 315.074L1035.37 309.812H1032.9L1027.55 315.191H1027.51V305.09H1025.47V322Z" fill="black"/>
    <path d="M408.852 308.281C412.391 308.281 415.098 306.184 415.742 302.949L415.766 302.832H413.633L413.598 302.938C412.859 305.164 411.219 306.336 408.852 306.336C405.488 306.336 403.297 303.652 403.297 299.539V299.527C403.297 295.414 405.477 292.754 408.852 292.754C411.23 292.754 412.895 293.949 413.551 296L413.633 296.258H415.766L415.742 296.141C415.098 292.941 412.367 290.809 408.852 290.809C404.141 290.809 401.129 294.207 401.129 299.527V299.539C401.129 304.859 404.152 308.281 408.852 308.281ZM422.996 308.234C426.359 308.234 428.633 305.797 428.633 301.906V301.883C428.633 297.992 426.348 295.578 422.984 295.578C419.621 295.578 417.348 298.004 417.348 301.883V301.906C417.348 305.785 419.609 308.234 422.996 308.234ZM423.008 306.43C420.852 306.43 419.434 304.777 419.434 301.906V301.883C419.434 299.035 420.863 297.383 422.984 297.383C425.141 297.383 426.547 299.023 426.547 301.883V301.906C426.547 304.766 425.152 306.43 423.008 306.43ZM430.695 308H432.734V300.828C432.734 298.754 433.988 297.383 435.91 297.383C437.785 297.383 438.711 298.473 438.711 300.453V308H440.75V300.09C440.75 297.312 439.203 295.578 436.531 295.578C434.68 295.578 433.438 296.41 432.781 297.547H432.734V295.812H430.695V308ZM447.934 308.234C449.68 308.234 451.039 307.355 451.801 305.938H451.848V308H453.887V291.09H451.848V297.852H451.801C451.039 296.445 449.621 295.578 447.898 295.578C444.84 295.578 442.754 298.051 442.754 301.895V301.906C442.754 305.75 444.816 308.234 447.934 308.234ZM448.332 306.43C446.176 306.43 444.84 304.707 444.84 301.906V301.895C444.84 299.117 446.176 297.383 448.332 297.383C450.383 297.383 451.859 299.176 451.859 301.895V301.906C451.859 304.637 450.395 306.43 448.332 306.43ZM457.789 293.75C458.504 293.75 459.066 293.176 459.066 292.473C459.066 291.758 458.504 291.195 457.789 291.195C457.086 291.195 456.512 291.758 456.512 292.473C456.512 293.176 457.086 293.75 457.789 293.75ZM456.77 308H458.809V295.812H456.77V308ZM465.547 308.234C465.945 308.234 466.379 308.188 466.637 308.152V306.5C466.461 306.512 466.227 306.547 465.98 306.547C464.891 306.547 464.316 306.184 464.316 304.883V297.5H466.637V295.812H464.316V292.52H462.207V295.812H460.426V297.5H462.207V304.895C462.207 307.227 463.309 308.234 465.547 308.234ZM469.977 293.75C470.691 293.75 471.254 293.176 471.254 292.473C471.254 291.758 470.691 291.195 469.977 291.195C469.273 291.195 468.699 291.758 468.699 292.473C468.699 293.176 469.273 293.75 469.977 293.75ZM468.957 308H470.996V295.812H468.957V308ZM478.824 308.234C482.188 308.234 484.461 305.797 484.461 301.906V301.883C484.461 297.992 482.176 295.578 478.812 295.578C475.449 295.578 473.176 298.004 473.176 301.883V301.906C473.176 305.785 475.438 308.234 478.824 308.234ZM478.836 306.43C476.68 306.43 475.262 304.777 475.262 301.906V301.883C475.262 299.035 476.691 297.383 478.812 297.383C480.969 297.383 482.375 299.023 482.375 301.883V301.906C482.375 304.766 480.98 306.43 478.836 306.43ZM486.523 308H488.562V300.828C488.562 298.754 489.816 297.383 491.738 297.383C493.613 297.383 494.539 298.473 494.539 300.453V308H496.578V300.09C496.578 297.312 495.031 295.578 492.359 295.578C490.508 295.578 489.266 296.41 488.609 297.547H488.562V295.812H486.523V308Z" fill="black"/>
</svg>
