<svg width="599" height="389" viewBox="0 0 599 389" fill="none" xmlns="http://www.w3.org/2000/svg">
    <rect x="0.978148" y="1.20791" width="142" height="94" transform="matrix(0.978148 0.207912 0 1 109.021 61.7966)" fill="white" stroke="#FFE000" stroke-width="2"/>
    <path d="M161.969 126.752C160.842 127.401 159.457 127.562 158.072 127.268C154.715 126.554 152.391 123.66 152.391 120.156C152.391 116.508 154.692 114.741 157.743 115.39C159.387 115.739 160.467 116.425 161.453 117.306L162.744 115.397C161.664 114.159 159.88 113.084 157.743 112.63C152.321 111.477 149.339 114.683 149.339 119.507C149.339 124.739 152.79 128.905 157.814 129.973C159.95 130.427 162.04 130.103 163.072 129.195L161.969 126.752ZM165.168 128.296C165.168 130.504 166.037 131.697 167.657 132.041C168.924 132.31 169.84 132.097 170.45 131.723L169.887 129.491C169.558 129.661 169.206 129.778 168.783 129.688C168.15 129.554 167.868 128.966 167.868 127.742V115.046L165.168 114.472V128.296ZM172.582 132.848L175.282 133.422V122.622L172.582 122.048V132.848ZM172.301 118.1C172.301 119.204 173.075 119.993 173.991 120.187C174.766 120.352 175.54 119.893 175.54 118.789C175.54 117.805 174.766 117.016 173.991 116.851C173.075 116.657 172.301 117.116 172.301 118.1ZM186.981 132.884C186.371 133.259 185.291 133.509 184 133.235C182.333 132.88 181.065 131.723 180.83 130.041L188.46 131.663C188.577 131.28 188.624 130.882 188.624 130.21C188.624 127.186 186.347 124.71 183.624 124.131C180.15 123.392 178.037 125.463 178.037 128.607C178.037 132.015 180.314 134.755 183.718 135.479C185.197 135.793 186.699 135.681 187.756 134.993L186.981 132.884ZM183.507 126.41C185.056 126.739 185.948 127.961 185.925 129.276L180.736 128.173C181.018 126.817 181.887 126.066 183.507 126.41ZM190.799 136.72L193.498 137.294V129.926C194.132 129.413 194.883 129.188 195.799 129.383C197.301 129.702 198.17 130.703 198.17 132.431V138.287L200.87 138.861V132.525C200.87 129.141 199.109 127.494 196.527 126.945C195.259 126.676 194.132 127.013 193.498 127.574V126.494L190.799 125.92V136.72ZM203.379 135.29C203.379 138.05 204.271 139.824 206.666 140.333C208.027 140.622 209.154 140.334 209.788 139.94L208.966 137.63C208.591 137.838 208.074 138.064 207.347 137.909C206.455 137.72 206.079 136.872 206.079 135.696V131.76L209.483 132.483V129.891L206.079 129.168V126.168L203.379 125.594V135.29Z" fill="#6C7991"/>
    <rect x="0.978148" y="1.20791" width="142" height="94" transform="matrix(0.978148 0.207912 0 1 350.021 61.7966)" fill="white" stroke="#7833FF" stroke-width="2"/>
    <path d="M397.453 123.956C397.453 125.228 396.421 125.704 395.059 125.415C393.791 125.145 392.242 124.192 391.279 122.716L389.636 124.382C390.434 126.256 392.899 127.716 395.012 128.165C398.087 128.819 400.505 127.413 400.505 124.581C400.505 118.989 393.064 118.511 393.064 115.031C393.064 113.927 393.932 113.367 395.364 113.672C396.679 113.951 397.477 114.577 398.275 115.538L399.824 113.66C398.839 112.346 397.148 111.291 395.129 110.862C391.937 110.183 390.012 111.886 390.012 114.406C390.012 119.878 397.453 120.644 397.453 123.956ZM411.345 128.349C410.734 128.723 409.655 128.973 408.363 128.699C406.697 128.345 405.429 127.187 405.194 125.505L412.824 127.127C412.941 126.744 412.988 126.346 412.988 125.674C412.988 122.65 410.711 120.174 407.988 119.595C404.513 118.856 402.401 120.927 402.401 124.071C402.401 127.479 404.678 130.219 408.082 130.943C409.561 131.257 411.063 131.145 412.119 130.457L411.345 128.349ZM407.87 121.874C409.42 122.203 410.312 123.425 410.288 124.74L405.1 123.637C405.382 122.281 406.251 121.53 407.87 121.874ZM415.162 132.184L417.862 132.758V125.51C418.167 124.951 418.66 124.527 419.599 124.727C420.163 124.847 420.444 125.003 420.961 125.425L421.923 123.037C421.571 122.698 421.149 122.464 420.28 122.28C419.012 122.01 418.355 122.423 417.862 123.014V121.958L415.162 121.384V132.184ZM433.298 125.239L430.457 124.635L428.626 128.83C428.344 129.466 428.039 130.385 427.851 131.161C427.664 130.281 427.335 129.251 427.053 128.543L425.105 123.497L421.889 122.814L426.748 134.695L428.743 135.119L433.298 125.239ZM442.638 135C442.027 135.374 440.948 135.625 439.656 135.35C437.99 134.996 436.722 133.839 436.487 132.157L444.117 133.778C444.234 133.395 444.281 132.997 444.281 132.325C444.281 129.301 442.004 126.825 439.281 126.247C435.806 125.508 433.694 127.579 433.694 130.723C433.694 134.131 435.971 136.871 439.375 137.594C440.854 137.909 442.356 137.796 443.413 137.109L442.638 135ZM439.163 128.526C440.713 128.855 441.605 130.077 441.581 131.392L436.393 130.289C436.675 128.933 437.544 128.181 439.163 128.526ZM446.456 138.836L449.155 139.409V132.161C449.46 131.602 449.953 131.179 450.892 131.379C451.456 131.498 451.738 131.654 452.254 132.076L453.216 129.689C452.864 129.35 452.442 129.116 451.573 128.931C450.306 128.662 449.648 129.074 449.155 129.665V128.609L446.456 128.036V138.836Z" fill="#7833FF"/>
    <path d="M436.72 104.216L437.942 98.5729L432.444 100.336L436.72 104.216ZM314.203 1.96209L314.261 1.4654L314.203 1.96209ZM232.205 16.4738L232.429 16.9207L232.205 16.4738ZM435.819 99.7698C427.215 74.3017 411.734 51.6728 391.051 34.4102L390.41 35.1779C410.952 52.3223 426.327 74.7962 434.872 100.09L435.819 99.7698ZM391.051 34.4102C369.211 16.1819 342.521 4.73127 314.261 1.4654L314.146 2.45879C342.212 5.70229 368.719 17.0745 390.41 35.1779L391.051 34.4102ZM314.261 1.4654C286.001 -1.80047 257.403 3.26071 231.98 16.027L232.429 16.9207C257.678 4.2418 286.08 -0.784716 314.146 2.45879L314.261 1.4654ZM231.98 16.027C206.558 28.7933 185.419 48.7085 171.161 73.3253L172.026 73.8265C186.187 49.3783 207.181 29.5995 232.429 16.9207L231.98 16.027Z" fill="#D3DBE6"/>
    <path d="M387.559 260.779L387.869 261.171L387.559 260.779ZM202.192 256.439L202.52 256.062L202.192 256.439ZM153.994 170.505L152.056 175.943L157.735 174.903L153.994 170.505ZM439.237 177.088C432.123 210.055 413.739 239.511 387.25 260.386L387.869 261.171C414.541 240.152 433.051 210.493 440.215 177.299L439.237 177.088ZM387.25 260.386C360.761 281.261 327.824 292.25 294.107 291.46L294.083 292.46C328.033 293.255 361.197 282.191 387.869 261.171L387.25 260.386ZM294.107 291.46C260.39 290.671 228.003 278.153 202.52 256.062L201.865 256.817C227.524 279.061 260.134 291.665 294.083 292.46L294.107 291.46ZM202.52 256.062C178.168 234.951 161.576 206.358 155.295 174.834L154.315 175.029C160.639 206.771 177.345 235.561 201.865 256.817L202.52 256.062Z" fill="#D3DBE6"/>
    <circle r="71.5" transform="matrix(0.978148 0.207912 0 1 227.427 278.97)" fill="white" stroke="#FFE000"/>
    <circle r="71.5" transform="matrix(0.978148 0.207912 0 1 211.427 279.97)" fill="white" stroke="#FFE000"/>
    <circle r="71.5" transform="matrix(0.978148 0.207912 0 1 195.427 280.97)" fill="white" stroke="#FFE000"/>
    <circle r="71" transform="matrix(0.978148 0.207912 0 1 179.427 281.97)" fill="#FFE000" stroke="#FFE000" stroke-width="2"/>
    <path d="M154.17 267.601L164.453 269.787V267.027L157.058 265.455V251.415L154.17 250.801V267.601ZM165.301 264.567C165.301 267.807 167.555 270.71 171.053 271.454C174.551 272.197 176.804 270.252 176.804 267.012C176.804 263.772 174.551 260.869 171.053 260.126C167.555 259.382 165.301 261.327 165.301 264.567ZM168.189 265.181C168.189 263.309 169.456 262.379 171.053 262.718C172.696 263.067 173.94 264.58 173.94 266.404C173.94 268.276 172.72 269.24 171.053 268.886C169.41 268.537 168.189 266.981 168.189 265.181ZM187.146 270.987C186.465 271.61 185.573 271.972 184.423 271.728C182.826 271.388 181.371 269.903 181.371 267.983C181.371 266.087 182.803 265.215 184.305 265.535C185.268 265.739 186.136 266.188 186.935 267.15L188.202 265.235C187.216 264.017 185.69 263.237 183.953 262.868C180.737 262.184 178.483 264.225 178.483 267.369C178.483 270.777 180.784 273.522 184.211 274.251C185.925 274.615 187.521 274.306 188.414 273.272L187.146 270.987ZM191.402 267.499C192.177 267.304 192.951 267.085 194.172 267.344C195.745 267.678 196.215 268.762 196.144 270.547C195.628 270.053 194.689 269.542 193.75 269.342C191.613 268.888 189.9 269.652 189.9 272.028C189.9 274.116 191.285 275.634 193.21 276.043C194.642 276.348 195.769 276.011 196.332 275.315V276.563L198.679 277.062V270.486C198.679 267.63 197.576 265.764 194.454 265.1C193.069 264.805 191.637 264.981 190.721 265.338L191.402 267.499ZM194.102 273.905C193.257 273.725 192.599 273.13 192.599 272.314C192.599 271.402 193.397 271.139 194.29 271.329C195.064 271.494 195.675 271.791 196.144 272.251V273.355C195.815 273.765 195.229 274.145 194.102 273.905ZM201.447 274.674C201.447 276.882 202.316 278.075 203.935 278.419C205.203 278.689 206.119 278.475 206.729 278.101L206.166 275.869C205.837 276.039 205.485 276.157 205.062 276.067C204.428 275.932 204.147 275.344 204.147 274.12V261.424L201.447 260.85V274.674ZM143.526 297.339L146.226 297.913V281.113L143.526 280.539V286.803C142.94 286.318 142.259 286.005 141.32 285.806C137.916 285.082 135.521 286.949 135.521 290.357C135.521 293.645 137.47 296.244 140.498 296.887C141.86 297.177 142.822 296.829 143.526 296.211V297.339ZM141.062 294.439C139.63 294.135 138.409 292.795 138.409 290.875C138.409 288.883 139.841 288.084 141.437 288.423C142.165 288.578 142.846 288.938 143.526 289.515V293.859C142.916 294.353 142.047 294.649 141.062 294.439ZM150.045 290.708C150.819 290.513 151.594 290.294 152.815 290.553C154.388 290.888 154.857 291.971 154.787 293.756C154.27 293.263 153.331 292.751 152.392 292.551C150.256 292.097 148.542 292.861 148.542 295.237C148.542 297.325 149.927 298.843 151.852 299.253C153.284 299.557 154.411 299.221 154.975 298.524V299.772L157.322 300.271V293.695C157.322 290.839 156.219 288.973 153.097 288.309C151.712 288.015 150.28 288.19 149.364 288.548L150.045 290.708ZM152.744 297.114C151.899 296.935 151.242 296.339 151.242 295.523C151.242 294.611 152.04 294.349 152.932 294.538C153.707 294.703 154.317 295.001 154.787 295.46V296.564C154.458 296.975 153.871 297.354 152.744 297.114ZM159.855 296.706C159.855 299.466 160.747 301.239 163.142 301.748C164.503 302.038 165.63 301.749 166.264 301.356L165.442 299.045C165.067 299.253 164.55 299.48 163.822 299.325C162.93 299.135 162.555 298.287 162.555 297.111V293.175L165.959 293.899V291.307L162.555 290.583V287.583L159.855 287.01V296.706ZM169.371 294.816C170.146 294.621 170.92 294.402 172.141 294.661C173.714 294.995 174.183 296.079 174.113 297.864C173.596 297.37 172.657 296.859 171.718 296.659C169.582 296.205 167.868 296.969 167.868 299.345C167.868 301.433 169.253 302.951 171.178 303.361C172.61 303.665 173.737 303.328 174.301 302.632V303.88L176.648 304.379V297.803C176.648 294.947 175.545 293.081 172.423 292.417C171.038 292.123 169.606 292.298 168.69 292.656L169.371 294.816ZM172.071 301.222C171.225 301.043 170.568 300.447 170.568 299.631C170.568 298.719 171.366 298.456 172.258 298.646C173.033 298.811 173.643 299.108 174.113 299.568V300.672C173.784 301.082 173.197 301.462 172.071 301.222ZM179.416 304.031C180.378 304.86 182.162 305.815 183.9 306.185C187.609 306.973 189.933 305.187 189.933 301.635C189.933 298.443 188.055 295.74 184.909 295.071C183.782 294.832 182.773 295.025 182.115 295.413V288.741L179.416 288.167V304.031ZM184.275 297.528C185.801 297.853 187.045 299.149 187.045 301.213C187.045 303.157 185.731 304.006 184.04 303.646C183.289 303.487 182.702 303.194 182.115 302.685V298.101C182.562 297.668 183.336 297.329 184.275 297.528ZM193.099 299.86C193.873 299.664 194.648 299.445 195.869 299.705C197.442 300.039 197.911 301.123 197.841 302.908C197.324 302.414 196.385 301.902 195.446 301.703C193.31 301.249 191.596 302.012 191.596 304.388C191.596 306.476 192.981 307.995 194.906 308.404C196.338 308.708 197.465 308.372 198.028 307.676V308.924L200.376 309.423V302.847C200.376 299.991 199.273 298.124 196.15 297.46C194.765 297.166 193.333 297.342 192.418 297.699L193.099 299.86ZM195.798 306.266C194.953 306.086 194.296 305.49 194.296 304.674C194.296 303.762 195.094 303.5 195.986 303.69C196.761 303.854 197.371 304.152 197.841 304.612V305.716C197.512 306.126 196.925 306.505 195.798 306.266ZM208.496 308.101C208.496 308.773 207.886 308.979 207.111 308.814C206.054 308.59 204.458 307.602 203.824 306.772L202.51 308.292C203.003 309.165 204.975 310.664 206.923 311.078C209.505 311.627 211.196 310.666 211.196 308.53C211.196 304.714 205.491 304.486 205.491 302.686C205.491 302.206 205.984 301.855 206.806 302.029C207.933 302.269 209.036 303.031 209.67 303.67L210.679 301.917C210.022 301.153 208.707 300.13 206.665 299.695C204.482 299.231 202.791 300.048 202.791 302.16C202.791 306.096 208.496 306.349 208.496 308.101ZM221.861 310.966C221.251 311.34 220.171 311.59 218.88 311.316C217.213 310.962 215.946 309.804 215.711 308.122L223.34 309.744C223.458 309.361 223.505 308.963 223.505 308.291C223.505 305.267 221.228 302.791 218.504 302.212C215.03 301.473 212.917 303.544 212.917 306.688C212.917 310.096 215.194 312.836 218.598 313.56C220.077 313.874 221.58 313.762 222.636 313.074L221.861 310.966ZM218.387 304.491C219.936 304.82 220.828 306.042 220.805 307.357L215.617 306.254C215.899 304.898 216.767 304.147 218.387 304.491Z" fill="#6C7991"/>
    <circle r="71.5" transform="matrix(0.978148 0.207912 0 1 420.427 278.97)" fill="white" stroke="#7833FF"/>
    <circle r="71.5" transform="matrix(0.978148 0.207912 0 1 404.427 279.97)" fill="white" stroke="#7833FF"/>
    <circle r="71.5" transform="matrix(0.978148 0.207912 0 1 388.427 280.97)" fill="white" stroke="#7833FF"/>
    <circle r="71" transform="matrix(0.978148 0.207912 0 1 372.427 281.97)" fill="#7833FF" stroke="#7833FF" stroke-width="2"/>
    <path d="M348.964 263.519C348.964 264.791 347.931 265.267 346.569 264.978C345.302 264.708 343.752 263.755 342.79 262.278L341.147 263.945C341.945 265.819 344.41 267.279 346.523 267.728C349.598 268.381 352.016 266.975 352.016 264.143C352.016 258.551 344.574 258.073 344.574 254.593C344.574 253.489 345.443 252.93 346.875 253.235C348.189 253.514 348.987 254.14 349.786 255.101L351.335 253.223C350.349 251.909 348.659 250.854 346.64 250.425C343.447 249.746 341.522 251.449 341.522 253.969C341.522 259.441 348.964 260.207 348.964 263.519ZM362.855 267.911C362.245 268.286 361.165 268.536 359.874 268.262C358.207 267.907 356.939 266.75 356.705 265.068L364.334 266.69C364.452 266.307 364.499 265.909 364.499 265.237C364.499 262.213 362.221 259.737 359.498 259.158C356.024 258.419 353.911 260.49 353.911 263.634C353.911 267.042 356.188 269.782 359.592 270.506C361.071 270.82 362.574 270.707 363.63 270.02L362.855 267.911ZM359.381 261.437C360.93 261.766 361.822 262.988 361.799 264.303L356.611 263.2C356.892 261.844 357.761 261.092 359.381 261.437ZM366.673 271.747L369.373 272.321V265.073C369.678 264.513 370.171 264.09 371.11 264.29C371.673 264.41 371.955 264.565 372.471 264.987L373.434 262.6C373.082 262.261 372.659 262.027 371.791 261.843C370.523 261.573 369.866 261.985 369.373 262.577V261.521L366.673 260.947V271.747ZM384.808 264.802L381.968 264.198L380.137 268.393C379.855 269.029 379.55 269.948 379.362 270.724C379.174 269.844 378.845 268.814 378.564 268.106L376.615 263.06L373.399 262.376L378.259 274.257L380.254 274.681L384.808 264.802ZM394.148 274.563C393.538 274.937 392.458 275.188 391.167 274.913C389.5 274.559 388.233 273.401 387.998 271.719L395.627 273.341C395.745 272.958 395.792 272.56 395.792 271.888C395.792 268.864 393.515 266.388 390.791 265.809C387.317 265.071 385.204 267.142 385.204 270.286C385.204 273.694 387.481 276.434 390.885 277.157C392.364 277.472 393.867 277.359 394.923 276.672L394.148 274.563ZM390.674 268.088C392.223 268.418 393.115 269.639 393.092 270.954L387.904 269.852C388.186 268.495 389.054 267.744 390.674 268.088ZM397.966 278.398L400.666 278.972V271.724C400.971 271.165 401.464 270.742 402.403 270.941C402.966 271.061 403.248 271.217 403.765 271.639L404.727 269.251C404.375 268.913 403.952 268.679 403.084 268.494C401.816 268.225 401.159 268.637 400.666 269.228V268.172L397.966 267.598V278.398ZM336.526 297.339L339.226 297.913V281.113L336.526 280.539V286.803C335.94 286.318 335.259 286.005 334.32 285.806C330.916 285.082 328.521 286.949 328.521 290.357C328.521 293.645 330.47 296.244 333.498 296.887C334.86 297.177 335.822 296.829 336.526 296.211V297.339ZM334.062 294.439C332.63 294.135 331.409 292.795 331.409 290.875C331.409 288.883 332.841 288.084 334.437 288.423C335.165 288.578 335.846 288.938 336.526 289.515V293.859C335.916 294.353 335.047 294.649 334.062 294.439ZM343.045 290.708C343.819 290.513 344.594 290.294 345.815 290.553C347.388 290.888 347.857 291.971 347.787 293.756C347.27 293.263 346.331 292.751 345.392 292.551C343.256 292.097 341.542 292.861 341.542 295.237C341.542 297.325 342.927 298.843 344.852 299.253C346.284 299.557 347.411 299.221 347.975 298.524V299.772L350.322 300.271V293.695C350.322 290.839 349.219 288.973 346.097 288.309C344.712 288.015 343.28 288.19 342.364 288.548L343.045 290.708ZM345.744 297.114C344.899 296.935 344.242 296.339 344.242 295.523C344.242 294.611 345.04 294.349 345.932 294.538C346.707 294.703 347.317 295.001 347.787 295.46V296.564C347.458 296.975 346.871 297.354 345.744 297.114ZM352.855 296.706C352.855 299.466 353.747 301.239 356.142 301.748C357.503 302.038 358.63 301.749 359.264 301.356L358.442 299.045C358.067 299.253 357.55 299.48 356.822 299.325C355.93 299.135 355.555 298.287 355.555 297.111V293.175L358.959 293.899V291.307L355.555 290.583V287.583L352.855 287.01V296.706ZM362.371 294.816C363.146 294.621 363.92 294.402 365.141 294.661C366.714 294.995 367.183 296.079 367.113 297.864C366.596 297.37 365.657 296.859 364.718 296.659C362.582 296.205 360.868 296.969 360.868 299.345C360.868 301.433 362.253 302.951 364.178 303.361C365.61 303.665 366.737 303.328 367.301 302.632V303.88L369.648 304.379V297.803C369.648 294.947 368.545 293.081 365.423 292.417C364.038 292.123 362.606 292.298 361.69 292.656L362.371 294.816ZM365.071 301.222C364.225 301.043 363.568 300.447 363.568 299.631C363.568 298.719 364.366 298.456 365.258 298.646C366.033 298.811 366.643 299.108 367.113 299.568V300.672C366.784 301.082 366.197 301.462 365.071 301.222ZM372.416 304.031C373.378 304.86 375.162 305.815 376.9 306.185C380.609 306.973 382.933 305.187 382.933 301.635C382.933 298.443 381.055 295.74 377.909 295.071C376.782 294.832 375.773 295.025 375.115 295.413V288.741L372.416 288.167V304.031ZM377.275 297.528C378.801 297.853 380.045 299.149 380.045 301.213C380.045 303.157 378.731 304.006 377.04 303.646C376.289 303.487 375.702 303.194 375.115 302.685V298.101C375.562 297.668 376.336 297.329 377.275 297.528ZM386.099 299.86C386.873 299.664 387.648 299.445 388.869 299.705C390.442 300.039 390.911 301.123 390.841 302.908C390.324 302.414 389.385 301.902 388.446 301.703C386.31 301.249 384.596 302.012 384.596 304.388C384.596 306.476 385.981 307.995 387.906 308.404C389.338 308.708 390.465 308.372 391.028 307.676V308.924L393.376 309.423V302.847C393.376 299.991 392.273 298.124 389.15 297.46C387.765 297.166 386.333 297.342 385.418 297.699L386.099 299.86ZM388.798 306.266C387.953 306.086 387.296 305.49 387.296 304.674C387.296 303.762 388.094 303.5 388.986 303.69C389.761 303.854 390.371 304.152 390.841 304.612V305.716C390.512 306.126 389.925 306.505 388.798 306.266ZM401.496 308.101C401.496 308.773 400.886 308.979 400.111 308.814C399.054 308.59 397.458 307.602 396.824 306.772L395.51 308.292C396.003 309.165 397.975 310.664 399.923 311.078C402.505 311.627 404.196 310.666 404.196 308.53C404.196 304.714 398.491 304.486 398.491 302.686C398.491 302.206 398.984 301.855 399.806 302.029C400.933 302.269 402.036 303.031 402.67 303.67L403.679 301.917C403.022 301.153 401.707 300.13 399.665 299.695C397.482 299.231 395.791 300.048 395.791 302.16C395.791 306.096 401.496 306.349 401.496 308.101ZM414.861 310.966C414.251 311.34 413.171 311.59 411.88 311.316C410.213 310.962 408.946 309.804 408.711 308.122L416.34 309.744C416.458 309.361 416.505 308.963 416.505 308.291C416.505 305.267 414.228 302.791 411.504 302.212C408.03 301.473 405.917 303.544 405.917 306.688C405.917 310.096 408.194 312.836 411.598 313.56C413.077 313.874 414.58 313.762 415.636 313.074L414.861 310.966ZM411.387 304.491C412.936 304.82 413.828 306.042 413.805 307.357L408.617 306.254C408.899 304.898 409.767 304.147 411.387 304.491Z" fill="white"/>
</svg>
