<svg width="600" height="600" viewBox="0 0 600 600" fill="none" xmlns="http://www.w3.org/2000/svg">
    <path d="M45.4927 449.602C45.3525 435.145 54.8356 420.662 73.9419 409.631C111.876 387.729 173.38 387.729 211.314 409.631C230.42 420.662 239.903 435.145 239.763 449.602C239.765 449.813 239.765 450.024 239.763 450.235C239.765 450.445 239.765 450.656 239.763 450.867C239.765 451.077 239.765 451.288 239.763 451.499C239.765 451.709 239.765 451.92 239.763 452.13C239.765 452.341 239.765 452.552 239.763 452.762C239.763 452.809 239.764 452.855 239.764 452.901C239.764 452.942 239.764 452.983 239.764 453.024C239.765 453.147 239.764 453.271 239.763 453.394C239.765 453.605 239.765 453.816 239.763 454.026C239.764 454.131 239.765 454.236 239.765 454.34L239.764 454.435C239.764 454.471 239.764 454.506 239.764 454.542C239.764 454.581 239.763 454.619 239.763 454.658C239.764 454.782 239.765 454.906 239.764 455.029C239.764 455.116 239.764 455.203 239.763 455.29C239.765 455.501 239.765 455.712 239.763 455.922C239.764 456.012 239.764 456.101 239.765 456.19C239.765 456.312 239.764 456.433 239.763 456.554C239.765 456.765 239.765 456.976 239.763 457.186C239.765 457.397 239.765 457.608 239.763 457.818C239.765 458.029 239.765 458.239 239.763 458.45C239.765 458.661 239.765 458.871 239.763 459.082C239.765 459.293 239.765 459.503 239.763 459.714C239.765 459.925 239.765 460.135 239.763 460.346L239.764 460.407L239.764 460.491C239.764 460.532 239.764 460.573 239.765 460.614C239.765 460.736 239.764 460.857 239.763 460.978C239.765 461.189 239.765 461.399 239.763 461.61C239.765 461.821 239.765 462.031 239.763 462.242C239.765 462.453 239.765 462.663 239.763 462.874C239.765 463.085 239.765 463.295 239.763 463.506C239.765 463.717 239.765 463.927 239.763 464.138C239.765 464.348 239.765 464.559 239.763 464.77C239.765 464.98 239.765 465.191 239.763 465.402C239.765 465.612 239.765 465.823 239.763 466.034C239.764 466.139 239.765 466.244 239.765 466.349C239.765 466.455 239.764 466.56 239.763 466.666C239.765 466.876 239.765 467.087 239.763 467.298C239.765 467.508 239.765 467.719 239.763 467.93C239.764 468.021 239.764 468.113 239.765 468.205C239.765 468.324 239.764 468.443 239.763 468.562C239.765 468.772 239.765 468.983 239.763 469.194C239.765 469.404 239.765 469.615 239.763 469.826C239.765 470.036 239.765 470.247 239.763 470.458C239.765 470.668 239.765 470.879 239.763 471.089C239.765 471.3 239.765 471.511 239.763 471.721C239.765 471.932 239.765 472.143 239.763 472.353C239.763 472.395 239.764 472.437 239.764 472.478L239.764 472.568C239.765 472.707 239.764 472.846 239.763 472.985C239.765 473.196 239.765 473.407 239.763 473.617C239.765 473.828 239.765 474.039 239.763 474.249C239.765 474.46 239.765 474.671 239.763 474.881C239.765 475.092 239.765 475.303 239.763 475.513C239.765 475.724 239.765 475.935 239.763 476.145C239.765 476.356 239.765 476.566 239.763 476.777C239.765 476.988 239.765 477.198 239.763 477.409C239.765 477.62 239.765 477.83 239.763 478.041C239.765 478.252 239.765 478.462 239.763 478.673C239.765 478.884 239.765 479.094 239.763 479.305C239.765 479.516 239.765 479.726 239.763 479.937C239.903 494.395 230.42 508.878 211.314 519.909C173.38 541.81 111.876 541.81 73.9419 519.909C54.8356 508.878 45.3525 494.395 45.4927 479.937C45.4907 479.726 45.4907 479.516 45.4927 479.305C45.4907 479.094 45.4907 478.884 45.4927 478.673C45.4907 478.462 45.4907 478.252 45.4927 478.041C45.4907 477.83 45.4907 477.62 45.4927 477.409C45.4907 477.198 45.4907 476.988 45.4927 476.777C45.4907 476.566 45.4907 476.356 45.4927 476.145C45.4907 475.934 45.4907 475.724 45.4927 475.513C45.4907 475.302 45.4907 475.092 45.4927 474.881C45.4907 474.67 45.4907 474.46 45.4927 474.249C45.4907 474.038 45.4907 473.828 45.4927 473.617C45.4907 473.407 45.4907 473.196 45.4927 472.985C45.4907 472.775 45.4907 472.564 45.4927 472.353C45.4907 472.143 45.4907 471.932 45.4927 471.721C45.4907 471.511 45.4907 471.3 45.4927 471.089C45.4907 470.879 45.4907 470.668 45.4927 470.457C45.4907 470.247 45.4907 470.036 45.4927 469.825C45.4907 469.615 45.4907 469.404 45.4927 469.193C45.4907 468.983 45.4907 468.772 45.4927 468.561C45.4907 468.351 45.4907 468.14 45.4927 467.929C45.4907 467.719 45.4907 467.508 45.4927 467.297C45.4907 467.087 45.4907 466.876 45.4927 466.666C45.4907 466.455 45.4907 466.244 45.4927 466.034C45.4907 465.823 45.4907 465.612 45.4927 465.402C45.4907 465.191 45.4907 464.98 45.4927 464.77C45.4907 464.559 45.4907 464.348 45.4927 464.138C45.4907 463.927 45.4907 463.716 45.4927 463.506C45.4907 463.295 45.4907 463.084 45.4927 462.874C45.4907 462.663 45.4907 462.452 45.4927 462.242C45.4907 462.031 45.4907 461.82 45.4927 461.61C45.4907 461.399 45.4907 461.188 45.4927 460.978C45.4907 460.767 45.4907 460.557 45.4927 460.346C45.4907 460.135 45.4907 459.925 45.4927 459.714C45.4907 459.503 45.4907 459.293 45.4927 459.082C45.4907 458.871 45.4907 458.661 45.4927 458.45C45.4907 458.239 45.4907 458.029 45.4927 457.818C45.4907 457.607 45.4907 457.397 45.4927 457.186C45.4907 456.975 45.4907 456.765 45.4927 456.554C45.4907 456.343 45.4907 456.133 45.4927 455.922C45.4907 455.711 45.4907 455.501 45.4927 455.29C45.4907 455.079 45.4907 454.869 45.4927 454.658C45.4907 454.448 45.4907 454.237 45.4927 454.026C45.4907 453.816 45.4907 453.605 45.4927 453.394C45.4907 453.184 45.4907 452.973 45.4927 452.762C45.4907 452.552 45.4907 452.341 45.4927 452.13C45.4907 451.92 45.4907 451.709 45.4927 451.498C45.4907 451.288 45.4907 451.077 45.4927 450.866C45.4907 450.656 45.4907 450.445 45.4927 450.234C45.4907 450.024 45.4907 449.813 45.4927 449.602Z" fill="#FDDE4F"/>
    <path d="M45.4927 449.602C45.3525 435.145 54.8356 420.662 73.9419 409.631C111.876 387.729 173.38 387.729 211.314 409.631C230.42 420.662 239.903 435.145 239.763 449.602C239.765 449.813 239.765 450.024 239.763 450.235C239.765 450.445 239.765 450.656 239.763 450.867C239.765 451.077 239.765 451.288 239.763 451.499C239.765 451.709 239.765 451.92 239.763 452.13C239.765 452.341 239.765 452.552 239.763 452.762C239.763 452.809 239.764 452.855 239.764 452.901C239.764 452.942 239.764 452.983 239.764 453.024C239.765 453.147 239.764 453.271 239.763 453.394C239.765 453.605 239.765 453.816 239.763 454.026C239.764 454.131 239.765 454.236 239.765 454.34L239.764 454.435C239.764 454.471 239.764 454.506 239.764 454.542C239.764 454.581 239.763 454.619 239.763 454.658C239.764 454.782 239.765 454.906 239.764 455.029C239.764 455.116 239.764 455.203 239.763 455.29C239.765 455.501 239.765 455.712 239.763 455.922C239.764 456.012 239.764 456.101 239.765 456.19C239.765 456.312 239.764 456.433 239.763 456.554C239.765 456.765 239.765 456.976 239.763 457.186C239.765 457.397 239.765 457.608 239.763 457.818C239.765 458.029 239.765 458.239 239.763 458.45C239.765 458.661 239.765 458.871 239.763 459.082C239.765 459.293 239.765 459.503 239.763 459.714C239.765 459.925 239.765 460.135 239.763 460.346L239.764 460.407L239.764 460.491C239.764 460.532 239.764 460.573 239.765 460.614C239.765 460.736 239.764 460.857 239.763 460.978C239.765 461.189 239.765 461.399 239.763 461.61C239.765 461.821 239.765 462.031 239.763 462.242C239.765 462.453 239.765 462.663 239.763 462.874C239.765 463.085 239.765 463.295 239.763 463.506C239.765 463.717 239.765 463.927 239.763 464.138C239.765 464.348 239.765 464.559 239.763 464.77C239.765 464.98 239.765 465.191 239.763 465.402C239.765 465.612 239.765 465.823 239.763 466.034C239.764 466.139 239.765 466.244 239.765 466.349C239.765 466.455 239.764 466.56 239.763 466.666C239.765 466.876 239.765 467.087 239.763 467.298C239.765 467.508 239.765 467.719 239.763 467.93C239.764 468.021 239.764 468.113 239.765 468.205C239.765 468.324 239.764 468.443 239.763 468.562C239.765 468.772 239.765 468.983 239.763 469.194C239.765 469.404 239.765 469.615 239.763 469.826C239.765 470.036 239.765 470.247 239.763 470.458C239.765 470.668 239.765 470.879 239.763 471.089C239.765 471.3 239.765 471.511 239.763 471.721C239.765 471.932 239.765 472.143 239.763 472.353C239.763 472.395 239.764 472.437 239.764 472.478L239.764 472.568C239.765 472.707 239.764 472.846 239.763 472.985C239.765 473.196 239.765 473.407 239.763 473.617C239.765 473.828 239.765 474.039 239.763 474.249C239.765 474.46 239.765 474.671 239.763 474.881C239.765 475.092 239.765 475.303 239.763 475.513C239.765 475.724 239.765 475.935 239.763 476.145C239.765 476.356 239.765 476.566 239.763 476.777C239.765 476.988 239.765 477.198 239.763 477.409C239.765 477.62 239.765 477.83 239.763 478.041C239.765 478.252 239.765 478.462 239.763 478.673C239.765 478.884 239.765 479.094 239.763 479.305C239.765 479.516 239.765 479.726 239.763 479.937C239.903 494.395 230.42 508.878 211.314 519.909C173.38 541.81 111.876 541.81 73.9419 519.909C54.8356 508.878 45.3525 494.395 45.4927 479.937C45.4907 479.726 45.4907 479.516 45.4927 479.305C45.4907 479.094 45.4907 478.884 45.4927 478.673C45.4907 478.462 45.4907 478.252 45.4927 478.041C45.4907 477.83 45.4907 477.62 45.4927 477.409C45.4907 477.198 45.4907 476.988 45.4927 476.777C45.4907 476.566 45.4907 476.356 45.4927 476.145C45.4907 475.934 45.4907 475.724 45.4927 475.513C45.4907 475.302 45.4907 475.092 45.4927 474.881C45.4907 474.67 45.4907 474.46 45.4927 474.249C45.4907 474.038 45.4907 473.828 45.4927 473.617C45.4907 473.407 45.4907 473.196 45.4927 472.985C45.4907 472.775 45.4907 472.564 45.4927 472.353C45.4907 472.143 45.4907 471.932 45.4927 471.721C45.4907 471.511 45.4907 471.3 45.4927 471.089C45.4907 470.879 45.4907 470.668 45.4927 470.457C45.4907 470.247 45.4907 470.036 45.4927 469.825C45.4907 469.615 45.4907 469.404 45.4927 469.193C45.4907 468.983 45.4907 468.772 45.4927 468.561C45.4907 468.351 45.4907 468.14 45.4927 467.929C45.4907 467.719 45.4907 467.508 45.4927 467.297C45.4907 467.087 45.4907 466.876 45.4927 466.666C45.4907 466.455 45.4907 466.244 45.4927 466.034C45.4907 465.823 45.4907 465.612 45.4927 465.402C45.4907 465.191 45.4907 464.98 45.4927 464.77C45.4907 464.559 45.4907 464.348 45.4927 464.138C45.4907 463.927 45.4907 463.716 45.4927 463.506C45.4907 463.295 45.4907 463.084 45.4927 462.874C45.4907 462.663 45.4907 462.452 45.4927 462.242C45.4907 462.031 45.4907 461.82 45.4927 461.61C45.4907 461.399 45.4907 461.188 45.4927 460.978C45.4907 460.767 45.4907 460.557 45.4927 460.346C45.4907 460.135 45.4907 459.925 45.4927 459.714C45.4907 459.503 45.4907 459.293 45.4927 459.082C45.4907 458.871 45.4907 458.661 45.4927 458.45C45.4907 458.239 45.4907 458.029 45.4927 457.818C45.4907 457.607 45.4907 457.397 45.4927 457.186C45.4907 456.975 45.4907 456.765 45.4927 456.554C45.4907 456.343 45.4907 456.133 45.4927 455.922C45.4907 455.711 45.4907 455.501 45.4927 455.29C45.4907 455.079 45.4907 454.869 45.4927 454.658C45.4907 454.448 45.4907 454.237 45.4927 454.026C45.4907 453.816 45.4907 453.605 45.4927 453.394C45.4907 453.184 45.4907 452.973 45.4927 452.762C45.4907 452.552 45.4907 452.341 45.4927 452.13C45.4907 451.92 45.4907 451.709 45.4927 451.498C45.4907 451.288 45.4907 451.077 45.4927 450.866C45.4907 450.656 45.4907 450.445 45.4927 450.234C45.4907 450.024 45.4907 449.813 45.4927 449.602Z" fill="url(#paint0_linear)"/>
    <circle r="79.3118" transform="matrix(0.866025 0.5 -0.866025 0.5 142.628 448.654)" fill="#3C4257"/>
    <ellipse cx="65.294" cy="498.11" rx="5.05573" ry="5.6877" fill="#3C4257"/>
    <path d="M45.4927 399.602C45.3525 385.145 54.8356 370.662 73.9419 359.631C111.876 337.729 173.38 337.729 211.314 359.631C230.42 370.662 239.903 385.145 239.763 399.602C239.765 399.813 239.765 400.024 239.763 400.235C239.765 400.445 239.765 400.656 239.763 400.867C239.765 401.077 239.765 401.288 239.763 401.499C239.765 401.709 239.765 401.92 239.763 402.13C239.765 402.341 239.765 402.552 239.763 402.762C239.763 402.809 239.764 402.855 239.764 402.901C239.764 402.942 239.764 402.983 239.764 403.024C239.765 403.147 239.764 403.271 239.763 403.394C239.765 403.605 239.765 403.816 239.763 404.026C239.764 404.131 239.765 404.236 239.765 404.34L239.764 404.435C239.764 404.471 239.764 404.506 239.764 404.542C239.764 404.581 239.763 404.619 239.763 404.658C239.764 404.782 239.765 404.906 239.764 405.029C239.764 405.116 239.764 405.203 239.763 405.29C239.765 405.501 239.765 405.712 239.763 405.922C239.764 406.012 239.764 406.101 239.765 406.19C239.765 406.312 239.764 406.433 239.763 406.554C239.765 406.765 239.765 406.976 239.763 407.186C239.765 407.397 239.765 407.608 239.763 407.818C239.765 408.029 239.765 408.239 239.763 408.45C239.765 408.661 239.765 408.871 239.763 409.082C239.765 409.293 239.765 409.503 239.763 409.714C239.765 409.925 239.765 410.135 239.763 410.346L239.764 410.407L239.764 410.491C239.764 410.532 239.764 410.573 239.765 410.614C239.765 410.736 239.764 410.857 239.763 410.978C239.765 411.189 239.765 411.399 239.763 411.61C239.765 411.821 239.765 412.031 239.763 412.242C239.765 412.453 239.765 412.663 239.763 412.874C239.765 413.085 239.765 413.295 239.763 413.506C239.765 413.717 239.765 413.927 239.763 414.138C239.765 414.348 239.765 414.559 239.763 414.77C239.765 414.98 239.765 415.191 239.763 415.402C239.765 415.612 239.765 415.823 239.763 416.034C239.764 416.139 239.765 416.244 239.765 416.349C239.765 416.455 239.764 416.56 239.763 416.666C239.765 416.876 239.765 417.087 239.763 417.298C239.765 417.508 239.765 417.719 239.763 417.93C239.764 418.021 239.764 418.113 239.765 418.205C239.765 418.324 239.764 418.443 239.763 418.562C239.765 418.772 239.765 418.983 239.763 419.194C239.765 419.404 239.765 419.615 239.763 419.826C239.765 420.036 239.765 420.247 239.763 420.458C239.765 420.668 239.765 420.879 239.763 421.089C239.765 421.3 239.765 421.511 239.763 421.721C239.765 421.932 239.765 422.143 239.763 422.353C239.763 422.395 239.764 422.437 239.764 422.478L239.764 422.568C239.765 422.707 239.764 422.846 239.763 422.985C239.765 423.196 239.765 423.407 239.763 423.617C239.765 423.828 239.765 424.039 239.763 424.249C239.765 424.46 239.765 424.671 239.763 424.881C239.765 425.092 239.765 425.303 239.763 425.513C239.765 425.724 239.765 425.935 239.763 426.145C239.765 426.356 239.765 426.566 239.763 426.777C239.765 426.988 239.765 427.198 239.763 427.409C239.765 427.62 239.765 427.83 239.763 428.041C239.765 428.252 239.765 428.462 239.763 428.673C239.765 428.884 239.765 429.094 239.763 429.305C239.765 429.516 239.765 429.726 239.763 429.937C239.903 444.395 230.42 458.878 211.314 469.909C173.38 491.81 111.876 491.81 73.9419 469.909C54.8356 458.878 45.3525 444.395 45.4927 429.937C45.4907 429.726 45.4907 429.516 45.4927 429.305C45.4907 429.094 45.4907 428.884 45.4927 428.673C45.4907 428.462 45.4907 428.252 45.4927 428.041C45.4907 427.83 45.4907 427.62 45.4927 427.409C45.4907 427.198 45.4907 426.988 45.4927 426.777C45.4907 426.566 45.4907 426.356 45.4927 426.145C45.4907 425.934 45.4907 425.724 45.4927 425.513C45.4907 425.302 45.4907 425.092 45.4927 424.881C45.4907 424.67 45.4907 424.46 45.4927 424.249C45.4907 424.038 45.4907 423.828 45.4927 423.617C45.4907 423.407 45.4907 423.196 45.4927 422.985C45.4907 422.775 45.4907 422.564 45.4927 422.353C45.4907 422.143 45.4907 421.932 45.4927 421.721C45.4907 421.511 45.4907 421.3 45.4927 421.089C45.4907 420.879 45.4907 420.668 45.4927 420.457C45.4907 420.247 45.4907 420.036 45.4927 419.825C45.4907 419.615 45.4907 419.404 45.4927 419.193C45.4907 418.983 45.4907 418.772 45.4927 418.561C45.4907 418.351 45.4907 418.14 45.4927 417.929C45.4907 417.719 45.4907 417.508 45.4927 417.297C45.4907 417.087 45.4907 416.876 45.4927 416.666C45.4907 416.455 45.4907 416.244 45.4927 416.034C45.4907 415.823 45.4907 415.612 45.4927 415.402C45.4907 415.191 45.4907 414.98 45.4927 414.77C45.4907 414.559 45.4907 414.348 45.4927 414.138C45.4907 413.927 45.4907 413.716 45.4927 413.506C45.4907 413.295 45.4907 413.084 45.4927 412.874C45.4907 412.663 45.4907 412.452 45.4927 412.242C45.4907 412.031 45.4907 411.82 45.4927 411.61C45.4907 411.399 45.4907 411.188 45.4927 410.978C45.4907 410.767 45.4907 410.557 45.4927 410.346C45.4907 410.135 45.4907 409.925 45.4927 409.714C45.4907 409.503 45.4907 409.293 45.4927 409.082C45.4907 408.871 45.4907 408.661 45.4927 408.45C45.4907 408.239 45.4907 408.029 45.4927 407.818C45.4907 407.607 45.4907 407.397 45.4927 407.186C45.4907 406.975 45.4907 406.765 45.4927 406.554C45.4907 406.343 45.4907 406.133 45.4927 405.922C45.4907 405.711 45.4907 405.501 45.4927 405.29C45.4907 405.079 45.4907 404.869 45.4927 404.658C45.4907 404.448 45.4907 404.237 45.4927 404.026C45.4907 403.816 45.4907 403.605 45.4927 403.394C45.4907 403.184 45.4907 402.973 45.4927 402.762C45.4907 402.552 45.4907 402.341 45.4927 402.13C45.4907 401.92 45.4907 401.709 45.4927 401.498C45.4907 401.288 45.4907 401.077 45.4927 400.866C45.4907 400.656 45.4907 400.445 45.4927 400.234C45.4907 400.024 45.4907 399.813 45.4927 399.602Z" fill="#FDDE4F"/>
    <path d="M45.4927 399.602C45.3525 385.145 54.8356 370.662 73.9419 359.631C111.876 337.729 173.38 337.729 211.314 359.631C230.42 370.662 239.903 385.145 239.763 399.602C239.765 399.813 239.765 400.024 239.763 400.235C239.765 400.445 239.765 400.656 239.763 400.867C239.765 401.077 239.765 401.288 239.763 401.499C239.765 401.709 239.765 401.92 239.763 402.13C239.765 402.341 239.765 402.552 239.763 402.762C239.763 402.809 239.764 402.855 239.764 402.901C239.764 402.942 239.764 402.983 239.764 403.024C239.765 403.147 239.764 403.271 239.763 403.394C239.765 403.605 239.765 403.816 239.763 404.026C239.764 404.131 239.765 404.236 239.765 404.34L239.764 404.435C239.764 404.471 239.764 404.506 239.764 404.542C239.764 404.581 239.763 404.619 239.763 404.658C239.764 404.782 239.765 404.906 239.764 405.029C239.764 405.116 239.764 405.203 239.763 405.29C239.765 405.501 239.765 405.712 239.763 405.922C239.764 406.012 239.764 406.101 239.765 406.19C239.765 406.312 239.764 406.433 239.763 406.554C239.765 406.765 239.765 406.976 239.763 407.186C239.765 407.397 239.765 407.608 239.763 407.818C239.765 408.029 239.765 408.239 239.763 408.45C239.765 408.661 239.765 408.871 239.763 409.082C239.765 409.293 239.765 409.503 239.763 409.714C239.765 409.925 239.765 410.135 239.763 410.346L239.764 410.407L239.764 410.491C239.764 410.532 239.764 410.573 239.765 410.614C239.765 410.736 239.764 410.857 239.763 410.978C239.765 411.189 239.765 411.399 239.763 411.61C239.765 411.821 239.765 412.031 239.763 412.242C239.765 412.453 239.765 412.663 239.763 412.874C239.765 413.085 239.765 413.295 239.763 413.506C239.765 413.717 239.765 413.927 239.763 414.138C239.765 414.348 239.765 414.559 239.763 414.77C239.765 414.98 239.765 415.191 239.763 415.402C239.765 415.612 239.765 415.823 239.763 416.034C239.764 416.139 239.765 416.244 239.765 416.349C239.765 416.455 239.764 416.56 239.763 416.666C239.765 416.876 239.765 417.087 239.763 417.298C239.765 417.508 239.765 417.719 239.763 417.93C239.764 418.021 239.764 418.113 239.765 418.205C239.765 418.324 239.764 418.443 239.763 418.562C239.765 418.772 239.765 418.983 239.763 419.194C239.765 419.404 239.765 419.615 239.763 419.826C239.765 420.036 239.765 420.247 239.763 420.458C239.765 420.668 239.765 420.879 239.763 421.089C239.765 421.3 239.765 421.511 239.763 421.721C239.765 421.932 239.765 422.143 239.763 422.353C239.763 422.395 239.764 422.437 239.764 422.478L239.764 422.568C239.765 422.707 239.764 422.846 239.763 422.985C239.765 423.196 239.765 423.407 239.763 423.617C239.765 423.828 239.765 424.039 239.763 424.249C239.765 424.46 239.765 424.671 239.763 424.881C239.765 425.092 239.765 425.303 239.763 425.513C239.765 425.724 239.765 425.935 239.763 426.145C239.765 426.356 239.765 426.566 239.763 426.777C239.765 426.988 239.765 427.198 239.763 427.409C239.765 427.62 239.765 427.83 239.763 428.041C239.765 428.252 239.765 428.462 239.763 428.673C239.765 428.884 239.765 429.094 239.763 429.305C239.765 429.516 239.765 429.726 239.763 429.937C239.903 444.395 230.42 458.878 211.314 469.909C173.38 491.81 111.876 491.81 73.9419 469.909C54.8356 458.878 45.3525 444.395 45.4927 429.937C45.4907 429.726 45.4907 429.516 45.4927 429.305C45.4907 429.094 45.4907 428.884 45.4927 428.673C45.4907 428.462 45.4907 428.252 45.4927 428.041C45.4907 427.83 45.4907 427.62 45.4927 427.409C45.4907 427.198 45.4907 426.988 45.4927 426.777C45.4907 426.566 45.4907 426.356 45.4927 426.145C45.4907 425.934 45.4907 425.724 45.4927 425.513C45.4907 425.302 45.4907 425.092 45.4927 424.881C45.4907 424.67 45.4907 424.46 45.4927 424.249C45.4907 424.038 45.4907 423.828 45.4927 423.617C45.4907 423.407 45.4907 423.196 45.4927 422.985C45.4907 422.775 45.4907 422.564 45.4927 422.353C45.4907 422.143 45.4907 421.932 45.4927 421.721C45.4907 421.511 45.4907 421.3 45.4927 421.089C45.4907 420.879 45.4907 420.668 45.4927 420.457C45.4907 420.247 45.4907 420.036 45.4927 419.825C45.4907 419.615 45.4907 419.404 45.4927 419.193C45.4907 418.983 45.4907 418.772 45.4927 418.561C45.4907 418.351 45.4907 418.14 45.4927 417.929C45.4907 417.719 45.4907 417.508 45.4927 417.297C45.4907 417.087 45.4907 416.876 45.4927 416.666C45.4907 416.455 45.4907 416.244 45.4927 416.034C45.4907 415.823 45.4907 415.612 45.4927 415.402C45.4907 415.191 45.4907 414.98 45.4927 414.77C45.4907 414.559 45.4907 414.348 45.4927 414.138C45.4907 413.927 45.4907 413.716 45.4927 413.506C45.4907 413.295 45.4907 413.084 45.4927 412.874C45.4907 412.663 45.4907 412.452 45.4927 412.242C45.4907 412.031 45.4907 411.82 45.4927 411.61C45.4907 411.399 45.4907 411.188 45.4927 410.978C45.4907 410.767 45.4907 410.557 45.4927 410.346C45.4907 410.135 45.4907 409.925 45.4927 409.714C45.4907 409.503 45.4907 409.293 45.4927 409.082C45.4907 408.871 45.4907 408.661 45.4927 408.45C45.4907 408.239 45.4907 408.029 45.4927 407.818C45.4907 407.607 45.4907 407.397 45.4927 407.186C45.4907 406.975 45.4907 406.765 45.4927 406.554C45.4907 406.343 45.4907 406.133 45.4927 405.922C45.4907 405.711 45.4907 405.501 45.4927 405.29C45.4907 405.079 45.4907 404.869 45.4927 404.658C45.4907 404.448 45.4907 404.237 45.4927 404.026C45.4907 403.816 45.4907 403.605 45.4927 403.394C45.4907 403.184 45.4907 402.973 45.4927 402.762C45.4907 402.552 45.4907 402.341 45.4927 402.13C45.4907 401.92 45.4907 401.709 45.4927 401.498C45.4907 401.288 45.4907 401.077 45.4927 400.866C45.4907 400.656 45.4907 400.445 45.4927 400.234C45.4907 400.024 45.4907 399.813 45.4927 399.602Z" fill="url(#paint1_linear)"/>
    <circle r="79.3118" transform="matrix(0.866025 0.5 -0.866025 0.5 142.628 398.654)" fill="#3C4257"/>
    <ellipse cx="65.294" cy="448.11" rx="5.05573" ry="5.6877" fill="#3C4257"/>
    <path d="M45.4927 348.26C45.3525 333.802 54.8356 319.319 73.9419 308.288C111.876 286.387 173.38 286.387 211.314 308.288C230.42 319.319 239.903 333.802 239.763 348.26C239.765 348.471 239.765 348.682 239.763 348.892C239.765 349.103 239.765 349.314 239.763 349.524C239.765 349.735 239.765 349.946 239.763 350.156C239.765 350.367 239.765 350.578 239.763 350.788C239.765 350.999 239.765 351.209 239.763 351.42C239.763 351.466 239.764 351.513 239.764 351.559C239.764 351.6 239.764 351.64 239.764 351.681C239.765 351.805 239.764 351.929 239.763 352.052C239.765 352.263 239.765 352.473 239.763 352.684C239.764 352.789 239.765 352.893 239.765 352.998L239.764 353.093C239.764 353.129 239.764 353.164 239.764 353.2C239.764 353.238 239.763 353.277 239.763 353.316C239.764 353.44 239.765 353.563 239.764 353.687C239.764 353.774 239.764 353.861 239.763 353.948C239.765 354.159 239.765 354.369 239.763 354.58C239.764 354.669 239.764 354.759 239.765 354.848C239.765 354.969 239.764 355.091 239.763 355.212C239.765 355.423 239.765 355.633 239.763 355.844C239.765 356.055 239.765 356.265 239.763 356.476C239.765 356.687 239.765 356.897 239.763 357.108C239.765 357.318 239.765 357.529 239.763 357.74C239.765 357.95 239.765 358.161 239.763 358.372C239.765 358.582 239.765 358.793 239.763 359.004L239.764 359.065L239.764 359.148C239.764 359.19 239.764 359.231 239.765 359.272C239.765 359.393 239.764 359.515 239.763 359.636C239.765 359.846 239.765 360.057 239.763 360.268C239.765 360.478 239.765 360.689 239.763 360.9C239.765 361.11 239.765 361.321 239.763 361.532C239.765 361.742 239.765 361.953 239.763 362.164C239.765 362.374 239.765 362.585 239.763 362.796C239.765 363.006 239.765 363.217 239.763 363.428C239.765 363.638 239.765 363.849 239.763 364.059C239.765 364.27 239.765 364.481 239.763 364.691C239.764 364.797 239.765 364.902 239.765 365.007C239.765 365.112 239.764 365.218 239.763 365.323C239.765 365.534 239.765 365.745 239.763 365.955C239.765 366.166 239.765 366.377 239.763 366.587C239.764 366.679 239.764 366.771 239.765 366.862C239.765 366.981 239.764 367.1 239.763 367.219C239.765 367.43 239.765 367.641 239.763 367.851C239.765 368.062 239.765 368.273 239.763 368.483C239.765 368.694 239.765 368.905 239.763 369.115C239.765 369.326 239.765 369.537 239.763 369.747C239.765 369.958 239.765 370.168 239.763 370.379C239.765 370.59 239.765 370.8 239.763 371.011C239.763 371.053 239.764 371.094 239.764 371.136L239.764 371.225C239.765 371.365 239.764 371.504 239.763 371.643C239.765 371.854 239.765 372.064 239.763 372.275C239.765 372.486 239.765 372.696 239.763 372.907C239.765 373.118 239.765 373.328 239.763 373.539C239.765 373.75 239.765 373.96 239.763 374.171C239.765 374.382 239.765 374.592 239.763 374.803C239.765 375.014 239.765 375.224 239.763 375.435C239.765 375.646 239.765 375.856 239.763 376.067C239.765 376.277 239.765 376.488 239.763 376.699C239.765 376.909 239.765 377.12 239.763 377.331C239.765 377.541 239.765 377.752 239.763 377.963C239.765 378.173 239.765 378.384 239.763 378.595C239.903 393.052 230.42 407.535 211.314 418.566C173.38 440.468 111.876 440.468 73.9419 418.566C54.8356 407.535 45.3525 393.052 45.4927 378.595C45.4907 378.384 45.4907 378.173 45.4927 377.963C45.4907 377.752 45.4907 377.541 45.4927 377.331C45.4907 377.12 45.4907 376.909 45.4927 376.699C45.4907 376.488 45.4907 376.277 45.4927 376.067C45.4907 375.856 45.4907 375.645 45.4927 375.435C45.4907 375.224 45.4907 375.013 45.4927 374.803C45.4907 374.592 45.4907 374.381 45.4927 374.171C45.4907 373.96 45.4907 373.749 45.4927 373.539C45.4907 373.328 45.4907 373.117 45.4927 372.907C45.4907 372.696 45.4907 372.486 45.4927 372.275C45.4907 372.064 45.4907 371.854 45.4927 371.643C45.4907 371.432 45.4907 371.222 45.4927 371.011C45.4907 370.8 45.4907 370.59 45.4927 370.379C45.4907 370.168 45.4907 369.958 45.4927 369.747C45.4907 369.536 45.4907 369.326 45.4927 369.115C45.4907 368.904 45.4907 368.694 45.4927 368.483C45.4907 368.272 45.4907 368.062 45.4927 367.851C45.4907 367.64 45.4907 367.43 45.4927 367.219C45.4907 367.008 45.4907 366.798 45.4927 366.587C45.4907 366.377 45.4907 366.166 45.4927 365.955C45.4907 365.745 45.4907 365.534 45.4927 365.323C45.4907 365.113 45.4907 364.902 45.4927 364.691C45.4907 364.481 45.4907 364.27 45.4927 364.059C45.4907 363.849 45.4907 363.638 45.4927 363.427C45.4907 363.217 45.4907 363.006 45.4927 362.795C45.4907 362.585 45.4907 362.374 45.4927 362.163C45.4907 361.953 45.4907 361.742 45.4927 361.531C45.4907 361.321 45.4907 361.11 45.4927 360.899C45.4907 360.689 45.4907 360.478 45.4927 360.268C45.4907 360.057 45.4907 359.846 45.4927 359.636C45.4907 359.425 45.4907 359.214 45.4927 359.004C45.4907 358.793 45.4907 358.582 45.4927 358.372C45.4907 358.161 45.4907 357.95 45.4927 357.74C45.4907 357.529 45.4907 357.318 45.4927 357.108C45.4907 356.897 45.4907 356.686 45.4927 356.476C45.4907 356.265 45.4907 356.054 45.4927 355.844C45.4907 355.633 45.4907 355.422 45.4927 355.212C45.4907 355.001 45.4907 354.79 45.4927 354.58C45.4907 354.369 45.4907 354.159 45.4927 353.948C45.4907 353.737 45.4907 353.527 45.4927 353.316C45.4907 353.105 45.4907 352.895 45.4927 352.684C45.4907 352.473 45.4907 352.263 45.4927 352.052C45.4907 351.841 45.4907 351.631 45.4927 351.42C45.4907 351.209 45.4907 350.999 45.4927 350.788C45.4907 350.577 45.4907 350.367 45.4927 350.156C45.4907 349.945 45.4907 349.735 45.4927 349.524C45.4907 349.313 45.4907 349.103 45.4927 348.892C45.4907 348.681 45.4907 348.471 45.4927 348.26Z" fill="#FDDE4F"/>
    <path d="M45.4927 348.26C45.3525 333.802 54.8356 319.319 73.9419 308.288C111.876 286.387 173.38 286.387 211.314 308.288C230.42 319.319 239.903 333.802 239.763 348.26C239.765 348.471 239.765 348.682 239.763 348.892C239.765 349.103 239.765 349.314 239.763 349.524C239.765 349.735 239.765 349.946 239.763 350.156C239.765 350.367 239.765 350.578 239.763 350.788C239.765 350.999 239.765 351.209 239.763 351.42C239.763 351.466 239.764 351.513 239.764 351.559C239.764 351.6 239.764 351.64 239.764 351.681C239.765 351.805 239.764 351.929 239.763 352.052C239.765 352.263 239.765 352.473 239.763 352.684C239.764 352.789 239.765 352.893 239.765 352.998L239.764 353.093C239.764 353.129 239.764 353.164 239.764 353.2C239.764 353.238 239.763 353.277 239.763 353.316C239.764 353.44 239.765 353.563 239.764 353.687C239.764 353.774 239.764 353.861 239.763 353.948C239.765 354.159 239.765 354.369 239.763 354.58C239.764 354.669 239.764 354.759 239.765 354.848C239.765 354.969 239.764 355.091 239.763 355.212C239.765 355.423 239.765 355.633 239.763 355.844C239.765 356.055 239.765 356.265 239.763 356.476C239.765 356.687 239.765 356.897 239.763 357.108C239.765 357.318 239.765 357.529 239.763 357.74C239.765 357.95 239.765 358.161 239.763 358.372C239.765 358.582 239.765 358.793 239.763 359.004L239.764 359.065L239.764 359.148C239.764 359.19 239.764 359.231 239.765 359.272C239.765 359.393 239.764 359.515 239.763 359.636C239.765 359.846 239.765 360.057 239.763 360.268C239.765 360.478 239.765 360.689 239.763 360.9C239.765 361.11 239.765 361.321 239.763 361.532C239.765 361.742 239.765 361.953 239.763 362.164C239.765 362.374 239.765 362.585 239.763 362.796C239.765 363.006 239.765 363.217 239.763 363.428C239.765 363.638 239.765 363.849 239.763 364.059C239.765 364.27 239.765 364.481 239.763 364.691C239.764 364.797 239.765 364.902 239.765 365.007C239.765 365.112 239.764 365.218 239.763 365.323C239.765 365.534 239.765 365.745 239.763 365.955C239.765 366.166 239.765 366.377 239.763 366.587C239.764 366.679 239.764 366.771 239.765 366.862C239.765 366.981 239.764 367.1 239.763 367.219C239.765 367.43 239.765 367.641 239.763 367.851C239.765 368.062 239.765 368.273 239.763 368.483C239.765 368.694 239.765 368.905 239.763 369.115C239.765 369.326 239.765 369.537 239.763 369.747C239.765 369.958 239.765 370.168 239.763 370.379C239.765 370.59 239.765 370.8 239.763 371.011C239.763 371.053 239.764 371.094 239.764 371.136L239.764 371.225C239.765 371.365 239.764 371.504 239.763 371.643C239.765 371.854 239.765 372.064 239.763 372.275C239.765 372.486 239.765 372.696 239.763 372.907C239.765 373.118 239.765 373.328 239.763 373.539C239.765 373.75 239.765 373.96 239.763 374.171C239.765 374.382 239.765 374.592 239.763 374.803C239.765 375.014 239.765 375.224 239.763 375.435C239.765 375.646 239.765 375.856 239.763 376.067C239.765 376.277 239.765 376.488 239.763 376.699C239.765 376.909 239.765 377.12 239.763 377.331C239.765 377.541 239.765 377.752 239.763 377.963C239.765 378.173 239.765 378.384 239.763 378.595C239.903 393.052 230.42 407.535 211.314 418.566C173.38 440.468 111.876 440.468 73.9419 418.566C54.8356 407.535 45.3525 393.052 45.4927 378.595C45.4907 378.384 45.4907 378.173 45.4927 377.963C45.4907 377.752 45.4907 377.541 45.4927 377.331C45.4907 377.12 45.4907 376.909 45.4927 376.699C45.4907 376.488 45.4907 376.277 45.4927 376.067C45.4907 375.856 45.4907 375.645 45.4927 375.435C45.4907 375.224 45.4907 375.013 45.4927 374.803C45.4907 374.592 45.4907 374.381 45.4927 374.171C45.4907 373.96 45.4907 373.749 45.4927 373.539C45.4907 373.328 45.4907 373.117 45.4927 372.907C45.4907 372.696 45.4907 372.486 45.4927 372.275C45.4907 372.064 45.4907 371.854 45.4927 371.643C45.4907 371.432 45.4907 371.222 45.4927 371.011C45.4907 370.8 45.4907 370.59 45.4927 370.379C45.4907 370.168 45.4907 369.958 45.4927 369.747C45.4907 369.536 45.4907 369.326 45.4927 369.115C45.4907 368.904 45.4907 368.694 45.4927 368.483C45.4907 368.272 45.4907 368.062 45.4927 367.851C45.4907 367.64 45.4907 367.43 45.4927 367.219C45.4907 367.008 45.4907 366.798 45.4927 366.587C45.4907 366.377 45.4907 366.166 45.4927 365.955C45.4907 365.745 45.4907 365.534 45.4927 365.323C45.4907 365.113 45.4907 364.902 45.4927 364.691C45.4907 364.481 45.4907 364.27 45.4927 364.059C45.4907 363.849 45.4907 363.638 45.4927 363.427C45.4907 363.217 45.4907 363.006 45.4927 362.795C45.4907 362.585 45.4907 362.374 45.4927 362.163C45.4907 361.953 45.4907 361.742 45.4927 361.531C45.4907 361.321 45.4907 361.11 45.4927 360.899C45.4907 360.689 45.4907 360.478 45.4927 360.268C45.4907 360.057 45.4907 359.846 45.4927 359.636C45.4907 359.425 45.4907 359.214 45.4927 359.004C45.4907 358.793 45.4907 358.582 45.4927 358.372C45.4907 358.161 45.4907 357.95 45.4927 357.74C45.4907 357.529 45.4907 357.318 45.4927 357.108C45.4907 356.897 45.4907 356.686 45.4927 356.476C45.4907 356.265 45.4907 356.054 45.4927 355.844C45.4907 355.633 45.4907 355.422 45.4927 355.212C45.4907 355.001 45.4907 354.79 45.4927 354.58C45.4907 354.369 45.4907 354.159 45.4927 353.948C45.4907 353.737 45.4907 353.527 45.4927 353.316C45.4907 353.105 45.4907 352.895 45.4927 352.684C45.4907 352.473 45.4907 352.263 45.4927 352.052C45.4907 351.841 45.4907 351.631 45.4927 351.42C45.4907 351.209 45.4907 350.999 45.4927 350.788C45.4907 350.577 45.4907 350.367 45.4927 350.156C45.4907 349.945 45.4907 349.735 45.4927 349.524C45.4907 349.313 45.4907 349.103 45.4927 348.892C45.4907 348.681 45.4907 348.471 45.4927 348.26Z" fill="url(#paint2_linear)"/>
    <circle r="79.3118" transform="matrix(0.866025 0.5 -0.866025 0.5 142.628 347.312)" fill="#3C4257"/>
    <ellipse cx="65.294" cy="396.289" rx="5.05573" ry="5.6877" fill="#3C4257"/>
    <path d="M92.5395 372.614L102.008 367.147L99.4812 365.688L93.0774 369.386L80.9598 362.39L77.8949 364.159L92.5395 372.614ZM108.625 363.585C111.913 361.686 111.903 359.255 108.351 357.204L108.331 357.192C104.809 355.159 100.547 355.171 97.2891 357.052C94.0415 358.927 94.0516 361.393 97.553 363.415L97.5733 363.427C101.115 365.472 105.317 365.495 108.625 363.585ZM106.311 362.237C104.85 363.081 102.719 362.917 100.587 361.686L100.567 361.675C98.4663 360.462 98.1822 359.22 99.6132 358.393C101.054 357.561 103.216 357.72 105.317 358.932L105.337 358.944C107.458 360.169 107.752 361.405 106.311 362.237ZM120.52 356.718C123.422 355.042 123.493 352.915 121.26 351.462L121.2 351.427L118.439 353.02L118.52 353.079C119.413 353.829 119.403 354.679 118.216 355.364C116.754 356.208 114.633 356.038 112.502 354.807L112.492 354.802C110.411 353.6 110.077 352.352 111.528 351.515C112.756 350.806 114.268 350.847 115.486 351.339L115.597 351.38L118.348 349.792L118.277 349.751C115.811 348.456 112.116 348.491 109.163 350.196C105.905 352.077 105.987 354.526 109.468 356.536L109.478 356.542C112.989 358.569 117.201 358.634 120.52 356.718ZM130.059 351.151C131.49 350.325 131.967 349.265 131.47 348.263L131.531 348.227L133.155 349.165L136.118 347.454L128.659 343.147C126.467 341.882 123.199 342.093 120.388 343.716C117.516 345.374 117.231 347.202 119.078 348.456L119.19 348.532L121.9 346.968L121.829 346.903C121.271 346.417 121.423 345.731 122.529 345.093C123.686 344.425 124.914 344.407 125.878 344.964L126.548 345.35L124.021 346.997C121.494 348.655 121.118 350.208 123.097 351.35L123.118 351.362C125.036 352.47 127.877 352.411 130.059 351.151ZM125.898 349.581L125.878 349.569C125.107 349.124 125.218 348.497 126.294 347.794L128.395 346.417L129.176 346.868C130.313 347.524 130.191 348.579 128.862 349.347C127.837 349.938 126.7 350.044 125.898 349.581ZM138.107 346.306L141.071 344.595L126.426 336.14L123.463 337.85L138.107 346.306ZM151.443 338.864C153.016 337.956 153.422 336.807 152.711 335.729L152.772 335.694L154.629 336.766L157.593 335.056L142.948 326.6L139.985 328.311L145.638 331.575L145.577 331.61C143.669 331.188 141.659 331.434 140.117 332.325C137.377 333.907 137.803 336.099 141.345 338.143L141.355 338.149C144.887 340.188 148.703 340.446 151.443 338.864ZM149.981 336.872C148.5 337.727 146.348 337.552 144.369 336.409L144.359 336.403C142.37 335.255 142.096 334.018 143.567 333.169C144.998 332.343 147.231 332.483 149.19 333.614L149.2 333.62C151.169 334.757 151.422 336.04 149.981 336.872ZM162.982 332.143C164.413 331.317 164.89 330.257 164.393 329.255L164.453 329.22L166.077 330.157L169.041 328.446L161.581 324.14C159.389 322.874 156.121 323.085 153.31 324.708C150.438 326.366 150.154 328.194 152.001 329.448L152.113 329.524L154.822 327.96L154.751 327.895C154.193 327.409 154.345 326.724 155.451 326.085C156.608 325.417 157.836 325.399 158.801 325.956L159.47 326.343L156.943 327.989C154.416 329.647 154.041 331.2 156.02 332.343L156.04 332.354C157.958 333.462 160.8 333.403 162.982 332.143ZM158.821 330.573L158.801 330.561C158.029 330.116 158.141 329.489 159.217 328.786L161.317 327.409L162.099 327.86C163.236 328.516 163.114 329.571 161.784 330.339C160.759 330.931 159.623 331.036 158.821 330.573ZM175.505 324.972C176.124 324.614 176.541 324.304 176.825 324.081L174.653 322.827C174.491 322.944 174.328 323.073 174.064 323.225C173.171 323.741 172.369 323.806 171.355 323.22L166.077 320.173L168.066 319.024L165.834 317.735L163.845 318.884L161.186 317.349L158.192 319.077L160.851 320.612L159.338 321.485L161.571 322.774L163.083 321.901L168.685 325.136C171.02 326.483 173.09 326.366 175.505 324.972ZM181.656 321.362C183.087 320.536 183.563 319.475 183.066 318.474L183.127 318.438L184.751 319.376L187.714 317.665L180.255 313.358C178.063 312.093 174.795 312.304 171.984 313.927C169.112 315.585 168.828 317.413 170.675 318.667L170.786 318.743L173.496 317.179L173.425 317.114C172.867 316.628 173.019 315.942 174.125 315.304C175.282 314.636 176.51 314.618 177.474 315.175L178.144 315.561L175.617 317.208C173.09 318.866 172.714 320.419 174.693 321.561L174.714 321.573C176.632 322.681 179.474 322.622 181.656 321.362ZM177.495 319.792L177.474 319.78C176.703 319.335 176.815 318.708 177.89 318.005L179.991 316.628L180.773 317.079C181.909 317.735 181.787 318.79 180.458 319.557C179.433 320.149 178.296 320.255 177.495 319.792ZM145.394 366.356C148.134 364.774 147.698 362.565 144.166 360.526L144.156 360.52C140.614 358.475 136.808 358.235 134.078 359.811C132.526 360.708 132.109 361.862 132.83 362.97L132.769 363.005L127.116 359.741L124.153 361.452L138.797 369.907L141.761 368.196L139.904 367.124L139.965 367.089C141.842 367.493 143.831 367.259 145.394 366.356ZM141.954 365.507C140.513 366.339 138.29 366.192 136.321 365.056L136.311 365.05C134.352 363.919 134.109 362.63 135.54 361.804C137.011 360.954 139.153 361.112 141.142 362.261L141.152 362.266C143.131 363.409 143.425 364.657 141.954 365.507ZM154.538 361.018C155.969 360.192 156.446 359.132 155.949 358.13L156.01 358.095L157.633 359.032L160.597 357.321L153.138 353.015C150.945 351.749 147.678 351.96 144.866 353.583C141.994 355.241 141.71 357.069 143.557 358.323L143.669 358.399L146.379 356.835L146.307 356.77C145.749 356.284 145.902 355.599 147.008 354.96C148.165 354.292 149.393 354.274 150.357 354.831L151.027 355.218L148.5 356.864C145.973 358.522 145.597 360.075 147.576 361.218L147.596 361.229C149.514 362.337 152.356 362.278 154.538 361.018ZM150.377 359.448L150.357 359.436C149.586 358.991 149.697 358.364 150.773 357.661L152.874 356.284L153.655 356.735C154.792 357.391 154.67 358.446 153.341 359.214C152.316 359.806 151.179 359.911 150.377 359.448ZM167.214 353.759C170.015 352.141 170.573 350.202 168.442 348.972L168.432 348.966C166.828 348.04 165.001 348.063 162.251 349.1L160.008 349.938C158.679 350.436 157.938 350.442 157.38 350.12L157.37 350.114C156.669 349.71 156.852 349.077 157.877 348.485C158.973 347.852 160.201 347.823 161.084 348.216L161.175 348.257L163.905 346.681L163.804 346.622C161.825 345.561 158.679 345.608 155.786 347.278C153.016 348.878 152.569 350.682 154.64 351.878L154.65 351.884C156.274 352.821 158.395 352.815 160.952 351.854L163.185 351.011C164.484 350.53 165.184 350.513 165.763 350.847L165.773 350.852C166.473 351.257 166.229 351.901 165.113 352.546C163.926 353.231 162.789 353.313 161.744 352.932L161.632 352.891L158.74 354.561L158.841 354.608C161.135 355.663 164.2 355.499 167.214 353.759ZM178.388 347.307C181.493 345.515 181.158 343.587 179.89 342.468L179.808 342.386L177.089 343.956L177.129 344.003C177.525 344.477 177.454 345.292 176.236 345.995C174.724 346.868 172.765 346.827 170.999 345.843L178.489 341.518L177.576 340.991C174.288 339.093 170.127 338.999 166.94 340.839C163.753 342.679 163.926 345.134 167.386 347.132L167.397 347.138C170.878 349.147 175.059 349.229 178.388 347.307ZM169.203 342.087C170.431 341.378 172.095 341.319 173.78 342.081L169.162 344.747C167.884 343.786 167.985 342.79 169.203 342.087Z" fill="white"/>
    <path d="M362.237 449.602C362.097 435.145 371.58 420.662 390.686 409.631C428.62 387.729 490.124 387.729 528.058 409.631C547.164 420.662 556.647 435.145 556.507 449.602C556.509 449.813 556.509 450.024 556.507 450.235C556.509 450.445 556.509 450.656 556.507 450.867C556.509 451.077 556.509 451.288 556.507 451.499C556.509 451.709 556.509 451.92 556.507 452.13C556.509 452.341 556.509 452.552 556.507 452.762C556.508 452.809 556.508 452.855 556.508 452.901C556.508 452.942 556.509 452.983 556.509 453.024C556.509 453.147 556.508 453.271 556.507 453.394C556.509 453.605 556.509 453.816 556.507 454.026C556.508 454.131 556.509 454.236 556.509 454.34L556.509 454.435C556.508 454.471 556.508 454.506 556.508 454.542C556.508 454.581 556.508 454.619 556.507 454.658C556.508 454.782 556.509 454.906 556.509 455.029C556.508 455.116 556.508 455.203 556.507 455.29C556.509 455.501 556.509 455.712 556.507 455.922C556.508 456.012 556.509 456.101 556.509 456.19C556.509 456.312 556.508 456.433 556.507 456.554C556.509 456.765 556.509 456.976 556.507 457.186C556.509 457.397 556.509 457.608 556.507 457.818C556.509 458.029 556.509 458.239 556.507 458.45C556.509 458.661 556.509 458.871 556.507 459.082C556.509 459.293 556.509 459.503 556.507 459.714C556.509 459.925 556.509 460.135 556.507 460.346L556.508 460.407L556.508 460.491C556.508 460.532 556.509 460.573 556.509 460.614C556.509 460.736 556.508 460.857 556.507 460.978C556.509 461.189 556.509 461.399 556.507 461.61C556.509 461.821 556.509 462.031 556.507 462.242C556.509 462.453 556.509 462.663 556.507 462.874C556.509 463.085 556.509 463.295 556.507 463.506C556.509 463.717 556.509 463.927 556.507 464.138C556.509 464.348 556.509 464.559 556.507 464.77C556.509 464.98 556.509 465.191 556.507 465.402C556.509 465.612 556.509 465.823 556.507 466.034C556.508 466.139 556.509 466.244 556.509 466.349C556.509 466.455 556.508 466.56 556.507 466.666C556.509 466.876 556.509 467.087 556.507 467.298C556.509 467.508 556.509 467.719 556.507 467.93C556.508 468.021 556.509 468.113 556.509 468.205C556.509 468.324 556.508 468.443 556.507 468.562C556.509 468.772 556.509 468.983 556.507 469.194C556.509 469.404 556.509 469.615 556.507 469.826C556.509 470.036 556.509 470.247 556.507 470.458C556.509 470.668 556.509 470.879 556.507 471.089C556.509 471.3 556.509 471.511 556.507 471.721C556.509 471.932 556.509 472.143 556.507 472.353C556.508 472.395 556.508 472.437 556.508 472.478L556.509 472.568C556.509 472.707 556.508 472.846 556.507 472.985C556.509 473.196 556.509 473.407 556.507 473.617C556.509 473.828 556.509 474.039 556.507 474.249C556.509 474.46 556.509 474.671 556.507 474.881C556.509 475.092 556.509 475.303 556.507 475.513C556.509 475.724 556.509 475.935 556.507 476.145C556.509 476.356 556.509 476.566 556.507 476.777C556.509 476.988 556.509 477.198 556.507 477.409C556.509 477.62 556.509 477.83 556.507 478.041C556.509 478.252 556.509 478.462 556.507 478.673C556.509 478.884 556.509 479.094 556.507 479.305C556.509 479.516 556.509 479.726 556.507 479.937C556.647 494.395 547.164 508.878 528.058 519.909C490.124 541.81 428.62 541.81 390.686 519.909C371.58 508.878 362.097 494.395 362.237 479.937C362.235 479.726 362.235 479.516 362.237 479.305C362.235 479.094 362.235 478.884 362.237 478.673C362.235 478.462 362.235 478.252 362.237 478.041C362.235 477.83 362.235 477.62 362.237 477.409C362.235 477.198 362.235 476.988 362.237 476.777C362.235 476.566 362.235 476.356 362.237 476.145C362.235 475.934 362.235 475.724 362.237 475.513C362.235 475.302 362.235 475.092 362.237 474.881C362.235 474.67 362.235 474.46 362.237 474.249C362.235 474.038 362.235 473.828 362.237 473.617C362.235 473.407 362.235 473.196 362.237 472.985C362.235 472.775 362.235 472.564 362.237 472.353C362.235 472.143 362.235 471.932 362.237 471.721C362.235 471.511 362.235 471.3 362.237 471.089C362.235 470.879 362.235 470.668 362.237 470.457C362.235 470.247 362.235 470.036 362.237 469.825C362.235 469.615 362.235 469.404 362.237 469.193C362.235 468.983 362.235 468.772 362.237 468.561C362.235 468.351 362.235 468.14 362.237 467.929C362.235 467.719 362.235 467.508 362.237 467.297C362.235 467.087 362.235 466.876 362.237 466.666C362.235 466.455 362.235 466.244 362.237 466.034C362.235 465.823 362.235 465.612 362.237 465.402C362.235 465.191 362.235 464.98 362.237 464.77C362.235 464.559 362.235 464.348 362.237 464.138C362.235 463.927 362.235 463.716 362.237 463.506C362.235 463.295 362.235 463.084 362.237 462.874C362.235 462.663 362.235 462.452 362.237 462.242C362.235 462.031 362.235 461.82 362.237 461.61C362.235 461.399 362.235 461.188 362.237 460.978C362.235 460.767 362.235 460.557 362.237 460.346C362.235 460.135 362.235 459.925 362.237 459.714C362.235 459.503 362.235 459.293 362.237 459.082C362.235 458.871 362.235 458.661 362.237 458.45C362.235 458.239 362.235 458.029 362.237 457.818C362.235 457.607 362.235 457.397 362.237 457.186C362.235 456.975 362.235 456.765 362.237 456.554C362.235 456.343 362.235 456.133 362.237 455.922C362.235 455.711 362.235 455.501 362.237 455.29C362.235 455.079 362.235 454.869 362.237 454.658C362.235 454.448 362.235 454.237 362.237 454.026C362.235 453.816 362.235 453.605 362.237 453.394C362.235 453.184 362.235 452.973 362.237 452.762C362.235 452.552 362.235 452.341 362.237 452.13C362.235 451.92 362.235 451.709 362.237 451.498C362.235 451.288 362.235 451.077 362.237 450.866C362.235 450.656 362.235 450.445 362.237 450.234C362.235 450.024 362.235 449.813 362.237 449.602Z" fill="#E1E8FF"/>
    <path d="M362.237 449.602C362.097 435.145 371.58 420.662 390.686 409.631C428.62 387.729 490.124 387.729 528.058 409.631C547.164 420.662 556.647 435.145 556.507 449.602C556.509 449.813 556.509 450.024 556.507 450.235C556.509 450.445 556.509 450.656 556.507 450.867C556.509 451.077 556.509 451.288 556.507 451.499C556.509 451.709 556.509 451.92 556.507 452.13C556.509 452.341 556.509 452.552 556.507 452.762C556.508 452.809 556.508 452.855 556.508 452.901C556.508 452.942 556.509 452.983 556.509 453.024C556.509 453.147 556.508 453.271 556.507 453.394C556.509 453.605 556.509 453.816 556.507 454.026C556.508 454.131 556.509 454.236 556.509 454.34L556.509 454.435C556.508 454.471 556.508 454.506 556.508 454.542C556.508 454.581 556.508 454.619 556.507 454.658C556.508 454.782 556.509 454.906 556.509 455.029C556.508 455.116 556.508 455.203 556.507 455.29C556.509 455.501 556.509 455.712 556.507 455.922C556.508 456.012 556.509 456.101 556.509 456.19C556.509 456.312 556.508 456.433 556.507 456.554C556.509 456.765 556.509 456.976 556.507 457.186C556.509 457.397 556.509 457.608 556.507 457.818C556.509 458.029 556.509 458.239 556.507 458.45C556.509 458.661 556.509 458.871 556.507 459.082C556.509 459.293 556.509 459.503 556.507 459.714C556.509 459.925 556.509 460.135 556.507 460.346L556.508 460.407L556.508 460.491C556.508 460.532 556.509 460.573 556.509 460.614C556.509 460.736 556.508 460.857 556.507 460.978C556.509 461.189 556.509 461.399 556.507 461.61C556.509 461.821 556.509 462.031 556.507 462.242C556.509 462.453 556.509 462.663 556.507 462.874C556.509 463.085 556.509 463.295 556.507 463.506C556.509 463.717 556.509 463.927 556.507 464.138C556.509 464.348 556.509 464.559 556.507 464.77C556.509 464.98 556.509 465.191 556.507 465.402C556.509 465.612 556.509 465.823 556.507 466.034C556.508 466.139 556.509 466.244 556.509 466.349C556.509 466.455 556.508 466.56 556.507 466.666C556.509 466.876 556.509 467.087 556.507 467.298C556.509 467.508 556.509 467.719 556.507 467.93C556.508 468.021 556.509 468.113 556.509 468.205C556.509 468.324 556.508 468.443 556.507 468.562C556.509 468.772 556.509 468.983 556.507 469.194C556.509 469.404 556.509 469.615 556.507 469.826C556.509 470.036 556.509 470.247 556.507 470.458C556.509 470.668 556.509 470.879 556.507 471.089C556.509 471.3 556.509 471.511 556.507 471.721C556.509 471.932 556.509 472.143 556.507 472.353C556.508 472.395 556.508 472.437 556.508 472.478L556.509 472.568C556.509 472.707 556.508 472.846 556.507 472.985C556.509 473.196 556.509 473.407 556.507 473.617C556.509 473.828 556.509 474.039 556.507 474.249C556.509 474.46 556.509 474.671 556.507 474.881C556.509 475.092 556.509 475.303 556.507 475.513C556.509 475.724 556.509 475.935 556.507 476.145C556.509 476.356 556.509 476.566 556.507 476.777C556.509 476.988 556.509 477.198 556.507 477.409C556.509 477.62 556.509 477.83 556.507 478.041C556.509 478.252 556.509 478.462 556.507 478.673C556.509 478.884 556.509 479.094 556.507 479.305C556.509 479.516 556.509 479.726 556.507 479.937C556.647 494.395 547.164 508.878 528.058 519.909C490.124 541.81 428.62 541.81 390.686 519.909C371.58 508.878 362.097 494.395 362.237 479.937C362.235 479.726 362.235 479.516 362.237 479.305C362.235 479.094 362.235 478.884 362.237 478.673C362.235 478.462 362.235 478.252 362.237 478.041C362.235 477.83 362.235 477.62 362.237 477.409C362.235 477.198 362.235 476.988 362.237 476.777C362.235 476.566 362.235 476.356 362.237 476.145C362.235 475.934 362.235 475.724 362.237 475.513C362.235 475.302 362.235 475.092 362.237 474.881C362.235 474.67 362.235 474.46 362.237 474.249C362.235 474.038 362.235 473.828 362.237 473.617C362.235 473.407 362.235 473.196 362.237 472.985C362.235 472.775 362.235 472.564 362.237 472.353C362.235 472.143 362.235 471.932 362.237 471.721C362.235 471.511 362.235 471.3 362.237 471.089C362.235 470.879 362.235 470.668 362.237 470.457C362.235 470.247 362.235 470.036 362.237 469.825C362.235 469.615 362.235 469.404 362.237 469.193C362.235 468.983 362.235 468.772 362.237 468.561C362.235 468.351 362.235 468.14 362.237 467.929C362.235 467.719 362.235 467.508 362.237 467.297C362.235 467.087 362.235 466.876 362.237 466.666C362.235 466.455 362.235 466.244 362.237 466.034C362.235 465.823 362.235 465.612 362.237 465.402C362.235 465.191 362.235 464.98 362.237 464.77C362.235 464.559 362.235 464.348 362.237 464.138C362.235 463.927 362.235 463.716 362.237 463.506C362.235 463.295 362.235 463.084 362.237 462.874C362.235 462.663 362.235 462.452 362.237 462.242C362.235 462.031 362.235 461.82 362.237 461.61C362.235 461.399 362.235 461.188 362.237 460.978C362.235 460.767 362.235 460.557 362.237 460.346C362.235 460.135 362.235 459.925 362.237 459.714C362.235 459.503 362.235 459.293 362.237 459.082C362.235 458.871 362.235 458.661 362.237 458.45C362.235 458.239 362.235 458.029 362.237 457.818C362.235 457.607 362.235 457.397 362.237 457.186C362.235 456.975 362.235 456.765 362.237 456.554C362.235 456.343 362.235 456.133 362.237 455.922C362.235 455.711 362.235 455.501 362.237 455.29C362.235 455.079 362.235 454.869 362.237 454.658C362.235 454.448 362.235 454.237 362.237 454.026C362.235 453.816 362.235 453.605 362.237 453.394C362.235 453.184 362.235 452.973 362.237 452.762C362.235 452.552 362.235 452.341 362.237 452.13C362.235 451.92 362.235 451.709 362.237 451.498C362.235 451.288 362.235 451.077 362.237 450.866C362.235 450.656 362.235 450.445 362.237 450.234C362.235 450.024 362.235 449.813 362.237 449.602Z" fill="url(#paint3_linear)"/>
    <circle r="79.3118" transform="matrix(0.866025 0.5 -0.866025 0.5 459.372 448.654)" fill="#3C4257"/>
    <ellipse cx="382.038" cy="498.11" rx="5.05573" ry="5.6877" fill="#3C4257"/>
    <path d="M362.237 399.602C362.097 385.145 371.58 370.662 390.686 359.631C428.62 337.729 490.124 337.729 528.058 359.631C547.164 370.662 556.647 385.145 556.507 399.602C556.509 399.813 556.509 400.024 556.507 400.235C556.509 400.445 556.509 400.656 556.507 400.867C556.509 401.077 556.509 401.288 556.507 401.499C556.509 401.709 556.509 401.92 556.507 402.13C556.509 402.341 556.509 402.552 556.507 402.762C556.508 402.809 556.508 402.855 556.508 402.901C556.508 402.942 556.509 402.983 556.509 403.024C556.509 403.147 556.508 403.271 556.507 403.394C556.509 403.605 556.509 403.816 556.507 404.026C556.508 404.131 556.509 404.236 556.509 404.34L556.509 404.435C556.508 404.471 556.508 404.506 556.508 404.542C556.508 404.581 556.508 404.619 556.507 404.658C556.508 404.782 556.509 404.906 556.509 405.029C556.508 405.116 556.508 405.203 556.507 405.29C556.509 405.501 556.509 405.712 556.507 405.922C556.508 406.012 556.509 406.101 556.509 406.19C556.509 406.312 556.508 406.433 556.507 406.554C556.509 406.765 556.509 406.976 556.507 407.186C556.509 407.397 556.509 407.608 556.507 407.818C556.509 408.029 556.509 408.239 556.507 408.45C556.509 408.661 556.509 408.871 556.507 409.082C556.509 409.293 556.509 409.503 556.507 409.714C556.509 409.925 556.509 410.135 556.507 410.346L556.508 410.407L556.508 410.491C556.508 410.532 556.509 410.573 556.509 410.614C556.509 410.736 556.508 410.857 556.507 410.978C556.509 411.189 556.509 411.399 556.507 411.61C556.509 411.821 556.509 412.031 556.507 412.242C556.509 412.453 556.509 412.663 556.507 412.874C556.509 413.085 556.509 413.295 556.507 413.506C556.509 413.717 556.509 413.927 556.507 414.138C556.509 414.348 556.509 414.559 556.507 414.77C556.509 414.98 556.509 415.191 556.507 415.402C556.509 415.612 556.509 415.823 556.507 416.034C556.508 416.139 556.509 416.244 556.509 416.349C556.509 416.455 556.508 416.56 556.507 416.666C556.509 416.876 556.509 417.087 556.507 417.298C556.509 417.508 556.509 417.719 556.507 417.93C556.508 418.021 556.509 418.113 556.509 418.205C556.509 418.324 556.508 418.443 556.507 418.562C556.509 418.772 556.509 418.983 556.507 419.194C556.509 419.404 556.509 419.615 556.507 419.826C556.509 420.036 556.509 420.247 556.507 420.458C556.509 420.668 556.509 420.879 556.507 421.089C556.509 421.3 556.509 421.511 556.507 421.721C556.509 421.932 556.509 422.143 556.507 422.353C556.508 422.395 556.508 422.437 556.508 422.478L556.509 422.568C556.509 422.707 556.508 422.846 556.507 422.985C556.509 423.196 556.509 423.407 556.507 423.617C556.509 423.828 556.509 424.039 556.507 424.249C556.509 424.46 556.509 424.671 556.507 424.881C556.509 425.092 556.509 425.303 556.507 425.513C556.509 425.724 556.509 425.935 556.507 426.145C556.509 426.356 556.509 426.566 556.507 426.777C556.509 426.988 556.509 427.198 556.507 427.409C556.509 427.62 556.509 427.83 556.507 428.041C556.509 428.252 556.509 428.462 556.507 428.673C556.509 428.884 556.509 429.094 556.507 429.305C556.509 429.516 556.509 429.726 556.507 429.937C556.647 444.395 547.164 458.878 528.058 469.909C490.124 491.81 428.62 491.81 390.686 469.909C371.58 458.878 362.097 444.395 362.237 429.937C362.235 429.726 362.235 429.516 362.237 429.305C362.235 429.094 362.235 428.884 362.237 428.673C362.235 428.462 362.235 428.252 362.237 428.041C362.235 427.83 362.235 427.62 362.237 427.409C362.235 427.198 362.235 426.988 362.237 426.777C362.235 426.566 362.235 426.356 362.237 426.145C362.235 425.934 362.235 425.724 362.237 425.513C362.235 425.302 362.235 425.092 362.237 424.881C362.235 424.67 362.235 424.46 362.237 424.249C362.235 424.038 362.235 423.828 362.237 423.617C362.235 423.407 362.235 423.196 362.237 422.985C362.235 422.775 362.235 422.564 362.237 422.353C362.235 422.143 362.235 421.932 362.237 421.721C362.235 421.511 362.235 421.3 362.237 421.089C362.235 420.879 362.235 420.668 362.237 420.457C362.235 420.247 362.235 420.036 362.237 419.825C362.235 419.615 362.235 419.404 362.237 419.193C362.235 418.983 362.235 418.772 362.237 418.561C362.235 418.351 362.235 418.14 362.237 417.929C362.235 417.719 362.235 417.508 362.237 417.297C362.235 417.087 362.235 416.876 362.237 416.666C362.235 416.455 362.235 416.244 362.237 416.034C362.235 415.823 362.235 415.612 362.237 415.402C362.235 415.191 362.235 414.98 362.237 414.77C362.235 414.559 362.235 414.348 362.237 414.138C362.235 413.927 362.235 413.716 362.237 413.506C362.235 413.295 362.235 413.084 362.237 412.874C362.235 412.663 362.235 412.452 362.237 412.242C362.235 412.031 362.235 411.82 362.237 411.61C362.235 411.399 362.235 411.188 362.237 410.978C362.235 410.767 362.235 410.557 362.237 410.346C362.235 410.135 362.235 409.925 362.237 409.714C362.235 409.503 362.235 409.293 362.237 409.082C362.235 408.871 362.235 408.661 362.237 408.45C362.235 408.239 362.235 408.029 362.237 407.818C362.235 407.607 362.235 407.397 362.237 407.186C362.235 406.975 362.235 406.765 362.237 406.554C362.235 406.343 362.235 406.133 362.237 405.922C362.235 405.711 362.235 405.501 362.237 405.29C362.235 405.079 362.235 404.869 362.237 404.658C362.235 404.448 362.235 404.237 362.237 404.026C362.235 403.816 362.235 403.605 362.237 403.394C362.235 403.184 362.235 402.973 362.237 402.762C362.235 402.552 362.235 402.341 362.237 402.13C362.235 401.92 362.235 401.709 362.237 401.498C362.235 401.288 362.235 401.077 362.237 400.866C362.235 400.656 362.235 400.445 362.237 400.234C362.235 400.024 362.235 399.813 362.237 399.602Z" fill="#E1E8FF"/>
    <path d="M362.237 399.602C362.097 385.145 371.58 370.662 390.686 359.631C428.62 337.729 490.124 337.729 528.058 359.631C547.164 370.662 556.647 385.145 556.507 399.602C556.509 399.813 556.509 400.024 556.507 400.235C556.509 400.445 556.509 400.656 556.507 400.867C556.509 401.077 556.509 401.288 556.507 401.499C556.509 401.709 556.509 401.92 556.507 402.13C556.509 402.341 556.509 402.552 556.507 402.762C556.508 402.809 556.508 402.855 556.508 402.901C556.508 402.942 556.509 402.983 556.509 403.024C556.509 403.147 556.508 403.271 556.507 403.394C556.509 403.605 556.509 403.816 556.507 404.026C556.508 404.131 556.509 404.236 556.509 404.34L556.509 404.435C556.508 404.471 556.508 404.506 556.508 404.542C556.508 404.581 556.508 404.619 556.507 404.658C556.508 404.782 556.509 404.906 556.509 405.029C556.508 405.116 556.508 405.203 556.507 405.29C556.509 405.501 556.509 405.712 556.507 405.922C556.508 406.012 556.509 406.101 556.509 406.19C556.509 406.312 556.508 406.433 556.507 406.554C556.509 406.765 556.509 406.976 556.507 407.186C556.509 407.397 556.509 407.608 556.507 407.818C556.509 408.029 556.509 408.239 556.507 408.45C556.509 408.661 556.509 408.871 556.507 409.082C556.509 409.293 556.509 409.503 556.507 409.714C556.509 409.925 556.509 410.135 556.507 410.346L556.508 410.407L556.508 410.491C556.508 410.532 556.509 410.573 556.509 410.614C556.509 410.736 556.508 410.857 556.507 410.978C556.509 411.189 556.509 411.399 556.507 411.61C556.509 411.821 556.509 412.031 556.507 412.242C556.509 412.453 556.509 412.663 556.507 412.874C556.509 413.085 556.509 413.295 556.507 413.506C556.509 413.717 556.509 413.927 556.507 414.138C556.509 414.348 556.509 414.559 556.507 414.77C556.509 414.98 556.509 415.191 556.507 415.402C556.509 415.612 556.509 415.823 556.507 416.034C556.508 416.139 556.509 416.244 556.509 416.349C556.509 416.455 556.508 416.56 556.507 416.666C556.509 416.876 556.509 417.087 556.507 417.298C556.509 417.508 556.509 417.719 556.507 417.93C556.508 418.021 556.509 418.113 556.509 418.205C556.509 418.324 556.508 418.443 556.507 418.562C556.509 418.772 556.509 418.983 556.507 419.194C556.509 419.404 556.509 419.615 556.507 419.826C556.509 420.036 556.509 420.247 556.507 420.458C556.509 420.668 556.509 420.879 556.507 421.089C556.509 421.3 556.509 421.511 556.507 421.721C556.509 421.932 556.509 422.143 556.507 422.353C556.508 422.395 556.508 422.437 556.508 422.478L556.509 422.568C556.509 422.707 556.508 422.846 556.507 422.985C556.509 423.196 556.509 423.407 556.507 423.617C556.509 423.828 556.509 424.039 556.507 424.249C556.509 424.46 556.509 424.671 556.507 424.881C556.509 425.092 556.509 425.303 556.507 425.513C556.509 425.724 556.509 425.935 556.507 426.145C556.509 426.356 556.509 426.566 556.507 426.777C556.509 426.988 556.509 427.198 556.507 427.409C556.509 427.62 556.509 427.83 556.507 428.041C556.509 428.252 556.509 428.462 556.507 428.673C556.509 428.884 556.509 429.094 556.507 429.305C556.509 429.516 556.509 429.726 556.507 429.937C556.647 444.395 547.164 458.878 528.058 469.909C490.124 491.81 428.62 491.81 390.686 469.909C371.58 458.878 362.097 444.395 362.237 429.937C362.235 429.726 362.235 429.516 362.237 429.305C362.235 429.094 362.235 428.884 362.237 428.673C362.235 428.462 362.235 428.252 362.237 428.041C362.235 427.83 362.235 427.62 362.237 427.409C362.235 427.198 362.235 426.988 362.237 426.777C362.235 426.566 362.235 426.356 362.237 426.145C362.235 425.934 362.235 425.724 362.237 425.513C362.235 425.302 362.235 425.092 362.237 424.881C362.235 424.67 362.235 424.46 362.237 424.249C362.235 424.038 362.235 423.828 362.237 423.617C362.235 423.407 362.235 423.196 362.237 422.985C362.235 422.775 362.235 422.564 362.237 422.353C362.235 422.143 362.235 421.932 362.237 421.721C362.235 421.511 362.235 421.3 362.237 421.089C362.235 420.879 362.235 420.668 362.237 420.457C362.235 420.247 362.235 420.036 362.237 419.825C362.235 419.615 362.235 419.404 362.237 419.193C362.235 418.983 362.235 418.772 362.237 418.561C362.235 418.351 362.235 418.14 362.237 417.929C362.235 417.719 362.235 417.508 362.237 417.297C362.235 417.087 362.235 416.876 362.237 416.666C362.235 416.455 362.235 416.244 362.237 416.034C362.235 415.823 362.235 415.612 362.237 415.402C362.235 415.191 362.235 414.98 362.237 414.77C362.235 414.559 362.235 414.348 362.237 414.138C362.235 413.927 362.235 413.716 362.237 413.506C362.235 413.295 362.235 413.084 362.237 412.874C362.235 412.663 362.235 412.452 362.237 412.242C362.235 412.031 362.235 411.82 362.237 411.61C362.235 411.399 362.235 411.188 362.237 410.978C362.235 410.767 362.235 410.557 362.237 410.346C362.235 410.135 362.235 409.925 362.237 409.714C362.235 409.503 362.235 409.293 362.237 409.082C362.235 408.871 362.235 408.661 362.237 408.45C362.235 408.239 362.235 408.029 362.237 407.818C362.235 407.607 362.235 407.397 362.237 407.186C362.235 406.975 362.235 406.765 362.237 406.554C362.235 406.343 362.235 406.133 362.237 405.922C362.235 405.711 362.235 405.501 362.237 405.29C362.235 405.079 362.235 404.869 362.237 404.658C362.235 404.448 362.235 404.237 362.237 404.026C362.235 403.816 362.235 403.605 362.237 403.394C362.235 403.184 362.235 402.973 362.237 402.762C362.235 402.552 362.235 402.341 362.237 402.13C362.235 401.92 362.235 401.709 362.237 401.498C362.235 401.288 362.235 401.077 362.237 400.866C362.235 400.656 362.235 400.445 362.237 400.234C362.235 400.024 362.235 399.813 362.237 399.602Z" fill="url(#paint4_linear)"/>
    <circle r="79.3118" transform="matrix(0.866025 0.5 -0.866025 0.5 459.372 398.654)" fill="#3C4257"/>
    <ellipse cx="382.038" cy="448.11" rx="5.05573" ry="5.6877" fill="#3C4257"/>
    <path d="M362.237 348.26C362.097 333.802 371.58 319.319 390.686 308.288C428.62 286.387 490.124 286.387 528.058 308.288C547.164 319.319 556.647 333.802 556.507 348.26C556.509 348.471 556.509 348.682 556.507 348.892C556.509 349.103 556.509 349.314 556.507 349.524C556.509 349.735 556.509 349.946 556.507 350.156C556.509 350.367 556.509 350.578 556.507 350.788C556.509 350.999 556.509 351.209 556.507 351.42C556.508 351.466 556.508 351.513 556.508 351.559C556.508 351.6 556.509 351.64 556.509 351.681C556.509 351.805 556.508 351.929 556.507 352.052C556.509 352.263 556.509 352.473 556.507 352.684C556.508 352.789 556.509 352.893 556.509 352.998L556.509 353.093C556.508 353.129 556.508 353.164 556.508 353.2C556.508 353.238 556.508 353.277 556.507 353.316C556.508 353.44 556.509 353.563 556.509 353.687C556.508 353.774 556.508 353.861 556.507 353.948C556.509 354.159 556.509 354.369 556.507 354.58C556.508 354.669 556.509 354.759 556.509 354.848C556.509 354.969 556.508 355.091 556.507 355.212C556.509 355.423 556.509 355.633 556.507 355.844C556.509 356.055 556.509 356.265 556.507 356.476C556.509 356.687 556.509 356.897 556.507 357.108C556.509 357.318 556.509 357.529 556.507 357.74C556.509 357.95 556.509 358.161 556.507 358.372C556.509 358.582 556.509 358.793 556.507 359.004L556.508 359.065L556.508 359.148C556.508 359.19 556.509 359.231 556.509 359.272C556.509 359.393 556.508 359.515 556.507 359.636C556.509 359.846 556.509 360.057 556.507 360.268C556.509 360.478 556.509 360.689 556.507 360.9C556.509 361.11 556.509 361.321 556.507 361.532C556.509 361.742 556.509 361.953 556.507 362.164C556.509 362.374 556.509 362.585 556.507 362.796C556.509 363.006 556.509 363.217 556.507 363.428C556.509 363.638 556.509 363.849 556.507 364.059C556.509 364.27 556.509 364.481 556.507 364.691C556.508 364.797 556.509 364.902 556.509 365.007C556.509 365.112 556.508 365.218 556.507 365.323C556.509 365.534 556.509 365.745 556.507 365.955C556.509 366.166 556.509 366.377 556.507 366.587C556.508 366.679 556.509 366.771 556.509 366.862C556.509 366.981 556.508 367.1 556.507 367.219C556.509 367.43 556.509 367.641 556.507 367.851C556.509 368.062 556.509 368.273 556.507 368.483C556.509 368.694 556.509 368.905 556.507 369.115C556.509 369.326 556.509 369.537 556.507 369.747C556.509 369.958 556.509 370.168 556.507 370.379C556.509 370.59 556.509 370.8 556.507 371.011C556.508 371.053 556.508 371.094 556.508 371.136L556.509 371.225C556.509 371.365 556.508 371.504 556.507 371.643C556.509 371.854 556.509 372.064 556.507 372.275C556.509 372.486 556.509 372.696 556.507 372.907C556.509 373.118 556.509 373.328 556.507 373.539C556.509 373.75 556.509 373.96 556.507 374.171C556.509 374.382 556.509 374.592 556.507 374.803C556.509 375.014 556.509 375.224 556.507 375.435C556.509 375.646 556.509 375.856 556.507 376.067C556.509 376.277 556.509 376.488 556.507 376.699C556.509 376.909 556.509 377.12 556.507 377.331C556.509 377.541 556.509 377.752 556.507 377.963C556.509 378.173 556.509 378.384 556.507 378.595C556.647 393.052 547.164 407.535 528.058 418.566C490.124 440.468 428.62 440.468 390.686 418.566C371.58 407.535 362.097 393.052 362.237 378.595C362.235 378.384 362.235 378.173 362.237 377.963C362.235 377.752 362.235 377.541 362.237 377.331C362.235 377.12 362.235 376.909 362.237 376.699C362.235 376.488 362.235 376.277 362.237 376.067C362.235 375.856 362.235 375.645 362.237 375.435C362.235 375.224 362.235 375.013 362.237 374.803C362.235 374.592 362.235 374.381 362.237 374.171C362.235 373.96 362.235 373.749 362.237 373.539C362.235 373.328 362.235 373.117 362.237 372.907C362.235 372.696 362.235 372.486 362.237 372.275C362.235 372.064 362.235 371.854 362.237 371.643C362.235 371.432 362.235 371.222 362.237 371.011C362.235 370.8 362.235 370.59 362.237 370.379C362.235 370.168 362.235 369.958 362.237 369.747C362.235 369.536 362.235 369.326 362.237 369.115C362.235 368.904 362.235 368.694 362.237 368.483C362.235 368.272 362.235 368.062 362.237 367.851C362.235 367.64 362.235 367.43 362.237 367.219C362.235 367.008 362.235 366.798 362.237 366.587C362.235 366.377 362.235 366.166 362.237 365.955C362.235 365.745 362.235 365.534 362.237 365.323C362.235 365.113 362.235 364.902 362.237 364.691C362.235 364.481 362.235 364.27 362.237 364.059C362.235 363.849 362.235 363.638 362.237 363.427C362.235 363.217 362.235 363.006 362.237 362.795C362.235 362.585 362.235 362.374 362.237 362.163C362.235 361.953 362.235 361.742 362.237 361.531C362.235 361.321 362.235 361.11 362.237 360.899C362.235 360.689 362.235 360.478 362.237 360.268C362.235 360.057 362.235 359.846 362.237 359.636C362.235 359.425 362.235 359.214 362.237 359.004C362.235 358.793 362.235 358.582 362.237 358.372C362.235 358.161 362.235 357.95 362.237 357.74C362.235 357.529 362.235 357.318 362.237 357.108C362.235 356.897 362.235 356.686 362.237 356.476C362.235 356.265 362.235 356.054 362.237 355.844C362.235 355.633 362.235 355.422 362.237 355.212C362.235 355.001 362.235 354.79 362.237 354.58C362.235 354.369 362.235 354.159 362.237 353.948C362.235 353.737 362.235 353.527 362.237 353.316C362.235 353.105 362.235 352.895 362.237 352.684C362.235 352.473 362.235 352.263 362.237 352.052C362.235 351.841 362.235 351.631 362.237 351.42C362.235 351.209 362.235 350.999 362.237 350.788C362.235 350.577 362.235 350.367 362.237 350.156C362.235 349.945 362.235 349.735 362.237 349.524C362.235 349.313 362.235 349.103 362.237 348.892C362.235 348.681 362.235 348.471 362.237 348.26Z" fill="#E1E8FF"/>
    <path d="M362.237 348.26C362.097 333.802 371.58 319.319 390.686 308.288C428.62 286.387 490.124 286.387 528.058 308.288C547.164 319.319 556.647 333.802 556.507 348.26C556.509 348.471 556.509 348.682 556.507 348.892C556.509 349.103 556.509 349.314 556.507 349.524C556.509 349.735 556.509 349.946 556.507 350.156C556.509 350.367 556.509 350.578 556.507 350.788C556.509 350.999 556.509 351.209 556.507 351.42C556.508 351.466 556.508 351.513 556.508 351.559C556.508 351.6 556.509 351.64 556.509 351.681C556.509 351.805 556.508 351.929 556.507 352.052C556.509 352.263 556.509 352.473 556.507 352.684C556.508 352.789 556.509 352.893 556.509 352.998L556.509 353.093C556.508 353.129 556.508 353.164 556.508 353.2C556.508 353.238 556.508 353.277 556.507 353.316C556.508 353.44 556.509 353.563 556.509 353.687C556.508 353.774 556.508 353.861 556.507 353.948C556.509 354.159 556.509 354.369 556.507 354.58C556.508 354.669 556.509 354.759 556.509 354.848C556.509 354.969 556.508 355.091 556.507 355.212C556.509 355.423 556.509 355.633 556.507 355.844C556.509 356.055 556.509 356.265 556.507 356.476C556.509 356.687 556.509 356.897 556.507 357.108C556.509 357.318 556.509 357.529 556.507 357.74C556.509 357.95 556.509 358.161 556.507 358.372C556.509 358.582 556.509 358.793 556.507 359.004L556.508 359.065L556.508 359.148C556.508 359.19 556.509 359.231 556.509 359.272C556.509 359.393 556.508 359.515 556.507 359.636C556.509 359.846 556.509 360.057 556.507 360.268C556.509 360.478 556.509 360.689 556.507 360.9C556.509 361.11 556.509 361.321 556.507 361.532C556.509 361.742 556.509 361.953 556.507 362.164C556.509 362.374 556.509 362.585 556.507 362.796C556.509 363.006 556.509 363.217 556.507 363.428C556.509 363.638 556.509 363.849 556.507 364.059C556.509 364.27 556.509 364.481 556.507 364.691C556.508 364.797 556.509 364.902 556.509 365.007C556.509 365.112 556.508 365.218 556.507 365.323C556.509 365.534 556.509 365.745 556.507 365.955C556.509 366.166 556.509 366.377 556.507 366.587C556.508 366.679 556.509 366.771 556.509 366.862C556.509 366.981 556.508 367.1 556.507 367.219C556.509 367.43 556.509 367.641 556.507 367.851C556.509 368.062 556.509 368.273 556.507 368.483C556.509 368.694 556.509 368.905 556.507 369.115C556.509 369.326 556.509 369.537 556.507 369.747C556.509 369.958 556.509 370.168 556.507 370.379C556.509 370.59 556.509 370.8 556.507 371.011C556.508 371.053 556.508 371.094 556.508 371.136L556.509 371.225C556.509 371.365 556.508 371.504 556.507 371.643C556.509 371.854 556.509 372.064 556.507 372.275C556.509 372.486 556.509 372.696 556.507 372.907C556.509 373.118 556.509 373.328 556.507 373.539C556.509 373.75 556.509 373.96 556.507 374.171C556.509 374.382 556.509 374.592 556.507 374.803C556.509 375.014 556.509 375.224 556.507 375.435C556.509 375.646 556.509 375.856 556.507 376.067C556.509 376.277 556.509 376.488 556.507 376.699C556.509 376.909 556.509 377.12 556.507 377.331C556.509 377.541 556.509 377.752 556.507 377.963C556.509 378.173 556.509 378.384 556.507 378.595C556.647 393.052 547.164 407.535 528.058 418.566C490.124 440.468 428.62 440.468 390.686 418.566C371.58 407.535 362.097 393.052 362.237 378.595C362.235 378.384 362.235 378.173 362.237 377.963C362.235 377.752 362.235 377.541 362.237 377.331C362.235 377.12 362.235 376.909 362.237 376.699C362.235 376.488 362.235 376.277 362.237 376.067C362.235 375.856 362.235 375.645 362.237 375.435C362.235 375.224 362.235 375.013 362.237 374.803C362.235 374.592 362.235 374.381 362.237 374.171C362.235 373.96 362.235 373.749 362.237 373.539C362.235 373.328 362.235 373.117 362.237 372.907C362.235 372.696 362.235 372.486 362.237 372.275C362.235 372.064 362.235 371.854 362.237 371.643C362.235 371.432 362.235 371.222 362.237 371.011C362.235 370.8 362.235 370.59 362.237 370.379C362.235 370.168 362.235 369.958 362.237 369.747C362.235 369.536 362.235 369.326 362.237 369.115C362.235 368.904 362.235 368.694 362.237 368.483C362.235 368.272 362.235 368.062 362.237 367.851C362.235 367.64 362.235 367.43 362.237 367.219C362.235 367.008 362.235 366.798 362.237 366.587C362.235 366.377 362.235 366.166 362.237 365.955C362.235 365.745 362.235 365.534 362.237 365.323C362.235 365.113 362.235 364.902 362.237 364.691C362.235 364.481 362.235 364.27 362.237 364.059C362.235 363.849 362.235 363.638 362.237 363.427C362.235 363.217 362.235 363.006 362.237 362.795C362.235 362.585 362.235 362.374 362.237 362.163C362.235 361.953 362.235 361.742 362.237 361.531C362.235 361.321 362.235 361.11 362.237 360.899C362.235 360.689 362.235 360.478 362.237 360.268C362.235 360.057 362.235 359.846 362.237 359.636C362.235 359.425 362.235 359.214 362.237 359.004C362.235 358.793 362.235 358.582 362.237 358.372C362.235 358.161 362.235 357.95 362.237 357.74C362.235 357.529 362.235 357.318 362.237 357.108C362.235 356.897 362.235 356.686 362.237 356.476C362.235 356.265 362.235 356.054 362.237 355.844C362.235 355.633 362.235 355.422 362.237 355.212C362.235 355.001 362.235 354.79 362.237 354.58C362.235 354.369 362.235 354.159 362.237 353.948C362.235 353.737 362.235 353.527 362.237 353.316C362.235 353.105 362.235 352.895 362.237 352.684C362.235 352.473 362.235 352.263 362.237 352.052C362.235 351.841 362.235 351.631 362.237 351.42C362.235 351.209 362.235 350.999 362.237 350.788C362.235 350.577 362.235 350.367 362.237 350.156C362.235 349.945 362.235 349.735 362.237 349.524C362.235 349.313 362.235 349.103 362.237 348.892C362.235 348.681 362.235 348.471 362.237 348.26Z" fill="url(#paint5_linear)"/>
    <circle r="79.3118" transform="matrix(0.866025 0.5 -0.866025 0.5 459.372 347.312)" fill="#3C4257"/>
    <ellipse cx="382.038" cy="396.289" rx="5.05573" ry="5.6877" fill="#3C4257"/>
    <rect width="115.494" height="115.494" transform="matrix(0.866025 0.5 -0.866025 0.5 143.021 92)" fill="#E1E8FF"/>
    <rect width="115.494" height="115.494" transform="matrix(0.866025 0.5 -0.866025 0.5 143.021 92)" fill="#3C4257"/>
    <path d="M43 149.747L143.021 207.494L143.021 322.988L43 265.241L43 207.494L43 149.747Z" fill="#FDDE4F"/>
    <path d="M143.095 207.494L243.115 149.747L243.115 265.241L143.095 322.988L143.095 265.241L143.095 207.494Z" fill="#CEC0FF"/>
    <path d="M157.776 180.721C161.318 178.676 161.663 175.91 158.832 173.947L158.73 173.877L155.747 175.6L155.828 175.67C157.168 176.901 156.944 178.201 155.178 179.221C152.834 180.574 149.424 180.34 146.339 178.559L146.329 178.553C143.264 176.783 142.878 174.826 145.222 173.473C147.049 172.418 149.302 172.336 151.261 173.069L151.474 173.145L154.458 171.422L154.356 171.375C150.967 169.746 146.176 169.922 142.624 171.973C138.352 174.44 138.494 177.639 143.213 180.363L143.223 180.369C147.942 183.094 153.494 183.194 157.776 180.721ZM165.642 175.887L168.605 174.176L153.961 165.721L150.997 167.432L165.642 175.887ZM159.867 165.041C160.76 164.526 160.75 163.723 159.908 163.237C159.065 162.75 157.675 162.744 156.782 163.26C155.889 163.776 155.899 164.578 156.741 165.065C157.584 165.551 158.974 165.557 159.867 165.041ZM170.665 172.987L173.629 171.276L162.749 164.994L159.786 166.705L170.665 172.987ZM180.794 167.397C183.899 165.604 183.564 163.676 182.296 162.557L182.215 162.475L179.495 164.045L179.535 164.092C179.931 164.567 179.86 165.381 178.642 166.084C177.13 166.957 175.171 166.916 173.405 165.932L180.895 161.608L179.982 161.08C176.694 159.182 172.533 159.088 169.346 160.928C166.159 162.768 166.332 165.223 169.793 167.221L169.803 167.227C173.284 169.237 177.465 169.319 180.794 167.397ZM171.609 162.176C172.837 161.467 174.502 161.408 176.186 162.17L171.569 164.836C170.29 163.875 170.391 162.879 171.609 162.176ZM187.167 163.459L190.131 161.748L183.879 158.139C182.458 157.319 182.326 156.27 183.656 155.502C184.985 154.735 186.467 154.817 187.888 155.637L194.302 159.34L197.265 157.629L190.242 153.574C187.695 152.104 184.803 152.004 182.407 153.387C180.763 154.336 180.408 155.42 181.098 156.463L181.037 156.498L179.251 155.467L176.288 157.178L187.167 163.459ZM203.689 154.178C204.308 153.82 204.724 153.51 205.009 153.287L202.837 152.033C202.674 152.151 202.512 152.279 202.248 152.432C201.355 152.947 200.553 153.012 199.538 152.426L194.261 149.379L196.25 148.231L194.018 146.942L192.028 148.09L189.369 146.555L186.376 148.283L189.035 149.819L187.522 150.692L189.755 151.981L191.267 151.108L196.869 154.342C199.204 155.69 201.274 155.572 203.689 154.178Z" fill="white"/>
    <rect width="115.494" height="115.494" transform="matrix(0.866025 0.5 -0.866025 0.5 459.021 92)" fill="#E1E8FF"/>
    <rect width="115.494" height="115.494" transform="matrix(0.866025 0.5 -0.866025 0.5 459.021 92)" fill="#3C4257"/>
    <path d="M359 149.747L459.021 207.494L459.021 322.988L359 265.241L359 207.494L359 149.747Z" fill="#E1E8FF"/>
    <path d="M459.095 207.494L559.115 149.747L559.115 265.241L459.095 322.988L459.095 265.241L459.095 207.494Z" fill="#CEC0FF"/>
    <path d="M468.888 183.543C472.582 181.411 473.008 179.102 470.197 177.479L470.187 177.473C467.883 176.143 465.254 176.219 461.58 177.637L459.713 178.352C457.693 179.131 456.405 179.254 455.481 178.721L455.471 178.715C454.426 178.112 454.649 177.151 456.212 176.237C457.724 175.364 459.48 175.159 460.779 175.733L460.911 175.797L463.803 174.127L463.6 174.022C460.89 172.622 457.115 172.844 453.725 174.801C450.478 176.676 449.909 179.043 452.589 180.59L452.599 180.596C454.801 181.868 457.643 181.821 461.114 180.485L462.961 179.77C465.153 178.938 466.371 178.809 467.365 179.383L467.375 179.389C468.492 180.034 468.167 181.077 466.472 182.055C464.798 183.022 462.879 183.309 461.55 182.764L461.418 182.711L458.526 184.381L458.698 184.469C461.57 185.928 465.406 185.553 468.888 183.543ZM481.34 176.319C484.446 174.526 484.111 172.598 482.842 171.479L482.761 171.397L480.041 172.967L480.082 173.014C480.477 173.489 480.406 174.303 479.188 175.006C477.676 175.879 475.718 175.838 473.952 174.854L481.441 170.53L480.528 170.002C477.24 168.104 473.079 168.01 469.892 169.85C466.706 171.69 466.878 174.145 470.339 176.143L470.349 176.149C473.83 178.159 478.011 178.241 481.34 176.319ZM472.155 171.098C473.383 170.389 475.048 170.331 476.732 171.092L472.115 173.758C470.836 172.797 470.938 171.801 472.155 171.098ZM487.713 172.381L490.677 170.67L484.588 167.155C483.004 166.241 482.984 165.245 484.446 164.401C484.872 164.155 485.339 163.956 485.684 163.874L483.075 162.368C482.791 162.461 482.436 162.608 482.111 162.795C480.843 163.528 480.741 164.489 481.756 165.45L481.695 165.485L479.797 164.389L476.834 166.1L487.713 172.381ZM498.156 166.352L501.495 164.424L494.351 155.987L491.255 157.774L497.274 163.838L497.213 163.874L486.678 160.417L483.512 162.245L498.156 166.352ZM511.056 159.163C514.161 157.37 513.826 155.442 512.558 154.323L512.476 154.241L509.756 155.811L509.797 155.858C510.193 156.333 510.122 157.147 508.904 157.85C507.392 158.723 505.433 158.682 503.667 157.698L511.157 153.374L510.244 152.846C506.955 150.948 502.794 150.854 499.608 152.694C496.421 154.534 496.594 156.989 500.054 158.987L500.064 158.993C503.545 161.002 507.727 161.084 511.056 159.163ZM501.871 153.942C503.099 153.233 504.763 153.174 506.448 153.936L501.83 156.602C500.552 155.641 500.653 154.645 501.871 153.942ZM517.429 155.225L520.392 153.514L514.303 149.999C512.72 149.084 512.7 148.088 514.161 147.245C514.587 146.999 515.054 146.799 515.399 146.717L512.791 145.211C512.507 145.305 512.152 145.452 511.827 145.639C510.558 146.372 510.457 147.333 511.472 148.293L511.411 148.329L509.513 147.233L506.549 148.944L517.429 155.225Z" fill="white"/>
    <path d="M412.784 373.985C416.478 371.852 416.904 369.544 414.093 367.92L414.083 367.915C411.779 366.585 409.15 366.661 405.476 368.079L403.609 368.794C401.59 369.573 400.301 369.696 399.377 369.163L399.367 369.157C398.322 368.553 398.545 367.592 400.108 366.678C401.62 365.805 403.376 365.6 404.675 366.174L404.807 366.239L407.699 364.569L407.496 364.463C404.786 363.063 401.011 363.286 397.621 365.243C394.374 367.118 393.805 369.485 396.485 371.032L396.495 371.038C398.697 372.309 401.539 372.262 405.01 370.926L406.857 370.211C409.049 369.379 410.267 369.251 411.261 369.825L411.271 369.831C412.388 370.475 412.063 371.518 410.368 372.497C408.694 373.463 406.776 373.751 405.446 373.206L405.314 373.153L402.422 374.823L402.594 374.911C405.466 376.37 409.303 375.995 412.784 373.985ZM425.236 366.76C428.342 364.967 428.007 363.04 426.738 361.92L426.657 361.838L423.937 363.409L423.978 363.456C424.373 363.93 424.302 364.745 423.085 365.448C421.572 366.321 419.614 366.28 417.848 365.295L425.338 360.971L424.424 360.444C421.136 358.545 416.975 358.452 413.788 360.292C410.602 362.131 410.774 364.586 414.235 366.585L414.245 366.59C417.726 368.6 421.907 368.682 425.236 366.76ZM416.051 361.54C417.279 360.831 418.944 360.772 420.629 361.534L416.011 364.2C414.732 363.239 414.834 362.243 416.051 361.54ZM431.609 362.823L434.573 361.112L428.484 357.596C426.9 356.682 426.88 355.686 428.342 354.842C428.768 354.596 429.235 354.397 429.58 354.315L426.971 352.809C426.687 352.903 426.332 353.049 426.007 353.237C424.739 353.969 424.637 354.93 425.652 355.891L425.591 355.926L423.693 354.831L420.73 356.542L431.609 362.823ZM442.053 356.794L445.391 354.866L438.247 346.428L435.151 348.215L441.17 354.28L441.109 354.315L430.574 350.858L427.408 352.686L442.053 356.794ZM454.952 349.604C458.057 347.811 457.722 345.883 456.454 344.764L456.372 344.682L453.653 346.253L453.693 346.299C454.089 346.774 454.018 347.588 452.8 348.292C451.288 349.165 449.329 349.124 447.563 348.139L455.053 343.815L454.14 343.288C450.851 341.389 446.69 341.295 443.504 343.135C440.317 344.975 440.49 347.43 443.95 349.428L443.96 349.434C447.441 351.444 451.623 351.526 454.952 349.604ZM445.767 344.383C446.995 343.674 448.659 343.616 450.344 344.378L445.726 347.044C444.448 346.083 444.549 345.086 445.767 344.383ZM461.325 345.667L464.288 343.956L458.199 340.44C456.616 339.526 456.596 338.53 458.057 337.686C458.483 337.44 458.95 337.241 459.295 337.159L456.687 335.653C456.403 335.747 456.048 335.893 455.723 336.081C454.454 336.813 454.353 337.774 455.368 338.735L455.307 338.77L453.409 337.674L450.446 339.385L461.325 345.667ZM477.269 336.719C478.842 335.811 479.248 334.663 478.537 333.585L478.598 333.549L480.455 334.622L483.419 332.911L468.774 324.456L465.811 326.167L471.464 329.43L471.403 329.465C469.495 329.044 467.485 329.29 465.943 330.18C463.202 331.762 463.629 333.954 467.171 335.999L467.181 336.004C470.713 338.044 474.528 338.301 477.269 336.719ZM475.807 334.727C474.325 335.583 472.174 335.407 470.195 334.264L470.185 334.258C468.196 333.11 467.922 331.874 469.393 331.024C470.824 330.198 473.057 330.338 475.016 331.469L475.026 331.475C476.995 332.612 477.248 333.895 475.807 334.727ZM488.808 329.999C490.239 329.172 490.716 328.112 490.218 327.11L490.279 327.075L491.903 328.012L494.867 326.301L487.407 321.995C485.215 320.729 481.947 320.94 479.136 322.563C476.264 324.221 475.98 326.049 477.827 327.303L477.938 327.379L480.648 325.815L480.577 325.751C480.019 325.264 480.171 324.579 481.277 323.94C482.434 323.272 483.662 323.254 484.626 323.811L485.296 324.198L482.769 325.844C480.242 327.503 479.867 329.055 481.846 330.198L481.866 330.21C483.784 331.317 486.626 331.258 488.808 329.999ZM484.647 328.428L484.626 328.417C483.855 327.971 483.967 327.344 485.043 326.641L487.143 325.264L487.925 325.715C489.061 326.372 488.94 327.426 487.61 328.194C486.585 328.786 485.449 328.891 484.647 328.428ZM501.331 322.827C501.95 322.469 502.366 322.159 502.651 321.936L500.479 320.682C500.316 320.799 500.154 320.928 499.89 321.081C498.997 321.596 498.195 321.661 497.18 321.075L491.903 318.028L493.892 316.879L491.66 315.59L489.67 316.739L487.011 315.204L484.018 316.932L486.677 318.467L485.164 319.34L487.397 320.629L488.909 319.756L494.511 322.991C496.846 324.338 498.916 324.221 501.331 322.827ZM507.481 319.217C508.912 318.391 509.389 317.331 508.892 316.329L508.953 316.294L510.577 317.231L513.54 315.52L506.081 311.213C503.889 309.948 500.621 310.159 497.81 311.782C494.938 313.44 494.653 315.268 496.5 316.522L496.612 316.598L499.322 315.034L499.251 314.969C498.693 314.483 498.845 313.797 499.951 313.159C501.108 312.491 502.336 312.473 503.3 313.03L503.97 313.417L501.443 315.063C498.916 316.721 498.54 318.274 500.519 319.417L500.54 319.428C502.458 320.536 505.299 320.477 507.481 319.217ZM503.32 317.647L503.3 317.635C502.529 317.19 502.64 316.563 503.716 315.86L505.817 314.483L506.598 314.934C507.735 315.59 507.613 316.645 506.284 317.413C505.259 318.004 504.122 318.11 503.32 317.647ZM465.628 367.44C468.368 365.858 467.932 363.649 464.4 361.61L464.39 361.604C460.848 359.559 457.042 359.319 454.312 360.895C452.759 361.792 452.343 362.946 453.064 364.053L453.003 364.088L447.35 360.825L444.387 362.536L459.031 370.991L461.995 369.28L460.138 368.208L460.198 368.172C462.076 368.577 464.065 368.342 465.628 367.44ZM462.188 366.59C460.746 367.422 458.524 367.276 456.555 366.139L456.545 366.133C454.586 365.003 454.343 363.713 455.774 362.887C457.245 362.038 459.387 362.196 461.376 363.344L461.386 363.35C463.365 364.493 463.659 365.741 462.188 366.59ZM474.772 362.102C476.203 361.276 476.68 360.215 476.183 359.213L476.244 359.178L477.867 360.116L480.831 358.405L473.372 354.098C471.179 352.833 467.911 353.044 465.1 354.667C462.228 356.325 461.944 358.153 463.791 359.407L463.903 359.483L466.612 357.919L466.541 357.854C465.983 357.368 466.135 356.682 467.242 356.044C468.399 355.376 469.627 355.358 470.591 355.915L471.261 356.301L468.734 357.948C466.207 359.606 465.831 361.159 467.81 362.301L467.83 362.313C469.748 363.42 472.59 363.362 474.772 362.102ZM470.611 360.532L470.591 360.52C469.819 360.075 469.931 359.448 471.007 358.745L473.108 357.368L473.889 357.819C475.026 358.475 474.904 359.53 473.574 360.297C472.549 360.889 471.413 360.995 470.611 360.532ZM487.448 354.842C490.249 353.225 490.807 351.286 488.676 350.055L488.666 350.049C487.062 349.124 485.235 349.147 482.485 350.184L480.242 351.022C478.913 351.52 478.172 351.526 477.614 351.204L477.604 351.198C476.903 350.794 477.086 350.161 478.111 349.569C479.207 348.936 480.435 348.907 481.318 349.299L481.409 349.34L484.139 347.764L484.038 347.706C482.059 346.645 478.913 346.692 476.02 348.362C473.25 349.961 472.803 351.766 474.874 352.961L474.884 352.967C476.507 353.905 478.629 353.899 481.186 352.938L483.419 352.094C484.718 351.614 485.418 351.596 485.997 351.93L486.007 351.936C486.707 352.34 486.463 352.985 485.347 353.629C484.16 354.315 483.023 354.397 481.978 354.016L481.866 353.975L478.974 355.645L479.075 355.692C481.369 356.747 484.434 356.583 487.448 354.842ZM498.622 348.391C501.727 346.598 501.392 344.67 500.124 343.551L500.042 343.469L497.323 345.04L497.363 345.086C497.759 345.561 497.688 346.376 496.47 347.079C494.958 347.952 492.999 347.911 491.233 346.926L498.723 342.602L497.81 342.075C494.521 340.176 490.36 340.083 487.174 341.922C483.987 343.762 484.16 346.217 487.62 348.215L487.63 348.221C491.111 350.231 495.293 350.313 498.622 348.391ZM489.437 343.17C490.665 342.461 492.329 342.403 494.014 343.165L489.396 345.831C488.118 344.87 488.219 343.874 489.437 343.17Z" fill="white"/>
    <path d="M183.129 297.009C182.581 296.935 182.078 297.319 182.004 297.866L180.798 306.785C180.724 307.332 181.108 307.836 181.655 307.91C182.202 307.984 182.706 307.6 182.78 307.053L183.852 299.125L191.78 300.197C192.327 300.271 192.831 299.887 192.905 299.34C192.979 298.792 192.595 298.289 192.048 298.215L183.129 297.009ZM433.881 149.934C434.397 150.131 434.975 149.872 435.172 149.356L438.38 140.948C438.577 140.432 438.319 139.854 437.803 139.657C437.287 139.46 436.709 139.719 436.512 140.235L433.66 147.709L426.186 144.857C425.67 144.66 425.092 144.919 424.895 145.435C424.698 145.951 424.957 146.529 425.473 146.726L433.881 149.934ZM300 355C252.593 355 210.463 332.406 183.79 297.394L182.199 298.606C209.234 334.093 251.942 357 300 357V355ZM416.21 297.394C389.538 332.406 347.408 355 300 355V357C348.059 357 390.767 334.093 417.801 298.606L416.21 297.394ZM166.675 149.409C189.474 98.4794 240.595 63 300 63V61C239.778 61 187.959 96.9689 164.85 148.591L166.675 149.409ZM300 63C359.406 63 410.527 98.4794 433.325 149.409L435.151 148.591C412.042 96.9689 360.223 61 300 61V63Z" fill="#B8C0CD"/>
    <defs>
        <linearGradient id="paint0_linear" x1="239.715" y1="529.546" x2="45.7017" y2="529.546" gradientUnits="userSpaceOnUse">
            <stop stop-color="#CEC0FF" stop-opacity="0"/>
            <stop offset="0.129625" stop-color="#CEC0FF"/>
            <stop offset="0.747994" stop-color="#CEC0FF" stop-opacity="0"/>
        </linearGradient>
        <linearGradient id="paint1_linear" x1="239.715" y1="479.546" x2="45.7017" y2="479.546" gradientUnits="userSpaceOnUse">
            <stop stop-color="#CEC0FF" stop-opacity="0"/>
            <stop offset="0.129625" stop-color="#CEC0FF"/>
            <stop offset="0.747994" stop-color="#CEC0FF" stop-opacity="0"/>
        </linearGradient>
        <linearGradient id="paint2_linear" x1="239.715" y1="428.204" x2="45.7017" y2="428.204" gradientUnits="userSpaceOnUse">
            <stop stop-color="#CEC0FF" stop-opacity="0"/>
            <stop offset="0.129625" stop-color="#CEC0FF"/>
            <stop offset="0.747994" stop-color="#CEC0FF" stop-opacity="0"/>
        </linearGradient>
        <linearGradient id="paint3_linear" x1="556.459" y1="529.546" x2="362.446" y2="529.546" gradientUnits="userSpaceOnUse">
            <stop stop-color="#CEC0FF" stop-opacity="0"/>
            <stop offset="0.129625" stop-color="#CEC0FF"/>
            <stop offset="0.747994" stop-color="#CEC0FF" stop-opacity="0"/>
        </linearGradient>
        <linearGradient id="paint4_linear" x1="556.459" y1="479.546" x2="362.446" y2="479.546" gradientUnits="userSpaceOnUse">
            <stop stop-color="#CEC0FF" stop-opacity="0"/>
            <stop offset="0.129625" stop-color="#CEC0FF"/>
            <stop offset="0.747994" stop-color="#CEC0FF" stop-opacity="0"/>
        </linearGradient>
        <linearGradient id="paint5_linear" x1="556.459" y1="428.204" x2="362.446" y2="428.204" gradientUnits="userSpaceOnUse">
            <stop stop-color="#CEC0FF" stop-opacity="0"/>
            <stop offset="0.129625" stop-color="#CEC0FF"/>
            <stop offset="0.747994" stop-color="#CEC0FF" stop-opacity="0"/>
        </linearGradient>
    </defs>
</svg>
