<svg width="599" height="361" viewBox="0 0 599 361" fill="none" xmlns="http://www.w3.org/2000/svg">
    <rect x="0.978148" y="1.20791" width="142" height="94" transform="matrix(0.978148 0.207912 0 1 133.021 137.797)" fill="white" stroke="#FFE000" stroke-width="2"/>
    <path d="M185.969 202.752C184.842 203.401 183.457 203.562 182.072 203.268C178.715 202.554 176.391 199.66 176.391 196.156C176.391 192.508 178.692 190.741 181.743 191.39C183.387 191.739 184.467 192.425 185.453 193.306L186.744 191.397C185.664 190.159 183.88 189.084 181.743 188.63C176.321 187.477 173.339 190.683 173.339 195.507C173.339 200.739 176.79 204.905 181.814 205.973C183.95 206.427 186.04 206.103 187.072 205.195L185.969 202.752ZM189.168 204.296C189.168 206.504 190.037 207.697 191.657 208.041C192.924 208.31 193.84 208.097 194.45 207.723L193.887 205.491C193.558 205.661 193.206 205.778 192.783 205.688C192.15 205.554 191.868 204.966 191.868 203.742V191.046L189.168 190.472V204.296ZM196.582 208.848L199.282 209.422V198.622L196.582 198.048V208.848ZM196.301 194.1C196.301 195.204 197.075 195.993 197.991 196.187C198.766 196.352 199.54 195.893 199.54 194.789C199.54 193.805 198.766 193.016 197.991 192.851C197.075 192.657 196.301 193.116 196.301 194.1ZM210.981 208.884C210.371 209.259 209.291 209.509 208 209.235C206.333 208.88 205.065 207.723 204.83 206.041L212.46 207.663C212.577 207.28 212.624 206.882 212.624 206.21C212.624 203.186 210.347 200.71 207.624 200.131C204.15 199.392 202.037 201.463 202.037 204.607C202.037 208.015 204.314 210.755 207.718 211.479C209.197 211.793 210.699 211.681 211.756 210.993L210.981 208.884ZM207.507 202.41C209.056 202.739 209.948 203.961 209.925 205.276L204.736 204.173C205.018 202.817 205.887 202.066 207.507 202.41ZM214.799 212.72L217.498 213.294V205.926C218.132 205.413 218.883 205.188 219.799 205.383C221.301 205.702 222.17 206.703 222.17 208.431V214.287L224.87 214.861V208.525C224.87 205.141 223.109 203.494 220.527 202.945C219.259 202.676 218.132 203.013 217.498 203.574V202.494L214.799 201.92V212.72ZM227.379 211.29C227.379 214.05 228.271 215.824 230.666 216.333C232.027 216.622 233.154 216.334 233.788 215.94L232.966 213.63C232.591 213.838 232.074 214.064 231.347 213.909C230.455 213.72 230.079 212.872 230.079 211.696V207.76L233.483 208.483V205.891L230.079 205.168V202.168L227.379 201.594V211.29Z" fill="#6C7991"/>
    <rect x="0.978148" y="1.20791" width="142" height="94" transform="matrix(0.978148 0.207912 0 1 326.021 111.797)" fill="white" stroke="#7833FF" stroke-width="2"/>
    <path d="M373.453 173.956C373.453 175.228 372.421 175.704 371.059 175.415C369.791 175.145 368.242 174.192 367.279 172.716L365.636 174.382C366.434 176.256 368.899 177.716 371.012 178.165C374.087 178.819 376.505 177.413 376.505 174.581C376.505 168.989 369.064 168.511 369.064 165.031C369.064 163.927 369.932 163.367 371.364 163.672C372.679 163.951 373.477 164.577 374.275 165.538L375.824 163.66C374.839 162.346 373.148 161.291 371.129 160.862C367.937 160.183 366.012 161.886 366.012 164.406C366.012 169.878 373.453 170.644 373.453 173.956ZM387.345 178.349C386.734 178.723 385.655 178.973 384.363 178.699C382.697 178.345 381.429 177.187 381.194 175.505L388.824 177.127C388.941 176.744 388.988 176.346 388.988 175.674C388.988 172.65 386.711 170.174 383.988 169.595C380.513 168.856 378.401 170.927 378.401 174.071C378.401 177.479 380.678 180.219 384.082 180.943C385.561 181.257 387.063 181.145 388.119 180.457L387.345 178.349ZM383.87 171.874C385.42 172.203 386.312 173.425 386.288 174.74L381.1 173.637C381.382 172.281 382.251 171.53 383.87 171.874ZM391.162 182.184L393.862 182.758V175.51C394.167 174.951 394.66 174.527 395.599 174.727C396.163 174.847 396.444 175.003 396.961 175.425L397.923 173.037C397.571 172.698 397.149 172.464 396.28 172.28C395.012 172.01 394.355 172.423 393.862 173.014V171.958L391.162 171.384V182.184ZM409.298 175.239L406.457 174.635L404.626 178.83C404.344 179.466 404.039 180.385 403.851 181.161C403.664 180.281 403.335 179.251 403.053 178.543L401.105 173.497L397.889 172.814L402.748 184.695L404.743 185.119L409.298 175.239ZM418.638 185C418.027 185.374 416.948 185.625 415.656 185.35C413.99 184.996 412.722 183.839 412.487 182.157L420.117 183.778C420.234 183.395 420.281 182.997 420.281 182.325C420.281 179.301 418.004 176.825 415.281 176.247C411.806 175.508 409.694 177.579 409.694 180.723C409.694 184.131 411.971 186.871 415.375 187.594C416.854 187.909 418.356 187.796 419.413 187.109L418.638 185ZM415.163 178.526C416.713 178.855 417.605 180.077 417.581 181.392L412.393 180.289C412.675 178.933 413.544 178.181 415.163 178.526ZM422.456 188.836L425.155 189.409V182.161C425.46 181.602 425.953 181.179 426.892 181.379C427.456 181.498 427.738 181.654 428.254 182.076L429.216 179.689C428.864 179.35 428.442 179.116 427.573 178.931C426.306 178.662 425.648 179.074 425.155 179.665V178.609L422.456 178.036V188.836Z" fill="#7833FF"/>
    <path d="M201 16V15.5L200.511 15.396V15.896L201 16ZM388.804 55.919L389.293 56.023V55.523L388.804 55.419V55.919ZM388.804 116.919L391.628 112.519L385.981 111.319L388.804 116.919ZM201 16.5L388.804 56.419V55.419L201 15.5V16.5ZM388.315 55.8151V112.315L389.293 112.523V56.023L388.315 55.8151ZM201.489 153.104V16.104L200.511 15.896V152.896L201.489 153.104Z" fill="#D3DBE6"/>
    <path d="M237 70V69.5L236.511 69.396V69.896L237 70ZM354.378 94.9494L354.867 95.0534V94.5534L354.378 94.4494V94.9494ZM354.378 114.949L357.201 110.55L351.554 109.349L354.378 114.949ZM237 70.5L354.378 95.4494V94.4494L237 69.5V70.5ZM353.889 94.8454V110.345L354.867 110.553V95.0534L353.889 94.8454ZM237.489 166.104V70.104L236.511 69.896V165.896L237.489 166.104Z" fill="#D3DBE6"/>
    <path d="M388.804 350.919V351.419L389.293 351.523V351.023L388.804 350.919ZM201 311L200.511 310.896V311.396L201 311.5V311ZM388.804 222.919L385.981 227.319L391.628 228.519L388.804 222.919ZM388.804 350.419L201 310.5V311.5L388.804 351.419V350.419ZM388.315 227.315V350.815L389.293 351.023V227.523L388.315 227.315ZM201.489 311.104V247.104L200.511 246.896V310.896L201.489 311.104Z" fill="#D3DBE6"/>
    <path d="M291.931 26.904L293.914 27.3257V28.6457C293.609 28.8808 292.846 28.9946 292.212 28.8599C290.546 28.5056 289.43 27.1046 289.43 25.3166C289.43 23.4446 290.593 22.6116 292.177 22.9484C292.893 23.1006 293.621 23.5073 294.032 23.9906L294.642 22.9444C293.973 22.2622 293.175 21.7805 292.001 21.531C289.489 20.9971 287.905 22.5803 287.905 24.9923C287.905 27.6083 289.501 29.6636 292.189 30.2349C293.21 30.452 294.536 30.3019 295.264 29.7126V26.2326L291.931 25.524V26.904ZM300.799 30.4211C300.494 30.6082 299.954 30.7335 299.309 30.5963C298.475 30.4191 297.841 29.8404 297.724 28.9994L301.539 29.8103C301.597 29.6188 301.621 29.4198 301.621 29.0838C301.621 27.5718 300.482 26.3338 299.121 26.0443C297.384 25.6751 296.327 26.7105 296.327 28.2825C296.327 29.9865 297.466 31.3566 299.168 31.7183C299.907 31.8755 300.658 31.8192 301.187 31.4755L300.799 30.4211ZM299.062 27.1839C299.837 27.3485 300.283 27.9593 300.271 28.6168L297.677 28.0655C297.818 27.3874 298.252 27.0117 299.062 27.1839ZM302.591 30.2619C302.591 31.6419 303.037 32.5287 304.234 32.7832C304.915 32.9279 305.478 32.7837 305.795 32.587L305.384 31.4317C305.196 31.5358 304.938 31.6489 304.574 31.5716C304.128 31.4767 303.941 31.0528 303.941 30.4648V28.4968L305.643 28.8586V27.5626L303.941 27.2008V25.7008L302.591 25.4139V30.2619Z" fill="#10162F"/>
    <path d="M281.142 320.243L281.307 320.278C282.058 320.437 282.973 320.656 283.466 320.761C286.6 321.427 288.173 319.817 288.173 317.453C288.173 315.233 286.847 313.019 283.56 312.321C282.962 312.194 281.788 311.98 281.295 311.875L281.142 311.843V320.243ZM283.537 313.696C285.497 314.112 286.647 315.437 286.647 317.129C286.647 318.905 285.497 319.812 283.513 319.391C283.314 319.348 282.985 319.279 282.586 319.17V313.53C282.915 313.576 283.196 313.623 283.537 313.696ZM293.438 321.344C293.133 321.532 292.593 321.657 291.947 321.52C291.114 321.342 290.48 320.764 290.363 319.923L294.178 320.734C294.236 320.542 294.26 320.343 294.26 320.007C294.26 318.495 293.121 317.257 291.76 316.968C290.022 316.598 288.966 317.634 288.966 319.206C288.966 320.91 290.105 322.28 291.807 322.642C292.546 322.799 293.297 322.742 293.826 322.399L293.438 321.344ZM291.701 318.107C292.476 318.272 292.922 318.883 292.91 319.54L290.316 318.989C290.457 318.311 290.891 317.935 291.701 318.107ZM295.347 321.774C295.347 322.878 295.781 323.474 296.591 323.647C297.225 323.781 297.683 323.675 297.988 323.487L297.706 322.372C297.542 322.457 297.366 322.515 297.155 322.47C296.838 322.403 296.697 322.109 296.697 321.497V315.149L295.347 314.862V321.774ZM302.998 323.376C302.693 323.564 302.153 323.689 301.507 323.552C300.674 323.374 300.04 322.796 299.923 321.955L303.738 322.766C303.796 322.574 303.82 322.375 303.82 322.039C303.82 320.527 302.681 319.289 301.32 319C299.582 318.63 298.526 319.666 298.526 321.238C298.526 322.942 299.664 324.312 301.366 324.674C302.106 324.831 302.857 324.774 303.385 324.431L302.998 323.376ZM301.261 320.139C302.036 320.304 302.482 320.915 302.47 321.572L299.876 321.021C300.017 320.343 300.451 319.967 301.261 320.139ZM304.789 323.217C304.789 324.597 305.236 325.484 306.433 325.738C307.114 325.883 307.677 325.739 307.994 325.542L307.583 324.387C307.395 324.491 307.137 324.604 306.773 324.527C306.327 324.432 306.139 324.008 306.139 323.42V321.452L307.841 321.814V320.518L306.139 320.156V318.656L304.789 318.369V323.217ZM313.074 325.518C312.769 325.705 312.229 325.83 311.583 325.693C310.75 325.516 310.116 324.937 309.998 324.096L313.813 324.907C313.872 324.716 313.895 324.517 313.895 324.181C313.895 322.669 312.757 321.431 311.395 321.141C309.658 320.772 308.602 321.807 308.602 323.379C308.602 325.083 309.74 326.453 311.442 326.815C312.182 326.972 312.933 326.916 313.461 326.572L313.074 325.518ZM311.337 322.281C312.111 322.445 312.557 323.056 312.546 323.714L309.951 323.162C310.092 322.484 310.527 322.109 311.337 322.281Z" fill="#10162F"/>
    <path d="M288.058 75.65V72.614C288.41 72.7248 288.88 72.8246 289.126 72.877C291.086 73.2937 292.131 72.2197 292.131 70.7917C292.131 69.4117 291.368 67.9296 288.95 67.4156C288.375 67.2934 287.072 67.0404 286.614 66.9431V75.3431L288.058 75.65ZM289.091 68.8256C290.077 69.0351 290.605 69.5794 290.605 70.4554C290.605 71.3914 289.936 71.6692 289.079 71.4871C288.751 71.4172 288.398 71.3184 288.058 71.21V68.63C288.445 68.7003 288.797 68.7632 289.091 68.8256ZM292.386 73.87C292.386 75.49 293.513 76.9415 295.262 77.3132C297.011 77.685 298.138 76.7125 298.138 75.0925C298.138 73.4725 297.011 72.021 295.262 71.6492C293.513 71.2775 292.386 72.25 292.386 73.87ZM293.83 74.1768C293.83 73.2408 294.464 72.7756 295.262 72.9452C296.084 73.1199 296.706 73.8761 296.706 74.7881C296.706 75.7241 296.095 76.2064 295.262 76.0292C294.44 75.8546 293.83 75.0768 293.83 74.1768ZM301.982 77.0856C301.982 77.4216 301.677 77.5248 301.29 77.4424C300.761 77.3302 299.963 76.8365 299.646 76.4211L298.989 77.1814C299.235 77.6178 300.221 78.3674 301.196 78.5745C302.487 78.8489 303.332 78.3686 303.332 77.3006C303.332 75.3926 300.48 75.2783 300.48 74.3783C300.48 74.1383 300.726 73.9627 301.137 74.05C301.7 74.1698 302.252 74.551 302.569 74.8704L303.074 73.9937C302.745 73.6118 302.088 73.1001 301.066 72.883C299.975 72.651 299.13 73.0594 299.13 74.1154C299.13 76.0834 301.982 76.2096 301.982 77.0856ZM304.404 77.0724C304.404 78.4524 304.85 79.3392 306.047 79.5937C306.728 79.7384 307.291 79.5942 307.608 79.3976L307.198 78.2422C307.01 78.3463 306.752 78.4594 306.388 78.3821C305.942 78.2873 305.754 77.8634 305.754 77.2754V75.3074L307.456 75.6691V74.3731L305.754 74.0114V72.5114L304.404 72.2244V77.0724Z" fill="#10162F"/>
</svg>
