<svg width="600" height="600" viewBox="0 0 600 600" fill="none" xmlns="http://www.w3.org/2000/svg">
    <path d="M195 235C195 235.552 194.552 236 194 236C193.448 236 193 235.552 193 235H195ZM409.707 212.707C409.317 213.098 408.683 213.098 408.293 212.707L401.929 206.343C401.538 205.953 401.538 205.319 401.929 204.929C402.319 204.538 402.953 204.538 403.343 204.929L409 210.586L414.657 204.929C415.047 204.538 415.681 204.538 416.071 204.929C416.462 205.319 416.462 205.953 416.071 206.343L409.707 212.707ZM193 235V168H195V235H193ZM224 137H379V139H224V137ZM410 168V212H408V168H410ZM379 137C396.121 137 410 150.879 410 168H408C408 151.984 395.016 139 379 139V137ZM193 168C193 150.879 206.879 137 224 137V139C207.984 139 195 151.984 195 168H193Z" fill="#B8C0CD"/>
    <rect width="115.494" height="115.494" transform="matrix(0.866025 0.5 -0.866025 0.5 143.021 185)" fill="#E1E8FF"/>
    <rect width="115.494" height="115.494" transform="matrix(0.866025 0.5 -0.866025 0.5 143.021 185)" fill="#3C4257"/>
    <path d="M43 242.747L143.021 300.494L143.021 415.988L43 358.241L43 300.494L43 242.747Z" fill="#FBE582"/>
    <path d="M143.095 300.494L243.115 242.747L243.115 358.241L143.095 415.988L143.095 358.241L143.095 300.494Z" fill="#CEC0FF"/>
    <path d="M157.776 273.721C161.318 271.676 161.663 268.91 158.832 266.947L158.73 266.877L155.747 268.6L155.828 268.67C157.168 269.901 156.944 271.201 155.178 272.221C152.834 273.574 149.424 273.34 146.339 271.559L146.329 271.553C143.264 269.783 142.878 267.826 145.222 266.473C147.049 265.418 149.302 265.336 151.261 266.069L151.474 266.145L154.458 264.422L154.356 264.375C150.967 262.746 146.176 262.922 142.624 264.973C138.352 267.44 138.494 270.639 143.213 273.363L143.223 273.369C147.942 276.094 153.494 276.194 157.776 273.721ZM165.642 268.887L168.605 267.176L153.961 258.721L150.997 260.432L165.642 268.887ZM159.867 258.041C160.76 257.526 160.75 256.723 159.908 256.237C159.065 255.75 157.675 255.744 156.782 256.26C155.889 256.776 155.899 257.578 156.741 258.065C157.584 258.551 158.974 258.557 159.867 258.041ZM170.665 265.987L173.629 264.276L162.749 257.994L159.786 259.705L170.665 265.987ZM180.794 260.397C183.899 258.604 183.564 256.676 182.296 255.557L182.215 255.475L179.495 257.045L179.535 257.092C179.931 257.567 179.86 258.381 178.642 259.084C177.13 259.957 175.171 259.916 173.405 258.932L180.895 254.608L179.982 254.08C176.694 252.182 172.533 252.088 169.346 253.928C166.159 255.768 166.332 258.223 169.793 260.221L169.803 260.227C173.284 262.237 177.465 262.319 180.794 260.397ZM171.609 255.176C172.837 254.467 174.502 254.408 176.186 255.17L171.569 257.836C170.29 256.875 170.391 255.879 171.609 255.176ZM187.167 256.459L190.131 254.748L183.879 251.139C182.458 250.319 182.326 249.27 183.656 248.502C184.985 247.735 186.467 247.817 187.888 248.637L194.302 252.34L197.265 250.629L190.242 246.574C187.695 245.104 184.803 245.004 182.407 246.387C180.763 247.336 180.408 248.42 181.098 249.463L181.037 249.498L179.251 248.467L176.288 250.178L187.167 256.459ZM203.689 247.178C204.308 246.82 204.724 246.51 205.009 246.287L202.837 245.033C202.674 245.151 202.512 245.279 202.248 245.432C201.355 245.947 200.553 246.012 199.538 245.426L194.261 242.379L196.25 241.231L194.018 239.942L192.028 241.09L189.369 239.555L186.376 241.283L189.035 242.819L187.522 243.692L189.755 244.981L191.267 244.108L196.869 247.342C199.204 248.69 201.274 248.572 203.689 247.178Z" fill="white"/>
    <rect width="115.494" height="115.494" transform="matrix(0.866025 0.5 -0.866025 0.5 459.021 185)" fill="#E1E8FF"/>
    <rect width="115.494" height="115.494" transform="matrix(0.866025 0.5 -0.866025 0.5 459.021 185)" fill="#3C4257"/>
    <path d="M359 242.747L459.021 300.494L459.021 415.988L359 358.241L359 300.494L359 242.747Z" fill="#E1E8FF"/>
    <path d="M459.095 300.494L559.115 242.747L559.115 358.241L459.095 415.988L459.095 358.241L459.095 300.494Z" fill="#CEC0FF"/>
    <path d="M468.888 276.543C472.582 274.411 473.008 272.102 470.197 270.479L470.187 270.473C467.883 269.143 465.254 269.219 461.58 270.637L459.713 271.352C457.693 272.131 456.405 272.254 455.481 271.721L455.471 271.715C454.426 271.112 454.649 270.151 456.212 269.237C457.724 268.364 459.48 268.159 460.779 268.733L460.911 268.797L463.803 267.127L463.6 267.022C460.89 265.622 457.115 265.844 453.725 267.801C450.478 269.676 449.909 272.043 452.589 273.59L452.599 273.596C454.801 274.868 457.643 274.821 461.114 273.485L462.961 272.77C465.153 271.938 466.371 271.809 467.365 272.383L467.375 272.389C468.492 273.034 468.167 274.077 466.472 275.055C464.798 276.022 462.879 276.309 461.55 275.764L461.418 275.711L458.526 277.381L458.698 277.469C461.57 278.928 465.406 278.553 468.888 276.543ZM481.34 269.319C484.446 267.526 484.111 265.598 482.842 264.479L482.761 264.397L480.041 265.967L480.082 266.014C480.477 266.489 480.406 267.303 479.188 268.006C477.676 268.879 475.718 268.838 473.952 267.854L481.441 263.53L480.528 263.002C477.24 261.104 473.079 261.01 469.892 262.85C466.706 264.69 466.878 267.145 470.339 269.143L470.349 269.149C473.83 271.159 478.011 271.241 481.34 269.319ZM472.155 264.098C473.383 263.389 475.048 263.331 476.732 264.092L472.115 266.758C470.836 265.797 470.938 264.801 472.155 264.098ZM487.713 265.381L490.677 263.67L484.588 260.155C483.004 259.241 482.984 258.245 484.446 257.401C484.872 257.155 485.339 256.956 485.684 256.874L483.075 255.368C482.791 255.461 482.436 255.608 482.111 255.795C480.843 256.528 480.741 257.489 481.756 258.45L481.695 258.485L479.797 257.389L476.834 259.1L487.713 265.381ZM498.156 259.352L501.495 257.424L494.351 248.987L491.255 250.774L497.274 256.838L497.213 256.874L486.678 253.417L483.512 255.245L498.156 259.352ZM511.056 252.163C514.161 250.37 513.826 248.442 512.558 247.323L512.476 247.241L509.756 248.811L509.797 248.858C510.193 249.333 510.122 250.147 508.904 250.85C507.392 251.723 505.433 251.682 503.667 250.698L511.157 246.374L510.244 245.846C506.955 243.948 502.794 243.854 499.608 245.694C496.421 247.534 496.594 249.989 500.054 251.987L500.064 251.993C503.545 254.002 507.727 254.084 511.056 252.163ZM501.871 246.942C503.099 246.233 504.763 246.174 506.448 246.936L501.83 249.602C500.552 248.641 500.653 247.645 501.871 246.942ZM517.429 248.225L520.392 246.514L514.303 242.999C512.72 242.084 512.7 241.088 514.161 240.245C514.587 239.999 515.054 239.799 515.399 239.717L512.791 238.211C512.507 238.305 512.152 238.452 511.827 238.639C510.558 239.372 510.457 240.333 511.472 241.293L511.411 241.329L509.513 240.233L506.549 241.944L517.429 248.225Z" fill="white"/>
    <path d="M142 242.5C142 243.052 142.448 243.5 143 243.5C143.552 243.5 144 243.052 144 242.5H142ZM457.293 243.207C457.683 243.598 458.317 243.598 458.707 243.207L465.071 236.843C465.462 236.453 465.462 235.819 465.071 235.429C464.681 235.038 464.047 235.038 463.657 235.429L458 241.086L452.343 235.429C451.953 235.038 451.319 235.038 450.929 235.429C450.538 235.819 450.538 236.453 450.929 236.843L457.293 243.207ZM144 242.5V133H142V242.5H144ZM193 84H408V82H193V84ZM457 133V242.5H459V133H457ZM408 84C435.062 84 457 105.938 457 133H459C459 104.833 436.167 82 408 82V84ZM144 133C144 105.938 165.938 84 193 84V82C164.833 82 142 104.833 142 133H144Z" fill="#B8C0CD"/>
    <path d="M142 414C142 413.448 142.448 413 143 413C143.552 413 144 413.448 144 414H142ZM457.293 413.293C457.683 412.902 458.317 412.902 458.707 413.293L465.071 419.657C465.462 420.047 465.462 420.681 465.071 421.071C464.681 421.462 464.047 421.462 463.657 421.071L458 415.414L452.343 421.071C451.953 421.462 451.319 421.462 450.929 421.071C450.538 420.681 450.538 420.047 450.929 419.657L457.293 413.293ZM144 414V483.5H142V414H144ZM193 532.5H408V534.5H193V532.5ZM457 483.5V414H459V483.5H457ZM408 532.5C435.062 532.5 457 510.562 457 483.5H459C459 511.667 436.167 534.5 408 534.5V532.5ZM144 483.5C144 510.562 165.938 532.5 193 532.5V534.5C164.833 534.5 142 511.667 142 483.5H144Z" fill="#B8C0CD"/>
    <path d="M286.195 61.293C290.906 61.293 293.695 58.5039 293.695 53.8984V51.9531H286.383V54.5898H290.25L290.238 54.8359C290.145 56.9219 288.562 58.293 286.254 58.293C283.441 58.293 281.66 56.125 281.66 52.457V52.4453C281.66 48.8594 283.336 46.7969 286.125 46.7969C288.035 46.7969 289.383 47.7461 289.945 49.3867L289.992 49.5039H293.543L293.508 49.3398C292.945 46.1641 290.18 43.7969 286.113 43.7969C281.156 43.7969 278.051 47.0664 278.051 52.4805V52.4922C278.051 58 281.145 61.293 286.195 61.293ZM296.039 61H307.242V58.082H299.578V53.8281H306.809V51.0625H299.578V47.0078H307.242V44.0898H296.039V61ZM313.84 61H317.379V47.0078H322.277V44.0898H308.953V47.0078H313.84V61Z" fill="black"/>
    <path d="M258.633 483H265.09C270.164 483 273.152 479.848 273.152 474.48V474.457C273.152 469.102 270.152 466.09 265.09 466.09H258.633V483ZM262.172 480.07V469.008H264.668C267.773 469.008 269.543 470.941 269.543 474.469V474.492C269.543 478.148 267.832 480.07 264.668 480.07H262.172ZM275.438 483H286.641V480.082H278.977V475.828H286.207V473.062H278.977V469.008H286.641V466.09H275.438V483ZM289.195 483H300.129V480.082H292.734V466.09H289.195V483ZM302.227 483H313.43V480.082H305.766V475.828H312.996V473.062H305.766V469.008H313.43V466.09H302.227V483ZM320.027 483H323.566V469.008H328.465V466.09H315.141V469.008H320.027V483ZM330.422 483H341.625V480.082H333.961V475.828H341.191V473.062H333.961V469.008H341.625V466.09H330.422V483Z" fill="black"/>
    <path d="M270.887 185H274.426V179.668H277.684C281.246 179.668 283.625 177.371 283.625 173.891V173.867C283.625 170.387 281.246 168.09 277.684 168.09H270.887V185ZM276.816 170.891C278.844 170.891 280.039 171.957 280.039 173.879V173.902C280.039 175.824 278.844 176.902 276.816 176.902H274.426V170.891H276.816ZM293.352 185.293C298.379 185.293 301.508 181.93 301.508 176.551V176.527C301.508 171.16 298.367 167.797 293.352 167.797C288.348 167.797 285.195 171.148 285.195 176.527V176.551C285.195 181.93 288.324 185.293 293.352 185.293ZM293.352 182.293C290.574 182.293 288.805 180.09 288.805 176.551V176.527C288.805 172.988 290.586 170.797 293.352 170.797C296.129 170.797 297.898 173 297.898 176.527V176.551C297.898 180.055 296.164 182.293 293.352 182.293ZM309.969 185.293C314.234 185.293 316.789 183.23 316.789 179.984V179.973C316.789 177.312 315.195 175.871 311.656 175.168L309.863 174.805C307.918 174.418 307.051 173.797 307.051 172.73V172.719C307.051 171.512 308.141 170.68 309.957 170.668C311.703 170.668 312.922 171.477 313.098 172.801L313.109 172.941H316.449L316.438 172.719C316.273 169.754 313.871 167.797 309.957 167.797C306.207 167.797 303.512 169.836 303.512 172.93V172.941C303.512 175.484 305.199 177.078 308.539 177.746L310.32 178.098C312.418 178.531 313.25 179.105 313.25 180.254V180.266C313.25 181.555 312.02 182.41 310.062 182.41C308.129 182.41 306.734 181.59 306.512 180.277L306.488 180.148H303.148L303.16 180.336C303.359 183.453 305.949 185.293 309.969 185.293ZM322.531 185H326.07V171.008H330.969V168.09H317.645V171.008H322.531V185Z" fill="black"/>
</svg>
