<svg width="600" height="600" viewBox="0 0 600 600" fill="none" xmlns="http://www.w3.org/2000/svg">
    <rect width="180" height="180" transform="matrix(0.866025 0.5 -0.866025 0.5 295.885 195)" fill="#73FFE5"/>
    <rect width="180" height="180" transform="matrix(0.866025 0.5 -0.866025 0.5 295.885 195)" fill="#3C4257"/>
    <path d="M140 285L295.885 375L295.885 555L140 465L140 375L140 285Z" fill="#FFE173"/>
    <path d="M296 375L451.885 285L451.885 465L296 555L296 465L296 375Z" fill="#CEC0FF"/>
    <path d="M114.5 127V192.213C114.5 198.878 114.5 202.211 115.463 205.201C116.314 207.846 117.708 210.284 119.554 212.361C121.641 214.708 124.513 216.4 130.255 219.783L219.574 272.411C224.609 275.378 227.127 276.861 229.772 277.566C233.19 278.477 236.789 278.465 240.202 277.53C242.842 276.808 245.349 275.307 250.364 272.307L262.963 264.768C265.36 263.334 266.559 262.616 267.432 262.202C279.954 256.266 294.572 264.554 295.907 278.348C296 279.309 296 280.706 296 283.5V283.5" stroke="#B8C0CD" stroke-width="2" stroke-linecap="round"/>
    <path d="M477.5 127V192.213C477.5 198.878 477.5 202.211 476.537 205.201C475.686 207.846 474.292 210.284 472.446 212.361C470.359 214.708 467.487 216.4 461.745 219.783L372.426 272.411C367.391 275.378 364.873 276.861 362.228 277.566C358.81 278.477 355.211 278.465 351.798 277.53C349.158 276.808 346.651 275.307 341.636 272.307L329.037 264.768C326.64 263.334 325.441 262.616 324.568 262.202C312.046 256.266 297.428 264.554 296.093 278.348C296 279.309 296 280.706 296 283.5V283.5" stroke="#B8C0CD" stroke-width="2" stroke-linecap="round"/>
    <path d="M295 116C295 115.448 295.448 115 296 115C296.552 115 297 115.448 297 116H295ZM296.707 294.207C296.317 294.598 295.683 294.598 295.293 294.207L288.929 287.843C288.538 287.453 288.538 286.819 288.929 286.429C289.319 286.038 289.953 286.038 290.343 286.429L296 292.086L301.657 286.429C302.047 286.038 302.681 286.038 303.071 286.429C303.462 286.819 303.462 287.453 303.071 287.843L296.707 294.207ZM297 116V293.5H295V116H297Z" fill="#B8C0CD"/>
    <rect width="60" height="113.238" transform="matrix(0.866025 0.5 -0.866025 0.5 160.067 55)" fill="#73FFE5"/>
    <rect width="60" height="113.238" transform="matrix(0.866025 0.5 -0.866025 0.5 160.067 55)" fill="#3C4257"/>
    <path d="M104.713 123.721L114.182 118.254L111.655 116.795L105.251 120.492L93.1331 113.496L90.0682 115.266L104.713 123.721ZM105.007 109.371C105.9 108.855 105.89 108.053 105.048 107.566C104.205 107.08 102.815 107.074 101.922 107.59C101.029 108.105 101.039 108.908 101.881 109.395C102.724 109.881 104.114 109.887 105.007 109.371ZM115.805 117.316L118.769 115.605L107.889 109.324L104.926 111.035L115.805 117.316ZM127.426 110.865C130.166 109.283 129.729 107.074 126.198 105.035L126.188 105.029C122.646 102.984 118.84 102.744 116.11 104.32C114.557 105.217 114.141 106.371 114.862 107.479L114.801 107.514L109.148 104.25L106.184 105.961L120.829 114.416L123.792 112.705L121.935 111.633L121.996 111.598C123.874 112.002 125.863 111.768 127.426 110.865ZM123.985 110.016C122.544 110.848 120.322 110.701 118.353 109.564L118.343 109.559C116.384 108.428 116.14 107.139 117.571 106.312C119.043 105.463 121.184 105.621 123.173 106.77L123.183 106.775C125.163 107.918 125.457 109.166 123.985 110.016ZM133.16 107.297L136.123 105.586L130.034 102.07C128.451 101.156 128.43 100.16 129.892 99.3164C130.318 99.0703 130.785 98.8711 131.13 98.7891L128.522 97.2832C128.238 97.377 127.882 97.5234 127.558 97.7109C126.289 98.4434 126.188 99.4043 127.202 100.365L127.142 100.4L125.244 99.3047L122.28 101.016L133.16 107.297ZM143.877 101.309C145.308 100.482 145.785 99.4219 145.287 98.4199L145.348 98.3848L146.972 99.3223L149.936 97.6113L142.476 93.3047C140.284 92.0391 137.016 92.25 134.205 93.873C131.333 95.5312 131.049 97.3594 132.896 98.6133L133.007 98.6895L135.717 97.125L135.646 97.0605C135.088 96.5742 135.24 95.8887 136.346 95.25C137.503 94.582 138.731 94.5645 139.695 95.1211L140.365 95.5078L137.838 97.1543C135.311 98.8125 134.936 100.365 136.915 101.508L136.935 101.52C138.853 102.627 141.695 102.568 143.877 101.309ZM139.716 99.7383L139.695 99.7266C138.924 99.2812 139.036 98.6543 140.112 97.9512L142.212 96.5742L142.994 97.0254C144.13 97.6816 144.009 98.7363 142.679 99.5039C141.654 100.096 140.518 100.201 139.716 99.7383ZM151.854 96.5039L154.817 94.793L148.728 91.2773C147.145 90.3633 147.124 89.3672 148.586 88.5234C149.012 88.2773 149.479 88.0781 149.824 87.9961L147.216 86.4902C146.932 86.584 146.576 86.7305 146.252 86.918C144.983 87.6504 144.881 88.6113 145.896 89.5723L145.835 89.6074L143.938 88.5117L140.974 90.2227L151.854 96.5039ZM164.712 93.2168C167.128 91.8223 167.767 90.5039 166.052 88.5293L158.714 79.9805L155.588 81.7852L161.789 88.0254L161.708 88.0723L150.91 84.4863L147.652 86.3672L162.378 90.4277L162.601 90.709C163.078 91.2891 162.845 91.7168 161.962 92.2266C161.525 92.4785 161.119 92.6426 160.866 92.7422L163.068 94.0137C163.474 93.8496 164.134 93.5508 164.712 93.2168ZM178.484 81.1289L181.518 79.377L166.874 70.9219L163.829 72.6797L162.672 76.3828L165.392 77.9531L166.59 74.332L166.651 74.2969L178.484 81.1289Z" fill="white"/>
    <path d="M62 111.619L113.962 141.619L113.962 201.619L62 171.619L62 141.619L62 111.619Z" fill="#CEC0FF"/>
    <path d="M114 141.619L212 85.0388L212 145.039L114 201.619L114 171.619L114 141.619Z" fill="#FBE582"/>
    <rect width="60" height="113.238" transform="matrix(0.866025 0.5 -0.866025 0.5 319.067 55)" fill="#73FFE5"/>
    <rect width="60" height="113.238" transform="matrix(0.866025 0.5 -0.866025 0.5 319.067 55)" fill="#3C4257"/>
    <path d="M262.001 124.709L271.469 119.242L268.942 117.783L262.539 121.48L250.421 114.484L247.356 116.254L262.001 124.709ZM262.295 110.359C263.188 109.844 263.178 109.041 262.336 108.555C261.493 108.068 260.103 108.062 259.21 108.578C258.317 109.094 258.327 109.896 259.169 110.383C260.012 110.869 261.402 110.875 262.295 110.359ZM273.093 118.305L276.057 116.594L265.177 110.312L262.214 112.023L273.093 118.305ZM284.714 111.854C287.454 110.271 287.017 108.062 283.486 106.023L283.475 106.018C279.933 103.973 276.128 103.732 273.398 105.309C271.845 106.205 271.429 107.359 272.149 108.467L272.089 108.502L266.436 105.238L263.472 106.949L278.117 115.404L281.08 113.693L279.223 112.621L279.284 112.586C281.161 112.99 283.151 112.756 284.714 111.854ZM281.273 111.004C279.832 111.836 277.609 111.689 275.641 110.553L275.63 110.547C273.672 109.416 273.428 108.127 274.859 107.301C276.331 106.451 278.472 106.609 280.461 107.758L280.471 107.764C282.45 108.906 282.745 110.154 281.273 111.004ZM290.448 108.285L293.411 106.574L287.322 103.059C285.739 102.145 285.718 101.148 287.18 100.305C287.606 100.059 288.073 99.8594 288.418 99.7773L285.81 98.2715C285.525 98.3652 285.17 98.5117 284.845 98.6992C283.577 99.4316 283.475 100.393 284.49 101.354L284.429 101.389L282.532 100.293L279.568 102.004L290.448 108.285ZM301.165 102.297C302.596 101.471 303.073 100.41 302.575 99.4082L302.636 99.373L304.26 100.311L307.223 98.5996L299.764 94.293C297.572 93.0273 294.304 93.2383 291.493 94.8613C288.621 96.5195 288.337 98.3477 290.184 99.6016L290.295 99.6777L293.005 98.1133L292.934 98.0488C292.376 97.5625 292.528 96.877 293.634 96.2383C294.791 95.5703 296.019 95.5527 296.983 96.1094L297.653 96.4961L295.126 98.1426C292.599 99.8008 292.224 101.354 294.203 102.496L294.223 102.508C296.141 103.615 298.983 103.557 301.165 102.297ZM297.004 100.727L296.983 100.715C296.212 100.27 296.324 99.6426 297.399 98.9395L299.5 97.5625L300.282 98.0137C301.418 98.6699 301.297 99.7246 299.967 100.492C298.942 101.084 297.805 101.189 297.004 100.727ZM309.142 97.4922L312.105 95.7812L306.016 92.2656C304.433 91.3516 304.412 90.3555 305.874 89.5117C306.3 89.2656 306.767 89.0664 307.112 88.9844L304.504 87.4785C304.219 87.5723 303.864 87.7188 303.539 87.9062C302.271 88.6387 302.169 89.5996 303.184 90.5605L303.123 90.5957L301.226 89.5L298.262 91.2109L309.142 97.4922ZM322 94.2051C324.415 92.8105 325.055 91.4922 323.34 89.5176L316.002 80.9688L312.876 82.7734L319.077 89.0137L318.996 89.0605L308.198 85.4746L304.94 87.3555L319.666 91.416L319.889 91.6973C320.366 92.2773 320.133 92.7051 319.25 93.2148C318.813 93.4668 318.407 93.6309 318.154 93.7305L320.356 95.002C320.762 94.8379 321.422 94.5391 322 94.2051ZM332.108 84.2324L342.754 78.0859L340.318 76.6797L333.681 80.5117L333.559 80.4414L333.823 77.0547C334.026 74.2539 333.712 73.0996 331.936 72.0742L331.915 72.0625C329.419 70.6211 325.522 70.832 322.426 72.6191C319.331 74.4062 318.976 76.8496 321.736 78.4434L321.817 78.4902L324.659 76.8496L324.578 76.791C323.299 76.0059 323.329 74.8516 324.831 73.9844C326.131 73.2344 327.896 73.1992 329.104 73.8848L329.124 73.8965C330.139 74.4824 330.464 75.127 330.342 77.2363L330.007 83.0195L332.108 84.2324Z" fill="white"/>
    <path d="M221 111.619L272.962 141.619L272.962 201.619L221 171.619L221 141.619L221 111.619Z" fill="#CEC0FF"/>
    <path d="M273 141.619L371 85.0388L371 145.039L273 201.619L273 171.619L273 141.619Z" fill="#FBE582"/>
    <rect width="60" height="113.238" transform="matrix(0.866025 0.5 -0.866025 0.5 485.067 55)" fill="#73FFE5"/>
    <rect width="60" height="113.238" transform="matrix(0.866025 0.5 -0.866025 0.5 485.067 55)" fill="#3C4257"/>
    <path d="M428.16 124.617L437.628 119.15L435.101 117.691L428.698 121.389L416.58 114.393L413.515 116.162L428.16 124.617ZM428.454 110.268C429.347 109.752 429.337 108.949 428.495 108.463C427.652 107.977 426.262 107.971 425.369 108.486C424.476 109.002 424.486 109.805 425.328 110.291C426.171 110.777 427.561 110.783 428.454 110.268ZM439.252 118.213L442.216 116.502L431.336 110.221L428.373 111.932L439.252 118.213ZM450.873 111.762C453.613 110.18 453.176 107.971 449.645 105.932L449.634 105.926C446.092 103.881 442.287 103.641 439.557 105.217C438.004 106.113 437.588 107.268 438.308 108.375L438.248 108.41L432.595 105.146L429.631 106.857L444.276 115.312L447.239 113.602L445.382 112.529L445.443 112.494C447.32 112.898 449.31 112.664 450.873 111.762ZM447.432 110.912C445.991 111.744 443.768 111.598 441.8 110.461L441.789 110.455C439.831 109.324 439.587 108.035 441.018 107.209C442.49 106.359 444.631 106.518 446.62 107.666L446.63 107.672C448.609 108.814 448.904 110.062 447.432 110.912ZM456.607 108.193L459.57 106.482L453.481 102.967C451.898 102.053 451.877 101.057 453.339 100.213C453.765 99.9668 454.232 99.7676 454.577 99.6855L451.969 98.1797C451.684 98.2734 451.329 98.4199 451.004 98.6074C449.736 99.3398 449.634 100.301 450.649 101.262L450.588 101.297L448.691 100.201L445.727 101.912L456.607 108.193ZM467.324 102.205C468.755 101.379 469.232 100.318 468.734 99.3164L468.795 99.2812L470.419 100.219L473.382 98.5078L465.923 94.2012C463.731 92.9355 460.463 93.1465 457.652 94.7695C454.78 96.4277 454.496 98.2559 456.343 99.5098L456.454 99.5859L459.164 98.0215L459.093 97.957C458.535 97.4707 458.687 96.7852 459.793 96.1465C460.95 95.4785 462.178 95.4609 463.142 96.0176L463.812 96.4043L461.285 98.0508C458.758 99.709 458.383 101.262 460.362 102.404L460.382 102.416C462.3 103.523 465.142 103.465 467.324 102.205ZM463.163 100.635L463.142 100.623C462.371 100.178 462.483 99.5508 463.558 98.8477L465.659 97.4707L466.441 97.9219C467.577 98.5781 467.456 99.6328 466.126 100.4C465.101 100.992 463.964 101.098 463.163 100.635ZM475.301 97.4004L478.264 95.6895L472.175 92.1738C470.592 91.2598 470.571 90.2637 472.033 89.4199C472.459 89.1738 472.926 88.9746 473.271 88.8926L470.663 87.3867C470.378 87.4805 470.023 87.627 469.698 87.8145C468.43 88.5469 468.328 89.5078 469.343 90.4688L469.282 90.5039L467.385 89.4082L464.421 91.1191L475.301 97.4004ZM488.159 94.1133C490.574 92.7188 491.214 91.4004 489.499 89.4258L482.161 80.877L479.035 82.6816L485.236 88.9219L485.155 88.9688L474.357 85.3828L471.099 87.2637L485.825 91.3242L486.048 91.6055C486.525 92.1855 486.292 92.6133 485.409 93.123C484.972 93.375 484.566 93.5391 484.313 93.6387L486.515 94.9102C486.921 94.7461 487.581 94.4473 488.159 94.1133ZM503.971 81.1406C507.391 79.166 507.898 76.834 505.28 75.3223L505.26 75.3105C503.27 74.1621 500.591 74.2559 498.216 75.3926L498.156 75.3574C499.515 74.1621 499.668 72.7031 497.841 71.6484L497.821 71.6367C495.517 70.3066 491.944 70.5879 488.788 72.4102C485.713 74.1855 485.317 76.3359 487.652 77.918L487.763 77.9941L490.574 76.3711L490.493 76.3125C489.478 75.5859 489.712 74.5957 491.143 73.7695C492.584 72.9375 494.137 72.8613 495.324 73.5469L495.344 73.5586C496.532 74.2441 496.349 75.2871 494.817 76.1719L493.183 77.1152L495.365 78.375L497.039 77.4082C498.805 76.3887 500.622 76.2305 502.022 77.0391L502.042 77.0508C503.24 77.7422 503.067 78.8145 501.494 79.7227C499.911 80.6367 498.095 80.7832 496.917 80.2559L496.785 80.2031L493.863 81.8906L494.005 81.9609C496.735 83.3027 500.652 83.0566 503.971 81.1406Z" fill="white"/>
    <path d="M387 111.619L438.962 141.619L438.962 201.619L387 171.619L387 141.619L387 111.619Z" fill="#CEC0FF"/>
    <path d="M439 141.619L537 85.0388L537 145.039L439 201.619L439 171.619L439 141.619Z" fill="#FBE582"/>
    <rect width="90" height="90" transform="matrix(0.866025 0.5 -0.866025 0.5 295.942 375)" fill="#73FFE5"/>
    <rect width="90" height="90" transform="matrix(0.866025 0.5 -0.866025 0.5 295.942 375)" fill="#3C4257"/>
    <path d="M218 420L295.942 465L295.942 555L218 510L218 465L218 420Z" fill="#CEC0FF"/>
    <path d="M296 465L373.942 420L373.942 510L296 555L296 510L296 465Z" fill="#FBE582"/>
    <path d="M288.115 434.646C292.425 432.157 292.923 429.464 289.643 427.57L289.631 427.563C286.943 426.012 283.877 426.101 279.591 427.755L277.412 428.589C275.056 429.498 273.552 429.642 272.475 429.02L272.463 429.013C271.243 428.309 271.504 427.188 273.327 426.121C275.091 425.103 277.14 424.863 278.655 425.533L278.809 425.608L282.184 423.66L281.947 423.537C278.785 421.903 274.381 422.163 270.426 424.446C266.637 426.634 265.974 429.396 269.1 431.2L269.112 431.207C271.681 432.69 274.997 432.636 279.046 431.077L281.201 430.243C283.758 429.272 285.179 429.122 286.339 429.792L286.351 429.799C287.654 430.551 287.275 431.768 285.297 432.909C283.344 434.037 281.106 434.372 279.555 433.736L279.401 433.675L276.027 435.623L276.228 435.726C279.579 437.428 284.054 436.99 288.115 434.646ZM296.901 429.231L303.425 425.465C308.552 422.505 308.386 418.923 302.963 415.792L302.939 415.778C297.528 412.654 291.454 412.647 286.339 415.601L279.815 419.367L296.901 429.231ZM297.517 425.458L286.339 419.005L288.861 417.549C291.999 415.737 295.741 415.833 299.304 417.891L299.328 417.904C303.022 420.037 303.235 422.156 300.039 424.002L297.517 425.458ZM313.88 419.429L317.455 417.364L312.222 414.343L311.843 412.278L323.944 413.618L328.218 411.15L312.116 409.428L310.695 401.539L306.716 403.836L308.267 411.964L308.185 412.012L300.37 407.5L296.794 409.564L313.88 419.429Z" fill="white"/>
    <path d="M314.714 347.452L318.29 345.388L312.903 342.277L316.194 340.377C319.794 338.299 319.876 335.571 316.36 333.541L316.336 333.527C312.82 331.497 308.095 331.545 304.496 333.623L297.629 337.588L314.714 347.452ZM306.45 335.763C308.498 334.58 310.783 334.505 312.725 335.626L312.749 335.64C314.69 336.761 314.572 338.087 312.524 339.27L310.108 340.664L304.034 337.157L306.45 335.763ZM329.408 338.969L332.865 336.973L325.761 332.871C323.914 331.805 323.89 330.643 325.595 329.658C326.093 329.371 326.637 329.139 327.04 329.043L323.997 327.286C323.665 327.396 323.251 327.566 322.872 327.785C321.392 328.64 321.274 329.761 322.458 330.882L322.387 330.923L320.172 329.645L316.715 331.641L329.408 338.969ZM343.9 330.902C347.736 328.688 347.725 325.851 343.581 323.458L343.557 323.444C339.448 321.072 334.475 321.086 330.675 323.28C326.886 325.468 326.898 328.346 330.983 330.704L331.006 330.718C335.138 333.104 340.04 333.131 343.9 330.902ZM341.201 329.33C339.496 330.314 337.009 330.123 334.523 328.688L334.499 328.674C332.048 327.259 331.717 325.81 333.386 324.846C335.067 323.875 337.589 324.06 340.04 325.475L340.064 325.488C342.539 326.917 342.882 328.359 341.201 329.33ZM356.676 323.526C358.511 322.467 358.985 321.127 358.156 319.869L358.227 319.828L360.394 321.079L363.851 319.083L346.766 309.219L343.308 311.215L349.903 315.022L349.832 315.063C347.606 314.571 345.262 314.858 343.462 315.897C340.265 317.743 340.763 320.3 344.895 322.686L344.907 322.692C349.027 325.071 353.479 325.372 356.676 323.526ZM354.971 321.202C353.242 322.2 350.732 321.995 348.423 320.662L348.411 320.655C346.091 319.315 345.771 317.873 347.488 316.882C349.157 315.918 351.762 316.082 354.047 317.401L354.059 317.408C356.356 318.734 356.652 320.231 354.971 321.202ZM370.742 315.405C372.66 314.298 373.063 313.026 372.257 311.81L372.329 311.769L374.424 312.979L377.882 310.982L365.189 303.654L361.732 305.65L369.025 309.861C370.683 310.818 370.837 312.042 369.286 312.938C367.735 313.833 365.994 313.73 364.336 312.773L356.865 308.46L353.408 310.456L361.601 315.187C364.573 316.902 367.948 317.019 370.742 315.405ZM386.193 306.484C389.58 304.529 389.663 302.048 387.058 300.353L386.987 300.312L383.766 302.171L383.861 302.239C384.903 303.114 384.891 304.105 383.506 304.905C381.801 305.89 379.326 305.691 376.84 304.256L376.828 304.249C374.401 302.848 374.01 301.392 375.703 300.414C377.136 299.587 378.9 299.635 380.321 300.209L380.451 300.257L383.66 298.404L383.577 298.356C380.7 296.846 376.39 296.887 372.944 298.876C369.143 301.07 369.238 303.928 373.299 306.272L373.311 306.279C377.408 308.645 382.322 308.72 386.193 306.484ZM398.649 299.293C399.372 298.876 399.857 298.514 400.188 298.254L397.655 296.791C397.465 296.928 397.276 297.078 396.968 297.256C395.926 297.857 394.991 297.933 393.807 297.249L387.65 293.694L389.97 292.354L387.366 290.851L385.045 292.19L381.943 290.399L378.45 292.416L381.552 294.207L379.788 295.226L382.393 296.729L384.157 295.711L390.693 299.484C393.416 301.057 395.831 300.92 398.649 299.293Z" fill="white"/>
</svg>
