<svg width="320" height="320" viewBox="0 0 320 320" fill="none" xmlns="http://www.w3.org/2000/svg">
    <rect width="320" height="320" rx="160" fill="#FFE000"/>
    <path d="M74.0791 116H59.5191L63.8871 93.544H49.9431L51.7351 84.248H54.4791C58.3618 84.248 61.5165 83.576 63.9431 82.232C66.4071 80.8507 68.2365 79.0213 69.4311 76.744H81.6951L74.0791 116ZM188.747 75.456C196.55 75.456 202.392 76.8 206.275 79.488C210.158 82.1387 212.099 86.1707 212.099 91.584C212.099 94.9813 211.483 98.3227 210.251 101.608C209.056 104.893 207.32 107.637 205.043 109.84C200.04 114.843 192.163 117.344 181.411 117.344C173.608 117.344 167.747 116.019 163.827 113.368C159.944 110.68 158.003 106.629 158.003 101.216C158.003 97.856 158.619 94.5333 159.851 91.248C161.083 87.9253 162.819 85.144 165.059 82.904C170.062 77.9387 177.958 75.456 188.747 75.456ZM183.035 106.984C187.59 106.984 191.062 105.491 193.451 102.504C194.459 101.235 195.243 99.7973 195.803 98.192C196.363 96.5493 196.643 94.9253 196.643 93.32C196.643 90.968 195.859 89.12 194.291 87.776C192.723 86.432 190.334 85.76 187.123 85.76C184.734 85.76 182.68 86.152 180.963 86.936C179.283 87.72 177.864 88.84 176.707 90.296C175.699 91.528 174.915 92.9467 174.355 94.552C173.795 96.1573 173.515 97.7813 173.515 99.424C173.515 101.776 174.299 103.624 175.867 104.968C177.435 106.312 179.824 106.984 183.035 106.984ZM84.3759 175.456C92.1786 175.456 98.0212 176.8 101.904 179.488C105.787 182.139 107.728 186.171 107.728 191.584C107.728 194.981 107.112 198.323 105.88 201.608C104.685 204.893 102.949 207.637 100.672 209.84C95.6692 214.843 87.7919 217.344 77.0399 217.344C69.2372 217.344 63.3759 216.019 59.4559 213.368C55.5732 210.68 53.6319 206.629 53.6319 201.216C53.6319 197.856 54.2479 194.533 55.4799 191.248C56.7119 187.925 58.4479 185.144 60.6879 182.904C65.6906 177.939 73.5866 175.456 84.3759 175.456ZM78.6639 206.984C83.2186 206.984 86.6906 205.491 89.0799 202.504C90.0879 201.235 90.8719 199.797 91.4319 198.192C91.9919 196.549 92.2719 194.925 92.2719 193.32C92.2719 190.968 91.4879 189.12 89.9199 187.776C88.3519 186.432 85.9626 185.76 82.7519 185.76C80.3626 185.76 78.3092 186.152 76.5919 186.936C74.9119 187.72 73.4932 188.84 72.3359 190.296C71.3279 191.528 70.5439 192.947 69.9839 194.552C69.4239 196.157 69.1439 197.781 69.1439 199.424C69.1439 201.776 69.9279 203.624 71.4959 204.968C73.0639 206.312 75.4532 206.984 78.6639 206.984ZM217.102 175.456C224.905 175.456 230.748 176.8 234.63 179.488C238.513 182.139 240.454 186.171 240.454 191.584C240.454 194.981 239.838 198.323 238.606 201.608C237.412 204.893 235.676 207.637 233.398 209.84C228.396 214.843 220.518 217.344 209.766 217.344C201.964 217.344 196.102 216.019 192.182 213.368C188.3 210.68 186.358 206.629 186.358 201.216C186.358 197.856 186.974 194.533 188.206 191.248C189.438 187.925 191.174 185.144 193.414 182.904C198.417 177.939 206.313 175.456 217.102 175.456ZM211.39 206.984C215.945 206.984 219.417 205.491 221.806 202.504C222.814 201.235 223.598 199.797 224.158 198.192C224.718 196.549 224.998 194.925 224.998 193.32C224.998 190.968 224.214 189.12 222.646 187.776C221.078 186.432 218.689 185.76 215.478 185.76C213.089 185.76 211.036 186.152 209.318 186.936C207.638 187.72 206.22 188.84 205.062 190.296C204.054 191.528 203.27 192.947 202.71 194.552C202.15 196.157 201.87 197.781 201.87 199.424C201.87 201.776 202.654 203.624 204.222 204.968C205.79 206.312 208.18 206.984 211.39 206.984Z" fill="white"/>
    <path d="M95.4834 112.64C94.774 116.299 93.6727 119.229 92.1794 121.432C90.686 123.635 88.726 125.221 86.2994 126.192C83.91 127.2 80.9234 127.704 77.3394 127.704L78.2354 122.776C80.438 122.776 82.1554 122.141 83.3874 120.872C84.6567 119.603 85.478 117.979 85.8514 116H79.5794L82.0434 103.288H97.3314L95.4834 112.64ZM132.036 75.456C139.839 75.456 145.681 76.8 149.564 79.488C153.447 82.1387 155.388 86.1707 155.388 91.584C155.388 94.9813 154.772 98.3227 153.54 101.608C152.345 104.893 150.609 107.637 148.332 109.84C143.329 114.843 135.452 117.344 124.7 117.344C116.897 117.344 111.036 116.019 107.116 113.368C103.233 110.68 101.292 106.629 101.292 101.216C101.292 97.856 101.908 94.5333 103.14 91.248C104.372 87.9253 106.108 85.144 108.348 82.904C113.351 77.9387 121.247 75.456 132.036 75.456ZM126.324 106.984C130.879 106.984 134.351 105.491 136.74 102.504C137.748 101.235 138.532 99.7973 139.092 98.192C139.652 96.5493 139.932 94.9253 139.932 93.32C139.932 90.968 139.148 89.12 137.58 87.776C136.012 86.432 133.623 85.76 130.412 85.76C128.023 85.76 125.969 86.152 124.252 86.936C122.572 87.72 121.153 88.84 119.996 90.296C118.988 91.528 118.204 92.9467 117.644 94.552C117.084 96.1573 116.804 97.7813 116.804 99.424C116.804 101.776 117.588 103.624 119.156 104.968C120.724 106.312 123.113 106.984 126.324 106.984ZM245.458 75.456C253.261 75.456 259.103 76.8 262.986 79.488C266.869 82.1387 268.81 86.1707 268.81 91.584C268.81 94.9813 268.194 98.3227 266.962 101.608C265.767 104.893 264.031 107.637 261.754 109.84C256.751 114.843 248.874 117.344 238.122 117.344C230.319 117.344 224.458 116.019 220.538 113.368C216.655 110.68 214.714 106.629 214.714 101.216C214.714 97.856 215.33 94.5333 216.562 91.248C217.794 87.9253 219.53 85.144 221.77 82.904C226.773 77.9387 234.669 75.456 245.458 75.456ZM239.746 106.984C244.301 106.984 247.773 105.491 250.162 102.504C251.17 101.235 251.954 99.7973 252.514 98.192C253.074 96.5493 253.354 94.9253 253.354 93.32C253.354 90.968 252.57 89.12 251.002 87.776C249.434 86.432 247.045 85.76 243.834 85.76C241.445 85.76 239.391 86.152 237.674 86.936C235.994 87.72 234.575 88.84 233.418 90.296C232.41 91.528 231.626 92.9467 231.066 94.552C230.506 96.1573 230.226 97.7813 230.226 99.424C230.226 101.776 231.01 103.624 232.578 104.968C234.146 106.312 236.535 106.984 239.746 106.984ZM144.985 144.16L176.793 132.848L175.057 141.752L157.081 147.8L157.025 148.136L172.425 155.136L170.913 163.088L143.753 150.656L144.985 144.16ZM45.7237 216H31.1637L35.5317 193.544H21.5877L23.3797 184.248H26.1237C30.0063 184.248 33.161 183.576 35.5877 182.232C38.0517 180.851 39.881 179.021 41.0757 176.744H53.3397L45.7237 216ZM123.839 212.64C123.13 216.299 122.028 219.229 120.535 221.432C119.042 223.635 117.082 225.221 114.655 226.192C112.266 227.2 109.279 227.704 105.695 227.704L106.591 222.776C108.794 222.776 110.511 222.141 111.743 220.872C113.012 219.603 113.834 217.979 114.207 216H107.935L110.399 203.288H125.687L123.839 212.64ZM160.392 175.456C168.194 175.456 174.037 176.8 177.92 179.488C181.802 182.139 183.744 186.171 183.744 191.584C183.744 194.981 183.128 198.323 181.896 201.608C180.701 204.893 178.965 207.637 176.688 209.84C171.685 214.843 163.808 217.344 153.056 217.344C145.253 217.344 139.392 216.019 135.472 213.368C131.589 210.68 129.648 206.629 129.648 201.216C129.648 197.856 130.264 194.533 131.496 191.248C132.728 187.925 134.464 185.144 136.704 182.904C141.706 177.939 149.602 175.456 160.392 175.456ZM154.68 206.984C159.234 206.984 162.706 205.491 165.096 202.504C166.104 201.235 166.888 199.797 167.448 198.192C168.008 196.549 168.288 194.925 168.288 193.32C168.288 190.968 167.504 189.12 165.936 187.776C164.368 186.432 161.978 185.76 158.768 185.76C156.378 185.76 154.325 186.152 152.608 186.936C150.928 187.72 149.509 188.84 148.352 190.296C147.344 191.528 146.56 192.947 146 194.552C145.44 196.157 145.16 197.781 145.16 199.424C145.16 201.776 145.944 203.624 147.512 204.968C149.08 206.312 151.469 206.984 154.68 206.984ZM273.813 175.456C281.616 175.456 287.459 176.8 291.341 179.488C295.224 182.139 297.165 186.171 297.165 191.584C297.165 194.981 296.549 198.323 295.317 201.608C294.123 204.893 292.387 207.637 290.109 209.84C285.107 214.843 277.229 217.344 266.477 217.344C258.675 217.344 252.813 216.019 248.893 213.368C245.011 210.68 243.069 206.629 243.069 201.216C243.069 197.856 243.685 194.533 244.917 191.248C246.149 187.925 247.885 185.144 250.125 182.904C255.128 177.939 263.024 175.456 273.813 175.456ZM268.101 206.984C272.656 206.984 276.128 205.491 278.517 202.504C279.525 201.235 280.309 199.797 280.869 198.192C281.429 196.549 281.709 194.925 281.709 193.32C281.709 190.968 280.925 189.12 279.357 187.776C277.789 186.432 275.4 185.76 272.189 185.76C269.8 185.76 267.747 186.152 266.029 186.936C264.349 187.72 262.931 188.84 261.773 190.296C260.765 191.528 259.981 192.947 259.421 194.552C258.861 196.157 258.581 197.781 258.581 199.424C258.581 201.776 259.365 203.624 260.933 204.968C262.501 206.312 264.891 206.984 268.101 206.984Z" fill="#10162F"/>
</svg>
