<svg width="927" height="785" viewBox="0 0 927 785" fill="none" xmlns="http://www.w3.org/2000/svg">
    <rect x="61" y="29" width="401.85" height="727" rx="31" fill="#F4F7FA"/>
    <path d="M134.738 110V81.8164H110.539V110H116.457V86.6992H128.859V110H134.738ZM148.918 110.449C155.246 110.449 159.289 106.406 159.289 99.5117C159.289 92.7148 155.188 88.6133 148.918 88.6133C142.648 88.6133 138.547 92.7344 138.547 99.5117C138.547 106.387 142.59 110.449 148.918 110.449ZM148.918 106.094C146.105 106.094 144.328 103.73 144.328 99.5312C144.328 95.3711 146.145 92.9688 148.918 92.9688C151.691 92.9688 153.488 95.3711 153.488 99.5312C153.488 103.73 151.711 106.094 148.918 106.094ZM181.535 96.8555C181.281 92.1094 177.688 88.6133 172.023 88.6133C165.754 88.6133 161.75 92.793 161.75 99.5117C161.75 106.348 165.754 110.449 172.062 110.449C177.57 110.449 181.262 107.266 181.555 102.324H176.242C175.891 104.609 174.406 105.977 172.121 105.977C169.289 105.977 167.531 103.633 167.531 99.5117C167.531 95.4688 169.289 93.0859 172.102 93.0859C174.445 93.0859 175.91 94.6484 176.242 96.8555H181.535ZM201.125 89.0625H182.961V93.3594H189.191V110H194.895V93.3594H201.125V89.0625Z" fill="black"/>
    <path d="M109.746 164.598L115.734 144.09H113.988L108 164.598H109.746ZM117.48 164.598L123.469 144.09H121.723L115.734 164.598H117.48ZM139.957 152.809C139.699 150.617 137.883 148.602 134.836 148.602C131.473 148.602 129.234 151.062 129.234 154.906C129.234 158.832 131.484 161.211 134.859 161.211C137.625 161.211 139.664 159.5 139.98 157.074H137.977C137.625 158.539 136.535 159.418 134.871 159.418C132.762 159.418 131.309 157.742 131.309 154.906C131.309 152.141 132.738 150.395 134.848 150.395C136.641 150.395 137.672 151.484 137.965 152.809H139.957ZM147.141 161.211C150.504 161.211 152.777 158.785 152.777 154.906C152.777 151.016 150.504 148.602 147.141 148.602C143.766 148.602 141.492 151.016 141.492 154.906C141.492 158.785 143.766 161.211 147.141 161.211ZM147.141 159.418C144.984 159.418 143.566 157.777 143.566 154.906C143.566 152.035 144.984 150.395 147.141 150.395C149.297 150.395 150.703 152.035 150.703 154.906C150.703 157.777 149.297 159.418 147.141 159.418ZM165.199 152.809C164.941 150.617 163.125 148.602 160.078 148.602C156.715 148.602 154.477 151.062 154.477 154.906C154.477 158.832 156.727 161.211 160.102 161.211C162.867 161.211 164.906 159.5 165.223 157.074H163.219C162.867 158.539 161.777 159.418 160.113 159.418C158.004 159.418 156.551 157.742 156.551 154.906C156.551 152.141 157.98 150.395 160.09 150.395C161.883 150.395 162.914 151.484 163.207 152.809H165.199ZM176.004 148.812H166.113V150.488H170.039V161H172.078V150.488H176.004V148.812ZM180.996 161.211C182.637 161.211 184.184 160.297 184.91 158.902H184.957V161H186.891V152.574C186.891 150.148 185.086 148.602 182.227 148.602C179.344 148.602 177.539 150.219 177.398 152.328H179.367C179.625 151.133 180.609 150.395 182.18 150.395C183.867 150.395 184.852 151.285 184.852 152.773V153.793L181.359 153.992C178.547 154.156 176.941 155.469 176.941 157.555C176.941 159.746 178.57 161.211 180.996 161.211ZM181.453 159.477C179.988 159.477 179.016 158.715 179.016 157.555C179.016 156.406 179.953 155.68 181.594 155.574L184.852 155.375V156.371C184.852 158.129 183.375 159.477 181.453 159.477ZM194.953 161C197.543 161 199.137 159.652 199.137 157.496C199.137 156.008 198.129 154.918 196.594 154.707V154.613C197.719 154.379 198.598 153.219 198.598 151.965C198.598 150.008 197.203 148.812 194.918 148.812H189.703V161H194.953ZM191.742 150.465H194.613C195.891 150.465 196.582 151.074 196.582 152.176C196.582 153.359 195.844 153.934 194.309 153.934H191.742V150.465ZM191.742 155.574H194.473C196.254 155.574 197.109 156.184 197.109 157.449C197.109 158.68 196.312 159.348 194.836 159.348H191.742V155.574ZM204.516 155.621L204.891 150.488H208.992V161H211.031V148.812H203.051L202.582 155.574C202.43 157.812 201.973 159.23 200.766 159.23C200.473 159.23 200.25 159.172 200.145 159.137V160.977C200.285 161.035 200.52 161.105 200.871 161.105C203.438 161.105 204.27 158.984 204.516 155.621ZM220.605 161H222.645V148.812H218.285C215.484 148.812 213.68 150.348 213.68 152.855C213.68 154.531 214.723 155.797 216.445 156.289L213.047 161H215.402L218.496 156.664H220.605V161ZM218.297 154.988C216.727 154.988 215.707 154.086 215.707 152.82C215.707 151.355 216.715 150.488 218.297 150.488H220.605V154.988H218.297ZM235.125 161.211C238.547 161.211 240.656 158.82 240.656 154.906C240.656 150.98 238.547 148.602 235.125 148.602C232.031 148.602 230.016 150.559 229.652 153.84H227.555V148.812H225.516V161H227.555V155.516H229.605C229.828 159.066 231.891 161.211 235.125 161.211ZM235.125 159.406C232.922 159.406 231.68 157.766 231.68 154.906C231.68 152.035 232.922 150.406 235.125 150.406C237.328 150.406 238.57 152.035 238.57 154.906C238.57 157.766 237.328 159.406 235.125 159.406ZM242.93 161H258.012V164.34H259.969V159.312H257.977V148.812H255.938V159.324H251.473V148.812H249.434V159.324H244.969V148.812H242.93V161ZM263.766 161L269.836 151.941H269.93V161H271.969V148.812H269.953L263.883 157.871H263.789V148.812H261.75V161H263.766ZM282.926 157.508C282.586 158.656 281.449 159.441 279.902 159.441C277.711 159.441 276.34 157.906 276.34 155.574V155.457H285.082V154.684C285.082 150.992 283.055 148.602 279.762 148.602C276.398 148.602 274.242 151.168 274.242 154.953C274.242 158.785 276.363 161.211 279.855 161.211C282.516 161.211 284.578 159.641 284.93 157.508H282.926ZM279.727 150.371C281.648 150.371 282.926 151.824 282.973 153.863H276.352C276.48 151.836 277.816 150.371 279.727 150.371Z" fill="black"/>
    <rect x="108" y="188" width="101" height="48" rx="12" fill="#F0C2FB"/>
    <path d="M142.379 221.398C147.137 221.398 149.996 217.941 149.996 212.539C149.996 207.113 147.113 203.691 142.379 203.691C138.008 203.691 135.16 206.633 134.773 211.402H131.867V204.09H129.758V221H131.867V213.301H134.75C135.008 218.27 137.82 221.398 142.379 221.398ZM142.379 205.637C145.766 205.637 147.828 208.309 147.828 212.539C147.828 216.734 145.777 219.453 142.379 219.453C138.934 219.453 136.895 216.734 136.895 212.539C136.895 208.309 139.004 205.637 142.379 205.637ZM156.605 221.211C159.465 221.211 161.363 219.688 161.363 217.438C161.363 216.066 160.531 215.059 158.926 214.707V214.613C160.191 214.32 161.023 213.195 161.023 211.93C161.023 209.949 159.512 208.602 156.734 208.602C154.156 208.602 152.398 209.879 152.141 211.895H154.121C154.285 210.922 155.293 210.301 156.734 210.301C158.305 210.301 159.031 211.051 159.031 212.094C159.031 213.324 158.211 213.934 156.605 213.934H154.777V215.598H156.605C158.445 215.598 159.359 216.195 159.359 217.531C159.359 218.691 158.375 219.523 156.605 219.523C155.094 219.523 154.086 218.902 153.852 217.836H151.789C152 219.898 153.934 221.211 156.605 221.211ZM168.594 210.371C170.516 210.371 171.793 211.824 171.84 213.863H165.219C165.348 211.836 166.684 210.371 168.594 210.371ZM171.793 217.508C171.453 218.656 170.316 219.441 168.77 219.441C166.578 219.441 165.207 217.906 165.207 215.574V215.457H173.949V214.684C173.949 210.992 171.922 208.602 168.629 208.602C165.266 208.602 163.109 211.168 163.109 214.953C163.109 218.785 165.23 221.211 168.723 221.211C171.383 221.211 173.445 219.641 173.797 217.508H171.793ZM182.164 208.602C180.395 208.602 178.977 209.504 178.227 210.875H178.18V208.812H176.246V225.066H178.285V219.02H178.332C179.059 220.355 180.465 221.211 182.211 221.211C185.281 221.211 187.379 218.727 187.379 214.906C187.379 211.086 185.27 208.602 182.164 208.602ZM181.766 219.418C179.68 219.418 178.273 217.625 178.273 214.906C178.273 212.199 179.68 210.395 181.766 210.395C183.934 210.395 185.293 212.152 185.293 214.906C185.293 217.672 183.934 219.418 181.766 219.418Z" fill="black"/>
    <rect x="108" y="244" width="109" height="48" rx="12" fill="#F0C2FB"/>
    <path d="M136.145 277C139.742 277 141.875 275.23 141.875 272.254C141.875 270.004 140.398 268.387 138.102 268.094V268C139.73 267.707 141.02 266.066 141.02 264.309C141.02 261.777 139.062 260.09 136.168 260.09H129.758V277H136.145ZM131.867 261.953H135.688C137.738 261.953 138.887 262.879 138.887 264.555C138.887 266.383 137.527 267.379 135.031 267.379H131.867V261.953ZM131.867 275.137V269.195H135.629C138.324 269.195 139.707 270.191 139.707 272.148C139.707 274.105 138.371 275.137 135.828 275.137H131.867ZM150.102 264.602C148.332 264.602 146.914 265.504 146.164 266.875H146.117V264.812H144.184V281.066H146.223V275.02H146.27C146.996 276.355 148.402 277.211 150.148 277.211C153.219 277.211 155.316 274.727 155.316 270.906C155.316 267.086 153.207 264.602 150.102 264.602ZM149.703 275.418C147.617 275.418 146.211 273.625 146.211 270.906C146.211 268.199 147.617 266.395 149.703 266.395C151.871 266.395 153.23 268.152 153.23 270.906C153.23 273.672 151.871 275.418 149.703 275.418ZM162.5 266.371C164.422 266.371 165.699 267.824 165.746 269.863H159.125C159.254 267.836 160.59 266.371 162.5 266.371ZM165.699 273.508C165.359 274.656 164.223 275.441 162.676 275.441C160.484 275.441 159.113 273.906 159.113 271.574V271.457H167.855V270.684C167.855 266.992 165.828 264.602 162.535 264.602C159.172 264.602 157.016 267.168 157.016 270.953C157.016 274.785 159.137 277.211 162.629 277.211C165.289 277.211 167.352 275.641 167.703 273.508H165.699ZM172.156 277V268.352H172.238L176.176 276.648H177.734L181.672 268.352H181.754V277H183.781V264.812H181.402L177.043 274.305H176.949L172.613 264.812H170.141V277H172.156ZM191.023 270.988C189.453 270.988 188.434 270.086 188.434 268.82C188.434 267.355 189.441 266.488 191.023 266.488H193.332V270.988H191.023ZM193.332 277H195.371V264.812H191.012C188.211 264.812 186.406 266.348 186.406 268.855C186.406 270.531 187.449 271.797 189.172 272.289L185.773 277H188.129L191.223 272.664H193.332V277Z" fill="black"/>
    <rect x="108" y="300" width="141" height="48" rx="12" fill="#F0C2FB"/>
    <path d="M134.188 324.176L141.875 316.09H139.227L131.961 323.883H131.867V316.09H129.758V333H131.867V324.785H131.961L139.766 333H142.66L134.188 324.176ZM148.039 331.477C146.574 331.477 145.602 330.715 145.602 329.555C145.602 328.406 146.539 327.68 148.18 327.574L151.438 327.375V328.371C151.438 330.129 149.961 331.477 148.039 331.477ZM147.582 333.211C149.223 333.211 150.77 332.297 151.496 330.902H151.543V333H153.477V324.574C153.477 322.148 151.672 320.602 148.812 320.602C145.93 320.602 144.125 322.219 143.984 324.328H145.953C146.211 323.133 147.195 322.395 148.766 322.395C150.453 322.395 151.438 323.285 151.438 324.773V325.793L147.945 325.992C145.133 326.156 143.527 327.469 143.527 329.555C143.527 331.746 145.156 333.211 147.582 333.211ZM162.219 320.602C160.449 320.602 159.031 321.504 158.281 322.875H158.234V320.812H156.301V337.066H158.34V331.02H158.387C159.113 332.355 160.52 333.211 162.266 333.211C165.336 333.211 167.434 330.727 167.434 326.906C167.434 323.086 165.324 320.602 162.219 320.602ZM161.82 331.418C159.734 331.418 158.328 329.625 158.328 326.906C158.328 324.199 159.734 322.395 161.82 322.395C163.988 322.395 165.348 324.152 165.348 326.906C165.348 329.672 163.988 331.418 161.82 331.418ZM178.168 320.812H168.277V322.488H172.203V333H174.242V322.488H178.168V320.812ZM182.07 333L188.141 323.941H188.234V333H190.273V320.812H188.258L182.188 329.871H182.094V320.812H180.055V333H182.07ZM201.137 333H203.176V320.812H201.137V325.84H195.172V320.812H193.133V333H195.172V327.516H201.137V333ZM210.207 326.578L215.879 320.812H213.359L208.18 326.203H208.086V320.812H206.047V333H208.086V327.141H208.18L213.418 333H216.043L210.207 326.578ZM221.422 331.477C219.957 331.477 218.984 330.715 218.984 329.555C218.984 328.406 219.922 327.68 221.562 327.574L224.82 327.375V328.371C224.82 330.129 223.344 331.477 221.422 331.477ZM220.965 333.211C222.605 333.211 224.152 332.297 224.879 330.902H224.926V333H226.859V324.574C226.859 322.148 225.055 320.602 222.195 320.602C219.312 320.602 217.508 322.219 217.367 324.328H219.336C219.594 323.133 220.578 322.395 222.148 322.395C223.836 322.395 224.82 323.285 224.82 324.773V325.793L221.328 325.992C218.516 326.156 216.91 327.469 216.91 329.555C216.91 331.746 218.539 333.211 220.965 333.211Z" fill="black"/>
    <rect x="108" y="356" width="100" height="48" rx="12" fill="#F0C2FB"/>
    <path d="M136.145 389V373.988H141.477V372.09H128.703V373.988H134.035V389H136.145ZM146.516 378.371C148.438 378.371 149.715 379.824 149.762 381.863H143.141C143.27 379.836 144.605 378.371 146.516 378.371ZM149.715 385.508C149.375 386.656 148.238 387.441 146.691 387.441C144.5 387.441 143.129 385.906 143.129 383.574V383.457H151.871V382.684C151.871 378.992 149.844 376.602 146.551 376.602C143.188 376.602 141.031 379.168 141.031 382.953C141.031 386.785 143.152 389.211 146.645 389.211C149.305 389.211 151.367 387.641 151.719 385.508H149.715ZM158.316 382.578L163.988 376.812H161.469L156.289 382.203H156.195V376.812H154.156V389H156.195V383.141H156.289L161.527 389H164.152L158.316 382.578ZM175.754 380.809C175.496 378.617 173.68 376.602 170.633 376.602C167.27 376.602 165.031 379.062 165.031 382.906C165.031 386.832 167.281 389.211 170.656 389.211C173.422 389.211 175.461 387.5 175.777 385.074H173.773C173.422 386.539 172.332 387.418 170.668 387.418C168.559 387.418 167.105 385.742 167.105 382.906C167.105 380.141 168.535 378.395 170.645 378.395C172.438 378.395 173.469 379.484 173.762 380.809H175.754ZM186.559 376.812H176.668V378.488H180.594V389H182.633V378.488H186.559V376.812Z" fill="black"/>
    <rect x="108" y="412" width="188" height="48" rx="12" fill="#F0C2FB"/>
    <path d="M134.188 436.176L141.875 428.09H139.227L131.961 435.883H131.867V428.09H129.758V445H131.867V436.785H131.961L139.766 445H142.66L134.188 436.176ZM148.719 445.211C152.082 445.211 154.355 442.785 154.355 438.906C154.355 435.016 152.082 432.602 148.719 432.602C145.344 432.602 143.07 435.016 143.07 438.906C143.07 442.785 145.344 445.211 148.719 445.211ZM148.719 443.418C146.562 443.418 145.145 441.777 145.145 438.906C145.145 436.035 146.562 434.395 148.719 434.395C150.875 434.395 152.281 436.035 152.281 438.906C152.281 441.777 150.875 443.418 148.719 443.418ZM158.656 445V436.352H158.738L162.676 444.648H164.234L168.172 436.352H168.254V445H170.281V432.812H167.902L163.543 442.305H163.449L159.113 432.812H156.641V445H158.656ZM175.156 445V436.352H175.238L179.176 444.648H180.734L184.672 436.352H184.754V445H186.781V432.812H184.402L180.043 442.305H179.949L175.613 432.812H173.141V445H175.156ZM194.539 434.371C196.461 434.371 197.738 435.824 197.785 437.863H191.164C191.293 435.836 192.629 434.371 194.539 434.371ZM197.738 441.508C197.398 442.656 196.262 443.441 194.715 443.441C192.523 443.441 191.152 441.906 191.152 439.574V439.457H199.895V438.684C199.895 434.992 197.867 432.602 194.574 432.602C191.211 432.602 189.055 435.168 189.055 438.953C189.055 442.785 191.176 445.211 194.668 445.211C197.328 445.211 199.391 443.641 199.742 441.508H197.738ZM210.184 445H212.223V432.812H210.184V437.84H204.219V432.812H202.18V445H204.219V439.516H210.184V445ZM224.012 432.812H214.121V434.488H218.047V445H220.086V434.488H224.012V432.812ZM229.461 443.477C227.996 443.477 227.023 442.715 227.023 441.555C227.023 440.406 227.961 439.68 229.602 439.574L232.859 439.375V440.371C232.859 442.129 231.383 443.477 229.461 443.477ZM229.004 445.211C230.645 445.211 232.191 444.297 232.918 442.902H232.965V445H234.898V436.574C234.898 434.148 233.094 432.602 230.234 432.602C227.352 432.602 225.547 434.219 225.406 436.328H227.375C227.633 435.133 228.617 434.395 230.188 434.395C231.875 434.395 232.859 435.285 232.859 436.773V437.793L229.367 437.992C226.555 438.156 224.949 439.469 224.949 441.555C224.949 443.746 226.578 445.211 229.004 445.211ZM243.641 432.602C241.871 432.602 240.453 433.504 239.703 434.875H239.656V432.812H237.723V449.066H239.762V443.02H239.809C240.535 444.355 241.941 445.211 243.688 445.211C246.758 445.211 248.855 442.727 248.855 438.906C248.855 435.086 246.746 432.602 243.641 432.602ZM243.242 443.418C241.156 443.418 239.75 441.625 239.75 438.906C239.75 436.199 241.156 434.395 243.242 434.395C245.41 434.395 246.77 436.152 246.77 438.906C246.77 441.672 245.41 443.418 243.242 443.418ZM253.156 445L259.227 435.941H259.32V445H261.359V432.812H259.344L253.273 441.871H253.18V432.812H251.141V445H253.156ZM266.234 445L272.305 435.941H272.398V445H274.438V432.812H272.422L266.352 441.871H266.258V432.812H264.219V445H266.234Z" fill="black"/>
    <path d="M109.746 628.598L115.734 608.09H113.988L108 628.598H109.746ZM117.48 628.598L123.469 608.09H121.723L115.734 628.598H117.48ZM135.539 625.152V629.066H137.508V625.152C141.281 625.094 143.801 622.668 143.801 618.906C143.801 615.145 141.281 612.73 137.508 612.66V608.805H135.539V612.66C131.742 612.719 129.234 615.145 129.234 618.906C129.234 622.668 131.742 625.082 135.539 625.152ZM135.539 623.418C132.938 623.348 131.285 621.648 131.285 618.906C131.285 616.152 132.938 614.453 135.539 614.395V623.418ZM141.75 618.906C141.75 621.66 140.098 623.359 137.508 623.418V614.395C140.098 614.465 141.75 616.164 141.75 618.906ZM146.766 629.559C148.969 629.559 149.977 628.703 151.02 625.855L155.812 612.812H153.668L150.293 622.961H150.258L146.883 612.812H144.703L149.203 625.012L148.922 625.867C148.453 627.285 147.82 627.836 146.684 627.836C146.426 627.836 146.109 627.824 145.887 627.777V629.488C146.109 629.535 146.52 629.559 146.766 629.559ZM165.645 625H167.684V612.812H165.645V617.84H159.68V612.812H157.641V625H159.68V619.516H165.645V625ZM172.688 619.141L177.926 625H180.551L174.715 618.578L180.387 612.812H177.867L172.688 618.203H172.594V612.812H170.555V625H172.594V619.141H172.688ZM194.016 628.223V623.324H192.07V612.812H190.031V623.324H184.289V612.812H182.25V625H192.117V628.223H194.016ZM197.859 625L203.93 615.941H204.023V625H206.062V612.812H204.047L197.977 621.871H197.883V612.812H195.844V625H197.859ZM215.613 625H217.652V612.812H213.293C210.492 612.812 208.688 614.348 208.688 616.855C208.688 618.531 209.73 619.797 211.453 620.289L208.055 625H210.41L213.504 620.664H215.613V625ZM213.305 618.988C211.734 618.988 210.715 618.086 210.715 616.82C210.715 615.355 211.723 614.488 213.305 614.488H215.613V618.988H213.305Z" fill="black"/>
    <rect x="108" y="652" width="308" height="48" rx="12" fill="#FEE872"/>
    <path d="M136.895 667.809C132.102 667.809 129.102 671.184 129.102 676.551C129.102 681.918 132.102 685.281 136.895 685.281C141.688 685.281 144.688 681.918 144.688 676.551C144.688 671.184 141.688 667.809 136.895 667.809ZM136.895 669.754C140.352 669.754 142.52 672.379 142.52 676.551C142.52 680.711 140.352 683.336 136.895 683.336C133.438 683.336 131.27 680.711 131.27 676.551C131.27 672.379 133.438 669.754 136.895 669.754ZM156.137 672.812H146.246V674.488H150.172V685H152.211V674.488H156.137V672.812ZM162.184 678.578L167.855 672.812H165.336L160.156 678.203H160.062V672.812H158.023V685H160.062V679.141H160.156L165.395 685H168.02L162.184 678.578ZM172.883 679.621L173.258 674.488H177.359V685H179.398V672.812H171.418L170.949 679.574C170.797 681.812 170.34 683.23 169.133 683.23C168.84 683.23 168.617 683.172 168.512 683.137V684.977C168.652 685.035 168.887 685.105 169.238 685.105C171.805 685.105 172.637 682.984 172.883 679.621ZM191.891 685.211C195.312 685.211 197.422 682.82 197.422 678.906C197.422 674.98 195.312 672.602 191.891 672.602C188.797 672.602 186.781 674.559 186.418 677.84H184.32V672.812H182.281V685H184.32V679.516H186.371C186.594 683.066 188.656 685.211 191.891 685.211ZM191.891 683.406C189.688 683.406 188.445 681.766 188.445 678.906C188.445 676.035 189.688 674.406 191.891 674.406C194.094 674.406 195.336 676.035 195.336 678.906C195.336 681.766 194.094 683.406 191.891 683.406ZM208.871 685V672.812H206.832V677.945C206.258 678.52 205.191 678.906 203.832 678.906C202.145 678.906 201.312 677.887 201.312 676.293V672.812H199.273V676.316C199.273 678.918 200.809 680.688 203.762 680.688C205.051 680.688 205.965 680.406 206.656 679.949H206.832V685H208.871ZM213.758 685L219.828 675.941H219.922V685H221.961V672.812H219.945L213.875 681.871H213.781V672.812H211.742V685H213.758ZM233.738 672.812H223.848V674.488H227.773V685H229.812V674.488H233.738V672.812ZM239.914 678.379C241.484 678.379 242.516 679.352 242.516 680.852C242.516 682.34 241.496 683.324 239.914 683.324H237.664V678.379H239.914ZM235.625 685H239.949C242.738 685 244.531 683.395 244.531 680.852C244.531 678.309 242.738 676.703 239.949 676.703H237.664V672.812H235.625V685ZM255.84 678.578L261.512 672.812H258.992L253.812 678.203H253.719V672.812H251.68V685H253.719V679.141H253.812L259.051 685H261.676L255.84 678.578ZM268.203 685.211C271.566 685.211 273.84 682.785 273.84 678.906C273.84 675.016 271.566 672.602 268.203 672.602C264.828 672.602 262.555 675.016 262.555 678.906C262.555 682.785 264.828 685.211 268.203 685.211ZM268.203 683.418C266.047 683.418 264.629 681.777 264.629 678.906C264.629 676.035 266.047 674.395 268.203 674.395C270.359 674.395 271.766 676.035 271.766 678.906C271.766 681.777 270.359 683.418 268.203 683.418ZM278.141 685V676.352H278.223L282.16 684.648H283.719L287.656 676.352H287.738V685H289.766V672.812H287.387L283.027 682.305H282.934L278.598 672.812H276.125V685H278.141ZM294.641 685V676.352H294.723L298.66 684.648H300.219L304.156 676.352H304.238V685H306.266V672.812H303.887L299.527 682.305H299.434L295.098 672.812H292.625V685H294.641ZM314.023 674.371C315.945 674.371 317.223 675.824 317.27 677.863H310.648C310.777 675.836 312.113 674.371 314.023 674.371ZM317.223 681.508C316.883 682.656 315.746 683.441 314.199 683.441C312.008 683.441 310.637 681.906 310.637 679.574V679.457H319.379V678.684C319.379 674.992 317.352 672.602 314.059 672.602C310.695 672.602 308.539 675.168 308.539 678.953C308.539 682.785 310.66 685.211 314.152 685.211C316.812 685.211 318.875 683.641 319.227 681.508H317.223ZM329.668 685H331.707V672.812H329.668V677.84H323.703V672.812H321.664V685H323.703V679.516H329.668V685ZM343.496 672.812H333.605V674.488H337.531V685H339.57V674.488H343.496V672.812ZM348.945 683.477C347.48 683.477 346.508 682.715 346.508 681.555C346.508 680.406 347.445 679.68 349.086 679.574L352.344 679.375V680.371C352.344 682.129 350.867 683.477 348.945 683.477ZM348.488 685.211C350.129 685.211 351.676 684.297 352.402 682.902H352.449V685H354.383V676.574C354.383 674.148 352.578 672.602 349.719 672.602C346.836 672.602 345.031 674.219 344.891 676.328H346.859C347.117 675.133 348.102 674.395 349.672 674.395C351.359 674.395 352.344 675.285 352.344 676.773V677.793L348.852 677.992C346.039 678.156 344.434 679.469 344.434 681.555C344.434 683.746 346.062 685.211 348.488 685.211ZM363.125 672.602C361.355 672.602 359.938 673.504 359.188 674.875H359.141V672.812H357.207V689.066H359.246V683.02H359.293C360.02 684.355 361.426 685.211 363.172 685.211C366.242 685.211 368.34 682.727 368.34 678.906C368.34 675.086 366.23 672.602 363.125 672.602ZM362.727 683.418C360.641 683.418 359.234 681.625 359.234 678.906C359.234 676.199 360.641 674.395 362.727 674.395C364.895 674.395 366.254 676.152 366.254 678.906C366.254 681.672 364.895 683.418 362.727 683.418ZM372.641 685L378.711 675.941H378.805V685H380.844V672.812H378.828L372.758 681.871H372.664V672.812H370.625V685H372.641ZM385.719 685L391.789 675.941H391.883V685H393.922V672.812H391.906L385.836 681.871H385.742V672.812H383.703V685H385.719Z" fill="black"/>
    <rect x="61" y="29" width="401.85" height="727" rx="31" stroke="#D3DBE6" stroke-width="2" stroke-dasharray="8 8"/>
    <rect x="489.452" y="29" width="373.548" height="727" rx="31" fill="#F4F7FA"/>
    <path d="M562.604 110V81.8164H543.21L542.37 98.4766C542.155 102.715 541.257 104.98 538.64 104.98C538.132 104.98 537.604 104.883 537.331 104.824V109.98C537.722 110.098 538.503 110.234 539.46 110.234C545.085 110.234 547.409 106.152 547.8 98.8672L548.483 86.6797H556.706V110H562.604ZM585.964 110.449C592.351 110.449 596.257 106.426 596.257 99.5117C596.257 92.6758 592.292 88.6133 585.964 88.6133C580.456 88.6133 576.745 91.7578 575.886 97.1094H572.917V89.0625H567.214V110H572.917V101.426H575.808C576.491 107.148 580.241 110.449 585.964 110.449ZM585.944 105.957C583.132 105.957 581.472 103.633 581.472 99.5312C581.472 95.4492 583.151 93.0859 585.944 93.0859C588.757 93.0859 590.417 95.4492 590.417 99.5312C590.417 103.633 588.757 105.957 585.944 105.957ZM602.8 115.41V110H616.882V115.41H622.077V105.684H618.972V89.0625H602.214L601.53 99.5898C601.335 102.422 600.749 104.824 599.226 105.684H597.624V115.41H602.8ZM613.288 105.684H605.026V105.527C605.964 104.121 606.394 102.188 606.55 99.9609L607.019 93.3398H613.288V105.684ZM630.222 110L638.522 96.7578H638.679V110H644.284V89.0625H638.698L630.397 102.129H630.241V89.0625H624.636V110H630.222Z" fill="black"/>
    <path d="M538.198 164.598L544.187 144.09H542.44L536.452 164.598H538.198ZM545.933 164.598L551.921 144.09H550.175L544.187 164.598H545.933ZM568.409 152.809C568.151 150.617 566.335 148.602 563.288 148.602C559.925 148.602 557.687 151.062 557.687 154.906C557.687 158.832 559.937 161.211 563.312 161.211C566.077 161.211 568.116 159.5 568.433 157.074H566.429C566.077 158.539 564.987 159.418 563.323 159.418C561.214 159.418 559.761 157.742 559.761 154.906C559.761 152.141 561.19 150.395 563.3 150.395C565.093 150.395 566.124 151.484 566.417 152.809H568.409ZM575.593 161.211C578.956 161.211 581.229 158.785 581.229 154.906C581.229 151.016 578.956 148.602 575.593 148.602C572.218 148.602 569.944 151.016 569.944 154.906C569.944 158.785 572.218 161.211 575.593 161.211ZM575.593 159.418C573.437 159.418 572.019 157.777 572.019 154.906C572.019 152.035 573.437 150.395 575.593 150.395C577.749 150.395 579.155 152.035 579.155 154.906C579.155 157.777 577.749 159.418 575.593 159.418ZM593.651 152.809C593.394 150.617 591.577 148.602 588.53 148.602C585.167 148.602 582.929 151.062 582.929 154.906C582.929 158.832 585.179 161.211 588.554 161.211C591.319 161.211 593.358 159.5 593.675 157.074H591.671C591.319 158.539 590.229 159.418 588.565 159.418C586.456 159.418 585.003 157.742 585.003 154.906C585.003 152.141 586.433 150.395 588.542 150.395C590.335 150.395 591.366 151.484 591.659 152.809H593.651ZM604.456 148.812H594.565V150.488H598.491V161H600.53V150.488H604.456V148.812ZM609.448 161.211C611.089 161.211 612.636 160.297 613.362 158.902H613.409V161H615.343V152.574C615.343 150.148 613.538 148.602 610.679 148.602C607.796 148.602 605.991 150.219 605.851 152.328H607.819C608.077 151.133 609.062 150.395 610.632 150.395C612.319 150.395 613.304 151.285 613.304 152.773V153.793L609.812 153.992C606.999 154.156 605.394 155.469 605.394 157.555C605.394 159.746 607.022 161.211 609.448 161.211ZM609.905 159.477C608.44 159.477 607.468 158.715 607.468 157.555C607.468 156.406 608.405 155.68 610.046 155.574L613.304 155.375V156.371C613.304 158.129 611.827 159.477 609.905 159.477ZM623.405 161C625.995 161 627.589 159.652 627.589 157.496C627.589 156.008 626.581 154.918 625.046 154.707V154.613C626.171 154.379 627.05 153.219 627.05 151.965C627.05 150.008 625.655 148.812 623.37 148.812H618.155V161H623.405ZM620.194 150.465H623.065C624.343 150.465 625.034 151.074 625.034 152.176C625.034 153.359 624.296 153.934 622.761 153.934H620.194V150.465ZM620.194 155.574H622.925C624.706 155.574 625.562 156.184 625.562 157.449C625.562 158.68 624.765 159.348 623.288 159.348H620.194V155.574ZM632.968 155.621L633.343 150.488H637.444V161H639.483V148.812H631.503L631.034 155.574C630.882 157.812 630.425 159.23 629.218 159.23C628.925 159.23 628.702 159.172 628.597 159.137V160.977C628.737 161.035 628.972 161.105 629.323 161.105C631.89 161.105 632.722 158.984 632.968 155.621ZM649.058 161H651.097V148.812H646.737C643.937 148.812 642.132 150.348 642.132 152.855C642.132 154.531 643.175 155.797 644.897 156.289L641.499 161H643.854L646.948 156.664H649.058V161ZM646.749 154.988C645.179 154.988 644.159 154.086 644.159 152.82C644.159 151.355 645.167 150.488 646.749 150.488H649.058V154.988H646.749ZM663.577 161.211C666.999 161.211 669.108 158.82 669.108 154.906C669.108 150.98 666.999 148.602 663.577 148.602C660.483 148.602 658.468 150.559 658.104 153.84H656.007V148.812H653.968V161H656.007V155.516H658.058C658.28 159.066 660.343 161.211 663.577 161.211ZM663.577 159.406C661.374 159.406 660.132 157.766 660.132 154.906C660.132 152.035 661.374 150.406 663.577 150.406C665.78 150.406 667.022 152.035 667.022 154.906C667.022 157.766 665.78 159.406 663.577 159.406ZM671.382 161H686.464V164.34H688.421V159.312H686.429V148.812H684.39V159.324H679.925V148.812H677.886V159.324H673.421V148.812H671.382V161ZM692.218 161L698.288 151.941H698.382V161H700.421V148.812H698.405L692.335 157.871H692.241V148.812H690.202V161H692.218ZM711.378 157.508C711.038 158.656 709.901 159.441 708.354 159.441C706.163 159.441 704.792 157.906 704.792 155.574V155.457H713.534V154.684C713.534 150.992 711.507 148.602 708.214 148.602C704.851 148.602 702.694 151.168 702.694 154.953C702.694 158.785 704.815 161.211 708.308 161.211C710.968 161.211 713.03 159.641 713.382 157.508H711.378ZM708.179 150.371C710.101 150.371 711.378 151.824 711.425 153.863H704.804C704.933 151.836 706.269 150.371 708.179 150.371Z" fill="black"/>
    <rect x="536.452" y="188" width="91" height="48" rx="12" fill="#F0C2FB"/>
    <path d="M558.21 204.09V221H560.319V214.965H564.222C567.397 214.965 569.659 212.727 569.659 209.516C569.659 206.316 567.421 204.09 564.245 204.09H558.21ZM560.319 205.965H563.694C566.12 205.965 567.491 207.277 567.491 209.516C567.491 211.766 566.108 213.09 563.694 213.09H560.319V205.965ZM573.022 225.559C575.226 225.559 576.233 224.703 577.276 221.855L582.069 208.812H579.925L576.55 218.961H576.515L573.14 208.812H570.96L575.46 221.012L575.179 221.867C574.71 223.285 574.077 223.836 572.94 223.836C572.683 223.836 572.366 223.824 572.144 223.777V225.488C572.366 225.535 572.776 225.559 573.022 225.559ZM586.03 215.141L591.269 221H593.894L588.058 214.578L593.729 208.812H591.21L586.03 214.203H585.937V208.812H583.897V221H585.937V215.141H586.03ZM597.608 221L603.679 211.941H603.772V221H605.812V208.812H603.796L597.726 217.871H597.632V208.812H595.593V221H597.608Z" fill="black"/>
    <rect x="536.452" y="244" width="94" height="48" rx="12" fill="#F0C2FB"/>
    <path d="M571.71 277V260.09H569.601V267.402H560.319V260.09H558.21V277H560.319V269.301H569.601V277H571.71ZM579.96 277.211C583.323 277.211 585.597 274.785 585.597 270.906C585.597 267.016 583.323 264.602 579.96 264.602C576.585 264.602 574.312 267.016 574.312 270.906C574.312 274.785 576.585 277.211 579.96 277.211ZM579.96 275.418C577.804 275.418 576.386 273.777 576.386 270.906C576.386 268.035 577.804 266.395 579.96 266.395C582.116 266.395 583.522 268.035 583.522 270.906C583.522 273.777 582.116 275.418 579.96 275.418ZM595.722 266.488V264.812H587.882V277H589.921V266.488H595.722ZM599.952 277L606.022 267.941H606.116V277H608.155V264.812H606.14L600.069 273.871H599.976V264.812H597.937V277H599.952Z" fill="black"/>
    <path d="M538.198 340.598L544.187 320.09H542.44L536.452 340.598H538.198ZM545.933 340.598L551.921 320.09H550.175L544.187 340.598H545.933ZM568.409 328.809C568.151 326.617 566.335 324.602 563.288 324.602C559.925 324.602 557.687 327.062 557.687 330.906C557.687 334.832 559.937 337.211 563.312 337.211C566.077 337.211 568.116 335.5 568.433 333.074H566.429C566.077 334.539 564.987 335.418 563.323 335.418C561.214 335.418 559.761 333.742 559.761 330.906C559.761 328.141 561.19 326.395 563.3 326.395C565.093 326.395 566.124 327.484 566.417 328.809H568.409ZM575.78 337C578.37 337 579.964 335.652 579.964 333.496C579.964 332.008 578.956 330.918 577.421 330.707V330.613C578.546 330.379 579.425 329.219 579.425 327.965C579.425 326.008 578.03 324.812 575.745 324.812H570.53V337H575.78ZM572.569 326.465H575.44C576.718 326.465 577.409 327.074 577.409 328.176C577.409 329.359 576.671 329.934 575.136 329.934H572.569V326.465ZM572.569 331.574H575.3C577.081 331.574 577.937 332.184 577.937 333.449C577.937 334.68 577.14 335.348 575.663 335.348H572.569V331.574ZM587.358 337.211C590.722 337.211 592.995 334.785 592.995 330.906C592.995 327.016 590.722 324.602 587.358 324.602C583.983 324.602 581.71 327.016 581.71 330.906C581.71 334.785 583.983 337.211 587.358 337.211ZM587.358 335.418C585.202 335.418 583.784 333.777 583.784 330.906C583.784 328.035 585.202 326.395 587.358 326.395C589.515 326.395 590.921 328.035 590.921 330.906C590.921 333.777 589.515 335.418 587.358 335.418ZM596.651 319.539C596.651 321.695 598.187 323.172 600.425 323.172C602.663 323.172 604.198 321.695 604.198 319.539H602.698C602.698 320.898 601.819 321.965 600.425 321.965C599.03 321.965 598.151 320.898 598.151 319.539H596.651ZM597.296 337L603.366 327.941H603.46V337H605.499V324.812H603.483L597.413 333.871H597.319V324.812H595.28V337H597.296ZM618.495 328.809C618.237 326.617 616.421 324.602 613.374 324.602C610.011 324.602 607.772 327.062 607.772 330.906C607.772 334.832 610.022 337.211 613.397 337.211C616.163 337.211 618.202 335.5 618.519 333.074H616.515C616.163 334.539 615.073 335.418 613.409 335.418C611.3 335.418 609.847 333.742 609.847 330.906C609.847 328.141 611.276 326.395 613.386 326.395C615.179 326.395 616.21 327.484 616.503 328.809H618.495ZM629.3 324.812H619.409V326.488H623.335V337H625.374V326.488H629.3V324.812ZM636.437 337C639.026 337 640.62 335.652 640.62 333.496C640.62 332.008 639.612 330.918 638.077 330.707V330.613C639.202 330.379 640.081 329.219 640.081 327.965C640.081 326.008 638.687 324.812 636.401 324.812H631.187V337H636.437ZM633.226 326.465H636.097C637.374 326.465 638.065 327.074 638.065 328.176C638.065 329.359 637.327 329.934 635.792 329.934H633.226V326.465ZM633.226 331.574H635.956C637.737 331.574 638.593 332.184 638.593 333.449C638.593 334.68 637.796 335.348 636.319 335.348H633.226V331.574ZM646.526 337.211C648.167 337.211 649.714 336.297 650.44 334.902H650.487V337H652.421V328.574C652.421 326.148 650.616 324.602 647.757 324.602C644.874 324.602 643.069 326.219 642.929 328.328H644.897C645.155 327.133 646.14 326.395 647.71 326.395C649.397 326.395 650.382 327.285 650.382 328.773V329.793L646.89 329.992C644.077 330.156 642.472 331.469 642.472 333.555C642.472 335.746 644.101 337.211 646.526 337.211ZM646.983 335.477C645.519 335.477 644.546 334.715 644.546 333.555C644.546 332.406 645.483 331.68 647.124 331.574L650.382 331.375V332.371C650.382 334.129 648.905 335.477 646.983 335.477Z" fill="black"/>
    <rect x="536.452" y="364" width="128" height="48" rx="12" fill="#F0C2FB"/>
    <path d="M564.597 397C568.194 397 570.327 395.23 570.327 392.254C570.327 390.004 568.851 388.387 566.554 388.094V388C568.183 387.707 569.472 386.066 569.472 384.309C569.472 381.777 567.515 380.09 564.62 380.09H558.21V397H564.597ZM560.319 381.953H564.14C566.19 381.953 567.339 382.879 567.339 384.555C567.339 386.383 565.979 387.379 563.483 387.379H560.319V381.953ZM560.319 395.137V389.195H564.081C566.776 389.195 568.159 390.191 568.159 392.148C568.159 394.105 566.823 395.137 564.28 395.137H560.319ZM577.687 397.211C581.05 397.211 583.323 394.785 583.323 390.906C583.323 387.016 581.05 384.602 577.687 384.602C574.312 384.602 572.038 387.016 572.038 390.906C572.038 394.785 574.312 397.211 577.687 397.211ZM577.687 395.418C575.53 395.418 574.112 393.777 574.112 390.906C574.112 388.035 575.53 386.395 577.687 386.395C579.843 386.395 581.249 388.035 581.249 390.906C581.249 393.777 579.843 395.418 577.687 395.418ZM589.675 397.211C592.534 397.211 594.433 395.688 594.433 393.438C594.433 392.066 593.601 391.059 591.995 390.707V390.613C593.261 390.32 594.093 389.195 594.093 387.93C594.093 385.949 592.581 384.602 589.804 384.602C587.226 384.602 585.468 385.879 585.21 387.895H587.19C587.354 386.922 588.362 386.301 589.804 386.301C591.374 386.301 592.101 387.051 592.101 388.094C592.101 389.324 591.28 389.934 589.675 389.934H587.847V391.598H589.675C591.515 391.598 592.429 392.195 592.429 393.531C592.429 394.691 591.444 395.523 589.675 395.523C588.163 395.523 587.155 394.902 586.921 393.836H584.858C585.069 395.898 587.003 397.211 589.675 397.211ZM602.694 384.602C600.925 384.602 599.507 385.504 598.757 386.875H598.71V384.812H596.776V401.066H598.815V395.02H598.862C599.589 396.355 600.995 397.211 602.741 397.211C605.812 397.211 607.909 394.727 607.909 390.906C607.909 387.086 605.8 384.602 602.694 384.602ZM602.296 395.418C600.21 395.418 598.804 393.625 598.804 390.906C598.804 388.199 600.21 386.395 602.296 386.395C604.464 386.395 605.823 388.152 605.823 390.906C605.823 393.672 604.464 395.418 602.296 395.418ZM613.769 397.211C615.409 397.211 616.956 396.297 617.683 394.902H617.729V397H619.663V388.574C619.663 386.148 617.858 384.602 614.999 384.602C612.116 384.602 610.312 386.219 610.171 388.328H612.14C612.397 387.133 613.382 386.395 614.952 386.395C616.64 386.395 617.624 387.285 617.624 388.773V389.793L614.132 389.992C611.319 390.156 609.714 391.469 609.714 393.555C609.714 395.746 611.343 397.211 613.769 397.211ZM614.226 395.477C612.761 395.477 611.788 394.715 611.788 393.555C611.788 392.406 612.726 391.68 614.366 391.574L617.624 391.375V392.371C617.624 394.129 616.147 395.477 614.226 395.477ZM632.612 388.809C632.354 386.617 630.538 384.602 627.491 384.602C624.128 384.602 621.89 387.062 621.89 390.906C621.89 394.832 624.14 397.211 627.515 397.211C630.28 397.211 632.319 395.5 632.636 393.074H630.632C630.28 394.539 629.19 395.418 627.526 395.418C625.417 395.418 623.964 393.742 623.964 390.906C623.964 388.141 625.394 386.395 627.503 386.395C629.296 386.395 630.327 387.484 630.62 388.809H632.612ZM643.417 384.812H633.526V386.488H637.452V397H639.491V386.488H643.417V384.812Z" fill="black"/>
    <rect x="536.452" y="420" width="90" height="48" rx="12" fill="#F0C2FB"/>
    <path d="M558.21 436.09V453H560.319V446.965H564.222C567.397 446.965 569.659 444.727 569.659 441.516C569.659 438.316 567.421 436.09 564.245 436.09H558.21ZM560.319 437.965H563.694C566.12 437.965 567.491 439.277 567.491 441.516C567.491 443.766 566.108 445.09 563.694 445.09H560.319V437.965ZM576.585 453.211C579.948 453.211 582.222 450.785 582.222 446.906C582.222 443.016 579.948 440.602 576.585 440.602C573.21 440.602 570.937 443.016 570.937 446.906C570.937 450.785 573.21 453.211 576.585 453.211ZM576.585 451.418C574.429 451.418 573.011 449.777 573.011 446.906C573.011 444.035 574.429 442.395 576.585 442.395C578.741 442.395 580.147 444.035 580.147 446.906C580.147 449.777 578.741 451.418 576.585 451.418ZM594.644 444.809C594.386 442.617 592.569 440.602 589.522 440.602C586.159 440.602 583.921 443.062 583.921 446.906C583.921 450.832 586.171 453.211 589.546 453.211C592.312 453.211 594.351 451.5 594.667 449.074H592.663C592.312 450.539 591.222 451.418 589.558 451.418C587.448 451.418 585.995 449.742 585.995 446.906C585.995 444.141 587.425 442.395 589.534 442.395C591.327 442.395 592.358 443.484 592.651 444.809H594.644ZM605.448 440.812H595.558V442.488H599.483V453H601.522V442.488H605.448V440.812Z" fill="black"/>
    <rect x="536.452" y="476" width="82" height="48" rx="12" fill="#F0C2FB"/>
    <path d="M571.464 509V492.09H558.21V509H560.331V494.012H569.378V509H571.464ZM579.726 509.211C583.089 509.211 585.362 506.785 585.362 502.906C585.362 499.016 583.089 496.602 579.726 496.602C576.351 496.602 574.077 499.016 574.077 502.906C574.077 506.785 576.351 509.211 579.726 509.211ZM579.726 507.418C577.569 507.418 576.151 505.777 576.151 502.906C576.151 500.035 577.569 498.395 579.726 498.395C581.882 498.395 583.288 500.035 583.288 502.906C583.288 505.777 581.882 507.418 579.726 507.418ZM590.46 503.621L590.835 498.488H594.937V509H596.976V496.812H588.995L588.526 503.574C588.374 505.812 587.917 507.23 586.71 507.23C586.417 507.23 586.194 507.172 586.089 507.137V508.977C586.229 509.035 586.464 509.105 586.815 509.105C589.382 509.105 590.214 506.984 590.46 503.621Z" fill="black"/>
    <rect x="536.452" y="532" width="160" height="48" rx="12" fill="#F0C2FB"/>
    <path d="M573.585 568.34V563.102H571.476V548.09H569.366V563.102H560.319V548.09H558.21V565H571.628V568.34H573.585ZM580.968 565C583.558 565 585.151 563.652 585.151 561.496C585.151 560.008 584.144 558.918 582.608 558.707V558.613C583.733 558.379 584.612 557.219 584.612 555.965C584.612 554.008 583.218 552.812 580.933 552.812H575.718V565H580.968ZM577.757 554.465H580.628C581.905 554.465 582.597 555.074 582.597 556.176C582.597 557.359 581.858 557.934 580.323 557.934H577.757V554.465ZM577.757 559.574H580.487C582.269 559.574 583.124 560.184 583.124 561.449C583.124 562.68 582.327 563.348 580.851 563.348H577.757V559.574ZM592.382 554.371C594.304 554.371 595.581 555.824 595.628 557.863H589.007C589.136 555.836 590.472 554.371 592.382 554.371ZM595.581 561.508C595.241 562.656 594.104 563.441 592.558 563.441C590.366 563.441 588.995 561.906 588.995 559.574V559.457H597.737V558.684C597.737 554.992 595.71 552.602 592.417 552.602C589.054 552.602 586.897 555.168 586.897 558.953C586.897 562.785 589.019 565.211 592.511 565.211C595.171 565.211 597.233 563.641 597.585 561.508H595.581ZM608.472 552.812H598.581V554.488H602.507V565H604.546V554.488H608.472V552.812ZM620.53 565C623.12 565 624.714 563.652 624.714 561.496C624.714 560.008 623.706 558.918 622.171 558.707V558.613C623.296 558.379 624.175 557.219 624.175 555.965C624.175 554.008 622.78 552.812 620.495 552.812H615.28V565H620.53ZM617.319 554.465H620.19C621.468 554.465 622.159 555.074 622.159 556.176C622.159 557.359 621.421 557.934 619.886 557.934H617.319V554.465ZM617.319 559.574H620.05C621.831 559.574 622.687 560.184 622.687 561.449C622.687 562.68 621.89 563.348 620.413 563.348H617.319V559.574ZM632.108 565.211C635.472 565.211 637.745 562.785 637.745 558.906C637.745 555.016 635.472 552.602 632.108 552.602C628.733 552.602 626.46 555.016 626.46 558.906C626.46 562.785 628.733 565.211 632.108 565.211ZM632.108 563.418C629.952 563.418 628.534 561.777 628.534 558.906C628.534 556.035 629.952 554.395 632.108 554.395C634.265 554.395 635.671 556.035 635.671 558.906C635.671 561.777 634.265 563.418 632.108 563.418ZM642.843 559.621L643.218 554.488H647.319V565H649.358V552.812H641.378L640.909 559.574C640.757 561.812 640.3 563.23 639.093 563.23C638.8 563.23 638.577 563.172 638.472 563.137V564.977C638.612 565.035 638.847 565.105 639.198 565.105C641.765 565.105 642.597 562.984 642.843 559.621ZM657.304 565.211C660.667 565.211 662.94 562.785 662.94 558.906C662.94 555.016 660.667 552.602 657.304 552.602C653.929 552.602 651.655 555.016 651.655 558.906C651.655 562.785 653.929 565.211 657.304 565.211ZM657.304 563.418C655.147 563.418 653.729 561.777 653.729 558.906C653.729 556.035 655.147 554.395 657.304 554.395C659.46 554.395 660.866 556.035 660.866 558.906C660.866 561.777 659.46 563.418 657.304 563.418ZM675.362 556.809C675.104 554.617 673.288 552.602 670.241 552.602C666.878 552.602 664.64 555.062 664.64 558.906C664.64 562.832 666.89 565.211 670.265 565.211C673.03 565.211 675.069 563.5 675.386 561.074H673.382C673.03 562.539 671.94 563.418 670.276 563.418C668.167 563.418 666.714 561.742 666.714 558.906C666.714 556.141 668.144 554.395 670.253 554.395C672.046 554.395 673.077 555.484 673.37 556.809H675.362Z" fill="black"/>
    <path d="M538.198 628.598L544.187 608.09H542.44L536.452 628.598H538.198ZM545.933 628.598L551.921 608.09H550.175L544.187 628.598H545.933ZM563.991 625.152V629.066H565.96V625.152C569.733 625.094 572.253 622.668 572.253 618.906C572.253 615.145 569.733 612.73 565.96 612.66V608.805H563.991V612.66C560.194 612.719 557.687 615.145 557.687 618.906C557.687 622.668 560.194 625.082 563.991 625.152ZM563.991 623.418C561.39 623.348 559.737 621.648 559.737 618.906C559.737 616.152 561.39 614.453 563.991 614.395V623.418ZM570.202 618.906C570.202 621.66 568.55 623.359 565.96 623.418V614.395C568.55 614.465 570.202 616.164 570.202 618.906ZM575.218 629.559C577.421 629.559 578.429 628.703 579.472 625.855L584.265 612.812H582.12L578.745 622.961H578.71L575.335 612.812H573.155L577.655 625.012L577.374 625.867C576.905 627.285 576.272 627.836 575.136 627.836C574.878 627.836 574.562 627.824 574.339 627.777V629.488C574.562 629.535 574.972 629.559 575.218 629.559ZM594.097 625H596.136V612.812H594.097V617.84H588.132V612.812H586.093V625H588.132V619.516H594.097V625ZM601.14 619.141L606.378 625H609.003L603.167 618.578L608.839 612.812H606.319L601.14 618.203H601.046V612.812H599.007V625H601.046V619.141H601.14ZM622.468 628.223V623.324H620.522V612.812H618.483V623.324H612.741V612.812H610.702V625H620.569V628.223H622.468ZM626.312 625L632.382 615.941H632.476V625H634.515V612.812H632.499L626.429 621.871H626.335V612.812H624.296V625H626.312ZM644.065 625H646.104V612.812H641.745C638.944 612.812 637.14 614.348 637.14 616.855C637.14 618.531 638.183 619.797 639.905 620.289L636.507 625H638.862L641.956 620.664H644.065V625ZM641.757 618.988C640.187 618.988 639.167 618.086 639.167 616.82C639.167 615.355 640.175 614.488 641.757 614.488H644.065V618.988H641.757Z" fill="black"/>
    <rect x="536.452" y="652" width="266" height="48" rx="12" fill="#FEE872"/>
    <path d="M569.624 685H571.71V668.09H569.624L560.483 681.59H560.296V668.09H558.21V685H560.296L569.437 671.547H569.624V685ZM578.964 685.211C581.823 685.211 583.722 683.688 583.722 681.438C583.722 680.066 582.89 679.059 581.284 678.707V678.613C582.55 678.32 583.382 677.195 583.382 675.93C583.382 673.949 581.87 672.602 579.093 672.602C576.515 672.602 574.757 673.879 574.499 675.895H576.479C576.644 674.922 577.651 674.301 579.093 674.301C580.663 674.301 581.39 675.051 581.39 676.094C581.39 677.324 580.569 677.934 578.964 677.934H577.136V679.598H578.964C580.804 679.598 581.718 680.195 581.718 681.531C581.718 682.691 580.733 683.523 578.964 683.523C577.452 683.523 576.444 682.902 576.21 681.836H574.147C574.358 683.898 576.292 685.211 578.964 685.211ZM588.069 685V676.352H588.151L592.089 684.648H593.647L597.585 676.352H597.667V685H599.694V672.812H597.315L592.956 682.305H592.862L588.526 672.812H586.054V685H588.069ZM607.452 674.371C609.374 674.371 610.651 675.824 610.698 677.863H604.077C604.206 675.836 605.542 674.371 607.452 674.371ZM610.651 681.508C610.312 682.656 609.175 683.441 607.628 683.441C605.437 683.441 604.065 681.906 604.065 679.574V679.457H612.808V678.684C612.808 674.992 610.78 672.602 607.487 672.602C604.124 672.602 601.968 675.168 601.968 678.953C601.968 682.785 604.089 685.211 607.581 685.211C610.241 685.211 612.304 683.641 612.655 681.508H610.651ZM623.097 685H625.136V672.812H623.097V677.84H617.132V672.812H615.093V685H617.132V679.516H623.097V685ZM630.022 685L636.093 675.941H636.187V685H638.226V672.812H636.21L630.14 681.871H630.046V672.812H628.007V685H630.022ZM650.003 672.812H640.112V674.488H644.038V685H646.077V674.488H650.003V672.812ZM656.179 678.379C657.749 678.379 658.78 679.352 658.78 680.852C658.78 682.34 657.761 683.324 656.179 683.324H653.929V678.379H656.179ZM651.89 685H656.214C659.003 685 660.796 683.395 660.796 680.852C660.796 678.309 659.003 676.703 656.214 676.703H653.929V672.812H651.89V685ZM679.71 688.223V683.324H677.765V672.812H675.726V683.324H669.983V672.812H667.944V685H677.812V688.223H679.71ZM686.788 685C689.378 685 690.972 683.652 690.972 681.496C690.972 680.008 689.964 678.918 688.429 678.707V678.613C689.554 678.379 690.433 677.219 690.433 675.965C690.433 674.008 689.038 672.812 686.753 672.812H681.538V685H686.788ZM683.577 674.465H686.448C687.726 674.465 688.417 675.074 688.417 676.176C688.417 677.359 687.679 677.934 686.144 677.934H683.577V674.465ZM683.577 679.574H686.308C688.089 679.574 688.944 680.184 688.944 681.449C688.944 682.68 688.147 683.348 686.671 683.348H683.577V679.574ZM698.202 674.371C700.124 674.371 701.401 675.824 701.448 677.863H694.827C694.956 675.836 696.292 674.371 698.202 674.371ZM701.401 681.508C701.062 682.656 699.925 683.441 698.378 683.441C696.187 683.441 694.815 681.906 694.815 679.574V679.457H703.558V678.684C703.558 674.992 701.53 672.602 698.237 672.602C694.874 672.602 692.718 675.168 692.718 678.953C692.718 682.785 694.839 685.211 698.331 685.211C700.991 685.211 703.054 683.641 703.405 681.508H701.401ZM714.292 672.812H704.401V674.488H708.327V685H710.366V674.488H714.292V672.812ZM726.351 685C728.94 685 730.534 683.652 730.534 681.496C730.534 680.008 729.526 678.918 727.991 678.707V678.613C729.116 678.379 729.995 677.219 729.995 675.965C729.995 674.008 728.601 672.812 726.315 672.812H721.101V685H726.351ZM723.14 674.465H726.011C727.288 674.465 727.979 675.074 727.979 676.176C727.979 677.359 727.241 677.934 725.706 677.934H723.14V674.465ZM723.14 679.574H725.87C727.651 679.574 728.507 680.184 728.507 681.449C728.507 682.68 727.71 683.348 726.233 683.348H723.14V679.574ZM737.929 685.211C741.292 685.211 743.565 682.785 743.565 678.906C743.565 675.016 741.292 672.602 737.929 672.602C734.554 672.602 732.28 675.016 732.28 678.906C732.28 682.785 734.554 685.211 737.929 685.211ZM737.929 683.418C735.772 683.418 734.354 681.777 734.354 678.906C734.354 676.035 735.772 674.395 737.929 674.395C740.085 674.395 741.491 676.035 741.491 678.906C741.491 681.777 740.085 683.418 737.929 683.418ZM748.663 679.621L749.038 674.488H753.14V685H755.179V672.812H747.198L746.729 679.574C746.577 681.812 746.12 683.23 744.913 683.23C744.62 683.23 744.397 683.172 744.292 683.137V684.977C744.433 685.035 744.667 685.105 745.019 685.105C747.585 685.105 748.417 682.984 748.663 679.621ZM763.124 685.211C766.487 685.211 768.761 682.785 768.761 678.906C768.761 675.016 766.487 672.602 763.124 672.602C759.749 672.602 757.476 675.016 757.476 678.906C757.476 682.785 759.749 685.211 763.124 685.211ZM763.124 683.418C760.968 683.418 759.55 681.777 759.55 678.906C759.55 676.035 760.968 674.395 763.124 674.395C765.28 674.395 766.687 676.035 766.687 678.906C766.687 681.777 765.28 683.418 763.124 683.418ZM781.183 676.809C780.925 674.617 779.108 672.602 776.062 672.602C772.698 672.602 770.46 675.062 770.46 678.906C770.46 682.832 772.71 685.211 776.085 685.211C778.851 685.211 780.89 683.5 781.206 681.074H779.202C778.851 682.539 777.761 683.418 776.097 683.418C773.987 683.418 772.534 681.742 772.534 678.906C772.534 676.141 773.964 674.395 776.073 674.395C777.866 674.395 778.897 675.484 779.19 676.809H781.183Z" fill="black"/>
    <rect x="489.452" y="29" width="373.548" height="727" rx="31" stroke="#D3DBE6" stroke-width="2" stroke-dasharray="8 8"/>
</svg>
