<svg width="748" height="716" viewBox="0 0 748 716" fill="none" xmlns="http://www.w3.org/2000/svg">
    <rect x="58" y="29" width="321" height="654" rx="31" fill="#F4F7FA"/>
    <path d="M107.344 81.8164V110H113.242V101.113H118.516C124.453 101.113 128.574 97.2461 128.574 91.4648C128.574 85.6641 124.59 81.8164 118.809 81.8164H107.344ZM113.242 86.4844H117.246C120.625 86.4844 122.578 88.2812 122.578 91.4844C122.578 94.707 120.605 96.5039 117.227 96.5039H113.242V86.4844ZM140.488 110.449C146.816 110.449 150.859 106.406 150.859 99.5117C150.859 92.7148 146.758 88.6133 140.488 88.6133C134.219 88.6133 130.117 92.7344 130.117 99.5117C130.117 106.387 134.16 110.449 140.488 110.449ZM140.488 106.094C137.676 106.094 135.898 103.73 135.898 99.5312C135.898 95.3711 137.715 92.9688 140.488 92.9688C143.262 92.9688 145.059 95.3711 145.059 99.5312C145.059 103.73 143.281 106.094 140.488 106.094ZM153.457 95.2148C153.457 98.3594 155.508 100.391 159.551 101.25L163.125 101.992C165.176 102.461 165.898 103.086 165.898 104.199C165.898 105.566 164.57 106.445 162.422 106.445C160.156 106.445 158.848 105.469 158.496 103.633H152.93C153.301 107.754 156.641 110.449 162.422 110.449C167.812 110.449 171.582 107.734 171.582 103.613C171.582 100.547 169.785 98.8281 165.41 97.9102L161.836 97.1484C159.727 96.6992 158.945 95.9766 158.945 94.9023C158.945 93.5156 160.254 92.6172 162.227 92.6172C164.336 92.6172 165.605 93.7695 165.781 95.4688H171.035C170.918 91.3672 167.598 88.6133 162.227 88.6133C156.895 88.6133 153.457 91.2305 153.457 95.2148ZM175.918 84.2383V89.0625H172.969V93.3594H175.918V104.355C175.918 108.438 177.832 110.078 182.754 110.078C183.906 110.078 184.883 109.98 185.469 109.844V105.645C185.117 105.703 184.59 105.742 184.082 105.742C182.402 105.742 181.621 104.98 181.621 103.379V93.3594H185.488V89.0625H181.621V84.2383H175.918Z" fill="black"/>
    <path d="M106.746 164.598L112.734 144.09H110.988L105 164.598H106.746ZM114.48 164.598L120.469 144.09H118.723L112.734 164.598H114.48ZM136.84 152.809C136.582 150.617 134.766 148.602 131.719 148.602C128.355 148.602 126.117 151.062 126.117 154.906C126.117 158.832 128.367 161.211 131.742 161.211C134.508 161.211 136.547 159.5 136.863 157.074H134.859C134.508 158.539 133.418 159.418 131.754 159.418C129.645 159.418 128.191 157.742 128.191 154.906C128.191 152.141 129.621 150.395 131.73 150.395C133.523 150.395 134.555 151.484 134.848 152.809H136.84ZM143.789 161.211C147.152 161.211 149.426 158.785 149.426 154.906C149.426 151.016 147.152 148.602 143.789 148.602C140.414 148.602 138.141 151.016 138.141 154.906C138.141 158.785 140.414 161.211 143.789 161.211ZM143.789 159.418C141.633 159.418 140.215 157.777 140.215 154.906C140.215 152.035 141.633 150.395 143.789 150.395C145.945 150.395 147.352 152.035 147.352 154.906C147.352 157.777 145.945 159.418 143.789 159.418ZM151.488 161H153.527V153.359C153.527 151.672 154.699 150.406 156.316 150.406C157.828 150.406 158.812 151.367 158.812 152.832V161H160.852V153.254C160.852 151.602 161.988 150.406 163.605 150.406C165.211 150.406 166.137 151.391 166.137 153.055V161H168.176V152.586C168.176 150.172 166.617 148.602 164.203 148.602C162.492 148.602 161.062 149.469 160.383 150.922H160.336C159.809 149.445 158.578 148.602 156.914 148.602C155.273 148.602 154.031 149.469 153.457 150.758H153.41V148.812H151.488V161ZM176.695 148.602C174.926 148.602 173.508 149.504 172.758 150.875H172.711V148.812H170.777V165.066H172.816V159.02H172.863C173.59 160.355 174.996 161.211 176.742 161.211C179.812 161.211 181.91 158.727 181.91 154.906C181.91 151.086 179.801 148.602 176.695 148.602ZM176.297 159.418C174.211 159.418 172.805 157.625 172.805 154.906C172.805 152.199 174.211 150.395 176.297 150.395C178.465 150.395 179.824 152.152 179.824 154.906C179.824 157.672 178.465 159.418 176.297 159.418ZM189.023 161.211C192.387 161.211 194.66 158.785 194.66 154.906C194.66 151.016 192.387 148.602 189.023 148.602C185.648 148.602 183.375 151.016 183.375 154.906C183.375 158.785 185.648 161.211 189.023 161.211ZM189.023 159.418C186.867 159.418 185.449 157.777 185.449 154.906C185.449 152.035 186.867 150.395 189.023 150.395C191.18 150.395 192.586 152.035 192.586 154.906C192.586 157.777 191.18 159.418 189.023 159.418ZM196.723 161H198.762V153.828C198.762 151.766 200.016 150.406 201.938 150.406C203.812 150.406 204.738 151.484 204.738 153.453V161H206.777V153.09C206.777 150.324 205.23 148.602 202.559 148.602C200.672 148.602 199.371 149.445 198.691 150.758H198.645V148.812H196.723V161ZM214.266 150.371C216.188 150.371 217.465 151.824 217.512 153.863H210.891C211.02 151.836 212.355 150.371 214.266 150.371ZM217.465 157.508C217.125 158.656 215.988 159.441 214.441 159.441C212.25 159.441 210.879 157.906 210.879 155.574V155.457H219.621V154.684C219.621 150.992 217.594 148.602 214.301 148.602C210.938 148.602 208.781 151.168 208.781 154.953C208.781 158.785 210.902 161.211 214.395 161.211C217.055 161.211 219.117 159.641 219.469 157.508H217.465ZM221.684 161H223.723V153.828C223.723 151.766 224.977 150.406 226.898 150.406C228.773 150.406 229.699 151.484 229.699 153.453V161H231.738V153.09C231.738 150.324 230.191 148.602 227.52 148.602C225.633 148.602 224.332 149.445 223.652 150.758H223.605V148.812H221.684V161ZM234.996 145.871V148.812H233.18V150.488H234.996V157.836C234.996 160.18 235.863 161.094 238.102 161.094C238.582 161.094 239.145 161.059 239.391 161V159.289C239.25 159.312 238.781 159.348 238.547 159.348C237.504 159.348 237.035 158.844 237.035 157.73V150.488H239.402V148.812H237.035V145.871H234.996ZM241.371 152.176C241.371 153.934 242.484 155 244.781 155.551L246.715 156.02C248.109 156.359 248.59 156.863 248.59 157.742C248.59 158.844 247.57 159.547 245.918 159.547C244.266 159.547 243.328 158.879 243.082 157.484H241.043C241.277 159.77 243.059 161.211 245.918 161.211C248.637 161.211 250.641 159.711 250.641 157.59C250.641 155.844 249.75 154.883 247.289 154.285L245.355 153.816C243.996 153.488 243.375 152.914 243.375 152.07C243.375 151.004 244.359 150.266 245.848 150.266C247.348 150.266 248.285 151.051 248.438 152.328H250.383C250.301 150.172 248.52 148.602 245.848 148.602C243.211 148.602 241.371 150.09 241.371 152.176Z" fill="black"/>
    <rect x="105" y="188" width="88" height="48" rx="12" fill="#F0C2FB"/>
    <path d="M128.75 204.09H126.641V215.07C126.641 218.68 129.16 221.281 133.355 221.281C137.551 221.281 140.07 218.68 140.07 215.07V204.09H137.961V214.93C137.961 217.484 136.285 219.336 133.355 219.336C130.426 219.336 128.75 217.484 128.75 214.93V204.09ZM142.824 212.176C142.824 213.934 143.938 215 146.234 215.551L148.168 216.02C149.562 216.359 150.043 216.863 150.043 217.742C150.043 218.844 149.023 219.547 147.371 219.547C145.719 219.547 144.781 218.879 144.535 217.484H142.496C142.73 219.77 144.512 221.211 147.371 221.211C150.09 221.211 152.094 219.711 152.094 217.59C152.094 215.844 151.203 214.883 148.742 214.285L146.809 213.816C145.449 213.488 144.828 212.914 144.828 212.07C144.828 211.004 145.812 210.266 147.301 210.266C148.801 210.266 149.738 211.051 149.891 212.328H151.836C151.754 210.172 149.973 208.602 147.301 208.602C144.664 208.602 142.824 210.09 142.824 212.176ZM162.301 217.508C161.961 218.656 160.824 219.441 159.277 219.441C157.086 219.441 155.715 217.906 155.715 215.574V215.457H164.457V214.684C164.457 210.992 162.43 208.602 159.137 208.602C155.773 208.602 153.617 211.168 153.617 214.953C153.617 218.785 155.738 221.211 159.23 221.211C161.891 221.211 163.953 219.641 164.305 217.508H162.301ZM159.102 210.371C161.023 210.371 162.301 211.824 162.348 213.863H155.727C155.855 211.836 157.191 210.371 159.102 210.371ZM166.52 221H168.559V213.406C168.559 211.684 169.59 210.547 171.172 210.547C171.664 210.547 172.098 210.605 172.262 210.664V208.684C172.098 208.66 171.793 208.602 171.441 208.602C170.012 208.602 168.887 209.457 168.488 210.805H168.441V208.812H166.52V221Z" fill="black"/>
    <rect x="105" y="244" width="90" height="48" rx="12" fill="#F0C2FB"/>
    <path d="M133.027 277V261.988H138.359V260.09H125.586V261.988H130.918V277H133.027ZM140.809 262.645C141.523 262.645 142.086 262.07 142.086 261.367C142.086 260.652 141.523 260.09 140.809 260.09C140.105 260.09 139.531 260.652 139.531 261.367C139.531 262.07 140.105 262.645 140.809 262.645ZM139.789 277H141.828V264.812H139.789V277ZM144.582 277H146.621V269.359C146.621 267.672 147.793 266.406 149.41 266.406C150.922 266.406 151.906 267.367 151.906 268.832V277H153.945V269.254C153.945 267.602 155.082 266.406 156.699 266.406C158.305 266.406 159.23 267.391 159.23 269.055V277H161.27V268.586C161.27 266.172 159.711 264.602 157.297 264.602C155.586 264.602 154.156 265.469 153.477 266.922H153.43C152.902 265.445 151.672 264.602 150.008 264.602C148.367 264.602 147.125 265.469 146.551 266.758H146.504V264.812H144.582V277ZM171.957 273.508C171.617 274.656 170.48 275.441 168.934 275.441C166.742 275.441 165.371 273.906 165.371 271.574V271.457H174.113V270.684C174.113 266.992 172.086 264.602 168.793 264.602C165.43 264.602 163.273 267.168 163.273 270.953C163.273 274.785 165.395 277.211 168.887 277.211C171.547 277.211 173.609 275.641 173.961 273.508H171.957ZM168.758 266.371C170.68 266.371 171.957 267.824 172.004 269.863H165.383C165.512 267.836 166.848 266.371 168.758 266.371Z" fill="black"/>
    <rect x="105" y="300" width="103" height="48" rx="12" fill="#F0C2FB"/>
    <path d="M128.75 333V316.09H126.641V333H128.75ZM131.715 333H133.754V325.359C133.754 323.672 134.926 322.406 136.543 322.406C138.055 322.406 139.039 323.367 139.039 324.832V333H141.078V325.254C141.078 323.602 142.215 322.406 143.832 322.406C145.438 322.406 146.363 323.391 146.363 325.055V333H148.402V324.586C148.402 322.172 146.844 320.602 144.43 320.602C142.719 320.602 141.289 321.469 140.609 322.922H140.562C140.035 321.445 138.805 320.602 137.141 320.602C135.5 320.602 134.258 321.469 133.684 322.758H133.637V320.812H131.715V333ZM154.566 333.211C156.207 333.211 157.754 332.297 158.48 330.902H158.527V333H160.461V324.574C160.461 322.148 158.656 320.602 155.797 320.602C152.914 320.602 151.109 322.219 150.969 324.328H152.938C153.195 323.133 154.18 322.395 155.75 322.395C157.438 322.395 158.422 323.285 158.422 324.773V325.793L154.93 325.992C152.117 326.156 150.512 327.469 150.512 329.555C150.512 331.746 152.141 333.211 154.566 333.211ZM155.023 331.477C153.559 331.477 152.586 330.715 152.586 329.555C152.586 328.406 153.523 327.68 155.164 327.574L158.422 327.375V328.371C158.422 330.129 156.945 331.477 155.023 331.477ZM168.078 337.594C171.441 337.594 173.586 335.66 173.586 332.754V320.812H171.641V322.863H171.605C170.797 321.445 169.367 320.602 167.645 320.602C164.492 320.602 162.453 323.039 162.453 326.859C162.453 330.645 164.492 333.094 167.598 333.094C169.309 333.094 170.75 332.227 171.5 330.902H171.547V332.824C171.547 334.641 170.27 335.859 168.16 335.859C166.637 335.859 165.43 335.121 165.031 334.008H162.934C163.273 336.082 165.395 337.594 168.078 337.594ZM168.008 331.301C165.91 331.301 164.539 329.59 164.539 326.859C164.539 324.129 165.91 322.395 168.008 322.395C170.129 322.395 171.547 324.176 171.547 326.859C171.547 329.543 170.129 331.301 168.008 331.301ZM184.332 329.508C183.992 330.656 182.855 331.441 181.309 331.441C179.117 331.441 177.746 329.906 177.746 327.574V327.457H186.488V326.684C186.488 322.992 184.461 320.602 181.168 320.602C177.805 320.602 175.648 323.168 175.648 326.953C175.648 330.785 177.77 333.211 181.262 333.211C183.922 333.211 185.984 331.641 186.336 329.508H184.332ZM181.133 322.371C183.055 322.371 184.332 323.824 184.379 325.863H177.758C177.887 323.836 179.223 322.371 181.133 322.371Z" fill="black"/>
    <rect x="105" y="356" width="82" height="48" rx="12" fill="#F0C2FB"/>
    <path d="M133.027 389V373.988H138.359V372.09H125.586V373.988H130.918V389H133.027ZM145.191 385.508C144.852 386.656 143.715 387.441 142.168 387.441C139.977 387.441 138.605 385.906 138.605 383.574V383.457H147.348V382.684C147.348 378.992 145.32 376.602 142.027 376.602C138.664 376.602 136.508 379.168 136.508 382.953C136.508 386.785 138.629 389.211 142.121 389.211C144.781 389.211 146.844 387.641 147.195 385.508H145.191ZM141.992 378.371C143.914 378.371 145.191 379.824 145.238 381.863H138.617C138.746 379.836 140.082 378.371 141.992 378.371ZM153.488 384.359L156.406 389H158.668L154.613 382.824L158.727 376.812H156.453L153.559 381.383H153.512L150.582 376.812H148.309L152.387 382.906L148.238 389H150.5L153.441 384.359H153.488ZM161.105 373.871V376.812H159.289V378.488H161.105V385.836C161.105 388.18 161.973 389.094 164.211 389.094C164.691 389.094 165.254 389.059 165.5 389V387.289C165.359 387.312 164.891 387.348 164.656 387.348C163.613 387.348 163.145 386.844 163.145 385.73V378.488H165.512V376.812H163.145V373.871H161.105Z" fill="black"/>
    <rect x="105" y="412" width="141" height="48" rx="12" fill="#F0C2FB"/>
    <path d="M133.602 445.281C137.34 445.281 139.848 443.418 140.621 440.078H138.488C137.879 442.141 136.098 443.336 133.613 443.336C130.273 443.336 128.152 440.688 128.152 436.539C128.152 432.426 130.297 429.754 133.602 429.754C136.016 429.754 137.949 431.207 138.488 433.422H140.621C140.082 430.047 137.281 427.809 133.602 427.809C128.973 427.809 125.984 431.23 125.984 436.539C125.984 441.895 128.938 445.281 133.602 445.281ZM147.852 445.211C151.215 445.211 153.488 442.785 153.488 438.906C153.488 435.016 151.215 432.602 147.852 432.602C144.477 432.602 142.203 435.016 142.203 438.906C142.203 442.785 144.477 445.211 147.852 445.211ZM147.852 443.418C145.695 443.418 144.277 441.777 144.277 438.906C144.277 436.035 145.695 434.395 147.852 434.395C150.008 434.395 151.414 436.035 151.414 438.906C151.414 441.777 150.008 443.418 147.852 443.418ZM155.551 445H157.59V437.359C157.59 435.672 158.762 434.406 160.379 434.406C161.891 434.406 162.875 435.367 162.875 436.832V445H164.914V437.254C164.914 435.602 166.051 434.406 167.668 434.406C169.273 434.406 170.199 435.391 170.199 437.055V445H172.238V436.586C172.238 434.172 170.68 432.602 168.266 432.602C166.555 432.602 165.125 433.469 164.445 434.922H164.398C163.871 433.445 162.641 432.602 160.977 432.602C159.336 432.602 158.094 433.469 157.52 434.758H157.473V432.812H155.551V445ZM174.84 445H176.879V437.359C176.879 435.672 178.051 434.406 179.668 434.406C181.18 434.406 182.164 435.367 182.164 436.832V445H184.203V437.254C184.203 435.602 185.34 434.406 186.957 434.406C188.562 434.406 189.488 435.391 189.488 437.055V445H191.527V436.586C191.527 434.172 189.969 432.602 187.555 432.602C185.844 432.602 184.414 433.469 183.734 434.922H183.688C183.16 433.445 181.93 432.602 180.266 432.602C178.625 432.602 177.383 433.469 176.809 434.758H176.762V432.812H174.84V445ZM202.215 441.508C201.875 442.656 200.738 443.441 199.191 443.441C197 443.441 195.629 441.906 195.629 439.574V439.457H204.371V438.684C204.371 434.992 202.344 432.602 199.051 432.602C195.688 432.602 193.531 435.168 193.531 438.953C193.531 442.785 195.652 445.211 199.145 445.211C201.805 445.211 203.867 443.641 204.219 441.508H202.215ZM199.016 434.371C200.938 434.371 202.215 435.824 202.262 437.863H195.641C195.77 435.836 197.105 434.371 199.016 434.371ZM206.434 445H208.473V437.828C208.473 435.766 209.727 434.406 211.648 434.406C213.523 434.406 214.449 435.484 214.449 437.453V445H216.488V437.09C216.488 434.324 214.941 432.602 212.27 432.602C210.383 432.602 209.082 433.445 208.402 434.758H208.355V432.812H206.434V445ZM219.746 429.871V432.812H217.93V434.488H219.746V441.836C219.746 444.18 220.613 445.094 222.852 445.094C223.332 445.094 223.895 445.059 224.141 445V443.289C224 443.312 223.531 443.348 223.297 443.348C222.254 443.348 221.785 442.844 221.785 441.73V434.488H224.152V432.812H221.785V429.871H219.746Z" fill="black"/>
    <rect x="105" y="468" width="141" height="48" rx="12" fill="#F0C2FB"/>
    <path d="M133.602 501.281C137.34 501.281 139.848 499.418 140.621 496.078H138.488C137.879 498.141 136.098 499.336 133.613 499.336C130.273 499.336 128.152 496.688 128.152 492.539C128.152 488.426 130.297 485.754 133.602 485.754C136.016 485.754 137.949 487.207 138.488 489.422H140.621C140.082 486.047 137.281 483.809 133.602 483.809C128.973 483.809 125.984 487.23 125.984 492.539C125.984 497.895 128.938 501.281 133.602 501.281ZM147.852 501.211C151.215 501.211 153.488 498.785 153.488 494.906C153.488 491.016 151.215 488.602 147.852 488.602C144.477 488.602 142.203 491.016 142.203 494.906C142.203 498.785 144.477 501.211 147.852 501.211ZM147.852 499.418C145.695 499.418 144.277 497.777 144.277 494.906C144.277 492.035 145.695 490.395 147.852 490.395C150.008 490.395 151.414 492.035 151.414 494.906C151.414 497.777 150.008 499.418 147.852 499.418ZM155.551 501H157.59V493.359C157.59 491.672 158.762 490.406 160.379 490.406C161.891 490.406 162.875 491.367 162.875 492.832V501H164.914V493.254C164.914 491.602 166.051 490.406 167.668 490.406C169.273 490.406 170.199 491.391 170.199 493.055V501H172.238V492.586C172.238 490.172 170.68 488.602 168.266 488.602C166.555 488.602 165.125 489.469 164.445 490.922H164.398C163.871 489.445 162.641 488.602 160.977 488.602C159.336 488.602 158.094 489.469 157.52 490.758H157.473V488.812H155.551V501ZM174.84 501H176.879V493.359C176.879 491.672 178.051 490.406 179.668 490.406C181.18 490.406 182.164 491.367 182.164 492.832V501H184.203V493.254C184.203 491.602 185.34 490.406 186.957 490.406C188.562 490.406 189.488 491.391 189.488 493.055V501H191.527V492.586C191.527 490.172 189.969 488.602 187.555 488.602C185.844 488.602 184.414 489.469 183.734 490.922H183.688C183.16 489.445 181.93 488.602 180.266 488.602C178.625 488.602 177.383 489.469 176.809 490.758H176.762V488.812H174.84V501ZM202.215 497.508C201.875 498.656 200.738 499.441 199.191 499.441C197 499.441 195.629 497.906 195.629 495.574V495.457H204.371V494.684C204.371 490.992 202.344 488.602 199.051 488.602C195.688 488.602 193.531 491.168 193.531 494.953C193.531 498.785 195.652 501.211 199.145 501.211C201.805 501.211 203.867 499.641 204.219 497.508H202.215ZM199.016 490.371C200.938 490.371 202.215 491.824 202.262 493.863H195.641C195.77 491.836 197.105 490.371 199.016 490.371ZM206.434 501H208.473V493.828C208.473 491.766 209.727 490.406 211.648 490.406C213.523 490.406 214.449 491.484 214.449 493.453V501H216.488V493.09C216.488 490.324 214.941 488.602 212.27 488.602C210.383 488.602 209.082 489.445 208.402 490.758H208.355V488.812H206.434V501ZM219.746 485.871V488.812H217.93V490.488H219.746V497.836C219.746 500.18 220.613 501.094 222.852 501.094C223.332 501.094 223.895 501.059 224.141 501V499.289C224 499.312 223.531 499.348 223.297 499.348C222.254 499.348 221.785 498.844 221.785 497.73V490.488H224.152V488.812H221.785V485.871H219.746Z" fill="black"/>
    <path d="M106.746 564.598L112.734 544.09H110.988L105 564.598H106.746ZM114.48 564.598L120.469 544.09H118.723L112.734 564.598H114.48ZM127.371 561H129.41V550.488H131.895V548.812H129.398V547.465C129.398 546.258 129.926 545.672 131.027 545.672C131.367 545.672 131.707 545.707 131.953 545.742V544.09C131.66 544.043 131.168 543.996 130.711 543.996C128.461 543.996 127.371 545.109 127.371 547.453V548.812H125.672V550.488H127.371V561ZM144.012 548.812H141.973V555.973C141.973 558.047 140.777 559.406 138.797 559.406C136.91 559.406 135.984 558.34 135.984 556.359V548.812H133.945V556.723C133.945 559.488 135.504 561.211 138.164 561.211C140.039 561.211 141.305 560.426 142.031 559.02H142.078V561H144.012V548.812ZM146.66 561H148.699V553.828C148.699 551.766 149.953 550.406 151.875 550.406C153.75 550.406 154.676 551.484 154.676 553.453V561H156.715V553.09C156.715 550.324 155.168 548.602 152.496 548.602C150.609 548.602 149.309 549.445 148.629 550.758H148.582V548.812H146.66V561ZM169.441 552.809C169.184 550.617 167.367 548.602 164.32 548.602C160.957 548.602 158.719 551.062 158.719 554.906C158.719 558.832 160.969 561.211 164.344 561.211C167.109 561.211 169.148 559.5 169.465 557.074H167.461C167.109 558.539 166.02 559.418 164.355 559.418C162.246 559.418 160.793 557.742 160.793 554.906C160.793 552.141 162.223 550.395 164.332 550.395C166.125 550.395 167.156 551.484 167.449 552.809H169.441ZM171.996 545.871V548.812H170.18V550.488H171.996V557.836C171.996 560.18 172.863 561.094 175.102 561.094C175.582 561.094 176.145 561.059 176.391 561V559.289C176.25 559.312 175.781 559.348 175.547 559.348C174.504 559.348 174.035 558.844 174.035 557.73V550.488H176.402V548.812H174.035V545.871H171.996ZM178.688 561H180.727V548.812H178.688V561ZM179.707 546.645C180.422 546.645 180.984 546.07 180.984 545.367C180.984 544.652 180.422 544.09 179.707 544.09C179.004 544.09 178.43 544.652 178.43 545.367C178.43 546.07 179.004 546.645 179.707 546.645ZM188.531 561.211C191.895 561.211 194.168 558.785 194.168 554.906C194.168 551.016 191.895 548.602 188.531 548.602C185.156 548.602 182.883 551.016 182.883 554.906C182.883 558.785 185.156 561.211 188.531 561.211ZM188.531 559.418C186.375 559.418 184.957 557.777 184.957 554.906C184.957 552.035 186.375 550.395 188.531 550.395C190.688 550.395 192.094 552.035 192.094 554.906C192.094 557.777 190.688 559.418 188.531 559.418ZM196.23 561H198.27V553.828C198.27 551.766 199.523 550.406 201.445 550.406C203.32 550.406 204.246 551.484 204.246 553.453V561H206.285V553.09C206.285 550.324 204.738 548.602 202.066 548.602C200.18 548.602 198.879 549.445 198.199 550.758H198.152V548.812H196.23V561Z" fill="black"/>
    <rect x="105" y="588" width="227" height="48" rx="12" fill="#FEE872"/>
    <path d="M126.641 604.09V621H132.324C137.352 621 140.305 617.871 140.305 612.539C140.305 607.219 137.34 604.09 132.324 604.09H126.641ZM128.75 605.988H132.184C136.027 605.988 138.148 608.332 138.148 612.562C138.148 616.758 136.016 619.102 132.184 619.102H128.75V605.988ZM143.738 606.645C144.453 606.645 145.016 606.07 145.016 605.367C145.016 604.652 144.453 604.09 143.738 604.09C143.035 604.09 142.461 604.652 142.461 605.367C142.461 606.07 143.035 606.645 143.738 606.645ZM142.719 621H144.758V608.812H142.719V621ZM147.301 612.176C147.301 613.934 148.414 615 150.711 615.551L152.645 616.02C154.039 616.359 154.52 616.863 154.52 617.742C154.52 618.844 153.5 619.547 151.848 619.547C150.195 619.547 149.258 618.879 149.012 617.484H146.973C147.207 619.77 148.988 621.211 151.848 621.211C154.566 621.211 156.57 619.711 156.57 617.59C156.57 615.844 155.68 614.883 153.219 614.285L151.285 613.816C149.926 613.488 149.305 612.914 149.305 612.07C149.305 611.004 150.289 610.266 151.777 610.266C153.277 610.266 154.215 611.051 154.367 612.328H156.312C156.23 610.172 154.449 608.602 151.777 608.602C149.141 608.602 147.301 610.09 147.301 612.176ZM162.254 621.211C163.895 621.211 165.441 620.297 166.168 618.902H166.215V621H168.148V612.574C168.148 610.148 166.344 608.602 163.484 608.602C160.602 608.602 158.797 610.219 158.656 612.328H160.625C160.883 611.133 161.867 610.395 163.438 610.395C165.125 610.395 166.109 611.285 166.109 612.773V613.793L162.617 613.992C159.805 614.156 158.199 615.469 158.199 617.555C158.199 619.746 159.828 621.211 162.254 621.211ZM162.711 619.477C161.246 619.477 160.273 618.715 160.273 617.555C160.273 616.406 161.211 615.68 162.852 615.574L166.109 615.375V616.371C166.109 618.129 164.633 619.477 162.711 619.477ZM176.797 621.211C179.914 621.211 181.977 618.738 181.977 614.906C181.977 611.086 179.902 608.602 176.832 608.602C175.109 608.602 173.691 609.457 172.93 610.852H172.883V604.09H170.844V621H172.789V618.938H172.836C173.621 620.344 175.016 621.211 176.797 621.211ZM176.398 610.395C178.555 610.395 179.891 612.141 179.891 614.906C179.891 617.695 178.555 619.418 176.398 619.418C174.336 619.418 172.871 617.625 172.871 614.906C172.871 612.199 174.336 610.395 176.398 610.395ZM184.156 621H186.195V604.09H184.156V621ZM197.035 617.508C196.695 618.656 195.559 619.441 194.012 619.441C191.82 619.441 190.449 617.906 190.449 615.574V615.457H199.191V614.684C199.191 610.992 197.164 608.602 193.871 608.602C190.508 608.602 188.352 611.168 188.352 614.953C188.352 618.785 190.473 621.211 193.965 621.211C196.625 621.211 198.688 619.641 199.039 617.508H197.035ZM193.836 610.371C195.758 610.371 197.035 611.824 197.082 613.863H190.461C190.59 611.836 191.926 610.371 193.836 610.371ZM216.301 612.809C216.043 610.617 214.227 608.602 211.18 608.602C207.816 608.602 205.578 611.062 205.578 614.906C205.578 618.832 207.828 621.211 211.203 621.211C213.969 621.211 216.008 619.5 216.324 617.074H214.32C213.969 618.539 212.879 619.418 211.215 619.418C209.105 619.418 207.652 617.742 207.652 614.906C207.652 612.141 209.082 610.395 211.191 610.395C212.984 610.395 214.016 611.484 214.309 612.809H216.301ZM223.25 621.211C226.613 621.211 228.887 618.785 228.887 614.906C228.887 611.016 226.613 608.602 223.25 608.602C219.875 608.602 217.602 611.016 217.602 614.906C217.602 618.785 219.875 621.211 223.25 621.211ZM223.25 619.418C221.094 619.418 219.676 617.777 219.676 614.906C219.676 612.035 221.094 610.395 223.25 610.395C225.406 610.395 226.812 612.035 226.812 614.906C226.812 617.777 225.406 619.418 223.25 619.418ZM230.949 621H232.988V613.359C232.988 611.672 234.16 610.406 235.777 610.406C237.289 610.406 238.273 611.367 238.273 612.832V621H240.312V613.254C240.312 611.602 241.449 610.406 243.066 610.406C244.672 610.406 245.598 611.391 245.598 613.055V621H247.637V612.586C247.637 610.172 246.078 608.602 243.664 608.602C241.953 608.602 240.523 609.469 239.844 610.922H239.797C239.27 609.445 238.039 608.602 236.375 608.602C234.734 608.602 233.492 609.469 232.918 610.758H232.871V608.812H230.949V621ZM250.238 621H252.277V613.359C252.277 611.672 253.449 610.406 255.066 610.406C256.578 610.406 257.562 611.367 257.562 612.832V621H259.602V613.254C259.602 611.602 260.738 610.406 262.355 610.406C263.961 610.406 264.887 611.391 264.887 613.055V621H266.926V612.586C266.926 610.172 265.367 608.602 262.953 608.602C261.242 608.602 259.812 609.469 259.133 610.922H259.086C258.559 609.445 257.328 608.602 255.664 608.602C254.023 608.602 252.781 609.469 252.207 610.758H252.16V608.812H250.238V621ZM277.613 617.508C277.273 618.656 276.137 619.441 274.59 619.441C272.398 619.441 271.027 617.906 271.027 615.574V615.457H279.77V614.684C279.77 610.992 277.742 608.602 274.449 608.602C271.086 608.602 268.93 611.168 268.93 614.953C268.93 618.785 271.051 621.211 274.543 621.211C277.203 621.211 279.266 619.641 279.617 617.508H277.613ZM274.414 610.371C276.336 610.371 277.613 611.824 277.66 613.863H271.039C271.168 611.836 272.504 610.371 274.414 610.371ZM281.832 621H283.871V613.828C283.871 611.766 285.125 610.406 287.047 610.406C288.922 610.406 289.848 611.484 289.848 613.453V621H291.887V613.09C291.887 610.324 290.34 608.602 287.668 608.602C285.781 608.602 284.48 609.445 283.801 610.758H283.754V608.812H281.832V621ZM295.145 605.871V608.812H293.328V610.488H295.145V617.836C295.145 620.18 296.012 621.094 298.25 621.094C298.73 621.094 299.293 621.059 299.539 621V619.289C299.398 619.312 298.93 619.348 298.695 619.348C297.652 619.348 297.184 618.844 297.184 617.73V610.488H299.551V608.812H297.184V605.871H295.145ZM301.52 612.176C301.52 613.934 302.633 615 304.93 615.551L306.863 616.02C308.258 616.359 308.738 616.863 308.738 617.742C308.738 618.844 307.719 619.547 306.066 619.547C304.414 619.547 303.477 618.879 303.23 617.484H301.191C301.426 619.77 303.207 621.211 306.066 621.211C308.785 621.211 310.789 619.711 310.789 617.59C310.789 615.844 309.898 614.883 307.438 614.285L305.504 613.816C304.145 613.488 303.523 612.914 303.523 612.07C303.523 611.004 304.508 610.266 305.996 610.266C307.496 610.266 308.434 611.051 308.586 612.328H310.531C310.449 610.172 308.668 608.602 305.996 608.602C303.359 608.602 301.52 610.09 301.52 612.176Z" fill="black"/>
    <rect x="58" y="29" width="321" height="654" rx="31" stroke="#D3DBE6" stroke-width="2" stroke-dasharray="8 8"/>
    <rect x="431.5" y="29" width="290" height="662" rx="31" fill="#F4F7FA"/>
    <path d="M480.844 81.8164V110H486.742V101.113H492.016C497.953 101.113 502.074 97.2461 502.074 91.4648C502.074 85.6641 498.09 81.8164 492.309 81.8164H480.844ZM486.742 86.4844H490.746C494.125 86.4844 496.078 88.2812 496.078 91.4844C496.078 94.707 494.105 96.5039 490.727 96.5039H486.742V86.4844ZM513.773 92.832C516.312 92.832 518.051 94.668 518.168 97.3438H509.281C509.477 94.7266 511.273 92.832 513.773 92.832ZM518.246 103.594C517.719 105.195 516.117 106.23 514.027 106.23C511.117 106.23 509.223 104.18 509.223 101.191V100.84H523.656V99.1016C523.656 92.7344 519.809 88.6133 513.715 88.6133C507.523 88.6133 503.617 92.9492 503.617 99.6289C503.617 106.328 507.484 110.449 513.93 110.449C519.105 110.449 522.855 107.695 523.48 103.594H518.246ZM536.215 110.449C542.543 110.449 546.586 106.406 546.586 99.5117C546.586 92.7148 542.484 88.6133 536.215 88.6133C529.945 88.6133 525.844 92.7344 525.844 99.5117C525.844 106.387 529.887 110.449 536.215 110.449ZM536.215 106.094C533.402 106.094 531.625 103.73 531.625 99.5312C531.625 95.3711 533.441 92.9688 536.215 92.9688C538.988 92.9688 540.785 95.3711 540.785 99.5312C540.785 103.73 539.008 106.094 536.215 106.094ZM561.762 88.7305C558.734 88.7305 556.41 90.2539 555.277 92.7148H555.16V89.0625H549.535V116.836H555.238V106.484H555.355C556.469 108.848 558.812 110.332 561.859 110.332C567.094 110.332 570.336 106.27 570.336 99.5312C570.336 92.7734 567.074 88.7305 561.762 88.7305ZM559.848 105.742C557.055 105.742 555.219 103.32 555.219 99.5312C555.219 95.7812 557.055 93.3008 559.848 93.3008C562.699 93.3008 564.496 95.7422 564.496 99.5312C564.496 103.34 562.699 105.742 559.848 105.742ZM573.422 110H579.125V81.8164H573.422V110ZM592.367 92.832C594.906 92.832 596.645 94.668 596.762 97.3438H587.875C588.07 94.7266 589.867 92.832 592.367 92.832ZM596.84 103.594C596.312 105.195 594.711 106.23 592.621 106.23C589.711 106.23 587.816 104.18 587.816 101.191V100.84H602.25V99.1016C602.25 92.7344 598.402 88.6133 592.309 88.6133C586.117 88.6133 582.211 92.9492 582.211 99.6289C582.211 106.328 586.078 110.449 592.523 110.449C597.699 110.449 601.449 107.695 602.074 103.594H596.84Z" fill="black"/>
    <path d="M480.246 164.598L486.234 144.09H484.488L478.5 164.598H480.246ZM487.98 164.598L493.969 144.09H492.223L486.234 164.598H487.98ZM510.34 152.809C510.082 150.617 508.266 148.602 505.219 148.602C501.855 148.602 499.617 151.062 499.617 154.906C499.617 158.832 501.867 161.211 505.242 161.211C508.008 161.211 510.047 159.5 510.363 157.074H508.359C508.008 158.539 506.918 159.418 505.254 159.418C503.145 159.418 501.691 157.742 501.691 154.906C501.691 152.141 503.121 150.395 505.23 150.395C507.023 150.395 508.055 151.484 508.348 152.809H510.34ZM517.289 161.211C520.652 161.211 522.926 158.785 522.926 154.906C522.926 151.016 520.652 148.602 517.289 148.602C513.914 148.602 511.641 151.016 511.641 154.906C511.641 158.785 513.914 161.211 517.289 161.211ZM517.289 159.418C515.133 159.418 513.715 157.777 513.715 154.906C513.715 152.035 515.133 150.395 517.289 150.395C519.445 150.395 520.852 152.035 520.852 154.906C520.852 157.777 519.445 159.418 517.289 159.418ZM524.988 161H527.027V153.359C527.027 151.672 528.199 150.406 529.816 150.406C531.328 150.406 532.312 151.367 532.312 152.832V161H534.352V153.254C534.352 151.602 535.488 150.406 537.105 150.406C538.711 150.406 539.637 151.391 539.637 153.055V161H541.676V152.586C541.676 150.172 540.117 148.602 537.703 148.602C535.992 148.602 534.562 149.469 533.883 150.922H533.836C533.309 149.445 532.078 148.602 530.414 148.602C528.773 148.602 527.531 149.469 526.957 150.758H526.91V148.812H524.988V161ZM550.195 148.602C548.426 148.602 547.008 149.504 546.258 150.875H546.211V148.812H544.277V165.066H546.316V159.02H546.363C547.09 160.355 548.496 161.211 550.242 161.211C553.312 161.211 555.41 158.727 555.41 154.906C555.41 151.086 553.301 148.602 550.195 148.602ZM549.797 159.418C547.711 159.418 546.305 157.625 546.305 154.906C546.305 152.199 547.711 150.395 549.797 150.395C551.965 150.395 553.324 152.152 553.324 154.906C553.324 157.672 551.965 159.418 549.797 159.418ZM562.523 161.211C565.887 161.211 568.16 158.785 568.16 154.906C568.16 151.016 565.887 148.602 562.523 148.602C559.148 148.602 556.875 151.016 556.875 154.906C556.875 158.785 559.148 161.211 562.523 161.211ZM562.523 159.418C560.367 159.418 558.949 157.777 558.949 154.906C558.949 152.035 560.367 150.395 562.523 150.395C564.68 150.395 566.086 152.035 566.086 154.906C566.086 157.777 564.68 159.418 562.523 159.418ZM570.223 161H572.262V153.828C572.262 151.766 573.516 150.406 575.438 150.406C577.312 150.406 578.238 151.484 578.238 153.453V161H580.277V153.09C580.277 150.324 578.73 148.602 576.059 148.602C574.172 148.602 572.871 149.445 572.191 150.758H572.145V148.812H570.223V161ZM587.766 150.371C589.688 150.371 590.965 151.824 591.012 153.863H584.391C584.52 151.836 585.855 150.371 587.766 150.371ZM590.965 157.508C590.625 158.656 589.488 159.441 587.941 159.441C585.75 159.441 584.379 157.906 584.379 155.574V155.457H593.121V154.684C593.121 150.992 591.094 148.602 587.801 148.602C584.438 148.602 582.281 151.168 582.281 154.953C582.281 158.785 584.402 161.211 587.895 161.211C590.555 161.211 592.617 159.641 592.969 157.508H590.965ZM595.184 161H597.223V153.828C597.223 151.766 598.477 150.406 600.398 150.406C602.273 150.406 603.199 151.484 603.199 153.453V161H605.238V153.09C605.238 150.324 603.691 148.602 601.02 148.602C599.133 148.602 597.832 149.445 597.152 150.758H597.105V148.812H595.184V161ZM608.496 145.871V148.812H606.68V150.488H608.496V157.836C608.496 160.18 609.363 161.094 611.602 161.094C612.082 161.094 612.645 161.059 612.891 161V159.289C612.75 159.312 612.281 159.348 612.047 159.348C611.004 159.348 610.535 158.844 610.535 157.73V150.488H612.902V148.812H610.535V145.871H608.496ZM614.871 152.176C614.871 153.934 615.984 155 618.281 155.551L620.215 156.02C621.609 156.359 622.09 156.863 622.09 157.742C622.09 158.844 621.07 159.547 619.418 159.547C617.766 159.547 616.828 158.879 616.582 157.484H614.543C614.777 159.77 616.559 161.211 619.418 161.211C622.137 161.211 624.141 159.711 624.141 157.59C624.141 155.844 623.25 154.883 620.789 154.285L618.855 153.816C617.496 153.488 616.875 152.914 616.875 152.07C616.875 151.004 617.859 150.266 619.348 150.266C620.848 150.266 621.785 151.051 621.938 152.328H623.883C623.801 150.172 622.02 148.602 619.348 148.602C616.711 148.602 614.871 150.09 614.871 152.176Z" fill="black"/>
    <rect x="478.5" y="188" width="106" height="48" rx="12" fill="#F0C2FB"/>
    <path d="M513.641 221V204.09H511.531V211.402H502.25V204.09H500.141V221H502.25V213.301H511.531V221H513.641ZM520.273 219.477C518.809 219.477 517.836 218.715 517.836 217.555C517.836 216.406 518.773 215.68 520.414 215.574L523.672 215.375V216.371C523.672 218.129 522.195 219.477 520.273 219.477ZM519.816 221.211C521.457 221.211 523.004 220.297 523.73 218.902H523.777V221H525.711V212.574C525.711 210.148 523.906 208.602 521.047 208.602C518.164 208.602 516.359 210.219 516.219 212.328H518.188C518.445 211.133 519.43 210.395 521 210.395C522.688 210.395 523.672 211.285 523.672 212.773V213.793L520.18 213.992C517.367 214.156 515.762 215.469 515.762 217.555C515.762 219.746 517.391 221.211 519.816 221.211ZM528.301 221H530.34V213.828C530.34 211.766 531.594 210.406 533.516 210.406C535.391 210.406 536.316 211.484 536.316 213.453V221H538.355V213.09C538.355 210.324 536.809 208.602 534.137 208.602C532.25 208.602 530.949 209.445 530.27 210.758H530.223V208.812H528.301V221ZM545.574 221.211C547.332 221.211 548.727 220.344 549.512 218.938H549.547V221H551.492V204.09H549.453V210.793H549.406C548.68 209.457 547.273 208.602 545.527 208.602C542.457 208.602 540.359 211.086 540.359 214.906C540.359 218.727 542.469 221.211 545.574 221.211ZM545.961 210.395C548.059 210.395 549.465 212.188 549.465 214.906C549.465 217.637 548.059 219.418 545.961 219.418C543.805 219.418 542.445 217.672 542.445 214.906C542.445 212.152 543.805 210.395 545.961 210.395ZM554.035 212.176C554.035 213.934 555.148 215 557.445 215.551L559.379 216.02C560.773 216.359 561.254 216.863 561.254 217.742C561.254 218.844 560.234 219.547 558.582 219.547C556.93 219.547 555.992 218.879 555.746 217.484H553.707C553.941 219.77 555.723 221.211 558.582 221.211C561.301 221.211 563.305 219.711 563.305 217.59C563.305 215.844 562.414 214.883 559.953 214.285L558.02 213.816C556.66 213.488 556.039 212.914 556.039 212.07C556.039 211.004 557.023 210.266 558.512 210.266C560.012 210.266 560.949 211.051 561.102 212.328H563.047C562.965 210.172 561.184 208.602 558.512 208.602C555.875 208.602 554.035 210.09 554.035 212.176Z" fill="black"/>
    <rect x="478.5" y="244" width="89" height="48" rx="12" fill="#F0C2FB"/>
    <path d="M510.406 275.102H502.25V260.09H500.141V277H510.406V275.102ZM516.945 266.371C518.867 266.371 520.145 267.824 520.191 269.863H513.57C513.699 267.836 515.035 266.371 516.945 266.371ZM520.145 273.508C519.805 274.656 518.668 275.441 517.121 275.441C514.93 275.441 513.559 273.906 513.559 271.574V271.457H522.301V270.684C522.301 266.992 520.273 264.602 516.98 264.602C513.617 264.602 511.461 267.168 511.461 270.953C511.461 274.785 513.582 277.211 517.074 277.211C519.734 277.211 521.797 275.641 522.148 273.508H520.145ZM529.32 275.301C527.223 275.301 525.852 273.59 525.852 270.859C525.852 268.129 527.223 266.395 529.32 266.395C531.441 266.395 532.859 268.176 532.859 270.859C532.859 273.543 531.441 275.301 529.32 275.301ZM529.391 281.594C532.754 281.594 534.898 279.66 534.898 276.754V264.812H532.953V266.863H532.918C532.109 265.445 530.68 264.602 528.957 264.602C525.805 264.602 523.766 267.039 523.766 270.859C523.766 274.645 525.805 277.094 528.91 277.094C530.621 277.094 532.062 276.227 532.812 274.902H532.859V276.824C532.859 278.641 531.582 279.859 529.473 279.859C527.949 279.859 526.742 279.121 526.344 278.008H524.246C524.586 280.082 526.707 281.594 529.391 281.594ZM537.348 268.176C537.348 269.934 538.461 271 540.758 271.551L542.691 272.02C544.086 272.359 544.566 272.863 544.566 273.742C544.566 274.844 543.547 275.547 541.895 275.547C540.242 275.547 539.305 274.879 539.059 273.484H537.02C537.254 275.77 539.035 277.211 541.895 277.211C544.613 277.211 546.617 275.711 546.617 273.59C546.617 271.844 545.727 270.883 543.266 270.285L541.332 269.816C539.973 269.488 539.352 268.914 539.352 268.07C539.352 267.004 540.336 266.266 541.824 266.266C543.324 266.266 544.262 267.051 544.414 268.328H546.359C546.277 266.172 544.496 264.602 541.824 264.602C539.188 264.602 537.348 266.09 537.348 268.176Z" fill="black"/>
    <path d="M480.246 340.598L486.234 320.09H484.488L478.5 340.598H480.246ZM487.98 340.598L493.969 320.09H492.223L486.234 340.598H487.98ZM506.133 324.602C504.363 324.602 502.945 325.504 502.195 326.875H502.148V324.812H500.215V341.066H502.254V335.02H502.301C503.027 336.355 504.434 337.211 506.18 337.211C509.25 337.211 511.348 334.727 511.348 330.906C511.348 327.086 509.238 324.602 506.133 324.602ZM505.734 335.418C503.648 335.418 502.242 333.625 502.242 330.906C502.242 328.199 503.648 326.395 505.734 326.395C507.902 326.395 509.262 328.152 509.262 330.906C509.262 333.672 507.902 335.418 505.734 335.418ZM513.41 337H515.449V329.406C515.449 327.684 516.48 326.547 518.062 326.547C518.555 326.547 518.988 326.605 519.152 326.664V324.684C518.988 324.66 518.684 324.602 518.332 324.602C516.902 324.602 515.777 325.457 515.379 326.805H515.332V324.812H513.41V337ZM525.281 337.211C528.645 337.211 530.918 334.785 530.918 330.906C530.918 327.016 528.645 324.602 525.281 324.602C521.906 324.602 519.633 327.016 519.633 330.906C519.633 334.785 521.906 337.211 525.281 337.211ZM525.281 335.418C523.125 335.418 521.707 333.777 521.707 330.906C521.707 328.035 523.125 326.395 525.281 326.395C527.438 326.395 528.844 328.035 528.844 330.906C528.844 333.777 527.438 335.418 525.281 335.418ZM538.898 324.602C537.129 324.602 535.711 325.504 534.961 326.875H534.914V324.812H532.98V341.066H535.02V335.02H535.066C535.793 336.355 537.199 337.211 538.945 337.211C542.016 337.211 544.113 334.727 544.113 330.906C544.113 327.086 542.004 324.602 538.898 324.602ZM538.5 335.418C536.414 335.418 535.008 333.625 535.008 330.906C535.008 328.199 536.414 326.395 538.5 326.395C540.668 326.395 542.027 328.152 542.027 330.906C542.027 333.672 540.668 335.418 538.5 335.418ZM545.965 328.176C545.965 329.934 547.078 331 549.375 331.551L551.309 332.02C552.703 332.359 553.184 332.863 553.184 333.742C553.184 334.844 552.164 335.547 550.512 335.547C548.859 335.547 547.922 334.879 547.676 333.484H545.637C545.871 335.77 547.652 337.211 550.512 337.211C553.23 337.211 555.234 335.711 555.234 333.59C555.234 331.844 554.344 330.883 551.883 330.285L549.949 329.816C548.59 329.488 547.969 328.914 547.969 328.07C547.969 327.004 548.953 326.266 550.441 326.266C551.941 326.266 552.879 327.051 553.031 328.328H554.977C554.895 326.172 553.113 324.602 550.441 324.602C547.805 324.602 545.965 326.09 545.965 328.176Z" fill="black"/>
    <rect x="478.5" y="364" width="81" height="48" rx="12" fill="#F0C2FB"/>
    <path d="M511.133 397H513.348L507.113 380.09H505.027L498.793 397H501.008L502.707 392.16H509.434L511.133 397ZM506.035 382.656H506.105L508.812 390.367H503.328L506.035 382.656ZM519.688 395.301C517.59 395.301 516.219 393.59 516.219 390.859C516.219 388.129 517.59 386.395 519.688 386.395C521.809 386.395 523.227 388.176 523.227 390.859C523.227 393.543 521.809 395.301 519.688 395.301ZM519.758 401.594C523.121 401.594 525.266 399.66 525.266 396.754V384.812H523.32V386.863H523.285C522.477 385.445 521.047 384.602 519.324 384.602C516.172 384.602 514.133 387.039 514.133 390.859C514.133 394.645 516.172 397.094 519.277 397.094C520.988 397.094 522.43 396.227 523.18 394.902H523.227V396.824C523.227 398.641 521.949 399.859 519.84 399.859C518.316 399.859 517.109 399.121 516.711 398.008H514.613C514.953 400.082 517.074 401.594 519.758 401.594ZM532.812 386.371C534.734 386.371 536.012 387.824 536.059 389.863H529.438C529.566 387.836 530.902 386.371 532.812 386.371ZM536.012 393.508C535.672 394.656 534.535 395.441 532.988 395.441C530.797 395.441 529.426 393.906 529.426 391.574V391.457H538.168V390.684C538.168 386.992 536.141 384.602 532.848 384.602C529.484 384.602 527.328 387.168 527.328 390.953C527.328 394.785 529.449 397.211 532.941 397.211C535.602 397.211 537.664 395.641 538.016 393.508H536.012Z" fill="black"/>
    <rect x="478.5" y="420" width="108" height="48" rx="12" fill="#F0C2FB"/>
    <path d="M513.641 453V436.09H511.531V443.402H502.25V436.09H500.141V453H502.25V445.301H511.531V453H513.641ZM521.492 442.371C523.414 442.371 524.691 443.824 524.738 445.863H518.117C518.246 443.836 519.582 442.371 521.492 442.371ZM524.691 449.508C524.352 450.656 523.215 451.441 521.668 451.441C519.477 451.441 518.105 449.906 518.105 447.574V447.457H526.848V446.684C526.848 442.992 524.82 440.602 521.527 440.602C518.164 440.602 516.008 443.168 516.008 446.953C516.008 450.785 518.129 453.211 521.621 453.211C524.281 453.211 526.344 451.641 526.695 449.508H524.691ZM529.016 453H531.055V440.812H529.016V453ZM530.035 438.645C530.75 438.645 531.312 438.07 531.312 437.367C531.312 436.652 530.75 436.09 530.035 436.09C529.332 436.09 528.758 436.652 528.758 437.367C528.758 438.07 529.332 438.645 530.035 438.645ZM538.766 451.301C536.668 451.301 535.297 449.59 535.297 446.859C535.297 444.129 536.668 442.395 538.766 442.395C540.887 442.395 542.305 444.176 542.305 446.859C542.305 449.543 540.887 451.301 538.766 451.301ZM538.836 457.594C542.199 457.594 544.344 455.66 544.344 452.754V440.812H542.398V442.863H542.363C541.555 441.445 540.125 440.602 538.402 440.602C535.25 440.602 533.211 443.039 533.211 446.859C533.211 450.645 535.25 453.094 538.355 453.094C540.066 453.094 541.508 452.227 542.258 450.902H542.305V452.824C542.305 454.641 541.027 455.859 538.918 455.859C537.395 455.859 536.188 455.121 535.789 454.008H533.691C534.031 456.082 536.152 457.594 538.836 457.594ZM547.109 453H549.148V445.898C549.148 443.789 550.402 442.406 552.43 442.406C554.34 442.406 555.312 443.566 555.312 445.5V453H557.352V445.125C557.352 442.406 555.734 440.602 553.062 440.602C551.211 440.602 549.875 441.398 549.195 442.758H549.148V436.09H547.109V453ZM560.598 437.871V440.812H558.781V442.488H560.598V449.836C560.598 452.18 561.465 453.094 563.703 453.094C564.184 453.094 564.746 453.059 564.992 453V451.289C564.852 451.312 564.383 451.348 564.148 451.348C563.105 451.348 562.637 450.844 562.637 449.73V442.488H565.004V440.812H562.637V437.871H560.598Z" fill="black"/>
    <rect x="478.5" y="476" width="115" height="48" rx="12" fill="#F0C2FB"/>
    <path d="M514.402 502.004V500.398H507.523V502.25H512.293V502.555C512.293 505.391 510.23 507.336 507.23 507.336C503.785 507.336 501.652 504.699 501.652 500.445C501.652 496.262 503.75 493.754 507.23 493.754C509.609 493.754 511.379 495.055 512.082 497.34H514.297C513.664 493.977 510.887 491.809 507.23 491.809C502.496 491.809 499.484 495.172 499.484 500.457C499.484 505.836 502.508 509.281 507.23 509.281C511.742 509.281 514.402 506.574 514.402 502.004ZM521.68 498.371C523.602 498.371 524.879 499.824 524.926 501.863H518.305C518.434 499.836 519.77 498.371 521.68 498.371ZM524.879 505.508C524.539 506.656 523.402 507.441 521.855 507.441C519.664 507.441 518.293 505.906 518.293 503.574V503.457H527.035V502.684C527.035 498.992 525.008 496.602 521.715 496.602C518.352 496.602 516.195 499.168 516.195 502.953C516.195 506.785 518.316 509.211 521.809 509.211C524.469 509.211 526.531 507.641 526.883 505.508H524.879ZM529.098 509H531.137V501.828C531.137 499.766 532.391 498.406 534.312 498.406C536.188 498.406 537.113 499.484 537.113 501.453V509H539.152V501.09C539.152 498.324 537.605 496.602 534.934 496.602C533.047 496.602 531.746 497.445 531.066 498.758H531.02V496.812H529.098V509ZM546.371 509.211C548.129 509.211 549.523 508.344 550.309 506.938H550.344V509H552.289V492.09H550.25V498.793H550.203C549.477 497.457 548.07 496.602 546.324 496.602C543.254 496.602 541.156 499.086 541.156 502.906C541.156 506.727 543.266 509.211 546.371 509.211ZM546.758 498.395C548.855 498.395 550.262 500.188 550.262 502.906C550.262 505.637 548.855 507.418 546.758 507.418C544.602 507.418 543.242 505.672 543.242 502.906C543.242 500.152 544.602 498.395 546.758 498.395ZM559.93 498.371C561.852 498.371 563.129 499.824 563.176 501.863H556.555C556.684 499.836 558.02 498.371 559.93 498.371ZM563.129 505.508C562.789 506.656 561.652 507.441 560.105 507.441C557.914 507.441 556.543 505.906 556.543 503.574V503.457H565.285V502.684C565.285 498.992 563.258 496.602 559.965 496.602C556.602 496.602 554.445 499.168 554.445 502.953C554.445 506.785 556.566 509.211 560.059 509.211C562.719 509.211 564.781 507.641 565.133 505.508H563.129ZM567.348 509H569.387V501.406C569.387 499.684 570.418 498.547 572 498.547C572.492 498.547 572.926 498.605 573.09 498.664V496.684C572.926 496.66 572.621 496.602 572.27 496.602C570.84 496.602 569.715 497.457 569.316 498.805H569.27V496.812H567.348V509Z" fill="black"/>
    <path d="M480.246 572.598L486.234 552.09H484.488L478.5 572.598H480.246ZM487.98 572.598L493.969 552.09H492.223L486.234 572.598H487.98ZM500.871 569H502.91V558.488H505.395V556.812H502.898V555.465C502.898 554.258 503.426 553.672 504.527 553.672C504.867 553.672 505.207 553.707 505.453 553.742V552.09C505.16 552.043 504.668 551.996 504.211 551.996C501.961 551.996 500.871 553.109 500.871 555.453V556.812H499.172V558.488H500.871V569ZM517.512 556.812H515.473V563.973C515.473 566.047 514.277 567.406 512.297 567.406C510.41 567.406 509.484 566.34 509.484 564.359V556.812H507.445V564.723C507.445 567.488 509.004 569.211 511.664 569.211C513.539 569.211 514.805 568.426 515.531 567.02H515.578V569H517.512V556.812ZM520.16 569H522.199V561.828C522.199 559.766 523.453 558.406 525.375 558.406C527.25 558.406 528.176 559.484 528.176 561.453V569H530.215V561.09C530.215 558.324 528.668 556.602 525.996 556.602C524.109 556.602 522.809 557.445 522.129 558.758H522.082V556.812H520.16V569ZM542.941 560.809C542.684 558.617 540.867 556.602 537.82 556.602C534.457 556.602 532.219 559.062 532.219 562.906C532.219 566.832 534.469 569.211 537.844 569.211C540.609 569.211 542.648 567.5 542.965 565.074H540.961C540.609 566.539 539.52 567.418 537.855 567.418C535.746 567.418 534.293 565.742 534.293 562.906C534.293 560.141 535.723 558.395 537.832 558.395C539.625 558.395 540.656 559.484 540.949 560.809H542.941ZM545.496 553.871V556.812H543.68V558.488H545.496V565.836C545.496 568.18 546.363 569.094 548.602 569.094C549.082 569.094 549.645 569.059 549.891 569V567.289C549.75 567.312 549.281 567.348 549.047 567.348C548.004 567.348 547.535 566.844 547.535 565.73V558.488H549.902V556.812H547.535V553.871H545.496ZM552.188 569H554.227V556.812H552.188V569ZM553.207 554.645C553.922 554.645 554.484 554.07 554.484 553.367C554.484 552.652 553.922 552.09 553.207 552.09C552.504 552.09 551.93 552.652 551.93 553.367C551.93 554.07 552.504 554.645 553.207 554.645ZM562.031 569.211C565.395 569.211 567.668 566.785 567.668 562.906C567.668 559.016 565.395 556.602 562.031 556.602C558.656 556.602 556.383 559.016 556.383 562.906C556.383 566.785 558.656 569.211 562.031 569.211ZM562.031 567.418C559.875 567.418 558.457 565.777 558.457 562.906C558.457 560.035 559.875 558.395 562.031 558.395C564.188 558.395 565.594 560.035 565.594 562.906C565.594 565.777 564.188 567.418 562.031 567.418ZM569.73 569H571.77V561.828C571.77 559.766 573.023 558.406 574.945 558.406C576.82 558.406 577.746 559.484 577.746 561.453V569H579.785V561.09C579.785 558.324 578.238 556.602 575.566 556.602C573.68 556.602 572.379 557.445 571.699 558.758H571.652V556.812H569.73V569Z" fill="black"/>
    <rect x="478.5" y="596" width="196" height="48" rx="12" fill="#FEE872"/>
    <path d="M507.102 629.281C510.84 629.281 513.348 627.418 514.121 624.078H511.988C511.379 626.141 509.598 627.336 507.113 627.336C503.773 627.336 501.652 624.688 501.652 620.539C501.652 616.426 503.797 613.754 507.102 613.754C509.516 613.754 511.449 615.207 511.988 617.422H514.121C513.582 614.047 510.781 611.809 507.102 611.809C502.473 611.809 499.484 615.23 499.484 620.539C499.484 625.895 502.438 629.281 507.102 629.281ZM516.406 629H518.445V621.898C518.445 619.789 519.699 618.406 521.727 618.406C523.637 618.406 524.609 619.566 524.609 621.5V629H526.648V621.125C526.648 618.406 525.031 616.602 522.359 616.602C520.508 616.602 519.172 617.398 518.492 618.758H518.445V612.09H516.406V629ZM533.258 627.477C531.793 627.477 530.82 626.715 530.82 625.555C530.82 624.406 531.758 623.68 533.398 623.574L536.656 623.375V624.371C536.656 626.129 535.18 627.477 533.258 627.477ZM532.801 629.211C534.441 629.211 535.988 628.297 536.715 626.902H536.762V629H538.695V620.574C538.695 618.148 536.891 616.602 534.031 616.602C531.148 616.602 529.344 618.219 529.203 620.328H531.172C531.43 619.133 532.414 618.395 533.984 618.395C535.672 618.395 536.656 619.285 536.656 620.773V621.793L533.164 621.992C530.352 622.156 528.746 623.469 528.746 625.555C528.746 627.746 530.375 629.211 532.801 629.211ZM541.285 629H543.324V621.828C543.324 619.766 544.578 618.406 546.5 618.406C548.375 618.406 549.301 619.484 549.301 621.453V629H551.34V621.09C551.34 618.324 549.793 616.602 547.121 616.602C545.234 616.602 543.934 617.445 543.254 618.758H543.207V616.812H541.285V629ZM558.898 627.301C556.801 627.301 555.43 625.59 555.43 622.859C555.43 620.129 556.801 618.395 558.898 618.395C561.02 618.395 562.438 620.176 562.438 622.859C562.438 625.543 561.02 627.301 558.898 627.301ZM558.969 633.594C562.332 633.594 564.477 631.66 564.477 628.754V616.812H562.531V618.863H562.496C561.688 617.445 560.258 616.602 558.535 616.602C555.383 616.602 553.344 619.039 553.344 622.859C553.344 626.645 555.383 629.094 558.488 629.094C560.199 629.094 561.641 628.227 562.391 626.902H562.438V628.824C562.438 630.641 561.16 631.859 559.051 631.859C557.527 631.859 556.32 631.121 555.922 630.008H553.824C554.164 632.082 556.285 633.594 558.969 633.594ZM572.023 618.371C573.945 618.371 575.223 619.824 575.27 621.863H568.648C568.777 619.836 570.113 618.371 572.023 618.371ZM575.223 625.508C574.883 626.656 573.746 627.441 572.199 627.441C570.008 627.441 568.637 625.906 568.637 623.574V623.457H577.379V622.684C577.379 618.992 575.352 616.602 572.059 616.602C568.695 616.602 566.539 619.168 566.539 622.953C566.539 626.785 568.66 629.211 572.152 629.211C574.812 629.211 576.875 627.641 577.227 625.508H575.223ZM589.32 627.301C587.223 627.301 585.852 625.59 585.852 622.859C585.852 620.129 587.223 618.395 589.32 618.395C591.441 618.395 592.859 620.176 592.859 622.859C592.859 625.543 591.441 627.301 589.32 627.301ZM589.391 633.594C592.754 633.594 594.898 631.66 594.898 628.754V616.812H592.953V618.863H592.918C592.109 617.445 590.68 616.602 588.957 616.602C585.805 616.602 583.766 619.039 583.766 622.859C583.766 626.645 585.805 629.094 588.91 629.094C590.621 629.094 592.062 628.227 592.812 626.902H592.859V628.824C592.859 630.641 591.582 631.859 589.473 631.859C587.949 631.859 586.742 631.121 586.344 630.008H584.246C584.586 632.082 586.707 633.594 589.391 633.594ZM602.445 618.371C604.367 618.371 605.645 619.824 605.691 621.863H599.07C599.199 619.836 600.535 618.371 602.445 618.371ZM605.645 625.508C605.305 626.656 604.168 627.441 602.621 627.441C600.43 627.441 599.059 625.906 599.059 623.574V623.457H607.801V622.684C607.801 618.992 605.773 616.602 602.48 616.602C599.117 616.602 596.961 619.168 596.961 622.953C596.961 626.785 599.082 629.211 602.574 629.211C605.234 629.211 607.297 627.641 607.648 625.508H605.645ZM609.863 629H611.902V621.828C611.902 619.766 613.156 618.406 615.078 618.406C616.953 618.406 617.879 619.484 617.879 621.453V629H619.918V621.09C619.918 618.324 618.371 616.602 615.699 616.602C613.812 616.602 612.512 617.445 611.832 618.758H611.785V616.812H609.863V629ZM627.137 629.211C628.895 629.211 630.289 628.344 631.074 626.938H631.109V629H633.055V612.09H631.016V618.793H630.969C630.242 617.457 628.836 616.602 627.09 616.602C624.02 616.602 621.922 619.086 621.922 622.906C621.922 626.727 624.031 629.211 627.137 629.211ZM627.523 618.395C629.621 618.395 631.027 620.188 631.027 622.906C631.027 625.637 629.621 627.418 627.523 627.418C625.367 627.418 624.008 625.672 624.008 622.906C624.008 620.152 625.367 618.395 627.523 618.395ZM640.695 618.371C642.617 618.371 643.895 619.824 643.941 621.863H637.32C637.449 619.836 638.785 618.371 640.695 618.371ZM643.895 625.508C643.555 626.656 642.418 627.441 640.871 627.441C638.68 627.441 637.309 625.906 637.309 623.574V623.457H646.051V622.684C646.051 618.992 644.023 616.602 640.73 616.602C637.367 616.602 635.211 619.168 635.211 622.953C635.211 626.785 637.332 629.211 640.824 629.211C643.484 629.211 645.547 627.641 645.898 625.508H643.895ZM648.113 629H650.152V621.406C650.152 619.684 651.184 618.547 652.766 618.547C653.258 618.547 653.691 618.605 653.855 618.664V616.684C653.691 616.66 653.387 616.602 653.035 616.602C651.605 616.602 650.48 617.457 650.082 618.805H650.035V616.812H648.113V629Z" fill="black"/>
    <rect x="431.5" y="29" width="290" height="662" rx="31" stroke="#D3DBE6" stroke-width="2" stroke-dasharray="8 8"/>
</svg>
