<svg width="142" height="46" viewBox="0 0 142 46" fill="none" xmlns="http://www.w3.org/2000/svg">
    <path d="M3.72263 0.783871C3.18421 0.660915 2.64805 0.997718 2.5251 1.53614L0.521412 10.3103C0.398456 10.8487 0.735259 11.3848 1.27368 11.5078C1.81211 11.6308 2.34826 11.294 2.47122 10.7555L4.25227 2.95631L12.0515 4.73736C12.5899 4.86032 13.1261 4.52351 13.249 3.98509C13.372 3.44667 13.0352 2.91051 12.4968 2.78756L3.72263 0.783871ZM140.411 20.1921C119.036 35.7861 99.8694 42.3424 83.1673 43.4648C66.4647 44.5872 52.1503 40.2804 40.4721 34.0258C28.7867 27.7674 19.7479 19.5618 13.6264 12.911C10.5674 9.5875 8.24182 6.65762 6.68325 4.56212C5.90409 3.51453 5.31697 2.67595 4.9261 2.10156C4.73067 1.81438 4.58432 1.59329 4.48759 1.44519C4.43923 1.37114 4.40326 1.31534 4.37977 1.27866C4.36803 1.26032 4.3594 1.24676 4.3539 1.23809C4.35115 1.23375 4.34918 1.23064 4.34799 1.22876C4.3474 1.22782 4.3471 1.22734 4.3468 1.22687C4.3467 1.2267 4.34678 1.22684 3.5 1.75877C2.65322 2.29071 2.6537 2.29148 2.65438 2.29255C2.65486 2.29333 2.65574 2.29472 2.65672 2.29627C2.65867 2.29937 2.66141 2.3037 2.66494 2.30927C2.672 2.32039 2.6822 2.33642 2.69554 2.35725C2.72221 2.3989 2.76143 2.45973 2.81313 2.53889C2.91653 2.6972 3.06987 2.9288 3.27263 3.22676C3.67814 3.82265 4.28146 4.68414 5.07847 5.75571C6.67224 7.89855 9.04196 10.8834 12.1548 14.2654C18.3771 21.0257 27.5883 29.3943 39.5279 35.7889C51.4747 42.1873 66.1603 46.6121 83.3014 45.4603C100.443 44.3084 119.964 37.5845 141.589 21.8079L140.411 20.1921Z" fill="#23DAC9"></path>
</svg>
