<svg width="150" height="52" viewBox="0 0 150 52" fill="none" xmlns="http://www.w3.org/2000/svg">
    <path d="M3.54817 50.8066C3.71752 51.3323 4.28095 51.6212 4.80663 51.4518L13.3731 48.6921C13.8988 48.5228 14.1876 47.9594 14.0183 47.4337C13.8489 46.908 13.2855 46.6191 12.7598 46.7885L5.1452 49.2415L2.69216 41.6269C2.52282 41.1012 1.95939 40.8123 1.43371 40.9817C0.908025 41.151 0.61916 41.7145 0.788506 42.2402L3.54817 50.8066ZM149.662 34.2503C126.057 13.4081 105.1 3.88627 86.9002 1.41532C68.6897 -1.05712 53.3417 3.54378 40.9953 10.7617C28.6626 17.9716 19.3218 27.7925 13.0714 35.7905C9.94374 39.7927 7.58322 43.347 6.00287 45.9039C5.21255 47.1826 4.61693 48.2126 4.21767 48.9253C4.01803 49.2816 3.86744 49.5587 3.76613 49.748C3.71547 49.8426 3.67712 49.9153 3.65111 49.9649C3.63811 49.9898 3.62819 50.0088 3.62136 50.022C3.61795 50.0286 3.6153 50.0337 3.61343 50.0374C3.6125 50.0392 3.61167 50.0408 3.6112 50.0417C3.61057 50.0429 3.61014 50.0438 4.5 50.5C5.38986 50.9562 5.38981 50.9563 5.38995 50.956C5.39025 50.9555 5.39059 50.9548 5.39119 50.9536C5.3924 50.9513 5.39438 50.9475 5.39713 50.9422C5.40262 50.9316 5.41118 50.9151 5.42281 50.8929C5.44606 50.8485 5.48159 50.7811 5.52935 50.6919C5.62487 50.5135 5.76933 50.2476 5.96251 49.9028C6.34889 49.2131 6.93002 48.2079 7.70416 46.9554C9.25271 44.4499 11.5719 40.9573 14.6473 37.022C20.8032 29.145 29.9624 19.5284 42.0047 12.4883C54.0333 5.45619 68.9353 0.994586 86.6311 3.39714C104.338 5.80118 124.943 15.0918 148.338 35.7496L149.662 34.2503Z" fill="#23DAC9"></path>
</svg>
