<svg width="339" height="228" viewBox="0 0 339 228" fill="none" xmlns="http://www.w3.org/2000/svg">
    <path d="M144.132 17.0086C144.68 17.0816 145.064 17.5846 144.991 18.132C144.918 18.6795 144.415 19.0641 143.868 18.9911L144.132 17.0086ZM88.7071 67.2054C88.3166 67.596 87.6834 67.596 87.2929 67.2054L80.9289 60.8415C80.5384 60.451 80.5384 59.8178 80.9289 59.4273C81.3195 59.0367 81.9526 59.0367 82.3431 59.4273L88 65.0841L93.6569 59.4273C94.0474 59.0367 94.6805 59.0367 95.0711 59.4273C95.4616 59.8178 95.4616 60.451 95.0711 60.8415L88.7071 67.2054ZM143.868 18.9911C129.076 17.0188 115.365 20.1118 105.371 28.0334C95.3969 35.9397 89 48.7548 89 66.4983H87C87 48.2435 93.6031 34.8095 104.129 26.4661C114.635 18.1381 128.924 14.9809 144.132 17.0086L143.868 18.9911Z" fill="#73FFE5"/>
    <path d="M64.1322 201.903C64.6796 201.83 65.0642 201.328 64.9912 200.78C64.9182 200.233 64.4153 199.848 63.8678 199.921L64.1322 201.903ZM8.70711 151.707C8.31658 151.316 7.68342 151.316 7.29289 151.707L0.928932 158.071C0.538408 158.461 0.538408 159.094 0.928932 159.485C1.31946 159.875 1.95262 159.875 2.34315 159.485L8 153.828L13.6569 159.485C14.0474 159.875 14.6805 159.875 15.0711 159.485C15.4616 159.094 15.4616 158.461 15.0711 158.071L8.70711 151.707ZM63.8678 199.921C49.0758 201.893 35.3648 198.8 25.3712 190.879C15.3969 182.972 9 170.157 9 152.414H7C7 170.669 13.6031 184.103 24.1288 192.446C34.6352 200.774 48.9242 203.931 64.1322 201.903L63.8678 199.921Z" fill="#73FFE5"/>
    <rect x="141" width="198" height="56" rx="28" fill="#73FFE5"/>
    <path d="M171.062 24H172.539L168.383 12.7266H166.992L162.836 24H164.312L165.445 20.7734H169.93L171.062 24ZM167.664 14.4375H167.711L169.516 19.5781H165.859L167.664 14.4375ZM177.336 24H178.695V16.9922H180.352V15.875H178.688V14.9766C178.688 14.1719 179.039 13.7812 179.773 13.7812C180 13.7812 180.227 13.8047 180.391 13.8281V12.7266C180.195 12.6953 179.867 12.6641 179.562 12.6641C178.062 12.6641 177.336 13.4062 177.336 14.9688V15.875H176.203V16.9922H177.336V24ZM188.43 15.875H187.07V20.6484C187.07 22.0312 186.273 22.9375 184.953 22.9375C183.695 22.9375 183.078 22.2266 183.078 20.9062V15.875H181.719V21.1484C181.719 22.9922 182.758 24.1406 184.531 24.1406C185.781 24.1406 186.625 23.6172 187.109 22.6797H187.141V24H188.43V15.875ZM190.195 24H191.555V19.2188C191.555 17.8438 192.391 16.9375 193.672 16.9375C194.922 16.9375 195.539 17.6562 195.539 18.9688V24H196.898V18.7266C196.898 16.8828 195.867 15.7344 194.086 15.7344C192.828 15.7344 191.961 16.2969 191.508 17.1719H191.477V15.875H190.195V24ZM205.383 18.5391C205.211 17.0781 204 15.7344 201.969 15.7344C199.727 15.7344 198.234 17.375 198.234 19.9375C198.234 22.5547 199.734 24.1406 201.984 24.1406C203.828 24.1406 205.188 23 205.398 21.3828H204.062C203.828 22.3594 203.102 22.9453 201.992 22.9453C200.586 22.9453 199.617 21.8281 199.617 19.9375C199.617 18.0938 200.57 16.9297 201.977 16.9297C203.172 16.9297 203.859 17.6562 204.055 18.5391H205.383ZM207.086 13.9141V15.875H205.875V16.9922H207.086V21.8906C207.086 23.4531 207.664 24.0625 209.156 24.0625C209.477 24.0625 209.852 24.0391 210.016 24V22.8594C209.922 22.875 209.609 22.8984 209.453 22.8984C208.758 22.8984 208.445 22.5625 208.445 21.8203V16.9922H210.023V15.875H208.445V13.9141H207.086ZM212.227 14.4297C212.703 14.4297 213.078 14.0469 213.078 13.5781C213.078 13.1016 212.703 12.7266 212.227 12.7266C211.758 12.7266 211.375 13.1016 211.375 13.5781C211.375 14.0469 211.758 14.4297 212.227 14.4297ZM211.547 24H212.906V15.875H211.547V24ZM218.109 24.1406C220.352 24.1406 221.867 22.5234 221.867 19.9375C221.867 17.3438 220.352 15.7344 218.109 15.7344C215.859 15.7344 214.344 17.3438 214.344 19.9375C214.344 22.5234 215.859 24.1406 218.109 24.1406ZM218.109 22.9453C216.672 22.9453 215.727 21.8516 215.727 19.9375C215.727 18.0234 216.672 16.9297 218.109 16.9297C219.547 16.9297 220.484 18.0234 220.484 19.9375C220.484 21.8516 219.547 22.9453 218.109 22.9453ZM223.242 24H224.602V19.2188C224.602 17.8438 225.438 16.9375 226.719 16.9375C227.969 16.9375 228.586 17.6562 228.586 18.9688V24H229.945V18.7266C229.945 16.8828 228.914 15.7344 227.133 15.7344C225.875 15.7344 225.008 16.2969 224.555 17.1719H224.523V15.875H223.242V24ZM235.398 13.9141V15.875H234.188V16.9922H235.398V21.8906C235.398 23.4531 235.977 24.0625 237.469 24.0625C237.789 24.0625 238.164 24.0391 238.328 24V22.8594C238.234 22.875 237.922 22.8984 237.766 22.8984C237.07 22.8984 236.758 22.5625 236.758 21.8203V16.9922H238.336V15.875H236.758V13.9141H235.398ZM239.859 24H241.219V19.2656C241.219 17.8594 242.055 16.9375 243.406 16.9375C244.68 16.9375 245.328 17.7109 245.328 19V24H246.688V18.75C246.688 16.9375 245.609 15.7344 243.828 15.7344C242.594 15.7344 241.703 16.2656 241.25 17.1719H241.219V12.7266H239.859V24ZM250.789 24.1406C251.883 24.1406 252.914 23.5312 253.398 22.6016H253.43V24H254.719V18.3828C254.719 16.7656 253.516 15.7344 251.609 15.7344C249.688 15.7344 248.484 16.8125 248.391 18.2188H249.703C249.875 17.4219 250.531 16.9297 251.578 16.9297C252.703 16.9297 253.359 17.5234 253.359 18.5156V19.1953L251.031 19.3281C249.156 19.4375 248.086 20.3125 248.086 21.7031C248.086 23.1641 249.172 24.1406 250.789 24.1406ZM251.094 22.9844C250.117 22.9844 249.469 22.4766 249.469 21.7031C249.469 20.9375 250.094 20.4531 251.188 20.3828L253.359 20.25V20.9141C253.359 22.0859 252.375 22.9844 251.094 22.9844ZM256.883 13.9141V15.875H255.672V16.9922H256.883V21.8906C256.883 23.4531 257.461 24.0625 258.953 24.0625C259.273 24.0625 259.648 24.0391 259.812 24V22.8594C259.719 22.875 259.406 22.8984 259.25 22.8984C258.555 22.8984 258.242 22.5625 258.242 21.8203V16.9922H259.82V15.875H258.242V13.9141H256.883ZM266.93 24.1406C268.023 24.1406 269.055 23.5312 269.539 22.6016H269.57V24H270.859V18.3828C270.859 16.7656 269.656 15.7344 267.75 15.7344C265.828 15.7344 264.625 16.8125 264.531 18.2188H265.844C266.016 17.4219 266.672 16.9297 267.719 16.9297C268.844 16.9297 269.5 17.5234 269.5 18.5156V19.1953L267.172 19.3281C265.297 19.4375 264.227 20.3125 264.227 21.7031C264.227 23.1641 265.312 24.1406 266.93 24.1406ZM267.234 22.9844C266.258 22.9844 265.609 22.4766 265.609 21.7031C265.609 20.9375 266.234 20.4531 267.328 20.3828L269.5 20.25V20.9141C269.5 22.0859 268.516 22.9844 267.234 22.9844ZM272.656 24H274.016V12.7266H272.656V24ZM275.922 24H277.281V12.7266H275.922V24ZM282.484 24.1406C284.727 24.1406 286.242 22.5234 286.242 19.9375C286.242 17.3438 284.727 15.7344 282.484 15.7344C280.234 15.7344 278.719 17.3438 278.719 19.9375C278.719 22.5234 280.234 24.1406 282.484 24.1406ZM282.484 22.9453C281.047 22.9453 280.102 21.8516 280.102 19.9375C280.102 18.0234 281.047 16.9297 282.484 16.9297C283.922 16.9297 284.859 18.0234 284.859 19.9375C284.859 21.8516 283.922 22.9453 282.484 22.9453ZM297.953 15.875H296.609L294.984 22.4844H294.953L293.109 15.875H291.797L289.961 22.4844H289.93L288.305 15.875H286.953L289.227 24H290.609L292.438 17.7109H292.469L294.305 24H295.688L297.953 15.875ZM309.023 15.875H307.664V20.6484C307.664 22.0312 306.867 22.9375 305.547 22.9375C304.289 22.9375 303.672 22.2266 303.672 20.9062V15.875H302.312V21.1484C302.312 22.9922 303.352 24.1406 305.125 24.1406C306.375 24.1406 307.219 23.6172 307.703 22.6797H307.734V24H309.023V15.875ZM310.648 18.1172C310.648 19.2891 311.391 20 312.922 20.3672L314.211 20.6797C315.141 20.9062 315.461 21.2422 315.461 21.8281C315.461 22.5625 314.781 23.0312 313.68 23.0312C312.578 23.0312 311.953 22.5859 311.789 21.6562H310.43C310.586 23.1797 311.773 24.1406 313.68 24.1406C315.492 24.1406 316.828 23.1406 316.828 21.7266C316.828 20.5625 316.234 19.9219 314.594 19.5234L313.305 19.2109C312.398 18.9922 311.984 18.6094 311.984 18.0469C311.984 17.3359 312.641 16.8438 313.633 16.8438C314.633 16.8438 315.258 17.3672 315.359 18.2188H316.656C316.602 16.7812 315.414 15.7344 313.633 15.7344C311.875 15.7344 310.648 16.7266 310.648 18.1172ZM184.336 33.9141V35.875H183.125V36.9922H184.336V41.8906C184.336 43.4531 184.914 44.0625 186.406 44.0625C186.727 44.0625 187.102 44.0391 187.266 44V42.8594C187.172 42.875 186.859 42.8984 186.703 42.8984C186.008 42.8984 185.695 42.5625 185.695 41.8203V36.9922H187.273V35.875H185.695V33.9141H184.336ZM191.859 44.1406C194.102 44.1406 195.617 42.5234 195.617 39.9375C195.617 37.3438 194.102 35.7344 191.859 35.7344C189.609 35.7344 188.094 37.3438 188.094 39.9375C188.094 42.5234 189.609 44.1406 191.859 44.1406ZM191.859 42.9453C190.422 42.9453 189.477 41.8516 189.477 39.9375C189.477 38.0234 190.422 36.9297 191.859 36.9297C193.297 36.9297 194.234 38.0234 194.234 39.9375C194.234 41.8516 193.297 42.9453 191.859 42.9453ZM205.664 41.6719C205.438 42.4375 204.68 42.9609 203.648 42.9609C202.188 42.9609 201.273 41.9375 201.273 40.3828V40.3047H207.102V39.7891C207.102 37.3281 205.75 35.7344 203.555 35.7344C201.312 35.7344 199.875 37.4453 199.875 39.9688C199.875 42.5234 201.289 44.1406 203.617 44.1406C205.391 44.1406 206.766 43.0938 207 41.6719H205.664ZM203.531 36.9141C204.812 36.9141 205.664 37.8828 205.695 39.2422H201.281C201.367 37.8906 202.258 36.9141 203.531 36.9141ZM211.555 44.1406C212.727 44.1406 213.656 43.5625 214.18 42.625H214.203V44H215.5V32.7266H214.141V37.1953H214.109C213.625 36.3047 212.688 35.7344 211.523 35.7344C209.477 35.7344 208.078 37.3906 208.078 39.9375C208.078 42.4844 209.484 44.1406 211.555 44.1406ZM211.812 36.9297C213.211 36.9297 214.148 38.125 214.148 39.9375C214.148 41.7578 213.211 42.9453 211.812 42.9453C210.375 42.9453 209.469 41.7812 209.469 39.9375C209.469 38.1016 210.375 36.9297 211.812 36.9297ZM218.086 34.4297C218.562 34.4297 218.938 34.0469 218.938 33.5781C218.938 33.1016 218.562 32.7266 218.086 32.7266C217.617 32.7266 217.234 33.1016 217.234 33.5781C217.234 34.0469 217.617 34.4297 218.086 34.4297ZM217.406 44H218.766V35.875H217.406V44ZM221.039 33.9141V35.875H219.828V36.9922H221.039V41.8906C221.039 43.4531 221.617 44.0625 223.109 44.0625C223.43 44.0625 223.805 44.0391 223.969 44V42.8594C223.875 42.875 223.562 42.8984 223.406 42.8984C222.711 42.8984 222.398 42.5625 222.398 41.8203V36.9922H223.977V35.875H222.398V33.9141H221.039ZM231.086 44.1406C232.18 44.1406 233.211 43.5312 233.695 42.6016H233.727V44H235.016V38.3828C235.016 36.7656 233.812 35.7344 231.906 35.7344C229.984 35.7344 228.781 36.8125 228.688 38.2188H230C230.172 37.4219 230.828 36.9297 231.875 36.9297C233 36.9297 233.656 37.5234 233.656 38.5156V39.1953L231.328 39.3281C229.453 39.4375 228.383 40.3125 228.383 41.7031C228.383 43.1641 229.469 44.1406 231.086 44.1406ZM231.391 42.9844C230.414 42.9844 229.766 42.4766 229.766 41.7031C229.766 40.9375 230.391 40.4531 231.484 40.3828L233.656 40.25V40.9141C233.656 42.0859 232.672 42.9844 231.391 42.9844ZM243.969 35.7344C242.789 35.7344 241.844 36.3359 241.344 37.25H241.312V35.875H240.023V46.7109H241.383V42.6797H241.414C241.898 43.5703 242.836 44.1406 244 44.1406C246.047 44.1406 247.445 42.4844 247.445 39.9375C247.445 37.3906 246.039 35.7344 243.969 35.7344ZM243.703 42.9453C242.312 42.9453 241.375 41.75 241.375 39.9375C241.375 38.1328 242.312 36.9297 243.703 36.9297C245.148 36.9297 246.055 38.1016 246.055 39.9375C246.055 41.7812 245.148 42.9453 243.703 42.9453ZM252.188 44.1406C254.43 44.1406 255.945 42.5234 255.945 39.9375C255.945 37.3438 254.43 35.7344 252.188 35.7344C249.938 35.7344 248.422 37.3438 248.422 39.9375C248.422 42.5234 249.938 44.1406 252.188 44.1406ZM252.188 42.9453C250.75 42.9453 249.805 41.8516 249.805 39.9375C249.805 38.0234 250.75 36.9297 252.188 36.9297C253.625 36.9297 254.562 38.0234 254.562 39.9375C254.562 41.8516 253.625 42.9453 252.188 42.9453ZM257.18 38.1172C257.18 39.2891 257.922 40 259.453 40.3672L260.742 40.6797C261.672 40.9062 261.992 41.2422 261.992 41.8281C261.992 42.5625 261.312 43.0312 260.211 43.0312C259.109 43.0312 258.484 42.5859 258.32 41.6562H256.961C257.117 43.1797 258.305 44.1406 260.211 44.1406C262.023 44.1406 263.359 43.1406 263.359 41.7266C263.359 40.5625 262.766 39.9219 261.125 39.5234L259.836 39.2109C258.93 38.9922 258.516 38.6094 258.516 38.0469C258.516 37.3359 259.172 36.8438 260.164 36.8438C261.164 36.8438 261.789 37.3672 261.891 38.2188H263.188C263.133 36.7812 261.945 35.7344 260.164 35.7344C258.406 35.7344 257.18 36.7266 257.18 38.1172ZM265.211 33.9141V35.875H264V36.9922H265.211V41.8906C265.211 43.4531 265.789 44.0625 267.281 44.0625C267.602 44.0625 267.977 44.0391 268.141 44V42.8594C268.047 42.875 267.734 42.8984 267.578 42.8984C266.883 42.8984 266.57 42.5625 266.57 41.8203V36.9922H268.148V35.875H266.57V33.9141H265.211ZM273.32 33.9141V35.875H272.109V36.9922H273.32V41.8906C273.32 43.4531 273.898 44.0625 275.391 44.0625C275.711 44.0625 276.086 44.0391 276.25 44V42.8594C276.156 42.875 275.844 42.8984 275.688 42.8984C274.992 42.8984 274.68 42.5625 274.68 41.8203V36.9922H276.258V35.875H274.68V33.9141H273.32ZM282.867 41.6719C282.641 42.4375 281.883 42.9609 280.852 42.9609C279.391 42.9609 278.477 41.9375 278.477 40.3828V40.3047H284.305V39.7891C284.305 37.3281 282.953 35.7344 280.758 35.7344C278.516 35.7344 277.078 37.4453 277.078 39.9688C277.078 42.5234 278.492 44.1406 280.82 44.1406C282.594 44.1406 283.969 43.0938 284.203 41.6719H282.867ZM280.734 36.9141C282.016 36.9141 282.867 37.8828 282.898 39.2422H278.484C278.57 37.8906 279.461 36.9141 280.734 36.9141ZM288.398 40.9062L290.344 44H291.852L289.148 39.8828L291.891 35.875H290.375L288.445 38.9219H288.414L286.461 35.875H284.945L287.664 39.9375L284.898 44H286.406L288.367 40.9062H288.398ZM293.477 33.9141V35.875H292.266V36.9922H293.477V41.8906C293.477 43.4531 294.055 44.0625 295.547 44.0625C295.867 44.0625 296.242 44.0391 296.406 44V42.8594C296.312 42.875 296 42.8984 295.844 42.8984C295.148 42.8984 294.836 42.5625 294.836 41.8203V36.9922H296.414V35.875H294.836V33.9141H293.477Z" fill="black"/>
    <rect x="61" y="172" width="218" height="56" rx="28" fill="#73FFE5"/>
    <path d="M87 187.055H87.0781L89.6797 196H91.0078L94.0781 184.727H92.6094L90.3516 193.93H90.2891L87.75 184.727H86.3281L83.7891 193.93H83.7266L81.4688 184.727H80L83.0703 196H84.3984L87 187.055ZM99.8438 193.672C99.6172 194.438 98.8594 194.961 97.8281 194.961C96.3672 194.961 95.4531 193.938 95.4531 192.383V192.305H101.281V191.789C101.281 189.328 99.9297 187.734 97.7344 187.734C95.4922 187.734 94.0547 189.445 94.0547 191.969C94.0547 194.523 95.4688 196.141 97.7969 196.141C99.5703 196.141 100.945 195.094 101.18 193.672H99.8438ZM97.7109 188.914C98.9922 188.914 99.8438 189.883 99.875 191.242H95.4609C95.5469 189.891 96.4375 188.914 97.7109 188.914ZM112.688 190.539C112.516 189.078 111.305 187.734 109.273 187.734C107.031 187.734 105.539 189.375 105.539 191.938C105.539 194.555 107.039 196.141 109.289 196.141C111.133 196.141 112.492 195 112.703 193.383H111.367C111.133 194.359 110.406 194.945 109.297 194.945C107.891 194.945 106.922 193.828 106.922 191.938C106.922 190.094 107.875 188.93 109.281 188.93C110.477 188.93 111.164 189.656 111.359 190.539H112.688ZM116.328 196.141C117.422 196.141 118.453 195.531 118.938 194.602H118.969V196H120.258V190.383C120.258 188.766 119.055 187.734 117.148 187.734C115.227 187.734 114.023 188.812 113.93 190.219H115.242C115.414 189.422 116.07 188.93 117.117 188.93C118.242 188.93 118.898 189.523 118.898 190.516V191.195L116.57 191.328C114.695 191.438 113.625 192.312 113.625 193.703C113.625 195.164 114.711 196.141 116.328 196.141ZM116.633 194.984C115.656 194.984 115.008 194.477 115.008 193.703C115.008 192.938 115.633 192.453 116.727 192.383L118.898 192.25V192.914C118.898 194.086 117.914 194.984 116.633 194.984ZM121.984 196H123.344V191.219C123.344 189.844 124.18 188.938 125.461 188.938C126.711 188.938 127.328 189.656 127.328 190.969V196H128.688V190.727C128.688 188.883 127.656 187.734 125.875 187.734C124.617 187.734 123.75 188.297 123.297 189.172H123.266V187.875H121.984V196ZM130.422 196H131.781V191.219C131.781 189.844 132.617 188.938 133.898 188.938C135.148 188.938 135.766 189.656 135.766 190.969V196H137.125V190.727C137.125 188.883 136.094 187.734 134.312 187.734C133.055 187.734 132.188 188.297 131.734 189.172H131.703V187.875H130.422V196ZM142.227 196.141C144.469 196.141 145.984 194.523 145.984 191.938C145.984 189.344 144.469 187.734 142.227 187.734C139.977 187.734 138.461 189.344 138.461 191.938C138.461 194.523 139.977 196.141 142.227 196.141ZM142.227 194.945C140.789 194.945 139.844 193.852 139.844 191.938C139.844 190.023 140.789 188.93 142.227 188.93C143.664 188.93 144.602 190.023 144.602 191.938C144.602 193.852 143.664 194.945 142.227 194.945ZM147.797 185.914V187.875H146.586V188.992H147.797V193.891C147.797 195.453 148.375 196.062 149.867 196.062C150.188 196.062 150.562 196.039 150.727 196V194.859C150.633 194.875 150.32 194.898 150.164 194.898C149.469 194.898 149.156 194.562 149.156 193.82V188.992H150.734V187.875H149.156V185.914H147.797ZM160.859 193.672C160.633 194.438 159.875 194.961 158.844 194.961C157.383 194.961 156.469 193.938 156.469 192.383V192.305H162.297V191.789C162.297 189.328 160.945 187.734 158.75 187.734C156.508 187.734 155.07 189.445 155.07 191.969C155.07 194.523 156.484 196.141 158.812 196.141C160.586 196.141 161.961 195.094 162.195 193.672H160.859ZM158.727 188.914C160.008 188.914 160.859 189.883 160.891 191.242H156.477C156.562 189.891 157.453 188.914 158.727 188.914ZM166.75 196.141C167.922 196.141 168.852 195.562 169.375 194.625H169.398V196H170.695V184.727H169.336V189.195H169.305C168.82 188.305 167.883 187.734 166.719 187.734C164.672 187.734 163.273 189.391 163.273 191.938C163.273 194.484 164.68 196.141 166.75 196.141ZM167.008 188.93C168.406 188.93 169.344 190.125 169.344 191.938C169.344 193.758 168.406 194.945 167.008 194.945C165.57 194.945 164.664 193.781 164.664 191.938C164.664 190.102 165.57 188.93 167.008 188.93ZM173.281 186.43C173.758 186.43 174.133 186.047 174.133 185.578C174.133 185.102 173.758 184.727 173.281 184.727C172.812 184.727 172.43 185.102 172.43 185.578C172.43 186.047 172.812 186.43 173.281 186.43ZM172.602 196H173.961V187.875H172.602V196ZM176.234 185.914V187.875H175.023V188.992H176.234V193.891C176.234 195.453 176.812 196.062 178.305 196.062C178.625 196.062 179 196.039 179.164 196V194.859C179.07 194.875 178.758 194.898 178.602 194.898C177.906 194.898 177.594 194.562 177.594 193.82V188.992H179.172V187.875H177.594V185.914H176.234ZM186.281 196.141C187.375 196.141 188.406 195.531 188.891 194.602H188.922V196H190.211V190.383C190.211 188.766 189.008 187.734 187.102 187.734C185.18 187.734 183.977 188.812 183.883 190.219H185.195C185.367 189.422 186.023 188.93 187.07 188.93C188.195 188.93 188.852 189.523 188.852 190.516V191.195L186.523 191.328C184.648 191.438 183.578 192.312 183.578 193.703C183.578 195.164 184.664 196.141 186.281 196.141ZM186.586 194.984C185.609 194.984 184.961 194.477 184.961 193.703C184.961 192.938 185.586 192.453 186.68 192.383L188.852 192.25V192.914C188.852 194.086 187.867 194.984 186.586 194.984ZM199.164 187.734C197.984 187.734 197.039 188.336 196.539 189.25H196.508V187.875H195.219V198.711H196.578V194.68H196.609C197.094 195.57 198.031 196.141 199.195 196.141C201.242 196.141 202.641 194.484 202.641 191.938C202.641 189.391 201.234 187.734 199.164 187.734ZM198.898 194.945C197.508 194.945 196.57 193.75 196.57 191.938C196.57 190.133 197.508 188.93 198.898 188.93C200.344 188.93 201.25 190.102 201.25 191.938C201.25 193.781 200.344 194.945 198.898 194.945ZM207.383 196.141C209.625 196.141 211.141 194.523 211.141 191.938C211.141 189.344 209.625 187.734 207.383 187.734C205.133 187.734 203.617 189.344 203.617 191.938C203.617 194.523 205.133 196.141 207.383 196.141ZM207.383 194.945C205.945 194.945 205 193.852 205 191.938C205 190.023 205.945 188.93 207.383 188.93C208.82 188.93 209.758 190.023 209.758 191.938C209.758 193.852 208.82 194.945 207.383 194.945ZM212.375 190.117C212.375 191.289 213.117 192 214.648 192.367L215.938 192.68C216.867 192.906 217.188 193.242 217.188 193.828C217.188 194.562 216.508 195.031 215.406 195.031C214.305 195.031 213.68 194.586 213.516 193.656H212.156C212.312 195.18 213.5 196.141 215.406 196.141C217.219 196.141 218.555 195.141 218.555 193.727C218.555 192.562 217.961 191.922 216.32 191.523L215.031 191.211C214.125 190.992 213.711 190.609 213.711 190.047C213.711 189.336 214.367 188.844 215.359 188.844C216.359 188.844 216.984 189.367 217.086 190.219H218.383C218.328 188.781 217.141 187.734 215.359 187.734C213.602 187.734 212.375 188.727 212.375 190.117ZM220.406 185.914V187.875H219.195V188.992H220.406V193.891C220.406 195.453 220.984 196.062 222.477 196.062C222.797 196.062 223.172 196.039 223.336 196V194.859C223.242 194.875 222.93 194.898 222.773 194.898C222.078 194.898 221.766 194.562 221.766 193.82V188.992H223.344V187.875H221.766V185.914H220.406ZM231.445 196.141C233.688 196.141 235.203 194.523 235.203 191.938C235.203 189.344 233.688 187.734 231.445 187.734C229.195 187.734 227.68 189.344 227.68 191.938C227.68 194.523 229.195 196.141 231.445 196.141ZM231.445 194.945C230.008 194.945 229.062 193.852 229.062 191.938C229.062 190.023 230.008 188.93 231.445 188.93C232.883 188.93 233.82 190.023 233.82 191.938C233.82 193.852 232.883 194.945 231.445 194.945ZM236.578 196H237.938V191.219C237.938 189.844 238.773 188.938 240.055 188.938C241.305 188.938 241.922 189.656 241.922 190.969V196H243.281V190.727C243.281 188.883 242.25 187.734 240.469 187.734C239.211 187.734 238.344 188.297 237.891 189.172H237.859V187.875H236.578V196ZM251.766 190.539C251.594 189.078 250.383 187.734 248.352 187.734C246.109 187.734 244.617 189.375 244.617 191.938C244.617 194.555 246.117 196.141 248.367 196.141C250.211 196.141 251.57 195 251.781 193.383H250.445C250.211 194.359 249.484 194.945 248.375 194.945C246.969 194.945 246 193.828 246 191.938C246 190.094 246.953 188.93 248.359 188.93C249.555 188.93 250.242 189.656 250.438 190.539H251.766ZM258.422 193.672C258.195 194.438 257.438 194.961 256.406 194.961C254.945 194.961 254.031 193.938 254.031 192.383V192.305H259.859V191.789C259.859 189.328 258.508 187.734 256.312 187.734C254.07 187.734 252.633 189.445 252.633 191.969C252.633 194.523 254.047 196.141 256.375 196.141C258.148 196.141 259.523 195.094 259.758 193.672H258.422ZM256.289 188.914C257.57 188.914 258.422 189.883 258.453 191.242H254.039C254.125 189.891 255.016 188.914 256.289 188.914ZM100.859 206.43C101.336 206.43 101.711 206.047 101.711 205.578C101.711 205.102 101.336 204.727 100.859 204.727C100.391 204.727 100.008 205.102 100.008 205.578C100.008 206.047 100.391 206.43 100.859 206.43ZM100.18 216H101.539V207.875H100.18V216ZM103.812 205.914V207.875H102.602V208.992H103.812V213.891C103.812 215.453 104.391 216.062 105.883 216.062C106.203 216.062 106.578 216.039 106.742 216V214.859C106.648 214.875 106.336 214.898 106.18 214.898C105.484 214.898 105.172 214.562 105.172 213.82V208.992H106.75V207.875H105.172V205.914H103.812ZM111.555 216H112.914V211.266C112.914 209.859 113.75 208.938 115.102 208.938C116.375 208.938 117.023 209.711 117.023 211V216H118.383V210.75C118.383 208.938 117.305 207.734 115.523 207.734C114.289 207.734 113.398 208.266 112.945 209.172H112.914V204.727H111.555V216ZM122.484 216.141C123.578 216.141 124.609 215.531 125.094 214.602H125.125V216H126.414V210.383C126.414 208.766 125.211 207.734 123.305 207.734C121.383 207.734 120.18 208.812 120.086 210.219H121.398C121.57 209.422 122.227 208.93 123.273 208.93C124.398 208.93 125.055 209.523 125.055 210.516V211.195L122.727 211.328C120.852 211.438 119.781 212.312 119.781 213.703C119.781 215.164 120.867 216.141 122.484 216.141ZM122.789 214.984C121.812 214.984 121.164 214.477 121.164 213.703C121.164 212.938 121.789 212.453 122.883 212.383L125.055 212.25V212.914C125.055 214.086 124.07 214.984 122.789 214.984ZM128 210.117C128 211.289 128.742 212 130.273 212.367L131.562 212.68C132.492 212.906 132.812 213.242 132.812 213.828C132.812 214.562 132.133 215.031 131.031 215.031C129.93 215.031 129.305 214.586 129.141 213.656H127.781C127.938 215.18 129.125 216.141 131.031 216.141C132.844 216.141 134.18 215.141 134.18 213.727C134.18 212.562 133.586 211.922 131.945 211.523L130.656 211.211C129.75 210.992 129.336 210.609 129.336 210.047C129.336 209.336 129.992 208.844 130.984 208.844C131.984 208.844 132.609 209.367 132.711 210.219H134.008C133.953 208.781 132.766 207.734 130.984 207.734C129.227 207.734 128 208.727 128 210.117ZM142.914 216.141C144.992 216.141 146.367 214.492 146.367 211.938C146.367 209.391 144.984 207.734 142.938 207.734C141.789 207.734 140.844 208.305 140.336 209.234H140.305V204.727H138.945V216H140.242V214.625H140.273C140.797 215.562 141.727 216.141 142.914 216.141ZM142.648 208.93C144.086 208.93 144.977 210.094 144.977 211.938C144.977 213.797 144.086 214.945 142.648 214.945C141.273 214.945 140.297 213.75 140.297 211.938C140.297 210.133 141.273 208.93 142.648 208.93ZM153.141 213.672C152.914 214.438 152.156 214.961 151.125 214.961C149.664 214.961 148.75 213.938 148.75 212.383V212.305H154.578V211.789C154.578 209.328 153.227 207.734 151.031 207.734C148.789 207.734 147.352 209.445 147.352 211.969C147.352 214.523 148.766 216.141 151.094 216.141C152.867 216.141 154.242 215.094 154.477 213.672H153.141ZM151.008 208.914C152.289 208.914 153.141 209.883 153.172 211.242H148.758C148.844 209.891 149.734 208.914 151.008 208.914ZM161.344 213.672C161.117 214.438 160.359 214.961 159.328 214.961C157.867 214.961 156.953 213.938 156.953 212.383V212.305H162.781V211.789C162.781 209.328 161.43 207.734 159.234 207.734C156.992 207.734 155.555 209.445 155.555 211.969C155.555 214.523 156.969 216.141 159.297 216.141C161.07 216.141 162.445 215.094 162.68 213.672H161.344ZM159.211 208.914C160.492 208.914 161.344 209.883 161.375 211.242H156.961C157.047 209.891 157.938 208.914 159.211 208.914ZM164.156 216H165.516V211.219C165.516 209.844 166.352 208.938 167.633 208.938C168.883 208.938 169.5 209.656 169.5 210.969V216H170.859V210.727C170.859 208.883 169.828 207.734 168.047 207.734C166.789 207.734 165.922 208.297 165.469 209.172H165.438V207.875H164.156V216ZM179.82 207.734C178.641 207.734 177.695 208.336 177.195 209.25H177.164V207.875H175.875V218.711H177.234V214.68H177.266C177.75 215.57 178.688 216.141 179.852 216.141C181.898 216.141 183.297 214.484 183.297 211.938C183.297 209.391 181.891 207.734 179.82 207.734ZM179.555 214.945C178.164 214.945 177.227 213.75 177.227 211.938C177.227 210.133 178.164 208.93 179.555 208.93C181 208.93 181.906 210.102 181.906 211.938C181.906 213.781 181 214.945 179.555 214.945ZM191.344 207.875H189.984V212.648C189.984 214.031 189.188 214.938 187.867 214.938C186.609 214.938 185.992 214.227 185.992 212.906V207.875H184.633V213.148C184.633 214.992 185.672 216.141 187.445 216.141C188.695 216.141 189.539 215.617 190.023 214.68H190.055V216H191.344V207.875ZM197.148 216.141C199.227 216.141 200.602 214.492 200.602 211.938C200.602 209.391 199.219 207.734 197.172 207.734C196.023 207.734 195.078 208.305 194.57 209.234H194.539V204.727H193.18V216H194.477V214.625H194.508C195.031 215.562 195.961 216.141 197.148 216.141ZM196.883 208.93C198.32 208.93 199.211 210.094 199.211 211.938C199.211 213.797 198.32 214.945 196.883 214.945C195.508 214.945 194.531 213.75 194.531 211.938C194.531 210.133 195.508 208.93 196.883 208.93ZM202.055 216H203.414V204.727H202.055V216ZM206 206.43C206.477 206.43 206.852 206.047 206.852 205.578C206.852 205.102 206.477 204.727 206 204.727C205.531 204.727 205.148 205.102 205.148 205.578C205.148 206.047 205.531 206.43 206 206.43ZM205.32 216H206.68V207.875H205.32V216ZM208.375 210.117C208.375 211.289 209.117 212 210.648 212.367L211.938 212.68C212.867 212.906 213.188 213.242 213.188 213.828C213.188 214.562 212.508 215.031 211.406 215.031C210.305 215.031 209.68 214.586 209.516 213.656H208.156C208.312 215.18 209.5 216.141 211.406 216.141C213.219 216.141 214.555 215.141 214.555 213.727C214.555 212.562 213.961 211.922 212.32 211.523L211.031 211.211C210.125 210.992 209.711 210.609 209.711 210.047C209.711 209.336 210.367 208.844 211.359 208.844C212.359 208.844 212.984 209.367 213.086 210.219H214.383C214.328 208.781 213.141 207.734 211.359 207.734C209.602 207.734 208.375 208.727 208.375 210.117ZM216.039 216H217.398V211.266C217.398 209.859 218.234 208.938 219.586 208.938C220.859 208.938 221.508 209.711 221.508 211V216H222.867V210.75C222.867 208.938 221.789 207.734 220.008 207.734C218.773 207.734 217.883 208.266 217.43 209.172H217.398V204.727H216.039V216ZM229.984 213.672C229.758 214.438 229 214.961 227.969 214.961C226.508 214.961 225.594 213.938 225.594 212.383V212.305H231.422V211.789C231.422 209.328 230.07 207.734 227.875 207.734C225.633 207.734 224.195 209.445 224.195 211.969C224.195 214.523 225.609 216.141 227.938 216.141C229.711 216.141 231.086 215.094 231.32 213.672H229.984ZM227.852 208.914C229.133 208.914 229.984 209.883 230.016 211.242H225.602C225.688 209.891 226.578 208.914 227.852 208.914ZM235.875 216.141C237.047 216.141 237.977 215.562 238.5 214.625H238.523V216H239.82V204.727H238.461V209.195H238.43C237.945 208.305 237.008 207.734 235.844 207.734C233.797 207.734 232.398 209.391 232.398 211.938C232.398 214.484 233.805 216.141 235.875 216.141ZM236.133 208.93C237.531 208.93 238.469 210.125 238.469 211.938C238.469 213.758 237.531 214.945 236.133 214.945C234.695 214.945 233.789 213.781 233.789 211.938C233.789 210.102 234.695 208.93 236.133 208.93Z" fill="black"/>
</svg>
