<svg width="369" height="360" viewBox="0 0 369 360" fill="none" xmlns="http://www.w3.org/2000/svg">
    <rect width="168" height="360" fill="#EDF1F5"/>
    <path d="M369 57L186.5 57L201 85L186.5 113H369V57Z" fill="#7833FF"/>
    <path d="M369 121L186.5 121L201 149L186.5 177H369V121Z" fill="#7833FF"/>
    <path d="M369 185L186.5 185L201 213L186.5 241H369V185Z" fill="#7833FF"/>
    <path d="M369 249L186.5 249L201 277L186.5 305H369V249Z" fill="#7833FF"/>
    <g filter="url(#filter0_d_4_1499)">
        <path d="M35 57H188.3L203 85L188.3 113H35V57Z" fill="white"/>
        <path d="M36 58H187.696L201.871 85L187.696 112H36V58Z" stroke="#7833FF" stroke-width="2"/>
    </g>
    <path d="M66.14 86.76H62.76V84.46H68.44V90.26C67.84 90.86 67.04 91.34 66.04 91.7C65.04 92.0467 64.0933 92.22 63.2 92.22C60.9333 92.22 59.1467 91.5667 57.84 90.26C56.5467 88.9667 55.9 87.2133 55.9 85C55.9 82.9467 56.54 81.2333 57.82 79.86C59.1 78.4733 60.7867 77.78 62.88 77.78C64.6667 77.78 66.1667 78.2533 67.38 79.2L66.34 81.16C65.9933 80.8267 65.5333 80.5667 64.96 80.38C64.3867 80.18 63.7933 80.08 63.18 80.08C61.78 80.08 60.6533 80.52 59.8 81.4C58.9333 82.2667 58.5 83.4667 58.5 85C58.5 86.48 58.9333 87.6733 59.8 88.58C60.6533 89.4733 61.8 89.92 63.24 89.92C63.7467 89.92 64.2933 89.8267 64.88 89.64C65.4667 89.44 65.8867 89.2133 66.14 88.96V86.76ZM79.7713 92H71.4713V78H79.5713V80.3H73.9313V83.78H78.9713V86.08H73.9313V89.7H79.7713V92ZM85.7752 80.3H81.2352V78H92.7752V80.3H88.2352V92H85.7752V80.3Z" fill="#7833FF"/>
    <g filter="url(#filter1_d_4_1499)">
        <path d="M35 121H188.3L203 149L188.3 177H35V121Z" fill="white"/>
        <path d="M36 122H187.696L201.871 149L187.696 176H36V122Z" stroke="#7833FF" stroke-width="2"/>
    </g>
    <path d="M59.4 150.94V156H56.94V142C57.5267 142 58.16 141.993 58.84 141.98C59.5333 141.967 60.2267 141.96 60.92 141.96C61.9067 141.96 62.76 142.087 63.48 142.34C64.2133 142.58 64.78 142.92 65.18 143.36C65.58 143.787 65.8733 144.26 66.06 144.78C66.2467 145.287 66.34 145.847 66.34 146.46C66.34 147.727 65.8867 148.8 64.98 149.68C64.0867 150.56 62.8333 151 61.22 151C60.4067 151 59.8 150.98 59.4 150.94ZM61.16 144.26L59.4 144.3V148.6C60.1067 148.667 60.6867 148.7 61.14 148.7C61.9267 148.7 62.5533 148.507 63.02 148.12C63.5 147.733 63.74 147.173 63.74 146.44C63.74 144.987 62.88 144.26 61.16 144.26ZM67.8727 149C67.8727 146.96 68.5527 145.247 69.9127 143.86C71.2993 142.473 73.046 141.78 75.1527 141.78C77.2593 141.78 78.9993 142.447 80.3727 143.78C81.7593 145.127 82.4527 146.867 82.4527 149C82.4527 151.093 81.7593 152.82 80.3727 154.18C78.986 155.54 77.246 156.22 75.1527 156.22C73.046 156.22 71.306 155.553 69.9327 154.22C68.5593 152.887 67.8727 151.147 67.8727 149ZM70.4727 149C70.4727 150.413 70.9193 151.587 71.8127 152.52C72.706 153.453 73.8193 153.92 75.1527 153.92C76.5927 153.92 77.7327 153.453 78.5727 152.52C79.426 151.587 79.8527 150.413 79.8527 149C79.8527 147.573 79.3993 146.393 78.4927 145.46C77.586 144.54 76.4727 144.08 75.1527 144.08C73.806 144.08 72.686 144.54 71.7927 145.46C70.9127 146.38 70.4727 147.56 70.4727 149ZM90.9194 152.28C90.9194 151.853 90.7594 151.48 90.4394 151.16C90.1327 150.827 89.746 150.56 89.2794 150.36C88.8127 150.147 88.2994 149.907 87.7394 149.64C87.1927 149.36 86.686 149.073 86.2194 148.78C85.7527 148.473 85.3594 148.053 85.0394 147.52C84.7327 146.973 84.5794 146.347 84.5794 145.64C84.5794 144.56 84.9727 143.647 85.7594 142.9C86.5727 142.153 87.6327 141.78 88.9394 141.78C90.7127 141.78 92.046 142.28 92.9394 143.28L91.6194 145.12C90.9127 144.427 90.086 144.08 89.1394 144.08C88.5394 144.08 88.0594 144.22 87.6994 144.5C87.3527 144.78 87.1794 145.153 87.1794 145.62C87.1794 145.86 87.226 146.087 87.3194 146.3C87.4127 146.5 87.5127 146.667 87.6194 146.8C87.7394 146.933 87.926 147.08 88.1794 147.24C88.446 147.4 88.6527 147.52 88.7994 147.6C88.9594 147.667 89.2194 147.78 89.5794 147.94C89.9394 148.1 90.1927 148.213 90.3394 148.28C90.926 148.547 91.4394 148.827 91.8794 149.12C92.3727 149.413 92.766 149.833 93.0594 150.38C93.366 150.927 93.5194 151.553 93.5194 152.26C93.5194 153.433 93.0727 154.387 92.1794 155.12C91.286 155.853 90.1727 156.22 88.8394 156.22C87.906 156.22 86.9794 156.027 86.0594 155.64C85.1794 155.24 84.5794 154.7 84.2594 154.02L85.6594 152.34C86.0327 152.833 86.5127 153.22 87.0994 153.5C87.6994 153.78 88.2927 153.92 88.8794 153.92C89.4927 153.92 89.986 153.773 90.3594 153.48C90.7327 153.187 90.9194 152.787 90.9194 152.28ZM99.1541 144.3H94.6141V142H106.154V144.3H101.614V156H99.1541V144.3Z" fill="#7833FF"/>
    <g filter="url(#filter2_d_4_1499)">
        <path d="M35 185H188.3L203 213L188.3 241H35V185Z" fill="white"/>
        <path d="M36 186H187.696L201.871 213L187.696 240H36V186Z" stroke="#7833FF" stroke-width="2"/>
    </g>
    <path d="M59.4 214.94V220H56.94V206C57.5267 206 58.16 205.993 58.84 205.98C59.5333 205.967 60.2267 205.96 60.92 205.96C61.9067 205.96 62.76 206.087 63.48 206.34C64.2133 206.58 64.78 206.92 65.18 207.36C65.58 207.787 65.8733 208.26 66.06 208.78C66.2467 209.287 66.34 209.847 66.34 210.46C66.34 211.727 65.8867 212.8 64.98 213.68C64.0867 214.56 62.8333 215 61.22 215C60.4067 215 59.8 214.98 59.4 214.94ZM61.16 208.26L59.4 208.3V212.6C60.1067 212.667 60.6867 212.7 61.14 212.7C61.9267 212.7 62.5533 212.507 63.02 212.12C63.5 211.733 63.74 211.173 63.74 210.44C63.74 208.987 62.88 208.26 61.16 208.26ZM78.0661 206H80.5061V214.2C80.5061 216.213 79.9794 217.72 78.9261 218.72C77.8594 219.72 76.5328 220.22 74.9461 220.22C73.1461 220.22 71.6994 219.693 70.6061 218.64C69.5261 217.587 68.9861 216.06 68.9861 214.06V206H71.4461V213.54C71.4461 214.927 71.7394 216.007 72.3261 216.78C72.9261 217.54 73.7994 217.92 74.9461 217.92C77.0261 217.92 78.0661 216.513 78.0661 213.7V206ZM87.0056 208.3H82.4656V206H94.0056V208.3H89.4656V220H87.0056V208.3ZM95.3792 224.16L93.5992 223.5L100.199 205.78L101.979 206.44L95.3792 224.16ZM105.787 214.94V220H103.327V206C103.913 206 104.547 205.993 105.227 205.98C105.92 205.967 106.613 205.96 107.307 205.96C108.293 205.96 109.147 206.087 109.867 206.34C110.6 206.58 111.167 206.92 111.567 207.36C111.967 207.787 112.26 208.26 112.447 208.78C112.633 209.287 112.727 209.847 112.727 210.46C112.727 211.727 112.273 212.8 111.367 213.68C110.473 214.56 109.22 215 107.607 215C106.793 215 106.187 214.98 105.787 214.94ZM107.547 208.26L105.787 208.3V212.6C106.493 212.667 107.073 212.7 107.527 212.7C108.313 212.7 108.94 212.507 109.407 212.12C109.887 211.733 110.127 211.173 110.127 210.44C110.127 208.987 109.267 208.26 107.547 208.26ZM114.964 220H112.484L118.404 205.96H120.564L126.484 220H123.864L122.404 216.42H116.424L114.964 220ZM121.464 214.12L119.424 209.14L117.364 214.12H121.464ZM130.15 208.3H125.61V206H137.15V208.3H132.61V220H130.15V208.3ZM148.359 216.8L149.299 218.64C148.859 219.107 148.226 219.487 147.399 219.78C146.586 220.073 145.726 220.22 144.819 220.22C142.686 220.22 140.946 219.56 139.599 218.24C138.266 216.92 137.599 215.173 137.599 213C137.599 210.92 138.233 209.193 139.499 207.82C140.753 206.46 142.506 205.78 144.759 205.78C146.546 205.78 147.966 206.253 149.019 207.2L147.919 209.02C146.973 208.393 145.919 208.08 144.759 208.08C143.426 208.08 142.333 208.527 141.479 209.42C140.626 210.313 140.199 211.507 140.199 213C140.199 214.467 140.646 215.653 141.539 216.56C142.446 217.467 143.613 217.92 145.039 217.92C146.266 217.92 147.373 217.547 148.359 216.8ZM163.045 220H160.605V214.02H154.205V220H151.745V206H154.205V211.72H160.605V206H163.045V220Z" fill="#7833FF"/>
    <g filter="url(#filter3_d_4_1499)">
        <path d="M35 249H188.3L203 277L188.3 305H35V249Z" fill="white"/>
        <path d="M36 250H187.696L201.871 277L187.696 304H36V250Z" stroke="#7833FF" stroke-width="2"/>
    </g>
    <path d="M57.22 284H56.94V270H57.2C57.7867 270 58.4067 269.993 59.06 269.98C60.3667 269.953 61.0333 269.94 61.06 269.94C63.78 269.94 65.7933 270.633 67.1 272.02C68.3133 273.313 68.92 274.927 68.92 276.86C68.92 278.94 68.22 280.66 66.82 282.02C65.4333 283.367 63.46 284.04 60.9 284.04C60.3667 284.04 59.8067 284.033 59.22 284.02C58.6467 284.007 57.98 284 57.22 284ZM61.02 272.24C60.5 272.24 59.96 272.26 59.4 272.3V281.7C60.0133 281.727 60.54 281.74 60.98 281.74C62.6467 281.74 63.9533 281.3 64.9 280.42C65.8467 279.54 66.32 278.353 66.32 276.86C66.32 275.433 65.8467 274.307 64.9 273.48C63.9667 272.653 62.6733 272.24 61.02 272.24ZM80.0642 284H71.7642V270H79.8642V272.3H74.2242V275.78H79.2642V278.08H74.2242V281.7H80.0642V284ZM92.0281 284H83.2681V270H85.7281V281.7H92.0281V284ZM102.506 284H94.2056V270H102.306V272.3H96.6656V275.78H101.706V278.08H96.6656V281.7H102.506V284ZM108.51 272.3H103.97V270H115.51V272.3H110.97V284H108.51V272.3ZM125.943 284H117.643V270H125.743V272.3H120.103V275.78H125.143V278.08H120.103V281.7H125.943V284Z" fill="#7833FF"/>
    <path d="M238.56 88.28C238.56 89.34 237.68 89.92 236.52 89.92C235.44 89.92 234.12 89.4 233.3 88.34L231.9 90.02C232.58 91.44 234.68 92.22 236.48 92.22C239.1 92.22 241.16 90.62 241.16 88.26C241.16 83.6 234.82 84.52 234.82 81.62C234.82 80.7 235.56 80.08 236.78 80.08C237.9 80.08 238.58 80.46 239.26 81.12L240.58 79.28C239.74 78.36 238.3 77.78 236.58 77.78C233.86 77.78 232.22 79.54 232.22 81.64C232.22 86.2 238.56 85.52 238.56 88.28ZM243.335 92H245.635V85.82C246.155 85.3 246.875 85 247.615 85C248.875 85 249.615 85.74 249.615 87.08V92H251.915V86.78C251.915 83.96 250.415 82.84 248.215 82.84C247.175 82.84 246.215 83.26 245.635 83.82V78H243.335V92ZM253.693 87.5C253.693 90.2 255.613 92.22 258.593 92.22C261.573 92.22 263.493 90.2 263.493 87.5C263.493 84.8 261.573 82.78 258.593 82.78C255.613 82.78 253.693 84.8 253.693 87.5ZM256.153 87.5C256.153 85.94 257.233 84.94 258.593 84.94C259.993 84.94 261.053 85.98 261.053 87.5C261.053 89.06 260.013 90.08 258.593 90.08C257.193 90.08 256.153 89 256.153 87.5ZM278.347 83H276.027L274.707 87.82C274.607 88.26 274.507 88.7 274.427 89.12C274.327 88.7 274.227 88.28 274.087 87.88L272.347 83H270.307L268.627 87.9C268.447 88.4 268.387 88.72 268.287 89.1C268.207 88.68 268.167 88.34 268.027 87.9L266.587 83H264.127L267.047 92.04H269.007L270.907 87.08C271.047 86.72 271.147 86.38 271.227 85.98C271.327 86.32 271.387 86.7 271.527 87.04L273.447 92.04H275.507L278.347 83Z" fill="white"/>
    <path d="M242.66 152.8C241.7 153.54 240.52 153.92 239.34 153.92C236.48 153.92 234.5 151.92 234.5 149C234.5 145.96 236.46 144.08 239.06 144.08C240.46 144.08 241.38 144.46 242.22 145.02L243.32 143.2C242.4 142.36 240.88 141.78 239.06 141.78C234.44 141.78 231.9 144.98 231.9 149C231.9 153.36 234.84 156.22 239.12 156.22C240.94 156.22 242.72 155.58 243.6 154.64L242.66 152.8ZM245.385 156H247.685V149.96C247.945 149.44 248.365 149 249.165 149C249.645 149 249.885 149.08 250.325 149.34L251.145 147.18C250.845 146.96 250.485 146.84 249.745 146.84C248.665 146.84 248.105 147.3 247.685 147.88V147H245.385V156ZM259.516 153.48C258.996 153.9 258.076 154.3 256.976 154.3C255.556 154.3 254.476 153.56 254.276 152.2H260.776C260.876 151.86 260.916 151.52 260.916 150.96C260.916 148.44 258.976 146.78 256.656 146.78C253.696 146.78 251.896 148.88 251.896 151.5C251.896 154.34 253.836 156.22 256.736 156.22C257.996 156.22 259.276 155.86 260.176 155.1L259.516 153.48ZM256.556 148.7C257.876 148.7 258.636 149.56 258.616 150.66H254.196C254.436 149.48 255.176 148.7 256.556 148.7ZM263.468 149.32C264.128 149.02 264.788 148.7 265.828 148.7C267.168 148.7 267.568 149.52 267.508 151.02C267.068 150.7 266.268 150.44 265.468 150.44C263.648 150.44 262.188 151.38 262.188 153.36C262.188 155.1 263.368 156.12 265.008 156.12C266.228 156.12 267.188 155.64 267.668 154.96V156H269.668V150.52C269.668 148.14 268.728 146.78 266.068 146.78C264.888 146.78 263.668 147.18 262.888 147.64L263.468 149.32ZM265.768 154.18C265.048 154.18 264.488 153.8 264.488 153.12C264.488 152.36 265.168 152 265.928 152C266.588 152 267.108 152.14 267.508 152.44V153.36C267.228 153.76 266.728 154.18 265.768 154.18ZM271.826 152.58C271.826 154.88 272.586 156.2 274.626 156.2C275.786 156.2 276.746 155.76 277.286 155.32L276.586 153.54C276.266 153.78 275.826 154.06 275.206 154.06C274.446 154.06 274.126 153.42 274.126 152.44V149.16H277.026V147H274.126V144.5H271.826V152.58ZM285.942 153.48C285.422 153.9 284.502 154.3 283.402 154.3C281.982 154.3 280.902 153.56 280.702 152.2H287.202C287.302 151.86 287.342 151.52 287.342 150.96C287.342 148.44 285.402 146.78 283.082 146.78C280.122 146.78 278.322 148.88 278.322 151.5C278.322 154.34 280.262 156.22 283.162 156.22C284.422 156.22 285.702 155.86 286.602 155.1L285.942 153.48ZM282.982 148.7C284.302 148.7 285.062 149.56 285.042 150.66H280.622C280.862 149.48 281.602 148.7 282.982 148.7Z" fill="white"/>
    <path d="M242.66 216.8C241.7 217.54 240.52 217.92 239.34 217.92C236.48 217.92 234.5 215.92 234.5 213C234.5 209.96 236.46 208.08 239.06 208.08C240.46 208.08 241.38 208.46 242.22 209.02L243.32 207.2C242.4 206.36 240.88 205.78 239.06 205.78C234.44 205.78 231.9 208.98 231.9 213C231.9 217.36 234.84 220.22 239.12 220.22C240.94 220.22 242.72 219.58 243.6 218.64L242.66 216.8ZM245.385 220H247.685V213.96C247.945 213.44 248.365 213 249.165 213C249.645 213 249.885 213.08 250.325 213.34L251.145 211.18C250.845 210.96 250.485 210.84 249.745 210.84C248.665 210.84 248.105 211.3 247.685 211.88V211H245.385V220ZM259.516 217.48C258.996 217.9 258.076 218.3 256.976 218.3C255.556 218.3 254.476 217.56 254.276 216.2H260.776C260.876 215.86 260.916 215.52 260.916 214.96C260.916 212.44 258.976 210.78 256.656 210.78C253.696 210.78 251.896 212.88 251.896 215.5C251.896 218.34 253.836 220.22 256.736 220.22C257.996 220.22 259.276 219.86 260.176 219.1L259.516 217.48ZM256.556 212.7C257.876 212.7 258.636 213.56 258.616 214.66H254.196C254.436 213.48 255.176 212.7 256.556 212.7ZM263.468 213.32C264.128 213.02 264.788 212.7 265.828 212.7C267.168 212.7 267.568 213.52 267.508 215.02C267.068 214.7 266.268 214.44 265.468 214.44C263.648 214.44 262.188 215.38 262.188 217.36C262.188 219.1 263.368 220.12 265.008 220.12C266.228 220.12 267.188 219.64 267.668 218.96V220H269.668V214.52C269.668 212.14 268.728 210.78 266.068 210.78C264.888 210.78 263.668 211.18 262.888 211.64L263.468 213.32ZM265.768 218.18C265.048 218.18 264.488 217.8 264.488 217.12C264.488 216.36 265.168 216 265.928 216C266.588 216 267.108 216.14 267.508 216.44V217.36C267.228 217.76 266.728 218.18 265.768 218.18ZM271.826 216.58C271.826 218.88 272.586 220.2 274.626 220.2C275.786 220.2 276.746 219.76 277.286 219.32L276.586 217.54C276.266 217.78 275.826 218.06 275.206 218.06C274.446 218.06 274.126 217.42 274.126 216.44V213.16H277.026V211H274.126V208.5H271.826V216.58ZM285.942 217.48C285.422 217.9 284.502 218.3 283.402 218.3C281.982 218.3 280.902 217.56 280.702 216.2H287.202C287.302 215.86 287.342 215.52 287.342 214.96C287.342 212.44 285.402 210.78 283.082 210.78C280.122 210.78 278.322 212.88 278.322 215.5C278.322 218.34 280.262 220.22 283.162 220.22C284.422 220.22 285.702 219.86 286.602 219.1L285.942 217.48ZM282.982 212.7C284.302 212.7 285.062 213.56 285.042 214.66H280.622C280.862 213.48 281.602 212.7 282.982 212.7Z" fill="white"/>
    <path d="M232.94 284H233.22C234.5 284 236.06 284.04 236.9 284.04C242.24 284.04 244.92 280.8 244.92 276.86C244.92 273.16 242.66 269.94 237.06 269.94C236.04 269.94 234.04 270 233.2 270H232.94V284ZM237.02 272.24C240.36 272.24 242.32 274.04 242.32 276.86C242.32 279.82 240.36 281.74 236.98 281.74C236.64 281.74 236.08 281.74 235.4 281.7V272.3C235.96 272.26 236.44 272.24 237.02 272.24ZM253.891 281.48C253.371 281.9 252.451 282.3 251.351 282.3C249.931 282.3 248.851 281.56 248.651 280.2H255.151C255.251 279.86 255.291 279.52 255.291 278.96C255.291 276.44 253.351 274.78 251.031 274.78C248.071 274.78 246.271 276.88 246.271 279.5C246.271 282.34 248.211 284.22 251.111 284.22C252.371 284.22 253.651 283.86 254.551 283.1L253.891 281.48ZM250.931 276.7C252.251 276.7 253.011 277.56 252.991 278.66H248.571C248.811 277.48 249.551 276.7 250.931 276.7ZM257.143 281.52C257.143 283.36 257.883 284.2 259.263 284.2C260.343 284.2 261.123 283.86 261.643 283.44L261.163 281.68C260.883 281.88 260.583 282.04 260.223 282.04C259.683 282.04 259.443 281.6 259.443 280.58V270H257.143V281.52ZM270.18 281.48C269.66 281.9 268.74 282.3 267.64 282.3C266.22 282.3 265.14 281.56 264.94 280.2H271.44C271.54 279.86 271.58 279.52 271.58 278.96C271.58 276.44 269.64 274.78 267.32 274.78C264.36 274.78 262.56 276.88 262.56 279.5C262.56 282.34 264.5 284.22 267.4 284.22C268.66 284.22 269.94 283.86 270.84 283.1L270.18 281.48ZM267.22 276.7C268.54 276.7 269.3 277.56 269.28 278.66H264.86C265.1 277.48 265.84 276.7 267.22 276.7ZM273.232 280.58C273.232 282.88 273.992 284.2 276.032 284.2C277.192 284.2 278.152 283.76 278.692 283.32L277.992 281.54C277.672 281.78 277.232 282.06 276.612 282.06C275.852 282.06 275.532 281.42 275.532 280.44V277.16H278.432V275H275.532V272.5H273.232V280.58ZM287.348 281.48C286.828 281.9 285.908 282.3 284.808 282.3C283.388 282.3 282.308 281.56 282.108 280.2H288.608C288.708 279.86 288.748 279.52 288.748 278.96C288.748 276.44 286.808 274.78 284.488 274.78C281.528 274.78 279.728 276.88 279.728 279.5C279.728 282.34 281.668 284.22 284.568 284.22C285.828 284.22 287.108 283.86 288.008 283.1L287.348 281.48ZM284.388 276.7C285.708 276.7 286.468 277.56 286.448 278.66H282.028C282.268 277.48 283.008 276.7 284.388 276.7Z" fill="white"/>
    <path d="M36.164 40H37.64V33.964L40.316 37.66H40.532L43.184 33.928V40H44.648V31.6H43.256L40.52 35.524L37.652 31.6H36.164V40ZM49.8604 40H54.8404V38.62H51.3364V36.448H54.3604V35.068H51.3364V32.98H54.7204V31.6H49.8604V40ZM58.5988 32.98H61.3228V40H62.7988V32.98H65.5228V31.6H58.5988V32.98ZM68.6722 35.8C68.6722 38.416 70.5442 40.132 73.0402 40.132C75.5362 40.132 77.4202 38.32 77.4202 35.8C77.4202 33.184 75.5362 31.468 73.0402 31.468C70.4602 31.468 68.6722 33.364 68.6722 35.8ZM70.2322 35.8C70.2322 34.06 71.4322 32.848 73.0402 32.848C74.6242 32.848 75.8602 34.06 75.8602 35.8C75.8602 37.456 74.8042 38.752 73.0402 38.752C71.4682 38.752 70.2322 37.48 70.2322 35.8ZM80.6718 41.5H82.0518V40H87.9198V41.5H89.2998V38.62H88.1598V31.6H82.9518L82.8678 33.28C82.7238 36.412 81.9198 38.188 81.5718 38.62H80.6718V41.5ZM84.2478 34.444L84.3798 32.98H86.6958V38.62H83.1918C83.4918 38.248 84.0918 36.616 84.2478 34.444ZM100.218 40H101.682V31.6H100.218V40ZM95.9341 35.8C96.9661 35.8 97.5661 36.268 97.5661 37.168C97.5661 38.152 96.9901 38.644 95.9101 38.644C95.6221 38.644 95.3821 38.62 95.1181 38.608V35.86C95.4541 35.824 95.7061 35.8 95.9341 35.8ZM95.1181 31.6H93.6421V40C94.1341 40 94.9381 40.024 95.7301 40.024C97.8781 40.024 99.1261 38.908 99.1261 37.132C99.1261 35.488 98.1301 34.42 96.0541 34.42C95.8141 34.42 95.4901 34.432 95.1181 34.48V31.6Z" fill="#10162F"/>
    <path d="M207.296 40.096H208.772V38.98C211.064 38.968 212.648 37.78 212.648 35.68C212.648 33.616 211.064 32.416 208.772 32.38V31.504H207.296V32.38C204.992 32.416 203.42 33.58 203.42 35.68C203.42 37.804 204.98 38.98 207.296 38.98V40.096ZM211.088 35.68C211.088 36.964 210.296 37.612 208.772 37.624V33.736C210.344 33.76 211.088 34.552 211.088 35.68ZM204.98 35.68C204.98 34.54 205.76 33.748 207.296 33.736V37.624C205.82 37.612 204.98 36.94 204.98 35.68ZM223.612 31.6H222.124L220.12 36.292L217.372 31.6H215.704L219.412 37.744L219.292 38.032C219.124 38.392 218.86 38.62 218.464 38.62C218.224 38.62 218.068 38.572 217.84 38.416L217.324 39.664C217.552 39.844 218.044 40 218.476 40C219.52 40 220.18 39.328 220.756 38.044L223.612 31.6ZM233.111 40H234.575V31.6H233.111V35.032H229.271V31.6H227.795V40H229.271V36.412H233.111V40ZM239.781 40H241.257V35.668L244.689 40H246.561L242.889 35.512L246.345 31.6H244.569L241.257 35.584V31.6H239.781V40ZM250.723 40H257.119V41.5H258.499V38.62H257.359V31.6H255.883V38.62H252.199V31.6H250.723V40ZM264.133 40L268.537 34.036V40H270.013V31.6H268.717L264.313 37.576V31.6H262.837V40H264.133ZM276.517 40L280.921 34.036V40H282.397V31.6H281.101L276.697 37.576V31.6H275.221V40H276.517Z" fill="#10162F"/>
    <defs>
        <filter id="filter0_d_4_1499" x="31" y="57" width="172" height="60" filterUnits="userSpaceOnUse" color-interpolation-filters="sRGB">
            <feFlood flood-opacity="0" result="BackgroundImageFix"/>
            <feColorMatrix in="SourceAlpha" type="matrix" values="0 0 0 0 0 0 0 0 0 0 0 0 0 0 0 0 0 0 127 0" result="hardAlpha"/>
            <feOffset dx="-4" dy="4"/>
            <feComposite in2="hardAlpha" operator="out"/>
            <feColorMatrix type="matrix" values="0 0 0 0 0.470588 0 0 0 0 0.2 0 0 0 0 1 0 0 0 1 0"/>
            <feBlend mode="normal" in2="BackgroundImageFix" result="effect1_dropShadow_4_1499"/>
            <feBlend mode="normal" in="SourceGraphic" in2="effect1_dropShadow_4_1499" result="shape"/>
        </filter>
        <filter id="filter1_d_4_1499" x="31" y="121" width="172" height="60" filterUnits="userSpaceOnUse" color-interpolation-filters="sRGB">
            <feFlood flood-opacity="0" result="BackgroundImageFix"/>
            <feColorMatrix in="SourceAlpha" type="matrix" values="0 0 0 0 0 0 0 0 0 0 0 0 0 0 0 0 0 0 127 0" result="hardAlpha"/>
            <feOffset dx="-4" dy="4"/>
            <feComposite in2="hardAlpha" operator="out"/>
            <feColorMatrix type="matrix" values="0 0 0 0 0.470588 0 0 0 0 0.2 0 0 0 0 1 0 0 0 1 0"/>
            <feBlend mode="normal" in2="BackgroundImageFix" result="effect1_dropShadow_4_1499"/>
            <feBlend mode="normal" in="SourceGraphic" in2="effect1_dropShadow_4_1499" result="shape"/>
        </filter>
        <filter id="filter2_d_4_1499" x="31" y="185" width="172" height="60" filterUnits="userSpaceOnUse" color-interpolation-filters="sRGB">
            <feFlood flood-opacity="0" result="BackgroundImageFix"/>
            <feColorMatrix in="SourceAlpha" type="matrix" values="0 0 0 0 0 0 0 0 0 0 0 0 0 0 0 0 0 0 127 0" result="hardAlpha"/>
            <feOffset dx="-4" dy="4"/>
            <feComposite in2="hardAlpha" operator="out"/>
            <feColorMatrix type="matrix" values="0 0 0 0 0.470588 0 0 0 0 0.2 0 0 0 0 1 0 0 0 1 0"/>
            <feBlend mode="normal" in2="BackgroundImageFix" result="effect1_dropShadow_4_1499"/>
            <feBlend mode="normal" in="SourceGraphic" in2="effect1_dropShadow_4_1499" result="shape"/>
        </filter>
        <filter id="filter3_d_4_1499" x="31" y="249" width="172" height="60" filterUnits="userSpaceOnUse" color-interpolation-filters="sRGB">
            <feFlood flood-opacity="0" result="BackgroundImageFix"/>
            <feColorMatrix in="SourceAlpha" type="matrix" values="0 0 0 0 0 0 0 0 0 0 0 0 0 0 0 0 0 0 127 0" result="hardAlpha"/>
            <feOffset dx="-4" dy="4"/>
            <feComposite in2="hardAlpha" operator="out"/>
            <feColorMatrix type="matrix" values="0 0 0 0 0.470588 0 0 0 0 0.2 0 0 0 0 1 0 0 0 1 0"/>
            <feBlend mode="normal" in2="BackgroundImageFix" result="effect1_dropShadow_4_1499"/>
            <feBlend mode="normal" in="SourceGraphic" in2="effect1_dropShadow_4_1499" result="shape"/>
        </filter>
    </defs>
</svg>
