<svg width="600" height="600" viewBox="0 0 600 600" fill="none" xmlns="http://www.w3.org/2000/svg">
    <rect width="86" height="156.714" transform="matrix(0.866025 0.5 -0.866025 0.5 408.719 285)" fill="#73FFE5"/>
    <rect width="86" height="156.714" transform="matrix(0.866025 0.5 -0.866025 0.5 408.719 285)" fill="#3C4257"/>
    <path d="M273 363.357L347.478 406.357L347.478 476.182L273 433.182L273 398.27L273 363.357Z" fill="#E1E8FF"/>
    <path d="M483 327.838L347 406.358L347 476.182L483 397.663L483 362.75L483 327.838Z" fill="#FBE582"/>
    <path d="M369.218 438.297L374.81 435.068C379.204 432.531 381.792 427.885 381.792 422.518L381.792 422.494C381.792 417.139 379.194 415.627 374.81 418.158L369.218 421.387L369.218 438.297ZM372.283 433.598L372.283 422.535L374.444 421.287C377.134 419.734 378.666 420.783 378.666 424.311L378.666 424.334C378.666 427.99 377.185 430.768 374.444 432.35L372.283 433.598ZM388.47 427.439C391.576 425.646 393.078 422.658 393.412 420.613L393.443 420.467L390.723 422.037L390.703 422.119C390.49 422.945 389.749 424.146 388.531 424.85C387.019 425.723 386.075 425.096 386.044 423.109L393.534 418.785L393.534 417.73C393.534 413.934 391.535 412.592 388.348 414.432C385.162 416.271 383.122 420.004 383.122 424L383.122 424.012C383.122 428.031 385.141 429.361 388.47 427.439ZM388.399 416.957C389.627 416.248 390.51 416.641 390.693 418.27L386.075 420.936C386.268 419.125 387.181 417.66 388.399 416.957ZM395.138 423.332L398.101 421.621L398.101 404.711L395.138 406.422L395.138 423.332ZM405.053 417.865C408.159 416.072 409.661 413.084 409.995 411.039L410.026 410.893L407.306 412.463L407.286 412.545C407.073 413.371 406.332 414.572 405.114 415.275C403.602 416.148 402.658 415.521 402.627 413.535L410.117 409.211L410.117 408.156C410.117 404.359 408.118 403.018 404.931 404.857C401.745 406.697 399.705 410.43 399.705 414.426L399.705 414.438C399.705 418.457 401.724 419.787 405.053 417.865ZM404.982 407.383C406.21 406.674 407.093 407.066 407.276 408.695L402.658 411.361C402.851 409.551 403.764 408.086 404.982 407.383ZM415.973 411.561C416.592 411.203 417.069 410.857 417.404 410.605L417.404 408.098C417.221 408.227 417.029 408.373 416.765 408.525C415.872 409.041 415.415 408.906 415.415 407.734L415.415 401.641L417.404 400.492L417.404 397.914L415.415 399.062L415.415 395.992L412.421 397.721L412.421 400.791L410.909 401.664L410.909 404.242L412.421 403.369L412.421 409.838C412.421 412.533 413.558 412.955 415.973 411.561ZM423.828 407.025C426.934 405.232 428.436 402.244 428.771 400.199L428.801 400.053L426.081 401.623L426.061 401.705C425.848 402.531 425.107 403.732 423.889 404.436C422.377 405.309 421.433 404.682 421.403 402.695L428.892 398.371L428.892 397.316C428.892 393.52 426.893 392.178 423.706 394.018C420.52 395.857 418.48 399.59 418.48 403.586L418.48 403.598C418.48 407.617 420.499 408.947 423.828 407.025ZM423.757 396.543C424.985 395.834 425.868 396.227 426.051 397.855L421.433 400.521C421.626 398.711 422.539 397.246 423.757 396.543Z" fill="#1B2036"/>
    <rect width="86" height="156.714" transform="matrix(0.866025 0.5 -0.866025 0.5 408.719 195)" fill="#73FFE5"/>
    <rect width="86" height="156.714" transform="matrix(0.866025 0.5 -0.866025 0.5 408.719 195)" fill="#3C4257"/>
    <path d="M273 273.357L347.478 316.357L347.478 386.182L273 343.182L273 308.27L273 273.357Z" fill="#E1E8FF"/>
    <path d="M483 237.838L347 316.358L347 386.182L483 307.663L483 272.75L483 237.838Z" fill="#FBE582"/>
    <path d="M375.733 344.828C379.275 342.783 381.843 338.734 382.127 334.973L382.137 334.838L379.153 336.561L379.133 336.689C378.737 338.922 377.499 340.809 375.733 341.828C373.389 343.182 371.887 341.846 371.887 338.283L371.887 338.271C371.887 334.732 373.389 331.686 375.733 330.332C377.56 329.277 378.758 329.805 379.103 331.469L379.143 331.645L382.127 329.922L382.117 329.822C381.833 326.4 379.285 325.281 375.733 327.332C371.461 329.799 368.761 334.639 368.761 340.088L368.761 340.1C368.761 345.549 371.451 347.301 375.733 344.828ZM383.781 339.889L386.745 338.178L386.745 331.146C386.745 329.318 387.597 327.818 389.059 326.975C389.485 326.729 389.891 326.564 390.134 326.541L390.134 323.529C389.911 323.588 389.607 323.705 389.282 323.893C388.013 324.625 387.13 326.037 386.806 327.771L386.745 327.807L386.745 325.615L383.781 327.326L383.781 339.889ZM395.939 333.127C399.045 331.334 400.547 328.346 400.882 326.301L400.912 326.154L398.192 327.725L398.172 327.807C397.959 328.633 397.218 329.834 396 330.537C394.488 331.41 393.544 330.783 393.514 328.797L401.004 324.473L401.004 323.418C401.004 319.621 399.004 318.279 395.818 320.119C392.631 321.959 390.591 325.691 390.591 329.688L390.591 329.699C390.591 333.719 392.611 335.049 395.939 333.127ZM395.868 322.645C397.096 321.936 397.979 322.328 398.162 323.957L393.544 326.623C393.737 324.812 394.651 323.348 395.868 322.645ZM405.774 327.391C407.205 326.564 408.362 325.111 408.981 323.465L409.041 323.43L409.041 325.305L412.005 323.594L412.005 314.98C412.005 312.449 410.188 311.822 407.377 313.445C404.505 315.104 402.78 317.764 402.617 320.178L402.607 320.324L405.317 318.76L405.337 318.643C405.479 317.752 406.149 316.768 407.255 316.129C408.412 315.461 409.041 315.789 409.041 316.902L409.041 317.676L406.352 319.416C403.653 321.174 402.12 323.395 402.12 325.68L402.12 325.703C402.12 327.918 403.592 328.65 405.774 327.391ZM405.053 323.834L405.053 323.811C405.053 322.92 405.652 322.012 406.799 321.268L409.041 319.809L409.041 320.711C409.041 322.023 408.067 323.57 406.738 324.338C405.713 324.93 405.053 324.76 405.053 323.834ZM418.246 320.248C418.865 319.891 419.342 319.545 419.677 319.293L419.677 316.785C419.495 316.914 419.302 317.061 419.038 317.213C418.145 317.729 417.688 317.594 417.688 316.422L417.688 310.328L419.677 309.18L419.677 306.602L417.688 307.75L417.688 304.68L414.694 306.408L414.694 309.479L413.182 310.352L413.182 312.93L414.694 312.057L414.694 318.525C414.694 321.221 415.831 321.643 418.246 320.248ZM426.102 315.713C429.207 313.92 430.709 310.932 431.044 308.887L431.074 308.74L428.355 310.311L428.334 310.393C428.121 311.219 427.38 312.42 426.162 313.123C424.65 313.996 423.706 313.369 423.676 311.383L431.166 307.059L431.166 306.004C431.166 302.207 429.166 300.865 425.98 302.705C422.793 304.545 420.753 308.277 420.753 312.273L420.753 312.285C420.753 316.305 422.773 317.635 426.102 315.713ZM426.03 305.23C427.258 304.521 428.141 304.914 428.324 306.543L423.706 309.209C423.899 307.398 424.813 305.934 426.03 305.23Z" fill="#1B2036"/>
    <rect width="86" height="156.714" transform="matrix(0.866025 0.5 -0.866025 0.5 408.719 106)" fill="#73FFE5"/>
    <rect width="86" height="156.714" transform="matrix(0.866025 0.5 -0.866025 0.5 408.719 106)" fill="#3C4257"/>
    <path d="M273 184.357L347.478 227.357L347.478 297.182L273 254.182L273 219.27L273 184.357Z" fill="#E1E8FF"/>
    <path d="M483 148.838L347 227.358L347 297.182L483 218.663L483 183.75L483 148.838Z" fill="#FBE582"/>
    <rect width="239.023" height="432" rx="20" transform="matrix(0.866025 -0.5 2.20305e-08 1 79 157)" fill="#73FFE5" fill-opacity="0.4"/>
    <path d="M375.733 255.828C379.275 253.783 381.843 249.734 382.127 245.973L382.137 245.838L379.153 247.561L379.133 247.689C378.737 249.922 377.499 251.809 375.733 252.828C373.389 254.182 371.887 252.846 371.887 249.283L371.887 249.271C371.887 245.732 373.389 242.686 375.733 241.332C377.56 240.277 378.758 240.805 379.103 242.469L379.143 242.645L382.127 240.922L382.117 240.822C381.833 237.4 379.285 236.281 375.733 238.332C371.461 240.799 368.761 245.639 368.761 251.088L368.761 251.1C368.761 256.549 371.451 258.301 375.733 255.828ZM383.781 250.889L386.745 249.178L386.745 242.146C386.745 240.318 387.597 238.818 389.059 237.975C389.485 237.729 389.891 237.564 390.134 237.541L390.134 234.529C389.911 234.588 389.607 234.705 389.282 234.893C388.013 235.625 387.13 237.037 386.806 238.771L386.745 238.807L386.745 236.615L383.781 238.326L383.781 250.889ZM395.939 244.127C399.045 242.334 400.547 239.346 400.882 237.301L400.912 237.154L398.192 238.725L398.172 238.807C397.959 239.633 397.218 240.834 396 241.537C394.488 242.41 393.544 241.783 393.514 239.797L401.004 235.473L401.004 234.418C401.004 230.621 399.004 229.279 395.818 231.119C392.631 232.959 390.591 236.691 390.591 240.688L390.591 240.699C390.591 244.719 392.611 246.049 395.939 244.127ZM395.868 233.645C397.096 232.936 397.979 233.328 398.162 234.957L393.544 237.623C393.737 235.812 394.651 234.348 395.868 233.645ZM405.774 238.391C407.205 237.564 408.362 236.111 408.981 234.465L409.041 234.43L409.041 236.305L412.005 234.594L412.005 225.98C412.005 223.449 410.188 222.822 407.377 224.445C404.505 226.104 402.78 228.764 402.617 231.178L402.607 231.324L405.317 229.76L405.337 229.643C405.479 228.752 406.149 227.768 407.255 227.129C408.412 226.461 409.041 226.789 409.041 227.902L409.041 228.676L406.352 230.416C403.653 232.174 402.12 234.395 402.12 236.68L402.12 236.703C402.12 238.918 403.592 239.65 405.774 238.391ZM405.053 234.834L405.053 234.811C405.053 233.92 405.652 233.012 406.799 232.268L409.041 230.809L409.041 231.711C409.041 233.023 408.067 234.57 406.738 235.338C405.713 235.93 405.053 235.76 405.053 234.834ZM418.246 231.248C418.865 230.891 419.342 230.545 419.677 230.293L419.677 227.785C419.495 227.914 419.302 228.061 419.038 228.213C418.145 228.729 417.688 228.594 417.688 227.422L417.688 221.328L419.677 220.18L419.677 217.602L417.688 218.75L417.688 215.68L414.694 217.408L414.694 220.479L413.182 221.352L413.182 223.93L414.694 223.057L414.694 229.525C414.694 232.221 415.831 232.643 418.246 231.248ZM426.102 226.713C429.207 224.92 430.709 221.932 431.044 219.887L431.074 219.74L428.355 221.311L428.334 221.393C428.121 222.219 427.38 223.42 426.162 224.123C424.65 224.996 423.706 224.369 423.676 222.383L431.166 218.059L431.166 217.004C431.166 213.207 429.166 211.865 425.98 213.705C422.793 215.545 420.753 219.277 420.753 223.273L420.753 223.285C420.753 227.305 422.773 228.635 426.102 226.713ZM426.03 216.23C427.258 215.521 428.141 215.914 428.324 217.543L423.706 220.209C423.899 218.398 424.813 216.934 426.03 216.23Z" fill="#1B2036"/>
    <rect width="86" height="156.714" transform="matrix(0.866025 0.5 -0.866025 0.5 408.719 17)" fill="#73FFE5"/>
    <rect width="86" height="156.714" transform="matrix(0.866025 0.5 -0.866025 0.5 408.719 17)" fill="#3C4257"/>
    <path d="M273 95.3574L347.478 138.357L347.478 208.182L273 165.182L273 130.27L273 95.3574Z" fill="#E1E8FF"/>
    <path d="M483 59.8379L347 138.358L347 208.182L483 129.663L483 94.7503L483 59.8379Z" fill="#FBE582"/>
    <path d="M374.566 167.502C378.26 165.369 380.473 162.029 380.473 158.783L380.473 158.771C380.473 156.111 379.093 155.467 376.028 156.533L374.475 157.066C372.79 157.652 372.039 157.465 372.039 156.398L372.039 156.387C372.039 155.18 372.983 153.803 374.556 152.883C376.068 152.01 377.124 152.209 377.276 153.445L377.286 153.58L380.178 151.91L380.168 151.693C380.026 148.811 377.946 148.055 374.556 150.012C371.308 151.887 368.974 155.273 368.974 158.367L368.974 158.379C368.974 160.922 370.436 161.672 373.328 160.67L374.871 160.131C376.687 159.516 377.408 159.674 377.408 160.822L377.408 160.834C377.408 162.123 376.342 163.594 374.647 164.572C372.973 165.539 371.765 165.416 371.572 164.215L371.552 164.098L368.66 165.768L368.67 165.949C368.842 168.967 371.085 169.512 374.566 167.502ZM382.168 162.82L385.131 161.109L385.131 153.914C385.131 152.273 385.973 150.639 387.283 149.883C388.632 149.104 389.383 149.713 389.383 151.471L389.383 158.654L392.347 156.943L392.347 149.057C392.347 146.021 390.885 144.967 388.531 146.326C386.897 147.27 385.75 148.799 385.192 150.68L385.131 150.715L385.131 144.199L382.168 145.91L382.168 162.82ZM399.248 153.217C402.536 151.318 404.637 147.668 404.637 143.566L404.637 143.543C404.637 139.477 402.496 138.264 399.238 140.145C395.99 142.02 393.859 145.723 393.859 149.766L393.859 149.789C393.859 153.879 395.939 155.127 399.248 153.217ZM399.258 150.527C397.797 151.371 396.873 150.51 396.873 148.049L396.873 148.025C396.873 145.6 397.807 143.654 399.238 142.828C400.679 141.996 401.623 142.857 401.623 145.283L401.623 145.307C401.623 147.756 400.699 149.695 399.258 150.527ZM408.189 147.797L411.305 145.998L413.263 135.984L413.324 135.949L415.293 143.695L418.449 141.873L421.332 127.646L418.409 129.334L416.755 139.605L416.694 139.641L414.755 131.443L411.914 133.084L409.985 143.514L409.924 143.549L408.28 135.182L405.297 136.904L408.189 147.797Z" fill="#1B2036"/>
    <rect width="86" height="156.714" transform="matrix(0.866025 0.5 -0.866025 0.5 251.719 374.643)" fill="#73FFE5"/>
    <rect width="86" height="156.714" transform="matrix(0.866025 0.5 -0.866025 0.5 251.719 374.643)" fill="#3C4257"/>
    <path d="M116 453L190.478 496L190.478 565.825L116 522.825L116 487.912L116 453Z" fill="#E1E8FF"/>
    <path d="M326 417.48L190 496L190 565.824L326 487.305L338 445.401L326 417.48Z" fill="#CEC0FF"/>
    <path d="M208.476 530.797L214.068 527.568C218.462 525.031 221.05 520.385 221.05 515.018L221.05 514.994C221.05 509.639 218.452 508.127 214.068 510.658L208.476 513.887L208.476 530.797ZM211.541 526.098L211.541 515.035L213.702 513.787C216.392 512.234 217.924 513.283 217.924 516.811L217.924 516.834C217.924 520.49 216.442 523.268 213.702 524.85L211.541 526.098ZM223.029 522.395L232.731 516.793L232.731 513.875L226.094 517.707L226.094 513.453L232.356 509.838L232.356 507.072L226.094 510.688L226.094 506.633L232.731 502.801L232.731 499.883L223.029 505.484L223.029 522.395ZM234.944 515.516L244.412 510.049L244.412 507.131L238.008 510.828L238.008 496.836L234.944 498.605L234.944 515.516ZM246.229 509L255.931 503.398L255.931 500.48L249.294 504.312L249.294 500.059L255.556 496.443L255.556 493.678L249.294 497.293L249.294 493.238L255.931 489.406L255.931 486.488L246.229 492.09L246.229 509ZM261.645 500.1L264.71 498.33L264.71 484.338L268.952 481.889L268.952 478.971L257.413 485.633L257.413 488.551L261.645 486.107L261.645 500.1ZM270.647 494.902L280.349 489.301L280.349 486.383L273.712 490.215L273.712 485.961L279.973 482.346L279.973 479.58L273.712 483.195L273.712 479.141L280.349 475.309L280.349 472.391L270.647 477.992L270.647 494.902Z" fill="#1B2036"/>
    <rect width="86" height="156.714" transform="matrix(0.866025 0.5 -0.866025 0.5 251.719 285.643)" fill="#73FFE5"/>
    <rect width="86" height="156.714" transform="matrix(0.866025 0.5 -0.866025 0.5 251.719 285.643)" fill="#3C4257"/>
    <path d="M116 364L190.478 407L190.478 476.825L116 433.825L116 398.912L116 364Z" fill="#E1E8FF"/>
    <path d="M326 328.48L190 407L190 476.824L326 398.305L338 356.401L326 328.48Z" fill="#CEC0FF"/>
    <path d="M208.476 440.797L211.541 439.027L211.541 433.695L214.362 432.066C217.447 430.285 219.507 426.799 219.507 423.318L219.507 423.295C219.507 419.814 217.447 418.707 214.362 420.488L208.476 423.887L208.476 440.797ZM213.611 423.723C215.367 422.709 216.402 423.178 216.402 425.1L216.402 425.123C216.402 427.045 215.367 428.721 213.611 429.734L211.541 430.93L211.541 424.918L213.611 423.723ZM227.464 430.127C231.239 427.947 233.594 424.068 233.594 420.318L233.594 409.385L230.529 411.154L230.529 421.771C230.529 423.963 229.433 425.99 227.464 427.127C225.495 428.264 224.389 427.508 224.389 425.316L224.389 414.699L221.324 416.469L221.324 427.402C221.324 431.164 223.709 432.295 227.464 430.127ZM239.541 422.861L242.606 421.092L242.606 407.1L246.848 404.65L246.848 401.732L235.309 408.395L235.309 411.312L239.541 408.869L239.541 422.861ZM253.018 398.17L250.39 399.688L246.716 422.82L249.355 421.297L253.018 398.17ZM254.328 414.324L257.393 412.555L257.393 407.223L260.214 405.594C263.299 403.812 265.359 400.326 265.359 396.846L265.359 396.822C265.359 393.342 263.299 392.234 260.214 394.016L254.328 397.414L254.328 414.324ZM259.463 397.25C261.219 396.236 262.254 396.705 262.254 398.627L262.254 398.65C262.254 400.572 261.219 402.248 259.463 403.262L257.393 404.457L257.393 398.445L259.463 397.25ZM264.862 408.242L268.079 406.385L269.185 401.645L274.361 398.656L275.467 402.119L278.685 400.262L273.58 386.299L269.977 388.379L264.862 408.242ZM271.743 390.641L271.804 390.605L273.651 396.418L269.896 398.586L271.743 390.641ZM281.699 398.521L284.764 396.752L284.764 382.76L289.006 380.311L289.006 377.393L277.467 384.055L277.467 386.973L281.699 384.529L281.699 398.521ZM296.404 390.324C299.946 388.279 302.514 384.23 302.798 380.469L302.808 380.334L299.824 382.057L299.804 382.186C299.408 384.418 298.17 386.305 296.404 387.324C294.06 388.678 292.558 387.342 292.558 383.779L292.558 383.768C292.558 380.229 294.06 377.182 296.404 375.828C298.231 374.773 299.429 375.301 299.774 376.965L299.814 377.141L302.798 375.418L302.788 375.318C302.504 371.896 299.956 370.777 296.404 372.828C292.132 375.295 289.432 380.135 289.432 385.584L289.432 385.596C289.432 391.045 292.122 392.797 296.404 390.324ZM304.706 385.238L307.771 383.469L307.771 376.344L314.368 372.535L314.368 379.66L317.432 377.891L317.432 360.98L314.368 362.75L314.368 369.617L307.771 373.426L307.771 366.559L304.706 368.328L304.706 385.238Z" fill="#1B2036"/>
    <rect width="86" height="156.714" transform="matrix(0.866025 0.5 -0.866025 0.5 251.719 196.643)" fill="#73FFE5"/>
    <rect width="86" height="156.714" transform="matrix(0.866025 0.5 -0.866025 0.5 251.719 196.643)" fill="#3C4257"/>
    <path d="M116 275L190.478 318L190.478 387.825L116 344.825L116 309.912L116 275Z" fill="#E1E8FF"/>
    <path d="M326 239.48L190 318L190 387.824L326 309.305L338 267.401L326 239.48Z" fill="#CEC0FF"/>
    <path d="M208.476 351.797L211.541 350.027L211.541 344.695L214.362 343.066C217.447 341.285 219.507 337.799 219.507 334.318L219.507 334.295C219.507 330.814 217.447 329.707 214.362 331.488L208.476 334.887L208.476 351.797ZM213.611 334.723C215.367 333.709 216.402 334.178 216.402 336.1L216.402 336.123C216.402 338.045 215.367 339.721 213.611 340.734L211.541 341.93L211.541 335.918L213.611 334.723ZM227.931 340.857C232.285 338.344 234.994 333.416 234.994 328.037L234.994 328.014C234.994 322.646 232.274 320.854 227.931 323.361C223.597 325.863 220.867 330.791 220.867 336.17L220.867 336.193C220.867 341.572 223.577 343.371 227.931 340.857ZM227.931 337.857C225.526 339.246 223.993 337.928 223.993 334.389L223.993 334.365C223.993 330.826 225.536 327.744 227.931 326.361C230.336 324.973 231.868 326.291 231.868 329.818L231.868 329.842C231.868 333.346 230.366 336.451 227.931 337.857ZM242.322 332.549C246.016 330.416 248.228 327.076 248.228 323.83L248.228 323.818C248.228 321.158 246.848 320.514 243.783 321.58L242.23 322.113C240.546 322.699 239.795 322.512 239.795 321.445L239.795 321.434C239.795 320.227 240.738 318.85 242.312 317.93C243.824 317.057 244.879 317.256 245.031 318.492L245.042 318.627L247.934 316.957L247.924 316.74C247.782 313.857 245.701 313.102 242.312 315.059C239.064 316.934 236.73 320.32 236.73 323.414L236.73 323.426C236.73 325.969 238.191 326.719 241.084 325.717L242.626 325.178C244.443 324.562 245.163 324.721 245.163 325.869L245.163 325.881C245.163 327.17 244.098 328.641 242.403 329.619C240.728 330.586 239.521 330.463 239.328 329.262L239.308 329.145L236.415 330.814L236.425 330.996C236.598 334.014 238.841 334.559 242.322 332.549ZM253.201 325.975L256.266 324.205L256.266 310.213L260.508 307.764L260.508 304.846L248.969 311.508L248.969 314.426L253.201 311.982L253.201 325.975Z" fill="#1B2036"/>
    <rect width="86" height="156.714" transform="matrix(0.866025 0.5 -0.866025 0.5 251.719 107.643)" fill="#73FFE5"/>
    <rect width="86" height="156.714" transform="matrix(0.866025 0.5 -0.866025 0.5 251.719 107.643)" fill="#3C4257"/>
    <path d="M116 186L190.478 229L190.478 298.825L116 255.825L116 220.912L116 186Z" fill="#E1E8FF"/>
    <path d="M326 150.48L190 229L190 298.824L326 220.305L338 178.401L326 150.48Z" fill="#CEC0FF"/>
    <path d="M215.072 260.281C219.152 257.926 221.568 253.742 221.568 249.137L221.568 247.191L215.235 250.848L215.235 253.484L218.584 251.551L218.574 251.803C218.492 253.936 217.122 256.098 215.123 257.252C212.687 258.658 211.145 257.381 211.145 253.713L211.145 253.701C211.145 250.115 212.596 247.215 215.011 245.82C216.666 244.865 217.833 245.141 218.32 246.5L218.361 246.594L221.436 244.818L221.405 244.672C220.918 241.777 218.523 240.793 215.001 242.826C210.708 245.305 208.019 250.127 208.019 255.541L208.019 255.553C208.019 261.061 210.698 262.807 215.072 260.281ZM223.597 255.066L233.299 249.465L233.299 246.547L226.662 250.379L226.662 246.125L232.924 242.51L232.924 239.744L226.662 243.359L226.662 239.305L233.299 235.473L233.299 232.555L223.597 238.156L223.597 255.066ZM239.013 246.166L242.078 244.396L242.078 230.404L246.32 227.955L246.32 225.037L234.781 231.699L234.781 234.617L239.013 232.174L239.013 246.166Z" fill="#1B2036"/>
    <path opacity="0.4" d="M152 544.5V547.5H100.5V177L258 88.5L270.5 118.5L286 127.557L152 207V276.5L169 286.5L152 296V365.5L169 375.5L152 385V454.5L169 464.5L152 474V544.5Z" fill="#C7FFF5"/>
    <rect width="113" height="44" transform="matrix(0.866025 -0.5 2.20305e-08 1 190 181)" fill="#97EEFF"/>
    <path d="M200.162 206.133L202.892 204.557L202.892 193.119L202.973 193.072L206.931 202.225L208.849 201.117L212.807 187.395L212.889 187.348L212.889 198.785L215.619 197.209L215.619 180.299L212.077 182.344L207.926 196.893L207.855 196.934L203.704 187.178L200.162 189.223L200.162 206.133ZM222.926 193.248C226.021 191.461 227.523 188.473 227.868 186.422L227.889 186.281L225.169 187.852L225.148 187.934C224.945 188.754 224.205 189.955 222.987 190.658C221.475 191.531 220.531 190.904 220.49 188.924L227.98 184.6L227.98 183.545C227.98 179.748 225.991 178.4 222.804 180.24C219.607 182.086 217.567 185.818 217.567 189.814L217.567 189.826C217.567 193.846 219.587 195.176 222.926 193.248ZM222.855 182.766C224.073 182.062 224.956 182.455 225.138 184.084L220.531 186.744C220.724 184.934 221.627 183.475 222.855 182.766ZM238.139 171.645L228.7 177.094L228.7 179.684L231.938 177.814L231.938 187.787L234.901 186.076L234.901 176.104L238.139 174.234L238.139 171.645ZM244.411 180.844C247.699 178.945 249.8 175.295 249.8 171.193L249.8 171.17C249.8 167.104 247.668 165.885 244.411 167.766C241.153 169.646 239.022 173.35 239.022 177.393L239.022 177.416C239.022 181.506 241.112 182.748 244.411 180.844ZM244.421 178.154C242.959 178.998 242.036 178.137 242.036 175.676L242.036 175.652C242.036 173.227 242.98 171.275 244.411 170.449C245.852 169.617 246.785 170.484 246.785 172.91L246.785 172.934C246.785 175.383 245.872 177.316 244.421 178.154ZM253.179 178.863L253.179 175.523L260.496 171.299L260.496 174.639L263.196 173.08L263.196 167.115L261.572 168.053L261.572 158.115L252.865 163.143L252.509 169.664C252.408 171.422 252.103 173.004 251.312 173.977L250.48 174.457L250.48 180.422L253.179 178.863ZM258.609 169.764L254.306 172.248L254.306 172.178C254.813 171.029 255.047 169.77 255.118 168.381L255.361 164.326L258.609 162.451L258.609 169.764ZM264.536 168.967L269.61 166.037C272.178 164.555 273.822 161.871 273.822 159.152L273.822 159.129C273.822 156.41 272.178 155.625 269.61 157.107L267.499 158.326L267.499 154.693L264.536 156.404L264.536 168.967ZM274.979 162.938L277.942 161.227L277.942 148.664L274.979 150.375L274.979 162.938ZM269.072 159.996C270.138 159.381 270.808 159.721 270.808 160.869L270.808 160.893C270.808 162.029 270.138 163.154 269.072 163.77L267.499 164.678L267.499 160.904L269.072 159.996Z" fill="#2D2E35"/>
    <rect width="125" height="44" transform="matrix(0.866025 -0.5 2.20305e-08 1 347 90.5)" fill="#FDF3B4"/>
    <path d="M363.211 112.316L366.245 110.564L366.245 108.936C370.305 106.439 372.984 102.279 372.984 98.0254L372.984 98.002C372.984 93.7129 370.315 92.6641 366.245 94.873L366.245 93.3027L363.211 95.0547L363.211 96.625C359.141 99.1152 356.472 103.246 356.472 107.535L356.472 107.559C356.472 111.812 359.151 112.879 363.211 110.688L363.211 112.316ZM359.598 105.754L359.598 105.73C359.598 103.234 360.998 100.855 363.241 99.4434L363.241 107.822C361.009 108.994 359.598 108.238 359.598 105.754ZM366.205 97.7324C368.448 96.5547 369.858 97.3105 369.858 99.8066L369.858 99.8301C369.858 102.314 368.448 104.699 366.205 106.111L366.205 97.7324ZM376.435 108.643C378.86 107.242 380.322 105.449 381.174 101.992L384.899 87.0566L381.773 88.8613L379.479 100.006L379.388 100.059L377.094 91.5625L373.847 93.4375L377.683 103.785L377.561 104.266C377.297 105.273 376.81 105.848 375.927 106.357C375.481 106.615 375.136 106.744 374.933 106.814L374.933 109.357C375.278 109.229 375.856 108.977 376.435 108.643ZM393.251 94.7969L396.215 93.0859L396.215 80.5234L393.251 82.2344L393.251 87.0625L389.09 89.4648L389.09 84.6367L386.127 86.3477L386.127 98.9102L389.09 97.1992L389.09 92.0547L393.251 89.6523L393.251 94.7969ZM401.664 84.666L405.064 87.9766L408.626 85.9199L404.232 81.7188L408.373 73.5039L405.003 75.4492L401.664 82.3105L401.309 82.5156L401.309 77.582L398.346 79.293L398.346 91.8555L401.309 90.1445L401.309 84.8711L401.664 84.666ZM418.877 83.3418L421.556 81.7949L421.556 75.877L419.922 76.8203L419.922 66.8359L416.959 68.5469L416.959 78.5312L412.899 80.875L412.899 70.8906L409.936 72.6016L409.936 85.1641L418.877 80.002L418.877 83.3418ZM422.885 77.6875L425.788 76.0117L430.071 65.5938L430.182 65.5293L430.182 73.4746L433.095 71.793L433.095 59.2305L430.192 60.9062L425.9 71.2246L425.798 71.2832L425.798 63.4434L422.885 65.125L422.885 77.6875ZM435.226 70.5625L438.129 68.8867L442.412 58.4688L442.523 58.4043L442.523 66.3496L445.436 64.668L445.436 52.1055L442.533 53.7812L438.24 64.0996L438.139 64.1582L438.139 56.3184L435.226 58L435.226 70.5625Z" fill="#2D2E35"/>
</svg>
