<svg width="690" height="752" viewBox="0 0 690 752" fill="none" xmlns="http://www.w3.org/2000/svg">
    <rect x="50" y="319" width="204" height="104" rx="12" fill="#FFE173"/>
    <path d="M127.703 382H130.484L138.797 359.453H135.844L129.125 378.625H129.062L122.344 359.453H119.391L127.703 382ZM142.016 363C142.969 363 143.719 362.234 143.719 361.297C143.719 360.344 142.969 359.594 142.016 359.594C141.078 359.594 140.312 360.344 140.312 361.297C140.312 362.234 141.078 363 142.016 363ZM140.656 382H143.375V365.75H140.656V382ZM153.766 382.312C157.312 382.312 159.969 380.188 160.5 377.5L160.531 377.344H157.859L157.812 377.484C157.344 378.875 155.891 379.906 153.828 379.906C150.938 379.906 149.094 377.953 149.031 374.609H160.734V373.609C160.734 368.734 158.031 365.438 153.594 365.438C149.156 365.438 146.281 368.891 146.281 373.922V373.938C146.281 379.047 149.094 382.312 153.766 382.312ZM153.578 367.844C155.953 367.844 157.703 369.328 157.969 372.484H149.078C149.375 369.453 151.219 367.844 153.578 367.844ZM166.703 382H169.469L173.125 369.422H173.188L176.859 382H179.625L184.156 365.75H181.469L178.219 378.969H178.156L174.469 365.75H171.844L168.172 378.969H168.109L164.859 365.75H162.156L166.703 382Z" fill="black"/>
    <rect x="436" y="319" width="204" height="104" rx="12" fill="#97EEFF"/>
    <path d="M484.109 382.375C488.828 382.375 492.438 379.578 493.297 375.266L493.328 375.109H490.484L490.438 375.25C489.453 378.219 487.266 379.781 484.109 379.781C479.625 379.781 476.703 376.203 476.703 370.719V370.703C476.703 365.219 479.609 361.672 484.109 361.672C487.281 361.672 489.5 363.266 490.375 366L490.484 366.344H493.328L493.297 366.188C492.438 361.922 488.797 359.078 484.109 359.078C477.828 359.078 473.812 363.609 473.812 370.703V370.719C473.812 377.812 477.844 382.375 484.109 382.375ZM502.969 382.312C507.453 382.312 510.484 379.062 510.484 373.875V373.844C510.484 368.656 507.438 365.438 502.953 365.438C498.469 365.438 495.438 368.672 495.438 373.844V373.875C495.438 379.047 498.453 382.312 502.969 382.312ZM502.984 379.906C500.109 379.906 498.219 377.703 498.219 373.875V373.844C498.219 370.047 500.125 367.844 502.953 367.844C505.828 367.844 507.703 370.031 507.703 373.844V373.875C507.703 377.688 505.844 379.906 502.984 379.906ZM513.234 382H515.953V372.438C515.953 369.672 517.625 367.844 520.188 367.844C522.688 367.844 523.922 369.297 523.922 371.938V382H526.641V371.453C526.641 367.75 524.578 365.438 521.016 365.438C518.547 365.438 516.891 366.547 516.016 368.062H515.953V365.75H513.234V382ZM535.391 382.312C535.922 382.312 536.5 382.25 536.844 382.203V380C536.609 380.016 536.297 380.062 535.969 380.062C534.516 380.062 533.75 379.578 533.75 377.844V368H536.844V365.75H533.75V361.359H530.938V365.75H528.562V368H530.938V377.859C530.938 380.969 532.406 382.312 535.391 382.312ZM539.766 382H542.484V371.844C542.484 369.547 543.859 368.031 545.969 368.031C546.625 368.031 547.203 368.109 547.422 368.188V365.547C547.203 365.516 546.797 365.438 546.328 365.438C544.422 365.438 542.922 366.578 542.391 368.375H542.328V365.75H539.766V382ZM555.594 382.312C560.078 382.312 563.109 379.062 563.109 373.875V373.844C563.109 368.656 560.062 365.438 555.578 365.438C551.094 365.438 548.062 368.672 548.062 373.844V373.875C548.062 379.047 551.078 382.312 555.594 382.312ZM555.609 379.906C552.734 379.906 550.844 377.703 550.844 373.875V373.844C550.844 370.047 552.75 367.844 555.578 367.844C558.453 367.844 560.328 370.031 560.328 373.844V373.875C560.328 377.688 558.469 379.906 555.609 379.906ZM566 382H568.719V359.453H566V382ZM572.531 382H575.25V359.453H572.531V382ZM585.609 382.312C589.156 382.312 591.812 380.188 592.344 377.5L592.375 377.344H589.703L589.656 377.484C589.188 378.875 587.734 379.906 585.672 379.906C582.781 379.906 580.938 377.953 580.875 374.609H592.578V373.609C592.578 368.734 589.875 365.438 585.438 365.438C581 365.438 578.125 368.891 578.125 373.922V373.938C578.125 379.047 580.938 382.312 585.609 382.312ZM585.422 367.844C587.797 367.844 589.547 369.328 589.812 372.484H580.922C581.219 369.453 583.062 367.844 585.422 367.844ZM595.328 382H598.047V371.844C598.047 369.547 599.422 368.031 601.531 368.031C602.188 368.031 602.766 368.109 602.984 368.188V365.547C602.766 365.516 602.359 365.438 601.891 365.438C599.984 365.438 598.484 366.578 597.953 368.375H597.891V365.75H595.328V382Z" fill="black"/>
    <rect x="235" y="609" width="204" height="104" rx="12" fill="#F9BFFF"/>
    <path d="M296.688 672H299.312V654.578H299.406L306.609 672H308.984L316.188 654.578H316.281V672H318.906V649.453H315.656L307.844 668.453H307.75L299.938 649.453H296.688V672ZM329.594 672.312C334.078 672.312 337.109 669.062 337.109 663.875V663.844C337.109 658.656 334.062 655.438 329.578 655.438C325.094 655.438 322.062 658.672 322.062 663.844V663.875C322.062 669.047 325.078 672.312 329.594 672.312ZM329.609 669.906C326.734 669.906 324.844 667.703 324.844 663.875V663.844C324.844 660.047 326.75 657.844 329.578 657.844C332.453 657.844 334.328 660.031 334.328 663.844V663.875C334.328 667.688 332.469 669.906 329.609 669.906ZM345.969 672.312C348.297 672.312 350.109 671.141 351.125 669.25H351.188V672H353.906V649.453H351.188V658.469H351.125C350.109 656.594 348.219 655.438 345.922 655.438C341.844 655.438 339.062 658.734 339.062 663.859V663.875C339.062 669 341.812 672.312 345.969 672.312ZM346.5 669.906C343.625 669.906 341.844 667.609 341.844 663.875V663.859C341.844 660.156 343.625 657.844 346.5 657.844C349.234 657.844 351.203 660.234 351.203 663.859V663.875C351.203 667.516 349.25 669.906 346.5 669.906ZM364.266 672.312C367.812 672.312 370.469 670.188 371 667.5L371.031 667.344H368.359L368.312 667.484C367.844 668.875 366.391 669.906 364.328 669.906C361.438 669.906 359.594 667.953 359.531 664.609H371.234V663.609C371.234 658.734 368.531 655.438 364.094 655.438C359.656 655.438 356.781 658.891 356.781 663.922V663.938C356.781 669.047 359.594 672.312 364.266 672.312ZM364.078 657.844C366.453 657.844 368.203 659.328 368.469 662.484H359.578C359.875 659.453 361.719 657.844 364.078 657.844ZM374.125 672H376.844V649.453H374.125V672Z" fill="black"/>
    <path d="M210 659.228C210.978 659.228 211.772 660.022 211.772 661C211.772 661.978 210.978 662.772 210 662.772V659.228ZM150.747 456.747C151.439 456.055 152.561 456.055 153.253 456.747L164.528 468.022C165.22 468.714 165.22 469.836 164.528 470.528C163.836 471.22 162.714 471.22 162.022 470.528L152 460.506L141.978 470.528C141.286 471.22 140.164 471.22 139.472 470.528C138.78 469.836 138.78 468.714 139.472 468.022L150.747 456.747ZM153.772 458.004C153.772 458.983 152.978 459.776 152 459.776C151.022 459.776 150.228 458.983 150.228 458.004H153.772ZM150.228 465.053C150.228 464.074 151.022 463.281 152 463.281C152.978 463.281 153.772 464.074 153.772 465.053H150.228ZM153.772 465.061C153.772 466.04 152.978 466.833 152 466.833C151.022 466.833 150.228 466.04 150.228 465.061H153.772ZM150.228 472.11C150.228 471.131 151.022 470.338 152 470.338C152.978 470.338 153.772 471.131 153.772 472.11H150.228ZM153.772 472.118C153.772 473.097 152.978 473.89 152 473.89C151.022 473.89 150.228 473.097 150.228 472.118H153.772ZM150.228 479.167C150.228 478.188 151.022 477.395 152 477.395C152.978 477.395 153.772 478.188 153.772 479.167H150.228ZM153.772 479.175C153.772 480.154 152.978 480.947 152 480.947C151.022 480.947 150.228 480.154 150.228 479.175H153.772ZM150.228 486.224C150.228 485.245 151.022 484.452 152 484.452C152.978 484.452 153.772 485.245 153.772 486.224H150.228ZM153.772 486.232C153.772 487.211 152.978 488.004 152 488.004C151.022 488.004 150.228 487.211 150.228 486.232H153.772ZM150.228 493.281C150.228 492.302 151.022 491.509 152 491.509C152.978 491.509 153.772 492.302 153.772 493.281H150.228ZM153.772 493.289C153.772 494.268 152.978 495.061 152 495.061C151.022 495.061 150.228 494.268 150.228 493.289H153.772ZM150.228 500.338C150.228 499.359 151.022 498.566 152 498.566C152.978 498.566 153.772 499.359 153.772 500.338H150.228ZM153.772 500.346C153.772 501.325 152.978 502.118 152 502.118C151.022 502.118 150.228 501.325 150.228 500.346H153.772ZM150.228 507.394C150.228 506.416 151.022 505.623 152 505.623C152.978 505.623 153.772 506.416 153.772 507.394H150.228ZM153.772 507.403C153.772 508.382 152.978 509.175 152 509.175C151.022 509.175 150.228 508.382 150.228 507.403H153.772ZM150.228 514.451C150.228 513.473 151.022 512.68 152 512.68C152.978 512.68 153.772 513.473 153.772 514.451H150.228ZM153.772 514.46C153.772 515.439 152.978 516.232 152 516.232C151.022 516.232 150.228 515.439 150.228 514.46H153.772ZM150.228 521.508C150.228 520.53 151.022 519.737 152 519.737C152.978 519.737 153.772 520.53 153.772 521.508H150.228ZM153.772 521.517C153.772 522.496 152.978 523.289 152 523.289C151.022 523.289 150.228 522.496 150.228 521.517H153.772ZM150.228 528.565C150.228 527.587 151.022 526.794 152 526.794C152.978 526.794 153.772 527.587 153.772 528.565H150.228ZM153.772 528.574C153.772 529.553 152.978 530.346 152 530.346C151.022 530.346 150.228 529.553 150.228 528.574H153.772ZM150.228 535.622C150.228 534.644 151.022 533.851 152 533.851C152.978 533.851 153.772 534.644 153.772 535.622H150.228ZM153.772 535.631C153.772 536.61 152.978 537.403 152 537.403C151.022 537.403 150.228 536.61 150.228 535.631H153.772ZM150.228 542.679C150.228 541.701 151.022 540.908 152 540.908C152.978 540.908 153.772 541.701 153.772 542.679H150.228ZM153.772 542.688C153.772 543.667 152.978 544.46 152 544.46C151.022 544.46 150.228 543.667 150.228 542.688H153.772ZM150.228 549.736C150.228 548.758 151.022 547.965 152 547.965C152.978 547.965 153.772 548.758 153.772 549.736H150.228ZM153.772 549.745C153.772 550.724 152.978 551.517 152 551.517C151.022 551.517 150.228 550.724 150.228 549.745H153.772ZM150.228 556.793C150.228 555.815 151.022 555.022 152 555.022C152.978 555.022 153.772 555.815 153.772 556.793H150.228ZM153.772 556.802C153.772 557.781 152.978 558.574 152 558.574C151.022 558.574 150.228 557.781 150.228 556.802H153.772ZM150.228 563.85C150.228 562.872 151.022 562.079 152 562.079C152.978 562.079 153.772 562.872 153.772 563.85H150.228ZM153.772 563.859C153.772 564.838 152.978 565.631 152 565.631C151.022 565.631 150.228 564.838 150.228 563.859H153.772ZM150.228 570.907C150.228 569.929 151.022 569.136 152 569.136C152.978 569.136 153.772 569.929 153.772 570.907H150.228ZM153.772 570.916C153.772 571.895 152.978 572.688 152 572.688C151.022 572.688 150.228 571.895 150.228 570.916H153.772ZM150.228 577.964C150.228 576.986 151.022 576.193 152 576.193C152.978 576.193 153.772 576.986 153.772 577.964H150.228ZM153.772 577.973C153.772 578.952 152.978 579.745 152 579.745C151.022 579.745 150.228 578.952 150.228 577.973H153.772ZM150.228 585.021C150.228 584.043 151.022 583.25 152 583.25C152.978 583.25 153.772 584.043 153.772 585.021H150.228ZM153.772 585.03C153.772 586.009 152.978 586.802 152 586.802C151.022 586.802 150.228 586.009 150.228 585.03H153.772ZM150.228 592.078C150.228 591.1 151.022 590.307 152 590.307C152.978 590.307 153.772 591.1 153.772 592.078H150.228ZM153.772 592.087C153.772 593.066 152.978 593.859 152 593.859C151.022 593.859 150.228 593.066 150.228 592.087H153.772ZM150.228 599.135C150.228 598.157 151.022 597.364 152 597.364C152.978 597.364 153.772 598.157 153.772 599.135H150.228ZM153.772 599.144C153.772 600.123 152.978 600.916 152 600.916C151.022 600.916 150.228 600.123 150.228 599.144H153.772ZM150.228 606.192C150.228 605.214 151.022 604.421 152 604.421C152.978 604.421 153.772 605.214 153.772 606.192H150.228ZM153.772 606.201C153.772 607.18 152.978 607.973 152 607.973C151.022 607.973 150.228 607.18 150.228 606.201H153.772ZM150.228 613.249C150.228 612.271 151.022 611.478 152 611.478C152.978 611.478 153.772 612.271 153.772 613.249H150.228ZM153.772 613.258C153.772 614.237 152.978 615.03 152 615.03C151.022 615.03 150.228 614.237 150.228 613.258H153.772ZM150.228 620.306C150.228 619.328 151.022 618.535 152 618.535C152.978 618.535 153.772 619.328 153.772 620.306H150.228ZM153.772 620.315C153.772 621.294 152.978 622.087 152 622.087C151.022 622.087 150.228 621.294 150.228 620.315H153.772ZM150.228 627.363C150.228 626.385 151.022 625.592 152 625.592C152.978 625.592 153.772 626.385 153.772 627.363H150.228ZM153.772 627.372C153.772 628.351 152.978 629.144 152 629.144C151.022 629.144 150.228 628.351 150.228 627.372H153.772ZM150.228 634.42C150.228 633.442 151.022 632.649 152 632.649C152.978 632.649 153.772 633.442 153.772 634.42H150.228ZM153.772 634.429C153.772 635.407 152.979 636.201 152 636.201C151.022 636.201 150.228 635.408 150.228 634.429L153.772 634.429ZM151.187 641.758C150.934 640.813 151.496 639.842 152.441 639.589C153.386 639.337 154.357 639.899 154.61 640.844L151.187 641.758ZM154.612 640.852C154.865 641.797 154.304 642.768 153.358 643.021C152.413 643.274 151.442 642.713 151.189 641.767L154.612 640.852ZM154.021 648.598C153.531 647.751 153.82 646.667 154.667 646.177C155.514 645.687 156.598 645.977 157.088 646.824L154.021 648.598ZM157.092 646.831C157.582 647.678 157.293 648.761 156.446 649.252C155.599 649.742 154.516 649.453 154.025 648.606L157.092 646.831ZM158.528 654.466C157.836 653.774 157.836 652.652 158.528 651.96C159.22 651.268 160.342 651.269 161.034 651.961L158.528 654.466ZM161.039 651.966C161.731 652.658 161.732 653.78 161.04 654.472C160.348 655.164 159.226 655.164 158.534 654.472L161.039 651.966ZM164.394 658.975C163.547 658.484 163.258 657.401 163.748 656.554C164.239 655.707 165.322 655.418 166.169 655.908L164.394 658.975ZM166.176 655.912C167.023 656.402 167.313 657.486 166.823 658.333C166.333 659.18 165.249 659.469 164.402 658.979L166.176 655.912ZM171.233 661.811C170.287 661.558 169.726 660.587 169.979 659.642C170.232 658.696 171.203 658.135 172.148 658.388L171.233 661.811ZM172.156 658.39C173.101 658.643 173.663 659.614 173.411 660.559C173.158 661.504 172.187 662.066 171.242 661.813L172.156 658.39ZM178.571 662.772C177.592 662.772 176.799 661.978 176.799 661C176.799 660.021 177.593 659.228 178.571 659.228L178.571 662.772ZM178.58 659.228C179.559 659.228 180.352 660.022 180.352 661C180.352 661.978 179.559 662.772 178.58 662.772V659.228ZM186.427 662.772C185.448 662.772 184.655 661.978 184.655 661C184.655 660.022 185.448 659.228 186.427 659.228V662.772ZM186.436 659.228C187.415 659.228 188.208 660.022 188.208 661C188.208 661.978 187.415 662.772 186.436 662.772V659.228ZM194.283 662.772C193.304 662.772 192.511 661.978 192.511 661C192.511 660.022 193.304 659.228 194.283 659.228V662.772ZM194.293 659.228C195.271 659.228 196.064 660.022 196.064 661C196.064 661.978 195.271 662.772 194.293 662.772V659.228ZM202.139 662.772C201.16 662.772 200.367 661.978 200.367 661C200.367 660.022 201.16 659.228 202.139 659.228V662.772ZM202.149 659.228C203.127 659.228 203.92 660.022 203.92 661C203.92 661.978 203.127 662.772 202.149 662.772V659.228ZM209.995 662.772C209.017 662.772 208.223 661.978 208.223 661C208.223 660.022 209.017 659.228 209.995 659.228V662.772ZM153.772 458V458.004H150.228V458H153.772ZM153.772 465.053V465.061H150.228V465.053H153.772ZM153.772 472.11V472.118H150.228V472.11H153.772ZM153.772 479.167V479.175H150.228V479.167H153.772ZM153.772 486.224V486.232H150.228V486.224H153.772ZM153.772 493.281V493.289H150.228V493.281H153.772ZM153.772 500.338V500.346H150.228V500.338H153.772ZM153.772 507.394V507.403H150.228V507.394H153.772ZM153.772 514.451V514.46H150.228V514.451H153.772ZM153.772 521.508V521.517H150.228V521.508H153.772ZM153.772 528.565V528.574H150.228V528.565H153.772ZM153.772 535.622V535.631H150.228V535.622H153.772ZM153.772 542.679V542.688H150.228V542.679H153.772ZM153.772 549.736V549.745H150.228V549.736H153.772ZM153.772 556.793V556.802H150.228V556.793H153.772ZM153.772 563.85V563.859H150.228V563.85H153.772ZM153.772 570.907V570.916H150.228V570.907H153.772ZM153.772 577.964V577.973H150.228V577.964H153.772ZM153.772 585.021V585.03H150.228V585.021H153.772ZM153.772 592.078V592.087H150.228V592.078H153.772ZM153.772 599.135V599.144H150.228V599.135H153.772ZM153.772 606.192V606.201H150.228V606.192H153.772ZM153.772 613.249V613.258H150.228V613.249H153.772ZM153.772 620.306V620.315H150.228V620.306H153.772ZM153.772 627.363V627.372H150.228V627.363H153.772ZM153.772 634.42V634.425H150.228V634.42H153.772ZM153.772 634.425C153.772 634.426 153.772 634.427 153.772 634.429L150.228 634.429C150.228 634.428 150.228 634.426 150.228 634.425H153.772ZM154.61 640.844C154.611 640.847 154.611 640.849 154.612 640.852L151.189 641.767C151.188 641.764 151.187 641.761 151.187 641.758L154.61 640.844ZM157.088 646.824C157.089 646.826 157.091 646.828 157.092 646.831L154.025 648.606C154.024 648.603 154.022 648.6 154.021 648.598L157.088 646.824ZM161.034 651.961C161.036 651.963 161.037 651.964 161.039 651.966L158.534 654.472C158.532 654.47 158.53 654.468 158.528 654.466L161.034 651.961ZM166.169 655.908C166.172 655.909 166.174 655.911 166.176 655.912L164.402 658.979C164.4 658.978 164.397 658.976 164.394 658.975L166.169 655.908ZM172.148 658.388C172.151 658.389 172.153 658.389 172.156 658.39L171.242 661.813C171.239 661.813 171.236 661.812 171.233 661.811L172.148 658.388ZM178.571 659.228C178.573 659.228 178.574 659.228 178.575 659.228V662.772C178.574 662.772 178.572 662.772 178.571 662.772L178.571 659.228ZM178.575 659.228H178.58V662.772H178.575V659.228ZM186.427 659.228H186.436V662.772H186.427V659.228ZM194.283 659.228H194.293V662.772H194.283V659.228ZM202.139 659.228H202.149V662.772H202.139V659.228ZM209.995 659.228H210V662.772H209.995V659.228Z" fill="#B8C0CD"/>
    <path d="M211.253 85.2528C211.945 84.5609 211.945 83.4391 211.253 82.7472L199.978 71.4723C199.286 70.7804 198.164 70.7804 197.472 71.4723C196.78 72.1642 196.78 73.2859 197.472 73.9778L207.494 84L197.472 94.0222C196.78 94.7141 196.78 95.8358 197.472 96.5277C198.164 97.2196 199.286 97.2196 199.978 96.5277L211.253 85.2528ZM153.772 286.996C153.772 286.017 152.978 285.224 152 285.224C151.022 285.224 150.228 286.017 150.228 286.996H153.772ZM150.228 279.947C150.228 280.926 151.022 281.719 152 281.719C152.978 281.719 153.772 280.926 153.772 279.947H150.228ZM153.772 279.939C153.772 278.96 152.978 278.167 152 278.167C151.022 278.167 150.228 278.96 150.228 279.939H153.772ZM150.228 272.89C150.228 273.869 151.022 274.662 152 274.662C152.978 274.662 153.772 273.869 153.772 272.89H150.228ZM153.772 272.882C153.772 271.903 152.978 271.11 152 271.11C151.022 271.11 150.228 271.903 150.228 272.882H153.772ZM150.228 265.833C150.228 266.812 151.022 267.605 152 267.605C152.978 267.605 153.772 266.812 153.772 265.833H150.228ZM153.772 265.825C153.772 264.846 152.978 264.053 152 264.053C151.022 264.053 150.228 264.846 150.228 265.825H153.772ZM150.228 258.776C150.228 259.755 151.022 260.548 152 260.548C152.978 260.548 153.772 259.755 153.772 258.776H150.228ZM153.772 258.768C153.772 257.789 152.978 256.996 152 256.996C151.022 256.996 150.228 257.789 150.228 258.768H153.772ZM150.228 251.719C150.228 252.698 151.022 253.491 152 253.491C152.978 253.491 153.772 252.698 153.772 251.719H150.228ZM153.772 251.711C153.772 250.732 152.978 249.939 152 249.939C151.022 249.939 150.228 250.732 150.228 251.711H153.772ZM150.228 244.662C150.228 245.641 151.022 246.434 152 246.434C152.978 246.434 153.772 245.641 153.772 244.662H150.228ZM153.772 244.654C153.772 243.675 152.978 242.882 152 242.882C151.022 242.882 150.228 243.675 150.228 244.654H153.772ZM150.228 237.605C150.228 238.584 151.022 239.377 152 239.377C152.978 239.377 153.772 238.584 153.772 237.605H150.228ZM153.772 237.597C153.772 236.618 152.978 235.825 152 235.825C151.022 235.825 150.228 236.618 150.228 237.597H153.772ZM150.228 230.549C150.228 231.527 151.022 232.32 152 232.32C152.978 232.32 153.772 231.527 153.772 230.549H150.228ZM153.772 230.54C153.772 229.561 152.978 228.768 152 228.768C151.022 228.768 150.228 229.561 150.228 230.54H153.772ZM150.228 223.492C150.228 224.47 151.022 225.263 152 225.263C152.978 225.263 153.772 224.47 153.772 223.492H150.228ZM153.772 223.483C153.772 222.504 152.978 221.711 152 221.711C151.022 221.711 150.228 222.504 150.228 223.483H153.772ZM150.228 216.435C150.228 217.413 151.022 218.206 152 218.206C152.978 218.206 153.772 217.413 153.772 216.435H150.228ZM153.772 216.426C153.772 215.447 152.978 214.654 152 214.654C151.022 214.654 150.228 215.447 150.228 216.426H153.772ZM150.228 209.378C150.228 210.356 151.022 211.149 152 211.149C152.978 211.149 153.772 210.356 153.772 209.378H150.228ZM153.772 209.369C153.772 208.39 152.978 207.597 152 207.597C151.022 207.597 150.228 208.39 150.228 209.369H153.772ZM150.228 202.321C150.228 203.299 151.022 204.092 152 204.092C152.978 204.092 153.772 203.299 153.772 202.321H150.228ZM153.772 202.312C153.772 201.333 152.978 200.54 152 200.54C151.022 200.54 150.228 201.333 150.228 202.312H153.772ZM150.228 195.264C150.228 196.242 151.022 197.035 152 197.035C152.978 197.035 153.772 196.242 153.772 195.264H150.228ZM153.772 195.255C153.772 194.276 152.978 193.483 152 193.483C151.022 193.483 150.228 194.276 150.228 195.255H153.772ZM150.228 188.207C150.228 189.185 151.022 189.978 152 189.978C152.978 189.978 153.772 189.185 153.772 188.207H150.228ZM153.772 188.198C153.772 187.219 152.978 186.426 152 186.426C151.022 186.426 150.228 187.219 150.228 188.198H153.772ZM150.228 181.15C150.228 182.128 151.022 182.921 152 182.921C152.978 182.921 153.772 182.128 153.772 181.15H150.228ZM153.772 181.141C153.772 180.162 152.978 179.369 152 179.369C151.022 179.369 150.228 180.162 150.228 181.141H153.772ZM150.228 174.093C150.228 175.071 151.022 175.864 152 175.864C152.978 175.864 153.772 175.071 153.772 174.093H150.228ZM153.772 174.084C153.772 173.105 152.978 172.312 152 172.312C151.022 172.312 150.228 173.105 150.228 174.084H153.772ZM150.228 167.036C150.228 168.014 151.022 168.807 152 168.807C152.978 168.807 153.772 168.014 153.772 167.036H150.228ZM153.772 167.027C153.772 166.048 152.978 165.255 152 165.255C151.022 165.255 150.228 166.048 150.228 167.027H153.772ZM150.228 159.979C150.228 160.957 151.022 161.75 152 161.75C152.978 161.75 153.772 160.957 153.772 159.979H150.228ZM153.772 159.97C153.772 158.991 152.978 158.198 152 158.198C151.022 158.198 150.228 158.991 150.228 159.97H153.772ZM150.228 152.922C150.228 153.9 151.022 154.693 152 154.693C152.978 154.693 153.772 153.9 153.772 152.922H150.228ZM153.772 152.913C153.772 151.934 152.978 151.141 152 151.141C151.022 151.141 150.228 151.934 150.228 152.913H153.772ZM150.228 145.865C150.228 146.843 151.022 147.636 152 147.636C152.978 147.636 153.772 146.843 153.772 145.865H150.228ZM153.772 145.856C153.772 144.877 152.978 144.084 152 144.084C151.022 144.084 150.228 144.877 150.228 145.856H153.772ZM150.228 138.808C150.228 139.786 151.022 140.579 152 140.579C152.978 140.579 153.772 139.786 153.772 138.808H150.228ZM153.772 138.799C153.772 137.82 152.978 137.027 152 137.027C151.022 137.027 150.228 137.82 150.228 138.799H153.772ZM150.228 131.751C150.228 132.729 151.022 133.522 152 133.522C152.978 133.522 153.772 132.729 153.772 131.751H150.228ZM153.772 131.742C153.772 130.763 152.978 129.97 152 129.97C151.022 129.97 150.228 130.763 150.228 131.742H153.772ZM150.228 124.694C150.228 125.672 151.022 126.465 152 126.465C152.978 126.465 153.772 125.672 153.772 124.694H150.228ZM153.772 124.685C153.772 123.706 152.978 122.913 152 122.913C151.022 122.913 150.228 123.706 150.228 124.685H153.772ZM150.228 117.637C150.228 118.615 151.022 119.408 152 119.408C152.978 119.408 153.772 118.615 153.772 117.637H150.228ZM153.772 117.628C153.772 116.649 152.978 115.856 152 115.856C151.022 115.856 150.228 116.649 150.228 117.628H153.772ZM150.228 110.58C150.228 111.558 151.022 112.351 152 112.351C152.978 112.351 153.772 111.558 153.772 110.58H150.228ZM153.772 110.571C153.772 109.593 152.979 108.799 152 108.799C151.022 108.799 150.228 109.592 150.228 110.571L153.772 110.571ZM151.187 103.242C150.934 104.187 151.496 105.158 152.441 105.411C153.386 105.663 154.357 105.101 154.61 104.156L151.187 103.242ZM154.612 104.148C154.865 103.203 154.304 102.232 153.358 101.979C152.413 101.726 151.442 102.287 151.189 103.233L154.612 104.148ZM154.021 96.4023C153.531 97.2493 153.82 98.3331 154.667 98.823C155.514 99.3128 156.598 99.0233 157.088 98.1763L154.021 96.4023ZM157.092 98.1693C157.582 97.3225 157.293 96.2386 156.446 95.7484C155.599 95.2583 154.516 95.5474 154.025 96.3943L157.092 98.1693ZM158.528 90.5342C157.836 91.2262 157.836 92.348 158.528 93.0398C159.22 93.7316 160.342 93.7314 161.034 93.0394L158.528 90.5342ZM161.039 93.0336C161.731 92.3419 161.732 91.2201 161.04 90.5281C160.348 89.8361 159.226 89.8359 158.534 90.5277L161.039 93.0336ZM164.394 86.0254C163.547 86.5155 163.258 87.5994 163.748 88.4462C164.239 89.2931 165.322 89.5822 166.169 89.0921L164.394 86.0254ZM166.176 89.088C167.023 88.5981 167.313 87.5143 166.823 86.6673C166.333 85.8203 165.249 85.5308 164.402 86.0207L166.176 89.088ZM171.233 83.189C170.287 83.4418 169.726 84.4131 169.979 85.3583C170.232 86.3036 171.203 86.8649 172.148 86.612L171.233 83.189ZM172.156 86.6099C173.101 86.3574 173.663 85.3864 173.411 84.441C173.158 83.4957 172.187 82.9341 171.242 83.1866L172.156 86.6099ZM178.571 82.2283C177.592 82.2285 176.799 83.0218 176.799 84.0003C176.799 84.9788 177.593 85.7718 178.571 85.7717L178.571 82.2283ZM178.58 85.7717C179.559 85.7717 180.352 84.9785 180.352 84C180.352 83.0215 179.559 82.2283 178.58 82.2283V85.7717ZM186.427 82.2283C185.448 82.2283 184.655 83.0215 184.655 84C184.655 84.9785 185.448 85.7717 186.427 85.7717V82.2283ZM186.436 85.7717C187.415 85.7717 188.208 84.9785 188.208 84C188.208 83.0215 187.415 82.2283 186.436 82.2283V85.7717ZM194.283 82.2283C193.304 82.2283 192.511 83.0215 192.511 84C192.511 84.9785 193.304 85.7717 194.283 85.7717V82.2283ZM194.293 85.7717C195.271 85.7717 196.064 84.9785 196.064 84C196.064 83.0215 195.271 82.2283 194.293 82.2283V85.7717ZM202.139 82.2283C201.16 82.2283 200.367 83.0215 200.367 84C200.367 84.9785 201.16 85.7717 202.139 85.7717V82.2283ZM202.149 85.7717C203.127 85.7717 203.92 84.9785 203.92 84C203.92 83.0215 203.127 82.2283 202.149 82.2283V85.7717ZM209.995 82.2283C209.017 82.2283 208.223 83.0215 208.223 84C208.223 84.9785 209.017 85.7717 209.995 85.7717V82.2283ZM153.772 287V286.996H150.228V287H153.772ZM153.772 279.947V279.939H150.228V279.947H153.772ZM153.772 272.89V272.882H150.228V272.89H153.772ZM153.772 265.833V265.825H150.228V265.833H153.772ZM153.772 258.776V258.768H150.228V258.776H153.772ZM153.772 251.719V251.711H150.228V251.719H153.772ZM153.772 244.662V244.654H150.228V244.662H153.772ZM153.772 237.605V237.597H150.228V237.605H153.772ZM153.772 230.549V230.54H150.228V230.549H153.772ZM153.772 223.492V223.483H150.228V223.492H153.772ZM153.772 216.435V216.426H150.228V216.435H153.772ZM153.772 209.378V209.369H150.228V209.378H153.772ZM153.772 202.321V202.312H150.228V202.321H153.772ZM153.772 195.264V195.255H150.228V195.264H153.772ZM153.772 188.207V188.198H150.228V188.207H153.772ZM153.772 181.15V181.141H150.228V181.15H153.772ZM153.772 174.093V174.084H150.228V174.093H153.772ZM153.772 167.036V167.027H150.228V167.036H153.772ZM153.772 159.979V159.97H150.228V159.979H153.772ZM153.772 152.922V152.913H150.228V152.922H153.772ZM153.772 145.865V145.856H150.228V145.865H153.772ZM153.772 138.808V138.799H150.228V138.808H153.772ZM153.772 131.751V131.742H150.228V131.751H153.772ZM153.772 124.694V124.685H150.228V124.694H153.772ZM153.772 117.637V117.628H150.228V117.637H153.772ZM153.772 110.58V110.575H150.228V110.58H153.772ZM153.772 110.575C153.772 110.574 153.772 110.573 153.772 110.571L150.228 110.571C150.228 110.572 150.228 110.574 150.228 110.575H153.772ZM154.61 104.156C154.611 104.153 154.611 104.151 154.612 104.148L151.189 103.233C151.188 103.236 151.187 103.239 151.187 103.242L154.61 104.156ZM157.088 98.1763C157.089 98.174 157.091 98.1717 157.092 98.1693L154.025 96.3943C154.024 96.3969 154.022 96.3996 154.021 96.4023L157.088 98.1763ZM161.034 93.0394C161.036 93.0375 161.037 93.0356 161.039 93.0336L158.534 90.5277C158.532 90.5299 158.53 90.5321 158.528 90.5342L161.034 93.0394ZM166.169 89.0921C166.172 89.0907 166.174 89.0894 166.176 89.088L164.402 86.0207C164.4 86.0223 164.397 86.0238 164.394 86.0254L166.169 89.0921ZM172.148 86.612C172.151 86.6113 172.153 86.6106 172.156 86.6099L171.242 83.1866C171.239 83.1874 171.236 83.1882 171.233 83.189L172.148 86.612ZM178.571 85.7717C178.573 85.7717 178.574 85.7717 178.575 85.7717V82.2283C178.574 82.2283 178.572 82.2283 178.571 82.2283L178.571 85.7717ZM178.575 85.7717H178.58V82.2283H178.575V85.7717ZM186.427 85.7717H186.436V82.2283H186.427V85.7717ZM194.283 85.7717H194.293V82.2283H194.283V85.7717ZM202.139 85.7717H202.149V82.2283H202.139V85.7717ZM209.995 85.7717H210V82.2283H209.995V85.7717Z" fill="#B8C0CD"/>
    <path d="M462.747 659.747C462.055 660.439 462.055 661.561 462.747 662.253L474.022 673.528C474.714 674.22 475.836 674.22 476.528 673.528C477.22 672.836 477.22 671.714 476.528 671.022L466.506 661L476.528 650.978C477.22 650.286 477.22 649.164 476.528 648.472C475.836 647.78 474.714 647.78 474.022 648.472L462.747 659.747ZM520.228 458.004C520.228 458.983 521.022 459.776 522 459.776C522.978 459.776 523.772 458.983 523.772 458.004H520.228ZM523.772 465.053C523.772 464.074 522.978 463.281 522 463.281C521.022 463.281 520.228 464.074 520.228 465.053H523.772ZM520.228 465.061C520.228 466.04 521.022 466.833 522 466.833C522.978 466.833 523.772 466.04 523.772 465.061H520.228ZM523.772 472.11C523.772 471.131 522.978 470.338 522 470.338C521.022 470.338 520.228 471.131 520.228 472.11H523.772ZM520.228 472.118C520.228 473.097 521.022 473.89 522 473.89C522.978 473.89 523.772 473.097 523.772 472.118H520.228ZM523.772 479.167C523.772 478.188 522.978 477.395 522 477.395C521.022 477.395 520.228 478.188 520.228 479.167H523.772ZM520.228 479.175C520.228 480.154 521.022 480.947 522 480.947C522.978 480.947 523.772 480.154 523.772 479.175H520.228ZM523.772 486.224C523.772 485.245 522.978 484.452 522 484.452C521.022 484.452 520.228 485.245 520.228 486.224H523.772ZM520.228 486.232C520.228 487.211 521.022 488.004 522 488.004C522.978 488.004 523.772 487.211 523.772 486.232H520.228ZM523.772 493.281C523.772 492.302 522.978 491.509 522 491.509C521.022 491.509 520.228 492.302 520.228 493.281H523.772ZM520.228 493.289C520.228 494.268 521.022 495.061 522 495.061C522.978 495.061 523.772 494.268 523.772 493.289H520.228ZM523.772 500.338C523.772 499.359 522.978 498.566 522 498.566C521.022 498.566 520.228 499.359 520.228 500.338H523.772ZM520.228 500.346C520.228 501.325 521.022 502.118 522 502.118C522.978 502.118 523.772 501.325 523.772 500.346H520.228ZM523.772 507.395C523.772 506.416 522.978 505.623 522 505.623C521.022 505.623 520.228 506.416 520.228 507.395H523.772ZM520.228 507.403C520.228 508.382 521.022 509.175 522 509.175C522.978 509.175 523.772 508.382 523.772 507.403H520.228ZM523.772 514.451C523.772 513.473 522.978 512.68 522 512.68C521.022 512.68 520.228 513.473 520.228 514.451H523.772ZM520.228 514.46C520.228 515.439 521.022 516.232 522 516.232C522.978 516.232 523.772 515.439 523.772 514.46H520.228ZM523.772 521.508C523.772 520.53 522.978 519.737 522 519.737C521.022 519.737 520.228 520.53 520.228 521.508H523.772ZM520.228 521.517C520.228 522.496 521.022 523.289 522 523.289C522.978 523.289 523.772 522.496 523.772 521.517H520.228ZM523.772 528.565C523.772 527.587 522.978 526.794 522 526.794C521.022 526.794 520.228 527.587 520.228 528.565H523.772ZM520.228 528.574C520.228 529.553 521.022 530.346 522 530.346C522.978 530.346 523.772 529.553 523.772 528.574H520.228ZM523.772 535.622C523.772 534.644 522.978 533.851 522 533.851C521.022 533.851 520.228 534.644 520.228 535.622H523.772ZM520.228 535.631C520.228 536.61 521.022 537.403 522 537.403C522.978 537.403 523.772 536.61 523.772 535.631H520.228ZM523.772 542.679C523.772 541.701 522.978 540.908 522 540.908C521.022 540.908 520.228 541.701 520.228 542.679H523.772ZM520.228 542.688C520.228 543.667 521.022 544.46 522 544.46C522.978 544.46 523.772 543.667 523.772 542.688H520.228ZM523.772 549.736C523.772 548.758 522.978 547.965 522 547.965C521.022 547.965 520.228 548.758 520.228 549.736H523.772ZM520.228 549.745C520.228 550.724 521.022 551.517 522 551.517C522.978 551.517 523.772 550.724 523.772 549.745H520.228ZM523.772 556.793C523.772 555.815 522.978 555.022 522 555.022C521.022 555.022 520.228 555.815 520.228 556.793H523.772ZM520.228 556.802C520.228 557.781 521.022 558.574 522 558.574C522.978 558.574 523.772 557.781 523.772 556.802H520.228ZM523.772 563.85C523.772 562.872 522.978 562.079 522 562.079C521.022 562.079 520.228 562.872 520.228 563.85H523.772ZM520.228 563.859C520.228 564.838 521.022 565.631 522 565.631C522.978 565.631 523.772 564.838 523.772 563.859H520.228ZM523.772 570.907C523.772 569.929 522.978 569.136 522 569.136C521.022 569.136 520.228 569.929 520.228 570.907H523.772ZM520.228 570.916C520.228 571.895 521.022 572.688 522 572.688C522.978 572.688 523.772 571.895 523.772 570.916H520.228ZM523.772 577.964C523.772 576.986 522.978 576.193 522 576.193C521.022 576.193 520.228 576.986 520.228 577.964H523.772ZM520.228 577.973C520.228 578.952 521.022 579.745 522 579.745C522.978 579.745 523.772 578.952 523.772 577.973H520.228ZM523.772 585.021C523.772 584.043 522.978 583.25 522 583.25C521.022 583.25 520.228 584.043 520.228 585.021H523.772ZM520.228 585.03C520.228 586.009 521.022 586.802 522 586.802C522.978 586.802 523.772 586.009 523.772 585.03H520.228ZM523.772 592.078C523.772 591.1 522.978 590.307 522 590.307C521.022 590.307 520.228 591.1 520.228 592.078H523.772ZM520.228 592.087C520.228 593.066 521.022 593.859 522 593.859C522.978 593.859 523.772 593.066 523.772 592.087H520.228ZM523.772 599.135C523.772 598.157 522.978 597.364 522 597.364C521.022 597.364 520.228 598.157 520.228 599.135H523.772ZM520.228 599.144C520.228 600.123 521.022 600.916 522 600.916C522.978 600.916 523.772 600.123 523.772 599.144H520.228ZM523.772 606.192C523.772 605.214 522.978 604.421 522 604.421C521.022 604.421 520.228 605.214 520.228 606.192H523.772ZM520.228 606.201C520.228 607.18 521.022 607.973 522 607.973C522.978 607.973 523.772 607.18 523.772 606.201H520.228ZM523.772 613.249C523.772 612.271 522.978 611.478 522 611.478C521.022 611.478 520.228 612.271 520.228 613.249H523.772ZM520.228 613.258C520.228 614.237 521.022 615.03 522 615.03C522.978 615.03 523.772 614.237 523.772 613.258H520.228ZM523.772 620.306C523.772 619.328 522.978 618.535 522 618.535C521.022 618.535 520.228 619.328 520.228 620.306H523.772ZM520.228 620.315C520.228 621.294 521.022 622.087 522 622.087C522.978 622.087 523.772 621.294 523.772 620.315H520.228ZM523.772 627.363C523.772 626.385 522.978 625.592 522 625.592C521.022 625.592 520.228 626.385 520.228 627.363H523.772ZM520.228 627.372C520.228 628.351 521.022 629.144 522 629.144C522.978 629.144 523.772 628.351 523.772 627.372H520.228ZM523.772 634.42C523.772 633.442 522.978 632.649 522 632.649C521.022 632.649 520.228 633.442 520.228 634.42H523.772ZM520.228 634.429C520.228 635.407 521.021 636.201 522 636.201C522.978 636.201 523.772 635.408 523.772 634.429L520.228 634.429ZM522.813 641.758C523.066 640.813 522.504 639.842 521.559 639.589C520.614 639.337 519.643 639.899 519.39 640.844L522.813 641.758ZM519.388 640.852C519.135 641.797 519.696 642.768 520.642 643.021C521.587 643.274 522.558 642.713 522.811 641.767L519.388 640.852ZM519.979 648.598C520.469 647.751 520.18 646.667 519.333 646.177C518.486 645.687 517.402 645.977 516.912 646.824L519.979 648.598ZM516.908 646.831C516.418 647.678 516.707 648.761 517.554 649.252C518.401 649.742 519.484 649.453 519.975 648.606L516.908 646.831ZM515.472 654.466C516.164 653.774 516.164 652.652 515.472 651.96C514.78 651.268 513.658 651.269 512.966 651.961L515.472 654.466ZM512.961 651.966C512.269 652.658 512.268 653.78 512.96 654.472C513.652 655.164 514.774 655.164 515.466 654.472L512.961 651.966ZM509.606 658.975C510.453 658.484 510.742 657.401 510.252 656.554C509.761 655.707 508.678 655.418 507.831 655.908L509.606 658.975ZM507.824 655.912C506.977 656.402 506.687 657.486 507.177 658.333C507.667 659.18 508.751 659.469 509.598 658.979L507.824 655.912ZM502.767 661.811C503.713 661.558 504.274 660.587 504.021 659.642C503.768 658.696 502.797 658.135 501.852 658.388L502.767 661.811ZM501.844 658.39C500.899 658.643 500.337 659.614 500.589 660.559C500.842 661.504 501.813 662.066 502.758 661.813L501.844 658.39ZM495.429 662.772C496.408 662.772 497.201 661.978 497.201 661C497.201 660.021 496.407 659.228 495.429 659.228L495.429 662.772ZM495.42 659.228C494.441 659.228 493.648 660.022 493.648 661C493.648 661.978 494.441 662.772 495.42 662.772V659.228ZM487.573 662.772C488.552 662.772 489.345 661.978 489.345 661C489.345 660.022 488.552 659.228 487.573 659.228V662.772ZM487.564 659.228C486.585 659.228 485.792 660.022 485.792 661C485.792 661.978 486.585 662.772 487.564 662.772V659.228ZM479.717 662.772C480.696 662.772 481.489 661.978 481.489 661C481.489 660.022 480.696 659.228 479.717 659.228V662.772ZM479.707 659.228C478.729 659.228 477.936 660.022 477.936 661C477.936 661.978 478.729 662.772 479.707 662.772V659.228ZM471.861 662.772C472.84 662.772 473.633 661.978 473.633 661C473.633 660.022 472.84 659.228 471.861 659.228V662.772ZM471.851 659.228C470.873 659.228 470.08 660.022 470.08 661C470.08 661.978 470.873 662.772 471.851 662.772V659.228ZM464.005 662.772C464.983 662.772 465.777 661.978 465.777 661C465.777 660.022 464.983 659.228 464.005 659.228V662.772ZM520.228 458V458.004H523.772V458H520.228ZM520.228 465.053V465.061H523.772V465.053H520.228ZM520.228 472.11V472.118H523.772V472.11H520.228ZM520.228 479.167V479.175H523.772V479.167H520.228ZM520.228 486.224V486.232H523.772V486.224H520.228ZM520.228 493.281V493.289H523.772V493.281H520.228ZM520.228 500.338V500.346H523.772V500.338H520.228ZM520.228 507.395V507.403H523.772V507.395H520.228ZM520.228 514.451V514.46H523.772V514.451H520.228ZM520.228 521.508V521.517H523.772V521.508H520.228ZM520.228 528.565V528.574H523.772V528.565H520.228ZM520.228 535.622V535.631H523.772V535.622H520.228ZM520.228 542.679V542.688H523.772V542.679H520.228ZM520.228 549.736V549.745H523.772V549.736H520.228ZM520.228 556.793V556.802H523.772V556.793H520.228ZM520.228 563.85V563.859H523.772V563.85H520.228ZM520.228 570.907V570.916H523.772V570.907H520.228ZM520.228 577.964V577.973H523.772V577.964H520.228ZM520.228 585.021V585.03H523.772V585.021H520.228ZM520.228 592.078V592.087H523.772V592.078H520.228ZM520.228 599.135V599.144H523.772V599.135H520.228ZM520.228 606.192V606.201H523.772V606.192H520.228ZM520.228 613.249V613.258H523.772V613.249H520.228ZM520.228 620.306V620.315H523.772V620.306H520.228ZM520.228 627.363V627.372H523.772V627.363H520.228ZM520.228 634.42V634.425H523.772V634.42H520.228ZM520.228 634.425C520.228 634.426 520.228 634.427 520.228 634.429L523.772 634.429C523.772 634.428 523.772 634.426 523.772 634.425H520.228ZM519.39 640.844C519.389 640.847 519.389 640.849 519.388 640.852L522.811 641.767C522.812 641.764 522.813 641.761 522.813 641.758L519.39 640.844ZM516.912 646.824C516.911 646.826 516.909 646.828 516.908 646.831L519.975 648.606C519.976 648.603 519.978 648.6 519.979 648.598L516.912 646.824ZM512.966 651.961C512.964 651.963 512.963 651.964 512.961 651.966L515.466 654.472C515.468 654.47 515.47 654.468 515.472 654.466L512.966 651.961ZM507.831 655.908C507.828 655.909 507.826 655.911 507.824 655.912L509.598 658.979C509.6 658.978 509.603 658.976 509.606 658.975L507.831 655.908ZM501.852 658.388C501.849 658.389 501.847 658.389 501.844 658.39L502.758 661.813C502.761 661.813 502.764 661.812 502.767 661.811L501.852 658.388ZM495.429 659.228C495.427 659.228 495.426 659.228 495.425 659.228V662.772C495.426 662.772 495.428 662.772 495.429 662.772L495.429 659.228ZM495.425 659.228H495.42V662.772H495.425V659.228ZM487.573 659.228H487.564V662.772H487.573V659.228ZM479.717 659.228H479.707V662.772H479.717V659.228ZM471.861 659.228H471.851V662.772H471.861V659.228ZM464.005 659.228H464V662.772H464.005V659.228Z" fill="#B8C0CD"/>
    <path d="M523.253 288.253C522.561 288.945 521.439 288.945 520.747 288.253L509.472 276.978C508.78 276.286 508.78 275.164 509.472 274.472C510.164 273.78 511.286 273.78 511.978 274.472L522 284.494L532.022 274.472C532.714 273.78 533.836 273.78 534.528 274.472C535.22 275.164 535.22 276.286 534.528 276.978L523.253 288.253ZM520.228 286.996C520.228 286.017 521.022 285.224 522 285.224C522.978 285.224 523.772 286.017 523.772 286.996H520.228ZM523.772 279.947C523.772 280.926 522.978 281.719 522 281.719C521.022 281.719 520.228 280.926 520.228 279.947H523.772ZM520.228 279.939C520.228 278.96 521.022 278.167 522 278.167C522.978 278.167 523.772 278.96 523.772 279.939H520.228ZM523.772 272.89C523.772 273.869 522.978 274.662 522 274.662C521.022 274.662 520.228 273.869 520.228 272.89H523.772ZM520.228 272.882C520.228 271.903 521.022 271.11 522 271.11C522.978 271.11 523.772 271.903 523.772 272.882H520.228ZM523.772 265.833C523.772 266.812 522.978 267.605 522 267.605C521.022 267.605 520.228 266.812 520.228 265.833H523.772ZM520.228 265.825C520.228 264.846 521.022 264.053 522 264.053C522.978 264.053 523.772 264.846 523.772 265.825H520.228ZM523.772 258.776C523.772 259.755 522.978 260.548 522 260.548C521.022 260.548 520.228 259.755 520.228 258.776H523.772ZM520.228 258.768C520.228 257.789 521.022 256.996 522 256.996C522.978 256.996 523.772 257.789 523.772 258.768H520.228ZM523.772 251.719C523.772 252.698 522.978 253.491 522 253.491C521.022 253.491 520.228 252.698 520.228 251.719H523.772ZM520.228 251.711C520.228 250.732 521.022 249.939 522 249.939C522.978 249.939 523.772 250.732 523.772 251.711H520.228ZM523.772 244.662C523.772 245.641 522.978 246.434 522 246.434C521.022 246.434 520.228 245.641 520.228 244.662H523.772ZM520.228 244.654C520.228 243.675 521.022 242.882 522 242.882C522.978 242.882 523.772 243.675 523.772 244.654H520.228ZM523.772 237.605C523.772 238.584 522.978 239.377 522 239.377C521.022 239.377 520.228 238.584 520.228 237.605H523.772ZM520.228 237.597C520.228 236.618 521.022 235.825 522 235.825C522.978 235.825 523.772 236.618 523.772 237.597H520.228ZM523.772 230.549C523.772 231.527 522.978 232.32 522 232.32C521.022 232.32 520.228 231.527 520.228 230.549H523.772ZM520.228 230.54C520.228 229.561 521.022 228.768 522 228.768C522.978 228.768 523.772 229.561 523.772 230.54H520.228ZM523.772 223.492C523.772 224.47 522.978 225.263 522 225.263C521.022 225.263 520.228 224.47 520.228 223.492H523.772ZM520.228 223.483C520.228 222.504 521.022 221.711 522 221.711C522.978 221.711 523.772 222.504 523.772 223.483H520.228ZM523.772 216.435C523.772 217.413 522.978 218.206 522 218.206C521.022 218.206 520.228 217.413 520.228 216.435H523.772ZM520.228 216.426C520.228 215.447 521.022 214.654 522 214.654C522.978 214.654 523.772 215.447 523.772 216.426H520.228ZM523.772 209.378C523.772 210.356 522.978 211.149 522 211.149C521.022 211.149 520.228 210.356 520.228 209.378H523.772ZM520.228 209.369C520.228 208.39 521.022 207.597 522 207.597C522.978 207.597 523.772 208.39 523.772 209.369H520.228ZM523.772 202.321C523.772 203.299 522.978 204.092 522 204.092C521.022 204.092 520.228 203.299 520.228 202.321H523.772ZM520.228 202.312C520.228 201.333 521.022 200.54 522 200.54C522.978 200.54 523.772 201.333 523.772 202.312H520.228ZM523.772 195.264C523.772 196.242 522.978 197.035 522 197.035C521.022 197.035 520.228 196.242 520.228 195.264H523.772ZM520.228 195.255C520.228 194.276 521.022 193.483 522 193.483C522.978 193.483 523.772 194.276 523.772 195.255H520.228ZM523.772 188.207C523.772 189.185 522.978 189.978 522 189.978C521.022 189.978 520.228 189.185 520.228 188.207H523.772ZM520.228 188.198C520.228 187.219 521.022 186.426 522 186.426C522.978 186.426 523.772 187.219 523.772 188.198H520.228ZM523.772 181.15C523.772 182.128 522.978 182.921 522 182.921C521.022 182.921 520.228 182.128 520.228 181.15H523.772ZM520.228 181.141C520.228 180.162 521.022 179.369 522 179.369C522.978 179.369 523.772 180.162 523.772 181.141H520.228ZM523.772 174.093C523.772 175.071 522.978 175.864 522 175.864C521.022 175.864 520.228 175.071 520.228 174.093H523.772ZM520.228 174.084C520.228 173.105 521.022 172.312 522 172.312C522.978 172.312 523.772 173.105 523.772 174.084H520.228ZM523.772 167.036C523.772 168.014 522.978 168.807 522 168.807C521.022 168.807 520.228 168.014 520.228 167.036H523.772ZM520.228 167.027C520.228 166.048 521.022 165.255 522 165.255C522.978 165.255 523.772 166.048 523.772 167.027H520.228ZM523.772 159.979C523.772 160.957 522.978 161.75 522 161.75C521.022 161.75 520.228 160.957 520.228 159.979H523.772ZM520.228 159.97C520.228 158.991 521.022 158.198 522 158.198C522.978 158.198 523.772 158.991 523.772 159.97H520.228ZM523.772 152.922C523.772 153.9 522.978 154.693 522 154.693C521.022 154.693 520.228 153.9 520.228 152.922H523.772ZM520.228 152.913C520.228 151.934 521.022 151.141 522 151.141C522.978 151.141 523.772 151.934 523.772 152.913H520.228ZM523.772 145.865C523.772 146.843 522.978 147.636 522 147.636C521.022 147.636 520.228 146.843 520.228 145.865H523.772ZM520.228 145.856C520.228 144.877 521.022 144.084 522 144.084C522.978 144.084 523.772 144.877 523.772 145.856H520.228ZM523.772 138.808C523.772 139.786 522.978 140.579 522 140.579C521.022 140.579 520.228 139.786 520.228 138.808H523.772ZM520.228 138.799C520.228 137.82 521.022 137.027 522 137.027C522.978 137.027 523.772 137.82 523.772 138.799H520.228ZM523.772 131.751C523.772 132.729 522.978 133.522 522 133.522C521.022 133.522 520.228 132.729 520.228 131.751H523.772ZM520.228 131.742C520.228 130.763 521.022 129.97 522 129.97C522.978 129.97 523.772 130.763 523.772 131.742H520.228ZM523.772 124.694C523.772 125.672 522.978 126.465 522 126.465C521.022 126.465 520.228 125.672 520.228 124.694H523.772ZM520.228 124.685C520.228 123.706 521.022 122.913 522 122.913C522.978 122.913 523.772 123.706 523.772 124.685H520.228ZM523.772 117.637C523.772 118.615 522.978 119.408 522 119.408C521.022 119.408 520.228 118.615 520.228 117.637H523.772ZM520.228 117.628C520.228 116.649 521.022 115.856 522 115.856C522.978 115.856 523.772 116.649 523.772 117.628H520.228ZM523.772 110.58C523.772 111.558 522.978 112.351 522 112.351C521.022 112.351 520.228 111.558 520.228 110.58H523.772ZM520.228 110.571C520.228 109.593 521.021 108.799 522 108.799C522.978 108.799 523.772 109.592 523.772 110.571L520.228 110.571ZM522.813 103.242C523.066 104.187 522.504 105.158 521.559 105.411C520.614 105.663 519.643 105.101 519.39 104.156L522.813 103.242ZM519.388 104.148C519.135 103.203 519.696 102.232 520.642 101.979C521.587 101.726 522.558 102.287 522.811 103.233L519.388 104.148ZM519.979 96.4023C520.469 97.2493 520.18 98.3331 519.333 98.823C518.486 99.3128 517.402 99.0233 516.912 98.1763L519.979 96.4023ZM516.908 98.1693C516.418 97.3225 516.707 96.2386 517.554 95.7484C518.401 95.2583 519.484 95.5474 519.975 96.3943L516.908 98.1693ZM515.472 90.5342C516.164 91.2262 516.164 92.348 515.472 93.0398C514.78 93.7316 513.658 93.7314 512.966 93.0394L515.472 90.5342ZM512.961 93.0336C512.269 92.3419 512.268 91.2201 512.96 90.5281C513.652 89.8361 514.774 89.8359 515.466 90.5277L512.961 93.0336ZM509.606 86.0254C510.453 86.5155 510.742 87.5994 510.252 88.4462C509.761 89.2931 508.678 89.5822 507.831 89.0921L509.606 86.0254ZM507.824 89.088C506.977 88.5981 506.687 87.5143 507.177 86.6673C507.667 85.8203 508.751 85.5308 509.598 86.0207L507.824 89.088ZM502.767 83.189C503.713 83.4418 504.274 84.4131 504.021 85.3583C503.768 86.3036 502.797 86.8649 501.852 86.612L502.767 83.189ZM501.844 86.6099C500.899 86.3574 500.337 85.3864 500.589 84.441C500.842 83.4957 501.813 82.9341 502.758 83.1866L501.844 86.6099ZM495.429 82.2283C496.408 82.2285 497.201 83.0218 497.201 84.0003C497.201 84.9788 496.407 85.7718 495.429 85.7717L495.429 82.2283ZM495.42 85.7717C494.441 85.7717 493.648 84.9785 493.648 84C493.648 83.0215 494.441 82.2283 495.42 82.2283V85.7717ZM487.573 82.2283C488.552 82.2283 489.345 83.0215 489.345 84C489.345 84.9785 488.552 85.7717 487.573 85.7717V82.2283ZM487.564 85.7717C486.585 85.7717 485.792 84.9785 485.792 84C485.792 83.0215 486.585 82.2283 487.564 82.2283V85.7717ZM479.717 82.2283C480.696 82.2283 481.489 83.0215 481.489 84C481.489 84.9785 480.696 85.7717 479.717 85.7717V82.2283ZM479.707 85.7717C478.729 85.7717 477.936 84.9785 477.936 84C477.936 83.0215 478.729 82.2283 479.707 82.2283V85.7717ZM471.861 82.2283C472.84 82.2283 473.633 83.0215 473.633 84C473.633 84.9785 472.84 85.7717 471.861 85.7717V82.2283ZM471.851 85.7717C470.873 85.7717 470.08 84.9785 470.08 84C470.08 83.0215 470.873 82.2283 471.851 82.2283V85.7717ZM464.005 82.2283C464.983 82.2283 465.777 83.0215 465.777 84C465.777 84.9785 464.983 85.7717 464.005 85.7717V82.2283ZM520.228 287V286.996H523.772V287H520.228ZM520.228 279.947V279.939H523.772V279.947H520.228ZM520.228 272.89V272.882H523.772V272.89H520.228ZM520.228 265.833V265.825H523.772V265.833H520.228ZM520.228 258.776V258.768H523.772V258.776H520.228ZM520.228 251.719V251.711H523.772V251.719H520.228ZM520.228 244.662V244.654H523.772V244.662H520.228ZM520.228 237.605V237.597H523.772V237.605H520.228ZM520.228 230.549V230.54H523.772V230.549H520.228ZM520.228 223.492V223.483H523.772V223.492H520.228ZM520.228 216.435V216.426H523.772V216.435H520.228ZM520.228 209.378V209.369H523.772V209.378H520.228ZM520.228 202.321V202.312H523.772V202.321H520.228ZM520.228 195.264V195.255H523.772V195.264H520.228ZM520.228 188.207V188.198H523.772V188.207H520.228ZM520.228 181.15V181.141H523.772V181.15H520.228ZM520.228 174.093V174.084H523.772V174.093H520.228ZM520.228 167.036V167.027H523.772V167.036H520.228ZM520.228 159.979V159.97H523.772V159.979H520.228ZM520.228 152.922V152.913H523.772V152.922H520.228ZM520.228 145.865V145.856H523.772V145.865H520.228ZM520.228 138.808V138.799H523.772V138.808H520.228ZM520.228 131.751V131.742H523.772V131.751H520.228ZM520.228 124.694V124.685H523.772V124.694H520.228ZM520.228 117.637V117.628H523.772V117.637H520.228ZM520.228 110.58V110.575H523.772V110.58H520.228ZM520.228 110.575C520.228 110.574 520.228 110.573 520.228 110.571L523.772 110.571C523.772 110.572 523.772 110.574 523.772 110.575H520.228ZM519.39 104.156C519.389 104.153 519.389 104.151 519.388 104.148L522.811 103.233C522.812 103.236 522.813 103.239 522.813 103.242L519.39 104.156ZM516.912 98.1763C516.911 98.174 516.909 98.1717 516.908 98.1693L519.975 96.3943C519.976 96.3969 519.978 96.3996 519.979 96.4023L516.912 98.1763ZM512.966 93.0394C512.964 93.0375 512.963 93.0356 512.961 93.0336L515.466 90.5277C515.468 90.5299 515.47 90.5321 515.472 90.5342L512.966 93.0394ZM507.831 89.0921C507.828 89.0907 507.826 89.0894 507.824 89.088L509.598 86.0207C509.6 86.0223 509.603 86.0238 509.606 86.0254L507.831 89.0921ZM501.852 86.612C501.849 86.6113 501.847 86.6106 501.844 86.6099L502.758 83.1866C502.761 83.1874 502.764 83.1882 502.767 83.189L501.852 86.612ZM495.429 85.7717C495.427 85.7717 495.426 85.7717 495.425 85.7717V82.2283C495.426 82.2283 495.428 82.2283 495.429 82.2283L495.429 85.7717ZM495.425 85.7717H495.42V82.2283H495.425V85.7717ZM487.573 85.7717H487.564V82.2283H487.573V85.7717ZM479.717 85.7717H479.707V82.2283H479.717V85.7717ZM471.861 85.7717H471.851V82.2283H471.861V85.7717ZM464.005 85.7717H464V82.2283H464.005V85.7717Z" fill="#B8C0CD"/>
    <path d="M57.6406 580H63.3242C68.3516 580 71.3047 576.871 71.3047 571.539V571.516C71.3047 566.207 68.3281 563.09 63.3242 563.09H57.6406V580ZM59.75 578.102V564.988H63.1836C67.0156 564.988 69.1484 567.32 69.1484 571.539V571.562C69.1484 575.758 67.0156 578.102 63.1836 578.102H59.75ZM77.1758 580.234C78.8047 580.234 80.2695 579.355 80.9844 578.02H81.0312V580H83.0703V571.574C83.0703 569.137 81.2656 567.578 78.3828 567.578C75.5117 567.578 73.7656 569.195 73.5898 571.199L73.5781 571.328H75.5469L75.5703 571.223C75.8047 570.133 76.7891 569.383 78.3594 569.383C80.0586 569.383 81.0312 570.285 81.0312 571.773V572.793L77.5391 572.992C74.7383 573.156 73.1211 574.457 73.1211 576.531V576.555C73.1211 578.77 74.75 580.234 77.1758 580.234ZM75.207 576.555V576.531C75.207 575.395 76.1445 574.668 77.7734 574.574L81.0312 574.375V575.371C81.0312 577.141 79.5547 578.465 77.6328 578.465C76.168 578.465 75.207 577.727 75.207 576.555ZM89.6211 580.234C90.0195 580.234 90.4531 580.188 90.7109 580.152V578.5C90.5352 578.512 90.3008 578.547 90.0547 578.547C88.9648 578.547 88.3906 578.184 88.3906 576.883V569.5H90.7109V567.812H88.3906V564.52H86.2812V567.812H84.5V569.5H86.2812V576.895C86.2812 579.227 87.3828 580.234 89.6211 580.234ZM96.2305 580.234C97.8594 580.234 99.3242 579.355 100.039 578.02H100.086V580H102.125V571.574C102.125 569.137 100.32 567.578 97.4375 567.578C94.5664 567.578 92.8203 569.195 92.6445 571.199L92.6328 571.328H94.6016L94.625 571.223C94.8594 570.133 95.8438 569.383 97.4141 569.383C99.1133 569.383 100.086 570.285 100.086 571.773V572.793L96.5938 572.992C93.793 573.156 92.1758 574.457 92.1758 576.531V576.555C92.1758 578.77 93.8047 580.234 96.2305 580.234ZM94.2617 576.555V576.531C94.2617 575.395 95.1992 574.668 96.8281 574.574L100.086 574.375V575.371C100.086 577.141 98.6094 578.465 96.6875 578.465C95.2227 578.465 94.2617 577.727 94.2617 576.555Z" fill="black"/>
    <path d="M47.1719 194.281C51.0391 194.281 53.418 192.383 53.418 189.383V189.371C53.418 186.793 51.9648 185.387 48.4961 184.625L46.6211 184.215C44.418 183.734 43.3984 182.867 43.3984 181.484V181.473C43.3984 179.844 44.875 178.766 47.1367 178.754C49.2812 178.754 50.7227 179.773 50.9805 181.496L51.0039 181.66H53.1133L53.1016 181.484C52.9141 178.719 50.5 176.809 47.1953 176.809C43.7148 176.809 41.2539 178.754 41.2422 181.531V181.543C41.2422 184.016 42.7891 185.504 46.0938 186.23L47.9688 186.641C50.2891 187.156 51.2617 187.988 51.2617 189.477V189.488C51.2617 191.234 49.7266 192.336 47.2891 192.336C44.8398 192.336 43.1992 191.293 42.9531 189.594L42.9297 189.43H40.8203L40.832 189.594C41.043 192.488 43.5156 194.281 47.1719 194.281ZM59.5352 194.234C59.9336 194.234 60.3672 194.188 60.625 194.152V192.5C60.4492 192.512 60.2148 192.547 59.9688 192.547C58.8789 192.547 58.3047 192.184 58.3047 190.883V183.5H60.625V181.812H58.3047V178.52H56.1953V181.812H54.4141V183.5H56.1953V190.895C56.1953 193.227 57.2969 194.234 59.5352 194.234ZM66.1445 194.234C67.7734 194.234 69.2383 193.355 69.9531 192.02H70V194H72.0391V185.574C72.0391 183.137 70.2344 181.578 67.3516 181.578C64.4805 181.578 62.7344 183.195 62.5586 185.199L62.5469 185.328H64.5156L64.5391 185.223C64.7734 184.133 65.7578 183.383 67.3281 183.383C69.0273 183.383 70 184.285 70 185.773V186.793L66.5078 186.992C63.707 187.156 62.0898 188.457 62.0898 190.531V190.555C62.0898 192.77 63.7188 194.234 66.1445 194.234ZM64.1758 190.555V190.531C64.1758 189.395 65.1133 188.668 66.7422 188.574L70 188.375V189.371C70 191.141 68.5234 192.465 66.6016 192.465C65.1367 192.465 64.1758 191.727 64.1758 190.555ZM78.5898 194.234C78.9883 194.234 79.4219 194.188 79.6797 194.152V192.5C79.5039 192.512 79.2695 192.547 79.0234 192.547C77.9336 192.547 77.3594 192.184 77.3594 190.883V183.5H79.6797V181.812H77.3594V178.52H75.25V181.812H73.4688V183.5H75.25V190.895C75.25 193.227 76.3516 194.234 78.5898 194.234ZM86.0312 194.234C87.8828 194.234 89.125 193.402 89.7812 192.266H89.8281V194H91.8672V181.812H89.8281V188.984C89.8281 191.059 88.5742 192.43 86.6523 192.43C84.7773 192.43 83.8516 191.34 83.8516 189.359V181.812H81.8125V189.723C81.8125 192.5 83.3594 194.234 86.0312 194.234ZM98.8516 194.234C101.57 194.234 103.586 192.734 103.586 190.602V190.59C103.586 188.855 102.695 187.883 100.234 187.285L98.3008 186.816C96.9531 186.488 96.4023 185.914 96.4023 185.082V185.07C96.4023 183.992 97.3164 183.277 98.793 183.277C100.305 183.277 101.207 184.062 101.371 185.246L101.383 185.328H103.328L103.316 185.176C103.164 183.137 101.465 181.578 98.793 181.578C96.1562 181.578 94.3164 183.066 94.3164 185.164V185.176C94.3164 186.934 95.4297 188 97.7266 188.551L99.6602 189.02C101.043 189.359 101.5 189.852 101.5 190.73V190.742C101.5 191.844 100.516 192.535 98.8633 192.535C97.1992 192.535 96.2969 191.82 96.0508 190.602L96.0273 190.484H93.9883L94 190.59C94.2461 192.77 95.9805 194.234 98.8516 194.234Z" fill="black"/>
    <path d="M571.641 194H582.117V192.102H573.75V186.289H581.684V184.414H573.75V178.988H582.117V177.09H571.641V194ZM588.023 194H590.109L594.586 181.812H592.465L589.09 191.832H589.043L585.68 181.812H583.535L588.023 194ZM600.738 194.234C603.398 194.234 605.391 192.641 605.789 190.625L605.812 190.508H603.809L603.773 190.613C603.422 191.656 602.332 192.43 600.785 192.43C598.617 192.43 597.234 190.965 597.188 188.457H605.965V187.707C605.965 184.051 603.938 181.578 600.609 181.578C597.281 181.578 595.125 184.168 595.125 187.941V187.953C595.125 191.785 597.234 194.234 600.738 194.234ZM600.598 183.383C602.379 183.383 603.691 184.496 603.891 186.863H597.223C597.445 184.59 598.828 183.383 600.598 183.383ZM608.027 194H610.066V186.828C610.066 184.754 611.32 183.383 613.242 183.383C615.117 183.383 616.043 184.473 616.043 186.453V194H618.082V186.09C618.082 183.312 616.535 181.578 613.863 181.578C612.012 181.578 610.77 182.41 610.113 183.547H610.066V181.812H608.027V194ZM624.645 194.234C625.043 194.234 625.477 194.188 625.734 194.152V192.5C625.559 192.512 625.324 192.547 625.078 192.547C623.988 192.547 623.414 192.184 623.414 190.883V183.5H625.734V181.812H623.414V178.52H621.305V181.812H619.523V183.5H621.305V190.895C621.305 193.227 622.406 194.234 624.645 194.234ZM632.25 194.234C634.969 194.234 636.984 192.734 636.984 190.602V190.59C636.984 188.855 636.094 187.883 633.633 187.285L631.699 186.816C630.352 186.488 629.801 185.914 629.801 185.082V185.07C629.801 183.992 630.715 183.277 632.191 183.277C633.703 183.277 634.605 184.062 634.77 185.246L634.781 185.328H636.727L636.715 185.176C636.562 183.137 634.863 181.578 632.191 181.578C629.555 181.578 627.715 183.066 627.715 185.164V185.176C627.715 186.934 628.828 188 631.125 188.551L633.059 189.02C634.441 189.359 634.898 189.852 634.898 190.73V190.742C634.898 191.844 633.914 192.535 632.262 192.535C630.598 192.535 629.695 191.82 629.449 190.602L629.426 190.484H627.387L627.398 190.59C627.645 192.77 629.379 194.234 632.25 194.234Z" fill="black"/>
    <path d="M578.707 580.281C582.246 580.281 584.953 578.184 585.598 574.949L585.621 574.832H583.488L583.453 574.938C582.715 577.164 581.074 578.336 578.707 578.336C575.344 578.336 573.152 575.652 573.152 571.539V571.527C573.152 567.414 575.332 564.754 578.707 564.754C581.086 564.754 582.75 565.949 583.406 568L583.488 568.258H585.621L585.598 568.141C584.953 564.941 582.223 562.809 578.707 562.809C573.996 562.809 570.984 566.207 570.984 571.527V571.539C570.984 576.859 574.008 580.281 578.707 580.281ZM587.906 580H589.945V572.887C589.945 570.812 591.199 569.383 593.086 569.383C594.984 569.383 596.109 570.684 596.109 572.887V580H598.148V572.535C598.148 569.582 596.379 567.578 593.789 567.578C591.973 567.578 590.648 568.387 589.992 569.758H589.945V563.09H587.906V580ZM604.301 580.234C605.93 580.234 607.395 579.355 608.109 578.02H608.156V580H610.195V571.574C610.195 569.137 608.391 567.578 605.508 567.578C602.637 567.578 600.891 569.195 600.715 571.199L600.703 571.328H602.672L602.695 571.223C602.93 570.133 603.914 569.383 605.484 569.383C607.184 569.383 608.156 570.285 608.156 571.773V572.793L604.664 572.992C601.863 573.156 600.246 574.457 600.246 576.531V576.555C600.246 578.77 601.875 580.234 604.301 580.234ZM602.332 576.555V576.531C602.332 575.395 603.27 574.668 604.898 574.574L608.156 574.375V575.371C608.156 577.141 606.68 578.465 604.758 578.465C603.293 578.465 602.332 577.727 602.332 576.555ZM612.785 580H614.824V572.828C614.824 570.754 616.078 569.383 618 569.383C619.875 569.383 620.801 570.473 620.801 572.453V580H622.84V572.09C622.84 569.312 621.293 567.578 618.621 567.578C616.77 567.578 615.527 568.41 614.871 569.547H614.824V567.812H612.785V580ZM630.598 584.336C633.902 584.336 635.977 582.484 635.977 579.66V567.812H633.938V569.875H633.891C633.141 568.516 631.781 567.578 630.059 567.578C626.965 567.578 624.844 570.039 624.844 573.824V573.836C624.844 577.645 626.941 580.117 630.012 580.117C631.758 580.117 633.164 579.25 633.891 577.902H633.938V579.461C633.938 581.348 632.719 582.531 630.574 582.531C628.91 582.531 627.75 581.992 627.363 581.113L627.316 581.008H625.266L625.289 581.113C625.688 582.918 627.586 584.336 630.598 584.336ZM630.457 578.312C628.289 578.312 626.93 576.602 626.93 573.836V573.824C626.93 571.117 628.289 569.383 630.457 569.383C632.52 569.383 633.938 571.141 633.938 573.824V573.836C633.938 576.543 632.531 578.312 630.457 578.312ZM643.629 580.234C646.289 580.234 648.281 578.641 648.68 576.625L648.703 576.508H646.699L646.664 576.613C646.312 577.656 645.223 578.43 643.676 578.43C641.508 578.43 640.125 576.965 640.078 574.457H648.855V573.707C648.855 570.051 646.828 567.578 643.5 567.578C640.172 567.578 638.016 570.168 638.016 573.941V573.953C638.016 577.785 640.125 580.234 643.629 580.234ZM643.488 569.383C645.27 569.383 646.582 570.496 646.781 572.863H640.113C640.336 570.59 641.719 569.383 643.488 569.383ZM655.242 580.234C657.961 580.234 659.977 578.734 659.977 576.602V576.59C659.977 574.855 659.086 573.883 656.625 573.285L654.691 572.816C653.344 572.488 652.793 571.914 652.793 571.082V571.07C652.793 569.992 653.707 569.277 655.184 569.277C656.695 569.277 657.598 570.062 657.762 571.246L657.773 571.328H659.719L659.707 571.176C659.555 569.137 657.855 567.578 655.184 567.578C652.547 567.578 650.707 569.066 650.707 571.164V571.176C650.707 572.934 651.82 574 654.117 574.551L656.051 575.02C657.434 575.359 657.891 575.852 657.891 576.73V576.742C657.891 577.844 656.906 578.535 655.254 578.535C653.59 578.535 652.688 577.82 652.441 576.602L652.418 576.484H650.379L650.391 576.59C650.637 578.77 652.371 580.234 655.242 580.234Z" fill="black"/>
    <path d="M334.5 87.1722V95.1722C334.5 102.947 329.06 104.677 321.94 106.942C319.901 107.59 317.725 108.282 315.5 109.172C305.5 113.172 300 116.672 300 122.672V128.672C300 131.986 302.686 134.672 306 134.672H384C387.314 134.672 390 131.986 390 128.672V122.672C390 116.672 384.5 113.172 374.5 109.172C372.275 108.282 370.099 107.59 368.06 106.942C360.94 104.677 355.5 102.947 355.5 95.1722V87.1722" stroke="#2D2E35" stroke-width="5"/>
    <path d="M326.5 40.6723L326.911 43.1382L328.215 42.9208L328.77 41.7199L326.5 40.6723ZM325.536 58.459L326.62 60.7118L328.943 59.5944L327.755 57.3069L325.536 58.459ZM344 33.6723L343.51 36.1237V36.1237L344 33.6723ZM353.213 35.8201L353.828 33.3971L353.828 33.3971L353.213 35.8201ZM363 37.1723L362.209 34.8005V34.8006L363 37.1723ZM361.597 53.6933L359.162 53.1274L358.978 53.9166L359.293 54.6634L361.597 53.6933ZM362.83 58.1872L360.353 58.5292L360.556 60.0001L361.945 60.5255L362.83 58.1872ZM362.995 73.0927L362.058 70.7747L360.533 71.3909L360.496 73.0354L362.995 73.0927ZM327.015 73.4242L329.513 73.3215L329.437 71.4621L327.634 71.0018L327.015 73.4242ZM326.089 38.2063C323.857 38.5782 321.854 39.2598 320.401 40.571C318.829 41.9904 318.216 43.854 318.245 45.849C318.272 47.7294 318.862 49.8045 319.722 51.9907C320.595 54.2097 321.832 56.7507 323.317 59.6111L327.755 57.3069C326.289 54.4836 325.15 52.1294 324.375 50.1602C323.588 48.1582 323.258 46.7521 323.244 45.7768C323.232 44.9159 323.456 44.5493 323.752 44.2823C324.167 43.9071 325.062 43.4463 326.911 43.1382L326.089 38.2063ZM344.49 31.2208C339.283 30.1795 335.064 30.2084 331.634 31.6896C328.116 33.2085 325.878 36.054 324.23 39.6246L328.77 41.7199C330.122 38.7905 331.633 37.1361 333.616 36.2799C335.686 35.3861 338.716 35.1651 343.51 36.1237L344.49 31.2208ZM353.828 33.3971C351.236 32.7386 348.124 31.9476 344.49 31.2208L343.51 36.1237C347.003 36.8225 350.003 37.5841 352.597 38.2432L353.828 33.3971ZM362.209 34.8006C361.858 34.9177 361.1 34.9758 359.549 34.7176C358.055 34.4689 356.207 34.0012 353.828 33.3971L352.597 38.2432C354.902 38.8286 356.981 39.3588 358.728 39.6497C360.417 39.931 362.211 40.0704 363.79 39.544L362.209 34.8006ZM364.032 54.2593C364.849 50.7422 365.756 46.3342 366.186 42.8567C366.396 41.1584 366.518 39.4927 366.395 38.2294C366.339 37.6627 366.205 36.7786 365.707 36.0206C365.426 35.5913 364.952 35.0893 364.218 34.8186C363.469 34.5424 362.754 34.6191 362.209 34.8005L363.79 39.544C363.512 39.6367 363.032 39.7104 362.488 39.5098C361.959 39.3147 361.66 38.9671 361.527 38.7638C361.326 38.4578 361.379 38.3128 361.419 38.7165C361.485 39.394 361.428 40.5944 361.224 42.2427C360.826 45.4586 359.966 49.6659 359.162 53.1274L364.032 54.2593ZM359.293 54.6634C359.805 55.8802 360.166 57.1763 360.353 58.5292L365.306 57.8452C365.059 56.0543 364.58 54.3363 363.901 52.7233L359.293 54.6634ZM361.945 60.5255C364.027 61.3128 365.5 63.3236 365.5 65.6723H370.5C370.5 61.177 367.676 57.3475 363.714 55.8489L361.945 60.5255ZM365.5 65.6723C365.5 67.9778 364.08 69.9578 362.058 70.7747L363.932 75.4106C367.778 73.8564 370.5 70.0852 370.5 65.6723H365.5ZM360.496 73.0354C360.303 81.4274 353.439 88.1723 345 88.1723V93.1723C356.162 93.1723 365.24 84.2518 365.494 73.15L360.496 73.0354ZM345 88.1723C336.657 88.1723 329.852 81.5799 329.513 73.3215L324.517 73.5268C324.966 84.4534 333.964 93.1723 345 93.1723V88.1723ZM327.634 71.0018C325.255 70.3949 323.5 68.2354 323.5 65.6723H318.5C318.5 70.5755 321.858 74.6881 326.397 75.8465L327.634 71.0018ZM323.5 65.6723C323.5 63.4915 324.769 61.6023 326.62 60.7118L324.452 56.2061C320.936 57.8978 318.5 61.4982 318.5 65.6723H323.5Z" fill="#2D2E35"/>
</svg>
