<svg width="599" height="283" viewBox="0 0 599 283" fill="none" xmlns="http://www.w3.org/2000/svg">
    <path d="M220.72 19.376C220.024 20.144 219.112 20.696 217.936 20.696C216.304 20.696 214.816 19.52 214.816 17.6C214.816 15.704 216.28 14.528 217.816 14.528C218.8 14.528 219.688 14.792 220.504 15.584L221.8 13.4C220.792 12.392 219.232 11.936 217.456 11.936C214.168 11.936 211.864 14.456 211.864 17.6C211.864 21.008 214.216 23.264 217.72 23.264C219.472 23.264 221.104 22.616 222.016 21.392L220.72 19.376ZM224.231 20.024C224.231 22.232 225.119 23.24 226.775 23.24C228.071 23.24 229.007 22.832 229.631 22.328L229.055 20.216C228.719 20.456 228.359 20.648 227.927 20.648C227.279 20.648 226.991 20.12 226.991 18.896V6.2H224.231V20.024ZM232.243 14.984C233.035 14.624 233.827 14.24 235.075 14.24C236.683 14.24 237.163 15.224 237.091 17.024C236.563 16.64 235.603 16.328 234.643 16.328C232.459 16.328 230.707 17.456 230.707 19.832C230.707 21.92 232.123 23.144 234.091 23.144C235.555 23.144 236.707 22.568 237.283 21.752V23H239.683V16.424C239.683 13.568 238.555 11.936 235.363 11.936C233.947 11.936 232.483 12.416 231.547 12.968L232.243 14.984ZM235.003 20.816C234.139 20.816 233.467 20.36 233.467 19.544C233.467 18.632 234.283 18.2 235.195 18.2C235.987 18.2 236.611 18.368 237.091 18.728V19.832C236.755 20.312 236.155 20.816 235.003 20.816ZM247.985 19.952C247.985 20.624 247.361 20.96 246.569 20.96C245.489 20.96 243.857 20.312 243.209 19.616L241.865 21.416C242.369 22.184 244.385 23.264 246.377 23.264C249.017 23.264 250.745 21.944 250.745 19.808C250.745 15.992 244.913 16.976 244.913 15.176C244.913 14.696 245.417 14.24 246.257 14.24C247.409 14.24 248.537 14.768 249.185 15.272L250.217 13.304C249.545 12.68 248.201 11.936 246.113 11.936C243.881 11.936 242.153 13.112 242.153 15.224C242.153 19.16 247.985 18.2 247.985 19.952ZM258.649 19.952C258.649 20.624 258.025 20.96 257.233 20.96C256.153 20.96 254.521 20.312 253.873 19.616L252.529 21.416C253.033 22.184 255.049 23.264 257.041 23.264C259.681 23.264 261.409 21.944 261.409 19.808C261.409 15.992 255.577 16.976 255.577 15.176C255.577 14.696 256.081 14.24 256.921 14.24C258.073 14.24 259.201 14.768 259.849 15.272L260.881 13.304C260.209 12.68 258.865 11.936 256.777 11.936C254.545 11.936 252.817 13.112 252.817 15.224C252.817 19.16 258.649 18.2 258.649 19.952ZM272.671 23V16.928C273.391 17 274.351 17 274.855 17C278.863 17 280.999 14.408 280.999 11.552C280.999 8.792 279.439 6.152 274.495 6.152C273.319 6.152 270.655 6.2 269.719 6.2V23H272.671ZM274.783 8.912C276.799 8.912 277.879 9.776 277.879 11.528C277.879 13.4 276.511 14.24 274.759 14.24C274.087 14.24 273.367 14.192 272.671 14.12V8.96C273.463 8.936 274.183 8.912 274.783 8.912ZM290.664 19.976C290.04 20.48 288.936 20.96 287.616 20.96C285.912 20.96 284.616 20.072 284.376 18.44H292.176C292.296 18.032 292.344 17.624 292.344 16.952C292.344 13.928 290.016 11.936 287.232 11.936C283.68 11.936 281.52 14.456 281.52 17.6C281.52 21.008 283.848 23.264 287.328 23.264C288.84 23.264 290.376 22.832 291.456 21.92L290.664 19.976ZM287.112 14.24C288.696 14.24 289.608 15.272 289.584 16.592H284.28C284.568 15.176 285.456 14.24 287.112 14.24ZM294.567 23H297.327V15.752C297.639 15.128 298.143 14.6 299.103 14.6C299.679 14.6 299.967 14.696 300.495 15.008L301.479 12.416C301.119 12.152 300.687 12.008 299.799 12.008C298.503 12.008 297.831 12.56 297.327 13.256V12.2H294.567V23ZM303.46 23H306.22V12.2H303.46V23ZM303.172 8.312C303.172 9.416 303.964 10.04 304.9 10.04C305.692 10.04 306.484 9.416 306.484 8.312C306.484 7.328 305.692 6.704 304.9 6.704C303.964 6.704 303.172 7.328 303.172 8.312ZM309.036 17.6C309.036 20.84 311.34 23.264 314.916 23.264C318.492 23.264 320.796 20.84 320.796 17.6C320.796 14.36 318.492 11.936 314.916 11.936C311.34 11.936 309.036 14.36 309.036 17.6ZM311.988 17.6C311.988 15.728 313.284 14.528 314.916 14.528C316.596 14.528 317.868 15.776 317.868 17.6C317.868 19.472 316.62 20.696 314.916 20.696C313.236 20.696 311.988 19.4 311.988 17.6ZM330.696 23H333.456V6.2H330.696V12.464C330.096 12.104 329.4 11.936 328.44 11.936C324.96 11.936 322.512 14.312 322.512 17.72C322.512 21.008 324.504 23.192 327.6 23.192C328.992 23.192 329.976 22.64 330.696 21.872V23ZM328.176 20.624C326.712 20.624 325.464 19.544 325.464 17.624C325.464 15.632 326.928 14.528 328.56 14.528C329.304 14.528 330 14.744 330.696 15.176V19.52C330.072 20.144 329.184 20.624 328.176 20.624Z" fill="#10162F"/>
    <rect x="159.5" y="43.5" width="281" height="167" fill="white"/>
    <rect width="96" height="48" transform="translate(191 75)" fill="#FF315D"/>
    <path d="M205 102.56C205 103.38 204.24 103.8 203.4 103.8C202.5 103.8 201.32 103.26 200.8 102.66L199.9 103.8C200.32 104.44 201.76 105.2 203.22 105.2C205.02 105.2 206.7 104.38 206.7 102.48C206.7 99.32 201.84 100.22 201.84 98.32C201.84 97.72 202.38 97.2 203.28 97.2C204.22 97.2 205 97.6 205.54 98.08L206.3 96.86C205.76 96.34 204.68 95.8 203.2 95.8C201.42 95.8 200.14 96.76 200.14 98.34C200.14 101.64 205 100.74 205 102.56ZM208.834 101.58C208.834 103.88 209.634 105.16 211.654 105.16C212.654 105.16 213.474 104.8 213.954 104.4L213.454 103.16C213.134 103.4 212.654 103.66 212.034 103.66C210.894 103.66 210.434 102.84 210.434 101.42V97.5H213.734V96H210.434V93.5H208.834V101.58ZM216.565 97.9C217.285 97.52 217.945 97.24 219.045 97.24C220.825 97.24 221.085 98.4 221.085 100.08C220.485 99.64 219.545 99.5 218.845 99.5C216.905 99.5 215.445 100.52 215.445 102.36C215.445 104.1 216.565 105.14 218.205 105.14C219.685 105.14 220.545 104.52 221.085 103.84V105H222.605V99.48C222.605 97.14 221.705 95.8 219.145 95.8C218.025 95.8 216.945 96.12 216.145 96.62L216.565 97.9ZM218.765 103.7C217.725 103.7 217.145 103.14 217.145 102.28C217.145 101.24 218.105 100.8 219.065 100.8C219.845 100.8 220.525 101 221.085 101.4V102.54C220.625 103.08 219.945 103.7 218.765 103.7ZM225.284 105H226.884V98.62C227.224 97.96 227.724 97.34 228.764 97.34C229.304 97.34 229.544 97.42 229.984 97.68L230.544 96.18C230.244 95.96 229.884 95.84 229.144 95.84C228.004 95.84 227.344 96.38 226.884 97.06V96H225.284V105ZM231.881 101.58C231.881 103.88 232.681 105.16 234.701 105.16C235.701 105.16 236.521 104.8 237.001 104.4L236.501 103.16C236.181 103.4 235.701 103.66 235.081 103.66C233.941 103.66 233.481 102.84 233.481 101.42V97.5H236.781V96H233.481V93.5H231.881V101.58ZM239.791 105H240.011C241.191 105 242.511 105.04 243.451 105.04C248.791 105.04 251.471 101.8 251.471 97.82C251.471 94.16 249.211 90.94 243.611 90.94C242.471 90.94 240.951 91 240.031 91H239.791V105ZM243.571 92.54C247.631 92.54 249.671 94.78 249.671 97.82C249.671 101.08 247.511 103.44 243.511 103.44C243.271 103.44 242.411 103.42 241.491 103.4V92.6C242.191 92.58 242.731 92.54 243.571 92.54ZM254.397 97.9C255.117 97.52 255.777 97.24 256.877 97.24C258.657 97.24 258.917 98.4 258.917 100.08C258.317 99.64 257.377 99.5 256.677 99.5C254.737 99.5 253.277 100.52 253.277 102.36C253.277 104.1 254.397 105.14 256.037 105.14C257.517 105.14 258.377 104.52 258.917 103.84V105H260.437V99.48C260.437 97.14 259.537 95.8 256.977 95.8C255.857 95.8 254.777 96.12 253.977 96.62L254.397 97.9ZM256.597 103.7C255.557 103.7 254.977 103.14 254.977 102.28C254.977 101.24 255.937 100.8 256.897 100.8C257.677 100.8 258.357 101 258.917 101.4V102.54C258.457 103.08 257.777 103.7 256.597 103.7ZM262.916 101.58C262.916 103.88 263.716 105.16 265.736 105.16C266.736 105.16 267.556 104.8 268.036 104.4L267.536 103.16C267.216 103.4 266.736 103.66 266.116 103.66C264.976 103.66 264.516 102.84 264.516 101.42V97.5H267.816V96H264.516V93.5H262.916V101.58ZM276.915 102.76C276.335 103.3 275.315 103.7 274.155 103.7C272.395 103.7 271.155 102.7 271.015 101H277.935C277.995 100.72 278.035 100.36 278.035 99.92C278.035 97.44 276.175 95.8 273.855 95.8C270.895 95.8 269.215 97.88 269.215 100.5C269.215 103.34 271.115 105.2 274.035 105.2C275.235 105.2 276.535 104.82 277.415 104.02L276.915 102.76ZM273.775 97.3C275.335 97.3 276.295 98.22 276.375 99.7H270.915C271.095 98.32 272.135 97.3 273.775 97.3Z" fill="white"/>
    <rect width="90" height="48" transform="translate(191 131)" fill="#FF315D"/>
    <path d="M207.54 158.76C206.96 159.3 205.94 159.7 204.78 159.7C203.02 159.7 201.78 158.7 201.64 157H208.56C208.62 156.72 208.66 156.36 208.66 155.92C208.66 153.44 206.8 151.8 204.48 151.8C201.52 151.8 199.84 153.88 199.84 156.5C199.84 159.34 201.74 161.2 204.66 161.2C205.86 161.2 207.16 160.82 208.04 160.02L207.54 158.76ZM204.4 153.3C205.96 153.3 206.92 154.22 207 155.7H201.54C201.72 154.32 202.76 153.3 204.4 153.3ZM210.831 161H212.431V154.5C213.011 153.84 213.951 153.34 214.971 153.34C216.651 153.34 217.511 154.22 217.511 156.1V161H219.111V155.8C219.111 152.98 217.711 151.84 215.371 151.84C214.191 151.84 213.051 152.42 212.431 153.1V152H210.831V161ZM228.407 161H230.007V147H228.407V152.44C227.787 152 227.087 151.8 226.127 151.8C223.287 151.8 221.207 153.76 221.207 156.56C221.207 159.34 222.907 161.16 225.547 161.16C226.767 161.16 227.747 160.58 228.407 159.86V161ZM225.847 159.66C224.167 159.66 222.907 158.5 222.907 156.52C222.907 154.54 224.407 153.3 226.187 153.3C226.927 153.3 227.647 153.52 228.407 154V158.46C227.847 159.08 226.887 159.66 225.847 159.66ZM233.541 161H233.761C234.941 161 236.261 161.04 237.201 161.04C242.541 161.04 245.221 157.8 245.221 153.82C245.221 150.16 242.961 146.94 237.361 146.94C236.221 146.94 234.701 147 233.781 147H233.541V161ZM237.321 148.54C241.381 148.54 243.421 150.78 243.421 153.82C243.421 157.08 241.261 159.44 237.261 159.44C237.021 159.44 236.161 159.42 235.241 159.4V148.6C235.941 148.58 236.481 148.54 237.321 148.54ZM248.147 153.9C248.867 153.52 249.527 153.24 250.627 153.24C252.407 153.24 252.667 154.4 252.667 156.08C252.067 155.64 251.127 155.5 250.427 155.5C248.487 155.5 247.027 156.52 247.027 158.36C247.027 160.1 248.147 161.14 249.787 161.14C251.267 161.14 252.127 160.52 252.667 159.84V161H254.187V155.48C254.187 153.14 253.287 151.8 250.727 151.8C249.607 151.8 248.527 152.12 247.727 152.62L248.147 153.9ZM250.347 159.7C249.307 159.7 248.727 159.14 248.727 158.28C248.727 157.24 249.687 156.8 250.647 156.8C251.427 156.8 252.107 157 252.667 157.4V158.54C252.207 159.08 251.527 159.7 250.347 159.7ZM256.666 157.58C256.666 159.88 257.466 161.16 259.486 161.16C260.486 161.16 261.306 160.8 261.786 160.4L261.286 159.16C260.966 159.4 260.486 159.66 259.866 159.66C258.726 159.66 258.266 158.84 258.266 157.42V153.5H261.566V152H258.266V149.5H256.666V157.58ZM270.665 158.76C270.085 159.3 269.065 159.7 267.905 159.7C266.145 159.7 264.905 158.7 264.765 157H271.685C271.745 156.72 271.785 156.36 271.785 155.92C271.785 153.44 269.925 151.8 267.605 151.8C264.645 151.8 262.965 153.88 262.965 156.5C262.965 159.34 264.865 161.2 267.785 161.2C268.985 161.2 270.285 160.82 271.165 160.02L270.665 158.76ZM267.525 153.3C269.085 153.3 270.045 154.22 270.125 155.7H264.665C264.845 154.32 265.885 153.3 267.525 153.3Z" fill="white"/>
    <rect width="58" height="48" transform="translate(351 75)" fill="#FFE000"/>
    <path d="M361.1 105H361.32C362.5 105 363.82 105.04 364.76 105.04C370.1 105.04 372.78 101.8 372.78 97.82C372.78 94.16 370.52 90.94 364.92 90.94C363.78 90.94 362.26 91 361.34 91H361.1V105ZM364.88 92.54C368.94 92.54 370.98 94.78 370.98 97.82C370.98 101.08 368.82 103.44 364.82 103.44C364.58 103.44 363.72 103.42 362.8 103.4V92.6C363.5 92.58 364.04 92.54 364.88 92.54ZM375.705 97.9C376.425 97.52 377.085 97.24 378.185 97.24C379.965 97.24 380.225 98.4 380.225 100.08C379.625 99.64 378.685 99.5 377.985 99.5C376.045 99.5 374.585 100.52 374.585 102.36C374.585 104.1 375.705 105.14 377.345 105.14C378.825 105.14 379.685 104.52 380.225 103.84V105H381.745V99.48C381.745 97.14 380.845 95.8 378.285 95.8C377.165 95.8 376.085 96.12 375.285 96.62L375.705 97.9ZM377.905 103.7C376.865 103.7 376.285 103.14 376.285 102.28C376.285 101.24 377.245 100.8 378.205 100.8C378.985 100.8 379.665 101 380.225 101.4V102.54C379.765 103.08 379.085 103.7 377.905 103.7ZM384.224 101.58C384.224 103.88 385.024 105.16 387.044 105.16C388.044 105.16 388.864 104.8 389.344 104.4L388.844 103.16C388.524 103.4 388.044 103.66 387.424 103.66C386.284 103.66 385.824 102.84 385.824 101.42V97.5H389.124V96H385.824V93.5H384.224V101.58ZM398.224 102.76C397.644 103.3 396.624 103.7 395.464 103.7C393.704 103.7 392.464 102.7 392.324 101H399.244C399.304 100.72 399.344 100.36 399.344 99.92C399.344 97.44 397.484 95.8 395.164 95.8C392.204 95.8 390.524 97.88 390.524 100.5C390.524 103.34 392.424 105.2 395.344 105.2C396.544 105.2 397.844 104.82 398.724 104.02L398.224 102.76ZM395.084 97.3C396.644 97.3 397.604 98.22 397.684 99.7H392.224C392.404 98.32 393.444 97.3 395.084 97.3Z" fill="#10162F"/>
    <rect width="58" height="48" transform="translate(351 131)" fill="#FFE000"/>
    <path d="M361.1 161H361.32C362.5 161 363.82 161.04 364.76 161.04C370.1 161.04 372.78 157.8 372.78 153.82C372.78 150.16 370.52 146.94 364.92 146.94C363.78 146.94 362.26 147 361.34 147H361.1V161ZM364.88 148.54C368.94 148.54 370.98 150.78 370.98 153.82C370.98 157.08 368.82 159.44 364.82 159.44C364.58 159.44 363.72 159.42 362.8 159.4V148.6C363.5 148.58 364.04 148.54 364.88 148.54ZM375.705 153.9C376.425 153.52 377.085 153.24 378.185 153.24C379.965 153.24 380.225 154.4 380.225 156.08C379.625 155.64 378.685 155.5 377.985 155.5C376.045 155.5 374.585 156.52 374.585 158.36C374.585 160.1 375.705 161.14 377.345 161.14C378.825 161.14 379.685 160.52 380.225 159.84V161H381.745V155.48C381.745 153.14 380.845 151.8 378.285 151.8C377.165 151.8 376.085 152.12 375.285 152.62L375.705 153.9ZM377.905 159.7C376.865 159.7 376.285 159.14 376.285 158.28C376.285 157.24 377.245 156.8 378.205 156.8C378.985 156.8 379.665 157 380.225 157.4V158.54C379.765 159.08 379.085 159.7 377.905 159.7ZM384.224 157.58C384.224 159.88 385.024 161.16 387.044 161.16C388.044 161.16 388.864 160.8 389.344 160.4L388.844 159.16C388.524 159.4 388.044 159.66 387.424 159.66C386.284 159.66 385.824 158.84 385.824 157.42V153.5H389.124V152H385.824V149.5H384.224V157.58ZM398.224 158.76C397.644 159.3 396.624 159.7 395.464 159.7C393.704 159.7 392.464 158.7 392.324 157H399.244C399.304 156.72 399.344 156.36 399.344 155.92C399.344 153.44 397.484 151.8 395.164 151.8C392.204 151.8 390.524 153.88 390.524 156.5C390.524 159.34 392.424 161.2 395.344 161.2C396.544 161.2 397.844 160.82 398.724 160.02L398.224 158.76ZM395.084 153.3C396.644 153.3 397.604 154.22 397.684 155.7H392.224C392.404 154.32 393.444 153.3 395.084 153.3Z" fill="#10162F"/>
    <rect x="159.5" y="43.5" width="281" height="167" stroke="#D3DBE6" stroke-dasharray="2 2"/>
    <path d="M176.5 241H178.2V227H176.5V233.06H168.8V227H167.1V241H168.8V234.66H176.5V241ZM182.213 233.9C182.933 233.52 183.593 233.24 184.693 233.24C186.473 233.24 186.733 234.4 186.733 236.08C186.133 235.64 185.193 235.5 184.493 235.5C182.553 235.5 181.093 236.52 181.093 238.36C181.093 240.1 182.213 241.14 183.853 241.14C185.333 241.14 186.193 240.52 186.733 239.84V241H188.253V235.48C188.253 233.14 187.353 231.8 184.793 231.8C183.673 231.8 182.593 232.12 181.793 232.62L182.213 233.9ZM184.413 239.7C183.373 239.7 182.793 239.14 182.793 238.28C182.793 237.24 183.753 236.8 184.713 236.8C185.493 236.8 186.173 237 186.733 237.4V238.54C186.273 239.08 185.593 239.7 184.413 239.7ZM193.912 241.2C196.132 241.2 197.732 240.18 197.732 238.5C197.732 237.46 197.112 236.52 195.852 236.38V236.34C196.992 235.94 197.432 235.1 197.432 234.22C197.432 232.74 196.252 231.8 194.052 231.8C192.632 231.8 191.232 232.24 190.492 233L191.112 234.24C191.712 233.76 192.572 233.24 193.812 233.24C194.972 233.24 195.732 233.72 195.732 234.54C195.732 235.26 195.072 235.82 194.172 235.82H192.752V237.12H194.272C195.372 237.12 196.032 237.54 196.032 238.28C196.032 239.18 195.032 239.76 193.672 239.76C192.892 239.76 191.772 239.4 191.012 238.78L190.192 239.98C190.792 240.7 192.592 241.2 193.912 241.2ZM200.17 241C200.99 241 202.35 241.08 203.47 241.08C206.27 241.08 207.61 240.16 207.61 238.46C207.61 237.34 206.95 236.6 205.51 236.34V236.3C206.59 236.14 207.31 235.3 207.31 234.24C207.31 232.62 205.95 231.92 203.43 231.92C202.13 231.92 200.95 232 200.17 232V241ZM203.69 236.96C205.13 236.96 205.91 237.4 205.91 238.34C205.91 239.28 205.09 239.78 203.61 239.78C202.89 239.78 202.25 239.74 201.77 239.72V236.96H203.69ZM203.55 233.22C204.71 233.22 205.61 233.58 205.61 234.56C205.61 235.44 204.85 235.96 203.79 235.96H201.77V233.28C202.17 233.26 202.83 233.22 203.55 233.22ZM210.533 233.9C211.253 233.52 211.913 233.24 213.013 233.24C214.793 233.24 215.053 234.4 215.053 236.08C214.453 235.64 213.513 235.5 212.813 235.5C210.873 235.5 209.413 236.52 209.413 238.36C209.413 240.1 210.533 241.14 212.173 241.14C213.653 241.14 214.513 240.52 215.053 239.84V241H216.573V235.48C216.573 233.14 215.673 231.8 213.113 231.8C211.993 231.8 210.913 232.12 210.113 232.62L210.533 233.9ZM212.733 239.7C211.693 239.7 211.113 239.14 211.113 238.28C211.113 237.24 212.073 236.8 213.033 236.8C213.813 236.8 214.493 237 215.053 237.4V238.54C214.593 239.08 213.913 239.7 212.733 239.7ZM225.853 241H227.453V232H225.853V235.7H220.853V232H219.253V241H220.853V237.2H225.853V241ZM231.946 241L237.146 234.3V241H238.746V232H237.146L231.946 238.7V232H230.346V241H231.946ZM248.755 238.76C248.175 239.3 247.155 239.7 245.995 239.7C244.235 239.7 242.995 238.7 242.855 237H249.775C249.835 236.72 249.875 236.36 249.875 235.92C249.875 233.44 248.015 231.8 245.695 231.8C242.735 231.8 241.055 233.88 241.055 236.5C241.055 239.34 242.955 241.2 245.875 241.2C247.075 241.2 248.375 240.82 249.255 240.02L248.755 238.76ZM245.615 233.3C247.175 233.3 248.135 234.22 248.215 235.7H242.755C242.935 234.32 243.975 233.3 245.615 233.3ZM173.36 270.54C172.76 271.22 171.86 271.7 170.78 271.7C169 271.7 167.54 270.48 167.54 268.5C167.54 266.6 169 265.3 170.62 265.3C171.56 265.3 172.44 265.54 173.2 266.24L173.94 264.98C173.1 264.14 171.84 263.8 170.4 263.8C167.76 263.8 165.84 265.88 165.84 268.5C165.84 271.34 167.8 273.2 170.66 273.2C172.04 273.2 173.36 272.68 174.12 271.7L173.36 270.54ZM175.117 268.5C175.117 271.2 177.037 273.2 179.917 273.2C182.797 273.2 184.717 271.2 184.717 268.5C184.717 265.8 182.797 263.8 179.917 263.8C177.037 263.8 175.117 265.8 175.117 268.5ZM176.817 268.5C176.817 266.6 178.157 265.3 179.917 265.3C181.717 265.3 183.017 266.62 183.017 268.5C183.017 270.42 181.717 271.7 179.917 271.7C178.117 271.7 176.817 270.38 176.817 268.5ZM193.946 270.54C193.346 271.22 192.446 271.7 191.366 271.7C189.586 271.7 188.126 270.48 188.126 268.5C188.126 266.6 189.586 265.3 191.206 265.3C192.146 265.3 193.026 265.54 193.786 266.24L194.526 264.98C193.686 264.14 192.426 263.8 190.986 263.8C188.346 263.8 186.426 265.88 186.426 268.5C186.426 271.34 188.386 273.2 191.246 273.2C192.626 273.2 193.946 272.68 194.706 271.7L193.946 270.54ZM195.534 265.6H198.834V273H200.434V265.6H203.734V264H195.534V265.6ZM205.963 265.9C206.683 265.52 207.343 265.24 208.443 265.24C210.223 265.24 210.483 266.4 210.483 268.08C209.883 267.64 208.943 267.5 208.243 267.5C206.303 267.5 204.843 268.52 204.843 270.36C204.843 272.1 205.963 273.14 207.603 273.14C209.083 273.14 209.943 272.52 210.483 271.84V273H212.003V267.48C212.003 265.14 211.103 263.8 208.543 263.8C207.423 263.8 206.343 264.12 205.543 264.62L205.963 265.9ZM208.163 271.7C207.123 271.7 206.543 271.14 206.543 270.28C206.543 269.24 207.503 268.8 208.463 268.8C209.243 268.8 209.923 269 210.483 269.4V270.54C210.023 271.08 209.343 271.7 208.163 271.7ZM214.682 273C215.502 273 216.862 273.08 217.982 273.08C220.782 273.08 222.122 272.16 222.122 270.46C222.122 269.34 221.462 268.6 220.022 268.34V268.3C221.102 268.14 221.822 267.3 221.822 266.24C221.822 264.62 220.462 263.92 217.942 263.92C216.642 263.92 215.462 264 214.682 264V273ZM218.202 268.96C219.642 268.96 220.422 269.4 220.422 270.34C220.422 271.28 219.602 271.78 218.122 271.78C217.402 271.78 216.762 271.74 216.282 271.72V268.96H218.202ZM218.062 265.22C219.222 265.22 220.122 265.58 220.122 266.56C220.122 267.44 219.362 267.96 218.302 267.96H216.282V265.28C216.682 265.26 217.342 265.22 218.062 265.22ZM230.725 273H232.325V264H226.065L225.905 266.8C225.685 270.96 224.405 271.62 223.725 271.56L223.845 273.12C225.705 273.12 227.065 272.24 227.465 267.12L227.565 265.6H230.725V273ZM239.15 264C236.15 264 235.13 265.46 235.13 267C235.13 268.48 236.15 269.38 237.07 269.6L234.47 273H236.41L238.61 270H240.35V273H241.95V264H239.15ZM236.83 267.04C236.83 266.2 237.39 265.5 238.89 265.5H240.35V268.5H238.51C237.71 268.5 236.83 267.96 236.83 267.04ZM244.858 273H246.558V269.2H248.498C248.778 271.54 250.518 273.2 253.058 273.2C255.838 273.2 257.758 271.2 257.758 268.5C257.758 265.8 255.878 263.8 253.058 263.8C250.598 263.8 248.878 265.38 248.518 267.6H246.558V264H244.858V273ZM250.258 268.5C250.258 266.64 251.438 265.4 253.118 265.4C254.838 265.4 255.958 266.66 255.958 268.5C255.958 270.38 254.778 271.6 253.118 271.6C251.458 271.6 250.258 270.4 250.258 268.5ZM260.053 273H271.453V275.2H272.953V271.5H271.453V264H269.853V271.5H266.553V264H264.953V271.5H261.653V264H260.053V273ZM281.802 270.76C281.222 271.3 280.202 271.7 279.042 271.7C277.282 271.7 276.042 270.7 275.902 269H282.822C282.882 268.72 282.922 268.36 282.922 267.92C282.922 265.44 281.062 263.8 278.742 263.8C275.782 263.8 274.102 265.88 274.102 268.5C274.102 271.34 276.002 273.2 278.922 273.2C280.122 273.2 281.422 272.82 282.302 272.02L281.802 270.76ZM278.662 265.3C280.222 265.3 281.182 266.22 281.262 267.7H275.802C275.982 266.32 277.022 265.3 278.662 265.3ZM286.692 273L291.892 266.3V273H293.492V264H291.892L286.692 270.7V264H285.092V273H286.692ZM286.372 259.4C286.372 260.98 287.432 262.2 289.412 262.2C291.212 262.2 292.372 260.98 292.372 259.4H290.872C290.792 260.48 290.292 260.98 289.412 260.98C288.452 260.98 287.952 260.48 287.872 259.4H286.372Z" fill="#6C7991"/>
    <path d="M366.34 242H364.28L358.14 248.7L364.48 256H366.66L360.1 248.58L366.34 242ZM356.1 256H357.8V242H356.1V256ZM374.549 256H376.149V247H369.889L369.729 249.8C369.509 253.96 368.229 254.62 367.549 254.56L367.669 256.12C369.529 256.12 370.889 255.24 371.289 250.12L371.389 248.6H374.549V256ZM379.514 248.9C380.234 248.52 380.894 248.24 381.994 248.24C383.774 248.24 384.034 249.4 384.034 251.08C383.434 250.64 382.494 250.5 381.794 250.5C379.854 250.5 378.394 251.52 378.394 253.36C378.394 255.1 379.514 256.14 381.154 256.14C382.634 256.14 383.494 255.52 384.034 254.84V256H385.554V250.48C385.554 248.14 384.654 246.8 382.094 246.8C380.974 246.8 379.894 247.12 379.094 247.62L379.514 248.9ZM381.714 254.7C380.674 254.7 380.094 254.14 380.094 253.28C380.094 252.24 381.054 251.8 382.014 251.8C382.794 251.8 383.474 252 384.034 252.4V253.54C383.574 254.08 382.894 254.7 381.714 254.7ZM395.153 253.54C394.553 254.22 393.653 254.7 392.573 254.7C390.793 254.7 389.333 253.48 389.333 251.5C389.333 249.6 390.793 248.3 392.413 248.3C393.353 248.3 394.233 248.54 394.993 249.24L395.733 247.98C394.893 247.14 393.633 246.8 392.193 246.8C389.553 246.8 387.633 248.88 387.633 251.5C387.633 254.34 389.593 256.2 392.453 256.2C393.833 256.2 395.153 255.68 395.913 254.7L395.153 253.54ZM404.43 253.54C403.83 254.22 402.93 254.7 401.85 254.7C400.07 254.7 398.61 253.48 398.61 251.5C398.61 249.6 400.07 248.3 401.69 248.3C402.63 248.3 403.51 248.54 404.27 249.24L405.01 247.98C404.17 247.14 402.91 246.8 401.47 246.8C398.83 246.8 396.91 248.88 396.91 251.5C396.91 254.34 398.87 256.2 401.73 256.2C403.11 256.2 404.43 255.68 405.19 254.7L404.43 253.54Z" fill="#6C7991"/>
    <path d="M160 252H121V97.5H190" stroke="#D3DBE6"/>
    <path d="M121.5 155H188.5" stroke="#D3DBE6"/>
    <path d="M411 252H479V97.5H410" stroke="#D3DBE6"/>
    <path d="M478.5 155H411.5" stroke="#D3DBE6"/>
</svg>
