<svg width="600" height="600" viewBox="0 0 600 600" fill="none" xmlns="http://www.w3.org/2000/svg">
    <rect width="192.146" height="357.789" transform="matrix(0.866025 0.5 -2.20305e-08 1 216 75.6816)" fill="#73FFE5"/>
    <rect width="192.146" height="357.789" transform="matrix(0.866025 0.5 -2.20305e-08 1 216 75.6816)" fill="#3C4257"/>
    <path d="M258.799 51L425.202 147.073L382.418 171.774L216.015 75.7014L237.407 63.3507L258.799 51Z" fill="#CEC0FF"/>
    <path d="M382.402 171.754L425.438 146.907L425.438 504.994L382.402 529.841L382.402 350.797L382.402 171.754Z" fill="#FBE582"/>
    <rect width="138.862" height="262.935" rx="8.28215" transform="matrix(0.866025 0.5 -2.20305e-08 1 239.088 122.062)" fill="white"/>
    <rect width="138.862" height="262.935" rx="8.28215" transform="matrix(0.866025 0.5 -2.20305e-08 1 209.088 139.062)" fill="#CDE6FE"/>
    <path d="M197.921 431V431C197.921 440.956 197.921 445.934 196.42 450.688C194.68 456.201 191.557 461.61 187.652 465.874C184.286 469.55 179.975 472.039 171.353 477.017L162.568 482.089C153.946 487.067 149.635 489.556 146.268 489.767C142.364 490.011 139.241 488.208 137.501 484.705C136 481.684 136 476.706 136 466.75V466.75" stroke="#B8C0CD" stroke-width="2" stroke-linecap="round"/>
    <path d="M307 459.612L307 467.612C307 478.813 307 484.413 305.112 489.782C303.452 494.504 300.802 499.093 297.543 502.892C293.838 507.211 288.988 510.011 279.287 515.612L230.713 543.656C221.012 549.257 216.162 552.057 212.457 552.016C209.198 551.98 206.548 550.451 204.888 547.646C203 544.458 203 538.857 203 527.656L203 519.656" stroke="#B8C0CD" stroke-width="2" stroke-linecap="round"/>
    <rect width="57" height="36" transform="matrix(0.866025 -0.5 2.20305e-08 1 109 445.5)" fill="#FDF3B4"/>
    <path d="M121.517 462.273L124.006 460.836L127.274 447.676L125.008 448.984L122.782 459.129L122.741 459.152L120.509 451.582L118.249 452.887L121.517 462.273ZM129.027 448.484C129.622 448.141 130.082 447.336 130.082 446.688C130.082 446.039 129.622 445.766 129.027 446.109C128.431 446.453 127.971 447.258 127.971 447.906C127.971 448.555 128.431 448.828 129.027 448.484ZM128.039 458.508L130.015 457.367L130.015 448.992L128.039 450.133L128.039 458.508ZM134.642 454.867C136.713 453.672 137.714 451.68 137.937 450.316L137.958 450.219L136.144 451.266L136.131 451.32C135.989 451.871 135.495 452.672 134.683 453.141C133.675 453.723 133.046 453.305 133.025 451.98L138.019 449.098L138.019 448.395C138.019 445.863 136.686 444.969 134.561 446.195C132.437 447.422 131.077 449.91 131.077 452.574L131.077 452.582C131.077 455.262 132.423 456.148 134.642 454.867ZM134.595 447.879C135.414 447.406 136.002 447.668 136.124 448.754L133.046 450.531C133.174 449.324 133.783 448.348 134.595 447.879ZM140.414 451.363L142.491 450.164L143.797 443.488L143.837 443.465L145.15 448.629L147.254 447.414L149.175 437.93L147.227 439.055L146.124 445.902L146.083 445.926L144.791 440.461L142.897 441.555L141.611 448.508L141.571 448.531L140.475 442.953L138.485 444.102L140.414 451.363Z" fill="black"/>
    <rect width="80" height="36" transform="matrix(0.866025 -0.5 2.20305e-08 1 163 514)" fill="#FDF3B4"/>
    <path d="M174.624 531.289L176.62 530.137L178.419 521.543L178.46 521.52L180.253 528.039L182.249 526.887L184.84 514.117L182.722 515.34L181.173 524.312L181.132 524.336L179.333 517.297L177.54 518.332L175.74 527.449L175.699 527.473L174.157 520.285L172.039 521.508L174.624 531.289ZM186.802 514.805C187.397 514.461 187.858 513.656 187.858 513.008C187.858 512.359 187.397 512.086 186.802 512.43C186.207 512.773 185.747 513.578 185.747 514.227C185.747 514.875 186.207 515.148 186.802 514.805ZM185.814 524.828L187.79 523.688L187.79 515.312L185.814 516.453L185.814 524.828ZM189.116 522.922L191.092 521.781L191.092 516.969C191.092 515.875 191.653 514.801 192.539 514.289C193.426 513.777 193.872 514.145 193.872 515.238L193.872 520.176L195.848 519.035L195.848 513.629C195.848 511.668 194.941 511.012 193.345 511.934C192.249 512.566 191.504 513.582 191.132 514.758L191.092 514.781L191.092 513.406L189.116 514.547L189.116 522.922ZM199.786 516.934C200.834 516.328 201.633 515.258 202.018 514.043L202.059 514.02L202.059 515.449L204.035 514.309L204.035 503.035L202.059 504.176L202.059 508.527L202.018 508.551C201.626 507.762 200.814 507.621 199.786 508.215C197.959 509.27 196.836 511.543 196.836 514.27L196.836 514.277C196.836 516.996 197.959 517.988 199.786 516.934ZM200.449 514.66C199.461 515.23 198.845 514.641 198.845 513.117L198.845 513.109C198.845 511.578 199.468 510.289 200.449 509.723C201.403 509.172 202.066 509.742 202.066 511.25L202.066 511.258C202.066 512.773 201.409 514.105 200.449 514.66ZM208.683 511.797C210.875 510.531 212.275 508.098 212.275 505.363L212.275 505.348C212.275 502.637 210.848 501.828 208.676 503.082C206.511 504.332 205.09 506.801 205.09 509.496L205.09 509.512C205.09 512.238 206.477 513.07 208.683 511.797ZM208.69 510.004C207.715 510.566 207.1 509.992 207.1 508.352L207.1 508.336C207.1 506.719 207.722 505.422 208.676 504.871C209.637 504.316 210.266 504.891 210.266 506.508L210.266 506.523C210.266 508.156 209.65 509.449 208.69 510.004ZM214.643 508.184L216.721 506.984L218.026 500.309L218.067 500.285L219.38 505.449L221.484 504.234L223.405 494.75L221.457 495.875L220.354 502.723L220.313 502.746L219.021 497.281L217.126 498.375L215.841 505.328L215.8 505.352L214.704 499.773L212.715 500.922L214.643 508.184Z" fill="black"/>
    <rect opacity="0.7" width="138.862" height="262.935" rx="8.28215" transform="matrix(0.866025 0.5 -2.20305e-08 1 177.088 156.062)" fill="#FEF8CD"/>
    <rect x="0.717255" y="1.24232" width="104.355" height="31.4721" rx="5.7975" transform="matrix(0.866025 0.5 -2.20305e-08 1 187.123 180.55)" fill="white" stroke="black" stroke-width="1.65643"/>
    <rect width="37.2931" height="8.74971" rx="4.37486" transform="matrix(0.866025 0.5 -2.20305e-08 1 194.204 197.241)" fill="#FBE582"/>
    <rect x="0.717255" y="1.24232" width="104.355" height="31.4721" rx="5.7975" transform="matrix(0.866025 0.5 -2.20305e-08 1 187.123 226.929)" fill="white" stroke="black" stroke-width="1.65643"/>
    <rect width="64.1292" height="8.74971" rx="4.37486" transform="matrix(0.866025 0.5 -2.20305e-08 1 194.411 243.505)" fill="#FBE582"/>
    <rect width="106.011" height="33.1286" rx="6.62572" transform="matrix(0.866025 0.5 -2.20305e-08 1 187.027 371.397)" fill="#3C4257"/>
    <path d="M208.603 407.721C211.662 409.488 213.494 408.838 213.494 406.149L213.494 406.139C213.494 403.936 212.351 402.082 209.813 400.035L208.527 398.991C207.132 397.865 206.51 396.992 206.51 396.109L206.51 396.099C206.51 395.099 207.291 394.861 208.594 395.604C209.847 396.327 210.721 397.501 210.847 398.671L210.855 398.792L213.251 400.175L213.242 399.986C213.125 397.463 211.402 394.847 208.594 393.226C205.904 391.673 203.971 392.246 203.971 394.808L203.971 394.818C203.971 396.924 205.182 398.943 207.577 400.879L208.855 401.908C210.359 403.136 210.956 403.956 210.956 404.907L210.956 404.917C210.956 405.984 210.074 406.183 208.67 405.373C207.283 404.572 206.283 403.315 206.123 402.136L206.106 402.019L203.711 400.636L203.719 400.796C203.862 403.461 205.72 406.057 208.603 407.721ZM216.117 400.073C216.857 400.5 217.428 400.161 217.428 399.355C217.428 398.55 216.857 397.55 216.117 397.123C215.377 396.696 214.806 397.036 214.806 397.841C214.806 398.647 215.377 399.646 216.117 400.073ZM214.89 411.109L217.344 412.526L217.344 402.121L214.89 400.704L214.89 411.109ZM223.203 419.519C225.909 421.081 227.599 420.475 227.599 418.155L227.599 408.042L225.144 406.625L225.144 408.401L225.094 408.372C224.606 406.877 223.623 405.533 222.354 404.8C220.076 403.485 218.664 404.64 218.664 407.959L218.664 407.969C218.664 411.201 220.059 413.948 222.312 415.248C223.614 416 224.623 415.894 225.094 415.078L225.144 415.107L225.144 416.699C225.144 417.864 224.472 418.233 223.203 417.5C222.177 416.908 221.522 416.083 221.328 415.457L221.303 415.374L218.916 413.996L218.924 414.088C219.16 415.894 220.723 418.087 223.203 419.519ZM223.161 413.661C221.933 412.953 221.16 411.351 221.16 409.478L221.16 409.468C221.16 407.605 221.942 406.911 223.161 407.615C224.354 408.304 225.153 409.92 225.153 411.774L225.153 411.783C225.153 413.647 224.363 414.355 223.161 413.661ZM229.212 419.378L231.667 420.795L231.667 414.816C231.667 413.457 232.364 412.929 233.466 413.564C234.567 414.2 235.121 415.297 235.121 416.655L235.121 422.789L237.576 424.206L237.576 417.49C237.576 415.054 236.449 412.938 234.466 411.793C233.104 411.007 232.18 411.201 231.717 412.128L231.667 412.099L231.667 410.39L229.212 408.973L229.212 419.378ZM245.611 429.059C246.973 429.845 247.897 429.642 248.36 428.715L248.41 428.744L248.41 430.462L250.865 431.879L250.865 421.474L248.41 420.057L248.41 426.036C248.41 427.395 247.713 427.924 246.611 427.288C245.51 426.652 244.956 425.546 244.956 424.187L244.956 418.063L242.501 416.646L242.501 423.362C242.501 425.798 243.628 427.914 245.611 429.059ZM252.462 436.198L254.916 437.615L254.916 432.442L254.966 432.471C255.454 433.985 256.471 435.329 257.757 436.072C260.01 437.372 261.405 436.14 261.405 432.762L261.405 432.752C261.405 429.365 260.01 426.541 257.723 425.221C256.446 424.483 255.462 424.682 254.975 425.662L254.916 425.628L254.916 423.813L252.462 422.396L252.462 436.198ZM256.916 433.238C255.723 432.548 254.908 430.894 254.908 429.02L254.908 429.011C254.908 427.128 255.723 426.414 256.916 427.104C258.135 427.807 258.908 429.409 258.908 431.311L258.908 431.321C258.908 433.213 258.135 433.941 256.916 433.238Z" fill="white"/>
</svg>
