<svg width="600" height="600" viewBox="0 0 600 600" fill="none" xmlns="http://www.w3.org/2000/svg">
    <path d="M56.9023 360.203L61.0859 370.645L65.2695 360.203H67.458V373H65.7705V368.017L65.9287 362.638L61.7275 373H60.4355L56.2432 362.664L56.4102 368.017V373H54.7227V360.203H56.9023ZM76.0537 373C75.96 372.812 75.8838 372.479 75.8252 371.998C75.0693 372.783 74.167 373.176 73.1182 373.176C72.1807 373.176 71.4102 372.912 70.8066 372.385C70.209 371.852 69.9102 371.178 69.9102 370.363C69.9102 369.373 70.2852 368.605 71.0352 368.061C71.791 367.51 72.8516 367.234 74.2168 367.234H75.7988V366.487C75.7988 365.919 75.6289 365.468 75.2891 365.134C74.9492 364.794 74.4482 364.624 73.7861 364.624C73.2061 364.624 72.7197 364.771 72.3271 365.063C71.9346 365.356 71.7383 365.711 71.7383 366.127H70.1035C70.1035 365.652 70.2705 365.195 70.6045 364.756C70.9443 364.311 71.4014 363.959 71.9756 363.701C72.5557 363.443 73.1914 363.314 73.8828 363.314C74.9785 363.314 75.8369 363.59 76.458 364.141C77.0791 364.686 77.4014 365.438 77.4248 366.399V370.776C77.4248 371.649 77.5361 372.344 77.7588 372.859V373H76.0537ZM73.3555 371.761C73.8652 371.761 74.3486 371.629 74.8057 371.365C75.2627 371.102 75.5938 370.759 75.7988 370.337V368.386H74.5244C72.5322 368.386 71.5361 368.969 71.5361 370.135C71.5361 370.645 71.7061 371.043 72.0459 371.33C72.3857 371.617 72.8223 371.761 73.3555 371.761ZM83.7881 371.849C84.3682 371.849 84.875 371.673 85.3086 371.321C85.7422 370.97 85.9824 370.53 86.0293 370.003H87.5674C87.5381 370.548 87.3506 371.066 87.0049 371.559C86.6592 372.051 86.1963 372.443 85.6162 372.736C85.042 373.029 84.4326 373.176 83.7881 373.176C82.4932 373.176 81.4619 372.745 80.6943 371.884C79.9326 371.017 79.5518 369.833 79.5518 368.333V368.061C79.5518 367.135 79.7217 366.312 80.0615 365.591C80.4014 364.87 80.8877 364.311 81.5205 363.912C82.1592 363.514 82.9121 363.314 83.7793 363.314C84.8457 363.314 85.7305 363.634 86.4336 364.272C87.1426 364.911 87.5205 365.74 87.5674 366.76H86.0293C85.9824 366.145 85.748 365.641 85.3262 365.248C84.9102 364.85 84.3945 364.65 83.7793 364.65C82.9531 364.65 82.3115 364.949 81.8545 365.547C81.4033 366.139 81.1777 366.997 81.1777 368.122V368.43C81.1777 369.525 81.4033 370.369 81.8545 370.961C82.3057 371.553 82.9502 371.849 83.7881 371.849ZM96.4619 364.809H93.2715V373H91.6455V364.809H88.5166V363.49H96.4619V364.809ZM101.287 373.176C99.998 373.176 98.9492 372.754 98.1406 371.91C97.332 371.061 96.9277 369.927 96.9277 368.509V368.21C96.9277 367.267 97.1064 366.426 97.4639 365.688C97.8271 364.943 98.3311 364.363 98.9756 363.947C99.626 363.525 100.329 363.314 101.085 363.314C102.321 363.314 103.282 363.722 103.968 364.536C104.653 365.351 104.996 366.517 104.996 368.034V368.711H98.5537C98.5771 369.648 98.8496 370.407 99.3711 370.987C99.8984 371.562 100.566 371.849 101.375 371.849C101.949 371.849 102.436 371.731 102.834 371.497C103.232 371.263 103.581 370.952 103.88 370.565L104.873 371.339C104.076 372.563 102.881 373.176 101.287 373.176ZM101.085 364.65C100.429 364.65 99.8779 364.891 99.4326 365.371C98.9873 365.846 98.7119 366.514 98.6064 367.375H103.37V367.252C103.323 366.426 103.101 365.787 102.702 365.336C102.304 364.879 101.765 364.65 101.085 364.65ZM114.919 368.351C114.919 369.798 114.588 370.964 113.926 371.849C113.264 372.733 112.367 373.176 111.236 373.176C110.082 373.176 109.174 372.81 108.512 372.077V376.656H106.886V363.49H108.371L108.45 364.545C109.112 363.725 110.032 363.314 111.21 363.314C112.353 363.314 113.255 363.745 113.917 364.606C114.585 365.468 114.919 366.666 114.919 368.201V368.351ZM113.293 368.166C113.293 367.094 113.064 366.247 112.607 365.626C112.15 365.005 111.523 364.694 110.727 364.694C109.742 364.694 109.004 365.131 108.512 366.004V370.548C108.998 371.415 109.742 371.849 110.744 371.849C111.523 371.849 112.142 371.541 112.599 370.926C113.062 370.305 113.293 369.385 113.293 368.166Z" fill="black"/>
    <path d="M282.466 519H280.77V513.085H274.318V519H272.631V506.203H274.318V511.705H280.77V506.203H282.466V519ZM284.777 514.157C284.777 513.226 284.959 512.388 285.322 511.644C285.691 510.899 286.201 510.325 286.852 509.921C287.508 509.517 288.255 509.314 289.093 509.314C290.388 509.314 291.434 509.763 292.23 510.659C293.033 511.556 293.435 512.748 293.435 514.236V514.351C293.435 515.276 293.256 516.108 292.898 516.847C292.547 517.579 292.04 518.15 291.378 518.561C290.722 518.971 289.966 519.176 289.11 519.176C287.821 519.176 286.775 518.728 285.973 517.831C285.176 516.935 284.777 515.748 284.777 514.271V514.157ZM286.412 514.351C286.412 515.405 286.655 516.252 287.142 516.891C287.634 517.529 288.29 517.849 289.11 517.849C289.937 517.849 290.593 517.526 291.079 516.882C291.565 516.231 291.809 515.323 291.809 514.157C291.809 513.114 291.56 512.271 291.062 511.626C290.569 510.976 289.913 510.65 289.093 510.65C288.29 510.65 287.643 510.97 287.15 511.608C286.658 512.247 286.412 513.161 286.412 514.351ZM295.623 519V509.49H299.332C300.598 509.49 301.567 509.713 302.241 510.158C302.921 510.598 303.261 511.245 303.261 512.101C303.261 512.54 303.129 512.938 302.865 513.296C302.602 513.647 302.212 513.917 301.696 514.104C302.271 514.239 302.73 514.503 303.076 514.896C303.428 515.288 303.604 515.757 303.604 516.302C303.604 517.175 303.281 517.843 302.637 518.306C301.998 518.769 301.093 519 299.921 519H295.623ZM297.249 514.825V517.69H299.938C300.618 517.69 301.125 517.564 301.459 517.312C301.799 517.061 301.969 516.706 301.969 516.249C301.969 515.3 301.271 514.825 299.877 514.825H297.249ZM297.249 513.524H299.35C300.873 513.524 301.635 513.079 301.635 512.188C301.635 511.298 300.914 510.838 299.473 510.809H297.249V513.524ZM307.532 512.769H310.002C311.08 512.78 311.933 513.062 312.56 513.612C313.187 514.163 313.5 514.91 313.5 515.854C313.5 516.803 313.178 517.564 312.533 518.139C311.889 518.713 311.021 519 309.932 519H305.906V509.49H307.532V512.769ZM316.893 519H315.258V509.49H316.893V519ZM307.532 514.096V517.673H309.949C310.559 517.673 311.03 517.518 311.364 517.207C311.698 516.891 311.865 516.46 311.865 515.915C311.865 515.388 311.701 514.957 311.373 514.623C311.051 514.283 310.597 514.107 310.011 514.096H307.532ZM325.884 509.49H327.51V519H325.884V512.065L321.498 519H319.872V509.49H321.498V516.434L325.884 509.49ZM326.323 506.027C326.323 506.736 326.08 507.308 325.594 507.741C325.113 508.169 324.48 508.383 323.695 508.383C322.91 508.383 322.274 508.166 321.788 507.732C321.302 507.299 321.059 506.73 321.059 506.027H322.386C322.386 506.438 322.497 506.76 322.72 506.994C322.942 507.223 323.268 507.337 323.695 507.337C324.105 507.337 324.425 507.223 324.653 506.994C324.888 506.766 325.005 506.443 325.005 506.027H326.323ZM334.233 514.421C334.233 512.833 334.541 511.585 335.156 510.677C335.771 509.769 336.615 509.314 337.688 509.314C338.186 509.314 338.622 509.399 338.997 509.569V505.5H340.623V509.622C341.033 509.417 341.514 509.314 342.064 509.314C343.143 509.314 343.989 509.769 344.604 510.677C345.22 511.585 345.527 512.895 345.527 514.605C345.527 516.006 345.22 517.119 344.604 517.945C343.995 518.771 343.154 519.185 342.082 519.185C341.514 519.185 341.027 519.091 340.623 518.903V522.656H338.997V518.93C338.61 519.1 338.168 519.185 337.67 519.185C336.604 519.185 335.763 518.771 335.147 517.945C334.538 517.119 334.233 515.988 334.233 514.553V514.421ZM343.901 514.421C343.901 513.226 343.696 512.3 343.286 511.644C342.876 510.981 342.311 510.65 341.59 510.65C341.221 510.65 340.898 510.709 340.623 510.826V517.708C340.887 517.808 341.215 517.857 341.607 517.857C342.334 517.857 342.896 517.576 343.295 517.014C343.699 516.451 343.901 515.587 343.901 514.421ZM335.859 514.605C335.859 515.672 336.05 516.48 336.431 517.031C336.812 517.582 337.359 517.857 338.074 517.857C338.414 517.857 338.722 517.805 338.997 517.699V510.8C338.751 510.7 338.449 510.65 338.092 510.65C337.377 510.65 336.826 510.97 336.439 511.608C336.053 512.247 335.859 513.246 335.859 514.605ZM350.651 516.618L352.866 509.49H354.606L350.783 520.468C350.191 522.05 349.251 522.841 347.962 522.841L347.654 522.814L347.048 522.7V521.382L347.487 521.417C348.038 521.417 348.466 521.306 348.771 521.083C349.081 520.86 349.336 520.453 349.535 519.861L349.896 518.895L346.503 509.49H348.278L350.651 516.618ZM363.835 519H362.209V514.939H357.841V519H356.206V509.49H357.841V513.612H362.209V509.49H363.835V519ZM369.416 514.948H368.229V519H366.595V509.49H368.229V513.516H369.293L372.492 509.49H374.461L370.699 514.061L374.777 519H372.712L369.416 514.948ZM376.315 509.49H377.95V517.673H382.327V509.49H383.953V517.673H385.087L384.929 521.821H383.47V519H376.315V509.49ZM392.997 509.49H394.623V519H392.997V512.065L388.611 519H386.985V509.49H388.611V516.434L392.997 509.49ZM396.803 514.157C396.803 513.226 396.984 512.388 397.348 511.644C397.717 510.899 398.227 510.325 398.877 509.921C399.533 509.517 400.28 509.314 401.118 509.314C402.413 509.314 403.459 509.763 404.256 510.659C405.059 511.556 405.46 512.748 405.46 514.236V514.351C405.46 515.276 405.281 516.108 404.924 516.847C404.572 517.579 404.065 518.15 403.403 518.561C402.747 518.971 401.991 519.176 401.136 519.176C399.847 519.176 398.801 518.728 397.998 517.831C397.201 516.935 396.803 515.748 396.803 514.271V514.157ZM398.438 514.351C398.438 515.405 398.681 516.252 399.167 516.891C399.659 517.529 400.315 517.849 401.136 517.849C401.962 517.849 402.618 517.526 403.104 516.882C403.591 516.231 403.834 515.323 403.834 514.157C403.834 513.114 403.585 512.271 403.087 511.626C402.595 510.976 401.938 510.65 401.118 510.65C400.315 510.65 399.668 510.97 399.176 511.608C398.684 512.247 398.438 513.161 398.438 514.351ZM415.269 519H413.643V514.939H409.274V519H407.64V509.49H409.274V513.612H413.643V509.49H415.269V519ZM423.759 519C423.665 518.812 423.589 518.479 423.53 517.998C422.774 518.783 421.872 519.176 420.823 519.176C419.886 519.176 419.115 518.912 418.512 518.385C417.914 517.852 417.615 517.178 417.615 516.363C417.615 515.373 417.99 514.605 418.74 514.061C419.496 513.51 420.557 513.234 421.922 513.234H423.504V512.487C423.504 511.919 423.334 511.468 422.994 511.134C422.654 510.794 422.153 510.624 421.491 510.624C420.911 510.624 420.425 510.771 420.032 511.063C419.64 511.356 419.443 511.711 419.443 512.127H417.809C417.809 511.652 417.976 511.195 418.31 510.756C418.649 510.311 419.106 509.959 419.681 509.701C420.261 509.443 420.896 509.314 421.588 509.314C422.684 509.314 423.542 509.59 424.163 510.141C424.784 510.686 425.106 511.438 425.13 512.399V516.776C425.13 517.649 425.241 518.344 425.464 518.859V519H423.759ZM421.061 517.761C421.57 517.761 422.054 517.629 422.511 517.365C422.968 517.102 423.299 516.759 423.504 516.337V514.386H422.229C420.237 514.386 419.241 514.969 419.241 516.135C419.241 516.645 419.411 517.043 419.751 517.33C420.091 517.617 420.527 517.761 421.061 517.761ZM435.475 509.49V519H433.84V510.835H430.605L430.412 514.395C430.307 516.029 430.031 517.198 429.586 517.901C429.146 518.604 428.446 518.971 427.485 519H426.835V517.567L427.301 517.532C427.828 517.474 428.206 517.169 428.435 516.618C428.663 516.067 428.81 515.048 428.874 513.56L429.05 509.49H435.475Z" fill="black"/>
    <path d="M391.466 100H389.77V94.085H383.318V100H381.631V87.2031H383.318V92.7051H389.77V87.2031H391.466V100ZM393.777 95.1572C393.777 94.2256 393.959 93.3877 394.322 92.6436C394.691 91.8994 395.201 91.3252 395.852 90.9209C396.508 90.5166 397.255 90.3145 398.093 90.3145C399.388 90.3145 400.434 90.7627 401.23 91.6592C402.033 92.5557 402.435 93.748 402.435 95.2363V95.3506C402.435 96.2764 402.256 97.1084 401.898 97.8467C401.547 98.5791 401.04 99.1504 400.378 99.5605C399.722 99.9707 398.966 100.176 398.11 100.176C396.821 100.176 395.775 99.7275 394.973 98.8311C394.176 97.9346 393.777 96.748 393.777 95.2715V95.1572ZM395.412 95.3506C395.412 96.4053 395.655 97.252 396.142 97.8906C396.634 98.5293 397.29 98.8486 398.11 98.8486C398.937 98.8486 399.593 98.5264 400.079 97.8818C400.565 97.2314 400.809 96.3232 400.809 95.1572C400.809 94.1143 400.56 93.2705 400.062 92.626C399.569 91.9756 398.913 91.6504 398.093 91.6504C397.29 91.6504 396.643 91.9697 396.15 92.6084C395.658 93.2471 395.412 94.1611 395.412 95.3506ZM404.623 100V90.4902H408.332C409.598 90.4902 410.567 90.7129 411.241 91.1582C411.921 91.5977 412.261 92.2451 412.261 93.1006C412.261 93.54 412.129 93.9385 411.865 94.2959C411.602 94.6475 411.212 94.917 410.696 95.1045C411.271 95.2393 411.73 95.5029 412.076 95.8955C412.428 96.2881 412.604 96.7568 412.604 97.3018C412.604 98.1748 412.281 98.8428 411.637 99.3057C410.998 99.7686 410.093 100 408.921 100H404.623ZM406.249 95.8252V98.6904H408.938C409.618 98.6904 410.125 98.5645 410.459 98.3125C410.799 98.0605 410.969 97.7061 410.969 97.249C410.969 96.2998 410.271 95.8252 408.877 95.8252H406.249ZM406.249 94.5244H408.35C409.873 94.5244 410.635 94.0791 410.635 93.1885C410.635 92.2979 409.914 91.8379 408.473 91.8086H406.249V94.5244ZM416.532 93.7686H419.002C420.08 93.7803 420.933 94.0615 421.56 94.6123C422.187 95.1631 422.5 95.9102 422.5 96.8535C422.5 97.8027 422.178 98.5645 421.533 99.1387C420.889 99.7129 420.021 100 418.932 100H414.906V90.4902H416.532V93.7686ZM425.893 100H424.258V90.4902H425.893V100ZM416.532 95.0957V98.6729H418.949C419.559 98.6729 420.03 98.5176 420.364 98.207C420.698 97.8906 420.865 97.46 420.865 96.915C420.865 96.3877 420.701 95.957 420.373 95.623C420.051 95.2832 419.597 95.1074 419.011 95.0957H416.532ZM434.884 90.4902H436.51V100H434.884V93.0654L430.498 100H428.872V90.4902H430.498V97.4336L434.884 90.4902ZM435.323 87.0273C435.323 87.7363 435.08 88.3076 434.594 88.7412C434.113 89.1689 433.48 89.3828 432.695 89.3828C431.91 89.3828 431.274 89.166 430.788 88.7324C430.302 88.2988 430.059 87.7305 430.059 87.0273H431.386C431.386 87.4375 431.497 87.7598 431.72 87.9941C431.942 88.2227 432.268 88.3369 432.695 88.3369C433.105 88.3369 433.425 88.2227 433.653 87.9941C433.888 87.7656 434.005 87.4434 434.005 87.0273H435.323ZM443.233 95.4209C443.233 93.833 443.541 92.585 444.156 91.6768C444.771 90.7686 445.615 90.3145 446.688 90.3145C447.186 90.3145 447.622 90.3994 447.997 90.5693V86.5H449.623V90.6221C450.033 90.417 450.514 90.3145 451.064 90.3145C452.143 90.3145 452.989 90.7686 453.604 91.6768C454.22 92.585 454.527 93.8945 454.527 95.6055C454.527 97.0059 454.22 98.1191 453.604 98.9453C452.995 99.7715 452.154 100.185 451.082 100.185C450.514 100.185 450.027 100.091 449.623 99.9033V103.656H447.997V99.9297C447.61 100.1 447.168 100.185 446.67 100.185C445.604 100.185 444.763 99.7715 444.147 98.9453C443.538 98.1191 443.233 96.9883 443.233 95.5527V95.4209ZM452.901 95.4209C452.901 94.2256 452.696 93.2998 452.286 92.6436C451.876 91.9814 451.311 91.6504 450.59 91.6504C450.221 91.6504 449.898 91.709 449.623 91.8262V98.708C449.887 98.8076 450.215 98.8574 450.607 98.8574C451.334 98.8574 451.896 98.5762 452.295 98.0137C452.699 97.4512 452.901 96.5869 452.901 95.4209ZM444.859 95.6055C444.859 96.6719 445.05 97.4805 445.431 98.0312C445.812 98.582 446.359 98.8574 447.074 98.8574C447.414 98.8574 447.722 98.8047 447.997 98.6992V91.7998C447.751 91.7002 447.449 91.6504 447.092 91.6504C446.377 91.6504 445.826 91.9697 445.439 92.6084C445.053 93.2471 444.859 94.2461 444.859 95.6055ZM459.651 97.6182L461.866 90.4902H463.606L459.783 101.468C459.191 103.05 458.251 103.841 456.962 103.841L456.654 103.814L456.048 103.7V102.382L456.487 102.417C457.038 102.417 457.466 102.306 457.771 102.083C458.081 101.86 458.336 101.453 458.535 100.861L458.896 99.8945L455.503 90.4902H457.278L459.651 97.6182ZM472.835 100H471.209V95.9395H466.841V100H465.206V90.4902H466.841V94.6123H471.209V90.4902H472.835V100ZM478.416 95.9482H477.229V100H475.595V90.4902H477.229V94.5156H478.293L481.492 90.4902H483.461L479.699 95.0605L483.777 100H481.712L478.416 95.9482ZM485.315 90.4902H486.95V98.6729H491.327V90.4902H492.953V98.6729H494.087L493.929 102.821H492.47V100H485.315V90.4902ZM501.997 90.4902H503.623V100H501.997V93.0654L497.611 100H495.985V90.4902H497.611V97.4336L501.997 90.4902ZM505.803 95.1572C505.803 94.2256 505.984 93.3877 506.348 92.6436C506.717 91.8994 507.227 91.3252 507.877 90.9209C508.533 90.5166 509.28 90.3145 510.118 90.3145C511.413 90.3145 512.459 90.7627 513.256 91.6592C514.059 92.5557 514.46 93.748 514.46 95.2363V95.3506C514.46 96.2764 514.281 97.1084 513.924 97.8467C513.572 98.5791 513.065 99.1504 512.403 99.5605C511.747 99.9707 510.991 100.176 510.136 100.176C508.847 100.176 507.801 99.7275 506.998 98.8311C506.201 97.9346 505.803 96.748 505.803 95.2715V95.1572ZM507.438 95.3506C507.438 96.4053 507.681 97.252 508.167 97.8906C508.659 98.5293 509.315 98.8486 510.136 98.8486C510.962 98.8486 511.618 98.5264 512.104 97.8818C512.591 97.2314 512.834 96.3232 512.834 95.1572C512.834 94.1143 512.585 93.2705 512.087 92.626C511.595 91.9756 510.938 91.6504 510.118 91.6504C509.315 91.6504 508.668 91.9697 508.176 92.6084C507.684 93.2471 507.438 94.1611 507.438 95.3506ZM524.269 100H522.643V95.9395H518.274V100H516.64V90.4902H518.274V94.6123H522.643V90.4902H524.269V100ZM532.759 100C532.665 99.8125 532.589 99.4785 532.53 98.998C531.774 99.7832 530.872 100.176 529.823 100.176C528.886 100.176 528.115 99.9121 527.512 99.3848C526.914 98.8516 526.615 98.1777 526.615 97.3633C526.615 96.373 526.99 95.6055 527.74 95.0605C528.496 94.5098 529.557 94.2344 530.922 94.2344H532.504V93.4873C532.504 92.9189 532.334 92.4678 531.994 92.1338C531.654 91.7939 531.153 91.624 530.491 91.624C529.911 91.624 529.425 91.7705 529.032 92.0635C528.64 92.3564 528.443 92.7109 528.443 93.127H526.809C526.809 92.6523 526.976 92.1953 527.31 91.7559C527.649 91.3105 528.106 90.959 528.681 90.7012C529.261 90.4434 529.896 90.3145 530.588 90.3145C531.684 90.3145 532.542 90.5898 533.163 91.1406C533.784 91.6855 534.106 92.4385 534.13 93.3994V97.7764C534.13 98.6494 534.241 99.3438 534.464 99.8594V100H532.759ZM530.061 98.7607C530.57 98.7607 531.054 98.6289 531.511 98.3652C531.968 98.1016 532.299 97.7588 532.504 97.3369V95.3857H531.229C529.237 95.3857 528.241 95.9688 528.241 97.1348C528.241 97.6445 528.411 98.043 528.751 98.3301C529.091 98.6172 529.527 98.7607 530.061 98.7607ZM544.475 90.4902V100H542.84V91.835H539.605L539.412 95.3945C539.307 97.0293 539.031 98.1982 538.586 98.9014C538.146 99.6045 537.446 99.9707 536.485 100H535.835V98.5674L536.301 98.5322C536.828 98.4736 537.206 98.1689 537.435 97.6182C537.663 97.0674 537.81 96.0479 537.874 94.5596L538.05 90.4902H544.475Z" fill="black"/>
    <path d="M144.838 87.2031H146.525V100H144.838V90.1387L138.536 100H136.84V87.2031H138.536V97.0645L144.838 87.2031ZM153.161 98.8486C153.741 98.8486 154.248 98.6729 154.682 98.3213C155.115 97.9697 155.355 97.5303 155.402 97.0029H156.94C156.911 97.5479 156.724 98.0664 156.378 98.5586C156.032 99.0508 155.569 99.4434 154.989 99.7363C154.415 100.029 153.806 100.176 153.161 100.176C151.866 100.176 150.835 99.7451 150.067 98.8838C149.306 98.0166 148.925 96.833 148.925 95.333V95.0605C148.925 94.1348 149.095 93.3115 149.435 92.5908C149.774 91.8701 150.261 91.3105 150.894 90.9121C151.532 90.5137 152.285 90.3145 153.152 90.3145C154.219 90.3145 155.104 90.6338 155.807 91.2725C156.516 91.9111 156.894 92.7402 156.94 93.7598H155.402C155.355 93.1445 155.121 92.6406 154.699 92.248C154.283 91.8496 153.768 91.6504 153.152 91.6504C152.326 91.6504 151.685 91.9492 151.228 92.5469C150.776 93.1387 150.551 93.9971 150.551 95.1221V95.4297C150.551 96.5254 150.776 97.3691 151.228 97.9609C151.679 98.5527 152.323 98.8486 153.161 98.8486ZM166.547 100H164.921V91.835H160.544V100H158.909V90.4902H166.547V100ZM177.19 95.3506C177.19 96.7979 176.859 97.9639 176.197 98.8486C175.535 99.7334 174.639 100.176 173.508 100.176C172.354 100.176 171.445 99.8096 170.783 99.0771V103.656H169.157V90.4902H170.643L170.722 91.5449C171.384 90.7246 172.304 90.3145 173.481 90.3145C174.624 90.3145 175.526 90.7451 176.188 91.6064C176.856 92.4678 177.19 93.666 177.19 95.2012V95.3506ZM175.564 95.166C175.564 94.0938 175.336 93.2471 174.879 92.626C174.422 92.0049 173.795 91.6943 172.998 91.6943C172.014 91.6943 171.275 92.1309 170.783 93.0039V97.5479C171.27 98.415 172.014 98.8486 173.016 98.8486C173.795 98.8486 174.413 98.541 174.87 97.9258C175.333 97.3047 175.564 96.3848 175.564 95.166ZM185.136 100C185.042 99.8125 184.966 99.4785 184.907 98.998C184.151 99.7832 183.249 100.176 182.2 100.176C181.263 100.176 180.492 99.9121 179.889 99.3848C179.291 98.8516 178.992 98.1777 178.992 97.3633C178.992 96.373 179.367 95.6055 180.117 95.0605C180.873 94.5098 181.934 94.2344 183.299 94.2344H184.881V93.4873C184.881 92.9189 184.711 92.4678 184.371 92.1338C184.031 91.7939 183.53 91.624 182.868 91.624C182.288 91.624 181.802 91.7705 181.409 92.0635C181.017 92.3564 180.82 92.7109 180.82 93.127H179.186C179.186 92.6523 179.353 92.1953 179.687 91.7559C180.026 91.3105 180.483 90.959 181.058 90.7012C181.638 90.4434 182.273 90.3145 182.965 90.3145C184.061 90.3145 184.919 90.5898 185.54 91.1406C186.161 91.6855 186.483 92.4385 186.507 93.3994V97.7764C186.507 98.6494 186.618 99.3438 186.841 99.8594V100H185.136ZM182.438 98.7607C182.947 98.7607 183.431 98.6289 183.888 98.3652C184.345 98.1016 184.676 97.7588 184.881 97.3369V95.3857H183.606C181.614 95.3857 180.618 95.9688 180.618 97.1348C180.618 97.6445 180.788 98.043 181.128 98.3301C181.468 98.6172 181.904 98.7607 182.438 98.7607ZM189.205 100V90.4902H192.914C194.18 90.4902 195.149 90.7129 195.823 91.1582C196.503 91.5977 196.843 92.2451 196.843 93.1006C196.843 93.54 196.711 93.9385 196.447 94.2959C196.184 94.6475 195.794 94.917 195.278 95.1045C195.853 95.2393 196.312 95.5029 196.658 95.8955C197.01 96.2881 197.186 96.7568 197.186 97.3018C197.186 98.1748 196.863 98.8428 196.219 99.3057C195.58 99.7686 194.675 100 193.503 100H189.205ZM190.831 95.8252V98.6904H193.521C194.2 98.6904 194.707 98.5645 195.041 98.3125C195.381 98.0605 195.551 97.7061 195.551 97.249C195.551 96.2998 194.854 95.8252 193.459 95.8252H190.831ZM190.831 94.5244H192.932C194.455 94.5244 195.217 94.0791 195.217 93.1885C195.217 92.2979 194.496 91.8379 193.055 91.8086H190.831V94.5244ZM207.135 90.4902V100H205.5V91.835H202.266L202.072 95.3945C201.967 97.0293 201.691 98.1982 201.246 98.9014C200.807 99.6045 200.106 99.9707 199.146 100H198.495V98.5674L198.961 98.5322C199.488 98.4736 199.866 98.1689 200.095 97.6182C200.323 97.0674 200.47 96.0479 200.534 94.5596L200.71 90.4902H207.135ZM213.691 100.176C212.402 100.176 211.354 99.7539 210.545 98.9102C209.736 98.0605 209.332 96.9268 209.332 95.5088V95.21C209.332 94.2666 209.511 93.4258 209.868 92.6875C210.231 91.9434 210.735 91.3633 211.38 90.9473C212.03 90.5254 212.733 90.3145 213.489 90.3145C214.726 90.3145 215.687 90.7217 216.372 91.5361C217.058 92.3506 217.4 93.5166 217.4 95.0342V95.7109H210.958C210.981 96.6484 211.254 97.4072 211.775 97.9873C212.303 98.5615 212.971 98.8486 213.779 98.8486C214.354 98.8486 214.84 98.7314 215.238 98.4971C215.637 98.2627 215.985 97.9521 216.284 97.5654L217.277 98.3389C216.48 99.5635 215.285 100.176 213.691 100.176ZM213.489 91.6504C212.833 91.6504 212.282 91.8906 211.837 92.3711C211.392 92.8457 211.116 93.5137 211.011 94.375H215.774V94.252C215.728 93.4258 215.505 92.7871 215.106 92.3359C214.708 91.8789 214.169 91.6504 213.489 91.6504ZM227.06 100H225.434V95.9395H221.065V100H219.431V90.4902H221.065V94.6123H225.434V90.4902H227.06V100ZM235.831 90.4902H237.457V100H235.831V93.0654L231.445 100H229.819V90.4902H231.445V97.4336L235.831 90.4902ZM247.336 90.4902V100H245.701V96.2998H243.249L241.008 100H239.25L241.641 96.0537C241.031 95.8311 240.562 95.4883 240.234 95.0254C239.912 94.5566 239.751 94.0117 239.751 93.3906C239.751 92.5234 240.076 91.8262 240.727 91.2988C241.377 90.7656 242.247 90.4961 243.337 90.4902H247.336ZM241.386 93.4082C241.386 93.8711 241.544 94.2461 241.86 94.5332C242.177 94.8145 242.596 94.958 243.117 94.9639H245.701V91.8086H243.363C242.76 91.8086 242.279 91.958 241.922 92.2568C241.564 92.5498 241.386 92.9336 241.386 93.4082Z" fill="black"/>
    <circle cx="84" cy="300" r="18" transform="rotate(90 84 300)" fill="#73FFE5" stroke="black" stroke-width="4"/>
    <circle cx="192" cy="300" r="18" transform="rotate(90 192 300)" fill="#73FFE5" stroke="black" stroke-width="4"/>
    <circle cx="408" cy="300" r="18" transform="rotate(90 408 300)" fill="#73FFE5" stroke="black" stroke-width="4"/>
    <circle cx="300" cy="441" r="18" transform="rotate(90 300 441)" fill="#E5FF73" stroke="black" stroke-width="4"/>
    <circle cx="192" cy="159" r="18" transform="rotate(90 192 159)" fill="#FFA492" stroke="black" stroke-width="4"/>
    <circle cx="408" cy="441" r="18" transform="rotate(90 408 441)" fill="#E5FF73" stroke="black" stroke-width="4"/>
    <circle cx="408" cy="159" r="18" transform="rotate(90 408 159)" fill="#CEC0FF" stroke="black" stroke-width="4"/>
    <circle cx="516" cy="159" r="18" transform="rotate(90 516 159)" fill="#CEC0FF" stroke="black" stroke-width="4"/>
    <circle cx="516" cy="300" r="18" transform="rotate(90 516 300)" fill="#73FFE5" stroke="black" stroke-width="4"/>
    <path d="M102 300H176" stroke="#B8C0CD" stroke-width="2"/>
    <path d="M424 300L496 300" stroke="#B8C0CD" stroke-width="2"/>
    <path d="M424 159L496 159" stroke="#B8C0CD" stroke-width="2"/>
    <path d="M316 300L388 300" stroke="#B8C0CD" stroke-width="2"/>
    <path d="M316 441L388 441" stroke="#B8C0CD" stroke-width="2"/>
    <path d="M210 300L282 300" stroke="#B8C0CD" stroke-width="2"/>
    <circle cx="300" cy="300" r="18" transform="rotate(90 300 300)" fill="#73FFE5" stroke="black" stroke-width="4"/>
    <path d="M174.5 159H170.5C159.299 159 153.698 159 149.42 161.18C145.657 163.097 142.597 166.157 140.68 169.92C138.5 174.198 138.5 179.799 138.5 191V268C138.5 279.201 138.5 284.802 136.32 289.08C134.403 292.843 131.343 295.903 127.58 297.82C123.302 300 117.701 300 106.5 300H102" stroke="#B8C0CD" stroke-width="2"/>
    <path d="M209 159H213C224.201 159 229.802 159 234.08 161.18C237.843 163.097 240.903 166.157 242.82 169.92C245 174.198 245 179.799 245 191V268C245 279.201 245 284.802 247.18 289.08C249.097 292.843 252.157 295.903 255.92 297.82C260.198 300 265.799 300 277 300H281.5" stroke="#B8C0CD" stroke-width="2"/>
    <path d="M388.5 159H384.5C373.299 159 367.698 159 363.42 161.18C359.657 163.097 356.597 166.157 354.68 169.92C352.5 174.198 352.5 179.799 352.5 191V268C352.5 279.201 352.5 284.802 350.32 289.08C348.403 292.843 345.343 295.903 341.58 297.82C337.302 300 331.701 300 320.5 300H316" stroke="#B8C0CD" stroke-width="2"/>
    <path d="M427 441H431C442.201 441 447.802 441 452.08 438.82C455.843 436.903 458.903 433.843 460.82 430.08C463 425.802 463 420.201 463 409V332C463 320.799 463 315.198 465.18 310.92C467.097 307.157 470.157 304.097 473.92 302.18C478.198 300 483.799 300 495 300H499.5" stroke="#B8C0CD" stroke-width="2"/>
    <path d="M209 300H213C224.201 300 229.802 300 234.08 302.18C237.843 304.097 240.903 307.157 242.82 310.92C245 315.198 245 320.799 245 332V409C245 420.201 245 425.802 247.18 430.08C249.097 433.843 252.157 436.903 255.92 438.82C260.198 441 265.799 441 277 441H281.5" stroke="#B8C0CD" stroke-width="2"/>
    <rect width="36.9368" height="36.9368" transform="matrix(0.866025 0.5 -0.866025 0.5 80.9883 257)" fill="#73FFE5"/>
    <rect width="36.9368" height="36.9368" transform="matrix(0.866025 0.5 -0.866025 0.5 80.9883 257)" fill="#3C4257"/>
    <path d="M49 275.469L80.9882 293.937L80.9882 330.873L49 312.404L49 293.937L49 275.469Z" fill="#E5FAB7"/>
    <path d="M81.0117 293.938L113 275.469L113 312.405L81.0117 330.873L81.0117 312.405L81.0117 293.938Z" fill="#73FFE5"/>
    <rect width="36.9368" height="36.9368" transform="matrix(0.866025 0.5 -0.866025 0.5 295.988 401)" fill="#73FFE5"/>
    <rect width="36.9368" height="36.9368" transform="matrix(0.866025 0.5 -0.866025 0.5 295.988 401)" fill="#3C4257"/>
    <path d="M264 419.469L295.988 437.937L295.988 474.873L264 456.404L264 437.937L264 419.469Z" fill="#C8E0FF"/>
    <path d="M296.012 437.938L328 419.469L328 456.405L296.012 474.873L296.012 456.405L296.012 437.938Z" fill="#78AEFF"/>
    <rect width="36.9368" height="36.9368" transform="matrix(0.866025 0.5 -0.866025 0.5 407.988 401)" fill="#73FFE5"/>
    <rect width="36.9368" height="36.9368" transform="matrix(0.866025 0.5 -0.866025 0.5 407.988 401)" fill="#3C4257"/>
    <path d="M376 419.469L407.988 437.937L407.988 474.873L376 456.404L376 437.937L376 419.469Z" fill="#C8E0FF"/>
    <path d="M408.012 437.938L440 419.469L440 456.405L408.012 474.873L408.012 456.405L408.012 437.938Z" fill="#78AEFF"/>
    <rect width="36.9368" height="36.9368" transform="matrix(0.866025 0.5 -0.866025 0.5 189.988 119)" fill="#73FFE5"/>
    <rect width="36.9368" height="36.9368" transform="matrix(0.866025 0.5 -0.866025 0.5 189.988 119)" fill="#3C4257"/>
    <path d="M158 137.469L189.988 155.937L189.988 192.873L158 174.404L158 155.937L158 137.469Z" fill="#EDF1F5"/>
    <path d="M190.012 155.938L222 137.469L222 174.405L190.012 192.873L190.012 174.405L190.012 155.938Z" fill="#CEC0FF"/>
    <rect width="36.9368" height="36.9368" transform="matrix(0.866025 0.5 -0.866025 0.5 407.988 119)" fill="#73FFE5"/>
    <rect width="36.9368" height="36.9368" transform="matrix(0.866025 0.5 -0.866025 0.5 407.988 119)" fill="#3C4257"/>
    <path d="M376 137.469L407.988 155.937L407.988 192.873L376 174.404L376 155.937L376 137.469Z" fill="#EDF1F5"/>
    <path d="M408.012 155.938L440 137.469L440 174.405L408.012 192.873L408.012 174.405L408.012 155.938Z" fill="#CEC0FF"/>
    <rect width="36.9368" height="36.9368" transform="matrix(0.866025 0.5 -0.866025 0.5 511.988 119)" fill="#73FFE5"/>
    <rect width="36.9368" height="36.9368" transform="matrix(0.866025 0.5 -0.866025 0.5 511.988 119)" fill="#3C4257"/>
    <path d="M480 137.469L511.988 155.937L511.988 192.873L480 174.404L480 155.937L480 137.469Z" fill="#EDF1F5"/>
    <path d="M512.012 155.938L544 137.469L544 174.405L512.012 192.873L512.012 174.405L512.012 155.938Z" fill="#CEC0FF"/>
    <rect width="36.9368" height="36.9368" transform="matrix(0.866025 0.5 -0.866025 0.5 189.988 257)" fill="#73FFE5"/>
    <rect width="36.9368" height="36.9368" transform="matrix(0.866025 0.5 -0.866025 0.5 189.988 257)" fill="#3C4257"/>
    <path d="M158 275.469L189.988 293.937L189.988 330.873L158 312.404L158 293.937L158 275.469Z" fill="#E5FAB7"/>
    <path d="M190.012 293.938L222 275.469L222 312.405L190.012 330.873L190.012 312.405L190.012 293.938Z" fill="#73FFE5"/>
    <rect width="36.9368" height="36.9368" transform="matrix(0.866025 0.5 -0.866025 0.5 298.988 257)" fill="#73FFE5"/>
    <rect width="36.9368" height="36.9368" transform="matrix(0.866025 0.5 -0.866025 0.5 298.988 257)" fill="#3C4257"/>
    <path d="M267 275.469L298.988 293.937L298.988 330.873L267 312.404L267 293.937L267 275.469Z" fill="#E5FAB7"/>
    <path d="M299.012 293.938L331 275.469L331 312.405L299.012 330.873L299.012 312.405L299.012 293.938Z" fill="#73FFE5"/>
    <rect width="36.9368" height="36.9368" transform="matrix(0.866025 0.5 -0.866025 0.5 407.988 257)" fill="#73FFE5"/>
    <rect width="36.9368" height="36.9368" transform="matrix(0.866025 0.5 -0.866025 0.5 407.988 257)" fill="#3C4257"/>
    <path d="M376 275.469L407.988 293.937L407.988 330.873L376 312.404L376 293.937L376 275.469Z" fill="#E5FAB7"/>
    <path d="M408.012 293.938L440 275.469L440 312.405L408.012 330.873L408.012 312.405L408.012 293.938Z" fill="#73FFE5"/>
    <rect width="36.9368" height="36.9368" transform="matrix(0.866025 0.5 -0.866025 0.5 516.988 257)" fill="#73FFE5"/>
    <rect width="36.9368" height="36.9368" transform="matrix(0.866025 0.5 -0.866025 0.5 516.988 257)" fill="#3C4257"/>
    <path d="M485 275.469L516.988 293.937L516.988 330.873L485 312.404L485 293.937L485 275.469Z" fill="#E5FAB7"/>
    <path d="M517.012 293.938L549 275.469L549 312.405L517.012 330.873L517.012 312.405L517.012 293.938Z" fill="#73FFE5"/>
</svg>
