<svg width="599" height="318" viewBox="0 0 599 318" fill="none" xmlns="http://www.w3.org/2000/svg">
    <path d="M393 53H454.5" stroke="#D3DBE6"/>
    <path d="M313 267H374.5" stroke="#D3DBE6"/>
    <path d="M194 51H192C183.163 51 176 58.1634 176 67V143C176 151.837 168.837 159 160 159H158" stroke="#D3DBE6"/>
    <path d="M358 51H356C347.163 51 340 58.1634 340 67V143C340 151.837 332.837 159 324 159H322" stroke="#D3DBE6"/>
    <path d="M242 159H244C252.837 159 260 166.163 260 175V251C260 259.837 267.163 267 276 267H278" stroke="#D3DBE6"/>
    <path d="M438 159H436C427.163 159 420 166.163 420 175V251C420 259.837 412.837 267 404 267H402" stroke="#D3DBE6"/>
    <path d="M242 51H244C252.837 51 260 58.1634 260 67V143C260 151.837 267.163 159 276 159H278" stroke="#D3DBE6"/>
    <path d="M124 159H475.5" stroke="#D3DBE6"/>
    <path d="M183.813 13.0368L188.217 7.13047V13.0945L189.693 13.1138V4.71379L188.397 4.69683L183.993 10.6152V4.63918L182.517 4.61986V13.0199L183.813 13.0368ZM195.716 11.3806C195.368 11.7601 194.912 12.0301 194.324 12.0224C193.508 12.0117 192.764 11.414 192.764 10.454C192.764 9.506 193.496 8.92759 194.264 8.93764C194.756 8.94408 195.2 9.08189 195.608 9.48323L196.256 8.39971C195.752 7.88912 194.972 7.65091 194.084 7.63928C192.44 7.61776 191.289 8.86268 191.289 10.4347C191.289 12.1387 192.464 13.2821 194.216 13.305C195.092 13.3165 195.908 13.0032 196.364 12.3971L195.716 11.3806ZM201.155 13.2638L202.535 13.2819V7.88191L197.472 7.81563V13.2156L198.852 13.2337V9.12969L201.155 9.15985V13.2638ZM204.069 15.702L205.449 15.7201V13.1881C205.761 13.3721 206.229 13.4623 206.709 13.4685C208.436 13.4912 209.564 12.2339 209.564 10.5899C209.564 8.99393 208.604 7.82936 207.116 7.80988C206.421 7.80077 205.785 8.08045 205.449 8.43605V7.92005L204.069 7.90199V15.702ZM206.685 9.10023C207.596 9.11217 208.1 9.74276 208.1 10.6068C208.1 11.5068 207.548 12.1955 206.589 12.183C206.133 12.177 205.821 12.1009 205.449 11.8561V9.67205C205.785 9.30445 206.217 9.0941 206.685 9.10023ZM211.18 9.38707C211.576 9.21226 211.971 9.02544 212.595 9.03361C213.399 9.04413 213.639 9.53927 213.603 10.4388C213.339 10.2433 212.859 10.0811 212.379 10.0748C211.288 10.0605 210.412 10.613 210.412 11.801C210.412 12.845 211.12 13.4663 212.103 13.4792C212.835 13.4887 213.411 13.2083 213.699 12.8041V13.4281L214.899 13.4438V10.1558C214.899 8.72777 214.335 7.90438 212.739 7.88349C212.031 7.87422 211.3 8.10464 210.832 8.37452L211.18 9.38707ZM212.559 12.3211C212.127 12.3155 211.792 12.0831 211.792 11.6751C211.792 11.2191 212.199 11.0084 212.655 11.0144C213.051 11.0196 213.363 11.1077 213.603 11.2908V11.8428C213.435 12.0806 213.135 12.3287 212.559 12.3211ZM216.314 13.4623C216.806 13.4687 217.79 13.5416 218.462 13.5504C220.201 13.5732 221.029 13.02 221.029 11.952C221.029 11.328 220.633 10.8788 219.877 10.6889V10.6649C220.417 10.588 220.885 10.1261 220.885 9.47813C220.885 8.49413 220.009 8.05066 218.438 8.03009C217.598 8.01909 216.782 8.05641 216.314 8.06228V13.4623ZM218.558 11.1997C219.206 11.2081 219.578 11.429 219.578 11.837C219.578 12.209 219.218 12.4563 218.606 12.4483C218.27 12.4439 217.898 12.403 217.694 12.3883V11.1883L218.558 11.1997ZM218.558 9.14766C219.074 9.15441 219.422 9.35097 219.422 9.74697C219.422 10.167 219.05 10.3661 218.594 10.3601L217.694 10.3483V9.16035C217.838 9.15023 218.234 9.14341 218.558 9.14766ZM225.888 13.5876L227.268 13.6057V8.20568L223.177 8.15212L223.093 9.83102C222.973 11.9175 222.337 12.3531 221.869 12.299L221.989 13.6446C223.441 13.6636 224.161 13.061 224.425 10.1245L224.461 9.54893L225.888 9.56762V13.5876ZM233.041 12.1692C232.729 12.4172 232.177 12.6499 231.517 12.6413C230.665 12.6301 230.017 12.1777 229.897 11.3601L233.796 11.4111C233.856 11.2079 233.88 11.0042 233.88 10.6682C233.88 9.15624 232.717 8.14501 231.325 8.12679C229.549 8.10354 228.469 9.3494 228.469 10.9214C228.469 12.6254 229.633 13.7686 231.373 13.7914C232.129 13.8013 232.897 13.5954 233.437 13.1464L233.041 12.1692ZM231.265 9.278C232.057 9.28837 232.513 9.81034 232.501 10.4702L229.849 10.4355C229.993 9.72935 230.437 9.26716 231.265 9.278ZM238.736 13.7558L240.115 13.7739V8.37386L238.736 8.3558V10.3958L236.372 10.3649V8.32486L234.992 8.30679V13.7068L236.372 13.7249V11.6609L238.736 11.6918V13.7558ZM243.027 13.812L245.547 10.425V13.845L246.927 13.863V8.46303L245.547 8.44497L243.027 11.832V8.41198L241.648 8.39392V13.7939L243.027 13.812ZM251.107 8.51775C249.163 8.49231 248.419 9.35857 248.419 10.4026C248.419 11.2906 248.995 11.8021 249.463 11.9762L248.023 13.8774L249.607 13.8981L250.723 12.2927L251.491 12.3028V13.9228L252.871 13.9408V8.54084L251.107 8.51775ZM249.895 10.5179C249.895 10.1099 250.207 9.70597 250.879 9.71477L251.491 9.72278V11.2828L250.771 11.2734C250.339 11.2677 249.895 10.9619 249.895 10.5179Z" fill="#10162F"/>
    <path d="M217.497 49.9556L192.497 35.9556L217.497 21.9556L242.497 35.9556L217.497 49.9556Z" fill="#6C7991"/>
    <path d="M192.497 35.9556L217.497 49.9556V77.9556L192.497 64.9556V35.9556Z" fill="#AE85FF"/>
    <path d="M242.497 35.9556L217.497 49.9556V77.9556L242.497 64.9556V35.9556Z" fill="#7833FF"/>
    <path d="M377.849 13.0896L379.313 13.1088V4.70876L377.849 4.6896V8.1216L374.009 8.07134V4.63934L372.533 4.62002V13.02L374.009 13.0393V9.45134L377.849 9.5016V13.0896ZM380.906 10.4296C380.906 12.0496 382.058 13.2767 383.846 13.3001C385.634 13.3235 386.786 12.1266 386.786 10.5066C386.786 8.88659 385.634 7.65951 383.846 7.63611C382.058 7.6127 380.906 8.80962 380.906 10.4296ZM382.382 10.4489C382.382 9.51294 383.03 8.92142 383.846 8.93211C384.686 8.9431 385.322 9.57543 385.322 10.4874C385.322 11.4234 384.698 12.0273 383.846 12.0161C383.006 12.0051 382.382 11.3489 382.382 10.4489ZM387.98 13.2222C388.472 13.2287 389.456 13.3015 390.128 13.3103C391.868 13.3331 392.696 12.78 392.696 11.712C392.696 11.088 392.3 10.6388 391.544 10.4489V10.4249C392.084 10.3479 392.552 9.88607 392.552 9.23807C392.552 8.25407 391.676 7.8106 390.104 7.79002C389.264 7.77903 388.448 7.81635 387.98 7.82222V13.2222ZM390.224 10.9596C390.872 10.9681 391.244 11.1889 391.244 11.5969C391.244 11.9689 390.884 12.2162 390.272 12.2082C389.936 12.2038 389.564 12.163 389.36 12.1483V10.9483L390.224 10.9596ZM390.224 8.90759C390.74 8.91435 391.088 9.1109 391.088 9.5069C391.088 9.9269 390.716 10.126 390.26 10.1201L389.36 10.1083V8.92029C389.504 8.91017 389.9 8.90335 390.224 8.90759ZM394.003 13.3011L395.947 13.3265C397.783 13.3505 398.43 12.339 398.43 11.307C398.43 10.347 397.891 9.42796 396.055 9.40393L395.383 9.39513V7.91913L394.003 7.90107V13.3011ZM399.198 13.3691L400.578 13.3871V7.98714L399.198 7.96908V13.3691ZM395.935 10.5064C396.679 10.5161 396.967 10.8439 396.967 11.3359C396.967 11.8279 396.667 12.1359 395.923 12.1262L395.383 12.1191V10.4991L395.935 10.5064ZM403.491 13.4253L406.011 10.0383V13.4583L407.391 13.4763V8.07633L406.011 8.05826L403.491 11.4453V8.02528L402.112 8.00721V13.4072L403.491 13.4253ZM402.915 5.31774C402.915 6.36174 403.455 7.18481 404.799 7.2024C406.011 7.21826 406.635 6.39843 406.635 5.36643L405.375 5.34994C405.375 5.79394 405.207 6.22374 404.799 6.2184C404.343 6.21243 404.175 5.77823 404.175 5.33423L402.915 5.31774ZM414.138 15.9646L415.518 15.9827V13.7147L415.614 13.716C417.569 13.7416 418.517 12.53 418.517 10.922C418.517 9.33798 417.473 8.07631 415.614 8.05197L415.518 8.05071V5.18271L414.138 5.16465V8.03265L414.054 8.03155C412.17 8.00689 411.138 9.36138 411.138 10.8254C411.138 12.4334 412.182 13.671 414.066 13.6957L414.138 13.6966V15.9646ZM415.614 9.34797C416.586 9.36069 417.042 10.0987 417.042 10.9027C417.042 11.8147 416.562 12.4444 415.566 12.4313L415.518 12.4307V9.34671L415.614 9.34797ZM412.614 10.8447C412.614 10.0167 413.022 9.31404 414.042 9.32739L414.138 9.32865V12.4126L414.102 12.4122C413.106 12.3991 412.614 11.7447 412.614 10.8447ZM424.708 8.30302L423.136 8.28244L422.164 11.2097C422.068 11.4845 422.02 11.7478 421.972 11.9992C421.888 11.7341 421.816 11.4812 421.708 11.2158L420.449 8.24726L418.793 8.22558L421.289 13.6583L421.169 13.9447C420.941 14.5057 420.689 14.7784 420.341 14.7738C420.125 14.771 419.921 14.6603 419.777 14.5745L419.333 15.6127C419.645 15.8447 420.005 16.0414 420.497 16.0479C421.289 16.0583 421.792 15.5969 422.584 13.6752L424.708 8.30302ZM429.279 13.7629L430.659 13.7809V8.38092L429.279 8.36286V10.4029L426.915 10.3719V8.33191L425.535 8.31385V13.7138L426.915 13.7319V11.6679L429.279 11.6989V13.7629ZM437.303 8.46789L435.563 8.44511L433.619 11.0957L435.755 13.8476L437.555 13.8712L435.227 11.0087L437.303 8.46789ZM432.191 13.801L433.571 13.819V8.41904L432.191 8.40098V13.801ZM438.366 13.8818L442.95 13.9418V15.2018L444.246 15.2188V12.6748L443.346 12.663V8.547L441.966 8.52894V12.6449L439.746 12.6159V8.49988L438.366 8.48181V13.8818ZM446.542 13.9888L449.062 10.6018V14.0218L450.442 14.0399V8.6399L449.062 8.62183L446.542 12.0088V8.58885L445.163 8.57078V13.9708L446.542 13.9888ZM451.646 11.3557C451.646 12.9757 452.798 14.2027 454.586 14.2261C456.374 14.2495 457.526 13.0526 457.526 11.4326C457.526 9.81263 456.374 8.58555 454.586 8.56214C452.798 8.53874 451.646 9.73566 451.646 11.3557ZM453.122 11.375C453.122 10.439 453.77 9.84746 454.586 9.85814C455.426 9.86914 456.062 10.5015 456.062 11.4135C456.062 12.3495 455.438 12.9533 454.586 12.9421C453.746 12.9311 453.122 12.275 453.122 11.375ZM462.464 14.1973L463.844 14.2153V8.81533L462.464 8.79727V10.8373L460.1 10.8063V8.76632L458.72 8.74826V14.1483L460.1 14.1663V12.1023L462.464 12.1333V14.1973ZM465.796 10.2329C466.192 10.0581 466.588 9.87125 467.211 9.87942C468.015 9.88994 468.255 10.3851 468.219 11.2846C467.955 11.0892 467.475 10.9269 466.995 10.9206C465.904 10.9063 465.028 11.4588 465.028 12.6468C465.028 13.6908 465.736 14.3121 466.72 14.325C467.451 14.3346 468.027 14.0541 468.315 13.6499V14.2739L469.515 14.2896V11.0016C469.515 9.57358 468.951 8.7502 467.355 8.7293C466.648 8.72004 465.916 8.95046 465.448 9.22033L465.796 10.2329ZM467.175 13.1669C466.744 13.1613 466.408 12.9289 466.408 12.5209C466.408 12.0649 466.816 11.8542 467.271 11.8602C467.667 11.8654 467.979 11.9535 468.219 12.1366V12.6886C468.051 12.9264 467.751 13.1745 467.175 13.1669ZM474.482 14.3546L475.861 14.3727V8.97265L471.77 8.91909L471.686 10.598C471.566 12.6844 470.93 13.1201 470.462 13.066L470.582 14.4115C472.034 14.4305 472.754 13.828 473.018 10.8914L473.054 10.3159L474.482 10.3346V14.3546Z" fill="#10162F"/>
    <path d="M383 50.3875L358 36.3875L383 22.3875L408 36.3875L383 50.3875Z" fill="#6C7991"/>
    <path d="M358 36.3875L383 50.3875V78.3875L358 65.3875V36.3875Z" fill="#AE85FF"/>
    <path d="M408 36.3875L383 50.3875V78.3875L408 65.3875V36.3875Z" fill="#7833FF"/>
    <path d="M465 50.3875L440 36.3875L465 22.3875L490 36.3875L465 50.3875Z" fill="#6C7991"/>
    <path d="M440 36.3875L465 50.3875V78.3875L440 65.3875V36.3875Z" fill="#AE85FF"/>
    <path d="M490 36.3875L465 50.3875V78.3875L490 65.3875V36.3875Z" fill="#7833FF"/>
    <path d="M135 158L110 144L135 130L160 144L135 158Z" fill="#6C7991"/>
    <path d="M110 144L135 158V186L110 173V144Z" fill="#A5E6D9"/>
    <path d="M160 144L135 158V186L160 173V144Z" fill="#1EC1A1"/>
    <path d="M217 158L192 144L217 130L242 144L217 158Z" fill="#6C7991"/>
    <path d="M192 144L217 158V186L192 173V144Z" fill="#A5E6D9"/>
    <path d="M242 144L217 158V186L242 173V144Z" fill="#1EC1A1"/>
    <path d="M299 158L274 144L299 130L324 144L299 158Z" fill="#6C7991"/>
    <path d="M274 144L299 158V186L274 173V144Z" fill="#A5E6D9"/>
    <path d="M324 144L299 158V186L324 173V144Z" fill="#1EC1A1"/>
    <path d="M381 158L356 144L381 130L406 144L381 158Z" fill="#6C7991"/>
    <path d="M356 144L381 158V186L356 173V144Z" fill="#A5E6D9"/>
    <path d="M406 144L381 158V186L406 173V144Z" fill="#1EC1A1"/>
    <path d="M463 158L438 144L463 130L488 144L463 158Z" fill="#6C7991"/>
    <path d="M438 144L463 158V186L438 173V144Z" fill="#A5E6D9"/>
    <path d="M488 144L463 158V186L488 173V144Z" fill="#1EC1A1"/>
    <path d="M111.578 201.021L113.054 201.04V195.004L115.73 198.735L115.946 198.738L118.597 195.041V201.113L120.061 201.132V192.732L118.669 192.713L115.934 196.602L113.066 192.64L111.578 192.621V201.021ZM122.417 197.155C122.813 196.98 123.209 196.793 123.833 196.801C124.637 196.812 124.877 197.307 124.841 198.206C124.577 198.011 124.097 197.849 123.617 197.842C122.525 197.828 121.649 198.38 121.649 199.568C121.649 200.612 122.357 201.234 123.341 201.247C124.073 201.256 124.649 200.976 124.937 200.572V201.196L126.137 201.211V197.923C126.137 196.495 125.573 195.672 123.977 195.651C123.269 195.642 122.537 195.872 122.069 196.142L122.417 197.155ZM123.797 200.089C123.365 200.083 123.029 199.851 123.029 199.443C123.029 198.987 123.437 198.776 123.893 198.782C124.289 198.787 124.601 198.875 124.841 199.058V199.61C124.673 199.848 124.373 200.096 123.797 200.089ZM131.643 199.471C131.295 199.851 130.839 200.121 130.251 200.113C129.435 200.102 128.692 199.505 128.692 198.545C128.692 197.597 129.423 197.018 130.191 197.028C130.683 197.035 131.127 197.173 131.535 197.574L132.183 196.49C131.679 195.98 130.899 195.742 130.011 195.73C128.368 195.708 127.216 196.953 127.216 198.525C127.216 200.229 128.392 201.373 130.143 201.396C131.019 201.407 131.835 201.094 132.291 200.488L131.643 199.471ZM132.729 197.278L134.505 197.301V201.321L135.885 201.339V197.319L137.649 197.342V195.962L132.729 195.898V197.278ZM142.708 199.916C142.396 200.164 141.844 200.397 141.184 200.388C140.332 200.377 139.684 199.925 139.564 199.107L143.464 199.158C143.524 198.955 143.548 198.751 143.548 198.415C143.548 196.903 142.384 195.892 140.992 195.874C139.217 195.85 138.137 197.096 138.137 198.668C138.137 200.372 139.301 201.516 141.04 201.538C141.796 201.548 142.564 201.342 143.104 200.893L142.708 199.916ZM140.932 197.025C141.724 197.035 142.18 197.557 142.168 198.217L139.517 198.182C139.66 197.476 140.104 197.014 140.932 197.025ZM144.66 203.854L146.039 203.872V201.34C146.351 201.524 146.819 201.614 147.299 201.62C149.027 201.643 150.155 200.386 150.155 198.742C150.155 197.146 149.195 195.981 147.707 195.962C147.011 195.953 146.375 196.232 146.039 196.588V196.072L144.66 196.054V203.854ZM147.275 197.252C148.187 197.264 148.691 197.894 148.691 198.758C148.691 199.658 148.139 200.347 147.179 200.335C146.723 200.329 146.411 200.253 146.039 200.008V197.824C146.375 197.456 146.807 197.246 147.275 197.252Z" fill="#10162F"/>
    <path d="M301 268L276 254L301 240L326 254L301 268Z" fill="#6C7991"/>
    <path d="M276 254L301 268V296L276 283V254Z" fill="#AE85FF"/>
    <path d="M326 254L301 268V296L326 283V254Z" fill="#7833FF"/>
    <path d="M383 268L358 254L383 240L408 254L383 268Z" fill="#6C7991"/>
    <path d="M358 254L383 268V296L358 283V254Z" fill="#AE85FF"/>
    <path d="M408 254L383 268V296L408 283V254Z" fill="#7833FF"/>
    <path d="M308.316 311.037L312.72 305.13V311.094L314.196 311.114V302.714L312.9 302.697L308.496 308.615V302.639L307.02 302.62V311.02L308.316 311.037ZM320.219 309.381C319.871 309.76 319.415 310.03 318.827 310.022C318.011 310.012 317.267 309.414 317.267 308.454C317.267 307.506 317.999 306.928 318.767 306.938C319.259 306.944 319.703 307.082 320.111 307.483L320.759 306.4C320.255 305.889 319.475 305.651 318.587 305.639C316.943 305.618 315.791 306.863 315.791 308.435C315.791 310.139 316.967 311.282 318.719 311.305C319.595 311.316 320.411 311.003 320.867 310.397L320.219 309.381ZM325.658 311.264L327.038 311.282V305.882L321.975 305.816V311.216L323.354 311.234V307.13L325.658 307.16V311.264ZM328.572 313.702L329.952 313.72V311.188C330.264 311.372 330.732 311.462 331.211 311.469C332.939 311.491 334.067 310.234 334.067 308.59C334.067 306.994 333.107 305.829 331.619 305.81C330.923 305.801 330.288 306.08 329.952 306.436V305.92L328.572 305.902V313.702ZM331.187 307.1C332.099 307.112 332.603 307.743 332.603 308.607C332.603 309.507 332.051 310.196 331.091 310.183C330.636 310.177 330.324 310.101 329.952 309.856V307.672C330.288 307.304 330.72 307.094 331.187 307.1ZM335.682 307.387C336.078 307.212 336.474 307.025 337.098 307.034C337.902 307.044 338.142 307.539 338.106 308.439C337.842 308.243 337.362 308.081 336.882 308.075C335.79 308.06 334.915 308.613 334.915 309.801C334.915 310.845 335.622 311.466 336.606 311.479C337.338 311.489 337.914 311.208 338.202 310.804V311.428L339.402 311.444V308.156C339.402 306.728 338.838 305.904 337.242 305.883C336.534 305.874 335.802 306.105 335.335 306.375L335.682 307.387ZM337.062 310.321C336.63 310.315 336.294 310.083 336.294 309.675C336.294 309.219 336.702 309.008 337.158 309.014C337.554 309.02 337.866 309.108 338.106 309.291V309.843C337.938 310.081 337.638 310.329 337.062 310.321ZM340.817 311.462C341.309 311.469 342.293 311.542 342.965 311.55C344.704 311.573 345.532 311.02 345.532 309.952C345.532 309.328 345.136 308.879 344.38 308.689V308.665C344.92 308.588 345.388 308.126 345.388 307.478C345.388 306.494 344.512 306.051 342.941 306.03C342.101 306.019 341.285 306.056 340.817 306.062V311.462ZM343.061 309.2C343.708 309.208 344.08 309.429 344.08 309.837C344.08 310.209 343.72 310.456 343.109 310.448C342.773 310.444 342.401 310.403 342.197 310.388V309.188L343.061 309.2ZM343.061 307.148C343.576 307.154 343.924 307.351 343.924 307.747C343.924 308.167 343.552 308.366 343.097 308.36L342.197 308.348V307.16C342.341 307.15 342.737 307.143 343.061 307.148ZM350.391 311.588L351.771 311.606V306.206L347.68 306.152L347.596 307.831C347.476 309.917 346.84 310.353 346.372 310.299L346.492 311.645C347.944 311.664 348.663 311.061 348.927 308.124L348.963 307.549L350.391 307.568V311.588ZM357.543 310.169C357.232 310.417 356.68 310.65 356.02 310.641C355.168 310.63 354.52 310.178 354.4 309.36L358.299 309.411C358.359 309.208 358.383 309.004 358.383 308.668C358.383 307.156 357.22 306.145 355.828 306.127C354.052 306.104 352.972 307.349 352.972 308.921C352.972 310.625 354.136 311.769 355.876 311.791C356.632 311.801 357.399 311.595 357.939 311.146L357.543 310.169ZM355.768 307.278C356.56 307.288 357.016 307.81 357.004 308.47L354.352 308.435C354.496 307.729 354.94 307.267 355.768 307.278ZM363.238 311.756L364.618 311.774V306.374L363.238 306.356V308.396L360.875 308.365V306.325L359.495 306.307V311.707L360.875 311.725V309.661L363.238 309.692V311.756ZM367.53 311.812L370.05 308.425V311.845L371.43 311.863V306.463L370.05 306.445L367.53 309.832V306.412L366.15 306.394V311.794L367.53 311.812ZM375.61 306.518C373.666 306.492 372.922 307.359 372.922 308.403C372.922 309.291 373.498 309.802 373.966 309.976L372.526 311.877L374.11 311.898L375.226 310.293L375.994 310.303V311.923L377.374 311.941V306.541L375.61 306.518ZM374.398 308.518C374.398 308.11 374.71 307.706 375.382 307.715L375.994 307.723V309.283L375.274 309.273C374.842 309.268 374.398 308.962 374.398 308.518Z" fill="#10162F"/>
</svg>
