<svg width="600" height="600" viewBox="0 0 600 600" fill="none" xmlns="http://www.w3.org/2000/svg">
    <path d="M56.9023 340.203L61.0859 350.645L65.2695 340.203H67.458V353H65.7705V348.017L65.9287 342.638L61.7275 353H60.4355L56.2432 342.664L56.4102 348.017V353H54.7227V340.203H56.9023ZM76.0537 353C75.96 352.812 75.8838 352.479 75.8252 351.998C75.0693 352.783 74.167 353.176 73.1182 353.176C72.1807 353.176 71.4102 352.912 70.8066 352.385C70.209 351.852 69.9102 351.178 69.9102 350.363C69.9102 349.373 70.2852 348.605 71.0352 348.061C71.791 347.51 72.8516 347.234 74.2168 347.234H75.7988V346.487C75.7988 345.919 75.6289 345.468 75.2891 345.134C74.9492 344.794 74.4482 344.624 73.7861 344.624C73.2061 344.624 72.7197 344.771 72.3271 345.063C71.9346 345.356 71.7383 345.711 71.7383 346.127H70.1035C70.1035 345.652 70.2705 345.195 70.6045 344.756C70.9443 344.311 71.4014 343.959 71.9756 343.701C72.5557 343.443 73.1914 343.314 73.8828 343.314C74.9785 343.314 75.8369 343.59 76.458 344.141C77.0791 344.686 77.4014 345.438 77.4248 346.399V350.776C77.4248 351.649 77.5361 352.344 77.7588 352.859V353H76.0537ZM73.3555 351.761C73.8652 351.761 74.3486 351.629 74.8057 351.365C75.2627 351.102 75.5938 350.759 75.7988 350.337V348.386H74.5244C72.5322 348.386 71.5361 348.969 71.5361 350.135C71.5361 350.645 71.7061 351.043 72.0459 351.33C72.3857 351.617 72.8223 351.761 73.3555 351.761ZM83.7881 351.849C84.3682 351.849 84.875 351.673 85.3086 351.321C85.7422 350.97 85.9824 350.53 86.0293 350.003H87.5674C87.5381 350.548 87.3506 351.066 87.0049 351.559C86.6592 352.051 86.1963 352.443 85.6162 352.736C85.042 353.029 84.4326 353.176 83.7881 353.176C82.4932 353.176 81.4619 352.745 80.6943 351.884C79.9326 351.017 79.5518 349.833 79.5518 348.333V348.061C79.5518 347.135 79.7217 346.312 80.0615 345.591C80.4014 344.87 80.8877 344.311 81.5205 343.912C82.1592 343.514 82.9121 343.314 83.7793 343.314C84.8457 343.314 85.7305 343.634 86.4336 344.272C87.1426 344.911 87.5205 345.74 87.5674 346.76H86.0293C85.9824 346.145 85.748 345.641 85.3262 345.248C84.9102 344.85 84.3945 344.65 83.7793 344.65C82.9531 344.65 82.3115 344.949 81.8545 345.547C81.4033 346.139 81.1777 346.997 81.1777 348.122V348.43C81.1777 349.525 81.4033 350.369 81.8545 350.961C82.3057 351.553 82.9502 351.849 83.7881 351.849ZM96.4619 344.809H93.2715V353H91.6455V344.809H88.5166V343.49H96.4619V344.809ZM101.287 353.176C99.998 353.176 98.9492 352.754 98.1406 351.91C97.332 351.061 96.9277 349.927 96.9277 348.509V348.21C96.9277 347.267 97.1064 346.426 97.4639 345.688C97.8271 344.943 98.3311 344.363 98.9756 343.947C99.626 343.525 100.329 343.314 101.085 343.314C102.321 343.314 103.282 343.722 103.968 344.536C104.653 345.351 104.996 346.517 104.996 348.034V348.711H98.5537C98.5771 349.648 98.8496 350.407 99.3711 350.987C99.8984 351.562 100.566 351.849 101.375 351.849C101.949 351.849 102.436 351.731 102.834 351.497C103.232 351.263 103.581 350.952 103.88 350.565L104.873 351.339C104.076 352.563 102.881 353.176 101.287 353.176ZM101.085 344.65C100.429 344.65 99.8779 344.891 99.4326 345.371C98.9873 345.846 98.7119 346.514 98.6064 347.375H103.37V347.252C103.323 346.426 103.101 345.787 102.702 345.336C102.304 344.879 101.765 344.65 101.085 344.65ZM114.919 348.351C114.919 349.798 114.588 350.964 113.926 351.849C113.264 352.733 112.367 353.176 111.236 353.176C110.082 353.176 109.174 352.81 108.512 352.077V356.656H106.886V343.49H108.371L108.45 344.545C109.112 343.725 110.032 343.314 111.21 343.314C112.353 343.314 113.255 343.745 113.917 344.606C114.585 345.468 114.919 346.666 114.919 348.201V348.351ZM113.293 348.166C113.293 347.094 113.064 346.247 112.607 345.626C112.15 345.005 111.523 344.694 110.727 344.694C109.742 344.694 109.004 345.131 108.512 346.004V350.548C108.998 351.415 109.742 351.849 110.744 351.849C111.523 351.849 112.142 351.541 112.599 350.926C113.062 350.305 113.293 349.385 113.293 348.166Z" fill="black"/>
    <path d="M282.466 499H280.77V493.085H274.318V499H272.631V486.203H274.318V491.705H280.77V486.203H282.466V499ZM284.777 494.157C284.777 493.226 284.959 492.388 285.322 491.644C285.691 490.899 286.201 490.325 286.852 489.921C287.508 489.517 288.255 489.314 289.093 489.314C290.388 489.314 291.434 489.763 292.23 490.659C293.033 491.556 293.435 492.748 293.435 494.236V494.351C293.435 495.276 293.256 496.108 292.898 496.847C292.547 497.579 292.04 498.15 291.378 498.561C290.722 498.971 289.966 499.176 289.11 499.176C287.821 499.176 286.775 498.728 285.973 497.831C285.176 496.935 284.777 495.748 284.777 494.271V494.157ZM286.412 494.351C286.412 495.405 286.655 496.252 287.142 496.891C287.634 497.529 288.29 497.849 289.11 497.849C289.937 497.849 290.593 497.526 291.079 496.882C291.565 496.231 291.809 495.323 291.809 494.157C291.809 493.114 291.56 492.271 291.062 491.626C290.569 490.976 289.913 490.65 289.093 490.65C288.29 490.65 287.643 490.97 287.15 491.608C286.658 492.247 286.412 493.161 286.412 494.351ZM295.623 499V489.49H299.332C300.598 489.49 301.567 489.713 302.241 490.158C302.921 490.598 303.261 491.245 303.261 492.101C303.261 492.54 303.129 492.938 302.865 493.296C302.602 493.647 302.212 493.917 301.696 494.104C302.271 494.239 302.73 494.503 303.076 494.896C303.428 495.288 303.604 495.757 303.604 496.302C303.604 497.175 303.281 497.843 302.637 498.306C301.998 498.769 301.093 499 299.921 499H295.623ZM297.249 494.825V497.69H299.938C300.618 497.69 301.125 497.564 301.459 497.312C301.799 497.061 301.969 496.706 301.969 496.249C301.969 495.3 301.271 494.825 299.877 494.825H297.249ZM297.249 493.524H299.35C300.873 493.524 301.635 493.079 301.635 492.188C301.635 491.298 300.914 490.838 299.473 490.809H297.249V493.524ZM307.532 492.769H310.002C311.08 492.78 311.933 493.062 312.56 493.612C313.187 494.163 313.5 494.91 313.5 495.854C313.5 496.803 313.178 497.564 312.533 498.139C311.889 498.713 311.021 499 309.932 499H305.906V489.49H307.532V492.769ZM316.893 499H315.258V489.49H316.893V499ZM307.532 494.096V497.673H309.949C310.559 497.673 311.03 497.518 311.364 497.207C311.698 496.891 311.865 496.46 311.865 495.915C311.865 495.388 311.701 494.957 311.373 494.623C311.051 494.283 310.597 494.107 310.011 494.096H307.532ZM325.884 489.49H327.51V499H325.884V492.065L321.498 499H319.872V489.49H321.498V496.434L325.884 489.49ZM326.323 486.027C326.323 486.736 326.08 487.308 325.594 487.741C325.113 488.169 324.48 488.383 323.695 488.383C322.91 488.383 322.274 488.166 321.788 487.732C321.302 487.299 321.059 486.73 321.059 486.027H322.386C322.386 486.438 322.497 486.76 322.72 486.994C322.942 487.223 323.268 487.337 323.695 487.337C324.105 487.337 324.425 487.223 324.653 486.994C324.888 486.766 325.005 486.443 325.005 486.027H326.323ZM334.233 494.421C334.233 492.833 334.541 491.585 335.156 490.677C335.771 489.769 336.615 489.314 337.688 489.314C338.186 489.314 338.622 489.399 338.997 489.569V485.5H340.623V489.622C341.033 489.417 341.514 489.314 342.064 489.314C343.143 489.314 343.989 489.769 344.604 490.677C345.22 491.585 345.527 492.895 345.527 494.605C345.527 496.006 345.22 497.119 344.604 497.945C343.995 498.771 343.154 499.185 342.082 499.185C341.514 499.185 341.027 499.091 340.623 498.903V502.656H338.997V498.93C338.61 499.1 338.168 499.185 337.67 499.185C336.604 499.185 335.763 498.771 335.147 497.945C334.538 497.119 334.233 495.988 334.233 494.553V494.421ZM343.901 494.421C343.901 493.226 343.696 492.3 343.286 491.644C342.876 490.981 342.311 490.65 341.59 490.65C341.221 490.65 340.898 490.709 340.623 490.826V497.708C340.887 497.808 341.215 497.857 341.607 497.857C342.334 497.857 342.896 497.576 343.295 497.014C343.699 496.451 343.901 495.587 343.901 494.421ZM335.859 494.605C335.859 495.672 336.05 496.48 336.431 497.031C336.812 497.582 337.359 497.857 338.074 497.857C338.414 497.857 338.722 497.805 338.997 497.699V490.8C338.751 490.7 338.449 490.65 338.092 490.65C337.377 490.65 336.826 490.97 336.439 491.608C336.053 492.247 335.859 493.246 335.859 494.605ZM350.651 496.618L352.866 489.49H354.606L350.783 500.468C350.191 502.05 349.251 502.841 347.962 502.841L347.654 502.814L347.048 502.7V501.382L347.487 501.417C348.038 501.417 348.466 501.306 348.771 501.083C349.081 500.86 349.336 500.453 349.535 499.861L349.896 498.895L346.503 489.49H348.278L350.651 496.618ZM363.835 499H362.209V494.939H357.841V499H356.206V489.49H357.841V493.612H362.209V489.49H363.835V499ZM369.416 494.948H368.229V499H366.595V489.49H368.229V493.516H369.293L372.492 489.49H374.461L370.699 494.061L374.777 499H372.712L369.416 494.948ZM376.315 489.49H377.95V497.673H382.327V489.49H383.953V497.673H385.087L384.929 501.821H383.47V499H376.315V489.49ZM392.997 489.49H394.623V499H392.997V492.065L388.611 499H386.985V489.49H388.611V496.434L392.997 489.49ZM396.803 494.157C396.803 493.226 396.984 492.388 397.348 491.644C397.717 490.899 398.227 490.325 398.877 489.921C399.533 489.517 400.28 489.314 401.118 489.314C402.413 489.314 403.459 489.763 404.256 490.659C405.059 491.556 405.46 492.748 405.46 494.236V494.351C405.46 495.276 405.281 496.108 404.924 496.847C404.572 497.579 404.065 498.15 403.403 498.561C402.747 498.971 401.991 499.176 401.136 499.176C399.847 499.176 398.801 498.728 397.998 497.831C397.201 496.935 396.803 495.748 396.803 494.271V494.157ZM398.438 494.351C398.438 495.405 398.681 496.252 399.167 496.891C399.659 497.529 400.315 497.849 401.136 497.849C401.962 497.849 402.618 497.526 403.104 496.882C403.591 496.231 403.834 495.323 403.834 494.157C403.834 493.114 403.585 492.271 403.087 491.626C402.595 490.976 401.938 490.65 401.118 490.65C400.315 490.65 399.668 490.97 399.176 491.608C398.684 492.247 398.438 493.161 398.438 494.351ZM415.269 499H413.643V494.939H409.274V499H407.64V489.49H409.274V493.612H413.643V489.49H415.269V499ZM423.759 499C423.665 498.812 423.589 498.479 423.53 497.998C422.774 498.783 421.872 499.176 420.823 499.176C419.886 499.176 419.115 498.912 418.512 498.385C417.914 497.852 417.615 497.178 417.615 496.363C417.615 495.373 417.99 494.605 418.74 494.061C419.496 493.51 420.557 493.234 421.922 493.234H423.504V492.487C423.504 491.919 423.334 491.468 422.994 491.134C422.654 490.794 422.153 490.624 421.491 490.624C420.911 490.624 420.425 490.771 420.032 491.063C419.64 491.356 419.443 491.711 419.443 492.127H417.809C417.809 491.652 417.976 491.195 418.31 490.756C418.649 490.311 419.106 489.959 419.681 489.701C420.261 489.443 420.896 489.314 421.588 489.314C422.684 489.314 423.542 489.59 424.163 490.141C424.784 490.686 425.106 491.438 425.13 492.399V496.776C425.13 497.649 425.241 498.344 425.464 498.859V499H423.759ZM421.061 497.761C421.57 497.761 422.054 497.629 422.511 497.365C422.968 497.102 423.299 496.759 423.504 496.337V494.386H422.229C420.237 494.386 419.241 494.969 419.241 496.135C419.241 496.645 419.411 497.043 419.751 497.33C420.091 497.617 420.527 497.761 421.061 497.761ZM435.475 489.49V499H433.84V490.835H430.605L430.412 494.395C430.307 496.029 430.031 497.198 429.586 497.901C429.146 498.604 428.446 498.971 427.485 499H426.835V497.567L427.301 497.532C427.828 497.474 428.206 497.169 428.435 496.618C428.663 496.067 428.81 495.048 428.874 493.56L429.05 489.49H435.475Z" fill="black"/>
    <path d="M391.466 120H389.77V114.085H383.318V120H381.631V107.203H383.318V112.705H389.77V107.203H391.466V120ZM393.777 115.157C393.777 114.226 393.959 113.388 394.322 112.644C394.691 111.899 395.201 111.325 395.852 110.921C396.508 110.517 397.255 110.314 398.093 110.314C399.388 110.314 400.434 110.763 401.23 111.659C402.033 112.556 402.435 113.748 402.435 115.236V115.351C402.435 116.276 402.256 117.108 401.898 117.847C401.547 118.579 401.04 119.15 400.378 119.561C399.722 119.971 398.966 120.176 398.11 120.176C396.821 120.176 395.775 119.728 394.973 118.831C394.176 117.935 393.777 116.748 393.777 115.271V115.157ZM395.412 115.351C395.412 116.405 395.655 117.252 396.142 117.891C396.634 118.529 397.29 118.849 398.11 118.849C398.937 118.849 399.593 118.526 400.079 117.882C400.565 117.231 400.809 116.323 400.809 115.157C400.809 114.114 400.56 113.271 400.062 112.626C399.569 111.976 398.913 111.65 398.093 111.65C397.29 111.65 396.643 111.97 396.15 112.608C395.658 113.247 395.412 114.161 395.412 115.351ZM404.623 120V110.49H408.332C409.598 110.49 410.567 110.713 411.241 111.158C411.921 111.598 412.261 112.245 412.261 113.101C412.261 113.54 412.129 113.938 411.865 114.296C411.602 114.647 411.212 114.917 410.696 115.104C411.271 115.239 411.73 115.503 412.076 115.896C412.428 116.288 412.604 116.757 412.604 117.302C412.604 118.175 412.281 118.843 411.637 119.306C410.998 119.769 410.093 120 408.921 120H404.623ZM406.249 115.825V118.69H408.938C409.618 118.69 410.125 118.564 410.459 118.312C410.799 118.061 410.969 117.706 410.969 117.249C410.969 116.3 410.271 115.825 408.877 115.825H406.249ZM406.249 114.524H408.35C409.873 114.524 410.635 114.079 410.635 113.188C410.635 112.298 409.914 111.838 408.473 111.809H406.249V114.524ZM416.532 113.769H419.002C420.08 113.78 420.933 114.062 421.56 114.612C422.187 115.163 422.5 115.91 422.5 116.854C422.5 117.803 422.178 118.564 421.533 119.139C420.889 119.713 420.021 120 418.932 120H414.906V110.49H416.532V113.769ZM425.893 120H424.258V110.49H425.893V120ZM416.532 115.096V118.673H418.949C419.559 118.673 420.03 118.518 420.364 118.207C420.698 117.891 420.865 117.46 420.865 116.915C420.865 116.388 420.701 115.957 420.373 115.623C420.051 115.283 419.597 115.107 419.011 115.096H416.532ZM434.884 110.49H436.51V120H434.884V113.065L430.498 120H428.872V110.49H430.498V117.434L434.884 110.49ZM435.323 107.027C435.323 107.736 435.08 108.308 434.594 108.741C434.113 109.169 433.48 109.383 432.695 109.383C431.91 109.383 431.274 109.166 430.788 108.732C430.302 108.299 430.059 107.73 430.059 107.027H431.386C431.386 107.438 431.497 107.76 431.72 107.994C431.942 108.223 432.268 108.337 432.695 108.337C433.105 108.337 433.425 108.223 433.653 107.994C433.888 107.766 434.005 107.443 434.005 107.027H435.323ZM443.233 115.421C443.233 113.833 443.541 112.585 444.156 111.677C444.771 110.769 445.615 110.314 446.688 110.314C447.186 110.314 447.622 110.399 447.997 110.569V106.5H449.623V110.622C450.033 110.417 450.514 110.314 451.064 110.314C452.143 110.314 452.989 110.769 453.604 111.677C454.22 112.585 454.527 113.895 454.527 115.605C454.527 117.006 454.22 118.119 453.604 118.945C452.995 119.771 452.154 120.185 451.082 120.185C450.514 120.185 450.027 120.091 449.623 119.903V123.656H447.997V119.93C447.61 120.1 447.168 120.185 446.67 120.185C445.604 120.185 444.763 119.771 444.147 118.945C443.538 118.119 443.233 116.988 443.233 115.553V115.421ZM452.901 115.421C452.901 114.226 452.696 113.3 452.286 112.644C451.876 111.981 451.311 111.65 450.59 111.65C450.221 111.65 449.898 111.709 449.623 111.826V118.708C449.887 118.808 450.215 118.857 450.607 118.857C451.334 118.857 451.896 118.576 452.295 118.014C452.699 117.451 452.901 116.587 452.901 115.421ZM444.859 115.605C444.859 116.672 445.05 117.48 445.431 118.031C445.812 118.582 446.359 118.857 447.074 118.857C447.414 118.857 447.722 118.805 447.997 118.699V111.8C447.751 111.7 447.449 111.65 447.092 111.65C446.377 111.65 445.826 111.97 445.439 112.608C445.053 113.247 444.859 114.246 444.859 115.605ZM459.651 117.618L461.866 110.49H463.606L459.783 121.468C459.191 123.05 458.251 123.841 456.962 123.841L456.654 123.814L456.048 123.7V122.382L456.487 122.417C457.038 122.417 457.466 122.306 457.771 122.083C458.081 121.86 458.336 121.453 458.535 120.861L458.896 119.895L455.503 110.49H457.278L459.651 117.618ZM472.835 120H471.209V115.939H466.841V120H465.206V110.49H466.841V114.612H471.209V110.49H472.835V120ZM478.416 115.948H477.229V120H475.595V110.49H477.229V114.516H478.293L481.492 110.49H483.461L479.699 115.061L483.777 120H481.712L478.416 115.948ZM485.315 110.49H486.95V118.673H491.327V110.49H492.953V118.673H494.087L493.929 122.821H492.47V120H485.315V110.49ZM501.997 110.49H503.623V120H501.997V113.065L497.611 120H495.985V110.49H497.611V117.434L501.997 110.49ZM505.803 115.157C505.803 114.226 505.984 113.388 506.348 112.644C506.717 111.899 507.227 111.325 507.877 110.921C508.533 110.517 509.28 110.314 510.118 110.314C511.413 110.314 512.459 110.763 513.256 111.659C514.059 112.556 514.46 113.748 514.46 115.236V115.351C514.46 116.276 514.281 117.108 513.924 117.847C513.572 118.579 513.065 119.15 512.403 119.561C511.747 119.971 510.991 120.176 510.136 120.176C508.847 120.176 507.801 119.728 506.998 118.831C506.201 117.935 505.803 116.748 505.803 115.271V115.157ZM507.438 115.351C507.438 116.405 507.681 117.252 508.167 117.891C508.659 118.529 509.315 118.849 510.136 118.849C510.962 118.849 511.618 118.526 512.104 117.882C512.591 117.231 512.834 116.323 512.834 115.157C512.834 114.114 512.585 113.271 512.087 112.626C511.595 111.976 510.938 111.65 510.118 111.65C509.315 111.65 508.668 111.97 508.176 112.608C507.684 113.247 507.438 114.161 507.438 115.351ZM524.269 120H522.643V115.939H518.274V120H516.64V110.49H518.274V114.612H522.643V110.49H524.269V120ZM532.759 120C532.665 119.812 532.589 119.479 532.53 118.998C531.774 119.783 530.872 120.176 529.823 120.176C528.886 120.176 528.115 119.912 527.512 119.385C526.914 118.852 526.615 118.178 526.615 117.363C526.615 116.373 526.99 115.605 527.74 115.061C528.496 114.51 529.557 114.234 530.922 114.234H532.504V113.487C532.504 112.919 532.334 112.468 531.994 112.134C531.654 111.794 531.153 111.624 530.491 111.624C529.911 111.624 529.425 111.771 529.032 112.063C528.64 112.356 528.443 112.711 528.443 113.127H526.809C526.809 112.652 526.976 112.195 527.31 111.756C527.649 111.311 528.106 110.959 528.681 110.701C529.261 110.443 529.896 110.314 530.588 110.314C531.684 110.314 532.542 110.59 533.163 111.141C533.784 111.686 534.106 112.438 534.13 113.399V117.776C534.13 118.649 534.241 119.344 534.464 119.859V120H532.759ZM530.061 118.761C530.57 118.761 531.054 118.629 531.511 118.365C531.968 118.102 532.299 117.759 532.504 117.337V115.386H531.229C529.237 115.386 528.241 115.969 528.241 117.135C528.241 117.645 528.411 118.043 528.751 118.33C529.091 118.617 529.527 118.761 530.061 118.761ZM544.475 110.49V120H542.84V111.835H539.605L539.412 115.395C539.307 117.029 539.031 118.198 538.586 118.901C538.146 119.604 537.446 119.971 536.485 120H535.835V118.567L536.301 118.532C536.828 118.474 537.206 118.169 537.435 117.618C537.663 117.067 537.81 116.048 537.874 114.56L538.05 110.49H544.475Z" fill="black"/>
    <path d="M144.838 107.203H146.525V120H144.838V110.139L138.536 120H136.84V107.203H138.536V117.064L144.838 107.203ZM153.161 118.849C153.741 118.849 154.248 118.673 154.682 118.321C155.115 117.97 155.355 117.53 155.402 117.003H156.94C156.911 117.548 156.724 118.066 156.378 118.559C156.032 119.051 155.569 119.443 154.989 119.736C154.415 120.029 153.806 120.176 153.161 120.176C151.866 120.176 150.835 119.745 150.067 118.884C149.306 118.017 148.925 116.833 148.925 115.333V115.061C148.925 114.135 149.095 113.312 149.435 112.591C149.774 111.87 150.261 111.311 150.894 110.912C151.532 110.514 152.285 110.314 153.152 110.314C154.219 110.314 155.104 110.634 155.807 111.272C156.516 111.911 156.894 112.74 156.94 113.76H155.402C155.355 113.145 155.121 112.641 154.699 112.248C154.283 111.85 153.768 111.65 153.152 111.65C152.326 111.65 151.685 111.949 151.228 112.547C150.776 113.139 150.551 113.997 150.551 115.122V115.43C150.551 116.525 150.776 117.369 151.228 117.961C151.679 118.553 152.323 118.849 153.161 118.849ZM166.547 120H164.921V111.835H160.544V120H158.909V110.49H166.547V120ZM177.19 115.351C177.19 116.798 176.859 117.964 176.197 118.849C175.535 119.733 174.639 120.176 173.508 120.176C172.354 120.176 171.445 119.81 170.783 119.077V123.656H169.157V110.49H170.643L170.722 111.545C171.384 110.725 172.304 110.314 173.481 110.314C174.624 110.314 175.526 110.745 176.188 111.606C176.856 112.468 177.19 113.666 177.19 115.201V115.351ZM175.564 115.166C175.564 114.094 175.336 113.247 174.879 112.626C174.422 112.005 173.795 111.694 172.998 111.694C172.014 111.694 171.275 112.131 170.783 113.004V117.548C171.27 118.415 172.014 118.849 173.016 118.849C173.795 118.849 174.413 118.541 174.87 117.926C175.333 117.305 175.564 116.385 175.564 115.166ZM185.136 120C185.042 119.812 184.966 119.479 184.907 118.998C184.151 119.783 183.249 120.176 182.2 120.176C181.263 120.176 180.492 119.912 179.889 119.385C179.291 118.852 178.992 118.178 178.992 117.363C178.992 116.373 179.367 115.605 180.117 115.061C180.873 114.51 181.934 114.234 183.299 114.234H184.881V113.487C184.881 112.919 184.711 112.468 184.371 112.134C184.031 111.794 183.53 111.624 182.868 111.624C182.288 111.624 181.802 111.771 181.409 112.063C181.017 112.356 180.82 112.711 180.82 113.127H179.186C179.186 112.652 179.353 112.195 179.687 111.756C180.026 111.311 180.483 110.959 181.058 110.701C181.638 110.443 182.273 110.314 182.965 110.314C184.061 110.314 184.919 110.59 185.54 111.141C186.161 111.686 186.483 112.438 186.507 113.399V117.776C186.507 118.649 186.618 119.344 186.841 119.859V120H185.136ZM182.438 118.761C182.947 118.761 183.431 118.629 183.888 118.365C184.345 118.102 184.676 117.759 184.881 117.337V115.386H183.606C181.614 115.386 180.618 115.969 180.618 117.135C180.618 117.645 180.788 118.043 181.128 118.33C181.468 118.617 181.904 118.761 182.438 118.761ZM189.205 120V110.49H192.914C194.18 110.49 195.149 110.713 195.823 111.158C196.503 111.598 196.843 112.245 196.843 113.101C196.843 113.54 196.711 113.938 196.447 114.296C196.184 114.647 195.794 114.917 195.278 115.104C195.853 115.239 196.312 115.503 196.658 115.896C197.01 116.288 197.186 116.757 197.186 117.302C197.186 118.175 196.863 118.843 196.219 119.306C195.58 119.769 194.675 120 193.503 120H189.205ZM190.831 115.825V118.69H193.521C194.2 118.69 194.707 118.564 195.041 118.312C195.381 118.061 195.551 117.706 195.551 117.249C195.551 116.3 194.854 115.825 193.459 115.825H190.831ZM190.831 114.524H192.932C194.455 114.524 195.217 114.079 195.217 113.188C195.217 112.298 194.496 111.838 193.055 111.809H190.831V114.524ZM207.135 110.49V120H205.5V111.835H202.266L202.072 115.395C201.967 117.029 201.691 118.198 201.246 118.901C200.807 119.604 200.106 119.971 199.146 120H198.495V118.567L198.961 118.532C199.488 118.474 199.866 118.169 200.095 117.618C200.323 117.067 200.47 116.048 200.534 114.56L200.71 110.49H207.135ZM213.691 120.176C212.402 120.176 211.354 119.754 210.545 118.91C209.736 118.061 209.332 116.927 209.332 115.509V115.21C209.332 114.267 209.511 113.426 209.868 112.688C210.231 111.943 210.735 111.363 211.38 110.947C212.03 110.525 212.733 110.314 213.489 110.314C214.726 110.314 215.687 110.722 216.372 111.536C217.058 112.351 217.4 113.517 217.4 115.034V115.711H210.958C210.981 116.648 211.254 117.407 211.775 117.987C212.303 118.562 212.971 118.849 213.779 118.849C214.354 118.849 214.84 118.731 215.238 118.497C215.637 118.263 215.985 117.952 216.284 117.565L217.277 118.339C216.48 119.563 215.285 120.176 213.691 120.176ZM213.489 111.65C212.833 111.65 212.282 111.891 211.837 112.371C211.392 112.846 211.116 113.514 211.011 114.375H215.774V114.252C215.728 113.426 215.505 112.787 215.106 112.336C214.708 111.879 214.169 111.65 213.489 111.65ZM227.06 120H225.434V115.939H221.065V120H219.431V110.49H221.065V114.612H225.434V110.49H227.06V120ZM235.831 110.49H237.457V120H235.831V113.065L231.445 120H229.819V110.49H231.445V117.434L235.831 110.49ZM247.336 110.49V120H245.701V116.3H243.249L241.008 120H239.25L241.641 116.054C241.031 115.831 240.562 115.488 240.234 115.025C239.912 114.557 239.751 114.012 239.751 113.391C239.751 112.523 240.076 111.826 240.727 111.299C241.377 110.766 242.247 110.496 243.337 110.49H247.336ZM241.386 113.408C241.386 113.871 241.544 114.246 241.86 114.533C242.177 114.814 242.596 114.958 243.117 114.964H245.701V111.809H243.363C242.76 111.809 242.279 111.958 241.922 112.257C241.564 112.55 241.386 112.934 241.386 113.408Z" fill="black"/>
    <circle cx="84" cy="300" r="18" transform="rotate(90 84 300)" fill="#73FFE5" stroke="black" stroke-width="4"/>
    <circle cx="192" cy="300" r="18" transform="rotate(90 192 300)" fill="#73FFE5" stroke="black" stroke-width="4"/>
    <circle cx="408" cy="300" r="18" transform="rotate(90 408 300)" fill="#73FFE5" stroke="black" stroke-width="4"/>
    <circle cx="300" cy="441" r="18" transform="rotate(90 300 441)" fill="#E5FF73" stroke="black" stroke-width="4"/>
    <circle cx="192" cy="159" r="18" transform="rotate(90 192 159)" fill="#FFA492" stroke="black" stroke-width="4"/>
    <circle cx="408" cy="441" r="18" transform="rotate(90 408 441)" fill="#E5FF73" stroke="black" stroke-width="4"/>
    <circle cx="408" cy="159" r="18" transform="rotate(90 408 159)" fill="#CEC0FF" stroke="black" stroke-width="4"/>
    <circle cx="516" cy="159" r="18" transform="rotate(90 516 159)" fill="#CEC0FF" stroke="black" stroke-width="4"/>
    <circle cx="516" cy="300" r="18" transform="rotate(90 516 300)" fill="#73FFE5" stroke="black" stroke-width="4"/>
    <path d="M102 300H176" stroke="black" stroke-width="4"/>
    <path d="M424 300L496 300" stroke="black" stroke-width="4"/>
    <path d="M424 159L496 159" stroke="black" stroke-width="4"/>
    <path d="M316 300L388 300" stroke="black" stroke-width="4"/>
    <path d="M316 441L388 441" stroke="black" stroke-width="4"/>
    <path d="M210 300L282 300" stroke="black" stroke-width="4"/>
    <circle cx="300" cy="300" r="18" transform="rotate(90 300 300)" fill="#73FFE5" stroke="black" stroke-width="4"/>
    <path d="M174.5 159V159C163.317 159 157.726 159 153.316 160.827C147.435 163.263 142.763 167.935 140.327 173.816C138.5 178.226 138.5 183.817 138.5 195V263.5C138.5 275.152 138.5 280.978 136.52 285.546C134.096 291.137 129.637 295.596 124.046 298.02C119.478 300 113.652 300 102 300V300" stroke="black" stroke-width="4"/>
    <path d="M209 159V159C220.183 159 225.774 159 230.184 160.827C236.065 163.263 240.737 167.935 243.173 173.816C245 178.226 245 183.817 245 195V263.5C245 275.152 245 280.978 246.98 285.546C249.404 291.137 253.863 295.596 259.454 298.02C264.022 300 269.848 300 281.5 300V300" stroke="black" stroke-width="4"/>
    <path d="M388.5 159V159C377.317 159 371.726 159 367.316 160.827C361.435 163.263 356.763 167.935 354.327 173.816C352.5 178.226 352.5 183.817 352.5 195V263.5C352.5 275.152 352.5 280.978 350.52 285.546C348.096 291.137 343.637 295.596 338.046 298.02C333.478 300 327.652 300 316 300V300" stroke="black" stroke-width="4"/>
    <path d="M427 441V441C438.183 441 443.774 441 448.184 439.173C454.065 436.737 458.737 432.065 461.173 426.184C463 421.774 463 416.183 463 405V336.5C463 324.848 463 319.022 464.98 314.454C467.404 308.863 471.863 304.404 477.454 301.98C482.022 300 487.848 300 499.5 300V300" stroke="black" stroke-width="4"/>
    <path d="M209 300V300C220.183 300 225.774 300 230.184 301.827C236.065 304.263 240.737 308.935 243.173 314.816C245 319.226 245 324.817 245 336V404.5C245 416.152 245 421.978 246.98 426.546C249.404 432.137 253.863 436.596 259.454 439.02C264.022 441 269.848 441 281.5 441V441" stroke="black" stroke-width="4"/>
</svg>
