<svg width="599" height="329" viewBox="0 0 599 329" fill="none" xmlns="http://www.w3.org/2000/svg">
    <path d="M212.656 23H215.416V14.792H218.344V12.2H215.416V10.664C215.416 9.176 216.064 8.528 217 8.528C217.624 8.528 218.224 8.696 218.584 9.056L219.52 6.944C218.968 6.368 217.792 5.936 216.496 5.936C214.096 5.936 212.656 7.448 212.656 10.448V23ZM230.109 12.2H227.349V19.376C226.725 20.192 225.837 20.696 224.925 20.696C223.413 20.696 222.861 19.664 222.861 18.224V12.2H220.101V18.8C220.101 21.896 221.781 23.264 223.893 23.264C225.573 23.264 226.701 22.472 227.349 21.68V23H230.109V12.2ZM233.184 23H235.944V15.632C236.592 14.984 237.36 14.6 238.296 14.6C239.832 14.6 240.72 15.416 240.72 17.144V23H243.48V16.664C243.48 13.28 241.68 12.008 239.04 12.008C237.744 12.008 236.592 12.584 235.944 13.28V12.2H233.184V23ZM254.47 19.376C253.774 20.144 252.862 20.696 251.686 20.696C250.054 20.696 248.566 19.52 248.566 17.6C248.566 15.704 250.03 14.528 251.566 14.528C252.55 14.528 253.438 14.792 254.254 15.584L255.55 13.4C254.542 12.392 252.982 11.936 251.206 11.936C247.918 11.936 245.614 14.456 245.614 17.6C245.614 21.008 247.966 23.264 251.47 23.264C253.222 23.264 254.854 22.616 255.766 21.392L254.47 19.376ZM257.741 18.896C257.741 21.656 258.653 23.24 261.101 23.24C262.493 23.24 263.645 22.712 264.293 22.184L263.453 20.048C263.069 20.336 262.541 20.672 261.797 20.672C260.885 20.672 260.501 19.904 260.501 18.728V14.792H263.981V12.2H260.501V9.2H257.741V18.896ZM267.038 23H269.798V12.2H267.038V23ZM266.75 8.312C266.75 9.416 267.542 10.04 268.478 10.04C269.27 10.04 270.062 9.416 270.062 8.312C270.062 7.328 269.27 6.704 268.478 6.704C267.542 6.704 266.75 7.328 266.75 8.312ZM272.614 17.6C272.614 20.84 274.918 23.264 278.494 23.264C282.07 23.264 284.374 20.84 284.374 17.6C284.374 14.36 282.07 11.936 278.494 11.936C274.918 11.936 272.614 14.36 272.614 17.6ZM275.566 17.6C275.566 15.728 276.862 14.528 278.494 14.528C280.174 14.528 281.446 15.776 281.446 17.6C281.446 19.472 280.198 20.696 278.494 20.696C276.814 20.696 275.566 19.4 275.566 17.6ZM286.763 23H289.523V15.632C290.171 14.984 290.939 14.6 291.875 14.6C293.411 14.6 294.299 15.416 294.299 17.144V23H297.059V16.664C297.059 13.28 295.259 12.008 292.619 12.008C291.323 12.008 290.171 12.584 289.523 13.28V12.2H286.763V23Z" fill="#10162F"/>
    <g clip-path="url(#clip0_249_505)">
        <rect width="120" height="52" transform="translate(202.667 69.5)" fill="#7833FF"/>
        <path d="M225.043 94.484C225.835 94.124 226.627 93.74 227.875 93.74C229.483 93.74 229.963 94.724 229.891 96.524C229.363 96.14 228.403 95.828 227.443 95.828C225.259 95.828 223.507 96.956 223.507 99.332C223.507 101.42 224.923 102.644 226.891 102.644C228.355 102.644 229.507 102.068 230.083 101.252V102.5H232.483V95.924C232.483 93.068 231.355 91.436 228.163 91.436C226.747 91.436 225.283 91.916 224.347 92.468L225.043 94.484ZM227.803 100.316C226.939 100.316 226.267 99.86 226.267 99.044C226.267 98.132 227.083 97.7 227.995 97.7C228.787 97.7 229.411 97.868 229.891 98.228V99.332C229.555 99.812 228.955 100.316 227.803 100.316ZM243.496 98.876C242.8 99.644 241.888 100.196 240.712 100.196C239.08 100.196 237.592 99.02 237.592 97.1C237.592 95.204 239.056 94.028 240.592 94.028C241.576 94.028 242.464 94.292 243.28 95.084L244.576 92.9C243.568 91.892 242.008 91.436 240.232 91.436C236.944 91.436 234.64 93.956 234.64 97.1C234.64 100.508 236.992 102.764 240.496 102.764C242.248 102.764 243.88 102.116 244.792 100.892L243.496 98.876ZM246.767 98.396C246.767 101.156 247.679 102.74 250.127 102.74C251.519 102.74 252.671 102.212 253.319 101.684L252.479 99.548C252.095 99.836 251.567 100.172 250.823 100.172C249.911 100.172 249.527 99.404 249.527 98.228V94.292H253.007V91.7H249.527V88.7H246.767V98.396ZM256.064 102.5H258.824V91.7H256.064V102.5ZM255.776 87.812C255.776 88.916 256.568 89.54 257.504 89.54C258.296 89.54 259.088 88.916 259.088 87.812C259.088 86.828 258.296 86.204 257.504 86.204C256.568 86.204 255.776 86.828 255.776 87.812ZM261.64 97.1C261.64 100.34 263.944 102.764 267.52 102.764C271.096 102.764 273.4 100.34 273.4 97.1C273.4 93.86 271.096 91.436 267.52 91.436C263.944 91.436 261.64 93.86 261.64 97.1ZM264.592 97.1C264.592 95.228 265.888 94.028 267.52 94.028C269.2 94.028 270.472 95.276 270.472 97.1C270.472 98.972 269.224 100.196 267.52 100.196C265.84 100.196 264.592 98.9 264.592 97.1ZM275.788 102.5H278.548V95.132C279.196 94.484 279.964 94.1 280.9 94.1C282.436 94.1 283.324 94.916 283.324 96.644V102.5H286.084V96.164C286.084 92.78 284.284 91.508 281.644 91.508C280.348 91.508 279.196 92.084 278.548 92.78V91.7H275.788V102.5ZM292.968 88.868L294.432 91.148L296.496 89.588V102.5H299.256V85.652H297.264L292.968 88.868Z" fill="white"/>
        <path d="M379.667 93.5L374.667 98.5L379.667 103.5" stroke="#6C7991" stroke-width="2" stroke-linecap="round" stroke-linejoin="round"/>
        <path d="M390.667 87.5V94.5C390.667 95.5609 390.245 96.5783 389.495 97.3284C388.745 98.0786 387.727 98.5 386.667 98.5H374.667" stroke="#6C7991" stroke-width="2" stroke-linecap="round" stroke-linejoin="round"/>
        <rect width="120" height="52" transform="translate(202.667 129.5)" fill="#7833FF"/>
        <path d="M223.543 154.484C224.335 154.124 225.127 153.74 226.375 153.74C227.983 153.74 228.463 154.724 228.391 156.524C227.863 156.14 226.903 155.828 225.943 155.828C223.759 155.828 222.007 156.956 222.007 159.332C222.007 161.42 223.423 162.644 225.391 162.644C226.855 162.644 228.007 162.068 228.583 161.252V162.5H230.983V155.924C230.983 153.068 229.855 151.436 226.663 151.436C225.247 151.436 223.783 151.916 222.847 152.468L223.543 154.484ZM226.303 160.316C225.439 160.316 224.767 159.86 224.767 159.044C224.767 158.132 225.583 157.7 226.495 157.7C227.287 157.7 227.911 157.868 228.391 158.228V159.332C228.055 159.812 227.455 160.316 226.303 160.316ZM241.996 158.876C241.3 159.644 240.388 160.196 239.212 160.196C237.58 160.196 236.092 159.02 236.092 157.1C236.092 155.204 237.556 154.028 239.092 154.028C240.076 154.028 240.964 154.292 241.78 155.084L243.076 152.9C242.068 151.892 240.508 151.436 238.732 151.436C235.444 151.436 233.14 153.956 233.14 157.1C233.14 160.508 235.492 162.764 238.996 162.764C240.748 162.764 242.38 162.116 243.292 160.892L241.996 158.876ZM245.267 158.396C245.267 161.156 246.179 162.74 248.627 162.74C250.019 162.74 251.171 162.212 251.819 161.684L250.979 159.548C250.595 159.836 250.067 160.172 249.323 160.172C248.411 160.172 248.027 159.404 248.027 158.228V154.292H251.507V151.7H248.027V148.7H245.267V158.396ZM254.564 162.5H257.324V151.7H254.564V162.5ZM254.276 147.812C254.276 148.916 255.068 149.54 256.004 149.54C256.796 149.54 257.588 148.916 257.588 147.812C257.588 146.828 256.796 146.204 256.004 146.204C255.068 146.204 254.276 146.828 254.276 147.812ZM260.14 157.1C260.14 160.34 262.444 162.764 266.02 162.764C269.596 162.764 271.9 160.34 271.9 157.1C271.9 153.86 269.596 151.436 266.02 151.436C262.444 151.436 260.14 153.86 260.14 157.1ZM263.092 157.1C263.092 155.228 264.388 154.028 266.02 154.028C267.7 154.028 268.972 155.276 268.972 157.1C268.972 158.972 267.724 160.196 266.02 160.196C264.34 160.196 263.092 158.9 263.092 157.1ZM274.288 162.5H277.048V155.132C277.696 154.484 278.464 154.1 279.4 154.1C280.936 154.1 281.824 154.916 281.824 156.644V162.5H284.584V156.164C284.584 152.78 282.784 151.508 280.144 151.508C278.848 151.508 277.696 152.084 277.048 152.78V151.7H274.288V162.5ZM291.828 162.5H302.388V159.932H295.404C296.724 158.852 301.74 154.604 301.74 149.9C301.74 147.668 300.18 145.508 296.988 145.508C294.324 145.508 292.404 147.044 291.948 149.492L294.252 150.524C294.612 149.108 295.476 148.268 296.676 148.268C298.068 148.268 298.812 149.108 298.812 150.452C298.812 153.716 294.564 157.604 291.828 160.292V162.5Z" fill="white"/>
        <path d="M379.667 153.5L374.667 158.5L379.667 163.5" stroke="#6C7991" stroke-width="2" stroke-linecap="round" stroke-linejoin="round"/>
        <path d="M390.667 147.5V154.5C390.667 155.561 390.245 156.578 389.495 157.328C388.745 158.079 387.727 158.5 386.667 158.5H374.667" stroke="#6C7991" stroke-width="2" stroke-linecap="round" stroke-linejoin="round"/>
        <rect width="120" height="52" transform="translate(202.667 189.5)" fill="#7833FF"/>
        <path d="M223.543 214.484C224.335 214.124 225.127 213.74 226.375 213.74C227.983 213.74 228.463 214.724 228.391 216.524C227.863 216.14 226.903 215.828 225.943 215.828C223.759 215.828 222.007 216.956 222.007 219.332C222.007 221.42 223.423 222.644 225.391 222.644C226.855 222.644 228.007 222.068 228.583 221.252V222.5H230.983V215.924C230.983 213.068 229.855 211.436 226.663 211.436C225.247 211.436 223.783 211.916 222.847 212.468L223.543 214.484ZM226.303 220.316C225.439 220.316 224.767 219.86 224.767 219.044C224.767 218.132 225.583 217.7 226.495 217.7C227.287 217.7 227.911 217.868 228.391 218.228V219.332C228.055 219.812 227.455 220.316 226.303 220.316ZM241.996 218.876C241.3 219.644 240.388 220.196 239.212 220.196C237.58 220.196 236.092 219.02 236.092 217.1C236.092 215.204 237.556 214.028 239.092 214.028C240.076 214.028 240.964 214.292 241.78 215.084L243.076 212.9C242.068 211.892 240.508 211.436 238.732 211.436C235.444 211.436 233.14 213.956 233.14 217.1C233.14 220.508 235.492 222.764 238.996 222.764C240.748 222.764 242.38 222.116 243.292 220.892L241.996 218.876ZM245.267 218.396C245.267 221.156 246.179 222.74 248.627 222.74C250.019 222.74 251.171 222.212 251.819 221.684L250.979 219.548C250.595 219.836 250.067 220.172 249.323 220.172C248.411 220.172 248.027 219.404 248.027 218.228V214.292H251.507V211.7H248.027V208.7H245.267V218.396ZM254.564 222.5H257.324V211.7H254.564V222.5ZM254.276 207.812C254.276 208.916 255.068 209.54 256.004 209.54C256.796 209.54 257.588 208.916 257.588 207.812C257.588 206.828 256.796 206.204 256.004 206.204C255.068 206.204 254.276 206.828 254.276 207.812ZM260.14 217.1C260.14 220.34 262.444 222.764 266.02 222.764C269.596 222.764 271.9 220.34 271.9 217.1C271.9 213.86 269.596 211.436 266.02 211.436C262.444 211.436 260.14 213.86 260.14 217.1ZM263.092 217.1C263.092 215.228 264.388 214.028 266.02 214.028C267.7 214.028 268.972 215.276 268.972 217.1C268.972 218.972 267.724 220.196 266.02 220.196C264.34 220.196 263.092 218.9 263.092 217.1ZM274.288 222.5H277.048V215.132C277.696 214.484 278.464 214.1 279.4 214.1C280.936 214.1 281.824 214.916 281.824 216.644V222.5H284.584V216.164C284.584 212.78 282.784 211.508 280.144 211.508C278.848 211.508 277.696 212.084 277.048 212.78V211.7H274.288V222.5ZM296.796 222.764C299.892 222.764 302.292 220.868 302.292 217.772C302.292 215.78 301.164 214.124 299.076 213.764V213.692C300.78 212.948 301.644 211.604 301.644 209.708C301.644 207.068 299.7 205.436 296.82 205.436C294.516 205.436 292.764 206.348 291.852 208.052L293.388 209.996C294.228 208.772 295.212 208.196 296.556 208.196C297.996 208.196 298.692 209.036 298.692 210.236C298.692 211.676 297.468 212.54 296.1 212.54H295.02V215.3H296.22C298.164 215.3 299.34 216.14 299.34 217.676C299.34 218.948 298.428 220.004 296.628 220.004C295.164 220.004 293.868 219.164 293.028 217.916L291.468 219.932C292.356 221.636 294.228 222.764 296.796 222.764Z" fill="white"/>
        <path d="M379.667 213.5L374.667 218.5L379.667 223.5" stroke="#6C7991" stroke-width="2" stroke-linecap="round" stroke-linejoin="round"/>
        <path d="M390.667 207.5V214.5C390.667 215.561 390.245 216.578 389.495 217.328C388.745 218.079 387.727 218.5 386.667 218.5H374.667" stroke="#6C7991" stroke-width="2" stroke-linecap="round" stroke-linejoin="round"/>
        <rect width="43" height="52" transform="translate(202.667 249.5)" fill="white"/>
        <path d="M213.747 280.7C213.747 281.684 214.467 282.62 215.667 282.62C216.699 282.62 217.419 281.684 217.419 280.7C217.419 279.86 216.699 278.924 215.667 278.924C214.467 278.924 213.747 279.86 213.747 280.7ZM221.832 280.7C221.832 281.684 222.552 282.62 223.752 282.62C224.784 282.62 225.504 281.684 225.504 280.7C225.504 279.86 224.784 278.924 223.752 278.924C222.552 278.924 221.832 279.86 221.832 280.7ZM229.918 280.7C229.918 281.684 230.638 282.62 231.838 282.62C232.87 282.62 233.59 281.684 233.59 280.7C233.59 279.86 232.87 278.924 231.838 278.924C230.638 278.924 229.918 279.86 229.918 280.7Z" fill="#6C7991"/>
    </g>
    <rect x="176" y="43" width="248" height="285" stroke="#D3DBE6" stroke-width="2" stroke-linecap="round" stroke-dasharray="5.33 5.33"/>
    <defs>
        <clipPath id="clip0_249_505">
            <rect width="192" height="232" fill="white" transform="translate(202.667 69.5)"/>
        </clipPath>
    </defs>
</svg>
