<svg width="24" height="24" viewBox="0 0 24 24" fill="none" xmlns="http://www.w3.org/2000/svg">
    <path d="M3.27186 12.2908C5.11331 11.2765 7.16886 10.4299 9.08948 9.579C12.3937 8.18531 15.711 6.81576 19.0618 5.54074C19.7138 5.32349 20.8851 5.11103 21 6.07717C20.9371 7.44474 20.6784 8.80431 20.5009 10.1639C20.0505 13.1537 19.5298 16.1332 19.0222 19.1132C18.8472 20.1058 17.6038 20.6197 16.8082 19.9844C14.8961 18.6929 12.9693 17.4139 11.0816 16.0924C10.4633 15.4641 11.0367 14.5618 11.5889 14.1131C13.1638 12.5611 14.8339 11.2425 16.3265 9.61031C16.7291 8.63806 15.5395 9.45744 15.1471 9.7085C12.9911 11.1942 10.8879 12.7706 8.61487 14.0764C7.45378 14.7155 6.10052 14.1693 4.93996 13.8127C3.89937 13.3818 2.37453 12.9478 3.27176 12.2908L3.27186 12.2908Z" fill="currentColor"/>
</svg>
