<svg width="24" height="24" viewBox="0 0 24 24" fill="none" xmlns="http://www.w3.org/2000/svg">
    <path d="M19.2117 14.9829L18.5505 15.7331L19.2117 14.9829ZM4.78826 14.9829L4.12701 14.2328L4.78826 14.9829ZM8.19999 10.7242V8.74444H6.19999V10.7242H8.19999ZM5.44951 15.7331L6.26125 15.0176L4.93874 13.5172L4.12701 14.2328L5.44951 15.7331ZM12 18.0556H6.32699V20.0556H12V18.0556ZM17.673 18.0556H12V20.0556H17.673V18.0556ZM17.7387 15.0176L18.5505 15.7331L19.873 14.2328L19.0613 13.5172L17.7387 15.0176ZM15.8 8.74444V10.7241H17.8V8.74444H15.8ZM19.0613 13.5172C18.2594 12.8104 17.8 11.7931 17.8 10.7241H15.8C15.8 12.3672 16.5062 13.9311 17.7387 15.0176L19.0613 13.5172ZM21 16.7286C21 15.7734 20.5895 14.8644 19.873 14.2328L18.5505 15.7331C18.8363 15.985 19 16.3476 19 16.7286H21ZM17.673 20.0556C19.5105 20.0556 21 18.566 21 16.7286H19C19 17.4614 18.4059 18.0556 17.673 18.0556V20.0556ZM3 16.7286C3 18.566 4.48955 20.0556 6.32699 20.0556V18.0556C5.59411 18.0556 5 17.4614 5 16.7286H3ZM4.12701 14.2328C3.4105 14.8644 3 15.7734 3 16.7286H5C5 16.3476 5.16373 15.985 5.44951 15.7331L4.12701 14.2328ZM6.19999 10.7242C6.19999 11.7931 5.74059 12.8104 4.93874 13.5172L6.26125 15.0176C7.49382 13.9311 8.19999 12.3673 8.19999 10.7242H6.19999ZM12 4.94444C14.0987 4.94444 15.8 6.64576 15.8 8.74444H17.8C17.8 5.54119 15.2032 2.94444 12 2.94444V4.94444ZM12 2.94444C8.79674 2.94444 6.19999 5.54119 6.19999 8.74444H8.19999C8.19999 6.64576 9.90131 4.94444 12 4.94444V2.94444Z" fill="currentColor"/>
    <path d="M15 19C15 20.6569 13.6569 22 12 22C10.3431 22 9 20.6569 9 19" stroke="currentColor" stroke-width="2" stroke-linejoin="round"/>
</svg>
