<svg width="24" height="24" viewBox="0 0 24 24" fill="none" xmlns="http://www.w3.org/2000/svg">
    <path fill-rule="evenodd" clip-rule="evenodd" d="M8.8 3.00001L8.77686 3.00001C8.65775 2.99996 8.51549 2.99991 8.39017 3.01015C8.35319 3.01317 8.31214 3.01739 8.26789 3.02385C8.06436 3.03204 7.87243 3.04305 7.69138 3.05784C6.96253 3.11739 6.32234 3.2432 5.73005 3.54499C4.78924 4.02436 4.02434 4.78926 3.54497 5.73007C3.24318 6.32236 3.11737 6.96255 3.05782 7.6914C2.99998 8.39928 2.99999 9.27343 3 10.3572V10.3572V10.4V13.6V13.6428C2.99999 14.7266 2.99998 15.6008 3.05782 16.3086C3.11737 17.0375 3.24318 17.6777 3.54497 18.27C4.02434 19.2108 4.78924 19.9757 5.73005 20.4551C6.32234 20.7568 6.96253 20.8827 7.69138 20.9422C8.39923 21 9.27334 21 10.3571 21H10.3572H10.4H13.6H13.6428H13.6429C14.7267 21 15.6008 21 16.3086 20.9422C17.0375 20.8827 17.6777 20.7568 18.27 20.4551C19.2108 19.9757 19.9757 19.2108 20.455 18.27C20.7568 17.6777 20.8826 17.0375 20.9422 16.3086C21 15.6008 21 14.7267 21 13.643V13.6429V13.6V10.4V10.3572V10.3571C21 9.27336 21 8.39925 20.9422 7.6914C20.8826 6.96255 20.7568 6.32236 20.455 5.73007C19.9757 4.78926 19.2108 4.02436 18.27 3.54499C17.6777 3.2432 17.0375 3.11739 16.3086 3.05784C16.1276 3.04305 15.9356 3.03204 15.7321 3.02385C15.6879 3.01739 15.6468 3.01317 15.6098 3.01015C15.4845 2.99991 15.3423 2.99996 15.2231 3.00001L15.2 3.00001H8.8ZM9 5.00572C9.40151 5.0002 9.86222 5.00002 10.4 5.00002H13.6C14.1378 5.00002 14.5985 5.0002 15 5.00572V11.1683L12.5408 9.5874C12.2113 9.37564 11.7887 9.37564 11.4592 9.5874L9 11.1683V5.00572ZM7 5.18777V13C7 13.3658 7.19974 13.7024 7.52081 13.8777C7.84189 14.053 8.23305 14.039 8.54076 13.8412L12 11.6174L15.4592 13.8412C15.767 14.039 16.1581 14.053 16.4792 13.8777C16.8003 13.7024 17 13.3658 17 13V5.18777C17.1409 5.22761 17.258 5.27403 17.362 5.327C17.9265 5.61462 18.3854 6.07357 18.673 6.63805C18.8072 6.90141 18.8994 7.2491 18.9488 7.85426C18.9992 8.47111 19 9.26342 19 10.4V13.6C19 14.7366 18.9992 15.5289 18.9488 16.1458C18.8994 16.751 18.8072 17.0986 18.673 17.362C18.3854 17.9265 17.9265 18.3854 17.362 18.673C17.0986 18.8072 16.7509 18.8994 16.1458 18.9488C15.5289 18.9992 14.7366 19 13.6 19H10.4C9.26339 19 8.47108 18.9992 7.85424 18.9488C7.24907 18.8994 6.90138 18.8072 6.63803 18.673C6.07354 18.3854 5.6146 17.9265 5.32698 17.362C5.19279 17.0986 5.10062 16.751 5.05118 16.1458C5.00078 15.5289 5 14.7366 5 13.6V10.4C5 9.26342 5.00078 8.47111 5.05118 7.85426C5.10062 7.2491 5.19279 6.90141 5.32698 6.63805C5.6146 6.07357 6.07354 5.61462 6.63803 5.327C6.74199 5.27403 6.8591 5.22761 7 5.18777Z" fill="currentColor"/>
</svg>
