<svg width="24" height="24" viewBox="0 0 24 24" fill="none" xmlns="http://www.w3.org/2000/svg">
    <path d="M4 10L4 11.5C4 11.9643 4 12.1965 4.01926 12.3921C4.20631 14.2912 5.70882 15.7937 7.60793 15.9807L11.113 16L16 19.75L16 16C18.2091 16 20 14.2091 20 12L20 10C20 8.13623 20 7.20435 19.6955 6.46927C19.2895 5.48915 18.5108 4.71046 17.5307 4.30448C16.7956 4 15.8638 4 14 4L10 4C8.13623 4 7.20435 4 6.46927 4.30448C5.48915 4.71046 4.71046 5.48915 4.30448 6.46927C4 7.20435 4 8.13623 4 10Z" stroke="currentColor" stroke-width="2" stroke-linecap="round"/>
</svg>
