<svg width="24" height="24" viewBox="0 0 24 24" fill="none" xmlns="http://www.w3.org/2000/svg">
    <path fill-rule="evenodd" clip-rule="evenodd" d="M11.0947 3.96967C11.3876 3.67678 11.8624 3.67678 12.1553 3.96967L15.9053 7.71967C16.1982 8.01256 16.1982 8.48744 15.9053 8.78033C15.6124 9.07322 15.1376 9.07322 14.8447 8.78033L11.625 5.56066L8.40533 8.78033C8.11244 9.07322 7.63756 9.07322 7.34467 8.78033C7.05178 8.48744 7.05178 8.01256 7.34467 7.71967L11.0947 3.96967Z" fill="currentColor"/>
    <path fill-rule="evenodd" clip-rule="evenodd" d="M7.34467 15.2197C7.63756 14.9268 8.11244 14.9268 8.40533 15.2197L11.625 18.4393L14.8447 15.2197C15.1376 14.9268 15.6124 14.9268 15.9053 15.2197C16.1982 15.5126 16.1982 15.9874 15.9053 16.2803L12.1553 20.0303C11.8624 20.3232 11.3876 20.3232 11.0947 20.0303L7.34467 16.2803C7.05178 15.9874 7.05178 15.5126 7.34467 15.2197Z" fill="currentColor"/>
</svg>
