<svg width="24" height="24" viewBox="0 0 24 24" fill="none" xmlns="http://www.w3.org/2000/svg">
    <path fill-rule="evenodd" clip-rule="evenodd" d="M10.895 2C9.87594 2 9.01982 2.76627 8.90728 3.77914L8.84119 4.37388L8.37391 4.00005C7.57813 3.36342 6.43092 3.42696 5.71031 4.14757L4.14766 5.71022C3.42705 6.43083 3.36351 7.57804 4.00014 8.37382L4.37402 8.84118L3.77914 8.90728C2.76627 9.01982 2 9.87595 2 10.895V13.105C2 14.1241 2.76627 14.9802 3.77914 15.0927L4.37398 15.1588L4.00016 15.6261C3.36353 16.4219 3.42707 17.5691 4.14768 18.2897L5.71033 19.8524C6.43094 20.573 7.57815 20.6365 8.37393 19.9999L8.84119 19.6261L8.90728 20.2209C9.01982 21.2337 9.87595 22 10.895 22H13.105C14.1241 22 14.9802 21.2337 15.0927 20.2209L15.1588 19.626L15.6262 19.9999C16.422 20.6365 17.5692 20.573 18.2898 19.8524L19.8524 18.2897C20.5731 17.5691 20.6366 16.4219 20 15.6261L19.6261 15.1588L20.2209 15.0927C21.2337 14.9802 22 14.1241 22 13.105V10.895C22 9.87594 21.2337 9.01982 20.2209 8.90728L19.6261 8.84119L20 8.37382C20.6366 7.57804 20.5731 6.43083 19.8525 5.71022L18.2898 4.14757C17.5692 3.42696 16.422 3.36342 15.6262 4.00005L15.1588 4.37397L15.0927 3.77914C14.9802 2.76627 14.1241 2 13.105 2H10.895ZM10.895 4H13.105L13.171 4.59483C13.3451 6.16099 15.1777 6.9201 16.4082 5.9357L16.8756 5.56179L18.4382 7.12443L18.0644 7.5918C17.08 8.82229 17.8391 10.6549 19.4052 10.829L20 10.895V13.105L19.4053 13.171C17.8391 13.3451 17.08 15.1777 18.0644 16.4082L18.4382 16.8755L16.8756 18.4381L16.4082 18.0642C15.1777 17.0798 13.3451 17.839 13.1711 19.4051L13.105 20H10.895L10.829 19.4052C10.6549 17.839 8.82229 17.0799 7.5918 18.0643L7.12454 18.4381L5.56189 16.8755L5.93572 16.4082C6.92012 15.1777 6.16101 13.3451 4.59485 13.1711L4 13.105L4 10.895L4.59488 10.8289C6.16104 10.6549 6.92015 8.82228 5.93576 7.59179L5.56187 7.12443L7.12452 5.56179L7.5918 5.93561C8.8223 6.92001 10.6549 6.1609 10.829 4.59474L10.895 4ZM10 12C10 10.8954 10.8954 10 12 10C13.1046 10 14 10.8954 14 12C14 13.1046 13.1046 14 12 14C10.8954 14 10 13.1046 10 12ZM12 8C9.79086 8 8 9.79086 8 12C8 14.2091 9.79086 16 12 16C14.2091 16 16 14.2091 16 12C16 9.79086 14.2091 8 12 8Z" fill="currentColor"/>
</svg>
