<svg width="24" height="24" viewBox="0 0 24 24" fill="none" xmlns="http://www.w3.org/2000/svg">
    <path d="M7.89487 4.71957L7.76058 5.71051L7.89487 4.71957ZM9.75474 3.94918L8.95908 3.34343L9.75474 3.94918ZM4.5746 6.82505L5.56554 6.69076L4.5746 6.82505ZM6.82504 4.5746L6.95933 3.58365L6.82504 4.5746ZM3.94918 9.75474L4.55493 10.5504L4.55494 10.5504L3.94918 9.75474ZM4.71957 7.89487L3.72862 8.02915L4.71957 7.89487ZM3.09019 13.5913L3.69594 12.7957H3.69594L3.09019 13.5913ZM3.09019 10.4087L2.48444 9.61305H2.48444L3.09019 10.4087ZM4.71957 16.1052L5.71051 16.2394L4.71957 16.1052ZM3.94918 14.2453L3.34343 15.0409H3.34343L3.94918 14.2453ZM6.82505 19.4254L6.95933 20.4164L6.82505 19.4254ZM4.5746 17.175L3.58365 17.0407L4.5746 17.175ZM9.75474 20.0508L10.5504 19.4451H10.5504L9.75474 20.0508ZM7.89487 19.2805L7.76059 18.2895L7.89487 19.2805ZM13.5913 20.9098L12.7957 20.3041V20.3041L13.5913 20.9098ZM10.4087 20.9098L9.61305 21.5156L10.4087 20.9098ZM16.1052 19.2805L15.9709 20.2714L16.1052 19.2805ZM14.2453 20.0508L15.0409 20.6566V20.6566L14.2453 20.0508ZM19.4254 17.175L18.4345 17.3093L19.4254 17.175ZM17.175 19.4254L17.3093 18.4345L17.175 19.4254ZM20.0508 14.2453L19.4451 13.4496V13.4496L20.0508 14.2453ZM19.2805 16.1052L20.2714 15.9709L19.2805 16.1052ZM20.9098 10.4087L21.5156 9.61305L20.9098 10.4087ZM20.9098 13.5913L21.5156 14.387V14.387L20.9098 13.5913ZM19.2805 7.89487L18.2895 7.76058V7.76058L19.2805 7.89487ZM20.0508 9.75474L19.4451 10.5504V10.5504L20.0508 9.75474ZM17.175 4.5746L17.0407 3.58365L17.175 4.5746ZM19.4254 6.82505L20.4164 6.95933V6.95933L19.4254 6.82505ZM14.2453 3.94918L13.4496 4.55493L13.4496 4.55494L14.2453 3.94918ZM16.1052 4.71957L16.2394 5.71051L16.1052 4.71957ZM13.5913 3.09019L14.387 2.48444L14.387 2.48444L13.5913 3.09019ZM10.4087 3.09019L11.2044 3.69594L10.4087 3.09019ZM14 12C14 13.1046 13.1046 14 12 14V16C14.2092 16 16 14.2092 16 12H14ZM12 14C10.8954 14 10 13.1046 10 12H8.00001C8.00001 14.2092 9.79088 16 12 16V14ZM10 12C10 10.8954 10.8954 10 12 10V8.00001C9.79088 8.00001 8.00001 9.79088 8.00001 12H10ZM12 10C13.1046 10 14 10.8954 14 12H16C16 9.79088 14.2092 8.00001 12 8.00001V10ZM12.7957 3.69595L13.4496 4.55493L15.0409 3.34343L14.387 2.48444L12.7957 3.69595ZM16.2394 5.71051L17.3093 5.56554L17.0407 3.58365L15.9709 3.72862L16.2394 5.71051ZM18.4345 6.69076L18.2895 7.76058L20.2714 8.02915L20.4164 6.95933L18.4345 6.69076ZM19.4451 10.5504L20.3041 11.2044L21.5156 9.61305L20.6566 8.95908L19.4451 10.5504ZM20.3041 12.7957L19.4451 13.4496L20.6566 15.0409L21.5156 14.387L20.3041 12.7957ZM18.2895 16.2394L18.4345 17.3093L20.4164 17.0407L20.2714 15.9709L18.2895 16.2394ZM17.3093 18.4345L16.2394 18.2895L15.9709 20.2714L17.0407 20.4164L17.3093 18.4345ZM13.4496 19.4451L12.7957 20.3041L14.387 21.5156L15.0409 20.6566L13.4496 19.4451ZM11.2044 20.3041L10.5504 19.4451L8.95908 20.6566L9.61305 21.5156L11.2044 20.3041ZM7.76059 18.2895L6.69076 18.4345L6.95933 20.4164L8.02915 20.2714L7.76059 18.2895ZM5.56554 17.3093L5.71051 16.2394L3.72862 15.9709L3.58365 17.0407L5.56554 17.3093ZM4.55493 13.4496L3.69594 12.7957L2.48444 14.387L3.34343 15.0409L4.55493 13.4496ZM3.69595 11.2044L4.55493 10.5504L3.34343 8.95908L2.48444 9.61305L3.69595 11.2044ZM5.71051 7.76059L5.56554 6.69076L3.58365 6.95933L3.72862 8.02915L5.71051 7.76059ZM6.69076 5.56554L7.76058 5.71051L8.02915 3.72862L6.95933 3.58365L6.69076 5.56554ZM10.5504 4.55493L11.2044 3.69594L9.61305 2.48444L8.95908 3.34343L10.5504 4.55493ZM7.76058 5.71051C8.83073 5.85552 9.89623 5.41418 10.5504 4.55493L8.95908 3.34343C8.74103 3.62985 8.38586 3.77696 8.02915 3.72862L7.76058 5.71051ZM5.56554 6.69076C5.47682 6.03608 6.03608 5.47682 6.69076 5.56554L6.95933 3.58365C4.99527 3.31751 3.31751 4.99527 3.58365 6.95933L5.56554 6.69076ZM4.55494 10.5504C5.41418 9.89623 5.85552 8.83073 5.71051 7.76059L3.72862 8.02915C3.77696 8.38586 3.62985 8.74103 3.34343 8.95908L4.55494 10.5504ZM3.69594 12.7957C3.17028 12.3955 3.17028 11.6046 3.69595 11.2044L2.48444 9.61305C0.907449 10.8137 0.907448 13.1864 2.48444 14.387L3.69594 12.7957ZM5.71051 16.2394C5.85552 15.1693 5.41418 14.1038 4.55493 13.4496L3.34343 15.0409C3.62985 15.259 3.77696 15.6142 3.72862 15.9709L5.71051 16.2394ZM6.69076 18.4345C6.03608 18.5232 5.47682 17.964 5.56554 17.3093L3.58365 17.0407C3.31751 19.0048 4.99527 20.6825 6.95933 20.4164L6.69076 18.4345ZM10.5504 19.4451C9.89622 18.5858 8.83073 18.1445 7.76059 18.2895L8.02915 20.2714C8.38586 20.2231 8.74103 20.3702 8.95908 20.6566L10.5504 19.4451ZM12.7957 20.3041C12.3955 20.8297 11.6046 20.8297 11.2044 20.3041L9.61305 21.5156C10.8137 23.0926 13.1864 23.0926 14.387 21.5156L12.7957 20.3041ZM16.2394 18.2895C15.1693 18.1445 14.1038 18.5858 13.4496 19.4451L15.0409 20.6566C15.259 20.3702 15.6142 20.2231 15.9709 20.2714L16.2394 18.2895ZM18.4345 17.3093C18.5232 17.964 17.964 18.5232 17.3093 18.4345L17.0407 20.4164C19.0048 20.6825 20.6825 19.0048 20.4164 17.0407L18.4345 17.3093ZM19.4451 13.4496C18.5858 14.1038 18.1445 15.1693 18.2895 16.2394L20.2714 15.9709C20.2231 15.6142 20.3702 15.259 20.6566 15.0409L19.4451 13.4496ZM20.3041 11.2044C20.8297 11.6046 20.8297 12.3955 20.3041 12.7957L21.5156 14.387C23.0926 13.1864 23.0926 10.8137 21.5156 9.61305L20.3041 11.2044ZM18.2895 7.76058C18.1445 8.83072 18.5858 9.89622 19.4451 10.5504L20.6566 8.95908C20.3702 8.74103 20.2231 8.38586 20.2714 8.02915L18.2895 7.76058ZM17.3093 5.56554C17.964 5.47682 18.5232 6.03608 18.4345 6.69076L20.4164 6.95933C20.6825 4.99527 19.0048 3.31751 17.0407 3.58365L17.3093 5.56554ZM13.4496 4.55494C14.1038 5.41418 15.1693 5.85552 16.2394 5.71051L15.9709 3.72862C15.6142 3.77696 15.259 3.62985 15.0409 3.34343L13.4496 4.55494ZM14.387 2.48444C13.1864 0.907449 10.8137 0.907448 9.61305 2.48444L11.2044 3.69594C11.6046 3.17028 12.3955 3.17028 12.7957 3.69595L14.387 2.48444Z" fill="currentColor"/>
</svg>
