<svg width="24" height="24" viewBox="0 0 24 24" fill="none" xmlns="http://www.w3.org/2000/svg">
    <path fill-rule="evenodd" clip-rule="evenodd" d="M10.4 3H10.3572H10.3572C9.27341 2.99999 8.39925 2.99998 7.69138 3.05782C6.96253 3.11737 6.32234 3.24318 5.73005 3.54497C4.78924 4.02434 4.02434 4.78924 3.54497 5.73005C3.24318 6.32234 3.11737 6.96253 3.05782 7.69138C2.99998 8.39925 2.99999 9.27341 3 10.3572V10.3572V10.4V13.6V13.6428C2.99999 14.7266 2.99998 15.6007 3.05782 16.3086C3.11737 17.0375 3.24318 17.6777 3.54497 18.27C4.02434 19.2108 4.78924 19.9757 5.73005 20.455C6.32234 20.7568 6.96253 20.8826 7.69138 20.9422C8.39923 21 9.27334 21 10.3571 21H10.3572H10.4H13.6H13.6428H13.6429C14.7267 21 15.6008 21 16.3086 20.9422C17.0375 20.8826 17.6777 20.7568 18.27 20.455C19.2108 19.9757 19.9757 19.2108 20.455 18.27C20.7568 17.6777 20.8826 17.0375 20.9422 16.3086C21 15.6008 21 14.7267 21 13.6429V13.6428V13.6V10.4V10.3572V10.3571C21 9.27334 21 8.39923 20.9422 7.69138C20.8826 6.96253 20.7568 6.32234 20.455 5.73005C19.9757 4.78924 19.2108 4.02434 18.27 3.54497C17.6777 3.24318 17.0375 3.11737 16.3086 3.05782C15.6007 2.99998 14.7266 2.99999 13.6428 3H13.6H10.4ZM6.63803 5.32698C6.90138 5.19279 7.24907 5.10062 7.85424 5.05118C8.47108 5.00078 9.2634 5 10.4 5H13.6C14.7366 5 15.5289 5.00078 16.1458 5.05118C16.7509 5.10062 17.0986 5.19279 17.362 5.32698C17.9265 5.6146 18.3854 6.07354 18.673 6.63803C18.8072 6.90138 18.8994 7.24907 18.9488 7.85424C18.9992 8.47108 19 9.2634 19 10.4V13.6C19 14.7366 18.9992 15.5289 18.9488 16.1458C18.8994 16.7509 18.8072 17.0986 18.673 17.362C18.3854 17.9265 17.9265 18.3854 17.362 18.673C17.0986 18.8072 16.7509 18.8994 16.1458 18.9488C15.5289 18.9992 14.7366 19 13.6 19H10.4C9.26339 19 8.47108 18.9992 7.85424 18.9488C7.24907 18.8994 6.90138 18.8072 6.63803 18.673C6.07354 18.3854 5.6146 17.9265 5.32698 17.362C5.19279 17.0986 5.10062 16.7509 5.05118 16.1458C5.00078 15.5289 5 14.7366 5 13.6V10.4C5 9.26339 5.00078 8.47108 5.05118 7.85424C5.10062 7.24907 5.19279 6.90138 5.32698 6.63803C5.6146 6.07354 6.07354 5.6146 6.63803 5.32698ZM12.8944 7.55279C12.725 7.214 12.3788 7 12 7C11.6212 7 11.275 7.214 11.1056 7.55279L8.61457 12.5348C8.60809 12.5471 8.60186 12.5596 8.59589 12.5722L7.60557 14.5528C7.35858 15.0468 7.55881 15.6474 8.05279 15.8944C8.54677 16.1414 9.14744 15.9412 9.39443 15.4472L10.118 14H13.882L14.6056 15.4472C14.8526 15.9412 15.4532 16.1414 15.9472 15.8944C16.4412 15.6474 16.6414 15.0468 16.3944 14.5528L15.4041 12.5722C15.3981 12.5596 15.3919 12.5471 15.3854 12.5348L12.8944 7.55279ZM12 10.2361L12.882 12H11.118L12 10.2361Z" fill="currentColor"/>
</svg>
