<svg width="24" height="24" viewBox="0 0 24 24" fill="none" xmlns="http://www.w3.org/2000/svg">
    <path fill-rule="evenodd" clip-rule="evenodd" d="M4 12C4 10.1513 4.62708 8.44904 5.68014 7.09436L7.8284 9.24261C7.30488 10.033 7 10.9809 7 12C7 13.0558 7.32722 14.0351 7.88576 14.8421L5.74274 16.9851C4.65198 15.6178 4 13.8851 4 12ZM7.17476 18.3815C8.51611 19.3974 10.1877 20 12 20C13.8487 20 15.551 19.3729 16.9056 18.3199L14.7574 16.1716C13.967 16.6951 13.0191 17 12 17C11.0177 17 10.1016 16.7167 9.32885 16.2275L7.17476 18.3815ZM18.3199 16.9056C19.3729 15.551 20 13.8487 20 12C20 10.1877 19.3974 8.51611 18.3815 7.17476L16.2275 9.32885C16.7167 10.1016 17 11.0177 17 12C17 13.0191 16.6951 13.967 16.1716 14.7574L18.3199 16.9056ZM12 4C13.8851 4 15.6178 4.65198 16.9851 5.74274L14.8421 7.88576C14.0351 7.32722 13.0558 7 12 7C10.9809 7 10.033 7.30488 9.24261 7.8284L7.09436 5.68014C8.44904 4.62708 10.1513 4 12 4ZM12 2C6.47715 2 2 6.47715 2 12C2 17.5228 6.47715 22 12 22C17.5228 22 22 17.5228 22 12C22 6.47715 17.5228 2 12 2ZM9 12C9 10.3431 10.3431 9 12 9C13.6569 9 15 10.3431 15 12C15 13.6569 13.6569 15 12 15C10.3431 15 9 13.6569 9 12Z" fill="currentColor"/>
</svg>
