<svg width="24" height="24" viewBox="0 0 24 24" fill="none" xmlns="http://www.w3.org/2000/svg">
    <path d="M15 8C15 5.79086 13.2091 4 11 4H9C7.13623 4 6.20435 4 5.46927 4.30448C4.48915 4.71046 3.71046 5.48915 3.30448 6.46927C3 7.20435 3 8.13623 3 10V14C3 15.8638 3 16.7956 3.30448 17.5307C3.71046 18.5108 4.48915 19.2895 5.46927 19.6955C6.20435 20 7.13623 20 9 20H10.5C10.9643 20 11.1965 20 11.3921 19.9807C13.2912 19.7937 14.7937 18.2912 14.9807 16.3921" stroke="currentColor" stroke-width="2" stroke-linecap="round"/>
    <path d="M9 12H22M22 12L19 15M22 12L19 9" stroke="currentColor" stroke-width="2" stroke-linecap="round" stroke-linejoin="round"/>
</svg>
