<svg width="24" height="24" viewBox="0 0 24 24" fill="none" xmlns="http://www.w3.org/2000/svg">
    <path fill-rule="evenodd" clip-rule="evenodd" d="M3 12C3 7.02944 7.02944 3 12 3C16.9706 3 21 7.02944 21 12C21 16.9706 16.9706 21 12 21C7.02944 21 3 16.9706 3 12ZM12 5C8.13401 5 5 8.13401 5 12C5 15.866 8.13401 19 12 19C15.866 19 19 15.866 19 12C19 8.13401 15.866 5 12 5ZM12 8.13338C11.0795 8.13338 10.3333 8.87957 10.3333 9.80005C10.3333 10.2603 9.96024 10.6334 9.5 10.6334C9.03976 10.6334 8.66667 10.2603 8.66667 9.80005C8.66667 7.9591 10.1591 6.46672 12 6.46672C13.8409 6.46672 15.3333 7.9591 15.3333 9.80005C15.3333 10.6626 15.0046 11.4503 14.467 12.0417C14.3083 12.2163 14.1581 12.3728 14.0151 12.5217C13.7534 12.7944 13.516 13.0417 13.2953 13.3284C12.9753 13.7442 12.8333 14.0771 12.8333 14.3834C12.8333 14.8436 12.4602 15.2167 12 15.2167C11.5398 15.2167 11.1667 14.8436 11.1667 14.3834C11.1667 13.539 11.5629 12.8466 11.9746 12.3118C12.249 11.9553 12.5991 11.5894 12.8956 11.2794L12.8957 11.2793L12.8957 11.2793L12.8957 11.2793C13.0212 11.1481 13.1372 11.0268 13.2338 10.9206C13.5034 10.624 13.6667 10.2321 13.6667 9.80005C13.6667 8.87957 12.9205 8.13338 12 8.13338ZM12 17.6334C12.5523 17.6334 13 17.1857 13 16.6334C13 16.0811 12.5523 15.6334 12 15.6334C11.4477 15.6334 11 16.0811 11 16.6334C11 17.1857 11.4477 17.6334 12 17.6334Z" fill="currentColor"/>
</svg>
