<svg width="24" height="24" viewBox="0 0 24 24" fill="none" xmlns="http://www.w3.org/2000/svg">
    <path fill-rule="evenodd" clip-rule="evenodd" d="M12.8028 2.51289L12.8234 2.47574C13.0301 2.10335 13.2174 1.76581 13.393 1.50815C13.5709 1.24725 13.8284 0.924598 14.2308 0.739707C14.7501 0.501123 15.3467 0.496105 15.87 0.725921C16.2755 0.904016 16.5384 1.2223 16.7205 1.48017C16.9005 1.73481 17.0934 2.06911 17.3063 2.43793L17.3064 2.43797L17.3064 2.438L17.3064 2.43804L17.3276 2.47483L18.3216 4.19639C18.6347 4.20212 18.9375 4.27834 19.2052 4.39662C19.7593 4.64144 20.2377 5.08904 20.5616 5.6501C20.8856 6.21117 21.034 6.84929 20.969 7.45155C20.9376 7.74254 20.8521 8.04292 20.7006 8.31691L21.6944 10.0384L21.7157 10.0751L21.7157 10.0752L21.7157 10.0752L21.7157 10.0753C21.9287 10.444 22.1217 10.7783 22.2523 11.0614C22.3845 11.3482 22.5287 11.735 22.4802 12.1752C22.4176 12.7433 22.115 13.2574 21.6487 13.5879C21.2873 13.8439 20.8792 13.9056 20.5643 13.9292C20.2534 13.9524 19.8674 13.9459 19.4415 13.9387L19.399 13.938L16.0517 13.8817C15.7826 14.0396 15.7135 14.088 15.6616 14.1369C15.5202 14.2701 15.4206 14.4416 15.3751 14.6305C15.3543 14.7169 15.3474 14.8262 15.345 15.3714L15.3228 20.3256C15.3183 21.3453 14.7724 22.2858 13.8893 22.7957C12.1175 23.8186 9.87527 22.71 9.61247 20.681L9.47472 19.6175C9.43455 19.3074 9.42367 19.2348 9.41479 19.1975C9.26989 18.5884 8.60721 18.2607 8.03522 18.5154C8.00018 18.531 7.93588 18.5664 7.66506 18.7227L7.64955 18.6959C5.40708 19.6734 2.73969 18.8312 1.48758 16.6625C0.141945 14.3318 0.940506 11.3515 3.27122 10.0059L11.177 5.44148L12.8028 2.51289ZM10.3922 17.1483L13.3447 15.4437L13.3229 20.3166C13.3215 20.625 13.1564 20.9095 12.8893 21.0637C12.3535 21.373 11.6754 21.0377 11.5959 20.4241L11.4582 19.3606L11.4513 19.3075L11.4513 19.3074C11.4219 19.0799 11.3973 18.8894 11.3605 18.7346C11.2062 18.086 10.8562 17.5438 10.3922 17.1483ZM15.0871 2.63423C15.0797 2.62373 15.0727 2.61404 15.0661 2.60511C15.0597 2.61415 15.0529 2.62395 15.0457 2.63458C14.9282 2.80693 14.7854 3.06199 14.5514 3.48361L13.066 6.15924L16.3729 11.8868L19.4327 11.9383C19.9149 11.9464 20.2071 11.9503 20.4151 11.9347C20.4279 11.9338 20.4398 11.9328 20.4509 11.9317C20.4464 11.9216 20.4415 11.9107 20.4361 11.899C20.3488 11.7096 20.2035 11.456 19.9624 11.0384L15.5956 3.47483C15.3545 3.05721 15.2075 2.80458 15.0871 2.63423ZM3.21964 15.6625C2.42628 14.2884 2.89709 12.5313 4.27122 11.7379L11.5509 7.53501L14.4239 12.5112L7.14422 16.7141C5.77009 17.5075 4.01299 17.0366 3.21964 15.6625Z" fill="currentColor"/>
</svg>
