<svg width="24" height="24" viewBox="0 0 24 24" fill="none" xmlns="http://www.w3.org/2000/svg">
    <path fill-rule="evenodd" clip-rule="evenodd" d="M10.3302 4.14429C10.9411 2.61858 13.0589 2.61856 13.6698 4.14429L15.2623 8.12145L19.3474 8.4747C21.0033 8.61789 21.5234 10.6674 20.3887 11.6893L17.251 14.515L18.2046 18.7435C18.5363 20.2142 16.9626 21.6529 15.4932 20.7193L12 18.4999L8.50679 20.7193C7.03736 21.6529 5.46367 20.2142 5.79536 18.7435L6.74904 14.515L3.61131 11.6893C2.47661 10.6674 2.9967 8.61789 4.65258 8.4747L8.73774 8.12145L10.3302 4.14429ZM12 5.35453L10.5542 8.96533C10.3049 9.58799 9.73008 10.0431 9.03681 10.103L5.2064 10.4343L8.15255 13.0874C8.65636 13.5411 8.8629 14.2328 8.71676 14.8808L7.83866 18.7743L11.0464 16.7362C11.6301 16.3653 12.3699 16.3653 12.9536 16.7362L16.1613 18.7742L15.2832 14.8808C15.1371 14.2328 15.3436 13.5411 15.8474 13.0874L18.7936 10.4343L14.9632 10.103C14.2699 10.0431 13.6951 9.58799 13.4458 8.96533L12 5.35453Z" fill="currentColor"/>
</svg>
