<svg width="599" height="329" viewBox="0 0 599 329" fill="none" xmlns="http://www.w3.org/2000/svg">
    <path d="M217.864 27.8H220.624V23.264H220.816C224.728 23.264 226.624 20.816 226.624 17.6C226.624 14.432 224.536 11.936 220.816 11.936H220.624V6.2H217.864V11.936H217.696C213.928 11.936 211.864 14.672 211.864 17.6C211.864 20.816 213.952 23.264 217.72 23.264H217.864V27.8ZM220.816 14.528C222.76 14.528 223.672 15.992 223.672 17.6C223.672 19.424 222.712 20.696 220.72 20.696H220.624V14.528H220.816ZM214.816 17.6C214.816 15.944 215.632 14.528 217.672 14.528H217.864V20.696H217.792C215.8 20.696 214.816 19.4 214.816 17.6ZM239.007 12.2H235.863L233.919 18.08C233.727 18.632 233.631 19.16 233.535 19.664C233.367 19.136 233.223 18.632 233.007 18.104L230.487 12.2H227.175L232.167 23L231.927 23.576C231.471 24.704 230.967 25.256 230.271 25.256C229.839 25.256 229.431 25.04 229.143 24.872L228.255 26.96C228.879 27.416 229.599 27.8 230.583 27.8C232.167 27.8 233.175 26.864 234.759 23L239.007 12.2ZM248.149 23H250.909V12.2H248.149V16.28H243.421V12.2H240.661V23H243.421V18.872H248.149V23ZM264.198 12.2H260.718L256.83 17.552L261.102 23H264.702L260.046 17.336L264.198 12.2ZM253.974 23H256.734V12.2H253.974V23ZM266.325 23H275.493V25.52H278.085V20.432H276.285V12.2H273.525V20.432H269.085V12.2H266.325V23ZM282.679 23L287.719 16.16V23H290.479V12.2H287.719L282.679 19.04V12.2H279.919V23H282.679ZM298.839 12.2C294.951 12.2 293.463 13.952 293.463 16.04C293.463 17.816 294.615 18.824 295.551 19.16L292.671 23H295.839L298.071 19.76H299.607V23H302.367V12.2H298.839ZM296.415 16.232C296.415 15.416 297.039 14.6 298.383 14.6H299.607V17.72H298.167C297.303 17.72 296.415 17.12 296.415 16.232Z" fill="#10162F"/>
    <g clip-path="url(#clip0_289_497)">
        <rect width="130" height="52" transform="translate(202.667 69.5)" fill="#7833FF"/>
        <path d="M210.907 105.02H213.475V102.5H221.131V105.02H223.723V99.932H221.923V91.7H213.955L213.787 94.292C213.643 96.74 213.043 98.924 212.275 99.932H210.907V105.02ZM216.451 95.396L216.523 94.292H219.163V99.932H215.155C215.635 99.26 216.235 97.676 216.451 95.396ZM234.01 99.476C233.386 99.98 232.282 100.46 230.962 100.46C229.258 100.46 227.962 99.572 227.722 97.94H235.522C235.642 97.532 235.69 97.124 235.69 96.452C235.69 93.428 233.362 91.436 230.578 91.436C227.026 91.436 224.866 93.956 224.866 97.1C224.866 100.508 227.194 102.764 230.674 102.764C232.186 102.764 233.722 102.332 234.802 101.42L234.01 99.476ZM230.458 93.74C232.042 93.74 232.954 94.772 232.93 96.092H227.626C227.914 94.676 228.802 93.74 230.458 93.74ZM240.673 102.5L245.713 95.66V102.5H248.473V91.7H245.713L240.673 98.54V91.7H237.913V102.5H240.673ZM239.521 86.3C239.521 88.388 240.601 90.02 243.289 90.02C245.713 90.02 246.961 88.364 246.961 86.3H244.441C244.441 87.188 244.105 88.052 243.289 88.052C242.377 88.052 242.041 87.188 242.041 86.3H239.521ZM259.738 98.876C259.042 99.644 258.13 100.196 256.954 100.196C255.322 100.196 253.834 99.02 253.834 97.1C253.834 95.204 255.298 94.028 256.834 94.028C257.818 94.028 258.706 94.292 259.522 95.084L260.818 92.9C259.81 91.892 258.25 91.436 256.474 91.436C253.186 91.436 250.882 93.956 250.882 97.1C250.882 100.508 253.234 102.764 256.738 102.764C258.49 102.764 260.122 102.116 261.034 100.892L259.738 98.876ZM261.91 94.46H265.462V102.5H268.222V94.46H271.75V91.7H261.91V94.46ZM273.726 102.5C274.71 102.5 276.678 102.62 278.022 102.62C281.502 102.62 283.158 101.492 283.158 99.356C283.158 98.108 282.366 97.22 280.854 96.86V96.812C281.934 96.644 282.87 95.708 282.87 94.412C282.87 92.444 281.118 91.58 277.974 91.58C276.294 91.58 274.662 91.676 273.726 91.7V102.5ZM278.214 97.916C279.51 97.916 280.254 98.348 280.254 99.164C280.254 99.908 279.534 100.412 278.31 100.412C277.638 100.412 276.894 100.34 276.486 100.316V97.916H278.214ZM278.214 93.812C279.246 93.812 279.942 94.196 279.942 94.988C279.942 95.828 279.198 96.236 278.286 96.236H276.486V93.86C276.774 93.836 277.566 93.812 278.214 93.812ZM288.533 102.5L293.573 95.66V102.5H296.333V91.7H293.573L288.533 98.54V91.7H285.773V102.5H288.533ZM307.885 99.476C307.261 99.98 306.157 100.46 304.837 100.46C303.133 100.46 301.837 99.572 301.597 97.94H309.397C309.517 97.532 309.565 97.124 309.565 96.452C309.565 93.428 307.237 91.436 304.453 91.436C300.901 91.436 298.741 93.956 298.741 97.1C298.741 100.508 301.069 102.764 304.549 102.764C306.061 102.764 307.597 102.332 308.677 101.42L307.885 99.476ZM304.333 93.74C305.917 93.74 306.829 94.772 306.805 96.092H301.501C301.789 94.676 302.677 93.74 304.333 93.74ZM315.866 88.868L317.33 91.148L319.394 89.588V102.5H322.154V85.652H320.162L315.866 88.868Z" fill="white"/>
        <path d="M389.667 93.5L384.667 98.5L389.667 103.5" stroke="#6C7991" stroke-width="2" stroke-linecap="round" stroke-linejoin="round"/>
        <path d="M400.667 87.5V94.5C400.667 95.5609 400.245 96.5783 399.495 97.3284C398.745 98.0786 397.727 98.5 396.667 98.5H384.667" stroke="#6C7991" stroke-width="2" stroke-linecap="round" stroke-linejoin="round"/>
        <rect width="130" height="52" transform="translate(202.667 129.5)" fill="#7833FF"/>
        <path d="M208.907 165.02H211.475V162.5H219.131V165.02H221.723V159.932H219.923V151.7H211.955L211.787 154.292C211.643 156.74 211.043 158.924 210.275 159.932H208.907V165.02ZM214.451 155.396L214.523 154.292H217.163V159.932H213.155C213.635 159.26 214.235 157.676 214.451 155.396ZM232.01 159.476C231.386 159.98 230.282 160.46 228.962 160.46C227.258 160.46 225.962 159.572 225.722 157.94H233.522C233.642 157.532 233.69 157.124 233.69 156.452C233.69 153.428 231.362 151.436 228.578 151.436C225.026 151.436 222.866 153.956 222.866 157.1C222.866 160.508 225.194 162.764 228.674 162.764C230.186 162.764 231.722 162.332 232.802 161.42L232.01 159.476ZM228.458 153.74C230.042 153.74 230.954 154.772 230.93 156.092H225.626C225.914 154.676 226.802 153.74 228.458 153.74ZM238.673 162.5L243.713 155.66V162.5H246.473V151.7H243.713L238.673 158.54V151.7H235.913V162.5H238.673ZM237.521 146.3C237.521 148.388 238.601 150.02 241.289 150.02C243.713 150.02 244.961 148.364 244.961 146.3H242.441C242.441 147.188 242.105 148.052 241.289 148.052C240.377 148.052 240.041 147.188 240.041 146.3H237.521ZM257.738 158.876C257.042 159.644 256.13 160.196 254.954 160.196C253.322 160.196 251.834 159.02 251.834 157.1C251.834 155.204 253.298 154.028 254.834 154.028C255.818 154.028 256.706 154.292 257.522 155.084L258.818 152.9C257.81 151.892 256.25 151.436 254.474 151.436C251.186 151.436 248.882 153.956 248.882 157.1C248.882 160.508 251.234 162.764 254.738 162.764C256.49 162.764 258.122 162.116 259.034 160.892L257.738 158.876ZM259.91 154.46H263.462V162.5H266.222V154.46H269.75V151.7H259.91V154.46ZM271.726 162.5C272.71 162.5 274.678 162.62 276.022 162.62C279.502 162.62 281.158 161.492 281.158 159.356C281.158 158.108 280.366 157.22 278.854 156.86V156.812C279.934 156.644 280.87 155.708 280.87 154.412C280.87 152.444 279.118 151.58 275.974 151.58C274.294 151.58 272.662 151.676 271.726 151.7V162.5ZM276.214 157.916C277.51 157.916 278.254 158.348 278.254 159.164C278.254 159.908 277.534 160.412 276.31 160.412C275.638 160.412 274.894 160.34 274.486 160.316V157.916H276.214ZM276.214 153.812C277.246 153.812 277.942 154.196 277.942 154.988C277.942 155.828 277.198 156.236 276.286 156.236H274.486V153.86C274.774 153.836 275.566 153.812 276.214 153.812ZM286.533 162.5L291.573 155.66V162.5H294.333V151.7H291.573L286.533 158.54V151.7H283.773V162.5H286.533ZM305.885 159.476C305.261 159.98 304.157 160.46 302.837 160.46C301.133 160.46 299.837 159.572 299.597 157.94H307.397C307.517 157.532 307.565 157.124 307.565 156.452C307.565 153.428 305.237 151.436 302.453 151.436C298.901 151.436 296.741 153.956 296.741 157.1C296.741 160.508 299.069 162.764 302.549 162.764C304.061 162.764 305.597 162.332 306.677 161.42L305.885 159.476ZM302.333 153.74C303.917 153.74 304.829 154.772 304.805 156.092H299.501C299.789 154.676 300.677 153.74 302.333 153.74ZM314.226 162.5H324.786V159.932H317.802C319.122 158.852 324.138 154.604 324.138 149.9C324.138 147.668 322.578 145.508 319.386 145.508C316.722 145.508 314.802 147.044 314.346 149.492L316.65 150.524C317.01 149.108 317.874 148.268 319.074 148.268C320.466 148.268 321.21 149.108 321.21 150.452C321.21 153.716 316.962 157.604 314.226 160.292V162.5Z" fill="white"/>
        <path d="M389.667 153.5L384.667 158.5L389.667 163.5" stroke="#6C7991" stroke-width="2" stroke-linecap="round" stroke-linejoin="round"/>
        <path d="M400.667 147.5V154.5C400.667 155.561 400.245 156.578 399.495 157.328C398.745 158.079 397.727 158.5 396.667 158.5H384.667" stroke="#6C7991" stroke-width="2" stroke-linecap="round" stroke-linejoin="round"/>
        <rect width="130" height="52" transform="translate(202.667 189.5)" fill="#7833FF"/>
        <path d="M208.907 225.02H211.475V222.5H219.131V225.02H221.723V219.932H219.923V211.7H211.955L211.787 214.292C211.643 216.74 211.043 218.924 210.275 219.932H208.907V225.02ZM214.451 215.396L214.523 214.292H217.163V219.932H213.155C213.635 219.26 214.235 217.676 214.451 215.396ZM232.01 219.476C231.386 219.98 230.282 220.46 228.962 220.46C227.258 220.46 225.962 219.572 225.722 217.94H233.522C233.642 217.532 233.69 217.124 233.69 216.452C233.69 213.428 231.362 211.436 228.578 211.436C225.026 211.436 222.866 213.956 222.866 217.1C222.866 220.508 225.194 222.764 228.674 222.764C230.186 222.764 231.722 222.332 232.802 221.42L232.01 219.476ZM228.458 213.74C230.042 213.74 230.954 214.772 230.93 216.092H225.626C225.914 214.676 226.802 213.74 228.458 213.74ZM238.673 222.5L243.713 215.66V222.5H246.473V211.7H243.713L238.673 218.54V211.7H235.913V222.5H238.673ZM237.521 206.3C237.521 208.388 238.601 210.02 241.289 210.02C243.713 210.02 244.961 208.364 244.961 206.3H242.441C242.441 207.188 242.105 208.052 241.289 208.052C240.377 208.052 240.041 207.188 240.041 206.3H237.521ZM257.738 218.876C257.042 219.644 256.13 220.196 254.954 220.196C253.322 220.196 251.834 219.02 251.834 217.1C251.834 215.204 253.298 214.028 254.834 214.028C255.818 214.028 256.706 214.292 257.522 215.084L258.818 212.9C257.81 211.892 256.25 211.436 254.474 211.436C251.186 211.436 248.882 213.956 248.882 217.1C248.882 220.508 251.234 222.764 254.738 222.764C256.49 222.764 258.122 222.116 259.034 220.892L257.738 218.876ZM259.91 214.46H263.462V222.5H266.222V214.46H269.75V211.7H259.91V214.46ZM271.726 222.5C272.71 222.5 274.678 222.62 276.022 222.62C279.502 222.62 281.158 221.492 281.158 219.356C281.158 218.108 280.366 217.22 278.854 216.86V216.812C279.934 216.644 280.87 215.708 280.87 214.412C280.87 212.444 279.118 211.58 275.974 211.58C274.294 211.58 272.662 211.676 271.726 211.7V222.5ZM276.214 217.916C277.51 217.916 278.254 218.348 278.254 219.164C278.254 219.908 277.534 220.412 276.31 220.412C275.638 220.412 274.894 220.34 274.486 220.316V217.916H276.214ZM276.214 213.812C277.246 213.812 277.942 214.196 277.942 214.988C277.942 215.828 277.198 216.236 276.286 216.236H274.486V213.86C274.774 213.836 275.566 213.812 276.214 213.812ZM286.533 222.5L291.573 215.66V222.5H294.333V211.7H291.573L286.533 218.54V211.7H283.773V222.5H286.533ZM305.885 219.476C305.261 219.98 304.157 220.46 302.837 220.46C301.133 220.46 299.837 219.572 299.597 217.94H307.397C307.517 217.532 307.565 217.124 307.565 216.452C307.565 213.428 305.237 211.436 302.453 211.436C298.901 211.436 296.741 213.956 296.741 217.1C296.741 220.508 299.069 222.764 302.549 222.764C304.061 222.764 305.597 222.332 306.677 221.42L305.885 219.476ZM302.333 213.74C303.917 213.74 304.829 214.772 304.805 216.092H299.501C299.789 214.676 300.677 213.74 302.333 213.74ZM319.194 222.764C322.29 222.764 324.69 220.868 324.69 217.772C324.69 215.78 323.562 214.124 321.474 213.764V213.692C323.178 212.948 324.042 211.604 324.042 209.708C324.042 207.068 322.098 205.436 319.218 205.436C316.914 205.436 315.162 206.348 314.25 208.052L315.786 209.996C316.626 208.772 317.61 208.196 318.954 208.196C320.394 208.196 321.09 209.036 321.09 210.236C321.09 211.676 319.866 212.54 318.498 212.54H317.418V215.3H318.618C320.562 215.3 321.738 216.14 321.738 217.676C321.738 218.948 320.826 220.004 319.026 220.004C317.562 220.004 316.266 219.164 315.426 217.916L313.866 219.932C314.754 221.636 316.626 222.764 319.194 222.764Z" fill="white"/>
        <path d="M389.667 213.5L384.667 218.5L389.667 223.5" stroke="#6C7991" stroke-width="2" stroke-linecap="round" stroke-linejoin="round"/>
        <path d="M400.667 207.5V214.5C400.667 215.561 400.245 216.578 399.495 217.328C398.745 218.079 397.727 218.5 396.667 218.5H384.667" stroke="#6C7991" stroke-width="2" stroke-linecap="round" stroke-linejoin="round"/>
        <rect width="43" height="52" transform="translate(202.667 249.5)" fill="white"/>
        <path d="M213.747 280.7C213.747 281.684 214.467 282.62 215.667 282.62C216.699 282.62 217.419 281.684 217.419 280.7C217.419 279.86 216.699 278.924 215.667 278.924C214.467 278.924 213.747 279.86 213.747 280.7ZM221.832 280.7C221.832 281.684 222.552 282.62 223.752 282.62C224.784 282.62 225.504 281.684 225.504 280.7C225.504 279.86 224.784 278.924 223.752 278.924C222.552 278.924 221.832 279.86 221.832 280.7ZM229.918 280.7C229.918 281.684 230.638 282.62 231.838 282.62C232.87 282.62 233.59 281.684 233.59 280.7C233.59 279.86 232.87 278.924 231.838 278.924C230.638 278.924 229.918 279.86 229.918 280.7Z" fill="#6C7991"/>
    </g>
    <rect x="176" y="43" width="248" height="285" stroke="#D3DBE6" stroke-width="2" stroke-linecap="round" stroke-dasharray="5.33 5.33"/>
    <defs>
        <clipPath id="clip0_289_497">
            <rect width="202" height="232" fill="white" transform="translate(202.667 69.5)"/>
        </clipPath>
    </defs>
</svg>
