<svg width="599" height="381" viewBox="0 0 599 381" fill="none" xmlns="http://www.w3.org/2000/svg">
    <path d="M325 126L227.5 185" stroke="#D3DBE6"/>
    <circle r="71.5" transform="matrix(0.975342 0.220697 0 1 227.041 282.484)" fill="white" stroke="#FFE000"/>
    <circle r="71.5" transform="matrix(0.975342 0.220697 0 1 211.436 279.952)" fill="white" stroke="#FFE000"/>
    <circle r="71.5" transform="matrix(0.975342 0.220697 0 1 195.83 277.421)" fill="white" stroke="#FFE000"/>
    <circle r="71" transform="matrix(0.975342 0.220697 0 1 180.225 274.89)" fill="#FFE000" stroke="#FFE000" stroke-width="2"/>
    <path d="M155.041 260.192L165.294 262.512V259.752L157.92 258.083V244.043L155.041 243.392V260.192ZM166.14 257.303C166.14 260.543 168.387 263.476 171.875 264.265C175.363 265.054 177.61 263.138 177.61 259.898C177.61 256.658 175.363 253.726 171.875 252.937C168.387 252.148 166.14 254.063 166.14 257.303ZM169.019 257.955C169.019 256.083 170.283 255.169 171.875 255.529C173.514 255.9 174.754 257.428 174.754 259.252C174.754 261.124 173.537 262.073 171.875 261.697C170.236 261.326 169.019 259.755 169.019 257.955ZM187.922 264.008C187.243 264.622 186.354 264.973 185.207 264.713C183.615 264.353 182.163 262.849 182.163 260.929C182.163 259.033 183.591 258.18 185.09 258.519C186.049 258.736 186.915 259.196 187.711 260.168L188.975 258.27C187.992 257.04 186.471 256.239 184.738 255.847C181.531 255.122 179.284 257.133 179.284 260.277C179.284 263.685 181.578 266.46 184.996 267.234C186.705 267.62 188.296 267.333 189.186 266.31L187.922 264.008ZM192.166 260.576C192.938 260.391 193.711 260.182 194.928 260.457C196.496 260.812 196.965 261.902 196.894 263.686C196.379 263.186 195.443 262.662 194.507 262.45C192.377 261.968 190.668 262.709 190.668 265.085C190.668 267.173 192.049 268.71 193.968 269.144C195.396 269.467 196.52 269.145 197.082 268.456V269.704L199.422 270.234V263.658C199.422 260.802 198.322 258.921 195.209 258.217C193.828 257.904 192.4 258.061 191.487 258.407L192.166 260.576ZM194.858 267.017C194.015 266.827 193.36 266.222 193.36 265.406C193.36 264.494 194.156 264.242 195.045 264.444C195.818 264.618 196.426 264.924 196.894 265.39V266.494C196.567 266.9 195.981 267.272 194.858 267.017ZM202.182 267.883C202.182 270.091 203.048 271.295 204.663 271.66C205.927 271.946 206.84 271.745 207.449 271.378L206.887 269.139C206.559 269.305 206.208 269.418 205.787 269.322C205.155 269.179 204.874 268.588 204.874 267.364V254.668L202.182 254.059V267.883ZM144.428 289.79L147.12 290.399V273.599L144.428 272.99V279.254C143.842 278.762 143.164 278.44 142.227 278.228C138.833 277.46 136.445 279.296 136.445 282.704C136.445 285.992 138.388 288.616 141.408 289.299C142.766 289.606 143.725 289.271 144.428 288.662V289.79ZM141.97 286.858C140.542 286.535 139.325 285.179 139.325 283.259C139.325 281.267 140.753 280.486 142.344 280.847C143.07 281.011 143.749 281.38 144.428 281.966V286.31C143.819 286.796 142.953 287.08 141.97 286.858ZM150.927 283.245C151.7 283.06 152.472 282.85 153.689 283.126C155.258 283.481 155.726 284.571 155.656 286.355C155.141 285.854 154.204 285.33 153.268 285.118C151.138 284.636 149.429 285.378 149.429 287.754C149.429 289.842 150.81 291.378 152.73 291.813C154.158 292.136 155.281 291.814 155.843 291.125V292.373L158.184 292.903V286.327C158.184 283.471 157.084 281.59 153.97 280.885C152.589 280.573 151.161 280.73 150.248 281.075L150.927 283.245ZM153.619 289.686C152.776 289.495 152.121 288.891 152.121 288.075C152.121 287.163 152.917 286.911 153.806 287.112C154.579 287.287 155.188 287.593 155.656 288.059V289.163C155.328 289.569 154.743 289.94 153.619 289.686ZM160.709 289.37C160.709 292.13 161.599 293.916 163.986 294.456C165.344 294.763 166.468 294.489 167.1 294.104L166.28 291.783C165.906 291.986 165.391 292.206 164.665 292.041C163.776 291.84 163.401 290.987 163.401 289.811V285.875L166.795 286.643V284.051L163.401 283.283V280.283L160.709 279.674V289.37ZM170.198 287.605C170.97 287.42 171.743 287.211 172.96 287.486C174.528 287.841 174.997 288.931 174.926 290.715C174.411 290.215 173.475 289.691 172.539 289.479C170.409 288.997 168.7 289.738 168.7 292.114C168.7 294.202 170.081 295.739 172 296.173C173.428 296.496 174.552 296.174 175.114 295.486V296.734L177.454 297.263V290.687C177.454 287.831 176.354 285.95 173.241 285.246C171.86 284.933 170.432 285.09 169.519 285.436L170.198 287.605ZM172.89 294.046C172.047 293.856 171.392 293.251 171.392 292.435C171.392 291.523 172.188 291.272 173.077 291.473C173.85 291.648 174.458 291.953 174.926 292.419V293.523C174.599 293.929 174.013 294.301 172.89 294.046ZM180.214 296.952C181.174 297.793 182.953 298.771 184.685 299.163C188.383 300 190.701 298.245 190.701 294.693C190.701 291.501 188.828 288.773 185.692 288.063C184.568 287.809 183.561 287.989 182.906 288.369V281.697L180.214 281.088V296.952ZM185.06 290.512C186.581 290.856 187.822 292.169 187.822 294.233C187.822 296.177 186.511 297.009 184.825 296.627C184.076 296.458 183.491 296.157 182.906 295.641V291.057C183.351 290.629 184.123 290.3 185.06 290.512ZM193.858 292.959C194.63 292.774 195.402 292.565 196.62 292.84C198.188 293.195 198.656 294.285 198.586 296.069C198.071 295.568 197.135 295.044 196.198 294.833C194.068 294.351 192.359 295.092 192.359 297.468C192.359 299.556 193.74 301.092 195.66 301.527C197.088 301.85 198.211 301.528 198.773 300.839V302.087L201.114 302.617V296.041C201.114 293.185 200.014 291.304 196.901 290.6C195.52 290.287 194.092 290.444 193.179 290.789L193.858 292.959ZM196.549 299.4C195.707 299.209 195.051 298.605 195.051 297.789C195.051 296.877 195.847 296.625 196.737 296.826C197.509 297.001 198.118 297.307 198.586 297.773V298.877C198.258 299.283 197.673 299.654 196.549 299.4ZM209.211 301.401C209.211 302.073 208.602 302.271 207.83 302.097C206.776 301.858 205.185 300.85 204.553 300.011L203.242 301.514C203.733 302.394 205.7 303.919 207.642 304.358C210.217 304.941 211.903 304.002 211.903 301.866C211.903 298.05 206.215 297.747 206.215 295.947C206.215 295.467 206.706 295.122 207.525 295.308C208.649 295.562 209.749 296.339 210.381 296.986L211.388 295.246C210.732 294.473 209.421 293.433 207.385 292.972C205.208 292.479 203.523 293.274 203.523 295.386C203.523 299.322 209.211 299.649 209.211 301.401ZM222.538 304.441C221.929 304.807 220.853 305.043 219.565 304.752C217.903 304.376 216.639 303.202 216.405 301.517L224.013 303.238C224.13 302.857 224.176 302.459 224.176 301.787C224.176 298.763 221.906 296.258 219.191 295.643C215.726 294.859 213.619 296.903 213.619 300.047C213.619 303.455 215.89 306.224 219.284 306.992C220.759 307.326 222.257 307.233 223.31 306.559L222.538 304.441ZM219.073 297.921C220.618 298.27 221.508 299.504 221.485 300.818L216.311 299.648C216.592 298.295 217.458 297.555 219.073 297.921Z" fill="#6C7991"/>
    <circle r="71.5" transform="matrix(0.978148 0.207912 0 1 420.378 280.949)" fill="white" stroke="#7833FF"/>
    <circle r="71.5" transform="matrix(0.978148 0.207912 0 1 404.727 278.623)" fill="white" stroke="#7833FF"/>
    <circle r="71.5" transform="matrix(0.978148 0.207912 0 1 389.077 276.296)" fill="white" stroke="#7833FF"/>
    <circle r="71" transform="matrix(0.978148 0.207912 0 1 373.427 273.97)" fill="#7833FF" stroke="#7833FF" stroke-width="2"/>
    <path d="M349.964 255.519C349.964 256.791 348.931 257.267 347.569 256.978C346.302 256.708 344.752 255.755 343.79 254.278L342.147 255.945C342.945 257.819 345.41 259.279 347.523 259.728C350.598 260.381 353.016 258.975 353.016 256.143C353.016 250.551 345.574 250.073 345.574 246.593C345.574 245.489 346.443 244.93 347.875 245.235C349.189 245.514 349.987 246.14 350.786 247.101L352.335 245.223C351.349 243.909 349.659 242.854 347.64 242.425C344.447 241.746 342.522 243.449 342.522 245.969C342.522 251.441 349.964 252.207 349.964 255.519ZM363.855 259.911C363.245 260.286 362.165 260.536 360.874 260.262C359.207 259.907 357.939 258.75 357.705 257.068L365.334 258.69C365.452 258.307 365.499 257.909 365.499 257.237C365.499 254.213 363.221 251.737 360.498 251.158C357.024 250.419 354.911 252.49 354.911 255.634C354.911 259.042 357.188 261.782 360.592 262.506C362.071 262.82 363.574 262.707 364.63 262.02L363.855 259.911ZM360.381 253.437C361.93 253.766 362.822 254.988 362.799 256.303L357.611 255.2C357.892 253.844 358.761 253.092 360.381 253.437ZM367.673 263.747L370.373 264.321V257.073C370.678 256.513 371.171 256.09 372.11 256.29C372.673 256.41 372.955 256.565 373.471 256.987L374.434 254.6C374.082 254.261 373.659 254.027 372.791 253.843C371.523 253.573 370.866 253.985 370.373 254.577V253.521L367.673 252.947V263.747ZM385.808 256.802L382.968 256.198L381.137 260.393C380.855 261.029 380.55 261.948 380.362 262.724C380.174 261.844 379.845 260.814 379.564 260.106L377.615 255.06L374.399 254.376L379.259 266.257L381.254 266.681L385.808 256.802ZM395.148 266.563C394.538 266.937 393.458 267.188 392.167 266.913C390.5 266.559 389.233 265.401 388.998 263.719L396.627 265.341C396.745 264.958 396.792 264.56 396.792 263.888C396.792 260.864 394.515 258.388 391.791 257.809C388.317 257.071 386.204 259.142 386.204 262.286C386.204 265.694 388.481 268.434 391.885 269.157C393.364 269.472 394.867 269.359 395.923 268.672L395.148 266.563ZM391.674 260.088C393.223 260.418 394.115 261.639 394.092 262.954L388.904 261.852C389.186 260.495 390.054 259.744 391.674 260.088ZM398.966 270.398L401.666 270.972V263.724C401.971 263.165 402.464 262.742 403.403 262.941C403.966 263.061 404.248 263.217 404.765 263.639L405.727 261.251C405.375 260.913 404.952 260.679 404.084 260.494C402.816 260.225 402.159 260.637 401.666 261.228V260.172L398.966 259.598V270.398ZM337.526 289.339L340.226 289.913V273.113L337.526 272.539V278.803C336.94 278.318 336.259 278.005 335.32 277.806C331.916 277.082 329.521 278.949 329.521 282.357C329.521 285.645 331.47 288.244 334.498 288.887C335.86 289.177 336.822 288.829 337.526 288.211V289.339ZM335.062 286.439C333.63 286.135 332.409 284.795 332.409 282.875C332.409 280.883 333.841 280.084 335.437 280.423C336.165 280.578 336.846 280.938 337.526 281.515V285.859C336.916 286.353 336.047 286.649 335.062 286.439ZM344.045 282.708C344.819 282.513 345.594 282.294 346.815 282.553C348.388 282.888 348.857 283.971 348.787 285.756C348.27 285.263 347.331 284.751 346.392 284.551C344.256 284.097 342.542 284.861 342.542 287.237C342.542 289.325 343.927 290.843 345.852 291.253C347.284 291.557 348.411 291.221 348.975 290.524V291.772L351.322 292.271V285.695C351.322 282.839 350.219 280.973 347.097 280.309C345.712 280.015 344.28 280.19 343.364 280.548L344.045 282.708ZM346.744 289.114C345.899 288.935 345.242 288.339 345.242 287.523C345.242 286.611 346.04 286.349 346.932 286.538C347.707 286.703 348.317 287.001 348.787 287.46V288.564C348.458 288.975 347.871 289.354 346.744 289.114ZM353.855 288.706C353.855 291.466 354.747 293.239 357.142 293.748C358.503 294.038 359.63 293.749 360.264 293.356L359.442 291.045C359.067 291.253 358.55 291.48 357.822 291.325C356.93 291.135 356.555 290.287 356.555 289.111V285.175L359.959 285.899V283.307L356.555 282.583V279.583L353.855 279.01V288.706ZM363.371 286.816C364.146 286.621 364.92 286.402 366.141 286.661C367.714 286.995 368.183 288.079 368.113 289.864C367.596 289.37 366.657 288.859 365.718 288.659C363.582 288.205 361.868 288.969 361.868 291.345C361.868 293.433 363.253 294.951 365.178 295.361C366.61 295.665 367.737 295.328 368.301 294.632V295.88L370.648 296.379V289.803C370.648 286.947 369.545 285.081 366.423 284.417C365.038 284.123 363.606 284.298 362.69 284.656L363.371 286.816ZM366.071 293.222C365.225 293.043 364.568 292.447 364.568 291.631C364.568 290.719 365.366 290.456 366.258 290.646C367.033 290.811 367.643 291.108 368.113 291.568V292.672C367.784 293.082 367.197 293.462 366.071 293.222ZM373.416 296.031C374.378 296.86 376.162 297.815 377.9 298.185C381.609 298.973 383.933 297.187 383.933 293.635C383.933 290.443 382.055 287.74 378.909 287.071C377.782 286.832 376.773 287.025 376.115 287.413V280.741L373.416 280.167V296.031ZM378.275 289.528C379.801 289.853 381.045 291.149 381.045 293.213C381.045 295.157 379.731 296.006 378.04 295.646C377.289 295.487 376.702 295.194 376.115 294.685V290.101C376.562 289.668 377.336 289.329 378.275 289.528ZM387.099 291.86C387.873 291.664 388.648 291.445 389.869 291.705C391.442 292.039 391.911 293.123 391.841 294.908C391.324 294.414 390.385 293.902 389.446 293.703C387.31 293.249 385.596 294.012 385.596 296.388C385.596 298.476 386.981 299.995 388.906 300.404C390.338 300.708 391.465 300.372 392.028 299.676V300.924L394.376 301.423V294.847C394.376 291.991 393.273 290.124 390.15 289.46C388.765 289.166 387.333 289.342 386.418 289.699L387.099 291.86ZM389.798 298.266C388.953 298.086 388.296 297.49 388.296 296.674C388.296 295.762 389.094 295.5 389.986 295.69C390.761 295.854 391.371 296.152 391.841 296.612V297.716C391.512 298.126 390.925 298.505 389.798 298.266ZM402.496 300.101C402.496 300.773 401.886 300.979 401.111 300.814C400.054 300.59 398.458 299.602 397.824 298.772L396.51 300.292C397.003 301.165 398.975 302.664 400.923 303.078C403.505 303.627 405.196 302.666 405.196 300.53C405.196 296.714 399.491 296.486 399.491 294.686C399.491 294.206 399.984 293.855 400.806 294.029C401.933 294.269 403.036 295.031 403.67 295.67L404.679 293.917C404.022 293.153 402.707 292.13 400.665 291.695C398.482 291.231 396.791 292.048 396.791 294.16C396.791 298.096 402.496 298.349 402.496 300.101ZM415.861 302.966C415.251 303.34 414.171 303.59 412.88 303.316C411.213 302.962 409.946 301.804 409.711 300.122L417.34 301.744C417.458 301.361 417.505 300.963 417.505 300.291C417.505 297.267 415.228 294.791 412.504 294.212C409.03 293.473 406.917 295.544 406.917 298.688C406.917 302.096 409.194 304.836 412.598 305.56C414.077 305.874 415.58 305.762 416.636 305.074L415.861 302.966ZM412.387 296.491C413.936 296.82 414.828 298.042 414.805 299.357L409.617 298.254C409.899 296.898 410.767 296.147 412.387 296.491Z" fill="white"/>
    <path d="M178 228L180.887 223H175.113L178 228ZM177.5 109V223.5H178.5V109H177.5Z" fill="#D3DBE6"/>
    <path d="M371 228L373.887 223H368.113L371 228ZM370.5 109V223.5H371.5V109H370.5Z" fill="#D3DBE6"/>
    <rect width="98" height="39" transform="matrix(0.978148 0.207912 0 1 132 126)" fill="#FFEF7F"/>
    <path d="M152.46 151.117C152.46 151.753 151.943 151.991 151.263 151.846C150.629 151.712 149.854 151.235 149.373 150.497L148.551 151.33C148.95 152.267 150.183 152.997 151.239 153.221C152.777 153.548 153.986 152.845 153.986 151.429C153.986 148.633 150.265 148.394 150.265 146.654C150.265 146.102 150.699 145.823 151.415 145.975C152.072 146.115 152.472 146.427 152.871 146.908L153.645 145.969C153.152 145.312 152.307 144.784 151.298 144.57C149.701 144.231 148.739 145.082 148.739 146.342C148.739 149.078 152.46 149.461 152.46 151.117ZM159.405 153.313C159.1 153.5 158.56 153.626 157.915 153.488C157.081 153.311 156.448 152.733 156.33 151.892L160.145 152.702C160.204 152.511 160.227 152.312 160.227 151.976C160.227 150.464 159.089 149.226 157.727 148.936C155.99 148.567 154.933 149.603 154.933 151.175C154.933 152.879 156.072 154.249 157.774 154.61C158.513 154.768 159.265 154.711 159.793 154.368L159.405 153.313ZM157.668 150.076C158.443 150.241 158.889 150.851 158.877 151.509L156.283 150.958C156.424 150.28 156.858 149.904 157.668 150.076ZM161.314 155.231L162.664 155.518V151.894C162.817 151.614 163.063 151.403 163.533 151.503C163.814 151.562 163.955 151.64 164.214 151.851L164.695 150.658C164.519 150.488 164.307 150.371 163.873 150.279C163.239 150.144 162.911 150.35 162.664 150.646V150.118L161.314 149.831V155.231ZM165.663 156.155L167.013 156.442V151.042L165.663 150.755V156.155ZM165.522 148.781C165.522 149.333 165.91 149.728 166.368 149.825C166.755 149.907 167.142 149.678 167.142 149.126C167.142 148.634 166.755 148.239 166.368 148.157C165.91 148.06 165.522 148.289 165.522 148.781ZM169.13 152.884C169.517 152.787 169.905 152.677 170.515 152.807C171.301 152.974 171.536 153.516 171.501 154.408C171.243 154.161 170.773 153.906 170.304 153.806C169.236 153.579 168.379 153.961 168.379 155.149C168.379 156.193 169.071 156.952 170.034 157.156C170.75 157.309 171.313 157.14 171.595 156.792V157.416L172.769 157.666V154.378C172.769 152.95 172.217 152.016 170.656 151.685C169.963 151.537 169.247 151.625 168.79 151.804L169.13 152.884ZM170.48 156.087C170.057 155.997 169.729 155.7 169.729 155.292C169.729 154.836 170.128 154.704 170.574 154.799C170.961 154.882 171.266 155.03 171.501 155.26V155.812C171.337 156.017 171.043 156.207 170.48 156.087ZM174.152 156.472C174.152 157.576 174.587 158.172 175.397 158.344C176.031 158.479 176.488 158.372 176.793 158.185L176.512 157.069C176.347 157.154 176.171 157.213 175.96 157.168C175.643 157.101 175.502 156.807 175.502 156.195V149.847L174.152 149.56V156.472ZM177.86 158.748L179.209 159.035V153.635L177.86 153.348V158.748ZM177.719 151.374C177.719 151.926 178.106 152.32 178.564 152.418C178.951 152.5 179.339 152.27 179.339 151.718C179.339 151.226 178.951 150.832 178.564 150.75C178.106 150.652 177.719 150.882 177.719 151.374ZM180.833 155.276L183.521 155.847L180.657 158.346V159.342L185.352 160.34V159.056L182.547 158.46L185.411 155.949V154.953L180.833 153.98V155.276ZM187.081 156.7C187.468 156.602 187.855 156.492 188.466 156.622C189.252 156.789 189.487 157.331 189.452 158.224C189.193 157.977 188.724 157.721 188.254 157.621C187.186 157.394 186.329 157.776 186.329 158.964C186.329 160.008 187.022 160.767 187.984 160.972C188.7 161.124 189.264 160.956 189.545 160.608V161.232L190.719 161.481V158.193C190.719 156.765 190.168 155.832 188.606 155.5C187.914 155.353 187.198 155.441 186.74 155.619L187.081 156.7ZM188.43 159.903C188.008 159.813 187.679 159.515 187.679 159.107C187.679 158.651 188.078 158.52 188.524 158.615C188.912 158.697 189.217 158.846 189.452 159.076V159.628C189.287 159.833 188.994 160.022 188.43 159.903ZM191.986 159.698C191.986 161.078 192.432 161.965 193.629 162.22C194.31 162.364 194.873 162.22 195.19 162.024L194.779 160.868C194.591 160.972 194.333 161.085 193.969 161.008C193.523 160.913 193.335 160.489 193.335 159.901V157.933L195.037 158.295V156.999L193.335 156.637V155.137L191.986 154.85V159.698ZM196.532 162.717L197.882 163.004V157.604L196.532 157.317V162.717ZM196.391 155.343C196.391 155.895 196.779 156.289 197.237 156.387C197.624 156.469 198.011 156.239 198.011 155.687C198.011 155.195 197.624 154.801 197.237 154.719C196.779 154.621 196.391 154.851 196.391 155.343ZM199.259 160.597C199.259 162.217 200.386 163.668 202.135 164.04C203.884 164.412 205.011 163.439 205.011 161.819C205.011 160.199 203.884 158.748 202.135 158.376C200.386 158.004 199.259 158.977 199.259 160.597ZM200.703 160.903C200.703 159.967 201.337 159.502 202.135 159.672C202.957 159.846 203.579 160.603 203.579 161.515C203.579 162.451 202.969 162.933 202.135 162.756C201.314 162.581 200.703 161.803 200.703 160.903ZM206.179 164.767L207.529 165.054V161.37C207.846 161.114 208.222 161.001 208.679 161.099C209.431 161.258 209.865 161.759 209.865 162.623V165.551L211.215 165.838V162.67C211.215 160.978 210.334 160.155 209.043 159.88C208.409 159.745 207.846 159.914 207.529 160.194V159.654L206.179 159.367V164.767Z" fill="#10162F"/>
    <rect width="98" height="39" transform="matrix(0.978148 0.207912 0 1 325 126)" fill="#BB98FF"/>
    <path d="M345.46 151.117C345.46 151.753 344.943 151.991 344.263 151.846C343.629 151.712 342.854 151.235 342.373 150.497L341.551 151.33C341.95 152.267 343.183 152.997 344.239 153.221C345.777 153.548 346.986 152.845 346.986 151.429C346.986 148.633 343.265 148.394 343.265 146.654C343.265 146.102 343.699 145.823 344.415 145.975C345.072 146.115 345.472 146.427 345.871 146.908L346.645 145.969C346.152 145.312 345.307 144.784 344.298 144.57C342.701 144.231 341.739 145.082 341.739 146.342C341.739 149.078 345.46 149.461 345.46 151.117ZM352.405 153.313C352.1 153.5 351.56 153.626 350.915 153.488C350.081 153.311 349.448 152.733 349.33 151.892L353.145 152.702C353.204 152.511 353.227 152.312 353.227 151.976C353.227 150.464 352.089 149.226 350.727 148.936C348.99 148.567 347.933 149.603 347.933 151.175C347.933 152.879 349.072 154.249 350.774 154.61C351.513 154.768 352.265 154.711 352.793 154.368L352.405 153.313ZM350.668 150.076C351.443 150.241 351.889 150.851 351.877 151.509L349.283 150.958C349.424 150.28 349.858 149.904 350.668 150.076ZM354.314 155.231L355.664 155.518V151.894C355.817 151.614 356.063 151.403 356.533 151.503C356.814 151.562 356.955 151.64 357.214 151.851L357.695 150.658C357.519 150.488 357.307 150.371 356.873 150.279C356.239 150.144 355.911 150.35 355.664 150.646V150.118L354.314 149.831V155.231ZM358.663 156.155L360.013 156.442V151.042L358.663 150.755V156.155ZM358.522 148.781C358.522 149.333 358.91 149.728 359.368 149.825C359.755 149.907 360.142 149.678 360.142 149.126C360.142 148.634 359.755 148.239 359.368 148.157C358.91 148.06 358.522 148.289 358.522 148.781ZM362.13 152.884C362.517 152.787 362.905 152.677 363.515 152.807C364.301 152.974 364.536 153.516 364.501 154.408C364.243 154.161 363.773 153.906 363.304 153.806C362.236 153.579 361.379 153.961 361.379 155.149C361.379 156.193 362.071 156.952 363.034 157.156C363.75 157.309 364.313 157.14 364.595 156.792V157.416L365.769 157.666V154.378C365.769 152.95 365.217 152.016 363.656 151.685C362.963 151.537 362.247 151.625 361.79 151.804L362.13 152.884ZM363.48 156.087C363.057 155.997 362.729 155.7 362.729 155.292C362.729 154.836 363.128 154.704 363.574 154.799C363.961 154.882 364.266 155.03 364.501 155.26V155.812C364.337 156.017 364.043 156.207 363.48 156.087ZM367.152 156.472C367.152 157.576 367.587 158.172 368.397 158.344C369.031 158.479 369.488 158.372 369.793 158.185L369.512 157.069C369.347 157.154 369.171 157.213 368.96 157.168C368.643 157.101 368.502 156.807 368.502 156.195V149.847L367.152 149.56V156.472ZM370.86 158.748L372.209 159.035V153.635L370.86 153.348V158.748ZM370.719 151.374C370.719 151.926 371.106 152.32 371.564 152.418C371.951 152.5 372.339 152.27 372.339 151.718C372.339 151.226 371.951 150.832 371.564 150.75C371.106 150.652 370.719 150.882 370.719 151.374ZM373.833 155.276L376.521 155.847L373.657 158.346V159.342L378.352 160.34V159.056L375.547 158.46L378.411 155.949V154.953L373.833 153.98V155.276ZM380.081 156.7C380.468 156.602 380.855 156.492 381.466 156.622C382.252 156.789 382.487 157.331 382.452 158.224C382.193 157.977 381.724 157.721 381.254 157.621C380.186 157.394 379.329 157.776 379.329 158.964C379.329 160.008 380.022 160.767 380.984 160.972C381.7 161.124 382.264 160.956 382.545 160.608V161.232L383.719 161.481V158.193C383.719 156.765 383.168 155.832 381.606 155.5C380.914 155.353 380.198 155.441 379.74 155.619L380.081 156.7ZM381.43 159.903C381.008 159.813 380.679 159.515 380.679 159.107C380.679 158.651 381.078 158.52 381.524 158.615C381.912 158.697 382.217 158.846 382.452 159.076V159.628C382.287 159.833 381.994 160.022 381.43 159.903ZM384.986 159.698C384.986 161.078 385.432 161.965 386.629 162.22C387.31 162.364 387.873 162.22 388.19 162.024L387.779 160.868C387.591 160.972 387.333 161.085 386.969 161.008C386.523 160.913 386.335 160.489 386.335 159.901V157.933L388.037 158.295V156.999L386.335 156.637V155.137L384.986 154.85V159.698ZM389.532 162.717L390.882 163.004V157.604L389.532 157.317V162.717ZM389.391 155.343C389.391 155.895 389.779 156.289 390.237 156.387C390.624 156.469 391.011 156.239 391.011 155.687C391.011 155.195 390.624 154.801 390.237 154.719C389.779 154.621 389.391 154.851 389.391 155.343ZM392.259 160.597C392.259 162.217 393.386 163.668 395.135 164.04C396.884 164.412 398.011 163.439 398.011 161.819C398.011 160.199 396.884 158.748 395.135 158.376C393.386 158.004 392.259 158.977 392.259 160.597ZM393.703 160.903C393.703 159.967 394.337 159.502 395.135 159.672C395.957 159.846 396.579 160.603 396.579 161.515C396.579 162.451 395.969 162.933 395.135 162.756C394.314 162.581 393.703 161.803 393.703 160.903ZM399.179 164.767L400.529 165.054V161.37C400.846 161.114 401.222 161.001 401.679 161.099C402.431 161.258 402.865 161.759 402.865 162.623V165.551L404.215 165.838V162.67C404.215 160.978 403.334 160.155 402.043 159.88C401.409 159.745 400.846 159.914 400.529 160.194V159.654L399.179 159.367V164.767Z" fill="#10162F"/>
    <rect x="0.978148" y="1.20791" width="142" height="94" transform="matrix(0.978148 0.207912 0 1 110.021 -0.203368)" fill="white" stroke="#FFE000" stroke-width="2"/>
    <path d="M147.923 65.3939V48.5939L145.223 48.02V59.708L136.185 46.0989L133.885 45.6099V62.4099L136.584 62.9838V51.3438L145.622 64.9049L147.923 65.3939ZM159.989 64.9346C159.379 65.3089 158.299 65.5594 157.008 65.2849C155.341 64.9306 154.073 63.7732 153.839 62.0913L161.468 63.713C161.585 63.3299 161.632 62.9319 161.632 62.2599C161.632 59.2359 159.355 56.7599 156.632 56.1811C153.158 55.4426 151.045 57.5135 151.045 60.6575C151.045 64.0655 153.322 66.8055 156.726 67.529C158.205 67.8434 159.707 67.7308 160.764 67.0433L159.989 64.9346ZM156.515 58.4601C158.064 58.7895 158.956 60.0111 158.933 61.3261L153.745 60.2233C154.026 58.8672 154.895 58.1158 156.515 58.4601ZM179.113 61.2235L176.39 60.6447L174.84 66.0994C174.723 66.6024 174.606 67.1055 174.512 67.5895C174.394 67.0605 174.277 66.5316 174.113 66.0167L172.07 59.7265L169.676 59.2176L167.704 64.6784C167.493 65.2335 167.422 65.6026 167.305 66.0336C167.211 65.5096 167.164 65.0917 167 64.5287L165.309 58.2895L162.422 57.6757L165.849 69.2522L168.15 69.7412L170.38 64.2633C170.544 63.8662 170.662 63.4832 170.756 63.0231C170.873 63.4561 170.943 63.927 171.108 64.37L173.361 70.849L175.779 71.363L179.113 61.2235ZM189.363 74.2022V68.1302C190.067 68.3519 191.006 68.5515 191.499 68.6563C195.419 69.4896 197.509 67.3417 197.509 64.4857C197.509 61.7257 195.983 58.7613 191.147 57.7334C189.997 57.4889 187.391 56.983 186.475 56.7884V73.5884L189.363 74.2022ZM191.429 60.5533C193.401 60.9724 194.457 62.061 194.457 63.813C194.457 65.685 193.119 66.2406 191.405 65.8763C190.748 65.7366 190.044 65.5389 189.363 65.3222V60.1622C190.137 60.3028 190.842 60.4285 191.429 60.5533ZM198.019 70.6421C198.019 73.8821 200.273 76.7851 203.77 77.5286C207.268 78.2721 209.522 76.3272 209.522 73.0872C209.522 69.8472 207.268 66.9441 203.77 66.2006C200.273 65.4571 198.019 67.4021 198.019 70.6421ZM200.906 71.2559C200.906 69.3839 202.174 68.4533 203.77 68.7926C205.414 69.1419 206.658 70.6544 206.658 72.4784C206.658 74.3504 205.437 75.3149 203.77 74.9606C202.127 74.6113 200.906 73.0559 200.906 71.2559ZM217.211 77.0735C217.211 77.7455 216.6 77.9517 215.826 77.7871C214.769 77.5625 213.173 76.5752 212.539 75.7445L211.225 77.265C211.718 78.1378 213.689 79.637 215.638 80.0511C218.22 80.6 219.91 79.6393 219.91 77.5033C219.91 73.6873 214.206 73.4588 214.206 71.6588C214.206 71.1788 214.699 70.8275 215.521 71.0022C216.647 71.2417 217.751 72.0042 218.385 72.643L219.394 70.8895C218.737 70.1258 217.422 69.1024 215.38 68.6683C213.196 68.2042 211.506 69.0209 211.506 71.1329C211.506 75.0689 217.211 75.3215 217.211 77.0735ZM222.055 77.0471C222.055 79.8071 222.947 81.5807 225.341 82.0896C226.703 82.3791 227.83 82.0906 228.463 81.6973L227.642 79.3866C227.266 79.5948 226.75 79.821 226.022 79.6663C225.13 79.4767 224.754 78.6289 224.754 77.4529V73.5169L228.158 74.2404V71.6484L224.754 70.9249V67.9249L222.055 67.3511V77.0471Z" fill="#6C7991"/>
    <rect x="0.978148" y="1.20791" width="142" height="94" transform="matrix(0.978148 0.207912 0 1 303.021 -0.203368)" fill="white" stroke="#7833FF" stroke-width="2"/>
    <path d="M350.453 61.9558C350.453 63.2278 349.421 63.7043 348.059 63.4149C346.791 63.1454 345.242 62.1921 344.279 60.7155L342.636 62.3822C343.434 64.2559 345.899 65.7158 348.012 66.1649C351.087 66.8186 353.505 65.4125 353.505 62.5805C353.505 56.9885 346.064 56.5107 346.064 53.0307C346.064 51.9267 346.932 51.3674 348.364 51.6717C349.679 51.9512 350.477 52.5768 351.275 53.5385L352.824 51.6598C351.839 50.3462 350.148 49.291 348.129 48.8618C344.937 48.1832 343.012 49.8861 343.012 52.4061C343.012 57.8781 350.453 58.6438 350.453 61.9558ZM364.345 66.3485C363.734 66.7228 362.655 66.9733 361.363 66.6988C359.697 66.3445 358.429 65.1871 358.194 63.5052L365.824 65.1269C365.941 64.7438 365.988 64.3458 365.988 63.6738C365.988 60.6498 363.711 58.1738 360.988 57.595C357.513 56.8565 355.401 58.9274 355.401 62.0714C355.401 65.4794 357.678 68.2194 361.082 68.9429C362.561 69.2573 364.063 69.1446 365.119 68.4572L364.345 66.3485ZM360.87 59.874C362.42 60.2034 363.312 61.425 363.288 62.74L358.1 61.6372C358.382 60.2811 359.251 59.5297 360.87 59.874ZM368.162 70.184L370.862 70.7578V63.5098C371.167 62.9507 371.66 62.5275 372.599 62.7271C373.163 62.8468 373.444 63.0027 373.961 63.4245L374.923 61.0371C374.571 60.6982 374.149 60.4644 373.28 60.2798C372.012 60.0103 371.355 60.4226 370.862 61.0138V59.9578L368.162 59.384V70.184ZM386.298 63.2388L383.457 62.635L381.626 66.8298C381.344 67.4659 381.039 68.385 380.851 69.1611C380.664 68.2812 380.335 67.2513 380.053 66.5435L378.105 61.4973L374.889 60.8137L379.748 72.6946L381.743 73.1187L386.298 63.2388ZM395.638 73.0001C395.027 73.3743 393.948 73.6248 392.656 73.3504C390.99 72.9961 389.722 71.8386 389.487 70.1567L397.117 71.7784C397.234 71.3954 397.281 70.9974 397.281 70.3254C397.281 67.3014 395.004 64.8253 392.281 64.2465C388.806 63.508 386.694 65.5789 386.694 68.7229C386.694 72.1309 388.971 74.8709 392.375 75.5945C393.854 75.9088 395.356 75.7962 396.413 75.1087L395.638 73.0001ZM392.163 66.5256C393.713 66.8549 394.605 68.0765 394.581 69.3915L389.393 68.2888C389.675 66.9326 390.544 66.1813 392.163 66.5256ZM399.456 76.8356L402.155 77.4094V70.1614C402.46 69.6023 402.953 69.179 403.892 69.3786C404.456 69.4984 404.738 69.6543 405.254 70.0761L406.216 67.6886C405.864 67.3498 405.442 67.116 404.573 66.9313C403.306 66.6619 402.648 67.0742 402.155 67.6654V66.6094L399.456 66.0356V76.8356Z" fill="#7833FF"/>
</svg>
