<svg width="599" height="381" viewBox="0 0 599 381" fill="none" xmlns="http://www.w3.org/2000/svg">
    <path d="M325 126L227.5 185" stroke="#D3DBE6"/>
    <circle r="71.5" transform="matrix(0.975342 0.220697 0 1 227.041 282.484)" fill="white" stroke="#FFE000"/>
    <circle r="71.5" transform="matrix(0.975342 0.220697 0 1 211.436 279.953)" fill="white" stroke="#FFE000"/>
    <circle r="71.5" transform="matrix(0.975342 0.220697 0 1 195.83 277.421)" fill="white" stroke="#FFE000"/>
    <circle r="71" transform="matrix(0.975342 0.220697 0 1 180.225 274.89)" fill="#FFE000" stroke="#FFE000" stroke-width="2"/>
    <path d="M155.041 260.192L165.294 262.512V259.752L157.92 258.083V244.043L155.041 243.392V260.192ZM166.14 257.303C166.14 260.543 168.387 263.476 171.875 264.265C175.363 265.054 177.61 263.139 177.61 259.899C177.61 256.659 175.363 253.726 171.875 252.937C168.387 252.148 166.14 254.063 166.14 257.303ZM169.019 257.955C169.019 256.083 170.283 255.169 171.875 255.529C173.514 255.9 174.754 257.428 174.754 259.252C174.754 261.124 173.537 262.073 171.875 261.697C170.236 261.326 169.019 259.755 169.019 257.955ZM187.922 264.008C187.243 264.622 186.354 264.973 185.207 264.714C183.615 264.353 182.163 262.849 182.163 260.929C182.163 259.033 183.591 258.18 185.09 258.519C186.049 258.736 186.915 259.196 187.711 260.168L188.975 258.27C187.992 257.04 186.471 256.24 184.738 255.848C181.531 255.122 179.284 257.133 179.284 260.277C179.284 263.685 181.578 266.461 184.996 267.234C186.705 267.621 188.296 267.333 189.186 266.31L187.922 264.008ZM192.166 260.576C192.938 260.391 193.711 260.182 194.928 260.457C196.496 260.812 196.965 261.902 196.894 263.686C196.379 263.186 195.443 262.662 194.507 262.45C192.377 261.968 190.668 262.709 190.668 265.085C190.668 267.173 192.049 268.71 193.968 269.144C195.396 269.467 196.52 269.145 197.082 268.457V269.705L199.422 270.234V263.658C199.422 260.802 198.322 258.921 195.209 258.217C193.828 257.904 192.4 258.061 191.487 258.407L192.166 260.576ZM194.858 267.017C194.015 266.827 193.36 266.222 193.36 265.406C193.36 264.494 194.156 264.243 195.045 264.444C195.818 264.619 196.426 264.924 196.894 265.39V266.494C196.567 266.9 195.981 267.272 194.858 267.017ZM202.182 267.883C202.182 270.091 203.048 271.295 204.663 271.66C205.927 271.946 206.84 271.745 207.449 271.378L206.887 269.139C206.559 269.305 206.208 269.418 205.787 269.322C205.155 269.179 204.874 268.588 204.874 267.364V254.668L202.182 254.059V267.883ZM144.428 289.79L147.12 290.399V273.599L144.428 272.99V279.254C143.842 278.762 143.164 278.44 142.227 278.228C138.833 277.46 136.445 279.296 136.445 282.704C136.445 285.992 138.388 288.616 141.408 289.299C142.766 289.606 143.725 289.271 144.428 288.662V289.79ZM141.97 286.858C140.542 286.535 139.325 285.18 139.325 283.26C139.325 281.268 140.753 280.487 142.344 280.847C143.07 281.011 143.749 281.381 144.428 281.966V286.31C143.819 286.796 142.953 287.081 141.97 286.858ZM150.927 283.245C151.7 283.06 152.472 282.851 153.689 283.126C155.258 283.481 155.726 284.571 155.656 286.355C155.141 285.854 154.204 285.33 153.268 285.119C151.138 284.637 149.429 285.378 149.429 287.754C149.429 289.842 150.81 291.378 152.73 291.813C154.158 292.136 155.281 291.814 155.843 291.125V292.373L158.184 292.903V286.327C158.184 283.471 157.084 281.59 153.97 280.885C152.589 280.573 151.161 280.73 150.248 281.075L150.927 283.245ZM153.619 289.686C152.776 289.495 152.121 288.891 152.121 288.075C152.121 287.163 152.917 286.911 153.806 287.112C154.579 287.287 155.188 287.593 155.656 288.059V289.163C155.328 289.569 154.743 289.94 153.619 289.686ZM160.709 289.37C160.709 292.13 161.599 293.916 163.986 294.456C165.344 294.763 166.468 294.489 167.1 294.104L166.28 291.783C165.906 291.986 165.391 292.206 164.665 292.042C163.776 291.84 163.401 290.987 163.401 289.812V285.875L166.795 286.644V284.052L163.401 283.283V280.283L160.709 279.674V289.37ZM170.198 287.605C170.97 287.42 171.743 287.211 172.96 287.486C174.528 287.841 174.997 288.931 174.926 290.715C174.411 290.215 173.475 289.691 172.539 289.479C170.409 288.997 168.7 289.738 168.7 292.114C168.7 294.202 170.081 295.739 172 296.173C173.428 296.496 174.552 296.175 175.114 295.486V296.734L177.454 297.263V290.687C177.454 287.831 176.354 285.95 173.241 285.246C171.86 284.933 170.432 285.09 169.519 285.436L170.198 287.605ZM172.89 294.047C172.047 293.856 171.392 293.252 171.392 292.436C171.392 291.524 172.188 291.272 173.077 291.473C173.85 291.648 174.458 291.953 174.926 292.419V293.523C174.599 293.929 174.013 294.301 172.89 294.047ZM180.214 296.952C181.174 297.793 182.953 298.772 184.685 299.164C188.383 300 190.701 298.245 190.701 294.693C190.701 291.501 188.828 288.773 185.692 288.063C184.568 287.809 183.561 287.989 182.906 288.369V281.697L180.214 281.088V296.952ZM185.06 290.512C186.581 290.857 187.822 292.169 187.822 294.233C187.822 296.177 186.511 297.009 184.825 296.627C184.076 296.458 183.491 296.157 182.906 295.641V291.057C183.351 290.63 184.123 290.3 185.06 290.512ZM193.858 292.959C194.63 292.774 195.402 292.565 196.62 292.84C198.188 293.195 198.656 294.285 198.586 296.069C198.071 295.568 197.135 295.045 196.198 294.833C194.068 294.351 192.359 295.092 192.359 297.468C192.359 299.556 193.74 301.093 195.66 301.527C197.088 301.85 198.211 301.528 198.773 300.839V302.087L201.114 302.617V296.041C201.114 293.185 200.014 291.304 196.901 290.6C195.52 290.287 194.092 290.444 193.179 290.789L193.858 292.959ZM196.549 299.4C195.707 299.209 195.051 298.605 195.051 297.789C195.051 296.877 195.847 296.625 196.737 296.827C197.509 297.001 198.118 297.307 198.586 297.773V298.877C198.258 299.283 197.673 299.654 196.549 299.4ZM209.211 301.401C209.211 302.073 208.602 302.271 207.83 302.097C206.776 301.858 205.185 300.85 204.553 300.011L203.242 301.514C203.733 302.394 205.7 303.919 207.642 304.358C210.217 304.941 211.903 304.002 211.903 301.866C211.903 298.05 206.215 297.747 206.215 295.947C206.215 295.467 206.706 295.122 207.525 295.308C208.649 295.562 209.749 296.339 210.381 296.986L211.388 295.246C210.732 294.473 209.421 293.433 207.385 292.972C205.208 292.479 203.523 293.274 203.523 295.386C203.523 299.322 209.211 299.649 209.211 301.401ZM222.538 304.441C221.929 304.807 220.853 305.043 219.565 304.752C217.903 304.376 216.639 303.202 216.405 301.517L224.013 303.238C224.13 302.857 224.176 302.46 224.176 301.788C224.176 298.764 221.906 296.258 219.191 295.643C215.726 294.859 213.619 296.903 213.619 300.047C213.619 303.455 215.89 306.224 219.284 306.993C220.759 307.326 222.257 307.233 223.31 306.56L222.538 304.441ZM219.073 297.921C220.618 298.27 221.508 299.504 221.485 300.818L216.311 299.648C216.592 298.295 217.458 297.555 219.073 297.921Z" fill="#6C7991"/>
    <circle r="71.5" transform="matrix(0.978148 0.207912 0 1 420.378 280.949)" fill="white" stroke="#7833FF"/>
    <circle r="71.5" transform="matrix(0.978148 0.207912 0 1 404.727 278.623)" fill="white" stroke="#7833FF"/>
    <circle r="71.5" transform="matrix(0.978148 0.207912 0 1 389.077 276.296)" fill="white" stroke="#7833FF"/>
    <circle r="71" transform="matrix(0.978148 0.207912 0 1 373.427 273.97)" fill="#7833FF" stroke="#7833FF" stroke-width="2"/>
    <path d="M349.964 255.519C349.964 256.791 348.931 257.267 347.57 256.978C346.302 256.708 344.753 255.755 343.79 254.278L342.147 255.945C342.945 257.819 345.41 259.279 347.523 259.728C350.598 260.381 353.016 258.975 353.016 256.143C353.016 250.551 345.574 250.073 345.574 246.593C345.574 245.489 346.443 244.93 347.875 245.234C349.189 245.514 349.988 246.14 350.786 247.101L352.335 245.223C351.349 243.909 349.659 242.854 347.64 242.425C344.447 241.746 342.522 243.449 342.522 245.969C342.522 251.441 349.964 252.207 349.964 255.519ZM363.855 259.911C363.245 260.285 362.165 260.536 360.874 260.262C359.207 259.907 357.94 258.75 357.705 257.068L365.334 258.69C365.452 258.307 365.499 257.909 365.499 257.237C365.499 254.213 363.222 251.737 360.498 251.158C357.024 250.419 354.911 252.49 354.911 255.634C354.911 259.042 357.188 261.782 360.592 262.506C362.071 262.82 363.574 262.707 364.63 262.02L363.855 259.911ZM360.381 253.437C361.93 253.766 362.823 254.988 362.799 256.303L357.611 255.2C357.893 253.844 358.761 253.092 360.381 253.437ZM367.673 263.747L370.373 264.321V257.073C370.678 256.513 371.171 256.09 372.11 256.29C372.673 256.41 372.955 256.565 373.472 256.987L374.434 254.6C374.082 254.261 373.659 254.027 372.791 253.843C371.523 253.573 370.866 253.985 370.373 254.577V253.521L367.673 252.947V263.747ZM385.808 256.801L382.968 256.198L381.137 260.392C380.855 261.029 380.55 261.948 380.362 262.724C380.174 261.844 379.846 260.814 379.564 260.106L377.615 255.06L374.399 254.376L379.259 266.257L381.254 266.681L385.808 256.801ZM395.149 266.563C394.538 266.937 393.458 267.188 392.167 266.913C390.5 266.559 389.233 265.401 388.998 263.719L396.628 265.341C396.745 264.958 396.792 264.56 396.792 263.888C396.792 260.864 394.515 258.388 391.792 257.809C388.317 257.071 386.204 259.142 386.204 262.286C386.204 265.694 388.481 268.434 391.885 269.157C393.364 269.472 394.867 269.359 395.923 268.671L395.149 266.563ZM391.674 260.088C393.224 260.418 394.116 261.639 394.092 262.954L388.904 261.851C389.186 260.495 390.054 259.744 391.674 260.088ZM398.966 270.398L401.666 270.972V263.724C401.971 263.165 402.464 262.742 403.403 262.941C403.967 263.061 404.248 263.217 404.765 263.639L405.727 261.251C405.375 260.912 404.953 260.679 404.084 260.494C402.816 260.225 402.159 260.637 401.666 261.228V260.172L398.966 259.598V270.398ZM337.527 289.339L340.226 289.913V273.113L337.527 272.539V278.803C336.94 278.318 336.259 278.005 335.32 277.806C331.916 277.082 329.521 278.949 329.521 282.357C329.521 285.645 331.47 288.243 334.498 288.887C335.86 289.177 336.822 288.829 337.527 288.211V289.339ZM335.062 286.439C333.63 286.135 332.409 284.795 332.409 282.875C332.409 280.883 333.841 280.083 335.437 280.423C336.165 280.577 336.846 280.938 337.527 281.515V285.859C336.916 286.353 336.048 286.649 335.062 286.439ZM344.045 282.708C344.82 282.513 345.594 282.294 346.815 282.553C348.388 282.888 348.857 283.971 348.787 285.756C348.271 285.263 347.332 284.751 346.393 284.551C344.256 284.097 342.543 284.861 342.543 287.237C342.543 289.325 343.928 290.843 345.853 291.253C347.285 291.557 348.411 291.22 348.975 290.524V291.772L351.322 292.271V285.695C351.322 282.839 350.219 280.973 347.097 280.309C345.712 280.015 344.28 280.19 343.364 280.548L344.045 282.708ZM346.745 289.114C345.9 288.935 345.242 288.339 345.242 287.523C345.242 286.611 346.04 286.349 346.932 286.538C347.707 286.703 348.318 287.001 348.787 287.46V288.564C348.458 288.974 347.871 289.354 346.745 289.114ZM353.855 288.706C353.855 291.466 354.747 293.239 357.142 293.748C358.503 294.038 359.63 293.749 360.264 293.356L359.442 291.045C359.067 291.253 358.55 291.48 357.823 291.325C356.93 291.135 356.555 290.287 356.555 289.111V285.175L359.959 285.899V283.307L356.555 282.583V279.583L353.855 279.01V288.706ZM363.371 286.816C364.146 286.621 364.92 286.402 366.141 286.661C367.714 286.995 368.183 288.079 368.113 289.864C367.597 289.37 366.658 288.859 365.719 288.659C363.582 288.205 361.869 288.969 361.869 291.345C361.869 293.433 363.254 294.951 365.179 295.36C366.611 295.665 367.737 295.328 368.301 294.632V295.88L370.648 296.379V289.803C370.648 286.947 369.545 285.081 366.423 284.417C365.038 284.123 363.606 284.298 362.69 284.656L363.371 286.816ZM366.071 293.222C365.226 293.042 364.568 292.447 364.568 291.631C364.568 290.719 365.366 290.456 366.259 290.646C367.033 290.811 367.644 291.108 368.113 291.568V292.672C367.784 293.082 367.198 293.462 366.071 293.222ZM373.416 296.031C374.378 296.86 376.163 297.815 377.9 298.184C381.609 298.973 383.933 297.187 383.933 293.635C383.933 290.443 382.055 287.74 378.909 287.071C377.782 286.831 376.773 287.025 376.116 287.413V280.741L373.416 280.167V296.031ZM378.275 289.528C379.801 289.853 381.046 291.149 381.046 293.213C381.046 295.157 379.731 296.006 378.041 295.646C377.289 295.487 376.703 295.194 376.116 294.685V290.101C376.562 289.668 377.336 289.329 378.275 289.528ZM387.099 291.86C387.873 291.664 388.648 291.445 389.869 291.705C391.442 292.039 391.911 293.123 391.841 294.908C391.324 294.414 390.385 293.902 389.446 293.703C387.31 293.249 385.596 294.012 385.596 296.388C385.596 298.476 386.981 299.995 388.906 300.404C390.338 300.708 391.465 300.372 392.029 299.676V300.924L394.376 301.423V294.847C394.376 291.991 393.273 290.124 390.151 289.46C388.765 289.166 387.333 289.342 386.418 289.699L387.099 291.86ZM389.798 298.266C388.953 298.086 388.296 297.49 388.296 296.674C388.296 295.762 389.094 295.5 389.986 295.689C390.761 295.854 391.371 296.152 391.841 296.612V297.716C391.512 298.126 390.925 298.505 389.798 298.266ZM402.496 300.101C402.496 300.773 401.886 300.979 401.111 300.814C400.055 300.59 398.458 299.602 397.824 298.772L396.51 300.292C397.003 301.165 398.975 302.664 400.923 303.078C403.506 303.627 405.196 302.666 405.196 300.53C405.196 296.714 399.491 296.486 399.491 294.686C399.491 294.206 399.984 293.855 400.806 294.029C401.933 294.269 403.036 295.031 403.67 295.67L404.679 293.917C404.022 293.153 402.707 292.129 400.665 291.695C398.482 291.231 396.792 292.048 396.792 294.16C396.792 298.096 402.496 298.349 402.496 300.101ZM415.862 302.965C415.251 303.34 414.171 303.59 412.88 303.316C411.213 302.961 409.946 301.804 409.711 300.122L417.341 301.744C417.458 301.361 417.505 300.963 417.505 300.291C417.505 297.267 415.228 294.791 412.505 294.212C409.03 293.473 406.917 295.544 406.917 298.688C406.917 302.096 409.195 304.836 412.598 305.56C414.077 305.874 415.58 305.762 416.636 305.074L415.862 302.965ZM412.387 296.491C413.937 296.82 414.829 298.042 414.805 299.357L409.617 298.254C409.899 296.898 410.767 296.147 412.387 296.491Z" fill="white"/>
    <path d="M178 228L180.887 223H175.113L178 228ZM177.5 109V223.5H178.5V109H177.5Z" fill="#D3DBE6"/>
    <path d="M371 228L373.887 223H368.113L371 228ZM370.5 109V223.5H371.5V109H370.5Z" fill="#D3DBE6"/>
    <rect width="98" height="39" transform="matrix(0.978148 0.207912 0 1 132 126)" fill="#FFEF7F"/>
    <path d="M152.46 151.117C152.46 151.753 151.943 151.991 151.263 151.846C150.629 151.712 149.854 151.235 149.373 150.497L148.551 151.33C148.95 152.267 150.183 152.997 151.239 153.221C152.777 153.548 153.986 152.845 153.986 151.429C153.986 148.633 150.265 148.394 150.265 146.654C150.265 146.102 150.699 145.823 151.415 145.975C152.072 146.115 152.472 146.427 152.871 146.908L153.645 145.969C153.152 145.312 152.307 144.784 151.298 144.57C149.701 144.231 148.739 145.082 148.739 146.342C148.739 149.078 152.46 149.461 152.46 151.117ZM159.405 153.313C159.1 153.5 158.56 153.626 157.915 153.488C157.081 153.311 156.448 152.732 156.33 151.892L160.145 152.702C160.204 152.511 160.227 152.312 160.227 151.976C160.227 150.464 159.089 149.226 157.727 148.936C155.99 148.567 154.933 149.603 154.933 151.175C154.933 152.879 156.072 154.249 157.774 154.61C158.513 154.768 159.265 154.711 159.793 154.368L159.405 153.313ZM157.668 150.076C158.443 150.241 158.889 150.851 158.877 151.509L156.283 150.958C156.424 150.279 156.858 149.904 157.668 150.076ZM161.314 155.231L162.664 155.518V151.894C162.817 151.614 163.063 151.403 163.533 151.502C163.814 151.562 163.955 151.64 164.214 151.851L164.695 150.657C164.519 150.488 164.307 150.371 163.873 150.279C163.239 150.144 162.911 150.35 162.664 150.646V150.118L161.314 149.831V155.231ZM165.663 156.155L167.013 156.442V151.042L165.663 150.755V156.155ZM165.522 148.781C165.522 149.333 165.91 149.728 166.368 149.825C166.755 149.907 167.142 149.678 167.142 149.126C167.142 148.634 166.755 148.239 166.368 148.157C165.91 148.06 165.522 148.289 165.522 148.781ZM169.13 152.884C169.517 152.787 169.905 152.677 170.515 152.807C171.301 152.974 171.536 153.516 171.501 154.408C171.243 154.161 170.773 153.906 170.304 153.806C169.236 153.579 168.379 153.961 168.379 155.149C168.379 156.193 169.071 156.952 170.034 157.156C170.75 157.309 171.313 157.14 171.595 156.792V157.416L172.769 157.666V154.378C172.769 152.95 172.217 152.016 170.656 151.685C169.963 151.537 169.247 151.625 168.79 151.804L169.13 152.884ZM170.48 156.087C170.057 155.997 169.729 155.699 169.729 155.291C169.729 154.835 170.128 154.704 170.574 154.799C170.961 154.881 171.266 155.03 171.501 155.26V155.812C171.337 156.017 171.043 156.207 170.48 156.087ZM174.152 156.472C174.152 157.576 174.587 158.172 175.397 158.344C176.031 158.479 176.488 158.372 176.793 158.185L176.512 157.069C176.347 157.154 176.171 157.213 175.96 157.168C175.643 157.101 175.502 156.807 175.502 156.195V149.847L174.152 149.56V156.472ZM177.86 158.748L179.209 159.035V153.635L177.86 153.348V158.748ZM177.719 151.374C177.719 151.926 178.106 152.32 178.564 152.417C178.951 152.5 179.339 152.27 179.339 151.718C179.339 151.226 178.951 150.832 178.564 150.749C178.106 150.652 177.719 150.882 177.719 151.374ZM180.833 155.276L183.521 155.847L180.657 158.346V159.342L185.352 160.34V159.056L182.547 158.46L185.411 155.949V154.953L180.833 153.98V155.276ZM187.081 156.7C187.468 156.602 187.855 156.492 188.466 156.622C189.252 156.789 189.487 157.331 189.452 158.224C189.193 157.977 188.724 157.721 188.254 157.621C187.186 157.394 186.329 157.776 186.329 158.964C186.329 160.008 187.022 160.767 187.984 160.972C188.7 161.124 189.264 160.956 189.545 160.608V161.232L190.719 161.481V158.193C190.719 156.765 190.168 155.832 188.606 155.5C187.914 155.353 187.198 155.441 186.74 155.619L187.081 156.7ZM188.43 159.903C188.008 159.813 187.679 159.515 187.679 159.107C187.679 158.651 188.078 158.52 188.524 158.615C188.912 158.697 189.217 158.846 189.452 159.076V159.628C189.287 159.833 188.994 160.022 188.43 159.903ZM191.986 159.698C191.986 161.078 192.432 161.965 193.629 162.22C194.31 162.364 194.873 162.22 195.19 162.023L194.779 160.868C194.591 160.972 194.333 161.085 193.969 161.008C193.523 160.913 193.335 160.489 193.335 159.901V157.933L195.037 158.295V156.999L193.335 156.637V155.137L191.986 154.85V159.698ZM196.532 162.717L197.882 163.004V157.604L196.532 157.317V162.717ZM196.391 155.343C196.391 155.895 196.779 156.289 197.237 156.386C197.624 156.469 198.011 156.239 198.011 155.687C198.011 155.195 197.624 154.801 197.237 154.718C196.779 154.621 196.391 154.851 196.391 155.343ZM199.259 160.596C199.259 162.216 200.386 163.668 202.135 164.04C203.884 164.411 205.011 163.439 205.011 161.819C205.011 160.199 203.884 158.747 202.135 158.376C200.386 158.004 199.259 158.976 199.259 160.596ZM200.703 160.903C200.703 159.967 201.337 159.502 202.135 159.672C202.957 159.846 203.579 160.603 203.579 161.515C203.579 162.451 202.969 162.933 202.135 162.756C201.314 162.581 200.703 161.803 200.703 160.903ZM206.179 164.767L207.529 165.054V161.37C207.846 161.114 208.222 161.001 208.679 161.099C209.431 161.258 209.865 161.759 209.865 162.623V165.551L211.215 165.838V162.67C211.215 160.978 210.334 160.154 209.043 159.88C208.409 159.745 207.846 159.914 207.529 160.194V159.654L206.179 159.367V164.767Z" fill="#10162F"/>
    <rect width="111" height="39" transform="matrix(0.978148 0.207912 0 1 325 126)" fill="#BB98FF"/>
    <path d="M342.024 152.619L341.86 152.584V144.184L342.012 144.216C342.357 144.289 342.72 144.363 343.104 144.436C343.871 144.583 344.262 144.658 344.278 144.662C345.874 145.001 347.056 145.668 347.822 146.663C348.534 147.59 348.891 148.634 348.891 149.794C348.891 151.042 348.48 151.987 347.658 152.628C346.844 153.263 345.686 153.421 344.184 153.102C343.871 153.035 343.542 152.961 343.198 152.88C342.861 152.801 342.47 152.713 342.024 152.619ZM344.254 146.037C343.949 145.972 343.632 145.916 343.303 145.871V151.511C343.663 151.603 343.972 151.677 344.231 151.732C345.209 151.94 345.976 151.839 346.531 151.429C347.087 151.019 347.365 150.366 347.365 149.47C347.365 148.614 347.087 147.879 346.531 147.265C345.983 146.652 345.224 146.243 344.254 146.037ZM354.155 153.685L354.543 154.74C354.018 155.076 353.345 155.157 352.524 154.982C351.679 154.803 350.99 154.396 350.458 153.763C349.942 153.141 349.683 152.403 349.683 151.547C349.683 150.747 349.938 150.129 350.446 149.693C350.955 149.257 351.632 149.129 352.477 149.308C353.173 149.456 353.764 149.818 354.249 150.393C354.734 150.968 354.977 151.62 354.977 152.348C354.977 152.668 354.95 152.91 354.895 153.074L351.08 152.264C351.135 152.667 351.303 153.011 351.585 153.295C351.874 153.58 352.234 153.769 352.665 153.86C353.252 153.985 353.748 153.927 354.155 153.685ZM352.418 150.448C351.651 150.285 351.19 150.579 351.033 151.33L353.627 151.881C353.635 151.539 353.525 151.235 353.299 150.971C353.079 150.7 352.786 150.526 352.418 150.448ZM355.888 151.677C355.888 151.173 356.068 150.812 356.428 150.592C356.788 150.373 357.254 150.324 357.825 150.445C358.686 150.628 359.355 150.998 359.832 151.556L359.327 152.433C358.897 151.997 358.42 151.724 357.895 151.612C357.708 151.572 357.551 151.587 357.426 151.656C357.301 151.718 357.238 151.812 357.238 151.94C357.238 152.204 357.571 152.495 358.236 152.812C358.478 152.92 358.693 153.03 358.881 153.142C359.069 153.246 359.261 153.382 359.456 153.552C359.66 153.715 359.816 153.908 359.926 154.132C360.036 154.355 360.09 154.599 360.09 154.863C360.09 155.391 359.895 155.769 359.503 155.998C359.12 156.228 358.604 156.275 357.954 156.137C357.492 156.038 357.042 155.843 356.604 155.55C356.158 155.247 355.873 154.978 355.747 154.744L356.405 153.983C356.553 154.199 356.8 154.407 357.144 154.608C357.496 154.819 357.798 154.951 358.048 155.005C358.353 155.101 358.568 155.047 358.693 154.842C358.819 154.628 358.737 154.415 358.447 154.201C358.33 154.112 358.146 154.005 357.895 153.88C357.653 153.757 357.426 153.636 357.215 153.519C357.011 153.396 356.8 153.251 356.581 153.085C356.369 152.92 356.201 152.72 356.076 152.485C355.951 152.243 355.888 151.973 355.888 151.677ZM365.423 156.08L365.811 157.135C365.286 157.471 364.613 157.552 363.792 157.377C362.947 157.198 362.258 156.791 361.726 156.158C361.209 155.537 360.951 154.798 360.951 153.942C360.951 153.142 361.205 152.524 361.714 152.088C362.223 151.652 362.9 151.524 363.745 151.703C364.441 151.851 365.032 152.213 365.517 152.788C366.002 153.363 366.245 154.015 366.245 154.743C366.245 155.063 366.217 155.305 366.163 155.469L362.348 154.659C362.403 155.062 362.571 155.406 362.853 155.69C363.142 155.975 363.502 156.164 363.932 156.255C364.519 156.38 365.016 156.322 365.423 156.08ZM363.686 152.843C362.919 152.68 362.457 152.974 362.301 153.725L364.895 154.276C364.903 153.934 364.793 153.63 364.566 153.366C364.347 153.096 364.054 152.921 363.686 152.843ZM368.682 158.285L367.332 157.998V152.598L368.682 152.885V153.413C368.971 153.058 369.374 152.936 369.891 153.046C370.259 153.124 370.533 153.25 370.713 153.425L370.231 154.618C370.004 154.434 369.777 154.318 369.55 154.27C369.159 154.186 368.87 154.317 368.682 154.661V158.285ZM373.031 159.209L371.681 158.922V153.522L373.031 153.809V159.209ZM371.54 151.548C371.54 151.308 371.618 151.133 371.775 151.022C371.939 150.905 372.143 150.873 372.385 150.924C372.597 150.969 372.777 151.083 372.925 151.267C373.082 151.452 373.16 151.661 373.16 151.893C373.16 152.149 373.082 152.34 372.925 152.467C372.777 152.595 372.597 152.637 372.385 152.592C372.143 152.541 371.939 152.417 371.775 152.222C371.618 152.029 371.54 151.804 371.54 151.548ZM375.148 155.651L374.807 154.571C375.379 154.348 376.001 154.309 376.674 154.452C377.409 154.608 377.945 154.906 378.282 155.345C378.618 155.785 378.786 156.385 378.786 157.145V160.433L377.613 160.183V159.559C377.3 159.957 376.779 160.078 376.052 159.923C375.551 159.817 375.148 159.583 374.843 159.222C374.545 158.855 374.397 158.42 374.397 157.916C374.397 157.356 374.573 156.961 374.925 156.732C375.277 156.503 375.742 156.45 376.322 156.573C376.799 156.674 377.198 156.875 377.519 157.175C377.534 156.699 377.464 156.332 377.307 156.074C377.159 155.819 376.901 155.652 376.533 155.574C376.126 155.487 375.664 155.513 375.148 155.651ZM376.498 158.854C376.951 158.951 377.292 158.859 377.519 158.579V158.027C377.3 157.805 376.991 157.651 376.591 157.566C376.341 157.513 376.138 157.53 375.981 157.616C375.825 157.703 375.746 157.85 375.746 158.058C375.746 158.25 375.817 158.421 375.958 158.571C376.099 158.713 376.278 158.808 376.498 158.854ZM380.17 159.239V152.327L381.52 152.614V158.962C381.52 159.546 381.673 159.87 381.978 159.935C382.15 159.972 382.334 159.939 382.53 159.836L382.811 160.952C382.443 161.178 381.978 161.231 381.414 161.111C380.585 160.935 380.17 160.311 380.17 159.239ZM385.227 161.802L383.877 161.515V156.115L385.227 156.402V161.802ZM383.736 154.141C383.736 153.901 383.815 153.725 383.971 153.615C384.136 153.498 384.339 153.465 384.582 153.516C384.793 153.561 384.973 153.676 385.122 153.859C385.278 154.045 385.356 154.253 385.356 154.485C385.356 154.741 385.278 154.933 385.122 155.059C384.973 155.188 384.793 155.229 384.582 155.184C384.339 155.133 384.136 155.01 383.971 154.815C383.815 154.621 383.736 154.397 383.736 154.141ZM389.539 158.614L386.851 158.043V156.747L391.429 157.72V158.716L388.565 161.227L391.37 161.823V163.107L386.675 162.109V161.113L389.539 158.614ZM393.098 159.467L392.758 158.386C393.329 158.164 393.951 158.124 394.624 158.267C395.36 158.423 395.896 158.721 396.232 159.161C396.569 159.6 396.737 160.2 396.737 160.96V164.248L395.563 163.999V163.375C395.25 163.772 394.73 163.894 394.002 163.739C393.501 163.632 393.098 163.399 392.793 163.038C392.496 162.671 392.347 162.235 392.347 161.731C392.347 161.171 392.523 160.776 392.875 160.547C393.227 160.318 393.693 160.265 394.272 160.388C394.749 160.49 395.148 160.691 395.469 160.991C395.485 160.514 395.415 160.147 395.258 159.89C395.109 159.634 394.851 159.467 394.483 159.389C394.076 159.303 393.615 159.329 393.098 159.467ZM394.448 162.67C394.902 162.766 395.242 162.674 395.469 162.395V161.843C395.25 161.62 394.941 161.466 394.542 161.382C394.292 161.328 394.088 161.345 393.932 161.432C393.775 161.519 393.697 161.666 393.697 161.874C393.697 162.066 393.767 162.237 393.908 162.387C394.049 162.529 394.229 162.623 394.448 162.67ZM398.003 162.465V157.617L399.353 157.904V159.404L401.055 159.766V161.062L399.353 160.7V162.668C399.353 163.316 399.565 163.685 399.987 163.775C400.253 163.832 400.523 163.785 400.797 163.635L401.208 164.79C400.777 165.051 400.257 165.116 399.647 164.987C399.075 164.865 398.657 164.6 398.391 164.192C398.133 163.777 398.003 163.201 398.003 162.465ZM403.9 165.771L402.55 165.484V160.084L403.9 160.371V165.771ZM402.409 158.11C402.409 157.87 402.487 157.694 402.644 157.584C402.808 157.467 403.012 157.434 403.254 157.485C403.466 157.53 403.646 157.645 403.794 157.828C403.951 158.014 404.029 158.222 404.029 158.454C404.029 158.71 403.951 158.902 403.794 159.028C403.646 159.157 403.466 159.198 403.254 159.153C403.012 159.102 402.808 158.979 402.644 158.784C402.487 158.59 402.409 158.366 402.409 158.11ZM406.064 165.571C405.539 164.923 405.277 164.187 405.277 163.363C405.277 162.539 405.539 161.919 406.064 161.503C406.588 161.078 407.284 160.958 408.153 161.143C409.014 161.326 409.706 161.741 410.231 162.388C410.763 163.029 411.029 163.762 411.029 164.586C411.029 165.402 410.763 166.025 410.231 166.456C409.698 166.871 409.006 166.988 408.153 166.807C407.284 166.622 406.588 166.21 406.064 165.571ZM407.132 162.654C406.858 162.883 406.721 163.222 406.721 163.67C406.721 164.118 406.854 164.519 407.12 164.871C407.394 165.217 407.738 165.435 408.153 165.523C408.576 165.613 408.92 165.542 409.186 165.31C409.46 165.08 409.597 164.738 409.597 164.282C409.597 163.834 409.46 163.436 409.186 163.09C408.912 162.744 408.568 162.527 408.153 162.439C407.746 162.352 407.406 162.424 407.132 162.654ZM413.547 167.821L412.197 167.534V162.134L413.547 162.421V162.961C413.938 162.62 414.443 162.516 415.061 162.647C416.509 162.955 417.232 163.885 417.232 165.437V168.605L415.883 168.318V165.39C415.883 164.542 415.487 164.034 414.697 163.866C414.267 163.774 413.883 163.865 413.547 164.137V167.821Z" fill="#10162F"/>
    <rect x="0.978148" y="1.20791" width="142" height="94" transform="matrix(0.978148 0.207912 0 1 110.021 -0.203368)" fill="white" stroke="#FFE000" stroke-width="2"/>
    <path d="M147.923 65.3939V48.5939L145.223 48.02V59.708L136.185 46.0989L133.884 45.6099V62.4099L136.584 62.9838V51.3438L145.622 64.9049L147.923 65.3939ZM159.989 64.9346C159.379 65.3089 158.299 65.5594 157.008 65.2849C155.341 64.9306 154.073 63.7732 153.838 62.0913L161.468 63.713C161.585 63.3299 161.632 62.9319 161.632 62.2599C161.632 59.2359 159.355 56.7599 156.632 56.1811C153.158 55.4426 151.045 57.5135 151.045 60.6575C151.045 64.0655 153.322 66.8055 156.726 67.529C158.205 67.8434 159.707 67.7308 160.764 67.0433L159.989 64.9346ZM156.515 58.4601C158.064 58.7895 158.956 60.0111 158.933 61.3261L153.744 60.2233C154.026 58.8672 154.895 58.1158 156.515 58.4601ZM179.113 61.2235L176.39 60.6447L174.84 66.0994C174.723 66.6024 174.605 67.1055 174.511 67.5895C174.394 67.0605 174.277 66.5316 174.112 66.0167L172.07 59.7265L169.676 59.2176L167.704 64.6784C167.492 65.2335 167.422 65.6026 167.304 66.0336C167.211 65.5096 167.164 65.0917 166.999 64.5287L165.309 58.2895L162.422 57.6757L165.849 69.2522L168.15 69.7412L170.38 64.2633C170.544 63.8662 170.661 63.4832 170.755 63.0231C170.873 63.4561 170.943 63.927 171.108 64.37L173.361 70.849L175.779 71.363L179.113 61.2235ZM189.363 74.2022V68.1302C190.067 68.3519 191.006 68.5515 191.499 68.6563C195.419 69.4896 197.509 67.3417 197.509 64.4857C197.509 61.7257 195.983 58.7613 191.147 57.7334C189.996 57.4889 187.391 56.983 186.475 56.7884V73.5884L189.363 74.2022ZM191.428 60.5533C193.4 60.9724 194.457 62.061 194.457 63.813C194.457 65.685 193.119 66.2406 191.405 65.8763C190.748 65.7366 190.043 65.5389 189.363 65.3222V60.1622C190.137 60.3028 190.841 60.4285 191.428 60.5533ZM198.019 70.6421C198.019 73.8821 200.272 76.7851 203.77 77.5286C207.268 78.2721 209.522 76.3272 209.522 73.0872C209.522 69.8472 207.268 66.9441 203.77 66.2006C200.272 65.4571 198.019 67.4021 198.019 70.6421ZM200.906 71.2559C200.906 69.3839 202.174 68.4533 203.77 68.7926C205.414 69.1419 206.658 70.6544 206.658 72.4784C206.658 74.3504 205.437 75.3149 203.77 74.9606C202.127 74.6113 200.906 73.0559 200.906 71.2559ZM217.211 77.0735C217.211 77.7455 216.6 77.9517 215.825 77.7871C214.769 77.5625 213.173 76.5752 212.539 75.7445L211.224 77.265C211.717 78.1378 213.689 79.637 215.638 80.0511C218.22 80.6 219.91 79.6393 219.91 77.5033C219.91 73.6873 214.206 73.4588 214.206 71.6588C214.206 71.1788 214.699 70.8275 215.52 71.0022C216.647 71.2417 217.75 72.0042 218.384 72.643L219.394 70.8895C218.736 70.1258 217.422 69.1024 215.379 68.6683C213.196 68.2042 211.506 69.0209 211.506 71.1329C211.506 75.0689 217.211 75.3215 217.211 77.0735ZM222.054 77.0471C222.054 79.8071 222.946 81.5807 225.341 82.0896C226.703 82.3791 227.829 82.0906 228.463 81.6973L227.642 79.3866C227.266 79.5948 226.75 79.821 226.022 79.6663C225.13 79.4767 224.754 78.6289 224.754 77.4529V73.5169L228.158 74.2404V71.6484L224.754 70.9249V67.9249L222.054 67.3511V77.0471Z" fill="#6C7991"/>
    <rect x="0.978148" y="1.20791" width="142" height="94" transform="matrix(0.978148 0.207912 0 1 303.021 -0.203368)" fill="white" stroke="#7833FF" stroke-width="2"/>
    <path d="M350.453 61.956C350.453 63.228 349.42 63.7044 348.059 63.415C346.791 63.1455 345.242 62.1922 344.279 60.7156L342.636 62.3823C343.434 64.256 345.899 65.7159 348.012 66.165C351.087 66.8187 353.505 65.4126 353.505 62.5806C353.505 56.9886 346.063 56.5109 346.063 53.0309C346.063 51.9269 346.932 51.3675 348.364 51.6719C349.679 51.9513 350.477 52.577 351.275 53.5386L352.824 51.6599C351.838 50.3464 350.148 49.2911 348.129 48.862C344.937 48.1833 343.012 49.8862 343.012 52.4062C343.012 57.8782 350.453 58.644 350.453 61.956ZM364.345 66.3486C363.734 66.7229 362.654 66.9734 361.363 66.6989C359.696 66.3447 358.429 65.1872 358.194 63.5053L365.824 65.127C365.941 64.744 365.988 64.3459 365.988 63.6739C365.988 60.6499 363.711 58.1739 360.988 57.5951C357.513 56.8566 355.4 58.9275 355.4 62.0715C355.4 65.4795 357.678 68.2195 361.081 68.9431C362.56 69.2574 364.063 69.1448 365.119 68.4573L364.345 66.3486ZM360.87 59.8741C362.42 60.2035 363.312 61.4251 363.288 62.7401L358.1 61.6373C358.382 60.2812 359.25 59.5298 360.87 59.8741ZM368.162 70.1841L370.862 70.758V63.51C371.167 62.9508 371.66 62.5276 372.599 62.7272C373.163 62.847 373.444 63.0029 373.961 63.4246L374.923 61.0372C374.571 60.6984 374.149 60.4645 373.28 60.2799C372.012 60.0105 371.355 60.4228 370.862 61.014V59.958L368.162 59.3841V70.1841ZM386.297 63.2389L383.457 62.6351L381.626 66.8299C381.344 67.466 381.039 68.3852 380.851 69.1612C380.663 68.2813 380.335 67.2515 380.053 66.5436L378.105 61.4974L374.888 60.8138L379.748 72.6947L381.743 73.1189L386.297 63.2389ZM395.638 73.0002C395.027 73.3745 393.947 73.6249 392.656 73.3505C390.989 72.9962 389.722 71.8387 389.487 70.1568L397.117 71.7786C397.234 71.3955 397.281 70.9975 397.281 70.3255C397.281 67.3015 395.004 64.8255 392.281 64.2466C388.806 63.5081 386.693 65.5791 386.693 68.7231C386.693 72.1311 388.971 74.8711 392.375 75.5946C393.854 75.909 395.356 75.7963 396.412 75.1089L395.638 73.0002ZM392.163 66.5257C393.713 66.855 394.605 68.0766 394.581 69.3917L389.393 68.2889C389.675 66.9328 390.543 66.1814 392.163 66.5257ZM399.455 76.8357L402.155 77.4095V70.1615C402.46 69.6024 402.953 69.1792 403.892 69.3788C404.456 69.4985 404.737 69.6544 405.254 70.0762L406.216 67.6888C405.864 67.3499 405.442 67.1161 404.573 66.9315C403.305 66.662 402.648 67.0743 402.155 67.6655V66.6095L399.455 66.0357V76.8357Z" fill="#7833FF"/>
</svg>
