<svg width="599" height="630" viewBox="0 0 599 630" fill="none" xmlns="http://www.w3.org/2000/svg">
    <g clip-path="url(#clip0_289_521)">
        <path d="M92.768 40H95.72V23.2H82.328V40H85.28V25.96H92.768V40ZM98.9109 34.6C98.9109 37.84 101.215 40.264 104.791 40.264C108.367 40.264 110.671 37.84 110.671 34.6C110.671 31.36 108.367 28.936 104.791 28.936C101.215 28.936 98.9109 31.36 98.9109 34.6ZM101.863 34.6C101.863 32.728 103.159 31.528 104.791 31.528C106.471 31.528 107.743 32.776 107.743 34.6C107.743 36.472 106.495 37.696 104.791 37.696C103.111 37.696 101.863 36.4 101.863 34.6ZM121.243 36.376C120.547 37.144 119.635 37.696 118.459 37.696C116.827 37.696 115.339 36.52 115.339 34.6C115.339 32.704 116.803 31.528 118.339 31.528C119.323 31.528 120.211 31.792 121.027 32.584L122.323 30.4C121.315 29.392 119.755 28.936 117.979 28.936C114.691 28.936 112.387 31.456 112.387 34.6C112.387 38.008 114.739 40.264 118.243 40.264C119.995 40.264 121.627 39.616 122.539 38.392L121.243 36.376ZM123.416 31.96H126.968V40H129.728V31.96H133.256V29.2H123.416V31.96Z" fill="#10162F"/>
        <path d="M79.52 76.96L80.528 77.328L85.84 63.008L84.848 62.64L79.52 76.96ZM84.8794 76.96L85.8874 77.328L91.1994 63.008L90.2074 62.64L84.8794 76.96ZM97.4068 72.032C96.9268 72.576 96.2068 72.96 95.3428 72.96C93.9188 72.96 92.7508 71.984 92.7508 70.4C92.7508 68.88 93.9188 67.84 95.2148 67.84C95.9668 67.84 96.6708 68.032 97.2788 68.592L97.8708 67.584C97.1988 66.912 96.1908 66.64 95.0388 66.64C92.9268 66.64 91.3908 68.304 91.3908 70.4C91.3908 72.672 92.9588 74.16 95.2468 74.16C96.3508 74.16 97.4068 73.744 98.0148 72.96L97.4068 72.032ZM98.8126 70.4C98.8126 72.56 100.349 74.16 102.653 74.16C104.957 74.16 106.493 72.56 106.493 70.4C106.493 68.24 104.957 66.64 102.653 66.64C100.349 66.64 98.8126 68.24 98.8126 70.4ZM100.173 70.4C100.173 68.88 101.245 67.84 102.653 67.84C104.093 67.84 105.133 68.896 105.133 70.4C105.133 71.936 104.093 72.96 102.653 72.96C101.213 72.96 100.173 71.904 100.173 70.4ZM113.876 72.032C113.396 72.576 112.676 72.96 111.812 72.96C110.388 72.96 109.22 71.984 109.22 70.4C109.22 68.88 110.388 67.84 111.684 67.84C112.436 67.84 113.14 68.032 113.748 68.592L114.34 67.584C113.668 66.912 112.66 66.64 111.508 66.64C109.396 66.64 107.86 68.304 107.86 70.4C107.86 72.672 109.428 74.16 111.716 74.16C112.82 74.16 113.876 73.744 114.484 72.96L113.876 72.032ZM115.146 68.08H117.786V74H119.066V68.08H121.706V66.8H115.146V68.08ZM123.489 68.32C124.065 68.016 124.593 67.792 125.473 67.792C126.897 67.792 127.105 68.72 127.105 70.064C126.625 69.712 125.873 69.6 125.313 69.6C123.761 69.6 122.593 70.416 122.593 71.888C122.593 73.28 123.489 74.112 124.801 74.112C125.985 74.112 126.673 73.616 127.105 73.072V74H128.321V69.584C128.321 67.712 127.601 66.64 125.553 66.64C124.657 66.64 123.793 66.896 123.153 67.296L123.489 68.32ZM125.249 72.96C124.417 72.96 123.953 72.512 123.953 71.824C123.953 70.992 124.721 70.64 125.489 70.64C126.113 70.64 126.657 70.8 127.105 71.12V72.032C126.737 72.464 126.193 72.96 125.249 72.96ZM130.465 74C131.121 74 132.209 74.064 133.105 74.064C135.345 74.064 136.417 73.328 136.417 71.968C136.417 71.072 135.889 70.48 134.737 70.272V70.24C135.601 70.112 136.177 69.44 136.177 68.592C136.177 67.296 135.089 66.736 133.073 66.736C132.033 66.736 131.089 66.8 130.465 66.8V74ZM133.281 70.768C134.433 70.768 135.057 71.12 135.057 71.872C135.057 72.624 134.401 73.024 133.217 73.024C132.641 73.024 132.129 72.992 131.745 72.976V70.768H133.281ZM133.169 67.776C134.097 67.776 134.817 68.064 134.817 68.848C134.817 69.552 134.209 69.968 133.361 69.968H131.745V67.824C132.065 67.808 132.593 67.776 133.169 67.776ZM143.299 74H144.579V66.8H139.571L139.443 69.04C139.267 72.368 138.243 72.896 137.699 72.848L137.795 74.096C139.283 74.096 140.371 73.392 140.691 69.296L140.771 68.08H143.299V74ZM150.038 66.8C147.638 66.8 146.822 67.968 146.822 69.2C146.822 70.384 147.638 71.104 148.374 71.28L146.294 74H147.846L149.606 71.6H150.998V74H152.278V66.8H150.038ZM148.182 69.232C148.182 68.56 148.63 68 149.83 68H150.998V70.4H149.526C148.886 70.4 148.182 69.968 148.182 69.232ZM154.605 74H155.965V70.96H157.517C157.741 72.832 159.133 74.16 161.165 74.16C163.389 74.16 164.925 72.56 164.925 70.4C164.925 68.24 163.421 66.64 161.165 66.64C159.197 66.64 157.821 67.904 157.533 69.68H155.965V66.8H154.605V74ZM158.925 70.4C158.925 68.912 159.869 67.92 161.213 67.92C162.589 67.92 163.485 68.928 163.485 70.4C163.485 71.904 162.541 72.88 161.213 72.88C159.885 72.88 158.925 71.92 158.925 70.4ZM166.761 74H175.881V75.76H177.081V72.8H175.881V66.8H174.601V72.8H171.961V66.8H170.681V72.8H168.041V66.8H166.761V74ZM179.76 74L183.92 68.64V74H185.2V66.8H183.92L179.76 72.16V66.8H178.48V74H179.76ZM193.207 72.208C192.743 72.64 191.927 72.96 190.999 72.96C189.591 72.96 188.599 72.16 188.487 70.8H194.023C194.071 70.576 194.103 70.288 194.103 69.936C194.103 67.952 192.615 66.64 190.759 66.64C188.391 66.64 187.047 68.304 187.047 70.4C187.047 72.672 188.567 74.16 190.903 74.16C191.863 74.16 192.903 73.856 193.607 73.216L193.207 72.208ZM190.695 67.84C191.943 67.84 192.711 68.576 192.775 69.76H188.407C188.551 68.656 189.383 67.84 190.695 67.84Z" fill="#10162F"/>
        <rect width="84" height="52" transform="translate(80 97)" fill="#7833FF"/>
        <path d="M92.328 130H95.28V122.824H98.088C98.616 127.36 102.072 130.264 106.344 130.264C111.336 130.264 114.864 126.64 114.864 121.6C114.864 116.368 111.336 112.936 106.344 112.936C101.88 112.936 98.76 115.96 98.136 120.064H95.28V113.2H92.328V130ZM101.136 121.6C101.136 118.12 103.416 115.696 106.44 115.696C109.608 115.696 111.744 118.12 111.744 121.6C111.744 124.912 109.968 127.504 106.44 127.504C103.488 127.504 101.136 124.96 101.136 121.6ZM121.297 130.264C124.225 130.264 126.193 129.016 126.193 127C126.193 125.752 125.425 124.744 123.913 124.456V124.408C125.185 123.976 125.905 123.04 125.905 122.008C125.905 120.136 124.441 118.936 121.585 118.936C119.545 118.936 117.937 119.608 116.953 120.76L118.105 122.416C118.777 121.84 119.809 121.168 121.057 121.168C122.257 121.168 122.953 121.6 122.953 122.344C122.953 123.04 122.425 123.664 121.513 123.664H119.617V125.512H121.633C122.689 125.512 123.265 126.016 123.265 126.736C123.265 127.504 122.497 128.056 121.057 128.056C120.025 128.056 118.657 127.456 118.009 126.736L116.593 128.464C117.385 129.472 119.377 130.264 121.297 130.264ZM137.274 126.976C136.65 127.48 135.546 127.96 134.226 127.96C132.522 127.96 131.226 127.072 130.986 125.44H138.786C138.906 125.032 138.954 124.624 138.954 123.952C138.954 120.928 136.626 118.936 133.842 118.936C130.29 118.936 128.13 121.456 128.13 124.6C128.13 128.008 130.458 130.264 133.938 130.264C135.45 130.264 136.986 129.832 138.066 128.92L137.274 126.976ZM133.722 121.24C135.306 121.24 136.218 122.272 136.194 123.592H130.89C131.178 122.176 132.066 121.24 133.722 121.24ZM141.177 134.8H143.937V129.736C144.561 130.096 145.497 130.264 146.457 130.264C149.913 130.264 152.169 127.72 152.169 124.432C152.169 121.24 150.249 118.936 147.273 118.936C145.881 118.936 144.609 119.512 143.937 120.232V119.2H141.177V134.8ZM146.409 121.528C148.233 121.528 149.241 122.776 149.241 124.504C149.241 126.304 148.137 127.696 146.217 127.696C145.305 127.696 144.681 127.552 143.937 127.072V122.704C144.609 121.96 145.473 121.528 146.409 121.528Z" fill="white"/>
        <rect width="88" height="52" transform="translate(80 157)" fill="#7833FF"/>
        <path d="M92.328 189.976C93.312 190.048 95.472 190.096 97.008 190.096C100.56 190.096 103.248 188.512 103.248 185.056C103.248 182.824 101.952 181.552 100.296 181.144V181.096C101.736 180.424 102.696 179.2 102.696 177.28C102.696 174.952 101.184 173.128 97.176 173.128C95.496 173.128 93.264 173.2 92.328 173.248V189.976ZM97.368 182.776C99.216 182.776 100.296 183.496 100.296 184.912C100.296 186.496 99.216 187.336 97.224 187.336C96.384 187.336 95.688 187.264 95.28 187.216V182.776H97.368ZM97.128 175.888C98.712 175.888 99.768 176.608 99.768 177.976C99.768 179.512 98.64 180.208 97.272 180.208H95.28V175.96C95.808 175.912 96.456 175.888 97.128 175.888ZM106.349 194.8H109.109V189.736C109.733 190.096 110.669 190.264 111.629 190.264C115.085 190.264 117.341 187.72 117.341 184.432C117.341 181.24 115.421 178.936 112.445 178.936C111.053 178.936 109.781 179.512 109.109 180.232V179.2H106.349V194.8ZM111.581 181.528C113.405 181.528 114.413 182.776 114.413 184.504C114.413 186.304 113.309 187.696 111.389 187.696C110.477 187.696 109.853 187.552 109.109 187.072V182.704C109.781 181.96 110.645 181.528 111.581 181.528ZM128.203 186.976C127.579 187.48 126.475 187.96 125.155 187.96C123.451 187.96 122.155 187.072 121.915 185.44H129.715C129.835 185.032 129.883 184.624 129.883 183.952C129.883 180.928 127.555 178.936 124.771 178.936C121.219 178.936 119.059 181.456 119.059 184.6C119.059 188.008 121.387 190.264 124.867 190.264C126.379 190.264 127.915 189.832 128.995 188.92L128.203 186.976ZM124.651 181.24C126.235 181.24 127.147 182.272 127.123 183.592H121.819C122.107 182.176 122.995 181.24 124.651 181.24ZM132.106 190H134.866V183.4L138.154 187.432H138.226L141.418 183.4V190H144.178V179.2H141.754L138.274 183.712L134.602 179.2H132.106V190ZM152.527 179.2C148.639 179.2 147.151 180.952 147.151 183.04C147.151 184.816 148.303 185.824 149.239 186.16L146.359 190H149.527L151.759 186.76H153.295V190H156.055V179.2H152.527ZM150.103 183.232C150.103 182.416 150.727 181.6 152.071 181.6H153.295V184.72H151.855C150.991 184.72 150.103 184.12 150.103 183.232Z" fill="white"/>
        <rect width="122" height="52" transform="translate(80 217)" fill="#7833FF"/>
        <path d="M92.328 250H95.28V241.336L102.144 250H105.888L98.544 241.024L105.456 233.2H101.904L95.28 241.168V233.2H92.328V250ZM108.501 241.984C109.293 241.624 110.085 241.24 111.333 241.24C112.941 241.24 113.421 242.224 113.349 244.024C112.821 243.64 111.861 243.328 110.901 243.328C108.717 243.328 106.965 244.456 106.965 246.832C106.965 248.92 108.381 250.144 110.349 250.144C111.813 250.144 112.965 249.568 113.541 248.752V250H115.941V243.424C115.941 240.568 114.813 238.936 111.621 238.936C110.205 238.936 108.741 239.416 107.805 239.968L108.501 241.984ZM111.261 247.816C110.397 247.816 109.725 247.36 109.725 246.544C109.725 245.632 110.541 245.2 111.453 245.2C112.245 245.2 112.869 245.368 113.349 245.728V246.832C113.013 247.312 112.413 247.816 111.261 247.816ZM118.77 254.8H121.53V249.736C122.154 250.096 123.09 250.264 124.05 250.264C127.506 250.264 129.762 247.72 129.762 244.432C129.762 241.24 127.842 238.936 124.866 238.936C123.474 238.936 122.202 239.512 121.53 240.232V239.2H118.77V254.8ZM124.002 241.528C125.826 241.528 126.834 242.776 126.834 244.504C126.834 246.304 125.73 247.696 123.81 247.696C122.898 247.696 122.274 247.552 121.53 247.072V242.704C122.202 241.96 123.066 241.528 124.002 241.528ZM130.603 241.96H134.155V250H136.915V241.96H140.443V239.2H130.603V241.96ZM145.179 250L150.219 243.16V250H152.979V239.2H150.219L145.179 246.04V239.2H142.419V250H145.179ZM163.547 250H166.307V239.2H163.547V243.28H158.819V239.2H156.059V250H158.819V245.872H163.547V250ZM179.596 239.2H176.116L172.228 244.552L176.5 250H180.1L175.444 244.336L179.596 239.2ZM169.372 250H172.132V239.2H169.372V250ZM182.564 241.984C183.355 241.624 184.148 241.24 185.396 241.24C187.004 241.24 187.484 242.224 187.412 244.024C186.884 243.64 185.924 243.328 184.964 243.328C182.78 243.328 181.028 244.456 181.028 246.832C181.028 248.92 182.444 250.144 184.412 250.144C185.876 250.144 187.028 249.568 187.604 248.752V250H190.004V243.424C190.004 240.568 188.876 238.936 185.684 238.936C184.268 238.936 182.804 239.416 181.868 239.968L182.564 241.984ZM185.324 247.816C184.46 247.816 183.788 247.36 183.788 246.544C183.788 245.632 184.604 245.2 185.516 245.2C186.308 245.2 186.932 245.368 187.412 245.728V246.832C187.076 247.312 186.476 247.816 185.324 247.816Z" fill="white"/>
        <rect width="78" height="52" transform="translate(80 277)" fill="#7833FF"/>
        <path d="M90.24 295.96H95.688V310H98.64V295.96H104.088V293.2H90.24V295.96ZM111.164 306.976C110.54 307.48 109.436 307.96 108.116 307.96C106.412 307.96 105.116 307.072 104.876 305.44H112.676C112.796 305.032 112.844 304.624 112.844 303.952C112.844 300.928 110.516 298.936 107.732 298.936C104.18 298.936 102.02 301.456 102.02 304.6C102.02 308.008 104.348 310.264 107.828 310.264C109.34 310.264 110.876 309.832 111.956 308.92L111.164 306.976ZM107.612 301.24C109.196 301.24 110.108 302.272 110.084 303.592H104.78C105.068 302.176 105.956 301.24 107.612 301.24ZM125.291 299.2H121.811L117.923 304.552L122.195 310H125.795L121.139 304.336L125.291 299.2ZM115.067 310H117.827V299.2H115.067V310ZM134.947 306.376C134.251 307.144 133.339 307.696 132.163 307.696C130.531 307.696 129.043 306.52 129.043 304.6C129.043 302.704 130.507 301.528 132.043 301.528C133.027 301.528 133.915 301.792 134.731 302.584L136.027 300.4C135.019 299.392 133.459 298.936 131.683 298.936C128.395 298.936 126.091 301.456 126.091 304.6C126.091 308.008 128.443 310.264 131.947 310.264C133.699 310.264 135.331 309.616 136.243 308.392L134.947 306.376ZM137.119 301.96H140.671V310H143.431V301.96H146.959V299.2H137.119V301.96Z" fill="white"/>
        <rect width="167" height="52" transform="translate(80 337)" fill="#7833FF"/>
        <path d="M92.328 370H95.28V361.336L102.144 370H105.888L98.544 361.024L105.456 353.2H101.904L95.28 361.168V353.2H92.328V370ZM105.911 364.6C105.911 367.84 108.215 370.264 111.791 370.264C115.367 370.264 117.671 367.84 117.671 364.6C117.671 361.36 115.367 358.936 111.791 358.936C108.215 358.936 105.911 361.36 105.911 364.6ZM108.863 364.6C108.863 362.728 110.159 361.528 111.791 361.528C113.471 361.528 114.743 362.776 114.743 364.6C114.743 366.472 113.495 367.696 111.791 367.696C110.111 367.696 108.863 366.4 108.863 364.6ZM120.059 370H122.819V363.4L126.107 367.432H126.179L129.371 363.4V370H132.131V359.2H129.707L126.227 363.712L122.555 359.2H120.059V370ZM135.2 370H137.96V363.4L141.248 367.432H141.32L144.512 363.4V370H147.272V359.2H144.848L141.368 363.712L137.696 359.2H135.2V370ZM158.813 366.976C158.189 367.48 157.085 367.96 155.765 367.96C154.061 367.96 152.765 367.072 152.525 365.44H160.325C160.445 365.032 160.493 364.624 160.493 363.952C160.493 360.928 158.165 358.936 155.381 358.936C151.829 358.936 149.669 361.456 149.669 364.6C149.669 368.008 151.997 370.264 155.477 370.264C156.989 370.264 158.525 369.832 159.605 368.92L158.813 366.976ZM155.261 361.24C156.845 361.24 157.757 362.272 157.733 363.592H152.429C152.717 362.176 153.605 361.24 155.261 361.24ZM170.204 370H172.964V359.2H170.204V363.28H165.476V359.2H162.716V370H165.476V365.872H170.204V370ZM174.9 361.96H178.452V370H181.212V361.96H184.74V359.2H174.9V361.96ZM187.556 361.984C188.348 361.624 189.14 361.24 190.388 361.24C191.996 361.24 192.476 362.224 192.404 364.024C191.876 363.64 190.916 363.328 189.956 363.328C187.772 363.328 186.02 364.456 186.02 366.832C186.02 368.92 187.436 370.144 189.404 370.144C190.868 370.144 192.02 369.568 192.596 368.752V370H194.996V363.424C194.996 360.568 193.868 358.936 190.676 358.936C189.26 358.936 187.796 359.416 186.86 359.968L187.556 361.984ZM190.316 367.816C189.452 367.816 188.78 367.36 188.78 366.544C188.78 365.632 189.596 365.2 190.508 365.2C191.3 365.2 191.924 365.368 192.404 365.728V366.832C192.068 367.312 191.468 367.816 190.316 367.816ZM197.825 374.8H200.585V369.736C201.209 370.096 202.145 370.264 203.105 370.264C206.561 370.264 208.817 367.72 208.817 364.432C208.817 361.24 206.897 358.936 203.921 358.936C202.529 358.936 201.257 359.512 200.585 360.232V359.2H197.825V374.8ZM203.057 361.528C204.881 361.528 205.889 362.776 205.889 364.504C205.889 366.304 204.785 367.696 202.865 367.696C201.953 367.696 201.329 367.552 200.585 367.072V362.704C201.257 361.96 202.121 361.528 203.057 361.528ZM213.968 370L219.008 363.16V370H221.768V359.2H219.008L213.968 366.04V359.2H211.208V370H213.968ZM227.609 370L232.649 363.16V370H235.409V359.2H232.649L227.609 366.04V359.2H224.849V370H227.609Z" fill="white"/>
        <rect width="94" height="44" transform="translate(80 457)" fill="white"/>
        <path d="M89.52 486.96L90.528 487.328L95.84 473.008L94.848 472.64L89.52 486.96ZM94.8794 486.96L95.8874 487.328L101.199 473.008L100.207 472.64L94.8794 486.96ZM105.471 487.2H106.751V484.16H106.959C109.487 484.16 110.831 482.544 110.831 480.4C110.831 478.288 109.359 476.64 106.959 476.64H106.751V472.8H105.471V476.64H105.279C102.799 476.64 101.391 478.448 101.391 480.4C101.391 482.544 102.815 484.16 105.295 484.16H105.471V487.2ZM102.751 480.4C102.751 479.008 103.615 477.84 105.263 477.84H105.471V482.96H105.343C103.679 482.96 102.751 481.888 102.751 480.4ZM106.959 477.84C108.591 477.84 109.471 479.072 109.471 480.4C109.471 481.904 108.575 482.96 106.895 482.96H106.751V477.84H106.959ZM118.93 476.8H117.474L115.81 481.36C115.682 481.744 115.57 482.112 115.474 482.464C115.33 482.096 115.202 481.744 115.042 481.376L112.93 476.8H111.394L114.85 484L114.69 484.384C114.21 485.536 113.762 486.016 113.154 486.016C112.866 486.016 112.594 485.888 112.354 485.776L111.938 486.752C112.322 487.008 112.754 487.2 113.298 487.2C114.322 487.2 114.994 486.576 116.05 484L118.93 476.8ZM125.526 484H126.806V476.8H125.526V479.76H121.526V476.8H120.246V484H121.526V480.96H125.526V484ZM135.425 476.8H133.745L130.705 480.32L133.953 484H135.729L132.273 480.24L135.425 476.8ZM129.121 484H130.401V476.8H129.121V484ZM137.09 484H143.49V485.76H144.69V482.8H143.49V476.8H142.21V482.8H138.37V476.8H137.09V484ZM147.354 484L151.514 478.64V484H152.794V476.8H151.514L147.354 482.16V476.8H146.074V484H147.354ZM156.401 484L160.561 478.64V484H161.841V476.8H160.561L156.401 482.16V476.8H155.121V484H156.401Z" fill="#6C7991"/>
        <rect width="164" height="84" transform="translate(80 509)" fill="#FFE000"/>
        <path d="M91.08 533.6C91.08 538.832 94.824 542.264 99.816 542.264C104.808 542.264 108.576 538.64 108.576 533.6C108.576 528.368 104.808 524.936 99.816 524.936C94.656 524.936 91.08 528.728 91.08 533.6ZM94.2 533.6C94.2 530.12 96.6 527.696 99.816 527.696C102.984 527.696 105.456 530.12 105.456 533.6C105.456 536.912 103.344 539.504 99.816 539.504C96.672 539.504 94.2 536.96 94.2 533.6ZM110.072 533.96H113.624V542H116.384V533.96H119.912V531.2H110.072V533.96ZM132.112 531.2H128.632L124.744 536.552L129.016 542H132.616L127.96 536.336L132.112 531.2ZM121.888 542H124.648V531.2H121.888V542ZM141.296 542H144.056V531.2H135.872L135.704 534.56C135.464 538.736 134.192 539.624 133.256 539.528L133.496 542.216C136.4 542.216 137.84 540.992 138.368 535.112L138.44 533.96H141.296V542ZM147.13 542H150.058V537.872H151.93C152.434 540.464 154.45 542.264 157.45 542.264C160.906 542.264 163.258 539.84 163.258 536.6C163.258 533.36 160.954 530.936 157.45 530.936C154.546 530.936 152.53 532.64 151.978 535.112H150.058V531.2H147.13V542ZM154.93 536.6C154.93 534.824 156.01 533.696 157.522 533.696C159.13 533.696 160.138 534.824 160.138 536.6C160.138 538.424 159.058 539.504 157.522 539.504C156.034 539.504 154.93 538.448 154.93 536.6ZM174.381 531.2H171.621V535.88C171.213 536.12 170.421 536.312 169.725 536.312C168.621 536.312 167.973 535.664 167.973 534.32V531.2H165.021V534.656C165.021 537.392 166.149 538.904 168.933 538.904C169.965 538.904 170.949 538.64 171.621 538.28V542H174.381V531.2ZM180.218 542L185.258 535.16V542H188.018V531.2H185.258L180.218 538.04V531.2H177.458V542H180.218ZM189.971 533.96H193.523V542H196.283V533.96H199.811V531.2H189.971V533.96ZM201.786 542H205.818C209.49 542 210.786 539.96 210.786 537.896C210.786 535.976 209.706 534.152 206.034 534.152H204.546V531.2H201.786V542ZM205.794 536.36C207.282 536.36 207.858 537.008 207.858 537.992C207.858 538.976 207.258 539.6 205.77 539.6H204.546V536.36H205.794ZM101.76 563.2H98.28L94.392 568.552L98.664 574H102.264L97.608 568.336L101.76 563.2ZM91.536 574H94.296V563.2H91.536V574ZM102.559 568.6C102.559 571.84 104.863 574.264 108.439 574.264C112.015 574.264 114.319 571.84 114.319 568.6C114.319 565.36 112.015 562.936 108.439 562.936C104.863 562.936 102.559 565.36 102.559 568.6ZM105.511 568.6C105.511 566.728 106.807 565.528 108.439 565.528C110.119 565.528 111.391 566.776 111.391 568.6C111.391 570.472 110.143 571.696 108.439 571.696C106.759 571.696 105.511 570.4 105.511 568.6ZM116.708 574H119.468V567.4L122.756 571.432H122.828L126.02 567.4V574H128.78V563.2H126.356L122.876 567.712L119.204 563.2H116.708V574ZM131.849 574H134.609V567.4L137.897 571.432H137.969L141.161 567.4V574H143.921V563.2H141.497L138.017 567.712L134.345 563.2H131.849V574ZM155.461 570.976C154.837 571.48 153.733 571.96 152.413 571.96C150.709 571.96 149.413 571.072 149.173 569.44H156.973C157.093 569.032 157.141 568.624 157.141 567.952C157.141 564.928 154.813 562.936 152.029 562.936C148.477 562.936 146.317 565.456 146.317 568.6C146.317 572.008 148.645 574.264 152.125 574.264C153.637 574.264 155.173 573.832 156.253 572.92L155.461 570.976ZM151.909 565.24C153.493 565.24 154.405 566.272 154.381 567.592H149.077C149.365 566.176 150.253 565.24 151.909 565.24ZM166.852 574H169.612V563.2H166.852V567.28H162.124V563.2H159.364V574H162.124V569.872H166.852V574ZM171.549 565.96H175.101V574H177.861V565.96H181.389V563.2H171.549V565.96ZM184.204 565.984C184.996 565.624 185.788 565.24 187.036 565.24C188.644 565.24 189.124 566.224 189.052 568.024C188.524 567.64 187.564 567.328 186.604 567.328C184.42 567.328 182.668 568.456 182.668 570.832C182.668 572.92 184.084 574.144 186.052 574.144C187.516 574.144 188.668 573.568 189.244 572.752V574H191.644V567.424C191.644 564.568 190.516 562.936 187.324 562.936C185.908 562.936 184.444 563.416 183.508 563.968L184.204 565.984ZM186.964 571.816C186.1 571.816 185.428 571.36 185.428 570.544C185.428 569.632 186.244 569.2 187.156 569.2C187.948 569.2 188.572 569.368 189.052 569.728V570.832C188.716 571.312 188.116 571.816 186.964 571.816ZM194.474 578.8H197.234V573.736C197.858 574.096 198.794 574.264 199.754 574.264C203.21 574.264 205.466 571.72 205.466 568.432C205.466 565.24 203.546 562.936 200.57 562.936C199.178 562.936 197.906 563.512 197.234 564.232V563.2H194.474V578.8ZM199.706 565.528C201.53 565.528 202.538 566.776 202.538 568.504C202.538 570.304 201.434 571.696 199.514 571.696C198.602 571.696 197.978 571.552 197.234 571.072V566.704C197.906 565.96 198.77 565.528 199.706 565.528ZM210.616 574L215.656 567.16V574H218.416V563.2H215.656L210.616 570.04V563.2H207.856V574H210.616ZM224.257 574L229.297 567.16V574H232.057V563.2H229.297L224.257 570.04V563.2H221.497V574H224.257Z" fill="#6C7991"/>
    </g>
    <rect x="64" y="1" width="210.328" height="628" stroke="#D3DBE6" stroke-width="2" stroke-linecap="round" stroke-dasharray="5.33 5.33"/>
    <g clip-path="url(#clip1_289_521)">
        <path d="M310.568 40H313.496V23.2H302.912L302.672 26.56C301.928 36.688 300.224 37.24 298.928 37.072L298.856 40C302.168 40.48 304.352 38.896 305.336 29.128L305.672 25.96H310.568V40ZM317.349 40H320.277V35.872H322.148C322.653 38.464 324.669 40.264 327.669 40.264C331.125 40.264 333.477 37.84 333.477 34.6C333.477 31.36 331.173 28.936 327.669 28.936C324.765 28.936 322.749 30.64 322.197 33.112H320.277V29.2H317.349V40ZM325.149 34.6C325.149 32.824 326.229 31.696 327.741 31.696C329.349 31.696 330.357 32.824 330.357 34.6C330.357 36.424 329.277 37.504 327.741 37.504C326.253 37.504 325.149 36.448 325.149 34.6ZM334.24 42.52H336.808V40H344.464V42.52H347.056V37.432H345.256V29.2H337.288L337.12 31.792C336.976 34.24 336.376 36.424 335.608 37.432H334.24V42.52ZM339.784 32.896L339.856 31.792H342.496V37.432H338.488C338.968 36.76 339.568 35.176 339.784 32.896ZM351.632 40L356.672 33.16V40H359.432V29.2H356.672L351.632 36.04V29.2H348.872V40H351.632Z" fill="#10162F"/>
        <path d="M297.848 76.96L298.856 77.328L304.168 63.008L303.176 62.64L297.848 76.96ZM303.207 76.96L304.215 77.328L309.528 63.008L308.536 62.64L303.207 76.96ZM315.735 72.032C315.255 72.576 314.535 72.96 313.671 72.96C312.247 72.96 311.079 71.984 311.079 70.4C311.079 68.88 312.247 67.84 313.543 67.84C314.295 67.84 314.999 68.032 315.607 68.592L316.199 67.584C315.527 66.912 314.519 66.64 313.367 66.64C311.255 66.64 309.719 68.304 309.719 70.4C309.719 72.672 311.287 74.16 313.575 74.16C314.679 74.16 315.735 73.744 316.343 72.96L315.735 72.032ZM317.141 70.4C317.141 72.56 318.677 74.16 320.981 74.16C323.285 74.16 324.821 72.56 324.821 70.4C324.821 68.24 323.285 66.64 320.981 66.64C318.677 66.64 317.141 68.24 317.141 70.4ZM318.501 70.4C318.501 68.88 319.573 67.84 320.981 67.84C322.421 67.84 323.461 68.896 323.461 70.4C323.461 71.936 322.421 72.96 320.981 72.96C319.541 72.96 318.501 71.904 318.501 70.4ZM332.204 72.032C331.724 72.576 331.004 72.96 330.14 72.96C328.716 72.96 327.548 71.984 327.548 70.4C327.548 68.88 328.716 67.84 330.012 67.84C330.764 67.84 331.468 68.032 332.076 68.592L332.668 67.584C331.996 66.912 330.988 66.64 329.836 66.64C327.724 66.64 326.188 68.304 326.188 70.4C326.188 72.672 327.756 74.16 330.044 74.16C331.148 74.16 332.204 73.744 332.812 72.96L332.204 72.032ZM333.474 68.08H336.114V74H337.394V68.08H340.034V66.8H333.474V68.08ZM341.817 68.32C342.393 68.016 342.921 67.792 343.801 67.792C345.225 67.792 345.433 68.72 345.433 70.064C344.953 69.712 344.201 69.6 343.641 69.6C342.089 69.6 340.921 70.416 340.921 71.888C340.921 73.28 341.817 74.112 343.129 74.112C344.313 74.112 345.001 73.616 345.433 73.072V74H346.649V69.584C346.649 67.712 345.929 66.64 343.881 66.64C342.985 66.64 342.121 66.896 341.481 67.296L341.817 68.32ZM343.577 72.96C342.745 72.96 342.281 72.512 342.281 71.824C342.281 70.992 343.049 70.64 343.817 70.64C344.441 70.64 344.985 70.8 345.433 71.12V72.032C345.065 72.464 344.521 72.96 343.577 72.96ZM348.793 74C349.449 74 350.537 74.064 351.433 74.064C353.673 74.064 354.745 73.328 354.745 71.968C354.745 71.072 354.217 70.48 353.065 70.272V70.24C353.929 70.112 354.505 69.44 354.505 68.592C354.505 67.296 353.417 66.736 351.401 66.736C350.361 66.736 349.417 66.8 348.793 66.8V74ZM351.609 70.768C352.761 70.768 353.385 71.12 353.385 71.872C353.385 72.624 352.729 73.024 351.545 73.024C350.969 73.024 350.457 72.992 350.073 72.976V70.768H351.609ZM351.497 67.776C352.425 67.776 353.145 68.064 353.145 68.848C353.145 69.552 352.537 69.968 351.689 69.968H350.073V67.824C350.393 67.808 350.921 67.776 351.497 67.776ZM361.627 74H362.907V66.8H357.899L357.771 69.04C357.595 72.368 356.571 72.896 356.027 72.848L356.123 74.096C357.611 74.096 358.699 73.392 359.019 69.296L359.099 68.08H361.627V74ZM368.367 66.8C365.967 66.8 365.151 67.968 365.151 69.2C365.151 70.384 365.967 71.104 366.703 71.28L364.623 74H366.174L367.935 71.6H369.327V74H370.607V66.8H368.367ZM366.511 69.232C366.511 68.56 366.959 68 368.159 68H369.327V70.4H367.855C367.215 70.4 366.511 69.968 366.511 69.232ZM372.933 74H374.293V70.96H375.845C376.069 72.832 377.461 74.16 379.493 74.16C381.717 74.16 383.253 72.56 383.253 70.4C383.253 68.24 381.749 66.64 379.493 66.64C377.525 66.64 376.149 67.904 375.861 69.68H374.293V66.8H372.933V74ZM377.253 70.4C377.253 68.912 378.197 67.92 379.541 67.92C380.917 67.92 381.813 68.928 381.813 70.4C381.813 71.904 380.869 72.88 379.541 72.88C378.213 72.88 377.253 71.92 377.253 70.4ZM385.09 74H394.21V75.76H395.41V72.8H394.21V66.8H392.93V72.8H390.29V66.8H389.01V72.8H386.37V66.8H385.09V74ZM398.088 74L402.248 68.64V74H403.528V66.8H402.248L398.088 72.16V66.8H396.808V74H398.088ZM411.535 72.208C411.071 72.64 410.255 72.96 409.327 72.96C407.919 72.96 406.927 72.16 406.815 70.8H412.351C412.399 70.576 412.431 70.288 412.431 69.936C412.431 67.952 410.943 66.64 409.087 66.64C406.719 66.64 405.375 68.304 405.375 70.4C405.375 72.672 406.895 74.16 409.231 74.16C410.191 74.16 411.231 73.856 411.935 73.216L411.535 72.208ZM409.023 67.84C410.271 67.84 411.039 68.576 411.103 69.76H406.735C406.879 68.656 407.711 67.84 409.023 67.84Z" fill="#10162F"/>
        <rect width="73" height="52" transform="translate(298.328 97)" fill="#7833FF"/>
        <path d="M313.608 130V123.928C314.328 124 315.288 124 315.792 124C319.8 124 321.936 121.408 321.936 118.552C321.936 115.792 320.376 113.152 315.432 113.152C314.256 113.152 311.592 113.2 310.656 113.2V130H313.608ZM315.72 115.912C317.736 115.912 318.816 116.776 318.816 118.528C318.816 120.4 317.448 121.24 315.696 121.24C315.024 121.24 314.304 121.192 313.608 121.12V115.96C314.4 115.936 315.12 115.912 315.72 115.912ZM334.975 119.2H331.831L329.887 125.08C329.695 125.632 329.599 126.16 329.503 126.664C329.335 126.136 329.191 125.632 328.975 125.104L326.455 119.2H323.143L328.135 130L327.895 130.576C327.439 131.704 326.935 132.256 326.239 132.256C325.807 132.256 325.399 132.04 325.111 131.872L324.223 133.96C324.847 134.416 325.567 134.8 326.551 134.8C328.135 134.8 329.143 133.864 330.727 130L334.975 119.2ZM346.854 119.2H343.374L339.486 124.552L343.758 130H347.358L342.702 124.336L346.854 119.2ZM336.63 130H339.39V119.2H336.63V130ZM351.741 130L356.781 123.16V130H359.541V119.2H356.781L351.741 126.04V119.2H348.981V130H351.741Z" fill="white"/>
        <rect width="75" height="52" transform="translate(298.328 157)" fill="#7833FF"/>
        <path d="M321.288 190H324.216V173.2H321.288V180.064H313.608V173.2H310.656V190H313.608V182.824H321.288V190ZM327.403 184.6C327.403 187.84 329.707 190.264 333.283 190.264C336.859 190.264 339.163 187.84 339.163 184.6C339.163 181.36 336.859 178.936 333.283 178.936C329.707 178.936 327.403 181.36 327.403 184.6ZM330.355 184.6C330.355 182.728 331.651 181.528 333.283 181.528C334.963 181.528 336.235 182.776 336.235 184.6C336.235 186.472 334.987 187.696 333.283 187.696C331.603 187.696 330.355 186.4 330.355 184.6ZM341.552 190H344.312V181.792H348.8V179.2H341.552V190ZM353.288 190L358.328 183.16V190H361.088V179.2H358.328L353.288 186.04V179.2H350.528V190H353.288Z" fill="white"/>
        <rect width="95" height="44" transform="translate(298.328 217)" fill="white"/>
        <path d="M307.848 246.96L308.856 247.328L314.168 233.008L313.176 232.64L307.848 246.96ZM313.207 246.96L314.215 247.328L319.528 233.008L318.536 232.64L313.207 246.96ZM325.735 242.032C325.255 242.576 324.535 242.96 323.671 242.96C322.247 242.96 321.079 241.984 321.079 240.4C321.079 238.88 322.247 237.84 323.543 237.84C324.295 237.84 324.999 238.032 325.607 238.592L326.199 237.584C325.527 236.912 324.519 236.64 323.367 236.64C321.255 236.64 319.719 238.304 319.719 240.4C319.719 242.672 321.287 244.16 323.575 244.16C324.679 244.16 325.735 243.744 326.343 242.96L325.735 242.032ZM328.011 244C328.667 244 329.755 244.064 330.651 244.064C332.891 244.064 333.963 243.328 333.963 241.968C333.963 241.072 333.435 240.48 332.283 240.272V240.24C333.147 240.112 333.723 239.44 333.723 238.592C333.723 237.296 332.635 236.736 330.619 236.736C329.579 236.736 328.635 236.8 328.011 236.8V244ZM330.827 240.768C331.979 240.768 332.603 241.12 332.603 241.872C332.603 242.624 331.947 243.024 330.763 243.024C330.187 243.024 329.675 242.992 329.291 242.976V240.768H330.827ZM330.715 237.776C331.643 237.776 332.363 238.064 332.363 238.848C332.363 239.552 331.755 239.968 330.907 239.968H329.291V237.824C329.611 237.808 330.139 237.776 330.715 237.776ZM335.438 240.4C335.438 242.56 336.974 244.16 339.278 244.16C341.582 244.16 343.118 242.56 343.118 240.4C343.118 238.24 341.582 236.64 339.278 236.64C336.974 236.64 335.438 238.24 335.438 240.4ZM336.798 240.4C336.798 238.88 337.87 237.84 339.278 237.84C340.718 237.84 341.758 238.896 341.758 240.4C341.758 241.936 340.718 242.96 339.278 242.96C337.838 242.96 336.798 241.904 336.798 240.4ZM346.245 244L350.405 238.64V244H351.685V236.8H350.405L346.245 242.16V236.8H344.965V244H346.245ZM345.989 233.12C345.989 234.384 346.837 235.36 348.421 235.36C349.861 235.36 350.789 234.384 350.789 233.12H349.589C349.525 233.984 349.125 234.384 348.421 234.384C347.653 234.384 347.253 233.984 347.189 233.12H345.989ZM359.547 242.032C359.067 242.576 358.347 242.96 357.483 242.96C356.059 242.96 354.891 241.984 354.891 240.4C354.891 238.88 356.059 237.84 357.355 237.84C358.107 237.84 358.811 238.032 359.419 238.592L360.011 237.584C359.339 236.912 358.331 236.64 357.179 236.64C355.067 236.64 353.531 238.304 353.531 240.4C353.531 242.672 355.099 244.16 357.387 244.16C358.491 244.16 359.547 243.744 360.155 242.96L359.547 242.032ZM360.818 238.08H363.458V244H364.738V238.08H367.378V236.8H360.818V238.08ZM368.777 244C369.433 244 370.521 244.064 371.417 244.064C373.657 244.064 374.729 243.328 374.729 241.968C374.729 241.072 374.201 240.48 373.049 240.272V240.24C373.913 240.112 374.489 239.44 374.489 238.592C374.489 237.296 373.401 236.736 371.385 236.736C370.345 236.736 369.401 236.8 368.777 236.8V244ZM371.593 240.768C372.745 240.768 373.369 241.12 373.369 241.872C373.369 242.624 372.713 243.024 371.529 243.024C370.953 243.024 370.441 242.992 370.057 242.976V240.768H371.593ZM371.481 237.776C372.409 237.776 373.129 238.064 373.129 238.848C373.129 239.552 372.521 239.968 371.673 239.968H370.057V237.824C370.377 237.808 370.905 237.776 371.481 237.776ZM377.067 238.32C377.643 238.016 378.171 237.792 379.051 237.792C380.475 237.792 380.683 238.72 380.683 240.064C380.203 239.712 379.451 239.6 378.891 239.6C377.339 239.6 376.171 240.416 376.171 241.888C376.171 243.28 377.067 244.112 378.379 244.112C379.563 244.112 380.251 243.616 380.683 243.072V244H381.899V239.584C381.899 237.712 381.179 236.64 379.131 236.64C378.235 236.64 377.371 236.896 376.731 237.296L377.067 238.32ZM378.827 242.96C377.995 242.96 377.531 242.512 377.531 241.824C377.531 240.992 378.299 240.64 379.067 240.64C379.691 240.64 380.235 240.8 380.683 241.12V242.032C380.315 242.464 379.771 242.96 378.827 242.96Z" fill="#6C7991"/>
        <rect width="107" height="52" transform="translate(298.328 269)" fill="#7833FF"/>
        <path d="M310.656 301.976C311.64 302.048 313.8 302.096 315.336 302.096C318.888 302.096 321.576 300.512 321.576 297.056C321.576 294.824 320.28 293.552 318.624 293.144V293.096C320.064 292.424 321.024 291.2 321.024 289.28C321.024 286.952 319.512 285.128 315.504 285.128C313.824 285.128 311.592 285.2 310.656 285.248V301.976ZM315.696 294.776C317.544 294.776 318.624 295.496 318.624 296.912C318.624 298.496 317.544 299.336 315.552 299.336C314.712 299.336 314.016 299.264 313.608 299.216V294.776H315.696ZM315.456 287.888C317.04 287.888 318.096 288.608 318.096 289.976C318.096 291.512 316.968 292.208 315.6 292.208H313.608V287.96C314.136 287.912 314.784 287.888 315.456 287.888ZM324.005 296.6C324.005 299.84 326.309 302.264 329.885 302.264C333.461 302.264 335.765 299.84 335.765 296.6C335.765 293.36 333.461 290.936 329.885 290.936C326.309 290.936 324.005 293.36 324.005 296.6ZM326.957 296.6C326.957 294.728 328.253 293.528 329.885 293.528C331.565 293.528 332.837 294.776 332.837 296.6C332.837 298.472 331.589 299.696 329.885 299.696C328.205 299.696 326.957 298.4 326.957 296.6ZM341.969 302.264C344.897 302.264 346.865 301.016 346.865 299C346.865 297.752 346.097 296.744 344.585 296.456V296.408C345.857 295.976 346.577 295.04 346.577 294.008C346.577 292.136 345.113 290.936 342.257 290.936C340.217 290.936 338.609 291.608 337.625 292.76L338.777 294.416C339.449 293.84 340.481 293.168 341.729 293.168C342.929 293.168 343.625 293.6 343.625 294.344C343.625 295.04 343.097 295.664 342.185 295.664H340.289V297.512H342.305C343.361 297.512 343.937 298.016 343.937 298.736C343.937 299.504 343.169 300.056 341.729 300.056C340.697 300.056 339.329 299.456 338.681 298.736L337.265 300.464C338.057 301.472 340.049 302.264 341.969 302.264ZM349.474 306.8H352.234V301.736C352.858 302.096 353.794 302.264 354.754 302.264C358.21 302.264 360.466 299.72 360.466 296.432C360.466 293.24 358.546 290.936 355.57 290.936C354.178 290.936 352.906 291.512 352.234 292.232V291.2H349.474V306.8ZM354.706 293.528C356.53 293.528 357.538 294.776 357.538 296.504C357.538 298.304 356.434 299.696 354.514 299.696C353.602 299.696 352.978 299.552 352.234 299.072V294.704C352.906 293.96 353.77 293.528 354.706 293.528ZM363.696 293.984C364.488 293.624 365.28 293.24 366.528 293.24C368.136 293.24 368.616 294.224 368.544 296.024C368.016 295.64 367.056 295.328 366.096 295.328C363.912 295.328 362.16 296.456 362.16 298.832C362.16 300.92 363.576 302.144 365.544 302.144C367.008 302.144 368.16 301.568 368.736 300.752V302H371.136V295.424C371.136 292.568 370.008 290.936 366.816 290.936C365.4 290.936 363.936 291.416 363 291.968L363.696 293.984ZM366.456 299.816C365.592 299.816 364.92 299.36 364.92 298.544C364.92 297.632 365.736 297.2 366.648 297.2C367.44 297.2 368.064 297.368 368.544 297.728V298.832C368.208 299.312 367.608 299.816 366.456 299.816ZM382.15 298.376C381.454 299.144 380.542 299.696 379.366 299.696C377.734 299.696 376.246 298.52 376.246 296.6C376.246 294.704 377.71 293.528 379.246 293.528C380.23 293.528 381.118 293.792 381.934 294.584L383.23 292.4C382.222 291.392 380.662 290.936 378.886 290.936C375.598 290.936 373.294 293.456 373.294 296.6C373.294 300.008 375.646 302.264 379.15 302.264C380.902 302.264 382.534 301.616 383.446 300.392L382.15 298.376ZM384.322 293.96H387.874V302H390.634V293.96H394.162V291.2H384.322V293.96Z" fill="white"/>
        <rect width="69" height="52" transform="translate(298.328 329)" fill="#7833FF"/>
        <path d="M313.608 362V355.928C314.328 356 315.288 356 315.792 356C319.8 356 321.936 353.408 321.936 350.552C321.936 347.792 320.376 345.152 315.432 345.152C314.256 345.152 311.592 345.2 310.656 345.2V362H313.608ZM315.72 347.912C317.736 347.912 318.816 348.776 318.816 350.528C318.816 352.4 317.448 353.24 315.696 353.24C315.024 353.24 314.304 353.192 313.608 353.12V347.96C314.4 347.936 315.12 347.912 315.72 347.912ZM322.458 356.6C322.458 359.84 324.762 362.264 328.338 362.264C331.914 362.264 334.218 359.84 334.218 356.6C334.218 353.36 331.914 350.936 328.338 350.936C324.762 350.936 322.458 353.36 322.458 356.6ZM325.41 356.6C325.41 354.728 326.706 353.528 328.338 353.528C330.018 353.528 331.29 354.776 331.29 356.6C331.29 358.472 330.042 359.696 328.338 359.696C326.658 359.696 325.41 358.4 325.41 356.6ZM344.79 358.376C344.094 359.144 343.182 359.696 342.006 359.696C340.374 359.696 338.886 358.52 338.886 356.6C338.886 354.704 340.35 353.528 341.886 353.528C342.87 353.528 343.758 353.792 344.574 354.584L345.87 352.4C344.862 351.392 343.302 350.936 341.526 350.936C338.238 350.936 335.934 353.456 335.934 356.6C335.934 360.008 338.286 362.264 341.79 362.264C343.542 362.264 345.174 361.616 346.086 360.392L344.79 358.376ZM346.963 353.96H350.515V362H353.275V353.96H356.803V351.2H346.963V353.96Z" fill="white"/>
        <rect width="65" height="52" transform="translate(298.328 389)" fill="#7833FF"/>
        <path d="M321.096 422H324.048V405.2H310.656V422H313.608V407.96H321.096V422ZM327.239 416.6C327.239 419.84 329.543 422.264 333.119 422.264C336.695 422.264 338.999 419.84 338.999 416.6C338.999 413.36 336.695 410.936 333.119 410.936C329.543 410.936 327.239 413.36 327.239 416.6ZM330.191 416.6C330.191 414.728 331.487 413.528 333.119 413.528C334.799 413.528 336.071 414.776 336.071 416.6C336.071 418.472 334.823 419.696 333.119 419.696C331.439 419.696 330.191 418.4 330.191 416.6ZM348.14 422H350.9V411.2H342.716L342.548 414.56C342.308 418.736 341.036 419.624 340.1 419.528L340.34 422.216C343.244 422.216 344.684 420.992 345.212 415.112L345.284 413.96H348.14V422Z" fill="white"/>
        <rect width="142" height="52" transform="translate(298.328 449)" fill="#7833FF"/>
        <path d="M310.656 482H323.448V485H326.208V479.24H323.928V465.2H320.976V479.24H313.608V465.2H310.656V482ZM328.333 482C329.317 482 331.285 482.12 332.629 482.12C336.109 482.12 337.765 480.992 337.765 478.856C337.765 477.608 336.973 476.72 335.461 476.36V476.312C336.541 476.144 337.477 475.208 337.477 473.912C337.477 471.944 335.725 471.08 332.581 471.08C330.901 471.08 329.269 471.176 328.333 471.2V482ZM332.821 477.416C334.117 477.416 334.861 477.848 334.861 478.664C334.861 479.408 334.141 479.912 332.917 479.912C332.245 479.912 331.501 479.84 331.093 479.816V477.416H332.821ZM332.821 473.312C333.853 473.312 334.549 473.696 334.549 474.488C334.549 475.328 333.805 475.736 332.893 475.736H331.093V473.36C331.381 473.336 332.173 473.312 332.821 473.312ZM348.852 478.976C348.228 479.48 347.124 479.96 345.804 479.96C344.1 479.96 342.804 479.072 342.564 477.44H350.364C350.484 477.032 350.532 476.624 350.532 475.952C350.532 472.928 348.204 470.936 345.42 470.936C341.868 470.936 339.708 473.456 339.708 476.6C339.708 480.008 342.036 482.264 345.516 482.264C347.028 482.264 348.564 481.832 349.644 480.92L348.852 478.976ZM345.3 473.24C346.884 473.24 347.796 474.272 347.772 475.592H342.468C342.756 474.176 343.644 473.24 345.3 473.24ZM351.51 473.96H355.062V482H357.822V473.96H361.35V471.2H351.51V473.96ZM368.411 482C369.395 482 371.363 482.12 372.707 482.12C376.187 482.12 377.843 480.992 377.843 478.856C377.843 477.608 377.051 476.72 375.539 476.36V476.312C376.619 476.144 377.555 475.208 377.555 473.912C377.555 471.944 375.803 471.08 372.659 471.08C370.979 471.08 369.347 471.176 368.411 471.2V482ZM372.899 477.416C374.195 477.416 374.939 477.848 374.939 478.664C374.939 479.408 374.219 479.912 372.995 479.912C372.323 479.912 371.579 479.84 371.171 479.816V477.416H372.899ZM372.899 473.312C373.931 473.312 374.627 473.696 374.627 474.488C374.627 475.328 373.883 475.736 372.971 475.736H371.171V473.36C371.459 473.336 372.251 473.312 372.899 473.312ZM379.786 476.6C379.786 479.84 382.09 482.264 385.666 482.264C389.242 482.264 391.546 479.84 391.546 476.6C391.546 473.36 389.242 470.936 385.666 470.936C382.09 470.936 379.786 473.36 379.786 476.6ZM382.738 476.6C382.738 474.728 384.034 473.528 385.666 473.528C387.346 473.528 388.618 474.776 388.618 476.6C388.618 478.472 387.37 479.696 385.666 479.696C383.986 479.696 382.738 478.4 382.738 476.6ZM400.687 482H403.447V471.2H395.263L395.095 474.56C394.855 478.736 393.583 479.624 392.647 479.528L392.887 482.216C395.791 482.216 397.231 480.992 397.759 475.112L397.831 473.96H400.687V482ZM405.848 476.6C405.848 479.84 408.152 482.264 411.728 482.264C415.304 482.264 417.608 479.84 417.608 476.6C417.608 473.36 415.304 470.936 411.728 470.936C408.152 470.936 405.848 473.36 405.848 476.6ZM408.8 476.6C408.8 474.728 410.096 473.528 411.728 473.528C413.408 473.528 414.68 474.776 414.68 476.6C414.68 478.472 413.432 479.696 411.728 479.696C410.048 479.696 408.8 478.4 408.8 476.6ZM428.181 478.376C427.485 479.144 426.573 479.696 425.397 479.696C423.765 479.696 422.277 478.52 422.277 476.6C422.277 474.704 423.741 473.528 425.277 473.528C426.261 473.528 427.149 473.792 427.965 474.584L429.261 472.4C428.253 471.392 426.693 470.936 424.917 470.936C421.629 470.936 419.325 473.456 419.325 476.6C419.325 480.008 421.677 482.264 425.181 482.264C426.933 482.264 428.565 481.616 429.477 480.392L428.181 478.376Z" fill="white"/>
        <rect width="94" height="44" transform="translate(298.328 509)" fill="white"/>
        <path d="M307.848 538.96L308.856 539.328L314.168 525.008L313.176 524.64L307.848 538.96ZM313.207 538.96L314.215 539.328L319.528 525.008L318.536 524.64L313.207 538.96ZM323.799 539.2H325.079V536.16H325.287C327.815 536.16 329.159 534.544 329.159 532.4C329.159 530.288 327.687 528.64 325.287 528.64H325.079V524.8H323.799V528.64H323.607C321.127 528.64 319.719 530.448 319.719 532.4C319.719 534.544 321.143 536.16 323.623 536.16H323.799V539.2ZM321.079 532.4C321.079 531.008 321.943 529.84 323.591 529.84H323.799V534.96H323.671C322.007 534.96 321.079 533.888 321.079 532.4ZM325.287 529.84C326.919 529.84 327.799 531.072 327.799 532.4C327.799 533.904 326.903 534.96 325.223 534.96H325.079V529.84H325.287ZM337.259 528.8H335.803L334.139 533.36C334.011 533.744 333.899 534.112 333.803 534.464C333.659 534.096 333.531 533.744 333.371 533.376L331.259 528.8H329.723L333.179 536L333.019 536.384C332.539 537.536 332.091 538.016 331.483 538.016C331.195 538.016 330.923 537.888 330.683 537.776L330.267 538.752C330.651 539.008 331.083 539.2 331.627 539.2C332.651 539.2 333.323 538.576 334.379 536L337.259 528.8ZM343.854 536H345.134V528.8H343.854V531.76H339.854V528.8H338.574V536H339.854V532.96H343.854V536ZM353.753 528.8H352.073L349.033 532.32L352.281 536H354.057L350.601 532.24L353.753 528.8ZM347.449 536H348.729V528.8H347.449V536ZM355.418 536H361.818V537.76H363.018V534.8H361.818V528.8H360.538V534.8H356.698V528.8H355.418V536ZM365.682 536L369.842 530.64V536H371.122V528.8H369.842L365.682 534.16V528.8H364.402V536H365.682ZM374.729 536L378.889 530.64V536H380.169V528.8H378.889L374.729 534.16V528.8H373.449V536H374.729Z" fill="#6C7991"/>
        <rect width="249" height="52" transform="translate(298.328 561)" fill="#FFE000"/>
        <path d="M313.248 594L322.056 582.072V594H325.008V577.2H322.416L313.608 589.152V577.2H310.656V594H313.248ZM332.688 594.264C335.616 594.264 337.584 593.016 337.584 591C337.584 589.752 336.816 588.744 335.304 588.456V588.408C336.576 587.976 337.296 587.04 337.296 586.008C337.296 584.136 335.832 582.936 332.976 582.936C330.936 582.936 329.328 583.608 328.344 584.76L329.496 586.416C330.168 585.84 331.2 585.168 332.448 585.168C333.648 585.168 334.344 585.6 334.344 586.344C334.344 587.04 333.816 587.664 332.904 587.664H331.008V589.512H333.024C334.08 589.512 334.656 590.016 334.656 590.736C334.656 591.504 333.888 592.056 332.448 592.056C331.416 592.056 330.048 591.456 329.4 590.736L327.984 592.464C328.776 593.472 330.768 594.264 332.688 594.264ZM340.192 594H342.952V587.4L346.24 591.432H346.312L349.504 587.4V594H352.264V583.2H349.84L346.36 587.712L342.688 583.2H340.192V594ZM363.805 590.976C363.181 591.48 362.077 591.96 360.757 591.96C359.053 591.96 357.757 591.072 357.517 589.44H365.317C365.437 589.032 365.485 588.624 365.485 587.952C365.485 584.928 363.157 582.936 360.373 582.936C356.821 582.936 354.661 585.456 354.661 588.6C354.661 592.008 356.989 594.264 360.469 594.264C361.981 594.264 363.517 593.832 364.597 592.92L363.805 590.976ZM360.253 585.24C361.837 585.24 362.749 586.272 362.725 587.592H357.421C357.709 586.176 358.597 585.24 360.253 585.24ZM375.196 594H377.956V583.2H375.196V587.28H370.468V583.2H367.708V594H370.468V589.872H375.196V594ZM383.78 594L388.82 587.16V594H391.58V583.2H388.82L383.78 590.04V583.2H381.02V594H383.78ZM393.533 585.96H397.085V594H399.845V585.96H403.373V583.2H393.533V585.96ZM405.349 594H409.381C413.053 594 414.349 591.96 414.349 589.896C414.349 587.976 413.269 586.152 409.597 586.152H408.109V583.2H405.349V594ZM409.357 588.36C410.845 588.36 411.421 589.008 411.421 589.992C411.421 590.976 410.821 591.6 409.333 591.6H408.109V588.36H409.357ZM421.638 594H430.806V596.52H433.398V591.432H431.598V583.2H428.838V591.432H424.398V583.2H421.638V594ZM435.231 594C436.215 594 438.183 594.12 439.527 594.12C443.007 594.12 444.663 592.992 444.663 590.856C444.663 589.608 443.871 588.72 442.359 588.36V588.312C443.439 588.144 444.375 587.208 444.375 585.912C444.375 583.944 442.623 583.08 439.479 583.08C437.799 583.08 436.167 583.176 435.231 583.2V594ZM439.719 589.416C441.015 589.416 441.759 589.848 441.759 590.664C441.759 591.408 441.039 591.912 439.815 591.912C439.143 591.912 438.399 591.84 437.991 591.816V589.416H439.719ZM439.719 585.312C440.751 585.312 441.447 585.696 441.447 586.488C441.447 587.328 440.703 587.736 439.791 587.736H437.991V585.36C438.279 585.336 439.071 585.312 439.719 585.312ZM455.75 590.976C455.126 591.48 454.022 591.96 452.702 591.96C450.998 591.96 449.702 591.072 449.462 589.44H457.262C457.382 589.032 457.43 588.624 457.43 587.952C457.43 584.928 455.102 582.936 452.318 582.936C448.766 582.936 446.606 585.456 446.606 588.6C446.606 592.008 448.934 594.264 452.414 594.264C453.926 594.264 455.462 593.832 456.542 592.92L455.75 590.976ZM452.198 585.24C453.782 585.24 454.694 586.272 454.67 587.592H449.366C449.654 586.176 450.542 585.24 452.198 585.24ZM458.408 585.96H461.96V594H464.72V585.96H468.248V583.2H458.408V585.96ZM475.309 594C476.293 594 478.261 594.12 479.605 594.12C483.085 594.12 484.741 592.992 484.741 590.856C484.741 589.608 483.949 588.72 482.437 588.36V588.312C483.517 588.144 484.453 587.208 484.453 585.912C484.453 583.944 482.701 583.08 479.557 583.08C477.877 583.08 476.245 583.176 475.309 583.2V594ZM479.797 589.416C481.093 589.416 481.837 589.848 481.837 590.664C481.837 591.408 481.117 591.912 479.893 591.912C479.221 591.912 478.477 591.84 478.069 591.816V589.416H479.797ZM479.797 585.312C480.829 585.312 481.525 585.696 481.525 586.488C481.525 587.328 480.781 587.736 479.869 587.736H478.069V585.36C478.357 585.336 479.149 585.312 479.797 585.312ZM486.684 588.6C486.684 591.84 488.988 594.264 492.564 594.264C496.14 594.264 498.444 591.84 498.444 588.6C498.444 585.36 496.14 582.936 492.564 582.936C488.988 582.936 486.684 585.36 486.684 588.6ZM489.636 588.6C489.636 586.728 490.932 585.528 492.564 585.528C494.244 585.528 495.516 586.776 495.516 588.6C495.516 590.472 494.268 591.696 492.564 591.696C490.884 591.696 489.636 590.4 489.636 588.6ZM507.585 594H510.345V583.2H502.161L501.993 586.56C501.753 590.736 500.481 591.624 499.545 591.528L499.785 594.216C502.689 594.216 504.129 592.992 504.657 587.112L504.729 585.96H507.585V594ZM512.747 588.6C512.747 591.84 515.051 594.264 518.627 594.264C522.203 594.264 524.507 591.84 524.507 588.6C524.507 585.36 522.203 582.936 518.627 582.936C515.051 582.936 512.747 585.36 512.747 588.6ZM515.699 588.6C515.699 586.728 516.995 585.528 518.627 585.528C520.307 585.528 521.579 586.776 521.579 588.6C521.579 590.472 520.331 591.696 518.627 591.696C516.947 591.696 515.699 590.4 515.699 588.6ZM535.079 590.376C534.383 591.144 533.471 591.696 532.295 591.696C530.663 591.696 529.175 590.52 529.175 588.6C529.175 586.704 530.639 585.528 532.175 585.528C533.159 585.528 534.047 585.792 534.863 586.584L536.159 584.4C535.151 583.392 533.591 582.936 531.815 582.936C528.527 582.936 526.223 585.456 526.223 588.6C526.223 592.008 528.575 594.264 532.079 594.264C533.831 594.264 535.463 593.616 536.375 592.392L535.079 590.376Z" fill="#6C7991"/>
    </g>
    <rect x="282.328" y="1" width="281" height="628" stroke="#D3DBE6" stroke-width="2" stroke-linecap="round" stroke-dasharray="5.33 5.33"/>
    <defs>
        <clipPath id="clip0_289_521">
            <rect width="178.328" height="576" fill="white" transform="translate(80 17)"/>
        </clipPath>
        <clipPath id="clip1_289_521">
            <rect width="249" height="596" fill="white" transform="translate(298.328 17)"/>
        </clipPath>
    </defs>
</svg>
