<svg width="599" height="630" viewBox="0 0 599 630" fill="none" xmlns="http://www.w3.org/2000/svg">
    <g clip-path="url(#clip0_0_11)">
        <path d="M92.768 40H95.72V23.2H82.328V40H85.28V25.96H92.768V40ZM98.9109 34.6C98.9109 37.84 101.215 40.264 104.791 40.264C108.367 40.264 110.671 37.84 110.671 34.6C110.671 31.36 108.367 28.936 104.791 28.936C101.215 28.936 98.9109 31.36 98.9109 34.6ZM101.863 34.6C101.863 32.728 103.159 31.528 104.791 31.528C106.471 31.528 107.743 32.776 107.743 34.6C107.743 36.472 106.495 37.696 104.791 37.696C103.111 37.696 101.863 36.4 101.863 34.6ZM121.243 36.376C120.547 37.144 119.635 37.696 118.459 37.696C116.827 37.696 115.339 36.52 115.339 34.6C115.339 32.704 116.803 31.528 118.339 31.528C119.323 31.528 120.211 31.792 121.027 32.584L122.323 30.4C121.315 29.392 119.755 28.936 117.979 28.936C114.691 28.936 112.387 31.456 112.387 34.6C112.387 38.008 114.739 40.264 118.243 40.264C119.995 40.264 121.627 39.616 122.539 38.392L121.243 36.376ZM123.416 31.96H126.968V40H129.728V31.96H133.256V29.2H123.416V31.96Z" fill="#10162F"/>
        <path d="M80.528 77.328L79.52 76.96L84.848 62.64L85.84 63.008L80.528 77.328ZM85.8874 77.328L84.8794 76.96L90.2074 62.64L91.1994 63.008L85.8874 77.328ZM97.4068 72.032L98.0148 72.96C97.3961 73.76 96.4734 74.16 95.2468 74.16C94.0948 74.16 93.1614 73.8187 92.4468 73.136C91.7428 72.4533 91.3908 71.5413 91.3908 70.4C91.3908 69.344 91.7374 68.4533 92.4308 67.728C93.1241 67.0027 93.9934 66.64 95.0388 66.64C96.2974 66.64 97.2414 66.9547 97.8708 67.584L97.2788 68.592C96.7241 68.0907 96.0361 67.84 95.2148 67.84C94.5428 67.84 93.9614 68.0853 93.4708 68.576C92.9908 69.056 92.7508 69.664 92.7508 70.4C92.7508 71.1787 92.9961 71.7973 93.4868 72.256C93.9881 72.7253 94.6068 72.96 95.3428 72.96C96.1748 72.96 96.8628 72.6507 97.4068 72.032ZM99.8686 73.104C99.1646 72.3787 98.8126 71.4773 98.8126 70.4C98.8126 69.312 99.1646 68.416 99.8686 67.712C100.583 66.9973 101.511 66.64 102.653 66.64C103.794 66.64 104.717 66.9973 105.421 67.712C106.135 68.416 106.493 69.312 106.493 70.4C106.493 71.488 106.135 72.3893 105.421 73.104C104.717 73.808 103.794 74.16 102.653 74.16C101.522 74.16 100.594 73.808 99.8686 73.104ZM100.877 68.56C100.407 69.0293 100.173 69.6427 100.173 70.4C100.173 71.1573 100.402 71.7707 100.861 72.24C101.33 72.72 101.927 72.96 102.653 72.96C103.378 72.96 103.97 72.7253 104.429 72.256C104.898 71.776 105.133 71.1573 105.133 70.4C105.133 69.664 104.898 69.0507 104.429 68.56C103.97 68.08 103.378 67.84 102.653 67.84C101.927 67.84 101.335 68.08 100.877 68.56ZM113.876 72.032L114.484 72.96C113.865 73.76 112.942 74.16 111.716 74.16C110.564 74.16 109.63 73.8187 108.916 73.136C108.212 72.4533 107.86 71.5413 107.86 70.4C107.86 69.344 108.206 68.4533 108.9 67.728C109.593 67.0027 110.462 66.64 111.508 66.64C112.766 66.64 113.71 66.9547 114.34 67.584L113.748 68.592C113.193 68.0907 112.505 67.84 111.684 67.84C111.012 67.84 110.43 68.0853 109.94 68.576C109.46 69.056 109.22 69.664 109.22 70.4C109.22 71.1787 109.465 71.7973 109.956 72.256C110.457 72.7253 111.076 72.96 111.812 72.96C112.644 72.96 113.332 72.6507 113.876 72.032ZM117.786 68.08H115.146V66.8H121.706V68.08H119.066V74H117.786V68.08ZM123.489 68.32L123.153 67.296C123.868 66.8587 124.668 66.64 125.553 66.64C126.524 66.64 127.228 66.88 127.665 67.36C128.102 67.84 128.321 68.5813 128.321 69.584V74H127.105V73.072C126.54 73.7653 125.772 74.112 124.801 74.112C124.14 74.112 123.606 73.9147 123.201 73.52C122.796 73.1147 122.593 72.5707 122.593 71.888C122.593 71.184 122.844 70.6293 123.345 70.224C123.846 69.808 124.502 69.6 125.313 69.6C126.07 69.6 126.668 69.7547 127.105 70.064C127.105 69.2533 126.993 68.672 126.769 68.32C126.545 67.968 126.113 67.792 125.473 67.792C124.822 67.792 124.161 67.968 123.489 68.32ZM125.249 72.96C125.964 72.96 126.582 72.6507 127.105 72.032V71.12C126.657 70.8 126.118 70.64 125.489 70.64C125.052 70.64 124.684 70.7467 124.385 70.96C124.097 71.1627 123.953 71.4507 123.953 71.824C123.953 72.176 124.065 72.4533 124.289 72.656C124.524 72.8587 124.844 72.96 125.249 72.96ZM130.465 74V66.8C130.518 66.8 130.593 66.8 130.689 66.8C130.785 66.7893 130.923 66.784 131.105 66.784C131.286 66.7733 131.451 66.768 131.601 66.768C132.39 66.7467 132.881 66.736 133.073 66.736C135.142 66.736 136.177 67.3547 136.177 68.592C136.177 69.0187 136.043 69.3867 135.777 69.696C135.51 69.9947 135.163 70.176 134.737 70.24V70.272C135.857 70.4747 136.417 71.04 136.417 71.968C136.417 73.3653 135.313 74.064 133.105 74.064C132.998 74.064 132.529 74.0533 131.697 74.032C131.537 74.032 131.361 74.0267 131.169 74.016C130.977 74.016 130.827 74.0107 130.721 74C130.614 74 130.529 74 130.465 74ZM133.281 70.768H131.745V72.976C132.513 73.008 133.003 73.024 133.217 73.024C134.443 73.024 135.057 72.64 135.057 71.872C135.057 71.136 134.465 70.768 133.281 70.768ZM133.169 67.776C132.859 67.776 132.385 67.792 131.745 67.824V69.968H133.361C133.798 69.968 134.15 69.8667 134.417 69.664C134.683 69.4613 134.817 69.1893 134.817 68.848C134.817 68.1333 134.267 67.776 133.169 67.776ZM144.579 74H143.299V68.08H140.771L140.691 69.296C140.605 70.288 140.477 71.1147 140.307 71.776C140.147 72.4267 139.933 72.9173 139.667 73.248C139.411 73.568 139.139 73.792 138.851 73.92C138.563 74.0373 138.211 74.096 137.795 74.096L137.699 72.848C137.816 72.8587 137.939 72.8427 138.067 72.8C138.195 72.7467 138.333 72.64 138.483 72.48C138.643 72.32 138.781 72.1067 138.899 71.84C139.027 71.5733 139.139 71.2 139.235 70.72C139.341 70.2293 139.411 69.6693 139.443 69.04L139.571 66.8H144.579V74ZM150.038 66.8H152.278V74H150.998V71.6H149.606L147.846 74H146.294L148.374 71.28C147.937 71.184 147.569 70.9493 147.27 70.576C146.972 70.192 146.822 69.7333 146.822 69.2C146.822 68.464 147.089 67.8827 147.622 67.456C148.156 67.0187 148.961 66.8 150.038 66.8ZM148.182 69.232C148.182 69.5733 148.316 69.856 148.582 70.08C148.849 70.2933 149.164 70.4 149.526 70.4H150.998V68H149.83C149.286 68 148.876 68.112 148.598 68.336C148.321 68.56 148.182 68.8587 148.182 69.232ZM155.965 74H154.605V66.8H155.965V69.68H157.533C157.682 68.7627 158.082 68.0267 158.733 67.472C159.394 66.9173 160.205 66.64 161.165 66.64C162.296 66.64 163.202 66.9973 163.885 67.712C164.578 68.4267 164.925 69.3227 164.925 70.4C164.925 71.4773 164.573 72.3787 163.869 73.104C163.176 73.808 162.274 74.16 161.165 74.16C160.152 74.16 159.32 73.8667 158.669 73.28C158.018 72.6933 157.634 71.92 157.517 70.96H155.965V74ZM159.565 68.608C159.138 69.0667 158.925 69.664 158.925 70.4C158.925 71.136 159.138 71.7333 159.565 72.192C159.992 72.6507 160.541 72.88 161.213 72.88C161.885 72.88 162.429 72.656 162.845 72.208C163.272 71.7493 163.485 71.1467 163.485 70.4C163.485 69.664 163.277 69.0667 162.861 68.608C162.445 68.1493 161.896 67.92 161.213 67.92C160.541 67.92 159.992 68.1493 159.565 68.608ZM175.881 74H166.761V66.8H168.041V72.8H170.681V66.8H171.961V72.8H174.601V66.8H175.881V72.8H177.081V75.76H175.881V74ZM183.92 68.64L179.76 74H178.48V66.8H179.76V72.16L183.92 66.8H185.2V74H183.92V68.64ZM193.207 72.208L193.607 73.216C192.914 73.8453 192.012 74.16 190.903 74.16C189.73 74.16 188.796 73.8187 188.103 73.136C187.399 72.4533 187.047 71.5413 187.047 70.4C187.047 69.3227 187.378 68.4267 188.039 67.712C188.69 66.9973 189.596 66.64 190.759 66.64C191.719 66.64 192.514 66.9493 193.143 67.568C193.783 68.176 194.103 68.9653 194.103 69.936C194.103 70.2453 194.076 70.5333 194.023 70.8H188.487C188.54 71.472 188.791 72 189.239 72.384C189.698 72.768 190.284 72.96 190.999 72.96C191.938 72.96 192.674 72.7093 193.207 72.208ZM190.695 67.84C190.066 67.84 189.543 68.016 189.127 68.368C188.722 68.72 188.482 69.184 188.407 69.76H192.775C192.743 69.1627 192.54 68.6933 192.167 68.352C191.804 68.0107 191.314 67.84 190.695 67.84Z" fill="#10162F"/>
        <rect width="170" height="52" transform="translate(80 97)" fill="#7833FF"/>
        <path d="M105.72 130H102.768V115.96H95.28V130H92.328V113.2H105.72V130ZM110.519 128.68C109.447 127.608 108.911 126.248 108.911 124.6C108.911 122.952 109.447 121.6 110.519 120.544C111.591 119.472 113.015 118.936 114.791 118.936C116.551 118.936 117.967 119.472 119.039 120.544C120.127 121.6 120.671 122.952 120.671 124.6C120.671 126.232 120.127 127.592 119.039 128.68C117.951 129.736 116.535 130.264 114.791 130.264C113.015 130.264 111.591 129.736 110.519 128.68ZM112.703 122.392C112.143 122.968 111.863 123.704 111.863 124.6C111.863 125.496 112.135 126.24 112.679 126.832C113.239 127.408 113.943 127.696 114.791 127.696C115.655 127.696 116.359 127.408 116.903 126.832C117.463 126.256 117.743 125.512 117.743 124.6C117.743 123.704 117.463 122.968 116.903 122.392C116.343 121.816 115.639 121.528 114.791 121.528C113.959 121.528 113.263 121.816 112.703 122.392ZM132.572 130H129.812V121.96H126.956L126.884 123.112C126.676 125.064 126.372 126.552 125.972 127.576C125.588 128.6 125.092 129.296 124.484 129.664C123.892 130.016 123.068 130.2 122.012 130.216L121.772 127.528C122.124 127.544 122.452 127.448 122.756 127.24C123.108 126.984 123.42 126.448 123.692 125.632C123.964 124.816 124.14 123.792 124.22 122.56L124.388 119.2H132.572V130ZM139.677 130H135.645V119.2H138.405V122.152H139.893C141.509 122.152 142.701 122.488 143.469 123.16C144.253 123.832 144.645 124.744 144.645 125.896C144.645 127.128 144.229 128.12 143.397 128.872C142.565 129.624 141.325 130 139.677 130ZM139.653 124.36H138.405V127.6H139.629C141.021 127.6 141.717 127.064 141.717 125.992C141.717 124.904 141.029 124.36 139.653 124.36ZM150.665 130.264C149.721 130.264 148.801 130.096 147.905 129.76C147.009 129.408 146.361 128.976 145.961 128.464L147.377 126.736C147.697 127.104 148.153 127.416 148.745 127.672C149.337 127.928 149.897 128.056 150.425 128.056C151.129 128.056 151.673 127.936 152.057 127.696C152.441 127.456 152.633 127.136 152.633 126.736C152.633 126.368 152.489 126.072 152.201 125.848C151.913 125.624 151.513 125.512 151.001 125.512H148.985V123.664H150.881C151.313 123.664 151.657 123.544 151.913 123.304C152.185 123.048 152.321 122.728 152.321 122.344C152.321 121.56 151.689 121.168 150.425 121.168C149.433 121.168 148.449 121.584 147.473 122.416L146.321 120.76C147.345 119.544 148.889 118.936 150.953 118.936C152.345 118.936 153.409 119.208 154.145 119.752C154.897 120.28 155.273 121.032 155.273 122.008C155.273 122.536 155.097 123.016 154.745 123.448C154.393 123.88 153.905 124.2 153.281 124.408V124.456C154.001 124.6 154.561 124.904 154.961 125.368C155.361 125.816 155.561 126.36 155.561 127C155.561 128.008 155.113 128.808 154.217 129.4C153.337 129.976 152.153 130.264 150.665 130.264ZM159.105 128.68C158.033 127.608 157.497 126.248 157.497 124.6C157.497 122.952 158.033 121.6 159.105 120.544C160.177 119.472 161.601 118.936 163.377 118.936C165.137 118.936 166.553 119.472 167.625 120.544C168.713 121.6 169.257 122.952 169.257 124.6C169.257 126.232 168.713 127.592 167.625 128.68C166.537 129.736 165.121 130.264 163.377 130.264C161.601 130.264 160.177 129.736 159.105 128.68ZM161.289 122.392C160.729 122.968 160.449 123.704 160.449 124.6C160.449 125.496 160.721 126.24 161.265 126.832C161.825 127.408 162.529 127.696 163.377 127.696C164.241 127.696 164.945 127.408 165.489 126.832C166.049 126.256 166.329 125.512 166.329 124.6C166.329 123.704 166.049 122.968 165.489 122.392C164.929 121.816 164.225 121.528 163.377 121.528C162.545 121.528 161.849 121.816 161.289 122.392ZM171.645 130V119.2C171.789 119.2 172.397 119.184 173.469 119.152C174.557 119.104 175.365 119.08 175.893 119.08C179.157 119.08 180.789 120.024 180.789 121.912C180.789 122.52 180.597 123.056 180.213 123.52C179.829 123.968 179.349 124.232 178.773 124.312V124.36C180.309 124.728 181.077 125.56 181.077 126.856C181.077 129.032 179.365 130.12 175.941 130.12C175.445 130.12 174.685 130.096 173.661 130.048C173.405 130.048 173.109 130.04 172.773 130.024C172.453 130.024 172.205 130.016 172.029 130C171.869 130 171.741 130 171.645 130ZM176.133 125.416H174.405V127.816C175.365 127.88 175.973 127.912 176.229 127.912C176.837 127.912 177.309 127.8 177.645 127.576C177.997 127.352 178.173 127.048 178.173 126.664C178.173 125.832 177.493 125.416 176.133 125.416ZM176.133 121.312C175.493 121.312 174.917 121.328 174.405 121.36V123.736H176.205C176.701 123.736 177.101 123.624 177.405 123.4C177.709 123.176 177.861 122.872 177.861 122.488C177.861 121.704 177.285 121.312 176.133 121.312ZM184.532 121.984L183.836 119.968C185.004 119.28 186.276 118.936 187.652 118.936C189.156 118.936 190.252 119.304 190.94 120.04C191.628 120.776 191.972 121.904 191.972 123.424V130H189.572V128.752C188.932 129.68 187.868 130.144 186.38 130.144C185.356 130.144 184.532 129.848 183.908 129.256C183.3 128.648 182.996 127.84 182.996 126.832C182.996 125.712 183.356 124.848 184.076 124.24C184.796 123.632 185.748 123.328 186.932 123.328C187.908 123.328 188.724 123.56 189.38 124.024C189.412 123.064 189.268 122.36 188.948 121.912C188.644 121.464 188.116 121.24 187.364 121.24C186.532 121.24 185.588 121.488 184.532 121.984ZM187.292 127.816C188.22 127.816 188.916 127.488 189.38 126.832V125.728C188.932 125.376 188.3 125.2 187.484 125.2C186.972 125.2 186.556 125.32 186.236 125.56C185.916 125.8 185.756 126.128 185.756 126.544C185.756 126.928 185.9 127.24 186.188 127.48C186.476 127.704 186.844 127.816 187.292 127.816ZM197.226 121.96H193.674V119.2H203.514V121.96H199.986V130H197.226V121.96ZM213.633 126.976L214.425 128.92C213.353 129.816 211.977 130.264 210.297 130.264C208.569 130.264 207.161 129.744 206.073 128.704C205.017 127.68 204.489 126.312 204.489 124.6C204.489 123 205.009 121.656 206.049 120.568C207.089 119.48 208.473 118.936 210.201 118.936C211.625 118.936 212.833 119.408 213.825 120.352C214.817 121.296 215.313 122.496 215.313 123.952C215.313 124.592 215.257 125.088 215.145 125.44H207.345C207.457 126.224 207.801 126.84 208.377 127.288C208.969 127.736 209.705 127.96 210.585 127.96C211.785 127.96 212.801 127.632 213.633 126.976ZM210.081 121.24C208.513 121.24 207.569 122.024 207.249 123.592H212.553C212.569 122.904 212.345 122.344 211.881 121.912C211.433 121.464 210.833 121.24 210.081 121.24ZM227.048 130H224.288V121.96H221.432L221.36 123.112C221.152 125.064 220.848 126.552 220.448 127.576C220.064 128.6 219.568 129.296 218.96 129.664C218.368 130.016 217.544 130.2 216.488 130.216L216.248 127.528C216.6 127.544 216.928 127.448 217.232 127.24C217.584 126.984 217.896 126.448 218.168 125.632C218.44 124.816 218.616 123.792 218.696 122.56L218.864 119.2H227.048V130ZM234.154 130H230.122V119.2H232.882V122.152H234.37C235.986 122.152 237.178 122.488 237.946 123.16C238.73 123.832 239.122 124.744 239.122 125.896C239.122 127.128 238.706 128.12 237.874 128.872C237.042 129.624 235.802 130 234.154 130ZM234.13 124.36H232.882V127.6H234.106C235.498 127.6 236.194 127.064 236.194 125.992C236.194 124.904 235.506 124.36 234.13 124.36Z" fill="white"/>
        <rect width="88" height="52" transform="translate(80 157)" fill="#7833FF"/>
        <path d="M92.328 189.976C93.312 190.048 95.472 190.096 97.008 190.096C100.56 190.096 103.248 188.512 103.248 185.056C103.248 182.824 101.952 181.552 100.296 181.144V181.096C101.736 180.424 102.696 179.2 102.696 177.28C102.696 174.952 101.184 173.128 97.176 173.128C95.496 173.128 93.264 173.2 92.328 173.248V189.976ZM97.368 182.776C99.216 182.776 100.296 183.496 100.296 184.912C100.296 186.496 99.216 187.336 97.224 187.336C96.384 187.336 95.688 187.264 95.28 187.216V182.776H97.368ZM97.128 175.888C98.712 175.888 99.768 176.608 99.768 177.976C99.768 179.512 98.64 180.208 97.272 180.208H95.28V175.96C95.808 175.912 96.456 175.888 97.128 175.888ZM106.349 194.8H109.109V189.736C109.733 190.096 110.669 190.264 111.629 190.264C115.085 190.264 117.341 187.72 117.341 184.432C117.341 181.24 115.421 178.936 112.445 178.936C111.053 178.936 109.781 179.512 109.109 180.232V179.2H106.349V194.8ZM111.581 181.528C113.405 181.528 114.413 182.776 114.413 184.504C114.413 186.304 113.309 187.696 111.389 187.696C110.477 187.696 109.853 187.552 109.109 187.072V182.704C109.781 181.96 110.645 181.528 111.581 181.528ZM128.203 186.976C127.579 187.48 126.475 187.96 125.155 187.96C123.451 187.96 122.155 187.072 121.915 185.44H129.715C129.835 185.032 129.883 184.624 129.883 183.952C129.883 180.928 127.555 178.936 124.771 178.936C121.219 178.936 119.059 181.456 119.059 184.6C119.059 188.008 121.387 190.264 124.867 190.264C126.379 190.264 127.915 189.832 128.995 188.92L128.203 186.976ZM124.651 181.24C126.235 181.24 127.147 182.272 127.123 183.592H121.819C122.107 182.176 122.995 181.24 124.651 181.24ZM132.106 190H134.866V183.4L138.154 187.432H138.226L141.418 183.4V190H144.178V179.2H141.754L138.274 183.712L134.602 179.2H132.106V190ZM152.527 179.2C148.639 179.2 147.151 180.952 147.151 183.04C147.151 184.816 148.303 185.824 149.239 186.16L146.359 190H149.527L151.759 186.76H153.295V190H156.055V179.2H152.527ZM150.103 183.232C150.103 182.416 150.727 181.6 152.071 181.6H153.295V184.72H151.855C150.991 184.72 150.103 184.12 150.103 183.232Z" fill="white"/>
        <rect width="122" height="52" transform="translate(80 217)" fill="#7833FF"/>
        <path d="M95.28 250H92.328V233.2H95.28V241.168L101.904 233.2H105.456L98.544 241.024L105.888 250H102.144L95.28 241.336V250ZM108.501 241.984L107.805 239.968C108.973 239.28 110.245 238.936 111.621 238.936C113.125 238.936 114.221 239.304 114.909 240.04C115.597 240.776 115.941 241.904 115.941 243.424V250H113.541V248.752C112.901 249.68 111.837 250.144 110.349 250.144C109.325 250.144 108.501 249.848 107.877 249.256C107.269 248.648 106.965 247.84 106.965 246.832C106.965 245.712 107.325 244.848 108.045 244.24C108.765 243.632 109.717 243.328 110.901 243.328C111.877 243.328 112.693 243.56 113.349 244.024C113.381 243.064 113.237 242.36 112.917 241.912C112.613 241.464 112.085 241.24 111.333 241.24C110.501 241.24 109.557 241.488 108.501 241.984ZM111.261 247.816C112.189 247.816 112.885 247.488 113.349 246.832V245.728C112.901 245.376 112.269 245.2 111.453 245.2C110.941 245.2 110.525 245.32 110.205 245.56C109.885 245.8 109.725 246.128 109.725 246.544C109.725 246.928 109.869 247.24 110.157 247.48C110.445 247.704 110.813 247.816 111.261 247.816ZM121.53 254.8H118.77V239.2H121.53V240.232C121.882 239.848 122.362 239.536 122.97 239.296C123.578 239.056 124.21 238.936 124.866 238.936C126.354 238.936 127.538 239.448 128.418 240.472C129.314 241.512 129.762 242.832 129.762 244.432C129.762 246.112 129.234 247.504 128.178 248.608C127.122 249.712 125.746 250.264 124.05 250.264C122.962 250.264 122.122 250.088 121.53 249.736V254.8ZM124.002 241.528C123.042 241.528 122.218 241.92 121.53 242.704V247.072C122.186 247.488 122.946 247.696 123.81 247.696C124.722 247.696 125.45 247.4 125.994 246.808C126.554 246.216 126.834 245.448 126.834 244.504C126.834 243.608 126.578 242.888 126.066 242.344C125.57 241.8 124.882 241.528 124.002 241.528ZM134.155 241.96H130.603V239.2H140.443V241.96H136.915V250H134.155V241.96ZM150.219 243.16L145.179 250H142.419V239.2H145.179V246.04L150.219 239.2H152.979V250H150.219V243.16ZM166.307 250H163.547V245.872H158.819V250H156.059V239.2H158.819V243.28H163.547V239.2H166.307V250ZM176.116 239.2H179.596L175.444 244.336L180.1 250H176.5L172.228 244.552L176.116 239.2ZM172.132 250H169.372V239.2H172.132V250ZM182.564 241.984L181.868 239.968C183.036 239.28 184.308 238.936 185.684 238.936C187.188 238.936 188.284 239.304 188.972 240.04C189.66 240.776 190.004 241.904 190.004 243.424V250H187.604V248.752C186.964 249.68 185.9 250.144 184.412 250.144C183.388 250.144 182.564 249.848 181.94 249.256C181.332 248.648 181.028 247.84 181.028 246.832C181.028 245.712 181.388 244.848 182.108 244.24C182.828 243.632 183.78 243.328 184.964 243.328C185.94 243.328 186.756 243.56 187.412 244.024C187.444 243.064 187.3 242.36 186.98 241.912C186.676 241.464 186.148 241.24 185.396 241.24C184.564 241.24 183.62 241.488 182.564 241.984ZM185.324 247.816C186.252 247.816 186.948 247.488 187.412 246.832V245.728C186.964 245.376 186.332 245.2 185.516 245.2C185.004 245.2 184.588 245.32 184.268 245.56C183.948 245.8 183.788 246.128 183.788 246.544C183.788 246.928 183.932 247.24 184.22 247.48C184.508 247.704 184.876 247.816 185.324 247.816Z" fill="white"/>
        <rect width="78" height="52" transform="translate(80 277)" fill="#7833FF"/>
        <path d="M95.688 295.96H90.24V293.2H104.088V295.96H98.64V310H95.688V295.96ZM111.164 306.976L111.956 308.92C110.884 309.816 109.508 310.264 107.828 310.264C106.1 310.264 104.692 309.744 103.604 308.704C102.548 307.68 102.02 306.312 102.02 304.6C102.02 303 102.54 301.656 103.58 300.568C104.62 299.48 106.004 298.936 107.732 298.936C109.156 298.936 110.364 299.408 111.356 300.352C112.348 301.296 112.844 302.496 112.844 303.952C112.844 304.592 112.788 305.088 112.676 305.44H104.876C104.988 306.224 105.332 306.84 105.908 307.288C106.5 307.736 107.236 307.96 108.116 307.96C109.316 307.96 110.332 307.632 111.164 306.976ZM107.612 301.24C106.044 301.24 105.1 302.024 104.78 303.592H110.084C110.1 302.904 109.876 302.344 109.412 301.912C108.964 301.464 108.364 301.24 107.612 301.24ZM121.811 299.2H125.291L121.139 304.336L125.795 310H122.195L117.923 304.552L121.811 299.2ZM117.827 310H115.067V299.2H117.827V310ZM134.947 306.376L136.243 308.392C135.331 309.64 133.899 310.264 131.947 310.264C130.203 310.264 128.787 309.744 127.699 308.704C126.627 307.68 126.091 306.312 126.091 304.6C126.091 302.984 126.619 301.64 127.675 300.568C128.731 299.48 130.067 298.936 131.683 298.936C133.603 298.936 135.051 299.424 136.027 300.4L134.731 302.584C133.995 301.88 133.099 301.528 132.043 301.528C131.243 301.528 130.539 301.816 129.931 302.392C129.339 302.936 129.043 303.672 129.043 304.6C129.043 305.528 129.347 306.28 129.955 306.856C130.595 307.416 131.331 307.696 132.163 307.696C133.235 307.696 134.163 307.256 134.947 306.376ZM140.671 301.96H137.119V299.2H146.959V301.96H143.431V310H140.671V301.96Z" fill="white"/>
        <rect width="167" height="52" transform="translate(80 337)" fill="#7833FF"/>
        <path d="M92.328 370H95.28V361.336L102.144 370H105.888L98.544 361.024L105.456 353.2H101.904L95.28 361.168V353.2H92.328V370ZM105.911 364.6C105.911 367.84 108.215 370.264 111.791 370.264C115.367 370.264 117.671 367.84 117.671 364.6C117.671 361.36 115.367 358.936 111.791 358.936C108.215 358.936 105.911 361.36 105.911 364.6ZM108.863 364.6C108.863 362.728 110.159 361.528 111.791 361.528C113.471 361.528 114.743 362.776 114.743 364.6C114.743 366.472 113.495 367.696 111.791 367.696C110.111 367.696 108.863 366.4 108.863 364.6ZM120.059 370H122.819V363.4L126.107 367.432H126.179L129.371 363.4V370H132.131V359.2H129.707L126.227 363.712L122.555 359.2H120.059V370ZM135.2 370H137.96V363.4L141.248 367.432H141.32L144.512 363.4V370H147.272V359.2H144.848L141.368 363.712L137.696 359.2H135.2V370ZM158.813 366.976C158.189 367.48 157.085 367.96 155.765 367.96C154.061 367.96 152.765 367.072 152.525 365.44H160.325C160.445 365.032 160.493 364.624 160.493 363.952C160.493 360.928 158.165 358.936 155.381 358.936C151.829 358.936 149.669 361.456 149.669 364.6C149.669 368.008 151.997 370.264 155.477 370.264C156.989 370.264 158.525 369.832 159.605 368.92L158.813 366.976ZM155.261 361.24C156.845 361.24 157.757 362.272 157.733 363.592H152.429C152.717 362.176 153.605 361.24 155.261 361.24ZM170.204 370H172.964V359.2H170.204V363.28H165.476V359.2H162.716V370H165.476V365.872H170.204V370ZM174.9 361.96H178.452V370H181.212V361.96H184.74V359.2H174.9V361.96ZM187.556 361.984C188.348 361.624 189.14 361.24 190.388 361.24C191.996 361.24 192.476 362.224 192.404 364.024C191.876 363.64 190.916 363.328 189.956 363.328C187.772 363.328 186.02 364.456 186.02 366.832C186.02 368.92 187.436 370.144 189.404 370.144C190.868 370.144 192.02 369.568 192.596 368.752V370H194.996V363.424C194.996 360.568 193.868 358.936 190.676 358.936C189.26 358.936 187.796 359.416 186.86 359.968L187.556 361.984ZM190.316 367.816C189.452 367.816 188.78 367.36 188.78 366.544C188.78 365.632 189.596 365.2 190.508 365.2C191.3 365.2 191.924 365.368 192.404 365.728V366.832C192.068 367.312 191.468 367.816 190.316 367.816ZM197.825 374.8H200.585V369.736C201.209 370.096 202.145 370.264 203.105 370.264C206.561 370.264 208.817 367.72 208.817 364.432C208.817 361.24 206.897 358.936 203.921 358.936C202.529 358.936 201.257 359.512 200.585 360.232V359.2H197.825V374.8ZM203.057 361.528C204.881 361.528 205.889 362.776 205.889 364.504C205.889 366.304 204.785 367.696 202.865 367.696C201.953 367.696 201.329 367.552 200.585 367.072V362.704C201.257 361.96 202.121 361.528 203.057 361.528ZM213.968 370L219.008 363.16V370H221.768V359.2H219.008L213.968 366.04V359.2H211.208V370H213.968ZM227.609 370L232.649 363.16V370H235.409V359.2H232.649L227.609 366.04V359.2H224.849V370H227.609Z" fill="white"/>
        <rect width="94" height="44" transform="translate(80 457)" fill="white"/>
        <path d="M90.528 487.328L89.52 486.96L94.848 472.64L95.84 473.008L90.528 487.328ZM95.8874 487.328L94.8794 486.96L100.207 472.64L101.199 473.008L95.8874 487.328ZM106.751 487.2H105.471V484.16H105.295C104.089 484.16 103.135 483.808 102.431 483.104C101.737 482.389 101.391 481.488 101.391 480.4C101.391 479.365 101.743 478.48 102.447 477.744C103.151 477.008 104.095 476.64 105.279 476.64H105.471V472.8H106.751V476.64H106.959C108.132 476.64 109.071 476.997 109.775 477.712C110.479 478.427 110.831 479.323 110.831 480.4C110.831 481.52 110.489 482.427 109.807 483.12C109.135 483.813 108.185 484.16 106.959 484.16H106.751V487.2ZM102.751 480.4C102.751 481.179 102.98 481.803 103.439 482.272C103.908 482.731 104.543 482.96 105.343 482.96H105.471V477.84H105.263C104.484 477.84 103.871 478.08 103.423 478.56C102.975 479.029 102.751 479.643 102.751 480.4ZM106.959 477.84H106.751V482.96H106.895C107.705 482.96 108.335 482.731 108.783 482.272C109.241 481.803 109.471 481.179 109.471 480.4C109.471 479.696 109.247 479.093 108.799 478.592C108.351 478.091 107.737 477.84 106.959 477.84ZM117.474 476.8H118.93L116.05 484C115.528 485.269 115.074 486.112 114.69 486.528C114.285 486.976 113.821 487.2 113.298 487.2C112.829 487.2 112.376 487.051 111.938 486.752L112.354 485.776C112.696 485.936 112.962 486.016 113.154 486.016C113.453 486.016 113.72 485.888 113.954 485.632C114.2 485.376 114.445 484.96 114.69 484.384L114.85 484L111.394 476.8H112.93L115.042 481.376C115.085 481.451 115.229 481.813 115.474 482.464C115.57 482.112 115.682 481.744 115.81 481.36L117.474 476.8ZM126.806 484H125.526V480.96H121.526V484H120.246V476.8H121.526V479.76H125.526V476.8H126.806V484ZM133.745 476.8H135.425L132.273 480.24L135.729 484H133.953L130.705 480.32L133.745 476.8ZM130.401 484H129.121V476.8H130.401V484ZM143.49 484H137.09V476.8H138.37V482.8H142.21V476.8H143.49V482.8H144.69V485.76H143.49V484ZM151.514 478.64L147.354 484H146.074V476.8H147.354V482.16L151.514 476.8H152.794V484H151.514V478.64ZM160.561 478.64L156.401 484H155.121V476.8H156.401V482.16L160.561 476.8H161.841V484H160.561V478.64Z" fill="#6C7991"/>
        <rect width="164" height="84" transform="translate(80 509)" fill="#FFE000"/>
        <path d="M91.08 533.6C91.08 531.152 91.896 529.096 93.528 527.432C95.192 525.768 97.288 524.936 99.816 524.936C102.344 524.936 104.432 525.736 106.08 527.336C107.744 528.952 108.576 531.04 108.576 533.6C108.576 536.112 107.744 538.184 106.08 539.816C104.416 541.448 102.328 542.264 99.816 542.264C97.288 542.264 95.2 541.464 93.552 539.864C91.904 538.264 91.08 536.176 91.08 533.6ZM94.2 533.6C94.2 535.296 94.736 536.704 95.808 537.824C96.88 538.944 98.216 539.504 99.816 539.504C101.544 539.504 102.912 538.944 103.92 537.824C104.944 536.704 105.456 535.296 105.456 533.6C105.456 531.888 104.912 530.472 103.824 529.352C102.736 528.248 101.4 527.696 99.816 527.696C98.2 527.696 96.856 528.248 95.784 529.352C94.728 530.456 94.2 531.872 94.2 533.6ZM113.624 533.96H110.072V531.2H119.912V533.96H116.384V542H113.624V533.96ZM128.632 531.2H132.112L127.96 536.336L132.616 542H129.016L124.744 536.552L128.632 531.2ZM124.648 542H121.888V531.2H124.648V542ZM144.056 542H141.296V533.96H138.44L138.368 535.112C138.16 537.064 137.856 538.552 137.456 539.576C137.072 540.6 136.576 541.296 135.968 541.664C135.376 542.016 134.552 542.2 133.496 542.216L133.256 539.528C133.608 539.544 133.936 539.448 134.24 539.24C134.592 538.984 134.904 538.448 135.176 537.632C135.448 536.816 135.624 535.792 135.704 534.56L135.872 531.2H144.056V542ZM150.058 542H147.13V531.2H150.058V535.112H151.978C152.266 533.832 152.898 532.816 153.874 532.064C154.85 531.312 156.042 530.936 157.45 530.936C159.178 530.936 160.578 531.472 161.65 532.544C162.722 533.6 163.258 534.952 163.258 536.6C163.258 538.216 162.714 539.568 161.626 540.656C160.554 541.728 159.162 542.264 157.45 542.264C155.994 542.264 154.77 541.872 153.778 541.088C152.802 540.288 152.186 539.216 151.93 537.872H150.058V542ZM154.93 536.6C154.93 537.496 155.162 538.208 155.626 538.736C156.106 539.248 156.738 539.504 157.522 539.504C158.306 539.504 158.938 539.248 159.418 538.736C159.898 538.208 160.138 537.496 160.138 536.6C160.138 535.704 159.898 535 159.418 534.488C158.954 533.96 158.322 533.696 157.522 533.696C156.754 533.696 156.13 533.96 155.65 534.488C155.17 535.016 154.93 535.72 154.93 536.6ZM171.621 531.2H174.381V542H171.621V538.28C170.821 538.696 169.925 538.904 168.933 538.904C167.589 538.904 166.597 538.552 165.957 537.848C165.333 537.144 165.021 536.08 165.021 534.656V531.2H167.973V534.32C167.973 535.648 168.557 536.312 169.725 536.312C170.477 536.312 171.109 536.168 171.621 535.88V531.2ZM185.258 535.16L180.218 542H177.458V531.2H180.218V538.04L185.258 531.2H188.018V542H185.258V535.16ZM193.523 533.96H189.971V531.2H199.811V533.96H196.283V542H193.523V533.96ZM205.818 542H201.786V531.2H204.546V534.152H206.034C207.65 534.152 208.842 534.488 209.61 535.16C210.394 535.832 210.786 536.744 210.786 537.896C210.786 539.128 210.37 540.12 209.538 540.872C208.706 541.624 207.466 542 205.818 542ZM205.794 536.36H204.546V539.6H205.77C207.162 539.6 207.858 539.064 207.858 537.992C207.858 536.904 207.17 536.36 205.794 536.36ZM98.28 563.2H101.76L97.608 568.336L102.264 574H98.664L94.392 568.552L98.28 563.2ZM94.296 574H91.536V563.2H94.296V574ZM104.167 572.68C103.095 571.608 102.559 570.248 102.559 568.6C102.559 566.952 103.095 565.6 104.167 564.544C105.239 563.472 106.663 562.936 108.439 562.936C110.199 562.936 111.615 563.472 112.687 564.544C113.775 565.6 114.319 566.952 114.319 568.6C114.319 570.232 113.775 571.592 112.687 572.68C111.599 573.736 110.183 574.264 108.439 574.264C106.663 574.264 105.239 573.736 104.167 572.68ZM106.351 566.392C105.791 566.968 105.511 567.704 105.511 568.6C105.511 569.496 105.783 570.24 106.327 570.832C106.887 571.408 107.591 571.696 108.439 571.696C109.303 571.696 110.007 571.408 110.551 570.832C111.111 570.256 111.391 569.512 111.391 568.6C111.391 567.704 111.111 566.968 110.551 566.392C109.991 565.816 109.287 565.528 108.439 565.528C107.607 565.528 106.911 565.816 106.351 566.392ZM119.468 574H116.708V563.2H119.204L122.876 567.712L126.356 563.2H128.78V574H126.02V567.4L122.828 571.432H122.756L119.468 567.4V574ZM134.609 574H131.849V563.2H134.345L138.017 567.712L141.497 563.2H143.921V574H141.161V567.4L137.969 571.432H137.897L134.609 567.4V574ZM155.461 570.976L156.253 572.92C155.181 573.816 153.805 574.264 152.125 574.264C150.397 574.264 148.989 573.744 147.901 572.704C146.845 571.68 146.317 570.312 146.317 568.6C146.317 567 146.837 565.656 147.877 564.568C148.917 563.48 150.301 562.936 152.029 562.936C153.453 562.936 154.661 563.408 155.653 564.352C156.645 565.296 157.141 566.496 157.141 567.952C157.141 568.592 157.085 569.088 156.973 569.44H149.173C149.285 570.224 149.629 570.84 150.205 571.288C150.797 571.736 151.533 571.96 152.413 571.96C153.613 571.96 154.629 571.632 155.461 570.976ZM151.909 565.24C150.341 565.24 149.397 566.024 149.077 567.592H154.381C154.397 566.904 154.173 566.344 153.709 565.912C153.261 565.464 152.661 565.24 151.909 565.24ZM169.612 574H166.852V569.872H162.124V574H159.364V563.2H162.124V567.28H166.852V563.2H169.612V574ZM175.101 565.96H171.549V563.2H181.389V565.96H177.861V574H175.101V565.96ZM184.204 565.984L183.508 563.968C184.676 563.28 185.948 562.936 187.324 562.936C188.828 562.936 189.924 563.304 190.612 564.04C191.3 564.776 191.644 565.904 191.644 567.424V574H189.244V572.752C188.604 573.68 187.54 574.144 186.052 574.144C185.028 574.144 184.204 573.848 183.58 573.256C182.972 572.648 182.668 571.84 182.668 570.832C182.668 569.712 183.028 568.848 183.748 568.24C184.468 567.632 185.42 567.328 186.604 567.328C187.58 567.328 188.396 567.56 189.052 568.024C189.084 567.064 188.94 566.36 188.62 565.912C188.316 565.464 187.788 565.24 187.036 565.24C186.204 565.24 185.26 565.488 184.204 565.984ZM186.964 571.816C187.892 571.816 188.588 571.488 189.052 570.832V569.728C188.604 569.376 187.972 569.2 187.156 569.2C186.644 569.2 186.228 569.32 185.908 569.56C185.588 569.8 185.428 570.128 185.428 570.544C185.428 570.928 185.572 571.24 185.86 571.48C186.148 571.704 186.516 571.816 186.964 571.816ZM197.234 578.8H194.474V563.2H197.234V564.232C197.586 563.848 198.066 563.536 198.674 563.296C199.282 563.056 199.914 562.936 200.57 562.936C202.058 562.936 203.242 563.448 204.122 564.472C205.018 565.512 205.466 566.832 205.466 568.432C205.466 570.112 204.938 571.504 203.882 572.608C202.826 573.712 201.45 574.264 199.754 574.264C198.666 574.264 197.826 574.088 197.234 573.736V578.8ZM199.706 565.528C198.746 565.528 197.922 565.92 197.234 566.704V571.072C197.89 571.488 198.65 571.696 199.514 571.696C200.426 571.696 201.154 571.4 201.698 570.808C202.258 570.216 202.538 569.448 202.538 568.504C202.538 567.608 202.282 566.888 201.77 566.344C201.274 565.8 200.586 565.528 199.706 565.528ZM215.656 567.16L210.616 574H207.856V563.2H210.616V570.04L215.656 563.2H218.416V574H215.656V567.16ZM229.297 567.16L224.257 574H221.497V563.2H224.257V570.04L229.297 563.2H232.057V574H229.297V567.16Z" fill="#6C7991"/>
    </g>
    <rect x="64" y="1" width="210.328" height="628" stroke="#D3DBE6" stroke-width="2" stroke-linecap="round" stroke-dasharray="5.33 5.33"/>
    <g clip-path="url(#clip1_0_11)">
        <path d="M313.496 40H310.568V25.96H305.672L305.336 29.128C305.144 31.048 304.896 32.688 304.592 34.048C304.288 35.408 303.952 36.496 303.584 37.312C303.216 38.128 302.776 38.752 302.264 39.184C301.768 39.616 301.248 39.888 300.704 40C300.176 40.096 299.56 40.096 298.856 40L298.928 37.072C299.28 37.12 299.568 37.104 299.792 37.024C300.016 36.944 300.28 36.72 300.584 36.352C300.92 35.936 301.192 35.384 301.4 34.696C301.976 32.984 302.4 30.272 302.672 26.56L302.912 23.2H313.496V40ZM320.277 40H317.349V29.2H320.277V33.112H322.197C322.485 31.832 323.117 30.816 324.093 30.064C325.069 29.312 326.261 28.936 327.669 28.936C329.397 28.936 330.797 29.472 331.869 30.544C332.941 31.6 333.477 32.952 333.477 34.6C333.477 36.216 332.933 37.568 331.845 38.656C330.773 39.728 329.381 40.264 327.669 40.264C326.213 40.264 324.989 39.872 323.997 39.088C323.021 38.288 322.405 37.216 322.149 35.872H320.277V40ZM325.149 34.6C325.149 35.496 325.381 36.208 325.845 36.736C326.325 37.248 326.957 37.504 327.741 37.504C328.525 37.504 329.157 37.248 329.637 36.736C330.117 36.208 330.357 35.496 330.357 34.6C330.357 33.704 330.117 33 329.637 32.488C329.173 31.96 328.541 31.696 327.741 31.696C326.973 31.696 326.349 31.96 325.869 32.488C325.389 33.016 325.149 33.72 325.149 34.6ZM336.808 42.52H334.24V37.432H335.608C336.456 36.296 336.96 34.416 337.12 31.792L337.288 29.2H345.256V37.432H347.056V42.52H344.464V40H336.808V42.52ZM339.856 31.792L339.784 32.896C339.592 34.976 339.16 36.488 338.488 37.432H342.496V31.792H339.856ZM356.672 33.16L351.632 40H348.872V29.2H351.632V36.04L356.672 29.2H359.432V40H356.672V33.16Z" fill="#10162F"/>
        <path d="M298.856 77.328L297.848 76.96L303.176 62.64L304.168 63.008L298.856 77.328ZM304.216 77.328L303.208 76.96L308.536 62.64L309.528 63.008L304.216 77.328ZM315.735 72.032L316.343 72.96C315.724 73.76 314.802 74.16 313.575 74.16C312.423 74.16 311.49 73.8187 310.775 73.136C310.071 72.4533 309.719 71.5413 309.719 70.4C309.719 69.344 310.066 68.4533 310.759 67.728C311.452 67.0027 312.322 66.64 313.367 66.64C314.626 66.64 315.57 66.9547 316.199 67.584L315.607 68.592C315.052 68.0907 314.364 67.84 313.543 67.84C312.871 67.84 312.29 68.0853 311.799 68.576C311.319 69.056 311.079 69.664 311.079 70.4C311.079 71.1787 311.324 71.7973 311.815 72.256C312.316 72.7253 312.935 72.96 313.671 72.96C314.503 72.96 315.191 72.6507 315.735 72.032ZM318.197 73.104C317.493 72.3787 317.141 71.4773 317.141 70.4C317.141 69.312 317.493 68.416 318.197 67.712C318.912 66.9973 319.84 66.64 320.981 66.64C322.122 66.64 323.045 66.9973 323.749 67.712C324.464 68.416 324.821 69.312 324.821 70.4C324.821 71.488 324.464 72.3893 323.749 73.104C323.045 73.808 322.122 74.16 320.981 74.16C319.85 74.16 318.922 73.808 318.197 73.104ZM319.205 68.56C318.736 69.0293 318.501 69.6427 318.501 70.4C318.501 71.1573 318.73 71.7707 319.189 72.24C319.658 72.72 320.256 72.96 320.981 72.96C321.706 72.96 322.298 72.7253 322.757 72.256C323.226 71.776 323.461 71.1573 323.461 70.4C323.461 69.664 323.226 69.0507 322.757 68.56C322.298 68.08 321.706 67.84 320.981 67.84C320.256 67.84 319.664 68.08 319.205 68.56ZM332.204 72.032L332.812 72.96C332.193 73.76 331.27 74.16 330.044 74.16C328.892 74.16 327.958 73.8187 327.244 73.136C326.54 72.4533 326.188 71.5413 326.188 70.4C326.188 69.344 326.534 68.4533 327.228 67.728C327.921 67.0027 328.79 66.64 329.836 66.64C331.094 66.64 332.038 66.9547 332.668 67.584L332.076 68.592C331.521 68.0907 330.833 67.84 330.012 67.84C329.34 67.84 328.758 68.0853 328.268 68.576C327.788 69.056 327.548 69.664 327.548 70.4C327.548 71.1787 327.793 71.7973 328.284 72.256C328.785 72.7253 329.404 72.96 330.14 72.96C330.972 72.96 331.66 72.6507 332.204 72.032ZM336.115 68.08H333.475V66.8H340.035V68.08H337.395V74H336.115V68.08ZM341.817 68.32L341.481 67.296C342.196 66.8587 342.996 66.64 343.881 66.64C344.852 66.64 345.556 66.88 345.993 67.36C346.431 67.84 346.649 68.5813 346.649 69.584V74H345.433V73.072C344.868 73.7653 344.1 74.112 343.129 74.112C342.468 74.112 341.935 73.9147 341.529 73.52C341.124 73.1147 340.921 72.5707 340.921 71.888C340.921 71.184 341.172 70.6293 341.673 70.224C342.175 69.808 342.831 69.6 343.641 69.6C344.399 69.6 344.996 69.7547 345.433 70.064C345.433 69.2533 345.321 68.672 345.097 68.32C344.873 67.968 344.441 67.792 343.801 67.792C343.151 67.792 342.489 67.968 341.817 68.32ZM343.577 72.96C344.292 72.96 344.911 72.6507 345.433 72.032V71.12C344.985 70.8 344.447 70.64 343.817 70.64C343.38 70.64 343.012 70.7467 342.713 70.96C342.425 71.1627 342.281 71.4507 342.281 71.824C342.281 72.176 342.393 72.4533 342.617 72.656C342.852 72.8587 343.172 72.96 343.577 72.96ZM348.793 74V66.8C348.846 66.8 348.921 66.8 349.017 66.8C349.113 66.7893 349.251 66.784 349.433 66.784C349.614 66.7733 349.779 66.768 349.929 66.768C350.718 66.7467 351.209 66.736 351.401 66.736C353.47 66.736 354.505 67.3547 354.505 68.592C354.505 69.0187 354.371 69.3867 354.105 69.696C353.838 69.9947 353.491 70.176 353.065 70.24V70.272C354.185 70.4747 354.745 71.04 354.745 71.968C354.745 73.3653 353.641 74.064 351.433 74.064C351.326 74.064 350.857 74.0533 350.025 74.032C349.865 74.032 349.689 74.0267 349.497 74.016C349.305 74.016 349.155 74.0107 349.049 74C348.942 74 348.857 74 348.793 74ZM351.609 70.768H350.073V72.976C350.841 73.008 351.331 73.024 351.545 73.024C352.771 73.024 353.385 72.64 353.385 71.872C353.385 71.136 352.793 70.768 351.609 70.768ZM351.497 67.776C351.187 67.776 350.713 67.792 350.073 67.824V69.968H351.689C352.126 69.968 352.478 69.8667 352.745 69.664C353.011 69.4613 353.145 69.1893 353.145 68.848C353.145 68.1333 352.595 67.776 351.497 67.776ZM362.907 74H361.627V68.08H359.099L359.019 69.296C358.934 70.288 358.806 71.1147 358.635 71.776C358.475 72.4267 358.262 72.9173 357.995 73.248C357.739 73.568 357.467 73.792 357.179 73.92C356.891 74.0373 356.539 74.096 356.123 74.096L356.027 72.848C356.144 72.8587 356.267 72.8427 356.395 72.8C356.523 72.7467 356.662 72.64 356.811 72.48C356.971 72.32 357.11 72.1067 357.227 71.84C357.355 71.5733 357.467 71.2 357.563 70.72C357.67 70.2293 357.739 69.6693 357.771 69.04L357.899 66.8H362.907V74ZM368.367 66.8H370.607V74H369.327V71.6H367.935L366.175 74H364.623L366.703 71.28C366.265 71.184 365.897 70.9493 365.599 70.576C365.3 70.192 365.151 69.7333 365.151 69.2C365.151 68.464 365.417 67.8827 365.951 67.456C366.484 67.0187 367.289 66.8 368.367 66.8ZM366.511 69.232C366.511 69.5733 366.644 69.856 366.911 70.08C367.177 70.2933 367.492 70.4 367.855 70.4H369.327V68H368.159C367.615 68 367.204 68.112 366.927 68.336C366.649 68.56 366.511 68.8587 366.511 69.232ZM374.293 74H372.933V66.8H374.293V69.68H375.861C376.011 68.7627 376.411 68.0267 377.061 67.472C377.723 66.9173 378.533 66.64 379.493 66.64C380.624 66.64 381.531 66.9973 382.213 67.712C382.907 68.4267 383.253 69.3227 383.253 70.4C383.253 71.4773 382.901 72.3787 382.197 73.104C381.504 73.808 380.603 74.16 379.493 74.16C378.48 74.16 377.648 73.8667 376.997 73.28C376.347 72.6933 375.963 71.92 375.845 70.96H374.293V74ZM377.893 68.608C377.467 69.0667 377.253 69.664 377.253 70.4C377.253 71.136 377.467 71.7333 377.893 72.192C378.32 72.6507 378.869 72.88 379.541 72.88C380.213 72.88 380.757 72.656 381.173 72.208C381.6 71.7493 381.813 71.1467 381.813 70.4C381.813 69.664 381.605 69.0667 381.189 68.608C380.773 68.1493 380.224 67.92 379.541 67.92C378.869 67.92 378.32 68.1493 377.893 68.608ZM394.21 74H385.09V66.8H386.37V72.8H389.01V66.8H390.29V72.8H392.93V66.8H394.21V72.8H395.41V75.76H394.21V74ZM402.248 68.64L398.088 74H396.808V66.8H398.088V72.16L402.248 66.8H403.528V74H402.248V68.64ZM411.535 72.208L411.935 73.216C411.242 73.8453 410.341 74.16 409.231 74.16C408.058 74.16 407.125 73.8187 406.431 73.136C405.727 72.4533 405.375 71.5413 405.375 70.4C405.375 69.3227 405.706 68.4267 406.367 67.712C407.018 66.9973 407.925 66.64 409.087 66.64C410.047 66.64 410.842 66.9493 411.471 67.568C412.111 68.176 412.431 68.9653 412.431 69.936C412.431 70.2453 412.405 70.5333 412.351 70.8H406.815C406.869 71.472 407.119 72 407.567 72.384C408.026 72.768 408.613 72.96 409.327 72.96C410.266 72.96 411.002 72.7093 411.535 72.208ZM409.023 67.84C408.394 67.84 407.871 68.016 407.455 68.368C407.05 68.72 406.81 69.184 406.735 69.76H411.103C411.071 69.1627 410.869 68.6933 410.495 68.352C410.133 68.0107 409.642 67.84 409.023 67.84Z" fill="#10162F"/>
        <rect width="73" height="52" transform="translate(298.328 97)" fill="#7833FF"/>
        <path d="M313.608 130V123.928C314.328 124 315.288 124 315.792 124C319.8 124 321.936 121.408 321.936 118.552C321.936 115.792 320.376 113.152 315.432 113.152C314.256 113.152 311.592 113.2 310.656 113.2V130H313.608ZM315.72 115.912C317.736 115.912 318.816 116.776 318.816 118.528C318.816 120.4 317.448 121.24 315.696 121.24C315.024 121.24 314.304 121.192 313.608 121.12V115.96C314.4 115.936 315.12 115.912 315.72 115.912ZM334.976 119.2H331.832L329.888 125.08C329.696 125.632 329.6 126.16 329.504 126.664C329.336 126.136 329.192 125.632 328.976 125.104L326.456 119.2H323.144L328.136 130L327.896 130.576C327.44 131.704 326.936 132.256 326.24 132.256C325.808 132.256 325.4 132.04 325.112 131.872L324.224 133.96C324.848 134.416 325.568 134.8 326.552 134.8C328.136 134.8 329.144 133.864 330.728 130L334.976 119.2ZM346.854 119.2H343.374L339.486 124.552L343.758 130H347.358L342.702 124.336L346.854 119.2ZM336.63 130H339.39V119.2H336.63V130ZM351.741 130L356.781 123.16V130H359.541V119.2H356.781L351.741 126.04V119.2H348.981V130H351.741Z" fill="white"/>
        <rect width="75" height="52" transform="translate(298.328 157)" fill="#7833FF"/>
        <path d="M321.288 190H324.216V173.2H321.288V180.064H313.608V173.2H310.656V190H313.608V182.824H321.288V190ZM327.403 184.6C327.403 187.84 329.707 190.264 333.283 190.264C336.859 190.264 339.163 187.84 339.163 184.6C339.163 181.36 336.859 178.936 333.283 178.936C329.707 178.936 327.403 181.36 327.403 184.6ZM330.355 184.6C330.355 182.728 331.651 181.528 333.283 181.528C334.963 181.528 336.235 182.776 336.235 184.6C336.235 186.472 334.987 187.696 333.283 187.696C331.603 187.696 330.355 186.4 330.355 184.6ZM341.552 190H344.312V181.792H348.8V179.2H341.552V190ZM353.288 190L358.328 183.16V190H361.088V179.2H358.328L353.288 186.04V179.2H350.528V190H353.288Z" fill="white"/>
        <rect width="95" height="44" transform="translate(298.328 217)" fill="white"/>
        <path d="M307.848 246.96L308.856 247.328L314.168 233.008L313.176 232.64L307.848 246.96ZM313.208 246.96L314.216 247.328L319.528 233.008L318.536 232.64L313.208 246.96ZM325.735 242.032C325.255 242.576 324.535 242.96 323.671 242.96C322.247 242.96 321.079 241.984 321.079 240.4C321.079 238.88 322.247 237.84 323.543 237.84C324.295 237.84 324.999 238.032 325.607 238.592L326.199 237.584C325.527 236.912 324.519 236.64 323.367 236.64C321.255 236.64 319.719 238.304 319.719 240.4C319.719 242.672 321.287 244.16 323.575 244.16C324.679 244.16 325.735 243.744 326.343 242.96L325.735 242.032ZM328.012 244C328.668 244 329.756 244.064 330.652 244.064C332.892 244.064 333.964 243.328 333.964 241.968C333.964 241.072 333.436 240.48 332.284 240.272V240.24C333.148 240.112 333.724 239.44 333.724 238.592C333.724 237.296 332.636 236.736 330.62 236.736C329.58 236.736 328.636 236.8 328.012 236.8V244ZM330.828 240.768C331.98 240.768 332.604 241.12 332.604 241.872C332.604 242.624 331.948 243.024 330.764 243.024C330.188 243.024 329.676 242.992 329.292 242.976V240.768H330.828ZM330.716 237.776C331.644 237.776 332.364 238.064 332.364 238.848C332.364 239.552 331.756 239.968 330.908 239.968H329.292V237.824C329.612 237.808 330.14 237.776 330.716 237.776ZM335.438 240.4C335.438 242.56 336.974 244.16 339.278 244.16C341.582 244.16 343.118 242.56 343.118 240.4C343.118 238.24 341.582 236.64 339.278 236.64C336.974 236.64 335.438 238.24 335.438 240.4ZM336.798 240.4C336.798 238.88 337.87 237.84 339.278 237.84C340.718 237.84 341.758 238.896 341.758 240.4C341.758 241.936 340.718 242.96 339.278 242.96C337.838 242.96 336.798 241.904 336.798 240.4ZM346.245 244L350.405 238.64V244H351.685V236.8H350.405L346.245 242.16V236.8H344.965V244H346.245ZM345.989 233.12C345.989 234.384 346.837 235.36 348.421 235.36C349.861 235.36 350.789 234.384 350.789 233.12H349.589C349.525 233.984 349.125 234.384 348.421 234.384C347.653 234.384 347.253 233.984 347.189 233.12H345.989ZM359.548 242.032C359.068 242.576 358.348 242.96 357.484 242.96C356.06 242.96 354.892 241.984 354.892 240.4C354.892 238.88 356.06 237.84 357.356 237.84C358.108 237.84 358.812 238.032 359.42 238.592L360.012 237.584C359.34 236.912 358.332 236.64 357.18 236.64C355.068 236.64 353.532 238.304 353.532 240.4C353.532 242.672 355.1 244.16 357.388 244.16C358.492 244.16 359.548 243.744 360.156 242.96L359.548 242.032ZM360.818 238.08H363.458V244H364.738V238.08H367.378V236.8H360.818V238.08ZM368.777 244C369.433 244 370.521 244.064 371.417 244.064C373.657 244.064 374.729 243.328 374.729 241.968C374.729 241.072 374.201 240.48 373.049 240.272V240.24C373.913 240.112 374.489 239.44 374.489 238.592C374.489 237.296 373.401 236.736 371.385 236.736C370.345 236.736 369.401 236.8 368.777 236.8V244ZM371.593 240.768C372.745 240.768 373.369 241.12 373.369 241.872C373.369 242.624 372.713 243.024 371.529 243.024C370.953 243.024 370.441 242.992 370.057 242.976V240.768H371.593ZM371.481 237.776C372.409 237.776 373.129 238.064 373.129 238.848C373.129 239.552 372.521 239.968 371.673 239.968H370.057V237.824C370.377 237.808 370.905 237.776 371.481 237.776ZM377.067 238.32C377.643 238.016 378.171 237.792 379.051 237.792C380.475 237.792 380.683 238.72 380.683 240.064C380.203 239.712 379.451 239.6 378.891 239.6C377.339 239.6 376.171 240.416 376.171 241.888C376.171 243.28 377.067 244.112 378.379 244.112C379.563 244.112 380.251 243.616 380.683 243.072V244H381.899V239.584C381.899 237.712 381.179 236.64 379.131 236.64C378.235 236.64 377.371 236.896 376.731 237.296L377.067 238.32ZM378.827 242.96C377.995 242.96 377.531 242.512 377.531 241.824C377.531 240.992 378.299 240.64 379.067 240.64C379.691 240.64 380.235 240.8 380.683 241.12V242.032C380.315 242.464 379.771 242.96 378.827 242.96Z" fill="#6C7991"/>
        <rect width="107" height="52" transform="translate(298.328 269)" fill="#7833FF"/>
        <path d="M310.656 301.976C311.64 302.048 313.8 302.096 315.336 302.096C318.888 302.096 321.576 300.512 321.576 297.056C321.576 294.824 320.28 293.552 318.624 293.144V293.096C320.064 292.424 321.024 291.2 321.024 289.28C321.024 286.952 319.512 285.128 315.504 285.128C313.824 285.128 311.592 285.2 310.656 285.248V301.976ZM315.696 294.776C317.544 294.776 318.624 295.496 318.624 296.912C318.624 298.496 317.544 299.336 315.552 299.336C314.712 299.336 314.016 299.264 313.608 299.216V294.776H315.696ZM315.456 287.888C317.04 287.888 318.096 288.608 318.096 289.976C318.096 291.512 316.968 292.208 315.6 292.208H313.608V287.96C314.136 287.912 314.784 287.888 315.456 287.888ZM324.005 296.6C324.005 299.84 326.309 302.264 329.885 302.264C333.461 302.264 335.765 299.84 335.765 296.6C335.765 293.36 333.461 290.936 329.885 290.936C326.309 290.936 324.005 293.36 324.005 296.6ZM326.957 296.6C326.957 294.728 328.253 293.528 329.885 293.528C331.565 293.528 332.837 294.776 332.837 296.6C332.837 298.472 331.589 299.696 329.885 299.696C328.205 299.696 326.957 298.4 326.957 296.6ZM341.969 302.264C344.897 302.264 346.865 301.016 346.865 299C346.865 297.752 346.097 296.744 344.585 296.456V296.408C345.857 295.976 346.577 295.04 346.577 294.008C346.577 292.136 345.113 290.936 342.257 290.936C340.217 290.936 338.609 291.608 337.625 292.76L338.777 294.416C339.449 293.84 340.481 293.168 341.729 293.168C342.929 293.168 343.625 293.6 343.625 294.344C343.625 295.04 343.097 295.664 342.185 295.664H340.289V297.512H342.305C343.361 297.512 343.937 298.016 343.937 298.736C343.937 299.504 343.169 300.056 341.729 300.056C340.697 300.056 339.329 299.456 338.681 298.736L337.265 300.464C338.057 301.472 340.049 302.264 341.969 302.264ZM349.474 306.8H352.234V301.736C352.858 302.096 353.794 302.264 354.754 302.264C358.21 302.264 360.466 299.72 360.466 296.432C360.466 293.24 358.546 290.936 355.57 290.936C354.178 290.936 352.906 291.512 352.234 292.232V291.2H349.474V306.8ZM354.706 293.528C356.53 293.528 357.538 294.776 357.538 296.504C357.538 298.304 356.434 299.696 354.514 299.696C353.602 299.696 352.978 299.552 352.234 299.072V294.704C352.906 293.96 353.77 293.528 354.706 293.528ZM363.696 293.984C364.488 293.624 365.28 293.24 366.528 293.24C368.136 293.24 368.616 294.224 368.544 296.024C368.016 295.64 367.056 295.328 366.096 295.328C363.912 295.328 362.16 296.456 362.16 298.832C362.16 300.92 363.576 302.144 365.544 302.144C367.008 302.144 368.16 301.568 368.736 300.752V302H371.136V295.424C371.136 292.568 370.008 290.936 366.816 290.936C365.4 290.936 363.936 291.416 363 291.968L363.696 293.984ZM366.456 299.816C365.592 299.816 364.92 299.36 364.92 298.544C364.92 297.632 365.736 297.2 366.648 297.2C367.44 297.2 368.064 297.368 368.544 297.728V298.832C368.208 299.312 367.608 299.816 366.456 299.816ZM382.15 298.376C381.454 299.144 380.542 299.696 379.366 299.696C377.734 299.696 376.246 298.52 376.246 296.6C376.246 294.704 377.71 293.528 379.246 293.528C380.23 293.528 381.118 293.792 381.934 294.584L383.23 292.4C382.222 291.392 380.662 290.936 378.886 290.936C375.598 290.936 373.294 293.456 373.294 296.6C373.294 300.008 375.646 302.264 379.15 302.264C380.902 302.264 382.534 301.616 383.446 300.392L382.15 298.376ZM384.322 293.96H387.874V302H390.634V293.96H394.162V291.2H384.322V293.96Z" fill="white"/>
        <rect width="69" height="52" transform="translate(298.328 329)" fill="#7833FF"/>
        <path d="M313.608 362V355.928C314.328 356 315.288 356 315.792 356C319.8 356 321.936 353.408 321.936 350.552C321.936 347.792 320.376 345.152 315.432 345.152C314.256 345.152 311.592 345.2 310.656 345.2V362H313.608ZM315.72 347.912C317.736 347.912 318.816 348.776 318.816 350.528C318.816 352.4 317.448 353.24 315.696 353.24C315.024 353.24 314.304 353.192 313.608 353.12V347.96C314.4 347.936 315.12 347.912 315.72 347.912ZM322.458 356.6C322.458 359.84 324.762 362.264 328.338 362.264C331.914 362.264 334.218 359.84 334.218 356.6C334.218 353.36 331.914 350.936 328.338 350.936C324.762 350.936 322.458 353.36 322.458 356.6ZM325.41 356.6C325.41 354.728 326.706 353.528 328.338 353.528C330.018 353.528 331.29 354.776 331.29 356.6C331.29 358.472 330.042 359.696 328.338 359.696C326.658 359.696 325.41 358.4 325.41 356.6ZM344.79 358.376C344.094 359.144 343.182 359.696 342.006 359.696C340.374 359.696 338.886 358.52 338.886 356.6C338.886 354.704 340.35 353.528 341.886 353.528C342.87 353.528 343.758 353.792 344.574 354.584L345.87 352.4C344.862 351.392 343.302 350.936 341.526 350.936C338.238 350.936 335.934 353.456 335.934 356.6C335.934 360.008 338.286 362.264 341.79 362.264C343.542 362.264 345.174 361.616 346.086 360.392L344.79 358.376ZM346.963 353.96H350.515V362H353.275V353.96H356.803V351.2H346.963V353.96Z" fill="white"/>
        <rect width="65" height="52" transform="translate(298.328 389)" fill="#7833FF"/>
        <path d="M324.048 422H321.096V407.96H313.608V422H310.656V405.2H324.048V422ZM328.847 420.68C327.775 419.608 327.239 418.248 327.239 416.6C327.239 414.952 327.775 413.6 328.847 412.544C329.919 411.472 331.343 410.936 333.119 410.936C334.879 410.936 336.295 411.472 337.367 412.544C338.455 413.6 338.999 414.952 338.999 416.6C338.999 418.232 338.455 419.592 337.367 420.68C336.279 421.736 334.863 422.264 333.119 422.264C331.343 422.264 329.919 421.736 328.847 420.68ZM331.031 414.392C330.471 414.968 330.191 415.704 330.191 416.6C330.191 417.496 330.463 418.24 331.007 418.832C331.567 419.408 332.271 419.696 333.119 419.696C333.983 419.696 334.687 419.408 335.231 418.832C335.791 418.256 336.071 417.512 336.071 416.6C336.071 415.704 335.791 414.968 335.231 414.392C334.671 413.816 333.967 413.528 333.119 413.528C332.287 413.528 331.591 413.816 331.031 414.392ZM350.9 422H348.14V413.96H345.284L345.212 415.112C345.004 417.064 344.7 418.552 344.3 419.576C343.916 420.6 343.42 421.296 342.812 421.664C342.22 422.016 341.396 422.2 340.34 422.216L340.1 419.528C340.452 419.544 340.78 419.448 341.084 419.24C341.436 418.984 341.748 418.448 342.02 417.632C342.292 416.816 342.468 415.792 342.548 414.56L342.716 411.2H350.9V422Z" fill="white"/>
        <rect width="142" height="52" transform="translate(298.328 449)" fill="#7833FF"/>
        <path d="M323.448 482H310.656V465.2H313.608V479.24H320.976V465.2H323.928V479.24H326.208V485H323.448V482ZM328.333 482V471.2C328.477 471.2 329.085 471.184 330.157 471.152C331.245 471.104 332.053 471.08 332.581 471.08C335.845 471.08 337.477 472.024 337.477 473.912C337.477 474.52 337.285 475.056 336.901 475.52C336.517 475.968 336.037 476.232 335.461 476.312V476.36C336.997 476.728 337.765 477.56 337.765 478.856C337.765 481.032 336.053 482.12 332.629 482.12C332.133 482.12 331.373 482.096 330.349 482.048C330.093 482.048 329.797 482.04 329.461 482.024C329.141 482.024 328.893 482.016 328.717 482C328.557 482 328.429 482 328.333 482ZM332.821 477.416H331.093V479.816C332.053 479.88 332.661 479.912 332.917 479.912C333.525 479.912 333.997 479.8 334.333 479.576C334.685 479.352 334.861 479.048 334.861 478.664C334.861 477.832 334.181 477.416 332.821 477.416ZM332.821 473.312C332.181 473.312 331.605 473.328 331.093 473.36V475.736H332.893C333.389 475.736 333.789 475.624 334.093 475.4C334.397 475.176 334.549 474.872 334.549 474.488C334.549 473.704 333.973 473.312 332.821 473.312ZM348.852 478.976L349.644 480.92C348.572 481.816 347.196 482.264 345.516 482.264C343.788 482.264 342.38 481.744 341.292 480.704C340.236 479.68 339.708 478.312 339.708 476.6C339.708 475 340.228 473.656 341.268 472.568C342.308 471.48 343.692 470.936 345.42 470.936C346.844 470.936 348.052 471.408 349.044 472.352C350.036 473.296 350.532 474.496 350.532 475.952C350.532 476.592 350.476 477.088 350.364 477.44H342.564C342.676 478.224 343.02 478.84 343.596 479.288C344.188 479.736 344.924 479.96 345.804 479.96C347.004 479.96 348.02 479.632 348.852 478.976ZM345.3 473.24C343.732 473.24 342.788 474.024 342.468 475.592H347.772C347.788 474.904 347.564 474.344 347.1 473.912C346.652 473.464 346.052 473.24 345.3 473.24ZM355.062 473.96H351.51V471.2H361.35V473.96H357.822V482H355.062V473.96ZM368.411 482V471.2C368.555 471.2 369.163 471.184 370.235 471.152C371.323 471.104 372.131 471.08 372.659 471.08C375.923 471.08 377.555 472.024 377.555 473.912C377.555 474.52 377.363 475.056 376.979 475.52C376.595 475.968 376.115 476.232 375.539 476.312V476.36C377.075 476.728 377.843 477.56 377.843 478.856C377.843 481.032 376.131 482.12 372.707 482.12C372.211 482.12 371.451 482.096 370.427 482.048C370.171 482.048 369.875 482.04 369.539 482.024C369.219 482.024 368.971 482.016 368.795 482C368.635 482 368.507 482 368.411 482ZM372.899 477.416H371.171V479.816C372.131 479.88 372.739 479.912 372.995 479.912C373.603 479.912 374.075 479.8 374.411 479.576C374.763 479.352 374.939 479.048 374.939 478.664C374.939 477.832 374.259 477.416 372.899 477.416ZM372.899 473.312C372.259 473.312 371.683 473.328 371.171 473.36V475.736H372.971C373.467 475.736 373.867 475.624 374.171 475.4C374.475 475.176 374.627 474.872 374.627 474.488C374.627 473.704 374.051 473.312 372.899 473.312ZM381.394 480.68C380.322 479.608 379.786 478.248 379.786 476.6C379.786 474.952 380.322 473.6 381.394 472.544C382.466 471.472 383.89 470.936 385.666 470.936C387.426 470.936 388.842 471.472 389.914 472.544C391.002 473.6 391.546 474.952 391.546 476.6C391.546 478.232 391.002 479.592 389.914 480.68C388.826 481.736 387.41 482.264 385.666 482.264C383.89 482.264 382.466 481.736 381.394 480.68ZM383.578 474.392C383.018 474.968 382.738 475.704 382.738 476.6C382.738 477.496 383.01 478.24 383.554 478.832C384.114 479.408 384.818 479.696 385.666 479.696C386.53 479.696 387.234 479.408 387.778 478.832C388.338 478.256 388.618 477.512 388.618 476.6C388.618 475.704 388.338 474.968 387.778 474.392C387.218 473.816 386.514 473.528 385.666 473.528C384.834 473.528 384.138 473.816 383.578 474.392ZM403.447 482H400.687V473.96H397.831L397.759 475.112C397.551 477.064 397.247 478.552 396.847 479.576C396.463 480.6 395.967 481.296 395.359 481.664C394.767 482.016 393.943 482.2 392.887 482.216L392.647 479.528C392.999 479.544 393.327 479.448 393.631 479.24C393.983 478.984 394.295 478.448 394.567 477.632C394.839 476.816 395.015 475.792 395.095 474.56L395.263 471.2H403.447V482ZM407.457 480.68C406.385 479.608 405.849 478.248 405.849 476.6C405.849 474.952 406.385 473.6 407.457 472.544C408.529 471.472 409.953 470.936 411.729 470.936C413.489 470.936 414.905 471.472 415.977 472.544C417.065 473.6 417.609 474.952 417.609 476.6C417.609 478.232 417.065 479.592 415.977 480.68C414.889 481.736 413.473 482.264 411.729 482.264C409.953 482.264 408.529 481.736 407.457 480.68ZM409.641 474.392C409.081 474.968 408.801 475.704 408.801 476.6C408.801 477.496 409.073 478.24 409.617 478.832C410.177 479.408 410.881 479.696 411.729 479.696C412.593 479.696 413.297 479.408 413.841 478.832C414.401 478.256 414.681 477.512 414.681 476.6C414.681 475.704 414.401 474.968 413.841 474.392C413.281 473.816 412.577 473.528 411.729 473.528C410.897 473.528 410.201 473.816 409.641 474.392ZM428.181 478.376L429.477 480.392C428.565 481.64 427.133 482.264 425.181 482.264C423.437 482.264 422.021 481.744 420.933 480.704C419.861 479.68 419.325 478.312 419.325 476.6C419.325 474.984 419.853 473.64 420.909 472.568C421.965 471.48 423.301 470.936 424.917 470.936C426.837 470.936 428.285 471.424 429.261 472.4L427.965 474.584C427.229 473.88 426.333 473.528 425.277 473.528C424.477 473.528 423.773 473.816 423.165 474.392C422.573 474.936 422.277 475.672 422.277 476.6C422.277 477.528 422.581 478.28 423.189 478.856C423.829 479.416 424.565 479.696 425.397 479.696C426.469 479.696 427.397 479.256 428.181 478.376Z" fill="white"/>
        <rect width="94" height="44" transform="translate(298.328 509)" fill="white"/>
        <path d="M307.848 538.96L308.856 539.328L314.168 525.008L313.176 524.64L307.848 538.96ZM313.208 538.96L314.216 539.328L319.528 525.008L318.536 524.64L313.208 538.96ZM323.799 539.2H325.079V536.16H325.287C327.815 536.16 329.159 534.544 329.159 532.4C329.159 530.288 327.687 528.64 325.287 528.64H325.079V524.8H323.799V528.64H323.607C321.127 528.64 319.719 530.448 319.719 532.4C319.719 534.544 321.143 536.16 323.623 536.16H323.799V539.2ZM321.079 532.4C321.079 531.008 321.943 529.84 323.591 529.84H323.799V534.96H323.671C322.007 534.96 321.079 533.888 321.079 532.4ZM325.287 529.84C326.919 529.84 327.799 531.072 327.799 532.4C327.799 533.904 326.903 534.96 325.223 534.96H325.079V529.84H325.287ZM337.259 528.8H335.803L334.139 533.36C334.011 533.744 333.899 534.112 333.803 534.464C333.659 534.096 333.531 533.744 333.371 533.376L331.259 528.8H329.723L333.179 536L333.019 536.384C332.539 537.536 332.091 538.016 331.483 538.016C331.195 538.016 330.923 537.888 330.683 537.776L330.267 538.752C330.651 539.008 331.083 539.2 331.627 539.2C332.651 539.2 333.323 538.576 334.379 536L337.259 528.8ZM343.854 536H345.134V528.8H343.854V531.76H339.854V528.8H338.574V536H339.854V532.96H343.854V536ZM353.753 528.8H352.073L349.033 532.32L352.281 536H354.057L350.601 532.24L353.753 528.8ZM347.449 536H348.729V528.8H347.449V536ZM355.418 536H361.818V537.76H363.018V534.8H361.818V528.8H360.538V534.8H356.698V528.8H355.418V536ZM365.682 536L369.842 530.64V536H371.122V528.8H369.842L365.682 534.16V528.8H364.402V536H365.682ZM374.729 536L378.889 530.64V536H380.169V528.8H378.889L374.729 534.16V528.8H373.449V536H374.729Z" fill="#6C7991"/>
        <rect width="249" height="52" transform="translate(298.328 561)" fill="#FFE000"/>
        <path d="M322.056 582.072L313.248 594H310.656V577.2H313.608V589.152L322.416 577.2H325.008V594H322.056V582.072ZM332.688 594.264C331.744 594.264 330.824 594.096 329.928 593.76C329.032 593.408 328.384 592.976 327.984 592.464L329.4 590.736C329.72 591.104 330.176 591.416 330.768 591.672C331.36 591.928 331.92 592.056 332.448 592.056C333.152 592.056 333.696 591.936 334.08 591.696C334.464 591.456 334.656 591.136 334.656 590.736C334.656 590.368 334.512 590.072 334.224 589.848C333.936 589.624 333.536 589.512 333.024 589.512H331.008V587.664H332.904C333.336 587.664 333.68 587.544 333.936 587.304C334.208 587.048 334.344 586.728 334.344 586.344C334.344 585.56 333.712 585.168 332.448 585.168C331.456 585.168 330.472 585.584 329.496 586.416L328.344 584.76C329.368 583.544 330.912 582.936 332.976 582.936C334.368 582.936 335.432 583.208 336.168 583.752C336.92 584.28 337.296 585.032 337.296 586.008C337.296 586.536 337.12 587.016 336.768 587.448C336.416 587.88 335.928 588.2 335.304 588.408V588.456C336.024 588.6 336.584 588.904 336.984 589.368C337.384 589.816 337.584 590.36 337.584 591C337.584 592.008 337.136 592.808 336.24 593.4C335.36 593.976 334.176 594.264 332.688 594.264ZM342.952 594H340.192V583.2H342.688L346.36 587.712L349.84 583.2H352.264V594H349.504V587.4L346.312 591.432H346.24L342.952 587.4V594ZM363.805 590.976L364.597 592.92C363.525 593.816 362.149 594.264 360.469 594.264C358.741 594.264 357.333 593.744 356.245 592.704C355.189 591.68 354.661 590.312 354.661 588.6C354.661 587 355.181 585.656 356.221 584.568C357.261 583.48 358.645 582.936 360.373 582.936C361.797 582.936 363.005 583.408 363.997 584.352C364.989 585.296 365.485 586.496 365.485 587.952C365.485 588.592 365.429 589.088 365.317 589.44H357.517C357.629 590.224 357.973 590.84 358.549 591.288C359.141 591.736 359.877 591.96 360.757 591.96C361.957 591.96 362.973 591.632 363.805 590.976ZM360.253 585.24C358.685 585.24 357.741 586.024 357.421 587.592H362.725C362.741 586.904 362.517 586.344 362.053 585.912C361.605 585.464 361.005 585.24 360.253 585.24ZM377.956 594H375.196V589.872H370.468V594H367.708V583.2H370.468V587.28H375.196V583.2H377.956V594ZM388.821 587.16L383.781 594H381.021V583.2H383.781V590.04L388.821 583.2H391.581V594H388.821V587.16ZM397.085 585.96H393.533V583.2H403.373V585.96H399.845V594H397.085V585.96ZM409.381 594H405.349V583.2H408.109V586.152H409.597C411.213 586.152 412.405 586.488 413.173 587.16C413.957 587.832 414.349 588.744 414.349 589.896C414.349 591.128 413.933 592.12 413.101 592.872C412.269 593.624 411.029 594 409.381 594ZM409.357 588.36H408.109V591.6H409.333C410.725 591.6 411.421 591.064 411.421 589.992C411.421 588.904 410.733 588.36 409.357 588.36ZM430.806 594H421.638V583.2H424.398V591.432H428.838V583.2H431.598V591.432H433.398V596.52H430.806V594ZM435.231 594V583.2C435.375 583.2 435.983 583.184 437.055 583.152C438.143 583.104 438.951 583.08 439.479 583.08C442.743 583.08 444.375 584.024 444.375 585.912C444.375 586.52 444.183 587.056 443.799 587.52C443.415 587.968 442.935 588.232 442.359 588.312V588.36C443.895 588.728 444.663 589.56 444.663 590.856C444.663 593.032 442.951 594.12 439.527 594.12C439.031 594.12 438.271 594.096 437.247 594.048C436.991 594.048 436.695 594.04 436.359 594.024C436.039 594.024 435.791 594.016 435.615 594C435.455 594 435.327 594 435.231 594ZM439.719 589.416H437.991V591.816C438.951 591.88 439.559 591.912 439.815 591.912C440.423 591.912 440.895 591.8 441.231 591.576C441.583 591.352 441.759 591.048 441.759 590.664C441.759 589.832 441.079 589.416 439.719 589.416ZM439.719 585.312C439.079 585.312 438.503 585.328 437.991 585.36V587.736H439.791C440.287 587.736 440.687 587.624 440.991 587.4C441.295 587.176 441.447 586.872 441.447 586.488C441.447 585.704 440.871 585.312 439.719 585.312ZM455.75 590.976L456.542 592.92C455.47 593.816 454.094 594.264 452.414 594.264C450.686 594.264 449.278 593.744 448.19 592.704C447.134 591.68 446.606 590.312 446.606 588.6C446.606 587 447.126 585.656 448.166 584.568C449.206 583.48 450.59 582.936 452.318 582.936C453.742 582.936 454.95 583.408 455.942 584.352C456.934 585.296 457.43 586.496 457.43 587.952C457.43 588.592 457.374 589.088 457.262 589.44H449.462C449.574 590.224 449.918 590.84 450.494 591.288C451.086 591.736 451.822 591.96 452.702 591.96C453.902 591.96 454.918 591.632 455.75 590.976ZM452.198 585.24C450.63 585.24 449.686 586.024 449.366 587.592H454.67C454.686 586.904 454.462 586.344 453.998 585.912C453.55 585.464 452.95 585.24 452.198 585.24ZM461.96 585.96H458.408V583.2H468.248V585.96H464.72V594H461.96V585.96ZM475.31 594V583.2C475.454 583.2 476.062 583.184 477.134 583.152C478.222 583.104 479.03 583.08 479.558 583.08C482.822 583.08 484.454 584.024 484.454 585.912C484.454 586.52 484.262 587.056 483.878 587.52C483.494 587.968 483.014 588.232 482.438 588.312V588.36C483.974 588.728 484.742 589.56 484.742 590.856C484.742 593.032 483.03 594.12 479.606 594.12C479.11 594.12 478.35 594.096 477.326 594.048C477.07 594.048 476.774 594.04 476.438 594.024C476.118 594.024 475.87 594.016 475.694 594C475.534 594 475.406 594 475.31 594ZM479.798 589.416H478.07V591.816C479.03 591.88 479.638 591.912 479.894 591.912C480.502 591.912 480.974 591.8 481.31 591.576C481.662 591.352 481.838 591.048 481.838 590.664C481.838 589.832 481.158 589.416 479.798 589.416ZM479.798 585.312C479.158 585.312 478.582 585.328 478.07 585.36V587.736H479.87C480.366 587.736 480.766 587.624 481.07 587.4C481.374 587.176 481.526 586.872 481.526 586.488C481.526 585.704 480.95 585.312 479.798 585.312ZM488.292 592.68C487.22 591.608 486.684 590.248 486.684 588.6C486.684 586.952 487.22 585.6 488.292 584.544C489.364 583.472 490.788 582.936 492.564 582.936C494.324 582.936 495.74 583.472 496.812 584.544C497.9 585.6 498.444 586.952 498.444 588.6C498.444 590.232 497.9 591.592 496.812 592.68C495.724 593.736 494.308 594.264 492.564 594.264C490.788 594.264 489.364 593.736 488.292 592.68ZM490.476 586.392C489.916 586.968 489.636 587.704 489.636 588.6C489.636 589.496 489.908 590.24 490.452 590.832C491.012 591.408 491.716 591.696 492.564 591.696C493.428 591.696 494.132 591.408 494.676 590.832C495.236 590.256 495.516 589.512 495.516 588.6C495.516 587.704 495.236 586.968 494.676 586.392C494.116 585.816 493.412 585.528 492.564 585.528C491.732 585.528 491.036 585.816 490.476 586.392ZM510.345 594H507.585V585.96H504.729L504.657 587.112C504.449 589.064 504.145 590.552 503.745 591.576C503.361 592.6 502.865 593.296 502.257 593.664C501.665 594.016 500.841 594.2 499.785 594.216L499.545 591.528C499.897 591.544 500.225 591.448 500.529 591.24C500.881 590.984 501.193 590.448 501.465 589.632C501.737 588.816 501.913 587.792 501.993 586.56L502.161 583.2H510.345V594ZM514.355 592.68C513.283 591.608 512.747 590.248 512.747 588.6C512.747 586.952 513.283 585.6 514.355 584.544C515.427 583.472 516.851 582.936 518.627 582.936C520.387 582.936 521.803 583.472 522.875 584.544C523.963 585.6 524.507 586.952 524.507 588.6C524.507 590.232 523.963 591.592 522.875 592.68C521.787 593.736 520.371 594.264 518.627 594.264C516.851 594.264 515.427 593.736 514.355 592.68ZM516.539 586.392C515.979 586.968 515.699 587.704 515.699 588.6C515.699 589.496 515.971 590.24 516.515 590.832C517.075 591.408 517.779 591.696 518.627 591.696C519.491 591.696 520.195 591.408 520.739 590.832C521.299 590.256 521.579 589.512 521.579 588.6C521.579 587.704 521.299 586.968 520.739 586.392C520.179 585.816 519.475 585.528 518.627 585.528C517.795 585.528 517.099 585.816 516.539 586.392ZM535.08 590.376L536.376 592.392C535.464 593.64 534.032 594.264 532.08 594.264C530.336 594.264 528.92 593.744 527.832 592.704C526.76 591.68 526.224 590.312 526.224 588.6C526.224 586.984 526.752 585.64 527.808 584.568C528.864 583.48 530.2 582.936 531.816 582.936C533.736 582.936 535.184 583.424 536.16 584.4L534.864 586.584C534.128 585.88 533.232 585.528 532.176 585.528C531.376 585.528 530.672 585.816 530.064 586.392C529.472 586.936 529.176 587.672 529.176 588.6C529.176 589.528 529.48 590.28 530.088 590.856C530.728 591.416 531.464 591.696 532.296 591.696C533.368 591.696 534.296 591.256 535.08 590.376Z" fill="#6C7991"/>
    </g>
    <rect x="282.328" y="1" width="281" height="628" stroke="#D3DBE6" stroke-width="2" stroke-linecap="round" stroke-dasharray="5.33 5.33"/>
    <defs>
        <clipPath id="clip0_0_11">
            <rect width="178.328" height="576" fill="white" transform="translate(80 17)"/>
        </clipPath>
        <clipPath id="clip1_0_11">
            <rect width="249" height="596" fill="white" transform="translate(298.328 17)"/>
        </clipPath>
    </defs>
</svg>
