<svg width="599" height="469" viewBox="0 0 599 469" fill="none" xmlns="http://www.w3.org/2000/svg">
    <path d="M155.624 60.0984V59.5984L155.134 59.4944V59.9944L155.624 60.0984ZM228.006 75.4839L223.116 71.5575V77.331L228.006 75.4839ZM156.113 174.162V60.2023L155.134 59.9944V173.954L156.113 174.162ZM155.624 60.5984L223.605 75.0482V74.0482L155.624 59.5984V60.5984Z" fill="#D3DBE6"/>
    <path d="M155.624 356.098L155.134 355.994V356.494L155.624 356.598V356.098ZM155.624 242.138L152.8 246.538L158.447 247.739L155.624 242.138ZM228.006 370.984L155.624 355.598V356.598L228.006 371.984V370.984ZM156.113 356.202V282.202L155.134 281.994V355.994L156.113 356.202ZM156.113 282.202V246.742L155.134 246.534V281.994L156.113 282.202Z" fill="#D3DBE6"/>
    <path d="M445.155 417.64V418.14L445.644 418.244V417.744L445.155 417.64ZM372.772 402.255L377.663 406.181V400.407L372.772 402.255ZM444.666 303.576V417.536L445.644 417.744V303.784L444.666 303.576ZM445.155 417.14L377.174 402.69V403.69L445.155 418.14V417.14Z" fill="#D3DBE6"/>
    <path d="M445.155 121.64L445.644 121.744V121.244L445.155 121.14V121.64ZM445.155 235.6L447.979 231.201L442.332 230L445.155 235.6ZM444.666 121.536V230.996L445.644 231.204V121.744L444.666 121.536ZM372.772 106.755L445.155 122.14V121.14L372.772 105.755V106.755Z" fill="#D3DBE6"/>
    <path d="M147.954 198.468L145.548 197.957L141.655 207.509L137.586 196.264L135.023 195.72L140.657 210.957L142.477 211.344L147.954 198.468ZM149.944 212.891L152.194 213.369V204.369L149.944 203.891V212.891ZM149.709 200.601C149.709 201.521 150.355 202.179 151.118 202.341C151.764 202.478 152.409 202.095 152.409 201.175C152.409 200.355 151.764 199.698 151.118 199.561C150.355 199.399 149.709 199.781 149.709 200.601ZM161.943 212.922C161.434 213.234 160.535 213.442 159.459 213.214C158.07 212.918 157.013 211.954 156.818 210.552L163.175 211.904C163.273 211.584 163.312 211.253 163.312 210.693C163.312 208.173 161.415 206.109 159.146 205.627C156.25 205.012 154.49 206.737 154.49 209.357C154.49 212.197 156.387 214.481 159.224 215.084C160.456 215.346 161.708 215.252 162.589 214.679L161.943 212.922ZM159.048 207.526C160.339 207.801 161.082 208.819 161.063 209.915L156.739 208.996C156.974 207.865 157.698 207.239 159.048 207.526ZM177.88 209.829L175.61 209.347L174.319 213.892C174.221 214.311 174.123 214.731 174.045 215.134C173.947 214.693 173.85 214.252 173.713 213.823L172.011 208.582L170.015 208.157L168.372 212.708C168.196 213.171 168.137 213.478 168.039 213.837C167.961 213.401 167.922 213.053 167.785 212.583L166.376 207.384L163.97 206.873L166.826 216.52L168.744 216.927L170.602 212.362C170.739 212.031 170.837 211.712 170.915 211.329C171.013 211.69 171.072 212.082 171.209 212.451L173.087 217.85L175.102 218.279L177.88 209.829Z" fill="#10162F"/>
    <rect x="0.978148" y="1.20791" width="126" height="54" transform="matrix(0.978148 0.207912 0 1 94.0214 166.797)" stroke="#FFE000" stroke-width="2"/>
    <path d="M411.565 265.301C410.626 265.841 409.472 265.976 408.318 265.73C405.52 265.136 403.584 262.724 403.584 259.804C403.584 256.764 405.501 255.292 408.044 255.832C409.413 256.123 410.313 256.695 411.135 257.429L412.211 255.838C411.311 254.807 409.824 253.911 408.044 253.532C403.525 252.572 401.04 255.244 401.04 259.264C401.04 263.624 403.916 267.095 408.103 267.985C409.883 268.363 411.624 268.093 412.485 267.336L411.565 265.301ZM413.11 264.329C413.11 267.029 414.988 269.448 417.903 270.068C420.818 270.687 422.696 269.067 422.696 266.367C422.696 263.667 420.818 261.247 417.903 260.628C414.988 260.008 413.11 261.629 413.11 264.329ZM415.517 264.841C415.517 263.281 416.573 262.505 417.903 262.788C419.273 263.079 420.31 264.339 420.31 265.859C420.31 267.419 419.292 268.223 417.903 267.928C416.534 267.637 415.517 266.341 415.517 264.841ZM424.643 271.28L426.893 271.759V265.619C427.421 265.191 428.047 265.004 428.81 265.166C430.062 265.432 430.786 266.266 430.786 267.706V272.586L433.036 273.064V267.784C433.036 264.964 431.568 263.592 429.417 263.135C428.36 262.911 427.421 263.191 426.893 263.659V262.759L424.643 262.28V271.28ZM435.127 270.089C435.127 272.389 435.87 273.867 437.866 274.291C439 274.532 439.939 274.292 440.468 273.964L439.783 272.038C439.47 272.212 439.04 272.4 438.433 272.272C437.69 272.114 437.377 271.407 437.377 270.427V267.147L440.213 267.75V265.59L437.377 264.987V262.487L435.127 262.009V270.089ZM442.372 275.049L444.622 275.527V269.487C444.876 269.021 445.287 268.668 446.07 268.835C446.539 268.935 446.774 269.064 447.204 269.416L448.006 267.426C447.713 267.144 447.361 266.949 446.637 266.795C445.58 266.571 445.033 266.914 444.622 267.407V266.527L442.372 266.049V275.049ZM448.74 271.902C448.74 274.602 450.618 277.022 453.533 277.641C456.448 278.261 458.326 276.64 458.326 273.94C458.326 271.24 456.448 268.821 453.533 268.201C450.618 267.582 448.74 269.202 448.74 271.902ZM451.146 272.414C451.146 270.854 452.203 270.078 453.533 270.361C454.902 270.652 455.939 271.913 455.939 273.433C455.939 274.993 454.922 275.796 453.533 275.501C452.164 275.21 451.146 273.914 451.146 272.414ZM460.273 276.374C460.273 278.214 460.997 279.208 462.347 279.495C463.403 279.719 464.166 279.541 464.675 279.229L464.205 277.37C463.931 277.511 463.638 277.609 463.286 277.534C462.757 277.422 462.523 276.932 462.523 275.912V265.332L460.273 264.854V276.374ZM466.119 277.616C466.119 279.456 466.843 280.45 468.193 280.737C469.249 280.962 470.012 280.784 470.521 280.472L470.051 278.612C469.777 278.754 469.484 278.852 469.132 278.777C468.603 278.664 468.369 278.175 468.369 277.155V266.575L466.119 266.096V277.616ZM478.871 280.287C478.362 280.599 477.462 280.807 476.386 280.579C474.997 280.284 473.941 279.319 473.745 277.917L480.103 279.269C480.201 278.95 480.24 278.618 480.24 278.058C480.24 275.538 478.342 273.475 476.073 272.992C473.178 272.377 471.417 274.103 471.417 276.723C471.417 279.563 473.315 281.846 476.151 282.449C477.384 282.711 478.636 282.617 479.516 282.044L478.871 280.287ZM475.975 274.891C477.266 275.166 478.01 276.184 477.99 277.28L473.667 276.361C473.902 275.231 474.625 274.605 475.975 274.891ZM482.052 283.483L484.302 283.961V277.921C484.556 277.455 484.967 277.103 485.749 277.269C486.219 277.369 486.454 277.499 486.884 277.85L487.686 275.861C487.393 275.578 487.041 275.383 486.317 275.23C485.26 275.005 484.713 275.349 484.302 275.841V274.961L482.052 274.483V283.483Z" fill="#10162F"/>
    <rect x="0.978148" y="1.20791" width="126" height="54" transform="matrix(0.978148 0.207912 0 1 381.597 227.923)" stroke="#1EC1A1" stroke-width="2"/>
    <path d="M274.409 388.347L276.816 388.859V378.799L281.178 385.886L281.53 385.961L285.854 380.66V390.78L288.24 391.287V377.287L285.971 376.805L281.511 382.397L276.835 374.863L274.409 374.347V388.347ZM290.849 387.342C290.849 390.042 292.727 392.461 295.642 393.08C298.557 393.7 300.435 392.079 300.435 389.379C300.435 386.679 298.557 384.26 295.642 383.64C292.727 383.021 290.849 384.642 290.849 387.342ZM293.256 387.853C293.256 386.293 294.312 385.518 295.642 385.8C297.012 386.091 298.049 387.352 298.049 388.872C298.049 390.432 297.031 391.236 295.642 390.94C294.273 390.649 293.256 389.353 293.256 387.853ZM308.505 395.595L310.755 396.073V382.073L308.505 381.595V386.815C308.016 386.411 307.449 386.15 306.666 385.984C303.83 385.381 301.834 386.937 301.834 389.777C301.834 392.517 303.458 394.682 305.982 395.218C307.116 395.459 307.919 395.17 308.505 394.655V395.595ZM306.451 393.178C305.258 392.924 304.241 391.808 304.241 390.208C304.241 388.548 305.434 387.882 306.764 388.164C307.371 388.293 307.938 388.594 308.505 389.075V392.695C307.997 393.106 307.273 393.353 306.451 393.178ZM320.158 395.551C319.65 395.863 318.75 396.072 317.674 395.843C316.285 395.548 315.228 394.584 315.033 393.182L321.391 394.533C321.489 394.214 321.528 393.883 321.528 393.323C321.528 390.803 319.63 388.739 317.361 388.257C314.466 387.641 312.705 389.367 312.705 391.987C312.705 394.827 314.602 397.111 317.439 397.713C318.672 397.975 319.924 397.882 320.804 397.309L320.158 395.551ZM317.263 390.156C318.554 390.43 319.298 391.448 319.278 392.544L314.955 391.625C315.189 390.495 315.913 389.869 317.263 390.156ZM323.34 396.268C323.34 398.108 324.064 399.102 325.413 399.388C326.47 399.613 327.233 399.435 327.741 399.123L327.272 397.263C326.998 397.405 326.705 397.503 326.352 397.428C325.824 397.316 325.59 396.826 325.59 395.806V385.226L323.34 384.748V396.268Z" fill="#10162F"/>
    <rect x="0.978148" y="1.20791" width="126" height="54" transform="matrix(0.978148 0.207912 0 1 237.809 346.36)" stroke="#7833FF" stroke-width="2"/>
    <circle r="19" transform="matrix(0.978148 0.207912 0 1 300.389 73.8694)" stroke="#7833FF" stroke-width="2"/>
    <path d="M273.979 114.256C273.979 101.553 284.052 93.3967 296.477 96.0377L304.302 97.701C316.727 100.342 326.799 112.78 326.799 125.483V132.483L273.979 121.256V114.256Z" stroke="#7833FF" stroke-width="2"/>
    <path d="M141.702 127.598C142.324 127.731 142.665 128.331 142.665 129.027C142.665 129.675 142.359 130.402 141.737 130.762L142.723 131.811C143.557 131.581 144.014 130.418 144.014 129.338C144.014 127.766 143.075 126.33 141.69 126.036C138.955 125.455 139.495 129.373 137.793 129.012C137.254 128.897 136.89 128.375 136.89 127.643C136.89 126.971 137.113 126.611 137.5 126.285L136.42 125.264C135.88 125.653 135.54 126.445 135.54 127.477C135.54 129.109 136.573 130.312 137.805 130.574C140.481 131.143 140.082 127.254 141.702 127.598ZM141.878 124.411C143.228 124.698 144.003 124.407 144.003 123.183C144.003 122.487 143.744 121.856 143.486 121.477L142.442 121.675C142.582 121.897 142.747 122.196 142.747 122.568C142.747 123.024 142.371 123.136 141.796 123.013L139.871 122.604L139.871 120.864L138.603 120.595L138.603 122.335L137.136 122.023L137.136 123.403L141.878 124.411ZM139.965 118.66C139.789 118.227 139.601 117.791 139.601 117.167C139.601 116.363 140.082 116.225 140.963 116.448C140.775 116.672 140.622 117.12 140.622 117.6C140.622 118.692 141.174 119.685 142.336 119.932C143.357 120.149 143.956 119.568 143.956 118.584C143.956 117.852 143.674 117.216 143.275 116.844L143.885 116.973L143.885 115.773L140.669 115.09C139.272 114.793 138.474 115.187 138.474 116.783C138.474 117.491 138.709 118.273 138.979 118.798L139.965 118.66ZM142.817 117.886C142.817 118.318 142.594 118.607 142.195 118.522C141.749 118.427 141.538 117.974 141.538 117.518C141.538 117.122 141.62 116.828 141.796 116.625L142.336 116.74C142.571 116.958 142.817 117.31 142.817 117.886ZM141.878 113.572C143.228 113.859 144.003 113.568 144.003 112.344C144.003 111.648 143.744 111.017 143.486 110.638L142.442 110.836C142.582 111.058 142.747 111.357 142.747 111.729C142.747 112.185 142.371 112.297 141.796 112.175L139.871 111.765L139.871 110.025L138.603 109.756L138.603 111.496L137.136 111.184L137.136 112.564L141.878 113.572ZM138.603 103.068L138.603 104.448L142.113 105.194C142.512 105.591 142.759 106.087 142.759 106.543C142.759 107.299 142.254 107.468 141.55 107.318L138.603 106.692L138.603 108.072L141.831 108.758C143.345 109.08 144.014 108.382 144.014 107.326C144.014 106.486 143.627 105.84 143.24 105.433L143.885 105.57L143.885 104.19L138.603 103.068ZM142.395 99.1197C142.723 99.1896 142.888 99.5365 142.888 99.9325C142.888 100.473 142.571 101.221 142.23 101.473L143.111 102.332C143.486 102.16 144.014 101.264 144.014 100.268C144.014 98.948 143.369 97.9468 142.324 97.7248C140.458 97.3281 140.939 100.346 140.059 100.159C139.824 100.109 139.601 99.8099 139.601 99.3899C139.601 98.8139 139.859 98.3048 140.106 98.0332L139.143 97.3126C138.838 97.5838 138.474 98.1784 138.474 99.2224C138.474 100.338 139.049 101.325 140.082 101.544C142.007 101.953 141.538 98.9376 142.395 99.1197Z" fill="#6C7991"/>
    <path d="M143.885 305.324L143.885 305.156C143.885 304.388 143.909 303.457 143.909 302.953C143.909 299.749 142.007 297.736 139.695 297.245C137.523 296.783 135.634 297.738 135.634 301.098C135.634 301.71 135.669 302.917 135.669 303.421L135.669 303.577L143.885 305.324ZM136.984 301.409C136.984 299.405 138.04 298.453 139.695 298.805C141.432 299.174 142.559 300.59 142.559 302.618C142.559 302.822 142.559 303.158 142.536 303.561L137.019 302.388C136.995 302.047 136.984 301.757 136.984 301.409ZM139.965 295.092C139.789 294.658 139.601 294.222 139.601 293.598C139.601 292.794 140.082 292.657 140.963 292.88C140.775 293.104 140.622 293.551 140.622 294.031C140.622 295.123 141.174 296.117 142.336 296.364C143.357 296.581 143.956 296 143.956 295.016C143.956 294.284 143.674 293.648 143.275 293.275L143.885 293.405L143.885 292.205L140.669 291.521C139.272 291.225 138.474 291.619 138.474 293.215C138.474 293.923 138.709 294.705 138.979 295.23L139.965 295.092ZM142.817 294.318C142.817 294.75 142.594 295.039 142.195 294.954C141.749 294.859 141.538 294.406 141.538 293.95C141.538 293.554 141.62 293.259 141.796 293.057L142.336 293.172C142.571 293.39 142.817 293.742 142.817 294.318ZM141.878 290.004C143.228 290.291 144.003 289.999 144.003 288.775C144.003 288.079 143.744 287.448 143.486 287.07L142.442 287.267C142.582 287.489 142.747 287.788 142.747 288.16C142.747 288.616 142.371 288.728 141.796 288.606L139.871 288.197L139.871 286.457L138.603 286.188L138.603 287.928L137.136 287.616L137.136 288.996L141.878 290.004ZM139.965 284.253C139.789 283.819 139.601 283.383 139.601 282.759C139.601 281.955 140.082 281.818 140.963 282.041C140.775 282.265 140.622 282.713 140.622 283.193C140.622 284.285 141.174 285.278 142.336 285.525C143.357 285.742 143.956 285.161 143.956 284.177C143.956 283.445 143.674 282.809 143.275 282.436L143.885 282.566L143.885 281.366L140.669 280.682C139.272 280.386 138.474 280.78 138.474 282.376C138.474 283.084 138.709 283.866 138.979 284.391L139.965 284.253ZM142.817 283.479C142.817 283.911 142.594 284.2 142.195 284.115C141.749 284.02 141.538 283.567 141.538 283.111C141.538 282.715 141.62 282.421 141.796 282.218L142.336 282.333C142.571 282.551 142.817 282.903 142.817 283.479Z" fill="#6C7991"/>
    <path d="M463.74 201.058L463.74 196.078L462.39 195.791L462.39 199.295L460.265 198.844L460.265 195.82L458.916 195.533L458.916 198.557L456.873 198.123L456.873 194.739L455.523 194.452L455.523 199.312L463.74 201.058ZM458.458 187.921L458.458 189.373L460.7 190.786C461.04 191.002 461.521 191.26 461.92 191.441C461.51 191.45 461.04 191.518 460.723 191.595L458.458 192.109L458.458 193.753L463.763 192.397L463.763 191.377L458.458 187.921ZM462.261 183.475C462.507 183.839 462.742 184.441 462.742 185.101C462.742 185.953 462.308 186.509 461.51 186.459L461.51 182.559C461.31 182.457 461.111 182.391 460.782 182.321C459.303 182.006 458.329 182.963 458.329 184.355C458.329 186.131 459.561 187.473 461.099 187.8C462.766 188.154 463.869 187.225 463.869 185.485C463.869 184.729 463.658 183.916 463.212 183.281L462.261 183.475ZM459.456 184.655C459.456 183.863 459.96 183.514 460.606 183.663L460.606 186.315C459.913 186.024 459.456 185.483 459.456 184.655ZM463.74 181.358L463.74 179.978L460.136 179.212C459.819 178.821 459.632 178.397 459.632 177.929C459.632 177.161 460.031 176.802 460.876 176.981L463.74 177.59L463.74 176.21L460.641 175.551C458.986 175.199 458.364 175.967 458.364 177.287C458.364 177.935 458.646 178.571 458.986 178.967L458.458 178.855L458.458 180.235L463.74 181.358ZM461.733 174.021C463.083 174.307 463.857 174.016 463.857 172.792C463.857 172.096 463.599 171.465 463.341 171.086L462.296 171.284C462.437 171.506 462.601 171.805 462.601 172.177C462.601 172.633 462.226 172.745 461.651 172.623L459.726 172.214L459.726 170.474L458.458 170.204L458.458 171.944L456.991 171.633L456.991 173.013L461.733 174.021ZM462.249 166.47C462.578 166.54 462.742 166.887 462.742 167.283C462.742 167.823 462.425 168.572 462.085 168.823L462.965 169.682C463.341 169.51 463.869 168.614 463.869 167.618C463.869 166.298 463.223 165.297 462.179 165.075C460.312 164.678 460.794 167.697 459.913 167.51C459.679 167.46 459.456 167.16 459.456 166.74C459.456 166.164 459.714 165.655 459.96 165.384L458.998 164.663C458.693 164.934 458.329 165.529 458.329 166.573C458.329 167.689 458.904 168.675 459.937 168.895C461.862 169.304 461.392 166.288 462.249 166.47Z" fill="#6C7991"/>
    <path d="M461.862 377.149C462.296 377.817 462.519 378.573 462.519 379.281C462.519 380.997 461.345 381.935 459.632 381.571C457.847 381.192 456.744 379.781 456.744 378.221C456.744 377.381 456.967 376.877 457.296 376.442L456.228 375.555C455.735 376.003 455.394 376.842 455.394 377.934C455.394 380.706 457.272 382.63 459.632 383.131C462.19 383.675 463.869 382.268 463.869 379.7C463.869 378.608 463.493 377.46 462.942 376.815L461.862 377.149ZM463.74 375.433L463.74 374.053L460.113 373.282C459.808 372.905 459.632 372.436 459.632 371.992C459.632 371.236 460.066 370.884 460.852 371.051L463.74 371.665L463.74 370.285L460.676 369.634C459.021 369.282 458.364 370.042 458.364 371.362C458.364 371.986 458.61 372.615 458.939 373.033L455.523 372.306L455.523 373.686L463.74 375.433ZM459.819 367.149C459.643 366.715 459.456 366.28 459.456 365.656C459.456 364.852 459.937 364.714 460.817 364.937C460.629 365.161 460.477 365.609 460.477 366.089C460.477 367.181 461.028 368.174 462.19 368.421C463.212 368.638 463.81 368.057 463.81 367.073C463.81 366.341 463.529 365.705 463.129 365.332L463.74 365.462L463.74 364.262L460.524 363.579C459.127 363.282 458.329 363.676 458.329 365.272C458.329 365.98 458.563 366.762 458.833 367.287L459.819 367.149ZM462.672 366.375C462.672 366.807 462.449 367.096 462.05 367.011C461.604 366.916 461.392 366.463 461.392 366.007C461.392 365.611 461.474 365.317 461.651 365.114L462.19 365.229C462.425 365.447 462.672 365.799 462.672 366.375ZM463.74 362.367L463.74 360.987L460.136 360.222C459.819 359.83 459.632 359.406 459.632 358.938C459.632 358.17 460.031 357.811 460.876 357.991L463.74 358.599L463.74 357.219L460.641 356.561C458.986 356.209 458.364 356.977 458.364 358.297C458.364 358.945 458.646 359.581 458.986 359.977L458.458 359.865L458.458 361.245L463.74 362.367ZM464.456 356.197C465.665 356.454 466.181 355.328 466.181 353.756C466.181 352.184 465.641 350.833 464.456 350.581C463.27 350.329 462.73 351.45 462.73 353.022L462.73 353.082C462.648 353.113 462.554 353.117 462.46 353.097C462.402 353.084 462.331 353.069 462.261 353.03L462.261 352.934C462.261 351.542 461.369 350.453 460.312 350.228C460.078 350.178 459.843 350.176 459.632 350.215L459.432 349.273L458.352 349.092L458.704 350.798C458.47 351.12 458.329 351.559 458.329 352.099C458.329 353.527 459.256 354.6 460.312 354.824C461.087 354.989 461.768 354.666 462.085 353.917C462.19 354.023 462.331 354.089 462.46 354.117C462.578 354.142 462.719 354.136 462.824 354.098C463.036 355.175 463.576 356.01 464.456 356.197ZM464.456 354.913C464.069 354.831 463.81 354.236 463.81 353.252C463.81 352.256 464.069 351.795 464.456 351.877C464.878 351.967 465.101 352.59 465.101 353.526C465.101 354.462 464.867 355 464.456 354.913ZM460.312 353.528C459.831 353.426 459.42 352.955 459.42 352.331C459.42 351.683 459.819 351.407 460.312 351.512C460.841 351.624 461.169 352.114 461.169 352.702C461.169 353.326 460.805 353.633 460.312 353.528ZM462.261 344.318C462.507 344.682 462.742 345.284 462.742 345.944C462.742 346.796 462.308 347.352 461.51 347.302L461.51 343.402C461.31 343.3 461.111 343.234 460.782 343.164C459.303 342.849 458.329 343.806 458.329 345.198C458.329 346.974 459.561 348.316 461.099 348.643C462.766 348.997 463.869 348.068 463.869 346.328C463.869 345.572 463.658 344.759 463.212 344.124L462.261 344.318ZM459.456 345.498C459.456 344.706 459.96 344.357 460.606 344.506L460.606 347.158C459.913 346.867 459.456 346.326 459.456 345.498ZM462.249 339.148C462.578 339.218 462.742 339.565 462.742 339.961C462.742 340.501 462.425 341.249 462.085 341.501L462.965 342.36C463.341 342.188 463.869 341.292 463.869 340.296C463.869 338.976 463.223 337.975 462.179 337.753C460.312 337.356 460.794 340.375 459.913 340.188C459.679 340.138 459.456 339.838 459.456 339.418C459.456 338.842 459.714 338.333 459.96 338.062L458.998 337.341C458.693 337.612 458.329 338.207 458.329 339.251C458.329 340.367 458.904 341.353 459.937 341.573C461.862 341.982 461.392 338.966 462.249 339.148Z" fill="#6C7991"/>
</svg>
