<svg width="600" height="600" viewBox="0 0 600 600" fill="none" xmlns="http://www.w3.org/2000/svg">
    <rect width="115.494" height="115.494" transform="matrix(0.866025 0.5 -0.866025 0.5 432.021 50)" fill="#73FFE5"/>
    <rect width="115.494" height="115.494" transform="matrix(0.866025 0.5 -0.866025 0.5 432.021 50)" fill="#3C4257"/>
    <path d="M332 107.747L432.021 165.494L432.021 235.134L332 177.387L332 142.567L332 107.747Z" fill="#E1E8FF"/>
    <path d="M432.095 165.494L532.115 107.747L532.115 177.387L432.095 235.134L432.095 200.314L432.095 165.494Z" fill="#CEC0FF"/>
    <path d="M437.216 144.24C440.768 142.189 441.113 139.424 438.271 137.467L438.17 137.396L435.186 139.119L435.267 139.189C436.617 140.414 436.394 141.715 434.628 142.734C432.284 144.088 428.874 143.854 425.788 142.072L425.778 142.066C422.713 140.297 422.318 138.346 424.662 136.992C426.489 135.938 428.742 135.855 430.7 136.588L430.914 136.664L433.897 134.941L433.796 134.895C430.416 133.26 425.626 133.436 422.064 135.492C417.791 137.959 417.933 141.158 422.652 143.883L422.663 143.889C427.382 146.613 432.933 146.713 437.216 144.24ZM450.338 136.629C453.434 134.842 453.099 132.914 451.84 131.789L451.749 131.713L449.029 133.283L449.07 133.33C449.476 133.799 449.405 134.613 448.187 135.316C446.674 136.189 444.716 136.148 442.94 135.17L450.43 130.846L449.516 130.318C446.228 128.42 442.077 128.32 438.89 130.16C435.694 132.006 435.866 134.461 439.327 136.459L439.337 136.465C442.818 138.475 446.999 138.557 450.338 136.629ZM441.154 131.408C442.371 130.705 444.036 130.646 445.721 131.408L441.113 134.068C439.834 133.107 439.926 132.117 441.154 131.408ZM460.406 134.66L463.369 132.949L457.96 129.826L458.021 129.791C459.898 130.195 461.908 129.949 463.471 129.047C466.191 127.477 465.734 125.279 462.202 123.24L462.192 123.234C458.65 121.189 454.865 120.938 452.104 122.531C450.551 123.428 450.176 124.57 450.896 125.678L450.835 125.713L448.938 124.617L445.974 126.328L460.406 134.66ZM459.99 128.221C458.559 129.047 456.326 128.906 454.367 127.775L454.357 127.77C452.388 126.633 452.145 125.344 453.576 124.518C455.047 123.668 457.189 123.826 459.178 124.975L459.188 124.98C461.167 126.123 461.471 127.365 459.99 128.221ZM469.357 125.391L474.908 122.186C477.374 120.762 477.679 119.156 475.781 118.061L475.761 118.049C474.411 117.27 472.412 117.275 470.778 118.008L470.697 117.961C471.64 117.217 471.478 116.139 470.321 115.471L470.301 115.459C468.586 114.469 466.191 114.656 463.927 115.963L458.477 119.109L469.357 125.391ZM465.764 119.953L463.288 118.523L465.023 117.521C465.998 116.959 466.962 116.895 467.764 117.357L467.784 117.369C468.596 117.838 468.433 118.412 467.347 119.039L465.764 119.953ZM470.362 122.607L467.581 121.002L469.245 120.041C470.504 119.314 471.61 119.18 472.523 119.707L472.544 119.719C473.477 120.258 473.315 120.902 472.158 121.57L470.362 122.607ZM485.859 116.121C488.954 114.334 488.619 112.406 487.361 111.281L487.269 111.205L484.55 112.775L484.59 112.822C484.996 113.291 484.925 114.105 483.707 114.809C482.195 115.682 480.236 115.641 478.46 114.662L485.95 110.338L485.037 109.811C481.749 107.912 477.598 107.812 474.411 109.652C471.214 111.498 471.387 113.953 474.847 115.951L474.858 115.957C478.339 117.967 482.52 118.049 485.859 116.121ZM476.674 110.9C477.892 110.197 479.556 110.139 481.241 110.9L476.634 113.561C475.355 112.6 475.446 111.609 476.674 110.9ZM495.926 114.152L498.89 112.441L493.48 109.318L493.541 109.283C495.419 109.688 497.428 109.441 498.991 108.539C501.711 106.969 501.254 104.771 497.723 102.732L497.712 102.727C494.171 100.682 490.385 100.43 487.625 102.023C486.072 102.92 485.696 104.062 486.417 105.17L486.356 105.205L484.458 104.109L481.495 105.82L495.926 114.152ZM495.51 107.713C494.079 108.539 491.847 108.398 489.888 107.268L489.878 107.262C487.909 106.125 487.665 104.836 489.096 104.01C490.568 103.16 492.709 103.318 494.698 104.467L494.708 104.473C496.687 105.615 496.992 106.857 495.51 107.713Z" fill="white"/>
    <path d="M341.237 457.602C341.097 443.144 350.58 428.661 369.686 417.63C407.62 395.729 469.124 395.729 507.058 417.63C526.164 428.661 535.647 443.144 535.507 457.602C535.509 457.813 535.509 458.023 535.507 458.234C535.509 458.445 535.509 458.655 535.507 458.866C535.509 459.077 535.509 459.287 535.507 459.498C535.509 459.709 535.509 459.919 535.507 460.13C535.509 460.341 535.509 460.551 535.507 460.762C535.508 460.808 535.508 460.854 535.508 460.901C535.508 460.941 535.509 460.982 535.509 461.023C535.509 461.147 535.508 461.27 535.507 461.394C535.509 461.605 535.509 461.815 535.507 462.026C535.508 462.131 535.509 462.235 535.509 462.34L535.509 462.435C535.508 462.47 535.508 462.506 535.508 462.541C535.508 462.58 535.508 462.619 535.507 462.658C535.508 462.781 535.509 462.905 535.509 463.029C535.508 463.116 535.508 463.203 535.507 463.29C535.509 463.5 535.509 463.711 535.507 463.922C535.508 464.011 535.509 464.1 535.509 464.19C535.509 464.311 535.508 464.432 535.507 464.554C535.509 464.764 535.509 464.975 535.507 465.186C535.509 465.396 535.509 465.607 535.507 465.818C535.509 466.028 535.509 466.239 535.507 466.45C535.509 466.66 535.509 466.871 535.507 467.082C535.509 467.292 535.509 467.503 535.507 467.714C535.509 467.924 535.509 468.135 535.507 468.346L535.508 468.406L535.508 468.49C535.508 468.531 535.509 468.573 535.509 468.614C535.509 468.735 535.508 468.856 535.507 468.978C535.509 469.188 535.509 469.399 535.507 469.609C535.509 469.82 535.509 470.031 535.507 470.241C535.509 470.452 535.509 470.663 535.507 470.873C535.509 471.084 535.509 471.295 535.507 471.505C535.509 471.716 535.509 471.927 535.507 472.137C535.509 472.348 535.509 472.559 535.507 472.769C535.509 472.98 535.509 473.191 535.507 473.401C535.509 473.612 535.509 473.823 535.507 474.033C535.508 474.138 535.509 474.244 535.509 474.349C535.509 474.454 535.508 474.56 535.507 474.665C535.509 474.876 535.509 475.087 535.507 475.297C535.509 475.508 535.509 475.718 535.507 475.929C535.508 476.021 535.509 476.113 535.509 476.204C535.509 476.323 535.508 476.442 535.507 476.561C535.509 476.772 535.509 476.982 535.507 477.193C535.509 477.404 535.509 477.614 535.507 477.825C535.509 478.036 535.509 478.246 535.507 478.457C535.509 478.668 535.509 478.878 535.507 479.089C535.509 479.3 535.509 479.51 535.507 479.721C535.509 479.932 535.509 480.142 535.507 480.353C535.508 480.395 535.508 480.436 535.508 480.478L535.509 480.567C535.509 480.706 535.508 480.846 535.507 480.985C535.509 481.196 535.509 481.406 535.507 481.617C535.509 481.827 535.509 482.038 535.507 482.249C535.509 482.459 535.509 482.67 535.507 482.881C535.509 483.091 535.509 483.302 535.507 483.513C535.509 483.723 535.509 483.934 535.507 484.145C535.509 484.355 535.509 484.566 535.507 484.777C535.509 484.987 535.509 485.198 535.507 485.409C535.509 485.619 535.509 485.83 535.507 486.041C535.509 486.251 535.509 486.462 535.507 486.673C535.509 486.883 535.509 487.094 535.507 487.305C535.509 487.515 535.509 487.726 535.507 487.937C535.647 502.394 526.164 516.877 507.058 527.908C469.124 549.81 407.62 549.81 369.686 527.908C350.58 516.877 341.097 502.394 341.237 487.936C341.235 487.726 341.235 487.515 341.237 487.304C341.235 487.094 341.235 486.883 341.237 486.672C341.235 486.462 341.235 486.251 341.237 486.04C341.235 485.83 341.235 485.619 341.237 485.408C341.235 485.198 341.235 484.987 341.237 484.776C341.235 484.566 341.235 484.355 341.237 484.145C341.235 483.934 341.235 483.723 341.237 483.513C341.235 483.302 341.235 483.091 341.237 482.881C341.235 482.67 341.235 482.459 341.237 482.249C341.235 482.038 341.235 481.827 341.237 481.617C341.235 481.406 341.235 481.195 341.237 480.985C341.235 480.774 341.235 480.563 341.237 480.353C341.235 480.142 341.235 479.931 341.237 479.721C341.235 479.51 341.235 479.299 341.237 479.089C341.235 478.878 341.235 478.667 341.237 478.457C341.235 478.246 341.235 478.036 341.237 477.825C341.235 477.614 341.235 477.404 341.237 477.193C341.235 476.982 341.235 476.772 341.237 476.561C341.235 476.35 341.235 476.14 341.237 475.929C341.235 475.718 341.235 475.508 341.237 475.297C341.235 475.086 341.235 474.876 341.237 474.665C341.235 474.454 341.235 474.244 341.237 474.033C341.235 473.822 341.235 473.612 341.237 473.401C341.235 473.19 341.235 472.98 341.237 472.769C341.235 472.558 341.235 472.348 341.237 472.137C341.235 471.927 341.235 471.716 341.237 471.505C341.235 471.295 341.235 471.084 341.237 470.873C341.235 470.663 341.235 470.452 341.237 470.241C341.235 470.031 341.235 469.82 341.237 469.609C341.235 469.399 341.235 469.188 341.237 468.977C341.235 468.767 341.235 468.556 341.237 468.345C341.235 468.135 341.235 467.924 341.237 467.713C341.235 467.503 341.235 467.292 341.237 467.081C341.235 466.871 341.235 466.66 341.237 466.449C341.235 466.239 341.235 466.028 341.237 465.818C341.235 465.607 341.235 465.396 341.237 465.186C341.235 464.975 341.235 464.764 341.237 464.554C341.235 464.343 341.235 464.132 341.237 463.922C341.235 463.711 341.235 463.5 341.237 463.29C341.235 463.079 341.235 462.868 341.237 462.658C341.235 462.447 341.235 462.236 341.237 462.026C341.235 461.815 341.235 461.604 341.237 461.394C341.235 461.183 341.235 460.972 341.237 460.762C341.235 460.551 341.235 460.34 341.237 460.13C341.235 459.919 341.235 459.709 341.237 459.498C341.235 459.287 341.235 459.077 341.237 458.866C341.235 458.655 341.235 458.445 341.237 458.234C341.235 458.023 341.235 457.813 341.237 457.602Z" fill="#E1E8FF"/>
    <path d="M341.237 457.602C341.097 443.144 350.58 428.661 369.686 417.63C407.62 395.729 469.124 395.729 507.058 417.63C526.164 428.661 535.647 443.144 535.507 457.602C535.509 457.813 535.509 458.023 535.507 458.234C535.509 458.445 535.509 458.655 535.507 458.866C535.509 459.077 535.509 459.287 535.507 459.498C535.509 459.709 535.509 459.919 535.507 460.13C535.509 460.341 535.509 460.551 535.507 460.762C535.508 460.808 535.508 460.854 535.508 460.901C535.508 460.941 535.509 460.982 535.509 461.023C535.509 461.147 535.508 461.27 535.507 461.394C535.509 461.605 535.509 461.815 535.507 462.026C535.508 462.131 535.509 462.235 535.509 462.34L535.509 462.435C535.508 462.47 535.508 462.506 535.508 462.541C535.508 462.58 535.508 462.619 535.507 462.658C535.508 462.781 535.509 462.905 535.509 463.029C535.508 463.116 535.508 463.203 535.507 463.29C535.509 463.5 535.509 463.711 535.507 463.922C535.508 464.011 535.509 464.1 535.509 464.19C535.509 464.311 535.508 464.432 535.507 464.554C535.509 464.764 535.509 464.975 535.507 465.186C535.509 465.396 535.509 465.607 535.507 465.818C535.509 466.028 535.509 466.239 535.507 466.45C535.509 466.66 535.509 466.871 535.507 467.082C535.509 467.292 535.509 467.503 535.507 467.714C535.509 467.924 535.509 468.135 535.507 468.346L535.508 468.406L535.508 468.49C535.508 468.531 535.509 468.573 535.509 468.614C535.509 468.735 535.508 468.856 535.507 468.978C535.509 469.188 535.509 469.399 535.507 469.609C535.509 469.82 535.509 470.031 535.507 470.241C535.509 470.452 535.509 470.663 535.507 470.873C535.509 471.084 535.509 471.295 535.507 471.505C535.509 471.716 535.509 471.927 535.507 472.137C535.509 472.348 535.509 472.559 535.507 472.769C535.509 472.98 535.509 473.191 535.507 473.401C535.509 473.612 535.509 473.823 535.507 474.033C535.508 474.138 535.509 474.244 535.509 474.349C535.509 474.454 535.508 474.56 535.507 474.665C535.509 474.876 535.509 475.087 535.507 475.297C535.509 475.508 535.509 475.718 535.507 475.929C535.508 476.021 535.509 476.113 535.509 476.204C535.509 476.323 535.508 476.442 535.507 476.561C535.509 476.772 535.509 476.982 535.507 477.193C535.509 477.404 535.509 477.614 535.507 477.825C535.509 478.036 535.509 478.246 535.507 478.457C535.509 478.668 535.509 478.878 535.507 479.089C535.509 479.3 535.509 479.51 535.507 479.721C535.509 479.932 535.509 480.142 535.507 480.353C535.508 480.395 535.508 480.436 535.508 480.478L535.509 480.567C535.509 480.706 535.508 480.846 535.507 480.985C535.509 481.196 535.509 481.406 535.507 481.617C535.509 481.827 535.509 482.038 535.507 482.249C535.509 482.459 535.509 482.67 535.507 482.881C535.509 483.091 535.509 483.302 535.507 483.513C535.509 483.723 535.509 483.934 535.507 484.145C535.509 484.355 535.509 484.566 535.507 484.777C535.509 484.987 535.509 485.198 535.507 485.409C535.509 485.619 535.509 485.83 535.507 486.041C535.509 486.251 535.509 486.462 535.507 486.673C535.509 486.883 535.509 487.094 535.507 487.305C535.509 487.515 535.509 487.726 535.507 487.937C535.647 502.394 526.164 516.877 507.058 527.908C469.124 549.81 407.62 549.81 369.686 527.908C350.58 516.877 341.097 502.394 341.237 487.936C341.235 487.726 341.235 487.515 341.237 487.304C341.235 487.094 341.235 486.883 341.237 486.672C341.235 486.462 341.235 486.251 341.237 486.04C341.235 485.83 341.235 485.619 341.237 485.408C341.235 485.198 341.235 484.987 341.237 484.776C341.235 484.566 341.235 484.355 341.237 484.145C341.235 483.934 341.235 483.723 341.237 483.513C341.235 483.302 341.235 483.091 341.237 482.881C341.235 482.67 341.235 482.459 341.237 482.249C341.235 482.038 341.235 481.827 341.237 481.617C341.235 481.406 341.235 481.195 341.237 480.985C341.235 480.774 341.235 480.563 341.237 480.353C341.235 480.142 341.235 479.931 341.237 479.721C341.235 479.51 341.235 479.299 341.237 479.089C341.235 478.878 341.235 478.667 341.237 478.457C341.235 478.246 341.235 478.036 341.237 477.825C341.235 477.614 341.235 477.404 341.237 477.193C341.235 476.982 341.235 476.772 341.237 476.561C341.235 476.35 341.235 476.14 341.237 475.929C341.235 475.718 341.235 475.508 341.237 475.297C341.235 475.086 341.235 474.876 341.237 474.665C341.235 474.454 341.235 474.244 341.237 474.033C341.235 473.822 341.235 473.612 341.237 473.401C341.235 473.19 341.235 472.98 341.237 472.769C341.235 472.558 341.235 472.348 341.237 472.137C341.235 471.927 341.235 471.716 341.237 471.505C341.235 471.295 341.235 471.084 341.237 470.873C341.235 470.663 341.235 470.452 341.237 470.241C341.235 470.031 341.235 469.82 341.237 469.609C341.235 469.399 341.235 469.188 341.237 468.977C341.235 468.767 341.235 468.556 341.237 468.345C341.235 468.135 341.235 467.924 341.237 467.713C341.235 467.503 341.235 467.292 341.237 467.081C341.235 466.871 341.235 466.66 341.237 466.449C341.235 466.239 341.235 466.028 341.237 465.818C341.235 465.607 341.235 465.396 341.237 465.186C341.235 464.975 341.235 464.764 341.237 464.554C341.235 464.343 341.235 464.132 341.237 463.922C341.235 463.711 341.235 463.5 341.237 463.29C341.235 463.079 341.235 462.868 341.237 462.658C341.235 462.447 341.235 462.236 341.237 462.026C341.235 461.815 341.235 461.604 341.237 461.394C341.235 461.183 341.235 460.972 341.237 460.762C341.235 460.551 341.235 460.34 341.237 460.13C341.235 459.919 341.235 459.709 341.237 459.498C341.235 459.287 341.235 459.077 341.237 458.866C341.235 458.655 341.235 458.445 341.237 458.234C341.235 458.023 341.235 457.813 341.237 457.602Z" fill="url(#paint0_linear)"/>
    <circle r="79.3118" transform="matrix(0.866025 0.5 -0.866025 0.5 438.372 456.654)" fill="#3C4257"/>
    <ellipse cx="361.038" cy="506.11" rx="5.05573" ry="5.6877" fill="#3C4257"/>
    <path d="M341.237 407.602C341.097 393.144 350.58 378.661 369.686 367.63C407.62 345.729 469.124 345.729 507.058 367.63C526.164 378.661 535.647 393.144 535.507 407.602C535.509 407.813 535.509 408.023 535.507 408.234C535.509 408.445 535.509 408.655 535.507 408.866C535.509 409.077 535.509 409.287 535.507 409.498C535.509 409.709 535.509 409.919 535.507 410.13C535.509 410.341 535.509 410.551 535.507 410.762C535.508 410.808 535.508 410.854 535.508 410.901C535.508 410.941 535.509 410.982 535.509 411.023C535.509 411.147 535.508 411.27 535.507 411.394C535.509 411.605 535.509 411.815 535.507 412.026C535.508 412.131 535.509 412.235 535.509 412.34L535.509 412.435C535.508 412.47 535.508 412.506 535.508 412.541C535.508 412.58 535.508 412.619 535.507 412.658C535.508 412.781 535.509 412.905 535.509 413.029C535.508 413.116 535.508 413.203 535.507 413.29C535.509 413.5 535.509 413.711 535.507 413.922C535.508 414.011 535.509 414.1 535.509 414.19C535.509 414.311 535.508 414.432 535.507 414.554C535.509 414.764 535.509 414.975 535.507 415.186C535.509 415.396 535.509 415.607 535.507 415.818C535.509 416.028 535.509 416.239 535.507 416.45C535.509 416.66 535.509 416.871 535.507 417.082C535.509 417.292 535.509 417.503 535.507 417.714C535.509 417.924 535.509 418.135 535.507 418.346L535.508 418.406L535.508 418.49C535.508 418.531 535.509 418.573 535.509 418.614C535.509 418.735 535.508 418.856 535.507 418.978C535.509 419.188 535.509 419.399 535.507 419.609C535.509 419.82 535.509 420.031 535.507 420.241C535.509 420.452 535.509 420.663 535.507 420.873C535.509 421.084 535.509 421.295 535.507 421.505C535.509 421.716 535.509 421.927 535.507 422.137C535.509 422.348 535.509 422.559 535.507 422.769C535.509 422.98 535.509 423.191 535.507 423.401C535.509 423.612 535.509 423.823 535.507 424.033C535.508 424.138 535.509 424.244 535.509 424.349C535.509 424.454 535.508 424.56 535.507 424.665C535.509 424.876 535.509 425.087 535.507 425.297C535.509 425.508 535.509 425.718 535.507 425.929C535.508 426.021 535.509 426.113 535.509 426.204C535.509 426.323 535.508 426.442 535.507 426.561C535.509 426.772 535.509 426.982 535.507 427.193C535.509 427.404 535.509 427.614 535.507 427.825C535.509 428.036 535.509 428.246 535.507 428.457C535.509 428.668 535.509 428.878 535.507 429.089C535.509 429.3 535.509 429.51 535.507 429.721C535.509 429.932 535.509 430.142 535.507 430.353C535.508 430.395 535.508 430.436 535.508 430.478L535.509 430.567C535.509 430.706 535.508 430.846 535.507 430.985C535.509 431.196 535.509 431.406 535.507 431.617C535.509 431.827 535.509 432.038 535.507 432.249C535.509 432.459 535.509 432.67 535.507 432.881C535.509 433.091 535.509 433.302 535.507 433.513C535.509 433.723 535.509 433.934 535.507 434.145C535.509 434.355 535.509 434.566 535.507 434.777C535.509 434.987 535.509 435.198 535.507 435.409C535.509 435.619 535.509 435.83 535.507 436.041C535.509 436.251 535.509 436.462 535.507 436.673C535.509 436.883 535.509 437.094 535.507 437.305C535.509 437.515 535.509 437.726 535.507 437.937C535.647 452.394 526.164 466.877 507.058 477.908C469.124 499.81 407.62 499.81 369.686 477.908C350.58 466.877 341.097 452.394 341.237 437.936C341.235 437.726 341.235 437.515 341.237 437.304C341.235 437.094 341.235 436.883 341.237 436.672C341.235 436.462 341.235 436.251 341.237 436.04C341.235 435.83 341.235 435.619 341.237 435.408C341.235 435.198 341.235 434.987 341.237 434.776C341.235 434.566 341.235 434.355 341.237 434.145C341.235 433.934 341.235 433.723 341.237 433.513C341.235 433.302 341.235 433.091 341.237 432.881C341.235 432.67 341.235 432.459 341.237 432.249C341.235 432.038 341.235 431.827 341.237 431.617C341.235 431.406 341.235 431.195 341.237 430.985C341.235 430.774 341.235 430.563 341.237 430.353C341.235 430.142 341.235 429.931 341.237 429.721C341.235 429.51 341.235 429.299 341.237 429.089C341.235 428.878 341.235 428.667 341.237 428.457C341.235 428.246 341.235 428.036 341.237 427.825C341.235 427.614 341.235 427.404 341.237 427.193C341.235 426.982 341.235 426.772 341.237 426.561C341.235 426.35 341.235 426.14 341.237 425.929C341.235 425.718 341.235 425.508 341.237 425.297C341.235 425.086 341.235 424.876 341.237 424.665C341.235 424.454 341.235 424.244 341.237 424.033C341.235 423.822 341.235 423.612 341.237 423.401C341.235 423.19 341.235 422.98 341.237 422.769C341.235 422.558 341.235 422.348 341.237 422.137C341.235 421.927 341.235 421.716 341.237 421.505C341.235 421.295 341.235 421.084 341.237 420.873C341.235 420.663 341.235 420.452 341.237 420.241C341.235 420.031 341.235 419.82 341.237 419.609C341.235 419.399 341.235 419.188 341.237 418.977C341.235 418.767 341.235 418.556 341.237 418.345C341.235 418.135 341.235 417.924 341.237 417.713C341.235 417.503 341.235 417.292 341.237 417.081C341.235 416.871 341.235 416.66 341.237 416.449C341.235 416.239 341.235 416.028 341.237 415.818C341.235 415.607 341.235 415.396 341.237 415.186C341.235 414.975 341.235 414.764 341.237 414.554C341.235 414.343 341.235 414.132 341.237 413.922C341.235 413.711 341.235 413.5 341.237 413.29C341.235 413.079 341.235 412.868 341.237 412.658C341.235 412.447 341.235 412.236 341.237 412.026C341.235 411.815 341.235 411.604 341.237 411.394C341.235 411.183 341.235 410.972 341.237 410.762C341.235 410.551 341.235 410.34 341.237 410.13C341.235 409.919 341.235 409.709 341.237 409.498C341.235 409.287 341.235 409.077 341.237 408.866C341.235 408.655 341.235 408.445 341.237 408.234C341.235 408.023 341.235 407.813 341.237 407.602Z" fill="#E1E8FF"/>
    <path d="M341.237 407.602C341.097 393.144 350.58 378.661 369.686 367.63C407.62 345.729 469.124 345.729 507.058 367.63C526.164 378.661 535.647 393.144 535.507 407.602C535.509 407.813 535.509 408.023 535.507 408.234C535.509 408.445 535.509 408.655 535.507 408.866C535.509 409.077 535.509 409.287 535.507 409.498C535.509 409.709 535.509 409.919 535.507 410.13C535.509 410.341 535.509 410.551 535.507 410.762C535.508 410.808 535.508 410.854 535.508 410.901C535.508 410.941 535.509 410.982 535.509 411.023C535.509 411.147 535.508 411.27 535.507 411.394C535.509 411.605 535.509 411.815 535.507 412.026C535.508 412.131 535.509 412.235 535.509 412.34L535.509 412.435C535.508 412.47 535.508 412.506 535.508 412.541C535.508 412.58 535.508 412.619 535.507 412.658C535.508 412.781 535.509 412.905 535.509 413.029C535.508 413.116 535.508 413.203 535.507 413.29C535.509 413.5 535.509 413.711 535.507 413.922C535.508 414.011 535.509 414.1 535.509 414.19C535.509 414.311 535.508 414.432 535.507 414.554C535.509 414.764 535.509 414.975 535.507 415.186C535.509 415.396 535.509 415.607 535.507 415.818C535.509 416.028 535.509 416.239 535.507 416.45C535.509 416.66 535.509 416.871 535.507 417.082C535.509 417.292 535.509 417.503 535.507 417.714C535.509 417.924 535.509 418.135 535.507 418.346L535.508 418.406L535.508 418.49C535.508 418.531 535.509 418.573 535.509 418.614C535.509 418.735 535.508 418.856 535.507 418.978C535.509 419.188 535.509 419.399 535.507 419.609C535.509 419.82 535.509 420.031 535.507 420.241C535.509 420.452 535.509 420.663 535.507 420.873C535.509 421.084 535.509 421.295 535.507 421.505C535.509 421.716 535.509 421.927 535.507 422.137C535.509 422.348 535.509 422.559 535.507 422.769C535.509 422.98 535.509 423.191 535.507 423.401C535.509 423.612 535.509 423.823 535.507 424.033C535.508 424.138 535.509 424.244 535.509 424.349C535.509 424.454 535.508 424.56 535.507 424.665C535.509 424.876 535.509 425.087 535.507 425.297C535.509 425.508 535.509 425.718 535.507 425.929C535.508 426.021 535.509 426.113 535.509 426.204C535.509 426.323 535.508 426.442 535.507 426.561C535.509 426.772 535.509 426.982 535.507 427.193C535.509 427.404 535.509 427.614 535.507 427.825C535.509 428.036 535.509 428.246 535.507 428.457C535.509 428.668 535.509 428.878 535.507 429.089C535.509 429.3 535.509 429.51 535.507 429.721C535.509 429.932 535.509 430.142 535.507 430.353C535.508 430.395 535.508 430.436 535.508 430.478L535.509 430.567C535.509 430.706 535.508 430.846 535.507 430.985C535.509 431.196 535.509 431.406 535.507 431.617C535.509 431.827 535.509 432.038 535.507 432.249C535.509 432.459 535.509 432.67 535.507 432.881C535.509 433.091 535.509 433.302 535.507 433.513C535.509 433.723 535.509 433.934 535.507 434.145C535.509 434.355 535.509 434.566 535.507 434.777C535.509 434.987 535.509 435.198 535.507 435.409C535.509 435.619 535.509 435.83 535.507 436.041C535.509 436.251 535.509 436.462 535.507 436.673C535.509 436.883 535.509 437.094 535.507 437.305C535.509 437.515 535.509 437.726 535.507 437.937C535.647 452.394 526.164 466.877 507.058 477.908C469.124 499.81 407.62 499.81 369.686 477.908C350.58 466.877 341.097 452.394 341.237 437.936C341.235 437.726 341.235 437.515 341.237 437.304C341.235 437.094 341.235 436.883 341.237 436.672C341.235 436.462 341.235 436.251 341.237 436.04C341.235 435.83 341.235 435.619 341.237 435.408C341.235 435.198 341.235 434.987 341.237 434.776C341.235 434.566 341.235 434.355 341.237 434.145C341.235 433.934 341.235 433.723 341.237 433.513C341.235 433.302 341.235 433.091 341.237 432.881C341.235 432.67 341.235 432.459 341.237 432.249C341.235 432.038 341.235 431.827 341.237 431.617C341.235 431.406 341.235 431.195 341.237 430.985C341.235 430.774 341.235 430.563 341.237 430.353C341.235 430.142 341.235 429.931 341.237 429.721C341.235 429.51 341.235 429.299 341.237 429.089C341.235 428.878 341.235 428.667 341.237 428.457C341.235 428.246 341.235 428.036 341.237 427.825C341.235 427.614 341.235 427.404 341.237 427.193C341.235 426.982 341.235 426.772 341.237 426.561C341.235 426.35 341.235 426.14 341.237 425.929C341.235 425.718 341.235 425.508 341.237 425.297C341.235 425.086 341.235 424.876 341.237 424.665C341.235 424.454 341.235 424.244 341.237 424.033C341.235 423.822 341.235 423.612 341.237 423.401C341.235 423.19 341.235 422.98 341.237 422.769C341.235 422.558 341.235 422.348 341.237 422.137C341.235 421.927 341.235 421.716 341.237 421.505C341.235 421.295 341.235 421.084 341.237 420.873C341.235 420.663 341.235 420.452 341.237 420.241C341.235 420.031 341.235 419.82 341.237 419.609C341.235 419.399 341.235 419.188 341.237 418.977C341.235 418.767 341.235 418.556 341.237 418.345C341.235 418.135 341.235 417.924 341.237 417.713C341.235 417.503 341.235 417.292 341.237 417.081C341.235 416.871 341.235 416.66 341.237 416.449C341.235 416.239 341.235 416.028 341.237 415.818C341.235 415.607 341.235 415.396 341.237 415.186C341.235 414.975 341.235 414.764 341.237 414.554C341.235 414.343 341.235 414.132 341.237 413.922C341.235 413.711 341.235 413.5 341.237 413.29C341.235 413.079 341.235 412.868 341.237 412.658C341.235 412.447 341.235 412.236 341.237 412.026C341.235 411.815 341.235 411.604 341.237 411.394C341.235 411.183 341.235 410.972 341.237 410.762C341.235 410.551 341.235 410.34 341.237 410.13C341.235 409.919 341.235 409.709 341.237 409.498C341.235 409.287 341.235 409.077 341.237 408.866C341.235 408.655 341.235 408.445 341.237 408.234C341.235 408.023 341.235 407.813 341.237 407.602Z" fill="url(#paint1_linear)"/>
    <circle r="79.3118" transform="matrix(0.866025 0.5 -0.866025 0.5 438.372 406.654)" fill="#3C4257"/>
    <ellipse cx="361.038" cy="456.11" rx="5.05573" ry="5.6877" fill="#3C4257"/>
    <path d="M341.237 356.26C341.097 341.802 350.58 327.319 369.686 316.288C407.62 294.387 469.124 294.387 507.058 316.288C526.164 327.319 535.647 341.802 535.507 356.26C535.509 356.471 535.509 356.682 535.507 356.892C535.509 357.103 535.509 357.314 535.507 357.524C535.509 357.735 535.509 357.946 535.507 358.156C535.509 358.367 535.509 358.578 535.507 358.788C535.509 358.999 535.509 359.209 535.507 359.42C535.508 359.466 535.508 359.513 535.508 359.559C535.508 359.6 535.509 359.64 535.509 359.681C535.509 359.805 535.508 359.929 535.507 360.052C535.509 360.263 535.509 360.473 535.507 360.684C535.508 360.789 535.509 360.893 535.509 360.998L535.509 361.093C535.508 361.129 535.508 361.164 535.508 361.2C535.508 361.238 535.508 361.277 535.507 361.316C535.508 361.44 535.509 361.563 535.509 361.687C535.508 361.774 535.508 361.861 535.507 361.948C535.509 362.159 535.509 362.369 535.507 362.58C535.508 362.669 535.509 362.759 535.509 362.848C535.509 362.969 535.508 363.091 535.507 363.212C535.509 363.423 535.509 363.633 535.507 363.844C535.509 364.055 535.509 364.265 535.507 364.476C535.509 364.687 535.509 364.897 535.507 365.108C535.509 365.318 535.509 365.529 535.507 365.74C535.509 365.95 535.509 366.161 535.507 366.372C535.509 366.582 535.509 366.793 535.507 367.004L535.508 367.065L535.508 367.148C535.508 367.19 535.509 367.231 535.509 367.272C535.509 367.393 535.508 367.515 535.507 367.636C535.509 367.846 535.509 368.057 535.507 368.268C535.509 368.478 535.509 368.689 535.507 368.9C535.509 369.11 535.509 369.321 535.507 369.532C535.509 369.742 535.509 369.953 535.507 370.164C535.509 370.374 535.509 370.585 535.507 370.796C535.509 371.006 535.509 371.217 535.507 371.428C535.509 371.638 535.509 371.849 535.507 372.059C535.509 372.27 535.509 372.481 535.507 372.691C535.508 372.797 535.509 372.902 535.509 373.007C535.509 373.112 535.508 373.218 535.507 373.323C535.509 373.534 535.509 373.745 535.507 373.955C535.509 374.166 535.509 374.377 535.507 374.587C535.508 374.679 535.509 374.771 535.509 374.862C535.509 374.981 535.508 375.1 535.507 375.219C535.509 375.43 535.509 375.641 535.507 375.851C535.509 376.062 535.509 376.273 535.507 376.483C535.509 376.694 535.509 376.905 535.507 377.115C535.509 377.326 535.509 377.537 535.507 377.747C535.509 377.958 535.509 378.168 535.507 378.379C535.509 378.59 535.509 378.8 535.507 379.011C535.508 379.053 535.508 379.094 535.508 379.136L535.509 379.225C535.509 379.365 535.508 379.504 535.507 379.643C535.509 379.854 535.509 380.064 535.507 380.275C535.509 380.486 535.509 380.696 535.507 380.907C535.509 381.118 535.509 381.328 535.507 381.539C535.509 381.75 535.509 381.96 535.507 382.171C535.509 382.382 535.509 382.592 535.507 382.803C535.509 383.014 535.509 383.224 535.507 383.435C535.509 383.646 535.509 383.856 535.507 384.067C535.509 384.277 535.509 384.488 535.507 384.699C535.509 384.909 535.509 385.12 535.507 385.331C535.509 385.541 535.509 385.752 535.507 385.963C535.509 386.173 535.509 386.384 535.507 386.595C535.647 401.052 526.164 415.535 507.058 426.566C469.124 448.468 407.62 448.468 369.686 426.566C350.58 415.535 341.097 401.052 341.237 386.595C341.235 386.384 341.235 386.173 341.237 385.963C341.235 385.752 341.235 385.541 341.237 385.331C341.235 385.12 341.235 384.909 341.237 384.699C341.235 384.488 341.235 384.277 341.237 384.067C341.235 383.856 341.235 383.645 341.237 383.435C341.235 383.224 341.235 383.013 341.237 382.803C341.235 382.592 341.235 382.381 341.237 382.171C341.235 381.96 341.235 381.749 341.237 381.539C341.235 381.328 341.235 381.117 341.237 380.907C341.235 380.696 341.235 380.486 341.237 380.275C341.235 380.064 341.235 379.854 341.237 379.643C341.235 379.432 341.235 379.222 341.237 379.011C341.235 378.8 341.235 378.59 341.237 378.379C341.235 378.168 341.235 377.958 341.237 377.747C341.235 377.536 341.235 377.326 341.237 377.115C341.235 376.904 341.235 376.694 341.237 376.483C341.235 376.272 341.235 376.062 341.237 375.851C341.235 375.64 341.235 375.43 341.237 375.219C341.235 375.008 341.235 374.798 341.237 374.587C341.235 374.377 341.235 374.166 341.237 373.955C341.235 373.745 341.235 373.534 341.237 373.323C341.235 373.113 341.235 372.902 341.237 372.691C341.235 372.481 341.235 372.27 341.237 372.059C341.235 371.849 341.235 371.638 341.237 371.427C341.235 371.217 341.235 371.006 341.237 370.795C341.235 370.585 341.235 370.374 341.237 370.163C341.235 369.953 341.235 369.742 341.237 369.531C341.235 369.321 341.235 369.11 341.237 368.899C341.235 368.689 341.235 368.478 341.237 368.268C341.235 368.057 341.235 367.846 341.237 367.636C341.235 367.425 341.235 367.214 341.237 367.004C341.235 366.793 341.235 366.582 341.237 366.372C341.235 366.161 341.235 365.95 341.237 365.74C341.235 365.529 341.235 365.318 341.237 365.108C341.235 364.897 341.235 364.686 341.237 364.476C341.235 364.265 341.235 364.054 341.237 363.844C341.235 363.633 341.235 363.422 341.237 363.212C341.235 363.001 341.235 362.79 341.237 362.58C341.235 362.369 341.235 362.159 341.237 361.948C341.235 361.737 341.235 361.527 341.237 361.316C341.235 361.105 341.235 360.895 341.237 360.684C341.235 360.473 341.235 360.263 341.237 360.052C341.235 359.841 341.235 359.631 341.237 359.42C341.235 359.209 341.235 358.999 341.237 358.788C341.235 358.577 341.235 358.367 341.237 358.156C341.235 357.945 341.235 357.735 341.237 357.524C341.235 357.313 341.235 357.103 341.237 356.892C341.235 356.681 341.235 356.471 341.237 356.26Z" fill="#E1E8FF"/>
    <path d="M341.237 356.26C341.097 341.802 350.58 327.319 369.686 316.288C407.62 294.387 469.124 294.387 507.058 316.288C526.164 327.319 535.647 341.802 535.507 356.26C535.509 356.471 535.509 356.682 535.507 356.892C535.509 357.103 535.509 357.314 535.507 357.524C535.509 357.735 535.509 357.946 535.507 358.156C535.509 358.367 535.509 358.578 535.507 358.788C535.509 358.999 535.509 359.209 535.507 359.42C535.508 359.466 535.508 359.513 535.508 359.559C535.508 359.6 535.509 359.64 535.509 359.681C535.509 359.805 535.508 359.929 535.507 360.052C535.509 360.263 535.509 360.473 535.507 360.684C535.508 360.789 535.509 360.893 535.509 360.998L535.509 361.093C535.508 361.129 535.508 361.164 535.508 361.2C535.508 361.238 535.508 361.277 535.507 361.316C535.508 361.44 535.509 361.563 535.509 361.687C535.508 361.774 535.508 361.861 535.507 361.948C535.509 362.159 535.509 362.369 535.507 362.58C535.508 362.669 535.509 362.759 535.509 362.848C535.509 362.969 535.508 363.091 535.507 363.212C535.509 363.423 535.509 363.633 535.507 363.844C535.509 364.055 535.509 364.265 535.507 364.476C535.509 364.687 535.509 364.897 535.507 365.108C535.509 365.318 535.509 365.529 535.507 365.74C535.509 365.95 535.509 366.161 535.507 366.372C535.509 366.582 535.509 366.793 535.507 367.004L535.508 367.065L535.508 367.148C535.508 367.19 535.509 367.231 535.509 367.272C535.509 367.393 535.508 367.515 535.507 367.636C535.509 367.846 535.509 368.057 535.507 368.268C535.509 368.478 535.509 368.689 535.507 368.9C535.509 369.11 535.509 369.321 535.507 369.532C535.509 369.742 535.509 369.953 535.507 370.164C535.509 370.374 535.509 370.585 535.507 370.796C535.509 371.006 535.509 371.217 535.507 371.428C535.509 371.638 535.509 371.849 535.507 372.059C535.509 372.27 535.509 372.481 535.507 372.691C535.508 372.797 535.509 372.902 535.509 373.007C535.509 373.112 535.508 373.218 535.507 373.323C535.509 373.534 535.509 373.745 535.507 373.955C535.509 374.166 535.509 374.377 535.507 374.587C535.508 374.679 535.509 374.771 535.509 374.862C535.509 374.981 535.508 375.1 535.507 375.219C535.509 375.43 535.509 375.641 535.507 375.851C535.509 376.062 535.509 376.273 535.507 376.483C535.509 376.694 535.509 376.905 535.507 377.115C535.509 377.326 535.509 377.537 535.507 377.747C535.509 377.958 535.509 378.168 535.507 378.379C535.509 378.59 535.509 378.8 535.507 379.011C535.508 379.053 535.508 379.094 535.508 379.136L535.509 379.225C535.509 379.365 535.508 379.504 535.507 379.643C535.509 379.854 535.509 380.064 535.507 380.275C535.509 380.486 535.509 380.696 535.507 380.907C535.509 381.118 535.509 381.328 535.507 381.539C535.509 381.75 535.509 381.96 535.507 382.171C535.509 382.382 535.509 382.592 535.507 382.803C535.509 383.014 535.509 383.224 535.507 383.435C535.509 383.646 535.509 383.856 535.507 384.067C535.509 384.277 535.509 384.488 535.507 384.699C535.509 384.909 535.509 385.12 535.507 385.331C535.509 385.541 535.509 385.752 535.507 385.963C535.509 386.173 535.509 386.384 535.507 386.595C535.647 401.052 526.164 415.535 507.058 426.566C469.124 448.468 407.62 448.468 369.686 426.566C350.58 415.535 341.097 401.052 341.237 386.595C341.235 386.384 341.235 386.173 341.237 385.963C341.235 385.752 341.235 385.541 341.237 385.331C341.235 385.12 341.235 384.909 341.237 384.699C341.235 384.488 341.235 384.277 341.237 384.067C341.235 383.856 341.235 383.645 341.237 383.435C341.235 383.224 341.235 383.013 341.237 382.803C341.235 382.592 341.235 382.381 341.237 382.171C341.235 381.96 341.235 381.749 341.237 381.539C341.235 381.328 341.235 381.117 341.237 380.907C341.235 380.696 341.235 380.486 341.237 380.275C341.235 380.064 341.235 379.854 341.237 379.643C341.235 379.432 341.235 379.222 341.237 379.011C341.235 378.8 341.235 378.59 341.237 378.379C341.235 378.168 341.235 377.958 341.237 377.747C341.235 377.536 341.235 377.326 341.237 377.115C341.235 376.904 341.235 376.694 341.237 376.483C341.235 376.272 341.235 376.062 341.237 375.851C341.235 375.64 341.235 375.43 341.237 375.219C341.235 375.008 341.235 374.798 341.237 374.587C341.235 374.377 341.235 374.166 341.237 373.955C341.235 373.745 341.235 373.534 341.237 373.323C341.235 373.113 341.235 372.902 341.237 372.691C341.235 372.481 341.235 372.27 341.237 372.059C341.235 371.849 341.235 371.638 341.237 371.427C341.235 371.217 341.235 371.006 341.237 370.795C341.235 370.585 341.235 370.374 341.237 370.163C341.235 369.953 341.235 369.742 341.237 369.531C341.235 369.321 341.235 369.11 341.237 368.899C341.235 368.689 341.235 368.478 341.237 368.268C341.235 368.057 341.235 367.846 341.237 367.636C341.235 367.425 341.235 367.214 341.237 367.004C341.235 366.793 341.235 366.582 341.237 366.372C341.235 366.161 341.235 365.95 341.237 365.74C341.235 365.529 341.235 365.318 341.237 365.108C341.235 364.897 341.235 364.686 341.237 364.476C341.235 364.265 341.235 364.054 341.237 363.844C341.235 363.633 341.235 363.422 341.237 363.212C341.235 363.001 341.235 362.79 341.237 362.58C341.235 362.369 341.235 362.159 341.237 361.948C341.235 361.737 341.235 361.527 341.237 361.316C341.235 361.105 341.235 360.895 341.237 360.684C341.235 360.473 341.235 360.263 341.237 360.052C341.235 359.841 341.235 359.631 341.237 359.42C341.235 359.209 341.235 358.999 341.237 358.788C341.235 358.577 341.235 358.367 341.237 358.156C341.235 357.945 341.235 357.735 341.237 357.524C341.235 357.313 341.235 357.103 341.237 356.892C341.235 356.681 341.235 356.471 341.237 356.26Z" fill="url(#paint2_linear)"/>
    <circle r="79.3118" transform="matrix(0.866025 0.5 -0.866025 0.5 438.373 355.312)" fill="#3C4257"/>
    <ellipse cx="361.038" cy="404.289" rx="5.05573" ry="5.6877" fill="#3C4257"/>
    <path d="M255.277 519.004C255.615 518.419 255.615 517.785 255.277 517.59L249.766 514.408C249.428 514.213 248.879 514.529 248.541 515.115C248.203 515.701 248.203 516.334 248.541 516.529L253.44 519.358L248.541 527.843C248.203 528.429 248.203 529.062 248.541 529.257C248.879 529.453 249.428 529.136 249.766 528.55L255.277 519.004ZM180.888 550.326L181.659 549.426L181.659 549.426L180.888 550.326ZM188.457 554.696L188.85 553.578L188.85 553.578L188.457 554.696ZM188.457 449.056L188.85 449.72L188.85 449.72L188.457 449.056ZM180.888 462.166L180.116 462.158L180.116 462.158L180.888 462.166ZM430.573 296.17L431.344 296.179L431.344 296.179L430.573 296.17ZM423.003 309.281L422.61 308.617L423.003 309.281ZM431.594 235.5L431.594 274.5L433.327 273.5L433.327 234.5L431.594 235.5ZM404.748 321L206.713 435.336L206.713 437.336L404.748 323L404.748 321ZM178.134 484.836L178.134 530.836L179.866 529.836L179.866 483.836L178.134 484.836ZM206.713 547.336L254.665 519.651L254.665 517.651L206.713 545.336L206.713 547.336ZM178.134 530.836C178.134 536.42 178.133 540.669 178.373 543.915C178.613 547.174 179.1 549.509 180.116 551.225L181.659 549.426C180.788 547.955 180.331 545.895 180.099 542.756C179.867 539.605 179.866 535.453 179.866 529.836L178.134 530.836ZM206.713 545.336C201.848 548.144 198.252 550.22 195.407 551.594C192.573 552.963 190.56 553.597 188.85 553.578L188.064 555.814C190.059 555.836 192.324 555.09 195.266 553.669C198.198 552.253 201.877 550.128 206.713 547.336L206.713 545.336ZM180.116 551.225C181.86 554.17 184.642 555.776 188.064 555.814L188.85 553.578C185.754 553.544 183.237 552.091 181.659 549.426L180.116 551.225ZM206.713 435.336C201.877 438.128 198.198 440.251 195.266 442.22C192.324 444.196 190.059 446.066 188.064 448.392L188.85 449.72C190.56 447.726 192.573 446.036 195.407 444.132C198.252 442.222 201.848 440.144 206.713 437.336L206.713 435.336ZM179.866 483.836C179.866 478.219 179.867 474.066 180.099 470.647C180.331 467.24 180.788 464.652 181.659 462.175L180.116 462.158C179.1 465.048 178.613 467.945 178.373 471.481C178.133 475.004 178.134 479.252 178.134 484.836L179.866 483.836ZM188.064 448.392C184.642 452.381 181.86 457.2 180.116 462.158L181.659 462.175C183.237 457.689 185.754 453.329 188.85 449.72L188.064 448.392ZM431.594 274.5C431.594 280.117 431.594 284.27 431.361 287.69C431.13 291.096 430.672 293.684 429.801 296.162L431.344 296.179C432.361 293.288 432.847 290.391 433.088 286.856C433.327 283.332 433.327 279.084 433.327 273.5L431.594 274.5ZM404.748 323C409.584 320.208 413.263 318.085 416.194 316.116C419.136 314.14 421.402 312.27 423.396 309.945L422.61 308.617C420.9 310.61 418.888 312.3 416.053 314.204C413.208 316.115 409.612 318.192 404.748 321L404.748 323ZM429.801 296.162C428.223 300.648 425.706 305.008 422.61 308.617L423.396 309.945C426.818 305.956 429.601 301.137 431.344 296.179L429.801 296.162Z" fill="#B8C0CD"/>
    <rect width="116" height="216" transform="matrix(0.866025 0.5 -0.866025 0.5 224.062 205)" fill="#73FFE5"/>
    <rect width="116" height="216" transform="matrix(0.866025 0.5 -0.866025 0.5 224.062 205)" fill="#3C4257"/>
    <rect width="83.8319" height="158.736" rx="8" transform="matrix(0.866025 0.5 -0.866025 0.5 223.669 221.311)" fill="#FEF8CD"/>
    <path d="M37 313L137.459 371L137.459 400.825L37 342.825L37 327.912L37 313Z" fill="#CEC0FF"/>
    <path d="M325 262.771L137.541 371L137.541 400.825L325 292.595L325 277.683L325 262.771Z" fill="#FBE582"/>
    <path d="M383 377.634C386.552 375.583 386.898 372.817 384.056 370.86L383.954 370.79L380.971 372.513L381.052 372.583C382.402 373.808 382.178 375.108 380.412 376.128C378.068 377.482 374.658 377.247 371.573 375.466L371.563 375.46C368.498 373.69 368.102 371.739 370.446 370.386C372.273 369.331 374.526 369.249 376.485 369.982L376.698 370.058L379.682 368.335L379.58 368.288C376.201 366.653 371.411 366.829 367.848 368.886C363.576 371.353 363.718 374.552 368.437 377.276L368.447 377.282C373.166 380.007 378.718 380.107 383 377.634ZM396.123 370.023C399.218 368.235 398.883 366.308 397.625 365.183L397.533 365.107L394.814 366.677L394.854 366.724C395.26 367.192 395.189 368.007 393.971 368.71C392.459 369.583 390.5 369.542 388.724 368.564L396.214 364.239L395.301 363.712C392.012 361.814 387.862 361.714 384.675 363.554C381.478 365.399 381.651 367.855 385.111 369.853L385.121 369.858C388.602 371.868 392.784 371.95 396.123 370.023ZM386.938 364.802C388.156 364.099 389.82 364.04 391.505 364.802L386.898 367.462C385.619 366.501 385.71 365.511 386.938 364.802ZM406.19 368.054L409.154 366.343L403.744 363.22L403.805 363.185C405.683 363.589 407.692 363.343 409.255 362.44C411.975 360.87 411.518 358.673 407.987 356.634L407.976 356.628C404.435 354.583 400.649 354.331 397.889 355.925C396.336 356.821 395.96 357.964 396.681 359.071L396.62 359.107L394.722 358.011L391.759 359.722L406.19 368.054ZM405.774 361.614C404.343 362.44 402.11 362.3 400.152 361.169L400.142 361.163C398.173 360.026 397.929 358.737 399.36 357.911C400.832 357.062 402.973 357.22 404.962 358.368L404.972 358.374C406.951 359.517 407.256 360.759 405.774 361.614ZM415.141 358.784L420.693 355.579C423.159 354.155 423.463 352.55 421.566 351.454L421.545 351.442C420.196 350.663 418.196 350.669 416.562 351.401L416.481 351.355C417.425 350.61 417.263 349.532 416.106 348.864L416.085 348.853C414.37 347.862 411.975 348.05 409.712 349.357L404.262 352.503L415.141 358.784ZM411.549 353.347L409.072 351.917L410.808 350.915C411.782 350.353 412.746 350.288 413.548 350.751L413.568 350.763C414.38 351.232 414.218 351.806 413.132 352.433L411.549 353.347ZM416.146 356.001L413.365 354.396L415.03 353.435C416.288 352.708 417.394 352.573 418.308 353.101L418.328 353.112C419.262 353.651 419.099 354.296 417.942 354.964L416.146 356.001ZM431.643 349.515C434.739 347.728 434.404 345.8 433.145 344.675L433.054 344.599L430.334 346.169L430.375 346.216C430.781 346.685 430.71 347.499 429.492 348.202C427.98 349.075 426.021 349.034 424.245 348.056L431.735 343.732L430.821 343.204C427.533 341.306 423.382 341.206 420.196 343.046C416.999 344.892 417.171 347.347 420.632 349.345L420.642 349.351C424.123 351.36 428.304 351.442 431.643 349.515ZM422.459 344.294C423.677 343.591 425.341 343.532 427.026 344.294L422.418 346.954C421.139 345.993 421.231 345.003 422.459 344.294ZM441.711 347.546L444.674 345.835L439.265 342.712L439.326 342.677C441.203 343.081 443.213 342.835 444.776 341.933C447.496 340.362 447.039 338.165 443.507 336.126L443.497 336.12C439.955 334.075 436.17 333.823 433.409 335.417C431.856 336.314 431.481 337.456 432.201 338.564L432.141 338.599L430.243 337.503L427.279 339.214L441.711 347.546ZM441.295 341.107C439.864 341.933 437.631 341.792 435.672 340.661L435.662 340.655C433.693 339.519 433.45 338.23 434.881 337.403C436.352 336.554 438.494 336.712 440.483 337.86L440.493 337.866C442.472 339.009 442.776 340.251 441.295 341.107ZM457.786 334.163L460.75 332.452L449.87 326.171L446.907 327.882L451.088 330.296L446.927 332.698L442.746 330.284L439.783 331.995L450.662 338.276L453.625 336.565L449.17 333.993L453.331 331.591L457.786 334.163ZM466.271 329.464C467.692 328.644 468.169 327.583 467.681 326.575L467.742 326.54L469.366 327.478L472.33 325.767L464.87 321.46C462.678 320.194 459.4 320.411 456.599 322.028C453.717 323.692 453.433 325.521 455.28 326.774L455.391 326.851L458.101 325.286L458.03 325.222C457.482 324.73 457.624 324.05 458.73 323.411C459.897 322.737 461.125 322.72 462.089 323.276L462.759 323.663L460.232 325.31C457.695 326.974 457.32 328.526 459.299 329.669L459.319 329.681C461.237 330.788 464.089 330.724 466.271 329.464ZM462.1 327.899L462.079 327.888C461.308 327.442 461.43 326.81 462.506 326.107L464.606 324.73L465.388 325.181C466.524 325.837 466.393 326.898 465.063 327.665C464.048 328.251 462.901 328.362 462.1 327.899ZM480.773 320.892L483.676 319.216L472.796 312.935L467.752 315.847C465.114 317.37 464.86 319.204 467.164 320.534L467.184 320.546C468.737 321.442 470.767 321.56 472.715 320.974L473.811 324.911L477.11 323.007L476.014 319.585L477.262 318.864L480.773 320.892ZM473.324 318.724C472.289 319.321 471.02 319.339 470.158 318.841L470.137 318.829C469.183 318.278 469.214 317.558 470.259 316.954L472.106 315.888L475.171 317.657L473.324 318.724ZM433.906 372.208C437.215 370.298 437.184 367.913 433.805 365.962L433.785 365.95C430.679 364.157 426.802 364.11 423.879 365.798C422.093 366.829 421.606 367.978 422.235 369.114L422.175 369.149L422.053 369.056C419.769 367.292 419.495 366.032 422.063 364.456L423.22 363.741C424.438 362.991 425.27 362.3 425.432 361.925L423.139 360.601C422.783 361.099 421.911 361.778 420.723 362.511L419.485 363.261C415.649 365.628 415.943 368.165 422.012 371.669L422.032 371.681C426.234 374.107 430.395 374.235 433.906 372.208ZM431.532 370.896C430.009 371.774 428.01 371.651 426.051 370.521L426.031 370.509C424.174 369.437 424.001 368.294 425.513 367.421C427.015 366.554 428.984 366.659 430.842 367.732L430.862 367.743C432.821 368.874 433.034 370.028 431.532 370.896ZM444.187 366.214C445.608 365.394 446.085 364.333 445.598 363.325L445.659 363.29L447.282 364.228L450.246 362.517L442.787 358.21C440.594 356.944 437.316 357.161 434.515 358.778C431.633 360.442 431.349 362.271 433.196 363.524L433.308 363.601L436.017 362.036L435.946 361.972C435.398 361.48 435.54 360.8 436.647 360.161C437.814 359.487 439.042 359.47 440.006 360.026L440.676 360.413L438.149 362.06C435.611 363.724 435.236 365.276 437.215 366.419L437.235 366.431C439.153 367.538 442.005 367.474 444.187 366.214ZM440.016 364.649L439.996 364.638C439.224 364.192 439.346 363.56 440.422 362.857L442.523 361.48L443.304 361.931C444.441 362.587 444.309 363.648 442.979 364.415C441.965 365.001 440.818 365.112 440.016 364.649ZM456.975 358.89C459.857 357.226 460.385 355.362 458.334 354.179L458.314 354.167C457.015 353.417 455.361 353.388 453.595 354.091L453.514 354.044C454.498 353.148 454.376 352.233 453.199 351.554L453.179 351.542C451.271 350.44 448.46 350.728 445.73 352.304C442.959 353.903 442.533 355.556 444.492 357.015L444.563 357.067L447.333 355.468L447.262 355.415C446.613 354.864 446.846 354.249 447.891 353.646C448.886 353.071 449.921 352.989 450.682 353.429L450.703 353.44C451.494 353.898 451.352 354.46 450.246 355.099L448.795 355.937L450.642 357.003L452.113 356.153C453.362 355.433 454.397 355.315 455.229 355.796L455.249 355.808C456.061 356.276 455.858 356.944 454.711 357.607C453.595 358.251 452.489 358.421 451.443 358.075L451.301 358.028L448.49 359.651L448.602 359.704C451.017 360.841 454.123 360.536 456.975 358.89ZM466.697 353.218C468.118 352.398 468.595 351.337 468.108 350.329L468.169 350.294L469.792 351.232L472.756 349.521L465.296 345.214C463.104 343.948 459.826 344.165 457.025 345.782C454.143 347.446 453.859 349.274 455.706 350.528L455.818 350.605L458.527 349.04L458.456 348.976C457.908 348.483 458.05 347.804 459.157 347.165C460.324 346.491 461.552 346.474 462.516 347.03L463.186 347.417L460.659 349.064C458.121 350.728 457.746 352.28 459.725 353.423L459.745 353.435C461.663 354.542 464.515 354.478 466.697 353.218ZM462.526 351.653L462.506 351.642C461.734 351.196 461.856 350.564 462.932 349.86L465.033 348.483L465.814 348.935C466.951 349.591 466.819 350.651 465.489 351.419C464.474 352.005 463.328 352.116 462.526 351.653ZM439.295 396.179L436.403 394.509L443.72 390.284L446.613 391.954L449.312 390.396L444.147 387.413L442.523 388.351L433.917 383.382L425.209 388.409L430.324 391.773C431.694 392.681 432.607 393.56 432.262 394.274L431.43 394.755L436.596 397.737L439.295 396.179ZM439.559 390.062L435.256 392.546L435.195 392.511C434.962 391.79 434.221 391.093 433.125 390.378L429.979 388.28L433.226 386.405L439.559 390.062ZM451.149 386.194C452.57 385.374 453.047 384.314 452.56 383.306L452.621 383.271L454.245 384.208L457.208 382.497L449.749 378.19C447.556 376.925 444.278 377.142 441.477 378.759C438.595 380.423 438.311 382.251 440.158 383.505L440.27 383.581L442.979 382.017L442.908 381.952C442.36 381.46 442.502 380.78 443.609 380.142C444.776 379.468 446.004 379.45 446.968 380.007L447.638 380.394L445.111 382.04C442.573 383.704 442.198 385.257 444.177 386.399L444.197 386.411C446.115 387.519 448.967 387.454 451.149 386.194ZM446.978 384.63L446.958 384.618C446.186 384.173 446.308 383.54 447.384 382.837L449.485 381.46L450.266 381.911C451.403 382.567 451.271 383.628 449.941 384.396C448.927 384.982 447.78 385.093 446.978 384.63ZM466.413 377.183L469.376 375.472L458.497 369.19L455.533 370.901L459.715 373.315L455.554 375.718L451.372 373.304L448.409 375.015L459.288 381.296L462.252 379.585L457.797 377.013L461.958 374.61L466.413 377.183ZM478.632 370.128L481.595 368.417L470.716 362.136L467.752 363.847L471.934 366.261L467.773 368.663L463.592 366.249L460.628 367.96L471.508 374.241L474.471 372.53L470.016 369.958L474.177 367.556L478.632 370.128ZM483.727 367.187L488.801 364.257C491.369 362.774 491.511 360.958 489.156 359.599L489.136 359.587C486.781 358.228 483.635 358.31 481.068 359.792L478.957 361.011L475.811 359.194L472.847 360.905L483.727 367.187ZM494.17 361.157L497.133 359.446L486.254 353.165L483.29 354.876L494.17 361.157ZM482.762 361.392C483.828 360.776 485.127 360.753 486.122 361.327L486.142 361.339C487.126 361.907 487.096 362.663 486.03 363.278L484.457 364.187L481.189 362.3L482.762 361.392ZM498.483 358.667L501.599 356.868L499.873 353.505L499.934 353.47L505.77 354.46L508.997 352.597L500.117 351.372L498.138 346.304L494.921 348.161L496.656 351.401L496.595 351.437L490.973 350.44L487.634 352.368L496.473 353.569L498.483 358.667Z" fill="white"/>
    <rect width="241" height="36" transform="matrix(0.866025 -0.5 2.20305e-08 1 199 419.5)" fill="#FDF3B4"/>
    <path d="M213.113 435.547C216.016 433.871 217.822 430.586 217.822 427L217.822 426.984C217.822 423.406 216.009 422.211 213.113 423.883C210.224 425.551 208.404 428.836 208.404 432.422L208.404 432.438C208.404 436.023 210.218 437.219 213.113 435.547ZM213.113 433.547C211.51 434.473 210.488 433.594 210.488 431.234L210.488 431.219C210.488 428.859 211.517 426.805 213.113 425.883C214.717 424.957 215.739 425.836 215.739 428.188L215.739 428.203C215.739 430.539 214.737 432.609 213.113 433.547ZM222.518 430.094C224.724 428.82 226.09 426.43 226.09 423.828L226.09 423.812C226.09 421.422 224.825 420.629 222.876 421.754C221.686 422.441 220.86 423.496 220.414 424.754L220.373 424.777L220.387 424.66C220.644 422.457 221.28 421.145 223.046 420.062L223.844 419.57C224.683 419.055 225.36 418.523 225.63 418.18L225.63 416.414C225.224 416.844 224.541 417.355 223.722 417.859L222.876 418.371C220.231 420 218.864 422.594 218.864 427.266L218.864 427.281C218.864 430.516 220.177 431.445 222.518 430.094ZM222.484 428.324C221.469 428.91 220.874 428.402 220.874 426.895L220.874 426.879C220.874 425.449 221.476 424.273 222.484 423.691C223.485 423.113 224.081 423.598 224.081 425.027L224.081 425.043C224.081 426.551 223.485 427.746 222.484 428.324ZM228.424 426.512L231.807 424.559C233.519 423.57 234.615 421.781 234.615 419.969L234.615 419.953C234.615 418.141 233.519 417.617 231.807 418.605L230.4 419.418L230.4 416.996L226.618 419.18L226.618 420.898L228.424 419.855L228.424 426.512ZM231.449 420.531C232.159 420.121 232.606 420.348 232.606 421.113L232.606 421.129C232.606 421.887 232.159 422.637 231.449 423.047L230.4 423.652L230.4 421.137L231.449 420.531ZM239.006 420.574C241.07 419.383 242.071 417.391 242.301 416.023L242.315 415.93L240.501 416.977L240.488 417.031C240.353 417.578 239.859 418.379 239.047 418.848C238.039 419.43 237.409 419.012 237.382 417.691L242.376 414.809L242.376 414.105C242.376 411.574 241.049 410.676 238.925 411.902C236.794 413.133 235.434 415.621 235.434 418.285L235.434 418.293C235.434 420.973 236.78 421.859 239.006 420.574ZM238.959 413.586C239.771 413.117 240.359 413.379 240.481 414.465L237.409 416.238C237.538 415.031 238.14 414.059 238.959 413.586ZM245.725 413.008L247.991 415.215L250.366 413.844L247.436 411.043L250.197 405.566L247.951 406.863L245.725 411.438L245.488 411.574L245.488 408.285L243.512 409.426L243.512 417.801L245.488 416.66L245.488 413.145L245.725 413.008ZM256.915 401.688L250.623 405.32L250.623 407.047L252.781 405.801L252.781 412.449L254.757 411.309L254.757 404.66L256.915 403.414L256.915 401.688ZM260.826 407.805L262.869 406.625L262.869 401.875L267.267 399.336L267.267 404.086L269.31 402.906L269.31 391.633L267.267 392.812L267.267 397.391L262.869 399.93L262.869 395.352L260.826 396.531L260.826 407.805ZM274.195 400.258C276.387 398.992 277.788 396.559 277.788 393.824L277.788 393.809C277.788 391.098 276.367 390.285 274.195 391.539C272.023 392.793 270.603 395.262 270.603 397.957L270.603 397.973C270.603 400.699 271.996 401.527 274.195 400.258ZM274.202 398.465C273.228 399.027 272.612 398.453 272.612 396.812L272.612 396.797C272.612 395.18 273.241 393.879 274.195 393.328C275.156 392.773 275.778 393.352 275.778 394.969L275.778 394.984C275.778 396.617 275.17 397.906 274.202 398.465ZM278.925 397.355L282.625 395.219C284.27 394.27 285.298 392.723 285.298 391.262L285.298 391.246C285.298 390.207 284.628 389.828 283.661 390.246L283.661 390.184C284.405 389.621 284.973 388.512 284.973 387.621L284.973 387.605C284.973 386.285 284.067 386.012 282.558 386.883L278.925 388.98L278.925 397.355ZM280.866 391.227L280.866 389.32L282.023 388.652C282.673 388.277 283.031 388.398 283.031 389.016L283.031 389.031C283.031 389.656 282.646 390.199 281.922 390.617L280.866 391.227ZM280.866 394.766L280.866 392.625L281.976 391.984C282.815 391.5 283.261 391.578 283.261 392.281L283.261 392.297C283.261 393.016 282.835 393.629 282.064 394.074L280.866 394.766ZM286.489 392.988L289.872 391.035C291.583 390.047 292.679 388.258 292.679 386.445L292.679 386.43C292.679 384.617 291.583 384.094 289.872 385.082L288.464 385.895L288.464 383.473L286.489 384.613L286.489 392.988ZM293.451 388.969L295.426 387.828L295.426 379.453L293.451 380.594L293.451 388.969ZM289.513 387.008C290.223 386.598 290.67 386.824 290.67 387.59L290.67 387.605C290.67 388.363 290.223 389.113 289.513 389.523L288.464 390.129L288.464 387.613L289.513 387.008ZM300.284 375.781C301.867 374.867 302.862 373.309 302.862 371.754L302.862 371.676L301.374 372.535L301.374 372.605C301.374 373.262 300.968 374.051 300.291 374.441C299.601 374.84 299.202 374.516 299.202 373.859L299.202 373.789L297.72 374.645L297.72 374.723C297.72 376.277 298.708 376.691 300.284 375.781ZM296.84 387.012L298.775 385.895L301.631 378.949L301.705 378.906L301.705 384.203L303.647 383.082L303.647 374.707L301.712 375.824L298.85 382.703L298.782 382.742L298.782 377.516L296.84 378.637L296.84 387.012ZM307.815 380.676L309.79 379.535L309.79 372.879L312.497 371.316L312.497 377.973L314.472 376.832L314.472 368.457L307.815 372.301L307.815 380.676ZM319.202 374.273C321.394 373.008 322.794 370.574 322.794 367.84L322.794 367.824C322.794 365.113 321.373 364.301 319.202 365.555C317.03 366.809 315.609 369.277 315.609 371.973L315.609 371.988C315.609 374.715 317.003 375.543 319.202 374.273ZM319.208 372.48C318.234 373.043 317.618 372.469 317.618 370.828L317.618 370.812C317.618 369.195 318.248 367.895 319.202 367.344C320.162 366.789 320.785 367.367 320.785 368.984L320.785 369C320.785 370.633 320.176 371.922 319.208 372.48ZM326.367 366.082L326.515 363.23L328.511 362.078L328.511 368.727L330.487 367.586L330.487 359.211L324.817 362.484L324.601 366.914C324.526 368.457 324.289 369.273 323.586 369.68C323.403 369.785 323.268 369.84 323.187 369.863L323.187 371.777C323.302 371.75 323.559 371.664 323.924 371.453C325.703 370.426 326.238 368.578 326.367 366.082ZM331.915 366.762L335.297 364.809C337.009 363.82 338.105 362.031 338.105 360.219L338.105 360.203C338.105 358.391 337.009 357.867 335.297 358.855L333.89 359.668L333.89 357.246L331.915 358.387L331.915 366.762ZM334.939 360.781C335.649 360.371 336.096 360.598 336.096 361.363L336.096 361.379C336.096 362.137 335.649 362.887 334.939 363.297L333.89 363.902L333.89 361.387L334.939 360.781ZM342.158 361.02C344.079 359.91 345.331 358.148 345.331 356.57L345.331 356.555C345.331 355.555 344.797 355.207 343.802 355.57L343.802 355.508C344.648 354.801 345.135 353.863 345.135 352.957L345.135 352.941C345.135 351.473 344.032 351.219 342.212 352.27C340.365 353.336 339.269 354.906 339.08 356.742L339.073 356.809L340.92 355.742L340.927 355.676C341.028 355 341.461 354.43 342.158 354.027C342.821 353.645 343.213 353.762 343.213 354.348L343.213 354.363C343.213 354.973 342.841 355.508 342.104 355.934L341.136 356.492L341.136 357.914L342.117 357.348C342.95 356.867 343.362 356.949 343.362 357.59L343.362 357.605C343.362 358.23 342.909 358.859 342.144 359.301C341.4 359.73 340.933 359.688 340.784 359.141L340.764 359.066L338.89 360.148L338.897 360.223C339.046 361.824 340.257 362.117 342.158 361.02ZM349.837 356.586C352.029 355.32 353.43 352.887 353.43 350.152L353.43 350.137C353.43 347.426 352.009 346.613 349.837 347.867C347.665 349.121 346.245 351.59 346.245 354.285L346.245 354.301C346.245 357.027 347.638 357.855 349.837 356.586ZM349.844 354.793C348.87 355.355 348.254 354.781 348.254 353.141L348.254 353.125C348.254 351.508 348.883 350.207 349.837 349.656C350.798 349.102 351.42 349.68 351.42 351.297L351.42 351.312C351.42 352.945 350.811 354.234 349.844 354.793ZM354.566 353.684L358.267 351.547C359.911 350.598 360.94 349.051 360.94 347.59L360.94 347.574C360.94 346.535 360.27 346.156 359.303 346.574L359.303 346.512C360.047 345.949 360.615 344.84 360.615 343.949L360.615 343.934C360.615 342.613 359.709 342.34 358.2 343.211L354.566 345.309L354.566 353.684ZM356.508 347.555L356.508 345.648L357.665 344.98C358.315 344.605 358.673 344.727 358.673 345.344L358.673 345.359C358.673 345.984 358.288 346.527 357.564 346.945L356.508 347.555ZM356.508 351.094L356.508 348.953L357.618 348.312C358.457 347.828 358.903 347.906 358.903 348.609L358.903 348.625C358.903 349.344 358.477 349.957 357.706 350.402L356.508 351.094ZM364.275 348.211C365.223 347.664 365.994 346.695 366.413 345.594L366.454 345.57L366.454 346.82L368.43 345.68L368.43 339.938C368.43 338.25 367.212 337.836 365.344 338.914C363.423 340.023 362.273 341.797 362.164 343.406L362.158 343.504L363.964 342.461L363.978 342.383C364.079 341.785 364.519 341.133 365.256 340.707C366.035 340.258 366.454 340.477 366.454 341.219L366.454 341.734L364.661 342.895C362.855 344.07 361.833 345.551 361.833 347.074L361.833 347.09C361.833 348.566 362.821 349.051 364.275 348.211ZM363.788 345.844L363.788 345.828C363.788 345.234 364.194 344.625 364.959 344.129L366.454 343.156L366.454 343.758C366.454 344.633 365.798 345.668 364.911 346.18C364.235 346.57 363.788 346.461 363.788 345.844ZM375.628 333.148L369.336 336.781L369.336 338.508L371.495 337.262L371.495 343.91L373.47 342.77L373.47 336.121L375.628 334.875L375.628 333.148ZM379.789 339.293C381.853 338.102 382.854 336.109 383.084 334.742L383.098 334.648L381.285 335.695L381.271 335.75C381.136 336.297 380.642 337.098 379.83 337.566C378.822 338.148 378.193 337.73 378.166 336.41L383.159 333.527L383.159 332.824C383.159 330.293 381.833 329.395 379.708 330.621C377.577 331.852 376.217 334.34 376.217 337.004L376.217 337.012C376.217 339.691 377.564 340.578 379.789 339.293ZM379.742 332.305C380.554 331.836 381.143 332.098 381.264 333.184L378.193 334.957C378.321 333.75 378.923 332.777 379.742 332.305ZM386.731 331.23L386.88 328.379L388.876 327.227L388.876 333.875L390.852 332.734L390.852 324.359L385.182 327.633L384.965 332.062C384.891 333.605 384.654 334.422 383.95 334.828C383.768 334.934 383.632 334.988 383.551 335.012L383.551 336.926C383.666 336.898 383.923 336.812 384.289 336.602C386.068 335.574 386.603 333.727 386.731 331.23ZM392.279 331.91L395.662 329.957C397.374 328.969 398.47 327.18 398.47 325.367L398.47 325.352C398.47 323.539 397.374 323.016 395.662 324.004L394.255 324.816L394.255 322.395L392.279 323.535L392.279 331.91ZM395.304 325.93C396.014 325.52 396.46 325.746 396.46 326.512L396.46 326.527C396.46 327.285 396.014 328.035 395.304 328.445L394.255 329.051L394.255 326.535L395.304 325.93Z" fill="black"/>
    <rect x="-2.98023e-08" y="0.5" width="63" height="19" rx="3.5" transform="matrix(0.866025 0.5 -0.866025 0.5 221.346 232.25)" fill="white" stroke="black"/>
    <rect width="22.5141" height="5.28227" rx="2.64114" transform="matrix(0.866025 0.5 -0.866025 0.5 218.874 238.182)" fill="#FBE582"/>
    <rect x="-2.98023e-08" y="0.5" width="63" height="19" rx="3.5" transform="matrix(0.866025 0.5 -0.866025 0.5 197.098 246.25)" fill="white" stroke="black"/>
    <rect width="38.7153" height="5.28227" rx="2.64114" transform="matrix(0.866025 0.5 -0.866025 0.5 194.873 252.182)" fill="#FBE582"/>
    <rect width="64" height="20" rx="4" transform="matrix(0.866025 0.5 -0.866025 0.5 121.32 289.5)" fill="#3C4257"/>
    <path d="M113.668 297.505L114.817 298.169L116.549 297.169L117.603 297.778C118.764 298.448 120.279 298.461 121.409 297.808L121.417 297.804C122.547 297.151 122.524 296.277 121.363 295.607L119.16 294.334L113.668 297.505ZM120.176 295.971C120.834 296.352 120.872 296.773 120.248 297.134L120.241 297.138C119.617 297.499 118.882 297.479 118.224 297.099L117.447 296.65L119.4 295.523L120.176 295.971ZM120.104 301.317C121.264 301.988 122.517 301.915 123.247 301.643L123.297 301.623L122.277 301.034L122.246 301.043C121.942 301.131 121.413 301.115 120.956 300.852C120.389 300.524 120.416 300.1 121.051 299.716L123.86 301.337L124.203 301.139C125.436 300.427 125.5 299.529 124.305 298.839C123.106 298.147 121.512 298.184 120.214 298.933L120.21 298.936C118.905 299.689 118.852 300.594 120.104 301.317ZM123.495 299.329C123.951 299.593 123.989 299.953 123.495 300.318L121.767 299.32C122.391 299.043 123.034 299.063 123.495 299.329ZM128.808 302.502L129.645 302.018L126.802 300.377L122.722 302.732L123.833 303.374L127.076 301.502L128.808 302.502ZM126.208 304.745L127.297 305.374L131.483 304.811L131.525 304.835L128.945 306.325L130.037 306.956L134.117 304.6L133.028 303.972L128.872 304.512L128.834 304.49L131.38 303.02L130.288 302.39L126.208 304.745ZM132.606 308.535C133.698 309.166 135.076 309.179 136.019 308.696L136.046 308.685L135.011 308.087L134.969 308.103C134.486 308.298 133.934 308.296 133.489 308.039C132.937 307.72 133.047 307.261 133.846 306.8L133.85 306.797C134.63 306.347 135.441 306.274 135.989 306.591C136.446 306.854 136.423 307.184 136.103 307.448L136.073 307.47L137.108 308.067L137.131 308.05C137.972 307.516 137.949 306.716 136.845 306.079C135.62 305.371 134.029 305.389 132.724 306.143L132.72 306.145C131.403 306.905 131.365 307.819 132.606 308.535ZM142.432 309.401L138.893 307.358L138.052 307.843L139.266 308.544L136.027 310.414L137.138 311.056L140.377 309.186L141.591 309.887L142.432 309.401ZM137.58 312.849L138.691 313.49L140.72 312.319L140.742 312.332C140.48 312.739 140.64 313.174 141.226 313.512C142.246 314.101 143.673 314.002 144.997 313.238L145.001 313.235C146.329 312.469 146.493 311.649 145.458 311.051C144.875 310.715 144.133 310.634 143.414 310.79L143.391 310.777L144.103 310.366L142.992 309.724L137.58 312.849ZM141.762 312.759C141.226 312.449 141.317 311.965 142.052 311.541L142.055 311.539C142.794 311.113 143.631 311.06 144.168 311.37C144.719 311.688 144.617 312.152 143.871 312.583L143.867 312.585C143.125 313.013 142.318 313.079 141.762 312.759ZM144.742 315.521C145.275 315.828 145.964 315.931 146.619 315.826L146.641 315.839L146.032 316.191L147.144 316.832L149.941 315.217C150.763 314.743 150.622 314.033 149.572 313.427C148.491 312.802 147.304 312.741 146.489 313.141L146.44 313.165L147.456 313.752L147.498 313.736C147.817 313.618 148.259 313.648 148.674 313.888C149.111 314.141 149.123 314.406 148.761 314.615L148.51 314.76L147.441 314.213C146.36 313.664 145.351 313.583 144.609 314.011L144.601 314.015C143.882 314.431 143.924 315.048 144.742 315.521ZM145.758 314.617L145.766 314.613C146.055 314.446 146.466 314.472 146.923 314.705L147.817 315.16L147.524 315.329C147.098 315.575 146.409 315.547 145.911 315.259C145.53 315.039 145.458 314.791 145.758 314.617ZM150.192 319.845L151.197 320.425L153.119 319.315L152.506 318.961L155.749 317.089L154.637 316.448L151.395 318.32L149.872 317.441L153.115 315.569L152.004 314.927L147.924 317.283L151.277 319.219L150.192 319.845ZM152.78 320.086L153.869 320.715L158.055 320.152L158.097 320.177L155.516 321.666L156.609 322.297L160.688 319.941L159.6 319.313L155.444 319.854L155.406 319.832L157.952 318.362L156.86 317.731L152.78 320.086ZM159.794 324.136L160.883 324.764L164.962 322.409L163.071 321.317C162.081 320.746 160.89 320.691 160.026 321.189L160.019 321.194C159.436 321.53 159.36 321.969 159.741 322.391L157.183 322.629L158.42 323.343L160.643 323.105L161.111 323.376L159.794 324.136ZM161.202 322.523C160.814 322.299 160.803 322.024 161.126 321.838L161.134 321.833C161.492 321.627 161.96 321.633 162.352 321.86L163.044 322.26L161.895 322.923L161.202 322.523Z" fill="white"/>
    <rect x="258.184" y="448.184" width="196.096" height="102.912" rx="12.032" fill="#3C4257"/>
    <rect x="273.288" y="463.288" width="51.2" height="20.48" fill="#CEC0FF"/>
    <rect x="330.632" y="463.288" width="51.2" height="20.48" fill="#CEC0FF"/>
    <rect x="387.976" y="463.288" width="51.2" height="20.48" fill="#CEC0FF"/>
    <rect x="273.288" y="489.4" width="51.2" height="20.48" fill="#EDF1F5"/>
    <rect x="330.632" y="489.4" width="51.2" height="20.48" fill="#EDF1F5"/>
    <rect x="387.976" y="489.4" width="51.2" height="20.48" fill="#EDF1F5"/>
    <rect x="273.288" y="515.512" width="51.2" height="20.48" fill="#EDF1F5"/>
    <rect x="330.632" y="515.512" width="51.2" height="20.48" fill="#EDF1F5"/>
    <rect x="387.976" y="515.512" width="51.2" height="20.48" fill="#EDF1F5"/>
    <rect x="258.184" y="448.184" width="196.096" height="102.912" rx="12.032" stroke="white" stroke-width="5.632" stroke-linecap="round"/>
    <path d="M139.134 312.5C139.134 313.052 139.522 313.276 140 313C140.478 312.724 140.866 312.052 140.866 311.5L139.134 312.5ZM140 210.138L140.866 209.638L140 210.138ZM431.388 93.5434C431.726 93.7387 432.274 93.4221 432.612 92.8363L438.124 83.2903C438.462 82.7046 438.462 82.0714 438.124 81.8761C437.786 81.6809 437.237 81.9974 436.899 82.5832L432 91.0685L427.101 88.2401C426.763 88.0448 426.214 88.3614 425.876 88.9472C425.538 89.533 425.538 90.1661 425.876 90.3614L431.388 93.5434ZM430.112 26.3985L430.884 25.499V25.499L430.112 26.3985ZM422.543 22.0283L422.15 23.1463V23.1463L422.543 22.0283ZM140.681 197.031L139.849 197.233L139.849 197.233L140.681 197.031ZM152.513 176.536L152.753 177.358L152.513 176.536ZM140.866 311.5L140.866 209.638L139.134 210.638L139.134 312.5L140.866 311.5ZM431.134 46.8883L431.134 92.9827L432.866 91.9827L432.866 45.8883L431.134 46.8883ZM163.496 170.409L286 99.6814L286 97.6814L163.496 168.409L163.496 170.409ZM286 99.6814L404.312 31.3742L404.312 29.3742L286 97.6814L286 99.6814ZM432.866 45.8883C432.866 40.3043 432.867 36.0558 432.627 32.8089C432.387 29.5507 431.9 27.2157 430.884 25.499L429.341 27.2979C430.212 28.7695 430.669 30.8289 430.901 33.9684C431.133 37.1191 431.134 41.2713 431.134 46.8883L432.866 45.8883ZM404.312 31.3742C409.168 28.5704 412.758 26.4984 415.599 25.1268C418.429 23.76 420.439 23.1275 422.15 23.1463L422.936 20.9103C420.941 20.8884 418.678 21.6332 415.74 23.0519C412.812 24.4656 409.139 26.5869 404.312 29.3742L404.312 31.3742ZM430.884 25.499C429.14 22.5542 426.358 20.9479 422.936 20.9103L422.15 23.1463C425.246 23.1804 427.763 24.6337 429.341 27.298L430.884 25.499ZM140.866 209.638C140.866 202.906 140.875 199.746 141.513 196.828L139.849 197.233C139.125 200.541 139.134 204.044 139.134 210.638L140.866 209.638ZM163.496 168.409C157.804 171.695 154.776 173.434 152.273 175.714L152.753 177.358C154.962 175.346 157.685 173.764 163.496 170.409L163.496 168.409ZM141.513 196.828C143.081 189.654 147.325 182.303 152.753 177.358L152.273 175.714C146.273 181.18 141.582 189.304 139.849 197.233L141.513 196.828Z" fill="#B8C0CD"/>
    <rect width="251" height="36" transform="matrix(0.866025 -0.5 2.20305e-08 1 171 146.5)" fill="#FDF3B4"/>
    <path d="M185.228 162.48C187.596 161.113 189.308 158.414 189.491 155.91L189.498 155.82L187.509 156.969L187.495 157.055C187.238 158.539 186.412 159.797 185.235 160.477C183.672 161.379 182.671 160.488 182.671 158.113L182.671 158.105C182.671 155.746 183.666 153.719 185.228 152.816C186.446 152.113 187.245 152.465 187.475 153.574L187.502 153.691L189.491 152.543L189.484 152.477C189.301 150.191 187.603 149.445 185.228 150.816C182.38 152.461 180.58 155.688 180.58 159.32L180.58 159.328C180.58 162.961 182.373 164.129 185.228 162.48ZM194.017 157.383C196.209 156.117 197.61 153.684 197.61 150.949L197.61 150.934C197.61 148.223 196.189 147.41 194.017 148.664C191.845 149.918 190.425 152.387 190.425 155.082L190.425 155.098C190.425 157.824 191.818 158.652 194.017 157.383ZM194.024 155.59C193.05 156.152 192.434 155.578 192.434 153.938L192.434 153.922C192.434 152.305 193.063 151.004 194.017 150.453C194.978 149.898 195.6 150.477 195.6 152.094L195.6 152.109C195.6 153.742 194.992 155.031 194.024 155.59ZM201.696 152.949C203.618 151.84 204.87 150.078 204.87 148.5L204.87 148.484C204.87 147.484 204.335 147.137 203.341 147.5L203.341 147.438C204.186 146.73 204.673 145.793 204.673 144.887L204.673 144.871C204.673 143.402 203.571 143.148 201.751 144.199C199.903 145.266 198.807 146.836 198.618 148.672L198.611 148.738L200.458 147.672L200.465 147.605C200.567 146.93 201 146.359 201.696 145.957C202.359 145.574 202.752 145.691 202.752 146.277L202.752 146.293C202.752 146.902 202.38 147.438 201.642 147.863L200.675 148.422L200.675 149.844L201.656 149.277C202.488 148.797 202.901 148.879 202.901 149.52L202.901 149.535C202.901 150.16 202.447 150.789 201.683 151.23C200.939 151.66 200.472 151.617 200.323 151.07L200.303 150.996L198.429 152.078L198.435 152.152C198.584 153.754 199.795 154.047 201.696 152.949ZM207.251 151.797L207.251 149.57L212.129 146.754L212.129 148.98L213.929 147.941L213.929 143.965L212.847 144.59L212.847 137.965L207.041 141.316L206.805 145.664C206.737 146.836 206.534 147.891 206.006 148.539L205.451 148.859L205.451 152.836L207.251 151.797ZM210.871 145.73L208.002 147.387L208.002 147.34C208.34 146.574 208.496 145.734 208.543 144.809L208.706 142.105L210.871 140.855L210.871 145.73ZM216.967 144.094C217.914 143.547 218.685 142.578 219.105 141.477L219.146 141.453L219.146 142.703L221.121 141.562L221.121 135.82C221.121 134.133 219.903 133.719 218.036 134.797C216.114 135.906 214.964 137.68 214.856 139.289L214.849 139.387L216.656 138.344L216.669 138.266C216.771 137.668 217.21 137.016 217.948 136.59C218.726 136.141 219.146 136.359 219.146 137.102L219.146 137.617L217.353 138.777C215.546 139.953 214.524 141.434 214.524 142.957L214.524 142.973C214.524 144.449 215.512 144.934 216.967 144.094ZM216.48 141.727L216.48 141.711C216.48 141.117 216.886 140.508 217.65 140.012L219.146 139.039L219.146 139.641C219.146 140.516 218.489 141.551 217.603 142.062C216.926 142.453 216.48 142.344 216.48 141.727ZM228.32 129.031L222.028 132.664L222.028 134.391L224.186 133.145L224.186 139.793L226.162 138.652L226.162 132.004L228.32 130.758L228.32 129.031ZM229.328 136.824L232.711 134.871C234.423 133.883 235.519 132.094 235.519 130.281L235.519 130.266C235.519 128.453 234.423 127.93 232.711 128.918L231.304 129.73L231.304 127.309L229.328 128.449L229.328 136.824ZM232.352 130.844C233.063 130.434 233.509 130.66 233.509 131.426L233.509 131.441C233.509 132.199 233.063 132.949 232.352 133.359L231.304 133.965L231.304 131.449L232.352 130.844ZM244.118 128.285L246.094 127.145L246.094 118.77L244.118 119.91L244.118 123.129L241.344 124.73L241.344 121.512L239.369 122.652L239.369 131.027L241.344 129.887L241.344 126.457L244.118 124.855L244.118 128.285ZM250.823 124.586C253.015 123.32 254.416 120.887 254.416 118.152L254.416 118.137C254.416 115.426 252.995 114.613 250.823 115.867C248.651 117.121 247.23 119.59 247.23 122.285L247.23 122.301C247.23 125.027 248.624 125.855 250.823 124.586ZM250.83 122.793C249.856 123.355 249.24 122.781 249.24 121.141L249.24 121.125C249.24 119.508 249.869 118.207 250.823 117.656C251.784 117.102 252.406 117.68 252.406 119.297L252.406 119.312C252.406 120.945 251.797 122.234 250.83 122.793ZM255.552 121.684L259.253 119.547C260.897 118.598 261.926 117.051 261.926 115.59L261.926 115.574C261.926 114.535 261.256 114.156 260.288 114.574L260.288 114.512C261.033 113.949 261.601 112.84 261.601 111.949L261.601 111.934C261.601 110.613 260.694 110.34 259.186 111.211L255.552 113.309L255.552 121.684ZM257.494 115.555L257.494 113.648L258.651 112.98C259.301 112.605 259.659 112.727 259.659 113.344L259.659 113.359C259.659 113.984 259.274 114.527 258.55 114.945L257.494 115.555ZM257.494 119.094L257.494 116.953L258.604 116.312C259.443 115.828 259.889 115.906 259.889 116.609L259.889 116.625C259.889 117.344 259.463 117.957 258.692 118.402L257.494 119.094ZM266.425 115.578C268.617 114.312 270.018 111.879 270.018 109.145L270.018 109.129C270.018 106.418 268.597 105.605 266.425 106.859C264.253 108.113 262.832 110.582 262.832 113.277L262.832 113.293C262.832 116.02 264.226 116.848 266.425 115.578ZM266.432 113.785C265.458 114.348 264.842 113.773 264.842 112.133L264.842 112.117C264.842 110.5 265.471 109.199 266.425 108.648C267.386 108.094 268.008 108.672 268.008 110.289L268.008 110.305C268.008 111.938 267.399 113.227 266.432 113.785ZM276.208 103.102L276.208 101.383L271.154 104.301L271.154 112.676L273.13 111.535L273.13 104.879L276.208 103.102ZM280.525 107.438C282.717 106.172 284.118 103.738 284.118 101.004L284.118 100.988C284.118 98.2773 282.697 97.4648 280.525 98.7188C278.353 99.9727 276.932 102.441 276.932 105.137L276.932 105.152C276.932 107.879 278.326 108.707 280.525 107.438ZM280.532 105.645C279.558 106.207 278.942 105.633 278.942 103.992L278.942 103.977C278.942 102.359 279.571 101.059 280.525 100.508C281.486 99.9531 282.108 100.531 282.108 102.148L282.108 102.164C282.108 103.797 281.499 105.086 280.532 105.645ZM288.001 102.949L289.977 101.809L289.977 95.1523L292.683 93.5898L292.683 100.246L294.659 99.1055L294.659 90.7305L288.001 94.5742L288.001 102.949ZM299.388 96.5469C301.58 95.2812 302.981 92.8477 302.981 90.1133L302.981 90.0977C302.981 87.3867 301.56 86.5742 299.388 87.8281C297.216 89.082 295.796 91.5508 295.796 94.2461L295.796 94.2617C295.796 96.9883 297.189 97.8164 299.388 96.5469ZM299.395 94.7539C298.421 95.3164 297.805 94.7422 297.805 93.1016L297.805 93.0859C297.805 91.4688 298.434 90.168 299.388 89.6172C300.349 89.0625 300.971 89.6406 300.971 91.2578L300.971 91.2734C300.971 92.9062 300.362 94.1953 299.395 94.7539ZM306.553 88.3555L306.702 85.5039L308.698 84.3516L308.698 91L310.674 89.8594L310.674 81.4844L305.004 84.7578L304.787 89.1875C304.713 90.7305 304.476 91.5469 303.772 91.9531C303.59 92.0586 303.454 92.1133 303.373 92.1367L303.373 94.0508C303.488 94.0234 303.745 93.9375 304.111 93.7266C305.89 92.6992 306.425 90.8516 306.553 88.3555ZM312.101 89.0352L315.484 87.082C317.196 86.0938 318.292 84.3047 318.292 82.4922L318.292 82.4766C318.292 80.6641 317.196 80.1406 315.484 81.1289L314.077 81.9414L314.077 79.5195L312.101 80.6602L312.101 89.0352ZM315.125 83.0547C315.836 82.6445 316.282 82.8711 316.282 83.6367L316.282 83.6523C316.282 84.4102 315.836 85.1602 315.125 85.5703L314.077 86.1758L314.077 83.6602L315.125 83.0547ZM322.345 83.293C324.266 82.1836 325.518 80.4219 325.518 78.8438L325.518 78.8281C325.518 77.8281 324.983 77.4805 323.989 77.8438L323.989 77.7812C324.834 77.0742 325.322 76.1367 325.322 75.2305L325.322 75.2148C325.322 73.7461 324.219 73.4922 322.399 74.543C320.552 75.6094 319.456 77.1797 319.266 79.0156L319.259 79.082L321.106 78.0156L321.113 77.9492C321.215 77.2734 321.648 76.7031 322.345 76.3008C323.008 75.918 323.4 76.0352 323.4 76.6211L323.4 76.6367C323.4 77.2461 323.028 77.7812 322.29 78.207L321.323 78.7656L321.323 80.1875L322.304 79.6211C323.136 79.1406 323.549 79.2227 323.549 79.8633L323.549 79.8789C323.549 80.5039 323.096 81.1328 322.331 81.5742C321.587 82.0039 321.12 81.9609 320.971 81.4141L320.951 81.3398L319.077 82.4219L319.083 82.4961C319.232 84.0977 320.443 84.3906 322.345 83.293ZM330.024 78.8594C332.216 77.5938 333.616 75.1602 333.616 72.4258L333.616 72.4102C333.616 69.6992 332.196 68.8867 330.024 70.1406C327.852 71.3945 326.431 73.8633 326.431 76.5586L326.431 76.5742C326.431 79.3008 327.825 80.1289 330.024 78.8594ZM330.031 77.0664C329.056 77.6289 328.441 77.0547 328.441 75.4141L328.441 75.3984C328.441 73.7812 329.07 72.4805 330.024 71.9297C330.985 71.375 331.607 71.9531 331.607 73.5703L331.607 73.5859C331.607 75.2188 330.998 76.5078 330.031 77.0664ZM334.753 75.957L338.454 73.8203C340.098 72.8711 341.127 71.3242 341.127 69.8633L341.127 69.8477C341.127 68.8086 340.457 68.4297 339.489 68.8477L339.489 68.7852C340.233 68.2227 340.802 67.1133 340.802 66.2227L340.802 66.207C340.802 64.8867 339.895 64.6133 338.386 65.4844L334.753 67.582L334.753 75.957ZM336.695 69.8281L336.695 67.9219L337.852 67.2539C338.501 66.8789 338.86 67 338.86 67.6172L338.86 67.6328C338.86 68.2578 338.474 68.8008 337.75 69.2188L336.695 69.8281ZM336.695 73.3672L336.695 71.2266L337.805 70.5859C338.643 70.1016 339.09 70.1797 339.09 70.8828L339.09 70.8984C339.09 71.6172 338.664 72.2305 337.892 72.6758L336.695 73.3672ZM344.462 70.4844C345.409 69.9375 346.181 68.9688 346.6 67.8672L346.641 67.8438L346.641 69.0938L348.616 67.9531L348.616 62.2109C348.616 60.5234 347.398 60.1094 345.531 61.1875C343.61 62.2969 342.459 64.0703 342.351 65.6797L342.344 65.7773L344.151 64.7344L344.164 64.6562C344.266 64.0586 344.706 63.4062 345.443 62.9805C346.221 62.5312 346.641 62.75 346.641 63.4922L346.641 64.0078L344.848 65.168C343.041 66.3438 342.02 67.8242 342.02 69.3477L342.02 69.3633C342.02 70.8398 343.007 71.3242 344.462 70.4844ZM343.975 68.1172L343.975 68.1016C343.975 67.5078 344.381 66.8984 345.145 66.4023L346.641 65.4297L346.641 66.0312C346.641 66.9062 345.984 67.9414 345.098 68.4531C344.421 68.8438 343.975 68.7344 343.975 68.1172ZM355.815 55.4219L349.523 59.0547L349.523 60.7812L351.681 59.5352L351.681 66.1836L353.657 65.043L353.657 58.3945L355.815 57.1484L355.815 55.4219ZM359.976 61.5664C362.04 60.375 363.041 58.3828 363.271 57.0156L363.285 56.9219L361.471 57.9688L361.458 58.0234C361.323 58.5703 360.829 59.3711 360.017 59.8398C359.009 60.4219 358.379 60.0039 358.352 58.6836L363.345 55.8008L363.345 55.0977C363.345 52.5664 362.019 51.668 359.895 52.8945C357.764 54.125 356.404 56.6133 356.404 59.2773L356.404 59.2852C356.404 61.9648 357.75 62.8516 359.976 61.5664ZM359.929 54.5781C360.741 54.1094 361.329 54.3711 361.451 55.457L358.379 57.2305C358.508 56.0234 359.11 55.0508 359.929 54.5781ZM366.918 53.5039L367.067 50.6523L369.063 49.5L369.063 56.1484L371.038 55.0078L371.038 46.6328L365.368 49.9062L365.152 54.3359C365.078 55.8789 364.841 56.6953 364.137 57.1016C363.954 57.207 363.819 57.2617 363.738 57.2852L363.738 59.1992C363.853 59.1719 364.11 59.0859 364.475 58.875C366.255 57.8477 366.789 56 366.918 53.5039ZM376.708 51.7344L378.643 50.6172L378.643 42.2422L375.28 44.1836C373.521 45.1992 372.378 46.9844 372.378 48.7578L372.378 48.7734C372.378 49.9688 372.987 50.4766 373.975 50.2656L372.067 54.4141L374.266 53.1445L375.876 49.5117L376.708 49.0312L376.708 51.7344ZM375.477 48.1328C374.787 48.5312 374.353 48.3047 374.353 47.6406L374.353 47.625C374.353 46.8906 374.78 46.1758 375.477 45.7734L376.708 45.0625L376.708 47.4219L375.477 48.1328Z" fill="black"/>
    <defs>
        <linearGradient id="paint0_linear" x1="535.459" y1="537.546" x2="341.446" y2="537.546" gradientUnits="userSpaceOnUse">
            <stop stop-color="#CEC0FF" stop-opacity="0"/>
            <stop offset="0.129625" stop-color="#CEC0FF"/>
            <stop offset="0.747994" stop-color="#CEC0FF" stop-opacity="0"/>
        </linearGradient>
        <linearGradient id="paint1_linear" x1="535.459" y1="487.546" x2="341.446" y2="487.546" gradientUnits="userSpaceOnUse">
            <stop stop-color="#CEC0FF" stop-opacity="0"/>
            <stop offset="0.129625" stop-color="#CEC0FF"/>
            <stop offset="0.747994" stop-color="#CEC0FF" stop-opacity="0"/>
        </linearGradient>
        <linearGradient id="paint2_linear" x1="535.459" y1="436.204" x2="341.446" y2="436.204" gradientUnits="userSpaceOnUse">
            <stop stop-color="#CEC0FF" stop-opacity="0"/>
            <stop offset="0.129625" stop-color="#CEC0FF"/>
            <stop offset="0.747994" stop-color="#CEC0FF" stop-opacity="0"/>
        </linearGradient>
    </defs>
</svg>
