<svg version="1.1" id="Layer_1" xmlns="http://www.w3.org/2000/svg" xmlns:xlink="http://www.w3.org/1999/xlink" x="0px" y="0px"
     viewBox="0 0 599 738" style="enable-background:new 0 0 599 738;" xml:space="preserve">
<style type="text/css">
	.st0{fill:#FFE000;}
	.st1{fill:#FFFFFF;}
	.st2{fill:#7833FF;}
	.st3{fill:#FFFFFF;filter:url(#Adobe_OpacityMaskFilter);}
	.st4{mask:url(#path-9-inside-1_289_205_00000171684480346512924560000015131919289660855452_);}
	.st5{fill:#D3DBE6;}
	.st6{fill:#10162F;}
</style>
    <g>
	<path class="st0" d="M364,517.5l2.8-4.4l-5.6-1.3L364,517.5z M364,333l-2.8,4.4l5.6,1.3L364,333z M364.5,513.1V337.6l-1-0.2v175.5
		L364.5,513.1z"/>
</g>
    <g>
	<ellipse transform="matrix(0.7812 -0.6242 0.6242 0.7812 -77.7469 297.1127)" class="st1" cx="385" cy="259.5" rx="63.1" ry="79"/>
        <path class="st2" d="M400.2,333.2c-5,0-10.1-0.6-15.3-1.8c-38.7-8.7-70.1-48.1-70.1-87.8c0-19.3,7.3-35.7,20.6-46.3
		c13.3-10.6,31-14.1,49.7-9.9c38.7,8.7,70.1,48.1,70.1,87.8c0,19.3-7.3,35.7-20.6,46.3C425.1,329.3,413.2,333.2,400.2,333.2z
		 M369.9,186.7c-12.7,0-24.4,3.9-33.8,11.4c-13,10.4-20.2,26.6-20.2,45.5c0,39.2,31.1,78.1,69.3,86.8c18.5,4.2,35.8,0.7,48.9-9.7
		c13-10.4,20.2-26.6,20.2-45.5c0-39.2-31.1-78.1-69.3-86.8C379.8,187.3,374.8,186.7,369.9,186.7z"/>
</g>
    <g>
	<ellipse transform="matrix(0.7812 -0.6242 0.6242 0.7812 -79.5806 286.8181)" class="st1" cx="369.4" cy="257" rx="63.1" ry="79"/>
        <path class="st2" d="M384.6,330.7c-5,0-10.1-0.6-15.3-1.8c-38.7-8.7-70.1-48.1-70.1-87.8c0-19.3,7.3-35.7,20.6-46.3
		s31-14.1,49.7-9.9c38.7,8.7,70.1,48.1,70.1,87.8c0,19.3-7.3,35.7-20.6,46.3C409.5,326.7,397.6,330.7,384.6,330.7z M354.3,184.2
		c-12.7,0-24.4,3.9-33.8,11.4c-13,10.4-20.2,26.6-20.2,45.5c0,39.2,31.1,78.1,69.3,86.8c18.5,4.2,35.8,0.7,48.9-9.7
		c13-10.4,20.2-26.6,20.2-45.5c0-39.2-31.1-78.1-69.3-86.8C364.2,184.8,359.2,184.2,354.3,184.2z"/>
</g>
    <g>

		<ellipse transform="matrix(0.7812 -0.6242 0.6242 0.7812 -81.4139 276.5227)" class="st1" cx="353.8" cy="254.4" rx="63.1" ry="79"/>
        <path class="st2" d="M369,328.2c-5,0-10.1-0.6-15.3-1.8c-38.7-8.7-70.1-48.1-70.1-87.8c0-19.3,7.3-35.7,20.6-46.3
		c13.3-10.6,31-14.1,49.7-9.9c38.7,8.7,70.1,48.1,70.1,87.8c0,19.3-7.3,35.7-20.6,46.3C393.8,324.2,381.9,328.2,369,328.2z
		 M338.7,181.7c-12.7,0-24.4,3.9-33.8,11.4c-13.1,10.4-20.2,26.6-20.2,45.5c0,39.2,31.1,78.1,69.3,86.8c18.5,4.2,35.8,0.7,48.9-9.7
		c13-10.4,20.2-26.6,20.2-45.5c0-39.2-31.1-78.1-69.3-86.8C348.6,182.2,343.6,181.7,338.7,181.7z"/>
</g>
    <g>

		<ellipse transform="matrix(0.7812 -0.6242 0.6242 0.7812 -83.2476 266.2281)" class="st1" cx="338.2" cy="251.9" rx="62.7" ry="78.4"/>
        <path class="st2" d="M353.3,325.6c-5,0-10.1-0.6-15.3-1.8c-38.6-8.7-70-48.1-70-87.6c0-19.3,7.3-35.8,20.7-46.4
		c13.3-10.6,31-14.2,49.8-9.9c38.6,8.7,70,48.1,70,87.6c0,19.3-7.3,35.8-20.7,46.4C378.2,321.7,366.3,325.6,353.3,325.6z
		 M323.2,180.2c-12.5,0-24,3.8-33.3,11.2C277,201.6,270,217.6,270,236.2c0,38.7,30.7,77.2,68.5,85.7c18.2,4.1,35.3,0.7,48.1-9.5
		c12.8-10.3,19.9-26.2,19.9-44.8c0-38.7-30.7-77.2-68.5-85.7l0,0C333,180.7,328,180.2,323.2,180.2z"/>
</g>
    <g>
	<path class="st2" d="M296.3,219.6c-1.1,0.6-2.5,0.8-3.9,0.5c-3.3-0.8-5.7-3.7-5.7-7.2c0-3.6,2.3-5.4,5.3-4.7c1.6,0.4,2.7,1.1,3.7,2
		l1.3-1.9c-1.1-1.3-2.9-2.4-5-2.8c-5.4-1.2-8.4,1.9-8.4,6.8c0,5.2,3.4,9.4,8.5,10.6c2.1,0.5,4.2,0.2,5.2-0.7L296.3,219.6z
		 M307.1,222.8c-0.6,0.4-1.7,0.6-3,0.3c-1.7-0.4-2.9-1.6-3.2-3.2l7.6,1.7c0.1-0.4,0.2-0.8,0.2-1.5c0-3-2.3-5.5-5-6.1
		c-3.5-0.8-5.6,1.3-5.6,4.4c0,3.4,2.3,6.2,5.7,6.9c1.5,0.3,3,0.2,4-0.4L307.1,222.8z M303.6,216.3c1.5,0.4,2.4,1.6,2.4,2.9l-5.2-1.2
		C301.2,216.7,302,215.9,303.6,216.3z M310.9,231.5l2.7,0.6v-5.1c0.6,0.5,1.5,0.9,2.5,1.1c3.4,0.8,5.6-1.3,5.6-4.6
		c0-3.2-1.9-5.9-4.8-6.6c-1.4-0.3-2.6,0-3.3,0.6v-1l-2.7-0.6V231.5z M316,219.4c1.8,0.4,2.8,1.9,2.8,3.6c0,1.8-1.1,2.9-2.9,2.5
		c-0.9-0.2-1.5-0.5-2.2-1.1V220C314.3,219.4,315.1,219.2,316,219.4z M324,229.7c1,0.2,2.9,0.8,4.2,1.1c3.4,0.8,5,0,5-2.1
		c0-1.2-0.8-2.3-2.2-3v0c1.1,0.1,2-0.7,2-2c0-2-1.7-3.2-4.8-3.9c-1.6-0.4-3.2-0.6-4.1-0.8V229.7z M328.3,226.1c1.3,0.3,2,0.9,2,1.7
		c0,0.7-0.7,1.1-1.9,0.8c-0.7-0.1-1.4-0.4-1.8-0.5v-2.4L328.3,226.1z M328.3,222c1,0.2,1.7,0.8,1.7,1.6c0,0.8-0.7,1.1-1.6,0.9
		l-1.8-0.4v-2.4C326.9,221.7,327.7,221.8,328.3,222z M344,231.2c-0.6,0.4-1.7,0.6-3,0.3c-1.7-0.4-2.9-1.6-3.2-3.2l7.6,1.7
		c0.1-0.4,0.2-0.8,0.2-1.5c0-3-2.3-5.5-5-6.1c-3.5-0.8-5.6,1.3-5.6,4.4c0,3.4,2.3,6.2,5.7,6.9c1.5,0.3,3,0.2,4-0.4L344,231.2z
		 M340.5,224.6c1.5,0.4,2.4,1.6,2.4,2.9l-5.2-1.2C338,225,338.9,224.3,340.5,224.6z M347.8,239.9l2.7,0.6v-5.1
		c0.6,0.5,1.5,0.9,2.5,1.1c3.4,0.8,5.6-1.3,5.6-4.6c0-3.2-1.9-5.9-4.8-6.6c-1.4-0.3-2.6,0-3.3,0.6v-1l-2.7-0.6V239.9z M352.9,227.7
		c1.8,0.4,2.8,1.9,2.8,3.6c0,1.8-1.1,2.9-2.9,2.5c-0.9-0.2-1.5-0.5-2.2-1.1v-4.4C351.1,227.8,352,227.5,352.9,227.7z M368.1,239.7
		l2.7,0.6v-10.8l-2.7-0.6v4.1l-4.6-1v-4.1l-2.7-0.6V238l2.7,0.6v-4.1l4.6,1V239.7z M374.6,233.1c0.8-0.2,1.5-0.4,2.8-0.1
		c1.6,0.4,2,1.4,2,3.2c-0.5-0.5-1.5-1-2.4-1.2c-2.1-0.5-3.8,0.3-3.8,2.6c0,2.1,1.4,3.6,3.3,4.1c1.4,0.3,2.6,0,3.1-0.7v1.2l2.3,0.5
		v-6.6c0-2.9-1.1-4.7-4.2-5.4c-1.4-0.3-2.8-0.2-3.7,0.2L374.6,233.1z M377.3,239.6c-0.8-0.2-1.5-0.8-1.5-1.6c0-0.9,0.8-1.2,1.7-1
		c0.8,0.2,1.4,0.5,1.8,0.9v1.1C379,239.4,378.4,239.8,377.3,239.6z M389.8,233.8c-3.8-0.9-5.2,0.6-5.2,2.7c0,1.8,1.1,3,2,3.6
		l-2.8,3.2l3.1,0.7l2.2-2.7l1.5,0.3v3.2l2.7,0.6v-10.8L389.8,233.8z M387.4,237.3c0-0.8,0.6-1.5,1.9-1.2l1.2,0.3v3.1l-1.4-0.3
		C388.3,238.9,387.4,238.1,387.4,237.3z M325.4,244.9c-1.1,1-2.4,0.3-4.7,0.7c-3.2,0.7-4,4.3-4,7.8c0,4.2,2.2,7.3,5.7,8.1
		c3.3,0.8,5.5-1.3,5.5-4.3c0-3.2-1.9-5.7-4.8-6.4c-1.5-0.4-3,0.2-3.7,1.2l0,0c0.2-1.7,0.7-3.1,2.3-3.5c2-0.6,3.7,0.3,5.1-1
		L325.4,244.9z M319.6,254.7c0.4-1,1.4-1.7,2.9-1.4c1.7,0.4,2.6,1.8,2.6,3.4c0,1.6-1,2.7-2.7,2.3
		C320.6,258.6,319.6,256.8,319.6,254.7z M331.1,255.3c0.8-0.2,1.5-0.4,2.8-0.1c1.6,0.4,2,1.4,2,3.2c-0.5-0.5-1.5-1-2.4-1.2
		c-2.1-0.5-3.8,0.3-3.8,2.6c0,2.1,1.4,3.6,3.3,4.1c1.4,0.3,2.6,0,3.1-0.7v1.2l2.3,0.5v-6.6c0-2.9-1.1-4.7-4.2-5.4
		c-1.4-0.3-2.8-0.2-3.7,0.2L331.1,255.3z M333.8,261.7c-0.8-0.2-1.5-0.8-1.5-1.6c0-0.9,0.8-1.2,1.7-1c0.8,0.2,1.4,0.5,1.9,0.9v1.1
		C335.5,261.6,334.9,262,333.8,261.7z M344.8,266.6c2.9,0.6,4.8-0.2,4.8-2.2c0-1.2-0.7-2.4-2.2-3v0c1.2-0.2,1.9-0.9,1.9-2
		c0-1.9-1.4-3.4-4.2-4c-2-0.4-3.6-0.1-4.5,0.8l1.1,1.9c0.7-0.4,1.7-0.9,2.9-0.6c1.2,0.3,1.8,0.9,1.8,1.6c0,0.7-0.5,1.2-1.4,1
		l-1.8-0.4v1.8l2,0.4c1,0.2,1.6,0.9,1.6,1.6c0,0.8-0.7,1.2-2.2,0.8c-1-0.2-2.3-1.1-3-2l-1.4,1.4C341,265,343,266.2,344.8,266.6z
		 M353,260.2c0.8-0.2,1.5-0.4,2.8-0.1c1.6,0.4,2,1.4,2,3.2c-0.5-0.5-1.5-1-2.4-1.2c-2.1-0.5-3.8,0.3-3.8,2.6c0,2.1,1.4,3.6,3.3,4.1
		c1.4,0.3,2.6,0,3.1-0.7v1.2l2.3,0.5v-6.6c0-2.9-1.1-4.7-4.2-5.4c-1.4-0.3-2.8-0.2-3.7,0.2L353,260.2z M355.7,266.6
		c-0.8-0.2-1.5-0.8-1.5-1.6c0-0.9,0.8-1.2,1.7-1c0.8,0.2,1.4,0.5,1.8,0.9v1.1C357.4,266.5,356.8,266.9,355.7,266.6z M300,290.8
		l2.5,0.6v-2.5l7.5,1.7v2.5l2.5,0.6v-5.1l-1.8-0.4v-8.2l-7.8-1.8l-0.2,2.6c-0.1,2.4-0.7,4.5-1.5,5.3l-1.3-0.3V290.8z M305.4,282.4
		l0.1-1.1l2.6,0.6v5.6l-3.9-0.9C304.6,286,305.2,284.6,305.4,282.4z M315.1,283.6c0.8-0.2,1.5-0.4,2.8-0.1c1.6,0.4,2,1.4,2,3.2
		c-0.5-0.5-1.5-1-2.4-1.2c-2.1-0.5-3.8,0.3-3.8,2.6c0,2.1,1.4,3.6,3.3,4.1c1.4,0.3,2.6,0,3.1-0.7v1.2l2.3,0.5v-6.6
		c0-2.9-1.1-4.7-4.2-5.4c-1.4-0.3-2.8-0.2-3.7,0.2L315.1,283.6z M317.8,290.1c-0.8-0.2-1.5-0.8-1.5-1.6c0-0.9,0.8-1.2,1.7-1
		c0.8,0.2,1.4,0.5,1.9,0.9v1.1C319.5,290,318.9,290.3,317.8,290.1z M332.4,295.6l2.7,0.6v-10.8l-2.7-0.6v4.1l-4.6-1v-4.1l-2.7-0.6
		v10.8l2.7,0.6v-4.1l4.6,1V295.6z M345.4,298.5l2.7,0.6v-10.8l-2.7-0.6v4.1l-4.6-1v-4.1l-2.7-0.6v10.8l2.7,0.6v-4.1l4.6,1V298.5z
		 M351.1,299.8l3.8,0.9c3.6,0.8,4.8-0.9,4.8-3c0-1.9-1.1-4-4.6-4.8l-1.3-0.3v-3l-2.7-0.6V299.8z M361.2,302.1l2.7,0.6v-10.8
		l-2.7-0.6V302.1z M354.9,295c1.5,0.3,2,1.1,2,2.1c0,1-0.6,1.5-2,1.1l-1.1-0.2v-3.2L354.9,295z M377,294.9l-3.1-0.7l-2.3,3.1
		l-2.2-4.1l-3.3-0.7l3.5,6.1l-3.7,4.6l3.1,0.7l2.6-3.3l2.5,4.4l3.3,0.7l-3.7-6.5L377,294.9z"/>
</g>
    <g>
	<polygon class="st1" points="285,391.2 423.5,422.6 423.5,564.6 285,533.2 	"/>
        <path class="st2" d="M424.5,565.8L284,534V390l140.5,31.8V565.8z M286,532.4l136.5,30.9V423.4L286,392.5V532.4z"/>
</g>
    <g>
	<path class="st2" d="M330,475.6c-1.1,0.6-2.5,0.8-3.9,0.5c-3.3-0.8-5.7-3.7-5.7-7.2c0-3.6,2.3-5.4,5.3-4.7c1.6,0.4,2.7,1.1,3.7,2
		l1.3-1.9c-1.1-1.3-2.9-2.3-5-2.8c-5.4-1.2-8.4,1.9-8.4,6.8c0,5.2,3.4,9.4,8.5,10.6c2.1,0.5,4.2,0.2,5.2-0.7L330,475.6z
		 M340.8,478.8c-0.6,0.4-1.7,0.6-3,0.3c-1.7-0.4-2.9-1.6-3.2-3.2l7.6,1.7c0.1-0.4,0.2-0.8,0.2-1.5c0-3-2.3-5.5-5-6.1
		c-3.5-0.8-5.6,1.3-5.6,4.4c0,3.4,2.3,6.2,5.7,6.9c1.5,0.3,3,0.2,4-0.4L340.8,478.8z M337.3,472.3c1.5,0.4,2.4,1.6,2.4,2.9l-5.2-1.2
		C334.9,472.7,335.7,471.9,337.3,472.3z M344.6,487.5l2.7,0.6v-5.1c0.6,0.5,1.5,0.9,2.5,1.1c3.4,0.8,5.6-1.3,5.6-4.6
		c0-3.2-1.9-5.9-4.8-6.6c-1.4-0.3-2.6,0-3.3,0.6v-1l-2.7-0.6V487.5z M349.7,475.4c1.8,0.4,2.8,1.9,2.8,3.6c0,1.8-1.1,2.9-3,2.5
		c-0.9-0.2-1.5-0.5-2.2-1.1V476C348,475.4,348.8,475.2,349.7,475.4z M357.7,485.7c1,0.2,2.9,0.8,4.2,1.1c3.4,0.8,5,0,5-2.1
		c0-1.2-0.8-2.3-2.2-3v0c1.1,0.1,2-0.7,2-2c0-2-1.7-3.2-4.8-3.9c-1.6-0.4-3.2-0.6-4.1-0.8V485.7z M362,482.1c1.3,0.3,2,0.9,2,1.7
		c0,0.7-0.7,1.1-1.9,0.8c-0.7-0.1-1.4-0.4-1.8-0.5v-2.4L362,482.1z M362,478c1,0.2,1.7,0.8,1.7,1.6c0,0.8-0.7,1.1-1.6,0.9l-1.8-0.4
		v-2.4C360.6,477.7,361.4,477.8,362,478z M377.7,487.2c-0.6,0.4-1.7,0.6-3,0.3c-1.7-0.4-2.9-1.6-3.2-3.2l7.6,1.7
		c0.1-0.4,0.2-0.8,0.2-1.5c0-3-2.3-5.5-5-6.1c-3.5-0.8-5.6,1.3-5.6,4.4c0,3.4,2.3,6.2,5.7,6.9c1.5,0.3,3,0.2,4-0.4L377.7,487.2z
		 M374.2,480.7c1.5,0.3,2.4,1.6,2.4,2.9l-5.2-1.2C371.7,481,372.6,480.3,374.2,480.7z M381.5,495.9l2.7,0.6v-5.1
		c0.6,0.5,1.5,0.9,2.5,1.1c3.4,0.8,5.6-1.3,5.6-4.6c0-3.2-1.9-5.9-4.8-6.6c-1.4-0.3-2.6,0-3.3,0.6v-1l-2.7-0.6V495.9z M386.6,483.7
		c1.8,0.4,2.8,1.9,2.8,3.6c0,1.8-1.1,2.9-2.9,2.5c-0.9-0.2-1.5-0.5-2.2-1.1v-4.4C384.8,483.8,385.7,483.5,386.6,483.7z"/>
</g>
    <defs>
	<filter id="Adobe_OpacityMaskFilter" filterUnits="userSpaceOnUse" x="135" y="229.6" width="183.9" height="373.9">
		<feColorMatrix  type="matrix" values="1 0 0 0 0  0 1 0 0 0  0 0 1 0 0  0 0 0 1 0"/>
	</filter>
</defs>
    <mask maskUnits="userSpaceOnUse" x="135" y="229.6" width="183.9" height="373.9" id="path-9-inside-1_289_205_00000171684480346512924560000015131919289660855452_">
	<path class="st3" d="M152.8,239.8l148.3,33.5c4.3,1,7.8,5.3,7.8,9.8v304c0,4.4-3.5,7.2-7.8,6.2l-148.3-33.5c-4.3-1-7.8-5.3-7.8-9.8
		V246C145,241.6,148.5,238.8,152.8,239.8z"/>
</mask>
    <g class="st4">
	<path class="st5" d="M302.7,603.5c-1.3,0-2.6-0.1-3.9-0.4l-148.3-33.5c-8.9-2-15.6-10.4-15.6-19.5V246c0-5.2,2.2-9.9,6-13
		c3.8-3.1,8.9-4.2,14-3l148.3,33.5c8.9,2,15.6,10.4,15.6,19.5v304c0,5.2-2.2,9.9-6,13C310,602.3,306.4,603.5,302.7,603.5z
		 M155.2,550.1l143.6,32.5V283.3c-0.1-0.1-0.1-0.2-0.2-0.3L155,250.5v299.3C155.1,549.9,155.1,550,155.2,550.1z M155,549.7
		L155,549.7L155,549.7z M150.6,249.5L150.6,249.5C150.6,249.5,150.6,249.5,150.6,249.5L150.6,249.5z"/>
</g>
    <g>
	<path class="st5" d="M289.4,339.7l-124.9-28.3v-24.1l124.9,28.3V339.7z M166.5,309.8l120.9,27.4v-19.9l-120.9-27.4V309.8z"/>
</g>
    <g>
	<path class="st5" d="M289.4,371.7l-124.9-28.3v-24.1l124.9,28.3V371.7z M166.5,341.8l120.9,27.4v-19.9l-120.9-27.4V341.8z"/>
</g>
    <g>
	<path class="st2" d="M289.4,565.7l-124.9-28.3v-24.1l124.9,28.3V565.7z M166.5,535.8l120.9,27.4v-19.9l-120.9-27.4V535.8z"/>
</g>
    <g>
	<path class="st2" d="M194.5,535.2v-3c0.4,0.1,0.8,0.2,1.1,0.3c2,0.4,3-0.6,3-2c0-1.4-0.8-2.9-3.2-3.4c-0.6-0.1-1.9-0.4-2.3-0.5v8.4
		L194.5,535.2z M195.5,528.4c1,0.2,1.5,0.8,1.5,1.6c0,0.9-0.7,1.2-1.5,1c-0.3-0.1-0.7-0.2-1-0.3v-2.6
		C194.9,528.3,195.2,528.3,195.5,528.4z M203.7,535.8c-0.3,0.2-0.8,0.3-1.5,0.2c-0.8-0.2-1.5-0.8-1.6-1.6l3.8,0.9
		c0.1-0.2,0.1-0.4,0.1-0.7c0-1.5-1.1-2.8-2.5-3.1c-1.7-0.4-2.8,0.6-2.8,2.2c0,1.7,1.1,3.1,2.8,3.5c0.7,0.2,1.5,0.1,2-0.2
		L203.7,535.8z M202,532.5c0.8,0.2,1.2,0.8,1.2,1.4l-2.6-0.6C200.8,532.7,201.2,532.3,202,532.5z M206.1,537.8l1.3,0.3V534l2.2,0.5
		v-1.3l-3.5-0.8V537.8z M212.3,539.2l2.5-2.9v3.4l1.3,0.3v-5.4l-1.3-0.3l-2.5,2.9v-3.4l-1.3-0.3v5.4L212.3,539.2z M222.1,539.6
		c-0.3,0.3-0.8,0.5-1.4,0.4c-0.8-0.2-1.5-0.9-1.5-1.9c0-0.9,0.7-1.4,1.5-1.2c0.5,0.1,0.9,0.3,1.3,0.8l0.6-0.9
		c-0.5-0.6-1.3-1-2.1-1.2c-1.6-0.4-2.7,0.6-2.7,2.2c0,1.7,1.1,3.1,2.9,3.5c0.9,0.2,1.7,0,2.1-0.5L222.1,539.6z M223.6,537.8l1.7,0.4
		v4l1.3,0.3v-4l1.7,0.4v-1.4l-4.8-1.1V537.8z M229.8,545.6l1.3,0.3v-2.5c0.3,0.2,0.8,0.4,1.2,0.5c1.7,0.4,2.8-0.6,2.8-2.3
		c0-1.6-0.9-3-2.4-3.3c-0.7-0.2-1.3,0-1.6,0.3v-0.5l-1.3-0.3V545.6z M232.4,539.5c0.9,0.2,1.4,0.9,1.4,1.8c0,0.9-0.5,1.5-1.5,1.3
		c-0.4-0.1-0.7-0.2-1.1-0.6v-2.2C231.5,539.5,231.9,539.4,232.4,539.5z M237.2,540.9c0.4-0.1,0.8-0.2,1.4-0.1c0.8,0.2,1,0.7,1,1.6
		c-0.3-0.3-0.7-0.5-1.2-0.6c-1.1-0.2-1.9,0.1-1.9,1.3c0,1,0.7,1.8,1.6,2c0.7,0.2,1.3,0,1.6-0.3v0.6l1.2,0.3v-3.3
		c0-1.4-0.6-2.4-2.1-2.7c-0.7-0.2-1.4-0.1-1.9,0.1L237.2,540.9z M238.6,544.1c-0.4-0.1-0.7-0.4-0.7-0.8c0-0.5,0.4-0.6,0.8-0.5
		c0.4,0.1,0.7,0.2,0.9,0.5v0.6C239.4,544,239.1,544.2,238.6,544.1z M242.7,546.1l4.5,1v1.3l1.3,0.3v-2.5l-0.9-0.2v-4.1l-1.3-0.3v4.1
		l-2.2-0.5V541l-1.3-0.3V546.1z M251.1,548l2.5-2.9v3.4l1.3,0.3v-5.4l-1.3-0.3l-2.5,2.9v-3.4l-1.3-0.3v5.4L251.1,548z M259.5,544.5
		c-1.9-0.4-2.6,0.3-2.6,1.3c0,0.9,0.6,1.5,1,1.8l-1.4,1.6l1.5,0.3l1.1-1.4l0.7,0.2v1.6l1.3,0.3v-5.4L259.5,544.5z M258.3,546.3
		c0-0.4,0.3-0.7,1-0.6l0.6,0.1v1.6l-0.7-0.2C258.7,547.1,258.3,546.7,258.3,546.3z"/>
</g>
    <g>

		<rect x="198.6" y="285.1" transform="matrix(0.2207 -0.9753 0.9753 0.2207 -143.6692 435.3524)" class="st0" width="4" height="45"/>
</g>
    <g>

		<rect x="198.6" y="317.1" transform="matrix(0.2207 -0.9753 0.9753 0.2207 -174.8802 460.2907)" class="st0" width="4" height="45"/>
</g>
    <g>
	<polygon class="st1" points="146,51.2 354.7,98.4 354.7,192.4 146,145.2 	"/>
</g>
    <g>
	<polygon class="st2" points="160.6,69.5 215.2,81.9 215.2,97.9 160.6,85.5 	"/>
</g>
    <g>
	<polygon class="st2" points="223,83.7 277.6,96 277.6,112 223,99.7 	"/>
</g>
    <g>
	<path class="st2" d="M285.4,97.8l54.6,12.4v16l-54.6-12.4V97.8z"/>
</g>
    <g>
	<polygon class="st5" points="160.6,93.5 215.2,105.9 215.2,121.9 160.6,109.5 	"/>
</g>
    <g>
	<polygon class="st5" points="223,107.7 277.6,120 277.6,136 223,123.7 	"/>
</g>
    <g>
	<path class="st5" d="M285.4,121.8l54.6,12.4v16l-54.6-12.4V121.8z"/>
</g>
    <g>
	<polygon class="st5" points="160.6,117.5 215.2,129.9 215.2,145.9 160.6,133.5 	"/>
</g>
    <g>
	<polygon class="st5" points="223,131.7 277.6,144 277.6,160 223,147.7 	"/>
</g>
    <g>
	<path class="st5" d="M285.4,145.8l54.6,12.4v16l-54.6-12.4V145.8z"/>
</g>
    <g>
	<path class="st2" d="M355.7,193.7L145,146V50l1.2,0.3l209.5,47.4V193.7z M147,144.4l206.7,46.8V99.2L147,52.5V144.4z"/>
</g>
    <g>
	<path class="st0" d="M364.2,540.4l-2.8,4.4l5.6,1.3L364.2,540.4z M364.2,695.2l0,0.5l0.5,0.1v-0.5L364.2,695.2z M231,663l-0.5-0.1
		v0.5l0.5,0.1L231,663z M231.5,558.1l2.3-4.5l-5.6-1.3l2.3,5.5L231.5,558.1z M363.7,544.8v150.3l1,0.2V545L363.7,544.8z
		 M364.2,694.7L231,662.5l0,1l133.2,32.2L364.2,694.7z M231.5,663.1V557.6l-1-0.2v105.5L231.5,663.1z"/>
</g>
    <g>
	<path class="st6" d="M374.5,360.9c0,2.6,1.8,4.7,4.3,5.3c2.4,0.6,4.3-0.8,4.3-3.4c0-2.6-1.8-4.7-4.3-5.3
		C376.3,357,374.5,358.5,374.5,360.9z M376,361.3c0-1.7,1.2-2.7,2.7-2.3c1.5,0.4,2.8,1.8,2.8,3.6c0,1.7-1,2.7-2.8,2.3
		C377.3,364.5,376,362.9,376,361.3z M388.8,359.8c-0.5,0.5-1.2,0.1-2.3,0.4c-1.6,0.3-2,2.1-2,3.9c0,2.1,1.1,3.7,2.9,4.1
		c1.7,0.4,2.8-0.6,2.8-2.2c0-1.6-0.9-2.9-2.4-3.2c-0.8-0.2-1.5,0.1-1.8,0.6l0,0c0.1-0.8,0.4-1.6,1.1-1.8c1-0.3,1.9,0.2,2.6-0.5
		L388.8,359.8z M385.9,364.7c0.2-0.5,0.7-0.9,1.4-0.7c0.9,0.2,1.3,0.9,1.3,1.7c0,0.8-0.5,1.3-1.4,1.1
		C386.4,366.7,385.9,365.7,385.9,364.7z M390.9,364.7l1.4,0.3v4.1l2,0.4c1.8,0.4,2.4-0.5,2.4-1.5c0-1-0.5-2-2.3-2.4l-0.7-0.2V364
		l-2.7-0.6V364.7z M394.2,366.8c0.7,0.2,1,0.5,1,1s-0.3,0.7-1,0.6l-0.6-0.1v-1.6L394.2,366.8z M402.3,369.9
		c-0.3,0.2-0.8,0.3-1.5,0.2c-0.8-0.2-1.5-0.8-1.6-1.6l3.8,0.9c0.1-0.2,0.1-0.4,0.1-0.7c0-1.5-1.1-2.8-2.5-3.1
		c-1.7-0.4-2.8,0.6-2.8,2.2c0,1.7,1.1,3.1,2.8,3.5c0.7,0.2,1.5,0.1,2-0.2L402.3,369.9z M400.6,366.6c0.8,0.2,1.2,0.8,1.2,1.4
		l-2.6-0.6C399.3,366.8,399.8,366.5,400.6,366.6z M409.7,367.7l-1.7-0.4l-1.9,2.2l2.1,3.2l1.8,0.4l-2.3-3.3L409.7,367.7z
		 M404.7,371.9l1.3,0.3v-5.4l-1.3-0.3V371.9z M410.6,369.3l1.7,0.4v4l1.3,0.3v-4l1.7,0.4V369l-4.8-1.1V369.3z M380.3,385.4l1.4,0.3
		v-8.4l-1.4-0.3v3.4l-3.7-0.8v-3.4l-1.4-0.3v8.4l1.4,0.3V381l3.7,0.8V385.4z M383.8,383.5c0,1.6,1.1,3.1,2.9,3.5
		c1.7,0.4,2.9-0.6,2.9-2.2s-1.1-3.1-2.9-3.5C384.9,380.9,383.8,381.9,383.8,383.5z M385.2,383.8c0-0.9,0.6-1.4,1.4-1.2
		c0.8,0.2,1.4,0.9,1.4,1.9c0,0.9-0.6,1.4-1.4,1.2C385.8,385.5,385.2,384.7,385.2,383.8z M391.1,387.9c0.5,0.1,1.4,0.4,2.1,0.5
		c1.7,0.4,2.5,0,2.5-1.1c0-0.6-0.4-1.2-1.1-1.5v0c0.5,0,1-0.3,1-1c0-1-0.9-1.6-2.4-2c-0.8-0.2-1.6-0.3-2.1-0.4V387.9z M393.3,386.1
		c0.6,0.1,1,0.4,1,0.8c0,0.4-0.4,0.5-0.9,0.4c-0.3-0.1-0.7-0.2-0.9-0.2v-1.2L393.3,386.1z M393.3,384c0.5,0.1,0.8,0.4,0.8,0.8
		c0,0.4-0.4,0.5-0.8,0.4l-0.9-0.2v-1.2C392.6,383.9,393,384,393.3,384z M397.5,389.3l1.9,0.4c1.8,0.4,2.4-0.5,2.4-1.5
		c0-1-0.5-2-2.3-2.4l-0.7-0.1v-1.5l-1.3-0.3V389.3z M402.5,390.5l1.3,0.3v-5.4l-1.3-0.3V390.5z M399.4,386.9c0.7,0.2,1,0.6,1,1
		c0,0.5-0.3,0.7-1,0.6l-0.5-0.1v-1.6L399.4,386.9z M407.2,391.5l2.5-2.9v3.4l1.3,0.3V387l-1.3-0.3l-2.5,2.9v-3.4l-1.3-0.3v5.4
		L407.2,391.5z M406.6,383.3c0,1,0.5,2,1.8,2.3c1.2,0.3,1.8-0.4,1.8-1.5l-1.2-0.3c0,0.4-0.2,0.8-0.6,0.7c-0.4-0.1-0.6-0.6-0.6-1
		L406.6,383.3z M419.5,394.3l1.3,0.3v-5.4l-4.9-1.1v5.4l1.3,0.3v-4.1l2.2,0.5V394.3z M422.5,392.3c0,1.6,1.1,3.1,2.9,3.5
		c1.7,0.4,2.9-0.6,2.9-2.2s-1.1-3.1-2.9-3.5C423.6,389.7,422.5,390.7,422.5,392.3z M423.9,392.6c0-0.9,0.6-1.4,1.4-1.2
		c0.8,0.2,1.4,1,1.4,1.9c0,0.9-0.6,1.4-1.4,1.2C424.6,394.3,423.9,393.5,423.9,392.6z M433.2,397.4l1.3,0.3v-5.4l-4-0.9l-0.1,1.7
		c-0.1,2.1-0.7,2.4-1.2,2.2l0.1,1.4c1.4,0.3,2.1-0.1,2.4-3l0-0.6l1.4,0.3V397.4z M436.5,398.1l2,0.4c1.8,0.4,2.4-0.5,2.4-1.5
		c0-1-0.5-2-2.3-2.4l-0.7-0.2V393l-1.3-0.3V398.1z M438.4,395.8c0.7,0.2,1,0.6,1,1s-0.3,0.7-1,0.6l-0.6-0.1v-1.6L438.4,395.8z
		 M444.3,400c1.4,0.3,2.4-0.1,2.4-1.1c0-0.6-0.4-1.2-1.1-1.5v0c0.6-0.1,1-0.5,1-1c0-0.9-0.7-1.7-2.1-2c-1-0.2-1.8-0.1-2.3,0.4l0.6,1
		c0.3-0.2,0.8-0.4,1.4-0.3c0.6,0.1,0.9,0.4,0.9,0.8c0,0.3-0.3,0.6-0.7,0.5l-0.9-0.2v0.9l1,0.2c0.5,0.1,0.8,0.4,0.8,0.8
		c0,0.4-0.4,0.6-1.1,0.4c-0.5-0.1-1.2-0.6-1.5-1l-0.7,0.7C442.4,399.2,443.3,399.8,444.3,400z M448.1,398.1c0,1.6,1.1,3.1,2.9,3.5
		c1.7,0.4,2.9-0.6,2.9-2.2s-1.1-3.1-2.9-3.5C449.2,395.5,448.1,396.4,448.1,398.1z M449.5,398.4c0-0.9,0.6-1.4,1.4-1.2
		c0.8,0.2,1.4,0.9,1.4,1.9c0,0.9-0.6,1.4-1.4,1.2C450.1,400.1,449.5,399.3,449.5,398.4z M455.4,402.4c0.5,0.1,1.4,0.4,2.1,0.5
		c1.7,0.4,2.5,0,2.5-1.1c0-0.6-0.4-1.2-1.1-1.5v0c0.5,0,1-0.3,1-1c0-1-0.9-1.6-2.4-2c-0.8-0.2-1.6-0.3-2.1-0.4V402.4z M457.6,400.6
		c0.6,0.1,1,0.4,1,0.8c0,0.4-0.4,0.5-0.9,0.4c-0.3-0.1-0.7-0.2-0.9-0.2v-1.2L457.6,400.6z M457.6,398.6c0.5,0.1,0.8,0.4,0.8,0.8
		c0,0.4-0.4,0.5-0.8,0.4l-0.9-0.2v-1.2C456.9,398.4,457.3,398.5,457.6,398.6z M462.2,399.9c0.4-0.1,0.8-0.2,1.4-0.1
		c0.8,0.2,1,0.7,1,1.6c-0.3-0.2-0.7-0.5-1.2-0.6c-1.1-0.2-1.9,0.1-1.9,1.3c0,1,0.7,1.8,1.7,2c0.7,0.2,1.3,0,1.6-0.3v0.6l1.2,0.3
		v-3.3c0-1.4-0.5-2.4-2.1-2.7c-0.7-0.2-1.4-0.1-1.9,0.1L462.2,399.9z M463.5,403.2c-0.4-0.1-0.7-0.4-0.7-0.8c0-0.5,0.4-0.6,0.8-0.5
		c0.4,0.1,0.7,0.2,0.9,0.5v0.6C464.4,403.1,464.1,403.3,463.5,403.2z M467.1,401l1.7,0.4v4l1.3,0.3v-4l1.7,0.4v-1.4l-4.8-1.1V401z
		 M477.3,405.9c-0.3,0.2-0.8,0.3-1.5,0.2c-0.8-0.2-1.5-0.8-1.6-1.6l3.8,0.9c0.1-0.2,0.1-0.4,0.1-0.7c0-1.5-1.1-2.8-2.5-3.1
		c-1.7-0.4-2.8,0.6-2.8,2.2c0,1.7,1.1,3.1,2.8,3.5c0.7,0.2,1.5,0.1,2-0.2L477.3,405.9z M475.6,402.6c0.8,0.2,1.2,0.8,1.2,1.4
		l-2.6-0.6C474.3,402.8,474.8,402.4,475.6,402.6z M483,408.7l1.3,0.3v-5.4l-4-0.9l-0.1,1.7c-0.1,2.1-0.7,2.4-1.2,2.2l0.1,1.4
		c1.4,0.3,2.1-0.1,2.4-3l0-0.6l1.4,0.3V408.7z M486.3,409.4l2,0.4c1.8,0.4,2.4-0.5,2.4-1.5c0-1-0.5-2-2.3-2.4l-0.7-0.2v-1.5
		l-1.3-0.3V409.4z M488.3,407c0.7,0.2,1,0.6,1,1c0,0.5-0.3,0.7-1,0.6l-0.6-0.1v-1.6L488.3,407z"/>
</g>
    <g>
	<path class="st6" d="M244.8,635.6c-0.6,0.3-1.3,0.4-1.9,0.2c-1.7-0.4-2.8-1.8-2.8-3.6c0-1.8,1.1-2.7,2.7-2.3c0.8,0.2,1.4,0.5,1.8,1
		l0.6-0.9c-0.5-0.6-1.4-1.2-2.5-1.4c-2.7-0.6-4.2,1-4.2,3.4c0,2.6,1.7,4.7,4.2,5.3c1.1,0.2,2.1,0.1,2.6-0.4L244.8,635.6z
		 M246.2,635.2c0,1.6,1.1,3.1,2.9,3.5c1.7,0.4,2.9-0.6,2.9-2.2c0-1.6-1.1-3.1-2.9-3.5C247.3,632.6,246.2,633.5,246.2,635.2z
		 M247.7,635.5c0-0.9,0.6-1.4,1.4-1.2c0.8,0.2,1.4,1,1.4,1.9c0,0.9-0.6,1.4-1.4,1.2C248.3,637.2,247.7,636.4,247.7,635.5z
		 M255.4,640.1c1.4,0.3,2.4-0.1,2.4-1.1c0-0.6-0.4-1.2-1.1-1.5v0c0.6-0.1,1-0.5,1-1c0-0.9-0.7-1.7-2.1-2c-1-0.2-1.8-0.1-2.3,0.4
		l0.6,1c0.3-0.2,0.8-0.4,1.4-0.3c0.6,0.1,0.9,0.4,0.9,0.8c0,0.3-0.3,0.6-0.7,0.5l-0.9-0.2v0.9l1,0.2c0.5,0.1,0.8,0.4,0.8,0.8
		c0,0.4-0.4,0.6-1.1,0.4c-0.5-0.1-1.2-0.6-1.5-1l-0.7,0.7C253.5,639.3,254.5,639.9,255.4,640.1z M258.9,642l1.3,0.3V641l3.7,0.8v1.3
		l1.3,0.3v-2.5l-0.9-0.2v-4.1l-3.9-0.9l-0.1,1.3c-0.1,1.2-0.4,2.2-0.7,2.7l-0.7-0.2V642z M261.6,637.8l0-0.5l1.3,0.3v2.8l-2-0.4
		C261.2,639.6,261.5,638.9,261.6,637.8z M267,638.5c0.4-0.1,0.8-0.2,1.4-0.1c0.8,0.2,1,0.7,1,1.6c-0.3-0.3-0.7-0.5-1.2-0.6
		c-1.1-0.2-1.9,0.1-1.9,1.3c0,1,0.7,1.8,1.7,2c0.7,0.2,1.3,0,1.6-0.3v0.6l1.2,0.3v-3.3c0-1.4-0.5-2.4-2.1-2.7
		c-0.7-0.2-1.4-0.1-1.9,0.1L267,638.5z M268.3,641.8c-0.4-0.1-0.7-0.4-0.7-0.8c0-0.5,0.4-0.6,0.8-0.5c0.4,0.1,0.7,0.2,0.9,0.5v0.6
		C269.2,641.7,268.9,641.9,268.3,641.8z M271.9,639.6l1.7,0.4v4l1.3,0.3v-4l1.7,0.4v-1.4l-4.8-1.1V639.6z M278.1,645.1l2,0.4
		c1.8,0.4,2.4-0.5,2.4-1.5c0-1-0.5-2-2.3-2.4l-0.7-0.2V640l-1.3-0.3V645.1z M280.1,642.7c0.7,0.2,1,0.6,1,1s-0.3,0.7-1,0.6l-0.6-0.1
		v-1.6L280.1,642.7z M242.4,656l1.3,0.3v-5.4l-1.3-0.3v2l-2.3-0.5v-2l-1.3-0.3v5.4l1.3,0.3v-2.1l2.3,0.5V656z M245.4,654
		c0,1.6,1.1,3.1,2.9,3.5c1.7,0.4,2.9-0.6,2.9-2.2s-1.1-3.1-2.9-3.5C246.5,651.4,245.4,652.3,245.4,654z M246.8,654.3
		c0-0.9,0.6-1.4,1.4-1.2c0.8,0.2,1.4,1,1.4,1.9c0,0.9-0.6,1.4-1.4,1.2C247.4,656,246.8,655.2,246.8,654.3z M252.8,658.3
		c0.5,0.1,1.4,0.4,2.1,0.5c1.7,0.4,2.5,0,2.5-1.1c0-0.6-0.4-1.2-1.1-1.5v0c0.5,0,1-0.3,1-1c0-1-0.9-1.6-2.4-2
		c-0.8-0.2-1.6-0.3-2.1-0.4V658.3z M254.9,656.5c0.6,0.1,1,0.4,1,0.8c0,0.4-0.4,0.5-0.9,0.4c-0.3-0.1-0.7-0.2-0.9-0.2v-1.2
		L254.9,656.5z M254.9,654.5c0.5,0.1,0.8,0.4,0.8,0.8c0,0.4-0.4,0.5-0.8,0.4l-0.9-0.2v-1.2C254.2,654.3,254.6,654.4,254.9,654.5z
		 M258.8,657c0,1.6,1.1,3.1,2.9,3.5c1.7,0.4,2.9-0.6,2.9-2.2s-1.1-3.1-2.9-3.5C259.9,654.4,258.8,655.4,258.8,657z M260.2,657.3
		c0-0.9,0.6-1.4,1.4-1.2c0.8,0.2,1.4,0.9,1.4,1.9c0,0.9-0.6,1.4-1.4,1.2C260.8,659,260.2,658.2,260.2,657.3z M266.1,661.4l1.3,0.3
		v-4.1l2.2,0.5v-1.3l-3.5-0.8V661.4z M270.5,659.7c0,1.6,1.1,3.1,2.9,3.5c1.7,0.4,2.9-0.6,2.9-2.2s-1.1-3.1-2.9-3.5
		C271.6,657.1,270.5,658,270.5,659.7z M271.9,660c0-0.9,0.6-1.4,1.4-1.2c0.8,0.2,1.4,1,1.4,1.9c0,0.9-0.6,1.4-1.4,1.2
		C272.5,661.7,271.9,660.9,271.9,660z M284.4,665.5l1.3,0.3v-5.4l-4.9-1.1v5.4l1.3,0.3v-4.1l2.2,0.5V665.5z M287.4,663.5
		c0,1.6,1.1,3.1,2.9,3.5c1.7,0.4,2.9-0.6,2.9-2.2c0-1.6-1.1-3.1-2.9-3.5C288.5,660.9,287.4,661.9,287.4,663.5z M288.8,663.8
		c0-0.9,0.6-1.4,1.4-1.2c0.8,0.2,1.4,1,1.4,1.9c0,0.9-0.6,1.4-1.4,1.2C289.4,665.5,288.8,664.7,288.8,663.8z M298,668.6l1.3,0.3
		v-5.4l-4-0.9l-0.1,1.7c-0.1,2.1-0.7,2.4-1.2,2.2l0.1,1.4c1.4,0.3,2.1-0.1,2.4-3l0-0.6l1.4,0.3V668.6z M301.4,669.3l2,0.4
		c1.8,0.4,2.4-0.5,2.4-1.5c0-1-0.5-2-2.3-2.4l-0.7-0.2v-1.5l-1.3-0.3V669.3z M303.3,667c0.7,0.2,1,0.6,1,1s-0.3,0.7-1,0.6l-0.6-0.1
		v-1.6L303.3,667z M309.1,671.2c1.4,0.3,2.4-0.1,2.4-1.1c0-0.6-0.4-1.2-1.1-1.5v0c0.6-0.1,1-0.5,1-1c0-0.9-0.7-1.7-2.1-2
		c-1-0.2-1.8-0.1-2.3,0.4l0.6,1c0.3-0.2,0.8-0.4,1.4-0.3c0.6,0.1,0.9,0.4,0.9,0.8c0,0.3-0.3,0.6-0.7,0.5l-0.9-0.2v0.9l1,0.2
		c0.5,0.1,0.8,0.4,0.8,0.8c0,0.4-0.4,0.6-1.1,0.4c-0.5-0.1-1.2-0.6-1.5-1l-0.7,0.7C307.2,670.4,308.2,671,309.1,671.2z M313,669.3
		c0,1.6,1.1,3.1,2.9,3.5c1.7,0.4,2.9-0.6,2.9-2.2s-1.1-3.1-2.9-3.5C314.1,666.7,313,667.6,313,669.3z M314.4,669.6
		c0-0.9,0.6-1.4,1.4-1.2c0.8,0.2,1.4,1,1.4,1.9c0,0.9-0.6,1.4-1.4,1.2C315,671.3,314.4,670.5,314.4,669.6z M320.3,673.6
		c0.5,0.1,1.4,0.4,2.1,0.5c1.7,0.4,2.5,0,2.5-1.1c0-0.6-0.4-1.2-1.1-1.5v0c0.5,0,1-0.3,1-1c0-1-0.9-1.6-2.4-2
		c-0.8-0.2-1.6-0.3-2.1-0.4V673.6z M322.5,671.8c0.6,0.1,1,0.4,1,0.8c0,0.4-0.4,0.5-0.9,0.4c-0.3-0.1-0.7-0.2-0.9-0.2v-1.2
		L322.5,671.8z M322.5,669.8c0.5,0.1,0.8,0.4,0.8,0.8c0,0.4-0.4,0.5-0.8,0.4l-0.9-0.2v-1.2C321.8,669.6,322.2,669.7,322.5,669.8z
		 M327.1,671.1c0.4-0.1,0.8-0.2,1.4-0.1c0.8,0.2,1,0.7,1,1.6c-0.3-0.3-0.7-0.5-1.2-0.6c-1.1-0.2-1.9,0.1-1.9,1.3c0,1,0.7,1.8,1.6,2
		c0.7,0.2,1.3,0,1.6-0.3v0.6l1.2,0.3v-3.3c0-1.4-0.6-2.4-2.1-2.7c-0.7-0.2-1.4-0.1-1.9,0.1L327.1,671.1z M328.4,674.4
		c-0.4-0.1-0.7-0.4-0.7-0.8c0-0.5,0.4-0.6,0.8-0.5c0.4,0.1,0.7,0.2,0.9,0.5v0.6C329.3,674.3,329,674.5,328.4,674.4z M332,672.2
		l1.7,0.4v4l1.3,0.3v-4l1.7,0.4V672l-4.8-1.1V672.2z M342.2,677.1c-0.3,0.2-0.8,0.3-1.5,0.2c-0.8-0.2-1.5-0.8-1.6-1.6l3.8,0.9
		c0.1-0.2,0.1-0.4,0.1-0.7c0-1.5-1.1-2.8-2.5-3.1c-1.7-0.4-2.8,0.6-2.8,2.2c0,1.7,1.1,3.1,2.8,3.5c0.7,0.2,1.5,0.1,2-0.2
		L342.2,677.1z M340.5,673.8c0.8,0.2,1.2,0.8,1.2,1.4l-2.6-0.6C339.2,674,339.7,673.6,340.5,673.8z M347.9,679.9l1.3,0.3v-5.4
		l-4-0.9l-0.1,1.7c-0.1,2.1-0.7,2.4-1.2,2.2l0.1,1.4c1.4,0.3,2.1-0.1,2.4-3l0-0.6l1.4,0.3V679.9z M353.8,675.8
		c-1.9-0.4-2.6,0.3-2.6,1.3c0,0.9,0.6,1.5,1,1.8l-1.4,1.6l1.5,0.4l1.1-1.4l0.7,0.2v1.6l1.3,0.3v-5.4L353.8,675.8z M352.6,677.5
		c0-0.4,0.3-0.7,1-0.6l0.6,0.1v1.6l-0.7-0.2C353,678.4,352.6,678,352.6,677.5z"/>
</g>
</svg>
